<?xml version="1.0" encoding="UTF-8" standalone="no"?>
<svg
   width="37px"
   height="28px"
   viewBox="0 0 37 28"
   version="1.1"
   id="svg1"
   sodipodi:docname="accessibility.svg"
   inkscape:version="1.3.2 (091e20e, 2023-11-25, custom)"
   xmlns:inkscape="http://www.inkscape.org/namespaces/inkscape"
   xmlns:sodipodi="http://sodipodi.sourceforge.net/DTD/sodipodi-0.dtd"
   xmlns="http://www.w3.org/2000/svg"
   xmlns:svg="http://www.w3.org/2000/svg">
  <sodipodi:namedview
     id="namedview1"
     pagecolor="#ffffff"
     bordercolor="#000000"
     borderopacity="0.25"
     inkscape:showpageshadow="2"
     inkscape:pageopacity="0.0"
     inkscape:pagecheckerboard="0"
     inkscape:deskcolor="#d1d1d1"
     inkscape:zoom="27.634497"
     inkscape:cx="14.655595"
     inkscape:cy="14.456568"
     inkscape:window-width="2560"
     inkscape:window-height="1369"
     inkscape:window-x="-8"
     inkscape:window-y="-8"
     inkscape:window-maximized="1"
     inkscape:current-layer="svg1" />
  <!-- Generator: Sketch 49 (51002) - http://www.bohemiancoding.com/sketch -->
  <title
     id="title1">Global accessibility/icon</title>
  <desc
     id="desc1">Created with Sketch.</desc>
  <defs
     id="defs1">
    <inkscape:path-effect
       effect="spiro"
       id="path-effect6"
       is_visible="true"
       lpeversion="1" />
    <inkscape:path-effect
       effect="spiro"
       id="path-effect5"
       is_visible="true"
       lpeversion="1" />
    <inkscape:path-effect
       effect="spiro"
       id="path-effect4"
       is_visible="true"
       lpeversion="1" />
    <inkscape:path-effect
       effect="spiro"
       id="path-effect3"
       is_visible="true"
       lpeversion="1" />
    <inkscape:path-effect
       effect="spiro"
       id="path-effect2"
       is_visible="true"
       lpeversion="1" />
  </defs>
  <g
     id="Innovation"
     stroke="none"
     stroke-width="1"
     fill="none"
     fill-rule="evenodd"
     style="display:none">
    <g
       id="22.01.18-Bitcoin.org_Innovation_Desktop-1200px--"
       transform="translate(-782,-741)">
      <g
         id="//contenct"
         transform="translate(215,697)">
        <g
           id="box2"
           transform="translate(400)">
          <g
             id="Global-accessibility/icon"
             transform="translate(155,30)">
            <g
               id="g1">
              <rect
                 id="Rectangle-2"
                 x="0"
                 y="0"
                 width="60"
                 height="60" />
              <g
                 id="icon/world"
                 transform="translate(10,7)">
                <path
                   d="m 21,8 c 3.583351,0 6.645821,1.2708206 9.1875,3.8125 C 32.729179,14.354179 34,17.416649 34,21 34,24.583351 32.729179,27.645821 30.1875,30.1875 27.645821,32.729179 24.583351,34 21,34 17.416649,34 14.354179,32.729179 11.8125,30.1875 9.2708206,27.645821 8,24.583351 8,21 8,17.416649 9.2708206,14.354179 11.8125,11.8125 14.354179,9.2708206 17.416649,8 21,8 Z m -3.4,26 0.676923,-1.659386 C 18.358975,32.139476 18.4,31.925769 18.4,31.699488 c 0,-0.226281 -0.102563,-0.439988 -0.307692,-0.641126 -0.656414,-0.703986 -1.128204,-1.231967 -1.415385,-1.583959 -0.08205,-0.10057 -0.205127,-0.389702 -0.369231,-0.867406 -0.164103,-0.477705 -0.225641,-0.766837 -0.184615,-0.867407 0.205129,-0.452561 0.36923,-1.055969 0.492308,-1.810239 0.123077,-0.603416 -0.143587,-1.156539 -0.8,-1.659385 C 15.528204,24.068827 15.241027,23.817408 14.953846,23.5157 14.666665,23.213992 14.34872,22.887146 14,22.535154 13.65128,22.183161 13.37436,21.906599 13.169231,21.705461 12.430766,21.05176 12.020513,20.574063 11.938462,20.272355 11.569229,18.964954 11.364103,18.260979 11.323077,18.16041 c -0.369233,-0.653701 -0.594871,-1.345105 -0.676923,-2.074232 -0.08205,-0.729128 -0.06154,-1.495958 0.06154,-2.300512 0,-0.351993 -0.04102,-0.980542 -0.123077,-1.885666 C 8.8615299,14.313664 8,17.230131 8,20.649488 c 0,3.721065 1.066656,6.888952 3.2,9.503754 1.764111,2.162241 3.897423,3.444481 6.4,3.846758 z m 11.88421,-3.62963 c 1.5965,-1.728403 2.668419,-3.753074 3.21579,-6.074074 l -1.3,-0.148148 c -0.9579,-1.185191 -1.482456,-2.296291 -1.573684,-3.333333 -0.04561,-0.444447 -0.06842,-1.135798 -0.06842,-2.074074 0,-0.938277 -0.04561,-1.654319 -0.136842,-2.148148 -0.09123,-0.444447 -0.399121,-1.061725 -0.923685,-1.851852 -0.524564,-0.790128 -0.832455,-1.308641 -0.923684,-1.555556 -0.136843,-0.345681 -0.353507,-0.864194 -0.65,-1.555555 -0.296492,-0.691362 -0.535964,-1.209875 -0.718421,-1.555556 0.04561,0 0.125438,0.02469 0.239474,0.07407 0.114035,0.04938 0.193859,0.09876 0.239473,0.148148 0.456143,-0.09877 0.775438,-0.148148 0.957895,-0.148148 C 26.382449,9.01234 24.649133,8.2962978 22.642105,8 V 8.5925926 L 22.915789,9.2592593 21.957895,10.222222 21.342105,10 20.657895,9.2592593 19.973684,8.3703704 19.015789,8 C 18.05789,8.1481489 17.031584,8.4691333 15.936842,8.962963 v 0.5185185 c 0.136843,-0.098766 0.387718,-0.1975304 0.752632,-0.2962963 0.364914,-0.098766 0.638595,-0.1975304 0.821052,-0.2962963 0.09123,-0.049383 0.456137,0.172837 1.094737,0.6666667 -0.04561,0.049383 -0.296489,0.2839485 -0.752631,0.7037034 -0.456143,0.419755 -0.707018,0.703703 -0.752632,0.851852 0,0.04938 0.07982,0.160493 0.239474,0.333333 0.15965,0.172841 0.239473,0.308642 0.239473,0.407408 0,0.148149 -0.0114,0.358023 -0.03421,0.629629 -0.02281,0.271607 -0.03421,0.481481 -0.03421,0.62963 0.9579,-1.037042 1.459649,-1.555555 1.505263,-1.555555 0.410529,-0.09877 0.912278,0.111108 1.505264,0.629629 0.592985,0.518521 0.935087,0.950616 1.026315,1.296296 0.04562,0.148149 -0.04561,0.358024 -0.273684,0.62963 -0.228071,0.271606 -0.59298,0.629628 -1.094737,1.074074 C 19.67719,15.629632 19.380702,15.901234 19.289474,16 c -0.09123,0.09877 -0.29649,0.259258 -0.61579,0.481481 -0.3193,0.222224 -0.547367,0.432098 -0.68421,0.62963 -0.136843,0.197532 -0.15965,0.419752 -0.06842,0.666667 0.456142,0.987659 0.570176,1.580246 0.342105,1.777778 -0.09123,0.09877 -0.205263,0.111111 -0.342105,0.03704 -0.136843,-0.07408 -0.239474,-0.160494 -0.307895,-0.25926 -0.06842,-0.09877 -0.159649,-0.222221 -0.273684,-0.37037 C 17.225438,18.814814 17.145614,18.71605 17.1,18.666667 c -0.273686,-0.345681 -1.140344,-0.518519 -2.6,-0.518519 0,1.580255 0.342102,2.641973 1.026316,3.185185 1.870185,1.481489 2.942104,2.296296 3.215789,2.444445 0.273686,0.148149 0.821049,0.148149 1.642105,0 0.821057,-0.148149 1.345613,-0.123458 1.573685,0.07407 1.50527,1.135808 2.577189,1.85185 3.215789,2.148148 0.410529,0.148149 0.866664,0.481479 1.368421,1 0.501757,0.518521 0.638598,0.950616 0.410527,1.296296 -0.592986,0.98766 -0.912281,1.555555 -0.957895,1.703704 -0.364914,0.83951 -0.82105,1.456788 -1.368421,1.851852 C 24.03333,32.345681 23.554388,33.061724 23.189474,34 c 2.46317,-0.543213 4.561394,-1.753077 6.294736,-3.62963 z"
                   id="ion-android-globe---Ionicons"
                   fill="#95aabf"
                   opacity="0.5" />
                <circle
                   id="Oval-2"
                   stroke="#95aabf"
                   cx="21"
                   cy="21"
                   r="13" />
                <path
                   d="M 35.204357,26 C 36.973146,25.088294 38,24.001622 38,22.834982 38,21.864776 37.28983,20.949876 36.03336,20.14492 33.116422,18.276187 27.255189,17 20.5,17 14.600435,17 9.3827073,17.973373 6.212574,19.464737 4.1892253,20.416606 3,21.579488 3,22.834982 c 0,1.134929 0.9717901,2.194179 2.6530599,3.090288"
                   id="Oval-3"
                   stroke="#1c3c55"
                   stroke-linecap="round"
                   stroke-linejoin="round"
                   transform="rotate(-160,20.5,21.5)" />
                <path
                   d="M 36.044606,27.73279 C 37.914469,26.645552 39,25.34966 39,23.958404 39,22.801403 38.249249,21.710355 36.920981,20.750419 33.837361,18.521894 27.6412,17 20.5,17 14.263317,17 8.7474334,18.160778 5.3961496,19.939279 3.257181,21.074413 2,22.461187 2,23.958404 c 0,1.35344 1.027321,2.61663 2.8046634,3.685269 C 5.6396551,28.145717 6.7168439,28.597826 8.0362298,29"
                   id="path1"
                   stroke="#f7931a"
                   stroke-linecap="round"
                   stroke-linejoin="round"
                   transform="matrix(0.93969262,-0.34202014,-0.34202014,-0.93969262,9.1027646,51.624343)" />
              </g>
            </g>
          </g>
        </g>
      </g>
    </g>
  </g>
  <path
     style="fill:none;stroke:#95aabf;stroke-width:1.279;stroke-dasharray:none;stroke-opacity:1"
     d="m 22.073859,26.452444 c -0.0603,0.0014 -0.120632,0.0014 -0.180933,0 -0.696757,-0.01563 -1.375255,-0.210719 -2.06264,-0.32568 -1.229684,-0.205657 -2.487787,-0.154547 -3.727225,-0.289493 -0.944757,-0.102862 -1.875982,-0.313559 -2.822559,-0.398053 -0.336009,-0.02999 -0.67401,-0.04409 -1.006892,-0.09879 -0.332882,-0.0547 -0.663964,-0.152182 -0.947187,-0.335449 -0.417576,-0.270203 -0.697377,-0.701389 -1.013227,-1.0856 -0.08144,-0.09907 -0.165928,-0.195624 -0.253306,-0.289493 C 9.9339105,23.57177 9.8215477,23.484377 9.7342099,23.376579 9.6520306,23.275148 9.5926719,23.157337 9.51709,23.050899 9.437433,22.938722 9.3401147,22.839685 9.2637834,22.725219 9.1352075,22.532408 9.0713379,22.303511 9.0328592,22.074978 8.9943805,21.846446 8.9793421,21.614364 8.9381036,21.386313 8.8959073,21.152965 8.8265925,20.925509 8.7571703,20.698766 8.5883884,20.147501 8.4173819,19.594929 8.1781838,19.070367 8.0795682,18.854103 7.96936,18.642586 7.8886906,18.419007 7.7752724,18.104663 7.7222784,17.772277 7.6715707,17.441967 7.5771726,16.827057 7.4862872,16.202763 7.2373308,15.632635 6.9754694,15.032954 6.5495937,14.518797 6.2602912,13.931862 6.1409471,13.689737 6.044705,13.434998 5.8984246,13.208129 5.8455788,13.12617 5.7857512,13.046916 5.753678,12.954822 c -0.032127,-0.09225 -0.034439,-0.191825 -0.036187,-0.289493 -0.00691,-0.385961 -0.010142,-0.772083 0,-1.157973 0.01206,-0.45887 0.04302,-0.917004 0.072373,-1.375093 0.00929,-0.1449732 0.018428,-0.2900587 0.036187,-0.4342397 0.090948,-0.738383 0.4101062,-1.440471 0.86848,-2.0264526 0.2258111,-0.2886751 0.490423,-0.5600487 0.6151731,-0.9046664 0.063456,-0.175296 0.087676,-0.3625007 0.1455146,-0.5397296 0.028919,-0.088615 0.066511,-0.1750587 0.11958,-0.251691 0.053069,-0.076632 0.1222576,-0.14334 0.2053319,-0.185619 0.072401,-0.036847 0.1554971,-0.055623 0.21712,-0.10856 0.038887,-0.033406 0.066892,-0.078695 0.1085599,-0.10856 0.045339,-0.032496 0.1028358,-0.043623 0.1586066,-0.044762 0.055771,-0.00114 0.1113184,0.00682 0.1670733,0.00858 0.2322212,0.00729 0.4548344,-0.093194 0.6513598,-0.2171196 C 9.2668463,5.2034132 9.4366069,5.0651776 9.62565,4.9575716 9.7428764,4.8908447 9.8666034,4.8364257 9.9875165,4.7766383 10.287269,4.6284209 10.56986,4.4471337 10.870916,4.301582 c 0.301056,-0.1455516 0.627806,-0.2560353 0.96212,-0.2486767 0.0362,7.967e-4 0.07248,0.00297 0.10856,0 0.07943,-0.00654 0.155596,-0.038139 0.221158,-0.083457 0.06556,-0.045318 0.121032,-0.104 0.16931,-0.1674138 0.09656,-0.1268278 0.165402,-0.2728563 0.260892,-0.4004885 0.148626,-0.1986527 0.355023,-0.3444628 0.542799,-0.5066132 0.383207,-0.3309113 0.694223,-0.7357895 1.042896,-1.1029091 0.348673,-0.3671195 0.751784,-0.7060938 1.236864,-0.85117019 0.48832,-0.14604551 1.010147,-0.10855997 1.519839,-0.10855997 h 0.940853 c 0.490604,0 0.980839,-0.021736 1.470482,-0.0524282 0.489643,-0.0306922 0.992459,-0.0580177 1.460637,0.0886149 0.109219,0.0342073 0.21541,0.0779094 0.32568,0.10855996 0.118569,0.0329573 0.240757,0.0505274 0.361867,0.0723733 0.437856,0.078981 0.864173,0.2144352 1.302719,0.2894932 0.331153,0.056677 0.667365,0.078582 0.999342,0.1302167 0.331977,0.051635 0.664367,0.1350263 0.954737,0.3040231 0.269237,0.1566974 0.49334,0.3816233 0.75992,0.5427999 0.157843,0.095433 0.330928,0.1688192 0.470427,0.2894932 0.04583,0.039649 0.08893,0.084948 0.144746,0.10856 0.04587,0.019406 0.09683,0.022571 0.144747,0.036187 0.09397,0.026706 0.171256,0.091722 0.253306,0.1447466 0.217961,0.1408555 0.482289,0.2030702 0.687547,0.3618666 0.205327,0.1588495 0.329975,0.3968483 0.470426,0.6151731 0.235548,0.3661495 0.530972,0.6952261 0.723733,1.0855996 0.202902,0.4109105 0.282527,0.8702845 0.43424,1.3027196 0.06087,0.1734981 0.133462,0.3428818 0.21712,0.5066131 0.01895,0.085801 0.04313,0.1704461 0.07237,0.2533066 0.08807,0.2495772 0.221041,0.4806357 0.325679,0.7237331 0.114857,0.266838 0.195266,0.5476426 0.253307,0.832293 0.0416,0.2040372 0.07183,0.4102035 0.10856,0.6151731 0.05538,0.3089949 0.126319,0.617579 0.253307,0.9046655 0.126635,0.286289 0.306851,0.54634 0.434239,0.832294 0.234946,0.527394 0.280663,1.119303 0.470427,1.664586 0.08408,0.241597 0.19652,0.474307 0.253306,0.723733 0.04889,0.214727 0.05546,0.437634 0.10856,0.651359 0.07367,0.296563 0.234988,0.567803 0.289494,0.86848 0.04115,0.227003 0.01976,0.462924 0.07237,0.687547 0.02003,0.08551 0.05055,0.168231 0.07237,0.253306 0.08424,0.328482 0.03553,0.674116 0.03619,1.013226 4.94e-4,0.25447 0.02864,0.513847 -0.03619,0.75992 -0.04936,0.187338 -0.150481,0.357037 -0.264078,0.513969 -0.113598,0.156931 -0.240758,0.303831 -0.351095,0.463071 -0.108703,0.156881 -0.201142,0.325795 -0.32568,0.470426 -0.161622,0.187698 -0.371459,0.327744 -0.5428,0.506614 -0.262335,0.273864 -0.426271,0.629791 -0.687546,0.904666 -0.261382,0.274988 -0.60557,0.454135 -0.904666,0.687546 -0.249085,0.194383 -0.466189,0.425908 -0.687547,0.65136 -0.13949,0.14207 -0.284438,0.286998 -0.361866,0.470427 -0.06272,0.148589 -0.0767,0.31232 -0.10856,0.470426 -0.04203,0.208583 -0.118505,0.414361 -0.253307,0.578987 -0.141203,0.172444 -0.337012,0.289633 -0.506613,0.434239 -0.162653,0.138682 -0.301434,0.302942 -0.43424,0.470427 -0.06915,0.08721 -0.137202,0.175849 -0.21712,0.253307 -0.179938,0.1744 -0.412883,0.284914 -0.65136,0.361866 -0.08786,0.02835 -0.17914,0.05359 -0.253306,0.10856 -0.06862,0.05086 -0.117613,0.123615 -0.180933,0.180933 -0.08456,0.07654 -0.19134,0.122847 -0.289494,0.180934 -0.102889,0.06089 -0.197034,0.135286 -0.295738,0.202748 -0.0987,0.06746 -0.203793,0.128778 -0.319435,0.159118 -0.130655,0.03428 -0.270507,0.0279 -0.398053,0.07237 -0.0545,0.019 -0.105426,0.04688 -0.158417,0.06977 -0.05299,0.02289 -0.109583,0.04102 -0.167263,0.03879 -0.04329,-0.0017 -0.08527,-0.01474 -0.128173,-0.0208 -0.02145,-0.003 -0.04329,-0.0043 -0.06477,-0.0015 -0.02148,0.0028 -0.04266,0.0098 -0.06036,0.0223 -0.02795,0.01969 -0.0454,0.05135 -0.07237,0.07237 -0.02139,0.01667 -0.04757,0.02574 -0.07307,0.03497 -0.0255,0.0092 -0.05148,0.01929 -0.07167,0.0374 -0.02668,0.02393 -0.04005,0.05888 -0.05914,0.08923 -0.0095,0.01517 -0.02085,0.02954 -0.03532,0.0401 -0.01448,0.01057 -0.03244,0.01709 -0.05029,0.01542 -0.0061,-5.74e-4 -0.01212,-0.0021 -0.01823,-0.0027 -0.0061,-6.09e-4 -0.01256,-2.43e-4 -0.01796,0.0027 -0.0058,0.0031 -0.0098,0.009 -0.01154,0.01531 -0.0018,0.0063 -0.0015,0.01307 -1.64e-4,0.0195 0.0026,0.01286 0.0093,0.02466 0.0117,0.03756 0.0021,0.01111 9.49e-4,0.02273 -0.0026,0.03346 -0.0036,0.01072 -0.0096,0.02057 -0.01692,0.02916 -0.01471,0.01718 -0.03455,0.02914 -0.05478,0.03924 -0.02024,0.0101 -0.0413,0.01868 -0.06049,0.03064 -0.01919,0.01196 -0.03677,0.02783 -0.0461,0.04843 -0.0057,0.01259 -0.0081,0.02639 -0.01254,0.03947 -0.0022,0.0065 -0.005,0.01294 -0.0088,0.01868 -0.0038,0.0057 -0.0088,0.01082 -0.01482,0.01421 -0.0053,0.003 -0.01141,0.0046 -0.01752,0.0052 -0.0061,6.09e-4 -0.01228,2.4e-4 -0.01837,-5.24e-4 -0.01218,-0.0015 -0.02421,-0.0046 -0.03649,-0.0047 -0.01552,-8.8e-5 -0.03081,0.0048 -0.04436,0.01231 -0.01355,0.0076 -0.02547,0.01776 -0.03635,0.02882 -0.02176,0.02212 -0.03982,0.04802 -0.06404,0.06743 -0.04006,0.03212 -0.09598,0.04338 -0.145356,0.02927 -0.04937,-0.01411 -0.0909,-0.05321 -0.107951,-0.101645 z"
     id="path4"
     inkscape:path-effect="#path-effect4"
     inkscape:original-d="m 22.073859,26.452444 c -0.06031,0 -0.121228,0.0085 -0.180933,0 -1.48718,-0.212454 -0.190844,-0.10866 -2.06264,-0.32568 -1.236589,-0.143372 -2.48648,-0.200868 -3.727225,-0.289493 -0.952464,-0.06803 -1.885847,-0.221315 -2.822559,-0.398053 -0.28796,-0.05433 -1.553294,-0.200449 -1.954079,-0.43424 -0.380236,-0.221804 -0.72572,-0.753861 -1.013227,-1.0856 -0.08398,-0.0969 -0.168871,-0.192995 -0.253306,-0.289493 C 9.9513299,23.54545 9.8282727,23.476912 9.7342099,23.376579 9.6449742,23.281394 9.5934806,23.15667 9.51709,23.050899 9.4365672,22.939406 9.3354987,22.842571 9.2637834,22.725219 9.0234265,22.331907 9.0116831,21.82779 8.9381036,21.386313 8.9001556,21.158625 8.827766,20.916971 8.7571703,20.698766 8.5830608,20.16061 8.4121961,19.590394 8.1781838,19.070367 8.0057547,18.687191 8.0028825,18.780614 7.8886906,18.419007 7.7551107,17.996004 7.7674329,17.921278 7.6715707,17.441967 7.5374162,16.771195 7.436701,16.33043 7.2373308,15.632635 7.0300901,14.907292 6.636537,14.539644 6.2602912,13.931862 6.1183231,13.702529 6.024623,13.446503 5.8984246,13.208129 5.8529231,13.122182 5.7844307,13.04708 5.753678,12.954822 5.722925,12.862562 5.728854,12.761912 5.717491,12.665329 c -0.046887,-0.398538 -0.01534,-0.759132 0,-1.157973 C 5.774427,10.027009 5.6055235,12.344354 5.789864,10.132263 5.801926,9.9875165 5.794544,9.8398128 5.826051,9.6980233 5.9659449,9.068502 6.3571926,8.2150603 6.694531,7.6715707 6.9235915,7.3025288 7.114904,7.1387954 7.3097041,6.7669043 7.4480983,6.5026973 7.5641501,6.0058451 7.7801306,5.7898647 c 0.137263,-0.137263 0.069962,-0.020266 0.21712,-0.10856 0.043883,-0.02633 0.062787,-0.085674 0.1085599,-0.10856 0.078066,-0.039033 0.2416318,-0.022179 0.3256799,-0.036187 C 8.6629465,5.4979821 8.8700528,5.4258368 9.0828502,5.3194381 9.5808707,5.0704279 9.0847283,5.2881349 9.62565,4.9575716 9.7407233,4.887249 9.8654929,4.8340612 9.9875165,4.7766383 10.54244,4.5154978 11.215841,4.1900596 11.833036,4.0529053 c 0.03533,-0.00785 0.07423,0.011443 0.10856,0 0.221649,-0.073883 0.536227,-0.5362268 0.65136,-0.6513598 0.175006,-0.1750061 0.370784,-0.3286664 0.542799,-0.5066132 0.718195,-0.7429597 1.281425,-1.5701046 2.27976,-1.95407929 0.464408,-0.17861854 1.083115,-0.10855997 1.519839,-0.10855997 0.313618,0 0.627235,0 0.940853,0 0.97579,0 1.956601,-0.0287812 2.931119,0.0361867 0.314307,0.0209538 0.05534,0.0313193 0.32568,0.10855996 0.118278,0.0337937 0.241785,0.0456884 0.361867,0.0723733 0.792937,0.1762082 0.464863,0.1260091 1.302719,0.2894932 0.586653,0.1144688 1.405456,0.1599282 1.954079,0.4342398 0.280644,0.1403216 0.508679,0.3633418 0.75992,0.5427999 0.149826,0.1070186 0.319588,0.1839063 0.470427,0.2894932 0.04941,0.034586 0.0908,0.081588 0.144746,0.10856 0.04448,0.022242 0.09947,0.015607 0.144747,0.036187 0.08853,0.040242 0.167499,0.098982 0.253306,0.1447466 0.209778,0.1118816 0.504736,0.2019071 0.687547,0.3618666 0.153314,0.1341501 0.369879,0.464352 0.470426,0.6151731 0.239238,0.3588568 0.552421,0.6858708 0.723733,1.0855996 0.180947,0.4222078 0.267344,0.876208 0.43424,1.3027196 0.07237,0.168871 0.144747,0.3377421 0.21712,0.5066131 0.02412,0.084435 0.04154,0.1710835 0.07237,0.2533066 0.09289,0.2477013 0.237633,0.4742696 0.325679,0.7237331 0.09652,0.2734628 0.172453,0.553797 0.253307,0.832293 0.157661,0.5430548 -0.0032,0.028556 0.10856,0.6151731 0.03783,0.1986297 0.186208,0.725737 0.253307,0.9046655 0.115116,0.306978 0.318982,0.54415 0.434239,0.832294 0.21589,0.539723 0.301628,1.109961 0.470427,1.664586 0.04096,0.134592 0.215915,0.564817 0.253306,0.723733 0.04935,0.209718 0.04455,0.443319 0.10856,0.651359 0.0882,0.286643 0.239503,0.568534 0.289494,0.86848 0.03713,0.222757 0.04255,0.463864 0.07237,0.687547 0.01061,0.07954 0.06283,0.176967 0.07237,0.253306 0.04192,0.335348 0.02529,0.675445 0.03619,1.013226 0.007,0.218285 0.04891,0.547178 -0.03619,0.75992 -0.119049,0.297622 -0.423485,0.721456 -0.615173,0.97704 -0.112959,0.150612 -0.204782,0.325349 -0.32568,0.470426 -0.156994,0.188394 -0.377775,0.320961 -0.5428,0.506614 -0.252869,0.284478 -0.416122,0.633242 -0.687546,0.904666 -0.268018,0.268018 -0.622373,0.437825 -0.904666,0.687546 -0.236457,0.209174 -0.464314,0.428128 -0.687547,0.65136 -0.129184,0.129184 -0.277465,0.301623 -0.361866,0.470427 -0.158686,0.317371 0.0094,-0.06058 -0.10856,0.470426 -0.04399,0.197942 -0.132797,0.413286 -0.253307,0.578987 -0.139651,0.192019 -0.348774,0.285169 -0.506613,0.434239 -0.155146,0.146528 -0.291481,0.311806 -0.43424,0.470427 -0.07439,0.08266 -0.129337,0.185031 -0.21712,0.253307 -0.101721,0.07912 -0.478669,0.282163 -0.65136,0.361866 -0.08341,0.0385 -0.176871,0.0576 -0.253306,0.10856 -0.07097,0.04731 -0.113328,0.128929 -0.180933,0.180933 -0.0902,0.06938 -0.194083,0.118917 -0.289494,0.180934 -0.200461,0.1303 -0.380191,0.29778 -0.615173,0.361866 -0.100249,0.02734 -0.293999,0.03769 -0.398053,0.07237 -0.112846,0.03762 -0.211502,0.08573 -0.32568,0.10856 -0.0748,0.01496 -0.18032,-0.02433 -0.253306,0 -0.03237,0.01079 -0.04312,0.05482 -0.07237,0.07237 -0.04626,0.02775 -0.09986,0.04245 -0.144746,0.07237 -0.04825,0.03217 -0.09088,0.117814 -0.144747,0.144747 -0.01079,0.0054 -0.03079,-0.01079 -0.03619,0 -0.01079,0.02158 0.01241,0.05169 0,0.07237 -0.03016,0.05026 -0.140725,0.127323 -0.180933,0.180933 -0.01618,0.02158 -0.01711,0.0533 -0.03619,0.07237 -0.01706,0.01706 -0.05079,-0.01079 -0.07237,0 -0.04918,0.02459 -0.09556,0.08397 -0.144746,0.10856 -0.07854,0.03927 -0.171774,-0.03976 -0.253307,-0.07237 z" />
  <path
     style="fill:#95a9bf;fill-opacity:0.501961;stroke:none;stroke-width:1.279;stroke-dasharray:none;stroke-opacity:0.501961"
     d="m 30.469168,18.78087 c 0.0027,-0.01187 0.0027,-0.02432 0,-0.03619 -0.0043,-0.01939 -0.01566,-0.03674 -0.02987,-0.05062 -0.01422,-0.01388 -0.03127,-0.02453 -0.04884,-0.0338 -0.03515,-0.01853 -0.07379,-0.03256 -0.102217,-0.06033 -0.02918,-0.0285 -0.04417,-0.06818 -0.0572,-0.106836 -0.01303,-0.03865 -0.02554,-0.07871 -0.05136,-0.110284 -0.01628,-0.01991 -0.03712,-0.03549 -0.05699,-0.05182 -0.01987,-0.01634 -0.03935,-0.0341 -0.05157,-0.05674 -0.01471,-0.02725 -0.01765,-0.05913 -0.01974,-0.09003 -0.0021,-0.0309 -0.0038,-0.06265 -0.01645,-0.09091 -0.0091,-0.02028 -0.02354,-0.03789 -0.0404,-0.05238 -0.01685,-0.01449 -0.03609,-0.026 -0.05598,-0.03591 -0.03979,-0.01983 -0.08261,-0.0336 -0.120737,-0.05645 -0.04593,-0.02753 -0.08355,-0.06747 -0.113465,-0.111885 -0.02991,-0.04441 -0.05248,-0.09334 -0.07267,-0.142933 -0.04039,-0.09918 -0.07299,-0.20408 -0.13954,-0.287981 -0.02942,-0.03709 -0.06472,-0.06902 -0.09772,-0.102971 -0.033,-0.03395 -0.06426,-0.07076 -0.08321,-0.114149 -0.01994,-0.04567 -0.02522,-0.09614 -0.03619,-0.144747 -0.02749,-0.121767 -0.09096,-0.232248 -0.160062,-0.336204 -0.06911,-0.103957 -0.144982,-0.204008 -0.201804,-0.315156 -0.02961,-0.05792 -0.05387,-0.118571 -0.07237,-0.180933 0.01102,-0.02242 0.01102,-0.04995 0,-0.07237 -0.0076,-0.01543 -0.0198,-0.02808 -0.03283,-0.0393 -0.01303,-0.01121 -0.02705,-0.02127 -0.03954,-0.03307 -0.0338,-0.03196 -0.05473,-0.07526 -0.06952,-0.119359 -0.0148,-0.0441 -0.02417,-0.08987 -0.03904,-0.133947 -0.03479,-0.10314 -0.09911,-0.194602 -0.176021,-0.27163 -0.07691,-0.07703 -0.166338,-0.140434 -0.258219,-0.198797 -0.07346,-0.04666 -0.149039,-0.09053 -0.21712,-0.144746 -0.134803,-0.107349 -0.23536,-0.251296 -0.32568,-0.398053 -0.280131,-0.455172 -0.47995,-0.956008 -0.759919,-1.41128 -0.215885,-0.351062 -0.479293,-0.674921 -0.65136,-1.049413 -0.07017,-0.152718 -0.124317,-0.312182 -0.180933,-0.470426 -0.06487,-0.181317 -0.133293,-0.361923 -0.178758,-0.549051 -0.04547,-0.187129 -0.06757,-0.382392 -0.03836,-0.572736 0.0302,-0.196798 0.114074,-0.382261 0.144746,-0.578986 0.02608,-0.167254 0.013,-0.337839 0,-0.5066137 -0.02597,-0.3371813 -0.0514,-0.6753887 -0.03619,-1.0132263 0.0043,-0.096531 0.01199,-0.1936115 0,-0.2894932 C 25.969664,8.2603037 25.936795,8.1654352 25.90965,8.0696236 25.812819,7.7278439 25.788125,7.3704394 25.728717,7.0202106 25.673635,6.6954851 25.587479,6.3734682 25.439224,6.0793576 25.333542,5.869705 25.196712,5.6748221 25.116167,5.4542878 25.075895,5.3440207 25.050148,5.227385 25.05206,5.1100093 c 0.0019,-0.1173756 0.03254,-0.2357049 0.09767,-0.3333713 0.01201,-0.018007 0.02551,-0.036145 0.02891,-0.057519 0.0017,-0.010687 6.56e-4,-0.022007 -0.0043,-0.03164 -0.0025,-0.00482 -0.0059,-0.00917 -0.01009,-0.01256 -0.0042,-0.0034 -0.0092,-0.00582 -0.01454,-0.00684 -0.0059,-0.00114 -0.01207,-5.19e-4 -0.0181,7.97e-5 -0.006,5.987e-4 -0.01216,0.00117 -0.01809,-7.97e-5 -0.0071,-0.00149 -0.0135,-0.00556 -0.01841,-0.010879 -0.0049,-0.00532 -0.0084,-0.011858 -0.01076,-0.018702 -0.0047,-0.013689 -0.0051,-0.028427 -0.007,-0.042792 -0.0057,-0.04388 -0.02546,-0.085015 -0.05102,-0.1211356 -0.02557,-0.036121 -0.05691,-0.067717 -0.08844,-0.098763 -0.03153,-0.031046 -0.06354,-0.06186 -0.09072,-0.096775 -0.02719,-0.034915 -0.0496,-0.074392 -0.0593,-0.1175662 -0.01122,-0.049899 -0.0048,-0.1029607 0.01412,-0.150477 0.01892,-0.047516 0.04991,-0.089669 0.08674,-0.1251579 0.07365,-0.070978 0.16855,-0.1148408 0.261004,-0.1586049 0.282905,-0.1339164 0.560614,-0.2788082 0.832293,-0.4342399 0.18105,0.087843 0.351533,0.1974396 0.506613,0.3256799 0.29945,0.2476244 0.538951,0.5628419 0.723733,0.9046664 0.03848,0.071193 0.0747,0.1436157 0.10856,0.2171199 0.01183,-0.00528 0.02501,-0.00751 0.03792,-0.00642 0.01291,0.00109 0.02553,0.0055 0.03631,0.012684 0.01078,0.00719 0.0197,0.017138 0.02567,0.028636 0.006,0.011498 0.009,0.024519 0.0087,0.037472 -3.05e-4,0.012293 -0.0035,0.02431 -0.0051,0.036511 -7.64e-4,0.0061 -0.0011,0.012286 -4.32e-4,0.018398 6.7e-4,0.00611 0.0024,0.012165 0.0055,0.017464 0.0035,0.00594 0.0087,0.010769 0.01448,0.01448 0.0058,0.00371 0.01224,0.00635 0.01878,0.00851 0.01309,0.00432 0.02688,0.00685 0.03911,0.0132 0.01279,0.00664 0.0234,0.017417 0.02985,0.03031 0.0064,0.012893 0.0087,0.027842 0.0063,0.042063 0.06091,0.022588 0.121247,0.046723 0.180933,0.072373 0.20223,0.086908 0.398537,0.1923127 0.566276,0.3348389 0.167739,0.1425261 0.306341,0.3243709 0.374577,0.5336408 0.02368,0.072614 0.03898,0.1484283 0.07237,0.2171199 0.03077,0.063293 0.07597,0.1185602 0.10856,0.1809333 0.07488,0.1433065 0.07792,0.3116664 0.10856,0.4704265 0.04999,0.2589638 0.175964,0.4994067 0.21712,0.7599197 0.01705,0.1079124 0.01925,0.2177501 0.03619,0.3256799 0.0414,0.2637833 0.169566,0.5071144 0.32568,0.7237331 0.06068,0.084202 0.12591,0.1653017 0.180933,0.2533065 0.08961,0.1433222 0.151111,0.3040482 0.180933,0.4704266 0.02802,0.1563235 0.02849,0.317794 0.07237,0.4704265 0.0243,0.084537 0.06182,0.1659802 0.07237,0.2533066 0.01159,0.09592 -0.01013,0.193404 0,0.289493 0.0092,0.08754 0.04435,0.169859 0.07237,0.253307 0.08598,0.256116 0.106185,0.528708 0.144747,0.796106 0.07381,0.511804 0.217531,1.014155 0.43424,1.483653 0.185048,0.400904 0.426904,0.790946 0.470426,1.230346 0.02989,0.301782 -0.03688,0.603492 -0.07237,0.904666 -0.03978,0.337534 -0.04053,0.680235 -0.10856,1.013227 -0.06572,0.32169 -0.192741,0.627098 -0.289493,0.940853 -0.0795,0.257802 -0.139077,0.528056 -0.10856,0.796106 0.0048,0.04235 0.01188,0.08449 0.0142,0.127047 0.0023,0.04256 -2.53e-4,0.08598 -0.0142,0.12626 -0.01767,0.05104 -0.05262,0.09447 -0.07237,0.144746 -0.02228,0.05671 -0.02414,0.11942 -0.01926,0.180148 0.0049,0.06073 0.01621,0.120871 0.01926,0.181719 0.0043,0.08571 -0.0081,0.172223 -0.03618,0.253303 z"
     id="path6"
     inkscape:path-effect="#path-effect6"
     inkscape:original-d="m 30.469168,18.78087 c 0,-0.01207 0.0085,-0.02769 0,-0.03619 -0.04798,-0.04799 -0.07621,0.06471 -0.180934,-0.144747 -0.03247,-0.06495 -0.05951,-0.14845 -0.10856,-0.21712 -0.02975,-0.04164 -0.08317,-0.06413 -0.108559,-0.10856 -0.03049,-0.0534 0.0073,-0.137443 -0.03619,-0.180933 -0.05706,-0.05706 -0.1765,-0.06351 -0.21712,-0.144747 -0.08148,-0.162967 -0.192356,-0.38281 -0.32568,-0.542799 -0.07672,-0.09206 -0.133373,-0.106136 -0.180933,-0.21712 -0.01959,-0.04572 -0.01599,-0.0993 -0.03619,-0.144747 -0.100875,-0.226969 -0.250789,-0.429205 -0.361866,-0.65136 -0.02905,-0.0581 -0.04824,-0.120623 -0.07237,-0.180933 0,-0.02412 0.0076,-0.04948 0,-0.07237 -0.01078,-0.03236 -0.05345,-0.04398 -0.07237,-0.07237 -0.05188,-0.07782 -0.05245,-0.178486 -0.10856,-0.253306 -0.100113,-0.133484 -0.318016,-0.375337 -0.43424,-0.470427 -0.06732,-0.05508 -0.15211,-0.08696 -0.21712,-0.144746 -0.0361,-0.03209 -0.28791,-0.345173 -0.32568,-0.398053 -0.316854,-0.443596 -0.506555,-0.936222 -0.759919,-1.41128 -0.194255,-0.364228 -0.465934,-0.678561 -0.65136,-1.049413 -0.07625,-0.15249 -0.127683,-0.31069 -0.180933,-0.470426 -0.13434,-0.40301 -0.24983,-0.696609 -0.21712,-1.121787 0.01549,-0.201316 0.114846,-0.384645 0.144746,-0.578986 0.02568,-0.166908 0,-0.3377426 0,-0.5066137 0,-0.3408712 -0.01502,-0.6745065 -0.03619,-1.0132263 -0.006,-0.09631 0.01197,-0.1937402 0,-0.2894932 C 25.96969,8.2604173 25.92694,8.1675776 25.90965,8.0696236 25.84796,7.7200423 25.818917,7.3659748 25.728717,7.0202106 25.64589,6.7027085 25.520944,6.397147 25.439224,6.0793576 25.336536,5.6800161 25.220081,5.198726 25.149731,4.776638 c -0.0059,-0.035694 0.01144,-0.07423 0,-0.1085599 -0.0038,-0.011443 -0.02769,0.00853 -0.03619,0 -0.01907,-0.019072 -0.01712,-0.053301 -0.03619,-0.072373 -0.15915,-0.1591501 -0.322583,-0.1695124 -0.289493,-0.4342399 0.03009,-0.2407457 0.183987,-0.3048731 0.361867,-0.4342398 0.265336,-0.1929721 0.481071,-0.4163159 0.832293,-0.4342399 0.01361,0.00851 0.46207,0.2848493 0.506613,0.3256799 0.246634,0.2260812 0.53865,0.6270422 0.723733,0.9046664 0.04488,0.067326 0.06567,0.1485034 0.10856,0.2171199 -0.03097,0.1678845 0.07781,0.04162 0.10856,0.072373 0.01706,0.017059 -0.01079,0.050796 0,0.072373 0.0753,0.1506002 -0.0025,-0.038685 0.07237,0.036187 0.01907,0.019072 0.02412,0.048249 0.03619,0.072373 0.06031,0.024124 0.12415,0.040827 0.180933,0.072373 0.335259,0.1862548 0.728535,0.5500022 0.940853,0.8684797 0.07355,0.1103185 0.0018,0.058262 0.07237,0.2171199 0.02857,0.064272 0.07946,0.1169034 0.10856,0.1809333 0.125219,0.275481 0.03266,0.1668154 0.10856,0.4704265 0.0632,0.2528042 0.179671,0.4977784 0.21712,0.7599197 0.01827,0.1278974 -0.0078,0.1937958 0.03619,0.3256799 0.08093,0.2428034 0.194555,0.5051925 0.32568,0.7237331 0.05338,0.088976 0.132103,0.1617509 0.180933,0.2533065 0.07906,0.1482417 0.136728,0.3083392 0.180933,0.4704266 0.02652,0.097228 0.05335,0.3816592 0.07237,0.4704265 0.0184,0.085865 0.06077,0.1662626 0.07237,0.2533067 0.01275,0.09565 -0.01275,0.193842 0,0.289493 0.01161,0.08704 0.05263,0.167741 0.07237,0.253307 0.0609,0.263915 0.07868,0.531835 0.144747,0.796106 0.123426,0.493704 0.229397,1.015442 0.43424,1.483653 0.173432,0.396417 0.426285,0.788939 0.470426,1.230346 0.03001,0.300055 -0.04118,0.608381 -0.07237,0.904666 -0.03517,0.3341 -0.04257,0.683285 -0.10856,1.013227 -0.06495,0.324749 -0.232745,0.611711 -0.289493,0.940853 -0.04551,0.26393 -0.07068,0.530973 -0.10856,0.796106 -0.01026,0.07181 0.02335,0.183271 0,0.253307 -0.01638,0.04913 -0.05735,0.08466 -0.07237,0.144746 -0.02537,0.101493 0.04694,0.267992 0,0.361867 -0.08736,0.174719 -0.0362,-0.351492 -0.03618,0.253303 z" />
  <path
     style="fill:#95a9bf;stroke:none;stroke-width:1.279;stroke-dasharray:none;stroke-opacity:0.50196081;fill-opacity:0.50196081"
     d="m 16.356368,25.222098 c 0.182375,-0.483212 0.19536,-1.028496 0.03619,-1.51984 -0.181689,-0.560861 -0.569131,-1.027588 -0.946423,-1.480608 -0.377292,-0.45302 -0.761715,-0.92327 -0.935283,-1.486697 -0.09716,-0.315409 -0.123932,-0.647661 -0.144746,-0.97704 -0.03432,-0.543087 -0.05379,-1.091718 0.03619,-1.628399 0.05414,-0.3229 0.14771,-0.640327 0.166204,-0.967211 0.0092,-0.163441 -6.74e-4,-0.329025 -0.04325,-0.487094 -0.04258,-0.158069 -0.118818,-0.308664 -0.231513,-0.427401 -0.150293,-0.158352 -0.35455,-0.251297 -0.542799,-0.361867 -0.130899,-0.07689 -0.256226,-0.163866 -0.392941,-0.229857 -0.136716,-0.06599 -0.288277,-0.110739 -0.439352,-0.09582 -0.114389,0.01129 -0.225134,0.05633 -0.340025,0.05279 -0.05744,-0.0018 -0.115805,-0.01655 -0.162041,-0.05068 -0.02312,-0.01707 -0.04291,-0.03884 -0.05661,-0.0641 -0.0137,-0.02526 -0.02119,-0.05403 -0.02031,-0.08276 3.73e-4,-0.01209 0.0022,-0.0243 0,-0.03619 -0.0026,-0.01419 -0.01093,-0.02696 -0.02179,-0.03646 -0.01086,-0.0095 -0.02415,-0.0159 -0.03792,-0.0202 -0.02754,-0.0086 -0.05696,-0.0091 -0.08504,-0.01571 -0.04356,-0.01029 -0.08252,-0.03512 -0.11611,-0.06469 -0.03359,-0.02957 -0.06248,-0.064 -0.09248,-0.09722 -0.02999,-0.03322 -0.06156,-0.06564 -0.09911,-0.08999 -0.03755,-0.02435 -0.08186,-0.04031 -0.126536,-0.03759 -0.01834,0.0011 -0.03636,0.0053 -0.05464,0.0071 -0.01829,0.0018 -0.03748,0.0011 -0.05392,-0.0071 -0.01537,-0.0077 -0.02695,-0.02113 -0.03754,-0.03465 -0.01059,-0.01352 -0.02088,-0.0277 -0.03483,-0.03772 -0.01558,-0.01119 -0.0346,-0.01638 -0.05333,-0.0205 -0.01873,-0.0041 -0.03789,-0.0075 -0.05523,-0.01569 -0.01891,-0.009 -0.0349,-0.02343 -0.04732,-0.04027 -0.01242,-0.01684 -0.0214,-0.03601 -0.02832,-0.05576 -0.01383,-0.03949 -0.01961,-0.08142 -0.03292,-0.121094 -0.01934,-0.05766 -0.0541,-0.109022 -0.09328,-0.155544 -0.03918,-0.04652 -0.08303,-0.08887 -0.123853,-0.13395 -0.158186,-0.174676 -0.268128,-0.387032 -0.367719,-0.600612 -0.09959,-0.213579 -0.191288,-0.432219 -0.319827,-0.629734 -0.122011,-0.187483 -0.278503,-0.355526 -0.4704265,-0.470426 -0.078821,-0.04719 -0.1629786,-0.08512 -0.2408127,-0.133918 -0.077834,-0.0488 -0.1506921,-0.110441 -0.1934271,-0.191762 -0.046476,-0.08844 -0.05332,-0.19142 -0.072373,-0.289494 -0.06053,-0.311577 -0.2499063,-0.589742 -0.2894933,-0.904666 -0.0271,-0.215586 0,-0.434077 0,-0.65136 V 9.2999701 8.1781838 c 0,-0.078589 -0.0029,-0.1571412 -0.00759,-0.2355893 -0.0047,-0.078448 -0.00966,-0.1581651 0.00759,-0.2348372 0.010993,-0.048862 0.031026,-0.095133 0.047386,-0.1424685 0.01636,-0.047336 0.029212,-0.09712 0.024987,-0.1470247 -0.00261,-0.030832 -0.01167,-0.060775 -0.015521,-0.091477 -0.00193,-0.015351 -0.00254,-0.030957 -3.683e-4,-0.046275 0.00217,-0.015319 0.0072,-0.030381 0.015889,-0.043181 0.00961,-0.014159 0.023235,-0.025002 0.036187,-0.036187 0.08269,-0.071408 0.1450956,-0.1652113 0.1833861,-0.2675373 0.038291,-0.102326 0.052804,-0.2129589 0.046882,-0.3220537 C 9.5183924,6.393363 9.4259619,6.1855147 9.2999701,6.0069842 c -0.019003,-0.026927 -0.038821,-0.053358 -0.055478,-0.081796 -0.016657,-0.028437 -0.030182,-0.059159 -0.035431,-0.091695 -0.00525,-0.032536 -0.00176,-0.067108 0.013907,-0.096105 0.00783,-0.014499 0.018634,-0.027451 0.031842,-0.037306 0.013207,-0.00985 0.028833,-0.016558 0.045161,-0.018778 0.023945,-0.00326 0.048401,0.00306 0.072373,0 0.019516,-0.00249 0.03788,-0.011152 0.053837,-0.022662 0.015956,-0.01151 0.029686,-0.025816 0.042623,-0.04064 0.025873,-0.029647 0.049957,-0.062552 0.084474,-0.081444 0.033529,-0.018352 0.07331,-0.021409 0.1085599,-0.036187 0.035791,-0.015005 0.065453,-0.041438 0.09325,-0.068522 0.027797,-0.027083 0.054821,-0.05558 0.087684,-0.076225 0.053733,-0.033757 0.1185112,-0.043847 0.1812314,-0.053491 0.06272,-0.00964 0.127512,-0.020358 0.180635,-0.055068 0.01829,-0.011953 0.03473,-0.026481 0.05202,-0.039847 0.01729,-0.013366 0.03576,-0.025746 0.05654,-0.032526 0.02355,-0.00768 0.04899,-0.0078 0.07353,-0.00445 0.02454,0.00335 0.04848,0.010041 0.07257,0.015774 0.02409,0.00573 0.04865,0.010542 0.07341,0.01001 0.02476,-5.319e-4 0.04996,-0.00675 0.06998,-0.021336 0.01381,-0.010065 0.0246,-0.023621 0.03619,-0.036187 0.03615,-0.039209 0.08213,-0.070094 0.133491,-0.08446 0.05136,-0.014366 0.108144,-0.011451 0.156003,0.012087 0.01882,0.00925 0.03662,0.021705 0.05726,0.025404 0.01032,0.00185 0.02126,0.00134 0.03086,-0.00288 0.0048,-0.00211 0.0092,-0.00513 0.01279,-0.00896 0.0036,-0.00384 0.0063,-0.00851 0.0077,-0.013565 0.0016,-0.00585 0.0014,-0.01202 8.79e-4,-0.018056 -5.08e-4,-0.00604 -0.0013,-0.012088 -8.79e-4,-0.018131 6.46e-4,-0.00905 0.0041,-0.017821 0.0095,-0.025119 0.0054,-0.0073 0.01266,-0.013134 0.02078,-0.017178 0.01624,-0.00809 0.03541,-0.00887 0.05316,-0.00511 0.03549,0.00753 0.06486,0.031575 0.09751,0.047403 0.05616,0.027227 0.121726,0.029571 0.18322,0.018912 0.06149,-0.010659 0.120085,-0.033519 0.178646,-0.055099 0.258418,-0.095232 0.525121,-0.1679689 0.796107,-0.21712 l 0.07237,-0.036187 c -0.0051,-0.00453 -0.0081,-0.011281 -0.0081,-0.018093 0,-0.00681 0.003,-0.013569 0.0081,-0.018093 0.0047,-0.00414 0.01081,-0.00635 0.01701,-0.00702 0.0062,-6.722e-4 0.01247,1.028e-4 0.01858,0.00135 0.01221,0.0025 0.02438,0.00694 0.03678,0.00567 0.01328,-0.00136 0.02519,-0.00927 0.03404,-0.019259 0.0088,-0.00999 0.01503,-0.022005 0.02102,-0.033931 0.006,-0.011926 0.01195,-0.024023 0.02044,-0.034315 0.0085,-0.010292 0.01991,-0.018771 0.03306,-0.021054 0.01191,-0.00207 0.02415,0.00105 0.03619,0 0.01074,-9.35e-4 0.0211,-0.00524 0.02964,-0.011813 0.0085,-0.00657 0.0153,-0.01536 0.01991,-0.025107 0.0092,-0.019494 0.0097,-0.042268 0.005,-0.063312 -0.0094,-0.042089 -0.03779,-0.077159 -0.05456,-0.1168881 -0.0169,-0.040014 -0.02172,-0.084411 -0.01876,-0.1277456 0.003,-0.043334 0.01346,-0.085824 0.02624,-0.1273364 0.02556,-0.083024 0.06073,-0.1647605 0.06489,-0.2515311 0.0017,-0.036155 -0.002,-0.072419 0,-0.10856 0.0053,-0.096713 0.05196,-0.187738 0.115328,-0.2609963 0.06337,-0.073258 0.142882,-0.1306242 0.223913,-0.1836904 0.08103,-0.053066 0.164632,-0.1027433 0.239832,-0.1637928 0.0752,-0.06105 0.142524,-0.1348567 0.180847,-0.2238135 0.01621,-0.037626 0.02717,-0.077749 0.04828,-0.112862 0.01055,-0.017556 0.02369,-0.033776 0.04002,-0.046145 0.01633,-0.012368 0.036,-0.020748 0.05645,-0.021927 0.01211,-6.981e-4 0.0242,0.0011 0.03628,0.00217 0.01208,0.00107 0.02449,0.00138 0.03609,-0.00217 0.01442,-0.00442 0.02686,-0.014941 0.03361,-0.02843 0.0067,-0.013489 0.0077,-0.029756 0.0026,-0.043943 0.01409,8.167e-4 0.02839,-0.00212 0.04101,-0.00844 0.01263,-0.00631 0.02355,-0.015985 0.03136,-0.02775 0.0106,-0.015978 0.01518,-0.035096 0.01919,-0.053844 0.004,-0.018748 0.0078,-0.037918 0.01699,-0.054716 0.01,-0.018131 0.02591,-0.032489 0.04374,-0.043002 0.01782,-0.010512 0.03754,-0.017405 0.05744,-0.023093 0.03979,-0.011375 0.08205,-0.01872 0.115943,-0.042466 0.03187,-0.02233 0.05279,-0.056738 0.07267,-0.090197 0.01988,-0.03346 0.04052,-0.06797 0.07208,-0.090736 0.02192,-0.015809 0.04779,-0.024957 0.07237,-0.036187 0.07432,-0.033953 0.137955,-0.087656 0.195251,-0.1459117 0.05729,-0.058256 0.10921,-0.1216212 0.166616,-0.1797682 0.07544,-0.076414 0.160733,-0.1439057 0.256227,-0.1930106 0.09549,-0.049105 0.201517,-0.079455 0.308889,-0.080721 0.107372,-0.00127 0.215996,0.027434 0.30476,0.08786 0.08876,0.060427 0.156386,0.15339 0.179537,0.2582444 0.0131,0.059323 0.01207,0.1213932 0,0.1809333 -0.02787,0.1374682 -0.112071,0.2566034 -0.203574,0.3629123 -0.0915,0.106309 -0.193049,0.2053561 -0.266853,0.3246341 -0.071,0.114748 -0.114054,0.2446683 -0.180933,0.3618666 -0.05643,0.098885 -0.129401,0.1879696 -0.180933,0.2894932 -0.08126,0.1600956 -0.105564,0.3436605 -0.180933,0.5066131 -0.05974,0.1291584 -0.149718,0.2415227 -0.225619,0.361896 -0.0759,0.1203734 -0.139487,0.255756 -0.136248,0.3980238 0.002,0.089936 0.03128,0.1783336 0.07842,0.2549508 0.04714,0.076617 0.111765,0.1417213 0.184741,0.1943242 0.145952,0.1052057 0.321904,0.159695 0.496757,0.2020848 0.754763,0.1829785 1.54073,0.1703472 2.315946,0.2171199 0.09648,0.00582 0.193656,0.012556 0.289493,0 0.07278,-0.00954 0.143968,-0.030114 0.21712,-0.036187 0.09624,-0.00799 0.193369,0.00934 0.289493,0 0.110804,-0.010767 0.215498,-0.056456 0.32568,-0.072373 0.167443,-0.024189 0.338789,0.021387 0.506613,0 0.04878,-0.00622 0.09679,-0.018051 0.14577,-0.022396 0.04898,-0.00434 0.100285,-6.51e-4 0.143723,0.022396 0.03059,0.016229 0.05614,0.041786 0.07237,0.072373 0.04104,0.035913 0.09139,0.06109 0.144746,0.072373 0.01371,0.0029 0.0277,0.00493 0.04077,0.00998 0.0065,0.00253 0.01281,0.00582 0.01831,0.010158 0.0055,0.00434 0.0102,0.00976 0.0133,0.016047 0.0054,0.010976 0.0056,0.023791 0.0042,0.035947 -0.0014,0.012156 -0.0041,0.024194 -0.0042,0.036426 -1.18e-4,0.017918 0.0056,0.035527 0.01418,0.051254 0.0086,0.015728 0.01997,0.029745 0.03187,0.043146 0.02379,0.026803 0.05062,0.052723 0.06251,0.086532 0.0081,0.022943 0.0086,0.047867 0.0067,0.072115 -0.0018,0.024249 -0.0059,0.048325 -0.0067,0.072631 -0.0027,0.085458 0.03552,0.1678088 0.03619,0.2533066 6.72e-4,0.085472 -0.03619,0.1678318 -0.03619,0.2533065 3e-6,0.069906 0.0247,0.1374655 0.05429,0.200803 0.02958,0.063338 0.06448,0.124473 0.08709,0.1906217 0.02261,0.066149 0.03226,0.1394371 0.01009,0.2057325 -0.01109,0.033148 -0.03016,0.063894 -0.05649,0.086881 -0.02633,0.022987 -0.06006,0.037903 -0.09497,0.039695 -0.01205,6.184e-4 -0.02413,-2.921e-4 -0.03619,0 -0.04119,9.977e-4 -0.08102,0.016049 -0.116707,0.036646 -0.03569,0.020596 -0.06784,0.046685 -0.100413,0.071915 -0.175799,0.1361464 -0.369665,0.2506776 -0.578987,0.3256799 -0.184229,0.066011 -0.383647,0.1032414 -0.542799,0.2171199 -0.06284,0.044961 -0.117456,0.1006957 -0.180934,0.1447466 -0.1159,0.08043 -0.259102,0.1204685 -0.361866,0.2171199 -0.0498,0.046842 -0.08858,0.1057595 -0.144747,0.1447467 -0.06664,0.046258 -0.151932,0.060275 -0.21712,0.1085599 -0.05493,0.040687 -0.09106,0.1024307 -0.144746,0.1447466 -0.06371,0.05022 -0.14637,0.068863 -0.21712,0.10856 -0.0675,0.037874 -0.12255,0.093933 -0.180934,0.1447466 -0.07838,0.068213 -0.163993,0.127839 -0.253306,0.1809333 -0.199504,0.1185996 -0.417138,0.2046426 -0.615173,0.3256799 -0.162768,0.099482 -0.310584,0.221563 -0.470427,0.3256799 -0.14569,0.094898 -0.300839,0.1745288 -0.447191,0.2684028 -0.146352,0.09388 -0.285743,0.204085 -0.385102,0.34677 -0.03454,0.04961 -0.06449,0.103374 -0.10856,0.144747 -0.04118,0.03866 -0.09248,0.06439 -0.139869,0.09511 -0.0237,0.01536 -0.04663,0.03215 -0.06654,0.05218 -0.0199,0.02003 -0.03677,0.04346 -0.0469,0.06983 -0.0069,0.01788 -0.01056,0.03679 -0.01521,0.05536 -0.0047,0.01858 -0.01045,0.0372 -0.02097,0.0532 -0.0096,0.01461 -0.02284,0.02651 -0.03699,0.0368 -0.01414,0.01028 -0.02929,0.01909 -0.04392,0.02867 -0.01463,0.0096 -0.02886,0.02005 -0.0405,0.03309 -0.01164,0.01305 -0.02064,0.0289 -0.02333,0.04618 -0.0019,0.01195 -6.96e-4,0.02415 3.6e-4,0.0362 0.0011,0.01205 0.002,0.0243 -3.6e-4,0.03617 -0.0043,0.02156 -0.01873,0.03952 -0.03349,0.0558 -0.01476,0.01628 -0.03064,0.03239 -0.03888,0.05276 -0.0069,0.01697 -0.0079,0.03578 -0.0066,0.05404 0.0013,0.01826 0.0048,0.0363 0.0066,0.05452 0.0084,0.08247 -0.01704,0.16468 -0.04946,0.240967 -0.03242,0.07629 -0.07227,0.149826 -0.09528,0.229459 -0.04723,0.163425 -0.02007,0.33769 0,0.506613 0.03565,0.299995 0.04776,0.602783 0.03619,0.904667 0.06746,0.08518 0.117077,0.184419 0.144747,0.289493 0.01567,0.05949 0.02433,0.120566 0.03619,0.180933 0.03375,0.171768 0.09672,0.343356 0.21712,0.470427 0.03521,0.03716 0.07486,0.07002 0.10856,0.10856 0.0624,0.07135 0.102091,0.159422 0.137135,0.247495 0.03504,0.08807 0.06668,0.178278 0.116172,0.259118 0.102769,0.167854 0.27358,0.281785 0.398053,0.43424 0.03815,0.04672 0.07181,0.09692 0.10856,0.144746 0.192075,0.249968 0.46568,0.429666 0.75992,0.5428 0.07611,0.02926 0.153865,0.05439 0.228572,0.08707 0.07471,0.03268 0.146955,0.07346 0.205668,0.130051 0.08143,0.07849 0.13224,0.182437 0.192005,0.278454 0.02988,0.04801 0.06252,0.09468 0.102193,0.134975 0.03967,0.0403 0.08678,0.07418 0.140041,0.09318 0.01286,0.0046 0.02604,0.0083 0.03861,0.01361 0.01257,0.0053 0.02469,0.01238 0.03376,0.02258 0.01281,0.0144 0.01847,0.0337 0.02227,0.05259 0.0038,0.01889 0.0062,0.03832 0.01393,0.05597 0.0073,0.01658 0.01906,0.03094 0.03292,0.04258 0.01387,0.01163 0.02978,0.02063 0.0463,0.02803 0.03304,0.0148 0.06858,0.02336 0.101709,0.03795 0.07477,0.03293 0.132782,0.09432 0.186357,0.156009 0.05358,0.06168 0.106203,0.126403 0.175509,0.169671 0.07804,0.04872 0.171444,0.06657 0.253307,0.10856 0.06262,0.03212 0.117579,0.07791 0.180933,0.10856 0.103202,0.04993 0.223208,0.05715 0.32568,0.10856 0.03638,0.01825 0.06983,0.04174 0.104791,0.06258 0.03496,0.02084 0.07219,0.03929 0.112329,0.04598 0.05961,0.0099 0.120871,-0.0067 0.180933,0 0.05474,0.0061 0.107025,0.03224 0.144747,0.07237 0.07191,-0.01002 0.145209,-0.01002 0.21712,0 0.151582,0.02111 0.29307,0.08563 0.43424,0.144746 0.141319,0.05917 0.287109,0.114179 0.439831,0.126352 0.07636,0.0061 0.153976,0.0012 0.227879,-0.01895 0.0739,-0.02016 0.144047,-0.05592 0.200769,-0.107404 0.02526,-0.02293 0.04772,-0.04878 0.07237,-0.07237 0.105145,-0.100613 0.253071,-0.157347 0.398053,-0.144746 0.0363,0.0032 0.07363,0.01036 0.10856,0 0.02097,-0.0062 0.03966,-0.01845 0.05694,-0.03186 0.01729,-0.01341 0.03355,-0.02817 0.05162,-0.04051 0.06338,-0.04328 0.142803,-0.05318 0.21712,-0.07237 0.144074,-0.0372 0.275183,-0.112181 0.402409,-0.189346 0.127225,-0.07716 0.25382,-0.157959 0.393697,-0.208707 0.231611,-0.08403 0.485767,-0.0809 0.723733,-0.144747 0.147412,-0.03955 0.287041,-0.104408 0.43424,-0.144747 0.141662,-0.03882 0.288453,-0.05445 0.43424,-0.07237 0.225398,-0.02771 0.456918,-0.06361 0.65136,-0.180933 0.116819,-0.07049 0.216418,-0.168331 0.338374,-0.229502 0.06098,-0.03059 0.127792,-0.05164 0.196006,-0.05243 0.06821,-7.96e-4 0.137963,0.01995 0.189353,0.06482 0.03361,0.02934 0.05852,0.0682 0.07277,0.110473 0.01425,0.04228 0.01796,0.08786 0.01242,0.132131 -0.01107,0.08854 -0.05867,0.169841 -0.121909,0.232789 -0.06324,0.06295 -0.141455,0.108939 -0.222405,0.146465 -0.08095,0.03753 -0.165289,0.06719 -0.247497,0.101875 -0.321822,0.135782 -0.611414,0.351099 -0.82431,0.628013 -0.212896,0.276914 -0.347308,0.615634 -0.369849,0.9642 -0.002,0.03098 -0.0031,0.06208 -0.0078,0.09278 -0.0047,0.0307 -0.01296,0.06121 -0.02839,0.08815 -0.01084,0.01893 -0.02496,0.03573 -0.03834,0.05295 -0.01339,0.01722 -0.02625,0.03523 -0.03403,0.05561 -0.0069,0.01797 -0.0095,0.03721 -0.01374,0.05599 -0.0042,0.01878 -0.01019,0.03775 -0.02245,0.05257 -0.01106,0.01337 -0.02635,0.02236 -0.04032,0.03264 -0.007,0.0051 -0.01374,0.01068 -0.01943,0.01722 -0.0057,0.0065 -0.01032,0.01414 -0.01261,0.02251 -0.0031,0.0113 -0.0017,0.02364 0.0032,0.03427 0.0049,0.01062 0.01329,0.01952 0.02326,0.02568 0.01,0.0062 0.02148,0.0096 0.03314,0.01069 0.01166,0.0011 0.02348,-2.5e-4 0.03482,-0.0032 0.02268,-0.0059 0.04319,-0.01801 0.06275,-0.03089 0.01957,-0.01288 0.03867,-0.02671 0.05992,-0.03656 0.0527,-0.02442 0.114717,-0.02212 0.170315,-0.0053 0.0556,0.0168 0.106053,0.04701 0.155365,0.0777 0.124796,0.07766 0.252241,0.162409 0.398053,0.180933 0.03078,0.0039 0.06189,0.0048 0.09266,0.0088 0.03076,0.004 0.06165,0.01147 0.08827,0.02739 0.01879,0.01124 0.0349,0.02636 0.05188,0.04018 0.01698,0.01383 0.03548,0.02669 0.05668,0.03219 0.01759,0.0046 0.03608,0.0038 0.05418,0.0023 0.0181,-0.0015 0.03628,-0.0038 0.05438,-0.0023 0.03805,0.0033 0.07364,0.0244 0.0972,0.05446 0.02357,0.03006 0.03543,0.0685 0.03588,0.106691 4.43e-4,0.03819 -0.01014,0.07609 -0.02766,0.110029 -0.01752,0.03394 -0.04183,0.06407 -0.06922,0.09069 -0.0245,0.0238 -0.05172,0.04515 -0.07237,0.07237 -0.02681,0.03534 -0.04102,0.07869 -0.04999,0.122136 -0.009,0.04345 -0.01315,0.08778 -0.02238,0.13117 -0.01359,0.06384 -0.03818,0.125328 -0.07237,0.180934 0.0022,0.07381 -0.01016,0.148021 -0.03619,0.21712 -0.03634,0.09646 -0.09798,0.180858 -0.155633,0.266302 -0.05766,0.08544 -0.112971,0.175559 -0.13386,0.276497 -0.01013,0.04893 -0.01235,0.10083 -0.03619,0.144747 -0.01041,0.01917 -0.02454,0.036 -0.03803,0.05315 -0.01348,0.01715 -0.02656,0.03503 -0.03434,0.05541 -0.01085,0.02841 -0.01071,0.05981 -0.0078,0.09009 0.0029,0.03028 0.0084,0.06043 0.0078,0.09084 -0.001,0.05087 -0.01981,0.10121 -0.05238,0.140297 -0.03257,0.03909 -0.0787,0.06665 -0.12855,0.07682 -0.05581,0.09246 -0.104265,0.189366 -0.144747,0.289493 -0.04727,0.11692 -0.08367,0.238234 -0.10856,0.361867 -0.03628,0.02573 -0.06258,0.06517 -0.07237,0.10856 -0.01161,0.05144 -5.16e-4,0.105023 -0.002,0.157732 -7.45e-4,0.02636 -0.0048,0.05302 -0.01594,0.07691 -0.01116,0.02389 -0.03002,0.04488 -0.05442,0.05486 -0.01285,0.0053 -0.02677,0.0073 -0.03992,0.0118 -0.0066,0.0022 -0.01299,0.0051 -0.01868,0.009 -0.0057,0.004 -0.01064,0.0091 -0.01377,0.01535 -0.0028,0.0055 -0.004,0.01158 -0.0043,0.01769 -3.06e-4,0.0061 3.26e-4,0.01222 0.0012,0.01827 0.0018,0.0121 0.0046,0.02428 0.0031,0.03642 -0.0019,0.01557 -0.01098,0.02964 -0.0227,0.04008 -0.01172,0.01044 -0.02597,0.0176 -0.04048,0.0236 -0.0145,0.006 -0.02944,0.01094 -0.04365,0.01762 -0.0142,0.0067 -0.02782,0.01526 -0.03793,0.02726 -0.0089,0.01058 -0.01475,0.02343 -0.019,0.03659 -0.0042,0.01316 -0.007,0.02675 -0.01041,0.04015 -0.0034,0.0134 -0.0075,0.02676 -0.0143,0.03882 -0.0068,0.01207 -0.01636,0.02286 -0.02866,0.02918 -0.01244,0.0064 -0.02675,0.0078 -0.04019,0.01171 -0.0067,0.0019 -0.01333,0.0045 -0.01908,0.0085 -0.0058,0.004 -0.01063,0.0094 -0.01309,0.01598 -0.0021,0.0057 -0.0024,0.01195 -0.0019,0.01802 4.4e-4,0.0061 0.0015,0.01209 0.0019,0.01817 0.0014,0.01998 -0.0047,0.04002 -0.01481,0.05732 -0.01009,0.0173 -0.02405,0.03207 -0.03912,0.04526 -0.03015,0.02638 -0.06549,0.04731 -0.09081,0.07835 -0.03133,0.0384 -0.04412,0.08809 -0.06072,0.134795 -0.0083,0.02335 -0.01781,0.04645 -0.03124,0.06727 -0.01343,0.02083 -0.03102,0.0394 -0.05279,0.05124 -0.01191,0.0065 -0.02482,0.01083 -0.03738,0.01593 -0.01256,0.0051 -0.02501,0.0111 -0.03499,0.02026 -0.01391,0.01277 -0.02205,0.03091 -0.0256,0.04945 -0.0036,0.01855 -0.0029,0.03764 -0.0014,0.05646 0.0015,0.01882 0.0038,0.03764 0.0034,0.05652 -4.12e-4,0.01888 -0.0037,0.03805 -0.01261,0.05469 -0.0081,0.01511 -0.02054,0.02744 -0.03356,0.03862 -0.01301,0.01117 -0.02684,0.02147 -0.03881,0.03375 -0.02231,0.02288 -0.03746,0.05202 -0.04733,0.08242 -0.0099,0.0304 -0.01467,0.0622 -0.01841,0.09394 -0.0075,0.06349 -0.0115,0.129781 -0.04283,0.185504 -0.02135,0.03798 -0.05437,0.06889 -0.07237,0.10856 -0.0206,0.04539 -0.01956,0.09776 -0.03619,0.144747 -0.01177,0.03325 -0.03201,0.06274 -0.05255,0.09141 -0.02054,0.02867 -0.04179,0.05725 -0.05601,0.08952 -0.02215,0.05027 -0.02597,0.106535 -0.02659,0.161463 -6.23e-4,0.05493 0.0016,0.110436 -0.0096,0.164217 -0.01555,0.07479 -0.05623,0.142459 -0.07237,0.21712 -0.01027,0.04752 -0.01027,0.09723 0,0.144746 l -0.03619,0.07237 c -0.01139,-0.0049 -0.0248,-0.0049 -0.03619,0 -0.0075,0.0032 -0.01403,0.0084 -0.01918,0.01474 -0.0052,0.0063 -0.0089,0.01367 -0.01147,0.02141 -0.0051,0.01547 -0.0052,0.03215 -0.0037,0.04837 0.0015,0.01622 0.0044,0.03229 0.0053,0.04855 8.79e-4,0.01626 -4.26e-4,0.03301 -0.0071,0.04786 -0.0094,0.02092 -0.02866,0.03608 -0.04952,0.04564 -0.02085,0.0096 -0.04354,0.01426 -0.06582,0.01972 -0.02228,0.0055 -0.04476,0.01192 -0.06396,0.02447 -0.0096,0.0063 -0.01829,0.01406 -0.025,0.02336 -0.0067,0.0093 -0.01139,0.02017 -0.01282,0.03155 -0.0015,0.01206 6.02e-4,0.02424 0.002,0.03631 0.0014,0.01207 0.0021,0.02465 -0.002,0.03606 -0.0028,0.0077 -0.0077,0.0145 -0.01382,0.01996 -0.0061,0.0055 -0.01329,0.0096 -0.02091,0.01256 -0.01523,0.0059 -0.03187,0.0073 -0.04822,0.0071 -0.03269,-2.13e-4 -0.0653,-0.0035 -0.09799,-0.0035 h -0.723734 c -0.132767,0 -0.26615,0.01513 -0.398053,0 -0.148412,-0.01702 -0.28686,-0.08417 -0.43424,-0.10856 -0.09602,-0.01589 -0.194862,-0.01345 -0.289493,-0.03619 -0.07421,-0.01783 -0.143932,-0.05072 -0.21712,-0.07237 -0.221487,-0.06553 -0.461443,-0.02517 -0.687546,-0.07237 -0.04869,-0.01016 -0.09644,-0.02434 -0.144747,-0.03619 -0.129951,-0.03189 -0.264678,-0.04694 -0.398053,-0.03619 -0.09142,0.0074 -0.18153,0.02674 -0.272909,0.03456 -0.09138,0.0078 -0.186399,0.0034 -0.269891,-0.03456 -0.02456,-0.01116 -0.04779,-0.02508 -0.07237,-0.03619 -0.05561,-0.02514 -0.117102,-0.03536 -0.178118,-0.03649 -0.06102,-0.0011 -0.121846,0.0066 -0.182144,0.01597 -0.120595,0.0188 -0.243789,0.04445 -0.363471,0.02051 -0.1124,-0.02248 -0.21304,-0.08732 -0.32568,-0.10856 -0.02459,-0.0046 -0.04955,-0.0071 -0.07414,-0.01181 -0.02459,-0.0047 -0.04908,-0.01161 -0.07061,-0.02438 -0.03592,-0.02131 -0.06169,-0.05896 -0.06855,-0.100149 -0.0069,-0.04119 0.0053,-0.08517 0.03237,-0.116971 z"
     id="path5"
     inkscape:path-effect="#path-effect5"
     inkscape:original-d="m 16.356368,25.222098 c 0.07143,-0.495421 0.192184,-1.023483 0.03619,-1.51984 -0.354707,-1.128615 -1.334196,-1.940725 -1.881706,-2.967305 -0.172798,-0.323997 -0.144746,-0.622588 -0.144746,-0.97704 0,-0.544667 -0.01103,-1.085465 0.03619,-1.628399 0.06204,-0.713505 0.250876,-1.162835 -0.10856,-1.881706 -0.08446,-0.168929 -0.377177,-0.288257 -0.542799,-0.361867 -0.272992,-0.12133 -0.550924,-0.225191 -0.832293,-0.32568 -0.174651,-0.06238 -0.413301,-0.0619 -0.578987,-0.144746 -0.01079,-0.0054 0.0097,-0.02895 0,-0.03619 -0.04316,-0.03237 -0.09986,-0.04245 -0.144747,-0.07237 -0.13084,-0.08723 -0.279035,-0.237759 -0.434239,-0.289494 -0.03433,-0.01144 -0.07345,0.0088 -0.10856,0 -0.0331,-0.0083 -0.04399,-0.05345 -0.07237,-0.07237 -0.03174,-0.02116 -0.08159,-0.0092 -0.10856,-0.03619 -0.02931,-0.02931 -0.06846,-0.156963 -0.10856,-0.217119 C 11.2957,14.591418 11.209901,14.504273 11.145489,14.402288 10.894953,14.005606 10.729496,13.556642 10.457943,13.171942 10.340183,13.005115 10.153525,12.820093 9.9875165,12.701516 9.8695729,12.61727 9.6301152,12.529513 9.5532767,12.375836 9.499114,12.26751 9.5221943,12.210215 9.4809034,12.086342 9.3800918,11.783908 9.2210506,11.507721 9.1914101,11.181676 c -0.019406,-0.213467 0,-0.436589 0,-0.65136 0,-0.410115 0,-0.8202305 0,-1.2303459 0,-0.3739288 0,-0.7478575 0,-1.1217863 0,-0.1441032 -0.028325,-0.3288031 0,-0.4704265 0.019054,-0.095272 0.053319,-0.1942209 0.072373,-0.2894932 0.011828,-0.05914 -0.019072,-0.1237172 0,-0.1809333 0.00539,-0.016183 0.030792,-0.020003 0.036187,-0.036187 0.042989,-0.1289683 0,-1.0377487 0,-1.1941596 0,-0.085996 -0.035764,-0.2541517 0,-0.3256799 0.010789,-0.021578 0.052301,0.013382 0.072373,0 0.060769,-0.040513 0.1144813,-0.1115207 0.1809333,-0.1447466 0.034117,-0.017059 0.075852,-0.016562 0.1085599,-0.036187 0.33658,-0.201948 -0.2536104,0.072525 0.1809333,-0.1447466 0.1128393,-0.05642 0.2458714,-0.079561 0.3618664,-0.10856 0.174744,-0.043686 -0.0018,-0.017197 0.10856,-0.072373 0.07669,-0.038342 0.207607,0.027296 0.289494,0 0.01618,-0.00539 0.02,-0.030792 0.03619,-0.036187 0.0892,-0.029732 0.197016,-0.041548 0.289494,-0.072373 0.05428,-0.018093 0.03619,0.036187 0.108559,0 0.01079,-0.00539 -0.0085,-0.027657 0,-0.036187 0.01966,-0.019659 0.152947,0.00233 0.180934,0 0.120805,-0.010067 0.241579,-0.021151 0.361866,-0.036187 0.276473,-0.034559 0.53827,-0.1139854 0.796107,-0.21712 0.02412,-0.012062 0.04825,-0.024124 0.07237,-0.036187 0,-0.012062 -0.01079,-0.030792 0,-0.036187 0.02158,-0.010789 0.0508,0.010789 0.07237,0 0.04577,-0.022886 0.06279,-0.085674 0.10856,-0.1085599 0.01079,-0.00539 0.02766,0.00853 0.03619,0 0.02191,-0.02191 0,-0.1760579 0,-0.21712 0,-0.1726209 0.0188,-0.3458781 0.07237,-0.5066131 0.01086,-0.032568 -0.01086,-0.075992 0,-0.10856 0.10944,-0.3283186 0.485562,-0.6128063 0.75992,-0.832293 0.06031,-0.048249 0.08296,-0.1345918 0.144747,-0.1809333 0.0193,-0.014475 0.04949,0.00763 0.07237,0 0.07201,-0.024003 0.01689,-0.033774 0.03619,-0.072373 -0.0094,-0.076454 0.05741,-0.013745 0.07237,-0.036187 0.02116,-0.031738 0.01236,-0.078774 0.03619,-0.1085599 0.09761,-0.1220143 0.104739,-0.03364 0.217119,-0.10856 0.33625,-0.2241666 -0.02428,-0.011909 0.144747,-0.1809332 0.01907,-0.019072 0.0508,-0.020003 0.07237,-0.036187 0.101885,-0.076413 0.255907,-0.2727001 0.361867,-0.3256799 0.03131,-0.015654 0.972345,0.020995 1.049413,0.072373 0.0051,0.00341 0.0048,0.1682229 0,0.1809333 -0.09565,0.2550732 -0.334111,0.4558094 -0.470427,0.6875464 -0.06838,0.1162402 -0.115439,0.243978 -0.180933,0.3618666 -0.05526,0.099474 -0.130043,0.1877121 -0.180933,0.2894932 -0.251384,0.5027673 0.0099,0.086725 -0.180933,0.5066131 -0.06843,0.150551 -0.405942,0.6056573 -0.361867,0.7599198 0.09146,0.3201126 0.48319,0.5129951 0.75992,0.6513598 0.728699,0.3643498 1.531373,0.2563485 2.315946,0.2171199 0.09598,-0.0048 0.194001,0.00955 0.289493,0 0.07301,-0.0073 0.143935,-0.030959 0.21712,-0.036187 0.09625,-0.00688 0.193656,0.011275 0.289493,0 0.110446,-0.012994 0.21489,-0.062739 0.32568,-0.072373 0.168236,-0.014629 0.337742,0 0.506613,0 0.0965,0 0.197947,-0.030515 0.289493,0 0.03237,0.010789 0.04312,0.05482 0.07237,0.072373 0.26597,0.088657 0.01843,-0.011838 0.144746,0.072373 0.02244,0.014961 0.05741,0.013745 0.07237,0.036187 0.01338,0.020073 -0.0059,0.048969 0,0.072373 0.04974,0.1989656 0.03073,-0.091469 0.108559,0.1809333 0.01326,0.046392 -0.006,0.09687 0,0.1447466 0.01658,0.132616 0.05684,0.1293826 0.03619,0.2533066 -0.05144,0.3086657 -0.03619,-0.1248015 -0.03619,0.2533065 0,0.036277 0.01308,0.7106546 0,0.7237331 -0.0085,0.00853 -0.0251,-0.00475 -0.03619,0 -0.07437,0.031874 -0.146084,0.069813 -0.21712,0.10856 -0.191145,0.1042609 -0.380385,0.2374126 -0.578987,0.3256799 -0.195442,0.086863 -0.357459,0.093559 -0.542799,0.2171199 -0.06427,0.042843 -0.11667,0.1019039 -0.180934,0.1447466 -0.338239,0.2254931 0.08669,-0.141724 -0.361866,0.2171199 -0.05328,0.042626 -0.08885,0.1056169 -0.144747,0.1447467 -0.06629,0.046402 -0.150831,0.062158 -0.21712,0.1085599 -0.0559,0.03913 -0.08885,0.1056169 -0.144746,0.1447466 -0.06629,0.046402 -0.148855,0.065118 -0.21712,0.10856 -0.06516,0.041466 -0.120622,0.096498 -0.180934,0.1447466 -0.08443,0.060311 -0.164935,0.1265513 -0.253306,0.1809333 -0.197603,0.1216018 -0.416217,0.2063058 -0.615173,0.3256799 -0.162715,0.097629 -0.314997,0.22206 -0.470427,0.3256799 -0.282229,0.1881529 -0.590906,0.3737868 -0.832293,0.6151728 -0.04265,0.04265 -0.06591,0.102101 -0.10856,0.144747 -0.100332,0.100332 -0.174526,0.09895 -0.253306,0.21712 -0.02116,0.03174 -0.0133,0.07804 -0.03619,0.10856 -0.144328,0.192438 -0.0041,-0.206841 -0.144747,0.144746 -0.009,0.0224 0.009,0.04997 0,0.07237 -0.01615,0.04038 -0.05862,0.0673 -0.07237,0.10856 -0.01144,0.03433 0.0059,0.07287 0,0.10856 -0.0264,0.158375 -0.124748,0.31044 -0.144747,0.470426 -0.02031,0.162484 0,0.342446 0,0.506613 0,0.288969 -0.04725,0.626538 0.03619,0.904667 -0.01681,0.129325 0.106865,0.188475 0.144747,0.289493 0.0216,0.05759 0.01674,0.122584 0.03619,0.180933 0.03469,0.104073 0.162227,0.382597 0.21712,0.470427 0.02712,0.0434 0.08144,0.06516 0.10856,0.10856 0.0974,0.155831 0.149336,0.350657 0.253307,0.506613 0.112948,0.169422 0.265992,0.283313 0.398053,0.43424 0.03972,0.04539 0.06348,0.104678 0.10856,0.144746 0.15615,0.1388 0.584361,0.425761 0.75992,0.5428 0.120677,0.08045 0.313563,0.136669 0.43424,0.21712 0.189649,0.126433 0.278751,0.351125 0.434239,0.506613 0.01907,0.01907 0.05619,0.01461 0.07237,0.03619 0.02289,0.03052 0.0133,0.07804 0.03619,0.10856 0.0422,0.05627 0.126901,0.06353 0.180934,0.10856 0.121879,0.101566 0.233149,0.233739 0.361866,0.32568 0.10483,0.07488 0.145921,0.06561 0.253307,0.10856 0.06868,0.02747 0.109026,0.09058 0.180933,0.10856 0.110952,0.02774 0.214113,0.06393 0.32568,0.10856 0.05654,0.02262 0.17641,0.09951 0.21712,0.10856 0.05888,0.01308 0.122058,-0.01308 0.180933,0 0.05266,0.0117 0.0965,0.04825 0.144747,0.07237 0.07237,0 0.145189,-0.008 0.21712,0 0.148454,0.01649 0.291769,0.113086 0.43424,0.144746 0.104431,0.02321 0.736039,0.08829 0.868479,0 0.02839,-0.01892 0.04312,-0.05482 0.07237,-0.07237 0.06221,-0.03733 0.321704,-0.132022 0.398053,-0.144746 0.03569,-0.0059 0.07423,0.01144 0.10856,0 0.04126,-0.01375 0.06882,-0.05471 0.10856,-0.07237 0.06971,-0.03098 0.145916,-0.04499 0.21712,-0.07237 0.281542,-0.108286 0.505967,-0.311011 0.796106,-0.398053 0.244334,-0.0733 0.476282,-0.09526 0.723733,-0.144747 0.149613,-0.02992 0.286219,-0.107741 0.43424,-0.144747 0.142362,-0.03559 0.291878,-0.03678 0.43424,-0.07237 0.218612,-0.05465 0.433627,-0.122871 0.65136,-0.180933 0.100596,-0.02683 0.717373,-0.22348 0.723733,-0.21712 0.100484,0.100484 -0.488724,0.703739 -0.506614,0.723733 -0.415044,0.463873 -0.975834,0.991818 -1.194159,1.592213 -0.02102,0.0578 -0.01459,0.123344 -0.03619,0.180933 -0.01527,0.04072 -0.05292,0.06966 -0.07237,0.10856 -0.01706,0.03412 -0.01503,0.07682 -0.03619,0.10856 -0.04456,0.06685 -0.07237,-0.160258 -0.07237,0.07237 0,10e-4 0.208628,-0.0017 0.21712,0 0.109048,0.02181 0.217792,0.0454 0.32568,0.07237 0.482425,0.120606 -0.03138,0.0092 0.398053,0.180933 0.05711,0.02284 0.123344,0.01459 0.180933,0.03619 0.04072,0.01527 0.0673,0.05862 0.10856,0.07237 0.03433,0.01144 0.07308,-0.0071 0.10856,0 0.127012,0.0254 0.08339,0.283199 0.03619,0.361866 -0.01755,0.02926 -0.05712,0.04186 -0.07237,0.07237 -0.03927,0.07854 -0.04154,0.171083 -0.07237,0.253306 -0.02281,0.06082 -0.04825,0.120623 -0.07237,0.180934 -0.01206,0.07237 -0.01111,0.148165 -0.03619,0.21712 -0.06751,0.185645 -0.209063,0.361833 -0.289493,0.542799 -0.0202,0.04545 -0.0166,0.09903 -0.03619,0.144747 -0.01713,0.03997 -0.06182,0.06637 -0.07237,0.10856 -0.01463,0.05851 0.01907,0.123717 0,0.180933 -0.213111,0.639332 -0.01835,-0.16224 -0.180933,0.21712 -0.09431,0.471566 0.04732,-0.06263 -0.144747,0.289493 -0.417919,0.766185 -0.03813,0.08014 -0.10856,0.361867 0.02688,0.06697 -0.06182,0.06637 -0.07237,0.10856 -0.0175,0.06999 -0.01042,0.227543 -0.07237,0.289493 -0.01907,0.01907 -0.0533,0.01711 -0.07237,0.03619 -0.01706,0.01706 0.01706,0.05531 0,0.07237 -0.184927,0.184928 0.05047,-0.15173 -0.144746,0.10856 -0.03237,0.04316 -0.03423,0.106603 -0.07237,0.144747 -0.01907,0.01907 -0.0533,0.01711 -0.07237,0.03619 -0.0085,0.0085 0.0054,0.0254 0,0.03619 -0.03076,0.06152 -0.105815,0.122535 -0.144747,0.180933 -0.02643,0.03965 -0.131638,0.240199 -0.144746,0.253307 -0.01907,0.01907 -0.06175,0.0114 -0.07237,0.03619 -0.0289,0.06744 -0.01603,0.146572 -0.03619,0.21712 -0.0094,0.03281 -0.05712,0.04186 -0.07237,0.07237 -0.05082,0.101647 -0.08128,0.252751 -0.10856,0.361866 -0.04369,0.174744 -0.0172,-0.0018 -0.07237,0.10856 -0.02224,0.04448 -0.0086,0.103366 -0.03619,0.144747 -0.03102,0.04653 -0.0935,0.120673 -0.10856,0.180933 -0.02528,0.101098 -0.01913,0.223342 -0.03619,0.32568 -0.01254,0.07525 -0.05983,0.14187 -0.07237,0.21712 -0.0079,0.04759 0.01526,0.09897 0,0.144746 -0.01206,0.02412 -0.02413,0.04825 -0.03619,0.07237 -0.01206,0 -0.03079,-0.01079 -0.03619,0 -0.0136,0.02719 -0.01391,0.158653 -0.03619,0.180933 -0.04921,0.04921 -0.179585,0.08845 -0.21712,0.144747 -0.01338,0.02007 0.01079,0.0508 0,0.07237 -0.01204,0.02409 -0.142197,0.03619 -0.180933,0.03619 -0.241245,0 -0.482489,0 -0.723734,0 -0.123017,0 -0.27529,0.02046 -0.398053,0 -0.147456,-0.02458 -0.294908,-0.07373 -0.43424,-0.10856 -0.100627,-0.02516 -0.173469,-0.0045 -0.289493,-0.03619 -0.0736,-0.02007 -0.142525,-0.05639 -0.21712,-0.07237 -0.227501,-0.04875 -0.459536,-0.04704 -0.687546,-0.07237 -0.04943,-0.0055 -0.09532,-0.03069 -0.144747,-0.03619 -0.132416,-0.01471 -0.265282,-0.02512 -0.398053,-0.03619 -0.165213,-0.01377 -0.379899,0.04072 -0.5428,0 -0.02617,-0.0065 -0.04554,-0.0335 -0.07237,-0.03619 -0.235812,-0.02358 -0.488616,0.03359 -0.723733,0 -0.113282,-0.01618 -0.216074,-0.07568 -0.32568,-0.10856 -0.04764,-0.01429 -0.11584,0.0043 -0.144747,-0.03619 -0.04265,-0.05971 -0.02412,-0.144747 -0.03619,-0.21712 z" />
  <path
     style="fill:none;stroke:#f7931a;stroke-width:0.779;stroke-opacity:1"
     d="m 4.6680784,15.089835 c -1.0804018,0.05673 -2.119206,0.652307 -2.7139991,1.556026 -0.1308147,0.198758 -0.2407684,0.41035 -0.3618665,0.615173 -0.2036073,0.344377 -0.438674,0.669533 -0.63811698,1.016338 -0.19944294,0.346805 -0.36455111,0.721351 -0.41129601,1.118675 -0.0213698,0.18164 -0.0169973,0.369717 0.0443879,0.542 0.0306926,0.08614 0.0755849,0.167593 0.13522036,0.236919 0.0596355,0.06932 0.13421709,0.126324 0.21844495,0.161934 0.0249289,0.01054 0.0510966,0.01946 0.0723733,0.03619 0.017766,0.01397 0.031292,0.03287 0.040741,0.0534 0.00945,0.02053 0.014962,0.04269 0.018379,0.06503 0.00683,0.04468 0.00547,0.09036 0.013253,0.134884 0.018099,0.103513 0.083834,0.19216 0.1550939,0.269391 0.07126,0.07723 0.1507029,0.148347 0.2067727,0.237222 0.07913,0.125427 0.1056804,0.276831 0.1156936,0.424795 0.010013,0.147963 0.00522,0.297311 0.029053,0.443685 0.025457,0.156351 0.084524,0.308546 0.1809332,0.43424 0.1288169,0.167945 0.3175389,0.281049 0.5143199,0.359002 0.196781,0.07795 0.4043441,0.124293 0.6074664,0.183797 0.4907118,0.143752 0.9562448,0.364612 1.4474662,0.506613 0.9106081,0.263235 1.8746876,0.246994 2.822559,0.253307 0.3860003,0.0026 0.7720744,0.0092 1.1579729,0 1.0929318,-0.02614 2.1788659,-0.179537 3.2567989,-0.361866 0.397028,-0.06716 0.793753,-0.138324 1.19416,-0.180934 0.408605,-0.04348 0.819718,-0.05708 1.230346,-0.07237 1.205859,-0.04489 2.412401,-0.104564 3.618666,-0.07237 1.209932,0.03229 2.437455,0.155487 3.618665,-0.10856 0.911189,-0.203687 1.754274,-0.629467 2.605439,-1.013227 0.592402,-0.267093 1.193737,-0.515597 1.809333,-0.723733 0.272197,-0.09203 0.54997,-0.17743 0.796106,-0.32568 0.257176,-0.154899 0.470421,-0.373035 0.663105,-0.603267 0.192684,-0.230231 0.367897,-0.474963 0.567241,-0.699452 0.339923,-0.382799 0.746122,-0.702406 1.0856,-1.0856 0.249971,-0.282161 0.462165,-0.597034 0.723733,-0.868479 0.362463,-0.376151 0.810106,-0.659149 1.19416,-1.013227 0.106851,-0.09851 0.209062,-0.202764 0.32568,-0.289493 0.118222,-0.08792 0.25029,-0.157092 0.361866,-0.253307 0.130203,-0.112277 0.227484,-0.256927 0.32568,-0.398053 0.240289,-0.345338 0.496621,-0.681563 0.796106,-0.977039 0.419743,-0.414124 0.920799,-0.744917 1.30272,-1.19416 0.361725,-0.425487 0.601187,-0.939063 0.832293,-1.447466 0.273274,-0.601167 0.54533,-1.222201 0.578986,-1.881706 C 35.232696,9.7161467 35.141644,9.2644417 35.005125,8.8326053 34.868606,8.4007689 34.686881,7.9848701 34.522068,7.5630207 34.387373,7.2182591 34.263782,6.8689587 34.160201,6.5136077 34.115586,6.3605485 34.074447,6.2057137 34.009428,6.0601454 33.944409,5.914577 33.853445,5.777052 33.725962,5.6813147 33.633969,5.6122299 33.521733,5.5661249 33.406695,5.5674475 c -0.05752,6.613e-4 -0.115106,0.013243 -0.166734,0.038609 -0.05163,0.025366 -0.09714,0.063669 -0.129173,0.1114454 -0.0098,0.014564 -0.01832,0.030014 -0.02955,0.04348 -0.01123,0.013466 -0.0257,0.025085 -0.04282,0.028893 -0.01243,0.00276 -0.02545,0.00125 -0.0378,-0.00183 -0.01235,-0.00308 -0.02427,-0.00768 -0.03651,-0.011177 -0.01224,-0.0035 -0.02503,-0.00591 -0.03768,-0.00445 -0.0063,7.299e-4 -0.01256,0.00244 -0.01823,0.00533 -0.0057,0.0029 -0.01076,0.007 -0.01453,0.012128 -0.0042,0.00566 -0.0066,0.012402 -0.0083,0.019219 -0.0017,0.00682 -0.0027,0.01379 -0.0043,0.020642 -0.0016,0.00685 -0.0037,0.013668 -0.0075,0.019588 -0.0038,0.00592 -0.0094,0.010915 -0.01609,0.012925 -0.0062,0.00186 -0.01298,0.00106 -0.01922,-7.371e-4 -0.0062,-0.0018 -0.01217,-0.00455 -0.01832,-0.00668 -0.0061,-0.00213 -0.01268,-0.00363 -0.01913,-0.00279 -0.0032,4.217e-4 -0.0064,0.00144 -0.0091,0.00316 -0.0028,0.00171 -0.0051,0.00414 -0.0066,0.00705 -0.0014,0.00274 -0.0019,0.00583 -0.0019,0.00889 -3.1e-5,0.00306 4.24e-4,0.0061 9.59e-4,0.00911 0.0011,0.00602 0.0025,0.012246 9.66e-4,0.01818 -0.0012,0.00489 -0.0044,0.0092 -0.0085,0.012151 -0.0041,0.00295 -0.009,0.0046 -0.01406,0.0051 -0.01004,9.919e-4 -0.01999,-0.00247 -0.02912,-0.00677 -0.0091,-0.0043 -0.0179,-0.00952 -0.02756,-0.012434 -0.0048,-0.00146 -0.0099,-0.00232 -0.01492,-0.00212 -0.005,1.955e-4 -0.01009,0.00148 -0.01441,0.00408 -0.0059,0.00358 -0.01022,0.00946 -0.01303,0.015801 -0.0028,0.00634 -0.0043,0.013183 -0.0057,0.019979 -0.0014,0.0068 -0.0027,0.013651 -0.0053,0.020088 -0.0026,0.00644 -0.0065,0.012512 -0.01219,0.016505 -0.005,0.00355 -0.01122,0.00528 -0.01738,0.0057 -0.0062,4.203e-4 -0.01234,-3.995e-4 -0.0184,-0.00156 -0.01212,-0.00233 -0.02439,-0.00606 -0.03659,-0.00413 -0.0067,0.00107 -0.01313,0.00384 -0.01902,0.00731 -0.0059,0.00347 -0.01132,0.00764 -0.0168,0.011726 -0.0055,0.00409 -0.01102,0.00812 -0.01708,0.011295 -0.0061,0.00317 -0.01266,0.00547 -0.01948,0.00585 -0.0064,3.6e-4 -0.01275,-9.588e-4 -0.0189,-0.00273 -0.0061,-0.00177 -0.01216,-0.004 -0.01837,-0.00553 -0.0062,-0.00153 -0.01271,-0.00236 -0.01901,-0.00127 -0.0063,0.00109 -0.01242,0.00428 -0.01609,0.00953 -0.0036,0.00512 -0.0045,0.011693 -0.004,0.017914 5.25e-4,0.00622 0.0024,0.012238 0.004,0.018273 0.01762,0.066247 0.0028,0.1403289 -0.03901,0.1946732 -0.04178,0.054344 -0.109561,0.087729 -0.17811,0.087729 -0.06855,0 -0.136328,-0.033385 -0.17811,-0.087729 -0.04178,-0.054344 -0.05663,-0.1284262 -0.03901,-0.1946732"
     id="path3"
     inkscape:path-effect="#path-effect3"
     inkscape:original-d="m 4.6680784,15.089835 c -1.2571586,0.534292 -1.703088,0.590044 -2.7139991,1.556026 -0.1720024,0.164358 -0.2419935,0.409676 -0.3618665,0.615173 -0.3986448,0.683391 -0.86120151,1.355279 -1.04941299,2.135013 -0.11220663,0.464856 0.0595853,0.670078 0.3980532,0.940853 0.0210615,0.01685 0.0584964,0.01306 0.0723733,0.03619 0.04518,0.0753 0.028805,0.177063 0.072373,0.253307 0.1021405,0.178746 0.2520078,0.333978 0.3618666,0.506613 0.2318466,0.36433 0.065452,0.535442 0.1447466,0.86848 0.03632,0.152544 0.1071409,0.295879 0.1809332,0.43424 0.093276,0.174893 0.9306779,0.473305 1.1217863,0.542799 0.4744162,0.172515 0.9527932,0.399657 1.4474662,0.506613 0.9053874,0.19576 1.9012976,0.238448 2.822559,0.253307 0.3859408,0.0062 0.7728002,0.02512 1.1579729,0 0.9575068,-0.06245 2.2417419,-0.216858 3.2567989,-0.361866 0.39855,-0.05694 0.793743,-0.139099 1.19416,-0.180934 0.4086,-0.04269 0.819933,-0.054 1.230346,-0.07237 1.205431,-0.05398 2.412264,-0.07237 3.618666,-0.07237 1.19236,0 2.436696,0.0988 3.618665,-0.10856 1.03051,-0.180792 1.67369,-0.617552 2.605439,-1.013227 0.597893,-0.2539 1.206222,-0.482488 1.809333,-0.723733 0.266209,-0.106483 0.5444,-0.188385 0.796106,-0.32568 0.334143,-0.182259 1.007882,-1.066351 1.230346,-1.302719 0.35074,-0.372661 0.746523,-0.702296 1.0856,-1.0856 0.248996,-0.281473 0.457043,-0.60179 0.723733,-0.868479 0.367801,-0.367802 0.795362,-0.683187 1.19416,-1.013227 0.111898,-0.0926 0.211677,-0.199491 0.32568,-0.289493 0.115564,-0.09124 0.254978,-0.152044 0.361866,-0.253307 0.124455,-0.117904 0.216495,-0.265882 0.32568,-0.398053 0.267557,-0.323884 0.510246,-0.669189 0.796106,-0.977039 0.400342,-0.431137 0.898613,-0.767602 1.30272,-1.19416 0.384951,-0.406338 0.61315,-0.943436 0.832293,-1.447466 0.295696,-0.680101 0.55476,-1.106476 0.578986,-1.881706 0.02689,-0.8605562 -0.40926,-1.813394 -0.687546,-2.6054393 -0.122683,-0.349174 -0.251419,-0.6959801 -0.361867,-1.049413 -0.07341,-0.234925 -0.142452,-0.7836618 -0.434239,-0.832293 -0.103432,-0.017239 -0.517658,-0.012571 -0.615174,0.036187 -0.03052,0.015258 -0.04001,0.061585 -0.07237,0.072373 -0.04577,0.015258 -0.09995,-0.017919 -0.144746,0 -0.02504,0.010017 -0.01712,0.053301 -0.03619,0.072373 -0.02414,0.024145 -0.04823,-0.024145 -0.07237,0 -0.0085,0.00853 0.0085,0.027657 0,0.036187 -0.02559,0.025588 -0.07845,-0.020073 -0.10856,0 -0.02244,0.014961 -0.01375,0.057412 -0.03619,0.072373 -0.02007,0.013382 -0.04897,-0.00585 -0.07237,0 -0.02617,0.00654 -0.04621,0.029645 -0.07237,0.036187 -0.0234,0.00585 -0.0508,-0.010789 -0.07237,0 -0.01079,0.00539 0.01079,0.030792 0,0.036187 -0.09921,0.049605 -0.31302,0 -0.43424,0" />
  <path
     style="fill:none;stroke:#1c3c55;stroke-width:0.779;stroke-opacity:1"
     d="M 6.1879178,5.2470648 C 5.4961772,4.8517599 4.6039111,4.83236 3.8956426,5.1972256 3.1873742,5.5620911 2.6851636,6.2998578 2.6054391,7.0925842 2.5860859,7.2850192 2.5900122,7.4792823 2.5692524,7.6715707 2.5365849,7.9741539 2.4429043,8.2724158 2.4606925,8.576237 c 0.020599,0.3518269 0.1880401,0.6757152 0.2894932,1.0132263 0.074974,0.2494202 0.1141792,0.5081747 0.1809333,0.7599197 0.2397359,0.904098 0.8317021,1.687964 1.5560261,2.279759 0.4045932,0.330565 0.8506028,0.606642 1.3027196,0.86848 0.5184407,0.300249 1.0472687,0.583363 1.5922127,0.832293 0.2262258,0.10334 0.4551979,0.200772 0.6875465,0.289493 0.3490411,0.133279 0.7115833,0.249963 1.0132263,0.470427 0.1247378,0.09117 0.2368807,0.198665 0.3618665,0.289493 0.3723946,0.270621 0.8393803,0.379264 1.2980463,0.418494 0.458666,0.03923 0.920878,0.01539 1.379766,0.05193 0.374616,0.02983 0.746086,0.09983 1.121786,0.10856 0.255734,0.0059 0.519638,-0.01538 0.75992,0.07237 0.190537,0.06958 0.351106,0.20312 0.49212,0.348932 0.141014,0.145812 0.266667,0.306229 0.412546,0.447174 0.142521,0.1377 0.303153,0.255599 0.470427,0.361867 0.178111,0.113153 0.364089,0.213478 0.5428,0.32568 0.221015,0.138762 0.430413,0.295369 0.65136,0.434239 0.530093,0.333174 1.119702,0.560089 1.664586,0.86848 0.754255,0.426889 1.427205,1.011723 2.243572,1.30272 0.248227,0.08848 0.505598,0.148082 0.75992,0.21712 0.276777,0.07513 0.550902,0.161712 0.832293,0.21712 0.33353,0.06567 0.673981,0.08692 1.013226,0.108559 0.809947,0.05166 1.620492,0.106467 2.424506,0.21712 0.567851,0.07815 1.131766,0.184071 1.700773,0.253307 0.546025,0.06644 1.100206,0.09978 1.628399,0.253307 0.364003,0.105799 0.709253,0.266959 1.049413,0.434239 0.38866,0.191131 0.776362,0.392456 1.19416,0.506614 0.924323,0.252559 1.902343,0.05876 2.858746,0 0.249788,-0.01535 0.501486,-0.0215 0.746568,-0.07214 0.245082,-0.05064 0.486939,-0.149766 0.664711,-0.325911 0.131335,-0.130133 0.222151,-0.296935 0.282414,-0.471725 0.06026,-0.174791 0.09135,-0.358216 0.115639,-0.541501 0.01435,-0.108289 0.02642,-0.216882 0.03619,-0.32568 0.03016,-0.09485 0.05434,-0.191606 0.07237,-0.289493 0.08779,-0.476742 0.02799,-0.966975 -0.03619,-1.447466 -0.03574,-0.267564 -0.07297,-0.535885 -0.144747,-0.796107 -0.05996,-0.21739 -0.143971,-0.4289 -0.180933,-0.651359 -0.07731,-0.465281 0.05613,-0.940042 0.03619,-1.41128 -0.0042,-0.09978 -0.01574,-0.20088 -0.05419,-0.293051 -0.03845,-0.09217 -0.10685,-0.17533 -0.199113,-0.213562 -0.06084,-0.02521 -0.128248,-0.02981 -0.190768,-0.05051 -0.03126,-0.01035 -0.06156,-0.02497 -0.08628,-0.04672 -0.02472,-0.02176 -0.04357,-0.05117 -0.04864,-0.0837 -0.0019,-0.01197 -0.0019,-0.02422 0,-0.03619"
     id="path2"
     inkscape:path-effect="#path-effect2"
     inkscape:original-d="M 6.1879178,5.2470648 C 5.0832582,5.7726833 3.3160428,6.0661566 2.6054391,7.0925842 2.5039825,7.2391326 2.5898591,7.5067175 2.5692524,7.6715707 2.531337,7.9748939 2.4215295,8.2629333 2.4606925,8.576237 c 0.042962,0.343699 0.2116999,0.6761221 0.2894932,1.0132263 0.061576,0.2668282 0.079082,0.4980167 0.1809333,0.7599197 0.2674843,0.687817 1.0154091,1.780728 1.5560261,2.279759 0.5538261,0.511224 0.625546,0.497647 1.3027196,0.86848 0.5573214,0.3052 1.0157617,0.565157 1.5922127,0.832293 0.22562,0.104556 0.4605095,0.188051 0.6875465,0.289493 0.3399762,0.151905 0.6821996,0.299898 1.0132263,0.470427 0.1373214,0.07074 0.2210004,0.226103 0.3618665,0.289493 0.8235663,0.370605 1.7991763,0.386747 2.6778123,0.470426 0.373984,0.03562 0.747835,0.0726 1.121786,0.10856 0.253285,0.02435 0.51263,0.01243 0.75992,0.07237 0.499807,0.121165 0.561967,0.486045 0.904666,0.796106 0.146702,0.13273 0.306723,0.250782 0.470427,0.361867 0.1746,0.118478 0.364785,0.212397 0.5428,0.32568 0.22015,0.140095 0.42596,0.302756 0.65136,0.434239 0.538876,0.314345 1.124379,0.55336 1.664586,0.86848 0.745133,0.434661 1.432055,0.98603 2.243572,1.30272 0.245418,0.09577 0.50576,0.147803 0.75992,0.21712 0.276613,0.07544 0.54994,0.167293 0.832293,0.21712 0.334506,0.05903 0.675555,0.07172 1.013226,0.108559 0.807687,0.08811 1.617194,0.136389 2.424506,0.21712 0.566385,0.05664 1.13727,0.176466 1.700773,0.253307 0.702669,0.09582 0.939823,0.104425 1.628399,0.253307 0.762989,0.16497 0.34671,0.08289 1.049413,0.434239 0.120437,0.06022 1.080792,0.469936 1.19416,0.506614 0.933202,0.301918 1.917462,0.197012 2.858746,0 0.250541,-0.05244 1.144867,-0.231546 1.411279,-0.398054 0.330744,-0.206714 0.360651,-0.676604 0.398053,-1.013226 0.01206,-0.10856 0.02412,-0.21712 0.03619,-0.32568 0.02412,-0.0965 0.06075,-0.190707 0.07237,-0.289493 0.04201,-0.357044 0.01898,-1.094431 -0.03619,-1.447466 -0.04164,-0.266486 -0.08711,-0.532618 -0.144747,-0.796107 -0.131972,-0.603301 -0.0821,-0.124248 -0.180933,-0.651359 -0.09051,-0.482709 0.183367,-0.932941 0.03619,-1.41128 -0.03526,-0.1146 -0.162066,-0.402338 -0.253306,-0.506613 -0.142604,-0.162976 -0.317038,-0.172291 -0.32568,-0.180933 -0.0085,-0.0085 0,-0.02412 0,-0.03619" />
</svg>
