<?xml version="1.0" encoding="UTF-8" standalone="no"?>
<svg
   width="38px"
   height="35px"
   viewBox="0 0 38 35"
   version="1.1"
   id="svg3"
   sodipodi:docname="automatization.svg"
   inkscape:version="1.3.2 (091e20e, 2023-11-25, custom)"
   xmlns:inkscape="http://www.inkscape.org/namespaces/inkscape"
   xmlns:sodipodi="http://sodipodi.sourceforge.net/DTD/sodipodi-0.dtd"
   xmlns="http://www.w3.org/2000/svg"
   xmlns:svg="http://www.w3.org/2000/svg">
  <sodipodi:namedview
     id="namedview3"
     pagecolor="#ffffff"
     bordercolor="#000000"
     borderopacity="0.25"
     inkscape:showpageshadow="2"
     inkscape:pageopacity="0.0"
     inkscape:pagecheckerboard="0"
     inkscape:deskcolor="#d1d1d1"
     inkscape:zoom="33.514286"
     inkscape:cx="19.00682"
     inkscape:cy="17.5"
     inkscape:window-width="2560"
     inkscape:window-height="1369"
     inkscape:window-x="-8"
     inkscape:window-y="-8"
     inkscape:window-maximized="1"
     inkscape:current-layer="svg3" />
  <!-- Generator: Sketch 49 (51002) - http://www.bohemiancoding.com/sketch -->
  <title
     id="title1">Automated solutions/ICON</title>
  <desc
     id="desc1">Created with Sketch.</desc>
  <defs
     id="defs1">
    <inkscape:path-effect
       effect="spiro"
       id="path-effect10"
       is_visible="true"
       lpeversion="1" />
    <inkscape:path-effect
       effect="spiro"
       id="path-effect9"
       is_visible="true"
       lpeversion="1" />
    <inkscape:path-effect
       effect="spiro"
       id="path-effect8"
       is_visible="true"
       lpeversion="1" />
    <inkscape:path-effect
       effect="spiro"
       id="path-effect7"
       is_visible="true"
       lpeversion="1" />
    <inkscape:path-effect
       effect="spiro"
       id="path-effect6"
       is_visible="true"
       lpeversion="1" />
    <inkscape:path-effect
       effect="spiro"
       id="path-effect5"
       is_visible="true"
       lpeversion="1" />
    <inkscape:path-effect
       effect="spiro"
       id="path-effect4"
       is_visible="true"
       lpeversion="1" />
    <inkscape:path-effect
       effect="spiro"
       id="path-effect3"
       is_visible="true"
       lpeversion="1" />
  </defs>
  <path
     style="fill:none;fill-opacity:0.501961;stroke:#1c1f30;stroke-width:1.079;stroke-dasharray:none;stroke-opacity:1"
     d="M 17.127025,1.0443308 C 15.399792,1.3772944 13.700871,1.85699 12.054561,2.4765558 11.020166,2.8658362 10.006932,3.3100573 9.0110827,3.7894288 8.2199172,4.1702717 7.4370038,4.5748635 6.713555,5.0724638 6.5268901,5.2008551 6.3414363,5.3381863 6.2063086,5.5200341 6.0740127,5.6980709 5.9961903,5.9107663 5.9400185,6.1253451 5.8838468,6.3399239 5.8475823,6.5594142 5.7885763,6.773231 5.685598,7.1463878 5.5141969,7.4992846 5.43052,7.8772379 5.3784775,8.1123044 5.3612047,8.3534406 5.341006,8.5933504 c -0.040147,0.4768411 -0.092455,0.9537055 -0.089514,1.4322246 0.00148,0.241462 0.017556,0.485617 0.089514,0.716113 0.028124,0.09009 0.064617,0.177511 0.089514,0.268542 0.050204,0.183565 0.051953,0.377155 0.036257,0.566813 -0.015696,0.189658 -0.048425,0.377548 -0.066095,0.567032 -0.039735,0.426087 -0.003,0.85511 0,1.283035 0.00322,0.458825 -0.031957,0.922956 0.059676,1.372549 0.018313,0.08985 0.04162,0.178636 0.059676,0.268542 0.061108,0.304279 0.061108,0.6207 0,0.924979"
     id="path3"
     inkscape:path-effect="#path-effect3"
     inkscape:original-d="M 17.127025,1.0443308 C 15.446372,1.5523123 13.716646,1.9071379 12.054561,2.4765558 10.710351,2.9370722 10.264428,3.1829716 9.0110827,3.7894288 7.9213351,4.316726 7.6302535,4.398971 6.713555,5.0724638 6.5318354,5.205972 6.3378168,5.3368619 6.2063086,5.5200341 5.8088023,6.0737036 5.9124433,6.2467962 5.7885763,6.773231 5.7000884,7.1493045 5.5276077,7.5050683 5.43052,7.8772379 5.3628819,8.1365174 5.3692846,8.3294169 5.341006,8.5933504 5.2895403,9.0736967 5.2259781,9.5408136 5.2514919,10.025575 c 0.011758,0.223409 0.039042,0.497399 0.089514,0.716113 0.051336,0.222456 0.064732,0.07029 0.089514,0.268542 0.046061,0.368491 -0.013885,0.766936 -0.029838,1.133845 -0.018512,0.425772 0,0.85679 0,1.283035 0,0.466081 -4.966e-4,0.906211 0.059676,1.372549 0.011735,0.09094 0.050982,0.177258 0.059676,0.268542 0.028359,0.297771 0,0.623803 0,0.924979" />
  <path
     style="fill:none;fill-opacity:0.501961;stroke:#1c1f30;stroke-width:1.079;stroke-dasharray:none;stroke-opacity:1"
     d="m 1.1935209,12.919864 c 0.038546,0.07677 0.089073,0.147506 0.1491901,0.208866 0.1644415,0.167841 0.3925089,0.258596 0.6210644,0.31313 0.2285556,0.05453 0.4638556,0.07744 0.6918086,0.13444 0.2923601,0.0731 0.5675793,0.200925 0.8498262,0.306545 0.2822469,0.105619 0.5800417,0.190249 0.8807791,0.170863 0.1081576,-0.007 0.2178844,-0.02725 0.3238322,-0.0044 0.052974,0.01142 0.1043541,0.03409 0.1442112,0.0708 0.039857,0.03672 0.067315,0.08831 0.069041,0.142476 3.169e-4,0.0099 0,0.01989 0,0.02984 v 0.119352 c 0,0.07342 0.00526,0.147621 0.02845,0.217285 0.023188,0.06967 0.061135,0.133329 0.090902,0.200447 0.023933,0.05396 0.04184,0.110541 0.067775,0.163574 0.025935,0.05303 0.061192,0.103519 0.1112536,0.134806 0.035031,0.02189 0.075605,0.03333 0.1162428,0.04075 0.040637,0.0074 0.081901,0.0111 0.1224614,0.01893 0.08058,0.01556 0.157568,0.04735 0.2387041,0.05968 0.098484,0.01497 0.1987679,7.06e-4 0.2983803,0 0.2230755,-0.0016 0.4401659,0.06465 0.6564364,0.119352 0.058793,0.01487 0.1183893,0.029 0.1790282,0.02984 0.077644,0.0011 0.1549857,-0.02009 0.2232232,-0.05715 0.068238,-0.03706 0.1274952,-0.0897 0.1755156,-0.150723 0.096041,-0.122046 0.1460121,-0.274648 0.1719499,-0.427769 0.025938,-0.153122 0.02958,-0.309015 0.043201,-0.463719 0.013621,-0.154704 0.037939,-0.310842 0.1022227,-0.452215 0.094958,-0.208832 0.2696623,-0.370328 0.3878943,-0.566922 0.05567,-0.09257 0.1001846,-0.194708 0.1790281,-0.268542 0.025875,-0.02423 0.054903,-0.04483 0.081794,-0.06793 0.026891,-0.0231 0.052064,-0.0493 0.067396,-0.08126 0.013154,-0.02742 0.018505,-0.05792 0.021483,-0.08819 0.00298,-0.03027 0.00373,-0.06078 0.00835,-0.09084 0.00822,-0.0534 0.028799,-0.104855 0.059676,-0.14919"
     id="path4"
     inkscape:path-effect="#path-effect4"
     inkscape:original-d="m 1.1935209,12.919864 c 0.04973,0.06962 0.078578,0.160552 0.1491901,0.208866 0.2346867,0.160575 1.2378149,0.425779 1.312873,0.44757 0.5746863,0.166845 1.1603594,0.295967 1.7306053,0.477408 0.1830468,0.05824 0.3615509,0.130852 0.5370844,0.208867 0.00909,0.004 0,0.01989 0,0.02984 0,0.03978 0,0.07957 0,0.119352 0,0.171895 0.045727,0.270483 0.119352,0.417732 0.059359,0.118718 0.032381,0.225057 0.1790282,0.29838 0.073358,0.03668 0.1591361,0.03978 0.2387042,0.05968 0.079568,0.01989 0.1575116,0.04808 0.2387041,0.05968 0.082226,0.01175 0.2119446,-0.02161 0.2983803,0 0.2239839,0.056 0.4267455,0.08873 0.6564364,0.119352 0.059969,0.008 0.1362488,0.07262 0.1790282,0.02984 0.3730613,-0.373061 0.5369997,-1.096906 0.7161125,-1.551577 0.101188,-0.256862 0.2218694,-0.341603 0.3878943,-0.566922 0.063818,-0.08661 0.1134339,-0.18327 0.1790281,-0.268542 0.04288,-0.05574 0.1177381,-0.08629 0.1491901,-0.14919 0.027056,-0.05411 0.010706,-0.121634 0.029838,-0.179029 0.064124,-0.192372 0.059676,-0.06053 0.059676,-0.14919" />
  <path
     style="fill:none;fill-opacity:0.501961;stroke:#95aabf;stroke-width:1.079;stroke-dasharray:none"
     d="m 35,22.259165 c 0.693323,-0.785516 1.18117,-1.75083 1.402387,-2.774937 0.07826,-0.362307 0.123783,-0.73493 0.08951,-1.104006 -0.03358,-0.361613 -0.142938,-0.712797 -0.179028,-1.074169 -0.05361,-0.536798 0.05456,-1.091377 -0.08951,-1.611253 -0.123561,-0.44588 -0.419965,-0.819725 -0.697608,-1.189848 -0.277644,-0.370122 -0.551135,-0.768814 -0.615265,-1.227032 -0.05538,-0.395724 0.05206,-0.796241 0.19249,-1.170333 0.140427,-0.374093 0.315492,-0.737601 0.40427,-1.127195 0.06034,-0.264793 0.07967,-0.53696 0.119352,-0.805626 0.02683,-0.1816341 0.06312,-0.3623045 0.119353,-0.5370848 0.0289,-0.089828 0.06303,-0.1779698 0.08951,-0.2685422 0.129098,-0.4415719 0.07044,-0.9128877 0.08951,-1.3725491 0.0075,-0.1802358 0.02644,-0.3656964 -0.02984,-0.5370844 -0.04406,-0.1341711 -0.131,-0.2491588 -0.211377,-0.3652722 -0.08038,-0.1161134 -0.157352,-0.240766 -0.176518,-0.3806783 -0.01894,-0.1382327 0.02041,-0.279709 0,-0.4177323 C 35.493261,6.2012996 35.451555,6.11247 35.397423,6.0337316 35.343292,5.9549933 35.276865,5.8855413 35.208866,5.8184143 35.028366,5.6402298 34.83479,5.4759107 34.641944,5.3111679 34.372462,5.0809575 34.103037,4.8488214 33.806479,4.6547315 c -0.115665,-0.0757 -0.235228,-0.1454451 -0.358056,-0.2088662 -0.0054,-0.042386 -0.02736,-0.082442 -0.06018,-0.1097961 -0.03283,-0.027354 -0.07618,-0.041726 -0.118848,-0.039394 -0.01,5.446e-4 -0.02006,0.00195 -0.02984,0 -0.01161,-0.00232 -0.02198,-0.00933 -0.02962,-0.018376 -0.0076,-0.00904 -0.01273,-0.020025 -0.01617,-0.031356 -0.0069,-0.022662 -0.0074,-0.046833 -0.01389,-0.06962 -0.0079,-0.028014 -0.02463,-0.053046 -0.04526,-0.073592 -0.02063,-0.020546 -0.04512,-0.036845 -0.07058,-0.050979 -0.05091,-0.028268 -0.106647,-0.048656 -0.152698,-0.084296 -0.03981,-0.030806 -0.07109,-0.072514 -0.08951,-0.119352 -0.09777,-0.05804 -0.188221,-0.128392 -0.268542,-0.2088662 C 32.493627,3.5804696 32.439361,3.5149893 32.374254,3.4612106 32.224405,3.3374349 32.0288,3.2847915 31.83717,3.2523444 c -0.878718,-0.1487858 -1.772496,0.058871 -2.655584,0.1790281 -0.287376,0.039102 -0.576009,0.06896 -0.865303,0.089514"
     id="path5"
     inkscape:path-effect="#path-effect5"
     inkscape:original-d="m 35,22.259165 c 0.541686,-0.914095 1.054374,-1.720662 1.402387,-2.774937 0.115733,-0.350602 0.09577,-0.734849 0.08951,-1.104006 -0.0062,-0.362943 -0.154882,-0.711978 -0.179028,-1.074169 -0.03511,-0.526647 0.09864,-1.10055 -0.08951,-1.611253 -0.330666,-0.897523 -1.211409,-1.402244 -1.312873,-2.41688 -0.08286,-0.828609 0.391642,-1.528334 0.59676,-2.297528 0.147609,-0.553532 0.04917,-0.337776 0.119352,-0.805626 0.02721,-0.1813667 0.07027,-0.3603802 0.119353,-0.5370848 0.02525,-0.090914 0.07312,-0.1756219 0.08951,-0.2685422 0.08394,-0.4756317 0.08951,-0.9004365 0.08951,-1.3725491 0,-0.1571941 0.02553,-0.3820588 -0.02984,-0.5370844 -0.09425,-0.2638921 -0.292127,-0.4825902 -0.387895,-0.7459505 -0.04472,-0.122982 0.04472,-0.2947503 0,-0.4177323 C 35.4782,6.2159441 35.239606,5.8553017 35.208866,5.8184143 35.029563,5.60325 34.858769,5.4846279 34.641944,5.3111679 34.439746,5.1494099 34.064603,4.8391056 33.806479,4.6547315 c -0.365549,-0.2611063 0.007,0.010163 -0.358056,-0.2088662 -0.08846,-0.014909 -0.114394,-0.1061006 -0.179028,-0.1491901 -0.0083,-0.00552 -0.02281,0.00703 -0.02984,0 -0.03145,-0.031452 -0.02661,-0.089597 -0.05968,-0.1193521 C 33.09559,4.1014612 32.994933,4.0450854 32.911338,3.9684569 32.87468,3.9348531 32.851662,3.8888889 32.821824,3.8491049 32.73231,3.7794828 32.64105,3.7120491 32.553282,3.6402387 32.489916,3.588394 32.442263,3.5065499 32.374254,3.4612106 32.210099,3.3517742 32.02568,3.2994719 31.83717,3.2523444 30.947387,3.0298987 30.057191,3.2367935 29.181586,3.4313725 c -0.01999,0.00444 -0.748784,0.2060329 -0.865303,0.089514" />
  <path
     style="fill:none;fill-opacity:0.501961;stroke:#95aabf;stroke-width:1.079;stroke-dasharray:none"
     d="m 29.509804,1.2531969 c -0.443661,0.255601 -0.891304,0.5042914 -1.342711,0.7459506 -0.33559,0.1796572 -0.682632,0.3628973 -0.924979,0.6564365 -0.06333,0.076708 -0.118441,0.1598105 -0.179028,0.2387042 -0.188753,0.2457851 -0.427755,0.4472889 -0.656436,0.6564364 -0.124619,0.1139742 -0.246865,0.2309487 -0.358057,0.3580563 -0.04748,0.054277 -0.09366,0.1116442 -0.119352,0.1790281 -0.04025,0.105591 -0.02488,0.2278773 0.02843,0.3275202 0.0533,0.099643 0.141642,0.1776951 0.240932,0.2316517 0.198579,0.1079133 0.43232,0.1220744 0.655621,0.1569407 0.937371,0.1463614 1.784136,0.6997017 2.387042,1.432225 0.30528,0.370911 0.552429,0.7852783 0.805626,1.1935209 0.04946,0.079739 0.09919,0.159308 0.14919,0.2387042"
     id="path6"
     inkscape:path-effect="#path-effect6"
     inkscape:original-d="m 29.509804,1.2531969 c -0.760514,0.2716122 -0.300355,0.071485 -1.342711,0.7459506 -0.266785,0.1726258 -0.680366,0.4118236 -0.924979,0.6564365 -0.07033,0.070329 -0.115355,0.1622968 -0.179028,0.2387042 -0.300081,0.3600972 -0.283539,0.2984549 -0.656436,0.6564364 -0.121763,0.116892 -0.238705,0.2387042 -0.358057,0.3580563 -0.02411,0.024109 -0.157998,0.1017354 -0.119352,0.1790281 0.06639,0.1327813 0.857318,0.6733792 0.924979,0.7161126 0.78633,0.4966294 1.659033,0.849818 2.387042,1.432225 0.32253,0.2580243 0.600932,0.8353059 0.805626,1.1935209 0.03064,0.05362 0.07978,0.2387042 0.14919,0.2387042" />
  <path
     style="fill:none;fill-opacity:0.501961;stroke:#ff9500;stroke-width:1.079;stroke-dasharray:none;stroke-opacity:1"
     d="m 8.8917306,26.25746 c 0.042501,0.01369 0.082899,0.03389 0.1193521,0.05968 0.07195,0.0509 0.1275226,0.122977 0.165564,0.202477 0.038041,0.0795 0.05913,0.166331 0.069679,0.25383 0.021098,0.174999 8.521e-4,0.352101 0.00346,0.528347 0.010038,0.678098 0.3762533,1.332086 0.9249791,1.730606 0.217955,0.158293 0.460851,0.278199 0.692917,0.414969 0.232067,0.136769 0.458046,0.294728 0.619956,0.510009 0.01553,0.02065 0.03059,0.04195 0.04988,0.05913 0.01929,0.01718 0.04364,0.03013 0.06947,0.03038 0.01,9.7e-5 0.02002,-0.0017 0.02984,0 0.0094,0.0016 0.01803,0.0063 0.02508,0.01268 0.007,0.0064 0.01252,0.01433 0.01677,0.02282 0.0085,0.01698 0.01217,0.03589 0.01783,0.05401 0.01563,0.04999 0.04675,0.09419 0.08445,0.130551 0.0377,0.03636 0.0819,0.06533 0.127423,0.09122 0.09105,0.05179 0.190188,0.09334 0.265532,0.16612 0.05074,0.04901 0.08967,0.11132 0.14919,0.14919 0.02463,0.01567 0.05193,0.02655 0.07818,0.03933 0.02625,0.01278 0.05207,0.02796 0.07101,0.05018 0.01448,0.01699 0.02433,0.0374 0.03292,0.058 0.0086,0.0206 0.01614,0.04172 0.02676,0.06135 0.02535,0.04689 0.06683,0.0829 0.110032,0.114125 0.0432,0.03122 0.0892,0.05892 0.128672,0.09474 0.07384,0.06701 0.12036,0.15808 0.179029,0.238704 0.174001,0.239119 0.449142,0.380042 0.716112,0.507247 0.270546,0.128909 0.545297,0.253284 0.835465,0.328218 0.187007,0.04829 0.378798,0.07561 0.566922,0.119352 0.230315,0.05355 0.454622,0.131596 0.686275,0.179028 0.187451,0.03838 0.378458,0.05646 0.566922,0.08951 0.270995,0.04753 0.535689,0.125825 0.805627,0.179028 0.19739,0.0389 0.397157,0.06431 0.59676,0.08951 0.863222,0.108992 1.727491,0.214837 2.595908,0.268543 0.219526,0.01358 0.443051,0.02347 0.656437,-0.02984 0.195495,-0.04884 0.374358,-0.148894 0.542476,-0.25998 0.168119,-0.111085 0.328326,-0.234352 0.501854,-0.336781 0.203095,-0.119882 0.422494,-0.210064 0.626599,-0.328218 0.344624,-0.199498 0.644989,-0.478167 1.014493,-0.626599 0.286819,-0.115217 0.600395,-0.145615 0.89514,-0.238704 0.11999,-0.0379 0.236688,-0.08614 0.358057,-0.119352 0.233567,-0.06392 0.478875,-0.07079 0.716112,-0.119352 0.231694,-0.04742 0.454051,-0.134271 0.686275,-0.179028 0.27649,-0.05329 0.563542,-0.04624 0.835464,-0.119352 0.130682,-0.03513 0.256162,-0.08839 0.387894,-0.119352 0.117821,-0.02769 0.239131,-0.0372 0.358057,-0.05968 0.27285,-0.05157 0.530557,-0.170865 0.805626,-0.208866 0.158002,-0.02183 0.318479,-0.01633 0.477409,-0.02984 0.190693,-0.01621 0.377883,-0.05966 0.566922,-0.08951 0.335074,-0.05291 0.676889,-0.06296 1.014493,-0.02984"
     id="path7"
     inkscape:path-effect="#path-effect7"
     inkscape:original-d="m 8.8917306,26.25746 c 0.039784,0.01989 0.1049262,0.0176 0.1193521,0.05968 0.1095325,0.319469 0.1401537,0.661628 0.2387042,0.984654 0.1906526,0.624917 0.4821549,1.239649 0.9249791,1.730606 0.270598,0.300011 0.949437,0.687955 1.312873,0.924978 0.04165,0.02717 0.07671,0.06393 0.119352,0.08951 0.0085,0.0051 0.0228,-0.007 0.02984,0 0.02536,0.02536 0.03432,0.06416 0.05968,0.08951 0.153152,0.153152 0.311866,0.246002 0.477408,0.387895 0.0534,0.04577 0.09427,0.105256 0.14919,0.14919 0.04529,0.03623 0.103904,0.05328 0.14919,0.08951 0.0098,0.0079 0.04829,0.105689 0.05968,0.119352 0.232444,0.278932 0.0055,-0.02437 0.238704,0.208866 0.0662,0.0662 0.107579,0.172751 0.179029,0.238704 0.172945,0.159642 0.522247,0.406972 0.716112,0.507247 0.02862,0.0148 0.769686,0.307288 0.835465,0.328218 0.183931,0.05852 0.38,0.07262 0.566922,0.119352 0.229355,0.05734 0.454717,0.131355 0.686275,0.179028 0.187385,0.03858 0.378518,0.05627 0.566922,0.08951 1.328857,0.234504 -0.315099,-0.04512 0.805627,0.179028 0.197239,0.03945 0.398675,0.05456 0.59676,0.08951 0.864897,0.152629 1.71675,0.268543 2.595908,0.268543 0.19797,0 0.452297,0.01727 0.656437,-0.02984 0.406159,-0.09373 0.709034,-0.37323 1.04433,-0.596761 0.537269,-0.358179 0.164727,-0.08189 0.626599,-0.328218 0.318661,-0.169953 0.695183,-0.493553 1.014493,-0.626599 0.281337,-0.117223 0.603133,-0.155273 0.89514,-0.238704 0.120968,-0.03456 0.235041,-0.09299 0.358057,-0.119352 0.235629,-0.05049 0.479523,-0.06678 0.716112,-0.119352 0.231237,-0.05139 0.452895,-0.134147 0.686275,-0.179028 0.276253,-0.05313 0.560848,-0.05833 0.835464,-0.119352 0.132059,-0.02935 0.25635,-0.08778 0.387894,-0.119352 0.117658,-0.02824 0.240157,-0.03247 0.358057,-0.05968 0.270316,-0.06238 0.532886,-0.158124 0.805626,-0.208866 0.156757,-0.02916 0.318869,-0.01285 0.477409,-0.02984 0.185295,-0.01985 0.379011,-0.07243 0.566922,-0.08951 0.254199,-0.02311 0.909466,0.07519 1.014493,-0.02984" />
  <path
     style="fill:none;fill-opacity:0.501961;stroke:#ff9500;stroke-width:1.079;stroke-dasharray:none;stroke-opacity:1"
     d="m 26.884058,28.107417 c 1.044806,-0.05092 2.089186,-0.110599 3.132992,-0.179028 0.439351,-0.0288 0.888655,-0.05821 1.312873,0.05968 0.113164,0.03145 0.223565,0.07318 0.338448,0.09762 0.114882,0.02444 0.237005,0.03079 0.347827,-0.0081 0.04388,-0.0154 0.08647,-0.03792 0.132907,-0.04034 0.02322,-0.0012 0.04715,0.003 0.0671,0.01492 0.01,0.006 0.01885,0.01385 0.02564,0.02329 0.0068,0.0094 0.01144,0.02046 0.01306,0.03197 0.0014,0.0099 5.71e-4,0.01989 0,0.02984 -0.0034,0.05959 0.0022,0.119379 0,0.179028 -0.0057,0.152888 -0.06305,0.29942 -0.133997,0.434973 -0.07095,0.135552 -0.15611,0.263414 -0.224059,0.400492 -0.217071,0.437913 -0.24676,0.94353 -0.238704,1.432225 0.0039,0.238755 0.0159,0.477854 0,0.716112 -0.006,0.08989 -0.01596,0.179524 -0.02984,0.268542"
     id="path8"
     inkscape:path-effect="#path-effect8"
     inkscape:original-d="m 26.884058,28.107417 c 1.39165,-0.292979 0.429274,-0.126529 3.132992,-0.179028 0.51745,-0.01005 0.751225,0.0035 1.312873,0.05968 0.229551,0.02295 0.456892,0.06494 0.686275,0.08951 0.08648,0.0093 0.161568,-0.02159 0.238704,0.02984 0.0083,0.0055 0,0.01989 0,0.02984 0,0.05968 0.01519,0.121317 0,0.179028 -0.07872,0.299154 -0.23646,0.555794 -0.358056,0.835465 -0.203619,0.468323 -0.238704,0.9295 -0.238704,1.432225 0,0.132864 0.03388,0.614458 0,0.716112 -0.03122,0.09366 -0.02984,0.168064 -0.02984,0.268542" />
  <path
     style="fill:none;fill-opacity:0.501961;stroke:#1c1f30;stroke-width:1.079;stroke-dasharray:none;stroke-opacity:1"
     d="m 18.141517,25.034101 c -0.137923,-0.687602 0.0543,-1.4339 0.507247,-1.96931 0.09776,-0.115556 0.212985,-0.225369 0.358056,-0.268542 0.130164,-0.03874 0.273147,-0.0189 0.397377,0.03596 0.124231,0.05486 0.231402,0.142683 0.325976,0.240145 0.18915,0.194924 0.336725,0.434075 0.559682,0.589198 0.150972,0.105039 0.328537,0.165405 0.507246,0.208866 0.07971,0.01938 0.160256,0.0357 0.238705,0.05968 0.15373,0.047 0.297017,0.122678 0.44757,0.179028 0.405742,0.151862 0.851605,0.158809 1.283035,0.119352 0.284655,-0.02603 0.570338,-0.07219 0.835465,-0.179028 0.140563,-0.05664 0.274354,-0.129946 0.417732,-0.179028 0.332294,-0.113752 0.69311,-0.09096 1.044331,-0.08951 0.149192,6.17e-4 0.298404,-0.0029 0.44757,0 0.01989,3.81e-4 0.0398,8.75e-4 0.05968,0 0.09388,-0.0041 0.184933,-0.03911 0.262911,-0.09155 0.07798,-0.05244 0.143486,-0.12184 0.199189,-0.197524 0.111406,-0.151368 0.184438,-0.327213 0.283851,-0.486714 0.02364,-0.03793 0.0492,-0.07591 0.05968,-0.119352 0.01158,-0.04803 0.0035,-0.09933 -0.01557,-0.144912 -0.01905,-0.04558 -0.04852,-0.08607 -0.08041,-0.123808 -0.03189,-0.03774 -0.06645,-0.07319 -0.09753,-0.111587 -0.03108,-0.0384 -0.0589,-0.08024 -0.07504,-0.126939 -0.02029,-0.05871 -0.0212,-0.122374 -0.01632,-0.184303 0.0049,-0.06193 0.01531,-0.123441 0.01696,-0.18554 0.0016,-0.0621 -0.0061,-0.126034 -0.03524,-0.180878 -0.01459,-0.02742 -0.03449,-0.05221 -0.0592,-0.07102 -0.02472,-0.01881 -0.05434,-0.03149 -0.08523,-0.0347 -0.01838,-0.0019 -0.03691,-4.9e-4 -0.05538,4.2e-5 -0.01847,5.33e-4 -0.03725,1.37e-4 -0.05493,-0.0052 -0.0088,-0.0027 -0.01734,-0.0066 -0.02482,-0.01204 -0.0075,-0.0054 -0.01392,-0.01237 -0.01832,-0.02049 -0.0044,-0.0081 -0.0067,-0.01744 -0.0061,-0.02666 5.91e-4,-0.0092 0.0042,-0.0183 0.01038,-0.02513 0.0043,-0.0048 0.0099,-0.0084 0.01594,-0.01065 0.006,-0.0023 0.01256,-0.0032 0.01901,-0.0029 0.01289,5.81e-4 0.02526,0.0059 0.03565,0.01356 0.0208,0.01528 0.03363,0.03873 0.04875,0.05964 0.03726,0.05153 0.09072,0.08965 0.148052,0.117148 0.05733,0.0275 0.118837,0.04508 0.180166,0.06188 0.45629,0.125009 0.929284,0.179028 1.402388,0.179028 h 0.208866 c 0.0199,0 0.03985,0.0016 0.05968,0 0.03412,-0.0028 0.06654,-0.0186 0.09195,-0.04154 0.02542,-0.02294 0.04411,-0.05271 0.05678,-0.08452 0.02534,-0.06362 0.02697,-0.13376 0.0303,-0.202156 0.0184,-0.377756 0.09941,-0.75239 0.238704,-1.104007 l -0.02984,-0.119352 c -0.01187,-0.0077 -0.02211,-0.01797 -0.02984,-0.02984 -0.0097,-0.01495 -0.01543,-0.03231 -0.01796,-0.04997 -0.0025,-0.01766 -0.002,-0.03565 9e-5,-0.05338 0.0041,-0.03544 0.01425,-0.07001 0.01787,-0.105514 0.0086,-0.08401 -0.02001,-0.16812 -0.06189,-0.24145 -0.04188,-0.07333 -0.09681,-0.138185 -0.146975,-0.20612 -0.175834,-0.238136 -0.293859,-0.516655 -0.358056,-0.805627 -0.0066,-0.02963 -0.01263,-0.05952 -0.01399,-0.08984 -0.0014,-0.03032 0.0021,-0.06126 0.01399,-0.08919 0.01051,-0.02473 0.02741,-0.04655 0.04793,-0.0639 0.02051,-0.01735 0.04458,-0.03031 0.06996,-0.03912 0.05077,-0.01762 0.105934,-0.01865 0.159376,-0.01301 0.05344,0.0056 0.105987,0.01769 0.159134,0.02564 0.05315,0.008 0.107736,0.01175 0.160365,8.85e-4 0.08351,-0.01724 0.154834,-0.06951 0.223416,-0.120186 0.06858,-0.05068 0.140403,-0.102478 0.224154,-0.118518 0.09251,-0.01772 0.187181,0.01049 0.281361,0.01186 0.04709,6.85e-4 0.09524,-0.0057 0.137316,-0.02685 0.02104,-0.01057 0.04036,-0.0248 0.05587,-0.04251 0.01552,-0.01771 0.02717,-0.03896 0.0327,-0.06185 0.0061,-0.0252 0.0047,-0.05182 -0.0014,-0.07703 -0.006,-0.02521 -0.01652,-0.04915 -0.02847,-0.07216 -0.07908,-0.152165 -0.221157,-0.264615 -0.298381,-0.417733 -0.03412,-0.06766 -0.05465,-0.141578 -0.08951,-0.208866 -0.03302,-0.06374 -0.0782,-0.120208 -0.119352,-0.179028 -0.06169,-0.08816 -0.114741,-0.182256 -0.179028,-0.268542 -0.130061,-0.174567 -0.303404,-0.31322 -0.489526,-0.426128 -0.186122,-0.112908 -0.385758,-0.201472 -0.584643,-0.289985 -0.139685,-0.06217 -0.28326,-0.127222 -0.387894,-0.238704 -0.0905,-0.09642 -0.146489,-0.225842 -0.14919,-0.358056 -0.0028,-0.139408 0.05291,-0.27653 0.140713,-0.38485 0.0878,-0.10832 0.205991,-0.1893 0.332851,-0.247172 0.25372,-0.115744 0.537599,-0.141345 0.809471,-0.203443 0.471049,-0.107592 0.90822,-0.325707 1.342711,-0.537084 0.144782,-0.07044 0.291165,-0.140814 0.44757,-0.179028 0.04171,-0.01019 0.08404,-0.01807 0.12505,-0.03081 0.041,-0.01275 0.08109,-0.03071 0.113654,-0.0587 0.02858,-0.02456 0.05063,-0.05638 0.0651,-0.09118 0.01447,-0.0348 0.02147,-0.07251 0.02207,-0.110194 0.0012,-0.07536 -0.02287,-0.14933 -0.05733,-0.216362 -0.05851,-0.113817 -0.1462,-0.209945 -0.238704,-0.29838 -0.184276,-0.176171 -0.390913,-0.327005 -0.59676,-0.477408 -0.430463,-0.314521 -0.860523,-0.629694 -1.283035,-0.954817 -0.16342,-0.125752 -0.331574,-0.260229 -0.417732,-0.44757 -0.03168,-0.06888 -0.05137,-0.143342 -0.08951,-0.208867 -0.04269,-0.07335 -0.107504,-0.132775 -0.181729,-0.17392 -0.07422,-0.04115 -0.15762,-0.06445 -0.242014,-0.07339 -0.168788,-0.01789 -0.338343,0.02058 -0.501236,0.06828 -0.633481,0.185497 -1.230719,0.522637 -1.670929,1.014493 -0.140533,0.15702 -0.264405,0.328618 -0.409229,0.481689 -0.144823,0.153072 -0.315055,0.289539 -0.51575,0.353776 -0.144728,0.04632 -0.304968,0.05251 -0.44757,0 -0.106932,-0.03937 -0.200811,-0.110401 -0.274647,-0.197194 -0.07384,-0.08679 -0.12822,-0.188999 -0.167445,-0.295985 -0.07845,-0.213973 -0.09682,-0.444332 -0.124831,-0.670504 -0.01964,-0.158576 -0.04439,-0.318286 -0.02984,-0.477409 0.02397,-0.262143 0.152809,-0.503213 0.301133,-0.720683 0.148324,-0.217471 0.319165,-0.420555 0.444818,-0.651866 0.225353,-0.414849 0.292586,-0.9143036 0.179028,-1.3725485 -0.02573,-0.1038075 -0.06028,-0.2052613 -0.08617,-0.3090291 -0.02588,-0.1037678 -0.04309,-0.2110819 -0.03319,-0.3175694 0.0023,-0.02495 0.0061,-0.049771 0.0074,-0.074794 0.0013,-0.025023 8.5e-5,-0.050496 -0.0074,-0.074396 -0.01088,-0.034536 -0.03421,-0.063776 -0.05968,-0.089514 -0.114493,-0.115711 -0.277643,-0.1735599 -0.439757,-0.1882926 -0.162113,-0.014733 -0.325064,0.01 -0.485222,0.039102 -0.307483,0.055875 -0.613159,0.1283039 -0.924979,0.1491901 -0.117085,0.00784 -0.235869,0.00856 -0.349228,0.038891 -0.05668,0.015167 -0.111725,0.037834 -0.160207,0.070881 -0.04848,0.033047 -0.09028,0.076781 -0.117163,0.128933 -0.04168,0.080858 -0.04523,0.1761554 -0.03582,0.2666378 0.0094,0.090482 0.03081,0.1796145 0.03582,0.2704466 0.01024,0.1856865 -0.04876,0.3692544 -0.13195,0.535578 -0.08319,0.1663237 -0.190467,0.3192295 -0.285782,0.4789147 -0.08668,0.1452227 -0.163488,0.2960906 -0.238705,0.4475698 -0.04776,0.09618 -0.09529,0.193728 -0.119352,0.298381 -0.0107,0.04655 -0.01666,0.09413 -0.02836,0.140436 -0.0117,0.04631 -0.02971,0.09215 -0.06115,0.128106 -0.0388,0.04437 -0.09618,0.0705 -0.154804,0.07662 -0.05862,0.0061 -0.118275,-0.0068 -0.172007,-0.031 C 20.034622,10.619511 19.952825,10.529275 19.872137,10.44333 19.513953,10.061811 19.114501,9.7183747 18.678602,9.428815 18.483173,9.2989953 18.2746,9.1744662 18.141517,8.9812447 18.053813,8.8539083 18.004546,8.7042086 17.926644,8.5706499 c -0.03895,-0.066779 -0.08554,-0.129951 -0.144432,-0.1800396 -0.05889,-0.050089 -0.130833,-0.086649 -0.207617,-0.09564 -0.02969,-0.00348 -0.05975,-0.00284 -0.08951,0 -0.115089,0.010987 -0.225298,0.054859 -0.324267,0.1146197 -0.09897,0.059761 -0.18754,0.1351814 -0.272493,0.2135985 -0.538733,0.4972863 -0.945684,1.1247274 -1.253197,1.7902816 -0.07446,0.16115 -0.144531,0.329788 -0.14919,0.507246 -0.0049,0.186795 0.06293,0.366964 0.0936,0.551289 0.01534,0.09216 0.02132,0.186968 0.0042,0.278819 -0.01711,0.09185 -0.05875,0.180973 -0.127661,0.244061 -0.05421,0.04963 -0.123388,0.08144 -0.195325,0.0965 -0.07194,0.01506 -0.146627,0.01389 -0.219297,0.0029 -0.145341,-0.02196 -0.281632,-0.08206 -0.420842,-0.129249 -0.375408,-0.127256 -0.774928,-0.161277 -1.163683,-0.238704 -0.492216,-0.09803 -0.968675,-0.266104 -1.462063,-0.358057 -0.196476,-0.03662 -0.403324,-0.06423 -0.566923,-0.179028 -0.02766,-0.01941 -0.05446,-0.0415 -0.08666,-0.05175 -0.0161,-0.0051 -0.03344,-0.0071 -0.05001,-0.0038 -0.01657,0.0033 -0.03232,0.01211 -0.04236,0.0257 -0.0061,0.0083 -0.01,0.0181 -0.01196,0.02821 -0.002,0.01011 -0.002,0.02053 -0.001,0.03077 0.0021,0.0205 0.0085,0.04027 0.01298,0.06036 0.01904,0.08464 0.0043,0.173303 -0.01889,0.256896 -0.02321,0.08359 -0.0549,0.165031 -0.07062,0.250351 -0.0271,0.147093 -0.0056,0.298106 0,0.44757 0.0071,0.188891 -0.01142,0.378245 0,0.566923 0.01157,0.191115 0.05366,0.378844 0.08951,0.566922 0.04936,0.258964 0.08721,0.52052 0.154276,0.775473 0.06707,0.254953 0.165029,0.505472 0.323133,0.716428 0.193141,0.257705 0.465661,0.443563 0.742033,0.608893 0.276372,0.16533 0.563997,0.316573 0.809544,0.524952 0.0193,0.01638 0.03841,0.03319 0.05453,0.05271 0.01612,0.01952 0.02924,0.04199 0.03498,0.06664 0.0091,0.03909 -0.0013,0.08114 -0.02281,0.11502 -0.02152,0.03388 -0.05336,0.06022 -0.08791,0.08065 -0.0691,0.04086 -0.149676,0.05977 -0.217503,0.102713 -0.06016,0.03809 -0.107499,0.09337 -0.148622,0.151494 -0.04112,0.05813 -0.077,0.119912 -0.119921,0.176724 -0.107645,0.142487 -0.25537,0.248548 -0.382792,0.373662 -0.06371,0.06256 -0.122896,0.130618 -0.167518,0.207957 -0.04462,0.07734 -0.07432,0.164579 -0.07629,0.253846 -0.0026,0.116231 0.04139,0.230301 0.03454,0.346359 -0.0034,0.05803 -0.02062,0.11688 -0.05837,0.161086 -0.01887,0.0221 -0.04271,0.04017 -0.06967,0.05103 -0.02696,0.01085 -0.05707,0.01432 -0.08554,0.0084 -0.005,-0.001 -0.0099,-0.0023 -0.01503,-0.0027 -0.0051,-3.96e-4 -0.01039,1.91e-4 -0.01481,0.0027 -0.0047,0.0027 -0.008,0.0075 -0.0096,0.01268 -0.0016,0.0052 -0.0015,0.01077 -5.87e-4,0.01612 0.0019,0.01069 0.0072,0.02043 0.01018,0.03088 0.0037,0.01331 0.0035,0.02756 4.66e-4,0.04105 -0.003,0.0135 -0.0086,0.0263 -0.01536,0.03837 -0.01351,0.02412 -0.03158,0.04548 -0.04479,0.06977 -0.0267,0.04907 -0.03195,0.107267 -0.02739,0.162947 0.0046,0.05568 0.01829,0.110151 0.02739,0.165271 0.03488,0.211282 2.12e-4,0.432158 -0.08951,0.626598 -0.08548,0.185241 -0.217736,0.344543 -0.320228,0.52094 -0.05125,0.0882 -0.09529,0.181378 -0.120544,0.280208 -0.02526,0.09883 -0.03118,0.20381 -0.0068,0.302859 0.02941,0.119458 0.102037,0.225698 0.194094,0.30731 0.09206,0.08161 0.202894,0.139856 0.318092,0.183034 0.230396,0.08636 0.478991,0.114498 0.711173,0.195931 0.303433,0.106423 0.568261,0.299845 0.861254,0.432332 0.146497,0.06624 0.301474,0.117445 0.46161,0.131793 0.160136,0.01435 0.326214,-0.0098 0.467418,-0.08672 0.04271,-0.02326 0.08278,-0.05105 0.124675,-0.07576 0.04189,-0.02471 0.08622,-0.04654 0.133852,-0.05637 0.04763,-0.0098 0.09916,-0.0068 0.142096,0.01602 0.02147,0.01143 0.04047,0.02772 0.05418,0.0478 0.01371,0.02009 0.022,0.044 0.02261,0.06831 2.51e-4,0.0099 -7.58e-4,0.01992 0,0.02984 0.002,0.02633 0.01693,0.05099 0.03827,0.06654 0.02134,0.01555 0.04859,0.02219 0.07491,0.02013 0.02632,-0.0021 0.05166,-0.01252 0.073,-0.02807 0.02134,-0.01555 0.0388,-0.03604 0.05253,-0.0586 0.01149,-0.01888 0.02043,-0.03919 0.03101,-0.0586 0.01058,-0.01941 0.02308,-0.03823 0.04019,-0.05222 0.0086,-0.007 0.01822,-0.01272 0.02868,-0.01629 0.01046,-0.0036 0.02172,-0.005 0.03267,-0.0035 0.01095,0.0015 0.02157,0.0059 0.02997,0.01309 0.0084,0.0072 0.0145,0.01715 0.0165,0.02802 0.0021,0.01129 -2.73e-4,0.02316 -0.0055,0.03337 -0.0052,0.01021 -0.01326,0.01884 -0.02238,0.02581 -0.01825,0.01394 -0.04051,0.02129 -0.06161,0.03033 -0.10478,0.04491 -0.183431,0.133027 -0.268542,0.208866 -0.11761,0.104797 -0.251943,0.188968 -0.387894,0.268542 -0.150188,0.08791 -0.303453,0.171002 -0.447571,0.268543 -0.140764,0.09527 -0.273477,0.20525 -0.377014,0.340051 -0.103538,0.1348 -0.17693,0.296097 -0.189908,0.465575 -0.0023,0.02978 -0.0027,0.05976 0,0.08951 0.0082,0.09011 0.04529,0.176252 0.09853,0.249414 0.05324,0.07316 0.122169,0.133896 0.196918,0.18488 0.149497,0.101969 0.321344,0.165575 0.480345,0.251981 0.20854,0.113327 0.393638,0.265121 0.59676,0.387894 0.09444,0.05708 0.193512,0.108155 0.299651,0.138334 0.106138,0.03018 0.220174,0.0387 0.326948,0.01086 0.03017,-0.0079 0.0598,-0.01861 0.0908,-0.02197 0.0155,-0.0017 0.0313,-0.0015 0.04652,0.0019 0.01522,0.0034 0.02988,0.0099 0.04171,0.02009 0.01367,0.01173 0.02303,0.02762 0.03152,0.04351 0.0085,0.0159 0.01646,0.0323 0.02816,0.046 0.01367,0.01601 0.03196,0.02767 0.05154,0.03538 0.01959,0.0077 0.04048,0.01164 0.06142,0.01381 0.04188,0.0043 0.08454,0.0018 0.12574,0.01049 0.05038,0.01061 0.0958,0.03738 0.138405,0.0663 0.0426,0.02891 0.08374,0.06056 0.130137,0.08289 0.0654,0.03148 0.138214,0.04307 0.208866,0.05968 0.17002,0.03998 0.332657,0.111133 0.477409,0.208867 l 0.14919,0.02984 c 0.0096,0.01029 0.01955,0.02025 0.02984,0.02984 0.121494,0.113249 0.288874,0.172291 0.454962,0.173258 0.166088,9.68e-4 0.330172,-0.05381 0.470016,-0.143418 0.04191,-0.02685 0.08184,-0.0568 0.119352,-0.08951 z"
     id="path9"
     inkscape:path-effect="#path-effect9"
     inkscape:original-d="m 18.141517,25.034101 c 0.130031,-1.007734 0.05512,-0.974624 0.507247,-1.96931 0.03526,-0.07757 0.184984,-0.369501 0.358056,-0.268542 1.955969,1.140982 -1.026109,-0.37375 1.283035,0.865303 0.161125,0.08646 0.3354,0.146376 0.507246,0.208866 0.124839,0.0454 0.135307,0.008 0.238705,0.05968 0.114389,0.05719 0.345837,0.15529 0.44757,0.179028 0.326315,0.07614 0.961435,0.134666 1.283035,0.119352 0.280907,-0.01338 0.572453,-0.07382 0.835465,-0.179028 0.190606,-0.07624 0.198617,-0.131395 0.417732,-0.179028 0.293786,-0.06387 0.761993,-0.08145 1.044331,-0.08951 0.149129,-0.0043 0.29838,0 0.44757,0 0.01989,0 0.04376,0.01194 0.05968,0 0.241446,-0.181085 0.541122,-0.545357 0.745951,-0.775789 0.02139,-0.02406 0.08783,-0.07008 0.05968,-0.119352 -0.09761,-0.17081 -0.23194,-0.305935 -0.268543,-0.507246 -0.0573,-0.315141 0.105096,-0.400726 -0.179028,-0.656437 -0.04311,-0.0388 -0.102794,-0.05472 -0.14919,-0.08951 -0.03558,-0.02669 0.08163,0.0361 0.119352,0.05968 0.07402,0.04626 0.249615,0.152827 0.328218,0.179028 0.450445,0.150149 0.933372,0.179028 1.402388,0.179028 0.06962,0 0.139244,0 0.208866,0 0.01989,0 0.04312,0.01103 0.05968,0 0.01132,-0.0075 0.173891,-0.3188 0.179028,-0.328218 0.17643,-0.323455 0.272402,-0.733329 0.238704,-1.104007 -0.0099,-0.03978 -0.01989,-0.07957 -0.02984,-0.119352 -0.0099,-0.0099 -0.02539,-0.01649 -0.02984,-0.02984 -0.01935,-0.05804 0.01174,-0.150184 0,-0.208866 -0.03442,-0.172101 -0.107959,-0.29621 -0.208866,-0.44757 -0.188347,-0.282521 -0.319395,-0.457672 -0.358056,-0.805627 -0.0061,-0.05487 -0.0026,-0.178165 0,-0.179028 0.189939,-0.06331 0.40682,-0.0262 0.59676,-0.08951 0.123179,-0.04106 0.292704,-0.180629 0.44757,-0.238704 0.620797,-0.232799 -0.0598,0.02241 0.507247,-0.119352 7.89e-4,-1.98e-4 0.0089,-0.08461 -0.02984,-0.14919 -0.08804,-0.146733 -0.213482,-0.269161 -0.298381,-0.417733 -0.03758,-0.06577 -0.0536,-0.142173 -0.08951,-0.208866 -0.034,-0.06315 -0.07957,-0.119352 -0.119352,-0.179028 -0.05968,-0.08951 -0.09942,-0.196174 -0.179028,-0.268542 -0.09529,-0.08663 -1.025112,-0.684895 -1.074169,-0.716113 -0.128084,-0.08151 -0.258349,-0.159538 -0.387894,-0.238704 -0.190425,-0.116371 -0.16967,-0.112297 -0.14919,-0.358056 0.04101,-0.492175 1.051326,-0.73847 1.283035,-0.835465 0.447517,-0.187333 0.887846,-0.36651 1.342711,-0.537084 0.150452,-0.05642 0.297936,-0.120476 0.44757,-0.179028 0.07914,-0.03097 0.16442,-0.04824 0.238704,-0.08951 0.09637,-0.05354 0.07938,-0.340669 0.02984,-0.417733 -0.06888,-0.107142 -0.145367,-0.21171 -0.238704,-0.29838 -0.186673,-0.17334 -0.395187,-0.321647 -0.59676,-0.477408 -0.59399,-0.458992 -0.719705,-0.532319 -1.283035,-0.954817 -0.19595,-0.146962 -0.31259,-0.237285 -0.417732,-0.44757 -0.03566,-0.07133 -0.02742,-0.146777 -0.08951,-0.208867 -0.164146,-0.164145 -0.718943,-0.232776 -0.924979,-0.179028 -0.557922,0.145545 -1.247824,0.661905 -1.670929,1.014493 -0.167495,0.139579 -0.672649,0.67145 -0.924979,0.835465 -0.169238,0.110004 -0.309134,0.138437 -0.44757,0 -0.309087,-0.309087 -0.509857,-0.735693 -0.566923,-1.163683 -0.02107,-0.158048 -0.07536,-0.324597 -0.02984,-0.477409 0.36954,-1.240597 0.339302,-0.559252 0.745951,-1.372549 0.205633,-0.4112663 0.20993,-0.9244659 0.179028,-1.3725485 -0.04556,-0.660623 -0.04462,-0.1408167 -0.119352,-0.6265985 -0.0076,-0.049152 0.01206,-0.1009449 0,-0.1491901 -0.0087,-0.03479 -0.03432,-0.064157 -0.05968,-0.089514 C 23.59707,7.6039019 23.138628,7.65352 22.885773,7.6683938 c -0.562133,0.033067 -0.413166,0.060179 -0.924979,0.1491901 -0.211095,0.036712 -0.493706,0.017218 -0.626598,0.2387042 -0.03617,0.06029 0.0206,0.4649765 0,0.5370844 -0.02019,0.070672 -0.348605,0.8713005 -0.417732,1.0144927 -0.07351,0.1522672 -0.165538,0.2951389 -0.238705,0.4475698 -0.04635,0.09657 -0.08913,0.195612 -0.119352,0.298381 -0.045,0.152998 0.02437,0.192622 -0.08951,0.268542 -0.114619,0.07641 -0.554204,-0.148791 -0.59676,-0.179028 C 19.157727,9.9357108 19.205396,9.8897597 18.678602,9.428815 18.655037,9.4081959 18.21405,9.0537775 18.141517,8.9812447 17.937694,8.7774213 17.816883,8.4564956 17.574595,8.2949702 c -0.02483,-0.016551 -0.05968,0 -0.08951,0 -0.287766,0 -0.37706,0.1169682 -0.59676,0.3282182 -0.625208,0.6011608 -0.95503,0.9703217 -1.253197,1.7902816 -0.06023,0.165632 -0.125897,0.332548 -0.14919,0.507246 -0.07101,0.532589 0.537223,0.719756 -0.02984,1.074169 -0.187181,0.116988 -0.669237,-0.0061 -0.835464,-0.02984 -1.247292,-0.178185 0.042,0.01966 -1.163683,-0.238704 -1.319899,-0.282836 -0.03663,0.08541 -1.462063,-0.358057 -0.189227,-0.05887 -0.376089,-0.125594 -0.566923,-0.179028 -0.05826,-0.01631 -0.124916,-0.05689 -0.179028,-0.02984 -0.03558,0.01779 0.0036,0.07973 0,0.119352 -0.01554,0.17099 -0.07582,0.336099 -0.08951,0.507247 -0.0119,0.148715 0,0.29838 0,0.44757 0,0.188974 -0.01487,0.378535 0,0.566923 0.01506,0.190721 0.05064,0.379599 0.08951,0.566922 0.07628,0.367523 0.187399,1.123812 0.477409,1.491901 0.416426,0.528541 0.988733,0.783969 1.551577,1.133845 0.133273,0.08285 0.07164,0.02998 0.08951,0.119352 0.05986,0.299308 -0.04834,0.111794 -0.328218,0.29838 -0.261437,0.174291 -0.117531,0.09484 -0.268543,0.328218 -0.174451,0.269607 -0.480129,0.560836 -0.626598,0.835465 -0.09798,0.183704 -0.10735,0.387728 -0.179028,0.566922 -0.0037,0.0092 -0.02539,-0.0089 -0.02984,0 -0.0089,0.01779 0.0048,0.04038 0,0.05968 -0.03327,0.133064 -0.03785,-0.02543 -0.05968,0.14919 -0.01349,0.107883 0.01201,0.220163 0,0.328218 -0.0233,0.209696 -0.04276,0.420858 -0.08951,0.626598 -0.0492,0.216462 -0.563448,0.930192 -0.447571,1.104007 0.228629,0.342943 1.130522,0.645363 1.223359,0.686275 0.566473,0.249632 1.175602,0.403647 1.790282,0.477408 0.0977,0.01172 0.358072,-0.03978 0.477408,0 0.0094,0.0031 -0.0094,0.02669 0,0.02984 0.07549,0.02516 0.160681,0.01561 0.238704,0 0.109292,-0.02186 0.187024,-0.08152 0.179028,-0.08951 -0.0075,-0.0075 -0.02643,0.0379 -0.08951,0.08951 -0.08777,0.07181 -0.17683,0.142166 -0.268542,0.208866 -0.127182,0.0925 -0.25561,0.183503 -0.387894,0.268542 -0.146352,0.09408 -0.311712,0.159856 -0.447571,0.268543 -0.251145,0.200916 -0.44122,0.512322 -0.566922,0.805626 -0.01175,0.02743 -0.01334,0.06283 0,0.08951 0.06941,0.138823 0.636649,0.58192 0.775789,0.686275 0.186595,0.139946 0.375284,0.303522 0.59676,0.387894 0.02735,0.01042 0.550759,0.138356 0.626599,0.14919 0.05908,0.0084 0.13683,-0.0422 0.179028,0 0.02536,0.02536 0.03167,0.06711 0.05968,0.08951 0.06675,0.0534 0.171761,0.0262 0.238704,0.05968 0.08834,0.04417 0.17403,0.117686 0.268542,0.14919 0.06869,0.0229 0.141068,0.03425 0.208866,0.05968 0.149628,0.05611 0.320229,0.15171 0.477409,0.208867 0.04973,0.0099 0.09946,0.01989 0.14919,0.02984 0.0099,0.0099 0.01726,0.02355 0.02984,0.02984 0.05109,0.02555 0.880701,0.04881 0.924978,0.02984 0.04571,-0.01959 0.07957,-0.05968 0.119352,-0.08951 z" />
  <path
     style="fill:none;fill-opacity:0.501961;stroke:#1c1f30;stroke-width:1.079;stroke-dasharray:none;stroke-opacity:1"
     d="m 19.812447,20.409207 c -0.240492,0.08434 -0.512964,0.07344 -0.745951,-0.02984 -0.187531,-0.08313 -0.344708,-0.220524 -0.501318,-0.353006 -0.15661,-0.132483 -0.319931,-0.264456 -0.513175,-0.333268 -0.02963,-0.01055 -0.05979,-0.01954 -0.08951,-0.02984 -0.07161,-0.02481 -0.140371,-0.05708 -0.208866,-0.08951 -0.376629,-0.178335 -0.755155,-0.365366 -1.163683,-0.447571 -0.0793,-0.01596 -0.160582,-0.02824 -0.233696,-0.06286 -0.03656,-0.01731 -0.07078,-0.04024 -0.09829,-0.0699 -0.02751,-0.02965 -0.0481,-0.06626 -0.05591,-0.105949 -0.01202,-0.06106 0.0068,-0.124737 0.03753,-0.17888 0.03069,-0.05414 0.07268,-0.100823 0.111664,-0.149338 0.242556,-0.301862 0.373086,-0.687214 0.387894,-1.074169 0.0099,-0.258622 -0.0297,-0.518687 0,-0.775789 0.01276,-0.110502 0.0382,-0.219076 0.05968,-0.328218 0.02751,-0.139793 0.04869,-0.281234 0.08952,-0.417732 0.0361,-0.120673 0.08943,-0.239691 0.179028,-0.328218 0.04788,-0.04731 0.104611,-0.08446 0.158417,-0.124894 0.05381,-0.04044 0.105957,-0.08556 0.139963,-0.143649 0.02624,-0.04482 0.04055,-0.09543 0.06009,-0.143548 0.01954,-0.04812 0.04608,-0.09589 0.0891,-0.124994 0.04056,-0.02744 0.09193,-0.03524 0.1407,-0.03081 0.04877,0.0044 0.09573,0.02015 0.141887,0.03651 0.04616,0.01636 0.09241,0.03357 0.140791,0.04116 0.04838,0.0076 0.09976,0.0049 0.143544,-0.01701 0.05081,-0.02546 0.08583,-0.07346 0.119353,-0.119352 0.03759,-0.05146 0.07589,-0.102588 0.119352,-0.14919 0.09282,-0.09952 0.207023,-0.176211 0.309385,-0.265885 0.102362,-0.08967 0.196202,-0.198484 0.227699,-0.330875 0.0095,-0.03998 0.01325,-0.08176 0.02984,-0.119352 0.01639,-0.03714 0.04423,-0.06776 0.06897,-0.09994 0.02474,-0.03218 0.04741,-0.06844 0.05038,-0.108924 0.0015,-0.01985 -0.0019,-0.03987 0,-0.05968 0.0036,-0.03679 0.0255,-0.06992 0.05349,-0.09405 0.02799,-0.02413 0.06182,-0.04037 0.0957,-0.05514 0.127015,-0.05537 0.260793,-0.09402 0.387895,-0.14919 0.06951,-0.03017 0.137062,-0.06529 0.208866,-0.08951 0.209016,-0.0705 0.436302,-0.04395 0.656436,-0.02984 0.129451,0.0083 0.259406,0.01203 0.387894,0.02984 0.515496,0.07146 0.984071,0.372388 1.312873,0.775789 0.07582,0.09302 0.145903,0.192456 0.238705,0.268542 0.07773,0.06373 0.168763,0.108849 0.252037,0.165134 0.08327,0.05628 0.161777,0.128086 0.195533,0.22276 0.02023,0.05673 0.02307,0.118295 0.01926,0.178407 -0.0038,0.06011 -0.01407,0.11964 -0.01926,0.179649 -0.03018,0.348983 0.111135,0.694714 0.08951,1.044331 -0.01243,0.200926 -0.07841,0.395757 -0.08951,0.596761 -0.01492,0.270247 0.06976,0.535689 0.08951,0.805626 0.01597,0.218285 0,0.437569 0,0.656437 v 1.104006 c 0,0.05553 0.0052,0.110901 0.01346,0.165809 0.0042,0.02745 0.0081,0.05509 0.0075,0.08285 -6.09e-4,0.02776 -0.0062,0.05606 -0.02099,0.07956 -0.01348,0.0214 -0.03369,0.03749 -0.05169,0.05526 -0.009,0.0089 -0.01756,0.01831 -0.02438,0.02896 -0.0068,0.01065 -0.01189,0.02259 -0.01344,0.03514 -0.0012,0.0099 -2.61e-4,0.01988 0,0.02984 0.0012,0.04504 -0.01237,0.09001 -0.03626,0.128208 -0.02389,0.0382 -0.05784,0.06971 -0.09652,0.09279 -0.07738,0.04617 -0.171245,0.05803 -0.261084,0.05112 -0.179679,-0.01383 -0.350962,-0.09778 -0.531111,-0.0931 -0.121107,0.0031 -0.237644,0.04634 -0.358056,0.05968 -0.188216,0.02085 -0.380229,-0.03172 -0.566922,0 -0.09048,0.01537 -0.177251,0.05025 -0.268543,0.05968 -0.06501,0.0067 -0.130557,3.29e-4 -0.195903,-7.67e-4 -0.06534,-0.0011 -0.13251,0.0035 -0.191991,0.03061 -0.03054,0.0139 -0.05816,0.03333 -0.08681,0.05079 -0.02865,0.01747 -0.05911,0.03327 -0.09222,0.03872 -0.0295,0.0049 -0.05964,0.0013 -0.08951,0 -0.07067,-0.003 -0.14187,0.0072 -0.208866,0.02984 z"
     id="path10"
     inkscape:path-effect="#path-effect10"
     inkscape:original-d="m 19.812447,20.409207 c -0.24865,-0.0099 -0.506318,0.03726 -0.745951,-0.02984 -0.751585,-0.210444 -0.613212,-0.34232 -1.014493,-0.686274 -0.10835,-0.09287 -0.01965,-0.0036 -0.08951,-0.02984 -0.07092,-0.0266 -0.137942,-0.06292 -0.208866,-0.08951 -0.671162,-0.251686 -0.41911,-0.119083 -1.163683,-0.447571 -0.06987,-0.03082 -0.349727,-0.08603 -0.387894,-0.238704 -0.02682,-0.107293 0.107968,-0.245773 0.14919,-0.328218 0.167839,-0.335677 0.348091,-0.696037 0.387894,-1.074169 0.02691,-0.255633 -0.02838,-0.520328 0,-0.775789 0.01228,-0.110519 0.04395,-0.218136 0.05968,-0.328218 0.03168,-0.22179 0.0092,-0.224865 0.08952,-0.417732 0.0187,-0.04489 0.139282,-0.283504 0.179028,-0.328218 0.174327,-0.196119 0.137044,-0.03806 0.29838,-0.268543 0.100178,-0.14311 0.0071,-0.154856 0.14919,-0.268542 0.05648,-0.04519 0.535346,0.0551 0.566922,0.02984 0.04393,-0.03515 0.08197,-0.0773 0.119353,-0.119352 0.04231,-0.0476 0.07432,-0.104157 0.119352,-0.14919 0.192563,-0.192563 0.411448,-0.345488 0.537084,-0.59676 0.01834,-0.03668 0.01287,-0.08202 0.02984,-0.119352 0.03318,-0.073 0.08679,-0.135591 0.119352,-0.208867 0.0081,-0.01818 -0.0048,-0.04038 0,-0.05968 0.01442,-0.05768 0.10261,-0.118136 0.14919,-0.14919 0.119114,-0.07941 0.257353,-0.10172 0.387895,-0.14919 0.07119,-0.02589 0.135133,-0.07217 0.208866,-0.08951 0.156401,-0.0368 0.509757,-0.03571 0.656436,-0.02984 0.129577,0.0052 0.261795,-4.26e-4 0.387894,0.02984 0.438546,0.105251 0.982195,0.478178 1.312873,0.775789 0.08902,0.08012 0.152157,0.185757 0.238705,0.268542 0.142665,0.136463 0.307971,0.248295 0.44757,0.387894 0.03038,0.03039 -5.23e-4,0.354049 0,0.358056 0.04589,0.35179 0.131618,0.686446 0.08951,1.044331 -0.0802,0.681679 -0.05534,-0.189253 -0.08951,0.596761 -0.01541,0.354458 0.05384,0.484521 0.08951,0.805626 0.02371,0.213404 0,0.44193 0,0.656437 0,0.368002 0,0.736004 0,1.104006 0,0.09546 0.02982,0.238742 0,0.328219 -0.01315,0.03944 -0.0705,0.08132 -0.08951,0.119352 -0.0044,0.0089 0.0091,0.02592 0,0.02984 -0.283328,0.121426 -0.629322,0.138711 -0.924979,0.179028 -0.119889,0.01635 -0.237414,0.0504 -0.358056,0.05968 -0.188418,0.01449 -0.377948,0 -0.566922,0 -0.217984,0 0.07702,-0.0094 -0.268543,0.05968 -0.126046,0.02521 -0.263662,-0.01157 -0.387894,0.02984 -0.05797,0.01932 -0.113718,0.07319 -0.179028,0.08951 -0.02895,0.0072 -0.06842,-0.0211 -0.08951,0 -0.06185,0.06185 0.09067,0.149652 -0.208866,0.02984 z" />
</svg>
