<?xml version="1.0" encoding="UTF-8" standalone="no"?>
<svg
   width="72px"
   height="32px"
   viewBox="0 0 72 32"
   version="1.1"
   id="svg2"
   sodipodi:docname="begining.svg"
   inkscape:version="1.3.2 (091e20e, 2023-11-25, custom)"
   xmlns:inkscape="http://www.inkscape.org/namespaces/inkscape"
   xmlns:sodipodi="http://sodipodi.sourceforge.net/DTD/sodipodi-0.dtd"
   xmlns="http://www.w3.org/2000/svg"
   xmlns:svg="http://www.w3.org/2000/svg">
  <sodipodi:namedview
     id="namedview2"
     pagecolor="#ffffff"
     bordercolor="#000000"
     borderopacity="0.25"
     inkscape:showpageshadow="2"
     inkscape:pageopacity="0.0"
     inkscape:pagecheckerboard="0"
     inkscape:deskcolor="#d1d1d1"
     inkscape:zoom="20.083333"
     inkscape:cx="36"
     inkscape:cy="16.008299"
     inkscape:window-width="2560"
     inkscape:window-height="1369"
     inkscape:window-x="-8"
     inkscape:window-y="-8"
     inkscape:window-maximized="1"
     inkscape:current-layer="svg2" />
  <!-- Generator: Sketch 49 (51002) - http://www.bohemiancoding.com/sketch -->
  <title
     id="title1">Begining?ICON</title>
  <desc
     id="desc1">Created with Sketch.</desc>
  <defs
     id="defs1">
    <inkscape:path-effect
       effect="spiro"
       id="path-effect5"
       is_visible="true"
       lpeversion="1" />
    <inkscape:path-effect
       effect="spiro"
       id="path-effect4"
       is_visible="true"
       lpeversion="1" />
    <inkscape:path-effect
       effect="spiro"
       id="path-effect3"
       is_visible="true"
       lpeversion="1" />
  </defs>
  <path
     style="fill:none;stroke:#f7931a;stroke-width:1.179;stroke-dasharray:none;stroke-opacity:1"
     d="m 19.917012,30.522822 c -0.248516,0.01825 -0.498372,0.01825 -0.746888,0 -0.351304,-0.0258 -0.698799,-0.0879 -1.045643,-0.149378 -2.289156,-0.40576 -4.582315,-0.788682 -6.871369,-1.195021 C 9.6564191,28.894988 8.0395615,28.598924 6.4232365,28.73029 5.8934224,28.773351 5.3670768,28.86225 4.8357125,28.876715 4.3043483,28.891179 3.7576858,28.826594 3.2863071,28.580913 3.1146243,28.491432 2.9557588,28.379455 2.7883817,28.282158 2.5764836,28.158981 2.3513392,28.059562 2.1410788,27.93361 1.9235886,27.803327 1.7223805,27.644886 1.4937759,27.53527 1.4603,27.519218 1.4262411,27.504217 1.3941909,27.48548 1.3064483,27.434184 1.235872,27.355337 1.1901734,27.264553 c -0.045698,-0.09078 -0.066932,-0.193104 -0.06607,-0.294737 0.00172,-0.203265 0.090482,-0.398383 0.2145238,-0.559422 0.2480844,-0.322078 0.6264284,-0.518165 0.9020366,-0.81703 0.3409136,-0.369681 0.505655,-0.875044 0.846473,-1.244813 0.3018655,-0.327508 0.7244498,-0.525798 1.1594666,-0.621425 0.4350168,-0.09563 0.8851981,-0.09549 1.33016,-0.07567 0.5825756,0.02595 1.163165,0.08486 1.7427386,0.149378 0.3337757,0.03715 0.6680605,0.0763 0.9958506,0.149377 0.6660526,0.14849 1.3093836,0.437269 1.9917013,0.448133 0.249154,0.004 0.49946,-0.02954 0.746888,0 0.07512,0.009 0.149586,0.02372 0.225065,0.02884 0.07548,0.0051 0.153197,1.64e-4 0.223068,-0.02884 0.0553,-0.02296 0.103843,-0.0603 0.144908,-0.103879 0.04106,-0.04358 0.075,-0.09337 0.106078,-0.144546 0.06216,-0.102357 0.114616,-0.212521 0.197146,-0.299293 0.05738,-0.06033 0.12739,-0.107183 0.199171,-0.149377 0.161316,-0.09482 0.334353,-0.168578 0.495018,-0.264499 0.160665,-0.09592 0.312086,-0.218292 0.401247,-0.382804 0.07666,-0.141436 0.102508,-0.305746 0.101254,-0.466615 -0.0013,-0.160868 -0.02825,-0.320254 -0.05146,-0.479443 -0.147915,-1.01427 -0.146512,-2.057729 -0.448133,-3.037345 -0.09268,-0.301016 -0.213263,-0.593128 -0.298755,-0.896265 -0.07431,-0.263492 -0.121755,-0.534085 -0.19917,-0.796681 C 12.010473,16.906433 11.777784,16.469373 11.551864,16.033198 10.604995,14.205114 9.7507186,12.328463 9.0124481,10.406639 8.5389435,9.1740383 8.1079882,7.8930094 8.1161826,6.5726141 c 0.00144,-0.2324433 0.01655,-0.4652375 0,-0.6970954 C 8.0995756,5.642863 8.0511371,5.4111716 8.06639,5.1784232 8.078536,4.9930837 8.1307387,4.8130695 8.1659751,4.6307054 8.1920077,4.4959754 8.2094074,4.3575718 8.2655602,4.2323651 8.32382,4.1024604 8.421068,3.9935846 8.5279488,3.8995318 8.6348297,3.805479 8.7523296,3.7243305 8.8630705,3.6348548 9.0185503,3.5092312 9.160265,3.36756 9.3112033,3.2365145 10.364595,2.3219538 11.802718,1.9789961 13.195021,1.8921162 c 0.480704,-0.029996 0.96263,-0.033197 1.443983,-0.049793 1.067479,-0.036805 2.157745,-0.1371062 3.186722,0.1493775 0.725059,0.201868 1.384687,0.5872841 2.091286,0.8464731 0.395462,0.1450603 0.805058,0.2503421 1.19634,0.4063271 0.391282,0.155985 0.770647,0.3689 1.044324,0.6891086 0.223994,0.2620774 0.367544,0.5855834 0.454624,0.9191621 0.08708,0.3335786 0.12013,0.678741 0.142887,1.0227466 0.01536,0.2321794 0.02614,0.4658813 0,0.6970954 -0.0326,0.2883708 -0.121846,0.5667562 -0.19917,0.846473 -0.345042,1.2481772 -0.457294,2.5466476 -0.597511,3.8340244 -0.175053,1.607215 -0.396734,3.213614 -0.79668,4.780083 -0.130017,0.509238 -0.279499,1.015741 -0.497926,1.493776 -0.237733,0.520287 -0.555954,1.004348 -0.746888,1.543569 -0.07536,0.212827 -0.130152,0.432335 -0.19917,0.647303 -0.117245,0.365181 -0.275958,0.718827 -0.348547,1.095436 -0.0761,0.394837 -0.05428,0.806617 0.04979,1.195021 0.157354,0.587285 0.498229,1.114046 0.916864,1.554964 0.418635,0.440918 0.914184,0.8016 1.423385,1.133832 0.451207,0.294393 0.916339,0.569126 1.344398,0.896266 0.952576,0.727998 1.697966,1.696983 2.639005,2.439834 0.305663,0.241289 0.633128,0.459818 0.896265,0.746888 0.155801,0.169972 0.286388,0.361209 0.432088,0.539915 0.145699,0.178707 0.310329,0.347792 0.51397,0.455935 0.117969,0.06265 0.249006,0.104985 0.350392,0.191946 0.05069,0.04348 0.09309,0.09839 0.113682,0.161923 0.0206,0.06353 0.01764,0.136118 -0.01594,0.193848 -0.02271,0.03905 -0.05831,0.0698 -0.09859,0.09024 -0.04028,0.02043 -0.08513,0.03091 -0.130152,0.03453 -0.09005,0.0072 -0.179765,-0.01229 -0.269183,-0.02518 -0.497738,-0.07171 -0.998599,0.06172 -1.493776,0.149377 -0.296231,0.05244 -0.595625,0.08872 -0.896266,0.09958 -0.248823,0.009 -0.497904,5.51e-4 -0.746888,0 -0.59771,-0.0013 -1.196351,0.04277 -1.792531,0 -0.232411,-0.01667 -0.46411,-0.04653 -0.697095,-0.04979 -0.199212,-0.0028 -0.398765,0.01389 -0.597511,0 -0.250662,-0.01751 -0.496137,-0.08339 -0.746888,-0.09958 -0.215385,-0.01391 -0.431659,0.009 -0.647303,0 -0.387407,-0.01622 -0.769885,-0.137919 -1.095435,-0.348548"
     id="path3"
     inkscape:path-effect="#path-effect3"
     inkscape:original-d="m 19.917012,30.522822 c -0.248962,0 -0.498785,0.02067 -0.746888,0 -0.35087,-0.02924 -0.697358,-0.09778 -1.045643,-0.149378 C 15.823665,30.032582 13.554803,29.510198 11.253112,29.178423 10.01849,29.00046 7.7461274,28.783921 6.4232365,28.73029 5.4270278,28.689904 4.2707457,28.870454 3.2863071,28.580913 3.0329445,28.506394 2.9874648,28.41488 2.7883817,28.282158 2.5271372,28.107995 2.4495558,28.096921 2.1410788,27.93361 1.2996723,27.488159 1.9854116,27.863027 1.4937759,27.53527 c -0.03088,-0.02059 -0.089389,-0.01411 -0.099585,-0.04979 -0.1600795,-0.560278 0.5782071,-1.472951 0.846473,-1.892116 0.201666,-0.315103 0.5678198,-0.979429 0.846473,-1.244813 0.671345,-0.639376 1.6263901,-0.654987 2.4896266,-0.697096 0.9245169,-0.0451 0.8094958,0.002 1.7427386,0.149378 0.3315563,0.05235 0.6667051,0.08355 0.9958506,0.149377 0.7510593,0.150212 1.2274351,0.360789 1.9917013,0.448133 0.247352,0.02827 0.497925,0 0.746888,0 0.149378,0 0.30258,0.03359 0.448133,0 0.260284,-0.06007 0.307149,-0.383237 0.448132,-0.547718 0.05401,-0.06301 0.130121,-0.103344 0.199171,-0.149377 0.321095,-0.214064 0.720737,-0.246095 0.896265,-0.647303 0.06812,-0.155706 0.04979,-0.802935 0.04979,-0.946058 0,-1.038208 -0.151405,-2.03926 -0.448133,-3.037345 -0.08974,-0.301858 -0.209897,-0.594146 -0.298755,-0.896265 -0.07724,-0.26261 -0.112608,-0.536995 -0.19917,-0.796681 -0.08819,-0.264577 -0.478742,-1.079452 -0.597511,-1.344398 C 10.708397,14.151607 9.6886519,12.360117 9.0124481,10.406639 8.5733669,9.138182 8.1161826,7.9241122 8.1161826,6.5726141 c 0,-0.2323651 0.015457,-0.4652449 0,-0.6970954 C 8.0916772,5.5079386 8.0383786,5.5145601 8.06639,5.1784232 8.0754909,5.0692133 8.1421568,4.7497967 8.1659751,4.6307054 8.1766843,4.5771592 8.219627,4.3089204 8.2655602,4.2323651 8.547313,3.762777 8.4485376,3.9716628 8.8630705,3.6348548 9.0181851,3.5088242 9.1513149,3.3564308 9.3112033,3.2365145 10.436503,2.3925397 11.807374,2.020602 13.195021,1.8921162 c 0.479562,-0.044404 0.962699,-0.031967 1.443983,-0.049793 1.054535,-0.039057 2.150841,-0.1305903 3.186722,0.1493775 0.518329,0.140089 1.65144,0.6509858 2.091286,0.8464731 0.508018,0.2257856 1.791214,0.7958021 2.240664,1.0954357 0.617366,0.4115771 0.597511,1.3061648 0.597511,1.9419087 0,0.2323651 0.02974,0.4666408 0,0.6970954 -0.03709,0.2874798 -0.147318,0.5612855 -0.19917,0.846473 -0.146787,0.8073281 -0.468203,2.8180314 -0.597511,3.8340244 -0.208628,1.639225 -0.325984,3.179715 -0.79668,4.780083 -0.148098,0.503532 -0.298887,1.008121 -0.497926,1.493776 -0.21676,0.528896 -0.520288,1.018813 -0.746888,1.543569 -0.08949,0.207253 -0.125006,0.434083 -0.19917,0.647303 -0.287337,0.826096 -0.142123,0.166526 -0.348547,1.095436 -0.08855,0.398467 -0.07391,0.803305 0.04979,1.195021 0.284165,0.899856 1.604305,2.177724 2.340249,2.688796 0.442381,0.307209 0.916825,0.568763 1.344398,0.896266 0.952258,0.729389 1.727672,1.665201 2.639005,2.439834 0.291124,0.247456 0.62537,0.475993 0.896265,0.746888 0.322972,0.322972 0.606738,0.684807 0.946058,0.99585 0.0087,0.008 0.559642,0.43621 0.448133,0.547717 -0.08153,0.08153 -0.383554,0.06691 -0.497925,0.09959 -0.495834,0.141666 -0.983419,0.123859 -1.493776,0.149377 -0.300219,0.01501 -0.596191,0.08193 -0.896266,0.09958 -0.248533,0.01462 -0.497925,0 -0.746888,0 -0.596032,0 -1.197049,0.02206 -1.792531,0 -0.232797,-0.0086 -0.46431,-0.04084 -0.697095,-0.04979 -0.199023,-0.0077 -0.398885,0.01471 -0.597511,0 -0.250479,-0.01855 -0.496753,-0.07685 -0.746888,-0.09958 -0.214881,-0.01954 -0.43882,0.0556 -0.647303,0 -0.461057,-0.122949 -0.589525,-0.348548 -1.095435,-0.348548"
     transform="translate(20.6639,-0.34854772)" />
  <path
     style="fill:none;stroke:#000000;stroke-width:1.179;stroke-dasharray:none;stroke-opacity:1"
     d="m 12.497925,5.7261411 c 0.812487,-0.2640705 1.645791,-0.4640634 2.489627,-0.5975104 0.329789,-0.052154 0.662006,-0.094222 0.99585,-0.099585 0.365277,-0.00587 0.731534,0.032208 1.095436,0 0.170689,-0.015107 0.340508,-0.045657 0.511857,-0.044135 0.17135,0.00152 0.348803,0.038428 0.483994,0.1437202 0.03713,0.028918 0.07052,0.062577 0.09959,0.099585 0.0888,0.1130357 0.135403,0.2552765 0.149377,0.3983402 0.02018,0.2065605 -0.02514,0.4164845 -0.111063,0.6054054 -0.08593,0.188921 -0.211308,0.3579097 -0.353039,0.509523 -0.283462,0.3032267 -0.631345,0.538797 -0.930088,0.8269803 -0.280222,0.2703165 -0.514294,0.5840237 -0.746888,0.8962656 -0.229333,0.3078641 -0.459367,0.6170799 -0.643375,0.9539999 -0.184008,0.33692 -0.321677,0.7048379 -0.352476,1.0874939 -0.01066,0.132468 -0.0085,0.265715 0,0.39834 0.06427,1.005466 0.48373,1.948015 0.846473,2.887967 0.174465,0.452079 0.338196,0.913362 0.39834,1.394191 0.06056,0.484111 0.01736,0.991239 0.19917,1.443983 0.05902,0.146975 0.142062,0.28992 0.149378,0.448133 0.0046,0.09977 -0.02151,0.20122 0,0.298755 0.01131,0.05129 0.03534,0.09888 0.04979,0.149378 0.03674,0.12845 0.0095,0.265075 0,0.39834 -0.01188,0.167193 0.005,0.336397 0.04979,0.497926"
     id="path4"
     inkscape:path-effect="#path-effect4"
     inkscape:original-d="m 12.497925,5.7261411 c 1.284258,-0.5288119 0.679951,-0.3584966 2.489627,-0.5975104 0.330734,-0.043682 0.662622,-0.083717 0.99585,-0.099585 0.364732,-0.017368 0.730424,-0.00987 1.095436,0 0.333484,0.00901 0.689219,-0.031829 0.995851,0.099585 0.04315,0.018492 0.06203,0.071418 0.09959,0.099585 0.180226,0.1351698 0.149377,0.1252812 0.149377,0.3983402 0,0.9953535 -0.777895,1.3027872 -1.39419,1.9419087 -0.269944,0.2799418 -0.505233,0.5915695 -0.746888,0.8962656 -0.401107,0.5057434 -0.91381,1.3851673 -0.995851,2.0414938 -0.01647,0.131755 0,0.26556 0,0.39834 0,1.299595 0.408894,1.721089 0.846473,2.887967 0.169707,0.452553 0.318882,0.91744 0.39834,1.394191 0.07905,0.474274 0.09479,0.974266 0.19917,1.443983 0.03416,0.153709 0.118498,0.293733 0.149378,0.448133 0.01953,0.09765 -0.011,0.199779 0,0.298755 0.0058,0.05216 0.04116,0.09761 0.04979,0.149378 0.02092,0.125522 -0.03085,0.274924 0,0.39834 0.042,0.168019 0.04979,0.318148 0.04979,0.497926"
     transform="translate(20.6639,-0.34854772)" />
  <path
     style="fill:none;stroke:#000000;stroke-width:1.179;stroke-dasharray:none;stroke-opacity:1"
     d="m 17.427386,21.560166 0.09959,1.344398"
     id="path5"
     inkscape:path-effect="#path-effect5"
     inkscape:original-d="m 17.427386,21.560166 c 0.124651,0.445638 0.09959,0.891417 0.09959,1.344398"
     transform="translate(20.6639,-0.34854772)" />
</svg>
