<?xml version="1.0" encoding="UTF-8" standalone="no"?>
<!-- Created with Inkscape (http://www.inkscape.org/) -->

<svg
   width="50"
   height="50"
   viewBox="0 0 13.229166 13.229167"
   version="1.1"
   id="svg1"
   xml:space="preserve"
   inkscape:version="1.3.2 (091e20e, 2023-11-25, custom)"
   sodipodi:docname="bekpuk.svg"
   xmlns:inkscape="http://www.inkscape.org/namespaces/inkscape"
   xmlns:sodipodi="http://sodipodi.sourceforge.net/DTD/sodipodi-0.dtd"
   xmlns="http://www.w3.org/2000/svg"
   xmlns:svg="http://www.w3.org/2000/svg"><sodipodi:namedview
     id="namedview1"
     pagecolor="#ffffff"
     bordercolor="#000000"
     borderopacity="0.25"
     inkscape:showpageshadow="2"
     inkscape:pageopacity="0.0"
     inkscape:pagecheckerboard="0"
     inkscape:deskcolor="#d1d1d1"
     inkscape:document-units="mm"
     inkscape:zoom="5.911246"
     inkscape:cx="21.991979"
     inkscape:cy="44.068543"
     inkscape:window-width="2560"
     inkscape:window-height="1369"
     inkscape:window-x="-8"
     inkscape:window-y="-8"
     inkscape:window-maximized="1"
     inkscape:current-layer="layer1" /><defs
     id="defs1"><inkscape:path-effect
       effect="spiro"
       id="path-effect19"
       is_visible="true"
       lpeversion="1" /><inkscape:path-effect
       effect="spiro"
       id="path-effect18"
       is_visible="true"
       lpeversion="1" /><inkscape:path-effect
       effect="spiro"
       id="path-effect17"
       is_visible="true"
       lpeversion="1" /><inkscape:path-effect
       effect="spiro"
       id="path-effect16"
       is_visible="true"
       lpeversion="1" /><inkscape:path-effect
       effect="spiro"
       id="path-effect15"
       is_visible="true"
       lpeversion="1" /><inkscape:path-effect
       effect="spiro"
       id="path-effect14"
       is_visible="true"
       lpeversion="1" /><inkscape:path-effect
       effect="spiro"
       id="path-effect13"
       is_visible="true"
       lpeversion="1" /><inkscape:path-effect
       effect="spiro"
       id="path-effect12"
       is_visible="true"
       lpeversion="1" /><inkscape:path-effect
       effect="spiro"
       id="path-effect11"
       is_visible="true"
       lpeversion="1" /><inkscape:path-effect
       effect="spiro"
       id="path-effect10"
       is_visible="true"
       lpeversion="1" /><inkscape:path-effect
       effect="spiro"
       id="path-effect9"
       is_visible="true"
       lpeversion="1" /><inkscape:path-effect
       effect="spiro"
       id="path-effect8"
       is_visible="true"
       lpeversion="1" /><inkscape:path-effect
       effect="spiro"
       id="path-effect5"
       is_visible="true"
       lpeversion="1" /><inkscape:path-effect
       effect="spiro"
       id="path-effect4"
       is_visible="true"
       lpeversion="1" /><inkscape:path-effect
       effect="spiro"
       id="path-effect3"
       is_visible="true"
       lpeversion="1" /><inkscape:path-effect
       effect="spiro"
       id="path-effect2"
       is_visible="true"
       lpeversion="1" /><inkscape:path-effect
       effect="spiro"
       id="path-effect1"
       is_visible="true"
       lpeversion="1" /></defs><g
     inkscape:label="Layer 1"
     inkscape:groupmode="layer"
     id="layer1"><path
       style="fill:#000000;fill-opacity:1;stroke:#000000;stroke-width:0.349999;stroke-dasharray:none;stroke-opacity:1"
       d="m 6.6243789,12.935442 c -0.088663,0.01515 -0.1798931,0.01515 -0.268556,0 -0.1494546,-0.02553 -0.2880093,-0.09284 -0.4245622,-0.158729 -0.136553,-0.06589 -0.2759484,-0.131925 -0.4258647,-0.154586 -0.1035345,-0.01565 -0.2090908,-0.01008 -0.3133154,0 -0.2094198,0.02025 -0.4168014,0.05849 -0.6262746,0.07818 -0.2094732,0.01969 -0.423587,0.02039 -0.6269862,-0.03342 -0.2119156,-0.05606 -0.4093883,-0.170378 -0.62768,-0.190375 -0.1091459,-0.01 -0.2231696,0.0054 -0.3177541,0.06082 -0.047292,0.02769 -0.089126,0.06515 -0.1199002,0.110497 -0.030774,0.04535 -0.050262,0.09864 -0.053649,0.15334 -0.00154,0.02485 1.756e-4,0.05003 -0.00465,0.07446 -0.00241,0.01221 -0.00649,0.0242 -0.013091,0.03476 -0.0066,0.01056 -0.015813,0.01965 -0.027021,0.02506 -0.013642,0.0066 -0.02939,0.0074 -0.044484,0.0061 -0.015094,-0.0013 -0.029949,-0.0047 -0.045035,-0.0061 -0.029913,-0.0028 -0.059925,0.0021 -0.089801,0.0053 -0.029877,0.0032 -0.060821,0.0044 -0.089236,-0.0053 -0.030414,-0.01044 -0.055398,-0.03274 -0.076064,-0.05737 -0.020666,-0.02464 -0.037835,-0.05203 -0.058214,-0.0769 -0.076835,-0.09379 -0.1967755,-0.14638 -0.3175947,-0.156521 -0.1208191,-0.01014 -0.2424085,0.01911 -0.3537951,0.067 -0.096663,0.04156 -0.186689,0.09685 -0.2798319,0.145788 -0.093143,0.04894 -0.1912121,0.09208 -0.2954457,0.106428 -0.1042336,0.01435 -0.21614804,-0.0028 -0.30086486,-0.06515 -0.0423584,-0.0312 -0.0770353,-0.07332 -0.0970782,-0.121957 -0.0200429,-0.04864 -0.0250297,-0.103789 -0.0114843,-0.154624 0.001993,-0.0075 0.004384,-0.01491 0.005073,-0.02262 6.8863e-4,-0.0077 -5.0067e-4,-0.01589 -0.005073,-0.02214 -0.002327,-0.0032 -0.005453,-0.0057 -0.008941,-0.0076 -0.003487,-0.0018 -0.00733,-0.0029 -0.0112348,-0.0035 -0.00781,-0.001 -0.0157509,3.26e-4 -0.0233486,0.0024 -0.007598,0.0021 -0.0149856,0.0049 -0.022611,0.0069 -0.007625,0.002 -0.0156224,0.0031 -0.0233836,0.0018 -0.0107389,-0.0019 -0.0202394,-0.0084 -0.0275855,-0.01642 -0.007346,-0.0081 -0.0127879,-0.01762 -0.0180543,-0.02716 -0.005266,-0.0095 -0.0104693,-0.01921 -0.0174345,-0.0276 -0.006965,-0.0084 -0.0159236,-0.01549 -0.0264442,-0.01834 -0.007233,-0.002 -0.0148605,-0.0018 -0.0223318,-0.0013 -0.007471,5.67e-4 -0.0149406,0.0016 -0.0224275,0.0013 -0.0160703,-6.4e-4 -0.0316779,-0.0074 -0.0438257,-0.01789 -0.0121478,-0.01054 -0.0208878,-0.02476 -0.0257219,-0.0401 -0.009668,-0.03068 -0.003707,-0.06456 0.009539,-0.09387 0.0132462,-0.02931 0.0332946,-0.05493 0.0529712,-0.08038 0.0196765,-0.02545 0.0393868,-0.0514 0.0517966,-0.08107 0.0232575,-0.05562 0.0187133,-0.118612 0.0103226,-0.178309 -0.008391,-0.0597 -0.0202391,-0.120303 -0.0103226,-0.179765 0.013255,-0.07948 0.0637054,-0.147465 0.0895186,-0.223797 0.0264707,-0.07828 0.0262545,-0.163017 0.0192995,-0.245355 -0.006955,-0.08234 -0.0203672,-0.164373 -0.0192995,-0.246997 0.001555,-0.120371 0.0337558,-0.238198 0.0447593,-0.358075 0.016986,-0.185053 -0.0172338,-0.372697 -0.0834634,-0.546325 -0.0662296,-0.173628 -0.16377755,-0.3339785 -0.27461112,-0.4831395 -0.032132,-0.043244 -0.0656395,-0.085984 -0.0895186,-0.1342779 -0.0547486,-0.1107246 -0.0531324,-0.2465652 0,-0.3580744 0.0287712,-0.060382 0.071784,-0.114545 0.0895186,-0.1790374 0.013548,-0.049268 0.0113786,-0.1014953 0.005091,-0.1522035 -0.006288,-0.050708 -0.0165894,-0.1010061 -0.0190223,-0.1520447 -0.002433,-0.051039 0.003523,-0.1038617 0.0278218,-0.1488109 0.0121494,-0.022475 0.0288331,-0.042661 0.0495024,-0.057678 0.0206693,-0.015017 0.0453904,-0.024727 0.0708855,-0.026375 0.0148939,-9.623e-4 0.029855,7.862e-4 0.0447593,0 0.0403593,-0.00213 0.0784641,-0.023315 0.10517019,-0.05365 0.0267061,-0.030335 0.0426015,-0.06917 0.0495888,-0.1089771 0.0139748,-0.079614 -0.00616,-0.1606552 -0.0204811,-0.2402072 -0.0794609,-0.4413855 0.0198799,-0.8947393 0,-1.3427795 -0.00663,-0.1494243 -0.0264524,-0.3003796 0,-0.4475932 C 0.65757189,6.138863 0.74951267,5.9844085 0.8056677,5.818711 0.87364601,5.6181263 0.88830689,5.4037595 0.89518632,5.1920806 0.90593815,4.8612487 0.89834966,4.5251421 0.8056677,4.2073758 0.72223364,3.9213166 0.57075543,3.6530216 0.53711181,3.3569486 0.51247428,3.1401317 0.55278763,2.9220147 0.57903247,2.7053864 0.60527732,2.4887582 0.61633409,2.262252 0.53711181,2.0589286 0.51993218,2.0148372 0.4984513,1.971576 0.49235251,1.9246506 c -0.007709,-0.059313 0.009827,-0.1200385 0,-0.1790373 -0.005521,-0.033145 -0.0195071,-0.064341 -0.0361388,-0.093538 -0.0166317,-0.029197 -0.0359883,-0.056749 -0.0533798,-0.0855 -0.0455597,-0.075317 -0.0777368,-0.1603055 -0.0816303,-0.2482444 -0.003893,-0.087939 0.0224661,-0.1789314 0.0816303,-0.2441081 0.0311133,-0.034275 0.0702388,-0.0607 0.1002424,-0.0959509 0.0150018,-0.0176253 0.0276879,-0.0375753 0.0345626,-0.0596761 0.006875,-0.0221007 0.007636,-0.0465116 -5.2706e-4,-0.0681697 -0.002886,-0.007657 -0.006873,-0.015018 -0.008108,-0.0231075 -6.1733e-4,-0.004045 -5.1228e-4,-0.008252 7.7309e-4,-0.0121365 0.001285,-0.003884 0.003817,-0.007426 0.007335,-0.009515 0.003295,-0.001956 0.007257,-0.00255 0.0110829,-0.002341 0.003826,2.0896e-4 0.007566,0.001172 0.0112713,0.002147 0.003706,9.7462e-4 0.007434,0.00197 0.0112553,0.002246 0.003822,2.7568e-4 0.007789,-2.1157e-4 0.0111498,-0.002052 0.003636,-0.001991 0.006338,-0.005479 0.007771,-0.009369 0.001433,-0.00389 0.001659,-0.008158 0.001089,-0.0122642 -0.001142,-0.008213 -0.005307,-0.0156339 -0.008859,-0.0231259 -0.0157528,-0.0332192 -0.0202852,-0.0714485 -0.0139209,-0.10765851 0.006364,-0.03621 0.02344,-0.0703065 0.0477213,-0.0979124 0.0242813,-0.0276059 0.0556248,-0.0487553 0.0898843,-0.0620952 0.0342596,-0.0133399 0.07137,-0.0189503 0.10810938,-0.0175757 0.0734787,0.002749 0.14416812,0.0332821 0.20284886,0.0775907 0.058681,0.0443086 0.1061883,0.10188021 0.1472281,0.16289178 0.018032,0.0268075 0.03501,0.0544921 0.056233,0.0788522 0.021222,0.0243601 0.047285,0.0455466 0.078045,0.0554258 0.021479,0.006898 0.044426,0.008037 0.066954,0.006831 0.022528,-0.001206 0.044866,-0.004692 0.067324,-0.006831 0.1053985,-0.0100372 0.2112459,0.009706 0.3144917,0.0331562 0.1032457,0.0234502 0.2064085,0.0508213 0.3121388,0.0563624 0.1278724,0.006702 0.2550086,-0.0187364 0.3804947,-0.0442222 0.125486,-0.0254858 0.2525054,-0.0512788 0.3804135,-0.0452964 0.074841,0.0035 0.1510089,0.0177588 0.2237967,0 0.042826,-0.0104486 0.08241,-0.031651 0.1184668,-0.0570118 0.036056,-0.0253607 0.068917,-0.0549252 0.1020984,-0.0839459 0.033182,-0.0290207 0.066937,-0.0576891 0.1043744,-0.0809619 0.037438,-0.0232728 0.07892,-0.0411098 0.1226537,-0.0466363 0.059306,-0.007494 0.1197748,0.007833 0.1790372,0 0.056648,-0.007488 0.1082469,-0.0355426 0.1577758,-0.0640378 0.049529,-0.0284951 0.099639,-0.0583986 0.1555393,-0.0702402 0.043915,-0.009303 0.08939,-0.006986 0.1341416,-0.003469 0.044752,0.003517 0.089774,0.00819 0.1344144,0.003469 0.094125,-0.009956 0.1784802,-0.0604507 0.2685558,-0.0895186 0.150064,-0.0484266 0.3123247,-0.0363578 0.4689165,-0.0178281 0.1565918,0.0185297 0.315366,0.0429933 0.4710293,0.0178281 0.1242835,-0.0200922 0.2419132,-0.0712288 0.3661697,-0.0914872 0.062128,-0.0101292 0.1262225,-0.0123589 0.1877192,0.001083 0.061497,0.0134421 0.1204163,0.0433762 0.1622601,0.090404 0.01417,0.0159255 0.026251,0.0335969 0.040104,0.0497994 0.013853,0.0162024 0.02988,0.0311861 0.049415,0.0397192 0.020778,0.009077 0.044193,0.0102661 0.066796,0.008471 0.022603,-0.001795 0.044901,-0.006421 0.067482,-0.008471 0.054821,-0.004976 0.1101617,0.005393 0.1623355,0.0229441 0.052174,0.0175513 0.1016401,0.0421667 0.1509798,0.0665745 0.2038985,0.10086639 0.4097558,0.19989694 0.6266304,0.26855589 0.3608392,0.11423579 0.7423541,0.14154512 1.1189827,0.17903727 0.2983173,0.0296965 0.6027331,0.0659247 0.8951865,0 0.1803428,-0.0406528 0.3528252,-0.1196278 0.5371118,-0.13427795 0.089272,-0.007097 0.1790096,0.001169 0.2685556,0 0.200408,-0.002616 0.398723,-0.0528715 0.581871,-0.13427797 0.116969,-0.0519907 0.231174,-0.11751518 0.358075,-0.13427795 0.08925,-0.0117888 0.179618,0.001363 0.269135,0.0108818 0.08952,0.009518 0.181805,0.0151624 0.267976,-0.0108818 0.04999,-0.0151093 0.09617,-0.0403928 0.14272,-0.0640781 0.04655,-0.0236853 0.09458,-0.0461711 0.146053,-0.0549807 0.02574,-0.004405 0.0522,-0.005302 0.07797,-0.001128 0.02578,0.004174 0.05087,0.0135136 0.07227,0.0284759 0.0214,0.0149623 0.039,0.0356608 0.04896,0.0597985 0.01,0.0241377 0.01203,0.0517063 0.0044,0.0766722 -0.0023,0.007584 -0.0055,0.0149732 -0.0065,0.0228418 -5.01e-4,0.003934 -4.33e-4,0.007975 5.77e-4,0.0118107 0.001,0.003835 0.003,0.007461 0.006,0.0101068 0.0029,0.002587 0.0066,0.004152 0.01042,0.004834 0.0038,6.8207e-4 0.0077,5.1731e-4 0.01158,-5.562e-5 0.0077,-0.001146 0.01505,-0.003901 0.02276,-0.004778 0.0083,-9.4161e-4 0.01673,3.3141e-4 0.02452,0.00324 0.0078,0.002908 0.01495,0.007422 0.02124,0.0128682 0.01258,0.0108915 0.02162,0.0252816 0.02941,0.0399918 0.0078,0.0147102 0.01454,0.0300081 0.02356,0.043999 0.009,0.0139909 0.02061,0.0268401 0.03555,0.0341793 0.01113,0.005467 0.0236,0.007635 0.03596,0.008553 0.01236,9.1832e-4 0.02479,6.5076e-4 0.03716,0.001561 0.01237,9.1009e-4 0.02484,0.003061 0.03598,0.008506 0.01114,0.005445 0.02089,0.0145059 0.02518,0.0261396 0.0026,0.007121 0.0031,0.0148824 0.0025,0.0224485 -5.91e-4,0.007566 -0.0022,0.015005 -0.0038,0.0224381 -0.0015,0.007433 -0.003,0.0149306 -0.0031,0.0225177 -1.71e-4,0.007587 9.75e-4,0.0153274 0.0044,0.0221143 0.0038,0.007653 0.01035,0.0137295 0.01771,0.0181002 0.0074,0.004371 0.01555,0.007146 0.02381,0.009392 0.01651,0.004493 0.03413,0.007245 0.048,0.0172667 0.0098,0.007076 0.01697,0.0173599 0.02173,0.0284677 0.0048,0.011108 0.0072,0.023061 0.0089,0.035027 0.0034,0.023932 0.0039,0.048893 0.01411,0.070784 0.009,0.019257 0.02483,0.034434 0.04129,0.0479 0.01645,0.013466 0.03401,0.025817 0.04823,0.041619 0.01807,0.020074 0.03009,0.045106 0.03713,0.07118 0.007,0.026074 0.0093,0.05324 0.0094,0.080249 2.31e-4,0.054018 -0.0079,0.108215 -0.0018,0.1618858 0.0035,0.030293 0.0114,0.059953 0.0145,0.090284 0.0031,0.030331 9.02e-4,0.062442 -0.0145,0.088753 -0.01379,0.023558 -0.03687,0.040258 -0.06094,0.053136 -0.02407,0.012879 -0.04975,0.022645 -0.07334,0.036383 -0.04263,0.024823 -0.07726,0.062156 -0.102503,0.1045326 -0.02525,0.042376 -0.04141,0.089714 -0.05159,0.1379789 -0.02036,0.096531 -0.01717,0.1962533 -0.02494,0.2946002 -0.01832,0.2316954 -0.09727,0.4538295 -0.179038,0.6713898 -0.07309,0.1944839 -0.149332,0.3889572 -0.191983,0.5922983 -0.04265,0.2033411 -0.05037,0.4183185 0.01295,0.6162033 0.04326,0.1352136 0.119099,0.2616821 0.134278,0.4028337 0.0072,0.066942 3.4e-4,0.1344828 -0.0049,0.2016076 -0.0052,0.067125 -0.0088,0.1352981 0.0049,0.2012263 0.01634,0.078868 0.05635,0.1503993 0.08952,0.2237965 0.107021,0.2368336 0.144651,0.501224 0.134278,0.7609086 -0.0054,0.1344842 -0.02317,0.270252 0,0.4028337 0.02937,0.1680175 0.123239,0.3221457 0.134278,0.4923525 0.0029,0.044678 -3.1e-5,0.089506 0,0.1342779 5.6e-5,0.082513 0.01067,0.1666113 0.04614,0.241113 0.01773,0.037251 0.04163,0.071757 0.07169,0.1000221 0.03005,0.028265 0.06636,0.050177 0.105972,0.061699 0.01648,0.00479 0.03351,0.00781 0.04953,0.013946 0.01603,0.00614 0.03142,0.015943 0.03999,0.030813 0.0057,0.00987 0.008,0.021412 0.0082,0.032805 1.99e-4,0.011393 -0.0016,0.022721 -0.0038,0.033901 -0.0022,0.01118 -0.0048,0.022309 -0.0061,0.033631 -0.0013,0.011322 -0.0013,0.022933 0.0017,0.033941 0.0056,0.020783 0.02097,0.037549 0.03782,0.050932 0.01685,0.013383 0.03562,0.024296 0.0517,0.038587 0.02629,0.023363 0.04438,0.055074 0.05467,0.088706 0.0103,0.033631 0.01311,0.069195 0.01201,0.1043504 -0.0022,0.07031 -0.01974,0.1394676 -0.02193,0.209778 -0.0031,0.098803 0.02448,0.1967365 0.06673,0.286102 0.04225,0.089365 0.09891,0.1710786 0.157067,0.2510098 0.04185,0.057524 0.08476,0.1145719 0.119566,0.1766171 0.0348,0.062045 0.06149,0.129775 0.06813,0.2006044 0.0066,0.070829 -0.0081,0.145137 -0.04968,0.2028631 -0.02079,0.028863 -0.04805,0.053216 -0.07968,0.069494 -0.03163,0.016278 -0.06763,0.024333 -0.103106,0.021811 -0.01497,-0.00106 -0.03028,-0.00394 -0.04476,0 -0.01004,0.00273 -0.0191,0.0087 -0.02601,0.01648 -0.0069,0.00778 -0.01174,0.017313 -0.01449,0.027352 -0.0055,0.020079 -0.0027,0.041618 0.0033,0.061534 0.0061,0.019916 0.01531,0.038687 0.02309,0.057996 0.0078,0.019309 0.01418,0.039616 0.01409,0.060434 -8.6e-5,0.019226 -0.0058,0.038181 -0.01473,0.055193 -0.009,0.017012 -0.02111,0.032179 -0.0345,0.045976 -0.02678,0.027594 -0.05859,0.049965 -0.08505,0.077868 -0.06408,0.067581 -0.09194,0.163449 -0.09297,0.2565771 -0.001,0.093128 0.02237,0.1847267 0.04925,0.2738967 0.02688,0.08917 0.05754,0.177717 0.07172,0.269765 0.01418,0.09205 0.0109,0.189367 -0.028,0.273985 -0.02446,0.05319 -0.06197,0.09932 -0.1021,0.141949 -0.04013,0.04263 -0.0833,0.08241 -0.121697,0.126607 -0.06651,0.07657 -0.118868,0.168307 -0.134278,0.268556 -0.01853,0.120552 0.01699,0.241833 0.0392,0.36176 0.01111,0.05996 0.01895,0.121001 0.015,0.181857 -0.004,0.06086 -0.02026,0.121868 -0.0542,0.172532 -0.0094,0.01408 -0.02017,0.02729 -0.02889,0.04182 -0.0087,0.01453 -0.01548,0.03076 -0.01587,0.0477 -2.78e-4,0.01202 0.0026,0.02389 0.0063,0.03533 0.0037,0.01144 0.0082,0.02264 0.01119,0.03428 0.003,0.01164 0.0045,0.02392 0.0021,0.03569 -0.0012,0.0059 -0.0034,0.0116 -0.0067,0.01663 -0.0033,0.005 -0.0077,0.0094 -0.01291,0.01235 -0.0053,0.003 -0.01127,0.0046 -0.01731,0.0049 -0.006,3.92e-4 -0.01212,-3.63e-4 -0.018,-0.0018 -0.01177,-0.0029 -0.0227,-0.0083 -0.03389,-0.01294 -0.01119,-0.0046 -0.02308,-0.0085 -0.03516,-0.0078 -0.006,3.44e-4 -0.01207,0.0019 -0.01736,0.0048 -0.0053,0.0029 -0.0098,0.0073 -0.01254,0.01276 -0.0034,0.0068 -0.0038,0.01469 -0.0031,0.02223 7.15e-4,0.0075 0.0025,0.01497 0.0031,0.02253 0.0018,0.02225 -0.0066,0.04471 -0.02088,0.06189 -0.01426,0.01718 -0.034,0.0293 -0.0551,0.03658 -0.04221,0.01455 -0.08825,0.01025 -0.132752,0.0067 -0.04451,-0.0035 -0.0911,-0.0058 -0.131917,0.01233 -0.02041,0.0091 -0.03884,0.0233 -0.05079,0.04216 -0.01194,0.01886 -0.01694,0.0425 -0.01139,0.06412 0.002,0.0077 0.0052,0.01503 0.0063,0.02287 5.53e-4,0.0039 5.59e-4,0.008 -4.02e-4,0.01179 -9.6e-4,0.0038 -0.0029,0.0075 -0.0059,0.01009 -0.0029,0.0025 -0.0067,0.004 -0.01047,0.0046 -0.0038,5.74e-4 -0.0077,2.94e-4 -0.01154,-3.46e-4 -0.0076,-0.0013 -0.01503,-0.004 -0.02275,-0.0042 -0.01099,-3.52e-4 -0.0217,0.0044 -0.03015,0.01146 -0.0085,0.007 -0.01487,0.01619 -0.02047,0.02565 -0.0056,0.0095 -0.01048,0.01935 -0.01646,0.02857 -0.006,0.0092 -0.01319,0.01789 -0.02243,0.02383 -0.0096,0.0062 -0.02102,0.0091 -0.03242,0.0099 -0.0114,7.37e-4 -0.02283,-6.6e-4 -0.03407,-0.0027 -0.02249,-0.004 -0.04518,-0.01044 -0.06779,-0.0072 -0.01663,0.0024 -0.0321,0.0099 -0.04652,0.01849 -0.01442,0.0086 -0.02811,0.01848 -0.043,0.02627 -0.03342,0.01747 -0.0717,0.02387 -0.109405,0.02456 -0.03771,6.91e-4 -0.07529,-0.004 -0.112692,-0.0088 -0.0748,-0.0097 -0.150068,-0.01573 -0.225497,-0.01573 H 10.160367 9.1756624 c -0.089757,0 -0.1794677,0.0035 -0.2690429,0.0092 -0.089575,0.0057 -0.1807928,0.01173 -0.2680689,-0.0092 -0.0459,-0.01102 -0.089601,-0.02952 -0.1342779,-0.04476 -0.220362,-0.07518 -0.4596983,-0.06986 -0.6914779,-0.04773 -0.2317797,0.02213 -0.4635641,0.06024 -0.6960611,0.04773 -0.037834,-0.002 -0.076832,-0.0053 -0.1126999,0.0069 -0.017934,0.0061 -0.034774,0.01618 -0.047156,0.03051 -0.012382,0.01434 -0.020023,0.03314 -0.019181,0.05206 3.359e-4,0.0076 0.00198,0.01499 0.00271,0.02252 7.346e-4,0.0075 4.984e-4,0.0154 -0.00271,0.02224 -0.00354,0.0075 -0.010505,0.01318 -0.018327,0.01605 -0.00782,0.0029 -0.016432,0.0031 -0.024651,0.0018 -0.016439,-0.0027 -0.031131,-0.01148 -0.046541,-0.01782 -0.046682,-0.01919 -0.1023195,-0.01499 -0.1455982,0.01097 -0.043279,0.02597 -0.073161,0.07309 -0.078198,0.123306 z"
       id="path18"
       inkscape:path-effect="#path-effect19"
       inkscape:original-d="m 6.6243789,12.935442 c -0.089519,0 -0.1804813,0.01601 -0.268556,0 -0.287559,-0.05228 -0.5675927,-0.242606 -0.8504269,-0.313315 -0.095356,-0.02384 -0.2153886,0 -0.3133154,0 -0.4237201,0 -0.8316264,0.04476 -1.2532608,0.04476 -0.35378,0 -0.8124333,-0.07009 -1.118983,0.134278 -0.039257,0.02617 -0.018587,0.09502 -0.044759,0.134278 -0.016552,0.02483 -0.059679,0 -0.089519,0 -0.059679,0 -0.1241835,0.02351 -0.1790372,0 -0.058181,-0.02493 -0.077661,-0.105969 -0.1342779,-0.134278 -0.068469,-0.03423 -0.5455591,-0.08952 -0.6713898,-0.08952 -0.017705,0 -0.96431452,-0.06913 -0.98470495,-0.08952 -0.01055,-0.01055 0.01055,-0.03421 0,-0.04476 -0.0210997,-0.0211 -0.0628293,0.01334 -0.0895186,0 -0.0377444,-0.01887 -0.0517743,-0.07065 -0.0895186,-0.08952 -0.0133445,-0.0067 -0.038087,0.01335 -0.0447593,0 -0.0161655,-0.03233 0.0447593,-0.25797 0.0447593,-0.313315 0,-0.08617 -0.0231828,-0.265343 0,-0.358074 0.0730539,-0.292216 0.0240345,0.169108 0.0895186,-0.223797 0.0263448,-0.15807 -0.0176408,-0.333585 0,-0.492352 0.018928,-0.170354 0.0838614,-0.182116 0.0447593,-0.358075 -0.045988,-0.206946 -0.25981104,-0.8001829 -0.35807454,-1.0294645 -0.0211905,-0.049444 -0.06954,-0.084331 -0.0895186,-0.1342779 -0.0174269,-0.043567 -0.002181,-0.3493521 0,-0.3580744 0.0161828,-0.064731 0.0684189,-0.115738 0.0895186,-0.1790374 0.0529133,-0.15874 0.0374755,-0.391908 0.13427795,-0.5371116 0.008276,-0.012414 0.0364833,0.012414 0.0447593,0 0.0526365,-0.078955 0.12377507,-0.3083081 0.13427795,-0.4028339 0.0481759,-0.4335833 0,-0.9061993 0,-1.3427795 0,-0.1491977 -0.0292601,-0.3012929 0,-0.4475932 C 0.66087846,6.1398234 0.76640014,5.9888704 0.8056677,5.818711 0.85311246,5.6131171 0.87766394,5.4023492 0.89518632,5.1920806 0.92314672,4.8565561 0.89215864,4.5317169 0.8056677,4.2073758 0.72982671,3.922972 0.58537263,3.6465136 0.53711181,3.3569486 c -0.0701633,-0.4209793 0.0701632,-0.8770405 0,-1.29802 -0.007756,-0.046539 -0.038087,-0.087572 -0.0447593,-0.134278 -0.00844,-0.059079 0.0144743,-0.1211401 0,-0.1790373 -0.0161827,-0.064731 -0.0647383,-0.1170863 -0.0895186,-0.1790372 -0.0397494,-0.099374 -0.0167008,-0.4088481 0,-0.4923525 0.0175284,-0.0876424 0.0981247,-0.15149 0.13427798,-0.22379658 0.006672,-0.0133445 -0.01055,-0.0342095 0,-0.0447593 0.01055,-0.01055 0.0342094,0.0105497 0.0447593,0 0.01055,-0.01055 -0.01055,-0.0342095 0,-0.0447593 0.0673769,-0.0673769 0.49150271,-0.062833 0.58187111,-0.0447593 0.2131396,0.0426279 -0.019182,0.031971 0.134278,0.13427797 0.044759,0.0298395 0.089519,-0.0149199 0.1342779,0 0.3125151,0.10417167 0.2243377,0.10867541 0.6266305,0.0895186 1.8614553,-0.0886407 0.1603608,0.0305909 0.7609082,-0.0895186 0.064626,-0.0129252 0.1613638,0.0208108 0.2237967,0 0.1473809,-0.049127 0.2956881,-0.21159152 0.4475933,-0.26855592 0.055879,-0.0209547 0.1216543,0.0163952 0.1790372,0 0.5283776,-0.15096503 -0.3100488,-0.0452259 0.3133151,-0.13427794 0.088619,-0.0126598 0.1802553,0.0147166 0.268556,0 0.093077,-0.0155128 0.1751433,-0.076174 0.2685558,-0.0895186 0.2954501,-0.0422072 0.6427509,0 0.9399458,0 0.1045196,0 0.5741132,-0.0568143 0.716149,0 0.039181,0.0156726 0.050337,0.0738461 0.089519,0.0895186 0.041558,0.0166232 0.090128,-0.007358 0.1342779,0 0.1001321,0.0166886 0.2168498,0.0654023 0.3133153,0.0895186 0.2029135,0.0507284 0.4479787,0.20475172 0.6266304,0.26855589 0.2666913,0.0952469 0.8787001,0.15615316 1.1189827,0.17903727 0.2589663,0.0246634 0.6299555,0.0378901 0.8951865,0 0.1796632,-0.0256662 0.3595886,-0.11208756 0.5371118,-0.13427795 0.088827,-0.0111035 0.1817096,0.0217114 0.2685556,0 0.190092,-0.0475231 0.394528,-0.0831845 0.581871,-0.13427797 0.07871,-0.0214672 0.258494,-0.11436175 0.358075,-0.13427795 0.16548,-0.0330961 0.368554,0 0.537111,0 0.128229,0 0.394409,-0.0531842 0.492353,0.0447593 0.01055,0.0105497 -0.01055,0.0342094 0,0.0447593 0.01055,0.01055 0.03141,-0.006672 0.04476,0 0.05662,0.0283083 0.08,0.10171075 0.134278,0.13427795 0.04046,0.0242742 0.100916,0.0113977 0.134278,0.0447593 0.0211,0.0210997 -0.01655,0.0646906 0,0.0895186 0.01851,0.0277585 0.06593,0.0211691 0.08952,0.0447593 0.174683,0.17468373 -0.01036,0.0240379 0.04476,0.13427793 0.01887,0.037744 0.05968,0.059679 0.08952,0.089519 0.0748,0.074802 0.04476,0.2115581 0.04476,0.3133152 0,0.059679 0.03581,0.131294 0,0.1790373 -0.03228,0.043035 -0.103011,0.045745 -0.134278,0.089519 -0.08327,0.1165804 -0.179037,0.3879781 -0.179037,0.5371117 0,0.2417081 -0.09324,0.4426038 -0.179038,0.6713898 -0.141272,0.3767268 -0.229576,0.8041934 -0.179037,1.2085016 0.01926,0.1541063 0.104788,0.2553838 0.134278,0.4028337 0.02565,0.1282414 -0.03166,0.2762112 0,0.4028339 0.01949,0.077947 0.06643,0.1468395 0.08952,0.2237965 0.07224,0.2408153 0.09888,0.51313 0.134278,0.7609086 0.01881,0.1316487 -0.0165,0.2708407 0,0.4028337 0.02232,0.1785384 0.100014,0.3210345 0.134278,0.4923525 0.0088,0.04389 -0.02002,0.094244 0,0.1342779 0.07123,0.1424577 0.09777,0.2768087 0.223796,0.4028339 0.02359,0.02359 0.06593,0.021169 0.08952,0.044759 0.03165,0.031649 -0.02002,0.094244 0,0.1342779 0.01887,0.037744 0.06781,0.053333 0.08952,0.089519 0.08018,0.1336278 0.02163,0.2640388 0.04476,0.402834 0.03289,0.1973281 0.139336,0.3681917 0.223796,0.5371118 0.04422,0.088445 -0.01931,0.5950423 -0.04476,0.6713897 -0.0047,0.014155 -0.03809,-0.013346 -0.04476,0 -0.0299,0.059792 0.02136,0.1597078 0,0.2237965 -0.0191,0.057296 -0.124771,0.1315011 -0.134278,0.1790372 -0.0643,0.3214928 0.0786,0.7598248 0,1.0742238 -0.02029,0.08116 -0.181828,0.198607 -0.223797,0.268556 -0.04129,0.06881 -0.09728,0.19455 -0.134278,0.268556 -0.06683,0.133658 0.04091,0.552497 0,0.716149 -0.0081,0.03237 -0.03667,0.05715 -0.04476,0.08952 -0.01086,0.04342 0.03165,0.102628 0,0.134278 -0.03165,0.03165 -0.09424,-0.02002 -0.134278,0 -0.01335,0.0067 0.01055,0.03421 0,0.04476 -0.108457,0.108457 -0.280042,0.141936 -0.402834,0.223797 -0.01241,0.0083 0.01055,0.03421 0,0.04476 -0.01055,0.01055 -0.03141,-0.0067 -0.04476,0 -0.03775,0.01887 -0.04858,0.07928 -0.08952,0.08952 -0.04342,0.01086 -0.09039,-0.0088 -0.134278,0 -0.03271,0.0065 -0.05715,0.03667 -0.08952,0.04476 -0.129406,0.03235 -0.318533,0 -0.447594,0 -0.358074,0 -0.716149,0 -1.074223,0 -0.3282347,0 -0.6564696,0 -0.9847046,0 -0.1640697,0 -0.373194,0.02341 -0.5371118,0 -0.046706,-0.0067 -0.087572,-0.03809 -0.1342779,-0.04476 -0.1055746,-0.01508 -1.2654962,-0.04068 -1.387539,0 -0.012748,0.0043 -0.1763474,0.08683 -0.1790372,0.08952 -0.010549,0.01055 0.010549,0.03421 0,0.04476 -0.0211,0.0211 -0.062829,-0.01334 -0.089519,0 -0.077812,0.03891 -0.1491977,0.08952 -0.2237965,0.134278 z"
       transform="translate(0,0.04475932)" /><path
       style="display:inline;fill:#f72435;fill-opacity:1;stroke:#f72435;stroke-width:0.349999;stroke-dasharray:none;stroke-opacity:1"
       d="m 6.9824533,7.5643244 c -0.074284,0.0084 -0.1495129,0.0084 -0.2237965,0 C 6.6376145,7.5506437 6.5203436,7.5149616 6.4025866,7.4837896 6.2848296,7.4526176 6.1642415,7.4256522 6.0425078,7.4300465 5.9446152,7.4335802 5.8487552,7.457293 5.7522104,7.4738623 5.6556656,7.4904317 5.5553681,7.4997339 5.4606367,7.4748058 5.3510556,7.4459701 5.2584337,7.3740822 5.1550324,7.327739 5.1033317,7.3045674 5.0479176,7.2876337 4.9912661,7.2869384 c -0.056652,-6.953e-4 -0.1148228,0.016053 -0.1572599,0.053589 -0.036195,0.032015 -0.058579,0.076323 -0.082849,0.1181091 -0.012135,0.020893 -0.024994,0.041484 -0.040587,0.05994 -0.015593,0.018456 -0.034063,0.034798 -0.055601,0.045747 -0.032885,0.016716 -0.071527,0.019988 -0.1079177,0.013936 -0.03639,-0.00605 -0.070798,-0.020949 -0.1029913,-0.038963 C 4.3796737,7.5032698 4.3218974,7.4540626 4.2521351,7.4300465 4.2027264,7.4130372 4.1496415,7.4095878 4.0974002,7.4107644 c -0.052241,0.00118 -0.1043224,0.00682 -0.1565738,0.00739 -0.052252,5.679e-4 -0.1053499,-0.00414 -0.1541342,-0.022864 -0.048784,-0.018725 -0.093173,-0.052729 -0.1164282,-0.099523 -0.020283,-0.040813 -0.023265,-0.088783 -0.014459,-0.1334994 0.00881,-0.044716 0.028754,-0.086558 0.05243,-0.1255 0.047353,-0.077884 0.1107999,-0.1473749 0.1410657,-0.2333531 0.020443,-0.058074 0.02461,-0.1208609 0.044759,-0.1790372 0.02186,-0.063116 0.061628,-0.118345 0.089519,-0.1790374 0.045422,-0.098842 0.05814,-0.2091598 0.089518,-0.3133151 C 4.1117302,6.0037948 4.1784345,5.8857732 4.2521351,5.7739517 4.3000775,5.7012115 4.3515307,5.6299853 4.386413,5.5501553 4.42881,5.4531274 4.4452377,5.346398 4.4480303,5.2405485 4.4508229,5.134699 4.4404046,5.0290078 4.431172,4.9235248 4.4207363,4.8042957 4.4118511,4.6835653 4.431172,4.5654502 4.4683014,4.3384658 4.6104698,4.1358715 4.7967336,4.0009408 4.9829975,3.8660101 5.2102651,3.7949734 5.4390608,3.771456 c 0.4575912,-0.047035 0.911364,0.087356 1.364355,0.1673638 0.1823046,0.032199 0.3690896,0.056559 0.5371118,0.1342778 0.090901,0.042046 0.1747798,0.099109 0.2685558,0.1342782 0.099432,0.03729 0.2071939,0.048708 0.3133154,0.044759 0.1001028,-0.00372 0.1991678,-0.020768 0.298735,-0.03176 0.099567,-0.010992 0.2011397,-0.015844 0.2992063,0.00459 0.098067,0.02043 0.1931904,0.068379 0.254763,0.1473934 0.030786,0.039507 0.052625,0.086292 0.060837,0.1357005 0.00821,0.049408 0.0025,0.101378 -0.018356,0.1469135 -0.00695,0.015167 -0.015635,0.029943 -0.018132,0.046438 -0.00125,0.00825 -8.578e-4,0.016858 0.00208,0.024666 0.00293,0.00781 0.00856,0.014751 0.016055,0.018415 0.00681,0.00333 0.014687,0.00381 0.022241,0.00316 0.00755,-6.475e-4 0.01498,-0.00235 0.022518,-0.00316 0.01747,-0.00188 0.035355,0.00116 0.051509,0.00807 0.016154,0.00691 0.030583,0.017632 0.042381,0.030652 0.023596,0.02604 0.036259,0.060659 0.040388,0.095556 0.00622,0.052528 -0.00571,0.1052446 -0.013187,0.1576077 -0.00374,0.026182 -0.00638,0.052641 -0.00508,0.079056 0.0013,0.026415 0.00666,0.052888 0.018267,0.076652 0.011858,0.024275 0.029786,0.04495 0.046885,0.065867 0.017099,0.020917 0.033836,0.042867 0.042634,0.068411 0.012249,0.035566 0.00796,0.074471 0.00265,0.1117093 -0.00531,0.037239 -0.011473,0.075521 -0.00265,0.1120875 0.00638,0.026425 0.020318,0.050482 0.036665,0.072201 0.016347,0.021719 0.03518,0.041423 0.052854,0.062076 0.1257557,0.1469517 0.1902614,0.344023 0.1790372,0.5371119 -0.00394,0.067738 -0.016732,0.1346763 -0.02213,0.2023135 -0.0054,0.067637 -0.00304,0.1375071 0.02213,0.2005204 0.018705,0.046839 0.049145,0.087845 0.07647,0.1302363 0.027325,0.042392 0.052296,0.088186 0.057808,0.1383195 0.00327,0.029782 -4.77e-4,0.059821 -0.00317,0.089662 -0.00269,0.02984 -0.00428,0.060354 0.00317,0.089375 0.00937,0.036507 0.032368,0.068013 0.057707,0.095914 0.025339,0.027901 0.053549,0.05328 0.076571,0.083123 0.033167,0.042995 0.054425,0.093714 0.079247,0.1420098 0.024822,0.048296 0.054847,0.096072 0.09979,0.126546 0.00896,0.00608 0.018465,0.011424 0.026767,0.018379 0.0083,0.00695 0.015489,0.015843 0.017992,0.02638 0.00164,0.0069 0.00117,0.014253 -0.00105,0.020991 -0.00222,0.00674 -0.00617,0.012864 -0.011175,0.017893 -0.010011,0.010058 -0.023978,0.015519 -0.038063,0.017246 -0.028171,0.00346 -0.055955,-0.00693 -0.083988,-0.011371 -0.053331,-0.00844 -0.1100764,0.00579 -0.1524577,0.039247 -0.042381,0.033457 -0.069509,0.085826 -0.071339,0.1397904 -5.056e-4,0.014914 8.243e-4,0.029859 0,0.044759 -0.00208,0.037543 -0.018159,0.073821 -0.043061,0.1019937 -0.024902,0.028172 -0.058301,0.048351 -0.09426,0.059339 C 9.2797357,8.016189 9.2004991,8.0013305 9.1327657,7.9686595 9.0650324,7.9359885 9.0068737,7.8867409 8.9504592,7.8370156 8.8940447,7.7872903 8.8379923,7.7361331 8.772826,7.6986023 8.6802339,7.6452763 8.573094,7.6218648 8.4666069,7.6130644 c -0.1064871,-0.0088 -0.2135615,-0.00372 -0.3204113,-0.00398 -0.089532,-2.149e-4 -0.1791214,-0.00418 -0.2685558,0 -0.04647,0.00217 -0.09308,0.00654 -0.1394146,0.00237 -0.046334,-0.00416 -0.093192,-0.017603 -0.1291415,-0.04713 -0.016316,-0.013401 -0.02994,-0.029719 -0.044759,-0.044759 C 7.4866311,7.4407134 7.3733671,7.3983371 7.2629955,7.4068271 7.1526238,7.4153171 7.0471733,7.4745174 6.9824533,7.5643244 Z"
       id="path14"
       inkscape:path-effect="#path-effect15"
       inkscape:original-d="m 6.9824533,7.5643244 c -0.074599,0 -0.1497087,0.00872 -0.2237965,0 C 5.8805164,7.4610139 6.4926479,7.5200745 6.0425078,7.4300465 5.7948652,7.3805181 5.882052,7.5897374 5.4606367,7.4748058 5.2972337,7.4302415 5.0216971,7.277964 4.8340062,7.3405279 4.7778738,7.3592393 4.6647779,7.5545155 4.6549688,7.5643244 4.6013864,7.6179068 4.3749639,7.4651403 4.2521351,7.4300465 4.0562371,7.3740758 3.7893206,7.533882 3.670264,7.2957686 3.5195973,6.9944355 3.7410284,7.0199617 3.8493012,6.8034161 3.876812,6.7483947 3.8724601,6.6819779 3.8940605,6.6243789 3.9174893,6.5619039 3.960151,6.5078165 3.9835791,6.4453415 4.2382315,5.7662682 3.8566812,6.6730681 4.0730976,6.1320264 4.1088365,6.0426792 4.2050356,5.852451 4.2521351,5.7739517 4.3579409,5.5976088 4.3473991,5.7842417 4.386413,5.5501553 4.421393,5.3402774 4.431172,5.1406827 4.431172,4.9235248 c 0,-0.039651 -0.029954,-0.3131441 0,-0.3580746 0.3858442,-0.5787663 1.7783804,-0.6860167 2.3722438,-0.6266304 0.1673172,0.016732 0.3825407,0.06558 0.5371118,0.1342778 0.091459,0.040649 0.1728968,0.1048446 0.2685558,0.1342782 0.1008335,0.031026 0.2109666,0.019172 0.3133154,0.044759 0.2759403,0.068985 0.6958613,0.163644 0.8951862,0.4028337 0.019103,0.022924 -0.013346,0.06283 0,0.089519 0.00667,0.013346 0.032345,-0.00828 0.044759,0 0.052668,0.035112 0.1059696,0.077661 0.1342779,0.1342779 0.041775,0.083551 -0.041775,0.2297645 0,0.3133151 0.1024231,0.204846 -0.018553,-0.1899325 0.089519,0.1342779 0.022228,0.066685 -0.026069,0.1586238 0,0.2237968 0.019979,0.049946 0.067671,0.08512 0.089519,0.1342778 0.076647,0.1724563 0.1452777,0.3514342 0.1790372,0.5371119 0.014404,0.07922 -0.026878,0.3087608 0,0.4028339 0.089519,0.3133151 0.067139,0.067139 0.1342779,0.2685558 0.015211,0.045634 -0.026165,0.1397921 0,0.1790372 0.1343372,0.2015059 0.086082,-0.013745 0.1342779,0.1790374 0.019214,0.076859 0.1564608,0.2403351 0.1790375,0.2685558 0.013181,0.016476 0.059679,0.029839 0.044759,0.044759 -0.033362,0.033362 -0.093821,0.020484 -0.1342782,0.044759 -0.081919,0.049151 -0.1562444,0.1114851 -0.2237965,0.1790372 -0.010549,0.010549 0.010549,0.03421 0,0.044759 C 9.4159807,7.9058745 8.8684229,7.7145353 8.772826,7.6986023 8.5632649,7.6636755 8.3524018,7.6503249 8.1461956,7.6090837 c -0.073141,-0.014629 -0.2030931,0.032731 -0.2685558,0 -0.1049192,-0.052459 -0.1445017,-0.013745 -0.2685561,-0.044759 -0.020471,-0.00512 -0.025887,-0.035323 -0.044759,-0.044759 -0.1195721,-0.059786 -0.483717,0.025127 -0.5818714,0.044759 z"
       transform="translate(-0.04475932,0.17903727)" /><path
       style="fill:#f72435;fill-opacity:1;stroke:#f72435;stroke-width:0.349999;stroke-dasharray:none;stroke-opacity:1"
       d="m 5.102562,3.1331521 c 0.1384543,0.023568 0.2828673,0.011213 0.4153064,-0.03553 0.1324391,-0.046743 0.252614,-0.1277725 0.3456019,-0.233026 0.014003,-0.01585 0.027589,-0.032412 0.044759,-0.04476 0.031426,-0.022601 0.072189,-0.028889 0.1107687,-0.025716 0.038579,0.00317 0.075835,0.014987 0.1130281,0.025716 0.03684,0.010627 0.074275,0.020307 0.1125571,0.022444 0.038282,0.00214 0.0778,-0.00368 0.1112394,-0.022444 0.042057,-0.023594 0.070702,-0.065057 0.095463,-0.1064372 0.024761,-0.04138 0.047841,-0.084978 0.083574,-0.1173593 0.025944,-0.02351 0.057651,-0.040104 0.090881,-0.051129 0.03323,-0.011025 0.068039,-0.016646 0.1028962,-0.019925 0.069715,-0.00656 0.1405521,-0.00396 0.2090563,-0.018465 0.078922,-0.016711 0.1511835,-0.055331 0.222753,-0.092557 0.07157,-0.037226 0.1451398,-0.073997 0.2248402,-0.08648 0.037971,-0.00595 0.076599,-0.00624 0.114787,-0.010583 0.038188,-0.00434 0.076848,-0.013132 0.1090095,-0.034176 0.03146,-0.020586 0.054657,-0.051538 0.074456,-0.083499 0.019799,-0.031961 0.036963,-0.065689 0.059822,-0.095538 0.033799,-0.044132 0.0798,-0.078816 0.1315189,-0.099193 0.051719,-0.020377 0.1090084,-0.026391 0.1638356,-0.017225 0.054827,0.00917 0.1070387,0.033486 0.1493498,0.069539 0.042311,0.036053 0.074606,0.083737 0.092408,0.1363974 0.015158,0.04484 0.020305,0.093751 0.044759,0.1342779 0.013879,0.023001 0.033393,0.042153 0.054515,0.058751 0.021123,0.016598 0.043969,0.030844 0.066237,0.045869 0.022269,0.015025 0.044133,0.030975 0.062646,0.050441 0.018513,0.019466 0.033649,0.042734 0.040399,0.068736 0.00754,0.029046 0.00431,0.059674 7.656e-4,0.089473 -0.00354,0.029799 -0.00731,0.060277 -7.656e-4,0.089564 0.0048,0.021489 0.015011,0.041466 0.027398,0.059669 0.012388,0.018202 0.026966,0.03479 0.041387,0.051428 0.014421,0.016638 0.028777,0.033445 0.04065,0.051988 0.011873,0.018543 0.021256,0.038988 0.024843,0.060712 0.00366,0.022165 0.0012,0.044823 -9.511e-4,0.067185 -0.00215,0.022362 -0.00396,0.045171 9.511e-4,0.067093 0.00732,0.032696 0.028716,0.060103 0.044759,0.089519 0.027262,0.049988 0.039504,0.1084344 0.032231,0.1649063 -0.00727,0.056472 -0.034444,0.1105698 -0.07699,0.1484091 -0.040968,0.036436 -0.094579,0.05688 -0.1490069,0.063488 -0.054428,0.00661 -0.1097875,3.58e-5 -0.1631229,-0.012667 C 8.2645061,3.5166433 8.1643861,3.4670269 8.0566764,3.446467 7.9097738,3.4184258 7.7586373,3.4459837 7.6090831,3.446467 7.4000829,3.4471425 7.1944473,3.3947454 6.9958248,3.329702 6.7972023,3.2646587 6.6026429,3.1865656 6.4005822,3.1331521 c -0.4229979,-0.1118169 -0.8750223,-0.1118169 -1.2980202,0 z"
       id="path15"
       inkscape:path-effect="#path-effect16"
       inkscape:original-d="M 5.102562,3.1331521 C 5.2171139,2.7338485 5.563014,2.9397102 5.8634703,2.8645964 c 0.020471,-0.00512 0.024744,-0.038087 0.044759,-0.04476 0.054335,-0.018111 0.1630802,0 0.2237968,0 0.043141,0 0.1873959,0.024268 0.2237965,0 0.1328806,-0.088587 0.059324,-0.1040834 0.1790372,-0.2237965 0.065873,-0.065873 0.3097942,-0.070911 0.4028339,-0.089519 0.1057884,-0.021158 0.4191283,-0.169549 0.4475932,-0.1790373 0.072172,-0.024058 0.1538714,-0.014791 0.2237965,-0.044759 0.1408544,-0.060366 0.048712,-0.093471 0.1342779,-0.1790373 0.051207,-0.051206 0.4783582,0.030765 0.5371118,0.089519 0.033362,0.033362 0.020484,0.093821 0.044759,0.1342779 0.040513,0.067522 0.208452,0.147073 0.2237968,0.2237966 0.011705,0.05852 -0.016396,0.1216544 0,0.1790372 0.0239,0.083649 0.106767,0.1412645 0.1342779,0.2237967 0.014155,0.042463 -0.010856,0.090855 0,0.1342779 0.00809,0.032366 0.038216,0.056805 0.044759,0.089519 0.00822,0.041076 0.036164,0.2930845 -0.044759,0.3133154 -0.1926439,0.048161 -0.440958,-0.02155 -0.6266304,-0.04476 -0.1491978,-0.01865 -0.2983955,0.027975 -0.4475933,0 C 7.2040193,3.3705178 6.8088753,3.2012009 6.4005822,3.1331521 c -0.3222173,-0.053703 -0.9780178,0 -1.2980202,0 z" /><path
       style="fill:#f72435;fill-opacity:1;stroke:#f72435;stroke-width:0.349999;stroke-dasharray:none;stroke-opacity:1"
       d="M 3.9388198,8.6385481 C 3.9129065,8.7440554 3.8830391,8.8485915 3.8493012,8.9518632 3.7871559,9.14209 3.7109033,9.333656 3.7150233,9.5337343 c 3.073e-4,0.014923 0.00107,0.029871 0,0.044759 -0.00379,0.053011 -0.030559,0.1020557 -0.064296,0.1431209 -0.033737,0.041065 -0.074553,0.075622 -0.1125152,0.1128164 -0.037962,0.037194 -0.073833,0.078163 -0.094286,0.1272161 -0.010227,0.024527 -0.016418,0.050896 -0.016526,0.077469 -1.084e-4,0.02657 0.006,0.05335 0.019068,0.07649 0.020873,0.03697 0.057263,0.06192 0.089519,0.08952 0.085995,0.07359 0.146952,0.171397 0.2187847,0.258867 0.035916,0.04373 0.075,0.08531 0.1203909,0.119109 0.045392,0.0338 0.09746,0.0597 0.1531766,0.06962 0.073588,0.0131 0.1490784,-0.002 0.2237968,0 0.098093,0.0026 0.1933613,0.03484 0.2815824,0.0778 0.088221,0.04297 0.1706647,0.09673 0.2555294,0.145992 0.102559,0.05954 0.2104955,0.113191 0.3267783,0.136459 0.1162827,0.02327 0.2426801,0.01367 0.3446115,-0.04694 0.046275,-0.02751 0.086489,-0.06473 0.1342779,-0.08952 0.081377,-0.04222 0.17688,-0.04478 0.2685557,-0.04476 0.3432634,8.5e-5 0.6870141,0.02361 1.0294644,0 0.2621963,-0.01808 0.5217527,-0.06368 0.7834827,-0.08758 0.26173,-0.0239 0.5293249,-0.02555 0.7830932,0.04282 0.1060734,0.02858 0.2096045,0.06933 0.3186839,0.08238 0.05454,0.0065 0.1103386,0.0059 0.1638041,-0.0067 0.053466,-0.01259 0.104597,-0.03759 0.1441425,-0.07571 0.030464,-0.02937 0.054119,-0.06634 0.089519,-0.08952 0.031708,-0.02076 0.070385,-0.02866 0.1082757,-0.02952 0.037891,-8.63e-4 0.075606,0.0047 0.1130542,0.01058 0.074897,0.01168 0.1504615,0.01894 0.2262631,0.01894 h 0.4028338 c 0.02985,0 0.05979,0.0027 0.08952,0 0.0502,-0.0045 0.09769,-0.0301 0.131182,-0.06777 0.03349,-0.03767 0.05315,-0.08683 0.05761,-0.137039 0.0045,-0.05021 -0.0059,-0.101283 -0.02711,-0.147017 -0.02119,-0.04573 -0.05295,-0.08621 -0.09051,-0.119831 -0.0751,-0.06724 -0.171391,-0.106296 -0.2687036,-0.132608 C 9.8207723,10.0669 9.7206524,10.05208 9.6232552,10.026085 9.4314468,9.9748925 9.2455975,9.8748078 9.1309006,9.7127715 9.0644192,9.6188509 9.0245958,9.5082826 8.9998199,9.3959127 8.975044,9.2835427 8.9646407,9.1685925 8.9522158,9.0541964 8.939791,8.9398003 8.9251653,8.8250072 8.8923162,8.7147267 8.8594672,8.6044462 8.8074191,8.4980823 8.7280667,8.4147513 8.6323334,8.3142181 8.5006088,8.2520035 8.3641217,8.226645 8.2276346,8.2012866 8.0863733,8.2110791 7.9505194,8.2396357 7.6788115,8.2967489 7.4280801,8.4267005 7.1614905,8.5042702 6.755292,8.622462 6.3164427,8.6153046 5.9082296,8.5042702 5.8488419,8.4881167 5.7898745,8.469782 5.7291924,8.4595102 5.5072661,8.4219444 5.2826613,8.4942156 5.0578027,8.5042702 4.9155928,8.5106291 4.7736343,8.492008 4.6316988,8.4811263 c -0.1419354,-0.010882 -0.2868406,-0.01377 -0.424323,0.023144 -0.097317,0.02613 -0.1892616,0.072102 -0.268556,0.1342779 z"
       id="path16"
       inkscape:path-effect="#path-effect17"
       inkscape:original-d="M 3.9388198,8.6385481 C 3.9089803,8.7429865 3.877288,8.846913 3.8493012,8.9518632 3.8028419,9.1260855 3.7458761,9.348617 3.7150233,9.5337343 c -0.00246,0.014716 0.010549,0.03421 0,0.044759 -0.2172827,0.2172827 -0.3344453,0.075887 -0.2685561,0.5371117 0.00597,0.04178 0.070647,0.05177 0.089519,0.08952 0.1219049,0.24381 0.2195671,0.393036 0.4923522,0.447593 0.3567375,0.07135 -0.2302324,-0.09081 0.2237968,0 0.1819394,0.03639 0.3520705,0.186789 0.5371118,0.223797 0.2213925,0.04428 0.4473559,0.06151 0.6713898,0.08952 0.082725,0.01034 0.069777,-0.06802 0.1342779,-0.08952 0.086096,-0.0287 0.1783574,-0.03474 0.2685557,-0.04476 0.3353599,-0.03726 0.6937963,0.01598 1.0294644,0 1.7193464,-0.08187 -1.9426999,-0.04476 1.5665759,-0.04476 0.2088769,0 0.4205957,0.03434 0.6266305,0 0.1457166,-0.02429 -0.056198,-0.06523 0.089519,-0.08952 0.1471676,-0.02453 0.2983953,0 0.447593,0 0.1342782,0 0.268556,0 0.4028338,0 0.02984,0 0.08952,0.02984 0.08952,0 0,-0.01257 -0.414005,-0.610454 -0.4923518,-0.67139 C 9.4697004,9.9066568 9.2785987,9.8393701 9.1309006,9.7127715 8.7206644,9.3611408 8.9705205,8.5763874 8.7280667,8.4147513 8.2348106,8.0859142 7.6775632,8.452663 7.1614905,8.5042702 c -0.3561916,0.035619 -0.8952608,0.029833 -1.2532609,0 -0.061303,-0.00511 -0.1178975,-0.037966 -0.1790372,-0.04476 -0.2371656,-0.026352 -0.4432506,0.04476 -0.6713897,0.04476 -0.1414872,0 -0.7409722,-0.041046 -0.8504269,0 -0.093713,0.035142 -0.1790375,0.089519 -0.268556,0.1342779 z" /><path
       style="display:inline;fill:#000000;fill-opacity:1;stroke:#000000;stroke-width:0.349999;stroke-dasharray:none;stroke-opacity:1"
       d="M 6.5348601,5.0578027 C 6.5453732,4.991064 6.5270846,4.9202831 6.4855575,4.8669906 6.4440304,4.8136982 6.3798657,4.7786654 6.3125815,4.7725487 6.2452973,4.766432 6.175867,4.7893199 6.1254107,4.8342502 c -0.050456,0.04493 -0.081209,0.1112531 -0.082903,0.1787935 -7.49e-4,0.029862 0.0039,0.059902 0,0.089519 -0.00575,0.043739 -0.029759,0.083135 -0.0583,0.1167745 -0.028542,0.033639 -0.061954,0.062828 -0.091345,0.095728 -0.029391,0.0329 -0.055246,0.070746 -0.064328,0.113917 -0.00454,0.021585 -0.00471,0.044245 9.363e-4,0.065569 0.00564,0.021323 0.017258,0.041242 0.033999,0.055605 0.018098,0.015526 0.041212,0.023978 0.064388,0.02959 0.023175,0.00561 0.046939,0.0087 0.069891,0.015169 0.058246,0.016411 0.1080952,0.0535 0.1565334,0.089771 0.048438,0.036271 0.098435,0.073219 0.1567817,0.089266 0.029873,0.00822 0.060977,0.010653 0.091585,0.015456 0.030608,0.0048 0.061552,0.0123 0.087452,0.029303 0.028613,0.018783 0.049109,0.048043 0.062819,0.079404 0.01371,0.031361 0.021187,0.065028 0.028412,0.098484 0.00723,0.033456 0.014344,0.067167 0.027407,0.098803 0.013062,0.031636 0.032584,0.061439 0.0604,0.081383 0.025267,0.018117 0.055954,0.027162 0.086596,0.032426 0.030642,0.00527 0.0618,0.00706 0.092441,0.012333 0.069991,0.012047 0.1354552,0.041864 0.2004996,0.070378 0.065044,0.028514 0.1317208,0.056312 0.2023343,0.063899 0.029718,0.00319 0.059756,0.00274 0.089519,0 C 7.4646485,6.3443831 7.5845227,6.2920076 7.6778297,6.2093609 7.7711367,6.1267141 7.837503,6.0143128 7.865663,5.8928891 7.893823,5.7714655 7.8837784,5.6416 7.8381032,5.5256239 7.792428,5.4096478 7.7114276,5.3079909 7.6090841,5.2368397 7.5552052,5.199382 7.4956715,5.1702014 7.4441086,5.1296146 c -0.025781,-0.020293 -0.049538,-0.043495 -0.068079,-0.070564 -0.01854,-0.027069 -0.03175,-0.058172 -0.035502,-0.090767 -0.00342,-0.029668 0.001,-0.059672 0,-0.089519 -0.00225,-0.067281 -0.032981,-0.1324845 -0.080834,-0.1798331 -0.047854,-0.047349 -0.111986,-0.077067 -0.1785921,-0.08684 -0.066606,-0.00977 -0.1354519,-9.4e-5 -0.1983137,0.023995 -0.062862,0.024089 -0.1198535,0.062279 -0.1688906,0.1084006 -0.088921,0.083635 -0.1521272,0.1942459 -0.1790374,0.3133151 z"
       id="path17"
       inkscape:path-effect="#path-effect18"
       inkscape:original-d="m 6.5348601,5.0578027 c -0.071625,-0.00763 -0.4219787,-0.1151329 -0.4923523,-0.044759 -0.021101,0.021101 0.011083,0.061813 0,0.089519 -0.019471,0.04868 -0.2710397,0.3862583 -0.1790375,0.4475933 0.039256,0.02617 0.092078,0.023659 0.1342782,0.044759 0.1075878,0.053794 0.205727,0.1252431 0.3133151,0.1790371 0.055021,0.027511 0.1355391,0.00127 0.1790372,0.044759 0.082469,0.082469 -0.073963,0.2062745 0.1790374,0.3580747 0.081409,0.048845 0.1153337,0.012906 0.1790372,0.044759 0.1632961,0.081648 0.2095463,0.1342779 0.4028339,0.1342779 0.02984,0 0.065647,0.017904 0.089519,0 0.1167488,-0.087562 0.3277376,-1.0006195 0.2685558,-1.118983 -0.051492,-0.102984 -0.232592,-0.160664 -0.2685558,-0.2685558 -0.00943,-0.028308 0.021101,-0.068419 0,-0.089519 C 7.2636392,4.8018768 6.8130501,4.6783857 6.7138975,4.7444876 6.6699992,4.7737529 6.5401472,5.0472286 6.5348601,5.0578027 Z"
       transform="matrix(0.92653984,0,0,0.91366677,0.32440747,0.56289761)" /></g></svg>
