<?xml version="1.0" encoding="UTF-8" standalone="no"?>
<svg
   width="39px"
   height="39px"
   viewBox="0 0 39 39"
   version="1.1"
   id="svg1"
   sodipodi:docname="bitcoincore.svg"
   inkscape:version="1.3.2 (091e20e, 2023-11-25, custom)"
   xmlns:inkscape="http://www.inkscape.org/namespaces/inkscape"
   xmlns:sodipodi="http://sodipodi.sourceforge.net/DTD/sodipodi-0.dtd"
   xmlns="http://www.w3.org/2000/svg"
   xmlns:svg="http://www.w3.org/2000/svg">
  <sodipodi:namedview
     id="namedview1"
     pagecolor="#ffffff"
     bordercolor="#000000"
     borderopacity="0.25"
     inkscape:showpageshadow="2"
     inkscape:pageopacity="0.0"
     inkscape:pagecheckerboard="0"
     inkscape:deskcolor="#d1d1d1"
     inkscape:zoom="30.076923"
     inkscape:cx="19.483376"
     inkscape:cy="19.5"
     inkscape:window-width="2560"
     inkscape:window-height="1369"
     inkscape:window-x="-8"
     inkscape:window-y="-8"
     inkscape:window-maximized="1"
     inkscape:current-layer="svg1" />
  <!-- Generator: Sketch 49 (51002) - http://www.bohemiancoding.com/sketch -->
  <title
     id="title1">2011-2012/ICON</title>
  <desc
     id="desc1">Created with Sketch.</desc>
  <defs
     id="defs1">
    <inkscape:path-effect
       effect="spiro"
       id="path-effect4"
       is_visible="true"
       lpeversion="1" />
    <inkscape:path-effect
       effect="spiro"
       id="path-effect3"
       is_visible="true"
       lpeversion="1" />
    <inkscape:path-effect
       effect="spiro"
       id="path-effect2"
       is_visible="true"
       lpeversion="1" />
    <inkscape:path-effect
       effect="spiro"
       id="path-effect1"
       is_visible="true"
       lpeversion="1" />
  </defs>
  <path
     style="fill:none;stroke:#f7931a;stroke-width:1.179;stroke-opacity:1"
     d="m 18.71867,37.470588 c -0.563292,-0.07314 -1.128881,-0.128586 -1.695652,-0.16624 -0.189515,-0.01259 -0.380251,-0.02335 -0.565217,-0.0665 -0.146846,-0.03426 -0.288146,-0.08851 -0.432226,-0.132993 -0.249456,-0.07701 -0.506966,-0.124646 -0.764705,-0.16624 C 14.552825,36.82435 13.827199,36.751565 13.16624,36.473146 12.951487,36.382685 12.746155,36.27146 12.534527,36.173913 12.3904,36.107479 12.243259,36.047345 12.102302,35.974425 11.613086,35.721343 11.213802,35.322886 10.73913,35.043478 10.434911,34.864404 10.103604,34.736511 9.7903619,34.573734 9.4771199,34.410956 9.1744056,34.205688 8.9769821,33.913043 8.8854001,33.777289 8.8190335,33.6265 8.7442455,33.480818 8.6173828,33.233698 8.4654322,32.999806 8.3452685,32.749361 8.2766177,32.606279 8.2185333,32.458176 8.1457801,32.317136 7.9975744,32.029822 7.7905168,31.775647 7.6470588,31.485934 7.5059827,31.201031 7.4274619,30.883962 7.2480818,30.621483 7.1591643,30.491374 7.0478181,30.378391 6.9488491,30.255754 6.8444349,30.12637 6.7538564,29.986301 6.6496164,29.856777 6.3980176,29.54415 6.073227,29.300278 5.7556448,29.054964 5.4380627,28.809651 5.1197121,28.554882 4.887468,28.227621 4.5587462,27.76441 4.428082,27.194453 4.2225064,26.664962 4.0189688,26.14072 3.7368273,25.645378 3.5907928,25.102302 3.3652669,24.263612 3.4795829,23.377358 3.4910488,22.508951 c 0.012004,-0.909157 -0.090779,-1.81743 -0.066496,-2.726342 0.018371,-0.68764 0.1094277,-1.374837 0.066496,-2.061381 -0.012531,-0.20039 -0.036457,-0.399945 -0.066496,-0.598466 -0.1820475,-1.203094 -0.5889598,-2.374755 -0.6317135,-3.590793 -0.0074,-0.210467 -0.0038,-0.42115 0,-0.631713 0.011631,-0.644857 0.025346,-1.292474 0.1329923,-1.928389 0.026494,-0.156512 0.058664,-0.312142 0.099744,-0.465473 C 3.1865011,9.9057446 3.4811219,9.350276 3.7902813,8.8107417 3.8396323,8.7246161 3.8896864,8.6381648 3.9232737,8.544757 3.981574,8.3826212 3.98849,8.2044446 4.056266,8.0460358 4.0855184,7.9776659 4.1255609,7.9143927 4.15601,7.8465473 4.1947953,7.7601275 4.2175906,7.667259 4.255754,7.5805627 4.3561092,7.3525845 4.5564717,7.1822106 4.7731768,7.0593934 4.989882,6.9365761 5.2266451,6.8540077 5.4526854,6.7493606 5.691143,6.6389648 5.9173776,6.5041258 6.1508951,6.3836317 6.6269902,6.1379685 7.1318738,5.9526652 7.6138107,5.7186701 7.8367478,5.6104273 8.0545991,5.4918483 8.2787724,5.3861893 8.5974117,5.2360059 8.9282474,5.1121973 9.2429668,4.9539642 9.7173675,4.7154473 10.152115,4.400241 10.639386,4.1892583 c 0.337126,-0.1459719 0.694157,-0.2397322 1.040069,-0.3634532 0.345912,-0.123721 0.687704,-0.2820284 0.954816,-0.534245 0.243094,-0.2295377 0.411846,-0.5245636 0.608028,-0.7952928 0.09809,-0.1353646 0.204185,-0.2659248 0.328515,-0.3776722 0.124331,-0.1117474 0.267798,-0.2045617 0.426628,-0.2567025 0.276298,-0.090703 0.577352,-0.053467 0.864451,-0.099744 0.156704,-0.025259 0.308632,-0.075353 0.465473,-0.099744 0.263303,-0.040946 0.531619,-0.00842 0.797954,0 0.33261,0.01051 0.665073,-0.01678 0.997442,-0.033248 0.996382,-0.049367 1.995229,-0.00148 2.992328,-0.033248 0.465635,-0.014834 0.932923,-0.046984 1.396419,0 0.439387,0.04454 0.868072,0.1594752 1.296675,0.2659847 0.595027,0.1478668 1.193883,0.2802195 1.795397,0.398977 1.151039,0.2272509 2.317806,0.4051793 3.491048,0.3989769 0.248822,-0.00132 0.498163,-0.010898 0.746111,0.00998 0.247948,0.020877 0.496679,0.073498 0.716805,0.1895095 0.210367,0.1108685 0.386791,0.2750297 0.565217,0.4322251 0.313056,0.2758068 0.639852,0.5355131 0.964195,0.797954 0.300064,0.2427957 0.598146,0.4880303 0.897698,0.7314578 0.354623,0.2881806 0.71131,0.5738317 1.063938,0.8644501 0.230836,0.1902435 0.460764,0.3834118 0.661289,0.6053746 0.200526,0.2219628 0.371917,0.4749108 0.469146,0.7577968 0.102262,0.2975291 0.119286,0.6166324 0.132992,0.9309462 0.01645,0.3771574 0.02944,0.7547424 0.0665,1.1304348 0.100077,1.0145269 0.377641,2.0128349 0.831202,2.9258319 0.178678,0.359671 0.384054,0.705512 0.565217,1.063938 0.165518,0.327474 0.310519,0.66484 0.465473,0.997443 0.161904,0.347522 0.335818,0.692872 0.432225,1.063938 0.08205,0.315799 0.106128,0.643497 0.166241,0.964195 0.02924,0.15597 0.06698,0.310204 0.09974,0.465473 0.08616,0.408395 0.137753,0.823746 0.232736,1.230179 0.148766,0.63657 0.403267,1.248425 0.498722,1.895141 0.05864,0.3973 0.05634,0.802708 0.132992,1.19693 0.0908,0.466985 0.292199,0.921413 0.265985,1.39642 -0.0206,0.373209 -0.180452,0.722477 -0.332481,1.063939 -0.205314,0.461144 -0.409011,0.9385 -0.764706,1.296675 -0.133075,0.134002 -0.284505,0.248067 -0.432225,0.365729 -0.172133,0.137108 -0.340004,0.279788 -0.498721,0.432225 -0.352745,0.338787 -0.658552,0.724224 -0.930947,1.130434 -0.282164,0.420777 -0.529614,0.865243 -0.731457,1.329924 -0.06726,0.154836 -0.129444,0.311878 -0.199489,0.465473 -0.348853,0.764969 -0.884493,1.428334 -1.296675,2.161125 -0.172598,0.306851 -0.323397,0.625645 -0.498721,0.930947 -0.438665,0.763874 -1.023463,1.431315 -1.56266,2.127877 -0.271745,0.351054 -0.5333,0.711349 -0.836544,1.035582 -0.303244,0.324233 -0.652379,0.613979 -1.058597,0.793062 -0.609931,0.268891 -1.29796,0.270428 -1.961637,0.332481 -0.266923,0.02496 -0.532772,0.06038 -0.797954,0.09974 -0.553568,0.08217 -1.105107,0.181654 -1.662404,0.232737 -0.607817,0.05571 -1.220631,0.05353 -1.828644,0 -0.166219,-0.01463 -0.335148,-0.03297 -0.498721,0 -0.153918,0.03102 -0.294953,0.105886 -0.433077,0.18055 -0.138124,0.07466 -0.278142,0.150931 -0.431374,0.185179 -0.119938,0.02681 -0.24579,0.02681 -0.365728,0 -0.16487,0.07805 -0.350024,0.112766 -0.53197,0.09974 -0.0555,-0.004 -0.111958,-0.01223 -0.16624,0 -0.06354,0.01432 -0.117405,0.05517 -0.168137,0.09602 -0.05073,0.04085 -0.102268,0.08374 -0.164344,0.103465 -0.0641,0.02037 -0.133709,0.01404 -0.199488,0 -0.03977,-0.0085 -0.08041,-0.01977 -0.120494,-0.0129 -0.02004,0.0034 -0.03959,0.01164 -0.0545,0.02547 -0.01491,0.01383 -0.02478,0.0336 -0.0245,0.05393 7.7e-5,0.0056 8.91e-4,0.01111 0.0013,0.01667 3.87e-4,0.0056 3.33e-4,0.01124 -0.0013,0.01658 -0.0028,0.0092 -0.01019,0.01671 -0.01899,0.02067 -0.0088,0.004 -0.01884,0.0046 -0.02836,0.0031 -0.01905,-0.0031 -0.03557,-0.01433 -0.05239,-0.02379 -0.06801,-0.03822 -0.149878,-0.04905 -0.2267,-0.03547 -0.07682,0.01358 -0.148546,0.05068 -0.208024,0.101158 -0.118956,0.100961 -0.186513,0.250015 -0.230238,0.399788 -0.01281,0.04387 -0.0239,0.08825 -0.03325,0.132992 z"
     id="path1"
     inkscape:path-effect="#path-effect1"
     inkscape:original-d="m 18.71867,37.470588 c -0.565813,-0.02958 -1.133017,-0.09285 -1.695652,-0.16624 -0.05315,-0.0069 -0.497811,-0.05301 -0.565217,-0.0665 -0.17652,-0.0353 -0.263582,-0.08481 -0.432226,-0.132993 -0.250254,-0.0715 -0.508568,-0.121039 -0.764705,-0.16624 C 14.559287,36.81481 13.840073,36.708987 13.16624,36.473146 12.993275,36.412608 12.692762,36.249591 12.534527,36.173913 12.391376,36.10545 12.239748,36.053721 12.102302,35.974425 11.626732,35.700057 11.214045,35.32284 10.73913,35.043478 10.244599,34.752578 9.3123258,34.353182 8.9769821,33.913043 8.8778128,33.782884 8.8247628,33.623272 8.7442455,33.480818 8.4374716,32.938064 8.637974,33.359164 8.3452685,32.749361 8.2766028,32.606307 8.2210102,32.456849 8.1457801,32.317136 7.6848683,31.461157 8.0690024,32.297364 7.6470588,31.485934 7.5006439,31.204366 7.4162823,30.890604 7.2480818,30.621483 7.1645992,30.487911 7.0459267,30.379798 6.9488491,30.255754 6.8463938,30.124839 6.7619491,29.979322 6.6496164,29.856777 6.1112413,29.269459 5.3915225,28.850277 4.887468,28.227621 4.5283803,27.784043 4.425182,27.180863 4.2225064,26.664962 c -0.206636,-0.525983 -0.512692,-1.001559 -0.6317136,-1.56266 -0.177455,-0.836574 -0.099744,-1.745455 -0.099744,-2.593351 0,-0.90906 -0.09173,-1.817943 -0.066496,-2.726342 0.035085,-1.263069 0.1016252,0.151747 0.066496,-2.061381 C 3.487863,17.520537 3.4487049,17.32202 3.4245524,17.122762 3.278226,15.915569 2.8588145,14.752518 2.7928389,13.531969 c -0.011366,-0.210264 0,-0.421142 0,-0.631713 0,-0.642322 -0.0097,-1.30055 0.1329923,-1.928389 0.035167,-0.154734 0.04828,-0.31537 0.099744,-0.465473 C 3.1324209,10.194761 3.7059243,8.9888288 3.7902813,8.8107417 3.8327161,8.7211572 3.888468,8.6375722 3.9232737,8.544757 4.329885,7.4604601 3.6816707,9.0199837 4.056266,8.0460358 4.082954,7.9766458 4.126724,7.9148811 4.15601,7.8465473 4.19331,7.7595133 4.207036,7.6617592 4.255754,7.5805627 4.5107244,7.1556127 5.0421854,6.9598734 5.4526854,6.7493606 5.6864692,6.6294715 5.9148124,6.4989279 6.1508951,6.3836317 6.6322136,6.1485692 7.1301928,5.9489643 7.6138107,5.7186701 7.8375545,5.6121254 8.0571185,5.4970162 8.2787724,5.3861893 8.6001705,5.2421142 8.9236073,5.1025035 9.2429668,4.9539642 9.7253511,4.7295994 10.15712,4.4102972 10.639386,4.1892583 11.293042,3.8896659 12.072568,3.764573 12.634271,3.2915601 c 0.497096,-0.4186074 0.71918,-1.1819785 1.363171,-1.4296675 0.282074,-0.1084897 0.572892,-0.059986 0.864451,-0.099744 0.157225,-0.02144 0.307285,-0.087256 0.465473,-0.099744 0.265159,-0.020934 0.532015,0.00492 0.797954,0 0.332608,-0.00616 0.66495,-0.022522 0.997442,-0.033248 0.998313,-0.032204 1.993637,-0.033248 2.992328,-0.033248 0.465473,0 0.93239,-0.036634 1.396419,0 0.461673,0.036448 0.849012,0.1540688 1.296675,0.2659847 0.953183,0.2382957 0.942337,0.2601069 1.795397,0.398977 1.158139,0.1885342 2.324544,0.2783041 3.491048,0.3989769 0.347595,0.035958 1.135593,0.045454 1.462916,0.1994885 0.09102,0.042832 0.541197,0.4132094 0.565217,0.4322251 1.844348,1.4601091 -1.028041,-0.8320569 0.964195,0.797954 1.774129,1.3798782 -0.155617,-0.1420223 0.897698,0.7314578 0.351742,0.2916883 0.743264,0.5389166 1.063938,0.8644501 0.414258,0.4205338 0.796777,0.8762113 1.130435,1.3631714 0.107762,0.1572743 0.123088,0.7774302 0.132992,0.9309462 0.0243,0.3766799 0.02593,0.7551585 0.0665,1.1304348 0.12118,1.1209149 0.354677,1.9092459 0.831202,2.9258319 0.328288,0.700348 0.198223,0.373125 0.565217,1.063938 0.240515,0.452734 0.273855,0.545772 0.465473,0.997443 0.04039,0.09521 0.376854,0.877062 0.432225,1.063938 0.121055,0.408559 0.09339,0.541661 0.166241,0.964195 0.02696,0.156373 0.07185,0.309264 0.09974,0.465473 0.07419,0.415444 0.113982,0.823021 0.232736,1.230179 0.18492,0.63401 0.362222,1.242976 0.498722,1.895141 0.08295,0.396295 0.05901,0.802372 0.132992,1.19693 0.08674,0.46263 0.265985,0.917524 0.265985,1.39642 0,0.381055 -0.194933,0.720069 -0.332481,1.063939 -0.25635,0.640875 -0.159427,0.574246 -0.764706,1.296675 -0.121207,0.144666 -0.288929,0.242904 -0.432225,0.365729 -0.167025,0.143164 -0.340554,0.27933 -0.498721,0.432225 -0.38435,0.371538 -0.642588,0.67909 -0.930947,1.130434 -0.0549,0.08592 -0.725178,1.317364 -0.731457,1.329924 -0.07549,0.150985 -0.123996,0.314488 -0.199489,0.465473 -0.375374,0.750749 -0.865667,1.442778 -1.296675,2.161125 -0.183244,0.305406 -0.32058,0.623248 -0.498721,0.930947 -0.453188,0.782779 -0.962999,1.45084 -1.56266,2.127877 -0.529476,0.597795 -1.15436,1.424582 -1.895141,1.828644 -0.620163,0.338271 -1.283922,0.270871 -1.961637,0.332481 -0.266953,0.02427 -0.532151,0.06507 -0.797954,0.09974 -0.551514,0.07194 -1.106119,0.207451 -1.662404,0.232737 -0.606711,0.02758 -1.221266,0 -1.828644,0 -0.166241,0 -0.333164,-0.01505 -0.498721,0 -0.320618,0.02915 -0.537697,0.316716 -0.864451,0.365729 -0.12056,0.01808 -0.244424,-0.01213 -0.365728,0 -0.189161,0.04204 -0.341177,0.08384 -0.53197,0.09974 -0.05522,0.0046 -0.112481,-0.01344 -0.16624,0 -0.114473,0.02862 -0.219948,0.161978 -0.332481,0.199489 -0.06308,0.02103 -0.133897,-0.01093 -0.199488,0 -0.06914,0.01152 -0.141168,0.02761 -0.199489,0.0665 -0.0092,0.0061 0.0099,0.02829 0,0.03325 -0.02974,0.01487 -0.07001,-0.01487 -0.09974,0 -0.13903,0.06951 -0.59909,0.300792 -0.664962,0.465473 -0.01697,0.04243 -0.02217,0.08866 -0.03325,0.132992 z" />
  <path
     style="fill:none;stroke:#1c3c55;stroke-width:1.179;stroke-opacity:1"
     d="m 14.063939,26.199488 c -0.230335,0.412287 -0.419958,0.847305 -0.565218,1.296676 -0.141525,0.437819 -0.243001,0.893909 -0.465473,1.296675 -0.06719,0.121634 -0.145151,0.237837 -0.199488,0.365729 -0.05193,0.122215 -0.0815,0.254766 -0.0784,0.387518 0.0031,0.132752 0.03965,0.265614 0.111647,0.377188 0.07641,0.118414 0.190453,0.209751 0.316755,0.272273 0.126302,0.06252 0.264762,0.09746 0.404223,0.117756 0.278921,0.04059 0.564526,0.02417 0.841682,0.07544 0.105094,0.01944 0.210615,0.04869 0.317054,0.03903 0.05322,-0.0048 0.106165,-0.01977 0.151158,-0.0486 0.04499,-0.02883 0.08157,-0.07226 0.09701,-0.123424 0.01554,-0.05152 0.009,-0.10791 -0.01004,-0.158249 -0.01902,-0.05034 -0.04985,-0.09536 -0.08319,-0.137603 -0.03334,-0.04224 -0.06951,-0.08227 -0.101119,-0.125824 -0.03161,-0.04355 -0.05884,-0.09127 -0.07163,-0.143541 -0.0159,-0.06498 -0.0087,-0.133159 0,-0.199488 0.03506,-0.267386 0.09298,-0.531265 0.132993,-0.797954 0.03567,-0.237697 0.05876,-0.48322 0.16624,-0.69821 0.109597,-0.219233 0.297083,-0.387118 0.465473,-0.565217 0.131656,-0.139248 0.255279,-0.29008 0.332481,-0.465474 0.07779,-0.176721 0.105935,-0.372692 0.189422,-0.546792 0.04174,-0.08705 0.09803,-0.168691 0.173758,-0.228574 0.07573,-0.05988 0.172283,-0.09657 0.268534,-0.08908 0.0951,0.0074 0.18134,0.05575 0.265984,0.09974 0.107303,0.05576 0.217502,0.10621 0.321467,0.167971 0.103966,0.06176 0.202456,0.135787 0.276999,0.231006 0.04928,0.06295 0.0872,0.133958 0.132992,0.199489 0.07999,0.114464 0.182844,0.210642 0.276977,0.313794 0.09413,0.103151 0.18184,0.217344 0.221744,0.351168 0.04536,0.152118 0.02492,0.316223 -0.01336,0.470272 -0.03829,0.15405 -0.09402,0.304016 -0.119628,0.460674 -0.01975,0.120849 -0.02126,0.243865 -0.03325,0.365729 -0.04432,0.450463 -0.230898,0.878647 -0.265985,1.329923 -0.0078,0.100213 -0.0082,0.201896 -0.03325,0.299233 -0.03942,0.153014 -0.136988,0.284662 -0.189003,0.433865 -0.02601,0.0746 -0.04041,0.154801 -0.02864,0.232925 0.0059,0.03906 0.01834,0.07728 0.03809,0.111491 0.01975,0.03421 0.04689,0.06434 0.07982,0.08617 0.03844,0.02548 0.0836,0.03908 0.128957,0.04746 0.04535,0.0084 0.09147,0.01187 0.137027,0.01904 0.200552,0.03153 0.382442,0.132366 0.573755,0.200295 0.09566,0.03396 0.195088,0.05996 0.29651,0.06414 0.101421,0.0042 0.205361,-0.01445 0.293418,-0.06494 0.06942,-0.03981 0.127422,-0.09821 0.199489,-0.132993 0.01831,-0.0088 0.0374,-0.01608 0.05513,-0.02601 0.01773,-0.0099 0.03437,-0.02294 0.04461,-0.04049 0.01145,-0.01962 0.01397,-0.04334 0.01213,-0.06598 -0.0018,-0.02264 -0.0078,-0.04472 -0.01213,-0.06701 -0.0193,-0.09823 -0.0089,-0.199521 0,-0.299233 0.01279,-0.143935 0.02216,-0.28815 0.03325,-0.432225 0.01795,-0.233112 0.04044,-0.465865 0.0665,-0.69821 0.03251,-0.289856 0.07067,-0.579512 0.132993,-0.86445 0.02876,-0.131508 0.06276,-0.267635 0.03325,-0.398977 -0.03004,-0.133681 -0.12262,-0.245829 -0.159217,-0.377865 -0.0183,-0.06602 -0.02162,-0.138415 0.0047,-0.201683 0.01314,-0.03164 0.03362,-0.06044 0.0604,-0.08179 0.02678,-0.02135 0.05996,-0.03502 0.09417,-0.03687 0.01107,-6e-4 0.02216,1.4e-5 0.03325,0 0.08131,-10e-5 0.158398,-0.03357 0.232736,-0.0665 0.216136,-0.09575 0.433585,-0.192616 0.663674,-0.246853 0.230088,-0.05424 0.47631,-0.06379 0.699498,0.01412 0.136144,0.04752 0.260449,0.126195 0.398977,0.16624 0.161414,0.04666 0.33373,0.03837 0.499973,0.01398 0.166242,-0.0244 0.330211,-0.06446 0.497469,-0.08048 0.356608,-0.03416 0.713448,0.0418 1.070829,0.06659 0.178691,0.0124 0.359442,0.01187 0.535449,-0.02138 0.176006,-0.03325 0.34776,-0.100465 0.488351,-0.211452 0.08623,-0.06807 0.159197,-0.151127 0.232737,-0.232737 0.163063,-0.180957 0.332848,-0.358415 0.531969,-0.498721 0.235361,-0.165841 0.504807,-0.275081 0.764706,-0.398977 0.250737,-0.119528 0.496216,-0.254963 0.709081,-0.433414 0.212865,-0.178452 0.392838,-0.402758 0.48785,-0.663773 0.02398,-0.06587 0.04244,-0.133647 0.0665,-0.199488 0.04947,-0.135389 0.122269,-0.261703 0.166241,-0.398977 0.08211,-0.256343 0.05866,-0.535249 0,-0.797954 -0.02227,-0.09974 -0.04948,-0.198464 -0.0665,-0.299233 -0.037,-0.219047 -0.02517,-0.44296 -0.03325,-0.664962 -0.01418,-0.389801 -0.09195,-0.781352 -0.265984,-1.130435 -0.204931,-0.411063 -0.532959,-0.746002 -0.86445,-1.063938 -0.227028,-0.217744 -0.460591,-0.432823 -0.731352,-0.592956 -0.270762,-0.160133 -0.58423,-0.263255 -0.897804,-0.238246 -0.123034,0.0098 -0.247377,0.03898 -0.368445,0.01497 -0.06054,-0.012 -0.119428,-0.03802 -0.163438,-0.08128 -0.02201,-0.02163 -0.04007,-0.04741 -0.05188,-0.07592 -0.0118,-0.02851 -0.01726,-0.05976 -0.01471,-0.09051 0.0011,-0.01282 0.0035,-0.02564 0.0088,-0.03737 0.0053,-0.01173 0.01351,-0.02235 0.02444,-0.02913 0.01448,-0.009 0.03245,-0.01057 0.04941,-0.0089 0.01696,0.0017 0.03348,0.0063 0.05033,0.0089 0.04577,0.007 0.09268,-0.0015 0.136734,-0.01573 0.04406,-0.01424 0.08605,-0.03412 0.129251,-0.05077 0.178943,-0.06896 0.379423,-0.08075 0.565217,-0.03325 0.204971,-0.0608 0.417982,-0.09443 0.631714,-0.09974 0.166406,-0.0041 0.333305,0.0088 0.499176,-0.0052 0.165871,-0.01396 0.334705,-0.0575 0.465018,-0.161074 0.0435,-0.03458 0.08283,-0.07582 0.132993,-0.09974 0.03167,-0.0151 0.06631,-0.0226 0.09974,-0.03325 0.141921,-0.04522 0.259834,-0.146335 0.398977,-0.199489 0.17042,-0.0651 0.358954,-0.05382 0.540072,-0.07567 0.09056,-0.01092 0.181128,-0.0307 0.262789,-0.07134 0.08166,-0.04064 0.154269,-0.103652 0.194581,-0.185477 0.02987,-0.06063 0.04101,-0.128993 0.04289,-0.19655 0.0019,-0.06756 -0.0051,-0.134997 -0.0096,-0.202427 -0.01052,-0.156074 -0.0079,-0.313859 0.02151,-0.467495 0.02943,-0.153636 0.08641,-0.303374 0.177979,-0.430204 0.09321,-0.129114 0.221241,-0.232282 0.365729,-0.299232 0.236324,-0.109503 0.504548,-0.120427 0.764706,-0.132993 0.210557,-0.01017 0.422125,-0.02259 0.631713,0 0.0678,0.0073 0.13548,0.01828 0.203668,0.01763 0.06819,-6.49e-4 0.138099,-0.01377 0.195309,-0.05088 0.0407,-0.0264 0.07352,-0.06418 0.09648,-0.106922 0.02296,-0.04274 0.03624,-0.09033 0.04158,-0.138553 0.01067,-0.09644 -0.01001,-0.193684 -0.03831,-0.286494 -0.08538,-0.279963 -0.240264,-0.534871 -0.423456,-0.763145 -0.183192,-0.228273 -0.394893,-0.431833 -0.607235,-0.633275 -0.153871,-0.145972 -0.309532,-0.292469 -0.432225,-0.465473 -0.132123,-0.186299 -0.222477,-0.398308 -0.332481,-0.598465 -0.248173,-0.45156 -0.594553,-0.839877 -0.930946,-1.230179 -0.03688,-0.04278 -0.07388,-0.08585 -0.117155,-0.122148 -0.04328,-0.0363 -0.09353,-0.06583 -0.14883,-0.07734 -0.05446,-0.01134 -0.110816,-0.0048 -0.16624,0 -0.475259,0.041 -0.955515,-0.05226 -1.429668,0 -0.279035,0.03075 -0.5513,0.111514 -0.831202,0.132993 -0.287452,0.02206 -0.576773,-0.0189 -0.86445,0 -0.257376,0.01691 -0.509957,0.0815 -0.767464,0.09629 -0.128753,0.0074 -0.259042,0.0021 -0.38456,-0.02748 -0.125517,-0.02962 -0.24641,-0.0844 -0.34414,-0.168545 -0.03565,-0.0307 -0.06798,-0.06503 -0.09974,-0.09974 -0.04424,-0.04834 -0.08769,-0.09777 -0.12362,-0.152573 -0.03593,-0.0548 -0.06432,-0.115405 -0.07587,-0.179908 -0.01557,-0.08695 4.13e-4,-0.17804 0.03766,-0.258138 0.03724,-0.0801 0.09497,-0.149616 0.161832,-0.207335 0.03576,-0.03087 0.07503,-0.05948 0.09974,-0.09974 0.01297,-0.02113 0.02141,-0.04472 0.03325,-0.0665 0.02665,-0.049 0.06993,-0.08744 0.117943,-0.115833 0.04801,-0.02839 0.100897,-0.04745 0.153884,-0.06488 0.05299,-0.01743 0.106607,-0.03346 0.157445,-0.05642 0.05084,-0.02296 0.09926,-0.05333 0.135946,-0.09535 0.04259,-0.04878 0.06709,-0.11031 0.09974,-0.16624 0.05951,-0.101939 0.146136,-0.185127 0.235643,-0.262078 0.08951,-0.07695 0.183455,-0.149505 0.263078,-0.236644 0.161964,-0.177251 0.256378,-0.4052924 0.398977,-0.5984652 0.05071,-0.068696 0.107433,-0.1328532 0.156803,-0.2025202 0.04937,-0.069667 0.09176,-0.1461139 0.109182,-0.2297048 0.02051,-0.098439 0.0056,-0.2025554 0.03325,-0.2992328 0.01642,-0.057422 0.04722,-0.1097143 0.0665,-0.1662404 0.02897,-0.084917 0.03104,-0.1762906 0.03325,-0.2659846 0.0041,-0.1677681 0.0097,-0.3365155 -0.01429,-0.5026145 C 24.864559,7.8427866 24.8091,7.6775961 24.703329,7.5473056 24.658151,7.491655 24.603091,7.4422717 24.537088,7.4143133 c -0.08819,-0.037356 -0.189973,-0.033435 -0.281335,-0.0047 -0.09136,0.028733 -0.173694,0.080661 -0.250634,0.137694 -0.285574,0.2116861 -0.508232,0.4975006 -0.69821,0.7979539 -0.234329,0.3705957 -0.425409,0.7716122 -0.531969,1.196931 -0.0504,0.2011515 -0.08236,0.40882 -0.16624,0.5984655 -0.07073,0.159911 -0.17603,0.301561 -0.269423,0.449386 -0.09339,0.147824 -0.17699,0.307747 -0.19605,0.48156 -0.0079,0.07199 -0.0045,0.144664 -0.0049,0.217084 -3.59e-4,0.07242 -0.0047,0.145825 -0.02728,0.214627 -0.02261,0.0688 -0.06537,0.133271 -0.128074,0.169512 -0.03135,0.01812 -0.06724,0.02878 -0.103447,0.02889 -0.03621,1.15e-4 -0.07265,-0.01055 -0.102077,-0.03165 -0.02269,-0.01627 -0.04077,-0.0382 -0.05629,-0.0614 -0.01552,-0.02321 -0.02872,-0.04787 -0.04346,-0.07159 -0.09245,-0.148813 -0.242019,-0.254547 -0.401087,-0.327961 -0.159067,-0.07341 -0.329558,-0.117983 -0.496611,-0.17076 -0.185104,-0.05848 -0.368432,-0.128147 -0.531969,-0.232736 -0.0256,-0.01638 -0.05079,-0.03364 -0.07825,-0.04668 -0.02746,-0.01303 -0.05766,-0.02176 -0.08799,-0.01983 -0.03537,0.0023 -0.06818,0.01866 -0.102821,0.02614 -0.01732,0.0037 -0.03541,0.0052 -0.05274,0.0015 -0.01732,-0.0037 -0.03388,-0.01304 -0.04393,-0.02763 -0.0098,-0.0142 -0.01273,-0.03223 -0.01149,-0.04943 0.0012,-0.0172 0.0063,-0.03385 0.01149,-0.05031 0.06272,-0.200714 0.136119,-0.397955 0.199488,-0.598465 0.166181,-0.5258302 0.265709,-1.0797327 0.53197,-1.5626601 0.09362,-0.1698003 0.206663,-0.3283462 0.299232,-0.4987213 0.08257,-0.1519775 0.14885,-0.3139977 0.182099,-0.4837326 0.03325,-0.169735 0.03263,-0.3476849 -0.01586,-0.5137098 -0.03761,-0.1287921 -0.102782,-0.2475036 -0.16624,-0.3657209 -0.02846,-0.05302 -0.05687,-0.1064697 -0.09379,-0.1539829 -0.03693,-0.047513 -0.08323,-0.089268 -0.138942,-0.1120018 -0.05247,-0.021411 -0.11018,-0.024933 -0.166241,-0.033248 -0.122698,-0.018198 -0.241838,-0.060401 -0.365728,-0.066496 -0.156835,-0.00772 -0.313821,0.044346 -0.443017,0.1335943 -0.129195,0.089249 -0.231501,0.2141737 -0.30591,0.3524491 -0.148818,0.2765508 -0.186488,0.5976479 -0.215268,0.910376 -0.0275,0.2988049 -0.04933,0.5981225 -0.0665,0.8976982 -0.02158,0.3764217 -0.03582,0.7534038 -0.03325,1.1304348 8.42e-4,0.1236459 0.0033,0.2489828 -0.02685,0.3688992 -0.01508,0.05996 -0.03839,0.118193 -0.07251,0.169749 -0.03412,0.05156 -0.07932,0.09631 -0.13338,0.126313 -0.06432,0.03569 -0.138926,0.04945 -0.212472,0.05101 -0.07354,0.0016 -0.146775,-0.0085 -0.219753,-0.01776 -0.398733,-0.05053 -0.810231,-0.07632 -1.196931,0.03325 -0.171541,0.0486 -0.334684,0.122949 -0.504424,0.177509 -0.16974,0.05456 -0.351246,0.08923 -0.526266,0.05523 C 16.01027,10.604117 15.849842,10.49752 15.713163,10.372941 15.576484,10.248362 15.458881,10.10444 15.32736,9.9744276 15.101358,9.7510171 14.836333,9.570738 14.56266,9.4092072 14.26702,9.234711 13.951563,9.0741912 13.731458,8.8107417 13.656733,8.7213017 13.594872,8.621968 13.525398,8.5283904 13.455925,8.4348127 13.377107,8.3455144 13.277576,8.2848777 13.22781,8.2545594 13.173154,8.231766 13.115916,8.22083 c -0.05724,-0.010936 -0.117106,-0.0098 -0.173107,0.00631 -0.056,0.016115 -0.107957,0.047518 -0.145987,0.091671 -0.03803,0.044153 -0.06159,0.1011855 -0.06281,0.1594465 -2.31e-4,0.011081 3.23e-4,0.022169 0,0.033248 -0.0019,0.06584 -0.03462,0.127094 -0.07432,0.1796554 -0.0397,0.052561 -0.08701,0.099132 -0.125166,0.1528254 -0.04319,0.060781 -0.07383,0.1295722 -0.09974,0.1994885 -0.124739,0.3366051 -0.143886,0.7061273 -0.09573,1.0618568 0.04816,0.35573 0.161433,0.699659 0.295217,1.032772 0.07287,0.18144 0.153,0.362149 0.269874,0.5189 0.116873,0.156751 0.274298,0.289387 0.461584,0.345551 0.03362,0.01008 0.06825,0.01776 0.09974,0.03325 0.0359,0.01766 0.0662,0.0447 0.09974,0.0665 0.09496,0.0617 0.212286,0.07898 0.325536,0.07907 0.113251,9.5e-5 0.226211,-0.01541 0.339426,-0.01257 0.17877,0.0045 0.353546,0.05451 0.531969,0.0665 0.177018,0.0119 0.35509,-0.0138 0.53197,0 0.12217,0.0095 0.243274,0.03787 0.365729,0.03325 0.05015,-0.0019 0.09994,-0.0093 0.150024,-0.01254 0.05008,-0.0032 0.101214,-0.0021 0.149208,0.01254 0.04751,0.01453 0.08993,0.04171 0.132993,0.0665 0.155575,0.08955 0.32598,0.150667 0.498721,0.199489 0.111394,0.03148 0.224455,0.05814 0.332481,0.09974 0.09182,0.03535 0.180498,0.08207 0.253149,0.148414 0.07265,0.06635 0.128589,0.153696 0.145828,0.250563 0.01557,0.08747 -6.32e-4,0.177146 0,0.265985 4.36e-4,0.06127 0.0089,0.122172 0.01301,0.183305 0.0041,0.06113 0.0038,0.123491 -0.01301,0.182424 -0.02719,0.09555 -0.09492,0.174221 -0.132993,0.265984 -0.02688,0.06479 -0.03856,0.135157 -0.0665,0.199489 -0.03814,0.08779 -0.104348,0.15972 -0.16624,0.232736 -0.20096,0.23708 -0.366507,0.501621 -0.53197,0.764706 -0.212794,0.338341 -0.426939,0.676348 -0.664961,0.997443 -0.07526,0.101522 -0.152863,0.201302 -0.232737,0.299232 -0.06174,0.113591 -0.128314,0.224552 -0.199488,0.332481 -0.172973,0.2623 -0.374557,0.509329 -0.498721,0.797954 -0.109599,0.254768 -0.154432,0.531896 -0.232737,0.797954 -0.0198,0.06726 -0.04176,0.13389 -0.0665,0.199489 -0.03342,0.08862 -0.07194,0.175442 -0.09974,0.265984 -0.053,0.172611 -0.06587,0.354611 -0.09974,0.53197 -0.03816,0.199814 -0.102952,0.393588 -0.146837,0.592223 -0.04388,0.198634 -0.06648,0.406805 -0.0194,0.604708 0.01867,0.07851 0.04803,0.154177 0.0665,0.232736 0.05095,0.216751 0.01692,0.442947 0,0.664962 -0.0077,0.101287 -0.01089,0.207742 0.03325,0.299233 0.01077,0.02233 0.02423,0.0434 0.03325,0.0665 0.02034,0.05207 0.01667,0.110179 0.0095,0.165624 -0.0072,0.05544 -0.0175,0.111525 -0.0095,0.166857 0.004,0.02806 0.01272,0.05519 0.0202,0.08253 0.0075,0.02734 0.01383,0.05537 0.01305,0.08371 -0.0011,0.03784 -0.01487,0.0744 -0.03376,0.107198 -0.01889,0.0328 -0.0428,0.06237 -0.06598,0.09229 -0.169326,0.218491 -0.309561,0.467568 -0.531969,0.631714 -0.243758,0.179902 -0.560027,0.235578 -0.862826,0.225775 -0.302798,-0.0098 -0.600007,-0.07921 -0.899323,-0.126035 -0.579118,-0.09061 -1.178045,-0.09887 -1.7289,-0.299233 -0.2320791,-0.08442 -0.4531203,-0.202234 -0.6938146,-0.257487 -0.1203472,-0.02763 -0.2454719,-0.03913 -0.3677004,-0.02161 -0.1222284,0.01752 -0.2416369,0.06519 -0.3349043,0.146107 -0.1338416,0.116121 -0.2042133,0.291499 -0.229966,0.466811 -0.025753,0.175313 -0.011544,0.353655 -0.00277,0.530632 0.00704,0.142007 0.010654,0.285107 0.040826,0.42405 0.030172,0.138943 0.089288,0.275496 0.191911,0.373904 0.080955,0.07763 0.1843024,0.127462 0.2884642,0.169059 0.1041618,0.0416 0.2115246,0.07649 0.3100013,0.130173 0.056746,0.03094 0.1100295,0.06785 0.1662404,0.09975 0.2139971,0.121441 0.4614164,0.165865 0.6982094,0.232736 0.158676,0.04481 0.31431,0.100394 0.465473,0.166241 0.203214,-0.03288 0.416899,0.0027 0.598466,0.09974 0.08359,0.04466 0.159942,0.101537 0.239995,0.152273 0.08005,0.05074 0.165617,0.096 0.258726,0.113711 0.06635,0.01262 0.135695,0.01108 0.199489,0.03325 0.04011,0.01394 0.07642,0.03673 0.113672,0.05711 0.03725,0.02038 0.07678,0.03878 0.119064,0.04263 0.04425,0.004 0.08931,-0.0081 0.132993,0 0.02451,0.0046 0.04744,0.01531 0.06905,0.02774 0.02161,0.01243 0.04218,0.0266 0.06394,0.03876 0.09199,0.0514 0.199987,0.06432 0.299233,0.09974 0.02702,0.0096 0.05348,0.02099 0.08117,0.02848 0.02769,0.0075 0.05708,0.01104 0.08507,0.0048 0.02344,-0.0053 0.04481,-0.01712 0.06555,-0.02925 0.02074,-0.01213 0.04149,-0.0248 0.06443,-0.03194 0.01147,-0.0036 0.02345,-0.0057 0.03546,-0.0056 0.01201,1.57e-4 0.02407,0.0027 0.03483,0.008 0.01075,0.0054 0.02016,0.01362 0.02619,0.02401 0.006,0.01039 0.0086,0.02292 0.0063,0.03471 -0.0011,0.0057 -0.0033,0.01118 -0.0041,0.01693 -4.02e-4,0.0029 -4.53e-4,0.0058 1.54e-4,0.0087 6.06e-4,0.0028 0.0019,0.0056 0.0039,0.0076 0.002,0.0021 0.0048,0.0034 0.0076,0.0041 0.0028,6.53e-4 0.0058,6.34e-4 0.0087,2.42e-4 0.0058,-7.84e-4 0.01126,-0.003 0.01694,-0.0043 0.01245,-0.0029 0.02565,-0.0011 0.03762,0.0033 0.01197,0.0044 0.02284,0.01143 0.033,0.01916 0.02033,0.01546 0.03874,0.03431 0.06236,0.044 0.02073,0.0085 0.04385,0.0092 0.06618,0.0073 0.02233,-0.0019 0.04443,-0.0062 0.06681,-0.0073 0.06543,-0.0032 0.129053,0.02116 0.187757,0.05025 0.0587,0.02908 0.115356,0.06347 0.177972,0.08274 0.07526,0.02316 0.157477,0.02316 0.232737,0"
     id="path2"
     inkscape:path-effect="#path-effect2"
     inkscape:original-d="m 14.063939,26.199488 c -0.174084,0.441172 -0.401612,0.850479 -0.565218,1.296676 -0.158429,0.432079 -0.312596,0.863522 -0.465473,1.296675 -0.0603,0.170864 -0.134598,0.235947 -0.199488,0.365729 -0.04807,0.09614 0.01599,0.727732 0.03325,0.764706 0.280926,0.601984 1.036842,0.465473 1.56266,0.465473 0.233727,0 0.421169,0.08308 0.565217,-0.132993 0.146767,-0.220151 -0.225205,-0.361319 -0.265985,-0.565217 -0.01304,-0.0652 0,-0.132992 0,-0.199488 0,-0.282767 0.07766,-0.521271 0.132993,-0.797954 0.04096,-0.204819 0.07406,-0.503611 0.16624,-0.69821 0.151181,-0.31916 0.237997,-0.302746 0.465473,-0.565217 0.124878,-0.144091 0.232549,-0.303085 0.332481,-0.465474 0.178096,-0.289406 0.336986,-0.667965 0.631714,-0.86445 0.07076,-0.04717 0.26261,0.09806 0.265984,0.09974 0.268322,0.134161 0.413037,0.167191 0.598466,0.398977 0.04992,0.06241 0.08238,0.137636 0.132992,0.199489 0.159,0.194334 0.465317,0.397729 0.498721,0.664962 0.04107,0.328584 -0.07768,0.612878 -0.132992,0.930946 -0.02097,0.120602 -0.01671,0.244439 -0.03325,0.365729 -0.06122,0.448942 -0.191719,0.88433 -0.265985,1.329923 -0.0165,0.09899 -0.01675,0.20024 -0.03325,0.299233 -0.03753,0.225199 -0.249936,0.639162 -0.09974,0.86445 0.03869,0.05803 0.203356,0.04562 0.265984,0.0665 0.390526,0.130175 0.745237,0.245983 1.163683,0.199489 0.124733,-0.01386 0.101284,-0.05443 0.199489,-0.132993 0.03375,-0.027 0.07855,-0.02411 0.09974,-0.0665 0.01032,-0.02063 0,-0.118203 0,-0.132992 0,-0.09974 -0.0045,-0.199592 0,-0.299233 0.0066,-0.144352 0.02055,-0.288284 0.03325,-0.432225 0.02055,-0.232885 0.03248,-0.466908 0.0665,-0.69821 0.193464,-1.315555 0.02857,0.440854 0.132993,-0.86445 0.01064,-0.133028 0.0269,-0.265675 0.03325,-0.398977 0.01004,-0.21092 -0.05163,-0.491702 0,-0.69821 0.0027,-0.01075 0.02238,0.0022 0.03325,0 0.207662,-0.04153 0.05845,-0.01896 0.232736,-0.0665 0.214882,-0.0586 1.160547,-0.319575 1.363172,-0.232736 0.143235,0.06139 0.241102,0.141952 0.398977,0.16624 0.339571,0.05224 0.664623,-0.0665 0.997442,-0.0665 0.664895,0 1.48788,0.109555 2.094629,-0.16624 0.119109,-0.05414 0.153595,-0.140405 0.232737,-0.232737 0.147179,-0.171709 0.345695,-0.374539 0.531969,-0.498721 0.235978,-0.157319 0.520944,-0.25272 0.764706,-0.398977 0.313254,-0.187953 1.031598,-0.794076 1.196931,-1.097187 0.03356,-0.06153 0.03954,-0.134787 0.0665,-0.199488 0.0661,-0.158644 0.137507,-0.226576 0.166241,-0.398977 0.02961,-0.177661 0.01949,-0.622562 0,-0.797954 -0.01128,-0.101553 -0.05299,-0.197952 -0.0665,-0.299233 -0.02893,-0.216981 -0.0077,-0.447754 -0.03325,-0.664962 -0.04397,-0.373754 -0.122323,-0.781542 -0.265984,-1.130435 -0.202058,-0.490712 -0.486834,-0.709923 -0.86445,-1.063938 -0.465764,-0.436653 -1.022125,-0.649093 -1.629156,-0.831202 -0.06764,-0.02029 -0.626994,-0.147152 -0.598466,-0.232737 0.0078,-0.02351 0.01108,-0.05541 0.03325,-0.0665 0.02974,-0.01487 0.06703,0.0059 0.09974,0 0.08992,-0.01635 0.175246,-0.05561 0.265985,-0.0665 0.187387,-0.02249 0.376812,-0.02217 0.565217,-0.03325 0.210572,-0.03325 0.420454,-0.0712 0.631714,-0.09974 0.362778,-0.04903 0.632266,-0.03347 0.964194,-0.166241 0.05145,-0.02058 0.08488,-0.07225 0.132993,-0.09974 0.03043,-0.01739 0.0684,-0.01758 0.09974,-0.03325 0.164972,-0.08249 0.168852,-0.136727 0.398977,-0.199489 0.280794,-0.07658 0.781745,-0.08083 0.997442,-0.33248 0.0122,-0.01423 0.03325,-0.353577 0.03325,-0.398977 0,-0.336012 -0.03948,-0.628855 0.199489,-0.897699 0.101605,-0.114305 0.224581,-0.233363 0.365729,-0.299232 0.273948,-0.127843 0.450098,-0.123459 0.764706,-0.132993 0.210474,-0.0064 0.421252,0.0068 0.631713,0 0.133384,-0.0043 0.27003,0.0011 0.398977,-0.03325 0.195292,-0.05208 0.130466,-0.439806 0.09974,-0.531969 -0.178561,-0.535681 -0.665713,-0.990889 -1.030691,-1.39642 -0.141643,-0.157381 -0.308649,-0.293541 -0.432225,-0.465473 -0.13319,-0.185307 -0.221654,-0.398977 -0.332481,-0.598465 -0.273879,-0.492982 -0.498368,-0.855279 -0.930946,-1.230179 -0.08375,-0.07258 -0.156272,-0.183815 -0.265985,-0.199489 -0.05486,-0.0078 -0.111018,0.0046 -0.16624,0 -0.476644,-0.03972 -0.951245,-0.05126 -1.429668,0 -0.278994,0.02989 -0.55158,0.109691 -0.831202,0.132993 -0.282907,0.02358 -0.580043,-0.0098 -0.86445,0 -0.425821,0.01468 -1.098766,0.165187 -1.496164,-0.09974 -0.03912,-0.02608 -0.06362,-0.06964 -0.09974,-0.09974 -0.142234,-0.118529 -0.217458,-0.134818 -0.199488,-0.332481 0.02364,-0.259998 0.03288,-0.298868 0.199488,-0.465473 0.03325,-0.03325 0.07153,-0.06213 0.09974,-0.09974 0.05886,-0.07847 -0.09107,0.01638 0.03325,-0.0665 0.175258,-0.116839 0.401972,-0.145914 0.565218,-0.332481 0.04255,-0.04863 0.05937,-0.115779 0.09974,-0.16624 0.146866,-0.183582 0.343174,-0.322435 0.498721,-0.498722 0.159852,-0.181165 0.252504,-0.4101428 0.398977,-0.5984652 0.14907,-0.1916616 0.183107,-0.1835911 0.265985,-0.432225 0.110727,-0.3321816 -0.04441,0.089063 0.03325,-0.2992328 0.0117,-0.058523 0.04762,-0.109621 0.0665,-0.1662404 0.06736,-0.2020931 0.01058,-0.061983 0.03325,-0.2659846 0.04589,-0.4129675 0.02775,-0.6006155 -0.199488,-0.9641944 -0.06169,-0.098706 -0.04985,-0.1135943 -0.166241,-0.1329923 -0.169598,-0.028266 -0.389311,0.070579 -0.531969,0.1329923 -0.445074,0.1947198 -0.494189,0.3899122 -0.69821,0.7979539 -0.195567,0.3911355 -0.393236,0.7807307 -0.531969,1.196931 -0.179188,0.5375645 0.06691,-0.023272 -0.16624,0.5984655 -0.123294,0.328784 -0.309308,0.618614 -0.465473,0.930946 -0.03293,0.06586 -0.274298,0.598466 -0.365729,0.598466 -0.04628,0 -0.05696,-0.1116 -0.09975,-0.132993 -0.294251,-0.147125 -0.618317,-0.299163 -0.897698,-0.498721 -0.190408,-0.136005 -0.298183,-0.160802 -0.531969,-0.232736 -0.05704,-0.01755 -0.10798,-0.05355 -0.166241,-0.0665 -0.08613,-0.01914 -0.194737,0.01425 -0.199488,0 -0.01051,-0.03154 0,-0.0665 0,-0.09974 0,-0.256685 0.0917,-0.36942 0.199488,-0.598465 0.236716,-0.5030208 0.281723,-1.0621663 0.53197,-1.5626601 0.32357,-0.6471412 0.01993,0.1995437 0.299232,-0.4987213 0.09593,-0.2398224 0.213512,-0.7374494 0.166241,-0.9974424 C 21.047033,6.8047188 20.998437,6.7658068 20.913043,6.6163683 20.864633,6.5316492 20.76993,6.3951951 20.680307,6.3503836 20.629762,6.3251112 20.569609,6.3275499 20.514066,6.3171355 20.39228,6.2943007 20.271397,6.265117 20.148338,6.2506394 19.261028,6.14625 19.239946,7.0053291 19.184143,7.6470588 c -0.02611,0.3002659 -0.04347,0.5983838 -0.0665,0.8976982 -0.02889,0.375527 0.04121,0.7581206 -0.03325,1.1304348 -0.02204,0.1102021 -0.08818,0.6288222 -0.232737,0.6649612 -0.138066,0.03452 -0.289963,0.03325 -0.432225,0.03325 -0.30324,0 -0.868007,-0.01548 -1.196931,0.03325 -0.147691,0.02188 -0.885566,0.305298 -1.03069,0.232736 C 15.899166,10.493067 15.579078,10.178199 15.32736,9.9744276 15.116754,9.8039293 14.782681,9.5742232 14.56266,9.4092072 14.1492,9.0991123 14.153772,9.072174 13.731458,8.8107417 13.513743,8.675966 13.031243,8.3791851 12.734015,8.4782609 c -0.01051,0.0035 0.0057,0.023745 0,0.033248 -0.288702,0.4811707 0.118705,-0.303906 -0.199488,0.3324808 -0.03325,0.066496 -0.07623,0.1289586 -0.09974,0.1994885 -0.173684,0.5210507 0.0074,1.6144718 0.199488,2.0946288 0.133417,0.333542 0.434607,0.66655 0.731458,0.864451 0.02916,0.01944 0.0684,0.01757 0.09974,0.03325 0.03574,0.01787 0.06119,0.05598 0.09974,0.0665 0.08995,0.02453 0.637649,0.06357 0.664962,0.0665 0.177686,0.01904 0.353614,0.05535 0.531969,0.0665 0.176978,0.01106 0.354768,-0.0066 0.53197,0 0.122328,0.0045 0.243527,0.02606 0.365729,0.03325 0.09957,0.0059 0.201425,-0.01956 0.299232,0 0.0486,0.0097 0.08697,0.04809 0.132993,0.0665 0.16624,0.0665 0.330105,0.139269 0.498721,0.199489 0.108966,0.03892 0.228989,0.048 0.332481,0.09974 0.131369,0.06569 0.351384,0.2562 0.398977,0.398977 0.0209,0.0627 0,0.205129 0,0.265985 0,0.112026 0.01611,0.252918 0,0.365729 -0.03266,0.228595 -0.02285,0.04569 -0.132993,0.265984 -0.03135,0.06269 -0.03327,0.137774 -0.0665,0.199489 -0.0452,0.08394 -0.11719,0.150986 -0.16624,0.232736 -0.510052,0.850087 0.534256,-0.656928 -0.53197,0.764706 -0.239411,0.319216 -0.436484,0.671046 -0.664961,0.997443 -0.07246,0.10352 -0.155158,0.199488 -0.232737,0.299232 -0.0665,0.110827 -0.127796,0.224943 -0.199488,0.332481 -0.284858,0.427287 -0.324959,0.385268 -0.498721,0.797954 -0.10783,0.256094 -0.151369,0.533509 -0.232737,0.797954 -0.02061,0.06699 -0.04433,0.132993 -0.0665,0.199489 -0.03325,0.08866 -0.0715,0.175604 -0.09974,0.265984 -0.112106,0.358738 -0.03176,0.169366 -0.09974,0.53197 -0.06739,0.359438 -0.227833,0.827373 -0.16624,1.196931 0.01326,0.07958 0.05067,0.15362 0.0665,0.232736 0.04224,0.21119 -0.0195,0.450486 0,0.664962 0.0091,0.09995 0.01675,0.20024 0.03325,0.299233 0.0041,0.02444 0.02839,0.04219 0.03325,0.0665 0.02131,0.106564 -0.02131,0.225916 0,0.332481 0.01037,0.05183 0.05919,0.105715 0.03325,0.16624 -0.02929,0.06833 -0.06149,0.135738 -0.09974,0.199488 -0.13547,0.225785 -0.301174,0.493237 -0.531969,0.631714 -0.49746,0.298476 -1.23348,0.17317 -1.762149,0.09974 -0.579155,-0.08044 -1.15287,-0.200484 -1.7289,-0.299233 -0.03514,-0.006 -1.2986615,-0.20631 -1.3964193,-0.132992 -0.2386082,0.178956 -0.2206911,0.732442 -0.2327366,0.997443 -0.01233,0.271268 0.00145,0.599711 0.2327366,0.797954 0.2603365,0.223145 0.3238086,0.172468 0.5984655,0.299232 0.058675,0.02708 0.1074101,0.073 0.1662404,0.09975 0.2242462,0.10193 0.4651854,0.158592 0.6982094,0.232736 0.157001,0.04996 0.306819,0.121817 0.465473,0.166241 0.189398,0.08438 0.403352,0.04653 0.598466,0.09974 0.182232,0.0497 0.320132,0.212408 0.498721,0.265984 0.06457,0.01937 0.135056,0.01342 0.199489,0.03325 0.08067,0.02482 0.151307,0.07754 0.232736,0.09974 0.04277,0.01166 0.08999,-0.01075 0.132993,0 0.04808,0.01202 0.08673,0.0487 0.132992,0.0665 0.09813,0.03774 0.198138,0.07086 0.299233,0.09974 0.05434,0.01553 0.110075,0.02701 0.16624,0.03325 0.03105,0.0034 0.217737,-0.015 0.232737,0 0.0078,0.0078 -0.0078,0.02541 0,0.03325 0.0078,0.0078 0.02273,-0.0035 0.03325,0 0.04702,0.01567 0.08491,0.05448 0.132992,0.0665 0.04301,0.01075 0.08952,-0.0087 0.132992,0 0.122025,0.02441 0.264203,0.08223 0.365729,0.132993 0.04761,0.0238 0.174871,0 0.232737,0" />
  <path
     style="fill:none;stroke:#1c3c55;stroke-width:1.179;stroke-opacity:1"
     d="m 17.721228,23.971867 c -0.22417,-0.387372 -0.296857,-0.859836 -0.199489,-1.296675 0.01988,-0.08921 0.04652,-0.1768 0.0665,-0.265985 0.01475,-0.06582 0.02585,-0.132447 0.03325,-0.199488 0.09773,-0.172344 0.1551,-0.367406 0.166241,-0.565218 0.0088,-0.155514 -0.0106,-0.311023 -0.02245,-0.466332 -0.01185,-0.155309 -0.01596,-0.313664 0.02245,-0.464614 0.04537,-0.178281 0.14713,-0.33589 0.232736,-0.498721 0.06757,-0.128532 0.128009,-0.265137 0.232737,-0.365729 0.07366,-0.07075 0.166226,-0.120039 0.263574,-0.150951 0.09735,-0.03091 0.199603,-0.04404 0.301643,-0.04854 0.37187,-0.01639 0.74087,0.08036 1.086355,0.218908 0.345484,0.138552 0.672446,0.318755 1.008274,0.479302 0.189385,0.09054 0.382484,0.175298 0.559171,0.288636 0.176686,0.113338 0.33828,0.258254 0.438272,0.442822 0.05692,0.105068 0.09246,0.220067 0.132992,0.332481 0.08428,0.233764 0.191916,0.460046 0.332481,0.664961 0.06686,0.09747 0.141703,0.190599 0.232737,0.265985 0.08579,0.07105 0.184241,0.124964 0.275324,0.189088 0.09108,0.06412 0.177274,0.141744 0.223397,0.243137 0.04673,0.102734 0.04801,0.220586 0.03325,0.332481 -0.03955,0.299847 -0.189251,0.580038 -0.398977,0.797954 -0.11581,0.120333 -0.250238,0.223281 -0.398977,0.299233 -0.317196,0.161973 -0.681716,0.194816 -1.030691,0.265984 -0.463383,0.0945 -0.92761,0.261719 -1.396419,0.199489 -0.190406,-0.02528 -0.373625,-0.0879 -0.5611,-0.129685 -0.187475,-0.04179 -0.386483,-0.06211 -0.569335,-0.0033 -0.02219,0.0071 -0.04428,0.01546 -0.06748,0.0178 -0.0116,0.0012 -0.02342,7.96e-4 -0.03474,-0.002 -0.01132,-0.0028 -0.02214,-0.008 -0.03078,-0.01582 -0.0058,-0.0053 -0.01058,-0.01165 -0.01566,-0.01767 -0.0051,-0.006 -0.01065,-0.01184 -0.01759,-0.01558 -0.0099,-0.0054 -0.02177,-0.006 -0.033,-0.0048 -0.01123,0.0011 -0.02225,0.0039 -0.0335,0.0048 -0.03087,0.0026 -0.06167,-0.0088 -0.08727,-0.02625 -0.0256,-0.01744 -0.04668,-0.04064 -0.06682,-0.06418 -0.02013,-0.02354 -0.03972,-0.04778 -0.06316,-0.06803 -0.02344,-0.02025 -0.05134,-0.03653 -0.08199,-0.04103 -0.02196,-0.0032 -0.0443,-3.05e-4 -0.0665,0 -0.04809,6.61e-4 -0.0958,-0.01106 -0.140221,-0.0295 -0.04442,-0.01843 -0.08581,-0.04347 -0.125764,-0.07024 -0.04605,-0.03086 -0.09047,-0.06417 -0.132992,-0.09974"
     id="path3"
     inkscape:path-effect="#path-effect3"
     inkscape:original-d="m 17.721228,23.971867 c -0.07768,-0.431825 -0.255753,-0.84656 -0.199489,-1.296675 0.01134,-0.09069 0.04735,-0.176623 0.0665,-0.265985 0.01412,-0.06592 0.02217,-0.132992 0.03325,-0.199488 0.05541,-0.188406 0.124523,-0.373314 0.166241,-0.565218 0.05081,-0.233732 -0.02123,-0.676149 0,-0.930946 0.01616,-0.193937 0.138272,-0.34128 0.232736,-0.498721 0.07675,-0.127924 0.105539,-0.270331 0.232737,-0.365729 0.164746,-0.123559 0.367776,-0.168314 0.565217,-0.199489 0.874484,-0.138076 1.349934,0.201746 2.094629,0.69821 0.283596,0.189064 0.806819,0.464585 0.997443,0.731458 0.07088,0.09924 0.08895,0.22237 0.132992,0.332481 0.07295,0.182371 0.228866,0.513524 0.332481,0.664961 0.06653,0.09723 0.146947,0.185242 0.232737,0.265985 0.02002,0.01884 0.434249,0.30328 0.498721,0.432225 0.003,0.0061 0.02769,0.301924 0.03325,0.332481 0.08345,0.458953 -0.04046,0.516264 -0.398977,0.797954 -0.113128,0.08889 -0.263888,0.236884 -0.398977,0.299233 -0.270201,0.124708 -0.736864,0.20477 -1.030691,0.265984 -0.451228,0.09401 -0.932199,0.199489 -1.396419,0.199489 -0.381816,0 -0.75581,-0.08616 -1.130435,-0.132993 -0.04399,-0.0055 -0.08952,0.0087 -0.132992,0 -0.01537,-0.0031 -0.01923,-0.02624 -0.03325,-0.03325 -0.01982,-0.0099 -0.04667,0.0099 -0.0665,0 -0.100754,-0.05038 -0.190897,-0.156154 -0.299233,-0.199488 -0.02058,-0.0082 -0.04499,0.0054 -0.0665,0 -0.0911,-0.02277 -0.185467,-0.07291 -0.265985,-0.09974 -0.08069,-0.0269 -0.07064,-0.09974 -0.132992,-0.09974" />
  <path
     style="fill:none;stroke:#1c3c55;stroke-width:1.179;stroke-opacity:1"
     d="m 18.751918,17.322251 c -0.268914,-0.842717 -0.220717,-1.782563 0.132992,-2.593351 0.04365,-0.100052 0.09174,-0.198168 0.132993,-0.299232 0.05647,-0.138362 0.102091,-0.285632 0.199488,-0.398977 0.07603,-0.08848 0.179687,-0.150446 0.289831,-0.188875 0.110143,-0.03843 0.226962,-0.05439 0.343418,-0.06121 0.232912,-0.01363 0.470495,0.0081 0.696675,-0.04915 0.07744,-0.0196 0.152304,-0.04821 0.229105,-0.07018 0.0768,-0.02198 0.156868,-0.03738 0.236368,-0.02956 0.07966,0.0078 0.155434,0.03869 0.225914,0.07664 0.07048,0.03795 0.136773,0.0832 0.206311,0.12285 0.123871,0.07063 0.25715,0.123042 0.385041,0.186108 0.12789,0.06307 0.25267,0.13867 0.346417,0.246117 0.09886,0.113302 0.157816,0.255818 0.202365,0.399433 0.04455,0.143615 0.07648,0.291293 0.130115,0.431769 0.07612,0.199392 0.194043,0.379512 0.299233,0.565218 0.08003,0.141289 0.15422,0.290233 0.174808,0.451303 0.01029,0.08054 0.0067,0.163384 -0.01601,0.241327 -0.02273,0.07794 -0.06514,0.150827 -0.125549,0.205068 -0.07017,0.063 -0.161117,0.09843 -0.252972,0.11978 -0.09185,0.02135 -0.186165,0.02987 -0.278997,0.04646 -0.124511,0.02226 -0.245988,0.05899 -0.365729,0.09974 -0.221314,0.07531 -0.439825,0.1657 -0.631714,0.299233 -0.09856,0.06859 -0.190424,0.148705 -0.299232,0.199489 -0.124603,0.05816 -0.263827,0.07439 -0.398977,0.09974 -0.250661,0.04701 -0.494377,0.127502 -0.746055,0.168714 -0.251679,0.04121 -0.519741,0.04044 -0.750109,-0.06897 -0.125579,-0.05964 -0.235947,-0.149646 -0.365729,-0.199488 -0.148141,-0.05689 -0.317332,-0.05689 -0.465473,0"
     id="path4"
     inkscape:path-effect="#path-effect4"
     inkscape:original-d="m 18.751918,17.322251 c 0.230131,-0.844171 -0.09641,-1.752198 0.132992,-2.593351 0.02872,-0.105306 0.08924,-0.199232 0.132993,-0.299232 0.03288,-0.07515 0.127005,-0.326494 0.199488,-0.398977 0.31889,-0.31889 0.924038,-0.231586 1.329924,-0.299233 0.121029,-0.02017 0.327286,-0.119485 0.465473,-0.09974 0.270988,0.03871 0.114203,0.03112 0.432225,0.199488 0.235373,0.12461 0.555624,0.212433 0.731458,0.432225 0.179789,0.224737 0.206743,0.579727 0.33248,0.831202 0.131256,0.262512 0.220695,0.270699 0.299233,0.565218 0.01232,0.0462 0.0544,0.834245 0.03325,0.897698 -0.05541,0.166232 -0.438727,0.147592 -0.531969,0.16624 -0.123908,0.02478 -0.245851,0.05979 -0.365729,0.09974 -0.248765,0.08292 -0.409437,0.163397 -0.631714,0.299233 -0.102289,0.06251 -0.189047,0.152267 -0.299232,0.199489 -0.126002,0.054 -0.263919,0.07626 -0.398977,0.09974 -0.254492,0.04426 -1.347432,0.152238 -1.496164,0.09974 -0.130949,-0.04622 -0.23272,-0.159586 -0.365729,-0.199488 -0.08369,-0.02511 -0.338831,0 -0.465473,0" />
</svg>
