<?xml version="1.0" encoding="UTF-8" standalone="no"?>
<!-- Created with Inkscape (http://www.inkscape.org/) -->

<svg
   width="290mm"
   height="55mm"
   viewBox="0 0 290 55"
   version="1.1"
   id="svg1"
   inkscape:version="1.3.2 (091e20e, 2023-11-25, custom)"
   sodipodi:docname="buttunz_3.svg"
   xmlns:inkscape="http://www.inkscape.org/namespaces/inkscape"
   xmlns:sodipodi="http://sodipodi.sourceforge.net/DTD/sodipodi-0.dtd"
   xmlns="http://www.w3.org/2000/svg"
   xmlns:svg="http://www.w3.org/2000/svg">
  <sodipodi:namedview
     id="namedview1"
     pagecolor="#ffffff"
     bordercolor="#000000"
     borderopacity="0.25"
     inkscape:showpageshadow="2"
     inkscape:pageopacity="0.0"
     inkscape:pagecheckerboard="0"
     inkscape:deskcolor="#d1d1d1"
     inkscape:document-units="mm"
     inkscape:zoom="1.0449705"
     inkscape:cx="518.67491"
     inkscape:cy="125.84087"
     inkscape:window-width="2560"
     inkscape:window-height="1369"
     inkscape:window-x="-8"
     inkscape:window-y="-8"
     inkscape:window-maximized="1"
     inkscape:current-layer="layer1" />
  <defs
     id="defs1">
    <rect
       x="253.59567"
       y="45.934309"
       width="690.92857"
       height="109.09398"
       id="rect6" />
    <inkscape:path-effect
       effect="spiro"
       id="path-effect6"
       is_visible="true"
       lpeversion="1" />
    <rect
       x="177.03848"
       y="55.503957"
       width="836.38722"
       height="112.92184"
       id="rect5" />
    <inkscape:path-effect
       effect="spiro"
       id="path-effect5"
       is_visible="true"
       lpeversion="1" />
    <inkscape:path-effect
       effect="spiro"
       id="path-effect4"
       is_visible="true"
       lpeversion="1" />
    <rect
       x="238.28423"
       y="58.374851"
       width="768.44271"
       height="93.782548"
       id="rect1" />
    <inkscape:path-effect
       effect="spiro"
       id="path-effect1"
       is_visible="true"
       lpeversion="1" />
  </defs>
  <g
     inkscape:label="Layer 1"
     inkscape:groupmode="layer"
     id="layer1">
    <path
       style="opacity:1;fill:none;fill-opacity:1;stroke:#ff7e00;stroke-width:1;stroke-dasharray:none;stroke-opacity:1"
       d="M 1.7723785,53.677748 C 1.613116,53.014753 1.5280182,52.333971 1.5191816,51.652172 c -0.00656,-0.506453 0.028769,-1.013501 0,-1.519179 C 1.4702,49.272035 1.2368704,48.43375 1.0127877,47.601023 0.87133939,47.075378 0.73249548,46.52193 0.8623662,45.993306 c 0.0649354,-0.264312 0.2000535,-0.51571 0.4065992,-0.692957 0.2065458,-0.177246 0.4878006,-0.273945 0.75661,-0.231296 0.042483,0.0067 0.084522,0.01681 0.1274072,0.02015 0.042885,0.0033 0.087524,-5e-4 0.1257897,-0.02015 0.030306,-0.01556 0.055343,-0.04058 0.072811,-0.06982 0.017469,-0.02925 0.027544,-0.06261 0.031372,-0.09646 0.00766,-0.0677 -0.00922,-0.135868 -0.032089,-0.200052 -0.022865,-0.06418 -0.051867,-0.126284 -0.069913,-0.191985 -0.018047,-0.0657 -0.024588,-0.136926 -0.00218,-0.201271 0.019951,-0.05729 0.061333,-0.104835 0.1075169,-0.144174 0.046184,-0.03934 0.09776,-0.07182 0.1456801,-0.109024 C 2.7322918,43.900733 2.8620562,43.664867 2.914914,43.416824 2.9677719,43.16878 2.9477626,42.909159 2.8863861,42.663085 2.7636333,42.170938 2.483031,41.73538 2.2787723,41.2711 1.8664587,40.333911 1.7698204,39.288772 1.7662398,38.2649 c -0.00358,-1.023872 0.080313,-2.04934 0.00614,-3.070528 -0.019146,-0.263596 -0.048815,-0.528195 -0.025821,-0.791483 0.022994,-0.263288 0.1036576,-0.529963 0.2790175,-0.727696 0.079235,-0.08934 0.1756414,-0.162393 0.2531969,-0.253199 0.1557434,-0.182352 0.2253265,-0.426584 0.2325695,-0.666283 0.00724,-0.2397 -0.043266,-0.477333 -0.1042317,-0.709263 -0.060965,-0.23193 -0.1328218,-0.461759 -0.1698206,-0.698697 -0.036999,-0.236937 -0.037729,-0.484573 0.041483,-0.710922 0.062401,-0.178312 0.1714818,-0.336066 0.253197,-0.506394 0.1857863,-0.387255 0.2251653,-0.830533 0.1955789,-1.259027 -0.029586,-0.428495 -0.1245625,-0.84934 -0.1955789,-1.272943 -0.4480919,-2.672806 0.060531,-5.399052 0.253197,-8.102302 0.084094,-1.179902 0.1076413,-2.36677 0,-3.544757 C 2.6991868,15.010478 2.5295024,14.077214 2.2787723,13.16624 2.0322734,12.690327 1.860727,12.175688 1.7723785,11.647059 1.5545618,10.343762 1.8432904,9.016782 2.0733484,7.7155901 2.3034065,6.4143982 2.4701728,5.0422852 2.0255754,3.797954 1.890589,3.4201564 1.7009691,3.0607398 1.6066914,2.6707859 1.5595525,2.4758089 1.5368954,2.273308 1.5591125,2.0739478 1.5813295,1.8745876 1.6500258,1.6781404 1.7723785,1.5191816 1.9234818,1.3228705 2.1502919,1.1925496 2.3904355,1.1317111 2.630579,1.0708726 2.8837504,1.0758427 3.12821,1.1159647 3.6171291,1.1962086 4.0736646,1.4126871 4.5575447,1.5191816 5.1101048,1.6407915 5.685554,1.6159594 6.2455633,1.5353289 6.8055725,1.4546984 7.3561587,1.3192983 7.9131705,1.220054 c 0.5570119,-0.099244 1.126472,-0.162305 1.6884106,-0.096452 0.5619389,0.065853 1.1197249,0.2689741 1.5390839,0.6487764 0.265776,0.2407065 0.471187,0.5465184 0.759591,0.7595908 0.291512,0.2153686 0.647821,0.3213087 0.998759,0.4118898 0.350939,0.090581 0.709942,0.1717642 1.026816,0.3477009 0.473389,0.2628381 0.813741,0.7150352 1.265985,1.0127877 0.587219,0.3866184 1.341281,0.4843506 2.025882,0.3242828 0.6846,-0.1600677 1.299275,-0.5635239 1.772071,-1.0838735 0.254379,-0.2799648 0.471708,-0.5946393 0.751572,-0.8491296 0.139932,-0.1272451 0.29566,-0.2389921 0.468563,-0.3156516 0.172904,-0.07666 0.363796,-0.1173149 0.552244,-0.1012035 0.08534,0.0073 0.169385,0.02603 0.254708,0.033546 0.08532,0.00752 0.174266,0.00309 0.251686,-0.033546 0.0545,-0.025795 0.1008,-0.066427 0.141076,-0.111303 0.04028,-0.044876 0.07513,-0.094273 0.112121,-0.1418939 0.206159,-0.2654059 0.480196,-0.4755878 0.7843,-0.6186358 0.304104,-0.1430479 0.637691,-0.2198333 0.973256,-0.2382221 0.671129,-0.036778 1.338697,0.1580581 1.94161,0.4551489 1.205827,0.5941816 2.182156,1.5847304 3.390348,2.1740876 1.384004,0.6751187 2.97959,0.7776992 4.516446,0.6811211 1.536855,-0.096578 3.05952,-0.3794211 4.598643,-0.4279244 1.857561,-0.058538 3.725483,0.2246958 5.570333,0 0.936892,-0.1141099 1.853119,-0.3578156 2.785166,-0.5063937 2.921931,-0.4657865 5.903097,0.01281 8.861893,0 1.52009,-0.00658 3.044191,-0.1431173 4.557543,0 1.522458,0.1439785 3.061248,0.5689479 4.557546,0.253197 0.562002,-0.1185943 1.098008,-0.3341605 1.639769,-0.524962 0.541761,-0.1908015 1.094562,-0.3485184 1.651791,-0.4878257 l 1.012787,-0.253197 c 0.252684,0.019726 0.506906,0.019726 0.75959,0 0.595195,-0.046464 1.177599,-0.2017026 1.77238,-0.253197 1.063285,-0.092056 2.123987,0.1493046 3.164495,0.3867791 1.040507,0.2374745 2.102993,0.4742003 3.165429,0.3728116 0.470054,-0.044857 0.932001,-0.1555004 1.402143,-0.1994287 0.470142,-0.043928 0.962968,-0.016251 1.383022,0.1994287 0.16831,0.08642 0.324133,0.2024265 0.506394,0.253197 0.122615,0.034155 0.251861,0.037024 0.378934,0.029721 0.127074,-0.0073 0.253479,-0.024527 0.380656,-0.029721 0.349817,-0.014288 0.69746,0.062738 1.031556,0.1674083 0.334096,0.1046701 0.659019,0.2372486 0.99402,0.3389857 1.419142,0.4309818 2.939911,0.3084216 4.418363,0.1905732 1.478452,-0.1178483 2.960388,-0.1905732 4.44353,-0.1905732 h 8.861898 c 1.43541,0 2.8755,0.1372421 4.30434,0 1.79848,-0.1727471 3.5128,-0.9193818 5.31714,-1.0127877 1.26616,-0.065546 2.54492,0.1933 3.79795,0 0.50919,-0.078551 1.00443,-0.2306788 1.51198,-0.319212 0.50756,-0.088533 1.0424,-0.1106184 1.52639,0.066015 0.46342,0.1691257 0.84316,0.5054516 1.26598,0.7595907 1.11925,0.6727349 2.5141,0.7451921 3.79795,0.506394 0.76522,-0.1423322 1.50962,-0.3871507 2.27878,-0.506394 1.2534,-0.1943155 2.53057,-0.050037 3.79795,0 3.88332,0.1533151 7.77475,-0.5831856 11.64706,-0.253197 0.88937,0.07579 1.77398,0.2076797 2.66534,0.254602 0.89136,0.046922 1.79828,0.00662 2.65179,-0.254602 0.25522,-0.078112 0.50423,-0.1755257 0.75959,-0.2531967 0.85365,-0.2596486 1.76082,-0.2933394 2.65169,-0.243516 0.89087,0.049823 1.77539,0.1809195 2.66545,0.243516 3.53862,0.2488644 7.08691,-0.253197 10.63427,-0.253197 h 7.59591 c 0.75983,0 1.52143,-0.061477 2.27877,0 0.46644,0.037863 0.92534,0.1374948 1.38773,0.2095776 0.46239,0.072083 0.93518,0.116546 1.39744,0.043619 0.51566,-0.081351 0.99697,-0.3051351 1.46212,-0.5420998 0.46515,-0.2369647 0.92614,-0.4912868 1.42609,-0.6415223 0.49995,-0.1502355 1.05188,-0.1893311 1.53643,0.00492 0.24227,0.097126 0.46311,0.2523023 0.62472,0.457266 0.16162,0.2049637 0.26193,0.4604845 0.26777,0.7214358 0.002,0.084403 -0.006,0.1689764 0,0.2531967 0.01,0.136971 0.0556,0.2706378 0.12821,0.3871611 0.0726,0.1165233 0.17143,0.2160193 0.28467,0.2936709 0.22647,0.1553031 0.50607,0.2208799 0.78068,0.2216183 0.54921,0.00148 1.06518,-0.239522 1.59161,-0.3960563 1.54514,-0.4594469 3.19987,-0.192731 4.81074,-0.253197 1.01576,-0.038128 2.02289,-0.207941 3.03836,-0.253197 1.51857,-0.067677 3.04427,0.1436262 4.55755,0 0.93995,-0.089211 1.86077,-0.314114 2.78516,-0.5063937 2.34155,-0.4870617 4.82151,-0.7590942 7.08952,0 0.50653,0.1695338 0.99802,0.3893091 1.51918,0.5063937 0.66079,0.1484542 1.34723,0.1269157 2.02276,0.078435 0.67552,-0.048481 1.35261,-0.1231697 2.02839,-0.078435 0.42509,0.02814 0.84593,0.1033741 1.27086,0.1338869 0.42493,0.030513 0.86174,0.014428 1.26111,-0.1338869 0.35413,-0.1315155 0.66402,-0.3612552 1.01279,-0.5063937 0.62944,-0.2619371 1.33978,-0.2315962 2.01635,-0.1475464 0.67657,0.08405 1.35665,0.217667 2.0348,0.1475464 0.77499,-0.080134 1.50416,-0.4226607 2.27877,-0.5063939 0.67188,-0.072629 1.35181,0.052305 2.02558,0 0.59546,-0.046225 1.17558,-0.2301248 1.77238,-0.2531969 0.59828,-0.023129 1.18958,0.1159887 1.77237,0.2531969 0.91943,0.2164636 1.84361,0.4310929 2.78517,0.5063939 0.50532,0.040413 1.01386,0.040413 1.51918,0 0.39973,0.2185924 0.82578,0.3890101 1.26599,0.5063937 0.65894,0.1757082 1.34394,0.231755 2.02557,0.253197 3.46649,0.1090452 6.97511,-0.6541243 10.38107,0 0.50464,0.096918 1.0061,0.2249188 1.51919,0.253197 0.6751,0.037207 1.35677,-0.099195 2.02557,0 0.60846,0.090245 1.17242,0.3707037 1.77238,0.5063937 0.82726,0.1870959 1.68893,0.092938 2.53197,0 4.71851,-0.5201716 9.53208,-0.9699802 14.17902,0 0.50651,0.1057255 1.01209,0.2284772 1.52835,0.263143 0.51626,0.034666 1.05121,-0.023927 1.51001,-0.263143 0.1677,-0.087435 0.32531,-0.1987454 0.50642,-0.2531967 0.20322,-0.061096 0.42081,-0.046015 0.63173,-0.022771 0.21093,0.023244 0.42437,0.054071 0.63425,0.022771 0.2257,-0.033659 0.43422,-0.1372374 0.63659,-0.2426751 0.20238,-0.1054378 0.40635,-0.2154156 0.62938,-0.2637189 0.20683,-0.044796 0.4213,-0.034548 0.63228,-0.018058 0.21099,0.01649 0.42311,0.039003 0.6337,0.018058 0.36065,-0.035871 0.69562,-0.1965718 1.01876,-0.3606715 0.32315,-0.1640997 0.64981,-0.3364598 1.00681,-0.3989192 0.33407,-0.058447 0.67643,-0.017381 1.01373,0.017858 0.33731,0.035239 0.68276,0.064008 1.01187,-0.017858 0.44212,-0.1099782 0.82041,-0.4113512 1.26598,-0.5063939 0.37521,-0.080034 0.76365,-0.00697 1.1431,0.049651 0.37945,0.056619 0.78007,0.094341 1.13567,-0.049651 0.17504,-0.070877 0.33106,-0.1830383 0.50639,-0.2531969 0.27687,-0.1107895 0.58537,-0.1105554 0.88216,-0.081429 0.29678,0.029126 0.59205,0.085532 0.89023,0.081429 0.51596,-0.0071 1.0123,-0.1947718 1.47821,-0.4165723 0.4659,-0.2218006 0.91632,-0.48112523 1.40469,-0.64774461 0.48837,-0.16661937 1.03048,-0.2351717 1.51818,-0.0665942 0.24385,0.0842888 0.46916,0.2280333 0.63585,0.42496401 0.16669,0.1969307 0.27237,0.4480609 0.28019,0.7059471 0.01,0.3250864 -0.13136,0.63541 -0.29546,0.9162121 -0.1641,0.280802 -0.3557,0.5495357 -0.46413,0.8561664 -0.11384,0.3219356 -0.13006,0.669074 -0.14047,1.0103847 -0.0104,0.3413108 -0.0168,0.6874645 -0.11271,1.0151907 -0.1063,0.3632503 -0.3169,0.6851661 -0.50641,1.0127877 -0.0946,0.163524 -0.18476,0.3303094 -0.25318,0.5063939 -0.23124,0.5950966 -0.20104,1.2575025 -0.12549,1.8914599 0.0756,0.6339573 0.19321,1.2716531 0.12549,1.9064941 -0.032,0.299965 -0.10524,0.601915 -0.0575,0.899786 0.0239,0.148935 0.0794,0.295172 0.17614,0.410886 0.0968,0.115714 0.23728,0.198441 0.38778,0.208509 0.0843,0.0056 0.16943,-0.01099 0.25321,0 0.12291,0.01613 0.23358,0.09267 0.30459,0.19428 0.071,0.101606 0.10462,0.226209 0.10983,0.35006 0.0104,0.247701 -0.0865,0.485271 -0.16124,0.721645 -0.36016,1.138473 -0.22223,2.371534 0,3.544757 0.217,1.145611 0.5115,2.280807 0.6039,3.443122 0.0924,1.162315 -0.0319,2.377174 -0.6039,3.393195 -0.13982,0.248351 -0.30461,0.481839 -0.44788,0.728219 -0.14327,0.24638 -0.26613,0.509626 -0.31171,0.790963 -0.0544,0.335835 0.004,0.678175 0.0462,1.015712 0.0426,0.337537 0.0683,0.689509 -0.0462,1.009863 -0.0636,0.177878 -0.16779,0.337889 -0.25318,0.506394 -0.28342,0.55929 -0.35493,1.20661 -0.30955,1.831968 0.0454,0.625357 0.2017,1.2366 0.3537,1.844899 0.152,0.608298 0.30101,1.222081 0.33124,1.848353 0.0302,0.626273 -0.0652,1.272569 -0.37539,1.817491 -0.0937,0.164651 -0.20772,0.322484 -0.25321,0.506394 -0.0311,0.12557 -0.0283,0.257399 -0.011,0.385591 0.0173,0.128192 0.0488,0.253965 0.0749,0.380652 0.0261,0.126686 0.047,0.255503 0.0425,0.384779 -0.004,0.129277 -0.0356,0.259955 -0.10647,0.36816 -0.0657,0.100238 -0.16143,0.176148 -0.25321,0.253196 -1.25532,1.053875 -2.02445,2.670472 -2.03084,4.30951 -0.006,1.639037 0.75618,3.26878 2.03084,4.299185 0.0933,0.07546 0.19143,0.150285 0.25321,0.253198 0.0673,0.11211 0.0849,0.248407 0.0742,0.378719 -0.0108,0.130312 -0.0482,0.256745 -0.0845,0.382363 -0.0363,0.125618 -0.072,0.252739 -0.0792,0.383299 -0.007,0.130559 0.0162,0.266549 0.0895,0.374801 0.0677,0.09995 0.1715,0.168319 0.26877,0.23984 0.0486,0.03576 0.0964,0.07308 0.13826,0.1166 0.0418,0.04352 0.0777,0.0936 0.0994,0.149954 0.031,0.08058 0.031,0.172614 0,0.253195 0.0849,0.168547 0.1693,0.337346 0.2532,0.506394 0.27603,0.556178 0.54898,1.121677 0.68143,1.728295 0.13246,0.606618 0.11341,1.266619 -0.17504,1.816463 -0.0444,0.0846 -0.0957,0.168667 -0.10947,0.263209 -0.007,0.04727 -0.004,0.09665 0.0142,0.14092 0.0179,0.04427 0.0516,0.08299 0.0953,0.102265 0.0391,0.01723 0.0834,0.01825 0.12592,0.01421 0.0425,-0.004 0.0846,-0.01283 0.12729,-0.01421 0.0862,-0.0028 0.1727,0.02576 0.24153,0.07767 0.0688,0.05192 0.11977,0.126628 0.14492,0.209094 0.0251,0.08247 0.0247,0.172257 6.2e-4,0.255049 -0.0241,0.08279 -0.0714,0.158418 -0.13389,0.217774 -0.0653,0.06197 -0.14658,0.106098 -0.23286,0.13175 -0.0863,0.02565 -0.17744,0.03316 -0.26723,0.02684 -0.17958,-0.01264 -0.35102,-0.0794 -0.51269,-0.158587 -0.29191,-0.14298 -0.56117,-0.328064 -0.84787,-0.481219 -0.28671,-0.153156 -0.59948,-0.275901 -0.92452,-0.278371 -0.42373,-0.0032 -0.82199,0.196327 -1.24141,0.256757 -0.2097,0.03021 -0.42968,0.0241 -0.62531,-0.05726 -0.0978,-0.04068 -0.18839,-0.100044 -0.26098,-0.1772 -0.0726,-0.07716 -0.12679,-0.172371 -0.15105,-0.275492 -0.0195,-0.08289 -0.0195,-0.170305 0,-0.253196 h -0.75959 c -1.09723,0 -2.19476,-0.03025 -3.29158,0 -1.30045,0.03586 -2.62667,0.193431 -3.79796,0.75959 -0.16992,0.08213 -0.33578,0.172505 -0.50638,0.253198 -1.08628,0.513796 -2.32674,0.616186 -3.5254,0.531259 -1.19865,-0.08493 -2.37659,-0.347434 -3.56411,-0.531259 -2.76323,-0.427741 -5.59227,-0.427741 -8.3555,0 -0.35761,-0.291847 -0.80576,-0.471108 -1.26599,-0.506394 -0.33844,-0.02595 -0.67738,0.02389 -1.01536,0.05524 -0.33797,0.03135 -0.68541,0.04334 -1.01021,-0.05524 -0.2185,-0.06631 -0.41881,-0.180308 -0.62231,-0.283883 -0.2035,-0.103575 -0.41658,-0.198762 -0.64368,-0.222511 -0.16864,-0.01763 -0.3385,0.0048 -0.50734,0.02045 -0.16884,0.01563 -0.34183,0.02409 -0.50544,-0.02045 -0.18264,-0.04972 -0.3407,-0.161697 -0.5064,-0.253198 -0.45783,-0.252811 -0.99054,-0.353358 -1.51324,-0.335962 -0.5227,0.0174 -1.0368,0.148714 -1.52512,0.335962 -0.42451,0.16278 -0.83288,0.368125 -1.26599,0.506394 -0.49039,0.156553 -1.0052,0.2246 -1.51918,0.253198 -1.01137,0.05627 -2.02542,0 -3.03836,0 h -7.34271 -8.6087 c -1.09805,0 -2.2025,0.140179 -3.29156,0 -1.03656,-0.133421 -2.00562,-0.599227 -3.03836,-0.759592 -0.7097,-0.110203 -1.43292,-0.07828 -2.15051,-0.04835 -0.71758,0.02993 -1.43563,0.04835 -2.15384,0.04835 h -10.63427 c -0.68116,0 -1.36202,0.02476 -2.04313,0.03291 -0.68112,0.0082 -1.38236,-0.01679 -2.00802,-0.28611 -0.17338,-0.07463 -0.3382,-0.167491 -0.50639,-0.253198 -1.87405,-0.955009 -4.20725,-0.963928 -6.07673,0 -0.16779,0.08652 -0.33219,0.180433 -0.50639,0.253198 -0.43468,0.181572 -0.91661,0.225051 -1.38698,0.199277 -0.47038,-0.02577 -0.93414,-0.118168 -1.39819,-0.199277 -3.00404,-0.525065 -6.08333,-0.582398 -9.11509,-0.253198 -1.18675,0.128861 -2.36625,0.316437 -3.54476,0.506394 -1.51057,0.24348 -3.02754,0.491634 -4.55754,0.506394 -1.69035,0.01631 -3.3924,-0.25204 -5.06394,0 -0.76519,0.115379 -1.51105,0.338432 -2.27633,0.453245 -0.76528,0.114812 -1.57427,0.114703 -2.28121,-0.200047 -0.46205,-0.205718 -0.8715,-0.541316 -1.36539,-0.650335 -0.24694,-0.05451 -0.5143,-0.04682 -0.74178,0.06365 -0.11374,0.05524 -0.21586,0.135741 -0.29156,0.237019 -0.0757,0.101277 -0.12435,0.223533 -0.13324,0.349665 -0.006,0.08423 0.006,0.168942 0,0.253196 -0.0112,0.16869 -0.0924,0.32946 -0.21292,0.448036 -0.1205,0.118575 -0.27823,0.196104 -0.44338,0.232225 -0.33031,0.07224 -0.67589,-0.01754 -0.98566,-0.153071 -0.30976,-0.135531 -0.59859,-0.316666 -0.91278,-0.441602 -0.15709,-0.06247 -0.32074,-0.11074 -0.48872,-0.129863 -0.16797,-0.01912 -0.34068,-0.0085 -0.5013,0.04427 -0.17957,0.05895 -0.33785,0.167679 -0.5064,0.253198 -0.38594,0.195821 -0.8262,0.26852 -1.25886,0.258991 -0.43267,-0.0095 -0.85998,-0.09833 -1.27773,-0.211376 -0.83549,-0.226094 -1.6618,-0.553231 -2.52734,-0.554009 -0.42595,-3.83e-4 -0.84748,0.07892 -1.27158,0.118542 -0.42411,0.03962 -0.86399,0.03735 -1.26039,-0.118542 -0.17573,-0.06911 -0.33852,-0.166745 -0.5064,-0.253198 -1.03223,-0.531567 -2.23857,-0.629328 -3.39587,-0.536009 -1.1573,0.09332 -2.29192,0.365865 -3.44044,0.536009 -3.14184,0.465439 -6.33945,0.160171 -9.50666,-0.07772 -3.16722,-0.237894 -6.39299,-0.403225 -9.48311,0.330921 -1.37455,0.326564 -2.71265,0.829334 -4.11546,0.997089 -0.70141,0.08388 -1.41808,0.08199 -2.10821,-0.06876 -0.69013,-0.150749 -1.35402,-0.455268 -1.87864,-0.92833 -0.0887,-0.07997 -0.17323,-0.164515 -0.25319,-0.253198 -0.15564,-0.107852 -0.32672,-0.193392 -0.50639,-0.253196 -0.48789,-0.162397 -1.01965,-0.131281 -1.51919,-0.253198 -0.62551,-0.152659 -1.16854,-0.536104 -1.77237,-0.75959 -0.71923,-0.266196 -1.50507,-0.29787 -2.27013,-0.244537 -0.76505,0.05333 -1.52257,0.188338 -2.28742,0.244537 -2.27648,0.16727 -4.58307,-0.364986 -6.83632,0 -0.84995,0.137677 -1.67737,0.401422 -2.53197,0.506394 -1.006371,0.123614 -2.024719,0.02433 -3.038361,0 -2.464237,-0.05914 -4.916213,0.325906 -7.342709,0.75959 -0.587801,0.105057 -1.176603,0.213231 -1.77238,0.253198 -0.926506,0.06215 -1.856577,0 -2.785165,0 h -6.329924 c -1.69072,0 -3.374365,0.190881 -5.063937,0.253196 -1.096513,0.04044 -2.194303,0 -3.291562,0 h -9.874678 c -0.42481,0 -0.850209,-0.01178 -1.271983,-0.06247 -0.421774,-0.05069 -0.838943,-0.134282 -1.259987,-0.190722 -2.093051,-0.280567 -4.218152,0 -6.329924,0 H 38.232736 29.624041 c -0.607615,0 -1.211892,0.07688 -1.807012,0.199466 -0.297561,0.06129 -0.598898,0.120121 -0.902544,0.110192 -0.151822,-0.005 -0.303767,-0.02783 -0.447359,-0.0774 -0.143591,-0.04956 -0.278841,-0.126462 -0.387842,-0.232262 -0.08581,-0.08329 -0.1555,-0.18424 -0.253197,-0.253198 -0.07114,-0.05021 -0.154735,-0.08133 -0.24047,-0.09653 -0.08574,-0.01521 -0.173698,-0.01488 -0.2603,-0.0058 -0.173206,0.01808 -0.34082,0.07046 -0.512018,0.102375 -0.521018,0.09712 -1.061137,0.0017 -1.564423,-0.164462 -0.503286,-0.166117 -0.980593,-0.401477 -1.47394,-0.595128 -0.690613,-0.271083 -1.41944,-0.461123 -2.160928,-0.486178 -0.741487,-0.02506 -1.497654,0.120914 -2.14342,0.486178 -0.164724,0.09317 -0.32441,0.201265 -0.506394,0.253196 -0.277616,0.07922 -0.577552,0.01841 -0.84574,-0.08846 -0.268188,-0.106872 -0.51657,-0.25831 -0.782712,-0.37018 -0.266142,-0.111869 -0.561912,-0.183758 -0.843534,-0.120234 -0.140811,0.03176 -0.275158,0.09805 -0.37867,0.198654 -0.103513,0.100607 -0.174632,0.236462 -0.187707,0.380218 -0.0076,0.0841 0.0042,0.168854 0,0.253198 -0.0064,0.130014 -0.05147,0.25723 -0.12424,0.365162 -0.07277,0.107931 -0.172719,0.196691 -0.286111,0.26062 -0.226784,0.12786 -0.501586,0.15387 -0.757909,0.108289 -0.256322,-0.04558 -0.496408,-0.158402 -0.718819,-0.293725 -0.22241,-0.135324 -0.429796,-0.293672 -0.64489,-0.440346 -1.25547,-0.856114 -2.779761,-1.303261 -4.299308,-1.292658 -1.519547,0.0106 -3.0288279,0.474549 -4.3093877,1.292658 -0.3559503,0.227405 -0.6948124,0.481552 -1.0127878,0.75959 z"
       id="path5"
       inkscape:path-effect="#path-effect6"
       inkscape:original-d="m 1.7723785,53.677748 c 0.2378713,-0.845735 -0.1093983,-1.306581 -0.2531969,-2.025576 -0.099312,-0.496559 0.099312,-1.02262 0,-1.519179 -0.1949057,-0.974529 -0.75028495,-1.312516 -0.5063939,-2.53197 0.131085,-0.655426 0.6463099,-1.982253 1.0127877,-2.53197 0.046816,-0.07022 0.2265077,0.08007 0.2531969,0 0.080068,-0.240205 -0.061409,-0.513953 0,-0.75959 0.028949,-0.115795 0.2154526,-0.139964 0.253197,-0.253198 0.276047,-0.82814 -0.084492,-2.025994 -0.253197,-2.785165 -0.3148139,-1.416664 -0.8882067,-4.549476 -0.5063938,-6.076728 0.0015,-0.006 0.2519436,-1.514168 0.2531969,-1.519179 0.028949,-0.115795 0.2242483,-0.137404 0.2531969,-0.253199 0.2184445,-0.873778 -0.2184444,-1.911389 0,-2.785165 0.045772,-0.183087 0.2074252,-0.323308 0.253197,-0.506394 0.1991289,-0.796518 -0.161352,-1.725211 0,-2.53197 0.5201492,-2.600745 0.253197,-5.423218 0.253197,-8.102302 0,-1.134991 0.1857719,-2.430125 0,-3.544757 C 2.6249688,14.990222 2.4148194,14.11857 2.2787723,13.16624 2.5718221,12.507162 1.8601324,12.173582 1.7723785,11.647059 1.3407574,9.0573319 2.0255754,6.3337519 2.0255754,3.797954 c 0,-0.309463 -0.4523455,-2.0796239 -0.2531969,-2.2787724 0.016806,-0.016806 2.5565035,0 2.7851662,0 0.4989907,0 6.4771973,0.2002355 6.5831203,0.2531969 0.295556,0.1477781 0.453876,0.6373049 0.759591,0.7595908 0.549091,0.2196367 1.52293,0.3826068 2.025575,0.7595907 0.358295,0.2687209 0.46934,0.8800137 1.265985,1.0127877 1.14939,0.1915652 2.796222,-0.2587249 3.797953,-0.7595907 0.289397,-0.1446985 1.358862,-1.1005777 1.772379,-1.2659847 0.156725,-0.06269 0.346258,0.053379 0.506394,0 0.113233,-0.037744 0.139964,-0.2154525 0.253197,-0.2531969 0.879544,-0.2931814 5.917267,1.5379292 7.089514,1.7723786 2.9073,0.58146 6.154348,0.2531967 9.115089,0.2531967 1.841264,0 3.739425,0.1408391 5.570333,0 3.531553,-0.271658 -0.315304,-0.1963467 2.785166,-0.5063937 2.866223,-0.2866223 5.99195,0 8.861893,0 1.429946,0 3.136876,-0.236778 4.557543,0 1.401242,0.23354 3.126859,0.5393341 4.557546,0.253197 1.084334,-0.216867 2.216634,-0.705666 3.29156,-1.0127877 0.337595,-0.084399 0.675192,-0.1687981 1.012787,-0.253197 0.253196,0 0.51131,0.049656 0.75959,0 0.582769,-0.1165536 1.116642,-0.4171315 1.77238,-0.253197 1.739982,0.4349959 4.628764,0.6461803 6.329924,0.7595907 0.994701,0.066314 1.740728,-0.1160486 2.785165,0 0.187569,0.020841 0.321337,0.2161858 0.506394,0.253197 0.24828,0.049656 0.508939,-0.035807 0.75959,0 0.688977,0.098425 1.334979,0.4200692 2.025576,0.506394 2.786483,0.3483105 6.018379,0 8.861893,0 2.953964,0 5.907929,0 8.861898,0 1.39612,0 2.91871,0.1732042 4.30434,0 1.78396,-0.2229943 3.55863,-0.7615722 5.31714,-1.0127877 1.24095,-0.1772788 2.55385,0.1555123 3.79795,0 0.92506,-0.1156319 2.06351,-0.4969111 3.03837,-0.253197 0.33072,0.082682 1.07149,0.6428973 1.26598,0.7595907 1.07464,0.6447854 2.56378,0.6827036 3.79795,0.506394 0.76087,-0.1086948 1.51791,-0.3976992 2.27878,-0.506394 1.20918,-0.1727406 2.57371,0 3.79795,0 3.86646,0 7.82548,0.2245 11.64706,-0.253197 1.7439,-0.217987 3.57787,0.2484658 5.31713,0 0.26421,-0.037744 0.49433,-0.2237234 0.75959,-0.2531967 1.74255,-0.1936168 3.56684,0.097239 5.31714,0 3.55415,-0.1974532 7.06801,-0.253197 10.63427,-0.253197 2.53197,0 5.06394,0 7.59591,0 0.40871,0 1.74512,-0.1778832 2.27877,0 0.98644,0.3288131 1.65824,0.253197 2.78517,0.253197 0.9117,0 4.79355,-0.2617918 5.31713,0 0.0755,0.037744 -0.0755,0.2154523 0,0.2531967 0.33261,0.1663028 2.29658,0.4249621 2.78517,0.506394 1.55893,0.2598222 3.28635,-0.062649 4.81074,-0.253197 1.03755,-0.1296942 1.99777,-0.079764 3.03836,-0.253197 1.47813,-0.2463538 3.07942,0.2463538 4.55755,0 0.93246,-0.1554099 1.8527,-0.3509835 2.78516,-0.5063937 1.02616,-0.1710265 6.06878,-0.204147 7.08952,0 0.50643,0.1012868 1.01275,0.405107 1.51918,0.5063937 1.24561,0.2491217 2.77664,0 4.05115,0 0.73507,0 1.83342,0.1746391 2.53197,0 0.36617,-0.091543 0.64987,-0.402702 1.01279,-0.5063937 1.20396,-0.3439882 2.81101,0.1550173 4.05115,0 0.77211,-0.096514 1.50847,-0.3963511 2.27877,-0.5063939 0.66042,-0.094346 1.36787,0.1096181 2.02558,0 0.37915,-0.063192 1.30985,-0.4844607 1.77238,-0.2531969 0.62284,0.3114224 1.05023,0.1328393 1.77237,0.2531969 0.93246,0.1554101 1.85271,0.3509838 2.78517,0.5063939 0.4995,0.083251 1.01968,-0.083251 1.51918,0 0.51517,-0.08794 0.82031,0.4172585 1.26599,0.5063937 0.66723,0.1334466 1.35038,0.1687981 2.02557,0.253197 3.40548,0.4256852 6.95846,-0.2852176 10.38107,0 0.51161,0.042634 1.00836,0.2021139 1.51919,0.253197 0.67184,0.067184 1.35559,-0.083747 2.02557,0 0.60969,0.076211 1.16171,0.4385411 1.77238,0.5063937 0.83883,0.093203 1.68798,0 2.53197,0 4.72627,0 9.45809,0.5901172 14.17902,0 1.00496,-0.1256207 2.03062,0.1007764 3.03836,0 0.18781,-0.018777 0.32134,-0.2161855 0.50642,-0.2531967 0.41378,-0.08276 0.85217,0.08276 1.26598,0 0.44566,-0.089135 0.82031,-0.4172588 1.26597,-0.506394 0.41381,-0.08276 0.85659,0.1023488 1.26598,0 0.69482,-0.1737008 1.34461,-0.5326012 2.02557,-0.7595907 0.57386,-0.1912851 1.4392,0.09773 2.0256,0 2.22261,-0.3704345 -0.38706,-0.093139 1.26598,-0.5063939 0.71345,-0.1783607 1.55784,0.144186 2.27877,0 0.18505,-0.037011 0.32735,-0.1935178 0.50639,-0.2531969 0.4568,-0.1522666 1.32556,0 1.77239,0 0.94464,0 5.30627,-0.010842 5.31712,0 0.36219,0.3621732 -0.70546,1.5016915 -0.75959,1.7723785 -0.10962,0.5481569 0.0111,1.4970636 -0.25318,2.0255754 -0.005,0.010824 -0.50641,0.063994 -0.50641,1.0127877 0,0.6408144 -0.23408,0.4490624 -0.25318,0.5063939 -0.16494,0.4947894 -0.15235,3.188562 0,3.797954 0.0533,0.213408 0.40121,1.41402 0.50638,1.519181 0.0597,0.05968 0.22651,-0.08007 0.25321,0 0.28146,0.844452 -0.0647,0.630192 0.25318,1.265985 0.25188,0.503764 0,2.803726 0,3.544757 0,1.372442 0.27445,6.012998 0,6.836317 -0.1741,0.52228 -0.62627,0.985929 -0.75959,1.519182 -0.15841,0.6336 0.12813,1.384865 0,2.025575 -0.037,0.185057 -0.21619,0.321336 -0.25318,0.506394 -0.47115,2.355696 0.39528,4.970954 0,7.342711 -0.031,0.186153 -0.22217,0.320239 -0.25321,0.506394 -0.0833,0.499504 0.16013,1.038773 0,1.519182 -0.0378,0.113231 -0.22426,0.137401 -0.25321,0.253196 -0.0941,0.376258 -0.13964,8.18973 0,8.608695 0.0378,0.113233 0.21545,0.139964 0.25321,0.253198 0.15192,0.455755 -0.15192,1.063426 0,1.519182 0.0755,0.226465 0.39963,0.292878 0.50639,0.506394 0.0378,0.07549 0,0.168796 0,0.253195 0.0844,0.168799 0.14851,0.34937 0.2532,0.506394 0.61783,0.926746 0.50639,2.350122 0.50639,3.544758 0,0.168799 -0.0755,0.355415 0,0.506394 0.0378,0.07549 0.19352,-0.05968 0.25321,0 0.0246,0.02471 0.33758,0.67519 0.25318,0.75959 -0.23871,0.238718 -0.6925,0.106757 -1.01278,0 -0.58592,-0.195302 -1.08635,-0.588084 -1.77239,-0.75959 -0.7325,-0.183128 -1.55871,-0.01318 -2.27875,-0.253198 -0.0801,-0.02669 0,-0.168796 0,-0.253196 -0.2532,0 -0.50641,0 -0.75959,0 -0.85953,0 -2.44798,-0.281196 -3.29158,0 -1.27883,0.426278 -2.45385,0.490773 -3.79796,0.75959 -0.18505,0.03701 -0.32022,0.222173 -0.50638,0.253198 -1.85799,0.309663 -5.08035,0 -7.08951,0 -2.60895,0 -5.83244,0.315381 -8.3555,0 -0.97236,0.913564 -0.82031,-0.417258 -1.26599,-0.506394 -0.66208,-0.132416 -1.35957,0.111001 -2.02557,0 -0.16103,-0.02684 -1.18271,-0.489738 -1.26599,-0.506394 -0.33104,-0.06621 -0.67978,0.0555 -1.01278,0 -0.18616,-0.03102 -0.32331,-0.207425 -0.5064,-0.253198 -0.69095,-0.172736 -2.32151,-0.14337 -3.03836,0 -1.31718,0.263438 -0.2532,0.168799 -1.26599,0.506394 -0.39187,0.130625 -1.12973,0.155837 -1.51918,0.253198 -0.85252,0.21313 -2.15485,0 -3.03836,0 -2.44757,0 -4.89514,0 -7.34271,0 -2.86957,0 -5.73913,0 -8.6087,0 -1.02882,0 -2.2817,0.201973 -3.29156,0 -1.03546,-0.207094 -2.00114,-0.586721 -3.03836,-0.759592 -1.33219,-0.22203 -2.94587,0 -4.30435,0 -3.54476,0 -7.08951,0 -10.63427,0 -1.40394,0 -2.70643,-0.02907 -4.05115,-0.253196 -0.18615,-0.03102 -0.32134,-0.216185 -0.50639,-0.253198 -0.94182,-0.188362 -5.18508,-0.148606 -6.07673,0 -0.18616,0.03103 -0.32331,0.207425 -0.50639,0.253198 -0.74582,0.186455 -2.07309,0 -2.78517,0 -3.06612,0 -6.05694,-0.253198 -9.11509,-0.253198 -1.11208,0 -2.42414,0.346305 -3.54476,0.506394 -1.53417,0.219168 -3.04162,0.127415 -4.55754,0.506394 -1.19417,0.298543 -3.71534,0 -5.06394,0 -1.55787,0 -3.0038,0.253198 -4.55754,0.253198 -0.60825,0 -1.9995,-0.266237 -2.53197,0 -0.0755,0.03774 0.0755,0.215453 0,0.253196 -0.70237,0.351184 -2.69434,-0.212606 -3.54476,0 -0.18309,0.04577 -0.32331,0.207425 -0.5064,0.253198 -1.40866,0.352166 -3.74902,-0.06809 -5.06393,-0.506394 -0.7546,-0.251531 -1.74724,0.156946 -2.53197,0 -0.18506,-0.03701 -0.32331,-0.207425 -0.5064,-0.253198 -1.28278,-0.320696 -5.41767,0 -6.83631,0 -6.44337,0 -12.56197,0.253198 -18.98977,0.253198 -1.54065,0 -7.19876,0.301183 -8.10231,0 -0.11323,-0.03775 -0.16879,-0.168799 -0.25319,-0.253198 -0.1688,-0.0844 -0.32331,-0.207425 -0.50639,-0.253196 -0.57689,-0.144221 -0.90602,-0.09991 -1.51919,-0.253198 -0.28685,-0.07171 -1.26659,-0.633143 -1.77237,-0.75959 -1.15125,-0.287811 -3.32196,0 -4.55755,0 -1.88929,0 -5.25968,-0.315327 -6.83632,0 -0.84872,0.169744 -1.66317,0.382281 -2.53197,0.506394 -0.990105,0.141444 -2.052277,-0.164346 -3.038361,0 -2.409563,0.401593 -4.898237,0.41038 -7.342709,0.75959 -0.686916,0.09813 -1.159227,-0.05338 -1.77238,0.253198 -0.604811,0.302406 -2.131039,0 -2.785165,0 -2.109976,0 -4.219948,0 -6.329924,0 -1.695259,0 -3.45931,-0.14796 -5.063937,0.253196 -0.984083,0.246023 -2.298279,0 -3.291562,0 -3.291559,0 -6.583119,0 -9.874678,0 -0.964666,0 -1.640163,-0.03025 -2.53197,-0.253196 -1.199142,-0.299786 -4.875678,0 -6.329924,0 -4.557545,0 -9.115089,0 -13.672634,0 -2.869565,0 -5.73913,0 -8.608695,0 -1.084863,0 -2.51111,0.258411 -3.544757,0 -0.115795,-0.02895 -0.14644,-0.199818 -0.253197,-0.253198 -0.221345,-0.110673 -0.798981,0.05345 -1.012788,0 -0.919231,-0.229807 -2.242362,-0.36159 -3.038363,-0.75959 -0.368037,-0.184017 -3.933938,-0.07408 -4.304348,0 -0.185057,0.03701 -0.321337,0.216186 -0.506394,0.253196 -0.82734,0.16547 -2.289099,-0.374632 -3.038363,0 -0.07549,0.03775 0.08007,0.22651 0,0.253198 -0.646196,0.215398 -1.837378,0 -2.531969,0 -1.087954,0 -8.0673566,-0.270668 -8.6086957,0 -0.3774438,0.188722 -0.6751919,0.506394 -1.0127878,0.75959 z" />
    <path
       style="font-size:58.6667px;line-height:1.25;font-family:Titilliumweb_semibold;-inkscape-font-specification:Titilliumweb_semibold;text-align:center;text-anchor:middle;white-space:pre;fill:#ff7e00;stroke-width:3.77953"
       d="m 469.75813,83.069614 q -0.58667,-0.293334 -2.75733,-0.528 -0.41067,-0.05867 -1.11467,-0.05867 -1.11467,0 -2.52267,0.586667 l -1.70133,0.704 v 7.744004 q 0.0587,7.744005 0.46933,8.037338 0.41067,0.293334 3.168,0.293334 2.816,0 3.81334,-0.586667 1.056,-0.586667 2.17066,-2.757335 1.11467,-2.229335 1.11467,-3.637335 0,-0.176001 -0.0587,-0.704001 0,-0.528 0,-0.821334 -0.11733,-2.874668 -0.88,-5.338669 -0.76266,-2.464002 -1.70133,-2.933335 z M 452.86212,66.466938 q 0.23467,-1.408001 0.58667,-1.408001 0.41066,0 3.696,1.114668 3.344,1.056 3.57867,1.290667 0.11733,0.117333 0.46933,3.344002 0.41067,3.226668 0.46934,3.344002 0.23466,0.293333 1.64266,0.117333 0.29334,-0.05867 1.232,-0.05867 1.70134,0 3.34401,0.176001 8.15467,0.88 10.26667,6.688003 0.82133,2.229335 1.17333,2.757335 1.11467,1.818668 1.11467,8.506671 0,2.170668 -0.23467,3.285335 -0.41066,2.346668 -2.34667,5.749333 -1.936,3.46134 -3.28533,4.45867 -1.408,0.99734 -3.872,1.408 -2.40534,0.41067 -7.56801,0.528 -1.936,0.0587 -4.28267,0.0587 -2.34666,0 -3.168,-0.528 -0.93866,-0.64533 -1.52533,-1.87733 -0.41067,-0.82134 -0.528,-3.10934 -0.0587,-2.22933 -0.176,-13.200006 -0.0587,-16.485342 -0.58667,-19.888011 -0.11733,-0.704 -0.11733,-1.408001 0,-0.645333 0.11733,-1.349334 z m 41.4774,8.506671 q 0.176,-0.176 0.352,-0.176 0.82133,0 0.82133,2.346668 0,0.762667 -0.176,1.466668 -0.41066,1.349334 -0.41066,4.165335 0,2.640002 0.82133,5.045336 0.704,2.053335 0.704,3.402669 0,1.173334 -0.0587,1.994668 -0.11733,2.112001 -0.11733,2.229334 0,1.114668 0.46933,1.408001 0.41067,0.410667 2.22934,0.704 1.81867,0.293334 3.40267,0.293334 0.704,0 1.29066,-0.117334 1.11467,-0.293333 1.46667,-0.645333 0.41067,-0.410667 0.41067,-1.408001 0,-0.88 -0.0587,-1.466667 -0.11733,-1.173334 -0.58666,-4.165336 -0.46934,-2.992002 -0.46934,-4.752003 0,-1.994667 0.41067,-5.808003 0.41067,-3.813335 0.704,-4.282669 0.0587,-0.176 0.352,-0.176 0.352,0 3.52,1.056001 l 3.63734,1.232 -0.0587,1.173334 q 0,0.176 -0.11733,1.877335 -0.0587,1.642667 -0.176,2.757335 -0.176,1.760001 -0.176,2.816001 0,1.232001 0.23466,1.994668 0.88,3.344002 0.88,11.557339 0,3.344001 -0.29333,3.344001 -0.11733,0 -0.176,-0.23467 l -0.29333,-0.704 -0.99734,0.76267 q -1.17333,0.82133 -1.29066,0.82133 -0.176,0 -1.29067,0.76267 -2.34667,1.584 -6.98134,1.584 -1.46667,0 -2.288,-0.0587 -4.28267,-0.23467 -5.33867,-0.528 -2.34667,-0.64534 -4.10667,-2.99201 -2.64,-3.637331 -2.64,-6.746666 0,-0.938667 0.176,-1.994668 0.11733,-1.408001 0.11733,-1.760001 0,-1.056 -0.41066,-2.346668 -1.17334,-3.578668 -1.17334,-6.864003 0,-1.232001 0.0587,-1.936001 0.23467,-3.285336 0.41067,-3.813336 0.23466,-0.528 1.29066,-0.528 1.11467,0 1.76,-0.645334 0.528,-0.528 1.64267,-0.528 h 0.64534 0.704 q 1.056,0 1.17333,-0.117334 z m 25.75466,-6.101336 -0.23467,-2.933335 h 8.21334 v 2.229334 q 0,2.229335 -0.528,3.050669 l -0.58667,0.938667 -3.28533,-0.117333 -3.344,-0.117334 z m 0.352,7.685337 q 0.29333,0 3.52,0.469334 3.28534,0.410667 3.57867,0.410667 0.23467,0 0.23467,2.405334 v 0.880001 1.760001 q 0,2.405335 0.11733,6.160003 0.11733,2.816002 0.11733,3.754669 0,1.936001 -0.176,3.050668 -0.23466,1.760001 -0.23466,2.874668 0,1.290668 0.176,3.109335 0.23466,3.05067 0.23466,3.63734 0,0.41066 -0.0587,0.46933 h -0.11734 q -0.64533,0 -3.872,-0.64533 -2.17067,-0.46934 -3.40267,-0.46934 -0.352,0 -0.352,0.0587 0,0.29333 -0.176,0.11733 -0.528,-0.528 -0.528,-6.570668 0,-2.405335 0.176,-3.754669 0.23467,-1.466667 0.23467,-3.520002 0,-1.642667 -0.0587,-2.464001 -0.29333,-4.634669 -0.29333,-6.57067 v -2.229335 l 0.0587,-2.933335 z m 45.17338,6.512004 q -0.58667,-0.293334 -2.75734,-0.528 -0.41066,-0.05867 -1.11466,-0.05867 -1.11467,0 -2.52267,0.586667 l -1.70134,0.704 v 7.744004 q 0.0587,7.744005 0.46934,8.037338 0.41066,0.293334 3.168,0.293334 2.816,0 3.81333,-0.586667 1.056,-0.586667 2.17067,-2.757335 1.11467,-2.229335 1.11467,-3.637335 0,-0.176001 -0.0587,-0.704001 0,-0.528 0,-0.821334 -0.11733,-2.874668 -0.88,-5.338669 -0.76267,-2.464002 -1.70133,-2.933335 z M 548.72355,66.466938 q 0.23467,-1.408001 0.58667,-1.408001 0.41066,0 3.696,1.114668 3.344,1.056 3.57867,1.290667 0.11733,0.117333 0.46933,3.344002 0.41067,3.226668 0.46933,3.344002 0.23467,0.293333 1.64267,0.117333 0.29333,-0.05867 1.232,-0.05867 1.70134,0 3.344,0.176001 8.15467,0.88 10.26668,6.688003 0.82133,2.229335 1.17333,2.757335 1.11467,1.818668 1.11467,8.506671 0,2.170668 -0.23467,3.285335 -0.41067,2.346668 -2.34667,5.749333 -1.936,3.46134 -3.28533,4.45867 -1.408,0.99734 -3.87201,1.408 -2.40533,0.41067 -7.568,0.528 -1.936,0.0587 -4.28267,0.0587 -2.34667,0 -3.168,-0.528 -0.93867,-0.64533 -1.52533,-1.87733 -0.41067,-0.82134 -0.528,-3.10934 -0.0587,-2.22933 -0.176,-13.200006 -0.0587,-16.485342 -0.58667,-19.888011 -0.11734,-0.704 -0.11734,-1.408001 0,-0.645333 0.11734,-1.349334 z m 49.7494,16.426676 q -0.64534,-0.586667 -1.87734,-0.586667 -1.99466,0 -3.81333,1.525334 -0.88,0.762667 -1.232,2.288001 l -0.29334,1.642668 0.99734,0.176 q 0.29333,0.05867 1.87733,0.05867 6.21867,0 6.57067,-0.352001 0.0587,-0.05867 0.0587,-0.117333 0,-0.528 -0.93867,-2.405335 -0.88,-1.877334 -1.34933,-2.229334 z m -6.04267,-8.037338 q 2.05333,-0.645334 4.34133,-0.645334 2.52267,0 4.34134,0.762667 3.75467,1.760001 5.51467,5.221337 1.11467,2.288001 1.29067,3.285335 0.23466,1.232 0.58666,1.818667 0.352,0.762667 0.64534,2.522668 0.352,1.760001 0.352,2.992002 0,0.586667 -0.0587,0.762667 -0.176,0.880001 -1.11467,2.053335 -0.88,1.114667 -1.70133,1.408 -1.34934,0.528001 -5.28,0.704001 -3.87201,0.176 -7.04001,0.234667 -3.168,0 -3.168,0.176 0,1.466667 1.584,2.464001 0.99734,0.645334 4.63467,0.938667 1.936,0.234667 2.992,0.234667 0.93867,0 2.34667,-0.528 1.52533,-0.586667 2.58133,-0.586667 0.88001,0 2.11201,0.528 l 1.232,0.586667 -0.11734,1.759997 q -0.41066,4.98667 -0.88,5.33867 -0.704,0.82134 -8.03733,0.82134 -3.69601,0 -6.16001,-0.352 -2.34667,-0.29334 -4.752,-1.64267 -2.34667,-1.34933 -3.40267,-2.93334 -2.69867,-4.223998 -2.69867,-9.210667 0,-1.349334 0.0587,-2.053335 0.352,-4.458669 1.29067,-7.568004 1.70133,-5.690669 4.98667,-7.62667 1.232,-0.645334 3.52,-1.466668 z m 24.75735,-9.152005 q 0.528,-0.938667 0.93866,-0.938667 0.23467,0 0.41067,0.293333 0.176,0.293334 3.344,0.293334 h 3.168 v 2.464001 q 0,4.634669 1.232,5.749337 0.58667,0.528 1.17334,0.528 0.528,0 1.46667,-0.469334 0.704,-0.352 1.76,-0.352 1.87733,0 3.05067,0.821334 1.87733,1.290667 1.87733,4.693336 0,1.584001 -0.29333,1.936001 -0.23467,0.352 -1.46667,0.352 -0.82134,0 -1.99467,0.645334 -1.056,0.528 -2.75733,0.528 h -1.11467 -1.11467 q -1.52533,0 -2.05333,0.645334 -0.352,0.410667 -0.352,1.173334 0,0.05867 0.23466,2.405334 0.176,1.056001 0.46934,6.864004 0.11733,3.930669 0.352,4.634669 0.29333,0.645334 1.936,0.645334 h 1.11467 2.816 v 8.154671 h -3.10934 q -2.992,0 -4.51733,-0.23467 -2.112,-0.352 -3.69601,-2.112 -1.584,-1.70133 -2.464,-4.517334 -0.29333,-1.114667 -0.704,-6.04267 -0.352,-4.986669 -0.41066,-9.738672 -0.11734,-2.581334 -0.41067,-2.816001 -0.41067,-0.234667 -0.41067,-4.165336 v -3.930668 h 0.88 q 0.64534,0 0.76267,-0.117334 0.11733,-0.176 0,-0.88 -0.352,-1.642668 -0.46933,-1.994668 -0.23467,-0.880001 -0.23467,-1.994668 0,-1.584001 0.58667,-2.522668 z m 34.84799,8.858672 q 2.05334,-0.704001 4.04801,-0.704001 1.232,0 4.28266,0.293334 3.87201,0.352 3.87201,0.938667 0,0.410667 -1.056,3.813335 l -1.11467,3.461335 -3.57867,-0.234666 q -2.34667,-0.117334 -2.58133,-0.117334 -1.17334,0 -2.05334,0.528001 -2.52267,1.584 -3.40267,6.160003 l -0.528,2.640001 0.704,1.466668 q 0.88,1.818667 1.408,3.402668 0.58667,1.701335 1.11467,2.170668 0.58667,0.469334 2.52267,0.469334 1.52533,0 2.58133,-0.05867 l 4.16534,-0.117333 0.29333,1.642664 q 0.29334,1.46667 0.64534,3.34401 0.0587,0.41066 0.176,0.93866 0.11733,0.528 0.176,0.88 0.11733,0.352 0.11733,0.528 0,0.41067 -1.29067,0.58667 -1.29067,0.23467 -5.104,0.352 -1.11467,0.0587 -2.64,0.0587 -1.87734,0 -4.16534,-0.704 -2.52267,-0.82134 -3.63733,-1.87734 -1.056,-1.056 -1.87734,-3.52 -0.29333,-0.938667 -1.232,-2.992001 -0.88,-2.112002 -1.46667,-3.754669 -0.528,-1.701334 -0.528,-2.874668 0,-1.232001 0.76267,-4.63467 0.82134,-3.402668 1.34934,-4.341335 0.46933,-0.938667 0.704,-2.229335 0.0587,-0.293333 0.11733,-0.528 0.11733,-0.293334 0.176,-0.410667 0.11733,-0.117333 0.176,-0.05867 0.176,0.176 1.408,-1.056 2.40533,-2.405335 5.456,-3.461335 z m 26.16537,0.410666 q 0.176,-0.176 0.352,-0.176 0.82133,0 0.82133,2.346668 0,0.762667 -0.176,1.466668 -0.41066,1.349334 -0.41066,4.165335 0,2.640002 0.82133,5.045336 0.704,2.053335 0.704,3.402669 0,1.173334 -0.0587,1.994668 -0.11733,2.112001 -0.11733,2.229334 0,1.114668 0.46933,1.408001 0.41067,0.410667 2.22934,0.704 1.81867,0.293334 3.40267,0.293334 0.704,0 1.29066,-0.117334 1.11467,-0.293333 1.46667,-0.645333 0.41067,-0.410667 0.41067,-1.408001 0,-0.88 -0.0587,-1.466667 -0.11733,-1.173334 -0.58667,-4.165336 -0.46933,-2.992002 -0.46933,-4.752003 0,-1.994667 0.41067,-5.808003 0.41067,-3.813335 0.704,-4.282669 0.0587,-0.176 0.352,-0.176 0.352,0 3.52,1.056001 l 3.63734,1.232 -0.0587,1.173334 q 0,0.176 -0.11733,1.877335 -0.0587,1.642667 -0.176,2.757335 -0.176,1.760001 -0.176,2.816001 0,1.232001 0.23466,1.994668 0.88,3.344002 0.88,11.557339 0,3.344001 -0.29333,3.344001 -0.11733,0 -0.176,-0.23467 l -0.29333,-0.704 -0.99734,0.76267 q -1.17333,0.82133 -1.29067,0.82133 -0.176,0 -1.29066,0.76267 -2.34667,1.584 -6.98134,1.584 -1.46667,0 -2.288,-0.0587 -4.28267,-0.23467 -5.33867,-0.528 -2.34667,-0.64534 -4.10667,-2.99201 -2.64,-3.637331 -2.64,-6.746666 0,-0.938667 0.176,-1.994668 0.11733,-1.408001 0.11733,-1.760001 0,-1.056 -0.41066,-2.346668 -1.17334,-3.578668 -1.17334,-6.864003 0,-1.232001 0.0587,-1.936001 0.23467,-3.285336 0.41067,-3.813336 0.23466,-0.528 1.29066,-0.528 1.11467,0 1.76,-0.645334 0.528,-0.528 1.64267,-0.528 h 0.64533 0.70401 q 1.056,0 1.17333,-0.117334 z m 25.75467,-6.101336 -0.23467,-2.933335 h 8.21334 v 2.229334 q 0,2.229335 -0.528,3.050669 l -0.58667,0.938667 -3.28533,-0.117333 -3.344,-0.117334 z m 0.352,7.685337 q 0.29333,0 3.52,0.469334 3.28534,0.410667 3.57867,0.410667 0.23467,0 0.23467,2.405334 v 0.880001 1.760001 q 0,2.405335 0.11733,6.160003 0.11734,2.816002 0.11734,3.754669 0,1.936001 -0.176,3.050668 -0.23467,1.760001 -0.23467,2.874668 0,1.290668 0.176,3.109335 0.23467,3.05067 0.23467,3.63734 0,0.41066 -0.0587,0.46933 h -0.11733 q -0.64534,0 -3.87201,-0.64533 -2.17066,-0.46934 -3.40267,-0.46934 -0.352,0 -0.352,0.0587 0,0.29333 -0.176,0.11733 -0.528,-0.528 -0.528,-6.570668 0,-2.405335 0.176,-3.754669 0.23467,-1.466667 0.23467,-3.520002 0,-1.642667 -0.0587,-2.464001 -0.29333,-4.634669 -0.29333,-6.57067 v -2.229335 l 0.0587,-2.933335 z m 24.22938,-1.466667 q 3.52,0 3.696,-0.176 0.176,-0.176 0.99733,-0.176 1.584,0 2.992,0.469333 5.16267,1.818668 6.16001,5.397337 0.41067,1.466667 1.056,3.344001 0.99733,2.874669 1.64267,11.674673 0.23466,3.520002 0.23466,3.989336 0,1.055997 -0.23466,1.994667 -0.352,1.408 -0.352,2.87467 0,2.05333 -1.17334,3.22667 -1.11467,1.17333 -3.10933,1.17333 -2.34667,0 -3.40267,-1.70133 -0.352,-0.46934 -0.352,-3.10934 0,-2.93333 0.41067,-3.93067 0.11733,-0.351997 0.11733,-1.173331 0,-2.405334 -0.58667,-6.864004 -0.528,-4.517335 -1.11467,-6.336003 l -0.76266,-2.464001 q -1.29067,0 -3.93067,-0.05867 -2.58134,-0.05867 -3.872,-0.05867 l -0.64534,0.821334 q -0.58666,0.762667 -0.58666,1.760001 0,0.704 0.0587,1.232001 0.23467,2.229334 0.528,3.637335 0.99734,5.221336 0.99734,6.864004 0,0.997334 -0.29334,2.874668 -0.46933,3.28534 -0.88,3.696 -0.41066,0.41067 -3.93067,0.88 -2.17066,0.352 -2.992,0.528 l -0.88,0.176 0.176,-2.22933 q 0.0587,-0.82134 0.23467,-1.936 0.176,-1.056 0.23467,-1.81867 0.11733,-0.821334 0.11733,-1.584001 0,-1.232001 -0.23467,-2.581335 -0.99733,-6.160003 -0.99733,-11.088006 v -1.525334 l 0.11733,-4.048002 1.232,-0.352001 q 1.408,-0.352 2.288,-1.232 1.34934,-1.349334 2.58134,-1.760001 1.232,-0.410667 3.696,-0.410667 z"
       id="text6"
       transform="matrix(0.26458333,0,0,0.26458333,-6.0767263,3.797954)"
       aria-label="bui betcuin" />
  </g>
</svg>
