<?xml version="1.0" encoding="UTF-8" standalone="no"?>
<!-- Created with Inkscape (http://www.inkscape.org/) -->

<svg
   width="290"
   height="55"
   viewBox="0 0 76.729168 14.552083"
   version="1.1"
   id="svg1"
   inkscape:version="1.3.2 (091e20e, 2023-11-25, custom)"
   sodipodi:docname="buttunz_4.svg"
   xmlns:inkscape="http://www.inkscape.org/namespaces/inkscape"
   xmlns:sodipodi="http://sodipodi.sourceforge.net/DTD/sodipodi-0.dtd"
   xmlns="http://www.w3.org/2000/svg"
   xmlns:svg="http://www.w3.org/2000/svg">
  <sodipodi:namedview
     id="namedview1"
     pagecolor="#ffffff"
     bordercolor="#000000"
     borderopacity="0.25"
     inkscape:showpageshadow="2"
     inkscape:pageopacity="0.0"
     inkscape:pagecheckerboard="0"
     inkscape:deskcolor="#d1d1d1"
     inkscape:document-units="mm"
     inkscape:zoom="2.0899411"
     inkscape:cx="133.97507"
     inkscape:cy="23.206396"
     inkscape:window-width="2560"
     inkscape:window-height="1369"
     inkscape:window-x="-8"
     inkscape:window-y="-8"
     inkscape:window-maximized="1"
     inkscape:current-layer="svg1" />
  <defs
     id="defs1">
    <inkscape:path-effect
       effect="spiro"
       id="path-effect8"
       is_visible="true"
       lpeversion="1" />
    <inkscape:path-effect
       effect="spiro"
       id="path-effect7"
       is_visible="true"
       lpeversion="1" />
    <rect
       x="253.59567"
       y="45.934307"
       width="690.92859"
       height="109.09398"
       id="rect6" />
    <inkscape:path-effect
       effect="spiro"
       id="path-effect6"
       is_visible="true"
       lpeversion="1" />
    <rect
       x="177.03848"
       y="55.503956"
       width="836.38721"
       height="112.92184"
       id="rect5" />
    <inkscape:path-effect
       effect="spiro"
       id="path-effect5"
       is_visible="true"
       lpeversion="1" />
    <inkscape:path-effect
       effect="spiro"
       id="path-effect4"
       is_visible="true"
       lpeversion="1" />
    <rect
       x="238.28423"
       y="58.374851"
       width="768.44269"
       height="93.782547"
       id="rect1" />
    <inkscape:path-effect
       effect="spiro"
       id="path-effect1"
       is_visible="true"
       lpeversion="1" />
  </defs>
  <path
     style="opacity:1;fill:#090c14;fill-opacity:1;stroke:none;stroke-width:1;stroke-dasharray:none;stroke-opacity:1"
     d="m 0.3797954,14.115729 c -0.0415605,-0.04063 -0.0725464,-0.09198 -0.0891126,-0.147684 -0.0165662,-0.05571 -0.0186765,-0.115647 -0.006069,-0.17238 0.0126075,-0.05673 0.0399053,-0.110139 0.0785058,-0.153586 0.0386005,-0.04345 0.0884194,-0.07684 0.14327425,-0.09604 0.0226603,-0.0079 0.0461421,-0.01348 0.0684354,-0.02239 0.0222933,-0.0089 0.0438193,-0.02165 0.0581631,-0.04091 0.0172931,-0.02321 0.0223669,-0.05357 0.0210233,-0.08248 -0.001344,-0.02891 -0.008505,-0.05719 -0.0133797,-0.08572 -0.004874,-0.02853 -0.007411,-0.05823 3.661e-4,-0.08611 0.003888,-0.01394 0.0103821,-0.02725 0.019751,-0.03829 0.009369,-0.01103 0.0216854,-0.01971 0.0355386,-0.0239 0.0203535,-0.0062 0.042173,-0.0024 0.0632992,0 0.10086733,0.01151 0.20460927,-0.0094 0.29508189,-0.05545 0.090473,-0.04606 0.1676924,-0.116736 0.2250236,-0.20052 0.1146623,-0.167567 0.1469609,-0.382455 0.1175051,-0.58335 -0.029456,-0.200895 -0.1163245,-0.389496 -0.222912,-0.562312 -0.1065875,-0.172817 -0.2332392,-0.332226 -0.35139939,-0.497346 -0.0475256,-0.06641 -0.0939037,-0.134131 -0.1293075,-0.207725 -0.0354038,-0.07359 -0.0596655,-0.153708 -0.0605902,-0.235369 -7.1854e-4,-0.06346 0.0125299,-0.127685 0,-0.189898 -0.009356,-0.04645 -0.0325844,-0.08886 -0.0573482,-0.129259 -0.0247638,-0.0404 -0.05155,-0.07998 -0.0692503,-0.123938 -0.0397927,-0.09883 -0.0301806,-0.209974 -0.0149432,-0.315414 C 0.50668799,9.9602191 0.52689891,9.8526241 0.50639377,9.7480807 0.49353631,9.6825282 0.46516678,9.6212326 0.44309457,9.5581829 0.35180179,9.2974034 0.36966328,9.0120918 0.40227655,8.7377258 0.43488982,8.4633598 0.48116009,8.1860657 0.44309457,7.9124029 0.40991571,7.6738715 0.31404405,7.4491257 0.25319687,7.2161114 c -0.0864016,-0.3308749 -0.10063679,-0.685961 0,-1.0127877 0.065072,-0.2113268 0.17759673,-0.4122162 0.1898977,-0.6329923 0.005418,-0.097247 -0.009058,-0.1945003 -0.009467,-0.2918971 -4.0949e-4,-0.097397 0.015097,-0.199307 0.0727665,-0.2777961 0.017736,-0.024139 0.0391601,-0.045563 0.0632992,-0.063299 0.0330171,-0.1026409 0.0542993,-0.2090517 0.0632992,-0.3164961 0.0176181,-0.2103316 0,-0.4219242 0,-0.6329924 V 2.6585669 c 0,-0.159904 0.005791,-0.3208539 0.041297,-0.476766 C 0.70979556,2.0258888 0.77303209,1.8780095 0.8330656,1.7298026 0.89309911,1.5815958 0.95004125,1.4246819 0.93304014,1.2656842 0.92453959,1.1861854 0.89599254,1.1074688 0.8434805,1.0471795 c -0.026256,-0.030145 -0.0583104,-0.0554 -0.0943751,-0.0726456 -0.0360648,-0.0172457 -0.0761591,-0.0263683 -0.1161132,-0.0250462 -0.0211523,6.9994e-4 -0.0425686,0.00426 -0.0632992,0 -0.0151848,-0.003121 -0.0294135,-0.0104285 -0.0411859,-0.0205144 -0.0117724,-0.010086 -0.02111,-0.0229001 -0.0276471,-0.0369565 -0.0130742,-0.0281128 -0.01476,-0.0605901 -0.009118,-0.0910766 0.0112839,-0.0609731 0.0495308,-0.11283651 0.077951,-0.16794858 0.0205673,-0.0398839 0.0364215,-0.0830223 0.0389365,-0.12782642 0.002515,-0.0448042 -0.009417,-0.0915718 -0.0389365,-0.12537049 -0.0199556,-0.0228486 -0.0465647,-0.0385985 -0.070853,-0.0567744 -0.0121441,-0.009088 -0.0238411,-0.0189072 -0.0337197,-0.0304174 -0.009879,-0.0115102 -0.0179223,-0.0248041 -0.0220258,-0.0394066 -0.006502,-0.0231386 -0.002534,-0.0487432 0.009454,-0.0695753 0.0119874,-0.020832 0.0316233,-0.0368771 0.0539215,-0.0458472 0.0222982,-0.00897 0.0471105,-0.0110397 0.0708618,-0.007359 0.0237513,0.003681 0.0464576,0.0129772 0.0668207,0.0257451 0.0407262,0.0255357 0.0715054,0.0641354 0.0981698,0.10413166 0.0266644,0.0399963 0.0501546,0.0822776 0.0805679,0.11950296 0.0604976,0.0740481 0.14607532,0.12468249 0.23653782,0.1556601 0.090462,0.0309776 0.1861691,0.0434716 0.2814654,0.0513264 0.095296,0.007855 0.1910688,0.0112616 0.285716,0.0248628 0.094647,0.0136013 0.1889812,0.0378518 0.2723677,0.0846469 0.041525,0.0233032 0.079839,0.051906 0.1206728,0.0764007 0.040834,0.0244947 0.085177,0.0451374 0.1325242,0.0501977 0.031581,0.003375 0.063426,-2.8319e-4 0.095074,-0.002956 0.031648,-0.002672 0.063907,-0.004317 0.094824,0.002956 0.046113,0.0108472 0.085133,0.0403931 0.1265984,0.0632992 0.079749,0.0440552 0.171091,0.0642731 0.2620891,0.0687661 0.090998,0.004493 0.1820892,-0.0062 0.2720081,-0.0208767 0.179838,-0.0293541 0.361781,-0.0748734 0.5419898,-0.0478894 0.086091,0.0128911 0.1687842,0.0420312 0.253197,0.0632992 0.2464625,0.0620968 0.5047157,0.0564635 0.7581953,0.0378117 0.2534796,-0.0186519 0.507111,-0.0499446 0.7609861,-0.0378117 0.1378013,0.006586 0.2747173,0.0259424 0.4124425,0.0339628 0.1377252,0.00802 0.2779304,0.004401 0.4104476,-0.0339628 0.1092112,-0.0316164 0.2103161,-0.085948 0.3164962,-0.12659846 0.3022652,-0.11572061 0.6472233,-0.11572061 0.9494885,0 0.1012647,-0.0519001 0.2073734,-0.0943436 0.3164962,-0.12659847 0.1234327,-0.0364846 0.2511266,-0.0599616 0.3797953,-0.0632992 0.19197,-0.00498 0.3819056,0.0346839 0.57279,0.0556705 0.1908844,0.0209866 0.3909447,0.0219431 0.5665961,-0.0556705 0.043162,-0.0190714 0.084184,-0.0426204 0.1265986,-0.0632992 0.2599625,-0.12674176 0.5611567,-0.14049924 0.8491177,-0.11361552 0.28796,0.0268837 0.571575,0.0917767 0.859962,0.11361552 0.336753,0.0255014 0.675166,-0.008029 1.012787,0 0.44817,0.0106584 0.891276,0.0944081 1.329284,0.18989767 0.313247,0.0682905 0.62597,0.14286664 0.944526,0.17905404 0.318556,0.0361874 0.645458,0.033047 0.954451,-0.0524556 0.08494,-0.0235042 0.168907,-0.053271 0.256591,-0.0621523 0.04384,-0.004441 0.08848,-0.00354 0.131498,0.006004 0.04302,0.009545 0.08444,0.027959 0.118305,0.0561481 0.02295,0.0190988 0.04208,0.0422967 0.0633,0.0632992 0.07533,0.0745611 0.176461,0.12006498 0.28084,0.13848088 0.10438,0.018416 0.21207,0.010941 0.315941,-0.010154 0.207743,-0.04219 0.400964,-0.13743826 0.605905,-0.19162608 0.349622,-0.0924426 0.720181,-0.0624752 1.076087,-0.12659847 0.354699,-0.0639057 0.685353,-0.21927278 1.028609,-0.32914126 0.171627,-0.0549342 0.347782,-0.0987459 0.527409,-0.11316248 0.179628,-0.0144166 0.363365,0.001299 0.532856,0.0625084 0.06286,0.0227001 0.124084,0.0516864 0.189898,0.0632992 0.08375,0.0147779 0.1695,5.546e-4 0.253855,-0.010257 0.08436,-0.0108116 0.172274,-0.0178534 0.252539,0.010257 0.04468,0.0156468 0.08491,0.0415251 0.125274,0.0662616 0.04036,0.0247365 0.082,0.0488456 0.127923,0.0603369 0.0411,0.010284 0.08408,0.0100517 0.126361,0.007314 0.04228,-0.002737 0.08448,-0.007918 0.126836,-0.007314 0.107832,0.001538 0.21115,0.0402263 0.316496,0.0632992 0.206571,0.0452434 0.420922,0.0322231 0.632031,0.0199068 0.211109,-0.0123163 0.422485,-0.0199068 0.633953,-0.0199068 h 2.405371 c 0.31652,0 0.633211,-0.0123687 0.949489,0 0.657116,0.0256978 1.304668,0.1934019 1.962277,0.1898977 0.147745,-7.8729e-4 0.295701,-0.0102305 0.443093,0 0.342998,0.0238076 0.670942,0.15307519 1.012788,0.18989765 0.399031,0.042982 0.803477,-0.0412859 1.202687,0 0.234739,0.024277 0.462921,0.091524 0.696291,0.1265985 0.501516,0.075376 1.012033,7.086e-4 1.519182,0 0.337796,-4.72e-4 0.676504,0.031931 1.012787,0 0.532836,-0.050594 1.047314,-0.2615833 1.582481,-0.25319692 0.190297,0.002982 0.382386,0.0337342 0.569693,0 0.08564,-0.0154243 0.168327,-0.0440674 0.253196,-0.0632992 0.226898,-0.0514163 0.462935,-0.0366332 0.695163,-0.0226317 0.232229,0.0140016 0.464771,0.0226317 0.697421,0.0226317 h 2.848464 c 0.264077,0 0.528089,0.007104 0.791914,0.018638 0.263825,0.0115342 0.529927,0.0238277 0.790567,-0.018638 0.29858,-0.0486472 0.584285,-0.17067454 0.88619,-0.1898977 0.253107,-0.0161161 0.509281,0.040846 0.75959,0 0.15174,-0.0247612 0.295198,-0.0845924 0.443095,-0.12659844 0.286647,-0.0814141 0.589928,-0.0952975 0.88619,-0.0632992 0.234642,0.0253429 0.46516,0.0788752 0.696291,0.12659847 0.459277,0.0948302 0.92417,0.16717273 1.392584,0.18989767 0.463717,0.0224971 0.928333,-0.003709 1.392581,0 0.548903,0.004385 1.099192,0.0505421 1.64578,0 0.338831,-0.0313311 0.673581,-0.0996428 1.012788,-0.12659846 0.948567,-0.0753795 1.912871,0.17355492 2.848467,0 0.105787,-0.0196237 0.210545,-0.0445745 0.316495,-0.0632992 0.583077,-0.10304824 1.180459,-0.0150572 1.77238,0 0.274219,0.006976 0.548587,-0.001792 0.822889,0 0.401555,0.002624 0.802689,0.0278801 1.202687,0.0632992 0.973996,0.0862455 1.978918,0.22979923 2.911763,-0.0632992 0.127317,-0.0400029 0.252081,-0.0878831 0.379796,-0.12659847 0.134305,-0.0407131 0.272591,-0.0713321 0.412845,-0.076265 0.140253,-0.004933 0.283004,0.0166303 0.410044,0.076265 0.06431,0.0301884 0.123753,0.0696256 0.185016,0.10559823 0.06126,0.0359727 0.125425,0.0689053 0.19478,0.0842994 0.125588,0.0278755 0.255573,-0.003763 0.38219,-0.0265121 0.06331,-0.0113746 0.127395,-0.0205594 0.191696,-0.018877 0.0643,0.001682 0.129198,0.0146582 0.185704,0.045389 0.04649,0.0252848 0.08583,0.0616327 0.125202,0.0969943 0.03937,0.0353616 0.08001,0.0705764 0.127996,0.0929034 0.05841,0.0271799 0.124653,0.0336511 0.188958,0.029705 0.06431,-0.003946 0.127516,-0.0178277 0.190838,-0.029705 0.592265,-0.11109135 1.201519,-0.0539455 1.802302,-0.00727 0.600783,0.0466757 1.203158,0.070569 1.805752,0.070569 h 2.088875 c 0.274382,0 0.549393,0.0220043 0.822891,0 0.339799,-0.0273386 0.672381,-0.14486097 1.012788,-0.12659847 0.127955,0.006865 0.254134,0.0329012 0.381777,0.0441664 0.127644,0.0112653 0.260287,0.006895 0.377813,-0.0441664 0.04328,-0.0188047 0.08371,-0.043605 0.1266,-0.0632992 0.145699,-0.0669104 0.312393,-0.0717202 0.471988,-0.0563999 0.159595,0.0153203 0.317318,0.0495179 0.477499,0.0563999 0.254096,0.0109169 0.505779,-0.0470869 0.759592,-0.0632992 0.316013,-0.0201854 0.633783,0.0245272 0.949489,0 0.241451,-0.0187584 0.481078,-0.0788386 0.696291,-0.18989768 0.01035,-0.005343 0.02095,-0.0108963 0.03252,-0.0122584 0.0058,-6.8104e-4 0.01176,-2.6521e-4 0.01723,0.001724 0.0055,0.00199 0.01043,0.005616 0.01355,0.010534 0.0029,0.004547 0.0041,0.0100005 0.0043,0.015385 1.37e-4,0.005385 -7.63e-4,0.0107408 -0.0019,0.0160141 -0.0011,0.005273 -0.0024,0.0105149 -0.0031,0.0158584 -6.77e-4,0.005344 -7.17e-4,0.0108403 6.82e-4,0.0160416 0.0015,0.005739 0.0048,0.0109576 0.0091,0.0150535 0.0043,0.004096 0.0096,0.007086 0.01526,0.00894 0.01129,0.003706 0.02367,0.002853 0.03517,-1.567e-4 0.023,-0.006019 0.04353,-0.0203161 0.06704,-0.0238364 0.022,-0.003293 0.04503,0.00356 0.0626,0.0171928 0.01757,0.0136327 0.02975,0.0336712 0.03526,0.0552193 0.0055,0.0215481 0.0045,0.0445038 -0.0012,0.0659814 -0.0058,0.0214776 -0.01626,0.0415239 -0.02932,0.05952 -0.02614,0.035992 -0.06205,0.0634861 -0.09732,0.0905839 -0.03527,0.0270979 -0.071,0.0549062 -0.09658,0.091298 -0.02175,0.0309423 -0.03534,0.067099 -0.04309,0.10411643 -0.0078,0.0370174 -0.0099,0.0750005 -0.01007,0.11282102 -4.41e-4,0.075641 0.0064,0.1523513 -0.01013,0.2261572 -0.0136,0.060575 -0.04257,0.1167675 -0.07705,0.1684 -0.03447,0.051632 -0.07454,0.099242 -0.112849,0.1480961 -0.146936,0.1873869 -0.270627,0.3993258 -0.316497,0.6329923 -0.01682,0.085708 -0.02362,0.1753861 -0.0633,0.253197 -0.03461,0.067866 -0.09206,0.1219952 -0.126598,0.1898976 -0.04856,0.095471 -0.04713,0.2078142 -0.04131,0.3147657 0.0058,0.1069514 0.01445,0.217507 -0.02199,0.3182266 -0.01607,0.044419 -0.04041,0.085279 -0.0633,0.1265986 -0.339972,0.6136929 -0.364289,1.3918522 -0.0633,2.0255754 0.06474,0.1175312 0.107874,0.246924 0.126597,0.3797953 0.04129,0.2930094 -0.03569,0.5924457 0,0.8861894 0.04037,0.3322499 0.219963,0.6280924 0.362614,0.9308638 0.07133,0.1513857 0.134498,0.3079873 0.16641,0.472263 0.03191,0.1642757 0.03138,0.3374596 -0.02263,0.4958502 -0.02061,0.060437 -0.0492,0.1204784 -0.04767,0.1843141 7.63e-4,0.031918 0.0096,0.064263 0.029,0.089632 0.0097,0.012684 0.02193,0.023487 0.03601,0.031014 0.01408,0.00753 0.03,0.011724 0.04596,0.011536 0.01066,-1.254e-4 0.02119,-0.00217 0.0318,-0.00315 0.01061,-9.867e-4 0.02163,-8.572e-4 0.0315,0.00315 0.008,0.00325 0.0149,0.00897 0.01999,0.015938 0.0051,0.00697 0.0084,0.01516 0.0101,0.023624 0.0034,0.016928 3.48e-4,0.034547 -0.0049,0.051003 -0.0052,0.016457 -0.01257,0.032158 -0.01814,0.048498 -0.0056,0.01634 -0.0094,0.033723 -0.0071,0.050834 0.0021,0.015893 0.0096,0.031023 0.02094,0.042361 0.01134,0.011338 0.02647,0.018816 0.04236,0.020938 0.02628,0.039331 0.04761,0.081973 0.0633,0.1265986 0.05631,0.1601106 0.04043,0.3354811 0.02498,0.504501 -0.01544,0.1690196 -0.02498,0.3385626 -0.02498,0.5082866 v 2.658568 c 0,0.138993 -0.01218,0.277623 -0.0318,0.415224 -0.0098,0.0688 -0.01923,0.138009 -0.01781,0.207491 0.0014,0.06948 0.01451,0.140195 0.04961,0.200175 0.03059,0.05227 0.07647,0.09406 0.108882,0.145224 0.0162,0.02558 0.02904,0.05377 0.03354,0.08372 0.0045,0.02994 1.4e-4,0.06182 -0.01582,0.08755 -0.01523,0.02456 -0.04027,0.04223 -0.06769,0.05134 -0.02742,0.0091 -0.0571,0.0101 -0.08571,0.006 -0.0572,-0.0082 -0.109408,-0.03594 -0.1631,-0.05733 -0.139633,-0.05562 -0.292908,-0.06923 -0.443095,-0.0633 -0.116598,0.0046 -0.232467,0.02058 -0.348956,0.02741 -0.116489,0.0068 -0.235029,0.0043 -0.347337,-0.02741 -0.109437,-0.03086 -0.209429,-0.08831 -0.316495,-0.126599 -0.160693,-0.05746 -0.334391,-0.07057 -0.504846,-0.06225 -0.170455,0.0083 -0.339098,0.03743 -0.507942,0.06225 -0.941416,0.138383 -1.897096,0.144091 -2.848467,0.126599 -0.379805,-0.007 -0.759925,-0.01761 -1.139386,0 -0.380048,0.01764 -0.758929,0.0636 -1.139386,0.0633 -0.359021,-2.82e-4 -0.719496,-0.04171 -1.076086,0 -0.341357,0.03993 -0.670856,0.155241 -1.012788,0.189898 -0.252112,0.02555 -0.506277,0.0068 -0.75959,0 -0.507213,-0.01361 -1.01877,0.02059 -1.519182,-0.0633 -0.212239,-0.03558 -0.420564,-0.09216 -0.632992,-0.126598 -0.563525,-0.09135 -1.138743,-0.0249 -1.709081,0 -0.717506,0.03132 -1.436469,-0.0036 -2.152174,-0.0633 -0.485448,-0.04049 -0.969952,-0.09236 -1.45588,-0.126599 -1.66323,-0.117198 -3.333287,-0.0633 -5.000641,-0.0633 h -1.835677 c -0.316636,0 -0.634308,-0.03032 -0.949489,0 -0.255631,0.02459 -0.503966,0.10192 -0.759589,0.126598 -0.231171,0.02232 -0.464052,0.0012 -0.696294,0 -0.401389,-0.0021 -0.805102,0.05519 -1.202684,0 -0.127139,-0.01765 -0.252517,-0.04669 -0.379796,-0.0633 -0.439897,-0.0574 -0.887054,0.03518 -1.329283,0 -0.360607,-0.02869 -0.714671,-0.14207 -1.076087,-0.126598 -0.106077,0.0045 -0.211386,0.02019 -0.317351,0.02687 -0.105964,0.0067 -0.214089,0.0041 -0.315641,-0.02687 -0.06388,-0.01949 -0.124449,-0.05001 -0.189899,-0.0633 -0.07266,-0.01475 -0.147757,-0.0076 -0.221534,-2.67e-4 -0.07378,0.0073 -0.148834,0.01467 -0.221561,2.67e-4 -0.06552,-0.01297 -0.126248,-0.04306 -0.189897,-0.0633 -0.111421,-0.03544 -0.230441,-0.04026 -0.347169,-0.03355 -0.116729,0.0067 -0.232541,0.02462 -0.349121,0.03355 -0.676167,0.05178 -1.351319,-0.19913 -2.025576,-0.126598 -0.425539,0.04578 -0.839027,0.219632 -1.265987,0.189897 -0.07421,-0.0052 -0.147906,-0.0165 -0.222166,-0.02087 -0.07426,-0.0044 -0.149998,-0.0016 -0.220926,0.02087 -0.06381,0.02017 -0.123375,0.05603 -0.189899,0.0633 -0.06459,0.0071 -0.128489,-0.0136 -0.192348,-0.02557 -0.03193,-0.006 -0.06454,-0.0098 -0.0969,-0.0069 -0.03235,0.0029 -0.06461,0.01292 -0.09055,0.03248 -0.02385,0.01799 -0.0413,0.04308 -0.0633,0.0633 -0.03625,0.03332 -0.0841,0.05235 -0.132825,0.05944 -0.04873,0.0071 -0.0985,0.0028 -0.14695,-0.006 -0.0969,-0.01758 -0.191436,-0.0533 -0.289918,-0.05348 -0.09099,-1.7e-4 -0.17943,0.0302 -0.261892,0.06866 -0.08246,0.03845 -0.160921,0.08528 -0.244502,0.12124 -0.170938,0.07354 -0.359037,0.09982 -0.5451,0.102633 -0.186063,0.0028 -0.371681,-0.01668 -0.556656,-0.03697 -0.369952,-0.04057 -0.741548,-0.06567 -1.113717,-0.06567 h -3.861252 c -0.675503,0 -1.353317,0.06612 -2.025576,0 -0.276247,-0.02717 -0.548613,-0.0839 -0.822889,-0.126599 -0.544067,-0.0847 -1.095302,-0.114141 -1.645782,-0.126598 -0.886512,-0.02006 -1.773837,0.0036 -2.658567,0.0633 -0.885671,0.05973 -1.775682,0.155466 -2.658568,0.0633 -0.105473,-0.01101 -0.213334,-0.02456 -0.316496,0 -0.110711,0.02636 -0.20726,0.09468 -0.316496,0.126599 -0.121987,0.03565 -0.252077,0.02549 -0.378793,0.01575 -0.126715,-0.0097 -0.253709,-0.01575 -0.380798,-0.01575 H 18.546676 16.5844 c -0.148127,0 -0.296171,0.0061 -0.443971,0.0159 -0.1478,0.0098 -0.298553,0.02018 -0.442219,-0.0159 -0.06474,-0.01626 -0.126652,-0.04196 -0.189897,-0.0633 -0.272059,-0.09182 -0.565269,-0.101868 -0.851794,-0.08318 -0.286526,0.01869 -0.570717,0.06516 -0.857286,0.08318 -0.842931,0.05301 -1.687373,-0.0633 -2.531969,-0.0633 H 7.2794125 3.1016634 1.1393871 c -0.028249,0 -0.056614,-7.91e-4 -0.084424,-0.0058 -0.02781,-0.005 -0.05473,-0.01386 -0.0816489,-0.02243 -0.0269187,-0.0086 -0.05472,-0.01676 -0.0829096,-0.01492 -0.0140948,9.16e-4 -0.028169,0.0045 -0.0403275,0.01168 -0.0121585,0.0072 -0.0223078,0.01817 -0.0271861,0.03142 -0.003681,0.01 -0.004284,0.0209 -0.00363,0.03154 6.5423e-4,0.01064 0.00252,0.02116 0.00363,0.03176 0.005955,0.05692 -0.0109444,0.1159 -0.0461356,0.161027 -0.0351912,0.04513 -0.0882802,0.07589 -0.14493123,0.08398 -0.0566511,0.0081 -0.11623024,-0.0066 -0.16264942,-0.04004 -0.0464192,-0.03347 -0.0791588,-0.08536 -0.0893783,-0.141668 z"
     id="path7"
     inkscape:path-effect="#path-effect8"
     inkscape:original-d="m 0.3797954,14.115729 c -0.009091,-0.178472 0.0218469,-0.412566 0.12659847,-0.569693 0.11253194,-0.168798 0.0209534,0.253636 0.12659844,-0.0633 0.0313987,-0.0942 0.0195882,-0.229075 0.0632992,-0.316497 0.009436,-0.01887 0.0538632,0.01887 0.0632992,0 0.0196096,-0.03922 0.10533431,-1.730837 0.0632992,-1.898977 -0.0369299,-0.147719 -0.16013388,-0.294275 -0.1898977,-0.443094 -0.012414,-0.06207 0.012414,-0.127828 0,-0.189898 -0.0185057,-0.09253 -0.1110856,-0.16012 -0.12659844,-0.253197 -0.0341642,-0.204985 0.0293933,-0.4272385 0,-0.6329923 -0.009436,-0.066053 -0.0559309,-0.1235826 -0.0632992,-0.1898978 -0.0601565,-0.5414084 0.0675517,-1.1053659 0,-1.64578 -0.029739,-0.237912 -0.1510027,-0.4629213 -0.1898977,-0.6962915 -0.0503397,-0.3020383 0,-0.7178286 0,-1.0127877 0,-0.3132942 0.14648381,-0.372509 0.1898977,-0.6329923 0.0324222,-0.1945331 0.0156919,-0.3792641 0.0632992,-0.5696932 0.007237,-0.028949 0.0421995,-0.042199 0.0632992,-0.063299 0.0210997,-0.1054986 0.0456119,-0.210372 0.0632992,-0.3164961 0.033341,-0.2000459 0,-0.429419 0,-0.6329924 0,-0.4430945 0,-0.886189 0,-1.3292838 0,-0.294599 0.0709781,-1.4961449 0,-1.70907923 -0.006672,-0.020017 -0.0538631,0.0188722 -0.0632992,0 -0.0286819,-0.0573637 0,-0.24397387 0,-0.31649616 0,-0.0535213 0.0329362,-0.22026073 0,-0.25319691 C 0.55982797,0.3699296 0.39048213,0.3058085 0.4430945,0.25319613 0.5076465,0.18864413 0.75541176,0.34605553 0.82288988,0.3797946 1.1515848,0.54414202 1.5518322,0.56611151 1.8989768,0.69629074 c 0.088353,0.0331323 0.1624667,0.10067555 0.253197,0.12659847 0.060864,0.0173897 0.1278277,-0.012414 0.1898977,0 0.046264,0.009253 0.081839,0.0483795 0.1265984,0.0632992 0.2580446,0.0860149 0.7912588,-0.0356035 1.076087,0 0.086325,0.0107905 0.1668722,0.0525087 0.253197,0.0632992 0.4882586,0.0610323 1.0265069,0 1.5191814,0 0.2636358,0 0.5628209,0.0371528 0.8228901,0 0.2305066,-0.0329295 0.1331534,-0.0654842 0.3164962,-0.12659846 0.2796566,-0.0932189 0.6573314,0.0486929 0.9494885,0 0.128791,0.021985 0.2050769,-0.10431465 0.3164962,-0.12659847 0.1258522,-0.0251706 0.2539428,-0.0381288 0.3797953,-0.0632992 0.365188,-0.0730376 0.7741984,0.0730376 1.1393861,0 0.046264,-0.009253 0.08006,-0.0555428 0.1265986,-0.0632992 0.4720653,-0.0786776 1.2165407,0 1.7090797,0 0.326901,0 0.690681,-0.0460152 1.012787,0 0.449791,0.0642558 0.874216,0.1443909 1.329284,0.18989767 0.631135,0.0631135 1.273966,0.0373111 1.898977,0.12659847 0.118596,0.0169423 0.390685,-0.0578543 0.506394,0 0.02669,0.0133445 0.03499,0.0538632 0.0633,0.0632992 0.265323,0.0884409 0.937541,-0.0102703 1.202686,-0.0632992 0.365185,-0.073037 0.718346,-0.0754927 1.076087,-0.12659847 0.70005,-0.1000072 1.365464,-0.50036375 2.088874,-0.37979537 0.06582,0.0109694 0.123449,0.0572584 0.189898,0.0632992 0.168105,0.0152823 0.339892,-0.0277502 0.506394,0 0.09308,0.0155128 0.161653,0.10371257 0.253197,0.12659847 0.08188,0.0204698 0.169314,-0.00932 0.253197,0 0.10693,0.0118811 0.20935,0.0535587 0.316496,0.0632992 0.410689,0.0373353 0.854554,0 1.265984,0 0.801791,0 1.603581,0 2.405371,0 0.308101,0 0.643486,-0.0340002 0.949489,0 0.649417,0.0721574 1.304415,0.13929293 1.962277,0.1898977 0.147262,0.0113279 0.297405,-0.0242813 0.443093,0 0.333547,0.0555909 0.669144,0.15865734 1.012788,0.18989765 0.39761,0.036146 0.805076,-0.0361463 1.202687,0 0.234931,0.021358 0.460989,0.1097911 0.696291,0.1265985 0.498406,0.035601 1.018431,0 1.519182,0 0.329975,0 0.6844,0.032839 1.012787,0 0.53784,-0.053784 1.054302,-0.1777427 1.582481,-0.25319692 0.1861,-0.0265857 0.383593,0.0265857 0.569693,0 0.08612,-0.0123031 0.166873,-0.0525086 0.253196,-0.0632992 0.446873,-0.055859 0.943803,0 1.392584,0 0.949489,0 1.898975,0 2.848464,0 0.522854,0 1.060969,0.0325946 1.582481,0 1.560166,-0.0975103 0.07252,0.0425779 0.88619,-0.1898977 0.243454,-0.0695585 0.50714,0.0194194 0.75959,0 0.171027,-0.0131556 0.283334,-0.0866584 0.443095,-0.12659844 0.299159,-0.0747898 0.581978,-0.0632992 0.88619,-0.0632992 0.258935,0 0.434113,0.0789294 0.696291,0.12659847 0.456766,0.0830485 0.932397,0.15154889 1.392584,0.18989767 0.454713,0.0378929 0.936487,0 1.392581,0 0.540629,0 1.107242,0.0448784 1.64578,0 0.340032,-0.0283358 0.674878,-0.0890527 1.012788,-0.12659846 0.937802,-0.10420011 1.908633,0.0854394 2.848467,0 0.107146,-0.009741 0.209349,-0.0535587 0.316495,-0.0632992 0.580795,-0.0527994 1.187905,0 1.77238,0 0.264972,0 0.558967,-0.0293248 0.822889,0 0.407262,0.0452515 0.787915,0.0632992 1.202687,0.0632992 0.963726,0 1.956443,0.0561157 2.911763,-0.0632992 0.132416,-0.0165521 0.24769,-0.10772629 0.379796,-0.12659847 0.06567,-0.009382 0.710724,-0.0448661 0.822889,0 0.312457,0.12498247 0.05893,0.13641951 0.379796,0.18989768 0.23445,0.0390748 0.53449,-0.0750332 0.75959,0 0.07864,0.0262125 0.173971,0.17009125 0.253198,0.1898977 0.12282,0.0307047 0.254175,-0.0157025 0.379796,0 1.182262,0.14778273 2.412431,0.0632992 3.608054,0.0632992 0.696294,0 1.392584,0 2.088875,0 0.274299,0 0.549955,0.0272935 0.822891,0 0.336783,-0.0336783 0.676569,-0.0845712 1.012788,-0.12659847 0.251241,-0.0314052 0.507651,0.0251942 0.75959,0 0.04695,-0.004694 0.08006,-0.0555428 0.1266,-0.0632992 0.292135,-0.0486893 0.670222,0.0930888 0.949487,0 0.249777,-0.0832586 0.489971,-0.0632992 0.759592,-0.0632992 0.293309,0 0.668364,0.0702807 0.949489,0 0.423037,-0.10575936 0.144714,-0.37375639 0.696291,-0.18989768 0.02,0.006672 0.04838,-0.0149199 0.0633,0 0.01492,0.0149199 -0.01492,0.0483795 0,0.0632992 0.02984,0.0298395 0.09676,-0.0298396 0.126597,0 0.09577,0.0957706 -0.110693,0.34003635 -0.126597,0.37979537 -0.04932,0.12329825 -0.0305,0.31190435 -0.0633,0.44309465 -0.02368,0.094744 -0.155864,0.248425 -0.189897,0.3164961 -0.100267,0.2005293 -0.237374,0.4219969 -0.316497,0.6329923 -0.03055,0.081457 -0.02903,0.1732346 -0.0633,0.253197 -0.02997,0.069925 -0.09663,0.1199727 -0.126598,0.1898976 -0.09829,0.2293413 -0.01812,0.4070522 -0.0633,0.6329923 -0.0093,0.046264 -0.05405,0.080334 -0.0633,0.1265986 -0.09932,0.496588 -0.12735,1.513177 -0.0633,2.0255754 -0.07326,0.1647695 0.104661,0.2481646 0.126597,0.3797953 0.0479,0.2874127 -0.0479,0.5987767 0,0.8861894 0.10649,0.638933 0.265965,1.2979003 0.506394,1.898977 0.03996,0.099893 0.01519,0.2202664 0.0633,0.3164961 0.0094,0.018873 0.05663,-0.020018 0.0633,0 0.02,0.060051 -0.01535,0.1284883 0,0.1898976 0.0072,0.028949 0.0422,0.042199 0.0633,0.063299 0.02109,0.0422 0.05405,0.080334 0.0633,0.1265986 0.06237,0.31184 0,0.6958266 0,1.0127876 0,0.886189 0,1.772378 0,2.658568 0,0.225748 -0.07203,0.606796 0,0.82289 0.02214,0.06646 0.231531,0.211562 0.126598,0.316496 -0.03158,0.03158 -0.266933,0 -0.316495,0 -0.217474,0 -0.250936,-0.01526 -0.443095,-0.0633 -0.218406,-0.0546 -0.4753,0.0442 -0.696293,0 -0.111419,-0.02228 -0.205076,-0.104315 -0.316495,-0.126599 -0.310348,-0.06207 -0.696344,0 -1.012788,0 -0.860727,0 -2.073346,-0.131774 -2.848467,0.126599 -0.258479,0.08616 -0.859187,-0.02155 -1.139386,0 -0.3883,0.02987 -0.749175,0.0633 -1.139386,0.0633 -0.32817,0 -0.755541,-0.08014 -1.076086,0 -0.325541,0.08138 -0.676463,0.133844 -1.012788,0.189898 -0.234307,0.03905 -0.52414,0 -0.75959,0 -0.509987,0 -1.01319,-0.02113 -1.519182,-0.0633 -0.816771,-0.06806 -0.01725,-0.03863 -0.632992,-0.126598 -0.553066,-0.07901 -1.161941,0.109428 -1.709081,0 -0.701911,-0.140382 -1.435878,-0.0082 -2.152174,-0.0633 -0.484256,-0.03725 -0.970457,-0.104534 -1.45588,-0.126599 -1.663197,-0.0756 -3.331739,-0.0633 -5.000641,-0.0633 -0.611891,0 -1.223785,0 -1.835677,0 -0.306712,0 -0.643765,-0.03397 -0.949489,0 -0.259154,0.02879 -0.508539,0.07639 -0.759589,0.126598 -0.212667,0.04253 -0.479142,0 -0.696294,0 -0.395388,0 -0.808876,0.03029 -1.202684,0 -0.127966,-0.0098 -0.251894,-0.05264 -0.379796,-0.0633 -0.436661,-0.03639 -0.894215,0.05438 -1.329283,0 -0.357904,-0.04474 -0.717841,-0.08679 -1.076087,-0.126598 -0.209709,-0.0233 -0.423624,0.02617 -0.632992,0 -0.06621,-0.0083 -0.124084,-0.05233 -0.189899,-0.0633 -0.145687,-0.02428 -0.296881,0.02089 -0.443095,0 -0.06605,-0.0094 -0.123844,-0.05386 -0.189897,-0.0633 -0.22443,-0.03206 -0.474051,0.04445 -0.69629,0 -0.645806,-0.12916 -1.356374,-0.193519 -2.025576,-0.126598 -0.427178,0.04272 -0.847207,0.120101 -1.265987,0.189897 -0.145687,0.02428 -0.296881,-0.02089 -0.443092,0 -0.06605,0.0094 -0.124084,0.05233 -0.189899,0.0633 -0.124876,0.02081 -0.256977,-0.0307 -0.379794,0 -0.02895,0.0072 -0.03499,0.05386 -0.0633,0.0633 -0.164622,0.05487 -0.399617,-0.0243 -0.569693,0 -0.319778,0.04568 -0.20246,0.06832 -0.506394,0.189898 -0.164844,0.06594 -1.948728,0 -2.215473,0 -1.287084,0 -2.574168,0 -3.861252,0 -0.658032,0 -1.365391,0.05501 -2.025576,0 -0.276564,-0.02305 -0.546185,-0.105314 -0.822889,-0.126599 -0.551339,-0.04241 -1.10027,-0.05841 -1.645782,-0.126598 -0.856443,-0.107056 -1.801929,0.0633 -2.658567,0.0633 -0.862291,0 -1.814224,-0.105569 -2.658568,0.0633 -0.10345,0.02069 -0.212057,-0.01492 -0.316496,0 -0.835507,0.119359 0.294647,0.0044 -0.316496,0.126599 -0.227022,0.0454 -0.530684,0 -0.759591,0 -0.485294,0 -0.970588,0 -1.455882,0 -0.654092,0 -1.308184,0 -1.962276,0 -0.283233,0 -0.607429,0.04646 -0.88619,0 -0.06582,-0.01097 -0.123844,-0.05386 -0.189897,-0.0633 -0.558299,-0.07976 -1.15078,0.07976 -1.70908,0 -0.825087,-0.117869 -1.692674,-0.0633 -2.531969,-0.0633 -1.3292836,0 -2.6585677,0 -3.9878515,0 -1.3925831,0 -2.7851661,0 -4.1777491,0 -0.6540922,0 -1.3081843,0 -1.9622763,0 -0.022201,0 -0.29227968,-0.02422 -0.31649622,0 -0.0149199,0.01492 0.0149199,0.04838 0,0.0633 -0.001098,0.0011 -0.44292686,0.06326 -0.44309461,0.0633 z" />
  <path
     d="m 13.621482,8.1765867 q -0.220133,-0.027517 -0.24765,-0.036689 -0.0092,-0.00459 -0.02752,-0.00459 -0.03669,0 -0.105481,0.068792 -0.06879,0.073378 -0.06879,0.1559277 v 0.041275 q 0.0046,0.08255 0.01834,0.1054806 0.01834,0.027517 0.08714,0.064206 0.123825,0.073378 0.288925,0.073378 0.05962,0 0.07338,-0.018344 0.01376,-0.022931 0.110067,-0.022931 0.09172,0 0.10548,-0.02293 0.01835,-0.022931 0.119239,-0.050447 0.100894,-0.027517 0.142169,-0.1100667 0.02752,-0.05962 0.02752,-0.077964 0,-0.013758 -0.0321,-0.036689 -0.128411,-0.096308 -0.490714,-0.1284111 z m 0.05503,-1.9353389 q -0.09631,-0.027517 -0.279753,-0.027517 -0.142169,0 -0.183444,0.032103 -0.04128,0.032103 -0.09631,0.1788584 -0.03669,0.087136 -0.03669,0.1146528 0,0.041275 0.110067,0.1788583 0.03669,0.045861 0.07796,0.059619 0.04128,0.00917 0.206375,0.018344 l 0.229305,0.013758 0.05503,-0.123825 q 0.05045,-0.1054805 0.05045,-0.206375 0,-0.00917 -0.0046,-0.032103 0,-0.022931 0,-0.036689 l -0.01376,-0.1421694 z m -0.4953,-0.6420555 q 0.0321,-0.00459 0.123825,-0.00459 0.440266,0 0.609953,0.050447 0.04586,0.013758 0.137583,0.013758 0.128411,0 0.298097,-0.018344 0.04128,-0.00459 0.05962,0.055033 0.01834,0.055033 0.142169,0.2751667 0.105481,0.1880305 0.105481,0.2338916 0,0.00917 -0.0046,0.013758 -0.01834,0.018344 -0.119238,0.036689 l -0.09631,0.013758 v 0.1926167 q 0,0.3026833 -0.119239,0.5457472 -0.100894,0.206375 -0.316441,0.3485444 -0.146756,0.096308 -0.275167,0.096308 -0.09631,0 -0.224719,-0.018344 -0.08255,-0.00917 -0.100895,-0.00917 -0.04586,0 -0.0642,0.018344 -0.01376,0.032103 -0.0046,0.041275 0.04128,0.041275 0.357717,0.064206 0.178858,0.018344 0.408164,0.08255 0.229306,0.064205 0.343958,0.1329972 0.114653,0.064206 0.14217,0.064206 h 0.0046 q 0.0046,-0.00459 0.0092,0.00917 0.0046,0.00917 0.0046,0.036689 0,0.064205 0.04586,0.064205 0.04586,0 0.09631,0.1146528 0.05045,0.1192389 0.0642,0.2659944 0.0046,0.032103 0.0046,0.08255 0,0.08255 -0.05045,0.1788584 -0.05503,0.1054805 -0.06421,0.1742722 -0.0092,0.08255 -0.04586,0.1375833 l -0.03669,0.064206 h -0.976842 q -0.687917,0 -0.834672,-0.00459 -0.146756,-0.00459 -0.169686,-0.036689 -0.06421,-0.073378 -0.08255,-0.1559278 -0.01835,-0.08255 -0.01835,-0.3118555 0,-0.2522362 0.02293,-0.3531306 0.02752,-0.096308 0.114652,-0.206375 0.05503,-0.073378 0.05503,-0.1192389 0,-0.032103 -0.01376,-0.1192389 -0.01376,-0.08255 -0.01376,-0.1651 0,-0.045861 0.0092,-0.1559277 l 0.02752,-0.1742723 -0.08714,-0.096308 Q 12.474955,6.869545 12.45661,6.5989645 v -0.045861 q 0,-0.206375 0.110067,-0.454025 0.110067,-0.2522361 0.220133,-0.3393722 0.1651,-0.1375834 0.394406,-0.1605139 z m 2.733325,0.4677833 q 0.01376,-0.013758 0.02752,-0.013758 0.06421,0 0.06421,0.1834444 0,0.05962 -0.01376,0.1146528 -0.0321,0.1054806 -0.0321,0.3256139 0,0.206375 0.0642,0.3944055 0.05503,0.1605139 0.05503,0.2659945 0,0.091722 -0.0046,0.1559278 -0.0092,0.1651 -0.0092,0.1742722 0,0.087136 0.03669,0.1100666 0.0321,0.032103 0.174272,0.055033 0.14217,0.022931 0.265995,0.022931 0.05503,0 0.100894,-0.00917 0.08714,-0.022931 0.114653,-0.050447 0.0321,-0.032103 0.0321,-0.1100667 0,-0.068792 -0.0046,-0.1146528 -0.0092,-0.091722 -0.04586,-0.3256138 -0.03669,-0.2338917 -0.03669,-0.371475 0,-0.1559278 0.0321,-0.454025 0.0321,-0.2980973 0.05503,-0.3347861 0.0046,-0.013758 0.02752,-0.013758 0.02752,0 0.275167,0.08255 l 0.284339,0.096308 -0.0046,0.091722 q 0,0.013758 -0.0092,0.1467555 -0.0046,0.1284111 -0.01376,0.2155473 -0.01376,0.1375833 -0.01376,0.2201333 0,0.096308 0.01834,0.1559278 0.06879,0.2614083 0.06879,0.9034638 0,0.2614084 -0.02293,0.2614084 -0.0092,0 -0.01376,-0.018344 l -0.02293,-0.055033 -0.07796,0.059619 q -0.09172,0.064206 -0.100895,0.064206 -0.01376,0 -0.100894,0.059619 -0.183445,0.123825 -0.545747,0.123825 -0.114653,0 -0.178859,-0.00459 -0.334786,-0.018344 -0.417336,-0.041275 -0.183444,-0.050447 -0.321028,-0.2338916 -0.206375,-0.2843389 -0.206375,-0.5274028 0,-0.073378 0.01376,-0.1559278 0.0092,-0.1100667 0.0092,-0.1375833 0,-0.08255 -0.0321,-0.1834445 -0.09172,-0.2797527 -0.09172,-0.536575 0,-0.096308 0.0046,-0.1513416 0.01835,-0.2568222 0.0321,-0.2980972 0.01834,-0.041275 0.100894,-0.041275 0.08714,0 0.137584,-0.050447 0.04128,-0.041275 0.128411,-0.041275 h 0.05045 0.05503 q 0.08255,0 0.09172,-0.00917 z m 2.008715,-0.4173361 -0.01835,-0.3164417 0.210962,0.013758 q 0.220133,0.018344 0.321027,0.032103 l 0.110067,0.013758 v 0.1880305 q 0,0.2843389 0.08714,0.4402667 h 0.0046 q 0.0321,0 0.174272,-0.032103 0.123825,-0.032103 0.261409,-0.032103 0.311855,0 0.568678,0.1651 0.119238,0.077964 0.174272,0.206375 0.05962,0.123825 0.09172,0.4035778 0.05045,0.3485445 0.08714,0.5228167 0.05045,0.2384778 0.05045,0.5870222 0,0.2201333 -0.01834,0.3668889 l -0.02293,0.1605139 -0.307269,-0.00917 -0.311856,-0.00459 0.0046,-0.1329972 q 0,-0.1467555 0.02293,-0.3531305 0.0046,-0.050447 0.0046,-0.1421695 0,-0.1329972 -0.01376,-0.2017889 -0.09631,-0.4907139 -0.123825,-0.701675 -0.02293,-0.1696861 -0.05503,-0.1972027 -0.02752,-0.032103 -0.169686,-0.032103 -0.100894,0 -0.288925,0.096308 -0.132997,0.068792 -0.1651,0.096308 -0.02752,0.027517 -0.02752,0.077964 0,0.073378 -0.04128,0.24765 -0.02293,0.123825 -0.02293,0.1742723 0,0.055033 0.01376,0.1008944 0.01835,0.077964 0.03669,0.5870222 l 0.01376,0.4861278 h -0.605367 l -0.0321,-0.1100667 q -0.01376,-0.068792 -0.01376,-0.1696861 0,-0.041275 0.0092,-0.2338916 0.0092,-0.091722 0.0092,-0.2155473 0,-0.1054805 -0.02752,-0.2109611 -0.0321,-0.1146528 -0.0321,-0.2980972 0,-0.1559278 0.02293,-0.2384778 0.0321,-0.1284111 0.0321,-0.7704666 0,-0.3393723 -0.01376,-0.5640917 z m 2.719561,-0.3072694 q 0.04127,-0.073378 0.07338,-0.073378 0.01835,0 0.0321,0.022931 0.01376,0.022931 0.261408,0.022931 h 0.24765 v 0.1926167 q 0,0.3623027 0.09631,0.4494388 0.04586,0.041275 0.09172,0.041275 0.04127,0 0.114653,-0.036689 0.05503,-0.027517 0.137583,-0.027517 0.146755,0 0.238478,0.064205 0.146755,0.1008945 0.146755,0.3668889 0,0.123825 -0.02293,0.1513417 -0.01835,0.027517 -0.114653,0.027517 -0.06421,0 -0.155928,0.050447 -0.08255,0.041275 -0.215547,0.041275 h -0.08714 -0.08714 q -0.119239,0 -0.160514,0.050447 -0.02752,0.032103 -0.02752,0.091722 0,0.00459 0.01835,0.1880306 0.01376,0.08255 0.03669,0.536575 0.0092,0.3072694 0.02752,0.3623028 0.02293,0.050447 0.151342,0.050447 h 0.08714 0.220133 v 0.6374694 h -0.243064 q -0.233891,0 -0.35313,-0.018344 -0.1651,-0.027517 -0.288925,-0.1651 -0.123825,-0.1329973 -0.192617,-0.3531306 -0.02293,-0.087136 -0.05503,-0.4723694 -0.02752,-0.3898195 -0.0321,-0.7612945 -0.0092,-0.2017888 -0.0321,-0.2201333 -0.0321,-0.018344 -0.0321,-0.3256139 V 5.9293923 h 0.06879 q 0.05045,0 0.05962,-0.00917 0.0092,-0.013758 0,-0.068792 -0.02752,-0.1284111 -0.03669,-0.1559278 -0.01835,-0.068792 -0.01835,-0.1559278 0,-0.123825 0.04586,-0.1972027 z m 3.691818,0.5044722 q 0.128411,-0.027517 0.3302,-0.027517 0.298097,0 0.596194,0.050447 0.302684,0.050447 0.380648,0.123825 0.01834,0.013758 0.01834,0.032103 0,0.032103 -0.192617,0.2247195 -0.18803,0.1880305 -0.18803,0.2247194 0,0.013758 0.0046,0.018344 0.0092,0.00917 0.0092,0.018344 0,0.00917 -0.02752,0.00917 -0.02293,0 -0.238478,-0.036689 -0.215547,-0.036689 -0.353131,-0.036689 -0.10548,0 -0.174272,0.018344 -0.155928,0.036689 -0.155928,0.087136 0,0.036689 0.01834,0.077964 0.02752,0.073378 0.07796,0.096308 0.05503,0.022931 0.197202,0.027517 0.105481,0.00459 0.302684,0.055033 0.197202,0.050447 0.27058,0.096308 0.311856,0.1834445 0.38982,0.3072695 0.07796,0.123825 0.08255,0.4402666 v 0.087136 q 0,0.1329972 -0.07338,0.2614083 -0.123825,0.206375 -0.22472,0.288925 -0.100894,0.08255 -0.24765,0.1054805 -0.123825,0.018344 -0.220133,0.064206 -0.123825,0.050447 -0.3302,0.050447 -0.252236,0 -0.4953,-0.068792 l -0.137583,-0.041275 0.0092,-0.1742722 q 0.01834,-0.1742722 0.02752,-0.1834444 0.01376,-0.013758 0.01376,-0.1192389 0,-0.1054806 0.0321,-0.1192389 h 0.01834 q 0.08714,0 0.265995,0.027517 0.174272,0.022931 0.243064,0.022931 0.02752,0 0.02752,-0.00459 0.02293,-0.068792 0.05962,-0.068792 0.02293,0 0.05503,0.013758 0.05503,0.018344 0.07796,0.018344 0.01376,0 0.09631,-0.018344 0.105481,-0.032103 0.132997,-0.055033 0.0321,-0.027517 0.0321,-0.096308 0,-0.077964 -0.07338,-0.1375833 -0.09631,-0.077964 -0.51823,-0.1329972 -0.201789,-0.027517 -0.288925,-0.055033 -0.08255,-0.032103 -0.1651,-0.1054805 -0.279753,-0.2522361 -0.279753,-0.6741583 0,-0.3302 0.169686,-0.4769556 0.183445,-0.1559278 0.444853,-0.2155472 z m 1.949096,-0.5044722 q 0.04127,-0.073378 0.07338,-0.073378 0.01835,0 0.0321,0.022931 0.01376,0.022931 0.261408,0.022931 h 0.24765 v 0.1926167 q 0,0.3623027 0.09631,0.4494388 0.04586,0.041275 0.09172,0.041275 0.04128,0 0.114653,-0.036689 0.05503,-0.027517 0.137583,-0.027517 0.146755,0 0.238478,0.064205 0.146755,0.1008945 0.146755,0.3668889 0,0.123825 -0.02293,0.1513417 -0.01835,0.027517 -0.114653,0.027517 -0.06421,0 -0.155928,0.050447 -0.08255,0.041275 -0.215547,0.041275 h -0.08714 -0.08714 q -0.119239,0 -0.160514,0.050447 -0.02752,0.032103 -0.02752,0.091722 0,0.00459 0.01835,0.1880306 0.01376,0.08255 0.03669,0.536575 0.0092,0.3072694 0.02752,0.3623028 0.02293,0.050447 0.151342,0.050447 h 0.08714 0.220133 v 0.6374694 h -0.243064 q -0.233891,0 -0.35313,-0.018344 -0.1651,-0.027517 -0.288925,-0.1651 -0.123825,-0.1329973 -0.192617,-0.3531306 -0.02293,-0.087136 -0.05503,-0.4723694 -0.02752,-0.3898195 -0.0321,-0.7612945 -0.0092,-0.2017888 -0.0321,-0.2201333 -0.0321,-0.018344 -0.0321,-0.3256139 V 5.9293923 h 0.06879 q 0.05045,0 0.05962,-0.00917 0.0092,-0.013758 0,-0.068792 -0.02752,-0.1284111 -0.03669,-0.1559278 -0.01835,-0.068792 -0.01835,-0.1559278 0,-0.123825 0.04586,-0.1972027 z m 3.173588,1.3437305 q -0.05045,-0.045861 -0.146756,-0.045861 -0.155927,0 -0.298097,0.1192389 -0.06879,0.059619 -0.09631,0.1788583 l -0.02293,0.1284111 0.07796,0.013758 q 0.02293,0.00459 0.146756,0.00459 0.486127,0 0.513644,-0.027517 0.0046,-0.00459 0.0046,-0.00917 0,-0.041275 -0.07338,-0.1880306 -0.06879,-0.1467555 -0.10548,-0.1742722 z m -0.47237,-0.6282972 q 0.160514,-0.050447 0.339373,-0.050447 0.197202,0 0.339372,0.059619 0.293511,0.1375833 0.431094,0.4081639 0.08714,0.1788583 0.100895,0.2568222 0.01834,0.096308 0.04586,0.1421695 0.02752,0.059619 0.05045,0.1972027 0.02752,0.1375834 0.02752,0.2338917 0,0.045861 -0.0046,0.059619 -0.01376,0.068792 -0.08714,0.1605139 -0.06879,0.087136 -0.132998,0.1100667 -0.10548,0.041275 -0.41275,0.055033 -0.302683,0.013758 -0.550333,0.018344 -0.24765,0 -0.24765,0.013758 0,0.1146528 0.123825,0.1926167 0.07796,0.050447 0.362303,0.073378 0.151341,0.018344 0.233891,0.018344 0.07338,0 0.183445,-0.041275 0.119239,-0.045861 0.201789,-0.045861 0.06879,0 0.1651,0.041275 l 0.09631,0.045861 -0.0092,0.1375833 q -0.0321,0.3898195 -0.06879,0.4173361 -0.05503,0.064206 -0.628297,0.064206 -0.288925,0 -0.481542,-0.027517 -0.183444,-0.022931 -0.371475,-0.1284111 -0.183444,-0.1054805 -0.265994,-0.2293055 -0.210961,-0.3302 -0.210961,-0.7200195 0,-0.1054805 0.0046,-0.1605139 0.02752,-0.3485444 0.100894,-0.5916083 0.132998,-0.4448528 0.38982,-0.5961944 0.09631,-0.050447 0.275166,-0.1146528 z m 2.852561,-0.08255 q 0.137583,-0.036689 0.183445,-0.036689 0.04586,0 0.05962,0.036689 0.01834,0.036689 0.04127,0.1467555 0,0.013758 0,0.022931 0.0046,0.00917 0.0046,0.022931 0.0046,0.013758 0.0092,0.027517 0.05045,0.2659945 0.06421,0.3026834 0.0046,0.018344 -0.01834,0.032103 -0.02293,0.013758 -0.09172,0.032103 -0.137583,0.036689 -0.302683,0.1513417 -0.220133,0.1421694 -0.279753,0.1651 -0.09172,0.041275 -0.09172,0.077964 0,0.018344 0.0046,0.032103 0.02293,0.1192389 0.04586,0.8759473 l 0.01835,0.5961944 h -0.646642 l -0.0046,-0.4081639 q -0.0092,-0.6328833 -0.02752,-0.9172222 -0.0046,-0.064206 -0.0046,-0.206375 0,-0.1467556 0.01376,-0.2522361 0.01376,-0.096308 0.01376,-0.1651 0,-0.08255 -0.01835,-0.1513417 -0.01376,-0.059619 -0.01376,-0.091722 0,-0.050447 0.05045,-0.08255 0.05503,-0.032103 0.238478,-0.096308 0.243064,-0.087136 0.275167,-0.087136 0.03669,0 0.05503,0.073378 0.01834,0.068792 0.05045,0.068792 0.02752,0 0.123825,-0.068792 0.07796,-0.059619 0.24765,-0.1008944 z m 0.967668,-0.6328833 q 0.04127,-0.073378 0.07338,-0.073378 0.01835,0 0.0321,0.022931 0.01376,0.022931 0.261408,0.022931 h 0.24765 v 0.1926167 q 0,0.3623027 0.09631,0.4494388 0.04586,0.041275 0.09172,0.041275 0.04127,0 0.114653,-0.036689 0.05503,-0.027517 0.137583,-0.027517 0.146756,0 0.238478,0.064205 0.146755,0.1008945 0.146755,0.3668889 0,0.123825 -0.02293,0.1513417 -0.01834,0.027517 -0.114653,0.027517 -0.06421,0 -0.155928,0.050447 -0.08255,0.041275 -0.215547,0.041275 h -0.08714 -0.08714 q -0.119239,0 -0.160514,0.050447 -0.02752,0.032103 -0.02752,0.091722 0,0.00459 0.01835,0.1880306 0.01376,0.08255 0.03669,0.536575 0.0092,0.3072694 0.02752,0.3623028 0.02293,0.050447 0.151342,0.050447 h 0.08714 0.220133 v 0.6374694 h -0.243063 q -0.233892,0 -0.353131,-0.018344 -0.1651,-0.027517 -0.288925,-0.1651 -0.123825,-0.1329973 -0.192617,-0.3531306 -0.02293,-0.087136 -0.05503,-0.4723694 -0.02752,-0.3898195 -0.0321,-0.7612945 -0.0092,-0.2017888 -0.0321,-0.2201333 -0.0321,-0.018344 -0.0321,-0.3256139 V 5.9293923 h 0.06879 q 0.05045,0 0.05962,-0.00917 0.0092,-0.013758 0,-0.068792 -0.02752,-0.1284111 -0.03669,-0.1559278 -0.01835,-0.068792 -0.01835,-0.1559278 0,-0.123825 0.04586,-0.1972027 z m 3.173586,1.3437305 q -0.05045,-0.045861 -0.146755,-0.045861 -0.155928,0 -0.298098,0.1192389 -0.06879,0.059619 -0.09631,0.1788583 l -0.02293,0.1284111 0.07796,0.013758 q 0.02293,0.00459 0.146756,0.00459 0.486128,0 0.513644,-0.027517 0.0046,-0.00459 0.0046,-0.00917 0,-0.041275 -0.07338,-0.1880306 -0.06879,-0.1467555 -0.105481,-0.1742722 z M 35.506395,6.0578034 q 0.160514,-0.050447 0.339372,-0.050447 0.197203,0 0.339372,0.059619 0.293511,0.1375833 0.431095,0.4081639 0.08714,0.1788583 0.100894,0.2568222 0.01834,0.096308 0.04586,0.1421695 0.02752,0.059619 0.05045,0.1972027 0.02752,0.1375834 0.02752,0.2338917 0,0.045861 -0.0046,0.059619 -0.01376,0.068792 -0.08714,0.1605139 -0.06879,0.087136 -0.132997,0.1100667 -0.105481,0.041275 -0.41275,0.055033 -0.302684,0.013758 -0.550334,0.018344 -0.24765,0 -0.24765,0.013758 0,0.1146528 0.123825,0.1926167 0.07796,0.050447 0.362303,0.073378 0.151342,0.018344 0.233892,0.018344 0.07338,0 0.183444,-0.041275 0.119239,-0.045861 0.201789,-0.045861 0.06879,0 0.1651,0.041275 l 0.09631,0.045861 -0.0092,0.1375833 q -0.0321,0.3898195 -0.06879,0.4173361 -0.05503,0.064206 -0.628298,0.064206 -0.288925,0 -0.481541,-0.027517 -0.183445,-0.022931 -0.371475,-0.1284111 -0.183445,-0.1054805 -0.265995,-0.2293055 -0.210961,-0.3302 -0.210961,-0.7200195 0,-0.1054805 0.0046,-0.1605139 0.02752,-0.3485444 0.100895,-0.5916083 0.132997,-0.4448528 0.389819,-0.5961944 0.09631,-0.050447 0.275167,-0.1146528 z m 3.246967,0.6145389 q -0.05503,-0.027517 -0.316442,-0.027517 -0.142169,0 -0.169686,0.013758 -0.142169,0.064206 -0.233892,0.3256139 -0.05962,0.1605139 -0.05962,0.4815417 0,0.2247194 0.0046,0.2797528 0.0092,0.055033 0.05503,0.123825 l 0.06421,0.1008944 0.188031,-0.013758 q 0.224719,-0.018345 0.362302,-0.064206 l 0.1651,-0.059619 -0.0046,-0.2338917 q -0.0046,-0.073378 -0.0092,-0.3026833 -0.0046,-0.2293056 -0.0046,-0.2705806 -0.0046,-0.3347861 -0.04127,-0.3531305 z m 0.35313,-1.3529028 q 0.229306,-0.068792 0.293512,-0.068792 0.03669,0 0.05045,0.032103 0.0321,0.08255 0.0321,0.8025695 0,0.3989916 -0.01835,0.5090583 -0.0642,0.3210278 -0.0642,0.454025 0,0.087136 0.02293,0.1926166 0.04127,0.1742723 0.04127,0.5961945 0,0.3026833 -0.02752,0.4173361 l -0.02752,0.1329972 h -0.14217 q -0.132997,0 -0.224719,0.041275 -0.174272,0.073378 -0.449439,0.1192389 -0.270581,0.050447 -0.486128,0.050447 -0.155928,0 -0.220133,-0.022931 -0.114653,-0.036689 -0.24765,-0.1834445 -0.132997,-0.1421694 -0.215547,-0.3118555 -0.03669,-0.077964 -0.04586,-0.096308 -0.0092,-0.018344 -0.02752,-0.068792 -0.01376,-0.050447 -0.01834,-0.087136 0,-0.041275 0,-0.1054806 0,-0.1192389 0.01376,-0.3989917 0.02293,-0.4815416 0.206375,-0.8163277 0.06421,-0.1100667 0.197203,-0.2384778 0.137583,-0.1284111 0.238477,-0.1742722 0.201789,-0.087136 0.463198,-0.087136 0.128411,0 0.339372,0.032103 l 0.07338,0.013758 -0.01834,-0.1284111 q -0.0092,-0.08255 -0.0092,-0.1880306 0,-0.096308 0.0046,-0.1375833 l 0.01376,-0.206375 z m 3.499202,0.701675 q 0.05503,-0.036689 0.132997,-0.036689 0.04586,0 0.07796,0.00459 0.09631,0.00917 0.132997,0.027517 0.04127,0.013758 0.100895,0.073378 0.09172,0.087136 0.1651,0.2247194 0.07338,0.1329972 0.09172,0.2384778 0.05503,0.2980972 0.197203,0.6787444 0.04586,0.1192389 0.05503,0.1192389 0.0092,0 0.0092,-0.050447 0,-0.087136 0.04586,-0.1880306 0.04128,-0.091722 0.146755,-0.3806472 0.105481,-0.2935111 0.146756,-0.4861278 0.0321,-0.1513416 0.04586,-0.1651 h 0.0046 q 0.03669,0 0.288925,0.1054806 0.233892,0.1008944 0.261408,0.1421694 0.01835,0.027517 0.01835,0.059619 0,0.055033 -0.07338,0.2522361 -0.160514,0.4402667 -0.206375,0.5961944 -0.04586,0.1559278 -0.05503,0.3118556 -0.0092,0.1192389 -0.06421,0.3531305 -0.05503,0.2338917 -0.05503,0.2384778 -0.01835,0.1054806 -0.06879,0.2017889 -0.04586,0.1008944 -0.100894,0.1329972 -0.05962,0.041275 -0.398992,0.091722 -0.0046,0 -0.01835,0 -0.01376,0.00459 -0.02293,0.00459 -0.08255,0 -0.1651,-0.041275 -0.07796,-0.041275 -0.114653,-0.1008945 -0.114653,-0.2109611 -0.114653,-0.3302 0,-0.1054805 -0.100894,-0.4631972 Q 42.867102,7.2777089 42.835,7.2777089 q -0.02752,0 -0.119239,0.2247195 -0.02752,0.08255 -0.05045,0.2614083 -0.0321,0.3347861 -0.06879,0.4631972 -0.0321,0.1329972 -0.100895,0.206375 -0.05962,0.068792 -0.132997,0.091722 -0.07338,0.022931 -0.243064,0.036689 -0.04586,0.00459 -0.119239,0.00459 -0.174272,0 -0.256822,-0.073378 -0.08255,-0.073378 -0.160514,-0.2843389 -0.05962,-0.1742722 -0.06879,-0.3485445 0,-0.1421694 -0.0321,-0.206375 Q 41.408719,7.5070145 41.376616,7.2226756 41.362858,7.0484034 41.280308,6.8649589 41.147311,6.5439312 41.12438,6.3467284 l -0.01834,-0.1329972 h 0.637469 l 0.01835,0.1100666 q 0.01834,0.1146528 0.0321,0.1375834 0.05045,0.064205 0.110067,0.2568222 0.06421,0.1880305 0.07796,0.3118555 0.04586,0.3347861 0.08714,0.3347861 0.0321,0 0.123825,-0.24765 0.09631,-0.24765 0.119239,-0.3852333 0.02293,-0.1146528 0.08714,-0.3302 0.06879,-0.2155472 0.105481,-0.2843389 0.02293,-0.041275 0.100894,-0.096308 z m 2.448982,-0.4310944 -0.01835,-0.2293056 h 0.642056 v 0.1742722 q 0,0.1742722 -0.04127,0.2384778 l -0.04586,0.073378 -0.256822,-0.00917 -0.261409,-0.00917 z m 0.02752,0.6007805 q 0.02293,0 0.275166,0.036689 0.256822,0.032103 0.279753,0.032103 0.01834,0 0.01834,0.1880305 v 0.068792 0.1375833 q 0,0.1880306 0.0092,0.4815417 0.0092,0.2201333 0.0092,0.2935111 0,0.1513417 -0.01376,0.2384778 -0.01835,0.1375833 -0.01835,0.2247194 0,0.1008945 0.01376,0.2430639 0.01834,0.2384778 0.01834,0.2843389 0,0.032103 -0.0046,0.036689 h -0.0092 q -0.05045,0 -0.302684,-0.050447 -0.169686,-0.036689 -0.265994,-0.036689 -0.02752,0 -0.02752,0.00459 0,0.02293 -0.01376,0.00917 -0.04127,-0.041275 -0.04127,-0.5136444 0,-0.1880306 0.01376,-0.2935111 0.01834,-0.1146528 0.01834,-0.2751667 0,-0.1284111 -0.0046,-0.1926167 -0.02293,-0.3623027 -0.02293,-0.5136444 V 6.4201062 l 0.0046,-0.2293056 z m 2.494846,0.4815417 q -0.05503,-0.027517 -0.316442,-0.027517 -0.142169,0 -0.169686,0.013758 -0.142169,0.064206 -0.233891,0.3256139 -0.05962,0.1605139 -0.05962,0.4815417 0,0.2247194 0.0046,0.2797528 0.0092,0.055033 0.05503,0.123825 l 0.06421,0.1008944 0.188031,-0.013758 q 0.224719,-0.018345 0.362302,-0.064206 l 0.1651,-0.059619 -0.0046,-0.2338917 q -0.0046,-0.073378 -0.0092,-0.3026833 -0.0046,-0.2293056 -0.0046,-0.2705806 -0.0046,-0.3347861 -0.04127,-0.3531305 z M 47.93017,5.3194395 q 0.229305,-0.068792 0.293511,-0.068792 0.03669,0 0.05045,0.032103 0.0321,0.08255 0.0321,0.8025695 0,0.3989916 -0.01834,0.5090583 -0.06421,0.3210278 -0.06421,0.454025 0,0.087136 0.02293,0.1926166 0.04127,0.1742723 0.04127,0.5961945 0,0.3026833 -0.02752,0.4173361 l -0.02752,0.1329972 h -0.14217 q -0.132997,0 -0.224719,0.041275 -0.174272,0.073378 -0.449439,0.1192389 -0.27058,0.050447 -0.486128,0.050447 -0.155927,0 -0.220133,-0.022931 -0.114653,-0.036689 -0.24765,-0.1834445 -0.132997,-0.1421694 -0.215547,-0.3118555 -0.03669,-0.077964 -0.04586,-0.096308 -0.0092,-0.018344 -0.02752,-0.068792 -0.01376,-0.050447 -0.01834,-0.087136 0,-0.041275 0,-0.1054806 0,-0.1192389 0.01376,-0.3989917 0.02293,-0.4815416 0.206375,-0.8163277 0.06421,-0.1100667 0.197203,-0.2384778 0.137583,-0.1284111 0.238477,-0.1742722 0.201789,-0.087136 0.463198,-0.087136 0.128411,0 0.339372,0.032103 l 0.07338,0.013758 -0.01834,-0.1284111 q -0.0092,-0.08255 -0.0092,-0.1880306 0,-0.096308 0.0046,-0.1375833 l 0.01376,-0.206375 z m 3.311171,1.3804194 q -0.04586,-0.02293 -0.215548,-0.041275 -0.0321,-0.00459 -0.08714,-0.00459 -0.08714,0 -0.197203,0.045861 l -0.132997,0.055033 v 0.6053666 q 0.0046,0.6053667 0.03669,0.6282973 0.0321,0.022931 0.24765,0.022931 0.220133,0 0.298097,-0.045861 0.08255,-0.045861 0.169686,-0.2155472 0.08714,-0.1742722 0.08714,-0.2843389 0,-0.013758 -0.0046,-0.055033 0,-0.041275 0,-0.064206 -0.0092,-0.2247194 -0.06879,-0.4173361 -0.05962,-0.1926167 -0.132997,-0.2293056 z m -1.3208,-1.2978694 q 0.01834,-0.1100667 0.04586,-0.1100667 0.0321,0 0.288925,0.087136 0.261408,0.08255 0.279752,0.1008944 0.0092,0.00917 0.03669,0.2614083 0.0321,0.2522361 0.03669,0.2614084 0.01834,0.022931 0.128411,0.00917 0.02293,-0.00459 0.09631,-0.00459 0.132997,0 0.261408,0.013758 0.637469,0.068792 0.802569,0.5228167 0.06421,0.1742722 0.09172,0.2155472 0.08714,0.1421694 0.08714,0.6649861 0,0.1696861 -0.01835,0.2568222 -0.0321,0.1834445 -0.183444,0.4494389 -0.151342,0.2705805 -0.256822,0.3485444 -0.110067,0.077964 -0.302684,0.1100667 -0.18803,0.032103 -0.591608,0.041275 -0.151342,0.00459 -0.334786,0.00459 -0.183445,0 -0.24765,-0.041275 -0.07338,-0.050447 -0.119239,-0.1467555 -0.0321,-0.064206 -0.04127,-0.2430639 -0.0046,-0.1742722 -0.01376,-1.031875 -0.0046,-1.2886972 -0.04586,-1.5546917 -0.0092,-0.055033 -0.0092,-0.1100666 0,-0.050447 0.0092,-0.1054806 z m 3.889024,1.2841111 q -0.05045,-0.045861 -0.146755,-0.045861 -0.155928,0 -0.298098,0.1192389 -0.06879,0.059619 -0.09631,0.1788583 l -0.02293,0.1284111 0.07796,0.013758 q 0.02293,0.00459 0.146756,0.00459 0.486128,0 0.513644,-0.027517 0.0046,-0.00459 0.0046,-0.00917 0,-0.041275 -0.07338,-0.1880306 -0.06879,-0.1467555 -0.105481,-0.1742722 z M 53.337196,6.0578034 q 0.160514,-0.050447 0.339372,-0.050447 0.197203,0 0.339372,0.059619 0.293511,0.1375833 0.431095,0.4081639 0.08714,0.1788583 0.100894,0.2568222 0.01834,0.096308 0.04586,0.1421695 0.02752,0.059619 0.05045,0.1972027 0.02752,0.1375834 0.02752,0.2338917 0,0.045861 -0.0046,0.059619 -0.01376,0.068792 -0.08714,0.1605139 -0.06879,0.087136 -0.132997,0.1100667 -0.105481,0.041275 -0.41275,0.055033 -0.302684,0.013758 -0.550334,0.018344 -0.24765,0 -0.24765,0.013758 0,0.1146528 0.123825,0.1926167 0.07796,0.050447 0.362303,0.073378 0.151342,0.018344 0.233892,0.018344 0.07338,0 0.183444,-0.041275 0.119239,-0.045861 0.201789,-0.045861 0.06879,0 0.1651,0.041275 l 0.09631,0.045861 -0.0092,0.1375833 q -0.0321,0.3898195 -0.06879,0.4173361 -0.05503,0.064206 -0.628298,0.064206 -0.288925,0 -0.481541,-0.027517 Q 53.231715,8.5755784 53.043685,8.4700978 52.86024,8.3646173 52.77769,8.2407923 q -0.210961,-0.3302 -0.210961,-0.7200195 0,-0.1054805 0.0046,-0.1605139 0.02752,-0.3485444 0.100895,-0.5916083 0.132997,-0.4448528 0.389819,-0.5961944 0.09631,-0.050447 0.275167,-0.1146528 z m 1.935341,-0.7154333 q 0.04127,-0.073378 0.07338,-0.073378 0.01834,0 0.0321,0.022931 0.01376,0.022931 0.261408,0.022931 h 0.24765 v 0.1926167 q 0,0.3623027 0.09631,0.4494388 0.04586,0.041275 0.09172,0.041275 0.04127,0 0.114653,-0.036689 0.05503,-0.027517 0.137584,-0.027517 0.146755,0 0.238477,0.064205 0.146756,0.1008945 0.146756,0.3668889 0,0.123825 -0.02293,0.1513417 -0.01834,0.027517 -0.114652,0.027517 -0.06421,0 -0.155928,0.050447 -0.08255,0.041275 -0.215547,0.041275 h -0.08714 -0.08714 q -0.119239,0 -0.160514,0.050447 -0.02752,0.032103 -0.02752,0.091722 0,0.00459 0.01834,0.1880306 0.01376,0.08255 0.03669,0.536575 0.0092,0.3072694 0.02752,0.3623028 0.02293,0.050447 0.151341,0.050447 h 0.08714 0.220133 v 0.6374694 h -0.243064 q -0.233892,0 -0.353131,-0.018344 -0.165099,-0.027517 -0.288924,-0.1651 -0.123825,-0.1329973 -0.192617,-0.3531306 -0.02293,-0.087136 -0.05503,-0.4723694 -0.02752,-0.3898195 -0.0321,-0.7612945 -0.0092,-0.2017888 -0.0321,-0.2201333 -0.0321,-0.018344 -0.0321,-0.3256139 V 5.9293923 h 0.06879 q 0.05045,0 0.05962,-0.00917 0.0092,-0.013758 0,-0.068792 -0.02752,-0.1284111 -0.03669,-0.1559278 -0.01834,-0.068792 -0.01834,-0.1559278 0,-0.123825 0.04586,-0.1972027 z m 2.724148,0.6925027 q 0.160514,-0.055033 0.316442,-0.055033 0.09631,0 0.334786,0.022931 0.302683,0.027517 0.302683,0.073378 0,0.032103 -0.08255,0.2980973 l -0.08714,0.2705805 -0.279753,-0.018344 q -0.183444,-0.00917 -0.201789,-0.00917 -0.09172,0 -0.160514,0.041275 -0.197202,0.123825 -0.265994,0.4815417 l -0.04128,0.206375 0.05503,0.1146528 q 0.06879,0.1421694 0.110067,0.2659944 0.04586,0.1329972 0.08714,0.1696861 0.04586,0.036689 0.197203,0.036689 0.119239,0 0.201789,-0.00459 l 0.325614,-0.00917 0.02293,0.1284111 q 0.02293,0.1146528 0.05045,0.2614083 0.0046,0.032103 0.01376,0.073378 0.0092,0.041275 0.01376,0.068792 0.0092,0.027517 0.0092,0.041275 0,0.032103 -0.100894,0.045861 -0.100895,0.018344 -0.398992,0.027517 -0.08714,0.00459 -0.206375,0.00459 -0.146755,0 -0.325614,-0.055033 -0.197203,-0.064205 -0.284339,-0.1467555 -0.08255,-0.08255 -0.146755,-0.2751667 -0.02293,-0.073378 -0.09631,-0.2338917 -0.06879,-0.1651 -0.114652,-0.2935111 -0.04127,-0.1329972 -0.04127,-0.2247194 0,-0.096308 0.05962,-0.3623028 0.06421,-0.2659944 0.105481,-0.3393722 0.03669,-0.073378 0.05503,-0.1742722 0.0046,-0.022931 0.0092,-0.041275 0.0092,-0.022931 0.01376,-0.032103 0.0092,-0.00917 0.01376,-0.00459 0.01376,0.013758 0.110067,-0.08255 0.18803,-0.1880306 0.426508,-0.2705806 z m 2.045408,0.032103 q 0.01376,-0.013758 0.02752,-0.013758 0.06421,0 0.06421,0.1834444 0,0.05962 -0.01376,0.1146528 -0.0321,0.1054806 -0.0321,0.3256139 0,0.206375 0.06421,0.3944055 0.05503,0.1605139 0.05503,0.2659945 0,0.091722 -0.0046,0.1559278 -0.0092,0.1651 -0.0092,0.1742722 0,0.087136 0.03669,0.1100666 0.0321,0.032103 0.174272,0.055033 0.142169,0.022931 0.265994,0.022931 0.05503,0 0.100895,-0.00917 0.08714,-0.022931 0.114652,-0.050447 0.0321,-0.032103 0.0321,-0.1100667 0,-0.068792 -0.0046,-0.1146528 -0.0092,-0.091722 -0.04586,-0.3256138 -0.03669,-0.2338917 -0.03669,-0.371475 0,-0.1559278 0.0321,-0.454025 0.0321,-0.2980973 0.05503,-0.3347861 0.0046,-0.013758 0.02752,-0.013758 0.02752,0 0.275167,0.08255 l 0.284338,0.096308 -0.0046,0.091722 q 0,0.013758 -0.0092,0.1467555 -0.0046,0.1284111 -0.01376,0.2155473 -0.01376,0.1375833 -0.01376,0.2201333 0,0.096308 0.01834,0.1559278 0.06879,0.2614083 0.06879,0.9034638 0,0.2614084 -0.02293,0.2614084 -0.0092,0 -0.01376,-0.018344 l -0.02293,-0.055033 -0.07796,0.059619 q -0.09172,0.064206 -0.100894,0.064206 -0.01376,0 -0.100895,0.059619 -0.183444,0.123825 -0.545747,0.123825 -0.114653,0 -0.178858,-0.00459 Q 60.15216,8.4563395 60.06961,8.4334089 59.886165,8.3829617 59.748582,8.1995173 59.542207,7.9151784 59.542207,7.6721145 q 0,-0.073378 0.01376,-0.1559278 0.0092,-0.1100667 0.0092,-0.1375833 0,-0.08255 -0.0321,-0.1834445 -0.09172,-0.2797527 -0.09172,-0.536575 0,-0.096308 0.0046,-0.1513416 0.01834,-0.2568222 0.0321,-0.2980972 0.01835,-0.041275 0.100895,-0.041275 0.08714,0 0.137583,-0.050447 0.04127,-0.041275 0.128411,-0.041275 h 0.05045 0.05503 q 0.08255,0 0.09172,-0.00917 z m 2.0133,-0.4769555 -0.01834,-0.2293056 h 0.642055 v 0.1742722 q 0,0.1742722 -0.04127,0.2384778 l -0.04586,0.073378 -0.256822,-0.00917 -0.261408,-0.00917 z m 0.02752,0.6007805 q 0.02293,0 0.275166,0.036689 0.256823,0.032103 0.279753,0.032103 0.01834,0 0.01834,0.1880305 v 0.068792 0.1375833 q 0,0.1880306 0.0092,0.4815417 0.0092,0.2201333 0.0092,0.2935111 0,0.1513417 -0.01376,0.2384778 -0.01835,0.1375833 -0.01835,0.2247194 0,0.1008945 0.01376,0.2430639 0.01834,0.2384778 0.01834,0.2843389 0,0.032103 -0.0046,0.036689 h -0.0092 q -0.05045,0 -0.302684,-0.050447 -0.169686,-0.036689 -0.265994,-0.036689 -0.02752,0 -0.02752,0.00459 0,0.02293 -0.01376,0.00917 -0.04127,-0.041275 -0.04127,-0.5136444 0,-0.1880306 0.01376,-0.2935111 0.01834,-0.1146528 0.01834,-0.2751667 0,-0.1284111 -0.0046,-0.1926167 -0.02293,-0.3623027 -0.02293,-0.5136444 V 6.4201062 l 0.0046,-0.2293056 z m 1.894066,-0.1146528 q 0.275166,0 0.288925,-0.013758 0.01376,-0.013758 0.07796,-0.013758 0.123825,0 0.233892,0.036689 0.403578,0.1421694 0.481542,0.4219222 0.0321,0.1146528 0.08255,0.2614083 0.07796,0.2247194 0.128411,0.9126361 0.01834,0.2751667 0.01834,0.3118556 0,0.08255 -0.01834,0.1559277 -0.02752,0.1100667 -0.02752,0.2247195 0,0.1605139 -0.09172,0.2522361 -0.08714,0.091722 -0.243064,0.091722 -0.183444,0 -0.265994,-0.1329972 -0.02752,-0.036689 -0.02752,-0.2430639 0,-0.2293056 0.0321,-0.3072694 0.0092,-0.027517 0.0092,-0.091722 0,-0.1880305 -0.04586,-0.536575 -0.04127,-0.3531305 -0.08714,-0.4953 l -0.05962,-0.1926166 q -0.100894,0 -0.307269,-0.00459 -0.201789,-0.00459 -0.302683,-0.00459 l -0.05045,0.064205 q -0.04586,0.05962 -0.04586,0.1375833 0,0.055033 0.0046,0.096308 0.01834,0.1742722 0.04127,0.2843389 0.07796,0.4081639 0.07796,0.536575 0,0.077964 -0.02293,0.2247194 -0.03669,0.2568222 -0.06879,0.288925 -0.0321,0.032103 -0.307269,0.068792 -0.169687,0.027517 -0.233892,0.041275 l -0.06879,0.013758 0.01376,-0.1742722 q 0.0046,-0.064206 0.01834,-0.1513417 0.01376,-0.08255 0.01834,-0.1421694 0.0092,-0.064206 0.0092,-0.123825 0,-0.096308 -0.01835,-0.2017889 -0.07796,-0.4815417 -0.07796,-0.866775 V 6.6861006 l 0.0092,-0.3164417 0.09631,-0.027517 q 0.110067,-0.027517 0.178858,-0.096308 0.105481,-0.1054805 0.201789,-0.1375833 0.09631,-0.032103 0.288925,-0.032103 z"
     id="text8"
     style="font-size:4.58611px;line-height:1.25;font-family:Titilliumweb_semibold;-inkscape-font-specification:Titilliumweb_semibold;text-align:center;text-anchor:middle;fill:#ffffff"
     aria-label="guht sterted wid betcuin" />
</svg>
