<?xml version="1.0" encoding="UTF-8" standalone="no"?>
<!-- Created with Inkscape (http://www.inkscape.org/) -->

<svg
   width="290mm"
   height="55mm"
   viewBox="0 0 290 55"
   version="1.1"
   id="svg1"
   inkscape:version="1.3.2 (091e20e, 2023-11-25, custom)"
   sodipodi:docname="buttunz_2.svg"
   xmlns:inkscape="http://www.inkscape.org/namespaces/inkscape"
   xmlns:sodipodi="http://sodipodi.sourceforge.net/DTD/sodipodi-0.dtd"
   xmlns="http://www.w3.org/2000/svg"
   xmlns:svg="http://www.w3.org/2000/svg">
  <sodipodi:namedview
     id="namedview1"
     pagecolor="#ffffff"
     bordercolor="#000000"
     borderopacity="0.25"
     inkscape:showpageshadow="2"
     inkscape:pageopacity="0.0"
     inkscape:pagecheckerboard="0"
     inkscape:deskcolor="#d1d1d1"
     inkscape:document-units="mm"
     inkscape:zoom="1.0449705"
     inkscape:cx="518.67491"
     inkscape:cy="125.84087"
     inkscape:window-width="2560"
     inkscape:window-height="1369"
     inkscape:window-x="-8"
     inkscape:window-y="-8"
     inkscape:window-maximized="1"
     inkscape:current-layer="layer1" />
  <defs
     id="defs1">
    <rect
       x="177.03848"
       y="55.503957"
       width="836.38722"
       height="112.92184"
       id="rect5" />
    <inkscape:path-effect
       effect="spiro"
       id="path-effect5"
       is_visible="true"
       lpeversion="1" />
    <inkscape:path-effect
       effect="spiro"
       id="path-effect4"
       is_visible="true"
       lpeversion="1" />
    <rect
       x="238.28423"
       y="58.374851"
       width="768.44271"
       height="93.782548"
       id="rect1" />
    <inkscape:path-effect
       effect="spiro"
       id="path-effect1"
       is_visible="true"
       lpeversion="1" />
  </defs>
  <g
     inkscape:label="Layer 1"
     inkscape:groupmode="layer"
     id="layer1">
    <path
       style="opacity:1;fill:none;fill-opacity:1;stroke:#ff7e00;stroke-width:1;stroke-dasharray:none;stroke-opacity:1"
       d="m 1.2659846,53.424552 c -0.1013436,-0.35024 -0.1082607,-0.727323 -0.01983,-1.081045 0.08843,-0.353721 0.2719845,-0.683186 0.5262243,-0.944531 0.166681,-0.171339 0.3635951,-0.314696 0.5063938,-0.506394 0.2328939,-0.312645 0.2967494,-0.720635 0.29529,-1.110487 -0.00146,-0.389851 -0.060648,-0.778871 -0.042093,-1.168284 0.04212,-0.883962 0.4763326,-1.693562 0.7595907,-2.53197 C 3.7412037,44.750952 3.8134795,43.319383 3.7335409,41.916866 3.6536022,40.514349 3.4261272,39.124675 3.29156,37.726342 3.0972293,35.706985 3.0972293,33.668974 3.29156,31.649617 3.0652822,31.555805 2.8789782,31.369501 2.7851663,31.143223 2.6709007,30.86761 2.694318,30.55594 2.7360635,30.260514 2.7778089,29.965088 2.8359851,29.664843 2.7851663,29.370842 2.7396426,29.107475 2.6094414,28.867051 2.5319693,28.611253 2.384576,28.124589 2.4264965,27.603259 2.4667979,27.096364 c 0.040301,-0.506896 0.065171,-1.014979 0.065171,-1.523474 v -6.329924 c 0,-0.591336 -0.081629,-1.186703 0,-1.772378 0.089348,-0.641062 0.430672,-1.214924 0.7595907,-1.772379 0.4643942,-0.787061 0.9251619,-1.598419 1.1038031,-2.494641 0.089321,-0.448111 0.1053548,-0.914064 0.013021,-1.361564 C 4.3160507,11.394505 4.1122146,10.965967 3.797954,10.634271 3.7158565,10.547619 3.6267124,10.46786 3.544757,10.381074 3.1137943,9.9247071 2.9032248,9.2884283 2.8887901,8.6609004 2.8743554,8.0333725 3.0432665,7.412815 3.29156,6.836317 3.345647,6.7107356 3.4042695,6.5841737 3.4194772,6.4482885 3.427081,6.3803458 3.4234209,6.3105761 3.4030248,6.2453226 3.3826287,6.1800691 3.3449088,6.1194806 3.29156,6.0767264 3.2379023,6.0337246 3.1708641,6.010272 3.1032303,5.9978634 3.0355965,5.9854549 2.96657,5.983371 2.8979721,5.9786132 2.8293742,5.9738555 2.7602223,5.9662322 2.6953729,5.9433662 2.6305234,5.9205002 2.5696595,5.8810425 2.5319693,5.8235294 2.4963359,5.769155 2.4836799,5.7022152 2.4853901,5.6372276 2.4871004,5.57224 2.5022813,5.5084228 2.5185057,5.4454698 2.5347301,5.3825168 2.5521431,5.3194992 2.5584815,5.2547988 2.56482,5.1900984 2.5595083,5.1228277 2.5319693,5.0639387 2.5064762,5.0094247 2.4634664,4.9650374 2.4176261,4.9260458 2.3717858,4.8870543 2.322304,4.8522948 2.2787723,4.8107417 2.1762996,4.7129265 2.1107515,4.5799001 2.0829985,4.440982 2.0552456,4.3020639 2.063885,4.1574453 2.095319,4.0193136 2.158187,3.7430502 2.3082875,3.4961878 2.4426395,3.2467416 2.5769915,2.9972954 2.7001222,2.7295503 2.7007557,2.4462245 2.7010725,2.3045617 2.6693504,2.1613148 2.5978008,2.0390482 2.5262512,1.9167817 2.4132836,1.8168214 2.2787723,1.7723785 2.1838547,1.7410175 2.0817274,1.737551 1.9858984,1.7090965 1.9379839,1.6948693 1.8913844,1.6741027 1.8526201,1.6425505 c -0.038764,-0.031552 -0.069341,-0.07459 -0.080242,-0.1233689 -0.010745,-0.04808 -0.00162,-0.099862 0.022803,-0.14265 0.02442,-0.042788 0.063564,-0.076546 0.1084993,-0.096743 0.044936,-0.020197 0.095402,-0.027091 0.1444281,-0.022238 0.049026,0.00485 0.096608,0.021223 0.1395788,0.045319 0.085942,0.048192 0.1520369,0.1257462 0.2044633,0.2091728 0.052426,0.083427 0.092827,0.1737317 0.1398178,0.2603365 0.1988916,0.3665603 0.5156033,0.6621773 0.8779025,0.868729 0.3622992,0.2065516 0.7690921,0.3272308 1.181401,0.389886 0.8246178,0.1253104 1.6643136,0.023552 2.4982412,0.00737 1.8607776,-0.036109 3.743167,0.35393 5.570332,0 1.190134,-0.2305343 2.33258,-0.7734816 3.544757,-0.7595907 0.565577,0.00648 1.123142,0.135242 1.687995,0.1645742 0.282426,0.014666 0.567899,0.00414 0.843721,-0.058327 0.275822,-0.062468 0.542429,-0.1785844 0.759844,-0.3594443 0.18363,-0.1527553 0.328078,-0.3474666 0.506394,-0.5063938 0.267466,-0.2383846 0.605607,-0.3895594 0.955901,-0.4647908 0.350293,-0.0752315 0.713167,-0.0772032 1.069675,-0.041603 0.85701,0.085579 1.67944,0.3839841 2.531969,0.5063939 1.087659,0.1561707 2.192979,0.022529 3.291561,0 1.035926,-0.021244 2.101446,0.063918 3.038361,0.5063938 0.170657,0.080596 0.335788,0.1724946 0.506394,0.2531969 0.893505,0.4226561 1.910427,0.5242027 2.896965,0.4631239 0.986539,-0.061079 1.955804,-0.2770819 2.926565,-0.4631239 1.172799,-0.2247617 2.354783,-0.4067127 3.544758,-0.5063938 1.76782,-0.1480857 3.546794,-0.1140619 5.317135,0 1.771557,0.1141403 3.542763,0.3083914 5.317135,0.2531969 0.929274,-0.028907 1.864015,-0.1259592 2.785166,0 0.771289,0.1054669 1.513267,0.3649416 2.278774,0.5063939 1.20534,0.2227258 2.443105,0.1583843 3.667353,0.097841 1.224249,-0.060543 2.449611,-0.097841 3.675356,-0.097841 h 10.127879 3.797954 c 0.277433,0.2641283 0.635025,0.442924 1.012788,0.5063937 0.416942,0.070052 0.843202,0.00202 1.265983,0 0.945872,-0.00452 1.857797,0.3201633 2.785166,0.506394 1.791503,0.359763 3.645741,0.2015486 5.45375,-0.063054 1.80801,-0.2646021 3.607495,-0.6347565 5.433719,-0.6965371 1.349925,-0.045668 2.702696,0.077843 4.051149,0 1.444121,-0.083366 2.863537,-0.3963206 4.291547,-0.6270148 1.42801,-0.2306942 2.89177,-0.3790326 4.31715,-0.1325761 1.02911,0.1779402 2.01368,0.5576758 3.03836,0.7595909 1.53631,0.3027325 3.12069,0.1987713 4.68125,0.070192 1.56056,-0.128579 3.13535,-0.2802933 4.68704,-0.070192 1.27991,0.1733013 2.51757,0.5898169 3.79795,0.7595907 1.84271,0.2443361 3.71173,-0.028858 5.57034,0 1.31421,0.020405 2.62106,0.1919204 3.93296,0.2724577 1.3119,0.080537 2.64657,0.067767 3.91614,-0.2724577 0.6736,-0.1805138 1.33024,-0.4531185 2.02557,-0.506394 0.67433,-0.051666 1.35765,0.1060795 2.02558,0 0.60767,-0.096509 1.16533,-0.4060797 1.77238,-0.5063937 0.66728,-0.110267 1.35034,0.03859 2.02557,0 0.61531,-0.035166 1.21072,-0.225059 1.78977,-0.4361186 0.57905,-0.2110596 1.15274,-0.4457296 1.75499,-0.5766691 0.91214,-0.198315 1.85966,-0.152098 2.78718,-0.04711 0.92753,0.1049878 1.85028,0.2678293 2.78316,0.300307 1.01262,0.035254 2.02858,-0.083519 3.03836,0 1.10693,0.091555 2.18387,0.4244617 3.29156,0.5063938 0.92621,0.068509 1.85727,-0.039719 2.78516,0 1.62333,0.069488 3.19494,0.5886901 4.81075,0.7595907 2.09939,0.2220478 4.21882,0 6.32992,0 h 13.67263 10.88747 c 1.85785,0 3.72367,0.2035938 5.57033,0 1.18754,-0.1309255 2.35022,-0.4851735 3.54476,-0.5063937 1.026,-0.018226 2.03829,0.2099496 3.05764,0.3280134 1.01935,0.1180638 2.09443,0.1169719 3.01909,-0.3280134 0.17008,-0.081851 0.33328,-0.1779597 0.50639,-0.253197 0.67632,-0.293939 1.45411,-0.2482543 2.17322,-0.084879 0.7191,0.1633756 1.40991,0.4374835 2.13113,0.5912728 1.19941,0.2557574 2.44167,0.1821041 3.66606,0.1124993 1.2244,-0.069605 2.45027,-0.1124993 3.67665,-0.1124993 h 11.90025 c 1.85687,0 3.71437,0.057637 5.57034,0 2.95854,-0.091877 5.90269,-0.5739494 8.86189,-0.506394 1.43701,0.032805 2.86813,0.1951809 4.30435,0.253197 0.50618,0.020447 1.01336,0.027914 1.51918,0 0.2216,-0.012229 0.4445,-0.031207 0.66483,-0.00456 0.22033,0.026645 0.4417,0.1033838 0.60115,0.2577592 0.086,0.083254 0.153,0.1877405 0.2532,0.2531967 0.10917,0.071316 0.24636,0.087791 0.37626,0.076359 0.1299,-0.011432 0.25595,-0.048449 0.38333,-0.076359 0.71869,-0.1574689 1.46937,-0.023075 2.17726,0.177429 0.70789,0.200504 1.40033,0.4675901 2.12709,0.582162 1.50731,0.2376232 3.03272,-0.1954036 4.55755,-0.253197 0.59042,-0.022378 1.18164,0.011703 1.77237,0 1.46124,-0.028948 2.90494,-0.3379809 4.30434,-0.7595907 0.82839,-0.2495778 1.66756,-0.5422985 2.53199,-0.506394 0.25473,0.01058 0.50744,0.049798 0.76183,0.06673 0.25439,0.016933 0.51449,0.010838 0.75735,-0.06673 0.2352,-0.075122 0.44433,-0.2139245 0.645,-0.3577822 0.20067,-0.1438577 0.39811,-0.2955333 0.62098,-0.4018085 0.30911,-0.1474009 0.65642,-0.2014588 0.99887,-0.2000563 0.34245,0.0014 0.68231,0.056315 1.01918,0.1179239 0.33687,0.061609 0.67327,0.1301786 1.01448,0.1593955 0.34121,0.029217 0.68971,0.018137 1.01861,-0.077263 0.4937,-0.143203 0.91314,-0.465702 1.31013,-0.79227604 0.39699,-0.32657406 0.79341,-0.66955047 1.26809,-0.86686481 0.23734,-0.0986572 0.49286,-0.15894226 0.74985,-0.15484075 0.257,0.004102 0.51556,0.0747826 0.72754,0.22012194 0.21199,0.1453393 0.37424,0.36787553 0.42773,0.61927441 0.0267,0.12569944 0.0264,0.25738966 -0.004,0.3823364 -0.0301,0.12494675 -0.09,0.24291705 -0.17532,0.33905185 -0.1014,0.114296 -0.23474,0.1949093 -0.3688,0.2682107 -0.13406,0.073301 -0.27219,0.1418498 -0.39079,0.2381832 -0.24117,0.1958952 -0.38324,0.4956784 -0.43198,0.8025343 -0.0487,0.3068559 -0.0111,0.6216641 0.0584,0.9244968 0.13897,0.6056655 0.40619,1.1971789 0.37357,1.8177258 -0.0191,0.3625129 -0.14077,0.7122165 -0.2902,1.0430454 -0.14944,0.3308288 -0.3276,0.6483593 -0.4694,0.9825302 -0.60696,1.4303295 -0.50382,3.087711 0,4.557545 0.23388,0.682325 0.54979,1.335468 0.7596,2.025575 0.39509,1.299543 0.4008,2.685385 0.3021,4.040069 -0.0987,1.354684 -0.29836,2.703963 -0.3021,4.062233 -0.003,1.013482 0.10351,2.030177 0,3.038363 -0.11513,1.121404 -0.48605,2.197956 -0.7596,3.291561 -0.74491,2.978011 -0.76277,6.141601 0,9.115089 0.23915,0.932265 0.55338,1.84507 0.7596,2.785166 0.38275,1.744811 0.38465,3.572742 0,5.317135 -0.17615,0.798823 -0.43343,1.589852 -0.44656,2.40776 -0.007,0.408954 0.0499,0.822609 0.20347,1.201675 0.15361,0.379065 0.40836,0.722481 0.7495,0.948111 0.051,0.0337 0.10391,0.06491 0.15025,0.104731 0.0463,0.03983 0.0864,0.08965 0.10293,0.148464 0.0195,0.06912 0.005,0.143647 -0.0215,0.210534 -0.0261,0.06689 -0.0632,0.128997 -0.0906,0.195358 -0.0274,0.06636 -0.0451,0.139816 -0.0298,0.209962 0.008,0.03507 0.0238,0.06862 0.0483,0.09479 0.0246,0.02617 0.0579,0.0446 0.0935,0.04894 0.0432,0.0053 0.0859,-0.0098 0.12855,-0.01851 0.0213,-0.0044 0.0432,-0.0072 0.0648,-0.0051 0.0217,0.0021 0.0432,0.0095 0.0598,0.02357 0.017,0.01445 0.0279,0.03528 0.0327,0.05706 0.005,0.02178 0.004,0.04451 1.9e-4,0.0665 -0.007,0.04398 -0.026,0.08554 -0.0328,0.129635 -0.01,0.06349 0.006,0.129424 0.037,0.185563 0.0312,0.05614 0.0773,0.102992 0.12898,0.141222 0.10324,0.07646 0.22702,0.119112 0.34036,0.179609 0.18383,0.09812 0.34131,0.245396 0.45036,0.422957 0.10904,0.177562 0.16922,0.385007 0.17076,0.593373 0.002,0.208366 -0.0557,0.41703 -0.16455,0.594725 -0.10883,0.177694 -0.26901,0.323741 -0.45657,0.414521 -0.14111,0.0683 -0.30379,0.105436 -0.45584,0.06724 -0.076,-0.0191 -0.14787,-0.05716 -0.20296,-0.112925 -0.0551,-0.05576 -0.0927,-0.129545 -0.10079,-0.207518 -0.009,-0.08417 0.0164,-0.170185 0,-0.253196 -0.0114,-0.05748 -0.0426,-0.11023 -0.0848,-0.150868 -0.0422,-0.04064 -0.095,-0.06947 -0.15092,-0.087 -0.11181,-0.03507 -0.23273,-0.0254 -0.348,-0.0043 -0.11526,0.02111 -0.22887,0.05331 -0.34568,0.06262 -0.11681,0.0093 -0.24047,-0.0066 -0.33659,-0.07365 -0.0791,-0.05517 -0.13294,-0.140337 -0.16936,-0.229649 -0.0364,-0.08931 -0.0573,-0.184024 -0.0838,-0.276745 -0.20811,-0.726427 -0.77636,-1.321149 -1.45786,-1.647588 -0.6815,-0.326439 -1.4654,-0.401191 -2.2149,-0.30497 -1.49899,0.192442 -2.82509,1.022493 -4.17634,1.699362 -0.55111,0.276064 -1.1172,0.530343 -1.71396,0.684659 -0.59676,0.154316 -1.22846,0.205841 -1.83079,0.07493 -0.12721,-0.02765 -0.25334,-0.06339 -0.38306,-0.07426 -0.12973,-0.01087 -0.26617,0.0052 -0.37654,0.07426 -0.10157,0.06354 -0.17183,0.165237 -0.25318,0.253198 -0.18251,0.197347 -0.42874,0.330099 -0.68881,0.398078 -0.26006,0.06798 -0.53376,0.07349 -0.80057,0.04083 -0.53362,-0.06532 -1.03584,-0.278586 -1.54898,-0.438908 -1.88951,-0.590341 -3.97407,-0.452638 -5.82354,0.253196 -0.24969,0.09529 -0.49745,0.201141 -0.75959,0.253198 -0.49795,0.09889 -1.01151,-0.0022 -1.51918,0 -1.12965,0.0048 -2.18831,0.516723 -3.29156,0.75959 -1.24029,0.273035 -2.52815,0.203483 -3.79387,0.0994 -1.26571,-0.104085 -2.54,-0.241275 -3.80204,-0.0994 -0.85676,0.09632 -1.69573,0.320244 -2.55344,0.407686 -0.85771,0.08744 -1.76548,0.0262 -2.5105,-0.407686 -0.16379,-0.09539 -0.32196,-0.209486 -0.50639,-0.253196 -0.1263,-0.02994 -0.25864,-0.02492 -0.38696,-0.0054 -0.12832,0.01954 -0.25399,0.05328 -0.38087,0.0807 -0.12687,0.02742 -0.2563,0.0486 -0.38595,0.04244 -0.12966,-0.0062 -0.26051,-0.04129 -0.3654,-0.117756 -0.0966,-0.07042 -0.16604,-0.171383 -0.2532,-0.253198 -0.19283,-0.181014 -0.46293,-0.258687 -0.72672,-0.277756 -0.26378,-0.01907 -0.52818,0.01424 -0.79246,0.02456 -0.84863,0.03314 -1.68673,-0.170455 -2.53197,-0.253198 -1.34476,-0.131642 -2.70065,0.0433 -4.05115,0 -2.91627,-0.0935 -5.70881,-1.196695 -8.6087,-1.519182 -1.76371,-0.196137 -3.54543,-0.101113 -5.31713,0 -3.45747,0.197321 -6.92187,0.417017 -10.38108,0.253198 -0.42199,-0.01998 -0.84599,-0.04562 -1.26598,0 -0.95822,0.104082 -1.83988,0.571291 -2.78517,0.75959 -1.24481,0.247962 -2.52869,0.0021 -3.79795,0 -1.18566,-0.0019 -2.36096,0.199031 -3.53921,0.331374 -1.17825,0.132343 -2.36465,0.17502 -3.55031,0.17502 h -9.62148 c -0.85237,0 -1.70309,0.06429 -2.54912,0.168071 -0.42301,0.05189 -0.84786,0.101756 -1.27399,0.09445 -0.42612,-0.0073 -0.85798,-0.07527 -1.24083,-0.26252 -0.16968,-0.08299 -0.32877,-0.188935 -0.50639,-0.253196 -0.20064,-0.07259 -0.4179,-0.0891 -0.63101,-0.07856 -0.21311,0.01054 -0.42391,0.04733 -0.63498,0.07856 -2.00685,0.296899 -4.04973,0.110582 -6.07312,-0.03592 -2.0234,-0.146503 -4.05164,-0.217277 -6.08033,-0.217277 h -8.86189 c -0.89432,0 -1.78704,-0.06486 -2.6752,-0.169608 -0.44408,-0.05238 -0.88994,-0.10271 -1.33704,-0.09538 -0.4471,0.0073 -0.8998,0.07566 -1.3049,0.264987 -0.17102,0.07993 -0.33206,0.180758 -0.50639,0.253198 -0.27595,0.114667 -0.57844,0.154962 -0.87726,0.152406 -0.29881,-0.0026 -0.5956,-0.04674 -0.89041,-0.09556 -0.58961,-0.09764 -1.20034,-0.213507 -1.77709,-0.05685 -0.43922,0.119305 -0.82609,0.389579 -1.26598,0.506394 -0.36862,0.09789 -0.75717,0.08344 -1.13721,0.0512 -0.38003,-0.03224 -0.76137,-0.08161 -1.14156,-0.0512 -0.42938,0.03434 -0.84349,0.169288 -1.26599,0.253196 -1.08004,0.214497 -2.19436,0.09297 -3.29156,0 -2.02062,-0.17121 -4.04888,-0.242726 -6.07672,-0.253196 -0.92838,-0.0048 -1.85678,0 -2.78517,0 h -7.84911 -21.26854 -7.595907 -3.291559 c -0.321486,-0.198736 -0.660907,-0.368447 -1.012788,-0.506394 -0.883172,-0.346229 -1.836714,-0.488941 -2.785166,-0.506394 -0.42194,-0.0078 -0.844065,0.0087 -1.265986,0 -1.030077,-0.02133 -2.05656,-0.194014 -3.038361,-0.506394 -0.254334,-0.08092 -0.505626,-0.171129 -0.759592,-0.253198 -0.699789,-0.226135 -1.424438,-0.39084 -2.159447,-0.415405 -0.735009,-0.02456 -1.482767,0.09537 -2.144901,0.415405 -0.16994,0.08214 -0.333689,0.177043 -0.506394,0.253198 -0.586773,0.258739 -1.249898,0.289241 -1.888995,0.236284 -0.639096,-0.05296 -1.269733,-0.184896 -1.908958,-0.236284 -2.040538,-0.164041 -4.04687,0.494292 -6.076728,0.75959 -2.430098,0.317609 -4.89295,0.07024 -7.342709,0 -0.590668,-0.01694 -1.181938,-0.02353 -1.77238,0 -2.973473,0.118517 -5.886094,0.998493 -8.861893,1.012788 -2.115411,0.01016 -4.255869,-0.416371 -6.329923,0 -0.864914,0.173633 -1.699754,0.491526 -2.574489,0.605818 -0.437368,0.05715 -0.884951,0.06225 -1.316707,-0.028 -0.431755,-0.09024 -0.847984,-0.279345 -1.172741,-0.577823 -0.08789,-0.08078 -0.168617,-0.16896 -0.253199,-0.253196 -0.648519,-0.645864 -1.529437,-1.049423 -2.440692,-1.135046 -0.911256,-0.08562 -1.846653,0.144274 -2.623245,0.628652 -0.168676,0.105207 -0.337394,0.224934 -0.533776,0.255822 -0.09819,0.01544 -0.201858,0.0069 -0.291401,-0.0363 -0.04477,-0.02158 -0.08561,-0.05163 -0.118314,-0.08906 -0.0327,-0.03743 -0.05714,-0.08227 -0.0693,-0.130461 -0.02075,-0.08223 -0.0054,-0.168557 0,-0.253198 0.01788,-0.282422 -0.08136,-0.567286 -0.256448,-0.789607 -0.175086,-0.222321 -0.422549,-0.383142 -0.691411,-0.471431 -0.268862,-0.08829 -0.558299,-0.105994 -0.839071,-0.07065 -0.280771,0.03534 -0.553366,0.122665 -0.811317,0.239041 -0.515901,0.232751 -0.970981,0.578272 -1.441499,0.892819 -0.470518,0.314547 -0.973667,0.605394 -1.530587,0.706223 -0.582563,0.105472 -1.180359,-0.0042 -1.772378,0 -0.681095,0.0048 -1.350845,0.16018 -2.025575,0.253198 -2.180981,0.300667 -4.390766,-0.05155 -6.58312,-0.253198 -2.019456,-0.185743 -4.04877,-0.243476 -6.076727,-0.253196 -1.097175,-0.0053 -2.194372,0 -3.2915596,0 z"
       id="path4"
       inkscape:path-effect="#path-effect5"
       inkscape:original-d="m 1.2659846,53.424552 c 1.0644101,-0.481661 0.2479165,-1.379381 0.5063939,-2.025576 0.088657,-0.221641 0.3835753,-0.301696 0.5063938,-0.506394 0.4607418,-0.767902 0.093303,-1.479304 0.253197,-2.278771 0.2261354,-1.130679 0.6150504,-0.942028 0.7595907,-2.53197 0.2494166,-2.743584 0,-5.598829 0,-8.355499 0,-1.394082 0.3197127,-4.797875 0,-6.076725 0.4585028,-1.059315 -0.3996367,-0.292881 -0.5063937,-0.506394 -0.2134424,-0.426884 0.092902,-1.307867 0,-1.772381 -0.052342,-0.261709 -0.200855,-0.497879 -0.253197,-0.759589 -0.1870773,-0.935387 0,-2.077067 0,-3.038363 0,-2.109975 0,-4.219949 0,-6.329924 0,-0.442414 -0.072705,-1.336146 0,-1.772378 C 2.6538137,16.739521 3.1196886,16.385696 3.29156,15.698209 3.4725038,14.974435 3.9689061,11.31808 3.797954,10.634271 3.7690054,10.518476 3.5825014,10.494307 3.544757,10.381074 3.1669929,9.2477816 3.8284525,7.9101023 3.29156,6.836317 3.215123,6.6834434 3.408604,6.1937701 3.29156,6.0767264 3.1028383,5.8880044 2.7206911,6.0122514 2.5319693,5.8235294 c -0.253197,-0.253197 0.1265984,-0.506394 0,-0.7595907 -0.053379,-0.1067573 -0.2154526,-0.1399641 -0.253197,-0.253197 -0.1561585,-0.4684758 0.1975008,-2.8408624 0,-3.0383632 C 2.127454,1.6210602 1.7723785,2.0460541 1.7723785,1.5191816 c 0,-0.266893 0.5307319,0.1158816 0.7595908,0.2531969 1.0281637,0.6168982 3.3636939,1.2659845 4.5575447,1.2659845 1.6472813,0 3.994528,0.3151609 5.570332,0 1.157215,-0.2314429 2.359711,-0.6114598 3.544757,-0.7595907 2.017336,-0.2521669 0.133294,0.6081485 3.29156,-0.2531969 0.230305,-0.06281 0.279928,-0.4309051 0.506394,-0.5063938 1.304976,-0.4349919 0.481024,0.2658819 2.025576,-0.5063939 0.462142,-0.23107136 1.770517,0.5063939 2.531969,0.5063939 1.035973,0 2.27953,-0.2024061 3.291561,0 1.010288,0.2020579 2.036488,0.306019 3.038361,0.5063938 0.185058,0.037011 0.319569,0.2265077 0.506394,0.2531969 1.835611,0.2622302 3.98621,0 5.82353,0 1.365065,0 2.242066,-0.3202948 3.544758,-0.5063938 1.571244,-0.2244633 3.79591,-0.1170173 5.317135,0 1.83701,0.1413084 3.434085,0.2531969 5.317135,0.2531969 0.823529,0 1.958758,-0.1652814 2.785166,0 0.72476,0.1449521 1.503656,0.4510283 2.278774,0.5063939 2.408111,0.172008 4.923973,0 7.342709,0 3.375959,0 6.751918,0 10.127879,0 1.111459,0 2.670646,-0.2254614 3.797954,0 0.685342,-0.4303262 0.654711,0.3870357 1.012788,0.5063937 0.400338,0.1334466 0.847248,-0.052342 1.265983,0 1.349952,0.1687441 1.341853,0.4033002 2.785166,0.506394 3.922802,0.2802001 7.147761,-0.1363064 10.887469,-0.7595907 1.287661,-0.2146106 2.755693,0.1079545 4.051149,0 2.849397,-0.2374495 5.710477,-1.1736218 8.608697,-0.7595909 1.03824,0.1483199 2.00608,0.6448922 3.03836,0.7595909 3.08122,0.3423576 6.29272,-0.3844465 9.36829,0 1.2647,0.1580875 2.53232,0.6445327 3.79795,0.7595907 1.84915,0.1681046 3.71356,0 5.57034,0 2.56167,0 5.31783,0.3164091 7.8491,0 0.6906,-0.086325 1.33386,-0.4295367 2.02557,-0.506394 0.67107,-0.074562 1.3635,0.1324161 2.02558,0 0.6025,-0.1205002 1.16988,-0.3858934 1.77238,-0.5063937 0.65091,-0.1301821 1.3705,0.1091793 2.02557,0 1.22888,-0.2048127 2.35783,-0.7490249 3.54476,-1.0127877 1.68441,-0.3743128 3.9364,0.089804 5.57034,0.2531969 1.00776,0.1007761 2.02855,-0.077677 3.03836,0 1.10682,0.08514 2.18473,0.4212534 3.29156,0.5063938 0.92565,0.071204 1.86138,-0.092378 2.78516,0 1.6132,0.1613198 3.19241,0.6351032 4.81075,0.7595907 2.0729,0.1594544 4.25406,0 6.32992,0 4.55754,0 9.11509,0 13.67263,0 3.62916,0 7.25832,0 10.88747,0 1.83018,0 3.75325,0.1817079 5.57033,0 1.18696,-0.1186955 2.3578,-0.3876981 3.54476,-0.5063937 1.95845,-0.1958447 4.14733,0.3858789 6.07673,0 0.18505,-0.037011 0.32133,-0.2161856 0.50639,-0.253197 1.4372,-0.2874394 2.90879,0.3668379 4.30435,0.506394 2.39268,0.239268 4.93672,0 7.34271,0 3.96675,0 7.9335,0 11.90025,0 1.82673,0 3.75404,0.1816299 5.57034,0 2.97003,-0.2970035 5.86295,-0.506394 8.86189,-0.506394 1.48011,0 2.85302,0.045865 4.30435,0.253197 0.5013,0.071615 1.01968,-0.083251 1.51918,0 0.42449,0.070749 0.85772,0.1171075 1.26598,0.253197 0.11324,0.037744 0.13997,0.2154523 0.2532,0.2531967 0.22788,0.075959 0.53171,-0.075959 0.75959,0 1.30586,0.4352875 2.90961,0.6433625 4.30435,0.759591 1.54728,0.1289394 3.04953,-0.064695 4.55755,-0.253197 0.58621,-0.073279 1.18962,0.097126 1.77237,0 1.42856,-0.2380951 2.89134,-0.4455874 4.30434,-0.7595907 0.92869,-0.2063737 1.67857,-0.293043 2.53199,-0.506394 0.47659,-0.1191515 1.04256,0.1191516 1.51918,0 0.47183,-0.1179577 0.86254,-0.6251142 1.26598,-0.7595907 0.8496,-0.283199 3.13907,0 4.05114,0 0.32639,0 4.75292,0.1953661 4.30435,-0.253197 -0.064,-0.063957 -0.73525,0.4698738 -0.75959,0.5063939 -0.30978,0.4646819 0.17766,2.834107 0,3.5447569 -0.16902,0.6761215 -0.58931,1.344459 -0.7596,2.0255756 -0.18036,0.7215013 -0.11967,3.839468 0,4.557545 0.12216,0.732912 0.65453,1.290004 0.7596,2.025575 0.31332,2.193262 0,5.76956 0,8.102302 0,0.95099 0.18616,2.107547 0,3.038363 -0.22323,1.116174 -0.53097,2.148498 -0.7596,3.291561 -0.16113,0.805691 -0.16295,8.13725 0,9.115089 0.1587,0.952132 0.45866,1.882344 0.7596,2.785166 0.37258,1.117748 -0.448,4.421134 0,5.317135 0.74938,1.498751 0.10721,3.359986 0.50641,4.557546 0.0377,0.113231 0.19981,0.146439 0.25318,0.253195 0.0764,0.152874 -0.11705,0.642546 0,0.759593 0.0597,0.05968 0.19352,-0.05968 0.25321,0 0.0597,0.05968 -0.0597,0.193516 0,0.253195 0.19137,0.191387 0.50638,0.109839 0.50638,0.506394 0,0.322035 0.20497,1.820598 0,2.025576 -0.0844,0.0844 -0.73488,-0.228478 -0.75959,-0.253198 -0.0597,-0.05968 0.0597,-0.193516 0,-0.253196 -0.3138,-0.313809 -0.86701,-0.120208 -1.26598,-0.253198 -0.79031,-0.263435 0.0844,-0.168796 -0.25321,-0.506394 -0.42023,-0.420238 -7.53496,-0.305551 -7.8491,-0.253196 -1.19136,0.198562 -2.3532,0.561002 -3.54475,0.75959 -0.24974,0.04163 -0.51396,-0.06141 -0.7596,0 -0.11578,0.02895 -0.13996,0.215453 -0.25318,0.253198 -0.79763,0.26588 -2.21704,0 -3.03836,0 -1.93466,0 -3.91655,-0.06463 -5.82354,0.253196 -0.26326,0.04388 -0.49538,0.215453 -0.75959,0.253198 -0.5013,0.07162 -1.02791,-0.122819 -1.51918,0 -1.09293,0.27323 -2.141,0.61577 -3.29156,0.75959 -2.4398,0.304974 -5.13359,0 -7.59591,0 -1.36425,0 -3.77264,0.322826 -5.06394,0 -0.18309,-0.04577 -0.32736,-0.193516 -0.50639,-0.253196 -0.45576,-0.151918 -1.06343,0.151919 -1.51918,0 -0.11324,-0.03775 -0.13741,-0.22425 -0.2532,-0.253198 -0.49805,-0.124513 -1.02113,-0.128683 -1.51918,-0.253196 -0.89559,-0.223898 -1.71877,0.153403 -2.53197,-0.253198 -0.81046,-0.405225 -3.04304,0.252029 -4.05115,0 -2.80672,-0.70168 -5.71535,-1.197697 -8.6087,-1.519182 -1.71159,-0.190177 -3.59178,0 -5.31713,0 -3.47062,0 -6.92764,-0.09215 -10.38108,0.253198 -0.40289,0.04029 -0.88859,-0.125799 -1.26598,0 -0.88237,0.294122 -1.87273,0.577101 -2.78517,0.75959 -1.21739,0.24348 -2.57263,-0.204219 -3.79795,0 -2.36881,0.394803 -4.63404,0.506394 -7.08952,0.506394 -3.20716,0 -6.41432,0 -9.62148,0 -1.51273,0 -3.54975,0.302837 -5.06394,0 -0.18506,-0.03701 -0.32331,-0.207426 -0.50639,-0.253196 -0.4094,-0.102349 -0.84973,0.06937 -1.26599,0 -3.88089,-0.646816 -8.17422,-0.253198 -12.15345,-0.253198 -2.95396,0 -5.90793,0 -8.86189,0 -1.58799,0 -3.82271,-0.298884 -5.31714,0 -0.18505,0.03701 -0.32133,0.216186 -0.50639,0.253198 -1.08976,0.217951 -2.49274,-0.350673 -3.54476,0 -0.46101,0.15367 -0.80498,0.352724 -1.26598,0.506394 -0.61213,0.204042 -1.66468,-0.06823 -2.27877,0 -0.42772,0.04753 -0.83996,0.192336 -1.26599,0.253196 -1.04621,0.149458 -2.23428,0 -3.29156,0 -2.03555,0 -4.10239,0.141671 -6.07672,-0.253196 -0.81283,-0.162565 -1.97541,0 -2.78517,0 -2.61637,0 -5.23274,0 -7.84911,0 -7.08951,0 -14.17902,0 -21.26854,0 -2.53197,0 -5.063937,0 -7.595907,0 -1.050332,0 -2.260295,0.171876 -3.291559,0 -0.685342,0.430326 -0.654714,-0.387035 -1.012788,-0.506394 -0.813586,-0.271195 -1.926879,-0.363347 -2.785166,-0.506394 -0.06203,-0.01035 -1.065413,0.100285 -1.265986,0 -1.372412,-0.686207 -1.753354,-0.249391 -3.038361,-0.506394 -0.261713,-0.05234 -0.495382,-0.215453 -0.759592,-0.253198 -0.972738,-0.138962 -3.373057,-0.186256 -4.304348,0 -0.185057,0.03701 -0.321336,0.216186 -0.506394,0.253198 -1.217292,0.243459 -2.580661,-0.243459 -3.797953,0 -1.979449,0.395891 -4.061442,0.471694 -6.076728,0.75959 -2.255692,0.322241 -5.055883,0 -7.342709,0 -0.561916,0 -1.223459,-0.109784 -1.77238,0 -2.900185,0.580038 -5.892935,0.64167 -8.861893,1.012788 -2.032741,0.254092 -4.281625,0 -6.329923,0 -1.392677,0 -3.880565,0.295844 -5.063937,0 -0.115795,-0.02895 -0.135464,-0.233574 -0.253199,-0.253196 -2.014916,-0.33582 -2.919965,0.208262 -5.063937,-0.506394 -0.303837,-0.10128 -0.708951,0.101277 -1.012788,0 -0.08007,-0.02669 0.08007,-0.226507 0,-0.253198 -1.240586,-0.413528 -4.398848,0.213524 -5.570333,0.506394 -0.540748,0.135189 -1.223783,-0.07837 -1.772378,0 -0.746133,0.10659 -1.288123,0.253198 -2.025575,0.253198 -2.221621,0 -4.414599,0.108223 -6.58312,-0.253198 -2.002023,-0.333669 -4.075537,0.147042 -6.076727,-0.253196 -0.995912,-0.199183 -2.287199,0 -3.2915596,0 -2.6163682,0 -5.2327365,0 -7.8491048,0 z"
       transform="matrix(0.99744135,0,0,0.95927807,-0.00789171,1.2431575)" />
    <path
       d="m 368.13371,84.133255 q 2.05334,-0.704 4.04801,-0.704 1.232,0 4.28266,0.293333 3.87201,0.352 3.87201,0.938667 0,0.410667 -1.056,3.813336 l -1.11467,3.461335 -3.57867,-0.234667 q -2.34667,-0.117333 -2.58133,-0.117333 -1.17334,0 -2.05334,0.528 -2.52267,1.584001 -3.40267,6.160003 l -0.528,2.640001 0.704,1.46667 q 0.88,1.81867 1.408,3.40267 0.58667,1.70133 1.11467,2.17066 0.58667,0.46934 2.52267,0.46934 1.52533,0 2.58133,-0.0587 l 4.16534,-0.11733 0.29333,1.64267 q 0.29334,1.46666 0.64534,3.344 0.0587,0.41066 0.176,0.93866 0.11733,0.528 0.176,0.88001 0.11733,0.352 0.11733,0.528 0,0.41066 -1.29067,0.58666 -1.29067,0.23467 -5.104,0.352 -1.11467,0.0587 -2.64,0.0587 -1.87734,0 -4.16534,-0.704 -2.52267,-0.82133 -3.63733,-1.87734 -1.056,-1.056 -1.87734,-3.52 -0.29333,-0.93866 -1.232,-2.992 -0.88,-2.112 -1.46667,-3.75467 -0.528,-1.70133 -0.528,-2.87467 0,-1.231997 0.76267,-4.634665 0.82134,-3.402669 1.34934,-4.341336 0.46933,-0.938667 0.704,-2.229334 0.0587,-0.293334 0.11733,-0.528001 0.11733,-0.293333 0.176,-0.410666 0.11733,-0.117334 0.176,-0.05867 0.176,0.176 1.408,-1.056001 2.40533,-2.405334 5.456,-3.461335 z m 18.83203,-4.928003 -0.23466,-4.048002 2.69866,0.176 q 2.816,0.234667 4.10667,0.410667 l 1.408,0.176 v 2.405335 q 0,3.637335 1.11467,5.632003 h 0.0587 q 0.41066,0 2.22933,-0.410667 1.584,-0.410667 3.344,-0.410667 3.98934,0 7.27467,2.112001 1.52534,0.997334 2.22934,2.640002 0.76267,1.584001 1.17333,5.162669 0.64534,4.458669 1.11467,6.688004 0.64533,3.050673 0.64533,7.509333 0,2.81601 -0.23466,4.69334 l -0.29334,2.05333 -3.93067,-0.11733 -3.98933,-0.0587 0.0587,-1.70133 q 0,-1.87733 0.29333,-4.51734 0.0587,-0.64533 0.0587,-1.81866 0,-1.70134 -0.176,-2.58134 -1.23201,-6.277335 -1.58401,-8.976003 -0.29333,-2.170668 -0.704,-2.522668 -0.352,-0.410667 -2.17066,-0.410667 -1.29067,0 -3.69601,1.232001 -1.70133,0.88 -2.112,1.232001 -0.352,0.352 -0.352,0.997334 0,0.938667 -0.528,3.168001 -0.29333,1.584001 -0.29333,2.229331 0,0.704 0.176,1.29067 0.23467,0.99734 0.46933,7.50934 l 0.176,6.21867 h -7.744 l -0.41067,-1.408 q -0.176,-0.88 -0.176,-2.17067 0,-0.528 0.11734,-2.992 0.11733,-1.17334 0.11733,-2.75734 0,-1.34933 -0.352,-2.69866 -0.41067,-1.46667 -0.41067,-3.81334 0,-1.994668 0.29334,-3.050668 0.41066,-1.642668 0.41066,-9.856006 0,-4.341335 -0.176,-7.216004 z m 41.00799,5.33867 q 0.176,-0.176 0.352,-0.176 0.82133,0 0.82133,2.346668 0,0.762667 -0.176,1.466667 -0.41067,1.349334 -0.41067,4.165336 0,2.640001 0.82134,5.045336 0.704,2.053334 0.704,3.402671 0,1.17333 -0.0587,1.99467 -0.11733,2.112 -0.11733,2.22933 0,1.11467 0.46933,1.408 0.41067,0.41067 2.22934,0.704 1.81866,0.29333 3.40267,0.29333 0.704,0 1.29066,-0.11733 1.11467,-0.29333 1.46667,-0.64533 0.41067,-0.41067 0.41067,-1.408 0,-0.88 -0.0587,-1.46667 -0.11733,-1.17333 -0.58667,-4.165337 -0.46933,-2.992001 -0.46933,-4.752002 0,-1.994668 0.41067,-5.808003 0.41066,-3.813336 0.704,-4.282669 0.0587,-0.176 0.352,-0.176 0.352,0 3.52,1.056 l 3.63733,1.232001 -0.0587,1.173334 q 0,0.176 -0.11734,1.877334 -0.0587,1.642668 -0.176,2.757335 -0.176,1.760001 -0.176,2.816002 0,1.232 0.23467,1.994667 0.88,3.343998 0.88,11.557338 0,3.344 -0.29333,3.344 -0.11734,0 -0.176,-0.23466 l -0.29334,-0.704 -0.99733,0.76266 q -1.17333,0.82134 -1.29067,0.82134 -0.176,0 -1.29066,0.76266 -2.34667,1.58401 -6.98134,1.58401 -1.46667,0 -2.288,-0.0587 -4.28267,-0.23467 -5.33867,-0.528 -2.34667,-0.64534 -4.10667,-2.992 -2.64,-3.63734 -2.64,-6.74667 0,-0.93867 0.176,-1.99467 0.11733,-1.408 0.11733,-1.76 0,-1.056 -0.41067,-2.34667 -1.17333,-3.578669 -1.17333,-6.864004 0,-1.232001 0.0587,-1.936001 0.23466,-3.285335 0.41066,-3.813335 0.23467,-0.528001 1.29067,-0.528001 1.11467,0 1.76,-0.645333 0.528,-0.528001 1.64267,-0.528001 h 0.64533 0.704 q 1.056,0 1.17334,-0.117333 z m 33.02933,0 q 0.176,-0.176 0.352,-0.176 0.82133,0 0.82133,2.346668 0,0.762667 -0.176,1.466667 -0.41066,1.349334 -0.41066,4.165336 0,2.640001 0.82133,5.045336 0.704,2.053334 0.704,3.402671 0,1.17333 -0.0587,1.99467 -0.11733,2.112 -0.11733,2.22933 0,1.11467 0.46933,1.408 0.41067,0.41067 2.22934,0.704 1.81867,0.29333 3.40267,0.29333 0.704,0 1.29066,-0.11733 1.11467,-0.29333 1.46667,-0.64533 0.41067,-0.41067 0.41067,-1.408 0,-0.88 -0.0587,-1.46667 -0.11733,-1.17333 -0.58667,-4.165337 -0.46933,-2.992001 -0.46933,-4.752002 0,-1.994668 0.41067,-5.808003 0.41066,-3.813336 0.704,-4.282669 0.0587,-0.176 0.352,-0.176 0.352,0 3.52,1.056 l 3.63734,1.232001 -0.0587,1.173334 q 0,0.176 -0.11733,1.877334 -0.0587,1.642668 -0.176,2.757335 -0.176,1.760001 -0.176,2.816002 0,1.232 0.23466,1.994667 0.88,3.343998 0.88,11.557338 0,3.344 -0.29333,3.344 -0.11733,0 -0.176,-0.23466 l -0.29333,-0.704 -0.99734,0.76266 q -1.17333,0.82134 -1.29067,0.82134 -0.176,0 -1.29066,0.76266 -2.34667,1.58401 -6.98134,1.58401 -1.46667,0 -2.288,-0.0587 -4.28267,-0.23467 -5.33867,-0.528 -2.34667,-0.64534 -4.10667,-2.992 -2.64,-3.63734 -2.64,-6.74667 0,-0.93867 0.176,-1.99467 0.11733,-1.408 0.11733,-1.76 0,-1.056 -0.41066,-2.34667 -1.17334,-3.578669 -1.17334,-6.864004 0,-1.232001 0.0587,-1.936001 0.23466,-3.285335 0.41066,-3.813335 0.23467,-0.528001 1.29067,-0.528001 1.11467,0 1.76,-0.645333 0.528,-0.528001 1.64267,-0.528001 h 0.64533 0.704 q 1.05601,0 1.17334,-0.117333 z m 45.29068,-3.109335 q 1.11467,-0.469334 2.17067,-0.469334 2.75733,0 4.048,2.288002 0.64534,1.173334 0.64534,2.170667 0,1.056001 -0.82134,2.992002 -1.81867,3.872002 -4.10667,4.986669 -1.29067,0.645334 -2.992,2.229335 -1.056,0.997334 -1.584,1.818668 -0.528,0.821333 -1.17333,2.581334 -1.056,2.69867 -2.05334,4.16534 -0.93867,1.408 -1.52533,2.40533 l -0.528,0.99733 2.22933,-0.176 q 2.22934,-0.23466 3.52,-0.64533 1.408,-0.41067 1.936,-0.41067 0.76267,0 2.17067,0.528 3.168,1.17334 3.168,4.04801 0,1.52533 -0.41066,1.64266 -0.46934,0.23467 -0.29334,1.34934 0.0587,0.29333 0.0587,0.704 0,0.46933 -0.76267,0.64533 -0.176,0.0587 -0.704,0.0587 -0.88,0 -1.584,-0.176 -0.46933,-0.11733 -1.46667,-0.11733 -1.584,0 -3.696,0.29333 -3.05067,0.41067 -4.928,0.41067 -0.176,0 -0.528,-0.0587 -0.352,0 -0.46933,0 -0.41067,-0.0587 -1.408,-0.0587 -1.46667,0 -2.17067,0.176 -0.41067,0.11734 -1.17334,0.11734 -2.05333,0 -3.696,-1.70134 -1.70133,-1.81867 -1.70133,-3.63733 0,-0.528 0.176,-1.17334 0.23466,-0.82133 1.70133,-2.75733 1.52534,-1.99467 2.816,-3.10934 0.58667,-0.58666 0.58667,-0.93866 0,-0.29334 1.056,-1.58401 1.11467,-1.290663 1.936,-3.637331 1.936,-4.986669 3.52,-6.39467 1.17334,-0.997334 1.056,-1.114667 h -0.11733 q -0.29333,0 -1.70133,0.234666 -1.056,0.176 -1.70134,0.176 -0.23466,0 -0.64533,0 -0.41067,-0.05867 -0.58667,-0.05867 -0.704,0 -1.584,0.176 -0.352,0.117333 -1.29067,0.117333 -1.87733,0 -2.64,-0.469333 -0.0587,-0.05867 -0.0587,-0.234667 0,-0.586667 1.11466,-3.578669 1.408,-3.637335 1.52534,-3.696002 0.11733,-0.117333 3.168,-0.410667 3.10933,-0.352 4.81067,-0.410667 h 0.46933 q 1.584,0 2.17067,0.352001 0.58667,0.352 1.056,0.05867 0.29333,-0.234666 1.17333,-0.234666 0.76267,0 1.81867,-0.469334 z m 35.4933,3.109335 q 0.176,-0.176 0.352,-0.176 0.82133,0 0.82133,2.346668 0,0.762667 -0.176,1.466667 -0.41066,1.349334 -0.41066,4.165336 0,2.640001 0.82133,5.045336 0.704,2.053334 0.704,3.402671 0,1.17333 -0.0587,1.99467 -0.11733,2.112 -0.11733,2.22933 0,1.11467 0.46933,1.408 0.41067,0.41067 2.22934,0.704 1.81867,0.29333 3.40267,0.29333 0.704,0 1.29067,-0.11733 1.11466,-0.29333 1.46666,-0.64533 0.41067,-0.41067 0.41067,-1.408 0,-0.88 -0.0587,-1.46667 -0.11733,-1.17333 -0.58666,-4.165337 -0.46934,-2.992001 -0.46934,-4.752002 0,-1.994668 0.41067,-5.808003 0.41067,-3.813336 0.704,-4.282669 0.0587,-0.176 0.352,-0.176 0.352,0 3.52,1.056 l 3.63734,1.232001 -0.0587,1.173334 q 0,0.176 -0.11733,1.877334 -0.0587,1.642668 -0.176,2.757335 -0.176,1.760001 -0.176,2.816002 0,1.232 0.23466,1.994667 0.88,3.343998 0.88,11.557338 0,3.344 -0.29333,3.344 -0.11733,0 -0.176,-0.23466 l -0.29333,-0.704 -0.99734,0.76266 q -1.17333,0.82134 -1.29066,0.82134 -0.176,0 -1.29067,0.76266 -2.34667,1.58401 -6.98134,1.58401 -1.46667,0 -2.288,-0.0587 -4.28267,-0.23467 -5.33867,-0.528 -2.34667,-0.64534 -4.10667,-2.992 -2.64,-3.63734 -2.64,-6.74667 0,-0.93867 0.176,-1.99467 0.11733,-1.408 0.11733,-1.76 0,-1.056 -0.41066,-2.34667 -1.17334,-3.578669 -1.17334,-6.864004 0,-1.232001 0.0587,-1.936001 0.23467,-3.285335 0.41067,-3.813335 0.23466,-0.528001 1.29066,-0.528001 1.11467,0 1.76,-0.645333 0.528,-0.528001 1.64267,-0.528001 h 0.64534 0.704 q 1.056,0 1.17333,-0.117333 z m 38.54401,-1.173334 q 1.76,-0.469334 2.34667,-0.469334 0.58667,0 0.76267,0.469334 0.23466,0.469334 0.528,1.877334 0,0.176 0,0.293334 0.0587,0.117333 0.0587,0.293333 0.0587,0.176 0.11734,0.352001 0.64533,3.402668 0.82133,3.872002 0.0587,0.234666 -0.23467,0.410667 -0.29333,0.176 -1.17333,0.410666 -1.76,0.469334 -3.872,1.936001 -2.816,1.818668 -3.57867,2.112002 -1.17333,0.528 -1.17333,0.997333 0,0.234667 0.0587,0.410667 0.29334,1.525335 0.58667,11.205342 l 0.23467,7.62667 h -8.27201 l -0.0587,-5.22134 q -0.11734,-8.096 -0.352,-11.733337 -0.0587,-0.821334 -0.0587,-2.640002 0,-1.877334 0.176,-3.226668 0.176,-1.232001 0.176,-2.112001 0,-1.056001 -0.23467,-1.936001 -0.176,-0.762667 -0.176,-1.173334 0,-0.645334 0.64534,-1.056001 0.704,-0.410667 3.05066,-1.232001 3.10934,-1.114667 3.52001,-1.114667 0.46933,0 0.704,0.938667 0.23466,0.880001 0.64533,0.880001 0.352,0 1.584,-0.880001 0.99733,-0.762667 3.168,-1.290667 z m 44.82131,0.586667 q 0.704,-0.469334 1.70134,-0.469334 0.58666,0 0.99733,0.05867 1.232,0.117334 1.70134,0.352 0.528,0.176 1.29066,0.938667 1.17334,1.114668 2.112,2.874669 0.93867,1.701334 1.17334,3.050668 0.704,3.813335 2.52267,8.682671 0.58666,1.525337 0.704,1.525337 0.11733,0 0.11733,-0.64534 0,-1.114663 0.58667,-2.405331 0.528,-1.173334 1.87733,-4.869336 1.34934,-3.754668 1.87734,-6.21867 0.41066,-1.936001 0.58666,-2.112001 h 0.0587 q 0.46933,0 3.696,1.349334 2.992,1.290668 3.344,1.818668 0.23467,0.352 0.23467,0.762667 0,0.704 -0.93867,3.226668 -2.05333,5.632003 -2.64,7.626671 -0.58667,1.99467 -0.704,3.98934 -0.11733,1.52533 -0.82133,4.51733 -0.704,2.992 -0.704,3.05067 -0.23467,1.34933 -0.88,2.58133 -0.58667,1.29067 -1.29067,1.70134 -0.76267,0.528 -5.104,1.17333 -0.0587,0 -0.23467,0 -0.176,0.0587 -0.29333,0.0587 -1.056,0 -2.11201,-0.528 -0.99733,-0.528 -1.46666,-1.29067 -1.46667,-2.69867 -1.46667,-4.224 0,-1.34933 -1.29067,-5.92534 -1.29067,-4.576 -1.70133,-4.576 -0.352,0 -1.52534,2.87467 -0.352,1.056 -0.64533,3.344 -0.41067,4.28267 -0.88,5.92534 -0.41067,1.70133 -1.29067,2.64 -0.76266,0.88 -1.70133,1.17333 -0.93867,0.29334 -3.10934,0.46934 -0.58666,0.0587 -1.52533,0.0587 -2.22934,0 -3.28534,-0.93866 -1.056,-0.93867 -2.05333,-3.63734 -0.76267,-2.22933 -0.88,-4.45867 0,-1.81867 -0.41067,-2.64 -0.93867,-1.87733 -1.34933,-5.51467 -0.176,-2.229335 -1.232,-4.576002 -1.70134,-4.106669 -1.99467,-6.629337 l -0.23467,-1.701335 h 8.15467 l 0.23467,1.408001 q 0.23467,1.466668 0.41067,1.760001 0.64533,0.821334 1.408,3.285335 0.82133,2.405335 0.99733,3.989336 0.58667,4.282671 1.11467,4.282671 0.41067,0 1.584,-3.168004 1.232,-3.168002 1.52533,-4.928003 0.29334,-1.466667 1.11467,-4.224002 0.88,-2.757335 1.34934,-3.637335 0.29333,-0.528001 1.29066,-1.232001 z m 46.87467,8.506671 q -0.64533,-0.586667 -1.87733,-0.586667 -1.99467,0 -3.81334,1.525334 -0.88,0.762668 -1.232,2.288002 l -0.29333,1.642667 0.99733,0.176 q 0.29334,0.05867 1.87734,0.05867 6.21867,0 6.57067,-0.352 0.0587,-0.05867 0.0587,-0.117334 0,-0.528 -0.93866,-2.405334 -0.88,-1.877335 -1.34934,-2.229335 z m -6.04267,-8.037337 q 2.05334,-0.645334 4.34134,-0.645334 2.52267,0 4.34133,0.762667 3.75467,1.760001 5.51467,5.221336 1.11467,2.288001 1.29067,3.285335 0.23467,1.232001 0.58667,1.818668 0.352,0.762667 0.64533,2.522668 0.352,1.760001 0.352,2.992001 0,0.58667 -0.0587,0.76267 -0.176,0.88 -1.11466,2.05333 -0.88,1.11467 -1.70134,1.408 -1.34933,0.528 -5.28,0.704 -3.872,0.176 -7.04,0.23467 -3.16801,0 -3.16801,0.176 0,1.46667 1.58401,2.464 0.99733,0.64534 4.63466,0.93867 1.93601,0.23467 2.99201,0.23467 0.93866,0 2.34666,-0.528 1.52534,-0.58667 2.58134,-0.58667 0.88,0 2.112,0.528 l 1.232,0.58667 -0.11733,1.76 q -0.41067,4.98667 -0.88,5.33867 -0.704,0.82133 -8.03734,0.82133 -3.696,0 -6.16,-0.352 -2.34667,-0.29333 -4.75201,-1.64267 -2.34667,-1.34933 -3.40267,-2.93333 -2.69866,-4.22401 -2.69866,-9.21067 0,-1.34934 0.0587,-2.05334 0.352,-4.458668 1.29067,-7.568003 1.70133,-5.69067 4.98667,-7.626671 1.232,-0.645334 3.52,-1.466667 z m 31.26935,31.034681 q -0.0587,0 -3.63733,-1.232 -3.57867,-1.17333 -3.63734,-1.17333 -0.11733,0 -0.29333,0.46933 l -0.0587,0.0587 q -0.0587,0 -0.0587,-0.352 0,-0.176 0.11733,-1.584 0.0587,-0.46934 0.0587,-1.81867 0,-2.112 -0.176,-3.872 -0.23467,-2.40534 -0.352,-11.498676 -0.0587,-2.053334 -0.0587,-4.810669 0,-3.402669 0.64533,-4.752003 0.58667,-1.114667 0.58667,-2.522668 0,-1.525334 -0.41067,-5.162669 l -0.23466,-1.760001 0.88,0.176 q 0.76266,0.176 3.98933,0.410667 2.288,0.117333 2.75734,0.293333 0.46933,0.117334 0.704,0.704001 0.176,0.410666 0.29333,4.869336 v 1.760001 q 0,2.405334 -0.46933,3.285335 -0.528,0.997333 -0.528,8.213337 0.11733,8.624006 0.29333,10.149336 0.176,1.76 0.176,4.16534 0,5.984 -0.58667,5.984 z m 15.19471,0 q -0.0587,0 -3.63734,-1.232 -3.57867,-1.17333 -3.63734,-1.17333 -0.11733,0 -0.29333,0.46933 l -0.0587,0.0587 q -0.0587,0 -0.0587,-0.352 0,-0.176 0.11733,-1.584 0.0587,-0.46934 0.0587,-1.81867 0,-2.112 -0.176,-3.872 -0.23467,-2.40534 -0.352,-11.498676 -0.0587,-2.053334 -0.0587,-4.810669 0,-3.402669 0.64533,-4.752003 0.58667,-1.114667 0.58667,-2.522668 0,-1.525334 -0.41067,-5.162669 l -0.23466,-1.760001 0.88,0.176 q 0.76267,0.176 3.98933,0.410667 2.28801,0.117333 2.75734,0.293333 0.46933,0.117334 0.704,0.704001 0.176,0.410666 0.29333,4.869336 v 1.760001 q 0,2.405334 -0.46933,3.285335 -0.528,0.997333 -0.528,8.213337 0.11733,8.624006 0.29333,10.149336 0.176,1.76 0.176,4.16534 0,5.984 -0.58666,5.984 z m 23.1734,-22.997344 q -0.64533,-0.586667 -1.87734,-0.586667 -1.99466,0 -3.81333,1.525334 -0.88,0.762668 -1.232,2.288002 l -0.29333,1.642667 0.99733,0.176 q 0.29333,0.05867 1.87733,0.05867 6.21867,0 6.57067,-0.352 0.0587,-0.05867 0.0587,-0.117334 0,-0.528 -0.93867,-2.405334 -0.88,-1.877335 -1.34933,-2.229335 z m -6.04267,-8.037337 q 2.05333,-0.645334 4.34133,-0.645334 2.52267,0 4.34134,0.762667 3.75467,1.760001 5.51467,5.221336 1.11467,2.288001 1.29067,3.285335 0.23466,1.232001 0.58666,1.818668 0.352,0.762667 0.64534,2.522668 0.352,1.760001 0.352,2.992001 0,0.58667 -0.0587,0.76267 -0.176,0.88 -1.11467,2.05333 -0.88,1.11467 -1.70133,1.408 -1.34933,0.528 -5.28,0.704 -3.872,0.176 -7.04001,0.23467 -3.168,0 -3.168,0.176 0,1.46667 1.584,2.464 0.99734,0.64534 4.63467,0.93867 1.936,0.23467 2.992,0.23467 0.93867,0 2.34667,-0.528 1.52534,-0.58667 2.58134,-0.58667 0.88,0 2.112,0.528 l 1.232,0.58667 -0.11734,1.76 q -0.41066,4.98667 -0.88,5.33867 -0.704,0.82133 -8.03733,0.82133 -3.69601,0 -6.16001,-0.352 -2.34666,-0.29333 -4.752,-1.64267 -2.34667,-1.34933 -3.40267,-2.93333 -2.69867,-4.22401 -2.69867,-9.21067 0,-1.34934 0.0587,-2.05334 0.352,-4.458668 1.29067,-7.568003 1.70133,-5.69067 4.98667,-7.626671 1.232,-0.645334 3.52,-1.466667 z m 23.64268,-5.221337 -0.23467,-4.048002 2.69867,0.176 q 2.816,0.234667 4.10667,0.410667 l 1.408,0.176 v 2.405335 q 0,3.637335 1.11467,5.632003 h 0.0587 q 0.41066,0 2.22933,-0.410667 1.584,-0.410667 3.344,-0.410667 3.98934,0 7.27467,2.112001 1.52534,0.997334 2.22934,2.640002 0.76266,1.584001 1.17333,5.162669 0.64533,4.458669 1.11467,6.688004 0.64533,3.050673 0.64533,7.509333 0,2.81601 -0.23467,4.69334 l -0.29333,2.05333 -3.93067,-0.11733 -3.98933,-0.0587 0.0587,-1.70133 q 0,-1.87733 0.29334,-4.51734 0.0587,-0.64533 0.0587,-1.81866 0,-1.70134 -0.176,-2.58134 -1.232,-6.277335 -1.584,-8.976003 -0.29333,-2.170668 -0.704,-2.522668 -0.352,-0.410667 -2.17067,-0.410667 -1.29066,0 -3.696,1.232001 -1.70133,0.88 -2.112,1.232001 -0.352,0.352 -0.352,0.997334 0,0.938667 -0.528,3.168001 -0.29333,1.584001 -0.29333,2.229331 0,0.704 0.176,1.29067 0.23466,0.99734 0.46933,7.50934 l 0.176,6.21867 h -7.744 l -0.41067,-1.408 q -0.176,-0.88 -0.176,-2.17067 0,-0.528 0.11733,-2.992 0.11734,-1.17334 0.11734,-2.75734 0,-1.34933 -0.352,-2.69866 -0.41067,-1.46667 -0.41067,-3.81334 0,-1.994668 0.29333,-3.050668 0.41067,-1.642668 0.41067,-9.856006 0,-4.341335 -0.176,-7.216004 z m 34.78932,-3.930668 q 0.528,-0.938668 0.93867,-0.938668 0.23466,0 0.41066,0.293334 0.176,0.293333 3.34401,0.293333 h 3.168 v 2.464002 q 0,4.634669 1.232,5.749336 0.58666,0.528001 1.17333,0.528001 0.528,0 1.46667,-0.469334 0.704,-0.352 1.76,-0.352 1.87733,0 3.05067,0.821334 1.87733,1.290667 1.87733,4.693335 0,1.584001 -0.29333,1.936001 -0.23467,0.352001 -1.46667,0.352001 -0.82133,0 -1.99467,0.645333 -1.056,0.528001 -2.75733,0.528001 h -1.11467 -1.11467 q -1.52533,0 -2.05333,0.645333 -0.352,0.410667 -0.352,1.173334 0,0.05867 0.23467,2.405335 0.176,1.056 0.46933,6.864005 0.11733,3.93067 0.352,4.63467 0.29333,0.64533 1.936,0.64533 h 1.11467 2.816 v 8.15467 h -3.10933 q -2.99201,0 -4.51734,-0.23466 -2.112,-0.352 -3.696,-2.11201 -1.584,-1.70133 -2.464,-4.51733 -0.29334,-1.11467 -0.704,-6.04267 -0.352,-4.98667 -0.41067,-9.738673 -0.11733,-2.581335 -0.41067,-2.816002 -0.41066,-0.234666 -0.41066,-4.165335 v -3.930669 h 0.88 q 0.64533,0 0.76266,-0.117333 0.11734,-0.176 0,-0.880001 -0.352,-1.642667 -0.46933,-1.994668 -0.23467,-0.88 -0.23467,-1.994667 0,-1.584001 0.58667,-2.522668 z m 26.10666,0 q 0.528,-0.938668 0.93867,-0.938668 0.23466,0 0.41066,0.293334 0.176,0.293333 3.344,0.293333 h 3.16801 v 2.464002 q 0,4.634669 1.232,5.749336 0.58666,0.528001 1.17333,0.528001 0.528,0 1.46667,-0.469334 0.704,-0.352 1.76,-0.352 1.87733,0 3.05067,0.821334 1.87733,1.290667 1.87733,4.693335 0,1.584001 -0.29333,1.936001 -0.23467,0.352001 -1.46667,0.352001 -0.82133,0 -1.99467,0.645333 -1.056,0.528001 -2.75733,0.528001 h -1.11467 -1.11467 q -1.52533,0 -2.05333,0.645333 -0.352,0.410667 -0.352,1.173334 0,0.05867 0.23467,2.405335 0.176,1.056 0.46933,6.864005 0.11733,3.93067 0.352,4.63467 0.29333,0.64533 1.936,0.64533 h 1.11467 2.816 v 8.15467 h -3.10934 q -2.992,0 -4.51733,-0.23466 -2.112,-0.352 -3.696,-2.11201 -1.584,-1.70133 -2.464,-4.51733 -0.29334,-1.11467 -0.70401,-6.04267 -0.352,-4.98667 -0.41066,-9.738673 -0.11734,-2.581335 -0.41067,-2.816002 -0.41067,-0.234666 -0.41067,-4.165335 v -3.930669 h 0.88 q 0.64534,0 0.76267,-0.117333 0.11734,-0.176 0,-0.880001 -0.352,-1.642667 -0.46933,-1.994668 -0.23467,-0.88 -0.23467,-1.994667 0,-1.584001 0.58667,-2.522668 z"
       id="text5"
       style="font-size:58.6667px;line-height:1.25;font-family:Titilliumweb_semibold;-inkscape-font-specification:Titilliumweb_semibold;text-align:center;text-anchor:middle;white-space:pre;fill:#ff7e00;stroke-width:3.77953"
       transform="matrix(0.26458333,0,0,0.26458333,-7.8491048,2.2787724)"
       aria-label="chuuz ur wellehtt" />
  </g>
</svg>
