<?xml version="1.0" encoding="UTF-8" standalone="no"?>
<!-- Created with Inkscape (http://www.inkscape.org/) -->

<svg
   width="290mm"
   height="55mm"
   viewBox="0 0 290 55"
   version="1.1"
   id="svg1"
   inkscape:version="1.3.2 (091e20e, 2023-11-25, custom)"
   sodipodi:docname="buttunz_1.svg"
   xmlns:inkscape="http://www.inkscape.org/namespaces/inkscape"
   xmlns:sodipodi="http://sodipodi.sourceforge.net/DTD/sodipodi-0.dtd"
   xmlns="http://www.w3.org/2000/svg"
   xmlns:svg="http://www.w3.org/2000/svg">
  <sodipodi:namedview
     id="namedview1"
     pagecolor="#ffffff"
     bordercolor="#000000"
     borderopacity="0.25"
     inkscape:showpageshadow="2"
     inkscape:pageopacity="0.0"
     inkscape:pagecheckerboard="0"
     inkscape:deskcolor="#d1d1d1"
     inkscape:document-units="mm"
     inkscape:zoom="1.0449705"
     inkscape:cx="518.67491"
     inkscape:cy="125.84087"
     inkscape:window-width="2560"
     inkscape:window-height="1369"
     inkscape:window-x="-8"
     inkscape:window-y="-8"
     inkscape:window-maximized="1"
     inkscape:current-layer="layer1" />
  <defs
     id="defs1">
    <rect
       x="238.28423"
       y="58.374851"
       width="768.44271"
       height="93.782548"
       id="rect1" />
    <inkscape:path-effect
       effect="spiro"
       id="path-effect1"
       is_visible="true"
       lpeversion="1" />
  </defs>
  <g
     inkscape:label="Layer 1"
     inkscape:groupmode="layer"
     id="layer1">
    <path
       style="fill:#ff7e00;stroke:#ff7e00;stroke-width:1"
       d="m 4.8107417,51.145781 c -0.067533,-0.333081 -0.067533,-0.679707 0,-1.012788 0.1435615,-0.708058 0.5802226,-1.325731 0.7595907,-2.025576 0.1262302,-0.492516 0.1206271,-1.008988 0.085619,-1.516216 -0.035008,-0.507228 -0.098629,-1.01388 -0.085619,-1.522148 0.026062,-1.0182 0.3589912,-2.02534 0.253197,-3.038364 -0.072382,-0.693088 -0.3466278,-1.34728 -0.506394,-2.025576 -0.4272632,-1.813968 -0.02346,-3.706871 0,-5.570331 0.011691,-0.928665 -0.071802,-1.859206 0,-2.785165 0.085858,-1.107235 0.3921566,-2.186893 0.506394,-3.29156 0.1998832,-1.932856 -0.192418,-3.889917 0,-5.823531 0.042168,-0.423751 0.1123323,-0.844844 0.1368218,-1.269984 0.02449,-0.425139 0.00181,-0.859339 -0.1368218,-1.261985 -0.1928102,-0.559995 -0.5934095,-1.01894 -0.9632074,-1.481563 -0.3697979,-0.462623 -0.7283391,-0.970083 -0.8091713,-1.5568 -0.046132,-0.334848 0.00176,-0.674782 0,-1.012788 C 4.0479996,15.345438 3.8855506,14.75253 3.7113674,14.172127 3.5371843,13.591724 3.3489031,13.009906 3.29156,12.406649 c -0.071938,-0.756799 0.064874,-1.521335 0,-2.278772 C 3.2252925,9.3541714 2.9516047,8.6157297 2.7676423,7.8612965 2.6756612,7.4840798 2.6056926,7.0996168 2.596245,6.7114627 2.5867973,6.3233085 2.6393575,5.9301834 2.7851663,5.5703324 2.8710523,5.3583687 2.9879486,5.1606028 3.0886614,4.9552691 3.1893742,4.7499353 3.2750262,4.5324522 3.29156,4.3043477 3.3102159,4.0469663 3.2402001,3.7926638 3.2008293,3.5376281 3.1811439,3.4101103 3.1690584,3.2806263 3.1796255,3.1520314 3.1901926,3.0234365 3.224219,2.8952276 3.29156,2.7851663 c 0.042427,-0.069342 0.098081,-0.1310931 0.1652918,-0.176821 0.067211,-0.045728 0.1461682,-0.075055 0.227317,-0.079871 0.081149,-0.00482 0.1642723,0.015522 0.2316973,0.060934 0.067425,0.045412 0.118164,0.1162895 0.1352846,0.1957578 0.017828,0.082751 -3.619e-4,0.1685475 0,0.2531967 6.808e-4,0.1592467 0.069088,0.3144462 0.1749322,0.4334292 0.1058444,0.1189831 0.2471193,0.2032476 0.3975355,0.2555444 0.3008324,0.1045934 0.6285115,0.084296 0.946714,0.070617 0.5904168,-0.02538 1.1818869,-0.023572 1.7723786,0 1.0156861,0.040545 2.0276018,0.1453826 3.038363,0.2531967 2.361044,0.2518437 4.772233,0.5178424 7.089514,0 1.264572,-0.2825936 2.502762,-0.7980411 3.797954,-0.7595907 1.293003,0.038385 2.511121,0.6277165 3.797954,0.7595907 0.847897,0.086892 1.701564,-0.027036 2.552628,-0.073606 0.851064,-0.046571 1.732684,-0.019922 2.511311,0.3268035 0.450043,0.2004056 0.847376,0.4998424 1.265983,0.759591 1.5962,0.9904528 3.477548,1.3918951 5.317136,1.7723783 3.508814,0.7257303 7.173033,1.4328349 10.634271,0.506394 0.336309,-0.090017 0.669486,-0.1953037 1.012787,-0.253197 0.83377,-0.1406048 1.686435,0.00357 2.53197,0 0.932644,-0.00394 1.854803,-0.1878849 2.785166,-0.253197 0.926452,-0.065038 1.856515,-0.012188 2.785168,0 3.099559,0.040681 6.231284,-0.382262 9.115089,-1.5191816 1.245928,-0.4911983 2.466668,-1.1200652 3.797953,-1.2659847 0.839598,-0.092027 1.687448,0.013274 2.53197,0 0.93244,-0.014656 1.856003,-0.173719 2.785166,-0.2531967 1.85156,-0.1583767 3.713856,-0.012034 5.568987,0.096809 1.85513,0.1088423 3.713357,0.1563882 5.571678,0.1563882 h 18.736571 c 3.20743,0 6.4168,-0.1324452 9.62149,0 3.12598,0.1291922 6.24086,0.594168 9.36828,0.506394 3.30419,-0.092735 6.66657,-0.796463 9.87468,0 0.33778,0.083859 0.67169,0.1840546 1.01279,0.253197 1.07953,0.2188279 2.19803,0.1210691 3.29156,0.253197 0.85481,0.1032843 1.68602,0.3459536 2.53197,0.5063937 3.73965,0.7092496 7.59318,-0.2069731 11.39386,0 1.94844,0.1061059 3.93836,0.5037962 5.82353,0 0.85249,-0.2278212 1.65828,-0.6358683 2.53197,-0.7595907 0.66952,-0.09481 1.34962,-0.018257 2.02557,0 2.35564,0.063623 4.66396,-0.5808201 6.98623,-0.9810007 1.16113,-0.2000903 2.33822,-0.339948 3.51575,-0.2988382 1.17753,0.04111 2.35952,0.268008 3.42385,0.7734449 0.41225,0.1957715 0.81514,0.4356231 1.26599,0.506394 0.41752,0.065539 0.8438,-0.019658 1.26598,0 0.80473,0.037471 1.536,0.4476974 2.27878,0.7595907 2.08461,0.8753333 4.40909,1.0059999 6.66613,0.8735132 2.25705,-0.1324868 4.49481,-0.5151961 6.7533,-0.6203162 2.61414,-0.1216739 5.23534,0.1295056 7.84911,0 3.47474,-0.1721644 6.90207,-1.0153297 10.38107,-1.0127877 0.59087,4.317e-4 1.18206,0.025312 1.77238,0 1.78997,-0.076751 3.53159,-0.6122759 5.31714,-0.759591 0.67366,-0.05558 1.35191,-0.05558 2.02557,0 0.88761,-0.3795526 1.82777,-0.6359603 2.78517,-0.7595907 1.67729,-0.2165902 3.388,-0.026383 5.06394,-0.253197 0.67498,-0.091349 1.34444,-0.2502877 2.02557,-0.2531967 1.02867,-0.00439 2.02226,0.3459963 3.03836,0.5063937 2.0875,0.329525 4.22176,-0.1478303 6.32993,0 1.98449,0.1391576 3.88342,0.8260719 5.82353,1.2659847 3.72083,0.8436832 7.57861,0.7757219 11.39386,0.7595907 1.09718,-0.00464 2.19438,-0.00464 3.29156,0 0.64423,-0.2703917 1.32989,-0.4418075 2.02557,-0.5063937 1.09314,-0.1014864 2.19534,0.059638 3.29156,0 1.02628,-0.055833 2.03071,-0.3039256 3.03837,-0.506394 2.49931,-0.502183 5.09085,-0.7258883 7.5959,-0.253197 0.33581,0.063365 0.67222,0.1350884 1.01388,0.1421702 0.34165,0.00708 0.68018,-0.059288 1.01171,-0.1421702 L 280.289,3.797954 c 0.15128,-0.037819 0.30224,-0.087017 0.42986,-0.1766069 0.12763,-0.08959 0.22879,-0.2109331 0.32973,-0.3297871 0.3035,-0.3573724 0.63891,-0.6910717 1.02423,-0.958209 0.38531,-0.2671373 0.82284,-0.466586 1.28584,-0.5404773 0.46301,-0.073891 0.95226,-0.017245 1.36875,0.1980731 0.4165,0.2153182 0.7533,0.5956458 0.87873,1.0474162 0.1137,0.4095027 0.0533,0.8443427 0,1.2659847 -0.25798,2.0419502 -0.33459,4.133496 -1.0128,6.0767263 -0.42538,1.218828 -1.07762,2.347332 -1.52594,3.55791 -0.22417,0.605289 -0.39729,1.233157 -0.45818,1.875742 -0.0609,0.642585 -0.007,1.301735 0.21176,1.909059 0.21797,0.605605 0.59445,1.150287 0.75959,1.772378 0.21767,0.819985 0.0482,1.684955 0,2.53197 -0.0796,1.400028 0.1771,2.794637 0.41964,4.175794 0.24254,1.381157 0.47275,2.783717 0.33993,4.179703 -0.12236,1.286102 -0.54909,2.523308 -0.75957,3.797957 -0.31685,1.918807 -0.13855,3.882117 -0.2532,5.823526 -0.0249,0.422125 -0.0636,0.847935 0,1.265987 0.069,0.45381 0.25702,0.882838 0.49416,1.275868 0.23715,0.39303 0.52349,0.753684 0.8065,1.115091 0.283,0.361406 0.56457,0.726338 0.79078,1.125764 0.2262,0.399427 0.39663,0.83709 0.44051,1.294018 0.0365,0.379802 -0.0149,0.7617 -0.0497,1.141663 -0.0348,0.379962 -0.0522,0.769395 0.0497,1.137108 0.0988,0.356653 0.30418,0.673241 0.51522,0.977242 0.21104,0.304 0.43285,0.605752 0.57152,0.948861 0.0693,0.171554 0.11716,0.352833 0.1288,0.537503 0.0116,0.18467 -0.0137,0.372961 -0.0854,0.543528 -0.0717,0.170568 -0.1911,0.322685 -0.3467,0.422822 -0.1556,0.100137 -0.34781,0.145907 -0.53021,0.114802 -0.0426,-0.0073 -0.0846,-0.01857 -0.12764,-0.02239 -0.043,-0.0038 -0.0883,4.74e-4 -0.12557,0.02239 -0.0297,0.01748 -0.0526,0.04544 -0.0665,0.07699 -0.0139,0.03155 -0.019,0.06656 -0.0176,0.100992 0.003,0.06887 0.031,0.133956 0.0606,0.196211 0.0296,0.06226 0.0615,0.124727 0.0731,0.192692 0.006,0.03398 0.006,0.06912 -0.001,0.102725 -0.008,0.0336 -0.0237,0.06563 -0.0481,0.08998 -0.0244,0.02436 -0.0565,0.04037 -0.0901,0.04797 -0.0336,0.0076 -0.0688,0.0071 -0.10277,0.0013 -0.068,-0.01165 -0.13042,-0.04371 -0.19268,-0.07336 -0.0623,-0.02965 -0.1274,-0.05775 -0.19631,-0.0605 -0.0344,-0.0014 -0.0695,0.0038 -0.10098,0.0178 -0.0315,0.01397 -0.0594,0.03702 -0.0767,0.06683 -0.0217,0.03733 -0.0257,0.08257 -0.0218,0.125575 0.004,0.043 0.0151,0.08498 0.0218,0.127623 0.0272,0.17138 -0.0197,0.350436 -0.11412,0.496028 -0.0944,0.145593 -0.23385,0.25888 -0.38882,0.336949 -0.30993,0.156139 -0.66925,0.172942 -1.01622,0.179811 -0.42194,0.0084 -0.84403,0.0065 -1.266,0 -1.3657,-0.02116 -2.74873,-0.09489 -4.05114,-0.506394 -1.45518,-0.45977 -2.78949,-1.334382 -4.30435,-1.519182 -1.09042,-0.133023 -2.19799,0.103877 -3.29158,0 -0.77555,-0.07367 -1.5232,-0.316553 -2.27875,-0.506394 -2.80012,-0.703561 -5.72261,-0.680958 -8.6087,-0.759589 -2.0336,-0.05541 -4.07144,-0.163733 -6.07673,-0.506394 -1.0124,-0.172998 -2.01624,-0.405656 -3.03836,-0.506394 -1.59685,-0.157381 -3.20619,0.0099 -4.81074,0 -3.13376,-0.01942 -6.31611,-0.710646 -9.36829,0 -0.33893,0.07891 -0.67375,0.174762 -1.01279,0.253195 -2.23174,0.516285 -4.56087,0.263695 -6.83632,0 -2.52897,-0.293075 -5.12015,-0.593481 -7.5959,0 -0.41913,0.100472 -0.83581,0.226713 -1.26599,0.253199 -0.59114,0.03639 -1.19176,-0.116823 -1.77238,0 -0.26198,0.05271 -0.5096,0.158745 -0.75959,0.253195 -1.75543,0.663238 -3.67649,0.766889 -5.54915,0.64622 -1.87266,-0.120668 -3.72452,-0.457124 -5.59151,-0.64622 -2.12449,-0.215176 -4.32549,-0.229822 -6.32992,0.506394 -0.25076,0.0921 -0.49865,0.195996 -0.75959,0.253199 -0.41313,0.09056 -0.84184,0.0645 -1.26406,0.03985 -0.42222,-0.02465 -0.84497,-0.03985 -1.26791,-0.03985 h -7.34271 c -0.50818,0 -1.01602,-0.02295 -1.52284,-0.06015 -0.50682,-0.0372 -1.02595,-0.0761 -1.51553,0.06015 -0.25726,0.0716 -0.49973,0.191696 -0.75959,0.253195 -0.49469,0.117074 -1.01103,0.01443 -1.51918,0 -0.78503,-0.0223 -1.56889,0.170468 -2.27877,0.506394 -0.58343,0.276089 -1.13581,0.652845 -1.77238,0.75959 -0.33398,0.056 -0.67589,0.03426 -1.01279,0 -1.06529,-0.108314 -2.11596,-0.339763 -3.18309,-0.42811 -1.06714,-0.08835 -2.17661,-0.02494 -3.14683,0.42811 -0.17101,0.07985 -0.3364,0.171215 -0.5064,0.253198 -1.39095,0.670803 -3.01116,0.678618 -4.54154,0.472098 -1.53038,-0.20652 -3.0334,-0.612728 -4.57355,-0.725296 -2.02189,-0.147779 -4.06078,0.21417 -6.07672,0 -1.02124,-0.108495 -2.02136,-0.363514 -3.03836,-0.506394 -1.67454,-0.235257 -3.3753,-0.164302 -5.06394,-0.253196 -1.99663,-0.105107 -3.97546,-0.433757 -5.9701,-0.571527 -1.99464,-0.137769 -4.03906,-0.07756 -5.93016,0.571527 -0.2525,0.08667 -0.50184,0.183684 -0.75959,0.253196 -1.14675,0.309262 -2.35834,0.05554 -3.54476,0 -3.05296,-0.142923 -6.07194,1.042762 -9.11509,0.759592 -0.67762,-0.06305 -1.34721,-0.198645 -2.02557,-0.253198 -1.0546,-0.08481 -2.11359,0.02721 -3.16878,0.104368 -1.05519,0.07716 -2.12686,0.118434 -3.16114,-0.104368 -0.34021,-0.07329 -0.67376,-0.174661 -1.01279,-0.253196 -1.31983,-0.30573 -2.69418,-0.259788 -4.04521,-0.159077 -1.35103,0.10071 -2.70568,0.254581 -4.05709,0.159077 -1.44209,-0.101913 -2.8588,-0.486725 -4.30435,-0.506394 -1.269,-0.01727 -2.553031,0.246618 -3.797957,0 -0.341404,-0.06763 -0.674141,-0.172881 -1.012785,-0.253198 -1.732883,-0.410989 -3.543163,-0.157501 -5.317138,0 -2.692413,0.239044 -5.399298,0.251381 -8.102301,0.253198 -1.265984,8.51e-4 -2.531969,0 -3.797954,0 h -9.621483 c -1.857611,0 -3.721402,-0.17937 -5.570333,0 -1.105183,0.107217 -2.187947,0.384069 -3.29156,0.506394 -1.932897,0.214244 -3.902288,-0.04818 -5.823529,0.253196 -1.194292,0.187341 -2.34787,0.589623 -3.544758,0.759592 -2.944926,0.418206 -5.892283,-0.589546 -8.861891,-0.759592 -1.601209,-0.09169 -3.206909,0 -4.810741,0 H 29.877236 17.723785 c -0.659867,0 -1.324996,0.02683 -1.964668,0.188829 -0.639672,0.162002 -1.238871,0.449314 -1.840961,0.719338 -0.301044,0.135013 -0.606469,0.263264 -0.924938,0.349485 -0.318468,0.08622 -0.652695,0.12952 -0.979505,0.08422 -0.326809,-0.0453 -0.647326,-0.185186 -0.870978,-0.427748 -0.111826,-0.121281 -0.19802,-0.267016 -0.24442,-0.425323 -0.0464,-0.158307 -0.05232,-0.329135 -0.01085,-0.488804 0.01104,-0.04252 0.02543,-0.08449 0.0298,-0.128197 0.0022,-0.02185 0.0018,-0.04408 -0.0027,-0.06557 -0.0046,-0.02149 -0.0134,-0.04224 -0.02707,-0.05943 -0.01383,-0.0174 -0.03237,-0.03082 -0.05272,-0.03974 -0.02036,-0.0089 -0.0425,-0.01344 -0.0647,-0.01451 -0.0444,-0.0021 -0.08833,0.0092 -0.130559,0.02311 -0.04223,0.01389 -0.08377,0.03044 -0.127345,0.03924 -0.04357,0.0088 -0.09019,0.0094 -0.13107,-0.0081 -0.02785,-0.0119 -0.05179,-0.03165 -0.07211,-0.05411 -0.02032,-0.02246 -0.0373,-0.04769 -0.05423,-0.0728 -0.01693,-0.02511 -0.03397,-0.05031 -0.05439,-0.07268 -0.02042,-0.02237 -0.04451,-0.04196 -0.07247,-0.05361 -0.0412,-0.01716 -0.08805,-0.01593 -0.1316736,-0.0065 -0.043628,0.0094 -0.085128,0.0266 -0.1274332,0.04083 -0.042306,0.01423 -0.086502,0.02568 -0.1310577,0.023 -0.022278,-0.0013 -0.044458,-0.0063 -0.064668,-0.01573 -0.02021,-0.0095 -0.038406,-0.02357 -0.051561,-0.0416 -0.012832,-0.01758 -0.020636,-0.03853 -0.024292,-0.05999 -0.00366,-0.02146 -0.00328,-0.04346 -7.646e-4,-0.06508 0.00502,-0.04324 0.018448,-0.0851 0.025056,-0.128127 0.014325,-0.09327 -0.00446,-0.190607 -0.048518,-0.27406 C 9.5289105,51.547857 9.4602893,51.478247 9.3797837,51.429012 9.2187727,51.330543 9.0164355,51.315945 8.832158,51.356719 8.6478805,51.397494 8.4788263,51.489209 8.3206212,51.592126 8.1624161,51.695043 8.0121294,51.810271 7.8491047,51.90537 7.349982,52.196527 6.7359307,52.284031 6.175346,52.143886 5.6147613,52.00374 5.1141294,51.637565 4.8107417,51.145781 Z"
       id="path1"
       inkscape:original-d="m 4.8107417,51.145781 c 0,-0.337598 -0.081879,-0.685274 0,-1.012788 0.6191033,-2.476416 0.4544155,0.415824 0.7595907,-2.025576 0.1201671,-0.961337 -0.2340287,-2.10225 0,-3.038364 0.2322766,-0.929106 0.4541401,-2.033646 0.253197,-3.038364 -0.1341467,-0.670732 -0.3868047,-1.308039 -0.506394,-2.025576 -0.2963119,-1.77787 0,-3.767185 0,-5.570331 0,-0.882674 -0.1094158,-1.909839 0,-2.785165 0.1374669,-1.099736 0.3830812,-2.181747 0.506394,-3.29156 0.2082956,-1.87466 0,-3.935235 0,-5.823531 0,-0.633424 0.2766046,-1.978759 0,-2.531969 -2.5966145,-5.193228 0.6062964,3.30477 -1.7723787,-3.038363 -0.1185378,-0.316101 0.047743,-0.678585 0,-1.012788 C 3.8816459,14.764872 3.4115261,13.606308 3.29156,12.406649 c -0.075582,-0.75582 0.1074224,-1.526815 0,-2.278772 C 3.1141254,8.885834 2.3350063,6.9208123 2.7851663,5.5703324 3.1227622,4.5575447 3.0281239,5.621529 3.29156,4.3043477 c 0.050695,-0.2534774 -0.1922121,-1.3269693 0,-1.5191814 0.1790372,-0.1790374 0.5331246,-0.1132332 0.7595907,0 0.075489,0.037744 -0.059679,0.1935179 0,0.2531967 0.4037214,0.4037211 1.0666685,0.5333344 1.5191817,0.759591 0.2909432,0.1454716 1.484404,0 1.7723786,0 1.0614533,0 1.9929967,0.172784 3.038363,0.2531967 1.641282,0.1262526 5.576227,0.2269932 7.089514,0 1.122497,-0.1683745 2.518283,-1.0155248 3.797954,-0.7595907 1.285085,0.2570171 2.461932,0.6434151 3.797954,0.7595907 1.683733,0.1464117 3.390835,0.014182 5.063939,0.253197 1.324972,0.1892819 0.267734,0.1891617 1.265983,0.759591 1.565469,0.8945525 3.557432,1.4945301 5.317136,1.7723783 3.456741,0.5458013 7.144504,0.7245043 10.634271,0.506394 0.347308,-0.021706 0.6683,-0.2039845 1.012787,-0.253197 0.790269,-0.1128953 1.738181,0 2.53197,0 4.696048,0 -2.698564,0.069376 2.785166,-0.253197 0.926788,-0.054517 1.859735,0.074035 2.785168,0 1.888696,-0.1510956 7.942852,-1.27665 9.115089,-1.5191816 1.284399,-0.2657377 2.518116,-1.0831507 3.797953,-1.2659847 0.835507,-0.119358 1.69217,0.08398 2.53197,0 0.934506,-0.09345 1.819627,-0.3911309 2.785166,-0.2531967 3.627657,0.5182365 7.46765,0.2531967 11.140665,0.2531967 6.245523,0 12.491047,0 18.736571,0 3.17096,0 6.45195,-0.2113023 9.62149,0 9.13131,0.6087544 2.58299,0.506394 9.36828,0.506394 3.01633,0 6.86195,-0.3347474 9.87468,0 0.34586,0.038429 0.66653,0.218571 1.01279,0.253197 4.03497,0.4034975 -1.24369,-0.5471414 3.29156,0.253197 0.8476,0.1495777 1.67554,0.4207504 2.53197,0.5063937 3.47938,0.3479384 7.80954,0 11.39386,0 1.80262,0 4.04013,0.3242551 5.82353,0 5.67511,-1.031838 -2.97619,-0.071071 2.53197,-0.7595907 0.66521,-0.083152 1.35913,0.074049 2.02557,0 4.62314,-0.5136819 9.27237,-0.506394 13.92583,-0.506394 1.64279,0 -1.13412,-0.093632 1.26599,0.506394 0.4094,0.1023488 0.85218,-0.08276 1.26598,0 1.9192,0.3838403 0.5723,0.5889434 2.27878,0.7595907 4.43288,0.4432882 8.96364,0.253197 13.41943,0.253197 2.60284,0 5.25099,0.136743 7.84911,0 3.47096,-0.1826824 6.9008,-0.7952709 10.38107,-1.0127877 0.58965,-0.036853 1.18401,0.053488 1.77238,0 1.76669,-0.1606084 3.52284,-0.6474473 5.31714,-0.759591 0.67387,-0.042117 1.35717,0.095487 2.02557,0 1.03966,-0.3465518 1.71152,-0.6402969 2.78517,-0.7595907 1.66821,-0.1853565 3.39246,-0.086049 5.06394,-0.253197 0.71842,-0.071842 1.29044,-0.3757181 2.02557,-0.2531967 2.28376,0.3806267 -0.52694,0.2835619 3.03836,0.5063937 2.09774,0.1311085 4.23545,-0.1745395 6.32993,0 1.98018,0.1650148 3.87028,0.9404435 5.82353,1.2659847 3.7688,0.6281335 7.58043,0.7595907 11.39386,0.7595907 1.09719,0 2.19982,0.1091742 3.29156,0 0.75994,0.1982377 1.33386,-0.4295365 2.02557,-0.5063937 1.09048,-0.1211641 2.19717,0.078171 3.29156,0 3.99166,-0.2851182 -0.10594,-0.1570255 3.03837,-0.506394 2.54897,-0.2832185 5.00512,0.1169157 7.5959,-0.253197 0.64259,-0.091798 1.39655,0.1572609 2.02559,0 0.33759,-0.084399 0.67519,-0.1687978 1.01278,-0.2531967 0.29522,-0.073805 0.46437,-0.4325892 0.75959,-0.506394 0.6867,-0.1716759 4.05934,-0.4192677 4.55755,-0.253197 0.0427,0.014243 0.0175,1.1608684 0,1.2659847 -0.34017,2.0409794 -0.44185,4.0784311 -1.0128,6.0767263 -0.68207,2.387282 -2.29158,4.746715 -1.77236,7.342711 0.92239,4.611953 0.17727,-1.721483 0.75959,1.772378 0.13526,0.811619 -0.0744,1.713502 0,2.53197 0.25204,2.772625 1.07175,5.546046 0.75957,8.355497 -0.14269,1.284277 -0.6023,2.539641 -0.75957,3.797957 -0.24056,1.924343 -0.2532,3.873238 -0.2532,5.823526 0,0.421997 -0.15674,0.874173 0,1.265987 0.65346,1.633701 1.75373,3.254287 2.53195,4.810741 0.27922,0.558385 -0.10231,1.66484 0,2.278771 0.16844,1.010508 0.59894,2.507602 0.25321,3.544758 -0.0267,0.08007 -0.19352,-0.05968 -0.25321,0 -0.17901,0.179039 0.11324,0.533125 0,0.75959 -0.11321,0.226467 -0.53311,-0.113231 -0.75959,0 -0.0755,0.03775 0.0378,0.17771 0,0.253198 -0.20714,0.414327 -1.11226,0.877147 -1.51916,1.012788 -0.3343,0.111432 -0.91622,0 -1.266,0 -1.39732,0 -2.71346,-0.0048 -4.05114,-0.506394 -1.36965,-0.51362 -2.82186,-1.35446 -4.30435,-1.519182 -1.08381,-0.120422 -2.20776,0.120423 -3.29158,0 -4.24566,-0.471741 2.81022,-0.04376 -2.27875,-0.506394 -2.86004,-0.260003 -5.73069,-0.579715 -8.6087,-0.759589 -2.03379,-0.127114 -4.04795,-0.21657 -6.07673,-0.506394 -1.01644,-0.145206 -2.01582,-0.413438 -3.03836,-0.506394 -1.597,-0.145182 -3.20716,0 -4.81074,0 -2.96128,0 -6.46341,-0.322765 -9.36829,0 -0.34586,0.03843 -0.66693,0.214767 -1.01279,0.253195 -2.17418,0.241576 -4.68799,0 -6.83632,0 -2.49571,0 -5.11009,-0.20715 -7.5959,0 -0.42887,0.03574 -0.83712,0.217459 -1.26599,0.253199 -0.58875,0.04906 -1.18451,-0.05879 -1.77238,0 -0.26556,0.02656 -0.49433,0.223723 -0.75959,0.253195 -3.66052,0.406726 -7.46264,-0.216355 -11.14066,0 -2.08164,0.12245 -4.28012,0.213564 -6.32992,0.506394 -0.26421,0.03775 -0.49538,0.215453 -0.75959,0.253199 -0.83551,0.119356 -1.68798,0 -2.53197,0 -2.44757,0 -4.89514,0 -7.34271,0 -1.01279,0 -2.03177,-0.111845 -3.03837,0 -0.26526,0.02947 -0.49633,0.209319 -0.75959,0.253195 -0.4995,0.08325 -1.01788,-0.07161 -1.51918,0 -0.7703,0.110043 -1.52389,0.317672 -2.27877,0.506394 -0.6608,0.165198 -1.14604,0.55081 -1.77238,0.75959 -0.22351,0.0745 -0.81742,0 -1.01279,0 -1.93995,0 -4.44612,-0.313965 -6.32992,0 -0.18616,0.03103 -0.31957,0.22651 -0.5064,0.253198 -2.49529,0.356471 -6.587,-0.04252 -9.11509,-0.253198 -2.0116,-0.167632 -4.06512,0.167635 -6.07672,0 -5.70236,-0.475197 1.33956,-0.01995 -3.03836,-0.506394 -1.69291,-0.1881 -3.36086,-0.131548 -5.06394,-0.253196 -3.89725,-0.278376 -8.00241,-0.556836 -11.90026,0 -0.26421,0.03775 -0.49476,0.220094 -0.75959,0.253196 -1.16389,0.145489 -2.37716,-0.116758 -3.54476,0 -3.01976,0.301977 -6.18866,0.02799 -9.11509,0.759592 -0.68556,0.171392 -1.38659,-0.146701 -2.02557,-0.253198 -2.05027,-0.341709 -4.26209,0.229761 -6.32992,0 -0.34586,-0.03843 -0.66749,-0.210034 -1.01279,-0.253196 -2.65986,-0.332483 -5.43768,0.296069 -8.1023,0 -1.42324,-0.158139 -2.85795,-0.403079 -4.30435,-0.506394 -1.23186,-0.08799 -2.571087,0.175268 -3.797957,0 -0.344488,-0.04921 -0.667488,-0.210034 -1.012785,-0.253198 -1.710405,-0.213799 -3.58434,0 -5.317138,0 -2.685786,0 -5.47936,-0.18396 -8.102301,0.253198 -1.174253,0.19571 -2.629244,0 -3.797954,0 -3.20716,0 -6.414323,0 -9.621483,0 -1.826469,0 -3.755022,-0.18153 -5.570333,0 -1.09274,0.109273 -2.189165,0.406175 -3.29156,0.506394 -1.918573,0.174416 -3.909219,0.04049 -5.823529,0.253196 -1.198944,0.133218 -2.357372,0.589965 -3.544758,0.759592 -3.005722,0.42939 -5.926143,-0.492704 -8.861891,-0.759592 -1.526751,-0.138795 -3.29702,0 -4.810741,0 -2.700769,0 -5.401535,0 -8.102304,0 -4.051149,0 -8.1023,0 -12.153451,0 -1.000459,0 -5.961878,0.291481 -6.836317,0 -0.08007,-0.02669 0.05968,-0.193516 0,-0.253196 -0.119358,-0.119359 -0.355417,0.07549 -0.506394,0 -0.106757,-0.05338 -0.139964,-0.215453 -0.253197,-0.253198 -0.1601358,-0.05338 -0.3554163,0.07549 -0.5063936,0 -0.075489,-0.03774 0.075488,-0.21545 0,-0.253196 -0.3843851,-0.192193 -1.3687219,0.06728 -1.7723787,0 -1.057698,-0.176284 -2.0257968,-0.354565 -3.038363,-0.759589 z"
       inkscape:path-effect="#path-effect1" />
    <path
       d="m 299.66308,114.4017 q -2.816,-0.352 -3.168,-0.46934 -0.11733,-0.0587 -0.352,-0.0587 -0.46933,0 -1.34933,0.88 -0.88001,0.93866 -0.88001,1.99466 v 0.52801 q 0.0587,1.056 0.23467,1.34933 0.23467,0.352 1.11467,0.82133 1.584,0.93867 3.696,0.93867 0.76267,0 0.93867,-0.23467 0.176,-0.29333 1.408,-0.29333 1.17333,0 1.34933,-0.29333 0.23467,-0.29334 1.52534,-0.64534 1.29066,-0.352 1.81866,-1.408 0.352,-0.76267 0.352,-0.99733 0,-0.176 -0.41066,-0.46934 -1.64267,-1.232 -6.27734,-1.64266 z m 0.704,-24.75735 q -1.232,-0.352 -3.57867,-0.352 -1.81866,0 -2.34666,0.410667 -0.52801,0.410667 -1.23201,2.288001 -0.46933,1.114667 -0.46933,1.466668 0,0.528 1.408,2.288001 0.46934,0.586667 0.99734,0.762667 0.528,0.117333 2.64,0.234667 l 2.93333,0.176 0.704,-1.584001 q 0.64534,-1.349334 0.64534,-2.640001 0,-0.117334 -0.0587,-0.410667 0,-0.293334 0,-0.469334 l -0.176,-1.818668 z m -6.336,-8.213338 q 0.41067,-0.05867 1.584,-0.05867 5.632,0 7.80267,0.645333 0.58667,0.176001 1.76,0.176001 1.64267,0 3.81334,-0.234667 0.528,-0.05867 0.76266,0.704 0.23467,0.704001 1.81867,3.520002 1.34934,2.405335 1.34934,2.992002 0,0.117333 -0.0587,0.176 -0.23467,0.234667 -1.52534,0.469333 l -1.232,0.176 v 2.464002 q 0,3.872002 -1.52533,6.981337 -1.29067,2.640001 -4.048,4.458671 -1.87734,1.232 -3.52,1.232 -1.23201,0 -2.87467,-0.23467 -1.056,-0.11733 -1.29067,-0.11733 -0.58667,0 -0.82133,0.23467 -0.176,0.41066 -0.0587,0.528 0.528,0.528 4.576,0.82133 2.288,0.23467 5.22134,1.056 2.93333,0.82133 4.4,1.70133 1.46667,0.82134 1.81867,0.82134 h 0.0587 q 0.0587,-0.0587 0.11734,0.11733 0.0587,0.11733 0.0587,0.46933 0,0.82134 0.58667,0.82134 0.58667,0 1.232,1.46667 0.64534,1.52533 0.82134,3.40266 0.0587,0.41067 0.0587,1.05601 0,1.056 -0.64533,2.288 -0.704,1.34933 -0.82133,2.22933 -0.11734,1.056 -0.58667,1.76 l -0.46934,0.82134 h -12.496 q -8.80001,0 -10.67734,-0.0587 -1.87734,-0.0587 -2.17067,-0.46933 -0.82133,-0.93867 -1.056,-1.99467 -0.23467,-1.056 -0.23467,-3.98934 0,-3.22667 0.29334,-4.51733 0.352,-1.232 1.46666,-2.64 0.70401,-0.93867 0.70401,-1.52534 0,-0.41067 -0.176,-1.52533 -0.17601,-1.056 -0.17601,-2.112 0,-0.58667 0.11734,-1.99467 l 0.352,-2.22934 -1.11467,-1.232 q -2.22933,-2.405332 -2.464,-5.866667 v -0.586667 q 0,-2.640002 1.408,-5.808003 1.408,-3.226669 2.816,-4.341336 2.112,-1.760001 5.04534,-2.053335 z m 34.96538,5.984004 q 0.176,-0.176 0.352,-0.176 0.82134,0 0.82134,2.346668 0,0.762667 -0.176,1.466667 -0.41067,1.349334 -0.41067,4.165336 0,2.640001 0.82133,5.045333 0.704,2.05334 0.704,3.40267 0,1.17334 -0.0587,1.99467 -0.11734,2.112 -0.11734,2.22933 0,1.11467 0.46934,1.408 0.41066,0.41067 2.22933,0.704 1.81867,0.29334 3.40267,0.29334 0.704,0 1.29067,-0.11734 1.11466,-0.29333 1.46666,-0.64533 0.41067,-0.41067 0.41067,-1.408 0,-0.88 -0.0587,-1.46667 -0.11733,-1.17333 -0.58666,-4.16533 -0.46934,-2.992004 -0.46934,-4.752005 0,-1.994668 0.41067,-5.808003 0.41067,-3.813336 0.704,-4.282669 0.0587,-0.176001 0.352,-0.176001 0.352,0 3.52,1.056001 l 3.63734,1.232001 -0.0587,1.173334 q 0,0.176 -0.11733,1.877334 -0.0587,1.642668 -0.176,2.757335 -0.176,1.760001 -0.176,2.816001 0,1.232001 0.23467,1.994672 0.88,3.344 0.88,11.55734 0,3.344 -0.29334,3.344 -0.11733,0 -0.176,-0.23467 l -0.29333,-0.704 -0.99734,0.76267 q -1.17333,0.82133 -1.29066,0.82133 -0.176,0 -1.29067,0.76267 -2.34667,1.584 -6.98134,1.584 -1.46666,0 -2.288,-0.0587 -4.28267,-0.23466 -5.33867,-0.528 -2.34667,-0.64533 -4.10667,-2.992 -2.64,-3.63733 -2.64,-6.74667 0,-0.93867 0.176,-1.99467 0.11734,-1.408 0.11734,-1.76 0,-1.056 -0.41067,-2.34667 -1.17334,-3.578665 -1.17334,-6.864 0,-1.232001 0.0587,-1.936001 0.23467,-3.285335 0.41067,-3.813336 0.23466,-0.528 1.29067,-0.528 1.11466,0 1.76,-0.645334 0.528,-0.528 1.64266,-0.528 h 0.64534 0.704 q 1.056,0 1.17333,-0.117333 z m 25.696,-5.33867 -0.23466,-4.048002 2.69866,0.176 q 2.81601,0.234667 4.10667,0.410667 l 1.408,0.176 v 2.405335 q 0,3.637335 1.11467,5.632003 h 0.0587 q 0.41067,0 2.22933,-0.410667 1.584,-0.410667 3.344,-0.410667 3.98934,0 7.27468,2.112001 1.52533,0.997334 2.22933,2.640002 0.76267,1.584 1.17333,5.162669 0.64534,4.458673 1.11467,6.688003 0.64533,3.05067 0.64533,7.50934 0,2.816 -0.23466,4.69333 l -0.29334,2.05334 -3.93066,-0.11734 -3.98934,-0.0587 0.0587,-1.70134 q 0,-1.87733 0.29333,-4.51733 0.0587,-0.64534 0.0587,-1.81867 0,-1.70133 -0.176,-2.58133 -1.232,-6.277341 -1.584,-8.976009 -0.29334,-2.170668 -0.704,-2.522668 -0.352,-0.410667 -2.17067,-0.410667 -1.29067,0 -3.696,1.232001 -1.70134,0.88 -2.11201,1.232 -0.352,0.352001 -0.352,0.997334 0,0.938667 -0.528,3.167999 -0.29333,1.584 -0.29333,2.22934 0,0.704 0.176,1.29066 0.23467,0.99734 0.46933,7.50934 l 0.176,6.21867 h -7.744 l -0.41067,-1.408 q -0.176,-0.88 -0.176,-2.17067 0,-0.528 0.11734,-2.992 0.11733,-1.17333 0.11733,-2.75733 0,-1.34934 -0.352,-2.69867 -0.41067,-1.46667 -0.41067,-3.81334 0,-1.99466 0.29334,-3.050665 0.41066,-1.642667 0.41066,-9.856005 0,-4.341336 -0.176,-7.216004 z m 34.78932,-3.930669 q 0.528,-0.938667 0.93866,-0.938667 0.23467,0 0.41067,0.293334 0.176,0.293333 3.344,0.293333 h 3.168 v 2.464002 q 0,4.634669 1.232,5.749336 0.58667,0.528 1.17334,0.528 0.528,0 1.46666,-0.469333 0.70401,-0.352001 1.76001,-0.352001 1.87733,0 3.05066,0.821334 1.87734,1.290668 1.87734,4.693336 0,1.584001 -0.29333,1.936001 -0.23467,0.352 -1.46667,0.352 -0.82134,0 -1.99467,0.645334 -1.056,0.528 -2.75733,0.528 h -1.11467 -1.11467 q -1.52533,0 -2.05333,0.645334 -0.352,0.410667 -0.352,1.173334 0,0.05867 0.23466,2.405335 0.176,1.056 0.46934,6.864001 0.11733,3.93067 0.352,4.63467 0.29333,0.64534 1.936,0.64534 h 1.11466 2.81601 v 8.15467 h -3.10934 q -2.992,0 -4.51733,-0.23467 -2.11201,-0.352 -3.69601,-2.112 -1.584,-1.70134 -2.464,-4.51734 -0.29333,-1.11466 -0.704,-6.04267 -0.352,-4.98667 -0.41067,-9.738669 -0.11733,-2.581335 -0.41066,-2.816002 -0.41067,-0.234667 -0.41067,-4.165335 v -3.930669 h 0.88 q 0.64534,0 0.76267,-0.117334 0.11733,-0.176 0,-0.88 -0.352,-1.642668 -0.46933,-1.994668 -0.23467,-0.88 -0.23467,-1.994668 0,-1.584 0.58667,-2.522668 z m 47.22667,6.453337 q 1.64267,-0.352 4.224,-0.352 3.81334,0 7.62667,0.645334 3.87201,0.645333 4.86934,1.584001 0.23467,0.176 0.23467,0.410666 0,0.410667 -2.46401,2.874669 -2.40533,2.405334 -2.40533,2.874668 0,0.176 0.0587,0.234667 0.11733,0.117333 0.11733,0.234666 0,0.117334 -0.352,0.117334 -0.29333,0 -3.05067,-0.469334 -2.75733,-0.469333 -4.51733,-0.469333 -1.34934,0 -2.22934,0.234667 -1.99467,0.469333 -1.99467,1.114667 0,0.469333 0.23467,0.997334 0.352,0.938667 0.99733,1.232 0.704,0.293334 2.52267,0.352001 1.34934,0.05867 3.872,0.704 2.52267,0.645334 3.46134,1.232001 3.98934,2.346668 4.98667,3.930668 0.99733,1.584 1.056,5.632 v 1.11467 q 0,1.70133 -0.93867,3.344 -1.584,2.64 -2.87467,3.696 -1.29066,1.05601 -3.168,1.34934 -1.584,0.23467 -2.816,0.82133 -1.584,0.64534 -4.224,0.64534 -3.22667,0 -6.336,-0.88 l -1.76001,-0.528 0.11734,-2.22934 q 0.23466,-2.22933 0.352,-2.34667 0.176,-0.176 0.176,-1.52533 0,-1.34934 0.41067,-1.52534 h 0.23466 q 1.11467,0 3.40267,0.352 2.22933,0.29334 3.10934,0.29334 0.352,0 0.352,-0.0587 0.29333,-0.88 0.76266,-0.88 0.29334,0 0.704,0.176 0.704,0.23467 0.99734,0.23467 0.176,0 1.232,-0.23467 1.34933,-0.41067 1.70133,-0.704 0.41067,-0.352 0.41067,-1.232 0,-0.99733 -0.93867,-1.76 -1.232,-0.99733 -6.62934,-1.70134 -2.58133,-0.352 -3.696,-0.704 -1.056,-0.41066 -2.112,-1.34933 -3.57867,-3.226668 -3.57867,-8.624004 0,-4.224003 2.17067,-6.101337 2.34667,-1.994668 5.69067,-2.757335 z m 24.93334,-6.453337 q 0.528,-0.938667 0.93866,-0.938667 0.23467,0 0.41067,0.293334 0.176,0.293333 3.344,0.293333 h 3.168 v 2.464002 q 0,4.634669 1.232,5.749336 0.58667,0.528 1.17334,0.528 0.528,0 1.46667,-0.469333 0.704,-0.352001 1.76,-0.352001 1.87733,0 3.05067,0.821334 1.87733,1.290668 1.87733,4.693336 0,1.584001 -0.29333,1.936001 -0.23467,0.352 -1.46667,0.352 -0.82133,0 -1.99467,0.645334 -1.056,0.528 -2.75733,0.528 h -1.11467 -1.11467 q -1.52533,0 -2.05333,0.645334 -0.352,0.410667 -0.352,1.173334 0,0.05867 0.23466,2.405335 0.176,1.056 0.46934,6.864001 0.11733,3.93067 0.352,4.63467 0.29333,0.64534 1.936,0.64534 h 1.11467 2.816 v 8.15467 h -3.10934 q -2.992,0 -4.51733,-0.23467 -2.112,-0.352 -3.69601,-2.112 -1.584,-1.70134 -2.464,-4.51734 -0.29333,-1.11466 -0.704,-6.04267 -0.352,-4.98667 -0.41066,-9.738669 -0.11734,-2.581335 -0.41067,-2.816002 -0.41067,-0.234667 -0.41067,-4.165335 v -3.930669 h 0.88 q 0.64534,0 0.76267,-0.117334 0.11733,-0.176 0,-0.88 -0.352,-1.642668 -0.46933,-1.994668 -0.23467,-0.88 -0.23467,-1.994668 0,-1.584 0.58667,-2.522668 z m 32.32533,9.269339 q 0.176,-0.176 0.352,-0.176 0.82133,0 0.82133,2.346668 0,0.762667 -0.176,1.466667 -0.41067,1.349334 -0.41067,4.165336 0,2.640001 0.82134,5.045333 0.704,2.05334 0.704,3.40267 0,1.17334 -0.0587,1.99467 -0.11733,2.112 -0.11733,2.22933 0,1.11467 0.46933,1.408 0.41067,0.41067 2.22933,0.704 1.81867,0.29334 3.40267,0.29334 0.704,0 1.29067,-0.11734 1.11467,-0.29333 1.46667,-0.64533 0.41066,-0.41067 0.41066,-1.408 0,-0.88 -0.0587,-1.46667 -0.11734,-1.17333 -0.58667,-4.16533 -0.46933,-2.992004 -0.46933,-4.752005 0,-1.994668 0.41066,-5.808003 0.41067,-3.813336 0.704,-4.282669 0.0587,-0.176001 0.35201,-0.176001 0.352,0 3.52,1.056001 l 3.63733,1.232001 -0.0587,1.173334 q 0,0.176 -0.11734,1.877334 -0.0587,1.642668 -0.176,2.757335 -0.176,1.760001 -0.176,2.816001 0,1.232001 0.23467,1.994672 0.88,3.344 0.88,11.55734 0,3.344 -0.29333,3.344 -0.11734,0 -0.176,-0.23467 l -0.29334,-0.704 -0.99733,0.76267 q -1.17334,0.82133 -1.29067,0.82133 -0.176,0 -1.29067,0.76267 -2.34666,1.584 -6.98133,1.584 -1.46667,0 -2.288,-0.0587 -4.28267,-0.23466 -5.33867,-0.528 -2.34667,-0.64533 -4.10667,-2.992 -2.64,-3.63733 -2.64,-6.74667 0,-0.93867 0.176,-1.99467 0.11733,-1.408 0.11733,-1.76 0,-1.056 -0.41067,-2.34667 -1.17333,-3.578665 -1.17333,-6.864 0,-1.232001 0.0587,-1.936001 0.23467,-3.285335 0.41067,-3.813336 0.23467,-0.528 1.29067,-0.528 1.11467,0 1.76,-0.645334 0.528,-0.528 1.64267,-0.528 h 0.64533 0.704 q 1.056,0 1.17334,-0.117333 z m 38.54401,-1.173334 q 1.76,-0.469334 2.34667,-0.469334 0.58666,0 0.76266,0.469334 0.23467,0.469333 0.528,1.877334 0,0.176 0,0.293334 0.0587,0.117333 0.0587,0.293333 0.0587,0.176 0.11733,0.352 0.64534,3.402669 0.82134,3.872002 0.0587,0.234667 -0.23467,0.410667 -0.29333,0.176 -1.17333,0.410667 -1.76,0.469334 -3.87201,1.936001 -2.816,1.818668 -3.57866,2.112001 -1.17334,0.528001 -1.17334,0.997334 0,0.234667 0.0587,0.410667 0.29333,1.525338 0.58667,11.205338 l 0.23466,7.62667 h -8.272 l -0.0587,-5.22133 q -0.11733,-8.09601 -0.352,-11.73334 -0.0587,-0.82134 -0.0587,-2.640005 0,-1.877334 0.176,-3.226668 0.176,-1.232001 0.176,-2.112002 0,-1.056 -0.23466,-1.936001 -0.176,-0.762667 -0.176,-1.173334 0,-0.645333 0.64533,-1.056 0.704,-0.410667 3.05067,-1.232001 3.10933,-1.114667 3.52,-1.114667 0.46933,0 0.704,0.938667 0.23467,0.880001 0.64534,0.880001 0.352,0 1.584,-0.880001 0.99733,-0.762667 3.168,-1.290667 z m 12.37864,-8.096005 q 0.528,-0.938667 0.93867,-0.938667 0.23467,0 0.41067,0.293334 0.176,0.293333 3.344,0.293333 h 3.168 v 2.464002 q 0,4.634669 1.232,5.749336 0.58667,0.528 1.17333,0.528 0.528,0 1.46667,-0.469333 0.704,-0.352001 1.76,-0.352001 1.87734,0 3.05067,0.821334 1.87734,1.290668 1.87734,4.693336 0,1.584001 -0.29334,1.936001 -0.23466,0.352 -1.46667,0.352 -0.82133,0 -1.99466,0.645334 -1.056,0.528 -2.75734,0.528 h -1.11467 -1.11466 q -1.52534,0 -2.05334,0.645334 -0.352,0.410667 -0.352,1.173334 0,0.05867 0.23467,2.405335 0.176,1.056 0.46933,6.864001 0.11734,3.93067 0.352,4.63467 0.29334,0.64534 1.936,0.64534 h 1.11467 2.816 v 8.15467 h -3.10933 q -2.992,0 -4.51734,-0.23467 -2.112,-0.352 -3.696,-2.112 -1.584,-1.70134 -2.464,-4.51734 -0.29333,-1.11466 -0.704,-6.04267 -0.352,-4.98667 -0.41067,-9.738669 -0.11733,-2.581335 -0.41066,-2.816002 -0.41067,-0.234667 -0.41067,-4.165335 v -3.930669 h 0.88 q 0.64533,0 0.76267,-0.117334 0.11733,-0.176 0,-0.88 -0.352,-1.642668 -0.46934,-1.994668 -0.23466,-0.88 -0.23466,-1.994668 0,-1.584 0.58666,-2.522668 z m 40.59734,17.189343 q -0.64534,-0.586667 -1.87734,-0.586667 -1.99467,0 -3.81333,1.525334 -0.88,0.762667 -1.232,2.288001 l -0.29334,1.642672 0.99734,0.176 q 0.29333,0.0587 1.87733,0.0587 6.21867,0 6.57067,-0.352 0.0587,-0.0587 0.0587,-0.117331 0,-0.528 -0.93867,-2.405334 -0.88,-1.877335 -1.34933,-2.229335 z m -6.04267,-8.037338 q 2.05333,-0.645333 4.34133,-0.645333 2.52267,0 4.34134,0.762667 3.75467,1.760001 5.51467,5.221336 1.11466,2.288001 1.29066,3.285335 0.23467,1.232001 0.58667,1.818668 0.352,0.762667 0.64533,2.522665 0.35201,1.76 0.35201,2.992 0,0.58667 -0.0587,0.76267 -0.176,0.88 -1.11467,2.05334 -0.88,1.11466 -1.70133,1.408 -1.34934,0.528 -5.28001,0.704 -3.872,0.176 -7.04,0.23466 -3.168,0 -3.168,0.176 0,1.46667 1.584,2.46401 0.99733,0.64533 4.63467,0.93866 1.936,0.23467 2.992,0.23467 0.93867,0 2.34667,-0.528 1.52533,-0.58667 2.58133,-0.58667 0.88,0 2.112,0.528 l 1.232,0.58667 -0.11733,1.76 q -0.41067,4.98667 -0.88,5.33867 -0.704,0.82133 -8.03734,0.82133 -3.696,0 -6.16,-0.352 -2.34667,-0.29333 -4.752,-1.64266 -2.34667,-1.34934 -3.40267,-2.93334 -2.69867,-4.224 -2.69867,-9.21067 0,-1.34933 0.0587,-2.05334 0.352,-4.458664 1.29066,-7.567999 1.70134,-5.69067 4.98667,-7.626671 1.232,-0.645334 3.52001,-1.466668 z m 41.53602,7.861338 q -0.704,-0.352 -4.048,-0.352 -1.81867,0 -2.17067,0.176 -1.81867,0.821334 -2.992,4.165335 -0.76267,2.053335 -0.76267,6.160005 0,2.87467 0.0587,3.57867 0.11733,0.704 0.704,1.584 l 0.82133,1.29067 2.40534,-0.176 q 2.87466,-0.23467 4.63467,-0.82134 l 2.112,-0.76267 -0.0587,-2.992 q -0.0587,-0.93866 -0.11733,-3.872 -0.0587,-2.93333 -0.0587,-3.461334 -0.0587,-4.282669 -0.528,-4.517336 z m 4.51734,-17.306676 q 2.93333,-0.880001 3.75466,-0.880001 0.46934,0 0.64534,0.410667 0.41066,1.056001 0.41066,10.266673 0,5.104002 -0.23466,6.512003 -0.82134,4.106669 -0.82134,5.808003 0,1.114671 0.29334,2.464001 0.528,2.22934 0.528,7.62667 0,3.872 -0.352,5.33867 l -0.352,1.70134 h -1.81867 q -1.70133,0 -2.87467,0.528 -2.22933,0.93866 -5.74933,1.52533 -3.46134,0.64533 -6.21867,0.64533 -1.99467,0 -2.81601,-0.29333 -1.46666,-0.46933 -3.168,-2.34667 -1.70133,-1.81867 -2.75733,-3.98933 -0.46934,-0.99734 -0.58667,-1.232 -0.11733,-0.23467 -0.352,-0.88 -0.176,-0.64534 -0.23467,-1.11467 0,-0.528 0,-1.34934 0,-1.52533 0.176,-5.104 0.29334,-6.160002 2.64,-10.442671 0.82134,-1.408001 2.52267,-3.050669 1.76,-1.642667 3.05067,-2.229334 2.58134,-1.114667 5.92534,-1.114667 1.64267,0 4.34133,0.410667 l 0.93867,0.176 -0.23467,-1.642668 q -0.11733,-1.056 -0.11733,-2.405335 0,-1.232 0.0587,-1.760001 l 0.176,-2.640001 z m 44.76268,8.976005 q 0.704,-0.469334 1.70133,-0.469334 0.58667,0 0.99734,0.05867 1.232,0.117333 1.70133,0.352 0.528,0.176 1.29067,0.938667 1.17333,1.114667 2.112,2.874668 0.93867,1.701335 1.17333,3.050669 0.704,3.813335 2.52267,8.682674 0.58667,1.52533 0.704,1.52533 0.11733,0 0.11733,-0.64533 0,-1.11467 0.58667,-2.40534 0.528,-1.173331 1.87734,-4.869333 1.34933,-3.754669 1.87733,-6.21867 0.41067,-1.936001 0.58667,-2.112001 h 0.0587 q 0.46934,0 3.69601,1.349334 2.992,1.290667 3.344,1.818668 0.23466,0.352 0.23466,0.762667 0,0.704 -0.93866,3.226668 -2.05334,5.632007 -2.64,7.626667 -0.58667,1.99467 -0.704,3.98934 -0.11734,1.52533 -0.82134,4.51734 -0.704,2.992 -0.704,3.05066 -0.23467,1.34934 -0.88,2.58134 -0.58667,1.29067 -1.29067,1.70133 -0.76266,0.528 -5.104,1.17334 -0.0587,0 -0.23467,0 -0.176,0.0587 -0.29333,0.0587 -1.056,0 -2.112,-0.528 -0.99733,-0.528 -1.46667,-1.29066 -1.46667,-2.69867 -1.46667,-4.22401 0,-1.34933 -1.29066,-5.92533 -1.29067,-4.57601 -1.70134,-4.57601 -0.352,0 -1.52533,2.87467 -0.352,1.056 -0.64533,3.344 -0.41067,4.28267 -0.88001,5.92534 -0.41066,1.70133 -1.29066,2.64 -0.76267,0.88 -1.70134,1.17334 -0.93866,0.29333 -3.10933,0.46933 -0.58667,0.0587 -1.52534,0.0587 -2.22933,0 -3.28533,-0.93867 -1.056,-0.93867 -2.05334,-3.63734 -0.76266,-2.22933 -0.88,-4.45867 0,-1.81866 -0.41066,-2.64 -0.93867,-1.87733 -1.34934,-5.51467 -0.176,-2.229331 -1.232,-4.575999 -1.70133,-4.106669 -1.99467,-6.629337 l -0.23466,-1.701334 h 8.15467 l 0.23467,1.408001 q 0.23466,1.466667 0.41066,1.760001 0.64534,0.821334 1.408,3.285335 0.82134,2.405335 0.99734,3.989335 0.58666,4.282668 1.11466,4.282668 0.41067,0 1.58401,-3.168 1.232,-3.168002 1.52533,-4.928003 0.29333,-1.466667 1.11467,-4.224002 0.88,-2.757335 1.34933,-3.637336 0.29333,-0.528 1.29067,-1.232 z m 31.32799,-5.51467 -0.23467,-2.933335 h 8.21334 v 2.229335 q 0,2.229334 -0.528,3.050668 l -0.58666,0.938667 -3.28534,-0.117333 -3.344,-0.117334 z m 0.352,7.685338 q 0.29334,0 3.52,0.469333 3.28534,0.410667 3.57867,0.410667 0.23467,0 0.23467,2.405335 v 0.88 1.760001 q 0,2.405335 0.11733,6.160007 0.11734,2.816 0.11734,3.75467 0,1.936 -0.176,3.05066 -0.23467,1.76 -0.23467,2.87467 0,1.29067 0.176,3.10934 0.23467,3.05067 0.23467,3.63733 0,0.41067 -0.0587,0.46934 h -0.11733 q -0.64534,0 -3.87201,-0.64534 -2.17066,-0.46933 -3.40266,-0.46933 -0.35201,0 -0.35201,0.0587 0,0.29333 -0.176,0.11733 -0.528,-0.528 -0.528,-6.57067 0,-2.40534 0.176,-3.75467 0.23467,-1.46667 0.23467,-3.52 0,-1.64267 -0.0587,-2.464 -0.29333,-4.634673 -0.29333,-6.570674 v -2.229334 l 0.0587,-2.933335 z m 31.91468,6.160003 q -0.704,-0.352 -4.048,-0.352 -1.81867,0 -2.17067,0.176 -1.81866,0.821334 -2.992,4.165335 -0.76266,2.053335 -0.76266,6.160005 0,2.87467 0.0587,3.57867 0.11734,0.704 0.704,1.584 l 0.82134,1.29067 2.40533,-0.176 q 2.87467,-0.23467 4.63467,-0.82134 l 2.112,-0.76267 -0.0587,-2.992 q -0.0587,-0.93866 -0.11734,-3.872 -0.0587,-2.93333 -0.0587,-3.461334 -0.0587,-4.282669 -0.52801,-4.517336 z m 4.51734,-17.306676 q 2.93334,-0.880001 3.75467,-0.880001 0.46933,0 0.64533,0.410667 0.41067,1.056001 0.41067,10.266673 0,5.104002 -0.23467,6.512003 -0.82133,4.106669 -0.82133,5.808003 0,1.114671 0.29333,2.464001 0.528,2.22934 0.528,7.62667 0,3.872 -0.352,5.33867 l -0.352,1.70134 h -1.81867 q -1.70133,0 -2.87466,0.528 -2.22934,0.93866 -5.74934,1.52533 -3.46133,0.64533 -6.21867,0.64533 -1.99467,0 -2.816,-0.29333 -1.46667,-0.46933 -3.168,-2.34667 -1.70134,-1.81867 -2.75734,-3.98933 -0.46933,-0.99734 -0.58666,-1.232 -0.11734,-0.23467 -0.35201,-0.88 -0.176,-0.64534 -0.23466,-1.11467 0,-0.528 0,-1.34934 0,-1.52533 0.176,-5.104 0.29333,-6.160002 2.64,-10.442671 0.82133,-1.408001 2.52267,-3.050669 1.76,-1.642667 3.05067,-2.229334 2.58133,-1.114667 5.92533,-1.114667 1.64267,0 4.34134,0.410667 l 0.93867,0.176 -0.23467,-1.642668 q -0.11733,-1.056 -0.11733,-2.405335 0,-1.232 0.0587,-1.760001 l 0.176,-2.640001 z m 42.35735,17.658676 q -0.58667,-0.293333 -2.75734,-0.528 -0.41066,-0.05867 -1.11466,-0.05867 -1.11467,0 -2.52267,0.586667 l -1.70134,0.704001 v 7.743999 q 0.0587,7.74401 0.46934,8.03734 0.41066,0.29334 3.168,0.29334 2.816,0 3.81333,-0.58667 1.05601,-0.58667 2.17067,-2.75734 1.11467,-2.22933 1.11467,-3.63733 0,-0.176 -0.0587,-0.704 0,-0.528 0,-0.82134 -0.11733,-2.87466 -0.88,-5.338665 -0.76266,-2.464001 -1.70133,-2.933335 z M 763.83383,78.908344 q 0.23467,-1.408 0.58667,-1.408 0.41066,0 3.696,1.114667 3.344,1.056001 3.57867,1.290667 0.11733,0.117334 0.46933,3.344002 0.41067,3.226669 0.46933,3.344002 0.23467,0.293333 1.64267,0.117333 0.29333,-0.05867 1.232,-0.05867 1.70134,0 3.344,0.176 8.15468,0.88 10.26668,6.688003 0.82133,2.229335 1.17333,2.757335 1.11467,1.818668 1.11467,8.506673 0,2.17067 -0.23467,3.28533 -0.41067,2.34667 -2.34667,5.74934 -1.936,3.46134 -3.28533,4.45867 -1.408,0.99733 -3.872,1.408 -2.40534,0.41067 -7.56801,0.528 -1.936,0.0587 -4.28267,0.0587 -2.34667,0 -3.168,-0.528 -0.93867,-0.64534 -1.52533,-1.87734 -0.41067,-0.82133 -0.528,-3.10933 -0.0587,-2.22934 -0.176,-13.20001 -0.0587,-16.485342 -0.58667,-19.888011 -0.11733,-0.704 -0.11733,-1.408 0,-0.645334 0.11733,-1.349335 z m 49.74944,16.426676 q -0.64534,-0.586667 -1.87734,-0.586667 -1.99467,0 -3.81333,1.525334 -0.88,0.762667 -1.232,2.288001 l -0.29334,1.642672 0.99734,0.176 q 0.29333,0.0587 1.87733,0.0587 6.21867,0 6.57067,-0.352 0.0587,-0.0587 0.0587,-0.117331 0,-0.528 -0.93867,-2.405334 -0.88,-1.877335 -1.34933,-2.229335 z m -6.04267,-8.037338 q 2.05333,-0.645333 4.34133,-0.645333 2.52267,0 4.34134,0.762667 3.75467,1.760001 5.51467,5.221336 1.11467,2.288001 1.29067,3.285335 0.23466,1.232001 0.58666,1.818668 0.352,0.762667 0.64534,2.522665 0.352,1.76 0.352,2.992 0,0.58667 -0.0587,0.76267 -0.176,0.88 -1.11467,2.05334 -0.88,1.11466 -1.70133,1.408 -1.34934,0.528 -5.28001,0.704 -3.872,0.176 -7.04,0.23466 -3.168,0 -3.168,0.176 0,1.46667 1.584,2.46401 0.99733,0.64533 4.63467,0.93866 1.936,0.23467 2.992,0.23467 0.93867,0 2.34667,-0.528 1.52533,-0.58667 2.58133,-0.58667 0.88,0 2.112,0.528 l 1.23201,0.58667 -0.11734,1.76 q -0.41066,4.98667 -0.88,5.33867 -0.704,0.82133 -8.03734,0.82133 -3.696,0 -6.16,-0.352 -2.34667,-0.29333 -4.752,-1.64266 -2.34667,-1.34934 -3.40267,-2.93334 -2.69867,-4.224 -2.69867,-9.21067 0,-1.34933 0.0587,-2.05334 0.352,-4.458664 1.29067,-7.567999 1.70133,-5.69067 4.98666,-7.626671 1.23201,-0.645334 3.52001,-1.466668 z m 24.75731,-9.152005 q 0.528,-0.938667 0.93867,-0.938667 0.23467,0 0.41067,0.293334 0.176,0.293333 3.344,0.293333 h 3.168 v 2.464002 q 0,4.634669 1.232,5.749336 0.58667,0.528 1.17334,0.528 0.528,0 1.46666,-0.469333 0.704,-0.352001 1.76001,-0.352001 1.87733,0 3.05066,0.821334 1.87734,1.290668 1.87734,4.693336 0,1.584001 -0.29334,1.936001 -0.23466,0.352 -1.46666,0.352 -0.82134,0 -1.99467,0.645334 -1.056,0.528 -2.75734,0.528 h -1.11466 -1.11467 q -1.52533,0 -2.05333,0.645334 -0.352,0.410667 -0.352,1.173334 0,0.05867 0.23466,2.405335 0.176,1.056 0.46934,6.864001 0.11733,3.93067 0.352,4.63467 0.29333,0.64534 1.936,0.64534 h 1.11466 2.81601 v 8.15467 h -3.10934 q -2.992,0 -4.51734,-0.23467 -2.112,-0.352 -3.696,-2.112 -1.584,-1.70134 -2.464,-4.51734 -0.29333,-1.11466 -0.704,-6.04267 -0.352,-4.98667 -0.41067,-9.738669 -0.11733,-2.581335 -0.41066,-2.816002 -0.41067,-0.234667 -0.41067,-4.165335 v -3.930669 h 0.88 q 0.64533,0 0.76267,-0.117334 0.11733,-0.176 0,-0.88 -0.352,-1.642668 -0.46934,-1.994668 -0.23466,-0.88 -0.23466,-1.994668 0,-1.584 0.58666,-2.522668 z m 34.84803,8.858672 q 2.05334,-0.704001 4.048,-0.704001 1.232,0 4.28267,0.293334 3.87201,0.352 3.87201,0.938667 0,0.410667 -1.05601,3.813336 l -1.11466,3.461335 -3.57867,-0.234667 q -2.34667,-0.117333 -2.58134,-0.117333 -1.17333,0 -2.05333,0.528 -2.52267,1.584001 -3.40267,6.16 l -0.528,2.64 0.704,1.46667 q 0.88,1.81867 1.408,3.40267 0.58667,1.70133 1.11467,2.17067 0.58667,0.46933 2.52267,0.46933 1.52533,0 2.58133,-0.0587 l 4.16534,-0.11734 0.29333,1.64267 q 0.29333,1.46667 0.64533,3.344 0.0587,0.41067 0.176,0.93867 0.11734,0.528 0.17601,0.88 0.11733,0.352 0.11733,0.528 0,0.41067 -1.29067,0.58667 -1.29067,0.23466 -5.104,0.352 -1.11467,0.0587 -2.64,0.0587 -1.87734,0 -4.16534,-0.704 -2.52267,-0.82133 -3.63733,-1.87733 -1.056,-1.056 -1.87734,-3.52 -0.29333,-0.93867 -1.232,-2.99201 -0.88,-2.112 -1.46667,-3.75466 -0.528,-1.70134 -0.528,-2.87467 0,-1.232 0.76267,-4.634671 0.82133,-3.402669 1.34933,-4.341336 0.46934,-0.938667 0.704,-2.229334 0.0587,-0.293334 0.11734,-0.528001 0.11733,-0.293333 0.176,-0.410667 0.11733,-0.117333 0.176,-0.05867 0.176,0.176 1.408,-1.056001 2.40533,-2.405335 5.456,-3.461335 z m 26.16532,0.410667 q 0.176,-0.176 0.352,-0.176 0.82134,0 0.82134,2.346668 0,0.762667 -0.176,1.466667 -0.41067,1.349334 -0.41067,4.165336 0,2.640001 0.82133,5.045333 0.704,2.05334 0.704,3.40267 0,1.17334 -0.0587,1.99467 -0.11734,2.112 -0.11734,2.22933 0,1.11467 0.46934,1.408 0.41066,0.41067 2.22933,0.704 1.81867,0.29334 3.40267,0.29334 0.704,0 1.29067,-0.11734 1.11466,-0.29333 1.46666,-0.64533 0.41067,-0.41067 0.41067,-1.408 0,-0.88 -0.0587,-1.46667 -0.11733,-1.17333 -0.58666,-4.16533 -0.46934,-2.992004 -0.46934,-4.752005 0,-1.994668 0.41067,-5.808003 0.41067,-3.813336 0.704,-4.282669 0.0587,-0.176001 0.352,-0.176001 0.352,0 3.52,1.056001 l 3.63734,1.232001 -0.0587,1.173334 q 0,0.176 -0.11733,1.877334 -0.0587,1.642668 -0.176,2.757335 -0.176,1.760001 -0.176,2.816001 0,1.232001 0.23467,1.994672 0.88,3.344 0.88,11.55734 0,3.344 -0.29334,3.344 -0.11733,0 -0.176,-0.23467 l -0.29333,-0.704 -0.99733,0.76267 q -1.17334,0.82133 -1.29067,0.82133 -0.176,0 -1.29067,0.76267 -2.34667,1.584 -6.98134,1.584 -1.46666,0 -2.288,-0.0587 -4.28267,-0.23466 -5.33867,-0.528 -2.34667,-0.64533 -4.10667,-2.992 -2.64,-3.63733 -2.64,-6.74667 0,-0.93867 0.176,-1.99467 0.11734,-1.408 0.11734,-1.76 0,-1.056 -0.41067,-2.34667 -1.17334,-3.578665 -1.17334,-6.864 0,-1.232001 0.0587,-1.936001 0.23467,-3.285335 0.41067,-3.813336 0.23467,-0.528 1.29067,-0.528 1.11466,0 1.76,-0.645334 0.528,-0.528 1.64266,-0.528 h 0.64534 0.704 q 1.056,0 1.17333,-0.117333 z m 25.75469,-6.101337 -0.23467,-2.933335 h 8.21334 v 2.229335 q 0,2.229334 -0.528,3.050668 l -0.58667,0.938667 -3.28533,-0.117333 -3.344,-0.117334 z m 0.352,7.685338 q 0.29333,0 3.52,0.469333 3.28534,0.410667 3.57867,0.410667 0.23467,0 0.23467,2.405335 v 0.88 1.760001 q 0,2.405335 0.11733,6.160007 0.11733,2.816 0.11733,3.75467 0,1.936 -0.176,3.05066 -0.23466,1.76 -0.23466,2.87467 0,1.29067 0.176,3.10934 0.23466,3.05067 0.23466,3.63733 0,0.41067 -0.0587,0.46934 h -0.11734 q -0.64533,0 -3.872,-0.64534 -2.17067,-0.46933 -3.40267,-0.46933 -0.352,0 -0.352,0.0587 0,0.29333 -0.176,0.11733 -0.528,-0.528 -0.528,-6.57067 0,-2.40534 0.176,-3.75467 0.23467,-1.46667 0.23467,-3.52 0,-1.64267 -0.0587,-2.464 -0.29333,-4.634673 -0.29333,-6.570674 v -2.229334 l 0.0587,-2.933335 z m 24.22935,-1.466668 q 3.52,0 3.696,-0.176 0.176,-0.176 0.99733,-0.176 1.584,0 2.992,0.469334 5.16267,1.818667 6.16001,5.397336 0.41066,1.466667 1.056,3.344002 0.99733,2.874668 1.64266,11.674669 0.23467,3.52001 0.23467,3.98934 0,1.056 -0.23467,1.99467 -0.352,1.408 -0.352,2.87467 0,2.05333 -1.17333,3.22666 -1.11467,1.17334 -3.10933,1.17334 -2.34667,0 -3.40267,-1.70134 -0.352,-0.46933 -0.352,-3.10933 0,-2.93334 0.41066,-3.93067 0.11734,-0.352 0.11734,-1.17333 0,-2.40534 -0.58667,-6.86401 -0.528,-4.51733 -1.11467,-6.336002 l -0.76266,-2.464001 q -1.29067,0 -3.93067,-0.05867 -2.58134,-0.05867 -3.87201,-0.05867 l -0.64533,0.821333 q -0.58667,0.762667 -0.58667,1.760001 0,0.704001 0.0587,1.232001 0.23467,2.229331 0.528,3.637331 0.99733,5.22134 0.99733,6.86401 0,0.99733 -0.29333,2.87467 -0.46933,3.28533 -0.88,3.696 -0.41067,0.41067 -3.93067,0.88 -2.17067,0.352 -2.992,0.528 l -0.88,0.176 0.176,-2.22934 q 0.0587,-0.82133 0.23467,-1.936 0.176,-1.056 0.23466,-1.81866 0.11734,-0.82134 0.11734,-1.58401 0,-1.232 -0.23467,-2.58133 -0.99733,-6.16 -0.99733,-11.088006 V 95.33502 l 0.11733,-4.048002 1.232,-0.352 q 1.408,-0.352001 2.288,-1.232001 1.34934,-1.349334 2.58134,-1.760001 1.232,-0.410667 3.696,-0.410667 z"
       id="text1"
       style="font-size:58.6667px;line-height:1.25;font-family:Titilliumweb_semibold;-inkscape-font-specification:Titilliumweb_semibold;text-align:center;text-anchor:middle;white-space:pre;fill:#ffffff;stroke-width:3.77953"
       transform="matrix(0.26458333,0,0,0.26458333,-14.938619,2.5319693)"
       aria-label="guht sturted wid betcuin" />
  </g>
</svg>
