<?xml version="1.0" encoding="UTF-8" standalone="no"?>
<svg
   width="38px"
   height="39px"
   viewBox="0 0 38 39"
   version="1.1"
   id="svg1"
   xmlns="http://www.w3.org/2000/svg"
   xmlns:svg="http://www.w3.org/2000/svg"
   xmlns:rdf="http://www.w3.org/1999/02/22-rdf-syntax-ns#"
   xmlns:cc="http://creativecommons.org/ns#"
   xmlns:dc="http://purl.org/dc/elements/1.1/">
  <!-- Generator: Sketch 49.3 (51167) - http://www.bohemiancoding.com/sketch -->
  <title
     id="title1">close - simple-line-icons</title>
  <desc
     id="desc1">Created with Sketch.</desc>
  <defs
     id="defs1" />
  <path
     style="opacity:1;fill:none;fill-opacity:1;stroke:#ffffff;stroke-opacity:1;stroke-width:2;stroke-dasharray:none"
     d="M 4.2225064,29.790281 C 4.0412025,29.436395 3.8855049,29.069394 3.7570332,28.693095 3.7151072,28.570292 3.6759905,28.446276 3.6240409,28.327366 3.450917,27.931094 3.1406593,27.603135 2.9923274,27.196931 2.9682833,27.131087 2.9487132,27.063699 2.9258312,26.997442 2.7864538,26.593863 2.5270024,26.23944 2.3938619,25.83376 2.3501091,25.700445 2.3201345,25.561963 2.2608696,25.434783 2.1979329,25.299723 2.1026735,25.178974 2.0613811,25.035806 2.0150721,24.875244 2.041363,24.703666 2.028133,24.537084 c -0.00795,-0.100085 -0.030271,-0.198876 -0.033248,-0.299232 -0.00329,-0.110944 0.017087,-0.222811 0,-0.332481 -0.012434,-0.0798 -0.044234,-0.1551 -0.066496,-0.232737 -0.058494,-0.20399 -0.050337,-0.420118 -0.066496,-0.631713 C 1.8353806,22.693775 1.7426753,22.355196 1.6956522,22.01023 1.655115,21.712845 1.6486914,21.412031 1.629156,21.112532 1.6058777,20.75565 1.563869,20.399767 1.4961637,20.048593 1.4685411,19.90532 1.436554,19.762117 1.4296677,19.616368 c -0.00366,-0.0775 -1.872e-4,-0.155146 0,-0.232736 0.00123,-0.511586 -0.1402785,-1.019433 -0.099744,-1.529412 0.03137,-0.394679 0.1705466,-0.772674 0.2327365,-1.163683 0.057911,-0.364108 0.048854,-0.738231 0.1329924,-1.097187 0.044827,-0.191242 0.1155313,-0.37545 0.1662404,-0.565217 0.035394,-0.132453 0.061005,-0.267464 0.099744,-0.398977 0.040793,-0.138485 0.09613,-0.272776 0.1662404,-0.398977 0.067514,-0.121527 0.1489777,-0.236208 0.1994885,-0.365729 0.025471,-0.06531 0.042706,-0.133544 0.066496,-0.199488 0.1062384,-0.294481 0.3386188,-0.532465 0.4322251,-0.831202 0.027332,-0.08723 0.042182,-0.177867 0.066496,-0.265985 0.054249,-0.196609 0.1544003,-0.376905 0.2327367,-0.565217 0.2443485,-0.587387 0.2719825,-1.238513 0.398977,-1.861893 C 3.6112457,9.7138575 3.7453744,9.2983248 3.8567775,8.8772379 3.9546308,8.5073673 4.0358139,8.1305285 4.1892583,7.7800512 4.3627113,7.3838729 4.6246763,7.0313959 4.9207161,6.7161125 5.1138414,6.5104334 5.3219462,6.3193882 5.5191816,6.1176471 5.8535538,5.7756364 6.1571379,5.4024653 6.516624,5.0869565 7.0082698,4.6554556 7.5956332,4.341074 8.2122762,4.1227621 8.3345787,4.079463 8.4582849,4.0397677 8.5780051,3.9897698 8.7838737,3.9037944 8.9759009,3.7882379 9.1764706,3.6905371 9.6087726,3.4799557 10.076448,3.3542177 10.539642,3.2250639 10.759795,3.163678 10.98001,3.1011691 11.204604,3.0588235 c 0.273641,-0.051593 0.552815,-0.072958 0.831202,-0.066496 0.121956,0.00283 0.244235,0.01097 0.365729,0 0.134328,-0.012129 0.265458,-0.047421 0.398977,-0.066496 0.263709,-0.037674 0.532446,-0.01162 0.797953,-0.033248 0.167186,-0.013619 0.332231,-0.046073 0.498722,-0.066496 0.451727,-0.055413 0.910249,-0.021895 1.363171,-0.066496 0.506493,-0.049876 0.997707,-0.1964542 1.496164,-0.2992327 0.666414,-0.13741 1.347706,-0.1966343 2.028133,-0.1994885 0.243824,-0.00102 0.487686,0.00515 0.731458,0 0.322328,-0.00682 0.648697,-0.033111 0.964194,0.033248 0.08944,0.018813 0.177166,0.044937 0.265985,0.066496 0.10985,0.026663 0.221257,0.046315 0.33248,0.066496 0.541559,0.098263 1.081648,0.2096236 1.629156,0.2659846 0.811062,0.083491 1.6417,0.047069 2.42711,0.2659847 0.33457,0.093254 0.656699,0.2319501 0.997443,0.2992327 0.100335,0.019812 0.202437,0.033476 0.299233,0.066496 0.125601,0.042847 0.238124,0.1168969 0.344427,0.1963405 0.106302,0.079443 0.208201,0.1652249 0.320534,0.2358845 0.138542,0.087146 0.287809,0.1557147 0.432225,0.2327366 l 0.498721,0.2659847 c 0.140089,0.074714 0.286898,0.1355579 0.432226,0.1994885 0.513286,0.2257978 0.943343,0.6005379 1.396419,0.9309463 0.172239,0.1256067 0.349898,0.2463492 0.498721,0.3989769 0.19364,0.1985909 0.33138,0.4437561 0.498721,0.6649617 0.142216,0.1879927 0.305775,0.3585835 0.465474,0.5319693 0.138494,0.1503628 0.274497,0.3033177 0.398977,0.4654731 0.07696,0.1002572 0.149555,0.2040709 0.232736,0.2992328 0.147443,0.1686802 0.32547,0.3072246 0.497806,0.4503778 0.172335,0.1431533 0.342052,0.2942012 0.466389,0.4805685 0.04961,0.074364 0.09146,0.153577 0.132992,0.2327365 0.198108,0.3775534 0.391476,0.7576763 0.598465,1.130435 0.156579,0.281977 0.32174,0.56143 0.432225,0.86445 0.117931,0.323441 0.170928,0.666555 0.265985,0.997442 0.08855,0.308251 0.214579,0.610743 0.232737,0.930947 0.0114,0.201034 -0.02035,0.401661 -0.03482,0.602497 -0.01447,0.200836 -0.01043,0.409011 0.06807,0.594434 0.02899,0.06848 0.06758,0.132438 0.09974,0.199488 0.09562,0.19937 0.132274,0.421065 0.199488,0.631714 0.113322,0.355151 0.313084,0.677448 0.432225,1.03069 0.09458,0.280411 0.136698,0.575258 0.199489,0.86445 0.06046,0.278464 0.140303,0.552464 0.199488,0.831202 0.09576,0.450986 0.136991,0.912184 0.232737,1.363172 0.09491,0.447069 0.242905,0.881754 0.332481,1.329923 0.140796,0.704429 0.132442,1.448072 -0.09974,2.127877 -0.06122,0.17923 -0.137462,0.353019 -0.199489,0.531969 -0.132163,0.381294 -0.198744,0.782938 -0.332481,1.163683 -0.125639,0.357692 -0.309996,0.695413 -0.398977,1.063939 -0.116153,0.481065 -0.06533,0.997201 -0.232736,1.462916 -0.04038,0.112343 -0.09296,0.220011 -0.132993,0.33248 -0.125527,0.352679 -0.123465,0.739138 -0.232736,1.097187 -0.0812,0.266077 -0.221691,0.509526 -0.332481,0.764706 -0.148526,0.342096 -0.24493,0.708184 -0.432225,1.03069 -0.148275,0.255316 -0.349786,0.476527 -0.498721,0.731458 -0.160565,0.274838 -0.259845,0.588233 -0.465473,0.831202 -0.152443,0.180126 -0.354182,0.31031 -0.53197,0.465473 -0.196248,0.171274 -0.368225,0.376912 -0.598465,0.498722 -0.217216,0.11492 -0.468483,0.145473 -0.69821,0.232736 -0.292449,0.111089 -0.542796,0.311464 -0.764706,0.53197 -0.200222,0.198955 -0.382135,0.417155 -0.598465,0.598465 -0.249927,0.209468 -0.54042,0.365176 -0.797954,0.565217 -0.324752,0.252253 -0.598855,0.575968 -0.964195,0.764706 -0.097,0.05011 -0.198947,0.08983 -0.299232,0.132993 -0.218794,0.09418 -0.430395,0.205159 -0.631714,0.33248 -0.260871,0.164985 -0.508149,0.359235 -0.797954,0.465474 -0.184473,0.06762 -0.381157,0.0975 -0.565217,0.16624 -0.269608,0.100693 -0.502268,0.280851 -0.764706,0.398977 -0.368353,0.165799 -0.780876,0.203517 -1.163683,0.332481 -0.09967,0.03358 -0.197418,0.07338 -0.299233,0.09974 -0.129819,0.03361 -0.265385,0.04491 -0.398977,0.03325 -0.289205,0.04973 -0.577429,0.105155 -0.86445,0.166241 -1.120286,0.238426 -2.253686,0.565315 -3.391304,0.432225 -0.278722,-0.03261 -0.553495,-0.09264 -0.831202,-0.132993 -0.27617,-0.04013 -0.554872,-0.06073 -0.831202,-0.09974 -0.791025,-0.11166 -1.552149,-0.372276 -2.327366,-0.565217 -0.109754,-0.02732 -0.220147,-0.05334 -0.332481,-0.0665 -0.132589,-0.01553 -0.267022,-0.01303 -0.398977,-0.03325 -0.34074,-0.05221 -0.639339,-0.250407 -0.964194,-0.365728 -0.332216,-0.117934 -0.688513,-0.147946 -1.030691,-0.232737 -0.556017,-0.13778 -1.064754,-0.417206 -1.595908,-0.631714 -0.179609,-0.07254 -0.362937,-0.138137 -0.531971,-0.232733 C 9.6995896,35.01077 9.3764513,34.541213 8.943734,34.212276 8.8554885,34.145195 8.7627004,34.083995 8.6777494,34.012788 8.4912997,33.856503 8.3474904,33.656343 8.1790281,33.480818 7.912728,33.203354 7.5838859,32.986472 7.3478261,32.682864 7.2211727,32.519969 7.1233442,32.33456 6.9820972,32.184143 6.8634637,32.057808 6.7181132,31.960342 6.5831202,31.851662 6.2521283,31.585187 5.9784217,31.247015 5.6189258,31.02046 5.53044,30.964696 5.4372802,30.916077 5.3529412,30.85422 5.2818069,30.802048 5.2176883,30.740994 5.1488894,30.685779 5.0800904,30.630563 5.0051609,30.580504 4.9207161,30.554987 c -0.028888,-0.0087 -0.058619,-0.0145 -0.087375,-0.02365 -0.028756,-0.0092 -0.056997,-0.02205 -0.078865,-0.04285 -0.026173,-0.02489 -0.041162,-0.05892 -0.058761,-0.09046 -0.0088,-0.01577 -0.018454,-0.03119 -0.030551,-0.0446 -0.012097,-0.01341 -0.026786,-0.0248 -0.04368,-0.03118 -0.016678,-0.0063 -0.034764,-0.0075 -0.05229,-0.01078 -0.00876,-0.0016 -0.017473,-0.0038 -0.025655,-0.0073 -0.00818,-0.0035 -0.01585,-0.0085 -0.021799,-0.01513 -0.00592,-0.0066 -0.00999,-0.0147 -0.012782,-0.02311 -0.0028,-0.0084 -0.00437,-0.01718 -0.00576,-0.02594 -0.00279,-0.01751 -0.00511,-0.03578 -0.014701,-0.0507 -0.00547,-0.0085 -0.013072,-0.01547 -0.021417,-0.02116 -0.00835,-0.0057 -0.017451,-0.01018 -0.026624,-0.01441 -0.018346,-0.0085 -0.037648,-0.0164 -0.051703,-0.03092 -0.012398,-0.01281 -0.019671,-0.0298 -0.024076,-0.04707 -0.00441,-0.01727 -0.00619,-0.03509 -0.00917,-0.05267 -0.015259,-0.08993 -0.063263,-0.173935 -0.1329923,-0.232737 z"
     id="path1" />
  <path
     style="opacity:1;fill:none;fill-opacity:1;stroke:#ffffff;stroke-opacity:1;stroke-width:2;stroke-dasharray:none"
     d="m 13.565217,13.199488 c 0.8961,0.350091 1.69652,0.941706 2.294118,1.695653 0.256143,0.323158 0.475074,0.674476 0.731458,0.997442 0.23472,0.295676 0.499842,0.566336 0.731458,0.86445 0.419002,0.539301 0.721186,1.158785 1.097186,1.728901 0.213663,0.32397 0.451034,0.63176 0.69821,0.930946 0.235003,0.284453 0.480427,0.562741 0.764706,0.797954 0.365839,0.302696 0.792357,0.531034 1.130435,0.86445 0.156378,0.154221 0.292683,0.329894 0.465473,0.465473 0.07468,0.0586 0.155404,0.109057 0.23156,0.165734 0.07615,0.05668 0.148615,0.120605 0.200665,0.199995 0.0408,0.06224 0.06794,0.132203 0.09974,0.199488 0.08189,0.173276 0.196137,0.330787 0.332481,0.465474 0.05578,0.0551 0.115365,0.106588 0.16624,0.16624 0.06189,0.07257 0.109754,0.155881 0.166241,0.232737 0.158274,0.21535 0.38203,0.377231 0.531969,0.598465 0.05578,0.08229 0.100621,0.171988 0.132992,0.265985 0.07169,0.07298 0.149649,0.139803 0.232737,0.199488 0.09013,0.06474 0.186912,0.121626 0.265985,0.199489 0.07845,0.07725 0.139148,0.17475 0.232736,0.232736 0.06328,0.03921 0.137984,0.0578 0.199489,0.09974 0.03588,0.02447 0.06613,0.05612 0.09713,0.08654 0.031,0.03041 0.06357,0.06019 0.102362,0.07971 0.04752,0.0239 0.101543,0.031 0.154529,0.03573 0.05298,0.0047 0.106798,0.0076 0.157391,0.02402 0.0253,0.0082 0.04964,0.01987 0.07078,0.03602 0.02113,0.01615 0.039,0.03692 0.05007,0.06111 0.01108,0.02418 0.01512,0.05184 0.0096,0.07785 -0.0055,0.02602 -0.021,0.05013 -0.04338,0.06451 -0.01478,0.0095 -0.03231,0.01464 -0.04987,0.01464 -0.01756,0 -0.03509,-0.0051 -0.04987,-0.01464"
     id="path2" />
  <path
     style="opacity:1;fill:none;fill-opacity:1;stroke:#ffffff;stroke-opacity:1;stroke-width:2;stroke-dasharray:none"
     d="m 12.168798,25.368286 c 0.08319,-0.593776 0.398647,-1.151895 0.86445,-1.529411 0.394018,-0.319337 0.876361,-0.504503 1.329923,-0.731458 0.367993,-0.184138 0.721091,-0.398254 1.097187,-0.565218 0.253201,-0.112406 0.515713,-0.202928 0.768328,-0.316644 0.252616,-0.113715 0.498018,-0.252854 0.694588,-0.448061 0.09472,-0.09406 0.17684,-0.199875 0.265984,-0.299233 0.163696,-0.182451 0.352365,-0.343906 0.565218,-0.465473 0.241646,-0.138012 0.514255,-0.225015 0.731458,-0.398977 0.220917,-0.176937 0.366866,-0.429803 0.565217,-0.631714 0.242928,-0.247287 0.559572,-0.413289 0.797954,-0.664961 0.195384,-0.206277 0.331687,-0.463437 0.531969,-0.664962 0.228446,-0.229864 0.528876,-0.376183 0.764706,-0.598466 0.252241,-0.237751 0.420265,-0.552446 0.664962,-0.797954 0.16349,-0.164032 0.35865,-0.29426 0.565217,-0.398977 0.187801,-0.0952 0.392377,-0.174849 0.531969,-0.33248 0.06325,-0.07142 0.10997,-0.155695 0.166241,-0.232737 0.11379,-0.155793 0.264978,-0.279912 0.418425,-0.396846 0.153447,-0.116935 0.311796,-0.229288 0.446025,-0.36786 0.142248,-0.146851 0.254788,-0.320528 0.398977,-0.465473 0.116608,-0.11722 0.251963,-0.213709 0.381984,-0.315849 0.130021,-0.10214 0.256834,-0.212161 0.349474,-0.349113 0.05358,-0.0792 0.09609,-0.167762 0.16624,-0.232736 0.04977,-0.0461 0.11084,-0.07777 0.166927,-0.115933 0.02804,-0.01908 0.05506,-0.03997 0.0783,-0.06467 0.02324,-0.02471 0.04268,-0.05341 0.05401,-0.08538 0.01175,-0.03314 0.01488,-0.06976 0.03325,-0.09974 0.01717,-0.02802 0.04588,-0.04705 0.07561,-0.06103 0.02973,-0.01399 0.06133,-0.02384 0.09063,-0.03871 0.0493,-0.02501 0.09059,-0.06342 0.127194,-0.104844 0.0366,-0.04143 0.06916,-0.08627 0.105543,-0.127893 0.106425,-0.121761 0.245649,-0.214577 0.398977,-0.265985"
     id="path3" />
  <metadata
     id="metadata3">
    <rdf:RDF>
      <cc:Work
         rdf:about="">
        <dc:title>close - simple-line-icons</dc:title>
      </cc:Work>
    </rdf:RDF>
  </metadata>
</svg>
