<?xml version="1.0" encoding="UTF-8" standalone="no"?>
<svg
   width="44px"
   height="33px"
   viewBox="0 0 44 33"
   version="1.1"
   id="svg2"
   sodipodi:docname="crowdfunding.svg"
   inkscape:version="1.3.2 (091e20e, 2023-11-25, custom)"
   xmlns:inkscape="http://www.inkscape.org/namespaces/inkscape"
   xmlns:sodipodi="http://sodipodi.sourceforge.net/DTD/sodipodi-0.dtd"
   xmlns="http://www.w3.org/2000/svg"
   xmlns:svg="http://www.w3.org/2000/svg">
  <sodipodi:namedview
     id="namedview2"
     pagecolor="#ffffff"
     bordercolor="#000000"
     borderopacity="0.25"
     inkscape:showpageshadow="2"
     inkscape:pageopacity="0.0"
     inkscape:pagecheckerboard="0"
     inkscape:deskcolor="#d1d1d1"
     inkscape:zoom="32.863636"
     inkscape:cx="22"
     inkscape:cy="16.507607"
     inkscape:window-width="2560"
     inkscape:window-height="1369"
     inkscape:window-x="-8"
     inkscape:window-y="-8"
     inkscape:window-maximized="1"
     inkscape:current-layer="svg2" />
  <!-- Generator: Sketch 49 (51002) - http://www.bohemiancoding.com/sketch -->
  <title
     id="title1">Crowdfunding icon</title>
  <desc
     id="desc1">Created with Sketch.</desc>
  <defs
     id="defs1">
    <inkscape:path-effect
       effect="spiro"
       id="path-effect5"
       is_visible="true"
       lpeversion="1" />
    <inkscape:path-effect
       effect="spiro"
       id="path-effect4"
       is_visible="true"
       lpeversion="1" />
    <inkscape:path-effect
       effect="spiro"
       id="path-effect3"
       is_visible="true"
       lpeversion="1" />
  </defs>
  <path
     style="fill:none;fill-opacity:0.501961;stroke:#1c3c55;stroke-width:1.079;stroke-opacity:1"
     d="m 21.360996,31.88935 c -0.44781,-0.03586 -0.894427,-0.08661 -1.338866,-0.152144 -0.788625,-0.116278 -1.584316,-0.28412 -2.282158,-0.669433 -0.389509,-0.215067 -0.743967,-0.49553 -1.154233,-0.667729 -0.205133,-0.0861 -0.424315,-0.144207 -0.646766,-0.147118 -0.222451,-0.0029 -0.448658,0.05175 -0.633302,0.175843 -0.196859,0.132304 -0.335962,0.33396 -0.517289,0.48686 -0.224106,0.188972 -0.505935,0.297419 -0.791148,0.365146 -0.398209,0.09456 -0.809503,0.115604 -1.217151,0.152143 -0.324069,0.02905 -0.65054,0.0681 -0.973721,0.03043 -0.406088,-0.04733 -0.788097,-0.21348 -1.186722,-0.304288 -0.279159,-0.06359 -0.569419,-0.09107 -0.8329946,-0.202881 -0.1317879,-0.05591 -0.2560436,-0.133363 -0.35358,-0.23815 -0.097536,-0.104786 -0.1671992,-0.238233 -0.1827196,-0.380545 -0.0088,-0.08073 -3.324e-4,-0.162222 0,-0.24343 3.323e-4,-0.08119 -0.00748,-0.162587 0,-0.243431 0.014737,-0.159356 0.089534,-0.310031 0.196379,-0.429177 0.1068446,-0.119146 0.2444283,-0.208108 0.3912198,-0.271856 0.2935834,-0.127495 0.6186954,-0.15588 0.9338394,-0.21183 0.948738,-0.168439 1.832537,-0.59469 2.769018,-0.821576 0.323351,-0.07834 0.652301,-0.132725 0.974106,-0.217191 0.321805,-0.08447 0.639669,-0.200942 0.912478,-0.391385 0.308411,-0.215296 0.552146,-0.519917 0.882434,-0.699861 0.231773,-0.126272 0.495022,-0.184655 0.730291,-0.304288 0.273898,-0.139275 0.500428,-0.356834 0.700016,-0.590462 0.199588,-0.233629 0.376392,-0.486081 0.577992,-0.717975 0.130648,-0.150281 0.271588,-0.291786 0.394341,-0.448582 0.122754,-0.156795 0.228098,-0.331633 0.275092,-0.525139 0.04568,-0.188114 0.03439,-0.384604 0.03043,-0.578146 -0.0046,-0.223491 9.56e-4,-0.44811 -0.03043,-0.669433 -0.05601,-0.394971 -0.227324,-0.764866 -0.304288,-1.156294 -0.07474,-0.380105 -0.05882,-0.773401 0,-1.156293 0.03747,-0.243958 0.09217,-0.485246 0.121715,-0.73029 0.03041,-0.252144 0.034,-0.506775 0.03043,-0.76072 -0.015,-1.066794 -0.155686,-2.12846 -0.182573,-3.19502 -0.01227,-0.486727 -8.18e-4,-0.9737 0,-1.460581 0.0016,-0.963676 -0.03841,-1.927821 0,-2.890733 0.01713,-0.429402 0.05022,-0.860528 0.152144,-1.278009 0.03503,-0.143492 0.07808,-0.284886 0.121715,-0.4260023 0.144064,-0.4659619 0.294728,-0.9299982 0.426003,-1.3997234 0.03204,-0.1146325 0.06345,-0.2309259 0.121715,-0.3347164 0.05857,-0.1043464 0.143178,-0.1931532 0.241084,-0.2619533 0.09791,-0.0688 0.208914,-0.1179349 0.32411,-0.1503231 0.230393,-0.064776 0.474217,-0.062807 0.712814,-0.044155 0.689058,0.053866 1.361856,0.2422911 2.008299,0.4868603 0.570878,0.2159806 1.125003,0.4763022 1.704011,0.669433 0.524666,0.1750049 1.083123,0.3016911 1.521439,0.6390041 0.263406,0.202708 0.469334,0.4725815 0.632171,0.7623353 0.162838,0.289753 0.284751,0.600393 0.402407,0.911247 0.334335,0.883329 0.639697,1.781354 0.821577,2.70816 0.125889,0.641495 0.191973,1.294049 0.213001,1.947442 0.0078,0.243355 0.0094,0.486992 0,0.73029 -0.03362,0.867143 -0.20745,1.724708 -0.456432,2.556017 -0.115971,0.387206 -0.248248,0.769365 -0.365145,1.156293 -0.0464,0.153593 -0.09051,0.308293 -0.152144,0.456431 -0.106427,0.255786 -0.262961,0.487049 -0.395574,0.730291 -0.33103,0.607184 -0.511675,1.289514 -0.578146,1.97787 -0.0373,0.386247 -0.03883,0.781272 0.06086,1.156293 0.118625,0.446269 0.377809,0.847576 0.702984,1.17543 0.325175,0.327855 0.714952,0.585797 1.122742,0.80244 0.602689,0.320186 1.246846,0.553476 1.886584,0.791148 0.627033,0.232952 1.253002,0.471507 1.856155,0.760719 0.535907,0.256967 1.052063,0.553097 1.582296,0.821577 0.514643,0.260586 1.044912,0.496485 1.521439,0.821577 0.107914,0.07362 0.216816,0.156336 0.273858,0.273859 0.0429,0.08838 0.05253,0.19159 0.03153,0.28756 -0.021,0.09597 -0.07182,0.184499 -0.140605,0.254644 -0.06878,0.07015 -0.155068,0.122189 -0.247611,0.155162 -0.09254,0.03297 -0.191248,0.04719 -0.289489,0.04685 -0.196481,-6.8e-4 -0.388403,-0.05863 -0.571352,-0.130291 -0.182949,-0.07166 -0.360488,-0.157596 -0.54734,-0.218355 -0.375349,-0.122052 -0.777946,-0.138846 -1.171445,-0.10815 -0.393499,0.0307 -0.781694,0.107529 -1.17157,0.16901 -1.005822,0.158611 -2.025016,0.215256 -3.042877,0.24343 -0.517548,0.01432 -1.035629,0.02136 -1.551867,0.06086 -0.964358,0.07378 -1.924739,0.260787 -2.890734,0.213001 -0.312371,-0.01545 -0.624234,-0.05547 -0.93678,-0.0441 -0.312547,0.01137 -0.63227,0.07841 -0.888946,0.257101 -0.06551,0.0456 -0.126481,0.09815 -0.196303,0.136827 -0.03491,0.01934 -0.07202,0.03512 -0.110949,0.04391 -0.03893,0.0088 -0.07978,0.01043 -0.11875,0.0018 -0.0102,-0.0022 -0.0203,-0.0052 -0.03071,-0.0061 -0.01041,-9.04e-4 -0.02139,4.19e-4 -0.03015,0.0061 -0.007,0.0046 -0.01221,0.01171 -0.01505,0.01961 -0.0028,0.0079 -0.0034,0.01648 -0.0025,0.02482 0.0019,0.01666 0.0099,0.03194 0.01752,0.04687 0.06017,0.117481 0.111094,0.239697 0.152144,0.365145 z"
     id="path3"
     inkscape:path-effect="#path-effect3"
     inkscape:original-d="m 21.360996,31.88935 c -0.474834,0.04031 -0.870101,-0.04053 -1.338866,-0.152144 -1.19982,-0.285671 -1.138367,-0.282799 -2.282158,-0.669433 -0.540558,-0.182724 -1.824043,-0.687825 -2.434301,-0.639004 -0.299236,0.02394 -0.279386,0.308433 -0.517289,0.48686 -0.222259,0.166694 -0.531504,0.294971 -0.791148,0.365146 -0.528668,0.142883 -0.689397,0.123616 -1.217151,0.152143 -0.236946,0.01281 -0.716308,0.05023 -0.973721,0.03043 -0.410347,-0.03157 -0.79133,-0.20544 -1.186722,-0.304288 -0.579447,-0.144861 -1.2353259,-0.107079 -1.3692942,-0.821576 -0.014954,-0.07975 0,-0.162287 0,-0.24343 0,-0.08114 -0.032524,-0.16909 0,-0.243431 0.1756956,-0.40159 1.2508862,-0.812795 1.5214382,-0.912863 0.801057,-0.296281 1.953253,-0.596538 2.769018,-0.821576 0.639479,-0.176408 1.291887,-0.302732 1.886584,-0.608576 0.378643,-0.194731 0.563834,-0.540561 0.882434,-0.699861 0.689459,-0.34473 -0.864417,0.652536 0.730291,-0.304288 0.378422,-0.227054 1.212838,-1.23438 1.278008,-1.308437 0.194553,-0.221083 0.584163,-0.651591 0.669433,-0.973721 0.04938,-0.186557 0.03043,-0.385164 0.03043,-0.578146 0,-0.223375 0.0019,-0.448413 -0.03043,-0.669433 -0.05771,-0.394354 -0.236947,-0.76347 -0.304288,-1.156294 -0.05093,-0.297078 -0.02879,-0.891395 0,-1.156293 0.02667,-0.245343 0.09666,-0.484777 0.121715,-0.73029 0.02576,-0.252465 0.03395,-0.506968 0.03043,-0.76072 -0.01493,-1.074751 -0.13312,-2.123542 -0.182573,-3.19502 -0.02245,-0.486343 0.01058,-0.973836 0,-1.460581 -0.02089,-0.960793 -0.08,-1.930681 0,-2.890733 0.01667,-0.200096 0.07607,-0.948367 0.152144,-1.278009 0.03321,-0.143901 0.08481,-0.283004 0.121715,-0.4260023 0.124104,-0.4809023 0.251508,-0.934402 0.426003,-1.3997234 0.04169,-0.1111609 0.05981,-0.2334149 0.121715,-0.3347164 0.256243,-0.4193065 0.852596,-0.4564316 1.278008,-0.4564316 0.697005,0 1.362025,0.2445077 2.008299,0.4868603 0.571408,0.2142779 1.135382,0.4478889 1.704011,0.669433 0.402288,0.1567354 1.166962,0.3858067 1.521439,0.6390041 0.514274,0.367339 0.770721,1.1282783 1.034578,1.6735823 0.454629,0.939567 0.633766,1.685634 0.821577,2.70816 0.159117,0.866306 0.164381,0.894011 0.213001,1.947442 0.01122,0.243171 0.02238,0.48789 0,0.73029 -0.07588,0.822011 -0.258142,1.746334 -0.456432,2.556017 -0.07319,0.298865 -0.265239,0.856576 -0.365145,1.156293 -0.05071,0.152144 -0.08897,0.309025 -0.152144,0.456431 -0.05241,0.122287 -0.328707,0.590986 -0.395574,0.730291 -0.300197,0.625411 -0.504299,1.288631 -0.578146,1.97787 -0.04025,0.375686 -0.134988,0.802266 0.06086,1.156293 0.370319,0.669422 1.111542,1.585069 1.825726,1.97787 0.551268,0.303197 1.323857,0.564897 1.886584,0.791148 0.620397,0.249438 1.241959,0.496382 1.856155,0.760719 0.267627,0.115182 1.569925,0.815275 1.582296,0.821577 0.995833,0.507311 0.241826,0.03412 1.521439,0.821577 0.154771,0.09524 0.316295,0.214448 0.273858,0.273859 -0.225676,0.315947 -1.513585,0.379362 -1.764868,0.395574 -4.080437,0.263254 2.393658,-0.152506 -2.343015,0.06086 -4.149307,0.186906 -0.620224,0.07918 -3.042877,0.24343 -0.516501,0.03502 -1.035148,0.02922 -1.551867,0.06086 -0.964394,0.05904 -1.927999,0.134411 -2.890734,0.213001 -0.600593,0.04903 -1.242047,0.0379 -1.825726,0.213002 -0.19586,0.05876 -0.268376,0.103759 -0.426002,0.182572 -0.01815,0.0091 -0.04651,-0.01434 -0.06086,0 -0.02152,0.02152 0,0.06086 0,0.09129 0,0.199712 0.03023,0.202598 0.152144,0.365145 z" />
  <path
     style="fill:none;fill-opacity:0.501961;stroke:#95aabf;stroke-width:1.079;stroke-opacity:1"
     d="m 29.698479,24.769018 c 0.140733,-0.10047 0.294594,-0.182529 0.456431,-0.24343 0.186712,-0.07026 0.382716,-0.112081 0.578147,-0.152144 0.753824,-0.154532 1.514143,-0.286921 2.282157,-0.334716 0.496218,-0.03088 0.993849,-0.02634 1.49101,-0.03043 0.813017,-0.0067 1.631307,-0.03615 2.434302,0.09129 0.827909,0.131393 1.628522,0.428099 2.46473,0.48686 0.192408,0.01352 0.385794,0.0143 0.578146,0 0.528963,-0.03932 1.060678,-0.200331 1.473275,-0.533666 0.206299,-0.166667 0.380256,-0.375057 0.49737,-0.61301 0.117114,-0.237952 0.176333,-0.505668 0.159369,-0.770336 -0.01552,-0.242127 -0.09408,-0.47804 -0.211984,-0.690087 -0.11791,-0.212047 -0.274476,-0.400986 -0.449185,-0.56934 -0.34942,-0.336707 -0.768239,-0.590589 -1.164557,-0.870587 -0.7027,-0.496456 -1.340366,-1.079755 -2.038727,-1.582296 -0.696601,-0.501275 -1.449371,-0.919197 -2.160443,-1.399723 -0.443987,-0.300036 -0.871608,-0.624456 -1.278008,-0.973721 -0.281842,-0.242218 -0.55455,-0.497537 -0.785981,-0.788301 -0.231432,-0.290765 -0.421385,-0.618951 -0.522456,-0.976567 -0.113311,-0.400924 -0.111361,-0.831513 -0.01094,-1.235857 0.100426,-0.404345 0.297689,-0.782387 0.558654,-1.107159 0.587018,-0.730547 1.462237,-1.168182 2.130013,-1.825726 0.531207,-0.523068 0.917821,-1.171613 1.369295,-1.7648684 C 37.814957,8.5358583 38.104977,8.2035854 38.33931,7.8323585 38.573643,7.4611316 38.752643,7.0418325 38.766252,6.6030429 38.778933,6.1941585 38.648109,5.7946063 38.492393,5.4163209 38.416335,5.2315502 38.333977,5.049428 38.248963,4.868603 37.988032,4.3136022 37.701425,3.7696438 37.366528,3.2558783 37.204444,3.0072252 37.030055,2.7645244 36.818811,2.5560166 36.549671,2.2903627 36.227089,2.086274 35.905947,1.8865837 35.587017,1.6882692 35.265583,1.4915085 34.922491,1.3387594 34.579398,1.1860103 34.212137,1.0776765 33.836791,1.0650069 c -0.296118,-0.01 -0.590718,0.039441 -0.882434,0.091286 -0.404088,0.071817 -0.80813,0.1487079 -1.217151,0.1825726 -0.295007,0.024425 -0.593566,0.026624 -0.882434,0.091286 -0.175444,0.039273 -0.344903,0.1010964 -0.517289,0.1521439 -0.30829,0.091292 -0.630818,0.1499267 -0.912863,0.3042877 -0.274821,0.1504073 -0.499322,0.3890092 -0.639005,0.6694329 -0.07613,0.1528359 -0.127703,0.3178713 -0.152143,0.4868603 -0.08756,0.072792 -0.134921,0.191188 -0.121715,0.3042877 0.0018,0.015284 0.0046,0.030461 0.0056,0.045819 9.57e-4,0.015359 -1.4e-5,0.03111 -0.0056,0.045467 -0.0046,0.012025 -0.01233,0.022669 -0.02106,0.032155 -0.0087,0.00949 -0.01852,0.017919 -0.02806,0.026587 -0.0095,0.00867 -0.0189,0.017647 -0.02656,0.028008 -0.0077,0.010361 -0.01362,0.022231 -0.01561,0.034965 -0.0016,0.010343 -5.81e-4,0.020937 0.0014,0.031216 0.002,0.010279 0.0049,0.020352 0.0071,0.030585 0.0022,0.010233 0.0037,0.020734 0.0028,0.031161 -9.3e-4,0.010427 -0.0044,0.020844 -0.0113,0.028753 -0.0075,0.00865 -0.01832,0.013652 -0.02909,0.017546 -0.01077,0.00389 -0.02196,0.00699 -0.03177,0.012883 -0.0099,0.00597 -0.01809,0.014624 -0.02443,0.024325 -0.0063,0.0097 -0.01094,0.020445 -0.0147,0.031407 -0.0075,0.021925 -0.01184,0.045021 -0.02173,0.065983 -0.01247,0.02642 -0.03338,0.048287 -0.0575,0.064772 -0.02412,0.016484 -0.0514,0.027851 -0.07924,0.036695 -0.05568,0.017689 -0.114655,0.025853 -0.167546,0.050677 -0.06631,0.031123 -0.118467,0.086266 -0.182572,0.1217151 -0.06499,0.035937 -0.139511,0.050194 -0.213002,0.060858 -0.156589,0.022721 -0.316024,0.031632 -0.46834,0.074483 -0.07616,0.021425 -0.150334,0.051435 -0.216908,0.094178 -0.06657,0.042744 -0.12546,0.098575 -0.166757,0.1660551 -0.01915,0.031288 -0.03485,0.065424 -0.06086,0.091286 -0.02105,0.020927 -0.04769,0.03521 -0.07435,0.048247 -0.02667,0.013037 -0.05401,0.025269 -0.07779,0.043039 -0.0296,0.02212 -0.05255,0.05206 -0.0714,0.083842 -0.01884,0.031782 -0.03389,0.065633 -0.05032,0.098731 -0.175527,0.3537009 -0.504462,0.6149748 -0.669433,0.9737207 -0.03228,0.070191 -0.05787,0.1433485 -0.09129,0.2130013 -0.06485,0.1351478 -0.158591,0.255896 -0.213001,0.395574 -0.04664,0.1197193 -0.06327,0.2507256 -0.121715,0.3651453 -0.02691,0.052686 -0.06213,0.1006676 -0.09129,0.1521438 -0.04772,0.084251 -0.07892,0.1778243 -0.09129,0.2738589"
     id="path4"
     inkscape:path-effect="#path-effect4"
     inkscape:original-d="m 29.698479,24.769018 c 0.164589,-0.05511 0.294047,-0.185436 0.456431,-0.24343 0.187667,-0.06702 0.383524,-0.109327 0.578147,-0.152144 0.775496,-0.170609 1.478854,-0.28289 2.282157,-0.334716 0.496076,-0.032 0.993931,-0.0252 1.49101,-0.03043 0.906515,-0.0095 1.557797,-0.03393 2.434302,0.09129 0.828682,0.118383 1.625554,0.462179 2.46473,0.48686 0.192632,0.0057 0.389709,0.04038 0.578146,0 0.764225,-0.163762 2.175008,-0.994643 2.130014,-1.917012 -0.04044,-0.828917 -1.675826,-1.99439 -1.825726,-2.130014 -0.443296,-0.401078 -1.561865,-1.249146 -2.038727,-1.582296 -0.703421,-0.491431 -1.459677,-0.904515 -2.160443,-1.399723 -0.437375,-0.309079 -0.861235,-0.637378 -1.278008,-0.973721 -0.497795,-0.401729 -1.258428,-1.131422 -1.308437,-1.764868 -0.05541,-0.701906 0.02047,-1.797263 0.547718,-2.343016 1.194936,-1.236864 1.152226,-0.917781 2.130013,-1.825726 0.602795,-0.559737 0.886297,-1.1246153 1.369295,-1.7648684 C 37.992158,8.2978929 38.892675,7.4880067 38.766252,6.6030429 38.708839,6.2011527 38.608421,5.8053574 38.492393,5.4163209 38.435291,5.2248623 38.332376,5.0501498 38.248963,4.868603 37.992596,4.3106283 37.732414,3.7524371 37.366528,3.2558783 37.190802,3.0173919 37.018401,2.7749218 36.818811,2.5560166 36.584114,2.2986077 36.190545,2.0654737 35.905947,1.8865837 35.259505,1.4802482 34.61286,1.1167448 33.836791,1.0650069 c -0.474567,-0.031638 -0.403227,0.00672 -0.882434,0.091286 -0.273931,0.048341 -0.954884,0.1480638 -1.217151,0.1825726 -0.293187,0.038577 -0.590338,0.045166 -0.882434,0.091286 -0.176862,0.027926 -0.344407,0.1089233 -0.517289,0.1521439 -0.33169,0.082922 -0.621763,0.102757 -0.912863,0.3042877 -0.243191,0.1683627 -0.512088,0.3944479 -0.639005,0.6694329 -0.107221,0.2323129 -0.08323,0.2456719 -0.152143,0.4868603 0.02348,0.056183 -0.101951,0.244995 -0.121715,0.3042877 -0.0096,0.028867 0.01361,0.06407 0,0.091286 -0.02564,0.051278 -0.07034,0.058891 -0.09129,0.1217151 -0.01189,0.03568 0.01675,0.088205 0,0.1217151 -0.003,0.00593 -0.05426,0.023826 -0.06086,0.030429 -0.01886,0.018861 -0.04625,0.1071086 -0.06086,0.1217151 -0.01661,0.016611 -0.272795,0.1363978 -0.304288,0.1521438 -0.06542,0.03271 -0.117152,0.089005 -0.182572,0.1217151 -0.05861,0.029304 -0.154505,0.041359 -0.213002,0.060858 -0.229905,0.076635 -0.656479,0.1717782 -0.852005,0.3347164 -0.02809,0.023412 -0.03309,0.067486 -0.06086,0.091286 -0.0449,0.03849 -0.110323,0.049466 -0.152143,0.091286 -0.05172,0.051719 -0.07783,0.1240593 -0.121715,0.1825726 -0.236255,0.3150063 -0.481747,0.6251611 -0.669433,0.9737207 -0.03662,0.068013 -0.05674,0.1439102 -0.09129,0.2130013 -0.09898,0.1979562 -0.13215,0.2015323 -0.213001,0.395574 -0.04935,0.1184298 -0.06863,0.2483462 -0.121715,0.3651453 -0.02447,0.053842 -0.07258,0.096036 -0.09129,0.1521438 -0.04671,0.1401267 0.03672,0.1458557 -0.09129,0.2738589" />
  <path
     style="fill:none;fill-opacity:0.501961;stroke:#f7931a;stroke-width:1.079;stroke-opacity:1"
     d="m 16.370678,25.164592 c -0.04866,0.01816 -0.100241,0.02847 -0.152144,0.03043 -0.08192,0.0031 -0.163024,-0.01445 -0.24343,-0.03043 C 15.5233,25.07482 15.063743,25.031842 14.605809,24.982019 13.766149,24.890664 12.926297,24.77532 12.11065,24.556017 11.026739,24.264586 9.9758826,23.78835 8.8547718,23.73444 8.4624893,23.715577 8.0630466,23.748627 7.6819004,23.653923 7.4913273,23.60657 7.3066208,23.52631 7.1550086,23.401514 7.0033963,23.276718 6.8865183,23.105104 6.846473,22.912863 c -0.037545,-0.180238 -0.0077,-0.371451 -0.060858,-0.547718 -0.029134,-0.09661 -0.082745,-0.185269 -0.1519856,-0.258671 -0.06924,-0.0734 -0.1538676,-0.131705 -0.2455487,-0.173856 -0.1833624,-0.0843 -0.391656,-0.103188 -0.5925162,-0.0836 -0.4017203,0.03918 -0.7745756,0.224112 -1.1703921,0.303126 -0.4388103,0.0876 -0.8913978,0.06086 -1.3388658,0.06086 H 2.6777317 c -0.086442,0 -0.1735396,0.0049 -0.2589366,-0.0085 -0.042698,-0.0067 -0.085144,-0.01918 -0.121466,-0.04261 -0.036322,-0.02342 -0.066235,-0.05898 -0.076029,-0.101077 -0.00701,-0.03012 -0.00342,-0.06212 0.007,-0.09123 0.010414,-0.02911 0.027404,-0.05553 0.047032,-0.07942 0.039256,-0.04779 0.089067,-0.08603 0.1285419,-0.133633 0.087147,-0.105098 0.1165437,-0.245645 0.1825726,-0.365145 0.018494,-0.03347 0.039985,-0.06551 0.054043,-0.101069 0.00703,-0.01778 0.012153,-0.03642 0.013787,-0.05547 0.00163,-0.01905 -2.988e-4,-0.03855 -0.00697,-0.05646 -0.00389,-0.01045 -0.0094,-0.02045 -0.011126,-0.03146 -8.639e-4,-0.0055 -7.35e-4,-0.01124 0.00103,-0.01653 0.00176,-0.0053 0.00526,-0.0101 0.010097,-0.01287 0.00452,-0.0026 0.00992,-0.0033 0.01511,-0.0029 0.00519,3.56e-4 0.01026,0.0017 0.015319,0.0029 0.1055367,0.02555 0.2176593,0.0051 0.3188859,-0.03418 0.1012266,-0.03929 0.1942028,-0.0967 0.2896895,-0.148395 0.7495548,-0.405837 1.6328717,-0.453134 2.4647302,-0.639004 0.4230823,-0.09453 0.8368703,-0.22639 1.2475796,-0.365145 0.3365306,-0.113694 0.6749703,-0.233838 0.9737206,-0.426003 0.1813004,-0.116618 0.345205,-0.258041 0.5201052,-0.384055 0.1749002,-0.126014 0.364969,-0.238287 0.5753305,-0.285378 0.3292529,-0.07371 0.6694378,0.01834 1.0041501,0.06086 0.544313,0.06914 1.1085,0.0034 1.612724,-0.213002 0.118591,-0.05089 0.234454,-0.110363 0.336326,-0.189583 0.101871,-0.07922 0.18966,-0.179239 0.241821,-0.297277 0.06703,-0.151697 0.07182,-0.324422 0.04886,-0.488674 C 12.288708,17.54348 12.239512,17.38422 12.201935,17.222685 12.044586,16.546274 12.087814,15.818839 11.806361,15.183958 11.541507,14.586519 11.02116,14.145347 10.497925,13.753804 10.07048,13.433942 9.6208148,13.123724 9.3112033,12.688797 9.0739942,12.355577 8.9316142,11.966237 8.7634855,11.593361 8.6851521,11.419633 8.6007927,11.248696 8.5200553,11.076072 8.4200944,10.862347 8.3256118,10.645886 8.2157676,10.437068 8.0377452,10.098641 7.8171559,9.7745608 7.7289073,9.4024896 7.6934485,9.252989 7.6803729,9.0992113 7.6680498,8.9460581 7.584503,7.9077309 7.5331065,6.843665 7.8201936,5.8423237 7.8670544,5.6788762 7.9227036,5.5180901 7.9723375,5.3554633 8.1503489,4.7722043 8.25846,4.148799 8.6113416,3.6514523 8.7528401,3.4520262 8.9290652,3.2803282 9.0982019,3.1037344 c 0.339492,-0.35446 0.6635613,-0.7405236 1.0954361,-0.9737206 0.127824,-0.06902 0.262943,-0.1233128 0.395574,-0.1825726 0.289941,-0.129546 0.568433,-0.2830528 0.852005,-0.4260027 0.313381,-0.1579768 0.634981,-0.3038161 0.973721,-0.395574 0.455939,-0.1235048 0.932077,-0.14635549 1.399723,-0.21300143 0.07697,-0.010969 0.154159,-0.0231655 0.231902,-0.0225884 0.07774,5.7717e-4 0.156931,0.0146145 0.22453,0.0530172 0.08483,0.0481898 0.144961,0.13086473 0.188898,0.21796963 0.04394,0.087105 0.07417,0.1804672 0.115389,0.2688906 0.126303,0.2709381 0.349041,0.4832025 0.517289,0.7302905 0.202205,0.2969568 0.323109,0.6401115 0.456432,0.9737206 0.135897,0.3400483 0.287544,0.6766972 0.365145,1.0345782 0.06022,0.2777083 0.07732,0.5719018 0.213002,0.8215767 0.04346,0.079975 0.09905,0.1552753 0.121715,0.2434302 0.01538,0.059801 0.01477,0.1228453 0.03043,0.1825726 0.02538,0.096822 0.09159,0.1784069 0.121716,0.2738589 0.01558,0.049363 0.02113,0.101223 0.03043,0.1521439 0.04852,0.265574 0.198067,0.5016073 0.273859,0.7607192 0.04425,0.1512632 0.06324,0.3100789 0.121715,0.4564315 0.03055,0.076467 0.07142,0.1483083 0.107161,0.2224922 0.03574,0.074184 0.0667,0.1520572 0.07541,0.2339393 0.0043,0.040401 0.0031,0.081205 0,0.1217151 -0.002,0.025931 -0.0047,0.052726 0.0037,0.077361 0.0042,0.012317 0.01117,0.02386 0.02115,0.032197 0.01,0.00834 0.02307,0.013249 0.03603,0.012157 0.0052,-4.349e-4 0.0102,-0.00179 0.01535,-0.00235 0.0051,-5.635e-4 0.01061,-2.655e-4 0.01508,0.00235 0.0023,0.00138 0.0043,0.00335 0.0058,0.00563 0.0015,0.00228 0.0025,0.00486 0.0031,0.00752 0.0011,0.00533 5.36e-4,0.010892 -7.68e-4,0.01618 -0.0026,0.010576 -0.008,0.020632 -0.0081,0.031525 -6.9e-5,0.00754 0.0025,0.01497 0.0065,0.021328 0.0041,0.00636 0.0096,0.0117 0.01558,0.016233 0.01205,0.00907 0.02616,0.014992 0.03875,0.023297 0.02127,0.014033 0.03768,0.034597 0.04957,0.057134 0.01189,0.022537 0.0195,0.047084 0.02569,0.071804 0.01237,0.04944 0.01982,0.1014746 0.04646,0.144921 0.01514,0.024684 0.03618,0.045722 0.06086,0.060857 0.02476,0.02711 0.04536,0.058008 0.06086,0.091286 0.01924,0.041292 0.03123,0.08711 0.06086,0.1217151 0.02903,0.033905 0.07133,0.052774 0.108611,0.077311 0.01864,0.012268 0.03642,0.02631 0.05015,0.043903 0.01373,0.017593 0.02324,0.03905 0.02382,0.061359 2.62e-4,0.010203 -0.0013,0.020351 -0.0022,0.030521 -8.56e-4,0.010171 -9.52e-4,0.020623 0.0022,0.030337 0.0046,0.014176 0.01625,0.025857 0.03043,0.030429 0.03237,0.019485 0.05532,0.05391 0.06086,0.091286 0.0045,0.030446 -0.002,0.061279 -0.0064,0.091745 -0.0044,0.030467 -0.0064,0.062801 0.0064,0.090827 0.0076,0.016738 0.01994,0.030772 0.03173,0.044874 0.01179,0.014102 0.02342,0.02894 0.02913,0.046412 0.0048,0.014566 0.0051,0.030213 0.0041,0.045502 -0.001,0.015289 -0.0034,0.030473 -0.0041,0.045784 -0.0024,0.056233 0.02035,0.1130667 0.06086,0.1521438"
     id="path5"
     inkscape:path-effect="#path-effect5"
     inkscape:original-d="m 16.370678,25.164592 c -0.05072,0.01014 -0.100425,0.03043 -0.152144,0.03043 -0.08177,0 -0.162194,-0.02106 -0.24343,-0.03043 -0.776943,-0.08965 -0.435226,-0.03662 -1.369295,-0.182573 C 14.053735,24.895758 12.596619,24.65807 12.11065,24.556017 11.297691,24.385295 9.664021,23.975493 8.8547718,23.73444 8.2758717,23.562002 7.3786647,23.312007 6.846473,22.912863 6.8168947,22.890679 6.8958681,22.438647 6.7856155,22.365145 6.012577,21.849786 5.4486519,22.034504 4.6251729,22.152144 c -0.6118195,0.0874 -0.6702958,0.06086 -1.3388658,0.06086 -0.2028585,0 -0.405717,0 -0.6085754,0 -0.1039678,0 -0.5666716,0.123457 -0.4564316,-0.152143 0.04393,-0.109826 0.1259312,-0.200446 0.1825727,-0.304288 0.065163,-0.119466 0.1297652,-0.239728 0.1825726,-0.365145 0.028655,-0.06806 0.044839,-0.140919 0.060858,-0.213002 0.0044,-0.0198 -0.00907,-0.04271 0,-0.06086 0.00454,-0.0091 0.020676,0.0028 0.030429,0 0.2036416,-0.05818 0.4039968,-0.127775 0.6085754,-0.182573 2.5007512,-0.669844 -0.456824,0.176313 2.4647302,-0.639004 0.4173586,-0.116472 0.8393909,-0.219763 1.2475796,-0.365145 0.3337408,-0.118867 0.6594,-0.262556 0.9737206,-0.426003 0.3590989,-0.186732 0.6902692,-0.558933 1.0954357,-0.669433 0.2134415,-0.05821 0.823546,0.04538 1.0041501,0.06086 0.602045,0.0516 1.050116,0.01204 1.612724,-0.213002 0.214882,-0.08595 0.526884,-0.230545 0.578147,-0.48686 0.05969,-0.298453 -0.03715,-0.677358 -0.06086,-0.973721 -0.0474,-0.592497 -0.06945,-1.535952 -0.395574,-2.038727 -0.275388,-0.42456 -0.965013,-1.115351 -1.308436,-1.430154 C 9.7943,13.108814 9.8806777,13.329455 9.3112033,12.688797 8.9659677,12.300407 9.002552,12.151183 8.7634855,11.593361 8.688417,11.418201 8.601635,11.248296 8.5200553,11.076072 8.4190619,10.862864 8.3234211,10.646992 8.2157676,10.437068 7.9906036,9.9979979 7.8492997,9.8690102 7.7289073,9.4024896 7.6905535,9.2538685 7.6865195,9.0984331 7.6680498,8.9460581 7.5433123,7.9169734 7.5678097,6.8518595 7.8201936,5.8423237 7.8614311,5.6773738 7.9230286,5.5181827 7.9723375,5.3554633 8.1437714,4.7897313 8.2840139,4.1550334 8.6113416,3.6514523 8.7576457,3.4263691 8.9120614,3.289875 9.0982019,3.1037344 9.4356717,2.7662647 9.7736797,2.3699898 10.193638,2.1300138 c 0.12609,-0.072052 0.265681,-0.1176262 0.395574,-0.1825726 0.63132,-0.31566 0.161298,-0.1238185 0.852005,-0.4260027 0.0054,-0.00235 0.927152,-0.3836842 0.973721,-0.395574 0.52593,-0.13428008 0.897695,-0.19117412 1.399723,-0.21300143 0.0065,-2.8146e-4 0.406079,-0.0409036 0.456432,0.0304288 0.110363,0.15634823 0.196829,0.32850103 0.304287,0.48686023 0.236828,0.3490092 0.309459,0.3665872 0.517289,0.7302905 0.13148,0.2300895 0.35734,0.7259909 0.456432,0.9737206 0.09907,0.2476873 0.28031,0.7588623 0.365145,1.0345782 0.07649,0.2486087 0.112625,0.5873639 0.213002,0.8215767 0.03574,0.083386 0.09565,0.1565352 0.121715,0.2434302 0.01773,0.059095 0.0127,0.1234776 0.03043,0.1825726 0.02512,0.083722 0.0966,0.1901365 0.121716,0.2738589 0.01486,0.049538 0.01557,0.1026061 0.03043,0.1521439 0.07722,0.2574109 0.196688,0.5034822 0.273859,0.7607192 0.04493,0.1497505 0.07233,0.3082827 0.121715,0.4564315 0.05248,0.1574515 0.141804,0.2933558 0.182573,0.4564315 0.0095,0.038185 -0.0095,0.08353 0,0.1217151 0.0019,0.00753 0.05511,0.1159636 0.06086,0.1217151 0.0072,0.00717 0.02326,-0.00717 0.03043,0 0.01434,0.014344 -0.01125,0.043979 0,0.060858 0.01591,0.02387 0.0461,0.036257 0.06086,0.060858 0.04929,0.082147 0.07243,0.1917115 0.121715,0.2738589 0.01476,0.0246 0.04057,0.040572 0.06086,0.060857 0.02029,0.030429 0.04271,0.059534 0.06086,0.091286 0.0225,0.039384 0.03364,0.085427 0.06086,0.1217151 0.05164,0.068852 0.144083,0.1055933 0.182573,0.1825726 0.0091,0.018144 -0.0064,0.041613 0,0.060858 0.0045,0.013608 0.02029,0.020286 0.03043,0.030429 0.02029,0.030429 0.05081,0.056123 0.06086,0.091286 0.01672,0.058516 -0.01925,0.1248381 0,0.1825727 0.05798,0.1739377 0.0058,-0.1839515 0.06086,0.091286 0.006,0.029838 -0.005,0.061272 0,0.091286 0.01134,0.068016 0.06086,0.095385 0.06086,0.1521438" />
</svg>
