<?xml version="1.0" encoding="UTF-8" standalone="no"?>
<svg
   width="37px"
   height="52px"
   viewBox="0 0 37 52"
   version="1.1"
   id="svg1"
   sodipodi:docname="decentralization.svg"
   inkscape:version="1.3.2 (091e20e, 2023-11-25, custom)"
   xmlns:inkscape="http://www.inkscape.org/namespaces/inkscape"
   xmlns:sodipodi="http://sodipodi.sourceforge.net/DTD/sodipodi-0.dtd"
   xmlns="http://www.w3.org/2000/svg"
   xmlns:svg="http://www.w3.org/2000/svg">
  <sodipodi:namedview
     id="namedview1"
     pagecolor="#ffffff"
     bordercolor="#000000"
     borderopacity="0.25"
     inkscape:showpageshadow="2"
     inkscape:pageopacity="0.0"
     inkscape:pagecheckerboard="0"
     inkscape:deskcolor="#d1d1d1"
     inkscape:zoom="22.557692"
     inkscape:cx="18.485934"
     inkscape:cy="26"
     inkscape:window-width="2560"
     inkscape:window-height="1369"
     inkscape:window-x="-8"
     inkscape:window-y="-8"
     inkscape:window-maximized="1"
     inkscape:current-layer="svg1" />
  <!-- Generator: Sketch 49 (51002) - http://www.bohemiancoding.com/sketch -->
  <title
     id="title1">Resilience and decentralization icon</title>
  <desc
     id="desc1">Created with Sketch.</desc>
  <defs
     id="defs1">
    <inkscape:path-effect
       effect="spiro"
       id="path-effect22"
       is_visible="true"
       lpeversion="1" />
    <inkscape:path-effect
       effect="spiro"
       id="path-effect21"
       is_visible="true"
       lpeversion="1" />
    <inkscape:path-effect
       effect="spiro"
       id="path-effect20"
       is_visible="true"
       lpeversion="1" />
    <inkscape:path-effect
       effect="spiro"
       id="path-effect19"
       is_visible="true"
       lpeversion="1" />
    <inkscape:path-effect
       effect="spiro"
       id="path-effect18"
       is_visible="true"
       lpeversion="1" />
    <inkscape:path-effect
       effect="spiro"
       id="path-effect17"
       is_visible="true"
       lpeversion="1" />
    <inkscape:path-effect
       effect="spiro"
       id="path-effect16"
       is_visible="true"
       lpeversion="1" />
    <inkscape:path-effect
       effect="spiro"
       id="path-effect15"
       is_visible="true"
       lpeversion="1" />
    <inkscape:path-effect
       effect="spiro"
       id="path-effect14"
       is_visible="true"
       lpeversion="1" />
    <inkscape:path-effect
       effect="spiro"
       id="path-effect13"
       is_visible="true"
       lpeversion="1" />
    <inkscape:path-effect
       effect="spiro"
       id="path-effect12"
       is_visible="true"
       lpeversion="1" />
    <inkscape:path-effect
       effect="spiro"
       id="path-effect11"
       is_visible="true"
       lpeversion="1" />
    <inkscape:path-effect
       effect="spiro"
       id="path-effect10"
       is_visible="true"
       lpeversion="1" />
    <inkscape:path-effect
       effect="spiro"
       id="path-effect9"
       is_visible="true"
       lpeversion="1" />
    <inkscape:path-effect
       effect="spiro"
       id="path-effect8"
       is_visible="true"
       lpeversion="1" />
    <inkscape:path-effect
       effect="spiro"
       id="path-effect7"
       is_visible="true"
       lpeversion="1" />
    <inkscape:path-effect
       effect="spiro"
       id="path-effect6"
       is_visible="true"
       lpeversion="1" />
    <inkscape:path-effect
       effect="spiro"
       id="path-effect5"
       is_visible="true"
       lpeversion="1" />
    <inkscape:path-effect
       effect="spiro"
       id="path-effect4"
       is_visible="true"
       lpeversion="1" />
    <inkscape:path-effect
       effect="spiro"
       id="path-effect3"
       is_visible="true"
       lpeversion="1" />
    <inkscape:path-effect
       effect="spiro"
       id="path-effect2"
       is_visible="true"
       lpeversion="1" />
    <inkscape:path-effect
       effect="spiro"
       id="path-effect1"
       is_visible="true"
       lpeversion="1" />
  </defs>
  <g
     id="Innovation"
     stroke="none"
     stroke-width="1"
     fill="none"
     fill-rule="evenodd"
     style="display:none">
    <g
       id="22.01.18-Bitcoin.org_Innovation_Desktop-1200px--"
       transform="translate(-382,-2486)">
      <g
         id="//contenct"
         transform="translate(215,697)">
        <g
           id="box10"
           transform="translate(0,1755)">
          <g
             id="Resilience-and-decentralization-icon"
             transform="translate(155,30)">
            <g
               id="g1">
              <rect
                 id="Rectangle-2"
                 x="0"
                 y="0"
                 width="60"
                 height="60" />
              <g
                 id="Group-4"
                 transform="translate(12,4)">
                <polyline
                   id="Path-2"
                   stroke="#1c3c55"
                   points="13.3763516 30.9120457 26.7453517 8.1216148 26.7453517 2.03473783" />
                <path
                   d="M 26.515452,8.428185 31.762798,6.0362917"
                   id="Path-3"
                   stroke="#1c3c55" />
                <path
                   d="M 13.332182,30.330261 1.3145823,16.446399"
                   id="Path-5"
                   stroke="#1c3c55" />
                <path
                   d="M 13.522244,30.463661 3.3601977,28.564384"
                   id="Path-6"
                   stroke="#1c3c55" />
                <path
                   d="M 13.746659,30.25263 8.8110896,38.99174"
                   id="Path-7"
                   stroke="#1c3c55" />
                <path
                   d="M 13.461121,30.69343 25.358259,23.252923"
                   id="Path-10"
                   stroke="#1c3c55" />
                <path
                   d="M 13.698029,30.62963 31.122567,26.323353"
                   id="Path-11"
                   stroke="#1c3c55" />
                <path
                   d="M 14.089752,30.808538 29.346429,43.154507"
                   id="Path-12"
                   stroke="#1c3c55" />
                <path
                   d="m 29.157566,43.026739 0.513663,6.403368"
                   id="Path-13"
                   stroke="#1c3c55" />
                <path
                   d="m 29.100135,42.918938 h 5.802248"
                   id="Path-14"
                   stroke="#1c3c55" />
                <path
                   d="M 13.825067,30.192621 11.54585,12.531202"
                   id="Path-15"
                   stroke="#1c3c55" />
                <circle
                   id="Oval-4"
                   fill="#ff9500"
                   cx="1.5"
                   cy="16.5"
                   r="1.5" />
                <circle
                   id="Oval-4-Copy"
                   fill="#ff9500"
                   cx="11.5"
                   cy="12.5"
                   r="1.5" />
                <circle
                   id="Oval-4-Copy-2"
                   fill="#ff9500"
                   cx="2.5"
                   cy="28.5"
                   r="1.5" />
                <circle
                   id="Oval-4-Copy-3"
                   fill="#ff9500"
                   cx="25.5"
                   cy="23.5"
                   r="1.5" />
                <circle
                   id="Oval-4-Copy-4"
                   fill="#ff9500"
                   cx="13.5"
                   cy="30.5"
                   r="1.5" />
                <circle
                   id="Oval-4-Copy-5"
                   fill="#ff9500"
                   cx="31.5"
                   cy="26.5"
                   r="1.5" />
                <circle
                   id="Oval-4-Copy-6"
                   fill="#ff9500"
                   cx="26.5"
                   cy="1.5"
                   r="1.5" />
                <circle
                   id="Oval-4-Copy-7"
                   fill="#ff9500"
                   cx="32.5"
                   cy="5.5"
                   r="1.5" />
                <circle
                   id="Oval-4-Copy-8"
                   fill="#ff9500"
                   cx="8.5"
                   cy="39.5"
                   r="1.5" />
                <circle
                   id="Oval-4-Copy-10"
                   fill="#ff9500"
                   cx="29.5"
                   cy="50.5"
                   r="1.5" />
                <circle
                   id="Oval-4-Copy-11"
                   fill="#ff9500"
                   cx="35.5"
                   cy="42.5"
                   r="1.5" />
              </g>
            </g>
          </g>
        </g>
      </g>
    </g>
  </g>
  <path
     style="fill:none;fill-opacity:0.501961;stroke:#1c3c55;stroke-width:1.079"
     d="M 12.944587,29.790281 C 12.513939,29.462384 12.070157,29.151737 11.614663,28.859335 10.934297,28.422577 10.228577,28.026981 9.5311168,27.618073 9.3930554,27.53713 9.2545793,27.455148 9.1321398,27.352089 8.8134662,27.083856 8.6271365,26.695479 8.4228474,26.332481 8.2759918,26.071535 8.1153903,25.81801 7.9352089,25.578858 7.7538341,25.338122 7.5529984,25.112417 7.3747591,24.86935 7.1965199,24.626283 7.0395955,24.362308 6.9599318,24.071611 6.9200895,23.926224 6.9001285,23.776262 6.8712702,23.628303 6.7894846,23.208981 6.6355178,22.804791 6.4279625,22.431373 6.3282229,22.251929 6.2162219,22.079489 6.1176471,21.899403 5.9957611,21.676729 5.8948206,21.443133 5.7741236,21.219813 5.6534266,20.996493 5.5106986,20.781013 5.3196931,20.613811 5.1055045,20.426315 4.8344536,20.302593 4.6547315,20.081841 4.5816363,19.992058 4.5244031,19.887015 4.4330776,19.815857 4.3745966,19.77029 4.3033461,19.739709 4.2557545,19.682864 c -0.025766,-0.03078 -0.043157,-0.06777 -0.056175,-0.105735 -0.013018,-0.03797 -0.021909,-0.0772 -0.032486,-0.115918 -0.021625,-0.07916 -0.050633,-0.156885 -0.093744,-0.226705 -0.043111,-0.06982 -0.1009317,-0.131671 -0.1722404,-0.172272 -0.023356,-0.0133 -0.04799,-0.02425 -0.071301,-0.03763 -0.023311,-0.01338 -0.045598,-0.02951 -0.061692,-0.05103 -0.014112,-0.01888 -0.02294,-0.04122 -0.029188,-0.06394 -0.00625,-0.02273 -0.010065,-0.04604 -0.015142,-0.06905 -0.04223,-0.191403 -0.1771821,-0.360093 -0.3546462,-0.443308"
     id="path1"
     inkscape:path-effect="#path-effect1"
     inkscape:original-d="M 12.944587,29.790281 C 12.48506,29.501883 12.070739,29.153577 11.614663,28.859335 10.969651,28.443198 10.166491,28.002642 9.5311168,27.618073 9.3943763,27.535309 9.253497,27.456109 9.1321398,27.352089 8.9513911,27.197161 8.5716565,26.547427 8.4228474,26.332481 8.1615067,25.954989 8.2614083,26.068157 7.9352089,25.578858 7.6073807,25.087115 7.1873632,24.623945 6.9599318,24.071611 6.9025545,23.932266 6.9189244,23.771266 6.8712702,23.628303 6.7356562,23.221461 6.6088312,22.823255 6.4279625,22.431373 6.0952323,21.710457 6.5134408,22.634449 6.1176471,21.899403 5.8790453,21.456286 5.6861027,20.98022 5.3196931,20.613811 4.7200805,20.014198 5.3104613,20.687131 4.6547315,20.081841 4.5699267,20.00356 4.5146858,19.897465 4.4330776,19.815857 4.3808333,19.763612 4.3030543,19.739624 4.2557545,19.682864 4.204811,19.621732 4.2148386,19.524872 4.1670929,19.461211 4.0765472,19.340483 4.0018088,19.162934 3.9011083,19.062234 3.8634344,19.02456 3.801399,19.015176 3.7681159,18.973572 3.7389247,18.937083 3.7469691,18.881152 3.7237852,18.84058 3.6338502,18.683193 3.497189,18.525322 3.369139,18.397272" />
  <path
     style="fill:none;fill-opacity:0.501961;stroke:#1c3c55;stroke-width:1.079"
     d="m 13.210571,30.011935 c 0.213283,-1.128437 0.167441,-2.305048 -0.132992,-3.41347 -0.201921,-0.74497 -0.515235,-1.454001 -0.797954,-2.172208 -0.148989,-0.378484 -0.289893,-0.760748 -0.398977,-1.1526 -0.109638,-0.393842 -0.186726,-0.79587 -0.265985,-1.196931 -0.109163,-0.552376 -0.223059,-1.105366 -0.398977,-1.640238 -0.05087,-0.154684 -0.107313,-0.309597 -0.12249,-0.471723 -0.0076,-0.08106 -0.0046,-0.163565 0.0145,-0.242708 0.01911,-0.07914 0.05475,-0.154914 0.107989,-0.216516 0.02734,-0.03163 0.05896,-0.05923 0.08866,-0.08866 0.119792,-0.118685 0.208435,-0.268539 0.254761,-0.430682 0.04633,-0.162142 0.05023,-0.336207 0.01122,-0.500264"
     id="path2"
     inkscape:path-effect="#path-effect2"
     inkscape:original-d="m 13.210571,30.011935 c -0.03868,-1.138143 0.113614,-2.290043 -0.132992,-3.41347 -0.192455,-0.876737 -0.458831,-1.284029 -0.797954,-2.172208 -0.145023,-0.379822 -0.287285,-0.761676 -0.398977,-1.1526 -0.112281,-0.392984 -0.158446,-0.802622 -0.265985,-1.196931 -0.147226,-0.539828 -0.363853,-1.078252 -0.398977,-1.640238 -0.0048,-0.0776 -0.03417,-0.845526 0,-0.930947 0.01552,-0.03881 0.06716,-0.05282 0.08866,-0.08866 0.134262,-0.22377 0.214821,-0.675128 0.265984,-0.930946" />
  <path
     style="fill:none;fill-opacity:0.501961;stroke:#1c3c55;stroke-width:1.079"
     d="m 14.363171,31.829497 c 0.230092,-0.91779 0.466531,-1.833988 0.709293,-2.748508 0.122406,-0.46112 0.246528,-0.922176 0.398977,-1.374254 0.04035,-0.119671 0.08273,-0.238788 0.132992,-0.354646 0.255029,-0.587834 0.701001,-1.067832 1.063939,-1.595908 0.341707,-0.497185 0.611297,-1.039931 0.930946,-1.551577 0.175967,-0.281662 0.367144,-0.553961 0.531969,-0.842285 0.315163,-0.551307 0.529658,-1.153326 0.797954,-1.7289 0.262617,-0.56339 0.577669,-1.103321 0.797954,-1.68457 0.09441,-0.24912 0.17097,-0.504732 0.265985,-0.753623 0.118501,-0.310414 0.265829,-0.610773 0.354646,-0.930946 0.08059,-0.290522 0.111586,-0.592377 0.177323,-0.886616 0.07038,-0.315036 0.180217,-0.619746 0.265985,-0.930946 0.215719,-0.782712 0.277438,-1.599092 0.443308,-2.393862 0.176065,-0.843622 0.470156,-1.667275 0.531969,-2.526854 0.02834,-0.394041 0.0075,-0.79294 0.0786,-1.181549 0.03555,-0.194304 0.0945,-0.3856634 0.190091,-0.5585195 0.09559,-0.172856 0.229082,-0.3269424 0.396268,-0.4321398 0.230368,-0.144953 0.509476,-0.1900119 0.753623,-0.3103154 0.128045,-0.063094 0.244987,-0.1461569 0.365961,-0.2219312 0.120973,-0.075774 0.248491,-0.1453018 0.387662,-0.1770458 0.188091,-0.042902 0.383905,-0.014242 0.5763,0 0.590846,0.043736 1.181974,-0.050895 1.773231,-0.088662 0.192325,-0.012285 0.385311,-0.018582 0.5763,-0.044331 0.08058,-0.010864 0.162832,-0.025953 0.232418,-0.068021 0.03479,-0.021034 0.0659,-0.048786 0.08815,-0.082814 0.02225,-0.034028 0.03533,-0.074513 0.03407,-0.1151504 -4.57e-4,-0.014809 -0.0028,-0.029776 0,-0.044331 0.0024,-0.012588 0.0086,-0.024347 0.01719,-0.033846 0.0086,-0.0095 0.01955,-0.016764 0.03143,-0.02156 0.02376,-0.00959 0.05064,-0.00921 0.0756,-0.00337 0.0499,0.011674 0.09279,0.043684 0.141772,0.058775 0.06639,0.020454 0.138674,0.00821 0.204472,-0.014055 0.0658,-0.022269 0.128084,-0.054271 0.194505,-0.074607 0.142383,-0.043592 0.294966,-0.031376 0.443308,-0.044331 0.360315,-0.031467 0.688117,-0.2099717 1.019608,-0.3546462 0.425209,-0.185576 0.87278,-0.3198475 1.329923,-0.398977"
     id="path3"
     inkscape:path-effect="#path-effect3"
     inkscape:original-d="m 14.363171,31.829497 c 0.304716,-0.897789 0.479567,-1.829603 0.709293,-2.748508 0.118321,-0.473285 0.217634,-0.920898 0.398977,-1.374254 0.04689,-0.117224 0.07215,-0.24402 0.132992,-0.354646 0.308114,-0.560207 0.709292,-1.063939 1.063939,-1.595908 1.192322,-1.788484 -0.06457,0.155018 0.930946,-1.551577 0.16732,-0.286836 0.371352,-0.551644 0.531969,-0.842285 0.144769,-0.261963 0.681404,-1.469899 0.797954,-1.7289 0.254974,-0.566608 0.553199,-1.113474 0.797954,-1.68457 0.104938,-0.244855 0.173891,-0.503653 0.265985,-0.753623 0.114798,-0.311596 0.261368,-0.612246 0.354646,-0.930946 0.08466,-0.289257 0.105907,-0.593808 0.177323,-0.886616 0.07647,-0.313541 0.191233,-0.61699 0.265985,-0.930946 0.18783,-0.788886 0.275067,-1.600726 0.443308,-2.393862 0.178574,-0.84185 0.354626,-1.684475 0.531969,-2.526854 0.09108,-0.432644 0.340282,-1.901642 0.664962,-2.1722083 0.190828,-0.1590236 0.543412,-0.226231 0.753623,-0.3103154 0.198427,-0.079371 0.55126,-0.3751696 0.753623,-0.398977 0.190784,-0.022445 0.384337,0.00724 0.5763,0 0.591394,-0.022317 1.182361,-0.055216 1.773231,-0.088662 0.19236,-0.010888 0.387765,-0.00464 0.5763,-0.044331 0.193756,-0.040791 0.285562,-0.1278166 0.354646,-0.2659847 0.0066,-0.013217 -0.01045,-0.033882 0,-0.044331 0.06269,-0.062693 0.178354,0.013482 0.265985,0 0.134652,-0.020716 0.264408,-0.067414 0.398977,-0.088662 0.146689,-0.023161 0.298902,-0.00967 0.443308,-0.044331 0.338098,-0.081144 0.696331,-0.216099 1.019608,-0.3546462 0.422857,-0.1812244 0.885205,-0.2877975 1.329923,-0.398977" />
  <path
     style="fill:none;fill-opacity:0.501961;stroke:#1c3c55;stroke-width:1.079"
     d="m 26.997442,8.3785166 c -0.05137,-0.2180106 -0.08111,-0.441109 -0.08866,-0.6649616 -0.01196,-0.354624 0.0316,-0.710523 0,-1.0639386 -0.01262,-0.1411839 -0.0372,-0.2812026 -0.04631,-0.4226566 -0.0091,-0.141454 -0.0022,-0.2864305 0.04631,-0.4196282 0.04425,-0.1215684 0.121631,-0.2294448 0.16116,-0.3526293 0.01976,-0.061592 0.02972,-0.127361 0.01981,-0.1912843 -0.0099,-0.063923 -0.04107,-0.1259071 -0.09231,-0.1653788 -0.03772,-0.029053 -0.08538,-0.044941 -0.132992,-0.044331"
     id="path4"
     inkscape:path-effect="#path-effect4"
     inkscape:original-d="m 26.997442,8.3785166 c 0.06209,-0.2548878 -0.06463,-0.424623 -0.08866,-0.6649616 -0.03469,-0.3469389 0,-0.7152894 0,-1.0639386 0,-0.2719811 -0.03007,-0.5716845 0,-0.8422848 0.0061,-0.055088 0.146161,-0.6517933 0.08866,-0.7092924 -0.03304,-0.033042 -0.0912,-0.023433 -0.132992,-0.044331" />
  <path
     style="fill:none;fill-opacity:0.501961;stroke:#1c3c55;stroke-width:1.079"
     d="m 13.831202,30.100597 c 0.332108,-0.511059 0.754294,-0.963401 1.241262,-1.329924 0.744172,-0.560111 1.629822,-0.91603 2.349531,-1.507246 0.0985,-0.08091 0.195139,-0.16703 0.310315,-0.221654 0.141943,-0.06732 0.302895,-0.08234 0.45999,-0.08316 0.157095,-8.25e-4 0.314778,0.01147 0.470957,-0.0055 0.307432,-0.03339 0.590327,-0.177423 0.886615,-0.265985 0.25851,-0.07727 0.527689,-0.112309 0.789318,-0.178252 0.261629,-0.06594 0.522772,-0.167404 0.717928,-0.353717 0.09249,-0.0883 0.168125,-0.194189 0.221654,-0.310316"
     id="path5"
     inkscape:path-effect="#path-effect5"
     inkscape:original-d="m 13.831202,30.100597 c 0.372362,-0.486981 0.754747,-0.946609 1.241262,-1.329924 0.72675,-0.57259 1.570747,-1.011656 2.349531,-1.507246 0.107243,-0.06825 0.194899,-0.168385 0.310315,-0.221654 0.275377,-0.127097 0.645603,-0.0479 0.930947,-0.08866 0.22998,-0.03286 0.669757,-0.196985 0.886615,-0.265985 0.479158,-0.152459 1.100454,-0.206535 1.507246,-0.531969 0.03928,-0.03142 0.182641,-0.251795 0.221654,-0.310316" />
  <path
     style="fill:none;fill-opacity:0.501961;stroke:#1c3c55;stroke-width:1.079"
     d="m 13.831202,30.455243 c 0.845833,-0.186226 1.706521,-0.304941 2.571185,-0.354646 1.136614,-0.06534 2.276351,-0.01154 3.41347,0.04433 0.457824,0.0225 0.915878,0.04533 1.374254,0.04433 0.17733,-3.89e-4 0.354692,-0.0043 0.531969,0 0.02955,7.24e-4 0.05915,0.0017 0.08866,0 0.137514,-0.0078 0.265846,-0.07232 0.379099,-0.15071 0.113253,-0.07839 0.215737,-0.171643 0.330193,-0.248267 0.203644,-0.136332 0.438754,-0.216043 0.664962,-0.310315 0.543702,-0.226588 1.0448,-0.542067 1.551577,-0.842285 0.552059,-0.327043 1.113918,-0.637544 1.684569,-0.930946"
     id="path6"
     inkscape:path-effect="#path-effect6"
     inkscape:original-d="m 13.831202,30.455243 c 0.834336,-0.406998 1.634397,-0.354646 2.571185,-0.354646 1.137919,0 2.275746,0.02326 3.41347,0.04433 0.458244,0.0085 0.916055,0.03367 1.374254,0.04433 0.177275,0.0041 0.354646,0 0.531969,0 0.02955,0 0.06223,0.01322 0.08866,0 0.242629,-0.121315 0.466662,-0.277662 0.709292,-0.398977 0.218778,-0.109389 0.447702,-0.19794 0.664962,-0.310315 0.519139,-0.268521 1.020996,-0.594681 1.551577,-0.842285 0.60116,-0.280541 1.209114,-0.455491 1.684569,-0.930946" />
  <path
     style="fill:none;fill-opacity:0.501961;stroke:#1c3c55;stroke-width:1.079"
     d="m 13.74254,31.253197 c 0.604053,0.384125 1.287734,0.642404 1.994885,0.753623 0.425939,0.06699 0.862328,0.08181 1.275979,0.203481 0.206826,0.06084 0.407324,0.148882 0.581005,0.276604 0.173681,0.127722 0.319918,0.296629 0.403886,0.495192 0.106343,0.251474 0.108303,0.533787 0.177323,0.797954 0.106913,0.409199 0.370844,0.760018 0.664962,1.063939 0.12393,0.128061 0.25521,0.25109 0.354646,0.398977 0.08493,0.126309 0.144545,0.267749 0.221654,0.398977 0.02882,0.04904 0.06012,0.09673 0.08543,0.147678 0.02531,0.05095 0.04465,0.105827 0.04757,0.162637 0.0036,0.07068 -0.01858,0.141061 -0.05418,0.202232 -0.0356,0.06117 -0.0841,0.113886 -0.135853,0.162166 -0.103498,0.09656 -0.22357,0.179923 -0.297608,0.300564 -0.05436,0.08857 -0.08038,0.193435 -0.07893,0.297348 0.0014,0.103913 0.02981,0.206743 0.07719,0.299236 0.09476,0.184987 0.261958,0.324651 0.44505,0.423024 0.265917,0.142874 0.567777,0.206775 0.86837,0.234498 0.300593,0.02772 0.603177,0.02094 0.904861,0.03149 0.940576,0.03288 1.887741,0.241111 2.704178,0.709293 0.484073,0.277589 0.916786,0.642525 1.418585,0.886615 0.190294,0.09256 0.389233,0.167061 0.5763,0.265985 0.331524,0.175315 0.618521,0.423336 0.935959,0.623028 0.158719,0.09984 0.325995,0.187969 0.504331,0.245909 0.178336,0.05794 0.368504,0.08505 0.554595,0.06201 0.05848,-0.0072 0.117508,-0.01939 0.175829,-0.01095 0.02916,0.0042 0.05788,0.01376 0.08215,0.03047 0.02427,0.01671 0.04387,0.04092 0.05234,0.06914 0.0064,0.02135 0.0063,0.04409 0.0047,0.06632 -0.0017,0.02222 -0.0049,0.04439 -0.0047,0.06667 7.4e-4,0.06589 0.03219,0.128386 0.07454,0.17887 0.04234,0.05048 0.09529,0.09076 0.147117,0.131445 0.156424,0.122774 0.307667,0.253957 0.434227,0.407334 0.12656,0.153376 0.228194,0.330365 0.275065,0.523613 0.04902,0.202123 0.03678,0.413884 0.01266,0.620463 -0.02412,0.20658 -0.05988,0.412835 -0.05699,0.620798 0.0031,0.222423 0.05013,0.448239 0,0.664962 -0.03162,0.136695 -0.100609,0.262461 -0.132992,0.398977 -0.05176,0.218189 -0.0068,0.446616 0.04433,0.664962 0.02776,0.118653 0.05732,0.236887 0.08866,0.354646"
     id="path7"
     inkscape:path-effect="#path-effect7"
     inkscape:original-d="m 13.74254,31.253197 c 0.603891,0.397525 1.311213,0.55641 1.994885,0.753623 0.347176,0.100147 2.040091,0.445407 2.26087,0.975277 0.104797,0.251514 0.09116,0.539464 0.177323,0.797954 0.132479,0.397437 0.407124,0.745433 0.664962,1.063939 0.111958,0.138301 0.250465,0.254726 0.354646,0.398977 0.08907,0.123335 0.149525,0.265024 0.221654,0.398977 0.05335,0.09909 0.179561,0.207865 0.132992,0.310315 -0.113741,0.25023 -0.400718,0.4042 -0.487638,0.664962 -0.127212,0.381636 0.116873,0.835988 0.443307,1.019608 0.474301,0.266794 1.244831,0.190499 1.773231,0.265984 0.912147,0.130307 1.8195,0.449093 2.704178,0.709293 0.521825,0.153478 0.984453,0.626137 1.418585,0.886615 0.181422,0.108854 0.385432,0.1747 0.5763,0.265985 0.662199,0.316704 1.312324,0.657922 1.994885,0.930946 0.09988,0.03995 0.211436,0.04628 0.310315,0.08866 0.04075,0.01746 -0.02153,0.09424 0,0.132992 0.06173,0.111119 0.145384,0.208623 0.221654,0.310315 0.09817,0.130899 0.667344,0.84705 0.709292,0.930947 0.162546,0.325091 -0.0079,0.913765 -0.04433,1.241261 -0.02297,0.206713 0.04141,0.457937 0,0.664962 -0.0399,0.199489 -0.09753,0.132992 -0.132992,0.398977 -0.02548,0.191074 -0.0046,0.469058 0.04433,0.664962 0.05525,0.220995 0.08866,0.202005 0.08866,0.354646" />
  <path
     style="fill:none;fill-opacity:0.501961;stroke:#1c3c55;stroke-width:1.079"
     d="m 29.080989,41.759591 c 0.50235,-0.151319 1.049227,-0.151319 1.551577,0 0.08681,0.02615 0.176222,0.05708 0.265985,0.04433 0.0074,-0.0011 0.01478,-0.0024 0.02224,-0.0028 0.0075,-4.1e-4 0.0151,1.52e-4 0.02209,0.0028 0.008,0.0031 0.0149,0.0088 0.02009,0.01567 0.0052,0.0069 0.0088,0.01481 0.01148,0.02299 0.0054,0.01636 0.0071,0.03375 0.01276,0.05 0.006,0.01733 0.01646,0.03301 0.02959,0.04583 0.01313,0.01282 0.02891,0.02281 0.04583,0.02989 0.03385,0.01417 0.07167,0.01664 0.108177,0.0129 0.07301,-0.0075 0.142201,-0.03869 0.215379,-0.0443 0.07636,-0.0058 0.152312,0.01665 0.222355,0.04762 0.07004,0.03097 0.136036,0.07051 0.20601,0.101631 0.06997,0.03112 0.145786,0.05395 0.222184,0.04861 0.0382,-0.0027 0.07612,-0.01252 0.109759,-0.03081 0.03364,-0.01829 0.06288,-0.0452 0.08198,-0.0784 0.0054,-0.0095 0.01012,-0.01949 0.01698,-0.02799 0.0034,-0.0043 0.0074,-0.0081 0.01202,-0.01103 0.0046,-0.0029 0.0099,-0.0049 0.01533,-0.0053 0.0076,-5.54e-4 0.015,0.0019 0.02247,0.0033 0.0037,6.79e-4 0.0076,0.0011 0.01133,6.88e-4 0.0038,-3.95e-4 0.0075,-0.0016 0.01053,-0.004 0.0031,-0.0024 0.0053,-0.006 0.0064,-0.0098 0.0011,-0.0038 0.0012,-0.0079 7.19e-4,-0.01182 -0.001,-0.0079 -0.0045,-0.01521 -0.0072,-0.0227 -0.0078,-0.02185 -0.009,-0.0459 -0.0042,-0.06859 0.0048,-0.0227 0.01549,-0.04403 0.0302,-0.06197 0.02942,-0.03588 0.07413,-0.05733 0.120053,-0.06396 0.04592,-0.0066 0.09301,6.02e-4 0.137223,0.01469 0.04421,0.01409 0.08594,0.03487 0.127273,0.05597 0.04133,0.02109 0.0826,0.04264 0.126241,0.05841 0.04364,0.01576 0.09005,0.02566 0.136347,0.02254 0.04629,-0.0031 0.09257,-0.02008 0.125884,-0.05237 0.01666,-0.01615 0.02988,-0.03595 0.03765,-0.05781 0.0078,-0.02186 0.01,-0.04577 0.0056,-0.06855 -0.0029,-0.01521 -0.0087,-0.02981 -0.01086,-0.04515 -0.0011,-0.0077 -0.0012,-0.01554 4.06e-4,-0.02311 0.0016,-0.0076 0.005,-0.01486 0.01046,-0.0204 0.0054,-0.0056 0.01269,-0.0092 0.02027,-0.01093 0.0076,-0.0018 0.0155,-0.0017 0.02321,-6.74e-4 0.01542,0.0021 0.03003,0.0081 0.04518,0.0116 0.04098,0.0096 0.08601,1.09e-4 0.119676,-0.02514 0.03367,-0.02525 0.05536,-0.06582 0.05765,-0.107849"
     id="path8"
     inkscape:path-effect="#path-effect8"
     inkscape:original-d="m 29.080989,41.759591 c 0.515641,0.02636 1.036169,-0.03032 1.551577,0 0.08973,0.0053 0.177004,0.03162 0.265985,0.04433 0.01463,0.0021 0.03388,-0.01045 0.04433,0 0.02216,0.02217 0.02216,0.0665 0.04433,0.08866 0.02052,0.02052 0.316414,0.02782 0.398977,0.04433 0.149231,0.02985 0.721626,0.118826 0.842285,0.08866 0.02027,-0.0051 0.02564,-0.03499 0.04433,-0.04433 0.01322,-0.0066 0.03388,0.01045 0.04433,0 0.01045,-0.01045 -0.01322,-0.03772 0,-0.04433 0.180955,-0.09048 0.719575,-0.03759 0.842284,-0.221654 0.01639,-0.02459 -0.01322,-0.06223 0,-0.08866 0.01322,-0.02643 0.06223,0.01322 0.08866,0 0.05798,-0.02899 0.129921,-0.08559 0.177323,-0.132992" />
  <path
     style="fill:none;fill-opacity:0.501961;stroke:#1c3c55;stroke-width:1.079"
     d="m 12.58994,30.499574 c -0.09844,0.366984 -0.187144,0.73658 -0.265984,1.108269 -0.110182,0.519455 -0.206385,1.056837 -0.487639,1.507247 -0.06735,0.107863 -0.144508,0.209224 -0.221654,0.310315 -0.06101,0.07994 -0.122311,0.160167 -0.17147,0.247895 -0.04916,0.08773 -0.08609,0.183865 -0.09451,0.284074 -0.0025,0.02948 -0.0025,0.05918 0,0.08866 -5.35e-4,0.04749 -0.01627,0.09468 -0.04433,0.132992 -0.01596,0.02179 -0.03563,0.04058 -0.05276,0.06147 -0.01713,0.02089 -0.03203,0.04479 -0.0359,0.07152 -0.0042,0.02932 0.0051,0.05948 0,0.08866 -0.0033,0.01849 -0.01225,0.0356 -0.02365,0.05052 -0.0114,0.01492 -0.02517,0.02784 -0.03912,0.0404 -0.01395,0.01256 -0.02819,0.02489 -0.04072,0.03887 -0.01253,0.01398 -0.02339,0.02978 -0.0295,0.04753 -0.0073,0.02112 -0.0075,0.044 -0.0057,0.06627 0.0018,0.02226 0.0054,0.0444 0.0057,0.06673 6.44e-4,0.05059 -0.0163,0.100182 -0.04092,0.144387 -0.02462,0.04421 -0.05676,0.0837 -0.08893,0.122744 -0.03218,0.03905 -0.06473,0.07813 -0.09033,0.121775 -0.02561,0.04364 -0.04417,0.09249 -0.0458,0.143064 -0.0014,0.04446 0.01012,0.08968 0,0.132992 -0.008,0.03416 -0.02901,0.06411 -0.05425,0.08847 -0.02524,0.02436 -0.05474,0.04376 -0.08377,0.06345 -0.02903,0.01969 -0.05803,0.04001 -0.0818,0.0658 -0.02377,0.02579 -0.04222,0.05775 -0.04616,0.0926 -0.0025,0.02216 8.77e-4,0.04449 0.0032,0.06666 0.0023,0.02218 0.0035,0.04506 -0.0032,0.06633 -0.0057,0.018 -0.01672,0.0339 -0.02959,0.04771 -0.01286,0.01381 -0.02757,0.02574 -0.04191,0.038 -0.01434,0.01226 -0.02846,0.02501 -0.03981,0.04008 -0.01135,0.01508 -0.01988,0.03274 -0.02168,0.05152 -0.0014,0.01484 0.0014,0.02971 0.0031,0.04451 0.0017,0.0148 0.0024,0.03027 -0.0031,0.04415 -0.0039,0.0099 -0.01068,0.0184 -0.01849,0.02559 -0.0078,0.0072 -0.01666,0.01314 -0.02549,0.01902 -0.0088,0.0059 -0.01772,0.01177 -0.02563,0.01885 -0.0079,0.0071 -0.01488,0.01544 -0.01904,0.0252 -0.0044,0.01038 -0.0055,0.02194 -0.0048,0.0332 7.03e-4,0.01126 0.0031,0.02234 0.0055,0.03337 0.0024,0.01103 0.0047,0.02214 0.0051,0.03342 4.72e-4,0.01127 -9.74e-4,0.02282 -0.0058,0.03301 -0.0045,0.0095 -0.01182,0.01747 -0.01975,0.02443 -0.0079,0.007 -0.01656,0.01306 -0.02458,0.0199 -0.03835,0.03268 -0.0614,0.08261 -0.0614,0.132993 0,0.05038 0.02305,0.100312 0.0614,0.132992"
     id="path9"
     inkscape:path-effect="#path-effect9"
     inkscape:original-d="m 12.58994,30.499574 c -0.02575,0.383103 -0.166051,0.741847 -0.265984,1.108269 -0.138064,0.506233 -0.226715,1.043382 -0.487639,1.507247 -0.06232,0.110791 -0.158587,0.199947 -0.221654,0.310315 -9.18e-4,0.0016 -0.24725,0.475767 -0.265984,0.531969 -0.0093,0.02804 0,0.05911 0,0.08866 -0.01478,0.04433 -0.02698,0.08961 -0.04433,0.132992 -0.01979,0.04947 -0.07181,0.08245 -0.08866,0.132992 -0.0093,0.02804 0.0093,0.06063 0,0.08866 -0.02336,0.07009 -0.09995,0.111239 -0.132992,0.177323 -0.01983,0.03965 0.01402,0.09094 0,0.132992 -0.03496,0.104893 -0.225377,0.410145 -0.265985,0.53197 -0.01402,0.04206 0.01075,0.08998 0,0.132992 -0.02182,0.0873 -0.23076,0.228126 -0.265984,0.310316 -0.01746,0.04075 0.0087,0.08952 0,0.132992 -0.01906,0.09532 -0.108036,0.102452 -0.132993,0.177323 -0.0093,0.02804 0.01322,0.06223 0,0.08866 -0.01869,0.03738 -0.07314,0.04986 -0.08866,0.08866 -0.01646,0.04116 0.01075,0.08998 0,0.132992 -0.0051,0.02027 -0.03772,0.02451 -0.04433,0.04433 -0.02389,0.07168 0,0.187567 0,0.265985" />
  <path
     style="fill:none;fill-opacity:0.501961;stroke:#1c3c55;stroke-width:1.079"
     d="m 5.14237,29.302643 c 0.104757,-0.117591 0.2241899,-0.222095 0.3546462,-0.310316 0.3483208,-0.235551 0.7784024,-0.350879 1.1969309,-0.310315 0.505633,0.04901 0.9607473,0.311853 1.4185849,0.531969 0.224769,0.108063 0.4602409,0.208538 0.7092924,0.221654 0.084133,0.0044 0.1686871,-0.0012 0.2526025,0.0063 0.083915,0.0075 0.1694148,0.02956 0.235036,0.08239 0.016308,0.01313 0.031199,0.02802 0.044331,0.04433 0.043697,0.01659 0.088078,0.03139 0.1329923,0.04433 0.2900012,0.08357 0.5985938,0.08855 0.8975588,0.04727 0.298966,-0.04128 0.589854,-0.127682 0.875672,-0.224597 0.28958,-0.09819 0.581119,-0.208656 0.886616,-0.221654 0.0313,-0.0013 0.06291,-0.0016 0.09367,0.0043 0.03076,0.0059 0.06089,0.01848 0.08366,0.04 0.01538,0.01454 0.02687,0.03261 0.04,0.04921 0.01313,0.0166 0.02873,0.03234 0.04866,0.03946 0.01186,0.0042 0.02463,0.0052 0.03722,0.0052 0.01259,3.6e-5 0.0252,-8.01e-4 0.03776,1.9e-5 0.01256,8.2e-4 0.02527,0.0034 0.03613,0.0098 0.0054,0.0032 0.01035,0.0073 0.01419,0.01228 0.0038,0.005 0.0066,0.01085 0.0077,0.01705 0.0013,0.0073 2.34e-4,0.01482 -6.13e-4,0.0222 -8.47e-4,0.0074 -0.0015,0.015 6.13e-4,0.02213 0.0017,0.006 0.0054,0.01135 0.01,0.01553 0.0046,0.0042 0.01021,0.0072 0.01611,0.0092 0.0118,0.004 0.02457,0.004 0.03701,0.0033 0.01245,-6.76e-4 0.02498,-0.002 0.03733,-2.67e-4 0.0062,8.43e-4 0.01228,0.0024 0.01791,0.0051 0.0056,0.0027 0.01076,0.0065 0.01464,0.01137 0.005,0.0062 0.0077,0.01419 0.0077,0.02217 0,0.008 -0.0028,0.01592 -0.0077,0.02216 0.08655,0.01603 0.166783,0.06416 0.221654,0.132992 0.0477,0.05983 0.07552,0.132603 0.104848,0.203272 0.02933,0.07067 0.06208,0.142231 0.116806,0.195705 0.05292,0.05171 0.122845,0.08293 0.177323,0.132992 0.03961,0.0364 0.0703,0.08243 0.08866,0.132993"
     id="path10"
     inkscape:path-effect="#path-effect10"
     inkscape:original-d="m 5.14237,29.302643 c 0.1282808,-0.256562 0.036621,-0.161904 0.3546462,-0.310316 0.2715063,-0.126703 0.8718425,-0.395865 1.1969309,-0.310315 0.267397,0.07037 1.2239591,0.463278 1.4185849,0.531969 0.2335847,0.08244 0.47076,0.154865 0.7092924,0.221654 0.1590923,0.04455 0.3309056,0.03642 0.4876385,0.08866 0.019825,0.0066 0.029554,0.02955 0.044331,0.04433 0.044331,0.01478 0.086899,0.03665 0.1329923,0.04433 0.4787492,0.07979 1.4204088,-0.104325 1.7732308,-0.177323 0.292944,-0.06061 0.571235,-0.274217 0.886616,-0.221654 0.0601,0.01002 0.122828,0.01708 0.177323,0.04433 0.03738,0.01869 0.05282,0.06716 0.08866,0.08866 0.04007,0.02404 0.09411,0.01841 0.132993,0.04433 0.01229,0.0082 -0.01045,0.03388 0,0.04433 0.03304,0.03304 0.09995,0.01129 0.132992,0.04433 0.01045,0.01045 -0.01045,0.03388 0,0.04433 0.03892,0.09533 0.160727,0.07206 0.221654,0.132992 0.100423,0.100423 0.131247,0.293503 0.221654,0.398977 0.04808,0.0561 0.125078,0.08075 0.177323,0.132992 0.03767,0.03767 0.05099,0.09532 0.08866,0.132993" />
  <path
     style="fill:#ff9500;fill-opacity:1;stroke:#ff9500;stroke-width:1.079;stroke-opacity:1"
     d="m 13.520887,31.386189 c -0.462741,-0.235264 -0.989205,-0.343654 -1.507247,-0.310315 -0.01477,9.51e-4 -0.02966,0.002 -0.04433,0 -0.02579,-0.0035 -0.04991,-0.01672 -0.06789,-0.03554 -0.01798,-0.01882 -0.02992,-0.04306 -0.03536,-0.06852 -0.01087,-0.05092 0.0042,-0.104664 0.03069,-0.149461 0.02653,-0.0448 0.06384,-0.08208 0.1012,-0.118334 0.03736,-0.03626 0.07553,-0.07242 0.104356,-0.115779 0.03663,-0.05508 0.05664,-0.119442 0.08866,-0.177323 0.03586,-0.06483 0.08608,-0.120341 0.135177,-0.175819 0.0491,-0.05548 0.09809,-0.112358 0.130808,-0.178827 0.05398,-0.109658 0.05946,-0.23596 0.08866,-0.354646 0.01834,-0.07457 0.04667,-0.147412 0.09054,-0.210445 0.04387,-0.06303 0.104022,-0.115971 0.175443,-0.144201 0.02576,-0.01018 0.05286,-0.01716 0.07749,-0.02982 0.01232,-0.0063 0.02399,-0.0141 0.03378,-0.0239 0.0098,-0.0098 0.01765,-0.0217 0.02172,-0.03494 0.0044,-0.0142 0.0043,-0.02939 0.0031,-0.04421 -0.0012,-0.01482 -0.0034,-0.02959 -0.0031,-0.04445 6.18e-4,-0.03324 0.01397,-0.06565 0.03484,-0.09152 0.02088,-0.02587 0.04896,-0.04542 0.07945,-0.05868 0.06097,-0.02653 0.129542,-0.02817 0.196023,-0.02712 0.160877,0.0026 0.322734,0.01872 0.476512,0.06606 0.153778,0.04733 0.299732,0.127184 0.410103,0.244258 0.09363,0.09932 0.160553,0.223626 0.265985,0.310315 0.01624,0.01335 0.03371,0.02619 0.04433,0.04433 0.0076,0.01298 0.0112,0.02801 0.01211,0.04302 9.06e-4,0.01501 -7.92e-4,0.03006 -0.0032,0.0449 -0.0049,0.02968 -0.01275,0.05958 -0.0089,0.0894 0.0043,0.03303 0.02255,0.0624 0.04127,0.08994 0.01872,0.02754 0.03873,0.05522 0.04739,0.08738 0.01159,0.04302 0.0015,0.08847 0,0.132993 -0.0018,0.05185 0.0085,0.104275 0.03115,0.150932 0.02269,0.04666 0.05796,0.08737 0.101843,0.115052 0.02797,0.01764 0.05893,0.02985 0.08866,0.04433 0.05461,0.0266 0.105746,0.06143 0.146588,0.106395 0.04084,0.04496 0.07108,0.100441 0.08149,0.160285 0.01041,0.05985 3.9e-5,0.123993 -0.03315,0.174867 -0.0166,0.02544 -0.03868,0.04736 -0.0646,0.06319 -0.02592,0.01583 -0.05567,0.02549 -0.08599,0.02723 -0.01476,8.48e-4 -0.02955,-1.51e-4 -0.04433,0 -0.06154,6.27e-4 -0.121899,0.02143 -0.174264,0.05377 -0.05236,0.03234 -0.09714,0.07587 -0.136051,0.123551 -0.02661,0.0326 -0.05183,0.0683 -0.08866,0.08866 -0.02025,0.01119 -0.04336,0.01716 -0.0665,0.01716 -0.02314,0 -0.04625,-0.006 -0.0665,-0.01716 l -0.221654,0.132992 c -0.01046,-0.01344 -0.0273,-0.02167 -0.04433,-0.02167 -0.01703,0 -0.03387,0.0082 -0.04433,0.02167 -0.01031,0.01325 -0.01413,0.03023 -0.01893,0.04632 -0.0024,0.008 -0.0051,0.01604 -0.0091,0.02342 -0.004,0.0074 -0.0094,0.01415 -0.01627,0.01892 -0.0094,0.0065 -0.02111,0.0089 -0.03251,0.0086 -0.01139,-2.21e-4 -0.02259,-0.0029 -0.03361,-0.0058 -0.01102,-0.0029 -0.02205,-0.006 -0.03338,-0.0072 -0.01133,-0.0012 -0.02313,-3.89e-4 -0.03349,0.0044 -0.0096,0.0044 -0.01741,0.01188 -0.02425,0.01991 -0.0068,0.008 -0.01289,0.01671 -0.02008,0.02442 -0.01854,0.0199 -0.04459,0.03263 -0.07168,0.03504 -0.02709,0.0024 -0.05498,-0.0055 -0.07674,-0.02186 -0.02176,-0.01632 -0.03719,-0.04087 -0.04247,-0.06755 -0.0053,-0.02668 -3.48e-4,-0.05525 0.01356,-0.07863 z"
     id="path12"
     inkscape:path-effect="#path-effect12"
     inkscape:original-d="m 13.520887,31.386189 c -0.5765,0.05729 -0.999759,-0.05657 -1.507247,-0.310315 -0.01322,-0.0066 -0.03388,0.01045 -0.04433,0 -0.185627,-0.185628 0.04163,-0.359726 0.132993,-0.487639 0.03841,-0.05378 0.05911,-0.118215 0.08866,-0.177323 0.08129,-0.162578 0.171305,-0.212626 0.265985,-0.354646 0.0783,-0.117449 0.01004,-0.236715 0.08866,-0.354646 0.08197,-0.122952 0.161496,-0.250158 0.265984,-0.354646 0.03767,-0.03767 0.101025,-0.04604 0.132993,-0.08866 0.01773,-0.02364 -0.01639,-0.06407 0,-0.08866 0.04617,-0.06925 0.244939,-0.144635 0.310315,-0.177323 0.203093,-0.101546 0.741793,0.221194 0.886615,0.310316 0.332309,0.204498 0.155105,0.08856 0.265985,0.310315 0.0093,0.01869 0.04023,0.02384 0.04433,0.04433 0.01159,0.05796 -0.01434,0.11998 0,0.177323 0.01603,0.06411 0.06412,0.115965 0.08866,0.177323 0.01646,0.04116 -0.01402,0.09094 0,0.132993 0.01243,0.0373 0.104019,0.23701 0.132993,0.265984 0.02336,0.02337 0.0653,0.02097 0.08866,0.04433 0.01617,0.01617 0.06174,0.47973 0.04433,0.531969 -0.0047,0.01402 -0.03031,-0.0047 -0.04433,0 -0.102316,0.03411 -0.224876,0.113244 -0.310315,0.177323 -0.03344,0.02508 -0.04986,0.07314 -0.08866,0.08866 -0.04116,0.01646 -0.09148,-0.01557 -0.132992,0 -0.07388,0.04433 -0.147769,0.08866 -0.221654,0.132992 -0.02955,0 -0.06062,-0.0093 -0.08866,0 -0.138371,0.04612 0.01478,0.02955 -0.04433,0.08866 -0.02217,0.02216 -0.110827,-0.02217 -0.132993,0 -0.01478,0.01478 0.02955,0.08866 -0.04433,0.04433 -0.06336,-0.03801 -0.118216,-0.08866 -0.177323,-0.132993 z" />
  <path
     style="fill:#ff9500;fill-opacity:1;stroke:#ff9500;stroke-width:1.079;stroke-opacity:1"
     d="m 3.5021313,18.397272 c -0.2653437,0.151113 -0.5487659,0.270449 -0.8422848,0.354646 -0.014647,0.0042 -0.02945,0.0083 -0.044656,0.0093 -0.015205,0.001 -0.031029,-0.0014 -0.044006,-0.0093 -0.0103,-0.0063 -0.018343,-0.01595 -0.023958,-0.02667 -0.00561,-0.01071 -0.00891,-0.02251 -0.010997,-0.03442 -0.00418,-0.02382 -0.00369,-0.04839 -0.00938,-0.0719 -0.00633,-0.02617 -0.020096,-0.05002 -0.036266,-0.07154 -0.01617,-0.02153 -0.034819,-0.04105 -0.052395,-0.06145 -0.141574,-0.164296 -0.2096721,-0.382859 -0.2209498,-0.599445 -0.011278,-0.216585 0.030581,-0.432665 0.087957,-0.641817 0.037937,-0.138289 0.082769,-0.274846 0.1125121,-0.415125 0.029743,-0.14028 0.044162,-0.285731 0.02048,-0.42716 -0.00248,-0.01478 -0.00537,-0.02954 -0.00619,-0.04451 -8.232e-4,-0.01496 5.029e-4,-0.03029 0.00619,-0.04415 0.00518,-0.01263 0.013848,-0.02366 0.024091,-0.03269 0.010243,-0.009 0.022047,-0.01615 0.034286,-0.02221 0.02448,-0.01212 0.050919,-0.02017 0.074615,-0.03375 0.038694,-0.02218 0.068165,-0.05829 0.087869,-0.0983 0.019705,-0.04001 0.030238,-0.08394 0.037216,-0.127994 0.013956,-0.08811 0.014849,-0.180355 0.052238,-0.261345 0.030679,-0.06646 0.085033,-0.121017 0.1496276,-0.155445 0.064594,-0.03443 0.1389678,-0.04911 0.2120891,-0.0458 0.1462425,0.0066 0.2824124,0.08369 0.3870436,0.186079 0.1046312,0.102387 0.1817429,0.229093 0.2546578,0.356035 0.072915,0.126942 0.1434334,0.256541 0.2378436,0.368423 0.097272,0.115274 0.2174942,0.208846 0.3215628,0.318023 0.052034,0.05459 0.1002066,0.113367 0.1378644,0.178707 0.037658,0.06534 0.06464,0.137562 0.072542,0.212562 0.00465,0.04414 0.00269,0.08869 0,0.132993 -0.00899,0.148259 -0.026011,0.29591 -0.044331,0.443307 -0.00293,0.02355 -0.00591,0.0472 -0.012316,0.07005 -0.00641,0.02285 -0.016422,0.04505 -0.032015,0.06294 -0.021197,0.02432 -0.050996,0.03903 -0.07755,0.05735 -0.013277,0.0092 -0.025963,0.01943 -0.036074,0.032 -0.01011,0.01257 -0.017571,0.02761 -0.019368,0.04364 -0.00167,0.01486 0.00153,0.02976 0.00354,0.04457 0.00201,0.01481 0.00271,0.03051 -0.00354,0.04409 -0.00359,0.0078 -0.00934,0.01451 -0.016096,0.01981 -0.00676,0.0053 -0.014515,0.0092 -0.022565,0.01223 -0.016101,0.006 -0.033302,0.0083 -0.050001,0.01229 -0.072565,0.01752 -0.1327266,0.06732 -0.1861504,0.119458 -0.053424,0.05214 -0.1040075,0.108924 -0.1684958,0.146527 -0.053512,0.0312 -0.1153782,0.04792 -0.1773231,0.04792 -0.061945,0 -0.1238107,-0.01672 -0.1773231,-0.04792 z"
     id="path13"
     inkscape:path-effect="#path-effect13"
     inkscape:original-d="m 3.5021313,18.397272 c -0.3839725,0.282985 -0.3981929,0.354646 -0.8422848,0.354646 -0.029554,0 -0.067764,0.0209 -0.088662,0 -0.033042,-0.03304 -0.023433,-0.0912 -0.044331,-0.132992 -0.023827,-0.04765 -0.064834,-0.08534 -0.088661,-0.132992 -0.1770465,-0.354093 -0.1605406,-0.855586 -0.1329924,-1.241262 0.021656,-0.303188 0.084511,-0.551395 0.1329924,-0.842285 0.00486,-0.02915 -0.017732,-0.06502 0,-0.08866 0.031967,-0.04262 0.099709,-0.04706 0.1329923,-0.08866 0.092239,-0.115299 0.040538,-0.419246 0.1773231,-0.487639 0.4628184,-0.231409 1.0571129,0.532817 1.2412617,0.709293 0.2008513,0.192482 0.4046243,0.454602 0.5319693,0.709292 0.017504,0.03501 -0.012462,0.09561 0,0.132993 0.06675,0.20025 0.043895,0.237446 -0.044331,0.443307 -0.018407,0.04295 -0.01841,0.09411 -0.044331,0.132993 -0.034776,0.05216 -0.100737,0.07923 -0.1329923,0.132992 -0.015205,0.02534 0.016393,0.06407 0,0.08866 -0.018329,0.02749 -0.062228,0.0245 -0.088662,0.04433 -0.212404,0.159303 0.069497,0.07748 -0.3546462,0.265985 -0.1080266,0.04801 -0.2364308,0 -0.3546462,0 z" />
  <path
     style="fill:#ff9500;fill-opacity:1;stroke:#ff9500;stroke-width:1.079;stroke-opacity:1"
     d="m 10.994032,19.017903 c -0.118211,-0.25992 -0.221866,-0.52646 -0.310315,-0.797954 -0.06538,-0.200694 -0.123041,-0.412374 -0.08866,-0.620631 0.01478,-0.08951 0.04618,-0.175306 0.06936,-0.263019 0.02318,-0.08771 0.03813,-0.180203 0.0193,-0.26895 -0.0016,-0.0074 -0.0034,-0.01477 -0.0039,-0.0223 -5.06e-4,-0.0075 3.63e-4,-0.01534 0.0039,-0.02203 0.0038,-0.0073 0.0107,-0.01283 0.01842,-0.01581 0.0077,-0.003 0.01623,-0.0035 0.02442,-0.0025 0.01639,0.0022 0.03116,0.01061 0.04582,0.01826 0.144899,0.07565 0.313464,0.08639 0.4758,0.105528 0.08117,0.0096 0.162427,0.02167 0.24053,0.04575 0.0781,0.02408 0.153342,0.06062 0.214616,0.114706 0.09796,0.08647 0.15349,0.21107 0.192581,0.335746 0.03909,0.124677 0.06491,0.254039 0.117734,0.373546 0.05508,0.124606 0.138088,0.235158 0.194931,0.35897 0.02842,0.06191 0.05027,0.127445 0.05732,0.195197 0.0071,0.06775 -0.0012,0.137985 -0.0306,0.199456 -0.02578,0.05399 -0.06705,0.09975 -0.115063,0.135443 -0.04801,0.0357 -0.102678,0.06169 -0.159056,0.08171 -0.112757,0.04005 -0.232535,0.05673 -0.346512,0.09316 -0.107276,0.03429 -0.20813,0.08564 -0.310315,0.132992 -0.0505,0.0234 -0.102555,0.04617 -0.15796,0.05144 -0.0277,0.0026 -0.05602,7.55e-4 -0.0826,-0.0075 -0.02657,-0.0083 -0.05136,-0.02306 -0.06976,-0.04394 -0.02135,-0.02422 -0.0335,-0.05637 -0.0335,-0.08866 0,-0.03229 0.01215,-0.06444 0.0335,-0.08866 z"
     id="path14"
     inkscape:path-effect="#path-effect14"
     inkscape:original-d="m 10.994032,19.017903 c -0.06018,-0.281521 -0.236121,-0.522377 -0.310315,-0.797954 -0.05433,-0.201792 -0.06885,-0.412595 -0.08866,-0.620631 -0.035,-0.367487 -0.01149,-0.231511 0.08866,-0.531969 0.0047,-0.01402 -0.01322,-0.03772 0,-0.04433 0.02643,-0.01322 0.05911,0 0.08866,0 0.32011,0 0.704967,-0.02456 0.930946,0.265985 0.153554,0.197426 0.216601,0.484377 0.310315,0.709292 0.02829,0.06789 0.325848,0.62859 0.221654,0.753623 -0.184259,0.221111 -0.377508,0.202261 -0.620631,0.310316 -0.117524,0.05223 -0.171717,0.132992 -0.310315,0.132992 -0.02776,0 -0.307428,0.01155 -0.310316,0 -0.01434,-0.05734 0,-0.118215 0,-0.177323 z" />
  <path
     style="fill:#ff9500;fill-opacity:1;stroke:#ff9500;stroke-width:1.079;stroke-opacity:1"
     d="m 26.642796,4.8763853 c -0.215488,-0.112399 -0.369623,-0.335039 -0.398977,-0.5763 -0.01628,-0.1338467 0.0038,-0.2703731 0.04433,-0.398977 0.07024,-0.2229645 0.203201,-0.4264982 0.382375,-0.5766419 0.179173,-0.1501437 0.404312,-0.2457912 0.637233,-0.2656429 0.185636,-0.015822 0.37547,0.016399 0.544465,0.094831 0.168996,0.078432 0.316595,0.203128 0.420122,0.3580259 0.103526,0.1548979 0.162391,0.3396765 0.165095,0.5259661 0.0027,0.1862896 -0.05111,0.3733734 -0.154405,0.5284231 -0.05249,0.078789 -0.116893,0.1487759 -0.177323,0.2216539 -0.147507,0.1778917 -0.273335,0.3754028 -0.443308,0.5319693 -0.137758,0.1268926 -0.304879,0.2250196 -0.487638,0.2659846 -0.02781,0.00623 -0.05636,0.011298 -0.08169,0.024383 -0.01266,0.00654 -0.02441,0.015104 -0.03361,0.025986 -0.0092,0.010883 -0.01579,0.024169 -0.0177,0.038293 -0.002,0.014662 0.0011,0.029574 0,0.044331 -0.0014,0.019289 -0.01,0.037835 -0.02309,0.052025 -0.01314,0.01419 -0.03068,0.024064 -0.04942,0.028829 -0.01874,0.00477 -0.03862,0.00452 -0.05747,1.937e-4 -0.01885,-0.00432 -0.03668,-0.012654 -0.05264,-0.023567 -0.03193,-0.021825 -0.056,-0.053458 -0.07536,-0.086942 -0.01936,-0.033483 -0.03451,-0.069204 -0.05233,-0.1035327 -0.08382,-0.1615028 -0.22876,-0.290336 -0.398977,-0.3546462"
     id="path15"
     inkscape:path-effect="#path-effect15"
     inkscape:original-d="m 26.642796,4.8763853 c -0.34599,-0.2594925 -0.398977,-0.1686219 -0.398977,-0.5763 0,-0.1338108 -0.0076,-0.2756523 0.04433,-0.398977 0.139041,-0.3302235 0.611137,-0.8422848 1.019608,-0.8422848 0.506818,0 1.148893,1.0298026 0.975277,1.5072464 -0.03234,0.088922 -0.121671,0.1451325 -0.177323,0.2216539 -0.180219,0.2478014 -0.180409,0.3347951 -0.443308,0.5319693 -0.148123,0.1110926 -0.330628,0.167853 -0.487638,0.2659846 -0.04518,0.028238 -0.09532,0.050988 -0.132993,0.088662 -0.01045,0.010449 0.01322,0.037722 0,0.044331 -0.09536,0.04768 -0.295,-0.1238033 -0.310315,-0.1329924 C 26.60623,5.5105423 26.33248,5.3928729 26.33248,5.2310321" />
  <path
     style="fill:#ff9500;fill-opacity:1;stroke:#ff9500;stroke-width:1.079;stroke-opacity:1"
     d="m 30.455243,7.1815857 c -0.05249,-0.1564922 -0.06402,-0.3265269 -0.03313,-0.4886725 0.03088,-0.1621455 0.104114,-0.3160357 0.210458,-0.4422738 0.183832,-0.2182228 0.468541,-0.3481224 0.753822,-0.3426023 0.28528,0.00552 0.565244,0.146783 0.738117,0.3737865 0.172872,0.2270034 0.234568,0.5351194 0.161136,0.8108425 -0.07343,0.2757231 -0.280774,0.5127105 -0.544806,0.6208889 -0.169361,0.06939 -0.354843,0.086897 -0.531969,0.1329923 -0.104126,0.027098 -0.205551,0.064145 -0.310315,0.088662 -0.170567,0.039916 -0.351562,0.045581 -0.519737,-0.00345 C 30.21064,7.8827363 30.056391,7.7759012 29.967604,7.6248938 29.891624,7.4956683 29.866654,7.3373447 29.899174,7.1910073 29.931694,7.04467 30.021368,6.911823 30.144928,6.8269399"
     id="path16"
     inkscape:path-effect="#path-effect16"
     inkscape:original-d="m 30.455243,7.1815857 c -0.05336,-0.4269167 -0.295737,-0.7490002 0.177323,-0.9309463 0.690855,-0.2657135 1.406663,1.164522 1.108269,1.4629156 -0.234668,0.2346689 -0.163,0.083797 -0.531969,0.1329923 -0.106634,0.014218 -0.203819,0.073448 -0.310315,0.088662 -0.376436,0.053776 -0.706616,0.02618 -0.930947,-0.3103155 -0.109783,-0.1646745 0.125478,-0.6424174 0.177324,-0.7979539" />
  <path
     style="fill:#ff9500;fill-opacity:1;stroke:#ff9500;stroke-width:1.079;stroke-opacity:1"
     d="m 5.0980392,28.992327 c -0.097189,-0.04817 -0.2177866,-0.0458 -0.3130125,0.0061 -0.095226,0.05194 -0.1625058,0.152056 -0.174626,0.259847 -0.00496,0.0441 -0.00123,0.08863 0,0.132992 0.00233,0.08446 -0.00443,0.169198 0.00307,0.253352 0.00751,0.08415 0.030872,0.16991 0.085588,0.234287 0.03468,0.0408 0.080138,0.07095 0.1267075,0.09739 0.04657,0.02644 0.095009,0.0498 0.1392772,0.07993 0.061129,0.04161 0.1135284,0.0956 0.1773231,0.132992 0.053833,0.03155 0.1154196,0.05055 0.1778092,0.05161 0.06239,0.0011 0.1254336,-0.01623 0.176837,-0.05161 0.061704,-0.04246 0.1038973,-0.108302 0.1329923,-0.177323 0.066751,-0.158352 0.071173,-0.336104 0.055844,-0.507265 -0.01533,-0.171161 -0.049341,-0.34062 -0.055844,-0.512343 -0.00118,-0.0311 -0.00147,-0.06238 -0.00702,-0.093 -0.00555,-0.03062 -0.016777,-0.06094 -0.037311,-0.08432 -0.021236,-0.02418 -0.050686,-0.03922 -0.077032,-0.0577 -0.013173,-0.0092 -0.025769,-0.01953 -0.035914,-0.03202 -0.010145,-0.01249 -0.017779,-0.02734 -0.020046,-0.04327 -0.0021,-0.01474 4.24e-4,-0.02968 0.00221,-0.04446 0.00178,-0.01478 0.00277,-0.03016 -0.00221,-0.0442 -0.00599,-0.01689 -0.020548,-0.03019 -0.037537,-0.03588 -0.016989,-0.0057 -0.036059,-0.004 -0.052421,0.0033 -0.016362,0.0073 -0.030046,0.02 -0.039749,0.03506 -0.0097,0.01506 -0.015549,0.03241 -0.018361,0.05011 -0.00562,0.03539 6.363e-4,0.07147 0.00704,0.106729 0.00641,0.03526 0.013,0.07122 0.00803,0.106713 -0.00684,0.04889 -0.036735,0.09404 -0.079063,0.119436 -0.042328,0.0254 -0.096236,0.03052 -0.1425911,0.01356 z"
     id="path17"
     inkscape:path-effect="#path-effect17"
     inkscape:original-d="m 5.0980392,28.992327 c -0.2576568,0.09662 -0.3426815,0.07271 -0.4876385,0.265985 -0.026598,0.03546 0,0.08866 0,0.132992 0,0.160124 -0.023364,0.347606 0.088662,0.487639 0.066566,0.08321 0.178689,0.116216 0.2659847,0.177323 0.060529,0.04237 0.1094124,0.103888 0.1773231,0.132992 0.021984,0.0094 0.3354257,0.01281 0.3546462,0 0.061476,-0.04098 0.092009,-0.115847 0.1329923,-0.177323 0.2462378,-0.369357 0.1276535,-0.636647 0,-1.019608 -0.019267,-0.0578 -0.017083,-0.122828 -0.044331,-0.177323 -0.028037,-0.05607 -0.104955,-0.07692 -0.1329923,-0.132992 -0.013217,-0.02643 0.020898,-0.06776 0,-0.08866 -0.1006267,-0.100626 -0.1215848,0.24317 -0.1329923,0.265985 -0.030353,0.06071 -0.2176096,0.13097 -0.2216539,0.132992 z" />
  <path
     style="fill:#ff9500;fill-opacity:1;stroke:#ff9500;stroke-width:1.079;stroke-opacity:1"
     d="m 9.486786,36.705882 c 0.106677,0.205763 0.2764839,0.378248 0.4805529,0.488131 0.2040691,0.109884 0.4415421,0.156704 0.6720471,0.1325 0.228537,-0.024 0.443849,-0.114762 0.664962,-0.177323 0.05465,-0.01546 0.109891,-0.02926 0.163102,-0.04913 0.05321,-0.01987 0.104748,-0.04614 0.147213,-0.08386 0.05815,-0.05165 0.09704,-0.123693 0.111975,-0.200024 0.01494,-0.07633 0.0064,-0.156582 -0.02072,-0.229475 -0.05427,-0.145785 -0.180067,-0.257141 -0.322097,-0.320589 -0.14203,-0.06345 -0.299682,-0.08357 -0.455159,-0.08859 -0.155476,-0.005 -0.311242,0.0043 -0.466598,-0.0036 -0.06163,-0.0031 -0.126055,-0.01 -0.177323,-0.04433 -0.03483,-0.02333 -0.06065,-0.05747 -0.08866,-0.08866 -0.02498,-0.02782 -0.05231,-0.05382 -0.0836,-0.07428 -0.03129,-0.02046 -0.06676,-0.03525 -0.10391,-0.03939 -0.037154,-0.0041 -0.076044,0.0029 -0.1076068,0.02292 -0.031563,0.02003 -0.055025,0.05363 -0.059531,0.09074 -0.00357,0.02939 0.00442,0.05938 0,0.08866 -0.00334,0.02212 -0.01393,0.04309 -0.029751,0.05891 -0.015821,0.01582 -0.036789,0.02641 -0.058911,0.02975"
     id="path18"
     inkscape:path-effect="#path-effect18"
     inkscape:original-d="m 9.486786,36.705882 c -0.030218,1.054295 0.3726551,0.843473 1.1526,0.620631 0.220573,-0.06302 0.444389,-0.114302 0.664962,-0.177323 0.108208,-0.03092 0.274728,-0.02623 0.310315,-0.132992 0.129486,-0.388458 -0.889699,-0.746685 -1.1526,-0.842285 -0.05726,-0.02082 -0.122828,-0.01708 -0.177323,-0.04433 -0.03738,-0.01869 -0.05128,-0.06997 -0.08866,-0.08866 -0.01927,-0.0096 -0.3237898,-0.03086 -0.3546458,0 -0.020898,0.0209 0.013217,0.06223 0,0.08866 -0.018691,0.03738 -0.059108,0.05911 -0.088662,0.08866" />
  <path
     style="fill:#ff9500;fill-opacity:1;stroke:#ff9500;stroke-width:1.079;stroke-opacity:1"
     d="m 29.12532,45.483376 c -0.222712,0.175249 -0.516763,0.25693 -0.797954,0.221654 -0.09944,-0.01248 -0.199837,-0.03888 -0.298488,-0.02121 -0.04932,0.0088 -0.09748,0.0293 -0.133636,0.064 -0.01808,0.01735 -0.03298,0.03812 -0.04281,0.06116 -0.0098,0.02305 -0.01452,0.04838 -0.0127,0.07337 0.0011,0.01496 0.0045,0.02968 0.0059,0.04461 0.0014,0.01494 7.18e-4,0.03057 -0.0059,0.04405 -0.0046,0.0095 -0.01192,0.01739 -0.01983,0.02435 -0.0079,0.007 -0.0165,0.01311 -0.0245,0.01998 -0.03423,0.0294 -0.05637,0.07177 -0.06399,0.116252 -0.0076,0.04448 -0.0012,0.09084 0.01539,0.132817 0.03314,0.08395 0.104233,0.147749 0.181592,0.194239 0.123762,0.07438 0.267522,0.111587 0.411564,0.12163 0.144043,0.01004 0.288831,-0.0062 0.43072,-0.03297 0.202557,-0.03821 0.402003,-0.09834 0.585576,-0.192101 0.183573,-0.09376 0.351177,-0.221986 0.478363,-0.3842 0.05286,-0.06742 0.09983,-0.143898 0.108624,-0.22912 0.0044,-0.04261 -0.0013,-0.08668 -0.01957,-0.12541 -0.01831,-0.03872 -0.04976,-0.07174 -0.08906,-0.08878 -0.01536,-0.0067 -0.03167,-0.01085 -0.04726,-0.01693 -0.0156,-0.0061 -0.03087,-0.01438 -0.0414,-0.0274 -0.0075,-0.0092 -0.01217,-0.02041 -0.01522,-0.03187 -0.003,-0.01146 -0.0045,-0.02328 -0.006,-0.03504 -0.0015,-0.01176 -0.0032,-0.02357 -0.0065,-0.03494 -0.0034,-0.01137 -0.0086,-0.02237 -0.01657,-0.03115 -0.01119,-0.01231 -0.02769,-0.01962 -0.04433,-0.01962 -0.01664,0 -0.03314,0.0073 -0.04433,0.01962 -0.02527,-0.03346 -0.0552,-0.06339 -0.08866,-0.08866 -0.06426,-0.04852 -0.141655,-0.07948 -0.221654,-0.08866"
     id="path19"
     inkscape:path-effect="#path-effect19"
     inkscape:original-d="m 29.12532,45.483376 c -0.265985,0.07388 -0.534303,0.139831 -0.797954,0.221654 -0.165188,0.05127 -0.335798,0.0945 -0.487639,0.177323 -0.02595,0.01415 0.0093,0.06062 0,0.08866 -0.0066,0.01983 -0.03498,0.02564 -0.04433,0.04433 -0.05751,0.115025 0.02989,0.387789 0.132993,0.443308 0.163691,0.08814 0.654469,0.112138 0.842284,0.08866 0.219781,-0.02747 0.993955,-0.296365 1.063939,-0.576301 0.0164,-0.0656 0.03568,-0.389784 0,-0.443307 -0.01833,-0.02749 -0.0653,-0.02097 -0.08866,-0.04433 -0.03304,-0.03304 -0.0025,-0.112095 -0.04433,-0.132992 -0.02643,-0.01322 -0.05911,0 -0.08866,0 -0.02955,-0.02955 -0.05282,-0.06716 -0.08866,-0.08866 -0.06554,-0.03933 -0.221654,-0.01558 -0.221654,-0.08866" />
  <path
     style="fill:#ff9500;fill-opacity:1;stroke:#ff9500;stroke-width:1.079;stroke-opacity:1"
     d="m 33.602728,41.981245 c -0.16727,-0.440484 -0.272078,-0.904634 -0.310315,-1.374254 -0.01575,-0.193475 -0.01953,-0.392989 0.04433,-0.5763 0.04025,-0.11553 0.107686,-0.22252 0.199967,-0.302838 0.09228,-0.08032 0.209896,-0.132936 0.332003,-0.14047 0.10081,-0.0062 0.202746,0.01824 0.29184,0.06582 0.08909,0.04758 0.165417,0.117805 0.223803,0.200221 0.116773,0.164833 0.159596,0.373881 0.150109,0.575662 -0.01897,0.403561 -0.230068,0.76912 -0.355437,1.153183 -0.03739,0.114532 -0.06752,0.236419 -0.04433,0.354646 0.0029,0.01483 0.0067,0.02956 0.0078,0.04464 0.0011,0.01507 -5.1e-4,0.03078 -0.0078,0.04402 -0.0063,0.01141 -0.01655,0.02046 -0.02839,0.02588 -0.01185,0.0054 -0.02519,0.0073 -0.03815,0.0061 -0.02593,-0.0025 -0.04951,-0.0171 -0.06763,-0.03583 -0.03623,-0.03745 -0.05284,-0.09017 -0.08748,-0.129094 -0.02226,-0.02502 -0.05169,-0.04359 -0.08385,-0.05293 -0.03216,-0.0093 -0.06696,-0.0094 -0.09916,-2.16e-4 -0.0322,0.0092 -0.06171,0.02765 -0.08408,0.05257 -0.02237,0.02492 -0.03754,0.05624 -0.04323,0.08924 l -0.310315,-0.354647"
     id="path20"
     inkscape:path-effect="#path-effect20"
     inkscape:original-d="m 33.602728,41.981245 c -0.103438,-0.458085 -0.215616,-0.914284 -0.310315,-1.374254 -0.03335,-0.161997 -1.91e-4,-0.427895 0.04433,-0.5763 0.02863,-0.09543 0.349611,-0.564881 0.53197,-0.443308 0.508534,0.339023 0.36468,1.505605 0.310315,1.994885 -0.01316,0.118406 -0.03248,0.236102 -0.04433,0.354646 -0.0029,0.02941 0.01322,0.06223 0,0.08866 -0.03853,0.07707 -0.135844,-0.125191 -0.221654,-0.132992 -0.107135,-0.0097 -0.21238,0.133178 -0.310315,0.08866 -0.200507,-0.350888 -0.0643,-0.272642 -0.310315,-0.354647" />
  <path
     style="fill:#ff9500;fill-opacity:1;stroke:#ff9500;stroke-width:1.079;stroke-opacity:1"
     d="m 26.28815,27.662404 c -0.06814,-0.136287 -0.169431,-0.255832 -0.221654,-0.398977 -0.07111,-0.19491 -0.04042,-0.421784 0.07163,-0.596404 0.112046,-0.17462 0.300881,-0.295604 0.504671,-0.334542 0.102696,-0.01962 0.208731,-0.01959 0.310316,-0.04433 0.07357,-0.01792 0.146075,-0.04891 0.221654,-0.04433 0.04907,0.003 0.09676,0.02131 0.136658,0.05003 0.0399,0.02872 0.07209,0.06757 0.09511,0.111002 0.04604,0.08687 0.05483,0.18958 0.04303,0.287184 -0.02358,0.195208 -0.124257,0.375552 -0.141809,0.571394 -0.01329,0.148341 0.02188,0.296074 0.04433,0.443308 0.01141,0.07484 0.01958,0.150604 0.0151,0.226173 -0.0045,0.07557 -0.02205,0.151307 -0.05943,0.217135 -0.03053,0.05377 -0.075,0.100816 -0.130785,0.127492 -0.02789,0.01334 -0.05838,0.02145 -0.08927,0.02273 -0.03089,0.0013 -0.06216,-0.0043 -0.09026,-0.01723 -0.03927,-0.01801 -0.07109,-0.04942 -0.09666,-0.08425 -0.02558,-0.03482 -0.0456,-0.07333 -0.06719,-0.110757 -0.02159,-0.03743 -0.04517,-0.07431 -0.07646,-0.104102 -0.0313,-0.02979 -0.07124,-0.05222 -0.114324,-0.05554 -0.01474,-0.0011 -0.02955,-4.5e-5 -0.04433,0 -0.07423,2.27e-4 -0.148228,-0.02702 -0.204586,-0.07533 -0.05636,-0.04831 -0.0946,-0.11727 -0.105729,-0.190659 0,-1e-6 -10e-7,-1e-6 -10e-7,-2e-6 z"
     id="path21"
     inkscape:path-effect="#path-effect21"
     inkscape:original-d="m 26.28815,27.662404 c -0.07389,-0.132992 -0.197926,-0.248701 -0.221654,-0.398977 -0.05727,-0.3627 0.2458,-0.803831 0.5763,-0.930946 0.09752,-0.03751 0.207512,-0.02564 0.310316,-0.04433 0.114488,-0.02082 0.213691,-0.06424 0.221654,-0.04433 0.127293,0.318234 0.09648,0.67881 0.132992,1.019608 0.01582,0.147661 0.03507,0.295091 0.04433,0.443308 8.45e-4,0.01353 -0.01912,0.418099 -0.04433,0.443308 -0.0082,0.0082 -0.280979,0.15255 -0.310316,0.132992 -0.139103,-0.09274 -0.227712,-0.245846 -0.354646,-0.354646 -0.01122,-0.0096 -0.03111,0.0066 -0.04433,0 -0.08445,-0.04223 -0.251954,-0.222215 -0.310315,-0.265985 z" />
  <path
     style="fill:#ff9500;fill-opacity:1;stroke:#ff9500;stroke-width:1.079;stroke-opacity:1"
     d="m 21.234442,26.199488 c -0.110849,-0.196398 -0.200213,-0.404913 -0.265985,-0.62063 -0.07011,-0.229942 -0.112963,-0.478906 -0.04433,-0.709293 0.04367,-0.146593 0.129899,-0.276594 0.221654,-0.398977 0.07571,-0.100984 0.157595,-0.199983 0.262068,-0.270802 0.05224,-0.03541 0.109866,-0.0634 0.171022,-0.07897 0.06116,-0.01557 0.12592,-0.01849 0.187541,-0.0049 0.07383,0.01631 0.141631,0.05619 0.19502,0.109729 0.05339,0.05354 0.09265,0.120349 0.117765,0.191662 0.05024,0.142626 0.04402,0.299411 0.01694,0.448182 -0.02708,0.148771 -0.07416,0.293213 -0.10462,0.441329 -0.03046,0.148117 -0.04385,0.303616 -0.0035,0.449337 0.0088,0.03175 0.02009,0.06277 0.02852,0.09462 0.0084,0.03185 0.01401,0.06489 0.01104,0.0977 -0.003,0.03281 -0.01509,0.06556 -0.03818,0.08906 -0.01154,0.01175 -0.0257,0.02102 -0.04132,0.02627 -0.01561,0.0053 -0.03268,0.0064 -0.04872,0.0027 -0.01573,-0.0037 -0.03018,-0.01189 -0.04603,-0.01501 -0.0079,-0.0016 -0.01625,-0.0018 -0.02399,5.27e-4 -0.0077,0.0023 -0.01486,0.0073 -0.01864,0.01448 -0.0035,0.0066 -0.0039,0.01452 -0.0032,0.022 7.36e-4,0.0075 0.0025,0.01484 0.0032,0.02233 0.0016,0.01787 -0.0036,0.03608 -0.01352,0.05104 -0.0099,0.01496 -0.02435,0.02669 -0.04059,0.03429 -0.03249,0.0152 -0.07079,0.01371 -0.105207,0.0036 -0.03442,-0.0101 -0.06587,-0.02815 -0.09718,-0.04566 -0.0313,-0.01752 -0.06328,-0.03484 -0.09815,-0.04327 -0.04125,-0.01 -0.08557,-0.0068 -0.124969,0.009 -0.0394,0.01576 -0.07369,0.04402 -0.09668,0.07969 z"
     id="path22"
     inkscape:path-effect="#path-effect22"
     inkscape:original-d="m 21.234442,26.199488 c -0.08866,-0.206876 -0.214841,-0.401443 -0.265985,-0.62063 -0.05383,-0.230696 -0.08176,-0.475376 -0.04433,-0.709293 0.02404,-0.150227 0.14338,-0.26852 0.221654,-0.398977 0.116715,-0.194525 0.326667,-0.575119 0.620631,-0.354646 0.538137,0.403603 0.371668,1.090188 0.221654,1.640239 -0.0095,0.03481 -0.02875,0.250407 -0.08866,0.310315 -0.0209,0.0209 -0.06776,-0.0209 -0.08866,0 -0.01045,0.01045 0.01045,0.03388 0,0.04433 -0.05423,0.05423 -0.275011,-0.02654 -0.354647,0 -0.07549,0.02516 -0.147769,0.05911 -0.221653,0.08866 z" />
</svg>
