<?xml version="1.0" encoding="UTF-8" standalone="no"?>
<!-- Created with Inkscape (http://www.inkscape.org/) -->

<svg
   width="73"
   height="35"
   viewBox="0 0 19.314583 9.2604166"
   version="1.1"
   id="svg1"
   inkscape:version="1.3.2 (091e20e, 2023-11-25, custom)"
   sodipodi:docname="dunat_btn.svg"
   xmlns:inkscape="http://www.inkscape.org/namespaces/inkscape"
   xmlns:sodipodi="http://sodipodi.sourceforge.net/DTD/sodipodi-0.dtd"
   xmlns="http://www.w3.org/2000/svg"
   xmlns:svg="http://www.w3.org/2000/svg">
  <sodipodi:namedview
     id="namedview1"
     pagecolor="#ffffff"
     bordercolor="#000000"
     borderopacity="0.25"
     inkscape:showpageshadow="2"
     inkscape:pageopacity="0.0"
     inkscape:pagecheckerboard="0"
     inkscape:deskcolor="#d1d1d1"
     inkscape:document-units="mm"
     inkscape:zoom="2.955623"
     inkscape:cx="56.840808"
     inkscape:cy="37.724703"
     inkscape:window-width="2560"
     inkscape:window-height="1369"
     inkscape:window-x="-8"
     inkscape:window-y="-8"
     inkscape:window-maximized="1"
     inkscape:current-layer="layer1" />
  <defs
     id="defs1">
    <rect
       x="8.4584536"
       y="8.1201154"
       width="57.517484"
       height="19.96195"
       id="rect1" />
    <inkscape:path-effect
       effect="spiro"
       id="path-effect1"
       is_visible="true"
       lpeversion="1" />
  </defs>
  <g
     inkscape:label="Layer 1"
     inkscape:groupmode="layer"
     id="layer1">
    <path
       style="fill:#ff9500;fill-opacity:1;stroke-width:1"
       d="M 0.71614905,8.6833074 C 0.62142172,8.7328138 0.50266934,8.733284 0.40755291,8.6845294 0.31243649,8.6357747 0.24348335,8.5390906 0.2283677,8.433281 0.21325205,8.3274715 0.25237552,8.2153478 0.33003599,8.1419108 0.40769646,8.0684737 0.52183042,8.0356745 0.62663045,8.056677 c 0.0150051,0.00301 0.0298664,0.00705 0.0451179,0.00831 0.0152514,0.00126 0.0312519,-4.805e-4 0.0444007,-0.00831 0.0104165,-0.0062 0.018497,-0.015981 0.0234914,-0.027028 0.004994,-0.011047 0.006998,-0.023314 0.006735,-0.035434 -5.2713e-4,-0.024241 -0.009822,-0.047366 -0.0198437,-0.069445 -0.0100217,-0.022079 -0.0210257,-0.044102 -0.0253511,-0.06796 -0.002163,-0.011929 -0.0026,-0.024254 -3.3202e-4,-0.036164 0.002268,-0.011909 0.007321,-0.023399 0.0153009,-0.032526 0.0111191,-0.012716 0.0278675,-0.020319 0.0447594,-0.020319 0.0168919,0 0.0336402,0.0076 0.0447593,0.020319 C 0.83392426,7.698085 0.86376999,7.6085478 0.89518635,7.5195651 1.0169266,7.174752 1.1634777,6.8333866 1.2053127,6.4701146 1.2262302,6.2884786 1.2201024,6.1022883 1.1715351,5.9260203 1.1229679,5.7497523 1.0304937,5.5836046 0.89518635,5.4606367 c -0.0313041,-0.028449 -0.0651468,-0.054946 -0.0895186,-0.089519 -0.0308269,-0.04373 -0.0443785,-0.097899 -0.0461464,-0.151374 -0.001768,-0.053475 0.007593,-0.1066896 0.019173,-0.1589253 0.0115796,-0.052236 0.0254321,-0.1040705 0.0328758,-0.157054 0.007444,-0.052983 0.008306,-0.1076943 -0.005902,-0.1592772 C 0.78789981,4.6799793 0.74791786,4.6243371 0.71614905,4.5654498 0.65141226,4.4454524 0.62009181,4.3094136 0.61127304,4.1733531 0.60245427,4.0372926 0.61546304,3.9006905 0.63523075,3.765785 0.67476617,3.4959742 0.74159192,3.225617 0.71614905,2.9541145 0.69277238,2.7046605 0.59259161,2.468863 0.54898107,2.2221407 0.52717579,2.0987795 0.51972261,1.9714724 0.54346952,1.8484702 0.56721643,1.7254681 0.6239318,1.6066068 0.71614905,1.5218163 c 0.0582173,-0.053529 0.12886601,-0.092342 0.18593551,-0.1470928 0.0285347,-0.027376 0.0536582,-0.058944 0.0695675,-0.095145 0.0159093,-0.036201 0.0221572,-0.077356 0.0130529,-0.1158362 -0.006272,-0.026507 -0.0195371,-0.050955 -0.0356282,-0.072934 -0.016091,-0.021978 -0.0350211,-0.041699 -0.053889,-0.061345 -0.0188678,-0.019646 -0.0377981,-0.0393663 -0.0538896,-0.0613444 -0.0160915,-0.0219781 -0.0293579,-0.0464256 -0.0356305,-0.0729327 -0.006897,-0.0291434 -0.005124,-0.059577 -0.002483,-0.0894086 0.002641,-0.0298317 0.006109,-0.0599006 0.002483,-0.0896286 -0.003867,-0.0317043 -0.0156973,-0.0619328 -0.0298841,-0.0905483 -0.0141868,-0.0286155 -0.0308035,-0.0559704 -0.0451028,-0.0845299 -0.0142993,-0.0285594 -0.0263616,-0.0586739 -0.0306021,-0.0903303 -0.004241,-0.0316564 -1.5408e-4,-0.0651546 0.0160704,-0.0926661 0.01344,-0.02279 0.0347514,-0.0405438 0.0589707,-0.0511948 0.0242193,-0.010651 0.0512185,-0.0143748 0.0776005,-0.0123732 0.052764,0.004003 0.10156093,0.0301725 0.14352519,0.0624071 0.0419643,0.0322347 0.078629,0.0707982 0.11910469,0.10488331 0.040476,0.0340851 0.086162,0.0642642 0.1379107,0.0753148 0.037557,0.00802 0.076661,0.005579 0.1144992,-9.8738e-4 0.037838,-0.006567 0.074842,-0.0171803 0.1123195,-0.0255648 0.037478,-0.008384 0.075857,-0.0145638 0.1141783,-0.0120463 0.038321,0.002517 0.076861,0.0142939 0.1065961,0.0385985 0.016394,0.0134005 0.029654,0.0301491 0.043328,0.0463157 0.013675,0.0161666 0.028158,0.0321047 0.046191,0.0432029 0.019423,0.011954 0.042201,0.0177308 0.064958,0.0192495 0.022756,0.001519 0.0456,-0.001059 0.068092,-0.00484 0.044983,-0.007561 0.090236,-0.019998 0.1355064,-0.0144099 0.033424,0.004126 0.064959,0.0179566 0.094109,0.0348223 0.02915,0.0168657 0.056369,0.0368498 0.084928,0.0546963 0.1412615,0.0882716 0.3110345,0.1215605 0.4775684,0.12518631 0.1665339,0.003626 0.332344,-0.0201543 0.4970679,-0.0449078 0.3294477,-0.0495071 0.661627,-0.0802785 0.9947737,-0.0802785 h 3.7597826 c 0.186429,0 0.3743926,0.0128823 0.5528671,0.0667584 0.1784746,0.053876 0.3449602,0.1414636 0.5213563,0.20179757 0.3124775,0.10687877 0.6495395,0.11589157 0.9795739,0.10395547 0.330035,-0.011936 0.660886,-0.043718 0.989836,-0.014437 0.445898,0.039691 0.874647,0.1903233 1.317598,0.2550915 0.221475,0.032384 0.447868,0.043062 0.668814,0.00725 0.220946,-0.035816 0.436905,-0.1199759 0.609628,-0.2623374 0.08104,-0.066796 0.152212,-0.14586752 0.239381,-0.20444272 0.04359,-0.0292876 0.09122,-0.0532938 0.142165,-0.065998 0.05095,-0.0127043 0.10543,-0.0137295 0.155566,0.001885 0.04868,0.0151604 0.09213,0.0453996 0.141935,0.0562831 0.02491,0.005442 0.05151,0.005724 0.07533,-0.003342 0.01191,-0.004533 0.023,-0.0113835 0.032,-0.0204091 0.009,-0.009026 0.01587,-0.0202527 0.01929,-0.0325317 0.004,-0.0144413 0.0032,-0.0297519 0.0018,-0.0446737 -0.0014,-0.0149219 -0.0035,-0.0299491 -0.0018,-0.044845 0.0029,-0.0253067 0.01665,-0.048815 0.03602,-0.0653429 0.01938,-0.016528 0.04401,-0.0263047 0.06925,-0.0297518 0.05047,-0.006894 0.101133,0.0106837 0.146764,0.0333158 0.04563,0.0226322 0.08887,0.0506856 0.137052,0.0672054 0.02409,0.00826 0.04939,0.0135513 0.07485,0.0133696 0.02547,-1.8169e-4 0.05115,-0.006006 0.07317,-0.0187961 0.01833,-0.0106451 0.03365,-0.0257567 0.04769,-0.041644 0.01403,-0.0158873 0.027,-0.0327308 0.04183,-0.0478746 0.0552,-0.0563625 0.133329,-0.0857845 0.211582,-0.0957932 0.07825,-0.0100087 0.157581,-0.002235 0.236011,0.006275 0.657649,0.0713582 1.336489,0.19236749 1.96941,0 0.16743,-0.0508879 0.329788,-0.12341717 0.503249,-0.14652287 0.08673,-0.0115529 0.175978,-0.0103248 0.260492,0.0123242 0.08451,0.022649 0.164193,0.0676209 0.220964,0.13419867 0.01381,0.0161946 0.02621,0.0335607 0.04029,0.0495213 0.01408,0.0159606 0.0301,0.030672 0.04923,0.0399973 0.02723,0.0132744 0.05879,0.0146932 0.08895,0.0118664 0.03016,-0.002827 0.05988,-0.009624 0.09009,-0.0118664 0.06538,-0.004853 0.131765,0.0122373 0.188238,0.0455309 0.05647,0.0332936 0.103084,0.0823814 0.136054,0.13904431 0.06594,0.11332591 0.07588,0.25311724 0.04877,0.38139784 -0.02711,0.1282806 -0.08856,0.2467887 -0.158295,0.3578173 -0.06974,0.1110287 -0.148399,0.2163928 -0.214764,0.3294704 -0.210866,0.3592905 -0.289433,0.7861431 -0.271796,1.2023681 0.01764,0.4162249 0.127243,0.8239193 0.271796,1.214635 0.110939,0.2998614 0.243983,0.596656 0.281764,0.9141414 0.01889,0.1587427 0.01311,0.3217758 -0.03121,0.4753731 -0.04432,0.1535973 -0.128595,0.2975091 -0.250558,0.4008582 -0.03237,0.027433 -0.06808,0.052901 -0.08952,0.089519 -0.02312,0.039489 -0.0268,0.087604 -0.02235,0.1331468 0.0045,0.045543 0.01638,0.090039 0.02235,0.135409 0.02198,0.1672218 -0.03766,0.3331268 -0.09469,0.4918505 -0.02852,0.079362 -0.0567,0.1591473 -0.07432,0.2416161 -0.01762,0.082469 -0.02447,0.1681556 -0.01002,0.2512384 0.01318,0.075786 0.0436,0.1472972 0.06678,0.2206434 0.02319,0.073346 0.03925,0.1518208 0.02274,0.2269499 -0.01882,0.085591 -0.07776,0.1575147 -0.101151,0.2419698 -0.0117,0.042227 -0.0139,0.088499 0.0027,0.129033 0.0083,0.020267 0.02132,0.038752 0.03836,0.052522 0.01704,0.01377 0.03818,0.022676 0.06005,0.024068 0.01499,9.55e-4 0.02996,-0.00155 0.04491,-0.00304 0.01495,-0.00149 0.03042,-0.0019 0.04461,0.00304 0.01167,0.00407 0.02198,0.011681 0.02983,0.021226 0.0078,0.00955 0.01327,0.020973 0.01637,0.032936 0.0062,0.023927 0.0031,0.04941 -0.0038,0.073154 -0.0069,0.023744 -0.01732,0.046256 -0.02617,0.06933 -0.0088,0.023074 -0.01617,0.047197 -0.01624,0.07191 -1.06e-4,0.033949 0.01349,0.06661 0.03117,0.09559 0.01768,0.028979 0.03954,0.055184 0.05835,0.083448 0.07151,0.1074745 0.09596,0.243678 0.07326,0.3707607 -0.0227,0.1270826 -0.09096,0.2444054 -0.185392,0.3324211 -0.09444,0.088016 -0.214107,0.1472309 -0.339905,0.1762124 -0.125799,0.028982 -0.257542,0.028358 -0.384612,0.00559 C 17.618615,9.6122697 17.38771,9.4808964 17.178275,9.3299074 16.968839,9.1789185 16.775236,9.0063708 16.560952,8.8623453 16.48091,8.8085469 16.397567,8.7585591 16.307417,8.7242944 16.217267,8.6900297 16.119605,8.671906 16.02384,8.6833081 c -0.04542,0.00541 -0.08991,0.017348 -0.135423,0.021942 -0.04551,0.00459 -0.09367,0.00119 -0.133133,-0.021942 -0.0366,-0.021453 -0.06186,-0.057344 -0.08952,-0.089519 -0.07553,-0.087876 -0.17547,-0.1531335 -0.283406,-0.195284 -0.107937,-0.04215 -0.22381,-0.061851 -0.339601,-0.066261 -0.231581,-0.00882 -0.461067,0.040868 -0.686953,0.092669 -0.451771,0.1036029 -0.9121,0.1688758 -1.375599,0.1688758 H 7.3405313 4.9235282 c -0.3879143,0 -0.7758305,-0.00143 -1.1637422,0 -1.0150883,0.00374 -2.0300802,0.033594 -3.0436336,0.089519 z"
       id="path1"
       inkscape:path-effect="#path-effect1"
       inkscape:original-d="m 0.71614905,8.6833074 c -0.005088,-0.074151 -0.15815686,-0.489354 -0.0895186,-0.6266304 0.0133445,-0.026689 0.0800826,0.028308 0.0895186,0 0.0283083,-0.084925 -0.0283083,-0.1836312 0,-0.2685561 0.009436,-0.028308 0.076174,0.026689 0.0895187,0 0,-0.4075141 -0.0421995,-0.00512 0.0895186,-0.2685558 0.0648866,-0.1297733 0.0676045,-1.856115 0,-2.0589284 -0.0133445,-0.040034 -0.0792837,-0.048579 -0.0895186,-0.089519 -0.0491475,-0.1965902 0.0491475,-0.4300406 0,-0.6266305 -0.0161827,-0.064731 -0.0764331,-0.1136099 -0.0895187,-0.1790374 -0.0987097,-0.4935485 0,-1.1098705 0,-1.6113353 0,-0.1486127 -0.065919,-1.3334196 0,-1.4322982 C 0.82486557,1.358742 0.9070093,1.3191335 0.98470497,1.1637422 1.0818168,0.96951852 0.86731273,0.95683135 0.8056677,0.89518632 c -0.0421995,-0.0421995 0.0188722,-0.1224207 0,-0.17903727 -0.009167,-0.0275013 -0.16143727,-0.2861559 -0.0895187,-0.35807451 0.0947078,-0.0947078 0.4638111,0.16682048 0.5371118,0.17903727 0.1471677,0.0245279 0.3060517,-0.0471805 0.4475931,0 0.040034,0.0133445 0.048579,0.0792837 0.089519,0.0895186 0.086846,0.0217114 0.1807757,-0.0175562 0.268556,0 0.065427,0.0130855 0.1136097,0.0764331 0.1790372,0.0895186 0.5668535,0.1133707 1.3685092,0 1.96941,0 1.2532609,0 2.5065217,0 3.7597826,0 0.4193085,0 0.6859135,0.17147841 1.0742234,0.26855592 0.6093518,0.15233797 1.3399059,0.0895186 1.9694099,0.0895186 0.689185,0 1.922261,0.1122965 2.59604,0 0.608799,-0.10146644 -0.08152,-0.062345 0.537112,-0.26855581 0.08493,-0.0283083 0.183631,0.0283083 0.268556,0 0.02831,-0.009436 -0.02669,-0.076174 0,-0.0895187 0.09284,-0.0464176 0.457063,0.0200123 0.537112,0 0.04094,-0.0102349 0.04948,-0.076174 0.08952,-0.0895186 0.144345,-0.0481148 0.299984,-0.0526163 0.447593,-0.0895186 0.446485,-0.11162104 1.475923,0 1.96941,0 0.273288,0 0.721202,-0.0878346 0.984705,0 0.04003,0.0133445 0.04949,0.076174 0.08952,0.0895186 0.05662,0.0188722 0.125659,-0.0266893 0.179037,0 0.0046,0.002275 -0.03014,1.10254091 0,1.25326081 0.164834,0.8241675 0,1.5822861 0,2.4170031 0,0.4279119 0.109847,1.4608312 0,1.7903727 -0.01335,0.040034 -0.07617,0.049485 -0.08952,0.089519 -0.02686,0.080567 0.02685,0.1879891 0,0.2685558 -0.112837,0.3385092 -0.179038,0.6176645 -0.179038,0.984705 0,0.1916938 0.04488,0.2690498 0.08952,0.4475933 0.01284,0.05135 -0.04548,0.4021135 0,0.4475929 0.0211,0.021101 0.06842,-0.021101 0.08952,0 0.04138,0.041381 -0.02703,0.214507 0,0.2685561 0.02984,0.059679 0.149197,0.1491977 0.08952,0.1790372 -0.267934,0.1339667 -1.805295,0.1467106 -2.148447,0.089519 -0.186154,-0.031026 -0.354025,-0.1332656 -0.537112,-0.1790372 -0.179037,-0.044759 0,0.089519 -0.268556,0 -0.04003,-0.013346 -0.04948,-0.076174 -0.08952,-0.089519 -0.276576,-0.092192 -2.293649,0 -2.685559,0 -1.879891,0 -3.7597824,0 -5.6396737,0 -0.8056678,0 -1.6113355,0 -2.4170031,0 -0.1447133,0 -1.030175,-0.066784 -1.1637422,0 -0.8195477,0.4097737 -2.1450248,0.3890547 -3.0436336,0.089519 z"
       transform="matrix(1.0047436,0,0,1,-0.0010681,0)" />
    <path
       d="m 21.097773,18.151141 q -0.192,-0.096 -1.104,-0.096 -0.496,0 -0.592,0.048 -0.496,0.224 -0.816,1.136 -0.208,0.56 -0.208,1.68 0,0.784 0.016,0.976 0.032,0.192 0.192,0.432 l 0.224,0.352 0.656,-0.048 q 0.784,-0.064 1.264,-0.224 l 0.576,-0.208 -0.016,-0.816 q -0.016,-0.256 -0.032,-1.056 -0.016,-0.8 -0.016,-0.944 -0.016,-1.168 -0.144,-1.232 z m 1.232,-4.72 q 0.8,-0.24 1.024,-0.24 0.128,0 0.176,0.112 0.112,0.288 0.112,2.8 0,1.392 -0.064,1.776 -0.224,1.12 -0.224,1.584 0,0.304 0.08,0.672 0.144,0.608 0.144,2.08 0,1.056 -0.096,1.456 l -0.096,0.464 h -0.496 q -0.464,0 -0.784,0.144 -0.608,0.256 -1.568,0.416 -0.944,0.176 -1.696,0.176 -0.544,0 -0.768,-0.08 -0.4,-0.128 -0.864,-0.64 -0.464,-0.496 -0.752,-1.088 -0.128,-0.272 -0.16,-0.336 -0.032,-0.064 -0.096,-0.24 -0.048,-0.176 -0.064,-0.304 0,-0.144 0,-0.368 0,-0.416 0.048,-1.392 0.08,-1.68 0.72,-2.848 0.224,-0.384 0.688,-0.832 0.48,-0.448 0.832,-0.608 0.704,-0.304 1.616,-0.304 0.448,0 1.184,0.112 l 0.256,0.048 -0.064,-0.448 q -0.032,-0.288 -0.032,-0.656 0,-0.336 0.016,-0.48 l 0.048,-0.72 z m 5.055999,2.608 q 0.048,-0.048 0.096,-0.048 0.224,0 0.224,0.64 0,0.208 -0.048,0.4 -0.112,0.368 -0.112,1.136 0,0.72 0.224,1.376 0.192,0.56 0.192,0.928 0,0.32 -0.016,0.544 -0.032,0.576 -0.032,0.608 0,0.304 0.128,0.384 0.112,0.112 0.608,0.192 0.496,0.08 0.928,0.08 0.192,0 0.352,-0.032 0.304,-0.08 0.4,-0.176 0.112,-0.112 0.112,-0.384 0,-0.24 -0.016,-0.4 -0.032,-0.32 -0.16,-1.136 -0.128,-0.816 -0.128,-1.296 0,-0.544 0.112,-1.584 0.112,-1.04 0.192,-1.168 0.016,-0.048 0.096,-0.048 0.096,0 0.96,0.288 l 0.992,0.336 -0.016,0.32 q 0,0.048 -0.032,0.512 -0.016,0.448 -0.048,0.752 -0.048,0.48 -0.048,0.768 0,0.336 0.064,0.544 0.24,0.912 0.24,3.152 0,0.912 -0.08,0.912 -0.032,0 -0.048,-0.064 l -0.08,-0.192 -0.272,0.208 q -0.32,0.224 -0.352,0.224 -0.048,0 -0.352,0.208 -0.64,0.432 -1.904,0.432 -0.4,0 -0.624,-0.016 -1.168,-0.064 -1.456,-0.144 -0.64,-0.176 -1.12,-0.816 -0.72,-0.992 -0.72,-1.84 0,-0.256 0.048,-0.544 0.032,-0.384 0.032,-0.48 0,-0.288 -0.112,-0.64 -0.32,-0.976 -0.32,-1.872 0,-0.336 0.016,-0.528 0.064,-0.896 0.112,-1.04 0.064,-0.144 0.352,-0.144 0.304,0 0.48,-0.176 0.144,-0.144 0.448,-0.144 h 0.176 0.192 q 0.288,0 0.32,-0.032 z m 9.791996,0.032 q 0.96,0 1.008,-0.048 0.048,-0.048 0.272,-0.048 0.432,0 0.816,0.128 1.408,0.496 1.68,1.472 0.112,0.4 0.288,0.912 0.272,0.784 0.448,3.184 0.064,0.96 0.064,1.088 0,0.288 -0.064,0.544 -0.096,0.384 -0.096,0.784 0,0.56 -0.32,0.88 -0.304,0.32 -0.848,0.32 -0.64,0 -0.928,-0.464 -0.096,-0.128 -0.096,-0.848 0,-0.8 0.112,-1.072 0.032,-0.096 0.032,-0.32 0,-0.656 -0.16,-1.872 -0.144,-1.232 -0.304,-1.728 l -0.208,-0.672 q -0.352,0 -1.072,-0.016 -0.704,-0.016 -1.056,-0.016 l -0.176,0.224 q -0.16,0.208 -0.16,0.48 0,0.192 0.016,0.336 0.064,0.608 0.144,0.992 0.272,1.424 0.272,1.872 0,0.272 -0.08,0.784 -0.128,0.896 -0.24,1.008 -0.112,0.112 -1.072,0.24 -0.592,0.096 -0.816,0.144 l -0.24,0.048 0.048,-0.608 q 0.016,-0.224 0.064,-0.528 0.048,-0.288 0.064,-0.496 0.032,-0.224 0.032,-0.432 0,-0.336 -0.064,-0.704 -0.272,-1.68 -0.272,-3.024 v -0.416 l 0.032,-1.104 0.336,-0.096 q 0.384,-0.096 0.624,-0.336 0.368,-0.368 0.704,-0.48 0.336,-0.112 1.008,-0.112 z m 10.863995,5.584 0.048,-0.624 h -0.592 q -0.512,0 -1.104,0.096 -0.592,0.08 -0.688,0.176 -0.096,0.096 -0.096,0.528 0,0.448 0.096,0.544 0.208,0.208 1.104,0.208 0.32,0 0.56,-0.048 0.48,-0.096 0.544,-0.192 0.08,-0.096 0.128,-0.688 z m -2.064,-5.792 q 0.224,0 0.528,0 0.32,-0.016 0.512,-0.016 0.208,-0.016 0.288,-0.016 h 0.08 q 0.272,0 0.912,0.096 0.496,0.112 0.736,0.112 0.032,0 0.064,0 l 0.032,-0.016 q 0.192,-0.048 0.304,0.272 0.096,0.272 0.272,0.416 0.352,0.288 0.464,0.784 0.128,0.496 0.24,1.968 0.048,0.624 0.048,0.96 0,0.4 -0.096,0.832 -0.064,0.272 -0.064,0.608 0,0.656 0.272,0.8 0.176,0.096 0.368,0.4 0.208,0.32 0.208,0.512 0,0.176 -0.096,0.4 -0.096,0.24 -0.16,0.24 -0.048,0 -0.112,0.176 -0.048,0.16 -0.224,0.16 -0.144,0 -0.144,0.128 0,0.112 -0.224,0.112 -0.336,0 -0.736,-0.208 -0.352,-0.176 -0.448,-0.176 -0.048,0 -0.208,0.064 -0.432,0.192 -1.744,0.288 -0.112,0.016 -0.336,0.016 -1.232,0 -2,-0.384 -0.672,-0.352 -1.072,-1.248 -0.144,-0.32 -0.176,-0.544 -0.032,-0.224 -0.032,-0.928 0,-0.752 0.032,-0.944 0.032,-0.208 0.192,-0.48 0.352,-0.592 1.184,-1.04 0.368,-0.192 2.208,-0.352 1.024,-0.096 1.056,-0.128 0.032,-0.064 0.032,-0.112 0,-0.144 -0.096,-0.32 -0.096,-0.192 -0.208,-0.208 -0.128,-0.032 -0.56,-0.032 -0.288,0 -1.056,0.032 l -1.424,0.064 0.048,-0.784 q 0.016,-0.16 0.032,-0.416 0.016,-0.272 0.016,-0.448 0.016,-0.176 0.032,-0.256 l 0.048,-0.352 z m 7.312016,-2.352 q 0.144,-0.256 0.256,-0.256 0.064,0 0.112,0.08 0.048,0.08 0.912,0.08 h 0.864 v 0.672 q 0,1.264 0.336,1.568 0.16,0.144 0.32,0.144 0.144,0 0.4,-0.128 0.192,-0.096 0.48,-0.096 0.512,0 0.832,0.224 0.512,0.352 0.512,1.28 0,0.432 -0.08,0.528 -0.064,0.096 -0.4,0.096 -0.224,0 -0.544,0.176 -0.288,0.144 -0.752,0.144 h -0.304 -0.304 q -0.416,0 -0.56,0.176 -0.096,0.112 -0.096,0.32 0,0.016 0.064,0.656 0.048,0.288 0.128,1.872 0.032,1.072 0.096,1.264 0.08,0.176 0.528,0.176 h 0.304 0.768 v 2.224 h -0.848 q -0.816,0 -1.232,-0.064 -0.576,-0.096 -1.008,-0.576 -0.432,-0.464 -0.672,-1.232 -0.08,-0.304 -0.192,-1.648 -0.096,-1.36 -0.112,-2.656 -0.032,-0.704 -0.112,-0.768 -0.112,-0.064 -0.112,-1.136 v -1.072 h 0.24 q 0.176,0 0.208,-0.032 0.032,-0.048 0,-0.24 -0.096,-0.448 -0.128,-0.544 -0.064,-0.24 -0.064,-0.544 0,-0.432 0.16,-0.688 z"
       id="text1"
       style="font-size:16px;line-height:1.25;font-family:Titilliumweb_semibold;-inkscape-font-specification:Titilliumweb_semibold;text-align:center;text-anchor:middle;white-space:pre;fill:#ffffff;stroke-width:3.77953"
       transform="matrix(0.26458333,0,0,0.26458333,-0.17903727,-0.35807453)"
       aria-label="dunat" />
  </g>
</svg>
