<?xml version="1.0" encoding="UTF-8" standalone="no"?>
<svg
   width="36px"
   height="35px"
   viewBox="0 0 36 35"
   version="1.1"
   id="svg1"
   sodipodi:docname="efficiency.svg"
   inkscape:version="1.3.2 (091e20e, 2023-11-25, custom)"
   xmlns:inkscape="http://www.inkscape.org/namespaces/inkscape"
   xmlns:sodipodi="http://sodipodi.sourceforge.net/DTD/sodipodi-0.dtd"
   xmlns="http://www.w3.org/2000/svg"
   xmlns:svg="http://www.w3.org/2000/svg">
  <sodipodi:namedview
     id="namedview1"
     pagecolor="#ffffff"
     bordercolor="#000000"
     borderopacity="0.25"
     inkscape:showpageshadow="2"
     inkscape:pageopacity="0.0"
     inkscape:pagecheckerboard="0"
     inkscape:deskcolor="#d1d1d1"
     inkscape:zoom="33.514286"
     inkscape:cx="17.992327"
     inkscape:cy="17.5"
     inkscape:window-width="2560"
     inkscape:window-height="1369"
     inkscape:window-x="-8"
     inkscape:window-y="-8"
     inkscape:window-maximized="1"
     inkscape:current-layer="svg1" />
  <!-- Generator: Sketch 49 (51002) - http://www.bohemiancoding.com/sketch -->
  <title
     id="title1">Cost efficiency ICON</title>
  <desc
     id="desc1">Created with Sketch.</desc>
  <defs
     id="defs1">
    <inkscape:path-effect
       effect="spiro"
       id="path-effect11"
       is_visible="true"
       lpeversion="1" />
    <inkscape:path-effect
       effect="spiro"
       id="path-effect10"
       is_visible="true"
       lpeversion="1" />
    <inkscape:path-effect
       effect="spiro"
       id="path-effect9"
       is_visible="true"
       lpeversion="1" />
    <inkscape:path-effect
       effect="spiro"
       id="path-effect8"
       is_visible="true"
       lpeversion="1" />
    <inkscape:path-effect
       effect="spiro"
       id="path-effect7"
       is_visible="true"
       lpeversion="1" />
    <inkscape:path-effect
       effect="spiro"
       id="path-effect6"
       is_visible="true"
       lpeversion="1" />
    <inkscape:path-effect
       effect="spiro"
       id="path-effect5"
       is_visible="true"
       lpeversion="1" />
    <inkscape:path-effect
       effect="spiro"
       id="path-effect4"
       is_visible="true"
       lpeversion="1" />
    <inkscape:path-effect
       effect="spiro"
       id="path-effect3"
       is_visible="true"
       lpeversion="1" />
    <inkscape:path-effect
       effect="spiro"
       id="path-effect2"
       is_visible="true"
       lpeversion="1" />
    <inkscape:path-effect
       effect="spiro"
       id="path-effect1"
       is_visible="true"
       lpeversion="1" />
  </defs>
  <path
     style="fill:none;stroke:#ff9500;stroke-width:1.079;stroke-opacity:1"
     d="m 22.02046,33.120205 c -0.629557,0.145863 -1.267503,0.255509 -1.909633,0.328218 -0.337677,0.03824 -0.678877,0.06626 -1.017,0.0322 -0.338124,-0.03406 -0.675523,-0.133406 -0.95231,-0.330577 -0.2467,-0.175738 -0.43466,-0.420298 -0.656436,-0.626599 -0.108284,-0.100728 -0.224903,-0.192561 -0.328218,-0.29838 -0.133576,-0.136815 -0.242917,-0.294915 -0.358057,-0.44757 -0.274664,-0.364157 -0.587153,-0.703607 -0.805626,-1.104007 -0.154154,-0.28252 -0.258,-0.589249 -0.358056,-0.895141 -0.08624,-0.263644 -0.170835,-0.52946 -0.298381,-0.775788 -0.251191,-0.485121 -0.656367,-0.871391 -1.074168,-1.223359 -0.247953,-0.208883 -0.504608,-0.410716 -0.716113,-0.656437 -0.411156,-0.477669 -0.625503,-1.088081 -0.865303,-1.670929 -0.08302,-0.201778 -0.170111,-0.402036 -0.268542,-0.596761 -0.09032,-0.178681 -0.190239,-0.352819 -0.268542,-0.537084 -0.153134,-0.360359 -0.21997,-0.75023 -0.29838,-1.133845 -0.205675,-1.006246 -0.500139,-2.030919 -0.328218,-3.043478 0.04768,-0.280841 0.130744,-0.554727 0.179028,-0.835465 0.04843,-0.281599 0.06311,-0.5743 0.179028,-0.835464 0.08931,-0.201217 0.234613,-0.3729 0.394426,-0.524308 0.159812,-0.151408 0.33543,-0.285094 0.500714,-0.430509 0.290652,-0.255713 0.548027,-0.546484 0.805627,-0.835465 0.281137,-0.315386 0.565205,-0.631229 0.895141,-0.89514 0.784781,-0.627736 1.777033,-0.923734 2.745098,-1.193521 0.227421,-0.06338 0.456266,-0.126533 0.670219,-0.22634 0.213953,-0.09981 0.414365,-0.239102 0.55314,-0.430097 0.1545,-0.212637 0.223566,-0.475892 0.257286,-0.73656 0.03372,-0.260668 0.03528,-0.524769 0.07093,-0.785179 0.03622,-0.264575 0.110691,-0.530554 0.268542,-0.74595 0.05423,-0.074 0.117436,-0.140871 0.179028,-0.208866 0.136721,-0.150935 0.266553,-0.308643 0.414802,-0.448273 0.148249,-0.139629 0.317362,-0.261969 0.510177,-0.327516 0.303889,-0.103307 0.635047,-0.05756 0.954817,-0.02984 0.62469,0.05415 1.253263,0.03463 1.879795,0.05968 1.33273,0.05329 2.651064,0.308283 3.938619,0.656436 0.470899,0.12733 0.93839,0.26718 1.402387,0.417733 0.626281,0.203209 1.262124,0.434953 1.760443,0.865302 0.386747,0.333995 0.671091,0.772439 0.893279,1.23261 0.222189,0.460172 0.386569,0.945561 0.568784,1.422974 0.136642,0.358011 0.284195,0.713406 0.477409,1.044331 0.150668,0.258055 0.32916,0.501431 0.44757,0.775789 0.138851,0.321721 0.189657,0.673082 0.268542,1.014492 0.201615,0.87258 0.589604,1.688675 0.954817,2.506394 0.190233,0.425934 0.376048,0.857533 0.477408,1.312873 0.09387,0.421676 0.113572,0.856025 0.179029,1.283035 0.02282,0.148842 0.05125,0.297227 0.05968,0.447571 0.01117,0.199046 -0.01287,0.398125 -0.02984,0.59676 -0.04073,0.476654 -0.04093,0.956306 -0.08951,1.432225 -0.01131,0.110839 -0.02542,0.222203 -0.05968,0.328218 -0.06712,0.207692 -0.207503,0.383131 -0.354767,0.544237 -0.147265,0.161106 -0.305632,0.314818 -0.421021,0.500094 -0.196827,0.31604 -0.253117,0.697261 -0.387894,1.044331 -0.177512,0.457118 -0.48858,0.848643 -0.716113,1.283035 -0.111863,0.213561 -0.205186,0.440179 -0.358056,0.626598 -0.219345,0.267483 -0.543197,0.430228 -0.775789,0.686275 -0.0474,0.05218 -0.0915,0.10867 -0.14919,0.14919 -0.02046,0.01437 -0.04237,0.02653 -0.06324,0.04029 -0.02087,0.01376 -0.04093,0.02936 -0.05611,0.04922 -0.01946,0.02544 -0.03014,0.05748 -0.02984,0.08951 -0.03084,0.0065 -0.06093,0.01656 -0.08951,0.02984 -0.114746,0.05333 -0.199295,0.155911 -0.264356,0.264437 -0.06506,0.108526 -0.114687,0.225953 -0.183214,0.332324 -0.08258,0.128187 -0.193456,0.242277 -0.238705,0.387894 -0.03574,0.11502 -0.02671,0.239229 -0.0054,0.357768 0.02135,0.118538 0.05465,0.235105 0.06681,0.354935 0.01216,0.119829 0.0014,0.246414 -0.05971,0.350194 -0.03056,0.05189 -0.07356,0.09698 -0.126031,0.126539 -0.05247,0.02956 -0.114552,0.04301 -0.174085,0.03392 -0.07541,-0.01151 -0.141772,-0.05769 -0.193691,-0.113581 -0.05192,-0.05589 -0.09169,-0.121683 -0.134527,-0.184799 -0.115222,-0.169762 -0.254064,-0.321895 -0.387894,-0.477409 -0.244454,-0.28406 -0.48134,-0.587943 -0.805627,-0.775788 -0.390636,-0.226278 -0.874507,-0.257052 -1.312873,-0.149191 -0.119504,0.0294 -0.236786,0.06854 -0.358056,0.08951 -0.141001,0.02438 -0.289977,0.02506 -0.417733,0.08951 -0.114041,0.05753 -0.198123,0.159559 -0.29838,0.238704 -0.126082,0.09953 -0.276606,0.16198 -0.417732,0.238704 -0.300094,0.163148 -0.563907,0.397252 -0.745951,0.686274 -0.02859,0.04539 -0.05524,0.09218 -0.08804,0.134629 -0.0328,0.04245 -0.07246,0.08087 -0.120828,0.104076 -0.0284,0.01362 -0.05908,0.02168 -0.08951,0.02984 -0.356756,0.09562 -0.7087,0.215146 -1.074169,0.268542 -0.187511,0.0274 -0.377561,0.03715 -0.566922,0.02984 -0.109825,-0.0042 -0.219429,-0.0142 -0.328218,-0.02984 -0.04883,0.01155 -0.100358,0.01155 -0.14919,0 -0.08284,-0.0196 -0.155581,-0.07113 -0.238705,-0.08951 -0.04022,-0.0089 -0.08316,-0.01016 -0.119352,-0.02984 -0.02265,-0.01232 -0.04145,-0.03157 -0.05322,-0.05451 -0.01177,-0.02293 -0.01645,-0.04944 -0.01326,-0.07502 0.0032,-0.02558 0.01426,-0.05012 0.03132,-0.06945 0.01705,-0.01933 0.04002,-0.03337 0.065,-0.03973 z"
     id="path1"
     inkscape:path-effect="#path-effect1"
     inkscape:original-d="m 22.02046,33.120205 c -0.57493,0.375951 -1.252734,0.328218 -1.909633,0.328218 -0.668114,0 -1.361692,0.04506 -1.96931,-0.29838 -0.247245,-0.139748 -0.451829,-0.433359 -0.656436,-0.626599 -0.107495,-0.101523 -0.22811,-0.189567 -0.328218,-0.29838 -0.129356,-0.140605 -0.239242,-0.297952 -0.358057,-0.44757 -0.203765,-0.256594 -0.651044,-0.794843 -0.805626,-1.104007 -0.143719,-0.287438 -0.245985,-0.59395 -0.358056,-0.895141 -0.106795,-0.28701 -0.119966,-0.514539 -0.298381,-0.775788 -0.483487,-0.707965 -0.552681,-0.743042 -1.074168,-1.223359 -0.238184,-0.21938 -0.499831,-0.415437 -0.716113,-0.656437 -0.329646,-0.36732 -0.733122,-1.382089 -0.865303,-1.670929 -0.09077,-0.19835 -0.175162,-0.399626 -0.268542,-0.596761 -0.08568,-0.180891 -0.191558,-0.352321 -0.268542,-0.537084 -0.191048,-0.458516 -0.198056,-0.643372 -0.29838,-1.133845 -0.202969,-0.992289 -0.370641,-2.02534 -0.328218,-3.043478 0.0044,-0.106509 0.152201,-0.710273 0.179028,-0.835465 0.01432,-0.06683 0.143581,-0.744879 0.179028,-0.835464 0.162311,-0.414795 0.585617,-0.668221 0.89514,-0.954817 0.218859,-0.202647 0.61283,-0.622011 0.805627,-0.835465 0.276568,-0.306199 0.539005,-0.668508 0.895141,-0.89514 0.818564,-0.520905 1.857718,-0.804319 2.745098,-1.193521 0.291004,-0.127634 0.923568,-0.411154 1.223359,-0.656437 0.510771,-0.417903 0.292215,-0.927698 0.328218,-1.521739 0.01411,-0.232852 0.140431,-0.553783 0.268542,-0.74595 0.05087,-0.0763 0.123544,-0.13586 0.179028,-0.208866 0.302216,-0.397653 0.41621,-0.709428 0.924979,-0.775789 0.326548,-0.04259 0.624083,-0.02984 0.954817,-0.02984 1.088438,0 0.9517,-0.03014 1.879795,0.05968 1.328386,0.128553 2.641954,0.338886 3.938619,0.656436 0.495616,0.121376 0.924035,0.233226 1.402387,0.417733 0.491121,0.189432 1.320349,0.410033 1.760443,0.865302 0.724932,0.74993 1.087452,1.704647 1.462063,2.655584 0.179945,0.456784 0.242172,0.601533 0.477409,1.044331 0.140064,0.263651 0.319215,0.506243 0.44757,0.775789 0.148742,0.312357 0.154246,0.68793 0.268542,1.014492 0.293868,0.839623 0.614082,1.685532 0.954817,2.506394 0.351217,0.846115 0.133217,0.06127 0.477408,1.312873 0.113925,0.414271 0.131746,0.857496 0.179029,1.283035 0.01662,0.14959 0.05968,0.29706 0.05968,0.447571 0,0.199168 -0.02398,0.397677 -0.02984,0.59676 -0.01413,0.480316 4.37e-4,0.95998 -0.08951,1.432225 -0.02081,0.109236 -0.02294,0.223262 -0.05968,0.328218 -0.149046,0.425847 -0.531749,0.687658 -0.775788,1.044331 -0.222685,0.325462 -0.244728,0.686415 -0.387894,1.044331 -0.18916,0.472899 -0.447344,0.844518 -0.716113,1.283035 -0.0864,0.140971 -0.252813,0.490402 -0.358056,0.626598 -0.263609,0.341141 -0.470446,0.427908 -0.775789,0.686275 -0.05369,0.04543 -0.09663,0.102466 -0.14919,0.14919 -0.03717,0.03304 -0.08752,0.05131 -0.119352,0.08951 -0.02013,0.02416 -0.0076,0.06727 -0.02984,0.08951 -0.06339,0 -0.05293,-0.01407 -0.08951,0.02984 -0.187763,0.225316 -0.218696,0.296363 -0.44757,0.596761 -0.109117,0.143215 -0.206697,0.211853 -0.238705,0.387894 -0.04293,0.236124 -0.16502,1.156679 -0.29838,1.223359 -0.150076,0.07504 -0.279358,-0.235949 -0.328218,-0.29838 -0.126369,-0.161472 -0.252039,-0.323833 -0.387894,-0.477409 -0.117674,-0.133022 -0.640263,-0.693107 -0.805627,-0.775788 -0.309042,-0.154521 -0.976555,-0.19123 -1.312873,-0.149191 -0.266366,0.0333 -0.09534,0.01786 -0.358056,0.08951 -0.126702,0.03456 -0.298058,0.03633 -0.417733,0.08951 -0.112208,0.04987 -0.196047,0.170482 -0.29838,0.238704 -0.138609,0.09241 -0.283681,0.133378 -0.417732,0.238704 -0.168149,0.132117 -0.700419,0.640743 -0.745951,0.686274 -0.05194,0.05194 -0.136455,0.190431 -0.208866,0.238705 -0.02617,0.01745 -0.06138,0.01577 -0.08951,0.02984 -0.321923,0.160961 -0.70994,0.253973 -1.074169,0.268542 -1.088628,0.04354 -0.211851,-0.05893 -0.566922,0.02984 -0.105989,0.0265 -0.230937,-0.01038 -0.328218,-0.02984 -0.04828,-0.01463 -0.100426,0.0098 -0.14919,0 -0.08589,-0.01718 -0.152816,-0.07234 -0.238705,-0.08951 -0.05909,-0.01182 -0.06741,0.02211 -0.119352,-0.02984 -0.02347,-0.02348 0.02287,-0.203884 0.02984,-0.238704 z" />
  <path
     style="fill:none;stroke:#ff9500;stroke-width:1.079;stroke-opacity:1"
     d="m 19.00682,29.450128 c -0.03007,-0.09706 -0.05011,-0.197222 -0.05968,-0.29838 -0.0454,-0.479764 0.143134,-0.94617 0.29838,-1.402387 0.06659,-0.195689 0.12904,-0.396275 0.244507,-0.567727 0.05773,-0.08573 0.128677,-0.163403 0.213716,-0.222144 0.08504,-0.05874 0.184627,-0.09804 0.287728,-0.10527 0.09364,-0.0066 0.186847,0.01302 0.279352,0.02897 0.0925,0.01595 0.188081,0.02825 0.279608,0.0074 0.04576,-0.01042 0.08997,-0.02927 0.12707,-0.05802 0.0371,-0.02876 0.06683,-0.06771 0.08146,-0.112308 0.01463,-0.0446 0.01347,-0.09481 -0.0064,-0.137349 -0.01983,-0.04254 -0.05892,-0.0764 -0.104696,-0.08676 -0.02926,-0.0066 -0.05976,-0.0038 -0.08951,0 -0.06001,0.0077 -0.119413,0.0195 -0.179028,0.02984 -0.443075,0.07686 -0.899119,0.07382 -1.342711,0 -0.308805,-0.05139 -0.610908,-0.136553 -0.917454,-0.200041 -0.306547,-0.06349 -0.621625,-0.105329 -0.932503,-0.0685 -0.232118,0.0275 -0.461473,0.09865 -0.694682,0.08289 -0.116605,-0.0079 -0.233494,-0.03857 -0.331199,-0.102702 -0.0977,-0.06413 -0.174698,-0.163935 -0.197478,-0.278564 -0.01672,-0.08411 -0.004,-0.172217 0.02531,-0.25281 0.0293,-0.08059 0.07458,-0.154437 0.123882,-0.224598 0.121196,-0.172465 0.267653,-0.325353 0.404152,-0.485979 0.1365,-0.160626 0.264964,-0.332225 0.341799,-0.528514 0.04479,-0.114433 0.07341,-0.239445 0.152946,-0.333126 0.03977,-0.04684 0.09257,-0.08434 0.152585,-0.09751 0.03001,-0.0066 0.06149,-0.007 0.0914,5e-5 0.02991,0.007 0.05817,0.02157 0.08048,0.04269 0.02617,0.02479 0.04326,0.05742 0.05968,0.08951 0.05679,0.110998 0.111351,0.223501 0.179028,0.328218 0.134197,0.207643 0.316212,0.379154 0.495448,0.549445 0.179235,0.17029 0.359572,0.344041 0.489207,0.554562 0.02061,0.03348 0.03993,0.06786 0.06338,0.09941 0.02345,0.03155 0.05146,0.06048 0.08581,0.07962 0.05748,0.03202 0.127032,0.03372 0.19236,0.02589 0.06533,-0.0078 0.129756,-0.02435 0.195534,-0.02589 0.07982,-0.0019 0.160991,0.01831 0.238704,0 0.04331,-0.0102 0.08377,-0.03243 0.115327,-0.06379 0.03156,-0.03136 0.05407,-0.0718 0.0637,-0.115239 0.0035,-0.01556 0.0053,-0.03147 0.0091,-0.04694 0.0039,-0.01547 0.01,-0.03079 0.0207,-0.04257 0.0076,-0.0083 0.01719,-0.01456 0.02735,-0.01937 0.01017,-0.0048 0.02092,-0.0082 0.03166,-0.01155 0.02149,-0.0066 0.04397,-0.01333 0.06034,-0.02875 0.01538,-0.01449 0.02357,-0.03525 0.02705,-0.0561 0.0035,-0.02084 0.0027,-0.04212 0.0028,-0.06326 0.0011,-0.24497 0.118485,-0.47283 0.238704,-0.686275 0.168316,-0.29884 0.347957,-0.591393 0.507246,-0.89514 0.14264,-0.272 0.268663,-0.55242 0.387894,-0.835465 0.193089,-0.458376 0.368781,-0.924664 0.507247,-1.402387 0.06488,-0.223844 0.12195,-0.453232 0.119352,-0.686275 -9.99e-4,-0.0896 -0.01082,-0.179591 0,-0.268542 0.01723,-0.141692 0.08616,-0.275035 0.08951,-0.417732 0.0011,-0.04492 -0.0045,-0.08969 -0.0075,-0.134524 -0.003,-0.04483 -0.0035,-0.09044 0.0075,-0.134018 0.01053,-0.04186 0.03135,-0.08085 0.03896,-0.123337 0.0038,-0.02124 0.0042,-0.04341 -0.0018,-0.06415 -0.006,-0.02073 -0.01874,-0.03995 -0.03714,-0.05122 -0.0095,-0.0058 -0.02024,-0.0094 -0.03065,-0.01346 -0.01042,-0.0041 -0.02084,-0.0088 -0.02903,-0.01638 -0.0082,-0.0076 -0.01369,-0.01779 -0.01795,-0.02818 -0.0043,-0.01039 -0.0074,-0.0212 -0.01189,-0.0315 -0.01052,-0.02427 -0.02803,-0.04514 -0.04867,-0.06169 -0.02064,-0.01655 -0.04435,-0.02894 -0.06889,-0.0388 -0.04909,-0.01972 -0.101661,-0.02957 -0.150986,-0.0487 -0.09933,-0.03852 -0.180523,-0.112568 -0.253324,-0.190357 -0.0728,-0.07779 -0.140361,-0.161485 -0.224085,-0.227375 -0.164876,-0.129756 -0.376999,-0.179381 -0.566922,-0.268542 -0.112836,-0.05297 -0.218304,-0.120232 -0.328218,-0.179028 -0.17283,-0.09245 -0.35602,-0.163651 -0.537085,-0.238704 -0.264816,-0.109769 -0.527549,-0.22874 -0.805626,-0.298381 -0.0525,-0.01315 -0.105558,-0.02454 -0.15676,-0.04208 -0.0512,-0.01754 -0.100932,-0.04159 -0.141621,-0.07727 -0.06829,-0.0599 -0.106164,-0.148826 -0.119352,-0.238704 -0.02163,-0.1474 0.0182,-0.298381 0.08398,-0.43205 0.06578,-0.13367 0.156612,-0.253091 0.244235,-0.373576 0.07141,-0.09819 0.141047,-0.197674 0.208866,-0.298381 0.04068,-0.109327 0.101705,-0.211042 0.179028,-0.29838 0.06709,-0.07578 0.145882,-0.140393 0.214338,-0.214938 0.06846,-0.07455 0.127793,-0.162522 0.143718,-0.26247 0.0033,-0.02045 0.0047,-0.04118 0.0083,-0.06156 0.0037,-0.02038 0.0098,-0.04072 0.02151,-0.05779 0.01285,-0.01871 0.03213,-0.03271 0.05354,-0.04025 0.02141,-0.0075 0.04485,-0.0088 0.06718,-0.0047 0.04466,0.0082 0.08348,0.03705 0.111962,0.07241 0.05696,0.07072 0.07605,0.164815 0.125381,0.241052 0.0372,0.05749 0.09055,0.103008 0.148017,0.140246 0.05747,0.03724 0.119447,0.06686 0.180202,0.09846 0.322403,0.167663 0.616587,0.396193 0.835464,0.686275 0.167139,0.221513 0.292714,0.480427 0.507247,0.656436 0.110965,0.09104 0.24102,0.155614 0.358056,0.238704 0.10388,0.07375 0.196914,0.161665 0.29838,0.238704 0.141373,0.107339 0.300558,0.194885 0.417733,0.328219 0.01225,0.01394 0.02409,0.02843 0.03863,0.03995 0.01454,0.01152 0.03233,0.02001 0.05088,0.01973 0.01456,-2.24e-4 0.02882,-0.0059 0.04009,-0.01515 0.01127,-0.0092 0.01961,-0.02177 0.02461,-0.03545 0.01,-0.02735 0.0066,-0.05803 -0.0026,-0.08566 -0.0092,-0.02764 -0.02375,-0.05309 -0.03654,-0.07924 -0.01279,-0.02615 -0.02401,-0.05381 -0.0256,-0.08288 -0.0017,-0.03171 0.0081,-0.06297 0.02073,-0.09211 0.01264,-0.02914 0.0282,-0.05703 0.03895,-0.08692 0.03058,-0.08507 0.01996,-0.178687 0.02984,-0.268542 0.0142,-0.129184 0.07077,-0.249625 0.13192,-0.364302 0.06115,-0.114676 0.128219,-0.227602 0.16646,-0.35181 0.02414,-0.07841 0.03636,-0.160051 0.05968,-0.238705 0.04309,-0.145369 0.122885,-0.276887 0.179028,-0.417732 0.0397,-0.09961 0.06779,-0.204363 0.119352,-0.29838 0.05176,-0.09439 0.125648,-0.17506 0.179028,-0.268542 0.02206,-0.03864 0.04048,-0.07922 0.05968,-0.119352 0.03466,-0.07244 0.07215,-0.143906 0.119352,-0.208867 0.103549,-0.142501 0.250036,-0.248752 0.358057,-0.387894 0.04777,-0.06154 0.08859,-0.130074 0.14919,-0.179028 0.02491,-0.02012 0.0526,-0.03644 0.07898,-0.05458 0.02638,-0.01814 0.05186,-0.03853 0.07021,-0.06477 0.02553,-0.03651 0.0356,-0.08187 0.05968,-0.119352 0.02058,-0.03203 0.05065,-0.05704 0.08316,-0.07686 0.03251,-0.01982 0.06765,-0.03484 0.102343,-0.05053 0.03469,-0.01569 0.06928,-0.03225 0.100007,-0.05473 0.03072,-0.02248 0.05764,-0.0514 0.07255,-0.08643 0.0087,-0.02047 0.01313,-0.04246 0.01879,-0.06398 0.0057,-0.02152 0.01282,-0.04314 0.02613,-0.06097 0.0067,-0.0089 0.01482,-0.01678 0.02437,-0.02249 0.0095,-0.0057 0.02051,-0.0092 0.03163,-0.0094 0.01112,-1.75e-4 0.02238,0.0031 0.03131,0.0097 0.0089,0.0066 0.01536,0.01674 0.01695,0.02775 7.11e-4,0.0049 5.05e-4,0.0099 3.12e-4,0.01491 -1.93e-4,0.005 -3.12e-4,0.01 -3.12e-4,0.01493 v 0.29838 c 0,0.109421 0.0059,0.218957 0,0.328218 -0.01322,0.244164 -0.104159,0.476207 -0.172366,0.711022 -0.0341,0.117408 -0.06279,0.236972 -0.07315,0.358793 -0.01036,0.121822 -0.0019,0.2464 0.03665,0.36241 0.05023,0.150977 0.148481,0.280305 0.240638,0.410012 0.09216,0.129708 0.181769,0.267561 0.210246,0.424104 0.01424,0.07827 0.01236,0.160266 -0.01224,0.235924 -0.0246,0.07566 -0.07281,0.144581 -0.139414,0.188085 -0.06661,0.0435 -0.151878,0.05983 -0.228272,0.03762 -0.0382,-0.0111 -0.07375,-0.03154 -0.101964,-0.05958 -0.02821,-0.02804 -0.04894,-0.0637 -0.0585,-0.102315 -0.0096,-0.03893 -0.0079,-0.08003 0,-0.119352 0.01503,-0.07459 0.05154,-0.142923 0.08951,-0.208866 0.11341,-0.196974 0.244718,-0.385365 0.328218,-0.596761 0.119856,-0.303437 0.134597,-0.636552 0.149115,-0.962479 0.01452,-0.325928 0.03188,-0.659324 0.156302,-0.960917 0.06221,-0.150796 0.151432,-0.291871 0.270598,-0.403268 0.119167,-0.111397 0.269261,-0.192083 0.430449,-0.217154 0.161187,-0.02507 0.333021,0.008 0.466472,0.101833 0.06673,0.04691 0.123387,0.108364 0.163273,0.179509 0.03989,0.07114 0.06281,0.151947 0.06456,0.233491 2.13e-4,0.0099 1.17e-4,0.01989 0,0.02984 -0.0018,0.149624 -0.0082,0.29951 -0.02984,0.44757 -0.02515,0.172015 -0.07065,0.340365 -0.119352,0.507246 -0.08256,0.282874 -0.174825,0.563675 -0.230556,0.853033 -0.05573,0.289358 -0.07405,0.59036 -0.0081,0.877573 0.01411,0.06149 0.03211,0.122813 0.03348,0.185885 6.83e-4,0.03154 -0.0029,0.06337 -0.01299,0.09325 -0.0101,0.02988 -0.0269,0.0578 -0.05033,0.07892 -0.0071,0.0064 -0.01471,0.01212 -0.02184,0.01843 -0.0071,0.0063 -0.01383,0.01331 -0.01851,0.0216 -0.0047,0.0083 -0.0073,0.01804 -0.0057,0.02745 7.51e-4,0.0047 0.0025,0.0093 0.0053,0.01314 0.0028,0.0039 0.0066,0.007 0.01096,0.0089 0.0046,0.002 0.0098,0.0024 0.01486,0.0021 0.005,-2.85e-4 0.01001,-0.0013 0.01498,-0.0021 0.06149,-0.01057 0.124891,9.42e-4 0.184161,0.02042 0.05927,0.01948 0.115633,0.04678 0.173896,0.06909 0.21205,0.08119 0.445538,0.09489 0.656436,0.179028 0.233967,0.09334 0.424968,0.266742 0.626599,0.417733 0.242477,0.181579 0.507035,0.334867 0.731205,0.538616 0.112085,0.101875 0.213767,0.216468 0.291189,0.34665 0.07742,0.130182 0.130099,0.276556 0.141288,0.427607 0.0037,0.04963 0.0029,0.09951 0,0.14919 -0.0133,0.228164 -0.07206,0.454461 -0.179028,0.656436 -0.04169,0.07873 -0.09084,0.154303 -0.119352,0.238704 -0.03563,0.105494 -0.03717,0.219169 -0.05968,0.328219 -0.02101,0.101745 -0.06012,0.198733 -0.08951,0.29838 -0.08199,0.277981 -0.08727,0.572381 -0.08007,0.862113 0.0072,0.289732 0.02619,0.580869 -0.0094,0.868492 -0.0039,0.03117 -0.0084,0.06258 -0.0057,0.09388 0.0027,0.0313 0.01324,0.06305 0.03556,0.08515 0.01003,0.0099 0.02233,0.01789 0.02984,0.02984 0.0052,0.0082 0.0077,0.01798 0.0075,0.02768 -2.05e-4,0.0097 -0.0032,0.01928 -0.0082,0.02755 -0.0051,0.0083 -0.01221,0.01522 -0.02049,0.02026 -0.0083,0.005 -0.01767,0.0082 -0.02729,0.0094 -0.01924,0.0025 -0.03904,-0.0029 -0.05556,-0.01303 -0.01652,-0.01016 -0.02989,-0.02493 -0.04015,-0.04139 -0.02051,-0.03292 -0.02865,-0.07176 -0.03939,-0.109033 -0.0054,-0.01863 -0.01149,-0.03714 -0.02021,-0.05447 -0.0087,-0.01732 -0.02013,-0.0335 -0.03493,-0.04604 -0.01757,-0.01489 -0.03942,-0.02418 -0.06193,-0.02906 -0.02251,-0.0049 -0.04574,-0.0055 -0.06876,-0.0046 -0.04602,0.002 -0.09227,0.01035 -0.137861,0.0038 -0.03621,-0.0052 -0.07055,-0.0197 -0.106667,-0.02555 -0.01806,-0.0029 -0.03666,-0.0037 -0.05457,6.2e-5 -0.01791,0.0037 -0.03514,0.01212 -0.04763,0.02549 -0.0095,0.01017 -0.016,0.02298 -0.01913,0.03653 -0.0031,0.01355 -0.0029,0.02779 1.2e-4,0.04136 0.0061,0.02714 0.0232,0.05097 0.04466,0.06864 0.02147,0.01767 0.04711,0.02962 0.07337,0.03876 0.02626,0.0091 0.05336,0.01563 0.08,0.02357 0.123285,0.03672 0.235969,0.104275 0.334614,0.186842 0.09864,0.08257 0.183875,0.180027 0.262595,0.281767 0.157442,0.20348 0.291711,0.427025 0.47696,0.60556 0.119673,0.115336 0.258319,0.209523 0.378598,0.324226 0.06014,0.05735 0.115761,0.120024 0.159849,0.190467 0.04409,0.07044 0.07647,0.14898 0.08815,0.231258 0.01544,0.108773 -0.0062,0.221547 -0.05516,0.319894 -0.04897,0.09835 -0.124501,0.182446 -0.213377,0.247028 -0.0517,0.03757 -0.108947,0.0697 -0.14919,0.119352 -0.02995,0.03696 -0.04904,0.08262 -0.05429,0.129896 -0.0053,0.04728 0.0033,0.09602 0.02445,0.138646 -0.03688,0.02768 -0.05966,0.07324 -0.05968,0.119352 -6e-6,0.01501 0.0022,0.02992 0.0034,0.04488 0.0011,0.01497 0.0011,0.0303 -0.0034,0.04463 -0.0064,0.02051 -0.0213,0.03733 -0.03785,0.05102 -0.01654,0.0137 -0.03501,0.02491 -0.05166,0.03848 -0.04876,0.03975 -0.07928,0.09743 -0.103403,0.155538 -0.02412,0.0581 -0.04336,0.118675 -0.07563,0.17268 -0.04806,0.08043 -0.122553,0.141929 -0.201924,0.191713 -0.07937,0.04978 -0.164686,0.08935 -0.245646,0.136505 -0.229343,0.13358 -0.418645,0.324742 -0.626917,0.489256 -0.104136,0.08226 -0.213914,0.158404 -0.333519,0.215895 -0.119605,0.05749 -0.249645,0.09603 -0.382275,0.100476 -0.02099,7.04e-4 -0.04211,5.69e-4 -0.06279,0.0042 -0.02069,0.0036 -0.04123,0.0113 -0.05656,0.02566 -0.01602,0.01501 -0.02499,0.03585 -0.03717,0.05412 -0.0061,0.0091 -0.01313,0.01779 -0.02191,0.02437 -0.0088,0.0066 -0.01946,0.01101 -0.03043,0.01102 -0.01033,5e-6 -0.02024,-0.0038 -0.03039,-0.0057 -0.0051,-9.43e-4 -0.0103,-0.0014 -0.01541,-6.46e-4 -0.0051,7.57e-4 -0.01012,0.0028 -0.01387,0.0064 -0.004,0.0038 -0.0064,0.0094 -0.0064,0.01492 0,0.0056 0.0024,0.01109 0.0064,0.01492 -0.0092,0.02767 -0.03201,0.05046 -0.05968,0.05968 -0.0192,0.0064 -0.04048,0.0064 -0.05968,0 -0.02138,0.0065 -0.04164,0.01665 -0.05968,0.02984 -0.03566,0.02608 -0.06157,0.06308 -0.09277,0.09436 -0.0156,0.01564 -0.03275,0.03001 -0.05232,0.04026 -0.01957,0.01025 -0.04174,0.01625 -0.06377,0.01458 -0.01531,-0.0012 -0.03011,-0.0059 -0.04533,-0.008 -0.0076,-0.001 -0.01536,-0.0014 -0.02295,-2.88e-4 -0.0076,0.0011 -0.01505,0.0038 -0.02123,0.0083 -0.0059,0.0044 -0.01048,0.01034 -0.01434,0.0166 -0.0039,0.0063 -0.0071,0.0129 -0.01089,0.0192 -0.0038,0.0063 -0.0082,0.01235 -0.01402,0.0169 -0.0058,0.0045 -0.01308,0.0075 -0.02042,0.007 -0.0052,-3.65e-4 -0.01011,-0.0024 -0.01524,-0.0033 -0.0026,-4.57e-4 -0.0052,-6.3e-4 -0.0078,-1.66e-4 -0.0026,4.65e-4 -0.005,0.0016 -0.0068,0.0035 -0.0018,0.0019 -0.0028,0.0044 -0.0032,0.0069 -3.73e-4,0.0026 -1.36e-4,0.0052 3.43e-4,0.0077 9.57e-4,0.0051 0.0029,0.01003 0.0028,0.0152 -3.6e-5,0.0045 -0.0016,0.0089 -0.0042,0.01257 -0.0026,0.0037 -0.0062,0.0065 -0.01028,0.0085 -0.0081,0.0039 -0.01763,0.0039 -0.02634,0.0017 -0.01742,-0.0044 -0.03178,-0.01668 -0.04868,-0.02275 -0.0132,-0.0047 -0.02764,-0.0055 -0.04149,-0.0033 -0.01385,0.0022 -0.02713,0.0073 -0.03949,0.0139 -0.02474,0.01321 -0.04576,0.03225 -0.0682,0.04907 -0.08623,0.06462 -0.194131,0.09615 -0.301681,0.10274 -0.107549,0.0066 -0.215293,-0.0105 -0.320082,-0.03559 -0.209578,-0.05018 -0.416023,-0.133127 -0.631434,-0.126831 -0.06001,0.0018 -0.119595,0.01048 -0.179503,0.0144 -0.05991,0.0039 -0.121057,0.0029 -0.178553,-0.0144 -0.102592,-0.03083 -0.18452,-0.110277 -0.285823,-0.14511 -0.05065,-0.01742 -0.107314,-0.02285 -0.157424,-0.0039 -0.02505,0.0095 -0.048,0.02497 -0.06496,0.0457 -0.01696,0.02073 -0.02772,0.04674 -0.02888,0.0735 -4.28e-4,0.0099 4.4e-4,0.0199 0,0.02984 -0.0013,0.02963 -0.01425,0.05773 -0.03128,0.08202 -0.01703,0.02428 -0.03814,0.04536 -0.05823,0.06717 -0.05813,0.06309 -0.108533,0.13333 -0.149191,0.208866 -0.08674,0.161139 -0.127812,0.343177 -0.208866,0.507247 -0.04536,0.09183 -0.102854,0.177203 -0.14919,0.268542 -0.08696,0.171412 -0.133034,0.360468 -0.208866,0.537084 -0.03323,0.07739 -0.07215,0.152348 -0.102217,0.231022 -0.03006,0.07867 -0.05126,0.162274 -0.04697,0.246387 0.0011,0.02157 0.0039,0.04327 9.44e-4,0.06467 -0.0015,0.0107 -0.0044,0.02127 -0.0094,0.03083 -0.005,0.0096 -0.01226,0.01807 -0.02138,0.02385 -0.01029,0.0065 -0.02277,0.0094 -0.03494,0.0086 -0.01216,-8.33e-4 -0.02398,-0.0053 -0.03402,-0.01219 -0.02008,-0.01383 -0.03244,-0.03697 -0.03717,-0.0609 -0.0047,-0.02392 -0.0025,-0.04871 0.0019,-0.07269 0.0044,-0.02399 0.01088,-0.04757 0.01475,-0.07165 0.01069,-0.06643 0.001,-0.134777 -0.01763,-0.199419 -0.01865,-0.06464 -0.04612,-0.126325 -0.07188,-0.188475 -0.05665,-0.136633 -0.105432,-0.276442 -0.14919,-0.417732 -0.132344,-0.427325 -0.218718,-0.868307 -0.268543,-1.312873 -0.0222,-0.198115 -0.0372,-0.397542 -0.02984,-0.596761 0.0015,-0.03979 0.0038,-0.07972 0,-0.119352 -0.0071,-0.07352 -0.03585,-0.144596 -0.0805,-0.203434 -0.04466,-0.05884 -0.104961,-0.105418 -0.172492,-0.135346 -0.135061,-0.05986 -0.296067,-0.05049 -0.429344,0.01324 -0.133277,0.06373 -0.239,0.178416 -0.304016,0.31107 -0.06502,0.132654 -0.09093,0.282394 -0.08809,0.430097 0.0057,0.295407 0.121669,0.575994 0.233026,0.849666 0.111358,0.273672 0.221601,0.557826 0.214825,0.853209 -0.0056,0.245851 -0.09458,0.487016 -0.238704,0.686274 -0.02369,0.03275 -0.04886,0.06448 -0.0706,0.09855 -0.02174,0.03407 -0.04013,0.07084 -0.04875,0.110321 -0.01351,0.06185 -0.0024,0.126545 -0.01057,0.18933 -0.0041,0.03139 -0.01326,0.06271 -0.03139,0.08866 -0.0091,0.01298 -0.02032,0.02449 -0.03347,0.0333 -0.01315,0.0088 -0.02823,0.01486 -0.04392,0.01693 -0.0099,0.0013 -0.01993,0.001 -0.02984,0 -0.05091,-0.0054 -0.09851,-0.03158 -0.133932,-0.06854 -0.03542,-0.03697 -0.05915,-0.08414 -0.07263,-0.133532 -0.02697,-0.09878 -0.01403,-0.203453 -0.0023,-0.305172 0.03204,-0.277785 0.0534,-0.560985 0,-0.835464 -0.03722,-0.191319 -0.110047,-0.374236 -0.148627,-0.565286 -0.01929,-0.09552 -0.02994,-0.193366 -0.02279,-0.290556 0.0072,-0.09719 0.03261,-0.193937 0.0819,-0.278003 0.03665,-0.0625 0.08554,-0.116728 0.130182,-0.173786 0.04464,-0.05706 0.08601,-0.118892 0.103821,-0.189116 0.0089,-0.03511 0.01168,-0.07202 0.0057,-0.107747 -0.006,-0.03573 -0.02088,-0.07024 -0.04466,-0.09757 -0.02378,-0.02732 -0.05663,-0.04712 -0.09235,-0.05312 -0.03572,-0.006 -0.07408,0.0024 -0.102713,0.02458 -0.01455,0.01127 -0.02634,0.02568 -0.0402,0.03778 -0.0069,0.0061 -0.01442,0.01154 -0.0227,0.01555 -0.0083,0.004 -0.01741,0.0065 -0.0266,0.0063 -0.01025,-1.54e-4 -0.02015,-0.0035 -0.03026,-0.0051 -0.0051,-8.1e-4 -0.01023,-0.0012 -0.01531,-5.07e-4 -0.0051,6.79e-4 -0.01008,0.0025 -0.01411,0.0056 -0.0033,0.0026 -0.0059,0.0061 -0.0077,0.0099 -0.0018,0.0038 -0.0028,0.008 -0.0033,0.01216 -0.001,0.0084 -5e-6,0.01685 5.57e-4,0.02527 5.63e-4,0.0084 6.35e-4,0.01709 -0.0022,0.02505 -0.0014,0.004 -0.0035,0.0077 -0.0065,0.01078 -0.0029,0.003 -0.0067,0.0054 -0.01076,0.0063 -0.0053,0.0013 -0.01098,2.24e-4 -0.01617,-0.0016 -0.0052,-0.0018 -0.01008,-0.0044 -0.01524,-0.0062 -0.0052,-0.0019 -0.01074,-0.0031 -0.01613,-0.0021 -0.0027,5.08e-4 -0.0053,0.0016 -0.0075,0.0033 -0.0022,0.0017 -0.0039,0.004 -0.0047,0.0066 -7.48e-4,0.0025 -6.97e-4,0.0051 -2.95e-4,0.0076 4.01e-4,0.0025 0.0011,0.005 0.0018,0.0075 6.16e-4,0.0025 0.0011,0.005 0.001,0.0076 -1.01e-4,0.0026 -8.43e-4,0.0052 -0.0025,0.0071 -0.0017,0.002 -0.0042,0.0033 -0.0067,0.0037 -0.0026,4.81e-4 -0.0052,2.57e-4 -0.0078,-2.65e-4 -0.0051,-0.001 -0.01006,-0.0033 -0.0153,-0.0035 -0.0049,-1.9e-4 -0.0098,0.0015 -0.01389,0.0043 -0.004,0.0028 -0.0073,0.0067 -0.0096,0.01108 -0.0047,0.0087 -0.006,0.01873 -0.0071,0.02853 -0.0011,0.0098 -0.0022,0.01985 -0.0065,0.02871 -0.0022,0.0044 -0.0052,0.0085 -0.009,0.01157 -0.0039,0.0031 -0.0086,0.0051 -0.01356,0.0053 -0.0051,2.29e-4 -0.01009,-0.0014 -0.01513,-0.0023 -0.0025,-4.4e-4 -0.0051,-6.85e-4 -0.0076,-3.96e-4 -0.0025,2.89e-4 -0.0051,0.0011 -0.0071,0.0027 -0.0021,0.0016 -0.0036,0.004 -0.0044,0.0066 -7.76e-4,0.0026 -8.77e-4,0.0053 -5.46e-4,0.008 6.63e-4,0.0053 0.003,0.01027 0.0049,0.01527 0.01022,0.02657 0.0093,0.05684 -4.1e-4,0.0836 -0.0097,0.02677 -0.02779,0.05009 -0.04988,0.06806 -0.04418,0.03593 -0.10209,0.05001 -0.158576,0.05721 -0.03932,0.005 -0.07934,0.0073 -0.117183,0.01906 -0.01892,0.0059 -0.03721,0.01421 -0.05324,0.02587 -0.01602,0.01166 -0.02974,0.02678 -0.03845,0.04458 -0.0049,0.01007 -0.0082,0.02085 -0.01238,0.03125 -0.0042,0.0104 -0.0094,0.02064 -0.01746,0.02843 -0.0093,0.009 -0.02194,0.01416 -0.03474,0.01645 -0.0128,0.0023 -0.02591,0.002 -0.03889,0.0014 -0.01299,-5.97e-4 -0.02603,-0.0015 -0.03897,-1.9e-4 -0.01294,0.0013 -0.02592,0.0048 -0.0366,0.0122 -0.01167,0.0081 -0.01977,0.02026 -0.02827,0.03166 -0.0085,0.0114 -0.01821,0.02274 -0.03141,0.02802 -0.0093,0.0037 -0.01968,0.0041 -0.02971,0.0033 -0.01002,-7.93e-4 -0.01994,-0.0027 -0.02997,-0.0033 -0.02111,-0.0013 -0.04218,0.0031 -0.06247,0.0091 -0.02029,0.006 -0.04013,0.01348 -0.06064,0.01867 -0.02051,0.0052 -0.042,0.008 -0.06283,0.0043 -0.02083,-0.0037 -0.04102,-0.01447 -0.05277,-0.03205 -0.0062,-0.0093 -0.0098,-0.02002 -0.01381,-0.03047 -0.004,-0.01045 -0.0085,-0.02097 -0.01603,-0.02921 -0.0072,-0.0078 -0.01678,-0.01318 -0.027,-0.01603 -0.01021,-0.0028 -0.02101,-0.0032 -0.03155,-0.0021 -0.02107,0.0024 -0.04089,0.01082 -0.06081,0.01809 -0.02423,0.0089 -0.04933,0.01611 -0.07509,0.01746 -0.02576,0.0014 -0.05238,-0.0035 -0.0741,-0.01746 -0.01194,-0.0076 -0.02219,-0.0179 -0.02984,-0.02984"
     id="path2"
     inkscape:path-effect="#path-effect2"
     inkscape:original-d="m 19.00682,29.450128 c -0.01989,-0.09946 -0.05968,-0.196951 -0.05968,-0.29838 0,-0.425116 0.140018,-1.006481 0.29838,-1.402387 0.153471,-0.383678 0.40553,-0.663036 0.745951,-0.895141 0.184284,-0.125648 0.494712,-0.196332 0.656436,-0.358056 0.0211,-0.0211 -0.05998,-0.0042 -0.08951,0 -0.05989,0.0086 -0.11885,0.02361 -0.179028,0.02984 -0.755796,0.07819 -0.600519,0.08097 -1.342711,0 -1.743581,-0.190209 -0.244211,-0.03163 -1.849957,-0.268542 -0.207721,-0.03065 -1.073646,0.001 -1.223359,-0.298381 -0.04545,-0.09089 0.113983,-0.412863 0.14919,-0.477408 0.140617,-0.257799 0.635788,-0.88138 0.745951,-1.014493 0.04473,-0.05405 0.351746,-0.408838 0.477408,-0.387894 0.03537,0.0059 0.04188,0.05838 0.05968,0.08951 0.06183,0.108203 0.104665,0.228213 0.179028,0.328218 0.928488,1.248656 0.359998,0.479351 0.984655,1.104007 0.05493,0.05493 0.09426,0.1241 0.14919,0.179028 0.0052,0.0052 0.339858,0 0.387894,0 0.01259,0 0.210414,0.02122 0.238704,0 0.07462,-0.05596 0.141103,-0.103178 0.179028,-0.179028 0.01407,-0.02813 0.01239,-0.06334 0.02984,-0.08951 0.0046,-0.0069 0.109641,-0.04997 0.119352,-0.05968 0.02683,-0.02683 0.01609,-0.08499 0.02984,-0.119352 0.09004,-0.225097 0.128436,-0.465739 0.238704,-0.686275 0.15273,-0.30546 0.348435,-0.591954 0.507246,-0.89514 0.143261,-0.273499 0.229204,-0.57098 0.387894,-0.835465 0.25631,-0.427183 0.393777,-0.920139 0.507247,-1.402387 0.04968,-0.211137 0.09936,-0.466305 0.119352,-0.686275 0.0081,-0.08915 -0.01266,-0.179927 0,-0.268542 0.01997,-0.139762 0.07364,-0.274853 0.08951,-0.417732 0.0099,-0.08897 0,-0.179028 0,-0.268542 0,-0.01577 0.01847,-0.220234 0,-0.238704 -0.01573,-0.01573 -0.04395,-0.01411 -0.05968,-0.02984 -0.01573,-0.01573 -0.01411,-0.04395 -0.02984,-0.05968 -0.05953,-0.05953 -0.216513,-0.11277 -0.268542,-0.149191 -0.171309,-0.119915 -0.291615,-0.309352 -0.477409,-0.417732 -0.535743,-0.312517 0.0081,0.0053 -0.566922,-0.268542 -0.112517,-0.05358 -0.215701,-0.125449 -0.328218,-0.179028 -0.176883,-0.08423 -0.359818,-0.155285 -0.537085,-0.238704 -0.261417,-0.12302 -0.534178,-0.201435 -0.805626,-0.298381 -0.01928,-0.0069 -0.25967,-0.06774 -0.298381,-0.119352 -0.0018,-0.0024 -0.116936,-0.229042 -0.119352,-0.238704 -0.08102,-0.324083 0.158912,-0.566605 0.328219,-0.805626 0.06962,-0.09946 0.139244,-0.198921 0.208866,-0.298381 0.05968,-0.09946 0.113531,-0.202653 0.179028,-0.29838 0.05271,-0.07705 0.300395,-0.371697 0.358056,-0.477408 0.01964,-0.036 0.0115,-0.08267 0.02984,-0.119352 0.03621,-0.07242 0.175115,0.120446 0.358056,0.268542 0.105146,0.08512 0.217166,0.16145 0.328219,0.238704 0.301038,0.209418 0.594058,0.404634 0.835464,0.686275 0.184322,0.215042 0.285348,0.467822 0.507247,0.656436 0.109295,0.0929 0.242048,0.154335 0.358056,0.238704 0.10301,0.07492 0.198409,0.15978 0.29838,0.238704 0.01643,0.01297 0.349805,0.269995 0.417733,0.328219 0.02723,0.02334 0.06416,0.08503 0.08951,0.05968 0.04206,-0.04206 -0.01343,-0.237957 0,-0.298381 0.01365,-0.06141 0.04734,-0.117345 0.05968,-0.179028 0.01766,-0.08832 0.0103,-0.180622 0.02984,-0.268542 0.05783,-0.260242 0.215379,-0.467111 0.29838,-0.716112 0.02594,-0.07781 0.03374,-0.160897 0.05968,-0.238705 0.04791,-0.143719 0.124645,-0.276337 0.179028,-0.417732 0.07192,-0.186994 0.03283,-0.14697 0.119352,-0.29838 0.0543,-0.09503 0.120168,-0.180252 0.179028,-0.268542 0.02467,-0.03701 0.03978,-0.07957 0.05968,-0.119352 0.03978,-0.06962 0.07337,-0.143175 0.119352,-0.208867 0.09717,-0.138808 0.244974,-0.264531 0.358057,-0.387894 0.05249,-0.05726 0.09426,-0.124099 0.14919,-0.179028 0.04503,-0.04503 0.107253,-0.07142 0.14919,-0.119352 0.02929,-0.03347 0.03073,-0.08558 0.05968,-0.119352 0.06786,-0.07917 0.267166,-0.223097 0.358056,-0.268542 0.05091,-0.02545 0.238487,-0.119352 0.14919,-0.119352 -0.0099,0 0,0.01989 0,0.02984 0,0.09946 0,0.19892 0,0.29838 0,0.109406 0.0078,0.21909 0,0.328218 -0.03444,0.482116 -0.126954,0.957139 -0.208866,1.432225 -0.06595,0.38254 -0.08951,0.747742 -0.08951,1.133845 0,0.03978 -0.01143,-0.08125 0,-0.119352 0.02177,-0.07255 0.05748,-0.140226 0.08951,-0.208866 0.141354,-0.302901 0.136334,-0.254109 0.328218,-0.596761 0.466943,-0.833826 0.845591,-1.530132 1.700768,-2.028985 0.0086,-0.005 6.2e-4,0.01991 0,0.02984 -0.0093,0.14923 -0.0068,0.299841 -0.02984,0.44757 -0.02682,0.171617 -0.0862,0.33674 -0.119352,0.507246 -0.07944,0.408525 -0.210463,1.490549 -0.238705,1.730606 -0.01399,0.118945 -0.01401,0.239341 -0.02984,0.358056 -0.0042,0.03118 -0.02984,0.05806 -0.02984,0.08951 0,0.0099 0.02015,-0.0022 0.02984,0 0.119875,0.02766 0.23767,0.06417 0.358057,0.08951 0.223279,0.04701 0.445451,0.07974 0.656436,0.179028 0.229598,0.108046 0.431046,0.26129 0.626599,0.417733 0.488252,0.390601 0.879672,0.744851 1.163682,1.312873 0.01564,0.03127 0,0.114661 0,0.14919 0,0.245193 -0.07336,0.430005 -0.179028,0.656436 -0.03762,0.08061 -0.09256,0.153874 -0.119352,0.238704 -0.03348,0.106038 -0.03392,0.220043 -0.05968,0.328219 -0.02405,0.101015 -0.06915,0.196557 -0.08951,0.29838 -0.120847,0.604233 -0.12707,1.110922 -0.08951,1.730605 0.0037,0.06039 0.01322,0.120857 0.02984,0.179028 0.0039,0.01352 0.02984,0.01577 0.02984,0.02984 0,0.04386 -0.205757,-0.162554 -0.238704,-0.179028 -0.05395,-0.02697 -0.212201,-0.02279 -0.268542,-0.02984 -0.06909,-0.0086 -0.240002,-0.06227 -0.208866,0 0.03879,0.07758 0.122947,0.148471 0.179028,0.208866 0.971785,1.046538 0.302161,0.394803 1.074169,1.074169 0.247676,0.217955 0.518761,0.422439 0.626598,0.745951 0.114364,0.343092 0.02296,0.392022 -0.268542,0.566922 -0.03874,0.02324 -0.132397,0.06897 -0.14919,0.119352 -0.02486,0.07458 -0.01061,0.191628 -0.02984,0.268542 0.05804,0.0829 -0.04889,0.0762 -0.05968,0.119352 -0.0072,0.02895 0.01334,0.06283 0,0.08951 -0.01887,0.03774 -0.0667,0.05402 -0.08951,0.08951 -0.06739,0.10483 -0.107161,0.226405 -0.179029,0.328218 -0.131078,0.185694 -0.25129,0.217811 -0.44757,0.328218 -0.45393,0.255336 -0.912954,0.519122 -1.342711,0.805627 -0.03306,0.02204 -0.08539,0.01286 -0.119352,0.02984 -0.03581,0.0179 -0.05371,0.07161 -0.08951,0.08951 -0.01779,0.0089 -0.04561,-0.01407 -0.05968,0 -0.007,0.007 0,0.01989 0,0.02984 -0.01989,0.01989 -0.03451,0.04709 -0.05968,0.05968 -0.01779,0.0089 -0.03978,0 -0.05968,0 -0.01989,0.0099 -0.04061,0.0184 -0.05968,0.02984 -0.05958,0.03574 -0.146389,0.128364 -0.208866,0.14919 -0.02831,0.0094 -0.06283,-0.01334 -0.08951,0 -0.04784,0.02392 -0.01184,0.03576 -0.05968,0.05968 -0.0089,0.0044 -0.02281,-0.007 -0.02984,0 -0.007,0.007 0.0089,0.02539 0,0.02984 -0.05968,0.02984 -0.04476,-0.01492 -0.08951,0 -0.08642,0.02881 -0.04053,0.04415 -0.14919,0.05968 -0.381442,0.05449 -0.872,-0.04062 -1.253197,-0.05968 -0.119203,-0.006 -0.239434,0.01318 -0.358056,0 -0.03528,-0.0039 -0.506153,-0.06077 -0.537084,-0.02984 -0.007,0.007 0.0044,0.02094 0,0.02984 -0.02594,0.05187 -0.05734,0.100936 -0.08951,0.14919 -0.04746,0.07119 -0.105171,0.1355 -0.149191,0.208866 -0.211843,0.353073 -0.03787,0.122518 -0.208866,0.507247 -0.04159,0.09357 -0.105588,0.175888 -0.14919,0.268542 -0.08179,0.173806 -0.14246,0.356839 -0.208866,0.537084 -0.09056,0.245807 -0.08036,0.247978 -0.14919,0.477409 -0.01178,0.03928 -0.07085,0.119352 -0.02984,0.119352 0.03088,0 -0.08837,-0.205234 -0.08951,-0.208867 -0.03996,-0.126536 -0.05182,-0.260665 -0.08951,-0.387894 -0.042,-0.141766 -0.10614,-0.27628 -0.14919,-0.417732 -0.128175,-0.421147 -0.228635,-0.873888 -0.268543,-1.312873 -0.01803,-0.198351 -0.02119,-0.39778 -0.02984,-0.596761 -0.0042,-0.09754 0.0064,-0.138513 0,-0.119352 -0.233296,0.699888 -0.383984,1.420984 -0.626598,2.1185 -0.07959,0.22882 -0.135641,0.465425 -0.238704,0.686274 -0.03391,0.07266 -0.08349,0.137145 -0.119352,0.208867 -0.04784,0.09569 -0.07151,0.232532 -0.119352,0.328218 -0.0044,0.0089 -0.01989,0 -0.02984,0 -0.156027,0 -0.208867,-0.372373 -0.208867,-0.507247 0,-0.276524 0.01838,-0.559771 0,-0.835464 -0.0252,-0.377966 -0.06042,-0.755666 -0.08951,-1.133845 -0.0107,-0.139114 0.04844,-0.499885 0,-0.59676 -0.0256,-0.0512 -0.0833,0.05657 -0.08951,0.05968 -0.03184,0.01592 -0.02783,-0.01592 -0.05968,0 -0.06269,0.03135 5.8e-4,0.0591 -0.02984,0.08951 -0.01407,0.01406 -0.04561,-0.01407 -0.05968,0 -0.007,0.007 0.007,0.0228 0,0.02984 -0.007,0.007 -0.0228,-0.007 -0.02984,0 -0.0047,0.0047 -0.05502,0.08486 -0.05968,0.08951 -0.007,0.007 -0.0228,-0.007 -0.02984,0 -0.007,0.007 0.006,0.02188 0,0.02984 -0.05908,0.07877 -0.130098,0.14979 -0.208866,0.208866 -0.04642,0.03482 -0.162444,0.0547 -0.208866,0.08951 -0.01779,0.01334 -0.01411,0.04395 -0.02984,0.05968 -0.03092,0.03092 -0.111677,0.02046 -0.14919,0.02984 -0.04078,0.0102 -0.04507,0.04507 -0.05968,0.05968 -0.01407,0.01407 -0.03978,0 -0.05968,0 -0.03554,0 -0.208424,0.02019 -0.238705,0 -0.0185,-0.01234 -0.01411,-0.04395 -0.02984,-0.05968 -0.01163,-0.01163 -0.101143,0 -0.119352,0 -0.02336,0 -0.134301,0.01489 -0.14919,0 -0.03978,-0.03978 0.04973,-0.02984 -0.02984,-0.02984" />
  <path
     style="fill:none;stroke:#ff9500;stroke-width:1.079;stroke-opacity:1"
     d="m 22.259165,25.571185 c 0.04482,-0.225672 0.06487,-0.456254 0.05968,-0.686275 -0.0043,-0.189182 -0.02549,-0.379417 0,-0.566922 0.04521,-0.332594 0.236089,-0.632005 0.477408,-0.865303 0.203323,-0.196565 0.447036,-0.354557 0.716711,-0.439727 0.269674,-0.08517 0.565838,-0.09503 0.834866,-0.0078 0.241491,0.07827 0.452289,0.22976 0.686275,0.328218 0.09565,0.04025 0.194996,0.07155 0.289153,0.115161 0.09416,0.04361 0.184522,0.10108 0.247931,0.18322 0.03043,0.03941 0.05435,0.0841 0.08951,0.119352 0.02992,0.03 0.06785,0.0531 0.08951,0.08951 0.01308,0.02199 0.01925,0.04743 0.02262,0.07279 0.0034,0.02536 0.0041,0.05101 0.0072,0.0764 0.0077,0.06279 0.02996,0.123182 0.05968,0.179028 0.02093,0.03933 0.04576,0.07703 0.05968,0.119352 0.01787,0.05432 0.01664,0.113664 0.0039,0.169402 -0.01278,0.05574 -0.03668,0.108329 -0.06353,0.158816 -0.10019,0.188336 -0.244401,0.353051 -0.417732,0.477409 -0.227168,0.162983 -0.499668,0.254494 -0.775789,0.29838 -0.176373,0.02803 -0.35519,0.0375 -0.532147,0.06157 -0.176957,0.02407 -0.354395,0.06366 -0.512183,0.147297 -0.01966,0.01042 -0.03903,0.02154 -0.05968,0.02984 -0.06054,0.02435 -0.128194,0.02315 -0.193069,0.01617 -0.06488,-0.007 -0.129654,-0.01939 -0.194825,-0.01617 -0.09176,0.0045 -0.178872,0.03968 -0.268542,0.05968 -0.117429,0.02619 -0.240627,0.02619 -0.358056,0"
     id="path3"
     inkscape:path-effect="#path-effect3"
     inkscape:original-d="m 22.259165,25.571185 c -0.02995,-0.233151 0.04201,-0.456619 0.05968,-0.686275 0.01427,-0.185457 -0.02825,-0.3833 0,-0.566922 0.04089,-0.26581 0.297741,-0.670664 0.477408,-0.865303 0.337203,-0.365302 1.0684,-0.601308 1.551577,-0.44757 0.28233,0.08983 0.440448,0.193014 0.686275,0.328218 0.179449,0.0987 0.377161,0.170442 0.537084,0.298381 0.03883,0.03107 0.05715,0.08159 0.08951,0.119352 0.02746,0.03204 0.07064,0.05177 0.08951,0.08951 0.02268,0.04536 0.01649,0.100262 0.02984,0.14919 0.01655,0.06069 0.03631,0.120623 0.05968,0.179028 0.01652,0.0413 0.05968,0.07487 0.05968,0.119352 0,0.1112 -0.01734,0.225394 -0.05968,0.328218 -0.03124,0.07586 -0.342988,0.426022 -0.417732,0.477409 -0.307231,0.211221 -0.401747,0.198636 -0.775789,0.29838 -0.857661,0.228709 -0.01383,0.0215 -1.04433,0.208866 -0.02188,0.004 -0.03787,0.02548 -0.05968,0.02984 -0.123089,0.02462 -0.262931,-0.0125 -0.387894,0 -0.100584,0.01006 -0.179164,0.02988 -0.268542,0.05968 -0.100001,0.03333 -0.252569,0 -0.358056,0" />
  <path
     style="fill:none;stroke:#ff9500;stroke-width:1.079;stroke-opacity:1"
     d="m 23.243819,21.57289 c -0.10681,-0.262884 -0.138205,-0.55592 -0.08951,-0.835465 0.04938,-0.283492 0.179584,-0.550058 0.358056,-0.775788 0.188542,-0.238467 0.43455,-0.435198 0.718487,-0.5438 0.283936,-0.108602 0.606405,-0.125159 0.892767,-0.02312 0.134215,0.04782 0.258192,0.120055 0.387894,0.179029 0.16483,0.07495 0.338488,0.128294 0.5078,0.192475 0.169312,0.06418 0.336596,0.140583 0.476855,0.255095 0.09239,0.07543 0.172813,0.168259 0.220109,0.277751 0.0473,0.109493 0.05926,0.236722 0.01859,0.348847 -0.03037,0.08373 -0.08788,0.155384 -0.119352,0.238705 -0.019,0.0503 -0.02874,0.105221 -0.05968,0.14919 -0.02089,0.02968 -0.05029,0.05246 -0.0816,0.07082 -0.03131,0.01836 -0.06478,0.03268 -0.09743,0.04853 -0.110699,0.05374 -0.211776,0.125036 -0.317202,0.188503 -0.105425,0.06347 -0.217766,0.120017 -0.339235,0.139715 -0.05021,0.0081 -0.102305,0.01011 -0.14919,0.02984 -0.04109,0.0173 -0.07644,0.04761 -0.119352,0.05968 -0.04814,0.01354 -0.09924,0.0025 -0.14919,0 -0.121226,-0.006 -0.238408,0.03929 -0.358056,0.05968 -0.14869,0.02534 -0.30427,0.01261 -0.447571,0.05968 -0.05986,0.01966 -0.116832,0.04958 -0.179028,0.05968 -0.05995,0.0097 -0.121103,4.86e-4 -0.181751,-0.0028 -0.03033,-0.0016 -0.06087,-0.0017 -0.0909,0.0028 -0.03003,0.0045 -0.05964,0.01377 -0.0854,0.02985 -0.01527,0.0095 -0.02898,0.02131 -0.04324,0.0323 -0.01426,0.01098 -0.02933,0.02132 -0.04627,0.02738 -0.02899,0.01038 -0.06076,0.0074 -0.09155,0.0071 -0.0154,-1.7e-4 -0.0309,3.56e-4 -0.04595,0.0036 -0.01506,0.0032 -0.02973,0.0093 -0.04153,0.01916 -0.01088,0.0091 -0.01889,0.02113 -0.02765,0.03232 -0.0088,0.01118 -0.01887,0.02202 -0.03203,0.02736 -0.01396,0.0057 -0.02967,0.0045 -0.04459,0.0024 -0.01492,-0.0021 -0.03008,-0.005 -0.04492,-0.0024 -0.01397,0.0024 -0.02673,0.0095 -0.03816,0.01782 -0.01143,0.0084 -0.02178,0.01812 -0.03296,0.02683 -0.01118,0.0087 -0.02342,0.01648 -0.03711,0.02011 -0.0068,0.0018 -0.01401,0.0026 -0.02106,0.0018 -0.007,-7.47e-4 -0.01397,-0.003 -0.0199,-0.0069 -0.006,-0.0039 -0.01083,-0.0093 -0.01445,-0.01546 -0.0036,-0.0061 -0.006,-0.01292 -0.0076,-0.01986 -0.0031,-0.0139 -0.0027,-0.02829 -0.0028,-0.04252 -1.21e-4,-0.01423 -8.27e-4,-0.02875 -0.0059,-0.04205 -0.0025,-0.0066 -0.0062,-0.01292 -0.01107,-0.01809 -0.0049,-0.0052 -0.01104,-0.0092 -0.01787,-0.01121 -0.0096,-0.0028 -0.01992,-0.0014 -0.02984,3e-5 -0.0099,0.0014 -0.02022,0.0028 -0.02984,-3e-5 -0.0082,-0.0024 -0.01544,-0.0079 -0.02063,-0.01474 -0.0052,-0.0069 -0.0085,-0.01504 -0.01019,-0.02345 -0.0035,-0.01684 -9.73e-4,-0.03424 9.76e-4,-0.05132 0.0068,-0.05942 0.0068,-0.119609 0,-0.179028 z"
     id="path4"
     inkscape:path-effect="#path-effect4"
     inkscape:original-d="m 23.243819,21.57289 c -0.05487,-0.384125 -0.07401,-0.447942 -0.08951,-0.835465 -0.01696,-0.424105 0.02508,-0.490383 0.358056,-0.775788 0.218613,-0.187383 1.214127,-0.666204 1.611254,-0.566923 0.138153,0.03454 0.255674,0.126141 0.387894,0.179029 0.187588,0.07503 0.853045,0.31596 0.984655,0.44757 0.116051,0.116051 0.31017,0.447933 0.238704,0.626598 -0.03304,0.0826 -0.08207,0.157933 -0.119352,0.238705 -0.02245,0.04863 -0.02409,0.109158 -0.05968,0.14919 -0.04765,0.0536 -0.121024,0.07717 -0.179028,0.119352 -0.20436,0.148625 -0.41174,0.252927 -0.656437,0.328218 -0.04847,0.01491 -0.101078,0.0138 -0.14919,0.02984 -0.0422,0.01407 -0.07593,0.05003 -0.119352,0.05968 -0.04855,0.01079 -0.09966,-0.0045 -0.14919,0 -0.120502,0.01095 -0.238119,0.04368 -0.358056,0.05968 -0.106438,0.01419 -0.328984,0.03003 -0.447571,0.05968 -0.06103,0.01526 -0.117345,0.04734 -0.179028,0.05968 -0.06852,0.01371 -0.297039,0.0054 -0.358056,0.02984 -0.0333,0.01332 -0.05549,0.04834 -0.08951,0.05968 -0.160399,0.05347 -0.01964,-0.06579 -0.179028,0.02984 -0.02412,0.01447 -0.03627,0.04407 -0.05968,0.05968 -0.02483,0.01655 -0.06121,-0.0094 -0.08951,0 -0.02589,0.0086 -0.11797,0.0909 -0.14919,0.05968 -0.03431,-0.03431 -0.03637,-0.114232 -0.05968,-0.14919 -0.01103,-0.01655 -0.04561,0.01407 -0.05968,0 -0.02224,-0.02224 -0.0076,-0.06727 -0.02984,-0.08951 -0.07655,-0.07655 -0.124911,0.13325 0,-0.179028 z" />
  <path
     style="fill:none;stroke:#1c3c55;stroke-width:1.079;stroke-opacity:1"
     d="m 13.934356,28.167093 c -0.67364,0.07147 -1.337726,0.232457 -1.969309,0.477408 -0.0971,0.03766 -0.194906,0.07767 -0.29838,0.08951 -0.06925,0.0079 -0.139228,0.003 -0.208866,0 -0.516923,-0.02212 -1.034181,0.02984 -1.5515776,0.02984 H 8.9215686 c -0.064757,0 -0.1294924,0.002 -0.1941669,0.0053 -0.064674,0.0033 -0.1300913,0.0067 -0.1937274,-0.0053 -0.040309,-0.0076 -0.079193,-0.02149 -0.119352,-0.02984 -0.083056,-0.01728 -0.1690236,-0.01046 -0.2534997,-0.0027 -0.084476,0.0078 -0.1700342,0.01643 -0.2537467,0.0027 -0.05007,-0.0082 -0.098745,-0.02437 -0.1491901,-0.02984 -0.069278,-0.0075 -0.1393882,0.0054 -0.2088662,0 -0.091545,-0.0071 -0.1778509,-0.04534 -0.2685422,-0.05968 -0.11807,-0.01866 -0.2385821,0.0038 -0.3580563,0 -0.1114116,-0.0036 -0.2207602,-0.03003 -0.3282182,-0.05967 -0.2840691,-0.07834 -0.5723574,-0.181052 -0.8653026,-0.14919 -0.061262,0.0067 -0.1220594,0.01922 -0.183679,0.01991 -0.06162,6.92e-4 -0.1258534,-0.01176 -0.1743773,-0.04975 -0.031985,-0.02504 -0.055262,-0.05968 -0.073204,-0.09613 -0.017943,-0.03644 -0.031014,-0.07504 -0.046148,-0.11274 C 5.1423262,27.925017 4.9301985,27.708869 4.7144075,27.510656 4.5323987,27.343473 4.3438595,27.183296 4.1474851,27.033248 3.978996,26.904507 3.8025187,26.781112 3.6700767,26.615516 3.6214825,26.554757 3.5788628,26.48837 3.5208866,26.436488 c -0.037076,-0.03318 -0.079575,-0.05962 -0.1193521,-0.08951 -0.125118,-0.09401 -0.2220672,-0.221422 -0.2983802,-0.358057 -0.03703,-0.0663 -0.069735,-0.135547 -0.089514,-0.208866 -0.041102,-0.152363 -0.023616,-0.318282 0.04018,-0.462622 0.063795,-0.144339 0.1723682,-0.267141 0.3028288,-0.355932 0.2609211,-0.177581 0.5972713,-0.215242 0.9094074,-0.168487 0.3121361,0.04676 0.6067793,0.170541 0.8969252,0.29476 0.2901459,0.124219 0.5830635,0.251018 0.894137,0.304387 0.5140555,0.08819 1.0378164,-0.02946 1.5515772,-0.119352 0.6507345,-0.11386 1.3091686,-0.183694 1.9693094,-0.208866 l 0.1790281,-0.05968 c -0.00366,-0.0095 -0.00366,-0.02035 0,-0.02984 0.00251,-0.0065 0.00668,-0.01235 0.011851,-0.01705 0.00517,-0.0047 0.011332,-0.0083 0.017893,-0.01064 0.013123,-0.0048 0.027617,-0.0048 0.041329,-0.0022 0.027425,0.0053 0.051699,0.02081 0.078117,0.02988 0.027604,0.0095 0.057382,0.01178 0.086424,0.0089 0.029043,-0.0029 0.057413,-0.01084 0.084625,-0.02139 0.05443,-0.0211 0.104256,-0.05239 0.157169,-0.07703 0.105425,-0.0491 0.221659,-0.0711 0.337572,-0.08055 0.115914,-0.0095 0.232424,-0.0068 0.348702,-0.009 0.403243,-0.0075 0.804299,-0.07335 1.193521,-0.179028 0.100222,-0.02721 0.199728,-0.05706 0.29838,-0.08951"
     id="path5"
     inkscape:path-effect="#path-effect5"
     inkscape:original-d="m 13.934356,28.167093 c -0.674081,0.086 -1.311829,0.331302 -1.969309,0.477408 -0.09909,0.02202 -0.199214,0.07299 -0.29838,0.08951 -0.06868,0.01145 -0.139485,-0.0058 -0.208866,0 -0.51571,0.04298 -1.033327,0.02984 -1.5515776,0.02984 -0.3282183,0 -0.6564365,0 -0.9846548,0 -0.1247071,0 -0.2659251,0.02033 -0.3878943,0 -0.04045,-0.0067 -0.078594,-0.02531 -0.119352,-0.02984 -0.1670231,-0.01856 -0.3398513,0.01522 -0.5072464,0 -0.050507,-0.0046 -0.09865,-0.02563 -0.1491901,-0.02984 -0.069382,-0.0058 -0.1397818,0.0086 -0.2088662,0 -0.09099,-0.01137 -0.1772576,-0.05098 -0.2685422,-0.05968 -0.1188145,-0.01132 -0.2391529,0.01034 -0.3580563,0 C 6.8116394,28.634868 6.704285,28.600551 6.5942029,28.584825 6.3021548,28.543104 6.0181414,28.493483 5.7289003,28.435635 5.6416992,28.418195 5.429094,28.464047 5.370844,28.405797 5.314143,28.349096 5.2959718,28.263651 5.2514919,28.196931 5.0927651,27.958841 4.9170865,27.713335 4.7144075,27.510656 4.4540683,27.250317 4.4179758,27.253022 4.1474851,27.033248 3.9829407,26.899556 3.8304,26.752936 3.6700767,26.615516 c -0.3421719,-0.29329 0.127061,0.09722 -0.1491901,-0.179028 -0.035164,-0.03516 -0.084188,-0.05435 -0.1193521,-0.08951 -0.074463,-0.07446 -0.236752,-0.271777 -0.2983802,-0.358057 -0.065036,-0.09105 -0.1100932,-0.202006 -0.089514,-0.208866 0.9098275,-0.303276 2.4253004,-0.330079 3.0434783,-0.387894 0.5164664,-0.0483 1.0350961,-0.07121 1.5515772,-0.119352 0.6572685,-0.06127 1.3142887,-0.126989 1.9693094,-0.208866 0.059676,-0.01989 0.1193521,-0.03978 0.1790281,-0.05968 0,-0.0099 -0.00703,-0.02281 0,-0.02984 0.035164,-0.03516 0.100564,0.01042 0.1491902,0 0.1108845,-0.02376 0.2165415,-0.06981 0.3282185,-0.08951 0.227185,-0.04009 0.457516,-0.05968 0.686274,-0.08951 0.39784,-0.05968 0.797849,-0.106353 1.193521,-0.179028 0.504478,-0.09266 0.150311,-0.08951 0.29838,-0.08951" />
  <path
     style="fill:none;stroke:#1c3c55;stroke-width:1.079;stroke-opacity:1"
     d="M 3.4015345,24.109122 C 3.183256,23.899698 2.9644429,23.69083 2.745098,23.482523 2.6478288,23.390148 2.5494846,23.29673 2.4765558,23.184143 2.3990134,23.064434 2.3531074,22.927603 2.2975277,22.796249 2.1792687,22.516762 2.0139423,22.254982 1.9394714,21.960784 1.9086908,21.839185 1.893975,21.713797 1.8596742,21.593143 1.8253734,21.47249 1.7684506,21.353399 1.6709292,21.27451 c -0.023725,-0.01919 -0.049492,-0.03571 -0.073605,-0.05441 -0.024114,-0.0187 -0.046871,-0.03997 -0.062348,-0.06627 -0.015477,-0.0263 -0.023094,-0.05827 -0.015631,-0.08786 0.00373,-0.01479 0.011213,-0.02872 0.022013,-0.0395 0.010801,-0.01078 0.024959,-0.0183 0.040056,-0.0205 0.00986,-0.0014 0.019893,-6.44e-4 0.029838,0 0.069501,0.0045 0.1392351,0.0015 0.2088662,0 0.2489073,-0.0053 0.4978397,0.0093 0.7459505,0.02984 0.388604,0.03224 0.7758039,0.07932 1.1636829,0.119352 1.1892236,0.12273 2.3850227,0.179153 3.5805626,0.179028 0.8958276,-9.4e-5 1.7942768,-0.03179 2.685422,0.05968 0.1590966,0.01633 0.3216706,0.03639 0.4774086,0 0.110651,-0.02585 0.215009,-0.07972 0.328218,-0.08951 0.05948,-0.0051 0.119362,0.0021 0.179028,0 0.118261,-0.0042 0.234858,-0.04664 0.328218,-0.119352"
     id="path6"
     inkscape:path-effect="#path-effect6"
     inkscape:original-d="M 3.4015345,24.109122 C 2.841614,23.678414 3.1689159,23.976978 2.745098,23.482523 2.6580157,23.380927 2.5496518,23.296224 2.4765558,23.184143 2.3987645,23.064863 2.3553639,22.92638 2.2975277,22.796249 2.1744734,22.519377 2.0625258,22.237657 1.9394714,21.960784 1.2697365,20.509692 2.1274478,22.415806 1.6709292,21.27451 1.6148199,21.134236 1.5444583,21.153795 1.5814152,21.005968 c 0.00241,-0.0096 0.019892,0 0.029838,0 0.069622,0 0.1392781,-0.0022 0.2088662,0 0.2487276,0.0078 0.4978574,0.01046 0.7459505,0.02984 0.3887446,0.03037 0.7748536,0.09008 1.1636829,0.119352 0.6914646,0.05204 2.9990047,0.155387 3.5805626,0.179028 1.7511607,0.07118 1.2941263,0.05968 2.685422,0.05968 0.068296,0 0.3670276,0.01004 0.4774086,0 0.34016,-0.03092 0.02698,-0.0142 0.328218,-0.08951 0.05617,-0.01404 0.122862,0.01404 0.179028,0 0.0582,-0.01455 0.303009,-0.119352 0.328218,-0.119352" />
  <path
     style="fill:none;stroke:#1c3c55;stroke-width:1.079;stroke-opacity:1"
     d="M 3.9386189,20.767263 C 3.6443471,20.501724 3.4940014,20.085382 3.5507246,19.693095 c 0.051298,-0.354767 0.2545309,-0.665506 0.4177323,-0.984655 0.1276926,-0.24971 0.2336028,-0.511741 0.3878943,-0.745951 0.07824,-0.118765 0.1722283,-0.232712 0.2983803,-0.29838 0.035811,-0.01864 0.073651,-0.03308 0.1099736,-0.0507 0.036322,-0.01762 0.071637,-0.03886 0.098893,-0.06865 0.021643,-0.02365 0.037492,-0.05189 0.05496,-0.07877 0.017468,-0.02688 0.03734,-0.05322 0.064392,-0.07042 0.018873,-0.012 0.040392,-0.01902 0.0613,-0.02697 0.020908,-0.0079 0.041905,-0.01724 0.058052,-0.03271 0.012987,-0.01245 0.022166,-0.02827 0.030812,-0.04404 0.00865,-0.01578 0.017044,-0.03191 0.028864,-0.04547 0.024435,-0.02804 0.061249,-0.04241 0.097854,-0.04898 0.036605,-0.0066 0.074075,-0.0064 0.1110119,-0.0107 0.094089,-0.01106 0.1818927,-0.05121 0.2685422,-0.08951 0.3259546,-0.144081 0.6629356,-0.269796 1.0144927,-0.328219 0.4239934,-0.07046 0.8603086,-0.04165 1.283035,-0.119352 0.1190993,-0.02189 0.2371904,-0.05224 0.3580563,-0.05968 0.089366,-0.0055 0.1790216,0.0016 0.2685422,0 0.1296875,-0.0023 0.2583646,-0.02303 0.3878942,-0.02984 0.318333,-0.01675 0.6400197,0.05019 0.9548168,0 0.1001806,-0.01597 0.1982096,-0.04365 0.2983806,-0.05968 0.206752,-0.03308 0.417823,-0.01594 0.626598,0 0.228591,0.01745 0.45945,0.0333 0.686275,0 0.13472,-0.01978 0.269259,-0.05689 0.404835,-0.04424 0.06779,0.0063 0.135269,0.02562 0.192098,0.06311 0.05683,0.03749 0.10232,0.0942 0.119179,0.160165 0.0028,0.0111 0.0049,0.02245 0.0091,0.0331 0.0042,0.01065 0.01087,0.02079 0.02075,0.02658 0.0066,0.0038 0.01418,0.0056 0.02177,0.0059 0.0076,3.25e-4 0.01516,-6.91e-4 0.02264,-0.002 0.01495,-0.0027 0.03018,-0.0066 0.0451,-0.0039 0.0089,0.0017 0.01726,0.0057 0.02478,0.01079 0.0075,0.0051 0.01426,0.01121 0.02087,0.01742 0.01322,0.01243 0.02665,0.02571 0.04386,0.03146 0.01322,0.0044 0.02759,0.004 0.04138,0.0019 0.01379,-0.002 0.02734,-0.0056 0.04118,-0.0072 0.01384,-0.0016 0.02831,-0.0012 0.0411,0.0043 0.0064,0.0028 0.01228,0.0068 0.01683,0.0121 0.0046,0.0053 0.0077,0.01179 0.0087,0.01869 0.0014,0.0099 -0.0018,0.02002 0,0.02984 0.0012,0.0069 0.005,0.01338 0.01039,0.0179 0.0054,0.0045 0.01241,0.0071 0.01945,0.0071 0.007,0 0.01405,-0.0025 0.01945,-0.0071 0.0054,-0.0045 0.0091,-0.01097 0.01039,-0.0179 0.04085,0.01767 0.08071,0.0376 0.119352,0.05968 0.08658,0.04947 0.166967,0.109767 0.238705,0.179028 l 0.358056,0.179028"
     id="path7"
     inkscape:path-effect="#path-effect7"
     inkscape:original-d="M 3.9386189,20.767263 C 3.8577717,20.499127 3.5309896,19.969385 3.5507246,19.693095 3.5757119,19.343272 3.8163543,19.012645 3.9684569,18.70844 4.08283,18.479694 4.1921213,18.167777 4.3563512,17.962489 c 0.087868,-0.109835 0.185854,-0.213985 0.2983803,-0.29838 0.06415,-0.04811 0.1468046,-0.06857 0.2088661,-0.119352 0.04929,-0.04033 0.071424,-0.107253 0.1193521,-0.14919 0.033475,-0.02929 0.085182,-0.0312 0.1193521,-0.05968 0.027549,-0.02296 0.028328,-0.0721 0.059676,-0.08951 0.063296,-0.03516 0.1397542,-0.03808 0.2088662,-0.05968 0.090061,-0.02814 0.1790281,-0.05968 0.2685422,-0.08951 0.3362075,-0.112069 0.6593305,-0.280224 1.0144927,-0.328219 0.9315478,-0.125884 0.6110233,-0.05826 1.283035,-0.119352 0.8911251,-0.08101 -0.1519323,0.01318 0.3580563,-0.05968 0.088614,-0.01266 0.1791518,0.0047 0.2685422,0 0.1295008,-0.0068 0.25831,-0.02485 0.3878942,-0.02984 0.3162866,-0.01216 0.6391495,0.02428 0.9548168,0 0.1011306,-0.0078 0.1972496,-0.0519 0.2983806,-0.05968 0.207395,-0.01595 0.419459,0.01883 0.626598,0 0.237372,-0.02158 0.443984,-0.04543 0.686275,0 0.178332,0.03344 0.541461,0.104178 0.716112,0.179028 0.02044,0.0088 0.0087,0.05264 0.02984,0.05968 0.02831,0.0094 0.06121,-0.0094 0.08951,0 0.03402,0.01134 0.05744,0.04364 0.08951,0.05968 0.02428,0.01214 0.124912,0.0177 0.14919,0.02984 0.0089,0.0044 -0.0089,0.02539 0,0.02984 0.01779,0.0089 0.03978,0 0.05968,0 0.03978,0.01989 0.08234,0.035 0.119352,0.05968 0.08276,0.05517 0.153418,0.127856 0.238705,0.179028 0.262171,0.112359 0.143914,0.05054 0.358056,0.179028" />
  <path
     style="fill:none;stroke:#1c3c55;stroke-width:1.079;stroke-opacity:1"
     d="m 6.5046888,17.037511 c -0.051208,0.0042 -0.1035377,-0.0063 -0.1491901,-0.02984 -0.044294,-0.02287 -0.081415,-0.05717 -0.1193521,-0.08951 C 6.0656382,16.772801 5.8694333,16.660695 5.6692242,16.560102 5.3345253,16.391936 4.9815382,16.2513 4.6845695,16.023018 4.6056612,15.962361 4.5309318,15.895657 4.4458653,15.84399 4.3697972,15.797788 4.2867767,15.764417 4.2071611,15.724638 4.0070893,15.624675 3.8299433,15.485044 3.6402387,15.366581 3.3070485,15.158517 2.9330883,15.014457 2.625746,14.769821 c -0.034348,-0.02734 -0.067992,-0.0561 -0.095317,-0.09046 -0.027325,-0.03436 -0.048214,-0.07487 -0.053873,-0.118403 -0.00642,-0.0494 0.0069,-0.09985 0,-0.14919 -0.00527,-0.03768 -0.022064,-0.07269 -0.040095,-0.106189 -0.018031,-0.0335 -0.03766,-0.0665 -0.049419,-0.102677 -0.018727,-0.05762 -0.016455,-0.11994 -0.029838,-0.179029 -0.00912,-0.04026 -0.025374,-0.07847 -0.038718,-0.117529 -0.013343,-0.03906 -0.023903,-0.08001 -0.020958,-0.121175 0.00405,-0.05655 0.034078,-0.109553 0.076486,-0.147181 0.042409,-0.03763 0.096373,-0.06069 0.151917,-0.07206 0.1110875,-0.02274 0.2256544,-5.36e-4 0.3385189,0.01037 0.48716,0.04709 0.9666572,-0.117582 1.4322251,-0.268542 0.2563265,-0.08311 0.5151384,-0.163062 0.7819039,-0.201105 0.2667656,-0.03804 0.5437062,-0.03279 0.7995113,0.05192 0.1017169,0.03368 0.1989335,0.07946 0.2983802,0.119352 0.3704375,0.148585 0.7682806,0.214151 1.1636829,0.268542 0.302011,0.04154 0.6075795,0.07781 0.8951406,0.179028 0.059364,0.0209 0.1179382,0.04455 0.1790282,0.05968 0.097211,0.02407 0.1983088,0.02596 0.2983802,0.02984 0.069624,0.0027 0.1394849,0.0064 0.2088661,0 0.1549885,-0.01432 0.30329,-0.07974 0.4255271,-0.176093 0.1222371,-0.09636 0.219089,-0.222735 0.2905855,-0.360991 0.036922,-0.0714 0.067953,-0.147068 0.119352,-0.208866 0.045008,-0.05411 0.1038701,-0.09534 0.1491902,-0.14919 0.053753,-0.06387 0.086074,-0.142477 0.1222035,-0.217734 0.03613,-0.07526 0.0789,-0.150793 0.146339,-0.199999 0.03604,-0.0263 0.07762,-0.04389 0.119352,-0.05968 0.210335,-0.07957 0.43362,-0.11876 0.656436,-0.14919 1.002798,-0.136952 2.033456,-0.102997 3.01364,0.14919 0.453231,0.11661 0.904714,0.280621 1.372549,0.268542 0.05541,-0.0014 0.11084,-0.0053 0.166231,-0.0032 0.05539,0.0022 0.111248,0.01069 0.161988,0.03301 0.02036,0.009 0.03971,0.02005 0.05968,0.02984 0.113225,0.05548 0.243149,0.06729 0.369135,0.0622 0.125986,-0.0051 0.250884,-0.02607 0.376815,-0.03236 0.34254,-0.01711 0.679778,0.07441 1.014493,0.14919 0.07852,0.01754 0.158372,0.0343 0.238704,0.02984 0.03506,-0.0019 0.06978,-0.0079 0.104809,-0.01042 0.03502,-0.0025 0.07098,-0.0014 0.104057,0.01042 0.02098,0.0075 0.04021,0.01903 0.05968,0.02984 0.06549,0.03636 0.136755,0.06539 0.211502,0.07027 0.03737,0.0024 0.07531,-0.0013 0.110963,-0.01276 0.03565,-0.01148 0.06896,-0.03085 0.09527,-0.05751 0.0099,-0.01002 0.01882,-0.02108 0.02984,-0.02984 0.01681,-0.01337 0.03821,-0.02084 0.05968,-0.02084 0.02147,0 0.04287,0.0075 0.05968,0.02084"
     id="path8"
     inkscape:path-effect="#path-effect8"
     inkscape:original-d="m 6.5046888,17.037511 c -0.04973,-0.0099 -0.1028462,-0.0092 -0.1491901,-0.02984 -0.045444,-0.0202 -0.077397,-0.06282 -0.1193521,-0.08951 C 6.0475809,16.798162 5.860145,16.676315 5.6692242,16.560102 5.3505296,16.366114 4.9999823,16.222226 4.6845695,16.023018 4.6004771,15.969907 4.5302073,15.896704 4.4458653,15.84399 4.3704275,15.796841 4.2846963,15.768251 4.2071611,15.724638 4.1522919,15.693774 3.6415618,15.367298 3.6402387,15.366581 3.2159695,15.136769 2.9482681,15.092343 2.625746,14.769821 2.5920877,14.736163 2.485021,14.611746 2.4765558,14.560955 c -0.00818,-0.04905 0.012061,-0.100945 0,-0.14919 -0.018371,-0.07349 -0.067238,-0.13647 -0.089514,-0.208866 -0.017792,-0.05782 -0.01392,-0.120661 -0.029838,-0.179029 -0.02158,-0.07913 -0.1176708,-0.180709 -0.059676,-0.238704 0.1331696,-0.133169 0.4147013,-0.178422 0.5669224,-0.208866 0.4762953,-0.09526 0.9532897,-0.187595 1.4322251,-0.268542 0.3001139,-0.05072 1.3133251,-0.220681 1.5814152,-0.14919 0.1035048,0.0276 0.1963972,0.08657 0.2983802,0.119352 0.5151807,0.165594 0.6140533,0.160772 1.1636829,0.268542 0.2986032,0.05855 0.5980973,0.113019 0.8951406,0.179028 0.061406,0.01365 0.1173456,0.04734 0.1790282,0.05968 0.098015,0.0196 0.1987185,0.02217 0.2983802,0.02984 0.069417,0.0053 0.1424133,0.02077 0.2088661,0 0.2523327,-0.07885 0.555169,-0.332247 0.7161126,-0.537084 0.049541,-0.06305 0.07124,-0.144716 0.119352,-0.208866 0.042197,-0.05626 0.105256,-0.09427 0.1491902,-0.14919 0.093094,-0.116368 0.1517505,-0.320406 0.2685425,-0.417733 0.03417,-0.02848 0.08047,-0.03807 0.119352,-0.05968 0.255384,-0.14188 0.356681,-0.120642 0.656436,-0.14919 1.001295,-0.09536 2.022972,-0.0072 3.01364,0.14919 0.459378,0.07253 0.912235,0.195861 1.372549,0.268542 0.108513,0.01713 0.220495,0.0083 0.328219,0.02984 0.02181,0.0044 0.03751,0.02799 0.05968,0.02984 0.995259,0.08294 -0.623719,-0.131299 0.74595,0.02984 0.33946,0.03994 0.675563,0.104981 1.014493,0.14919 0.07951,0.01037 0.159007,0.02098 0.238704,0.02984 0.06477,0.0072 0.147866,-0.02033 0.208866,0 0.0211,0.007 0.03787,0.02548 0.05968,0.02984 0.06355,0.01271 0.349046,0.0229 0.417733,0 0.01334,-0.0044 0.01726,-0.02355 0.02984,-0.02984 0.02478,-0.01239 0.09106,0 0.119352,0" />
  <path
     style="fill:none;stroke:#1c3c55;stroke-width:1.079;stroke-opacity:1"
     d="m 5.9377664,13.069054 c -0.199214,0.0019 -0.3983512,0.01185 -0.5967604,0.02984 C 5.0111509,13.1288 4.6686128,13.179469 4.3563512,13.069054 4.1290691,12.988688 3.9395111,12.829814 3.7297528,12.710997 3.6212895,12.649558 3.5068977,12.598584 3.4015345,12.531969 3.0416581,12.304439 2.819724,11.919118 2.5660699,11.577153 2.4722851,11.450716 2.3721046,11.327895 2.2975277,11.189258 2.2615986,11.122467 2.2318562,11.052389 2.2080136,10.980392 2.1153201,10.700489 2.1131794,10.397666 2.0289855,10.11509 c -0.013342,-0.04478 -0.028816,-0.08941 -0.033144,-0.1359349 -0.00216,-0.023262 -0.00148,-0.046911 0.00365,-0.069703 0.00513,-0.022792 0.014813,-0.044731 0.029494,-0.062905 0.01667,-0.020636 0.039531,-0.035991 0.064559,-0.044785 0.025028,-0.00879 0.052147,-0.011135 0.078488,-0.00799 0.052682,0.00629 0.1010067,0.034054 0.1401267,0.069895 0.07824,0.071682 0.1223265,0.1733918 0.1942344,0.2514248 0.053447,0.058 0.1207304,0.101269 0.1886761,0.141319 0.067946,0.04005 0.1377451,0.07781 0.1992182,0.127223 0.065837,0.05292 0.1206261,0.118 0.1790281,0.179028 0.2525942,0.263951 0.5774034,0.454381 0.9249787,0.566922 0.089114,0.02885 0.1810322,0.05294 0.2746986,0.05362 0.093666,6.81e-4 0.19007,-0.02393 0.2623858,-0.08346 0.050666,-0.04171 0.087421,-0.09882 0.1103511,-0.160311 0.02293,-0.06149 0.032531,-0.12734 0.034517,-0.192936 0.00397,-0.131193 -0.021878,-0.261501 -0.025516,-0.392703 C 4.6451938,10.009794 4.7952737,9.6680689 5.0426257,9.428815 5.1287288,9.3455308 5.22572,9.2740671 5.3111679,9.1901108 5.3613476,9.140807 5.4074514,9.0872861 5.4603581,9.0409207 5.5797794,8.9362646 5.7301902,8.8715875 5.8847484,8.8351716 6.0393065,8.7987557 6.1989538,8.7889399 6.3577381,8.787565 c 0.3175687,-0.00275 0.6349968,0.014651 0.9525773,0.014651 h 1.9693095 c 0.1790352,0 0.3581226,0.00513 0.5370844,0 0.3196227,-0.00915 0.6362667,-0.061799 0.9548167,-0.089514 0.386699,-0.033644 0.775524,-0.0305 1.163683,-0.029838 0.805768,0.00137 1.612002,-0.00805 2.41688,0.029838 0.586761,0.027619 1.175208,0.080343 1.760443,0.029838 0.46297,-0.039954 0.917606,-0.1440204 1.372549,-0.2387042 0.850835,-0.1770778 1.71141,-0.3230004 2.536232,-0.5967604 0.392615,-0.1303096 0.781567,-0.2905184 1.193521,-0.3282183 0.398161,-0.036438 0.796343,0.043586 1.193521,0.089514 0.314314,0.036346 0.631421,0.051487 0.942927,0.1069694 0.311506,0.055482 0.621555,0.1541501 0.877192,0.3406009 0.07617,0.055556 0.149157,0.1196967 0.238704,0.1491901 0.0596,0.019631 0.123432,0.022729 0.183961,0.039284 0.03026,0.00828 0.05988,0.020058 0.08558,0.038063 0.0257,0.018005 0.04737,0.042577 0.05868,0.071843 0.0069,0.01781 0.0099,0.037031 0.01783,0.054386 0.004,0.00868 0.0093,0.016881 0.01631,0.023305 0.0071,0.00642 0.01602,0.010988 0.02553,0.011823 0.0081,7.137e-4 0.01627,-0.00128 0.02396,-0.004 0.0077,-0.00272 0.01513,-0.00618 0.02293,-0.00857 0.0078,-0.00239 0.01616,-0.00369 0.02413,-0.00195 0.004,8.687e-4 0.0078,0.0025 0.01109,0.00496 0.0033,0.00246 0.0059,0.00576 0.0074,0.00955 0.0018,0.00467 0.0019,0.00985 0.0014,0.014853 -4.66e-4,0.005 -0.0014,0.00997 -0.0014,0.014985 -2e-6,0.01097 0.0045,0.021616 0.01122,0.03031 0.0067,0.00869 0.01544,0.015598 0.02463,0.021587 0.01838,0.011977 0.03931,0.021018 0.05366,0.037617 0.0096,0.011094 0.01555,0.02483 0.02404,0.036787 0.0042,0.00598 0.0092,0.011557 0.01518,0.015773 0.006,0.00422 0.01313,0.00702 0.02047,0.00712 0.005,6.62e-5 0.01002,-0.00113 0.01503,-0.00174 0.005,-6.116e-4 0.01033,-5.839e-4 0.01481,0.00174 0.0024,0.00124 0.0044,0.0031 0.006,0.0053 0.0016,0.00219 0.0027,0.00471 0.0033,0.00733 0.0013,0.00524 8.28e-4,0.010775 -4.24e-4,0.016021 -0.0025,0.010493 -0.0081,0.020273 -0.0089,0.031028 -5.49e-4,0.00709 0.0011,0.014331 0.0046,0.020519 0.0035,0.00619 0.0089,0.011298 0.01524,0.014477 0.0064,0.00318 0.01367,0.00442 0.02073,0.0035 0.0071,-9.12e-4 0.01381,-0.00397 0.01915,-0.00866 0.05502,0.04739 0.09677,0.1100178 0.119352,0.1790281 0.02257,0.068983 0.02654,0.1442924 0.05968,0.2088662 0.01639,0.031934 0.03932,0.059954 0.05968,0.089514 0.05906,0.085729 0.09726,0.187918 0.096,0.2920124 -6.33e-4,0.052047 -0.01115,0.1041201 -0.03231,0.1516772 -0.02116,0.047557 -0.05305,0.090505 -0.09353,0.1232328 -0.01105,0.00893 -0.02272,0.01711 -0.03336,0.026532 -0.01064,0.00942 -0.02033,0.02026 -0.02632,0.033144 -0.0061,0.013205 -0.0081,0.027959 -0.0088,0.042506 -6.93e-4,0.014547 -1.71e-4,0.02916 -0.0016,0.043649 -0.0015,0.01449 -0.0051,0.029107 -0.01323,0.04117 -0.0041,0.006 -0.0093,0.01135 -0.01543,0.01524 -0.0062,0.0039 -0.01328,0.0063 -0.02056,0.0066 -0.0103,4.25e-4 -0.02025,-0.0033 -0.03037,-0.0053 -0.0051,-9.8e-4 -0.01026,-0.0015 -0.01537,-8.36e-4 -0.0051,6.76e-4 -0.01015,0.0026 -0.01393,0.0061 -0.0038,0.0035 -0.0062,0.0085 -0.0072,0.01362 -9.78e-4,0.0051 -6.61e-4,0.01042 2.49e-4,0.01556 0.0018,0.01027 0.006,0.0201 0.0069,0.03049 0.0011,0.01281 -0.0028,0.02572 -0.0093,0.0368 -0.0065,0.01108 -0.01554,0.0205 -0.02516,0.02903 -0.01924,0.01707 -0.04165,0.03158 -0.05507,0.05352 -0.0082,0.01346 -0.01253,0.02891 -0.01627,0.04424 -0.0037,0.01533 -0.007,0.0309 -0.01357,0.04527 -0.0082,0.01805 -0.02126,0.03354 -0.03577,0.04707 -0.01451,0.01352 -0.03055,0.02527 -0.04611,0.03758 -0.01556,0.0123 -0.03076,0.0253 -0.04308,0.04084 -0.01233,0.01554 -0.02172,0.03387 -0.02423,0.05354 -0.0025,0.01976 0.0019,0.03985 0,0.05968 -0.0022,0.02264 -0.01305,0.04433 -0.02984,0.05968"
     id="path9"
     inkscape:path-effect="#path-effect9"
     inkscape:original-d="m 5.9377664,13.069054 c -0.35847,0 -0.159411,-0.0066 -0.5967604,0.02984 -0.3195829,0.02663 -0.6740741,0.08848 -0.9846548,-0.02984 C 4.0056753,12.935463 4.0257945,12.888622 3.7297528,12.710997 3.6228893,12.646879 3.50323,12.604004 3.4015345,12.531969 3.0007288,12.248065 2.8322556,11.976431 2.5660699,11.577153 2.5207409,11.509159 2.3423298,11.272462 2.2975277,11.189258 2.2616163,11.122566 2.2418885,11.048142 2.2080136,10.980392 2.0070719,10.578509 2.0289855,10.538643 2.0289855,10.11509 c 0,-0.05428 -0.019832,-0.2487108 0,-0.2685427 0.019849,-0.019849 0.4243205,0.2358727 0.4774084,0.2685427 0.066607,0.04099 0.3396991,0.227761 0.3878943,0.268542 0.064426,0.05451 0.1149509,0.124105 0.1790281,0.179028 0.2528791,0.216753 0.6700531,0.446957 0.9249787,0.566922 0.1551187,0.073 0.4478515,0.193244 0.5370844,-0.02984 0.07635,-0.190876 0.069506,-0.52995 0.1193521,-0.74595 C 4.7277101,10.037553 4.8388343,9.6835543 5.0426257,9.428815 5.1383402,9.3091719 5.195773,9.2939663 5.3111679,9.1901108 5.363443,9.1430633 5.4034805,9.0822862 5.4603581,9.0409207 5.8510076,8.756812 6.8155885,8.8022165 7.3103154,8.8022165 c 0.6564365,0 1.312873,0 1.9693095,0 0.1790281,0 0.3584528,0.011909 0.5370844,0 0.3184547,-0.02123 0.6346117,-0.074266 0.9548167,-0.089514 0.708601,-0.033743 0.649533,-0.029838 1.163683,-0.029838 1.648093,0 0.937579,-0.012428 2.41688,0.029838 0.36331,0.01038 1.337458,0.049512 1.760443,0.029838 0.476173,-0.022148 0.911728,-0.1350194 1.372549,-0.2387042 1.675344,-0.3769524 -0.411301,0.1661304 2.536232,-0.5967604 0.304396,-0.078785 0.850378,-0.2646734 1.193521,-0.3282183 0.42706,-0.079085 0.772898,-0.00317 1.193521,0.089514 0.587306,0.1294065 1.242414,0.2309309 1.820119,0.4475703 0.08646,0.032423 0.153213,0.1064443 0.238704,0.1491901 0.05992,0.029958 0.287491,0.1166085 0.328218,0.1491902 0.028,0.022402 0.03432,0.064157 0.05968,0.089514 0.0211,0.021099 0.06283,-0.013344 0.08951,0 0.0089,0.00445 -0.006,0.021881 0,0.029838 0.02532,0.033758 0.05968,0.059676 0.08951,0.089514 0.01989,0.019892 0.03627,0.044071 0.05968,0.059676 0.0083,0.00552 0.02539,-0.0089 0.02984,0 0.0089,0.017792 -0.01103,0.043125 0,0.059676 0.01234,0.018505 0.03978,0.019892 0.05968,0.029838 0.03978,0.059676 0.08452,0.1163321 0.119352,0.1790281 0.03629,0.065323 0.03071,0.1412677 0.05968,0.2088662 0.01413,0.032961 0.04364,0.057439 0.05968,0.089514 0.03288,0.065766 -0.0015,0.4818914 -0.02984,0.5669224 -0.0089,0.026688 -0.0471,0.034514 -0.05968,0.059676 -0.01733,0.034654 -0.02026,0.1229106 -0.05968,0.1491901 -0.01655,0.01103 -0.04188,-0.0089 -0.05968,0 -0.01779,0.0089 0.01023,0.04262 0,0.05968 -0.02559,0.04264 -0.06484,0.07618 -0.08951,0.119353 -0.01561,0.02731 -0.01239,0.06334 -0.02984,0.08951 -0.07454,0.111815 -0.100379,0.057 -0.14919,0.179028 -0.0074,0.01847 0.0063,0.04081 0,0.05968 -0.03687,0.110613 -0.02984,-0.03637 -0.02984,0.05968" />
  <path
     style="fill:none;stroke:#1c3c55;stroke-width:1.079;stroke-opacity:1"
     d="M 7.1909633,7.3401535 C 6.8417396,7.158944 6.5749817,6.8254966 6.4748508,6.4450128 6.4129962,6.2099739 6.41405,5.9544083 6.5046888,5.7289003 6.5742952,5.5557205 6.6938501,5.4058267 6.8329071,5.2813299 7.052201,5.0849976 7.3206713,4.9483697 7.601703,4.8608633 7.8827347,4.773357 8.1767317,4.733529 8.4705479,4.7159718 c 0.5876323,-0.035115 1.1804796,0.017323 1.7638941,-0.06124 0.278946,-0.037563 0.554369,-0.104944 0.835464,-0.1193521 0.139089,-0.00713 0.278467,-0.00121 0.417733,0 0.198924,0.00173 0.397923,-0.00614 0.59676,0 0.129664,0.004 0.259144,0.013962 0.387894,0.029838 0.177887,0.036215 0.357068,0.066078 0.537085,0.089514 0.573087,0.074607 1.153189,0.083867 1.730605,0.059676 0.298805,-0.012518 0.597182,-0.033957 0.895141,-0.059676 0.627109,-0.05413 1.252489,-0.1272217 1.879795,-0.1790282 0.962843,-0.079517 1.929012,-0.1087971 2.894288,-0.1491901 0.994543,-0.041618 1.988685,-0.095062 2.983802,-0.1193521 0.288401,-0.00704 0.577051,-0.011628 0.865303,0 0.349174,0.014085 0.696901,0.051926 1.044331,0.089514 1.103998,0.1194393 2.208246,0.2365684 3.31202,0.3580563 0.322606,0.035508 0.648383,0.072099 0.954817,0.1790281 0.1075,0.037512 0.214493,0.084046 0.328218,0.089514 0.03974,0.00191 0.07956,0 0.119352,0 h 0.02984 c -0.0034,-0.00696 -0.0066,-0.014031 -0.01071,-0.020578 -0.0041,-0.00655 -0.0092,-0.012566 -0.01533,-0.017259 -0.0062,-0.00469 -0.01336,-0.00801 -0.02096,-0.00949 -0.0076,-0.00148 -0.01551,-0.00111 -0.02301,7.955e-4 -0.015,0.00381 -0.02763,0.013654 -0.0395,0.023586 -0.0059,0.00497 -0.01186,0.00998 -0.01837,0.014162 -0.0065,0.00418 -0.01367,0.00754 -0.02131,0.00878 0.0013,-0.00461 0.0019,-0.00947 0.0013,-0.014226 -6.27e-4,-0.00475 -0.0025,-0.00939 -0.0056,-0.013037 -0.0031,-0.00365 -0.0075,-0.00624 -0.01228,-0.00684 -0.0048,-5.985e-4 -0.0098,9.065e-4 -0.01323,0.00427 -0.0019,0.00181 -0.0032,0.00423 -0.0039,0.00678 -6.86e-4,0.00255 -7.71e-4,0.00524 -4.75e-4,0.00787 5.92e-4,0.00525 0.0027,0.010199 0.0044,0.015195 0.0094,0.026245 0.0088,0.055733 -4.5e-4,0.082037 -0.0093,0.026303 -0.02691,0.049377 -0.04908,0.06629 -0.02217,0.016914 -0.04872,0.027763 -0.07619,0.032581 -0.02747,0.00482 -0.05582,0.00371 -0.08314,-0.00188 -0.028,-0.00579 -0.05552,-0.016268 -0.08411,-0.015485 -0.01429,3.911e-4 -0.02874,0.00375 -0.04082,0.011402 -0.01208,0.00765 -0.02159,0.019876 -0.02426,0.033922 -0.0019,0.0098 -4.17e-4,0.019873 0,0.029838 0.0017,0.039485 -0.01391,0.079391 -0.04185,0.1073356 -0.02794,0.027945 -0.06785,0.043506 -0.107336,0.041855 -0.06236,0.067262 -0.122095,0.1369542 -0.179028,0.2088662 -0.291719,0.3684695 -0.509841,0.7949661 -0.835465,1.1338448 -0.0695,0.072334 -0.145986,0.1439867 -0.179028,0.2387042 -0.01351,0.03874 -0.01908,0.079758 -0.02984,0.1193521 -0.0087,0.032135 -0.02109,0.063696 -0.04063,0.090663 -0.01954,0.026967 -0.04677,0.04917 -0.07872,0.058527 -0.01991,0.00583 -0.04089,0.00656 -0.06145,0.00924 -0.02057,0.00268 -0.04164,0.00771 -0.0579,0.020598 -0.01112,0.00882 -0.01926,0.020745 -0.02799,0.031937 -0.0087,0.011192 -0.01865,0.022139 -0.03169,0.027739 -0.01385,0.00595 -0.0296,0.00518 -0.04454,0.00322 -0.01495,-0.00195 -0.03,-0.00499 -0.04497,-0.00322 -0.01443,0.0017 -0.02811,0.00787 -0.03987,0.016392 -0.01176,0.00852 -0.02171,0.019351 -0.03046,0.030945 -0.01751,0.023188 -0.03052,0.049611 -0.04902,0.072016 -0.02005,0.024284 -0.04604,0.043153 -0.0738,0.058023 -0.02776,0.014869 -0.05738,0.02592 -0.08706,0.036452 -0.05936,0.021064 -0.121433,0.041442 -0.167353,0.084553 -0.03616,0.033944 -0.05936,0.079531 -0.07606,0.126228 -0.0167,0.046697 -0.02756,0.095282 -0.0433,0.1423142 -0.05962,0.1782694 -0.19137,0.3308386 -0.358056,0.4177323 -0.05166,0.026929 -0.107676,0.048647 -0.14919,0.089514 -0.01828,0.017999 -0.03318,0.039221 -0.05167,0.057011 -0.0092,0.00889 -0.01942,0.016935 -0.03081,0.022841 -0.01139,0.00591 -0.02405,0.00963 -0.03688,0.00966 -0.01539,4.07e-5 -0.03026,-0.00514 -0.04543,-0.00771 -0.0076,-0.00129 -0.01535,-0.00192 -0.02298,-9.1e-4 -0.0076,0.00101 -0.01515,0.00374 -0.02109,0.00862 -0.0087,0.00714 -0.01324,0.018062 -0.01676,0.02874 -0.0035,0.010678 -0.0065,0.021824 -0.01308,0.030936 -0.0048,0.00657 -0.01123,0.01179 -0.01838,0.015631 -0.0071,0.00384 -0.01495,0.00635 -0.02288,0.00805 -0.01586,0.0034 -0.03223,0.00365 -0.04825,0.00616 -0.04684,0.00734 -0.08853,0.033598 -0.125868,0.062814 -0.03734,0.029216 -0.07209,0.06213 -0.112837,0.086376 -0.06671,0.039699 -0.145198,0.053742 -0.221984,0.065162 -0.07679,0.01142 -0.155255,0.021326 -0.225586,0.05419 -0.0777,0.036307 -0.140024,0.098044 -0.208866,0.1491901 -0.04663,0.034642 -0.09668,0.064673 -0.14919,0.089514"
     id="path10"
     inkscape:path-effect="#path-effect10"
     inkscape:original-d="M 7.1909633,7.3401535 C 6.7794571,7.205741 6.553857,6.8597953 6.4748508,6.4450128 6.4203346,6.1588027 6.360018,6.0079082 6.5046888,5.7289003 6.5898505,5.56466 6.7078937,5.4177082 6.8329071,5.2813299 7.5568012,4.4916273 9.2627045,4.7045641 10.234442,4.6547315 c 0.463024,-0.023745 0.45892,-0.050889 0.835464,-0.1193521 0.107003,-0.019455 0.337725,0 0.417733,0 0.19892,0 0.398028,-0.00864 0.59676,0 0.129558,0.00563 0.258596,0.019892 0.387894,0.029838 0.179028,0.029838 0.355979,0.077599 0.537085,0.089514 0.575966,0.037893 1.153394,0.059676 1.730605,0.059676 0.299043,0 0.597198,-0.034047 0.895141,-0.059676 0.627117,-0.053946 1.252677,-0.1250826 1.879795,-0.1790282 0.962536,-0.082799 1.929966,-0.092465 2.894288,-0.1491901 1.30259,-0.076623 1.414599,-0.085965 2.983802,-0.1193521 0.288369,-0.00614 0.577185,-0.013506 0.865303,0 0.349003,0.01636 0.696323,0.058503 1.044331,0.089514 1.111179,0.099016 2.2117,0.1843214 3.31202,0.3580563 0.367583,0.058039 0.602821,0.094549 0.954817,0.1790281 0.110271,0.026465 0.217018,0.067274 0.328218,0.089514 0.03901,0.0078 0.07957,0 0.119352,0 0.0099,0 0.03978,0 0.02984,0 -0.04973,0 -0.10471,0.02224 -0.14919,0 -0.0011,-5.59e-4 0.01082,-0.070493 -0.02984,-0.029838 -0.007,0.00703 0.006,0.021881 0,0.029838 -0.0136,0.018128 -0.189205,0.1691978 -0.208866,0.1790281 -0.107639,0.053819 -0.06589,-0.053459 -0.14919,0.029838 -0.007,0.00703 0.0064,0.022197 0,0.029838 -0.04502,0.054028 -0.09946,0.09946 -0.14919,0.1491901 -0.05968,0.069622 -0.121745,0.1372624 -0.179028,0.2088662 -0.294625,0.3682809 -0.565453,0.748114 -0.835465,1.1338448 -0.05704,0.081481 -0.128913,0.1527927 -0.179028,0.2387042 -0.02066,0.035422 -0.0115,0.082673 -0.02984,0.1193521 -0.01012,0.020241 -0.0997,0.1360861 -0.119352,0.1491901 -0.03412,0.022747 -0.08419,0.00874 -0.119352,0.029838 -0.02412,0.014474 -0.03356,0.049228 -0.05968,0.059676 -0.0277,0.011082 -0.06361,-0.014804 -0.08951,0 -0.04885,0.027914 -0.07111,0.090405 -0.119352,0.1193521 -0.233357,0.1400138 -0.136074,-0.040566 -0.328219,0.1790281 -0.06782,0.077508 -0.07086,0.1957967 -0.119352,0.2685422 -0.06054,0.090806 -0.274073,0.3430809 -0.358056,0.4177323 -0.04335,0.03853 -0.100936,0.057344 -0.14919,0.089514 -0.04138,0.027585 -0.07364,0.069924 -0.119352,0.089514 -0.02743,0.011754 -0.06283,-0.013344 -0.08951,0 -0.01989,0.00995 -0.01205,0.046332 -0.02984,0.059676 -0.02516,0.018871 -0.06138,0.015772 -0.08951,0.029838 -0.168522,0.084261 -0.009,0.053493 -0.238705,0.1491901 -0.257725,0.1073854 -0.172604,0.013596 -0.44757,0.1193521 -0.38548,0.1482617 -0.0053,0.02703 -0.208866,0.1491901 -0.04775,0.028648 -0.14919,0.017726 -0.14919,0.089514" />
  <path
     style="fill:none;stroke:#1c3c55;stroke-width:1.079;stroke-opacity:1"
     d="m 7.2506394,4.028133 c -0.2957651,0.050939 -0.5951453,0.080877 -0.8951407,0.089514 -0.3977188,0.01145 -0.7959012,-0.014487 -1.1935209,0 -0.1193835,0.00435 -0.2392313,0.012328 -0.3580562,0 -0.055007,-0.00571 -0.1095624,-0.015749 -0.1647484,-0.019335 -0.055186,-0.00359 -0.1118293,-4.538e-4 -0.1634699,0.019335 -0.04179,0.016014 -0.078698,0.042261 -0.116475,0.066256 -0.037777,0.023995 -0.077985,0.046367 -0.1222292,0.053096 -0.00989,0.0015 -0.020077,0.0022 -0.029838,0 -0.011654,-0.00262 -0.022185,-0.00933 -0.030324,-0.018073 -0.00814,-0.00874 -0.013976,-0.019458 -0.017985,-0.030711 -0.00802,-0.022506 -0.00885,-0.04681 -0.011368,-0.070568 C 4.1353602,4.0034186 4.0827907,3.897142 4.0196487,3.8011824 3.9565066,3.7052228 3.8821743,3.6170001 3.8192668,3.5208866 3.7523746,3.4186849 3.6988275,3.3082143 3.6316363,3.206209 3.564445,3.1042036 3.4808544,3.0087756 3.3716965,2.9539642 3.3518154,2.9439813 3.3311976,2.9354025 3.3120205,2.9241262 3.2704773,2.8996984 3.2366541,2.8628229 3.214223,2.8201684 3.1917919,2.7775139 3.1806141,2.7292496 3.1801138,2.6810593 c -0.001,-0.096381 0.040487,-0.1900317 0.1020686,-0.2641795 0.06348,-0.076433 0.1475728,-0.1340393 0.2379518,-0.1753109 0.090379,-0.041272 0.1871766,-0.066836 0.2846462,-0.086107 0.1949392,-0.038543 0.3966797,-0.05325 0.5814089,-0.1264759 0.083259,-0.033004 0.1616311,-0.077405 0.244891,-0.1104066 0.08326,-0.033002 0.1741872,-0.054523 0.2623553,-0.038784 0.082325,0.014696 0.1556973,0.06062 0.2217204,0.1119458 0.066023,0.051326 0.1273147,0.1091465 0.1981082,0.1536627 0.070793,0.044516 0.1541315,0.075484 0.2371392,0.065329 0.041504,-0.00508 0.082063,-0.020675 0.11452,-0.047036 0.032457,-0.026361 0.056394,-0.063753 0.063977,-0.1048729 0.00784,-0.042501 -0.00202,-0.087284 -0.023394,-0.1248483 C 5.6841355,1.8964113 5.6518125,1.8657832 5.6153237,1.8426242 5.5423462,1.7963061 5.4551127,1.7796754 5.370844,1.7604433 4.9776977,1.6707181 4.6035723,1.5062034 4.2071611,1.4322251 4.1041144,1.4129945 3.99984,1.3999454 3.897894,1.3755436 3.7959479,1.3511419 3.6952995,1.3146837 3.6104007,1.2531969 c -0.023691,-0.017158 -0.046024,-0.036167 -0.070151,-0.052708 -0.024126,-0.016541 -0.050427,-0.030722 -0.079039,-0.036806 -0.04695,-0.00998 -0.095606,0.00255 -0.1411122,0.017819 -0.045506,0.01527 -0.091036,0.033569 -0.138999,0.035441 -0.023982,9.363e-4 -0.048374,-0.0024 -0.070383,-0.011969 -0.02201,-0.00957 -0.041526,-0.02564 -0.053181,-0.046621 -0.011654,-0.02098 -0.014892,-0.046956 -0.00664,-0.069492 0.00413,-0.011268 0.011033,-0.021544 0.020102,-0.029402 0.00907,-0.00786 0.020303,-0.013252 0.032155,-0.015129 0.00985,-0.00156 0.019894,-7.175e-4 0.029838,0 0.079406,0.00573 0.1591592,0.00328 0.2387042,0 0.2988076,-0.012314 0.5969986,-0.036247 0.8951407,-0.0596761 0.6950152,-0.054617 1.393081,-0.10654669 2.0886615,-0.059676 0.2587918,0.0174383 0.5166496,0.0485284 0.7757886,0.059676 0.2186499,0.009406 0.4376325,0.004589 0.6564365,0 0.2392288,-0.005017 0.4801113,-0.009646 0.7161125,0.0298381 0.2398939,0.040136 0.4709795,0.1255315 0.6862745,0.2387041 0.078791,0.041417 0.1558953,0.086701 0.2387042,0.1193521 0.1880314,0.07414 0.3948885,0.07949 0.59676,0.089514 0.616858,0.030629 1.2347,0.1136226 1.849958,0.059676 0.397815,-0.034881 0.790214,-0.1271405 1.163683,-0.2685422 0.07948,-0.030092 0.158156,-0.062412 0.238704,-0.089514 0.250035,-0.084129 0.513985,-0.1167182 0.775788,-0.1491901 0.349015,-0.0432889 0.698143,-0.0872283 1.044331,-0.14919016 0.257706,-0.0461252 0.514541,-0.10233205 0.775789,-0.11935209 0.178719,-0.0116434 0.358052,-0.004837 0.537084,0 0.427576,0.0115513 0.855467,0.0118359 1.283035,0 0.189195,-0.005237 0.37842,-0.0128534 0.566923,-0.029838 0.237117,-0.0213649 0.473432,-0.0575664 0.711507,-0.0588169 0.238074,-0.00125 0.48176,0.0345331 0.69088,0.14833095 0.09455,0.0514543 0.180065,0.11770921 0.268542,0.17902813 0.351447,0.24357072 0.749568,0.40921682 1.133845,0.59676052 0.108052,0.052734 0.215471,0.1074261 0.328218,0.1491901 0.340516,0.1261349 0.717664,0.1287087 1.074169,0.059676 0.118918,-0.023027 0.237068,-0.053874 0.358056,-0.059676 0.100289,-0.00481 0.200515,0.00771 0.300852,0.011379 0.100337,0.00367 0.203452,-0.00206 0.295908,-0.041217 0.08285,-0.035087 0.154986,-0.096089 0.24264,-0.116399 0.04383,-0.010155 0.09153,-0.00911 0.131887,0.01076 0.02018,0.00994 0.0382,0.024502 0.05129,0.042798 0.01309,0.018295 0.0211,0.040357 0.02175,0.062842 2.87e-4,0.00995 -8.39e-4,0.019923 0,0.029838 0.0011,0.012681 0.0054,0.024966 0.01152,0.036105 0.0062,0.011139 0.01414,0.021181 0.02287,0.030449 0.01744,0.018535 0.03786,0.034097 0.05513,0.052798 0.03649,0.039524 0.05739,0.091977 0.06368,0.1454004 0.0063,0.053424 -0.0014,0.1078325 -0.01672,0.1593908 -0.03069,0.1031168 -0.0909,0.1945101 -0.136471,0.2919692 -0.08643,0.1848409 -0.119642,0.3949488 -0.08951,0.5967605 0.0026,0.017215 0.0056,0.034826 0.0021,0.051887 -0.0017,0.00853 -0.0051,0.016817 -0.01053,0.023624 -0.0054,0.00681 -0.01297,0.012062 -0.02145,0.014003 -0.0097,0.00223 -0.01986,6.18e-5 -0.02984,0 -0.01453,-9e-5 -0.02896,0.0044 -0.04127,0.012106 -0.01232,0.00771 -0.02255,0.018563 -0.03016,0.030942 -0.01521,0.024759 -0.01972,0.054892 -0.01811,0.083908 0.0032,0.058031 0.0293,0.1133064 0.02986,0.1714241 4.17e-4,0.042935 -0.0132,0.084887 -0.03109,0.1239218 -0.01789,0.039035 -0.04011,0.075944 -0.05842,0.1147824 -0.0352,0.074662 -0.0556,0.1562631 -0.05968,0.2387042"
     id="path11"
     inkscape:path-effect="#path-effect11"
     inkscape:original-d="M 7.2506394,4.028133 C 6.9224823,4.0148 6.6784154,4.020773 6.3554987,4.117647 c -0.5698813,0.1709644 -0.3827599,0.065737 -1.1935209,0 -0.1189617,-0.00965 -0.2387041,0 -0.3580562,0 -0.1094061,0 -0.221159,-0.022539 -0.3282183,0 -0.087052,0.018327 -0.1574117,0.083222 -0.2387042,0.119352 -0.00909,0.00404 -0.02387,0.00796 -0.029838,0 C 4.1804732,4.2014152 4.1729926,4.1540864 4.1474851,4.1176471 4.0223602,3.9388972 3.8192668,3.7580967 3.8192668,3.5208866 c 0,-0.092214 -0.3659776,-0.5057279 -0.4475703,-0.5669224 -0.060864,-0.045648 0.00118,0.071589 -0.059676,-0.029838 C 3.2360483,2.7975059 3.083874,2.5242968 3.2821824,2.4168798 3.8509605,2.1087917 3.8388985,2.1853543 4.3861893,2.0289855 4.5324358,1.9872008 4.7256584,1.8965731 4.8934356,1.8797954 5.0332265,1.8658163 5.7117168,2.0760069 5.7289003,2.0588235 5.7670935,2.0206302 5.5378226,1.8439326 5.370844,1.7604433 5.0118589,1.5809508 4.5945573,1.5183131 4.2071611,1.4322251 4.013744,1.3892435 3.79228,1.3358694 3.6104007,1.2531969 3.5576043,1.2291986 3.5145161,1.1865281 3.4612106,1.1636829 3.3455746,1.1141246 3.2156805,1.1005939 3.1031543,1.0443308 c -0.0089,-0.00445 0.019892,0 0.029838,0 0.079568,0 0.1592262,0.00378 0.2387042,0 C 3.6704006,1.0301068 3.9683107,1.0022148 4.2668372,0.9846547 4.9620987,0.943757 5.6583946,0.898167 6.3554987,0.9249787 c 0.2597374,0.002664 0.5166533,0.0488787 0.7757886,0.059676 0.2186225,0.009109 0.4376243,0 0.6564365,0 0.2358957,0 0.4818144,0.003805 0.7161125,0.0298381 0.2182592,0.024251 0.4917463,0.1535981 0.6862745,0.2387041 0.081501,0.035657 0.1543095,0.091221 0.2387042,0.1193521 0.1740071,0.058002 0.416611,0.070551 0.59676,0.089514 0.621777,0.06545 1.217248,0.084984 1.849958,0.059676 0.405243,-0.01621 0.783007,-0.1416504 1.163683,-0.2685422 0.08062,-0.026873 0.155984,-0.070051 0.238704,-0.089514 0.256334,-0.060314 0.516702,-0.1020834 0.775788,-0.1491901 0.831784,-0.15123343 0.23792,-0.0366677 1.044331,-0.14919016 0.259128,-0.0361574 0.515225,-0.0956644 0.775789,-0.11935209 0.178293,-0.0162084 0.358056,0 0.537084,0 0.427679,0 0.855478,0.0101799 1.283035,0 0.189182,-0.004504 0.378378,-0.0136771 0.566923,-0.029838 0.487163,-0.0417568 0.942666,-0.14034619 1.402387,0.0895141 0.09622,0.0481124 0.175437,0.12512539 0.268542,0.17902813 0.36803,0.21307042 0.757863,0.39771122 1.133845,0.59676052 0.184229,0.097533 0.161881,0.1214673 0.328218,0.1491901 0.348697,0.058116 0.720016,0.083286 1.074169,0.059676 0.12073,-0.00805 0.237326,-0.051627 0.358056,-0.059676 0.198727,-0.013248 0.397817,-0.020365 0.59676,-0.029838 0.0044,-2.088e-4 0.434379,-0.013192 0.447571,0 0.007,0.00703 -0.0051,0.021309 0,0.029838 0.02559,0.042643 0.07205,0.072788 0.08951,0.1193521 0.0612,0.1632124 -0.07222,0.4411324 -0.08951,0.5967604 -0.02202,0.1981387 -0.05055,0.4019306 -0.08951,0.5967605 -0.0062,0.030841 -0.0076,0.067274 -0.02984,0.089514 -0.007,0.00703 -0.02539,-0.0089 -0.02984,0 -0.01962,0.03923 -0.04589,0.243227 -0.05968,0.2983802 -0.02119,0.08475 -0.06907,0.1569091 -0.08951,0.2387042 -0.02217,0.088671 -0.01576,0.1508636 -0.05968,0.2387042" />
</svg>
