<?xml version="1.0" encoding="UTF-8" standalone="no"?>
<!-- Created with Inkscape (http://www.inkscape.org/) -->

<svg
   width="50"
   height="50"
   viewBox="0 0 13.229166 13.229167"
   version="1.1"
   id="svg1"
   xml:space="preserve"
   inkscape:version="1.3.2 (091e20e, 2023-11-25, custom)"
   sodipodi:docname="fent-um.svg"
   xmlns:inkscape="http://www.inkscape.org/namespaces/inkscape"
   xmlns:sodipodi="http://sodipodi.sourceforge.net/DTD/sodipodi-0.dtd"
   xmlns="http://www.w3.org/2000/svg"
   xmlns:svg="http://www.w3.org/2000/svg"><sodipodi:namedview
     id="namedview1"
     pagecolor="#ffffff"
     bordercolor="#000000"
     borderopacity="0.25"
     inkscape:showpageshadow="2"
     inkscape:pageopacity="0.0"
     inkscape:pagecheckerboard="0"
     inkscape:deskcolor="#d1d1d1"
     inkscape:document-units="mm"
     inkscape:zoom="5.911246"
     inkscape:cx="21.991979"
     inkscape:cy="44.068543"
     inkscape:window-width="2560"
     inkscape:window-height="1369"
     inkscape:window-x="-8"
     inkscape:window-y="-8"
     inkscape:window-maximized="1"
     inkscape:current-layer="layer1" /><defs
     id="defs1"><inkscape:path-effect
       effect="spiro"
       id="path-effect4"
       is_visible="true"
       lpeversion="1" /><inkscape:path-effect
       effect="spiro"
       id="path-effect3"
       is_visible="true"
       lpeversion="1" /><inkscape:path-effect
       effect="spiro"
       id="path-effect2"
       is_visible="true"
       lpeversion="1" /><inkscape:path-effect
       effect="spiro"
       id="path-effect1"
       is_visible="true"
       lpeversion="1" /></defs><g
     inkscape:label="Layer 1"
     inkscape:groupmode="layer"
     id="layer1"><path
       style="fill:#ab9ff2;fill-opacity:1;stroke:#ab9ff2;stroke-width:0.687917;stroke-opacity:1"
       d="M 6.6243789,13.024961 C 6.435102,12.896714 6.2211532,12.805021 5.9977485,12.756405 5.6011458,12.670098 5.1833169,12.719345 4.7892469,12.622127 c -0.088977,-0.02195 -0.1763035,-0.05129 -0.2667297,-0.06618 -0.090426,-0.01489 -0.1860842,-0.01453 -0.2703821,0.02143 -0.061493,0.02623 -0.1149581,0.07047 -0.1790375,0.08952 -0.050315,0.01496 -0.1039815,0.01337 -0.1562686,0.0087 -0.052287,-0.0046 -0.1046682,-0.0122 -0.1570464,-0.0087 -0.1087001,0.0072 -0.208231,0.06081 -0.3133154,0.08952 -0.2026752,0.05538 -0.4171829,0.01661 -0.6266304,0 -0.1786349,-0.01417 -0.3583093,-0.01187 -0.5371117,0 -0.1130379,0.0075 -0.226048,0.01883 -0.3393187,0.01693 -0.1132707,-0.0019 -0.2277675,-0.01748 -0.332071,-0.06169 -0.1089272,-0.04617 -0.2049634,-0.124033 -0.2685559,-0.223797 -0.029144,-0.04572 -0.051341,-0.09546 -0.077767,-0.142809 -0.026426,-0.04734 -0.057924,-0.09318 -0.1012703,-0.125747 -0.034318,-0.02579 -0.074784,-0.04226 -0.1159573,-0.05441 -0.041173,-0.01214 -0.083427,-0.02021 -0.12500412,-0.03089 -0.0415771,-0.01068 -0.0828833,-0.02416 -0.1197403,-0.04616 -0.036857,-0.02201 -0.0692504,-0.0532 -0.0868914,-0.09234 -0.0199509,-0.04426 -0.0197148,-0.0945 -0.0260788,-0.142626 -0.003182,-0.02406 -0.008161,-0.04812 -0.0180516,-0.07028 -0.00989,-0.02217 -0.0249979,-0.04248 -0.0453881,-0.05565 -0.0140822,-0.0091 -0.0301513,-0.01452 -0.0458022,-0.02053 -0.0156509,-0.006 -0.0313747,-0.01289 -0.0437164,-0.02423 -0.0117223,-0.01078 -0.0198157,-0.02519 -0.0241599,-0.04051 -0.004344,-0.01532 -0.005054,-0.03152 -0.003361,-0.04736 0.003386,-0.03167 0.0160792,-0.06145 0.027521,-0.09117 0.0759164,-0.197188 0.10133897,-0.410899 0.10000595,-0.622191 -0.001333,-0.211293 -0.028701,-0.421448 -0.0552466,-0.63107 C 0.55365484,10.027069 0.5262629,9.8028271 0.53711185,9.5784946 0.55002286,9.3115231 0.61682491,9.0499478 0.64102287,8.783762 0.65312185,8.650669 0.65447275,8.515901 0.6331143,8.383977 0.61175584,8.2520531 0.56706336,8.1227267 0.49235255,8.0119187 c -0.0188971,-0.028027 -0.039672,-0.054839 -0.0567219,-0.084027 -0.0170498,-0.029188 -0.0304255,-0.061291 -0.0327967,-0.095011 -0.002678,-0.038081 0.008718,-0.075535 0.0150261,-0.1131858 0.003154,-0.018825 0.005047,-0.038003 0.003258,-0.057006 -0.001789,-0.019004 -0.007416,-0.037913 -0.0182843,-0.053604 -0.01204,-0.017384 -0.0297204,-0.029894 -0.0447593,-0.044759 -0.0364617,-0.036041 -0.0569982,-0.086177 -0.0631819,-0.1370709 -0.006184,-0.050894 0.001151,-0.1026556 0.0144251,-0.1521752 0.0265478,-0.099039 0.0766709,-0.1914825 0.0935161,-0.292625 0.0135297,-0.081235 0.004947,-0.1643115 -0.002749,-0.2463053 -0.007696,-0.081994 -0.0143977,-0.1654979 0.002749,-0.2460472 0.0237164,-0.1114089 0.0908789,-0.2080016 0.13427798,-0.3133151 0.0694816,-0.1686064 0.0765903,-0.355209 0.0895186,-0.5371119 0.038275,-0.5385334 0.13459334,-1.0884896 0,-1.6113355 C 0.59225778,3.894814 0.54283029,3.7632662 0.53711193,3.625506 c -0.003716,-0.08953 0.0112283,-0.1796547 0,-0.2685561 C 0.52524582,3.2629988 0.4848552,3.1754525 0.44759333,3.0883941 0.38555265,2.9434426 0.33032247,2.7928202 0.31879761,2.6355715 c -0.005762,-0.078624 -3.6683e-4,-0.1584167 0.0202504,-0.2345083 0.0206173,-0.076091 0.0567338,-0.1484368 0.10854529,-0.2078554 0.0138777,-0.015915 0.0288439,-0.030881 0.0447593,-0.044759 V 1.9694115 c 0,-0.132065 -0.0200073,-0.2630812 -0.0516427,-0.3913012 -0.0158177,-0.06411 -0.0309822,-0.1294154 -0.0281794,-0.1953883 0.001401,-0.032987 0.007512,-0.065991 0.0204493,-0.096367 0.0129374,-0.030376 0.0329281,-0.058084 0.0593728,-0.077852 0.0268613,-0.020079 0.0591285,-0.031278 0.0905967,-0.042873 0.0314683,-0.011595 0.0634211,-0.024314 0.0884405,-0.046646 0.020637,-0.01842 0.0354882,-0.042516 0.0470172,-0.067661 0.011529,-0.025145 0.0199871,-0.0515636 0.0297635,-0.0774405 0.009776,-0.0258769 0.0210287,-0.0514974 0.0374611,-0.0737498 0.0164324,-0.0222524 0.0385062,-0.0410984 0.0647955,-0.0497043 0.0166495,-0.00545 0.0344389,-0.006671 0.0511449,-0.0119451 0.008353,-0.002637 0.0164652,-0.006327 0.0233422,-0.0117524 0.006877,-0.005425 0.0124782,-0.0126827 0.0150315,-0.0210618 0.002187,-0.007176 0.002081,-0.0148428 0.001466,-0.022319 -6.1496e-4,-0.007476 -0.001721,-0.0149431 -0.001466,-0.0224403 4.383e-4,-0.0129294 0.004998,-0.0255964 0.01236,-0.0362339 0.007362,-0.0106375 0.0174572,-0.0192723 0.0287955,-0.0255015 0.0226767,-0.0124584 0.0496531,-0.0151475 0.0754023,-0.0126131 0.051498,0.005069 0.1002509,0.0297468 0.1519979,0.0295879 0.050731,-1.558e-4 0.098312,-0.0242341 0.1405961,-0.0522643 0.042284,-0.0280303 0.081886,-0.0607795 0.1279598,-0.0820136 0.082882,-0.0381985 0.1777629,-0.0355273 0.2685559,-0.0447593 0.3106809,-0.0315906 0.5889823,-0.20724013 0.8951864,-0.26855592 0.2414678,-0.0483527 0.4927796,-0.0236771 0.7320946,0.0344009 0.2393149,0.058078 0.4692163,0.14877523 0.7002033,0.23415505 0.088538,0.0327265 0.1774716,0.0647462 0.2685561,0.0895186 0.3346391,0.0910125 0.6923359,0.081308 1.0294644,0 0.1338572,-0.0322834 0.2658273,-0.0757622 0.4028336,-0.0895186 0.104005,-0.0104429 0.208847,-0.003527 0.3133154,0 0.4043649,0.0136517 0.8092904,-0.0237326 1.2085015,-0.0895186 0.3861618,-0.0636356 0.7728795,-0.15420104 1.163742,-0.13427795 0.2000209,0.0101955 0.4001432,0.050092 0.5818712,0.13427795 0.1211594,0.0561274 0.2333216,0.13142849 0.3580746,0.17903727 0.2119047,0.080868 0.4449358,0.0767939 0.6713896,0.0895186 0.31018,0.0174294 0.61805,0.0683026 0.928572,0.0778802 0.310521,0.009578 0.630534,-0.0248329 0.90656,-0.16739884 0.05735,-0.0296187 0.113273,-0.0640537 0.175871,-0.0797798 0.0313,-0.007863 0.06411,-0.0108494 0.09598,-0.005746 0.03187,0.005104 0.06276,0.0186075 0.08622,0.0407663 0.03201,0.0302303 0.04773,0.0733409 0.06374,0.11435228 0.008,0.0205057 0.01638,0.0409662 0.02753,0.0599503 0.01114,0.0189841 0.0252,0.0365525 0.04301,0.049494 0.01808,0.0131398 0.03945,0.0211433 0.05771,0.0340358 0.0091,0.006446 0.0175,0.0141874 0.02347,0.0236361 0.006,0.009449 0.0094,0.0207226 0.0083,0.0318467 -7.42e-4,0.007735 -0.0036,0.0151145 -0.0048,0.0227875 -6.12e-4,0.003836 -8.13e-4,0.007775 -1.31e-4,0.0115998 6.81e-4,0.003825 0.0023,0.007543 0.0049,0.010372 0.0027,0.002861 0.0064,0.004699 0.0102,0.005559 0.0038,8.6042e-4 0.0078,7.8618e-4 0.01172,2.134e-4 0.0078,-0.001146 0.01513,-0.004235 0.02284,-0.005773 0.01324,-0.002642 0.02726,-5.3264e-4 0.03951,0.005159 0.01225,0.005692 0.02274,0.0148568 0.03072,0.0257532 0.01595,0.0217927 0.02159,0.0496514 0.02184,0.0766591 2.45e-4,0.027008 -0.0045,0.053781 -0.0072,0.080653 -0.0027,0.026871 -0.0034,0.054544 0.0046,0.080332 0.008,0.025813 0.02431,0.0482 0.04133,0.069199 0.01703,0.021 0.03523,0.041352 0.04819,0.065079 0.02191,0.040105 0.02733,0.086981 0.02979,0.132612 0.0025,0.045631 0.0025,0.091989 0.01497,0.1359439 0.01829,0.06432 0.06173,0.1182184 0.08952,0.1790373 0.04424,0.096809 0.0472,0.2069034 0.04476,0.3133151 -0.0075,0.3289168 -0.05898,0.6610309 0,0.984705 0.02466,0.1353651 0.06835,0.2668783 0.08952,0.402834 0.06235,0.4004438 -0.07375,0.8035399 -0.08952,1.2085013 -0.0087,0.2245325 0.01963,0.4485992 0.03598,0.6727065 0.01635,0.2241073 0.02031,0.4525332 -0.03598,0.6700732 -0.02364,0.09139 -0.05764,0.1797026 -0.08952,0.2685558 -0.0833,0.2321645 -0.152844,0.470889 -0.179037,0.716149 -0.02067,0.1935104 -0.0142,0.3896749 -0.04476,0.5818711 -0.0239,0.1503161 -0.07023,0.2966161 -0.08952,0.4475933 -0.03049,0.2386407 0.0075,0.4803064 0.05073,0.7169654 0.04326,0.2366589 0.09215,0.4749056 0.08355,0.7153326 -0.0027,0.076067 -0.0112,0.1520155 -0.009,0.2281005 0.0022,0.076085 0.01568,0.153602 0.05379,0.2194927 0.02696,0.046616 0.06544,0.086113 0.08952,0.1342778 0.03056,0.06111 0.03573,0.132052 0.03017,0.20015 -0.0056,0.0681 -0.02121,0.134949 -0.03017,0.202684 -0.0074,0.05601 -0.0099,0.11461 0.01016,0.167409 0.01005,0.0264 0.02583,0.05089 0.04725,0.0693 0.02142,0.01842 0.04865,0.0305 0.07687,0.03184 0.01491,7.07e-4 0.02991,-0.0015 0.04476,0 0.02268,0.0023 0.04403,0.01356 0.06016,0.02967 0.01613,0.01612 0.0272,0.0369 0.03343,0.05883 0.01246,0.04387 0.0059,0.09079 -0.0041,0.135291 -0.03225,0.143857 -0.09873,0.277639 -0.141163,0.418829 -0.02121,0.07059 -0.03644,0.143483 -0.03775,0.217185 -0.0013,0.0737 0.01172,0.148457 0.04464,0.214414 0.0238,0.0477 0.05808,0.09146 0.06855,0.143726 0.0052,0.02613 0.004,0.05419 -0.0076,0.07818 -0.0058,0.012 -0.01414,0.02283 -0.0246,0.03108 -0.01047,0.0082 -0.02308,0.01386 -0.0363,0.01557 -0.01481,0.0019 -0.02986,-0.001 -0.04476,0 -0.01896,0.0013 -0.03724,0.0092 -0.05195,0.02123 -0.0147,0.01204 -0.02589,0.02812 -0.03313,0.04569 -0.01447,0.03515 -0.01307,0.0751 -0.0044,0.112118 0.0035,0.01503 0.0082,0.02987 0.0096,0.04524 0.0014,0.01536 -6.73e-4,0.0317 -0.0096,0.04428 -0.007,0.0099 -0.0177,0.0167 -0.02909,0.02081 -0.01139,0.0041 -0.02352,0.0057 -0.03558,0.0068 -0.01206,0.0011 -0.0242,0.0017 -0.0361,0.0039 -0.01191,0.0022 -0.02371,0.0061 -0.0335,0.01324 -0.01373,0.01 -0.0225,0.02542 -0.02859,0.04126 -0.0061,0.01584 -0.0099,0.03248 -0.01617,0.04826 -0.01234,0.03118 -0.03422,0.0585 -0.06195,0.07735 -0.02773,0.01885 -0.06119,0.02914 -0.09471,0.02914 -0.03353,0 -0.06698,-0.0103 -0.09471,-0.02914 -0.02773,-0.01885 -0.04961,-0.04617 -0.06195,-0.07735 -0.0072,-0.03293 -0.02274,-0.064 -0.04476,-0.08952 -0.02409,-0.02792 -0.05572,-0.04903 -0.09024,-0.062 -0.03452,-0.01297 -0.07186,-0.01793 -0.108681,-0.01596 -0.07365,0.0039 -0.143839,0.03517 -0.203914,0.07796 -0.09507,0.06771 -0.168208,0.164182 -0.268557,0.223796 -0.08625,0.05124 -0.189113,0.07301 -0.268555,0.134278 -0.05915,0.04562 -0.100704,0.109622 -0.145743,0.169217 -0.04504,0.05959 -0.09759,0.117978 -0.167573,0.144098 -0.05636,0.02103 -0.11855,0.01899 -0.178354,0.01249 -0.0598,-0.0065 -0.119748,-0.01719 -0.17972,-0.01249 -0.09455,0.0074 -0.181353,0.05223 -0.268556,0.08952 -0.121695,0.05204 -0.250609,0.09098 -0.3828285,0.09695 -0.1322199,0.006 -0.2684169,-0.02285 -0.3780799,-0.09695 -0.028131,-0.01901 -0.054359,-0.04083 -0.083382,-0.05845 -0.029023,-0.01762 -0.061704,-0.0311 -0.095655,-0.03107 -0.022817,1.6e-5 -0.045144,0.0061 -0.067761,0.0091 -0.011309,0.0015 -0.022781,0.0023 -0.034129,0.0011 -0.011348,-0.0012 -0.022604,-0.0043 -0.032388,-0.01019 -0.018167,-0.01089 -0.029647,-0.02992 -0.044759,-0.04476 -0.027843,-0.02735 -0.067703,-0.03974 -0.106693,-0.04149 -0.03899,-0.0018 -0.077708,0.0061 -0.1158522,0.01441 -0.038144,0.0083 -0.076584,0.01698 -0.1156129,0.01692 -0.039029,-6.7e-5 -0.079336,-0.0097 -0.1094351,-0.03459 -0.016283,-0.01344 -0.028967,-0.03075 -0.044759,-0.04476 -0.029249,-0.02596 -0.067909,-0.03936 -0.1066748,-0.04451 -0.038766,-0.0051 -0.078088,-0.0026 -0.1171217,-2.53e-4 -0.3130402,0.01904 -0.6275955,0.02818 -0.9399458,0 -0.2242456,-0.02023 -0.4541564,-0.0592 -0.6713897,0 -0.097194,0.02649 -0.1890485,0.07242 -0.2685558,0.134278 z"
       id="path4"
       inkscape:path-effect="#path-effect4"
       inkscape:original-d="M 6.6243789,13.024961 C 6.415502,12.935442 6.2123864,12.831062 5.9977485,12.756405 5.5290312,12.593373 5.2438183,12.672635 4.7892469,12.622127 4.6450231,12.606101 4.406307,12.525977 4.2521351,12.577368 c -0.086591,0.02886 -0.092447,0.06066 -0.1790375,0.08952 -0.099079,0.03303 -0.2093949,-0.01039 -0.313315,0 -0.40322,0.04032 -0.091416,0.01555 -0.3133154,0.08952 -0.16511,0.05504 -0.4642196,0 -0.6266304,0 -0.1448776,0 -0.3878306,-0.03732 -0.5371117,0 -0.1975617,0.04939 -0.5056468,0.120984 -0.6713897,-0.04476 -0.090667,-0.09067 -0.191834,-0.121501 -0.2685559,-0.223797 -0.043393,-0.05786 -0.1239447,-0.213463 -0.1790373,-0.268556 -0.02783,-0.02783 -0.37665368,-0.176503 -0.44759315,-0.223796 -0.0975278,-0.06502 -0.003013,-0.182051 -0.0895186,-0.268556 -0.0235902,-0.02359 -0.0659284,-0.02117 -0.0895186,-0.04476 -0.0421995,-0.0422 0,-0.119359 0,-0.179038 0,-0.405545 -0.0517369,-0.867276 0.0447593,-1.253261 0.037168,-0.148672 -0.0447593,-0.4743984 -0.0447593,-0.6713894 0,-0.4264504 0.0793073,-1.1530205 -0.0447593,-1.5665759 -0.0191728,-0.063909 -0.0733359,-0.1143064 -0.0895186,-0.1790375 -0.018093,-0.072372 0.0333616,-0.1570733 0,-0.2237965 -0.009436,-0.018873 -0.038087,-0.024741 -0.0447593,-0.044759 -0.0557415,-0.1672246 0.0176988,-0.4195077 0.0447593,-0.5818711 0.0266137,-0.1596819 -0.0266136,-0.3326707 0,-0.4923525 0.019535,-0.1172091 0.11220225,-0.2029368 0.13427798,-0.3133151 0.0348587,-0.1742935 0.0499502,-0.3590542 0.0895186,-0.5371119 0.1026909,-0.462109 0.0804988,-1.1283428 0,-1.6113355 -0.0977356,-0.5864134 0.0100018,0.29381 -0.0895186,-0.4028336 -0.012451,-0.087156 0.0172461,-0.1823255 0,-0.2685561 -0.0180531,-0.090265 -0.0601317,-0.180395 -0.0895186,-0.2685558 -0.0308386,-0.092516 -0.0372593,-0.7834084 0,-0.8951863 0.006672,-0.020017 0.0298395,-0.02984 0.0447593,-0.044759 0,-0.059679 0,-0.1193582 0,-0.1790373 0,-0.058314 -0.0108394,-0.7500688 0,-0.7609084 C 0.59758999,1.1032658 0.29721256,1.4931618 0.6713899,1.1189841 0.7402913,1.0500831 0.78152578,0.91932958 0.85042717,0.85042822 c 0.0235902,-0.0235903 0.0659284,-0.0211691 0.0895186,-0.0447593 0.0105497,-0.01055 -0.01055,-0.0342095 0,-0.0447593 C 0.95880932,0.74204469 1.1778316,0.72637236 1.2085015,0.71614905 1.2948349,0.6873713 1.3836315,0.61301309 1.4770574,0.5818711 1.5631537,0.55317236 1.6583517,0.56204368 1.7456133,0.53711181 2.1101086,0.4329703 2.2736317,0.2226599 2.6407997,0.26855589 c 0.4849764,0.060622 0.9624813,0.17459256 1.4322979,0.26855592 0.092529,0.0185057 0.1747722,0.0790982 0.2685561,0.0895186 0.2305582,0.0256175 0.78428,0.0350263 1.0294644,0 0.1136459,-0.0162351 0.2969802,-0.0718764 0.4028336,-0.0895186 0.1016159,-0.016936 0.2116995,0.016936 0.3133154,0 0.3947903,-0.0657984 0.8058623,-0.0585464 1.2085015,-0.0895186 0.3884666,-0.029882 0.7686466,-0.20012719 1.163742,-0.13427795 0.1989318,0.0331553 0.3878038,0.0695888 0.5818712,0.13427795 0.8331282,0.27770933 -0.217582,-0.0676727 0.3580746,0.17903727 0.1301295,0.0557699 0.5175824,0.10660832 0.6713896,0.0895186 0.614366,-0.0682629 1.212035,-0.0895186 1.835132,-0.0895186 0.0492,0 0.347274,-0.05556 0.358075,-0.0447593 0.110963,0.11096366 0.06364,0.11783719 0.134278,0.2237966 0.02341,0.0351121 0.07065,0.0517742 0.08952,0.0895186 0.0067,0.0133445 -0.01055,0.0342095 0,0.0447593 0.01055,0.0105497 0.03421,-0.01055 0.04476,0 0.04047,0.0404739 0.07542,0.21216462 0.08952,0.26855582 0.05403,0.2161403 0.02127,-0.00222 0.08952,0.134278 0.125093,0.2501874 -0.01803,0.017419 0.04476,0.2685559 0.01,0.039856 0.0686,0.137197 0.08952,0.1790373 0.01567,0.031331 0.04473,0.3131485 0.04476,0.3133151 0.05311,0.3186756 -0.04005,0.6642668 0,0.984705 0.06158,0.4926619 0.01135,0.090147 0.08952,0.402834 0.08003,0.3201384 -0.05378,0.8868198 -0.08952,1.2085013 -0.04886,0.4397155 0.07262,0.9070795 0,1.3427797 -0.01551,0.093077 -0.06663,0.1770123 -0.08952,0.2685558 -0.05698,0.2279229 -0.13356,0.4887653 -0.179037,0.716149 -0.0375,0.1875046 -0.02368,0.3921715 -0.04476,0.5818711 -0.01822,0.1639414 -0.08952,0.2811714 -0.08952,0.4475933 0,0.4084388 0.05691,1.0454772 0.134278,1.432298 0.02203,0.1101434 0.0067,0.3523948 0.04476,0.4475932 0.01998,0.049947 0.07251,0.083245 0.08952,0.1342778 0.04006,0.120169 -0.03075,0.279831 0,0.402834 0.01857,0.07429 0.07972,0.213997 0.134278,0.268556 0.01055,0.01055 0.03421,-0.01055 0.04476,0 0.02575,0.02575 0.06384,0.172436 0.08952,0.223796 0.08744,0.174878 -0.09572,0.657649 -0.134278,0.850428 -0.009,0.04481 0.03398,0.234577 0,0.268555 -0.01055,0.01055 -0.03421,-0.01055 -0.04476,0 -0.01468,0.01468 -0.07282,0.145636 -0.08952,0.179038 -0.01335,0.02669 0.0211,0.06842 0,0.08952 -0.01492,0.01492 -0.119358,0.02984 -0.134278,0.04476 -0.09261,0.09261 0.141518,-0.0036 -0.04476,0.08952 -0.04941,0.02471 -0.272381,0.01364 -0.313315,0 -0.09751,0.01673 -0.01492,-0.0746 -0.04476,-0.08952 -0.0558,-0.0279 -0.35832,-0.01272 -0.402833,0 -0.130064,0.03716 -0.166465,0.155735 -0.268557,0.223796 -0.02392,0.01595 -0.232767,0.122349 -0.268555,0.134278 -0.128976,0.04299 -0.177744,0.24553 -0.313316,0.313315 -0.106757,0.05338 -0.239446,-0.01318 -0.358074,0 -0.09378,0.01042 -0.175479,0.07401 -0.268556,0.08952 -0.100743,0.01679 -0.6394255,0.03037 -0.7609084,0 -0.064731,-0.01618 -0.1143061,-0.07334 -0.1790372,-0.08952 -0.043423,-0.01085 -0.094244,0.02002 -0.1342779,0 -0.018873,-0.0094 -0.024741,-0.03809 -0.044759,-0.04476 -0.1307679,-0.04359 -0.3154153,-6.88e-4 -0.4475932,-0.04476 -0.020018,-0.0067 -0.024741,-0.03809 -0.044759,-0.04476 -0.072172,-0.02406 -0.1480979,-0.03719 -0.2237965,-0.04476 -0.3037933,-0.03038 -0.6342208,0 -0.9399458,0 -0.1601454,0 -0.5265078,-0.04829 -0.6713897,0 -0.094949,0.03165 -0.1756294,0.09711 -0.2685558,0.134278 z"
       transform="matrix(0.95972866,0,0,0.97088224,0.17888055,0.03988098)" /><path
       style="display:inline;fill:#ffffff;fill-opacity:1;stroke:#ffffff;stroke-width:0.687917;stroke-opacity:1"
       d="M 3.1331521,6.6691382 C 3.0866215,6.727461 3.0418355,6.7871756 2.9988742,6.8481754 2.8664032,7.036268 2.7484388,7.245461 2.7303182,7.4748058 c -0.00941,0.1190553 0.0086,0.2389579 0,0.3580744 -0.00974,0.1350139 -0.053543,0.2677543 -0.044759,0.402834 0.00394,0.060563 0.018413,0.1199669 0.024637,0.1803379 0.00622,0.060371 0.00353,0.1239796 -0.024637,0.1777367 -0.024691,0.047118 -0.067269,0.082974 -0.1141557,0.1081005 -0.046887,0.025127 -0.098298,0.040453 -0.1494804,0.054947 -0.051182,0.014495 -0.1028517,0.028436 -0.1509763,0.051102 -0.048125,0.022666 -0.09307,0.054853 -0.1224996,0.099165 -0.033879,0.051012 -0.044787,0.1153858 -0.036102,0.1760039 0.00868,0.060618 0.035928,0.1175953 0.072351,0.1668233 0.072845,0.098456 0.1792746,0.1653099 0.2770663,0.2390439 0.099998,0.075398 0.1929207,0.1598911 0.293691,0.2342537 0.1007703,0.074363 0.2111942,0.1392108 0.3329394,0.1685802 0.04617,0.011138 0.095214,0.017745 0.1342779,0.044759 0.024562,0.016986 0.043376,0.040928 0.060785,0.065193 0.017409,0.02426 0.033979,0.04943 0.055431,0.07021 0.021452,0.02078 0.048734,0.03713 0.078529,0.03915 0.014898,0.001 0.030152,-0.0017 0.043404,-0.0086 0.013252,-0.0069 0.024393,-0.01806 0.030407,-0.03172 0.00609,-0.01383 0.00677,-0.02946 0.0055,-0.04452 -0.00126,-0.01506 -0.00437,-0.029924 -0.0055,-0.044994 -0.00234,-0.031006 0.0038,-0.062403 0.016055,-0.090981 0.012253,-0.028578 0.030504,-0.05439 0.052118,-0.076744 0.043227,-0.044707 0.098985,-0.075154 0.155624,-0.1008319 0.1894519,-0.085892 0.3982694,-0.1260219 0.5818711,-0.2237965 0.066192,-0.03525 0.1291402,-0.078294 0.1790372,-0.1342779 0.093858,-0.105307 0.1351472,-0.2483468 0.2237965,-0.3580746 0.061977,-0.076714 0.1448941,-0.1341633 0.2323053,-0.1798309 0.087411,-0.045668 0.1799982,-0.080439 0.270765,-0.1190084 0.090767,-0.03857 0.1806425,-0.081476 0.2590122,-0.1413462 0.07837,-0.05987 0.1451886,-0.1381526 0.1778632,-0.2312043 0.026894,-0.076589 0.030323,-0.1613545 0.068269,-0.2331127 0.018973,-0.035879 0.04718,-0.068041 0.083935,-0.085257 0.018377,-0.00861 0.038682,-0.013321 0.058967,-0.01275 0.020285,5.701e-4 0.040517,0.00652 0.057385,0.017805 0.024542,0.016417 0.040904,0.043523 0.047331,0.072341 0.00643,0.028818 0.00348,0.059197 -0.00506,0.087462 -0.017076,0.05653 -0.055068,0.103856 -0.08703,0.1535116 -0.054222,0.084238 -0.092218,0.1776327 -0.1342779,0.2685561 -0.050001,0.108091 -0.1061476,0.2134611 -0.1500524,0.3241687 -0.043905,0.1107076 -0.075573,0.2281393 -0.073744,0.347221 4.585e-4,0.029859 0.00302,0.05981 0,0.089519 -0.00721,0.071019 -0.04562,0.1351293 -0.089776,0.1912178 -0.044156,0.056088 -0.095068,0.1070377 -0.1340208,0.1668566 -0.020311,0.031192 -0.037285,0.064784 -0.047713,0.1005151 -0.010427,0.035732 -0.014176,0.073698 -0.00823,0.1104415 0.00595,0.036744 0.021884,0.072197 0.047423,0.099277 0.025538,0.02708 0.060901,0.04532 0.098037,0.04784 0.029842,0.002 0.060174,-0.0058 0.089519,0 0.03196,0.0063 0.058883,0.02818 0.079507,0.0534 0.020624,0.02522 0.036191,0.05412 0.054771,0.08088 0.043872,0.06318 0.1044886,0.113894 0.1721159,0.150544 0.067627,0.03665 0.1421645,0.05957 0.2179987,0.07245 0.1516684,0.02576 0.3068716,0.01189 0.4603123,8.04e-4 0.1341631,-0.0097 0.2694214,-0.01717 0.4028339,0 0.022402,0.0029 0.044758,0.0065 0.067319,0.0075 0.022562,0.0011 0.045509,-4.5e-4 0.066958,-0.0075 0.027318,-0.009 0.051355,-0.02694 0.069178,-0.04952 0.017822,-0.02258 0.029561,-0.04966 0.035595,-0.07779 0.012068,-0.05625 0.00156,-0.115134 -0.0166,-0.169724 -0.018163,-0.05459 -0.043833,-0.106392 -0.063315,-0.1605251 -0.019482,-0.054133 -0.032803,-0.1120874 -0.024857,-0.1690681 0.00838,-0.06013 0.039743,-0.1145741 0.074937,-0.1640447 0.035194,-0.049471 0.075001,-0.095987 0.1040996,-0.1492711 0.038543,-0.070579 0.05684,-0.1503181 0.089519,-0.2237965 0.065379,-0.1470071 0.184581,-0.2619413 0.2987982,-0.3752547 0.1142173,-0.1133135 0.2294504,-0.2339626 0.2830727,-0.3856536 0.00931,-0.026344 0.016732,-0.053559 0.029901,-0.078203 0.00658,-0.012322 0.014613,-0.023955 0.024551,-0.033773 0.00994,-0.00982 0.021843,-0.017795 0.035067,-0.022302 0.014191,-0.00484 0.029679,-0.00557 0.044385,-0.00265 0.014706,0.00292 0.02862,0.00943 0.040642,0.018387 0.024043,0.017917 0.040036,0.045167 0.048358,0.073973 0.016646,0.057613 0.00435,0.1189741 8.928e-4,0.1788441 -0.00445,0.077004 0.00679,0.1566593 0.044759,0.2237965 0.02651,0.04687 0.065141,0.086264 0.089519,0.1342779 0.020697,0.040764 0.030338,0.0863 0.035361,0.1317407 0.00502,0.045441 0.00564,0.091253 0.0094,0.1368153 0.019525,0.2364522 0.1224662,0.4568575 0.2237847,0.6713929 0.1013184,0.2145356 0.2042668,0.4349356 0.2238085,0.6713866 0.00438,0.053 0.00451,0.106414 0.012501,0.158987 0.00799,0.05257 0.024547,0.105234 0.057897,0.146654 0.016675,0.02071 0.037442,0.03831 0.061296,0.05005 0.023855,0.01174 0.050841,0.01749 0.077316,0.01503 0.026475,-0.0025 0.052325,-0.01333 0.071646,-0.0316 0.019321,-0.01827 0.031752,-0.044 0.032658,-0.07057 5.095e-4,-0.01494 -0.00249,-0.03002 0,-0.04476 0.00181,-0.01072 0.0065,-0.02085 0.012792,-0.02971 0.0063,-0.0089 0.014172,-0.01653 0.022669,-0.02331 0.016995,-0.01357 0.036452,-0.02372 0.054058,-0.03649 0.030302,-0.02198 0.054665,-0.05149 0.073504,-0.08384 0.018839,-0.03235 0.032334,-0.06756 0.043267,-0.103363 0.021866,-0.07161 0.033861,-0.146363 0.062266,-0.215635 0.061391,-0.149712 0.1930229,-0.259732 0.2685556,-0.4028318 0.066183,-0.1253864 0.085998,-0.2695258 0.1342779,-0.4028339 0.035559,-0.098184 0.086381,-0.1899824 0.130989,-0.2844001 0.044608,-0.094418 0.083533,-0.1934589 0.092808,-0.297471 0.00343,-0.038452 0.00276,-0.077224 0.0073,-0.1155612 0.00453,-0.038338 0.014731,-0.077033 0.037463,-0.1082353 0.018756,-0.025746 0.044904,-0.044934 0.06989,-0.064692 0.02499,-0.019758 0.04983,-0.041253 0.06439,-0.069586 0.01758,-0.034222 0.01818,-0.074294 0.01943,-0.1127491 6.25e-4,-0.019228 0.0015,-0.038521 0.005,-0.057437 0.0035,-0.018915 0.0097,-0.037543 0.02031,-0.053611 0.01164,-0.017685 0.02807,-0.031602 0.04437,-0.045118 0.0163,-0.013516 0.03292,-0.027118 0.04515,-0.044401 0.01792,-0.025324 0.02508,-0.056636 0.0294,-0.087361 0.0043,-0.030724 0.0062,-0.062021 0.01536,-0.091677 0.0098,-0.031985 0.02766,-0.060819 0.04517,-0.089335 0.01751,-0.028516 0.03509,-0.057545 0.04435,-0.089702 0.0086,-0.029903 0.0097,-0.061364 0.01375,-0.092216 0.0041,-0.030852 0.01166,-0.062447 0.03101,-0.086821 0.01323,-0.016675 0.03111,-0.028893 0.04789,-0.041996 0.01678,-0.013102 0.03319,-0.027978 0.04163,-0.047523 0.009,-0.02076 0.0079,-0.044387 0.005,-0.066813 -0.0029,-0.022426 -0.0075,-0.044987 -0.005,-0.067464 0.003,-0.027304 0.01628,-0.052599 0.03306,-0.074347 0.01678,-0.021748 0.03707,-0.040479 0.05646,-0.059931 0.12382,-0.1241957 0.212449,-0.2796346 0.280079,-0.4414435 0.06763,-0.1618089 0.115457,-0.3310326 0.167514,-0.4985022 0.04779,-0.1537517 0.09975,-0.3074573 0.179037,-0.447593 0.126196,-0.223058 0.316469,-0.4029982 0.457316,-0.6171074 0.07042,-0.1070545 0.128714,-0.2237857 0.155817,-0.3490276 0.0271,-0.1252419 0.02142,-0.2598381 -0.03127,-0.3766439 -0.03759,-0.083329 -0.09753,-0.1549369 -0.164632,-0.217024 -0.0671,-0.062087 -0.141641,-0.115467 -0.214664,-0.1704633 -0.07302,-0.054996 -0.145131,-0.1121559 -0.205899,-0.18045 -0.06077,-0.068294 -0.110135,-0.1487167 -0.130954,-0.2377303 -0.01737,-0.074274 -0.01486,-0.1536236 -0.04476,-0.2237965 -0.02115,-0.049629 -0.05709,-0.091163 -0.08952,-0.1342779 C 10.796583,3.3254312 10.719716,3.1288886 10.607958,2.9541149 10.362644,2.5704789 9.9594153,2.3101608 9.5337343,2.1484472 9.2690559,2.0478975 8.992492,1.9811048 8.7280667,1.8798913 8.595627,1.8291977 8.465012,1.7695271 8.3252327,1.7456133 c -0.1474358,-0.025224 -0.298319,-0.00953 -0.4475929,0 -0.2702882,0.017257 -0.5453946,0.01461 -0.8056679,0.089519 C 6.7430387,1.929802 6.4579423,2.1444989 6.2332372,2.4026985 6.0085322,2.6608981 5.8393174,2.9621919 5.6844331,3.26743 5.6264952,3.3816111 5.5695924,3.498949 5.5501553,3.6255047 c -0.011612,0.075604 -0.010238,0.1555395 -0.044759,0.2237965 -0.019199,0.03796 -0.04852,0.069931 -0.080305,0.098203 -0.031784,0.028272 -0.066303,0.053305 -0.098733,0.080834 C 5.194845,4.1399797 5.1013996,4.2892412 5.0169312,4.4396562 4.9324627,4.5900713 4.8539657,4.7454458 4.7444876,4.8787655 4.6437128,5.0014865 4.5179622,5.1038605 4.4311723,5.2368399 4.3559772,5.3520537 4.3134696,5.4850221 4.2725207,5.6163679 4.2315719,5.7477137 4.1905731,5.8809541 4.1178572,5.9977485 c -0.02987,0.047976 -0.065434,0.093292 -0.1107811,0.1270196 -0.045347,0.033727 -0.1013511,0.055214 -0.1577749,0.052018 -0.015026,-8.514e-4 -0.029909,-0.00341 -0.044921,-0.00448 -0.015012,-0.00107 -0.030423,-5.763e-4 -0.044598,0.00448 -0.015214,0.00543 -0.028236,0.015874 -0.038941,0.027971 -0.010705,0.012097 -0.019303,0.025877 -0.027884,0.039563 -0.00858,0.013686 -0.017257,0.027426 -0.028089,0.039409 -0.010833,0.011983 -0.024037,0.022233 -0.039363,0.027336 -0.014402,0.0048 -0.030357,0.0048 -0.044759,0 -0.017154,-0.00951 -0.039009,-0.00998 -0.056554,-0.00121 -0.017545,0.00877 -0.030284,0.026537 -0.032965,0.045969 -0.00204,0.014801 0.00142,0.029886 0,0.044759 -0.00122,0.012808 -0.00611,0.025165 -0.01345,0.035732 -0.00734,0.010567 -0.017089,0.01937 -0.028014,0.026167 -0.02185,0.013594 -0.047897,0.019033 -0.073589,0.020498 -0.025691,0.00146 -0.051431,-7.996e-4 -0.077157,-0.0014 -0.025726,-6.005e-4 -0.051886,5.329e-4 -0.076347,0.00852 -0.035283,0.011524 -0.065557,0.037622 -0.082156,0.07082 -0.016599,0.033199 -0.019312,0.073077 -0.00736,0.1082174 z"
       id="path1"
       inkscape:path-effect="#path-effect1"
       inkscape:original-d="m 3.1331521,6.6691382 c -0.044759,0.059679 -0.098911,0.1133549 -0.1342779,0.1790372 -6.35e-4,0.00119 -0.2398482,0.5261536 -0.268556,0.6266304 -0.030987,0.1084559 0.016015,0.2459662 0,0.3580744 -0.056463,0.3952436 -0.044759,0.059134 -0.044759,0.402834 0,0.0205 0.026788,0.3346352 0,0.3580746 C 1.8137118,9.356655 2.6701072,8.515859 2.1484472,8.9071039 2.0156445,9.006706 2.4124601,9.4519982 2.4617624,9.488975 2.660414,9.6379637 2.8713268,9.7712166 3.0883928,9.8918089 c 0.041243,0.022913 0.095021,0.01859 0.1342779,0.044759 0.013552,0.00904 0.1023226,0.2451001 0.2685561,0.1342781 0.024828,-0.01655 -0.015814,-0.06421 0,-0.089518 C 3.5529858,9.8825128 3.6248363,9.7865611 3.7150233,9.7127715 3.9359469,9.5320158 4.0444713,9.6037129 4.2968944,9.488975 4.3648066,9.4581058 4.415228,9.3980568 4.4759316,9.3546971 4.8094354,9.11648 4.513613,9.219961 4.6997281,8.9966225 4.8985352,8.7580543 5.3875617,8.514317 5.6396738,8.3252327 c 0.037411,-0.028059 0.2271313,-0.313315 0.2685558,-0.313315 0.00164,0 0.00341,0.168802 -0.044759,0.313315 -0.031649,0.094949 -0.09835,0.1751423 -0.1342779,0.2685561 -0.055759,0.1449739 -0.1911119,0.5079664 -0.2237964,0.6713897 -0.00585,0.02926 0.015351,0.063931 0,0.089519 -0.2120072,0.353345 -0.08422,-0.1304425 -0.2237968,0.3580744 -0.027357,0.095749 -0.00402,0.2957171 0.089519,0.3580741 0.024828,0.01655 0.063931,-0.01535 0.089519,0 0.054278,0.03257 0.0806,0.10073 0.1342779,0.134278 0.2006158,0.125385 0.6371695,0.200101 0.8504269,0.223797 0.1334566,0.01483 0.268556,0 0.4028339,0 0.044759,0 0.097036,0.02483 0.1342779,0 0.050542,-0.0337 -0.046333,-0.4876314 0,-0.6266302 C 7.0204914,9.6881758 7.1076965,9.5965631 7.1614905,9.488975 7.1974222,9.4171118 7.2150776,9.3370415 7.2510093,9.2651785 7.3958304,8.975536 7.6286229,8.7493789 7.8328802,8.5042702 7.8673184,8.4629444 7.9761931,8.369992 7.9223991,8.369992 c -0.100085,0 0.097107,0.1756297 0.1342779,0.2685561 0.028254,0.070635 0.018047,0.152564 0.044759,0.2237965 0.018889,0.050369 0.072507,0.083244 0.089519,0.1342779 0.028699,0.086096 0.028034,0.179357 0.044759,0.268556 0.092084,0.4911159 0.1883343,0.9106815 0.4475932,1.3427795 0.070771,0.117951 0.2160503,0.365821 0.3133151,0.268556 0.010549,-0.01055 -0.00828,-0.03235 0,-0.04476 0.023408,-0.03511 0.066111,-0.05441 0.089519,-0.08952 0.09492,-0.14238 0.1015013,-0.247762 0.1790374,-0.402834 C 9.657494,9.5547708 9.1589044,10.611262 9.5337343,9.9365682 9.6844373,9.6653029 9.5744132,9.7833316 9.6680122,9.5337343 9.7411287,9.338757 9.8260936,9.1490092 9.8918089,8.9518632 c 0.024059,-0.072172 0.01479,-0.1538714 0.044759,-0.2237965 0.024934,-0.058181 0.1142611,-0.074227 0.1342781,-0.1342779 0.0222,-0.066607 0.01385,-0.16198 0.04476,-0.2237968 0.01887,-0.037744 0.07065,-0.051774 0.08952,-0.089519 0.02751,-0.055021 0.02316,-0.1214381 0.04476,-0.1790371 0.02343,-0.062475 0.06609,-0.1165625 0.08952,-0.1790372 0.0216,-0.057599 0.01725,-0.1240161 0.04476,-0.1790375 0.01887,-0.037744 0.07385,-0.050337 0.08952,-0.089519 0.01662,-0.041558 -0.01086,-0.090855 0,-0.1342779 0.01305,-0.052188 0.06954,-0.084331 0.08952,-0.1342779 0.137555,-0.3438876 0.24975,-0.6233977 0.447593,-0.9399457 0.237326,-0.3797224 -0.08093,0.048715 0.179037,-0.447593 C 11.298001,5.7912386 11.913519,5.0331528 11.7717,4.6549688 11.639745,4.3030875 11.239141,4.1552844 11.055551,3.8493012 11.01641,3.7840663 11.037504,3.6967369 11.010792,3.6255047 10.991904,3.5751357 10.94895,3.5373548 10.921273,3.4912268 10.814632,3.3134924 10.729314,3.122146 10.607958,2.9541149 10.441632,2.7238169 9.7995053,2.2724736 9.5337343,2.1484472 9.2772094,2.0287356 8.9966225,1.9694099 8.7280667,1.8798913 8.5937888,1.835132 8.4650423,1.7676885 8.3252327,1.7456133 c -0.1473718,-0.023269 -0.2983954,0 -0.4475929,0 -0.2797411,0 -0.5572771,-0.055376 -0.8056679,0.089519 C 6.5693231,2.1283437 5.9468736,2.7425491 5.6844331,3.26743 5.6274247,3.3814469 5.5876438,3.503667 5.5501553,3.6255047 5.5277821,3.6982167 5.5423421,3.7827987 5.505396,3.8493012 5.464408,3.9230792 5.3812847,3.9642579 5.3263585,4.0283383 5.1041765,4.2875512 4.9315139,4.598226 4.7444876,4.8787655 4.6602771,5.005081 4.5105208,5.1098822 4.4311723,5.2368399 4.2894048,5.4636677 4.2223332,5.7539704 4.1178572,5.9977485 4.1092,6.0179468 3.8750496,6.1703486 3.8493012,6.1767857 c -0.028949,0.00724 -0.06121,-0.00944 -0.089519,0 -0.060051,0.020018 -0.08161,0.099166 -0.1342779,0.1342779 -0.012414,0.00828 -0.02984,0 -0.044759,0 -0.02984,0.01492 -0.065929,0.021169 -0.089519,0.044759 -0.010549,0.010549 0.013346,0.038087 0,0.044759 -0.035471,0.017735 -0.2411262,0.052946 -0.2685561,0.089519 -0.040034,0.053379 -0.059679,0.1193583 -0.089518,0.1790376 z" /><path
       style="fill:#ab9ff2;fill-opacity:1;stroke:#ab9ff2;stroke-width:0.687917;stroke-opacity:1"
       d="m 7.9223991,5.2368399 c -0.036743,-0.026136 -0.080418,-0.042432 -0.1253016,-0.046751 -0.044883,-0.00432 -0.090865,0.00335 -0.1319175,0.021999 -0.041053,0.01865 -0.077077,0.048237 -0.10335,0.084882 -0.026273,0.036645 -0.042732,0.080259 -0.047219,0.1251263 -0.00449,0.044867 0.00301,0.090876 0.021506,0.1319986 0.018497,0.041122 0.047948,0.077256 0.084495,0.1036663 0.036547,0.02641 0.080099,0.043031 0.1249491,0.047685 0.04485,0.00465 0.090887,-0.00267 0.132078,-0.021013 0.00743,-0.00331 0.014876,-0.00702 0.022953,-0.00801 0.00404,-4.938e-4 0.0082,-2.774e-4 0.012063,0.001 0.00386,0.00128 0.00741,0.00367 0.00974,0.007 0.00219,0.00312 0.00325,0.00695 0.0035,0.010754 2.521e-4,0.00381 -2.625e-4,0.00763 -9.868e-4,0.011378 -0.00145,0.0075 -0.00375,0.015092 -0.00252,0.022626 7.222e-4,0.0044 0.00266,0.00858 0.00543,0.012083 0.00277,0.0035 0.00636,0.00632 0.010341,0.00834 0.00796,0.00403 0.017326,0.00477 0.026123,0.00325 0.017594,-0.00304 0.032419,-0.01432 0.047624,-0.023678 0.068605,-0.042219 0.1543329,-0.048728 0.2237965,-0.089519 0.039568,-0.023236 0.07255,-0.057133 0.096273,-0.096411 0.023723,-0.039278 0.038297,-0.083825 0.044211,-0.1293283 0.011827,-0.091007 -0.010903,-0.1840469 -0.050965,-0.2666131 -0.00887,-0.018285 -0.018604,-0.0362 -0.025922,-0.05516 -0.00732,-0.01896 -0.012198,-0.039225 -0.010854,-0.059504 0.00134,-0.020279 0.00944,-0.040629 0.024737,-0.054014 0.00765,-0.00669 0.01698,-0.011524 0.02695,-0.013487 0.00997,-0.00196 0.02056,-9.968e-4 0.029847,0.00313 0.00822,0.00365 0.015448,0.0097 0.024221,0.01168 0.00439,9.879e-4 0.00915,8.532e-4 0.013179,-0.00114 0.00202,-9.971e-4 0.00382,-0.00245 0.00513,-0.00427 0.00132,-0.00182 0.00213,-0.00402 0.00223,-0.00627 9.65e-5,-0.00231 -5.756e-4,-0.00463 -0.0018,-0.00659 -0.00123,-0.00196 -0.003,-0.00356 -0.00502,-0.00468 -0.00404,-0.00224 -0.00897,-0.00252 -0.013484,-0.00154 -0.00452,9.8e-4 -0.0087,0.00313 -0.012648,0.00553 -0.00395,0.0024 -0.00773,0.00509 -0.011806,0.00728 -0.013418,0.00722 -0.029264,0.0087 -0.044453,0.0075 -0.015189,-0.0012 -0.030051,-0.00491 -0.045066,-0.0075 -0.082312,-0.014183 -0.1701117,0.00697 -0.2369316,0.057086 -0.06682,0.050115 -0.1117119,0.1284798 -0.1211429,0.2114706 z"
       id="path2"
       inkscape:path-effect="#path-effect2"
       inkscape:original-d="m 7.9223991,5.2368399 c -0.028808,0.1440413 -0.074747,0.2976568 -0.044759,0.4475932 0.00293,0.014632 0.034209,-0.010549 0.044759,0 0.010549,0.010549 -0.010549,0.03421 0,0.044759 0.021101,0.021101 0.062829,-0.013345 0.089519,0 0.095798,0.047899 0.1598895,0.038296 0.2237965,-0.089519 0.085228,-0.1704551 0.054962,-0.3195669 0.089519,-0.4923525 0.012065,-0.060321 0.00127,-0.1355389 0.044759,-0.1790372 0.010549,-0.010549 0.044759,0.01492 0.044759,0 0,-0.01492 -0.029839,0 -0.044759,0 -0.029839,0 -0.063931,-0.015354 -0.089519,0 -0.1279358,0.076761 -0.2387163,0.1790372 -0.3580745,0.2685565 z"
       transform="translate(-0.35807453,-0.2685559)" /><path
       style="fill:#ab9ff2;fill-opacity:1;stroke:#ab9ff2;stroke-width:0.687917;stroke-opacity:1"
       d="m 9.3994564,5.505396 c 0.021665,0.077532 0.051737,0.1527116 0.089519,0.2237964 0.035503,0.066796 0.079765,0.1319244 0.1438815,0.1720636 0.032058,0.02007 0.068749,0.033346 0.1065083,0.035537 0.037759,0.00219 0.076541,-0.0071 0.1076849,-0.028563 0.028305,-0.019505 0.049423,-0.048266 0.063499,-0.079626 0.014077,-0.03136 0.021466,-0.06534 0.02602,-0.099412 0.023766,-0.1778285 -0.02754,-0.3598285 0,-0.5371118 0.00232,-0.014942 0.0052,-0.029838 0.00606,-0.044935 8.567e-4,-0.015097 -3.902e-4,-0.030565 -0.00606,-0.044584 -0.0056,-0.01384 -0.015408,-0.025835 -0.027437,-0.034677 -0.012029,-0.00884 -0.026216,-0.014581 -0.040888,-0.017338 -0.029344,-0.00551 -0.059893,8.35e-4 -0.08743,0.012377 -0.055073,0.023084 -0.1006501,0.066308 -0.1575602,0.084397 -0.016337,0.00519 -0.033349,0.00821 -0.049395,0.014247 -0.00802,0.00302 -0.015802,0.0068 -0.022757,0.01181 -0.00696,0.00501 -0.013082,0.011279 -0.017367,0.018702 -0.00763,0.013213 -0.00898,0.029206 -0.00758,0.044398 0.0014,0.015192 0.00533,0.030031 0.00758,0.045121 0.00696,0.046619 -0.00277,0.095553 -0.027018,0.1359717 -0.024251,0.040418 -0.062852,0.072025 -0.1072608,0.087826 z"
       id="path3"
       inkscape:path-effect="#path-effect3"
       inkscape:original-d="m 9.3994564,5.505396 c 0.029839,0.074599 0.057869,0.1499473 0.089519,0.2237964 0.028873,0.067369 0.2658285,0.2712834 0.3580747,0.1790372 0.047181,-0.04718 0.071188,-0.114881 0.089519,-0.1790372 0.043361,-0.151762 0,-0.3778207 0,-0.5371118 0,-0.029839 0.021101,-0.068419 0,-0.089519 -0.065107,-0.065106 -0.2384657,-0.00514 -0.3133153,0.044759 -0.027759,0.018505 -0.071013,0.016999 -0.089519,0.044759 -0.016552,0.024828 0.011755,0.062092 0,0.089519 -0.03427,0.079962 -0.089519,0.1491978 -0.1342784,0.2237974 z"
       transform="translate(0.22379658,-0.35807453)" /></g></svg>
