<?xml version="1.0" encoding="UTF-8" standalone="no"?>
<svg
   width="13px"
   height="14px"
   viewBox="0 0 13 14"
   version="1.1"
   id="svg1"
   sodipodi:docname="ico_close.svg"
   inkscape:version="1.3.2 (091e20e, 2023-11-25, custom)"
   xmlns:inkscape="http://www.inkscape.org/namespaces/inkscape"
   xmlns:sodipodi="http://sodipodi.sourceforge.net/DTD/sodipodi-0.dtd"
   xmlns="http://www.w3.org/2000/svg"
   xmlns:svg="http://www.w3.org/2000/svg"
   xmlns:rdf="http://www.w3.org/1999/02/22-rdf-syntax-ns#"
   xmlns:cc="http://creativecommons.org/ns#"
   xmlns:dc="http://purl.org/dc/elements/1.1/">
  <sodipodi:namedview
     id="namedview1"
     pagecolor="#ffffff"
     bordercolor="#000000"
     borderopacity="0.25"
     inkscape:showpageshadow="2"
     inkscape:pageopacity="0.0"
     inkscape:pagecheckerboard="0"
     inkscape:deskcolor="#d1d1d1"
     showgrid="false"
     inkscape:zoom="83.785714"
     inkscape:cx="6.5046888"
     inkscape:cy="7"
     inkscape:window-width="2560"
     inkscape:window-height="1369"
     inkscape:window-x="-8"
     inkscape:window-y="-8"
     inkscape:window-maximized="1"
     inkscape:current-layer="svg1" />
  <!-- Generator: Sketch 49 (51002) - http://www.bohemiancoding.com/sketch -->
  <title
     id="title1">close - material</title>
  <desc
     id="desc1">Created with Sketch.</desc>
  <defs
     id="defs1">
    <inkscape:path-effect
       effect="spiro"
       id="path-effect1"
       is_visible="true"
       lpeversion="1" />
  </defs>
  <path
     style="opacity:1;fill:#000000;fill-opacity:1;stroke:#000000;stroke-width:0.4;stroke-dasharray:none;stroke-opacity:1"
     d="M 5.2753623,7.2446718 C 5.2578652,7.2304544 5.2418389,7.214428 5.2276215,7.1969309 5.1767303,7.1342999 5.149979,7.0543217 5.0963342,6.9940324 5.0851102,6.9814182 5.0728201,6.9698032 5.0605286,6.9582268 5.0214533,6.921425 4.9817299,6.8842868 4.9531117,6.8388747 4.9407401,6.8192432 4.9305666,6.798241 4.9173061,6.7791986 4.8883069,6.737555 4.8461062,6.7073271 4.8098892,6.6717818 4.7615107,6.6243005 4.7237378,6.5671977 4.6786019,6.516624 4.5865593,6.4134924 4.4661002,6.3397894 4.3682864,6.2421142 4.3404096,6.214277 4.31439,6.1845082 4.28474,6.1585678 4.2547849,6.1323604 4.2214579,6.1103514 4.1892583,6.0869565 4.0819707,6.009006 3.9866873,5.9151699 3.9028133,5.8124467 3.8456652,5.7424555 3.7930388,5.6675881 3.7237852,5.6095482 3.6999592,5.5895802 3.6742876,5.5717212 3.6521739,5.5498721 3.6033948,5.5016767 3.5747331,5.4370529 3.5328218,5.3827792 3.5035324,5.3448504 3.4679577,5.3122274 3.4373402,5.2753623 3.4018599,5.2326421 3.3731411,5.1841931 3.3537937,5.1321398 3.3388271,5.0918728 3.3291905,5.0489827 3.3060529,5.0127877 3.2892997,4.98658 3.2662229,4.9651274 3.2463768,4.9411765 3.2075737,4.8943476 3.1815473,4.8385456 3.1508951,4.7860188 3.003272,4.5330467 2.7520177,4.3607441 2.5063939,4.2011935 2.4073657,4.1368675 2.3079026,4.0732111 2.2080136,4.0102302 2.1111729,3.9790493 2.0185631,3.9347576 1.9335038,3.8789429 1.8540635,3.8268153 1.7806879,3.764421 1.6947997,3.7237852 1.6674094,3.7108262 1.6389799,3.7002021 1.6112532,3.6879795 1.4686356,3.6251102 1.3483366,3.5218721 1.2173913,3.4373402 1.1118297,3.3691947 0.99560127,3.3101754 0.91901108,3.2105712 0.86060309,3.1346126 0.83035035,3.0412725 0.802334,2.9496413 0.77431766,2.85801 0.74666605,2.7642841 0.69224211,2.685422 0.67487238,2.6602527 0.65497342,2.6369186 0.63731376,2.6119518 0.6196541,2.586985 0.60407559,2.5599576 0.59676044,2.5302643 0.59282995,2.5143099 0.59128832,2.4976304 0.58482523,2.4825234 0.57475023,2.4589739 0.55405183,2.4420358 0.5370844,2.4228474 0.49901682,2.379797 0.47863335,2.3235704 0.44160273,2.2796249 0.39978866,2.2300027 0.33913682,2.1988319 0.29838022,2.1483376 c -0.00895,-0.011088 -0.0168522,-0.023011 -0.0261655,-0.033796 -0.009313,-0.010785 -0.020292,-0.020559 -0.0335105,-0.02588 -0.004173,-0.00168 -0.008521,-0.0029 -0.0126838,-0.0046 -0.004163,-0.00171 -0.008208,-0.00396 -0.0111866,-0.00733 -0.002959,-0.00335 -0.004687,-0.00759 -0.006256,-0.011771 -0.001569,-0.00418 -0.003067,-0.00847 -0.005679,-0.012099 -0.002841,-0.00395 -0.006901,-0.00692 -0.0113479,-0.00889 -0.004447,-0.00196 -0.009278,-0.00295 -0.0141218,-0.00337 -0.009687,-8.4e-4 -0.0194339,5.411e-4 -0.0291522,2.296e-4 -0.004859,-1.558e-4 -0.009735,-7.423e-4 -0.0143695,-0.00221 -0.004634,-0.00147 -0.009033,-0.00385 -0.0124777,-0.00728 -0.003445,-0.00343 -0.00589,-0.00795 -0.006423,-0.012784 -5.3256e-4,-0.00483 9.6282e-4,-0.00994 0.004345,-0.013434 0.002199,-0.00227 0.005102,-0.0038 0.008162,-0.00459 0.00306,-7.939e-4 0.006275,-8.771e-4 0.009416,-5.164e-4 0.006281,7.212e-4 0.0122114,0.00316 0.0182274,0.00511 0.0344152,0.011126 0.0717451,0.00598 0.10741688,0 C 0.39214278,1.9834086 0.52020577,1.9521744 0.64450128,1.9096334 0.85844721,1.836409 1.0626681,1.7282863 1.2293265,1.5754476 c 0.027151,-0.0249 0.053619,-0.051398 0.071611,-0.083546 0.027113,-0.048446 0.033157,-0.1063839 0.059676,-0.1551577 0.00954,-0.017538 0.02164,-0.033676 0.035806,-0.047741 0.017968,-0.024712 0.030303,-0.053494 0.035806,-0.083547 0.00578,-0.031581 0.00412,-0.064343 0.011935,-0.095482 0.00509,-0.020257 0.014058,-0.039284 0.021757,-0.0587 0.0077,-0.019415 0.014233,-0.039767 0.014049,-0.0606525 -3.52e-5,-0.00398 -3.148e-4,-0.007967 0,-0.0119352 8.884e-4,-0.0111985 0.00667,-0.0218124 0.015208,-0.0291099 0.00854,-0.007298 0.019688,-0.0113199 0.030912,-0.0117813 0.011224,-4.614e-4 0.022483,0.002546 0.032307,0.007994 0.00982,0.005448 0.018237,0.013279 0.024906,0.0223188 0.013338,0.0180796 0.019556,0.0404912 0.022549,0.0627583 0.00299,0.022267 0.00303,0.044831 0.0054,0.067173 0.006,0.056436 0.027008,0.1107085 0.056863,0.1589757 0.029855,0.048267 0.068399,0.090746 0.1106504,0.1286388 0.084503,0.075785 0.1834554,0.1333946 0.2740894,0.2017291 0.1808833,0.136379 0.3292593,0.3158907 0.5251492,0.4296675 0.063961,0.03715 0.1322905,0.066824 0.1937473,0.1079843 0.061457,0.04116 0.1171394,0.096324 0.1404386,0.1665255 0.015124,0.04557 0.015724,0.094605 0.01361,0.1425735 -0.00211,0.047968 -0.00679,0.09613 -0.00167,0.1438715 0.010153,0.094823 0.057937,0.18105 0.1074169,0.2625746 0.1363706,0.2246888 0.2930604,0.4363452 0.4535379,0.6445013 0.112073,0.1453704 0.2265372,0.2896869 0.3580563,0.4177323 0.050434,0.049102 0.103248,0.095683 0.1551577,0.1432225 0.066421,0.060828 0.1314743,0.1233405 0.1909633,0.1909633 0.031649,0.035977 0.06173,0.073405 0.095482,0.1074169 0.082671,0.083306 0.1850062,0.1438678 0.286445,0.2028986 0.157511,0.091661 0.3160833,0.1820698 0.4654731,0.286445 0.054335,0.037963 0.1077268,0.077935 0.167093,0.1074169 0.083158,0.041297 0.1751462,0.060629 0.2636588,0.088668 0.088513,0.028039 0.1774384,0.067398 0.2376199,0.1381007 0.012898,0.015153 0.024273,0.031525 0.035806,0.047741 0.080357,0.1129803 0.1693879,0.2195959 0.2625746,0.3222506 0.051088,0.056278 0.1034415,0.1113916 0.1551577,0.1670929 0.074816,0.080581 0.1490671,0.1630821 0.2387042,0.226769 0.00464,0.0033 0.00934,0.00656 0.013555,0.010391 0.00421,0.00383 0.00796,0.00829 0.010315,0.013479 0.00229,0.00506 0.0032,0.01069 0.00303,0.016243 -1.624e-4,0.00555 -0.00136,0.011041 -0.00312,0.016313 -0.00351,0.010544 -0.00918,0.020215 -0.013665,0.030382 -0.00448,0.010167 -0.00783,0.021297 -0.00625,0.032296 7.899e-4,0.0055 0.00284,0.010868 0.00628,0.015235 0.00343,0.00437 0.00829,0.00768 0.013717,0.00888 0.00391,8.636e-4 0.00798,6.298e-4 0.011935,0 0.017453,-0.00278 0.033125,-0.013245 0.044326,-0.026915 0.011201,-0.01367 0.018226,-0.030367 0.022629,-0.047483 0.0088,-0.034232 0.0076,-0.070447 0.016591,-0.1046301 0.010241,-0.038936 0.033261,-0.073387 0.059629,-0.1038112 C 6.6026219,5.7617576 6.632587,5.734657 6.6598465,5.705029 6.7040548,5.6569796 6.7408004,5.6026802 6.7791986,5.5498721 6.8854442,5.403755 7.0055039,5.2676873 7.1372549,5.144075 7.3101444,5.1004584 7.459929,4.9733685 7.5311168,4.8098892 7.5653856,4.7311925 7.5824691,4.6448064 7.6265985,4.571185 7.6442027,4.5418158 7.6657841,4.5150721 7.6862745,4.4876385 7.7424914,4.4123722 7.7910337,4.3311538 7.8533674,4.2608696 7.9369451,4.1666317 8.0428806,4.0948678 8.1525901,4.0329822 8.2622997,3.9710966 8.3768684,3.918087 8.4859335,3.8550725 8.6035237,3.7871324 8.7142606,3.7078249 8.8320546,3.6402387 8.9049269,3.5984271 8.9808384,3.5608743 9.0468883,3.5089514 9.1001817,3.4670566 9.146358,3.416319 9.202046,3.3776641 9.2976143,3.311327 9.4142499,3.284936 9.5256065,3.2512666 c 0.055678,-0.016835 0.1109772,-0.035909 0.162397,-0.063103 0.05142,-0.027193 0.099077,-0.062876 0.1346734,-0.1088798 0.034132,-0.044112 0.056237,-0.096365 0.073263,-0.1494779 0.017026,-0.053113 0.029332,-0.1076394 0.046089,-0.1608375 0.029533,-0.093757 0.073068,-0.1833723 0.131287,-0.2625746 0.03682,-0.050085 0.07924,-0.095735 0.119352,-0.1432225 0.09555,-0.1131134 0.177912,-0.2365835 0.262575,-0.3580563 0.13758,-0.1973977 0.281923,-0.3904857 0.405797,-0.5967605 0.06151,-0.1024283 0.118168,-0.2086417 0.155158,-0.3222506 0.0042,-0.012826 0.0081,-0.025767 0.01357,-0.038101 0.0055,-0.012334 0.01253,-0.024132 0.02223,-0.03351 0.0081,-0.00786 0.01815,-0.014122 0.02387,-0.0238705 0.0032,-0.005442 0.0048,-0.0116382 0.0063,-0.0177724 0.0015,-0.006134 0.0029,-0.0123601 0.0056,-0.0180332 0.0043,-0.008835 0.01182,-0.0158884 0.02049,-0.020523 0.0087,-0.004635 0.01843,-0.006957 0.02823,-0.007758 0.01959,-0.001601 0.03912,0.002706 0.0587,0.00441 0.04311,0.003752 0.08639,-0.005167 0.127738,-0.0179342 0.04134,-0.0127671 0.08143,-0.0294013 0.122901,-0.0417418 0.06188,-0.0184132 0.127129,-0.0271202 0.191355,-0.0205225 0.06423,0.006598 0.127418,0.0289564 0.178637,0.0682633 0.02466,0.0189236 0.04636,0.0415433 0.07161,0.059676 0.01619,0.0116254 0.0339,0.0214704 0.04774,0.0358057 0.01225,0.012688 0.021,0.0285 0.02668,0.045201 0.0057,0.016701 0.0084,0.034301 0.0094,0.051907 0.0021,0.035211 -0.002,0.070558 -3.06e-4,0.105791 0.0027,0.055041 0.01989,0.108642 0.04407,0.1581649 0.02417,0.049523 0.05525,0.095326 0.08722,0.1402153 0.113085,0.1588055 0.239032,0.3089796 0.381926,0.4416028 0.03923,0.036412 0.0797,0.071466 0.119353,0.1074168 0.02503,0.022691 0.0498,0.04581 0.07161,0.071611 0.0073,0.00863 0.01441,0.017696 0.02387,0.02387 0.01039,0.00678 0.02291,0.00958 0.03527,0.01061 0.01236,0.00103 0.0248,4.3e-4 0.03719,0.00105 0.01239,6.194e-4 0.02498,0.00255 0.03599,0.00825 0.0055,0.00285 0.01056,0.00664 0.01459,0.011365 0.004,0.00472 0.007,0.010389 0.0082,0.016464 0.0018,0.00896 -1.32e-4,0.018463 -0.0045,0.026506 -0.0044,0.00804 -0.01097,0.014706 -0.01837,0.020074 -0.01481,0.010735 -0.03261,0.016422 -0.04875,0.025031 -0.02388,0.012738 -0.04391,0.031787 -0.06101,0.052764 -0.0171,0.020977 -0.03152,0.043982 -0.0464,0.066588 -0.108864,0.1653117 -0.244496,0.3110868 -0.381926,0.4535379 -0.238375,0.247084 -0.48436,0.4869183 -0.739983,0.7161126 -0.166698,0.1494632 -0.338026,0.2948003 -0.525149,0.4177323 -0.04623,0.030368 -0.09347,0.059392 -0.143223,0.083546 -0.113331,0.055017 -0.237232,0.083682 -0.358056,0.1193521 -0.05712,0.016864 -0.113991,0.035461 -0.167442,0.061736 -0.05345,0.026276 -0.10363,0.060553 -0.142874,0.1053564 -0.059,0.067359 -0.09029,0.1545421 -0.143222,0.226769 -0.01506,0.02055 -0.03181,0.039796 -0.04774,0.059676 -0.021415,0.026718 -0.041378,0.054604 -0.059676,0.083546 -0.04479,0.070845 -0.079436,0.1477613 -0.1074169,0.226769 -0.0168,0.047438 -0.031238,0.095681 -0.047741,0.1432225 -0.1006097,0.2898306 -0.2832068,0.5557748 -0.5370682,0.7280492 -0.128278,0.087052 -0.2717585,0.1488789 -0.4057971,0.226769 -0.032457,0.018861 -0.06437,0.03867 -0.095482,0.059676 -0.074951,0.050604 -0.1452513,0.1081408 -0.2227394,0.1547664 -0.077488,0.046626 -0.164246,0.082512 -0.254669,0.083938 -0.034416,5.426e-4 -0.068993,-0.0039 -0.1031718,1.668e-4 -0.01709,0.00204 -0.034054,0.00625 -0.049439,0.013961 -0.015385,0.00771 -0.029162,0.019063 -0.038353,0.033614 -0.00386,0.00611 -0.00687,0.012701 -0.01043,0.018988 -0.00356,0.00629 -0.00775,0.012369 -0.01344,0.016818 -0.00703,0.00549 -0.015809,0.00811 -0.02387,0.011935 -0.015392,0.0073 -0.028244,0.019077 -0.039484,0.031877 -0.01124,0.0128 -0.021095,0.026755 -0.032127,0.039734 -0.037596,0.044234 -0.088441,0.076268 -0.1432225,0.095482 -0.072493,0.025426 -0.151225,0.029053 -0.2236791,0.054591 -0.036227,0.012769 -0.071014,0.031303 -0.098217,0.058422 -0.027203,0.027119 -0.046336,0.06345 -0.048095,0.101821 -4.544e-4,0.00991 1.98e-4,0.020077 -0.00285,0.029518 -0.00152,0.00472 -0.004,0.0092 -0.00762,0.012597 -0.00362,0.00339 -0.00844,0.00563 -0.013399,0.00563 -0.00201,0 -0.00399,-3.552e-4 -0.00599,-5.323e-4 -0.002,-1.77e-4 -0.00406,-1.671e-4 -0.00594,5.323e-4 -0.00156,5.813e-4 -0.00294,0.00162 -0.004,0.00291 -0.00107,0.00128 -0.00183,0.0028 -0.00234,0.00439 -0.00102,0.00318 -0.00101,0.00658 -8.699e-4,0.00991 1.404e-4,0.00333 4.043e-4,0.00669 -1.256e-4,0.00998 -2.649e-4,0.00165 -7.307e-4,0.00327 -0.00148,0.00476 -7.521e-4,0.00149 -0.0018,0.00284 -0.00312,0.00386 -0.00162,0.00125 -0.00362,0.00196 -0.00565,0.00224 -0.00203,2.809e-4 -0.0041,1.495e-4 -0.00612,-1.582e-4 -0.00405,-6.154e-4 -0.008,-0.00193 -0.012099,-0.00208 -0.0045,-1.64e-4 -0.00899,0.00111 -0.01291,0.00332 -0.00392,0.0022 -0.0073,0.0053 -0.010127,0.0088 -0.00565,0.007 -0.00909,0.015478 -0.012768,0.023691 -0.014891,0.033248 -0.035129,0.064344 -0.061322,0.089663 -0.026193,0.025319 -0.058494,0.04472 -0.093835,0.05356 -0.021241,0.00531 -0.043476,0.00685 -0.063983,0.014521 -0.010253,0.00384 -0.020042,0.00925 -0.027923,0.016849 -0.00788,0.0076 -0.013772,0.017497 -0.015511,0.028305 -7.643e-4,0.00475 -7.404e-4,0.00966 -0.00221,0.014244 -7.365e-4,0.00229 -0.00186,0.00449 -0.0035,0.00625 -0.00164,0.00176 -0.00384,0.00305 -0.00622,0.00338 -0.00199,2.713e-4 -0.004,-1.311e-4 -0.00599,-3.993e-4 -0.00199,-2.683e-4 -0.00409,-3.892e-4 -0.00594,3.993e-4 -0.00104,4.449e-4 -0.00196,0.00117 -0.00266,0.00207 -6.953e-4,8.959e-4 -0.00117,0.00196 -0.00139,0.00307 -4.476e-4,0.00222 1.226e-4,0.0046 0.00138,0.00649 0.00125,0.00189 0.00315,0.00331 0.00525,0.00416 0.0021,8.523e-4 0.0044,0.00116 0.00667,0.00109 0.00453,-1.359e-4 0.00888,-0.00172 0.013203,-0.00309 0.00432,-0.00137 0.00887,-0.00255 0.013355,-0.00185 0.00514,8.024e-4 0.0098,0.00421 0.012122,0.00886 0.00232,0.00465 0.00225,0.010422 -1.872e-4,0.015013 0.011832,0.00811 0.023769,0.016068 0.035806,0.02387 0.1002271,0.064963 0.2070913,0.1189409 0.3103154,0.1790281 0.070836,0.041234 0.1401995,0.085475 0.2148338,0.1193521 0.074179,0.03367 0.1526624,0.056689 0.2289261,0.085325 0.076264,0.028635 0.1515801,0.063691 0.2126766,0.117574 0.033767,0.02978 0.062563,0.064767 0.095482,0.095482 0.093906,0.087617 0.2189345,0.1373063 0.346121,0.1551577 0.051738,0.00726 0.1047778,0.00971 0.1540381,0.027118 0.02463,0.0087 0.048156,0.021212 0.067563,0.038697 0.019408,0.017485 0.034559,0.04015 0.040973,0.065472 0.00595,0.023496 0.00435,0.048589 0.011935,0.071611 0.00903,0.02741 0.029958,0.048882 0.047741,0.071611 0.058238,0.074436 0.085617,0.167895 0.1312873,0.2506394 0.053379,0.09671 0.1309089,0.177384 0.2038271,0.2603609 0.072918,0.082977 0.143408,0.1718487 0.1780996,0.2767235 0.028215,0.085295 0.031374,0.1773086 0.059676,0.2625746 0.029304,0.088285 0.084632,0.1660463 0.1488025,0.233389 0.064171,0.067343 0.1374005,0.1252669 0.2092538,0.1843433 0.1607232,0.1321434 0.3175277,0.2723737 0.5012787,0.3699922 0.215775,0.114631 0.462397,0.166952 0.668372,0.29838 0.127073,0.08108 0.238587,0.192061 0.381927,0.238704 0.08543,0.0278 0.177474,0.03088 0.262574,0.05968 0.07335,0.02482 0.139257,0.06807 0.199079,0.117238 0.05982,0.04917 0.114238,0.104503 0.170913,0.157272 0.138914,0.12934 0.295787,0.248599 0.381926,0.417732 0.03089,0.06066 0.05159,0.125903 0.07161,0.190964 0.02055,0.06677 0.04132,0.135305 0.08355,0.190963 0.01147,0.01512 0.0244,0.0291 0.03557,0.04444 0.01117,0.01534 0.02069,0.03238 0.02411,0.05104 0.0014,0.0079 0.0018,0.01606 0,0.02387 -0.0026,0.01152 -0.0097,0.02172 -0.01876,0.0293 -0.0091,0.0076 -0.01997,0.01268 -0.03124,0.01618 -0.02255,0.007 -0.0466,0.0078 -0.06935,0.01419 -0.0365,0.0102 -0.06762,0.03399 -0.09548,0.05968 -0.07507,0.06923 -0.13274,0.15481 -0.190963,0.238704 -0.02206,0.03179 -0.04443,0.06361 -0.07142,0.09134 -0.02699,0.02773 -0.05901,0.05142 -0.09567,0.06382 -0.02642,0.0089 -0.05475,0.01187 -0.08044,0.02275 -0.01284,0.0054 -0.025,0.01294 -0.03439,0.02325 -0.0094,0.01031 -0.01585,0.02362 -0.01646,0.03755 -2.61e-4,0.006 5.42e-4,0.01197 0.001,0.01794 4.65e-4,0.006 5.83e-4,0.01209 -0.001,0.01787 -0.0023,0.0083 -0.008,0.01537 -0.01456,0.02098 -0.0066,0.0056 -0.01408,0.01 -0.02125,0.01483 -0.03703,0.02492 -0.06509,0.0615 -0.08552,0.101186 -0.02043,0.03968 -0.0337,0.08261 -0.04577,0.125583 -0.01846,0.06571 -0.03491,0.133415 -0.07161,0.190963 -0.01355,0.02125 -0.02966,0.04076 -0.04342,0.06188 -0.01376,0.02111 -0.02529,0.04438 -0.02819,0.06941 -9.62e-4,0.0083 -9.6e-4,0.01672 -0.0023,0.02498 -0.0013,0.0083 -0.004,0.01658 -0.0097,0.02276 -0.0051,0.0056 -0.01232,0.009 -0.01981,0.0099 -0.0075,8.93e-4 -0.0152,-7.12e-4 -0.02191,-0.0041 -0.0067,-0.0034 -0.01247,-0.0086 -0.01692,-0.01472 -0.0044,-0.0061 -0.0076,-0.01306 -0.0097,-0.0203 -0.0042,-0.01448 -0.0042,-0.02984 -0.0035,-0.04491 6.8e-4,-0.01507 0.002,-0.03021 3.05e-4,-0.0452 -0.0034,-0.03046 -0.01926,-0.05842 -0.03932,-0.0816 -0.02006,-0.02318 -0.04436,-0.04222 -0.0681,-0.06162 -0.1423,-0.116298 -0.273329,-0.256258 -0.334186,-0.429668 -0.02462,-0.07015 -0.03711,-0.143997 -0.05968,-0.214834 -0.03636,-0.114113 -0.09842,-0.219017 -0.131287,-0.334186 -0.0037,-0.01306 -0.0071,-0.02628 -0.01242,-0.03877 -0.0053,-0.01249 -0.01279,-0.02436 -0.02339,-0.03284 -0.01123,-0.009 -0.02552,-0.01383 -0.0358,-0.02387 -0.0064,-0.0063 -0.01093,-0.01426 -0.01446,-0.02251 -0.0035,-0.0083 -0.0062,-0.01686 -0.0094,-0.02523 -0.0221,-0.05724 -0.07106,-0.100725 -0.125286,-0.129422 -0.05423,-0.0287 -0.114156,-0.04449 -0.173094,-0.06154 -0.05336,-0.01544 -0.106836,-0.03229 -0.155158,-0.05968 -0.05198,-0.02947 -0.09645,-0.07023 -0.143222,-0.107417 C 10.034953,11.313145 9.8963881,11.23984 9.7630009,11.15942 9.6428886,11.087004 9.5263564,11.008386 9.4168798,10.920716 9.3460311,10.86398 9.2779819,10.803345 9.202046,10.753623 9.1512338,10.720352 9.0971932,10.692175 9.0468883,10.658142 8.9644641,10.602379 8.8928429,10.531421 8.8081841,10.479113 8.7733339,10.45758 8.7365489,10.439384 8.7007673,10.419437 8.6554361,10.394166 8.6117004,10.366073 8.56948,10.335891 8.5209313,10.301185 8.4744036,10.263736 8.4262575,10.228474 8.3247467,10.154127 8.2162261,10.089633 8.115942,10.01364 7.9318607,9.8741469 7.7789079,9.6986141 7.6146633,9.5362319 7.5566053,9.4788323 7.4970166,9.4229698 7.4356351,9.369139 7.3465532,9.2910152 7.2525013,9.2158747 7.1849957,9.1184996 7.1220117,9.0276466 7.085181,8.9217905 7.0417732,8.8201194 6.9816322,8.6792554 6.9035799,8.5395086 6.7791986,8.4501279 6.7226853,8.4095173 6.6579985,8.380398 6.6054356,8.3347897 6.5791542,8.3119856 6.556027,8.2849304 6.5412887,8.2534102 6.5265504,8.22189 6.5206266,8.1856271 6.5285592,8.1517477 c 9.333e-4,-0.00399 0.00206,-0.00795 0.00238,-0.012035 3.25e-4,-0.00408 -2.124e-4,-0.00836 -0.00238,-0.011835 -0.00176,-0.00282 -0.00454,-0.00496 -0.00763,-0.00618 -0.0031,-0.00122 -0.0065,-0.00156 -0.00982,-0.00124 -0.00663,6.534e-4 -0.012717,0.00387 -0.018354,0.00742 -0.020482,0.012895 -0.0375,0.030977 -0.050237,0.051557 -0.012737,0.020581 -0.021267,0.043621 -0.026278,0.0673 -0.010021,0.047358 -0.00606,0.096572 0.00145,0.1443924 0.00751,0.047821 0.018524,0.095166 0.022581,0.1434028 0.00406,0.048236 7.888e-4,0.098246 -0.019127,0.1423661 -0.018183,0.040281 -0.049261,0.073495 -0.083449,0.1015009 -0.034188,0.028006 -0.07182,0.051468 -0.1075147,0.077527 -0.1024339,0.074783 -0.1877794,0.1700378 -0.2745098,0.2625746 -0.067438,0.071953 -0.1365083,0.1429789 -0.2148337,0.2028985 -0.05437,0.041594 -0.1128653,0.077573 -0.167093,0.1193521 -0.05614,0.043253 -0.1076609,0.092682 -0.1670929,0.1312873 -0.1241929,0.080673 -0.2751239,0.1093392 -0.4057971,0.1790281 -0.1462774,0.078011 -0.2617451,0.204398 -0.4057971,0.2864454 -0.041516,0.02365 -0.08513,0.04344 -0.1266858,0.06702 -0.041556,0.02357 -0.081506,0.05138 -0.1120184,0.08814 -0.012706,0.01531 -0.023634,0.032 -0.035806,0.04774 -0.050467,0.06525 -0.1206142,0.112084 -0.1909633,0.155158 -0.073483,0.04499 -0.1490924,0.08752 -0.2148338,0.143222 -0.1413178,0.119726 -0.228687,0.29532 -0.2625746,0.477409 -0.011146,0.05989 -0.016986,0.121091 -0.035806,0.179028 -0.025867,0.07963 -0.07507,0.149541 -0.1074169,0.226769 -0.028317,0.06761 -0.043928,0.141229 -0.083546,0.202898 -0.035431,0.05515 -0.088152,0.09734 -0.1447934,0.130337 -0.056642,0.033 -0.11767,0.05762 -0.1774572,0.0845 -0.1707636,0.07677 -0.3338419,0.173101 -0.513214,0.226769 -0.1600728,0.04789 -0.3289862,0.06048 -0.4893435,0.107417 -0.065296,0.01911 -0.1288566,0.04383 -0.1909634,0.07161 -0.1628486,0.07283 -0.3174087,0.167265 -0.4893435,0.214834 -0.047432,0.01312 -0.095826,0.02256 -0.1432226,0.03581 -0.064239,0.01796 -0.1264183,0.04286 -0.1909633,0.05968 -0.019645,0.0051 -0.039522,0.0095 -0.059676,0.01193 -0.0671903,0.0081 -0.13521873,0 -0.20289859,0 h -0.0716113 c -0.002018,0 -0.00403,-1.83e-4 -0.006026,-4.77e-4 -9.9813e-4,-1.47e-4 -0.002003,-2.88e-4 -0.003011,-2.67e-4 -0.001009,2.2e-5 -0.002036,2.19e-4 -0.002898,7.44e-4 -9.3662e-4,5.71e-4 -0.001622,0.0015 -0.001987,0.0025 -3.6522e-4,0.001 -4.2443e-4,0.0022 -2.8084e-4,0.0032 2.8719e-4,0.0022 0.001347,0.0042 0.002268,0.0061 0.004303,0.0093 0.005822,0.01985 0.004518,0.03001 -0.001304,0.01017 -0.005405,0.01994 -0.0115896,0.02811 -0.0123701,0.01635 -0.0329508,0.02573 -0.053453,0.02583 -0.0205022,9.6e-5 -0.0406278,-0.0087 -0.0556102,-0.02266 -0.0149825,-0.014 -0.0249448,-0.03294 -0.0295367,-0.05292 -0.004592,-0.01998 -0.00398,-0.04096 1.9819e-4,-0.06103 0.004178,-0.02007 0.0118497,-0.0393 0.021206,-0.05754 0.0187126,-0.03649 0.0440783,-0.06913 0.064591,-0.104635 0.0591602,-0.1024 0.0755284,-0.226127 0.0591592,-0.34325 -0.0163692,-0.117123 -0.0638087,-0.228207 -0.12475938,-0.329551 -0.12190142,-0.20269 -0.29686093,-0.368851 -0.42374335,-0.56846 -0.0280007,-0.04405 -0.0541551,-0.09132 -0.059676,-0.143223 -8.8005e-4,-0.0083 -0.001227,-0.01662 -0.002704,-0.0248 -0.001477,-0.0082 -0.004167,-0.01633 -0.009231,-0.02294 -0.004541,-0.0059 -0.0107559,-0.01031 -0.0158595,-0.01576 -0.002552,-0.0027 -0.0048425,-0.0057 -0.0063681,-0.0091 -0.0015256,-0.0034 -0.0022555,-0.0072 -0.0016429,-0.01091 5.6051e-4,-0.0034 0.002237,-0.0065 0.0045879,-0.009 0.002351,-0.0025 0.005356,-0.0043 0.008583,-0.0054 0.006453,-0.0022 0.0135938,-0.0016 0.0201518,2.69e-4 0.006558,0.0019 0.0126831,0.005 0.0188864,0.0078 0.006203,0.0028 0.0126242,0.0055 0.0194022,0.0063 0.0108478,0.0013 0.0217507,-0.0022 0.0314752,-0.0072 0.009724,-0.005 0.0186226,-0.01142 0.0282008,-0.01667 0.033833,-0.01854 0.0738929,-0.02112 0.11246714,-0.02191 0.0385742,-7.85e-4 0.0781699,-3.63e-4 0.11430183,-0.01389 0.0352548,-0.0132 0.0642925,-0.0386 0.0954817,-0.05968 0.0694109,-0.04692 0.15042907,-0.0729 0.22676897,-0.107417 0.0891887,-0.04032 0.1726432,-0.09265 0.26257459,-0.131288 0.1926806,-0.08278 0.4065171,-0.09945 0.6086956,-0.155157 0.1856697,-0.05115 0.36147,-0.135266 0.5490196,-0.179028 0.1106202,-0.02581 0.2240378,-0.03727 0.3357931,-0.05761 0.1117552,-0.02034 0.2236626,-0.05034 0.3206434,-0.109481 0.09188,-0.056032 0.1665243,-0.1357856 0.2506397,-0.2029129 0.077768,-0.062062 0.163852,-0.1134788 0.2387042,-0.1790281 0.07415,-0.064934 0.1359157,-0.1425289 0.2028985,-0.2148338 0.065178,-0.070356 0.1358602,-0.1363369 0.1909634,-0.2148337 0.029807,-0.042461 0.05473,-0.088147 0.083546,-0.1312873 0.046007,-0.068877 0.1018496,-0.1311429 0.1432225,-0.2028986 0.020466,-0.035496 0.037268,-0.073114 0.059676,-0.1074169 0.040163,-0.06148 0.096851,-0.1101503 0.1432225,-0.1670929 0.04532,-0.055651 0.080421,-0.1187352 0.1193521,-0.1790281 0.030779,-0.047667 0.064477,-0.094197 0.1074169,-0.1312873 0.01928,-0.016654 0.040253,-0.031253 0.059676,-0.047741 0.070434,-0.059791 0.117947,-0.142203 0.1551577,-0.2267689 0.010764,-0.024464 0.020886,-0.049435 0.035806,-0.071611 0.012698,-0.018873 0.028605,-0.03532 0.043812,-0.052236 0.015208,-0.016916 0.029953,-0.034644 0.039734,-0.055181 0.010828,-0.022738 0.015135,-0.047989 0.02387,-0.071611 0.021113,-0.057097 0.066663,-0.101535 0.095482,-0.1551577 0.014352,-0.026705 0.024421,-0.055448 0.035806,-0.083546 0.00225,-0.00556 0.00461,-0.01119 0.00845,-0.015802 0.00192,-0.00231 0.0042,-0.00433 0.00682,-0.00579 0.00262,-0.00145 0.0056,-0.00232 0.0086,-0.00228 0.00201,2.19e-5 0.004,4.403e-4 0.006,6.432e-4 0.002,2.03e-4 0.0041,1.759e-4 0.00593,-6.432e-4 0.00204,-9.098e-4 0.00359,-0.00275 0.00439,-0.00484 8e-4,-0.00209 8.948e-4,-0.0044 5.419e-4,-0.00661 -7.058e-4,-0.00442 -0.0031,-0.00834 -0.00493,-0.012421 -0.00553,-0.012282 -0.00606,-0.026515 -0.00267,-0.03955 0.0034,-0.013035 0.010548,-0.024909 0.01956,-0.03492 0.018025,-0.020022 0.042769,-0.032421 0.066655,-0.044882 0.012772,-0.00666 0.025678,-0.013626 0.035806,-0.02387 0.011086,-0.011214 0.018163,-0.025655 0.026447,-0.039072 0.00414,-0.00671 0.00865,-0.013239 0.014083,-0.01895 0.00544,-0.00571 0.011849,-0.010601 0.019146,-0.013589 0.00932,-0.00381 0.019664,-0.00438 0.029705,-0.00367 0.010041,7.147e-4 0.019956,0.00265 0.029971,0.00367 0.042404,0.00429 0.086311,-0.00888 0.1193521,-0.035806 z"
     id="path1"
     inkscape:path-effect="#path-effect1"
     inkscape:original-d="M 5.2753623,7.2446718 C 5.2594487,7.2287582 5.2422677,7.2140182 5.2276215,7.1969309 5.1792269,7.1404706 5.1474256,7.055342 5.0963342,6.9940324 5.0855286,6.9810656 5.0724638,6.970162 5.0605286,6.9582268 5.0247229,6.9184427 4.9865478,6.8806699 4.9531117,6.8388747 4.9386201,6.8207602 4.9315482,6.7975099 4.9173061,6.7791986 4.8862181,6.7392284 4.8439512,6.70925 4.8098892,6.6717818 4.616764,6.459344 4.9002453,6.7567378 4.6786019,6.516624 4.5844266,6.4146008 4.4698106,6.3358289 4.3682864,6.2421142 4.3393468,6.2154007 4.3145022,6.1843617 4.28474,6.1585678 4.2546756,6.132512 4.2193227,6.1130123 4.1892583,6.0869565 4.0907414,6.0015752 3.9919708,5.9079727 3.9028133,5.8124467 3.8412705,5.746508 3.7875638,5.6733268 3.7237852,5.6095482 3.7018137,5.5875767 3.6730754,5.5728638 3.6521739,5.5498721 3.6130808,5.5068697 3.5642748,5.4331039 3.5328218,5.3827792 3.4830326,5.3031165 3.5069873,5.3624213 3.4373402,5.2753623 3.4066155,5.2369565 3.3760991,5.1767507 3.3537937,5.1321398 3.3346312,5.0938148 3.3290573,5.0489375 3.3060529,5.0127877 3.2893709,4.9865732 3.2650202,4.9660343 3.2463768,4.9411765 3.1267063,4.7816158 3.2733973,4.9629663 3.1508951,4.7860188 2.989188,4.5524418 2.7373365,4.3582345 2.5063939,4.2011935 2.4087458,4.1347928 2.3118453,4.0664723 2.2080136,4.0102302 2.1300706,3.9381985 2.0228098,3.9270307 1.9335038,3.8789429 1.8498055,3.8338745 1.7769114,3.7707062 1.6947997,3.7237852 1.6684931,3.7087528 1.6378522,3.7024881 1.6112532,3.6879795 1.4730461,3.6125939 1.3445386,3.5291688 1.2173913,3.4373402 1.1425264,3.3832711 0.96120986,3.2949687 0.91901108,3.2105712 0.83390553,3.0403601 0.77791372,2.8567652 0.69224211,2.685422 0.6656585,2.6322548 0.62000231,2.5844953 0.59676044,2.5302643 0.59029884,2.5151872 0.59128684,2.4976005 0.58482523,2.4825234 0.5630166,2.4316366 0.5645839,2.4613467 0.5370844,2.4228474 0.50316266,2.375357 0.47928734,2.3248464 0.44160273,2.2796249 0.40014201,2.229872 0.34596882,2.1922655 0.29838022,2.1483376 c -0.0206712,-0.019081 -0.0371708,-0.042797 -0.059676,-0.059676 -0.007117,-0.00534 -0.01758,-0.00564 -0.0238704,-0.011935 -0.00629,-0.00629 -0.005645,-0.01758 -0.0119352,-0.02387 -0.004713,-0.00471 -0.0835465,-0.046614 -0.0835465,-0.047741 0,-0.011935 0.0238704,0 0.0358056,0 0.0358056,0 0.0719253,0.00473 0.10741688,0 C 0.38909183,1.9882461 0.52200627,1.943932 0.64450128,1.9096334 0.91147252,1.8348815 1.0481905,1.7867729 1.2293265,1.5754476 c 0.02387,-0.027849 0.051265,-0.053028 0.071611,-0.083546 0.030374,-0.045561 0.035985,-0.1077759 0.059676,-0.1551577 0.0089,-0.017792 0.027727,-0.029563 0.035806,-0.047741 0.027921,-0.1396028 -0.010052,-0.00712 0.035806,-0.083547 0.019787,-0.032978 0.00517,-0.061659 0.011935,-0.095482 0.062075,-0.31037289 -5.757e-4,-0.010208 0.035806,-0.11935206 0.00126,-0.003774 -0.00281,-0.009122 0,-0.0119352 0.00867,-0.008669 0.069644,0.0533056 0.1312873,0.11935206 0.1505315,0.1612838 0.280844,0.3366228 0.4416027,0.4893436 0.1436602,0.1364771 0.3648669,0.3115648 0.5251492,0.4296675 0.2311778,0.1703415 0.1498204,0.075962 0.3341859,0.2745098 0.034608,0.03727 0.0037,0.2397952 0.011935,0.286445 0.017824,0.1010035 0.060047,0.1714788 0.1074169,0.2625746 0.1223418,0.2352729 0.2835967,0.4426961 0.4535379,0.6445013 0.1183516,0.1405426 0.234565,0.2812419 0.3580563,0.4177323 0.062281,0.068837 0.079544,0.072335 0.1551577,0.1432225 0.065674,0.061569 0.1292661,0.1254101 0.1909633,0.1909633 0.032833,0.034885 0.05978,0.075473 0.095482,0.1074169 0.027825,0.024897 0.2662071,0.1897439 0.286445,0.2028986 0.4122617,0.2679701 0.1937791,0.1234286 0.4654731,0.286445 0.056778,0.034067 0.1087936,0.076025 0.167093,0.1074169 0.1597039,0.085994 0.3626639,0.1035558 0.5012787,0.2267689 0.014868,0.013216 0.02259,0.032873 0.035806,0.047741 0.09247,0.1040289 0.1721641,0.2161166 0.2625746,0.3222506 0.049288,0.05786 0.1014124,0.1133477 0.1551577,0.1670929 0.077604,0.077604 0.1593165,0.1509899 0.2387042,0.226769 0.00814,0.00777 0.019691,0.013423 0.02387,0.02387 0.013626,0.034066 -0.011599,0.084554 0,0.1193521 0.00126,0.00377 0.00996,0.00345 0.011935,0 C 6.465751,6.0178425 6.484339,5.9533894 6.516624,5.8959924 6.588184,5.7687748 6.56345,5.8241064 6.6598465,5.705029 6.7009021,5.6543141 6.7369085,5.5995631 6.7791986,5.5498721 6.8961149,5.4124955 7.0123268,5.2742084 7.1372549,5.144075 7.2435949,5.0043018 7.4093686,4.9316374 7.5311168,4.8098892 7.6099887,4.7310172 7.5756316,4.6585567 7.6265985,4.571185 7.6438427,4.5416234 7.6660821,4.5152703 7.6862745,4.4876385 7.7416733,4.4118296 7.7892233,4.3294374 7.8533674,4.2608696 8.0248309,4.077581 8.2730775,3.9767045 8.4859335,3.8550725 8.6038333,3.7877011 8.7160619,3.7108429 8.8320546,3.6402387 8.8551393,3.6261871 9.0159744,3.5310328 9.0468883,3.5089514 9.1020186,3.4695727 9.1447644,3.413842 9.202046,3.3776641 9.396798,3.2546629 9.627324,3.205318 9.8226769,3.0792839 9.9037108,3.027004 9.9286251,2.8121589 9.942029,2.7689685 c 0.027415,-0.088336 0.078846,-0.1885399 0.131287,-0.2625746 0.03592,-0.050712 0.08169,-0.093791 0.119352,-0.1432225 0.0897,-0.117728 0.174682,-0.2389752 0.262575,-0.3580563 0.142879,-0.193578 0.286098,-0.3872866 0.405797,-0.5967605 0.05979,-0.1046373 0.08246,-0.225317 0.155158,-0.3222506 0.01601,-0.02135 0.021,-0.049405 0.0358,-0.071611 0.0062,-0.00936 0.01884,-0.013806 0.02387,-0.0238705 0.0091,-0.0182441 -0.01208,-0.0262009 0.01193,-0.0358056 0.0188,-0.00752 0.09179,-0.0202632 0.107417,-0.0238704 0.08368,-0.0193114 0.167155,-0.0395247 0.250639,-0.059676 0.253644,-0.0612242 0.166938,-0.10116503 0.369992,0.0477408 0.02506,0.018375 0.04735,0.0402653 0.07161,0.059676 0.01553,0.0124264 0.03772,0.0186233 0.04774,0.0358057 0.0695,0.1191435 0.0075,0.1320709 0.0358,0.2028985 0.02853,0.071314 0.100137,0.2443859 0.131288,0.2983802 0.09648,0.1672386 0.24333,0.309606 0.381926,0.4416028 0.03876,0.036913 0.08031,0.07081 0.119353,0.1074168 0.02463,0.023088 0.04774,0.047741 0.07161,0.071611 0.008,0.00796 0.01333,0.019919 0.02387,0.02387 0.06102,0.022883 0.140187,0.021044 0.131288,0.047741 -0.01399,0.041971 -0.03173,0.031726 -0.07161,0.071611 -0.03785,0.037847 -0.07265,0.078654 -0.107417,0.1193521 -0.128366,0.1502825 -0.25108,0.3054098 -0.381926,0.4535379 -0.227826,0.2579159 -0.477162,0.4947896 -0.739983,0.7161126 -0.169301,0.1425689 -0.339078,0.2963814 -0.525149,0.4177323 -0.0463,0.030192 -0.09272,0.061099 -0.143223,0.083546 -0.114965,0.051096 -0.243909,0.066455 -0.358056,0.1193521 -0.106592,0.049396 -0.212096,0.1026363 -0.310316,0.1670929 -0.07618,0.049996 -0.101253,0.1596189 -0.143222,0.226769 -0.0135,0.021602 -0.03183,0.039784 -0.04774,0.059676 -0.019892,0.027849 -0.042068,0.0542 -0.059676,0.083546 C 9.920768,4.7617492 9.84416,4.9286683 9.8345961,4.9531102 9.8162581,4.9999732 9.8071221,5.0502712 9.7868551,5.0963327 9.6802157,5.3387333 9.4350839,5.6390849 9.2497869,5.8243819 9.0965542,5.9776146 9.0291397,5.9799394 8.8439898,6.0511509 c -0.040535,0.01559 -0.057814,0.044609 -0.095482,0.059676 -0.1654214,0.066169 -0.312023,0.1725501 -0.4774084,0.2387042 -0.062629,0.025052 -0.1291867,0.02303 -0.1909633,0.047741 -0.061474,0.02459 0.0034,-0.0051 -0.02387,0.035806 -0.00493,0.0074 -0.016469,0.007 -0.02387,0.011935 -0.027533,0.018356 -0.044676,0.052372 -0.071611,0.071611 -0.04669,0.03335 -0.093066,0.067617 -0.1432225,0.095482 -0.135943,0.075524 -0.2540124,0.1181846 -0.3699915,0.2148338 -0.035203,0.029336 -0.00708,0.030948 -0.02387,0.047741 -0.00281,0.00281 -0.00912,-0.00281 -0.011935,0 -0.0089,0.0089 -6.826e-4,0.030179 -0.011935,0.035806 -0.00712,0.00356 -0.017048,-0.00409 -0.02387,0 -0.014474,0.00868 -0.02319,0.024592 -0.035806,0.035806 -0.051855,0.046093 -0.1019483,0.098881 -0.1551578,0.1432225 -0.033517,0.027931 -0.076527,0.028786 -0.1074168,0.059676 -0.00629,0.00629 -0.00564,0.01758 -0.011935,0.02387 -0.00281,0.00281 -0.00912,-0.00281 -0.011935,0 -0.019253,0.019253 0.033154,0.010167 0.035806,0.011935 0.0074,0.00493 0.00796,0.015914 0.011935,0.023871 0.011935,0.00796 0.023431,0.016616 0.035806,0.02387 0.103022,0.060392 0.2064863,0.1200343 0.3103154,0.1790281 0.071226,0.040469 0.1412516,0.083344 0.2148338,0.1193521 0.1455064,0.071205 0.301675,0.1212741 0.4416027,0.2028985 0.055407,0.032321 0.061551,0.076631 0.095482,0.095482 0.1060404,0.058911 0.2353483,0.1082923 0.346121,0.1551577 0.039617,0.016761 0.2320011,0.07014 0.2625746,0.1312873 0.0098,0.019602 -1.62e-5,0.047708 0.011935,0.071611 0.01283,0.02566 0.033507,0.046703 0.047741,0.071611 0.046793,0.081888 0.082107,0.1701629 0.1312873,0.2506394 0.1148886,0.1879996 0.2665684,0.3496273 0.3819267,0.5370844 0.046386,0.075378 0.02633,0.1792104 0.059676,0.2625746 0.071821,0.1795526 0.2140676,0.2967818 0.3580563,0.4177323 0.1565259,0.1314818 0.3286827,0.2621187 0.5012787,0.3699922 0.272099,0.170061 0.325419,0.158081 0.668372,0.29838 0.142184,0.05817 0.238648,0.181392 0.381927,0.238704 0.08382,0.03353 0.181239,0.02353 0.262574,0.05968 0.145193,0.06453 0.253212,0.167073 0.369992,0.27451 0.129962,0.119565 0.291897,0.257681 0.381926,0.417732 0.03199,0.05687 0.04932,0.129676 0.07161,0.190964 0.0073,0.02006 0.08033,0.184529 0.08355,0.190963 0.01551,0.03103 0.04416,0.06446 0.05968,0.09548 0.0036,0.0071 0.0036,0.01675 0,0.02387 -0.01918,0.03836 -0.09073,0.04537 -0.119352,0.05968 -0.03357,0.01679 -0.06522,0.03748 -0.09548,0.05968 -0.112085,0.0822 -0.104531,0.147724 -0.190963,0.238704 -0.05235,0.05511 -0.107741,0.107677 -0.167093,0.155158 -0.02752,0.02202 -0.114185,0.04079 -0.131287,0.08355 -0.0044,0.01108 0.0053,0.02513 0,0.03581 -0.0075,0.0151 -0.025,0.02284 -0.03581,0.03581 -0.04675,0.0561 -0.104678,0.164681 -0.131287,0.226769 -0.02676,0.06244 -0.04348,0.12767 -0.07161,0.190963 -0.02043,0.04596 -0.04943,0.08692 -0.07161,0.131287 -0.0073,0.01467 -3.36e-4,0.03614 -0.01194,0.04774 -0.01285,0.01285 -0.04719,-0.08273 -0.07161,-0.119352 -0.0331,-0.04965 -0.07014,-0.09662 -0.107417,-0.143222 -0.111899,-0.139874 -0.253016,-0.267328 -0.334186,-0.429668 -0.03633,-0.07266 -0.03838,-0.138163 -0.05968,-0.214834 -0.03456,-0.124405 -0.07068,-0.220552 -0.131287,-0.334186 -0.01256,-0.02355 -0.01979,-0.05026 -0.03581,-0.07161 -0.0086,-0.01147 -0.02662,-0.01285 -0.0358,-0.02387 -0.01139,-0.01367 -0.01215,-0.03435 -0.02387,-0.04774 -0.0651,-0.07441 -0.209571,-0.150596 -0.29838,-0.190963 -0.05216,-0.02371 -0.105019,-0.03182 -0.155158,-0.05968 -0.118619,-0.0659 0.0014,-0.003 -0.143222,-0.107417 C 10.031037,11.31918 9.8929954,11.243917 9.7630009,11.15942 9.647078,11.08407 9.5274774,11.003664 9.4168798,10.920716 9.3445652,10.86648 9.2775349,10.803949 9.202046,10.753623 9.1515175,10.719938 9.0970073,10.692433 9.0468883,10.658142 8.9654363,10.602411 8.8902667,10.533835 8.8081841,10.479113 8.7741032,10.456393 8.7365729,10.439329 8.7007673,10.419437 8.6570048,10.391589 8.612062,10.365513 8.56948,10.335891 8.5204916,10.301812 8.4746866,10.263343 8.4262575,10.228474 8.3241598,10.154964 8.2141817,10.092232 8.115942,10.01364 7.9366306,9.8701911 7.7793326,9.6954122 7.6146633,9.5362319 7.5559722,9.4794972 7.4966461,9.423371 7.4356351,9.369139 7.3459871,9.2894518 7.24797,9.2234567 7.1849957,9.1184996 7.1282028,9.0238447 7.0978845,8.9155085 7.0417732,8.8201194 6.969811,8.6977836 6.8608684,8.5566536 6.7791986,8.4501279 6.700983,8.3481075 6.6054053,8.254209 6.5285592,8.1517477 c -0.00477,-0.00637 0.00712,-0.020312 0,-0.02387 -0.010675,-0.00534 -0.028645,-0.00955 -0.035806,0 C 6.3762267,8.2832465 6.5058827,8.5158903 6.4211424,8.6768968 6.3724727,8.7693692 6.3031607,8.7926742 6.230179,8.855925 6.1342734,8.9390432 6.0536814,9.0383078 5.9556692,9.1184996 5.8778241,9.182191 5.8144951,9.2538768 5.7408355,9.3213981 5.6264474,9.4262538 5.7124161,9.3390562 5.5737425,9.4407502 5.4928095,9.5001011 5.4933597,9.5232631 5.4066496,9.5720375 5.2786647,9.644029 5.1319066,9.6855386 5.0008525,9.7510656 4.849376,9.8268039 4.7355248,9.9466187 4.5950554,10.037511 c -0.034156,0.0221 -0.1903588,0.111647 -0.2387042,0.155157 -0.014786,0.01331 -0.021189,0.03425 -0.035806,0.04774 -0.060266,0.05563 -0.1242235,0.107487 -0.1909633,0.155158 -0.083398,0.05957 -0.133653,0.07159 -0.2148338,0.143222 -0.1037293,0.09153 -0.218537,0.336489 -0.2625746,0.477409 -0.116143,0.371657 0.054042,-0.150412 -0.035806,0.179028 -0.021241,0.07789 -0.075327,0.152963 -0.1074169,0.226769 -0.029164,0.06708 -0.046692,0.13972 -0.083546,0.202898 -0.067077,0.11499 -0.21169,0.164161 -0.3222506,0.214834 -0.2732198,0.125226 -0.067991,0.06649 -0.513214,0.226769 -0.2505287,0.09019 -0.220739,0.03673 -0.4893435,0.107417 -0.065745,0.0173 -0.1285508,0.04466 -0.1909634,0.07161 -0.1505392,0.06501 -0.325091,0.162273 -0.4893435,0.214834 -0.046869,0.015 -0.09604,0.02183 -0.1432226,0.03581 -0.2056526,0.06093 -0.1146788,0.05968 -0.1909633,0.05968 -0.13739715,0 0.043961,-0.0053 -0.059676,0.01193 -0.0633514,0.01056 -0.1381855,0 -0.20289859,0 -0.0238704,0 -0.0477408,0 -0.0716113,0 -0.003978,0 -0.009122,-0.0028 -0.0119352,0 -0.002813,0.0028 0.001093,0.01576 0,0.01194 -0.0440708,-0.154248 -0.001623,-0.04067 -0.059676,-0.214834 -0.1411324,-0.423397 -0.33842937,-0.822055 -0.48934357,-1.241261 -0.0173278,-0.04813 -0.0436856,-0.09525 -0.059676,-0.143223 -0.005187,-0.01556 -0.004599,-0.03307 -0.0119352,-0.04774 -0.006415,-0.01283 -0.0340134,-0.02566 -0.02387042,-0.0358 0.0068099,-0.0068 0.0655167,0.0015 0.07161125,0 0.0207847,-0.0052 0.0387273,-0.01938 0.059676,-0.02387 0.0864571,-0.01853 0.14110708,-0.0025 0.22676897,-0.0358 0.0349802,-0.0136 0.0623112,-0.04212 0.0954817,-0.05968 0.073921,-0.03913 0.15267701,-0.06861 0.22676897,-0.107417 0.0675999,-0.03541 0.18801832,-0.108092 0.26257459,-0.131288 0.7889602,-0.245454 0.1126834,-0.01565 0.6086956,-0.155157 0.1849471,-0.05202 0.3640725,-0.127012 0.5490196,-0.179028 0.2080003,-0.0585 0.4648147,-0.06565 0.6564365,-0.167093 C 2.9459489,9.9880456 3.0219466,9.9005934 3.1031543,9.8346121 3.1803467,9.7718933 3.2660759,9.7199991 3.3418585,9.655584 3.406082,9.600994 3.4885466,9.503987 3.544757,9.4407502 3.6084115,9.369139 3.6761829,9.3009854 3.7357204,9.2259165 c 0.032233,-0.040642 0.055277,-0.087796 0.083546,-0.1312873 0.045117,-0.069411 0.098249,-0.1333946 0.1432225,-0.2028986 0.022252,-0.034389 0.036471,-0.073664 0.059676,-0.1074169 0.04156,-0.06045 0.099841,-0.1079365 0.1432225,-0.1670929 0.2264017,-0.3087296 -0.097628,0.1030454 0.1193521,-0.1790281 0.034475,-0.044818 0.067434,-0.091305 0.1074169,-0.1312873 0.018013,-0.018013 0.043221,-0.028294 0.059676,-0.047741 0.052909,-0.062529 0.1118688,-0.1546207 0.1551577,-0.2267689 0.013731,-0.022885 0.021478,-0.049096 0.035806,-0.071611 0.00352,-0.00553 0.076693,-0.09371 0.083546,-0.1074169 0.011253,-0.022505 0.013458,-0.048705 0.02387,-0.071611 0.024798,-0.054555 0.06471,-0.1038721 0.095482,-0.1551577 0.015501,-0.025836 0.020877,-0.058666 0.035806,-0.083546 0.00579,-0.00965 0.014508,-0.017629 0.02387,-0.02387 0.00331,-0.00221 0.010156,0.00356 0.011935,0 0.00356,-0.00712 -0.00296,-0.016483 0,-0.02387 0.00853,-0.021323 0.065822,-0.1016278 0.083546,-0.1193521 0.010143,-0.010143 0.025663,-0.013727 0.035806,-0.02387 0.020617,-0.020618 0.030096,-0.056821 0.059676,-0.071611 0.014277,-0.00714 0.044649,0.00376 0.059676,0 0.071562,-0.017891 0.030366,-0.035806 0.1193521,-0.035806 z"
     transform="matrix(0.9801,0,0,0.9801,0.21216419,0.13941327)" />
  <metadata
     id="metadata1">
    <rdf:RDF>
      <cc:Work
         rdf:about="">
        <dc:title>close - material</dc:title>
      </cc:Work>
    </rdf:RDF>
  </metadata>
</svg>
