<?xml version="1.0" encoding="UTF-8" standalone="no"?>
<svg
   width="18px"
   height="18px"
   viewBox="0 0 18 18"
   version="1.1"
   id="svg1"
   sodipodi:docname="ico_play.svg"
   inkscape:version="1.3.2 (091e20e, 2023-11-25, custom)"
   xmlns:inkscape="http://www.inkscape.org/namespaces/inkscape"
   xmlns:sodipodi="http://sodipodi.sourceforge.net/DTD/sodipodi-0.dtd"
   xmlns="http://www.w3.org/2000/svg"
   xmlns:svg="http://www.w3.org/2000/svg">
  <sodipodi:namedview
     id="namedview1"
     pagecolor="#ffffff"
     bordercolor="#000000"
     borderopacity="0.25"
     inkscape:showpageshadow="2"
     inkscape:pageopacity="0.0"
     inkscape:pagecheckerboard="0"
     inkscape:deskcolor="#d1d1d1"
     inkscape:zoom="65.166667"
     inkscape:cx="8.9923274"
     inkscape:cy="9"
     inkscape:window-width="2560"
     inkscape:window-height="1369"
     inkscape:window-x="-8"
     inkscape:window-y="-8"
     inkscape:window-maximized="1"
     inkscape:current-layer="svg1" />
  <!-- Generator: Sketch 49 (51002) - http://www.bohemiancoding.com/sketch -->
  <title
     id="title1">play_circle_outline - material</title>
  <desc
     id="desc1">Created with Sketch.</desc>
  <defs
     id="defs1">
    <inkscape:path-effect
       effect="spiro"
       id="path-effect6"
       is_visible="true"
       lpeversion="1" />
    <inkscape:path-effect
       effect="spiro"
       id="path-effect5"
       is_visible="true"
       lpeversion="1" />
    <inkscape:path-effect
       effect="spiro"
       id="path-effect3"
       is_visible="true"
       lpeversion="1" />
    <inkscape:path-effect
       effect="spiro"
       id="path-effect2"
       is_visible="true"
       lpeversion="1" />
    <inkscape:path-effect
       effect="spiro"
       id="path-effect1"
       is_visible="true"
       lpeversion="1" />
  </defs>
  <path
     style="fill:none;fill-opacity:0.501961;stroke:#3490e6;stroke-width:1.579;stroke-opacity:1;stroke-dasharray:none"
     d="m 7.8107417,16.419437 c -0.4244925,-0.0862 -0.8446391,-0.1938 -1.258312,-0.32225 C 6.3217737,16.025566 6.0894045,15.945602 5.8925831,15.805627 5.8038502,15.742522 5.7237133,15.668123 5.6470588,15.590793 5.3915061,15.33299 5.1728914,15.041572 4.9411765,14.762148 4.7030221,14.474958 4.4505033,14.199862 4.1892583,13.933504 4.1201557,13.863049 4.0492617,13.791587 4.0051151,13.703325 3.9688824,13.630885 3.9523974,13.550502 3.9283887,13.473146 3.8990944,13.37876 3.8583946,13.288399 3.8209719,13.196931 3.7045354,12.91234 3.6177564,12.612366 3.4526854,12.352941 3.3056043,12.121789 3.1024268,11.932601 2.8995438,11.748475 2.6966608,11.564348 2.4897751,11.380337 2.3324808,11.15601 2.1732126,10.928868 2.0696615,10.667177 1.9181586,10.434783 1.7730286,10.212165 1.5840128,10.016452 1.4731458,9.7749361 1.3398876,9.4846423 1.3313292,9.1554765 1.2890026,8.8388747 1.2274661,8.3785827 1.0901212,7.9159068 1.1662404,7.4578005 1.2071976,7.2113089 1.3084558,6.9794328 1.4117647,6.7519182 1.5557599,6.4348013 1.7063827,6.1188002 1.9028133,5.831202 2.0524244,5.6121532 2.2279677,5.4108386 2.4245524,5.2327366 2.4889888,5.1743584 2.5561997,5.117906 2.6086957,5.0485934 2.6723748,4.9645153 2.7117763,4.8650436 2.7621483,4.7723785 2.8494058,4.6118582 2.9710236,4.4704202 3.1150895,4.3580563 3.3819434,4.1499242 3.7136164,4.0472914 4.0358056,3.943734 4.1299833,3.9134636 4.2245629,3.8825439 4.3120205,3.8363171 4.5532377,3.7088186 4.719407,3.4776442 4.9258312,3.2992327 5.0632854,3.1804317 5.222692,3.0812113 5.3248082,2.9309463 5.3850744,2.8422641 5.4221704,2.7400615 5.4538137,2.6376152 5.4854571,2.5351689 5.5123996,2.4308822 5.5549872,2.3324808 5.6485114,2.1163871 5.8160429,1.9361284 6.0153453,1.8107417 6.2105405,1.687939 6.4344613,1.6162146 6.6615312,1.5759539 6.8886011,1.5356933 7.1198685,1.525848 7.3503836,1.5191816 8.1371855,1.4964276 8.942525,1.512708 9.6828645,1.7800512 c 0.1948999,0.07038 0.3839205,0.1577484 0.5831205,0.2148337 0.151317,0.043363 0.307451,0.068928 0.457631,0.116079 0.150181,0.047151 0.297609,0.1187878 0.401704,0.2368622 0.06993,0.07932 0.117151,0.1759548 0.156905,0.2739407 0.03975,0.097986 0.07298,0.1987808 0.11931,0.2938342 0.06164,0.1264622 0.145431,0.2406472 0.230179,0.3529412 0.332251,0.4402439 0.688679,0.8656831 1.104859,1.2276215 0.147868,0.1285961 0.305322,0.25147 0.414322,0.4143222 0.09432,0.1409235 0.148257,0.306105 0.245524,0.4450128 0.142351,0.2032916 0.366849,0.33474 0.597932,0.4252478 0.231083,0.090508 0.474521,0.1461906 0.706416,0.2345988 0.221597,0.084482 0.432956,0.1995342 0.613811,0.3529411 0.193739,0.1643347 0.348513,0.3687422 0.506394,0.567775 0.07449,0.093911 0.150071,0.1870437 0.230179,0.2762148 0.109507,0.1218967 0.227492,0.2364097 0.329374,0.3647472 0.101883,0.1283375 0.188304,0.2730727 0.223056,0.4332068 0.02397,0.110452 0.02268,0.2248117 0.01534,0.3375959 -0.01902,0.2921833 -0.07758,0.5885712 -0.01534,0.8746803 0.02272,0.104407 0.06108,0.2046475 0.09207,0.3069054 0.06462,0.2132565 0.09709,0.4398947 0.06138,0.6598462 -0.04581,0.282141 -0.19897,0.533281 -0.306905,0.797954 -0.125816,0.308522 -0.190759,0.638093 -0.245524,0.966752 -0.02434,0.146042 -0.04737,0.294338 -0.107417,0.429668 -0.06438,0.145079 -0.16868,0.268937 -0.281693,0.380384 -0.113013,0.111447 -0.235952,0.212548 -0.347463,0.325498 -0.206051,0.20871 -0.370123,0.454825 -0.521739,0.705882 -0.0499,0.08263 -0.09865,0.16606 -0.153453,0.245525 -0.183306,0.265814 -0.429582,0.480932 -0.675192,0.690537 -0.201145,0.171658 -0.404321,0.342259 -0.58312,0.537084 -0.152557,0.166231 -0.292127,0.353884 -0.491049,0.460358 -0.222055,0.118856 -0.485395,0.119532 -0.736573,0.138108 -0.46401,0.03431 -0.919778,0.138751 -1.381074,0.199488 -0.153499,0.02021 -0.307697,0.03559 -0.460358,0.06138 -0.290558,0.04908 -0.5833085,0.136062 -0.8746802,0.09207 -0.1031911,-0.01558 -0.2034851,-0.0474 -0.3069053,-0.06138 -0.1319675,-0.01784 -0.2661189,-0.0063 -0.398977,-0.01534 -0.10776,-0.0074 -0.2179522,-0.02807 -0.3222507,0 -0.046884,0.01262 -0.090874,0.03478 -0.1381074,0.04603 -0.064983,0.01547 -0.1329355,0.0096 -0.1994885,0.01535 -0.084286,0.0073 -0.1658037,0.03307 -0.2455243,0.06138 -0.069569,0.0247 -0.1412397,0.05187 -0.2148337,0.04603 -0.02135,-0.0017 -0.042516,-0.0062 -0.063932,-0.0059 -0.010708,1.14e-4 -0.02147,0.0014 -0.031639,0.0048 -0.010169,0.0034 -0.019748,0.0088 -0.027191,0.01652 -0.011411,0.0118 -0.017242,0.02878 -0.015487,0.04511 0.00176,0.01632 0.011063,0.03168 0.024723,0.04078 0.01366,0.0091 0.031413,0.01179 0.047155,0.0071 0.015742,-0.0047 0.029176,-0.01657 0.035681,-0.03164"
     id="path1"
     inkscape:path-effect="#path-effect1"
     inkscape:original-d="M 7.8107417,16.419437 C 7.3814533,16.357027 6.9609978,16.241888 6.5524297,16.097187 6.3949356,16.041408 6.039103,15.903307 5.8925831,15.805627 5.8020991,15.745304 5.7230456,15.668589 5.6470588,15.590793 5.1724499,15.104884 5.3448467,15.234738 4.9411765,14.762148 4.697175,14.476488 4.4298741,14.222243 4.1892583,13.933504 4.1263553,13.85802 4.0535574,13.788811 4.0051151,13.703325 3.9652419,13.63296 3.9560278,13.549153 3.9283887,13.473146 3.8946284,13.380305 3.8543093,13.289925 3.8209719,13.196931 3.6508469,12.722372 3.7009735,12.71158 3.4526854,12.352941 3.1376687,11.897917 2.6624531,11.595973 2.3324808,11.15601 2.1652453,10.93303 2.0688703,10.668386 1.9181586,10.434783 1.7767284,10.215566 1.5866196,10.01134 1.4731458,9.7749361 1.3481445,9.5145167 1.3420858,9.1255239 1.2890026,8.8388747 1.1922592,8.3164608 1.0787278,7.9828759 1.1662404,7.4578005 1.2084931,7.2042843 1.3146458,6.9866221 1.4117647,6.7519182 1.5414457,6.4385223 1.6898513,6.0974045 1.9028133,5.831202 2.0528514,5.6436544 2.2500345,5.414526 2.4245524,5.2327366 2.4846683,5.1701159 2.5573618,5.1185941 2.6086957,5.0485934 2.6709817,4.9636578 2.7098919,4.8638272 2.7621483,4.7723785 2.8584095,4.6039216 2.9519077,4.4690199 3.1150895,4.3580563 3.3972545,4.1661841 3.7197929,4.0641198 4.0358056,3.943734 4.1281225,3.9085657 4.2251153,3.8832929 4.3120205,3.8363171 4.5977105,3.6818901 4.7052076,3.5088251 4.9258312,3.2992327 4.9983977,3.2302945 5.2790437,2.9835754 5.3248082,2.9309463 5.4527861,2.7837716 5.4945278,2.5138589 5.5549872,2.3324808 5.6336259,2.0965648 5.7964717,1.9285967 6.0153453,1.8107417 6.4743652,1.5635771 6.8399162,1.5275499 7.3503836,1.5191816 c 0.7868581,-0.012899 1.5712953,0.048446 2.3324809,0.2608696 0.1137906,0.031756 0.4931525,0.1821184 0.5831205,0.2148337 0.264441,0.096161 0.629815,0.1808011 0.859335,0.3529412 0.163792,0.1228442 0.180055,0.39294 0.276215,0.5677749 0.06769,0.1230694 0.14811,0.2389567 0.230179,0.3529412 0.380386,0.5283151 0.57261,0.6817255 1.104859,1.2276215 0.136348,0.1398444 0.286258,0.2668542 0.414322,0.4143222 0.109971,0.1266331 0.135675,0.3157784 0.245524,0.4450128 0.30958,0.3642109 0.887504,0.4608983 1.304348,0.6598466 0.265272,0.126607 0.410571,0.1884133 0.613811,0.3529411 0.203516,0.1647512 0.343944,0.3647131 0.506394,0.567775 0.07487,0.093587 0.154061,0.1836393 0.230179,0.2762148 0.141408,0.1719833 0.475947,0.5430133 0.55243,0.797954 0.01954,0.065127 0.01763,0.2804391 0.01534,0.3375959 -0.0063,0.1577551 -0.05567,0.6500227 -0.01534,0.8746803 0.01887,0.1051263 0.06806,0.2028343 0.09207,0.3069054 0.03451,0.1495531 0.09158,0.5012942 0.06138,0.6598462 -0.0541,0.284036 -0.227727,0.520831 -0.306905,0.797954 -0.09134,0.319689 -0.164053,0.644408 -0.245524,0.966752 -0.03618,0.14313 -0.05754,0.290719 -0.107417,0.429668 -0.06614,0.184243 -0.488209,0.542384 -0.629156,0.705882 -0.185326,0.214978 -0.362273,0.47048 -0.521739,0.705882 -0.05413,0.0799 -0.09595,0.168017 -0.153453,0.245525 -0.190395,0.25662 -0.442047,0.474661 -0.675192,0.690537 -0.193902,0.179539 -0.390334,0.356348 -0.58312,0.537084 -0.143057,0.134116 -0.310501,0.390469 -0.491049,0.460358 -0.301909,0.116869 -0.402712,0.09638 -0.736573,0.138108 -0.461986,0.05775 -0.91924,0.139897 -1.381074,0.199488 -0.153538,0.01981 -0.30701,0.04015 -0.460358,0.06138 -0.183468,0.0254 -0.6347832,0.123026 -0.8746802,0.09207 -0.1034699,-0.01335 -0.2036877,-0.0462 -0.3069053,-0.06138 -0.1340858,-0.01972 -0.2644221,-0.01534 -0.398977,-0.01534 -0.1037865,0 -0.2186034,-0.01152 -0.3222507,0 -0.051268,0.0057 -0.090723,0.03927 -0.1381074,0.04603 -0.2922965,0.04176 0.2297519,-0.0705 -0.1994885,0.01535 -0.082722,0.01654 -0.1630894,0.04346 -0.2455243,0.06138 -0.071565,0.01556 -0.1431677,0.03095 -0.2148337,0.04603 -0.00131,2.75e-4 -0.1214393,0.01402 -0.1227622,0.01535 -0.021644,0.02164 0.092072,0.0387 0.092072,0.06138" />
  <path
     style="fill:none;fill-opacity:0.501961;stroke:#3490e6;stroke-width:1.579;stroke-dasharray:none;stroke-opacity:1"
     d="M 7.7186701,16.496164 8.2710997,16.358056"
     id="path2"
     inkscape:path-effect="#path-effect2"
     inkscape:original-d="M 7.7186701,16.496164 C 7.8745086,16.371431 8.0851444,16.395247 8.2710997,16.358056" />
  <path
     style="fill:#3490e6;fill-opacity:1;stroke:#3490e6;stroke-width:1.579;stroke-dasharray:none;stroke-opacity:1"
     d="m 7.3503836,11.953964 c 0.00196,-0.06238 0.012309,-0.124497 0.030691,-0.184143 0.02297,-0.07453 0.058179,-0.144592 0.092072,-0.214834 0.056881,-0.117882 0.1106785,-0.237871 0.1466359,-0.363723 0.035957,-0.125852 0.053737,-0.258317 0.037507,-0.388195 -0.024923,-0.199443 -0.127318,-0.37975 -0.230179,-0.55243 C 7.37524,10.16356 7.3217194,10.074282 7.3043478,9.9744246 7.2863103,9.8707392 7.3089103,9.764298 7.3398159,9.6636956 7.3707215,9.5630931 7.4101704,9.4644842 7.42711,9.3606138 7.4537715,9.1971303 7.4232243,9.0297559 7.3810742,8.8695652 7.3538718,8.766183 7.3217601,8.6638814 7.3027813,8.5586785 7.2838026,8.4534756 7.2783007,8.3440885 7.3043478,8.2404092 7.329606,8.13987 7.383419,8.0485618 7.4117647,7.9488491 7.4274175,7.8937868 7.4351136,7.8368223 7.4424557,7.7800512 7.4562816,7.6731457 7.4690354,7.5650093 7.4578007,7.4578005 7.4436723,7.322978 7.3920229,7.1939414 7.3810747,7.0588235 7.366324,6.8767769 7.4259786,6.6981866 7.4731467,6.5217391 c 0.02245,-0.08398 0.04231,-0.1694218 0.044535,-0.2563221 0.00222,-0.0869 -0.014209,-0.1761068 -0.05988,-0.2500717 -0.00888,-0.014375 -0.018933,-0.028381 -0.023798,-0.04456 -0.00243,-0.00809 -0.0035,-0.016676 -0.00229,-0.025036 0.00121,-0.00836 0.00479,-0.016486 0.010746,-0.022475 0.00407,-0.0041 0.00913,-0.0071 0.014406,-0.00945 0.00528,-0.00235 0.010806,-0.00407 0.016285,-0.0059 0.1131138,-0.037742 0.2074015,-0.1213763 0.3222506,-0.1534527 0.049719,-0.013886 0.1018803,-0.017601 0.1534527,-0.015345 0.2058838,0.00901 0.3982408,0.1120067 0.5544821,0.2463865 0.1562412,0.1343799 0.2820848,0.2997425 0.4122698,0.4594959 0.044012,0.054009 0.088917,0.1079004 0.1227622,0.1687979 0.033359,0.060022 0.055494,0.1260273 0.092072,0.1841433 0.040907,0.064993 0.098706,0.1182266 0.1381074,0.1841432 0.017613,0.029466 0.031302,0.061066 0.046036,0.092072 0.063537,0.1337035 0.1472817,0.2575528 0.2455243,0.3682864 0.1736677,0.1957486 0.3920148,0.3497147 0.6291562,0.4603581 0.116265,0.054246 0.237085,0.098337 0.352941,0.1534527 0.111752,0.053164 0.2194,0.1167826 0.337596,0.1534527 0.06044,0.018752 0.122876,0.030196 0.184144,0.046036 0.114354,0.029565 0.224213,0.074321 0.337596,0.1074169 0.09335,0.027249 0.19006,0.046965 0.276213,0.092072 0.03472,0.018177 0.06859,0.040751 0.107417,0.046036 0.0203,0.00276 0.0409,6.018e-4 0.06138,0 0.07723,-0.00227 0.153288,0.016613 0.229517,0.029202 0.07623,0.012589 0.153579,0.016834 0.230841,0.016834 h 0.122763 0.07673 c 0.0026,0 0.0052,-2.394e-4 0.0077,-6.245e-4 0.0013,-1.926e-4 0.0026,-3.776e-4 0.0039,-3.494e-4 0.0013,2.82e-5 0.0026,2.871e-4 0.0037,9.739e-4 0.001,6.373e-4 0.0018,0.00163 0.0022,0.00275 4.39e-4,0.00112 5.36e-4,0.00237 3.31e-4,0.00355 -4.11e-4,0.00237 -0.002,0.00443 -0.004,0.00578 -0.002,0.00135 -0.0044,0.00205 -0.0067,0.00245 -0.0024,4.024e-4 -0.0048,5.228e-4 -0.0072,8.138e-4 -0.01511,0.00184 -0.02881,0.010544 -0.03893,0.021911 -0.01012,0.011367 -0.01699,0.025266 -0.02245,0.03947 -0.01338,0.034771 -0.019,0.07204 -0.03069,0.1074169 -0.02563,0.077566 -0.0793,0.1427902 -0.138107,0.1994885 -0.253495,0.2444002 -0.60369,0.3531424 -0.920716,0.5063939 -0.09513,0.045984 -0.189117,0.096898 -0.29156,0.1227621 -0.04732,0.011947 -0.09747,0.019007 -0.138108,0.046036 -0.02132,0.014179 -0.03913,0.033366 -0.06138,0.046036 -0.01415,0.00806 -0.02989,0.013303 -0.04604,0.015345 -0.02124,0.00856 -0.04179,0.018833 -0.06138,0.030691 -0.09321,0.056422 -0.161071,0.1459926 -0.245524,0.2148338 -0.05394,0.043969 -0.114449,0.079299 -0.168798,0.1227626 -0.0594,0.04751 -0.11082,0.104218 -0.168798,0.153452 -0.120938,0.1027 -0.267455,0.170439 -0.4156237,0.227178 -0.1481687,0.05674 -0.3003162,0.103893 -0.4437108,0.171799 -0.062025,0.02937 -0.1221968,0.06253 -0.1841432,0.09207 -0.134473,0.06412 -0.2784834,0.111875 -0.398977,0.199488 -0.118299,0.08602 -0.210127,0.211024 -0.2455243,0.352942 -0.00393,0.01575 -0.00728,0.03195 -0.015345,0.04603 -0.010855,0.01895 -0.029129,0.03222 -0.046036,0.04604 -0.098589,0.0806 -0.163045,0.194535 -0.2455243,0.29156 -0.052086,0.06127 -0.1126077,0.116713 -0.1841432,0.153453 -0.033791,0.01736 -0.069629,0.03034 -0.1042255,0.04603 -0.034596,0.01569 -0.068463,0.03446 -0.095263,0.06139 -0.010216,0.01026 -0.019365,0.02167 -0.03069,0.03069 -0.013514,0.01077 -0.02973,0.01778 -0.046443,0.02216 -0.016713,0.0044 -0.033982,0.0062 -0.051215,0.0075 -0.034465,0.0025 -0.070024,0.0029 -0.1018302,0.01639 -0.027488,0.01168 -0.05017,0.03238 -0.076733,0.04603 -0.037685,0.01937 -0.080994,0.02357 -0.1227621,0.03069 -0.00766,0.0013 -0.015332,0.0027 -0.023096,0.0031 -0.00776,3.8e-4 -0.015686,-3.11e-4 -0.02294,-0.0031 -0.010182,-0.0039 -0.018672,-0.01204 -0.023036,-0.02204 -0.00436,-0.01 -0.00455,-0.02175 -4.948e-4,-0.03188 0.00405,-0.01013 0.012285,-0.01851 0.022341,-0.02274 0.010055,-0.0042 0.021805,-0.0043 0.03188,-7.3e-5 z"
     id="path5"
     inkscape:path-effect="#path-effect5"
     inkscape:original-d="m 7.3503836,11.953964 c 0.01023,-0.06138 0.01239,-0.124667 0.030691,-0.184143 0.022912,-0.07447 0.063946,-0.142177 0.092072,-0.214834 0.082686,-0.213605 0.1841432,-0.51978 0.1841432,-0.751918 0,-0.215442 -0.1181609,-0.380094 -0.230179,-0.55243 C 7.3649545,10.155016 7.2992452,10.096887 7.3043478,9.9744246 7.3130591,9.7653533 7.4195899,9.5711764 7.42711,9.3606138 7.4302752,9.2719884 7.3930415,8.946156 7.3810742,8.8695652 7.3493581,8.6665825 7.2730256,8.4492238 7.3043478,8.2404092 c 0.012067,-0.080447 0.086357,-0.2178491 0.1074169,-0.2915601 0.015711,-0.054988 0.022603,-0.1121843 0.030691,-0.1687979 0.012806,-0.089639 0.024253,-0.2331731 0.015345,-0.3222507 -0.013719,-0.1371933 -0.087621,-0.257348 -0.076726,-0.398977 0.013981,-0.1817517 0.081913,-0.3542211 0.092072,-0.5370844 0.0085,-0.1529432 0.022197,-0.3562245 -0.015345,-0.5063938 -0.00501,-0.020039 -0.035666,-0.071751 -0.015345,-0.092072 0.00809,-0.00809 0.02154,-0.00848 0.030691,-0.015345 0.1060187,-0.079514 0.1836876,-0.1371512 0.3222506,-0.1534527 0.051054,-0.00601 0.1023611,-0.021022 0.1534527,-0.015345 0.4857884,0.053977 0.7087034,0.3349377 0.9667519,0.7058824 0.03973,0.057113 0.086588,0.109369 0.1227622,0.1687979 0.035682,0.05862 0.0557,0.1259484 0.092072,0.1841433 0.040665,0.065064 0.095547,0.120303 0.1381074,0.1841432 0.019033,0.02855 0.028143,0.062793 0.046036,0.092072 0.076936,0.1258947 0.1523262,0.2539069 0.2455243,0.3682864 0.2162113,0.2653502 0.3309342,0.3163889 0.6291562,0.4603581 0.633772,0.3059588 -0.2258971,-0.094621 0.352941,0.1534527 0.194328,0.083283 0.122292,0.081684 0.337596,0.1534527 0.06002,0.020008 0.123615,0.027614 0.184144,0.046036 0.112974,0.034384 0.225064,0.071611 0.337596,0.1074169 0.09248,0.029426 0.184143,0.061381 0.276213,0.092072 0.03696,0.012319 0.06922,0.038396 0.107417,0.046036 0.102302,0.02046 0.01364,-0.00682 0.06138,0 0.153087,0.02187 0.305392,0.046036 0.460358,0.046036 0.04092,0 0.08184,0 0.122763,0 0.02557,0 0.05115,0 0.07673,0 0.0051,0 0.01534,-0.00512 0.01534,0 0,0.00723 -0.01023,0.01023 -0.01534,0.015345 -0.02046,0.02046 -0.04331,0.038786 -0.06138,0.061381 -0.02326,0.029078 -0.01404,0.07411 -0.03069,0.1074169 -0.03415,0.068293 -0.07503,0.1490241 -0.138107,0.1994885 -0.323499,0.2587987 -0.493499,0.3199723 -0.920716,0.5063939 -0.09665,0.042174 -0.193412,0.084204 -0.29156,0.1227621 -0.04517,0.017744 -0.09405,0.025701 -0.138108,0.046036 -0.02322,0.010718 -0.03918,0.033347 -0.06138,0.046036 -0.01404,0.00803 -0.03069,0.01023 -0.04604,0.015345 -0.02046,0.01023 -0.04198,0.018567 -0.06138,0.030691 -0.09517,0.059481 -0.159623,0.1461129 -0.245524,0.2148338 -0.159576,0.1276606 -0.02753,-0.00438 -0.168798,0.1227626 -0.09194,0.08275 -0.06334,0.07812 -0.168798,0.153452 -0.2619578,0.187113 -0.5669566,0.274938 -0.8593345,0.398977 -0.063176,0.0268 -0.1218335,0.06331 -0.1841432,0.09207 -0.1967356,0.0908 -0.2236163,0.0795 -0.398977,0.199488 -0.1397829,0.09564 -0.1810899,0.207964 -0.2455243,0.352942 -0.00657,0.01478 -0.00637,0.03258 -0.015345,0.04603 -0.012038,0.01806 -0.031913,0.02956 -0.046036,0.04604 -0.083241,0.09711 -0.143592,0.210014 -0.2455243,0.29156 -0.052153,0.04172 -0.1312872,0.118216 -0.1841432,0.153453 -0.057984,0.03866 -0.1482579,0.05619 -0.1994885,0.107417 -0.036232,0.03623 0.085592,-0.0081 -0.03069,0.03069 -0.063698,0.02123 -0.135105,0.02994 -0.1994885,0.04604 C 7.5329433,11.962033 7.4995554,12 7.488491,12 7.440528,12 7.41692,12.03069 7.3657289,12.03069 c -0.015345,0 -0.049045,0.01505 -0.046036,0 0.0054,-0.02701 0.02046,-0.05115 0.03069,-0.07673 z" />
  <path
     style="fill:#3490e6;fill-opacity:1;stroke:#3490e6;stroke-width:1.579;stroke-dasharray:none;stroke-opacity:1"
     d="m 7.887468,16.373402 c 0.040754,-0.01088 0.081682,-0.02111 0.1227622,-0.03069 0.1967563,-0.04587 0.397021,-0.07668 0.5984655,-0.09207"
     id="path6"
     inkscape:path-effect="#path-effect6"
     inkscape:original-d="m 7.887468,16.373402 c 0.040921,-0.01023 0.082032,-0.01972 0.1227622,-0.03069 0.2791956,-0.07517 0.346141,-0.09207 0.5984655,-0.09207" />
</svg>
