<?xml version="1.0" encoding="UTF-8" standalone="no"?>
<svg
   width="38px"
   height="38px"
   viewBox="0 0 38 38"
   version="1.1"
   id="svg13"
   sodipodi:docname="ico_forum.svg"
   inkscape:version="1.3.2 (091e20e, 2023-11-25, custom)"
   xmlns:inkscape="http://www.inkscape.org/namespaces/inkscape"
   xmlns:sodipodi="http://sodipodi.sourceforge.net/DTD/sodipodi-0.dtd"
   xmlns="http://www.w3.org/2000/svg"
   xmlns:svg="http://www.w3.org/2000/svg">
  <sodipodi:namedview
     id="namedview13"
     pagecolor="#ffffff"
     bordercolor="#000000"
     borderopacity="0.25"
     inkscape:showpageshadow="2"
     inkscape:pageopacity="0.0"
     inkscape:pagecheckerboard="0"
     inkscape:deskcolor="#d1d1d1"
     inkscape:zoom="30.868421"
     inkscape:cx="18.983802"
     inkscape:cy="19"
     inkscape:window-width="2560"
     inkscape:window-height="1369"
     inkscape:window-x="-8"
     inkscape:window-y="-8"
     inkscape:window-maximized="1"
     inkscape:current-layer="svg13" />
  <!-- Generator: Sketch 49 (51002) - http://www.bohemiancoding.com/sketch -->
  <title
     id="title1">Group 3</title>
  <desc
     id="desc1">Created with Sketch.</desc>
  <defs
     id="defs1">
    <inkscape:path-effect
       effect="spiro"
       id="path-effect35"
       is_visible="true"
       lpeversion="1" />
    <inkscape:path-effect
       effect="spiro"
       id="path-effect34"
       is_visible="true"
       lpeversion="1" />
    <inkscape:path-effect
       effect="spiro"
       id="path-effect33"
       is_visible="true"
       lpeversion="1" />
    <inkscape:path-effect
       effect="spiro"
       id="path-effect32"
       is_visible="true"
       lpeversion="1" />
    <inkscape:path-effect
       effect="spiro"
       id="path-effect31"
       is_visible="true"
       lpeversion="1" />
    <inkscape:path-effect
       effect="spiro"
       id="path-effect30"
       is_visible="true"
       lpeversion="1" />
    <inkscape:path-effect
       effect="spiro"
       id="path-effect29"
       is_visible="true"
       lpeversion="1" />
    <inkscape:path-effect
       effect="spiro"
       id="path-effect28"
       is_visible="true"
       lpeversion="1" />
    <inkscape:path-effect
       effect="spiro"
       id="path-effect27"
       is_visible="true"
       lpeversion="1" />
    <inkscape:path-effect
       effect="spiro"
       id="path-effect26"
       is_visible="true"
       lpeversion="1" />
    <inkscape:path-effect
       effect="spiro"
       id="path-effect25"
       is_visible="true"
       lpeversion="1" />
    <inkscape:path-effect
       effect="spiro"
       id="path-effect24"
       is_visible="true"
       lpeversion="1" />
    <inkscape:path-effect
       effect="spiro"
       id="path-effect23"
       is_visible="true"
       lpeversion="1" />
    <inkscape:path-effect
       effect="spiro"
       id="path-effect22"
       is_visible="true"
       lpeversion="1" />
    <inkscape:path-effect
       effect="spiro"
       id="path-effect21"
       is_visible="true"
       lpeversion="1" />
    <inkscape:path-effect
       effect="spiro"
       id="path-effect20"
       is_visible="true"
       lpeversion="1" />
    <inkscape:path-effect
       effect="spiro"
       id="path-effect19"
       is_visible="true"
       lpeversion="1" />
    <inkscape:path-effect
       effect="spiro"
       id="path-effect18"
       is_visible="true"
       lpeversion="1" />
    <inkscape:path-effect
       effect="spiro"
       id="path-effect17"
       is_visible="true"
       lpeversion="1" />
    <inkscape:path-effect
       effect="spiro"
       id="path-effect16"
       is_visible="true"
       lpeversion="1" />
    <inkscape:path-effect
       effect="spiro"
       id="path-effect15"
       is_visible="true"
       lpeversion="1" />
    <inkscape:path-effect
       effect="spiro"
       id="path-effect14"
       is_visible="true"
       lpeversion="1" />
  </defs>
  <path
     style="fill:none;stroke:#95aabf;stroke-width:1.079;stroke-opacity:1"
     d="M 2.5916454,13.44416 C 2.3435057,13.383751 2.1120432,13.256233 1.9283953,13.078762 1.7447474,12.901291 1.6093888,12.674325 1.5405288,12.428396 c -0.06886,-0.245928 -0.071043,-0.510184 -0.00626,-0.757216 0.064787,-0.247033 0.1963762,-0.476205 0.3770664,-0.656687 0.2953114,-0.294971 0.7059011,-0.449108 1.1171368,-0.520534 0.4112356,-0.07143 0.8312064,-0.06821 1.2477396,-0.09498 0.4773459,-0.03068 0.9515778,-0.100895 1.4291231,-0.128294 0.4775452,-0.0274 0.9640192,-0.01078 1.4216868,0.128294 0.4028589,0.122416 0.7805955,0.338517 1.198636,0.388747 0.2746405,0.033 0.5608886,-0.0066 0.8231546,0.08129 0.1311329,0.04397 0.2544301,0.122079 0.3315828,0.236868 0.038576,0.05739 0.064991,0.123331 0.073657,0.19194 0.00867,0.06861 -7.562e-4,0.139823 -0.029758,0.202602 -0.029112,0.06302 -0.076711,0.115818 -0.1287977,0.161704 -0.052087,0.04589 -0.1091503,0.08576 -0.1627624,0.129856 -0.2920451,0.240198 -0.4670291,0.591712 -0.6155158,0.939472 -0.043504,0.101887 -0.085827,0.205088 -0.1462632,0.297937 -0.060436,0.09285 -0.1410322,0.175883 -0.2424836,0.220392 -0.031303,0.01373 -0.064148,0.02363 -0.097187,0.0324 -0.1478647,0.03924 -0.3007849,0.05638 -0.4535379,0.06479 C 7.1145129,13.377967 6.5523315,13.291855 5.9931799,13.217391 4.863016,13.066883 3.7272084,12.963117 2.5916454,12.86104 2.2339886,12.82889 1.8756922,12.796818 1.5225916,12.731458 c -0.054144,-0.01002 -0.1081443,-0.02082 -0.1619778,-0.0324"
     id="path14"
     inkscape:path-effect="#path-effect14"
     inkscape:original-d="m 2.5916454,13.44416 c -0.1715643,-0.583125 -1.098857,-1.899504 -0.680307,-2.429667 0.4178175,-0.529236 1.8100137,-0.571127 2.3648764,-0.615516 0.6897587,-0.05518 2.1348985,-0.149593 2.8508099,0 0.4111533,0.08591 0.8098754,0.229708 1.198636,0.388747 0.5100439,0.208654 0.8471468,0.361213 1.198636,0.712702 0.053055,0.05306 -0.2818688,0.280792 -0.2915601,0.29156 -0.1915768,0.212863 -0.4599272,0.680157 -0.6155158,0.939472 -0.079715,0.132858 -0.2788449,0.426744 -0.3887468,0.518329 -0.026233,0.02186 -0.066644,0.01712 -0.097187,0.0324 -0.2502235,0.125112 0.1071125,0.08178 -0.4535379,0.06479 C 6.9307648,13.324338 6.8033571,13.304641 5.9931799,13.217391 4.8598586,13.095341 3.7245403,12.98495 2.5916454,12.86104 2.2348139,12.82201 1.8745804,12.80186 1.5225916,12.731458 c -0.1961257,-0.03923 -0.013422,-0.0324 -0.1619778,-0.0324"
     inkscape:label="path14" />
  <path
     style="fill:none;stroke:#95aabf;stroke-width:1.079;stroke-opacity:1"
     d="m 4.6325661,7.483376 c -0.043925,0.1357692 -0.043925,0.2853731 0,0.4211423 0.065451,0.2023037 0.2248342,0.3658908 0.4124299,0.4659828 0.1875957,0.1000921 0.4017461,0.1414956 0.6140891,0.1524972 0.4246859,0.022003 0.8539652,-0.072082 1.2735662,-0.00296 0.1402161,0.023097 0.2780692,0.064304 0.4200499,0.070262 0.07099,0.00298 0.142887,-0.00307 0.2107081,-0.024253 0.067821,-0.021185 0.1315385,-0.058041 0.1791312,-0.1107996 0.053696,-0.059525 0.084736,-0.1365452 0.1018845,-0.2148549 0.017148,-0.07831 0.021358,-0.158769 0.027698,-0.2386832 C 7.8978316,7.6776263 7.9594449,7.3541531 7.9369139,7.029838 7.9110646,6.6577585 7.7725014,6.2960847 7.5541006,5.9937398 7.3356998,5.6913949 7.039084,5.4480724 6.7058824,5.2804774 6.3643608,5.1086976 5.985782,5.0157186 5.6044331,4.9889173 5.1590065,4.9576126 4.7041156,5.0168643 4.2921641,5.1891454 3.8802125,5.3614265 3.513011,5.649709 3.2719523,6.0255754 3.2036134,6.1321317 3.1448169,6.2470932 3.1203547,6.3712949 c -0.024462,0.1242017 -0.011868,0.2591335 0.054411,0.366983 0.037073,0.060324 0.090141,0.1107178 0.1523012,0.1446231 0.06216,0.033905 0.1332603,0.051241 0.20405,0.04975"
     id="path15"
     inkscape:path-effect="#path-effect15"
     inkscape:original-d="m 4.6325661,7.483376 c 0.024223,0.1235789 -0.1060303,0.3069559 0,0.4211423 0.5824738,0.6272795 1.5135025,0.595347 2.3000852,0.6155158 0.1561766,0.004 0.6487446,0.056067 0.8098892,-0.064791 C 7.817053,8.3993586 7.8720044,8.0022575 7.8721228,8.001705 7.9215581,7.7710066 7.9868956,7.263086 7.9369139,7.029838 7.7847959,6.3199542 7.3597045,5.6307393 6.7058824,5.2804774 6.4019291,5.1176453 5.9435998,5.0088683 5.6044331,4.9889173 4.9004539,4.9475068 3.6669918,5.4178223 3.2719523,6.0255754 3.2028243,6.1319261 3.04666,6.5959384 3.1747656,6.7382779 3.2828113,6.8583287 3.3976465,6.8881612 3.5311168,6.9326513" />
  <path
     style="fill:none;stroke:#95aabf;stroke-width:1.079;stroke-opacity:1"
     d="m 29.091219,14.739983 c -0.796563,-0.399128 -1.515615,-0.952245 -2.105712,-1.619778 -0.08164,-0.09235 -0.161112,-0.187241 -0.226769,-0.29156 -0.09777,-0.155342 -0.16441,-0.334797 -0.161978,-0.51833 0.0021,-0.157407 0.0551,-0.311709 0.137376,-0.445918 0.08227,-0.134209 0.192975,-0.249299 0.314372,-0.349517 0.242796,-0.200437 0.527996,-0.343102 0.779284,-0.532783 0.177093,-0.133676 0.336154,-0.289839 0.485933,-0.453538 0.130125,-0.142218 0.254195,-0.291007 0.40007,-0.417019 0.145874,-0.1260125 0.317189,-0.2297054 0.507006,-0.2632877 0.154365,-0.02731 0.313947,-0.00704 0.465194,0.03418 0.151246,0.041219 0.295953,0.1029281 0.441882,0.1601939 0.461736,0.181196 0.939964,0.319261 1.425405,0.421142 0.5457,0.114528 1.099764,0.183345 1.652174,0.259165 0.226945,0.03115 0.453725,0.0635 0.680307,0.09719 0.140098,0.02083 0.285815,0.04181 0.421142,0 0.02729,-0.0084 0.05409,-0.01941 0.08246,-0.02273 0.01418,-0.0017 0.02871,-0.0013 0.04255,0.0022 0.01384,0.0035 0.02699,0.01035 0.03697,0.02056 0.0085,0.0087 0.01449,0.01956 0.01929,0.03073 0.0048,0.01118 0.0085,0.02279 0.01311,0.03405 0.01608,0.03931 0.04271,0.07344 0.07185,0.104333 0.02914,0.0309 0.06106,0.05908 0.09013,0.09004 0.123013,0.131017 0.189258,0.305327 0.233113,0.479609 0.04386,0.174282 0.0684,0.353508 0.123238,0.524653 0.07384,0.230475 0.200422,0.4398 0.323956,0.647912 0.123915,0.208753 0.246124,0.419068 0.388746,0.615516 0.07749,0.106731 0.161121,0.209561 0.226769,0.323955 0.01203,0.02096 0.02346,0.04234 0.0324,0.06479 0.03265,0.08203 0.0299,0.176481 -0.0025,0.258623 -0.03237,0.08214 -0.09318,0.151866 -0.167262,0.199897 -0.07408,0.04803 -0.160936,0.07488 -0.248876,0.08274 -0.08794,0.0079 -0.176979,-0.0029 -0.262238,-0.0258 -0.170517,-0.04588 -0.323966,-0.139032 -0.473152,-0.233501 -0.149186,-0.09447 -0.298711,-0.192383 -0.465778,-0.249564 -0.182374,-0.06242 -0.379611,-0.07364 -0.571209,-0.0525 -0.191598,0.02114 -0.378432,0.07377 -0.56074,0.136384 -0.364618,0.125224 -0.720441,0.292427 -1.103346,0.337262 -0.257656,0.03017 -0.518101,0.0036 -0.777493,0 -0.259201,-0.0036 -0.518754,0.01585 -0.777494,0 -0.108337,-0.0066 -0.216191,-0.01944 -0.323955,-0.0324 -0.345753,-0.04157 -0.691311,-0.08477 -1.036659,-0.129583"
     id="path16"
     inkscape:path-effect="#path-effect16"
     inkscape:original-d="m 29.091219,14.739983 c -0.703859,-0.535735 -1.456742,-1.014073 -2.105712,-1.619778 -0.09001,-0.08401 -0.152895,-0.193063 -0.226769,-0.29156 -0.142845,-0.19046 -0.241095,-0.254605 -0.161978,-0.51833 0.157174,-0.523912 0.848136,-0.981218 1.231032,-1.328218 0.164178,-0.148786 0.326715,-0.299455 0.485933,-0.453538 0.360185,-0.348565 0.44067,-0.578914 0.907076,-0.6803067 0.344757,-0.074947 0.582389,0.083296 0.907076,0.1943737 0.573663,0.196253 0.825006,0.286359 1.425405,0.421142 0.85733,0.192462 0.798034,0.147755 1.652174,0.259165 0.227147,0.02963 0.452122,0.07705 0.680307,0.09719 0.139837,0.01234 0.280762,0 0.421142,0 0.05399,0 0.110756,-0.01707 0.161978,0 0.02291,0.0076 0.01791,0.04547 0.0324,0.06479 0.0506,0.06747 0.117776,0.122546 0.161978,0.194374 0.181371,0.294728 0.22275,0.692527 0.356351,1.004262 0.09512,0.221939 0.20532,0.437603 0.323956,0.647912 0.119227,0.211357 0.255759,0.412534 0.388746,0.615516 0.07224,0.110256 0.153653,0.21428 0.226769,0.323955 0.01339,0.02009 0.05171,0.0503 0.0324,0.06479 -0.137519,0.10314 -1.476916,0.02073 -1.619778,0.0324 -0.753013,0.06147 -1.494538,0.286459 -2.235295,0.421142 -0.275606,0.05011 -0.504108,0.01953 -0.777493,0 -0.257777,-0.01841 -0.519449,0.01434 -0.777494,0 -0.108357,-0.006 -0.215582,-0.02669 -0.323955,-0.0324 -0.429619,-0.02261 -0.643479,0.06701 -1.036659,-0.129583" />
  <path
     style="fill:none;stroke:#95aabf;stroke-width:1.079;stroke-opacity:1"
     d="M 31.520887,9.0707587 C 31.118253,8.9304354 30.735383,8.7335312 30.387042,8.4876385 30.242782,8.3858062 30.102605,8.2737658 29.998295,8.1312873 29.903829,8.002255 29.841007,7.8494818 29.822322,7.6906611 c -0.01868,-0.1588208 0.0074,-0.3233442 0.07879,-0.4664497 0.06208,-0.124469 0.156289,-0.230347 0.259165,-0.3239556 0.359256,-0.3268916 0.821244,-0.5117118 1.263427,-0.7127025 0.352248,-0.1601117 0.70405,-0.3362919 1.085588,-0.4006612 0.190769,-0.032185 0.387868,-0.035418 0.576779,0.00631 0.188912,0.041727 0.369485,0.1298463 0.508136,0.2647701 0.142685,0.1388489 0.236901,0.3233415 0.282483,0.5171462 0.04558,0.1938048 0.04415,0.3967434 0.01297,0.5933794 -0.06236,0.3932719 -0.2396,0.7571667 -0.392639,1.1247685 -0.09856,0.2367322 -0.189047,0.4797478 -0.333892,0.6913496 C 33.090699,9.0904156 33.004743,9.1877564 32.903006,9.265784 32.801268,9.3438116 32.683308,9.4021758 32.557542,9.42711 32.323164,9.4735774 32.079609,9.4015861 31.867864,9.2908792 31.656118,9.1801724 31.466666,9.0316174 31.261719,8.9087809 31.137332,8.8342285 31.007246,8.7691858 30.872972,8.7144075"
     id="path17"
     inkscape:path-effect="#path-effect17"
     inkscape:original-d="M 31.520887,9.0707587 C 31.076537,9.0641997 30.702229,8.7713067 30.387042,8.4876385 30.25638,8.3700431 30.107221,8.2692596 29.998295,8.1312873 29.850672,7.944298 29.812303,7.4314237 29.901108,7.2242114 29.955583,7.0971042 30.064901,7.0003957 30.160273,6.9002558 30.60572,6.432536 30.700317,6.4286809 31.4237,6.1875533 32.029082,5.9857593 32.984931,5.8097492 33.594203,6.057971 34.614465,6.4736332 33.811883,7.7055146 33.497013,8.2932651 33.314547,8.6338686 32.994629,9.3542621 32.557542,9.42711 32.156983,9.49387 31.599729,9.0998301 31.261719,8.9087809 30.898169,8.7032959 31.067309,8.7144075 30.872972,8.7144075" />
  <path
     style="fill:none;stroke:#95aabf;stroke-width:1.079;stroke-opacity:1"
     d="m 30.775789,34.404092 c -0.800914,-0.02368 -1.592566,-0.299034 -2.235295,-0.777494 -0.09706,-0.07225 -0.191232,-0.149406 -0.271558,-0.239893 -0.08033,-0.09049 -0.146726,-0.195084 -0.181979,-0.310831 -0.03267,-0.107251 -0.03781,-0.222141 -0.02013,-0.332852 0.01769,-0.110711 0.05786,-0.217295 0.113003,-0.31491 0.110291,-0.19523 0.277959,-0.352222 0.457848,-0.486083 0.136987,-0.101937 0.282275,-0.192201 0.421143,-0.29156 0.305641,-0.218683 0.586966,-0.485212 0.939471,-0.615516 0.16502,-0.061 0.344195,-0.08989 0.518329,-0.06479 0.145678,0.021 0.283074,0.07859 0.421142,0.129582 0.426157,0.157401 0.87272,0.255706 1.295823,0.421143 0.191289,0.0748 0.379999,0.163916 0.58312,0.194373 0.160635,0.02409 0.324983,0.01052 0.485934,0.0324 0.119677,0.01627 0.236254,0.05198 0.356351,0.06479 0.193477,0.02063 0.389456,-0.01881 0.58312,0 0.0541,0.0053 0.109711,0.01492 0.161978,0 0.02811,-0.008 0.05371,-0.02279 0.07967,-0.03624 0.02595,-0.01345 0.05321,-0.02587 0.08231,-0.02855 0.03554,-0.0033 0.07165,0.0087 0.100387,0.02982 0.02874,0.02116 0.05039,0.05105 0.06483,0.08369 0.02888,0.06527 0.02938,0.139073 0.02916,0.210448 -0.0017,0.561858 -0.01783,1.124959 0.0324,1.68457 0.0088,0.09838 0.01969,0.19777 0.0056,0.295533 -0.007,0.04888 -0.02039,0.09711 -0.04253,0.141253 -0.02214,0.04415 -0.05326,0.08416 -0.09266,0.113938 -0.04257,0.03217 -0.09328,0.05151 -0.143709,0.06896 -0.05043,0.01745 -0.101823,0.03363 -0.147851,0.06062 -0.04661,0.02734 -0.08624,0.06491 -0.129583,0.09719 -0.123181,0.09174 -0.275551,0.1393 -0.428587,0.152341 -0.153035,0.01304 -0.30728,-0.0069 -0.457208,-0.04028 -0.299856,-0.06668 -0.589587,-0.187015 -0.895961,-0.209251 -0.107755,-0.0078 -0.215969,-0.0033 -0.323956,0 -0.32385,0.01 -0.647998,0.0093 -0.971867,0 -0.226945,-0.0065 -0.453768,-0.01734 -0.680307,-0.0324"
     id="path18"
     inkscape:path-effect="#path-effect18"
     inkscape:original-d="m 30.775789,34.404092 c -0.724715,-0.228499 -1.612383,-0.317081 -2.235295,-0.777494 -0.237313,-0.175405 -0.411551,-0.277814 -0.453537,-0.550724 -0.0692,-0.449812 0.234795,-0.857407 0.550724,-1.133845 0.128495,-0.112433 0.285331,-0.188085 0.421143,-0.29156 0.311742,-0.237518 0.533944,-0.534411 0.939471,-0.615516 0.17074,-0.03415 0.344621,-0.07677 0.518329,-0.06479 0.146528,0.01011 0.281359,0.08449 0.421142,0.129582 0.432248,0.139435 0.863882,0.280762 1.295823,0.421143 0.194855,0.06333 0.382692,0.151858 0.58312,0.194373 0.158804,0.03369 0.324666,0.01379 0.485934,0.0324 0.119935,0.01384 0.236164,0.05334 0.356351,0.06479 0.193498,0.01843 0.388747,0 0.58312,0 0.05399,0 0.108528,0.0076 0.161978,0 0.0446,-0.0064 0.110059,-0.106326 0.161978,-0.06479 0.07473,0.05979 0.161477,0.252679 0.194373,0.323955 0.238457,0.516655 0.140412,1.144489 0.0324,1.68457 -0.03462,0.173117 -0.01146,0.403069 -0.129582,0.550724 -0.06644,0.08305 -0.201373,0.07322 -0.29156,0.129583 -0.04579,0.02862 -0.07884,0.07874 -0.129583,0.09719 -0.449001,0.163274 -1.308462,-0.06213 -1.781756,-0.09719 -0.10769,-0.008 -0.21597,0 -0.323956,0 -0.32235,0 -0.650588,0.01147 -0.971867,0 -0.230719,-0.0082 -0.450198,-0.0324 -0.680307,-0.0324" />
  <path
     style="fill:none;stroke:#95aabf;stroke-width:1.079;stroke-opacity:1"
     d="m 31.747656,29.317988 c -0.648331,-0.136808 -1.274421,-0.378456 -1.846548,-0.712702 -0.06017,-0.03515 -0.121469,-0.07288 -0.161978,-0.129583 -0.0457,-0.06397 -0.05992,-0.146261 -0.0543,-0.224677 0.0056,-0.07842 0.02954,-0.154243 0.0543,-0.228861 0.215514,-0.649581 0.527503,-1.298486 1.069054,-1.716965 0.261043,-0.201719 0.564163,-0.340898 0.842285,-0.518329 0.247211,-0.157711 0.475724,-0.346296 0.737811,-0.477813 0.131043,-0.06576 0.270459,-0.116877 0.41539,-0.139047 0.144931,-0.02217 0.295769,-0.01462 0.434182,0.03374 0.08268,0.02889 0.160549,0.07227 0.226769,0.129582 0.107753,0.09326 0.181908,0.221088 0.226769,0.356352 0.04871,0.146867 0.06449,0.302298 0.09719,0.453538 0.07303,0.337825 0.229894,0.652452 0.310986,0.988433 0.04055,0.167991 0.06188,0.342289 0.04274,0.514041 -0.01914,0.171752 -0.08061,0.341321 -0.191752,0.473655 -0.02524,0.03006 -0.05373,0.05953 -0.06479,0.09719 -0.0061,0.02084 -0.0064,0.04295 -0.005,0.06463 0.0014,0.02167 0.0045,0.04324 0.005,0.06496 0.0014,0.05929 -0.01652,0.118254 -0.04678,0.169261 -0.03026,0.05101 -0.07246,0.09432 -0.119876,0.129943 -0.09484,0.07125 -0.208641,0.111548 -0.319273,0.154334 -0.118651,0.04589 -0.240038,0.09876 -0.323955,0.194373 -0.02869,0.03269 -0.05231,0.06968 -0.08235,0.101135 -0.01502,0.01572 -0.03168,0.03005 -0.05049,0.04097 -0.01881,0.01092 -0.03985,0.01836 -0.06154,0.01987 -0.02492,0.0017 -0.04971,-0.0043 -0.07353,-0.01182 -0.02383,-0.0075 -0.0473,-0.0165 -0.07187,-0.02096 -0.02458,-0.0045 -0.05086,-0.004 -0.07339,0.0067 -0.01126,0.0054 -0.02139,0.01335 -0.02869,0.02348 -0.0073,0.01013 -0.01168,0.02247 -0.01168,0.03496 4e-6,0.0054 8.2e-4,0.01083 0.0012,0.01625 4.05e-4,0.0054 3.87e-4,0.01097 -0.0012,0.01615 -0.0014,0.0044 -0.0039,0.0085 -0.0072,0.01179 -0.0033,0.0033 -0.0072,0.0059 -0.01152,0.0077 -0.0086,0.0036 -0.01825,0.0039 -0.02739,0.0022 -0.01827,-0.0033 -0.03416,-0.01411 -0.05112,-0.02167 -0.03424,-0.01526 -0.07421,-0.01721 -0.109769,-0.0054 -0.03556,0.01185 -0.06637,0.03739 -0.0846,0.07014"
     id="path19"
     inkscape:path-effect="#path-effect19"
     inkscape:original-d="m 31.747656,29.317988 c -0.741443,-0.06445 -1.223996,-0.320725 -1.846548,-0.712702 -0.05851,-0.03684 -0.116979,-0.07708 -0.161978,-0.129583 -0.09839,-0.114784 -0.02704,-0.304797 0,-0.453538 0.117883,-0.648353 0.544183,-1.323311 1.069054,-1.716965 0.263732,-0.197798 0.557977,-0.351452 0.842285,-0.518329 0.3362,-0.197334 1.114375,-0.709255 1.587383,-0.58312 0.08412,0.02243 0.158311,0.07579 0.226769,0.129582 0.358979,0.282056 0.185689,0.109871 0.226769,0.356352 0.02542,0.152507 0.06586,0.302133 0.09719,0.453538 0.09309,0.449943 0.31011,1.531733 0.161978,1.976129 -0.01231,0.03694 -0.05409,0.05975 -0.06479,0.09719 -0.01187,0.04153 0.01366,0.0886 0,0.129582 -0.07464,0.223923 -0.301037,0.344776 -0.485934,0.453538 -0.108544,0.06385 -0.219174,0.124519 -0.323955,0.194373 -0.06968,0.04646 -0.117986,0.123784 -0.194374,0.161978 -0.06244,0.03122 -0.238739,0.01197 -0.259164,0.0324 -0.0076,0.0076 0.01024,0.02898 0,0.0324 -0.03073,0.01024 -0.06523,-0.0053 -0.09719,0 -0.06737,0.01123 -0.129582,0.04319 -0.194373,0.06479" />
  <path
     style="fill:none;stroke:#95aabf;stroke-width:1.079;stroke-opacity:1"
     d="m 8.1312873,34.339301 c -0.094124,-0.03317 -0.1922466,-0.05497 -0.2915601,-0.06479 -0.1290692,-0.01275 -0.2591569,-0.0053 -0.3887468,0 -0.4536332,0.01853 -0.9086137,0.01029 -1.3606138,-0.0324 C 5.6356185,34.199163 5.1846514,34.12146 4.7297528,34.080136 4.1722104,34.029488 3.5966139,34.030785 3.0775789,33.820972 2.4993907,33.587247 2.0340473,33.087542 1.8465473,32.492754 1.7961388,32.332848 1.7650139,32.167451 1.716965,32.00682 c -0.032319,-0.108045 -0.0723,-0.213961 -0.097187,-0.323956 -0.080543,-0.355987 0.00821,-0.744344 0.226769,-1.036658 0.1394403,-0.186498 0.3275054,-0.33389 0.5346934,-0.440184 0.207188,-0.106294 0.4333203,-0.172537 0.6628078,-0.212043 0.4589751,-0.07901 0.9284858,-0.05252 1.3941442,-0.06048 0.5138298,-0.0088 1.026674,-0.0598 1.5405495,-0.05431 0.5138755,0.0055 1.0360122,0.07015 1.5046338,0.281082 0.1471862,0.06625 0.2927499,0.147835 0.4535379,0.161978 0.040371,0.0036 0.081215,0.0028 0.1210991,0.0099 0.019942,0.0036 0.039619,0.0092 0.057833,0.01809 0.018214,0.0089 0.03496,0.02111 0.047837,0.03675 0.00996,0.0121 0.017465,0.02603 0.027135,0.03836 0.00483,0.0062 0.010234,0.01194 0.016508,0.01663 0.00627,0.0047 0.013463,0.0083 0.021149,0.0098 0.010689,0.0021 0.021699,1.59e-4 0.032489,-0.0013 0.01079,-0.0015 0.022109,-0.0025 0.032302,0.0013 0.00727,0.0027 0.013472,0.0078 0.018646,0.01361 0.00517,0.0058 0.00942,0.01235 0.01375,0.0188 0.055724,0.08289 0.129259,0.151915 0.200387,0.222038 0.071128,0.07012 0.1414041,0.143343 0.1883598,0.2315 0.084052,0.157804 0.084789,0.345238 0.1295823,0.518329 0.036069,0.139378 0.1007917,0.269307 0.1604535,0.400333 0.059662,0.131025 0.1152507,0.266464 0.1311066,0.409557 0.015473,0.139639 -0.00755,0.280851 0,0.421142 0.010382,0.192996 0.07796,0.377607 0.1213242,0.565954 0.021682,0.09417 0.037416,0.190272 0.036694,0.286906 -7.225e-4,0.09663 -0.018397,0.194163 -0.060831,0.280985 -0.047565,0.09732 -0.1237083,0.177068 -0.1943734,0.259164 -0.077359,0.08987 -0.1497677,0.184753 -0.2378792,0.264112 -0.088112,0.07936 -0.1950443,0.143451 -0.3128455,0.157031 -0.075156,0.0087 -0.151196,-0.0035 -0.2267689,0 -0.055214,0.0025 -0.1100314,0.01351 -0.1619779,0.0324"
     id="path20"
     inkscape:path-effect="#path-effect20"
     inkscape:original-d="m 8.1312873,34.339301 c -0.097187,-0.0216 -0.1924511,-0.05535 -0.2915601,-0.06479 -0.1289986,-0.01229 -0.2591645,0 -0.3887468,0 -0.4480993,0 -0.915252,0.0081 -1.3606138,-0.0324 C 5.6355018,34.200763 5.1838675,34.129041 4.7297528,34.080136 4.2349513,34.02685 3.5489979,34.03311 3.0775789,33.820972 2.7028878,33.652361 1.9991828,32.874342 1.8465473,32.492754 1.7578966,32.271127 1.7854589,32.267097 1.716965,32.00682 1.6882735,31.897792 1.635011,31.794571 1.6197783,31.682864 c -0.054579,-0.400246 0.00471,-0.703565 0.226769,-1.036658 0.5698281,-0.854742 1.6987708,-0.712702 2.5916454,-0.712702 1.0009405,0 2.0693711,-0.03345 3.0451833,0.226769 0.1551112,0.04136 0.3012443,0.111213 0.4535379,0.161978 0.07458,0.02486 0.1549302,0.03286 0.226769,0.06479 0.02791,0.0124 0.037473,0.05113 0.064791,0.06479 0.019317,0.0097 0.044302,-0.0068 0.064791,0 0.014488,0.0048 0.020179,0.02323 0.032396,0.0324 0.4622418,0.346682 0.3170098,0.130722 0.3887468,0.453538 0.038634,0.173853 0.075953,0.348502 0.1295823,0.518329 0.085577,0.270996 0.2353296,0.528737 0.2915601,0.80989 0.024641,0.123207 -0.00803,0.308772 0,0.421142 0.026621,0.372697 0.1511257,0.756271 0.097187,1.133845 -0.014288,0.100018 -0.1242749,0.197828 -0.1943734,0.259164 -0.1605006,0.140438 -0.3586708,0.325116 -0.5507247,0.421143 -0.060472,0.03024 -0.1662972,-0.03024 -0.2267689,0 -0.055768,0.02788 -0.091701,0.0324 -0.1619779,0.0324" />
  <path
     style="fill:none;stroke:#95aabf;stroke-width:1.079;stroke-opacity:1"
     d="M 5.6368286,29.479966 C 5.0543012,29.297179 4.4967984,29.034824 3.9846547,28.702472 3.86773,28.626594 3.7527017,28.546727 3.6505961,28.451842 3.5484906,28.356956 3.4592164,28.246244 3.4015345,28.119352 c -0.074628,-0.164171 -0.09353,-0.348447 -0.091476,-0.528772 0.00205,-0.180326 0.024001,-0.359965 0.026685,-0.540282 0.00139,-0.09319 -0.00237,-0.186525 0.00361,-0.279536 0.00598,-0.09301 0.022077,-0.186588 0.061185,-0.271188 0.058326,-0.126172 0.163043,-0.223547 0.2591646,-0.323956 0.1268789,-0.132538 0.2435478,-0.276578 0.3887468,-0.388747 0.2993626,-0.231262 0.6912316,-0.305226 1.0690537,-0.323955 0.2376005,-0.01178 0.4764394,-0.0046 0.7127024,-0.0324 0.086452,-0.01017 0.1757236,-0.0248 0.2591646,0 0.075393,0.02241 0.1379081,0.07483 0.1943734,0.129582 0.2039941,0.197805 0.3600075,0.444389 0.4535379,0.712703 0.04498,0.129036 0.07582,0.263117 0.1295823,0.388747 0.049604,0.115912 0.1178801,0.222671 0.1801786,0.332285 0.062298,0.109613 0.1194635,0.224307 0.1437771,0.348021 0.012672,0.06448 0.016255,0.130673 0.032395,0.194374 0.01095,0.04322 0.027665,0.08525 0.032396,0.129582 0.00747,0.06996 -0.015939,0.140609 -0.053473,0.200121 -0.037534,0.05951 -0.088527,0.109245 -0.1408999,0.15623 -0.2167007,0.194408 -0.4677069,0.354473 -0.6479113,0.583121 -0.072338,0.09179 -0.1317721,0.192877 -0.1943735,0.29156 -0.041716,0.06576 -0.084925,0.130573 -0.1295822,0.194373"
     id="path21"
     inkscape:path-effect="#path-effect21"
     inkscape:original-d="M 5.6368286,29.479966 C 5.0216478,29.441172 4.4647914,29.062575 3.9846547,28.702472 3.7594618,28.533578 3.506186,28.398423 3.4015345,28.119352 3.2565422,27.732706 3.3053382,27.458565 3.3367434,27.050298 c 0.013393,-0.174114 -0.00895,-0.38481 0.064791,-0.550724 0.056164,-0.12637 0.1657196,-0.222016 0.2591646,-0.323956 0.1238312,-0.135089 0.2362677,-0.287094 0.3887468,-0.388747 0.2921544,-0.194769 0.7299883,-0.2957 1.0690537,-0.323955 0.2369913,-0.01975 0.4750217,-0.02447 0.7127024,-0.0324 0.08634,-0.0029 0.1761003,-0.02373 0.2591646,0 0.074873,0.02139 0.1341059,0.08027 0.1943734,0.129582 0.1835345,0.150165 0.3619107,0.498906 0.4535379,0.712703 0.053806,0.125547 0.07512,0.263482 0.1295823,0.388747 0.2170072,0.499116 0.1725382,0.195771 0.3239557,0.680306 0.019592,0.0627 0.019514,0.129965 0.032395,0.194374 0.00873,0.04366 0.037312,0.08533 0.032396,0.129582 -0.012876,0.115884 -0.140778,0.27213 -0.1943734,0.356351 -0.2039378,0.320474 -0.3520646,0.32672 -0.6479113,0.583121 -0.1292099,0.111981 -0.1199905,0.161389 -0.1943735,0.29156 -0.028497,0.04987 -0.1295822,0.158132 -0.1295822,0.194373" />
  <path
     style="fill:none;stroke:#1c3c55;stroke-width:1.079;stroke-opacity:1"
     d="m 11.241262,27.341858 c 0.06312,-0.324286 0.127915,-0.648248 0.194373,-0.971867 0.0618,-0.300955 0.125122,-0.602058 0.161978,-0.907075 0.0091,-0.07542 0.01652,-0.152615 0,-0.226769 -0.0135,-0.06057 -0.04286,-0.117213 -0.0825,-0.164965 -0.03964,-0.04775 -0.08938,-0.08673 -0.143956,-0.116274 -0.10915,-0.05909 -0.235522,-0.07996 -0.359637,-0.08097 -0.248231,-0.002 -0.496107,0.07137 -0.742127,0.03825 -0.132482,-0.01783 -0.258767,-0.06597 -0.3887471,-0.09719 -0.112859,-0.02711 -0.2285688,-0.04146 -0.3408624,-0.07082 -0.1122936,-0.02936 -0.2234174,-0.07546 -0.3070489,-0.155946 -0.057513,-0.05535 -0.1000195,-0.125352 -0.1273544,-0.200346 -0.027335,-0.07499 -0.039812,-0.154926 -0.041712,-0.234723 -0.0038,-0.159596 0.033973,-0.316932 0.071879,-0.472007 0.1020181,-0.417358 0.2111271,-0.843908 0.4535379,-1.198636 0.1813907,-0.265436 0.4287265,-0.477507 0.6479115,-0.712702 0.235357,-0.252549 0.446545,-0.539384 0.745098,-0.712703 0.273558,-0.158808 0.595062,-0.207191 0.907076,-0.259164 0.84876,-0.141381 1.699721,-0.331461 2.55925,-0.29156 0.216892,0.01007 0.432868,0.03479 0.647911,0.06479 0.215167,0.03002 0.430662,0.06542 0.647912,0.06479 0.201096,-5.86e-4 0.400684,-0.03205 0.601179,-0.04761 0.200495,-0.01555 0.406214,-0.01457 0.597457,0.04761 0.10759,0.03498 0.211095,0.08932 0.323955,0.09719 0.06512,0.0045 0.130149,-0.0067 0.19508,-0.0135 0.06493,-0.0068 0.132282,-0.0087 0.193667,0.0135 0.04616,0.01671 0.08693,0.04659 0.119944,0.08293 0.03301,0.03633 0.05852,0.079 0.07884,0.123681 0.04064,0.08937 0.06082,0.186488 0.09277,0.279323 0.06607,0.191989 0.181499,0.363126 0.259165,0.550725 0.106518,0.257288 0.140503,0.538733 0.153526,0.816894 0.01302,0.27816 0.0085,0.556815 0.0085,0.83528 v 1.004262 c 0,0.108865 0.0074,0.217557 0.01948,0.325755 0.006,0.0541 0.0118,0.108391 0.01096,0.162817 -8.36e-4,0.05443 -0.0086,0.109464 -0.03044,0.15934 -0.03121,0.07141 -0.09038,0.128769 -0.159451,0.164868 -0.06907,0.0361 -0.147566,0.05189 -0.225488,0.05341 -0.155843,0.003 -0.306675,-0.04876 -0.457345,-0.0887 -0.337401,-0.08943 -0.687712,-0.120984 -1.036658,-0.129582 -0.280687,-0.0069 -0.561514,7.89e-4 -0.842285,0 -0.324178,-9.11e-4 -0.64826,-0.01315 -0.971867,-0.0324 -0.294176,-0.0175 -0.598987,-0.03932 -0.87468,0.06479 -0.188096,0.07103 -0.352217,0.198341 -0.481402,0.352409 -0.129184,0.154069 -0.224629,0.334339 -0.296092,0.522272 -0.01567,0.0412 -0.03027,0.08294 -0.05012,0.122293 -0.01985,0.03936 -0.04532,0.0766 -0.07946,0.104476 -0.03018,0.02464 -0.06615,0.04124 -0.09719,0.06479 -0.05068,0.03846 -0.08596,0.09378 -0.114047,0.150865 -0.02808,0.05709 -0.05007,0.117125 -0.08033,0.17309 -0.05168,0.09557 -0.129091,0.179197 -0.226769,0.226769 -0.02172,0.01058 -0.04442,0.0194 -0.06479,0.0324 -0.05034,0.03212 -0.08206,0.08705 -0.101248,0.143589 -0.01919,0.05654 -0.02767,0.116096 -0.04285,0.173842 -0.01518,0.05775 -0.03827,0.115515 -0.08079,0.157431 -0.02126,0.02096 -0.04721,0.03749 -0.07588,0.04584 -0.02866,0.0083 -0.06007,0.0082 -0.08798,-0.0024 -0.01713,-0.0065 -0.03297,-0.01684 -0.05097,-0.02025 -0.009,-0.0017 -0.01853,-0.0016 -0.02708,0.0017 -0.0043,0.0016 -0.0083,0.004 -0.01161,0.0072 -0.0033,0.0031 -0.006,0.007 -0.0075,0.01135 -0.0018,0.0051 -0.0021,0.0107 -0.0017,0.01614 3.53e-4,0.0054 0.0013,0.01083 0.0017,0.01626 0.0017,0.02028 -0.0035,0.04092 -0.01378,0.05848 -0.01027,0.01756 -0.0255,0.03205 -0.04309,0.04227 -0.03518,0.02044 -0.0786,0.02337 -0.118381,0.01481 -0.03978,-0.0086 -0.07648,-0.02775 -0.11094,-0.04939 -0.03446,-0.02164 -0.06725,-0.04594 -0.102554,-0.06617 -0.05965,-0.03418 -0.126147,-0.05635 -0.194373,-0.06479 z"
     id="path22"
     inkscape:path-effect="#path-effect22"
     inkscape:original-d="m 11.241262,27.341858 c 0.0696,-0.324637 0.134862,-0.644553 0.194373,-0.971867 0.05483,-0.301542 0.118588,-0.603348 0.161978,-0.907075 0.0029,-0.02028 0.01333,-0.222007 0,-0.226769 -0.428819,-0.15315 -0.886255,-0.221965 -1.328218,-0.323956 -0.13015,-0.03004 -0.257331,-0.07329 -0.3887471,-0.09719 -0.2146101,-0.03902 -0.5086275,-0.0039 -0.6479113,-0.226769 -0.079877,-0.127802 -0.1175665,-0.757624 -0.097187,-0.907076 0.055548,-0.407349 0.2241466,-0.854549 0.4535379,-1.198636 0.2362684,-0.354402 0.3725829,-0.406782 0.6479115,-0.712702 0.225484,-0.250538 0.425736,-0.561426 0.745098,-0.712703 0.198565,-0.09406 0.724491,-0.216203 0.907076,-0.259164 0.843687,-0.198515 1.689278,-0.31007 2.55925,-0.29156 0.216998,0.0046 0.431941,0.04319 0.647911,0.06479 0.215971,0.0216 0.43118,0.05308 0.647912,0.06479 0.392979,0.02124 0.806305,-0.04359 1.198636,0 0.29676,0.03297 0.02873,0.02338 0.323955,0.09719 0.07724,0.01931 0.338647,-0.0334 0.388747,0 0.06402,0.04268 0.258031,0.423666 0.29156,0.485933 0.132457,0.245991 0.170494,0.255155 0.259165,0.550725 0.159245,0.530819 0.161977,1.104495 0.161977,1.652174 0,0.334754 0,0.669508 0,1.004262 0,0.06395 0.03477,0.543615 0,0.647912 -0.04619,0.138583 -0.706548,0.129582 -0.842284,0.129582 -0.351617,0 -0.682925,-0.114843 -1.036658,-0.129582 -0.280519,-0.01169 -0.561716,0.01039 -0.842285,0 -1.254828,-0.04648 0.567999,-0.0324 -0.971867,-0.0324 -0.294639,0 -0.591211,-0.0297 -0.87468,0.06479 -0.239877,0.07996 -0.631673,0.655949 -0.777494,0.874681 -0.04829,0.07244 -0.06802,0.165208 -0.129582,0.226769 -0.02753,0.02753 -0.07383,0.03364 -0.09719,0.06479 -0.357297,0.476395 0.122153,-0.03779 -0.194373,0.323955 -0.0704,0.08045 -0.143295,0.15999 -0.226769,0.226769 -0.01886,0.01508 -0.04772,0.01532 -0.06479,0.0324 -0.150568,0.150569 -0.201377,0.393416 -0.388746,0.518329 -0.01944,0.01296 -0.08099,-0.0162 -0.09719,0 -0.0076,0.0076 0.0097,0.02757 0,0.0324 -0.05476,0.02738 -0.331537,0.01635 -0.388747,0 -0.06567,-0.01876 -0.129582,-0.04319 -0.194373,-0.06479 z" />
  <path
     style="fill:none;stroke:#ff9500;stroke-width:1.079"
     d="m 25.592498,27.439045 c -0.899874,-0.544096 -1.775693,-1.127975 -2.624041,-1.74936 -0.282971,-0.207266 -0.564352,-0.419633 -0.87468,-0.583121 -0.128185,-0.06753 -0.260783,-0.126426 -0.388747,-0.194373 -0.239188,-0.127005 -0.462281,-0.285646 -0.712703,-0.388747 -0.275064,-0.113247 -0.577065,-0.15686 -0.842284,-0.29156 -0.120304,-0.0611 -0.231077,-0.140046 -0.353037,-0.197768 -0.06098,-0.02886 -0.124857,-0.05237 -0.191206,-0.0646 -0.06635,-0.01223 -0.135348,-0.01293 -0.200855,0.0032 -0.01628,0.004 -0.03241,0.0091 -0.0491,0.01057 -0.01669,0.0015 -0.03441,-8.86e-4 -0.04809,-0.01057 -0.01249,-0.0088 -0.02046,-0.02283 -0.0324,-0.0324 -0.0077,-0.0062 -0.01693,-0.01036 -0.02654,-0.01267 -0.0096,-0.0023 -0.0196,-0.0028 -0.02945,-0.002 -0.01971,0.0015 -0.03865,0.008 -0.05734,0.01441 -0.01869,0.0064 -0.03761,0.01292 -0.05731,0.01456 -0.0197,0.0016 -0.04058,-0.0021 -0.05612,-0.01427 -0.01204,-0.0094 -0.02011,-0.02328 -0.0324,-0.0324 -0.0089,-0.0066 -0.01973,-0.01045 -0.03073,-0.01204 -0.011,-0.0016 -0.02222,-0.001 -0.03323,5.02e-4 -0.02201,0.0031 -0.04345,0.01003 -0.06563,0.01154 -0.03495,0.0024 -0.07066,-0.0095 -0.09719,-0.03239"
     id="path23"
     inkscape:path-effect="#path-effect23"
     inkscape:original-d="m 25.592498,27.439045 c -0.823448,-0.657739 -1.739175,-1.183046 -2.624041,-1.74936 -0.44768,-0.286516 -0.405128,-0.312225 -0.87468,-0.583121 -0.125491,-0.0724 -0.261358,-0.12537 -0.388747,-0.194373 -0.546491,-0.296016 -0.211544,-0.152908 -0.712703,-0.388747 -0.271026,-0.127542 -0.561377,-0.191236 -0.842284,-0.29156 -0.247055,-0.08823 -0.48996,-0.19538 -0.745098,-0.259164 -0.06479,-0.0162 0,0.0324 -0.09719,0 -0.01449,-0.0048 -0.01791,-0.02757 -0.0324,-0.0324 -0.06696,-0.02232 -0.15852,0.01706 -0.226769,0 -0.01481,-0.0037 -0.01874,-0.02557 -0.0324,-0.0324 -0.02832,-0.01416 -0.102227,0.0068 -0.129582,0 -0.1489,-0.03722 -0.0074,-0.03239 -0.09719,-0.03239" />
  <path
     style="fill:none;stroke:#ff9500;stroke-width:1.079"
     d="m 25.624893,27.050298 c -0.05606,-0.144196 -0.121013,-0.284932 -0.194373,-0.421142 -0.08257,-0.153309 -0.175682,-0.300725 -0.259165,-0.453538 -0.352726,-0.645651 -0.526589,-1.375389 -0.615515,-2.105712 -0.01833,-0.150557 -0.03324,-0.301872 -0.0324,-0.453538 0.0014,-0.253254 0.04758,-0.507679 0.149454,-0.739544 0.101871,-0.231866 0.260637,-0.440552 0.466062,-0.588674 0.294341,-0.212235 0.665796,-0.290995 0.971867,-0.485933 0.202297,-0.128844 0.383555,-0.288107 0.58312,-0.421143 l 0.09719,-0.06479 c 0.01169,0.0144 0.03005,0.02315 0.0486,0.02315 0.01855,0 0.03691,-0.0087 0.04859,-0.02315 0.0076,-0.0094 0.01236,-0.02079 0.01678,-0.03207 0.0044,-0.01128 0.0087,-0.02278 0.01561,-0.03272 0.007,-0.01007 0.01655,-0.01821 0.02702,-0.02461 0.01047,-0.0064 0.02189,-0.0111 0.03348,-0.0151 0.02319,-0.008 0.04751,-0.01339 0.06908,-0.02508 0.02857,-0.01548 0.05059,-0.0413 0.06585,-0.06998 0.01526,-0.02869 0.02423,-0.06029 0.03134,-0.09199 0.05515,-0.245853 0.0036,-0.502605 -0.06479,-0.745098 -0.06771,-0.239951 -0.15192,-0.474883 -0.226769,-0.712703 -0.05435,-0.172673 -0.10377,-0.346919 -0.161978,-0.518329 -0.282214,-0.831064 -0.764351,-1.578119 -1.263427,-2.300085 -0.367148,-0.531118 -0.753471,-1.061784 -1.263427,-1.4578 -0.609985,-0.473696 -1.36608,-0.728173 -2.128144,-0.853587 -0.762064,-0.125414 -1.538025,-0.129496 -2.310049,-0.150676 -0.302359,-0.0083 -0.605216,-0.01925 -0.907076,0 -0.43615,0.02782 -0.865451,0.118338 -1.295822,0.194373 -0.488269,0.08626 -0.981302,0.15446 -1.457801,0.291561 -0.287665,0.08277 -0.570351,0.191531 -0.821675,0.35413 -0.251324,0.162598 -0.470953,0.381856 -0.60373,0.650132 -0.06025,0.121741 -0.103927,0.255006 -0.194373,0.356351 -0.04069,0.04559 -0.08972,0.08326 -0.129582,0.129583 -0.04774,0.05547 -0.08146,0.122903 -0.09719,0.194373 -0.08589,0.08066 -0.152949,0.181253 -0.194374,0.29156 -0.02048,0.05453 -0.03503,0.1119 -0.06479,0.161978 -0.02761,0.04645 -0.06717,0.08465 -0.09719,0.129582 -0.04322,0.06469 -0.06514,0.140824 -0.08932,0.214775 -0.02418,0.07395 -0.05243,0.149053 -0.105051,0.206368 -0.01858,0.02023 -0.03986,0.03785 -0.0583,0.05821 -0.01844,0.02036 -0.03431,0.04429 -0.03889,0.07137 -0.0027,0.01602 -0.0014,0.03241 -1.1e-5,0.04859 0.0014,0.01619 0.0027,0.03258 1.1e-5,0.04859 -0.004,0.02395 -0.01681,0.04544 -0.03006,0.0658 -0.01324,0.02036 -0.02739,0.04063 -0.03473,0.06378 -0.01129,0.03558 -0.0053,0.07448 0.0062,0.109978 0.01153,0.0355 0.02844,0.06908 0.03968,0.104673 0.01124,0.03559 0.01655,0.07468 0.0044,0.109969 -0.0061,0.01765 -0.01655,0.03395 -0.03101,0.04575 -0.01446,0.0118 -0.03298,0.01888 -0.05164,0.01837 -0.0054,-1.49e-4 -0.01082,-9.21e-4 -0.01624,-0.0013 -0.0054,-3.49e-4 -0.01095,-2.61e-4 -0.01616,0.0013 -0.0092,0.0027 -0.01677,0.0099 -0.02092,0.01854 -0.0041,0.0087 -0.0051,0.01865 -0.0036,0.02813 0.0029,0.01898 0.01449,0.03531 0.02566,0.05092 0.01117,0.01561 0.0226,0.03213 0.02501,0.05118 0.0012,0.0095 -8e-6,0.01949 -0.0045,0.02799 -0.0045,0.0085 -0.01235,0.01536 -0.02168,0.01761 -0.0053,0.0013 -0.01077,0.0011 -0.01617,6.49e-4 -0.0054,-4.22e-4 -0.01082,-0.0011 -0.01622,-6.49e-4 -0.0082,6.24e-4 -0.01611,0.0037 -0.02277,0.0085 -0.0067,0.0048 -0.01207,0.01123 -0.0159,0.01849 -0.0077,0.0145 -0.0089,0.03181 -0.0058,0.04793 0.0031,0.01611 0.01017,0.0312 0.01843,0.04537 0.0083,0.01417 0.01774,0.0276 0.02608,0.04173 0.04504,0.07625 0.05477,0.168849 0.04739,0.257098 -0.0074,0.08825 -0.03063,0.174276 -0.04739,0.261231 -0.02057,0.106708 -0.03143,0.215287 -0.0324,0.323956"
     id="path24"
     inkscape:path-effect="#path-effect24"
     inkscape:original-d="m 25.624893,27.050298 c -0.07708,-0.134521 -0.122855,-0.284066 -0.194373,-0.421142 -0.08054,-0.154373 -0.184304,-0.296331 -0.259165,-0.453538 -0.359296,-0.754524 -0.539159,-1.291249 -0.615515,-2.105712 -0.01415,-0.150903 -0.04498,-0.302497 -0.0324,-0.453538 0.05247,-0.629585 0.160626,-0.918817 0.615516,-1.328218 0.285543,-0.256989 0.646256,-0.310604 0.971867,-0.485933 0.22527,-0.1213 0.381192,-0.286524 0.58312,-0.421143 0.0324,-0.0216 0.06479,-0.04319 0.09719,-0.06479 0.0324,0 0.06821,0.01449 0.09719,0 0.0216,-0.0108 0.01532,-0.04772 0.03239,-0.06479 0.03415,-0.03415 0.09543,-0.03064 0.129582,-0.06479 0.0084,-0.0084 0.08716,-0.14192 0.09719,-0.161978 0.05095,-0.101906 -0.0511,-0.694899 -0.06479,-0.745098 -0.0656,-0.240519 -0.151696,-0.474971 -0.226769,-0.712703 -0.05451,-0.172614 -0.09563,-0.34991 -0.161978,-0.518329 -0.320415,-0.81336 -0.773429,-1.579499 -1.263427,-2.300085 -0.356388,-0.5241 -0.744501,-1.077255 -1.263427,-1.4578 -1.26157,-0.925152 -2.938812,-1.004263 -4.438193,-1.004263 -0.302358,0 -0.606295,-0.03085 -0.907076,0 -0.434493,0.04456 -0.86216,0.142334 -1.295822,0.194373 -0.497423,0.05969 -0.988426,0.09599 -1.457801,0.291561 -0.273582,0.113992 -1.260102,0.768116 -1.425405,1.004262 -0.214236,0.306052 0.01735,0.08414 -0.194373,0.356351 -0.0375,0.04822 -0.09455,0.07954 -0.129582,0.129583 -0.04154,0.05934 -0.0625,0.130779 -0.09719,0.194373 -0.03372,0.117488 -0.137649,0.189455 -0.194374,0.29156 -0.02824,0.05083 -0.03655,0.111144 -0.06479,0.161978 -0.02622,0.0472 -0.06724,0.08466 -0.09719,0.129582 -0.08444,0.126664 -0.129606,0.291607 -0.194374,0.421143 -0.0273,0.05459 -0.07489,0.0627 -0.09719,0.129582 -0.01025,0.03073 0.0079,0.06576 0,0.09719 -0.01171,0.04685 -0.04952,0.08377 -0.06479,0.129582 -0.03968,0.119041 0.0065,0.272046 -0.03239,0.388747 -0.0034,0.01024 -0.02476,-0.0076 -0.0324,0 -0.03239,0.03239 0.0324,0.161977 0,0.194373 -0.0076,0.0076 -0.02476,-0.0076 -0.03239,0 -0.03818,0.03818 0,0.107985 0,0.161978 0,0.166104 0.02349,0.353909 0,0.518329 -0.01603,0.112227 -0.0324,0.209746 -0.0324,0.323956" />
  <path
     style="fill:none;stroke:#95aabf;stroke-width:1.079;stroke-opacity:1"
     d="M 8.973572,3.6606991 C 9.3111449,3.5158676 9.6459789,3.3646523 9.9778346,3.2071611 10.166687,3.117536 10.356754,3.0251122 10.560955,2.9803922 c 0.185035,-0.040523 0.376236,-0.041669 0.565638,-0.03908 0.189402,0.00259 0.378787,0.00668 0.568207,0.00668 h 0.421142 c 0.04322,0 0.08667,0.00518 0.129582,0 0.03877,-0.00468 0.07609,-0.020856 0.106002,-0.045963 0.02992,-0.025107 0.05232,-0.059051 0.06365,-0.096426 0.01133,-0.037376 0.01154,-0.078046 5.99e-4,-0.1155369 -0.01094,-0.037491 -0.03299,-0.071665 -0.06265,-0.097081 -0.02965,-0.025416 -0.0668,-0.041982 -0.10552,-0.04706 -0.03872,-0.00508 -0.07888,0.00135 -0.114086,0.018262 -0.0352,0.016912 -0.06532,0.044245 -0.08556,0.077647 -0.02024,0.033403 -0.03052,0.072752 -0.02921,0.111785"
     id="path25"
     inkscape:path-effect="#path-effect25"
     inkscape:original-d="M 8.973572,3.6606991 C 9.2251104,3.2894603 9.5551327,3.3066204 9.9778346,3.2071611 10.884651,2.9937926 10.255054,3.1843262 10.560955,2.9803922 c 0.08852,-0.059011 1.097629,-0.032396 1.133845,-0.032396 0.14038,0 0.280761,0 0.421142,0 0.04319,0 0.148899,0.038634 0.129582,0 -0.04452,-0.089047 -0.151179,-0.1295823 -0.226769,-0.1943734" />
  <path
     style="fill:none;stroke:#95aabf;stroke-width:1.079;stroke-opacity:1"
     d="m 14.739983,1.5873828 c 0.243117,0.1148091 0.508951,0.1812675 0.777494,0.1943734 0.140235,0.00684 0.280742,-6.932e-4 0.421142,0 0.338266,0.00167 0.675196,0.051214 1.004263,0.1295822 0.138871,0.033073 0.276914,0.071355 0.418388,0.090436 0.141474,0.019081 0.288077,0.01831 0.423896,-0.025645 0.111641,-0.036131 0.211846,-0.099879 0.315334,-0.1551904 0.103488,-0.055311 0.215237,-0.1035126 0.332578,-0.1039742 0.100018,-3.934e-4 0.196443,0.033863 0.29156,0.064791 0.25239,0.082067 0.512732,0.1436082 0.777493,0.1619778 0.291302,0.020211 0.586052,-0.01186 0.874681,0.032396 0.131239,0.020123 0.260046,0.055898 0.392201,0.068682 0.132156,0.012784 0.271966,4.978e-4 0.385292,-0.068682 0.07209,-0.044006 0.129202,-0.1082584 0.194374,-0.1619779 0.06015,-0.049583 0.127133,-0.090139 0.194373,-0.1295822 0.400838,-0.2351359 0.821937,-0.4380442 1.263427,-0.5831202 0.201676,-0.066272 0.407343,-0.12039476 0.615516,-0.16197786"
     id="path26"
     inkscape:path-effect="#path-effect26"
     inkscape:original-d="m 14.739983,1.5873828 c 0.290377,-0.06546 0.512803,0.1582791 0.777494,0.1943734 0.139093,0.018967 0.281094,-0.00966 0.421142,0 0.123318,0.0085 0.868627,0.1136251 1.004263,0.1295822 0.279662,0.032901 0.564525,0.1110845 0.842284,0.064791 0.254056,-0.042343 0.37091,-0.2764771 0.647912,-0.2591646 0.09936,0.00621 0.194169,0.044133 0.29156,0.064791 0.258967,0.054932 0.516366,0.1184566 0.777493,0.1619778 0.29998,0.049997 0.575678,0.019395 0.874681,0.032396 0.163581,0.00711 0.587849,0.071117 0.777493,0 0.07897,-0.029613 0.126902,-0.1113744 0.194374,-0.1619779 0.06229,-0.046722 0.12834,-0.088312 0.194373,-0.1295822 0.397028,-0.2481424 0.825634,-0.4189477 1.263427,-0.5831202 0.245716,-0.092143 0.372315,-0.16197786 0.615516,-0.16197786" />
  <path
     style="fill:none;stroke:#95aabf;stroke-width:1.079;stroke-opacity:1"
     d="m 26.791134,2.9803922 c 0.03979,0.1105572 0.122472,0.2050482 0.226769,0.2591645 0.06447,0.03345 0.137207,0.05239 0.194373,0.097187 0.04049,0.031732 0.07078,0.074777 0.09537,0.1199696 0.02458,0.045193 0.04399,0.092991 0.06661,0.1391949 0.08407,0.1716953 0.2136,0.3208803 0.371792,0.4282253 0.158193,0.107345 0.344675,0.1725932 0.535284,0.1872905"
     id="path27"
     inkscape:path-effect="#path-effect27"
     inkscape:original-d="m 26.791134,2.9803922 c 0.07867,0.1072649 0.113327,0.1910997 0.226769,0.2591645 0.06577,0.039463 0.144179,0.030261 0.194373,0.097187 0.06112,0.081498 0.09676,0.1809035 0.161978,0.2591645 0.169597,0.203516 0.641402,0.6155158 0.907076,0.6155158" />
  <path
     style="fill:none;stroke:#95aabf;stroke-width:1.079;stroke-opacity:1"
     d="m 36.477408,15.193521 c 0.02758,0.508035 0.0058,1.018736 -0.06479,1.522592 -0.01358,0.09689 -0.02899,0.193784 -0.03239,0.29156 -0.007,0.20114 0.03806,0.403869 0.129582,0.58312"
     id="path28"
     inkscape:path-effect="#path-effect28"
     inkscape:original-d="m 36.477408,15.193521 c 0.01151,0.508864 -0.0088,1.018648 -0.06479,1.522592 -0.01566,0.140942 -0.06857,0.134803 -0.03239,0.29156 0.05566,0.241215 0.129582,0.319501 0.129582,0.58312" />
  <path
     style="fill:none;stroke:#95aabf;stroke-width:1.079;stroke-opacity:1"
     d="m 36.606991,21.510656 c -0.02398,0.06397 -0.04559,0.128816 -0.06479,0.194374 -0.05964,0.203654 -0.09588,0.413865 -0.161977,0.615516 -0.04528,0.138159 -0.104409,0.271748 -0.14334,0.411829 -0.03893,0.140082 -0.057,0.290216 -0.01864,0.430455 0.01924,0.07033 0.05247,0.136791 0.09719,0.194374 0.01319,0.04255 0.02401,0.08583 0.0324,0.129582 0.02865,0.149365 0.02865,0.304173 0,0.453538"
     id="path29"
     inkscape:path-effect="#path-effect29"
     inkscape:original-d="m 36.606991,21.510656 c -0.0216,0.06479 -0.04682,0.128484 -0.06479,0.194374 -0.05576,0.204449 -0.09461,0.413418 -0.161977,0.615516 -0.08561,0.256814 -0.208749,0.561657 -0.161978,0.842284 0.03672,0.220316 0.02256,-0.0295 0.09719,0.194374 0,0.229773 -0.02291,0.01898 0.0324,0.129582 0.03192,0.06383 0,0.366277 0,0.453538" />
  <path
     style="fill:none;stroke:#95aabf;stroke-width:1.079;stroke-opacity:1"
     d="m 35.894288,25.365729 c -0.137512,0.261195 -0.256685,0.532042 -0.356351,0.809889 -0.03601,0.100387 -0.07013,0.203019 -0.129582,0.29156 -0.02172,0.03235 -0.04673,0.06266 -0.06479,0.09719 -0.04162,0.0796 -0.04162,0.179566 0,0.259164"
     id="path30"
     inkscape:path-effect="#path-effect30"
     inkscape:original-d="m 35.894288,25.365729 c -0.22041,0.224908 -0.244663,0.53067 -0.356351,0.809889 -0.0395,0.09875 -0.08202,0.196435 -0.129582,0.29156 -0.03456,0.06911 -0.04915,-0.01232 -0.06479,0.09719 -0.01102,0.07711 0,0.177076 0,0.259164" />
  <path
     style="fill:none;stroke:#95aabf;stroke-width:1.079;stroke-opacity:1"
     d="m 27.212276,34.242114 c -0.203524,0.06001 -0.408814,0.114038 -0.615516,0.161978 -0.191657,0.04445 -0.393135,0.08353 -0.58312,0.0324 -0.105533,-0.0284 -0.203701,-0.0839 -0.311933,-0.09906 -0.05412,-0.0076 -0.110752,-0.0045 -0.161044,0.01691 -0.02515,0.01069 -0.04847,0.02588 -0.06767,0.04533 -0.01919,0.01945 -0.03418,0.04319 -0.04248,0.06922 -0.01321,0.04144 -0.0091,0.0862 -0.0037,0.12935 0.0054,0.04315 0.01211,0.08715 0.0037,0.129815 -0.0091,0.04613 -0.03567,0.08769 -0.06994,0.119884 -0.03427,0.0322 -0.07597,0.05559 -0.119303,0.07386 -0.08666,0.03653 -0.181208,0.05376 -0.264291,0.09782 -0.07797,0.04135 -0.142069,0.104352 -0.202015,0.169117 -0.05994,0.06477 -0.117407,0.132625 -0.186732,0.187234 -0.0927,0.07303 -0.206291,0.120539 -0.323955,0.129582 -0.0754,0.0058 -0.151249,-0.0039 -0.226769,0 -0.142971,0.0075 -0.282776,0.06571 -0.388747,0.161978"
     id="path31"
     inkscape:path-effect="#path-effect31"
     inkscape:original-d="m 27.212276,34.242114 c -0.233952,0.07798 -0.365337,0.135173 -0.615516,0.161978 -0.193565,0.02074 -0.388562,0.02569 -0.58312,0.0324 -0.01004,3.46e-4 -0.492777,-0.05795 -0.58312,0.0324 -0.0368,0.0368 0.02603,0.217513 0,0.259165 -0.0923,0.147686 -0.31391,0.213989 -0.453538,0.29156 -0.16728,0.09293 -0.224921,0.265337 -0.388747,0.356351 -0.101667,0.05648 -0.211124,0.101375 -0.323955,0.129582 -0.06237,0.01559 -0.169551,-0.02861 -0.226769,0 -0.05423,0.02712 -0.348655,0.161978 -0.388747,0.161978" />
  <path
     style="fill:none;stroke:#95aabf;stroke-width:1.079;stroke-opacity:1"
     d="m 20.797954,35.797101 c -0.357171,-0.104551 -0.744278,-0.104551 -1.101449,0 -0.08063,0.0236 -0.161585,0.05268 -0.245589,0.05176 -0.042,-4.61e-4 -0.08437,-0.0087 -0.121688,-0.02802 -0.03731,-0.01929 -0.06931,-0.0501 -0.08626,-0.08853 -0.0138,-0.03129 -0.01741,-0.06646 -0.0324,-0.09719 -0.02031,-0.04165 -0.05914,-0.07073 -0.09719,-0.09719 -0.08367,-0.05818 -0.170482,-0.111769 -0.259164,-0.161978 -0.17672,-0.100054 -0.360989,-0.186769 -0.550725,-0.259164"
     id="path32"
     inkscape:path-effect="#path-effect32"
     inkscape:original-d="m 20.797954,35.797101 c -0.34745,0.200898 -0.724699,0.05796 -1.101449,0 -0.08855,-0.01362 -0.340804,-0.02721 -0.453538,-0.06479 -0.06629,-0.0221 -0.0061,-0.05328 -0.0324,-0.09719 -0.02357,-0.03929 -0.06271,-0.06702 -0.09719,-0.09719 -0.222621,-0.194794 -0.111658,-0.06364 -0.259164,-0.161978 -0.188593,-0.125729 -0.31403,-0.259164 -0.550725,-0.259164" />
  <path
     style="fill:none;stroke:#95aabf;stroke-width:1.079;stroke-opacity:1"
     d="m 15.517477,34.695652 c -0.216579,-0.110566 -0.46219,-0.163629 -0.705097,-0.152331 -0.242907,0.0113 -0.482532,0.08693 -0.687913,0.217121 -0.04103,0.02601 -0.08206,0.05473 -0.129582,0.06479 -0.04351,0.0092 -0.08854,0.0019 -0.132982,1.53e-4 -0.02222,-8.91e-4 -0.04465,-3.74e-4 -0.0664,0.0042 -0.02175,0.0046 -0.0429,0.01353 -0.05979,0.028 -0.01165,0.01 -0.021,0.02232 -0.03085,0.03408 -0.0099,0.01176 -0.02054,0.02323 -0.03394,0.03071 -0.01066,0.0059 -0.02259,0.0091 -0.03405,0.01332 -0.01146,0.0042 -0.02292,0.0097 -0.03074,0.01908 -0.0078,0.0094 -0.01119,0.02156 -0.01486,0.0332 -0.0018,0.0058 -0.0038,0.01163 -0.0066,0.01708 -0.0028,0.0054 -0.0063,0.01056 -0.01098,0.01451 -0.0064,0.0054 -0.01457,0.0084 -0.02286,0.0095 -0.0083,0.0011 -0.01673,2.8e-4 -0.02496,-0.0012 -0.01646,-0.003 -0.03264,-0.0087 -0.04936,-0.0083 -0.02002,5.41e-4 -0.0389,0.01005 -0.05459,0.02249 -0.0157,0.01244 -0.02878,0.02779 -0.0426,0.0423 -0.07283,0.07647 -0.168749,0.130648 -0.271834,0.153556 -0.103085,0.02291 -0.212924,0.01445 -0.311286,-0.02397"
     id="path33"
     inkscape:path-effect="#path-effect33"
     inkscape:original-d="m 15.517477,34.695652 c -0.458971,0.02268 -0.943363,-0.05784 -1.39301,0.06479 -0.04659,0.01271 -0.08474,0.04686 -0.129582,0.06479 -0.08195,0.03278 -0.164994,-0.01469 -0.259165,0.0324 -0.02732,0.01366 -0.04036,0.04646 -0.06479,0.06479 -0.01932,0.01449 -0.04772,0.01532 -0.06479,0.0324 -0.01707,0.01707 -0.0108,0.05399 -0.03239,0.06479 -0.02898,0.01449 -0.06645,-0.01024 -0.09719,0 -0.03694,0.01231 -0.06025,0.05248 -0.09719,0.06479 -0.182966,0.06099 -0.393805,0.08225 -0.58312,0.129582" />
  <path
     style="fill:none;stroke:#95aabf;stroke-width:1.079;stroke-opacity:1"
     d="M 2.5268542,25.13896 C 2.5411002,24.968563 2.4944711,24.793704 2.397272,24.653026 2.3232866,24.545946 2.2228272,24.460272 2.1381074,24.361466 2.0171115,24.220353 1.9293434,24.053818 1.8141517,23.907928 1.7471118,23.823022 1.6703246,23.744411 1.6197783,23.648764 1.581334,23.576017 1.5593203,23.495623 1.5225916,23.421995 1.4944731,23.365627 1.4580642,23.313881 1.4254049,23.260017 1.2734611,23.00942 1.204265,22.70957 1.2310315,22.417732"
     id="path34"
     inkscape:path-effect="#path-effect34"
     inkscape:original-d="M 2.5268542,25.13896 C 2.5334043,24.933412 2.5348735,24.847962 2.397272,24.653026 2.322285,24.546795 2.2182469,24.463867 2.1381074,24.361466 2.0236067,24.21516 1.9234251,24.058179 1.8141517,23.907928 1.7506379,23.820597 1.6753363,23.74136 1.6197783,23.648764 1.5774667,23.578244 1.5593701,23.495552 1.5225916,23.421995 1.4944325,23.365677 1.4514603,23.317339 1.4254049,23.260017 1.3087208,23.003312 1.2857818,22.691483 1.2310315,22.417732" />
  <path
     style="fill:none;stroke:#95aabf;stroke-width:1.079;stroke-opacity:1"
     d="m 1.2310315,19.469736 c 0.076491,-0.129054 0.1520828,-0.25864 0.226769,-0.388747 0.2212646,-0.385453 0.4380014,-0.780165 0.7450981,-1.101449 0.280107,-0.293047 0.6300694,-0.519017 0.8746803,-0.842285 0.061552,-0.08134 0.1158312,-0.168191 0.1619778,-0.259165"
     id="path35"
     inkscape:path-effect="#path-effect35"
     inkscape:original-d="m 1.2310315,19.469736 c 0.1749693,-0.233293 0.037565,-0.03399 0.226769,-0.388747 0.2277348,-0.427003 0.4160155,-0.723004 0.7450981,-1.101449 0.2655273,-0.305357 0.6194472,-0.530334 0.8746803,-0.842285 0.06451,-0.07885 0.1054688,-0.174401 0.1619778,-0.259165" />
</svg>
