<?xml version="1.0" encoding="UTF-8" standalone="no"?>
<svg
   width="50px"
   height="43px"
   viewBox="0 0 50 43"
   version="1.1"
   id="svg1"
   sodipodi:docname="ico_warning.svg"
   inkscape:version="1.3.2 (091e20e, 2023-11-25, custom)"
   xmlns:inkscape="http://www.inkscape.org/namespaces/inkscape"
   xmlns:sodipodi="http://sodipodi.sourceforge.net/DTD/sodipodi-0.dtd"
   xmlns="http://www.w3.org/2000/svg"
   xmlns:svg="http://www.w3.org/2000/svg">
  <sodipodi:namedview
     id="namedview1"
     pagecolor="#ffffff"
     bordercolor="#000000"
     borderopacity="0.25"
     inkscape:showpageshadow="2"
     inkscape:pageopacity="0.0"
     inkscape:pagecheckerboard="0"
     inkscape:deskcolor="#d1d1d1"
     inkscape:zoom="27.27907"
     inkscape:cx="25.000853"
     inkscape:cy="21.5"
     inkscape:window-width="2560"
     inkscape:window-height="1369"
     inkscape:window-x="-8"
     inkscape:window-y="-8"
     inkscape:window-maximized="1"
     inkscape:current-layer="svg1" />
  <!-- Generator: Sketch 49 (51002) - http://www.bohemiancoding.com/sketch -->
  <title
     id="title1">warning-weather-interface-outlined-symbol</title>
  <desc
     id="desc1">Created with Sketch.</desc>
  <defs
     id="defs1">
    <inkscape:path-effect
       effect="spiro"
       id="path-effect8"
       is_visible="true"
       lpeversion="1" />
    <inkscape:path-effect
       effect="spiro"
       id="path-effect7"
       is_visible="true"
       lpeversion="1" />
    <inkscape:path-effect
       effect="spiro"
       id="path-effect2"
       is_visible="true"
       lpeversion="1" />
  </defs>
  <path
     style="fill:none;stroke:#ff9500;stroke-width:2;stroke-dasharray:none;stroke-opacity:1"
     d="m 25.770673,41.02046 c -0.790785,-0.123655 -1.58561,-0.22148 -2.382779,-0.293265 -1.766597,-0.159082 -3.541936,-0.19012 -5.31543,-0.219949 -2.785779,-0.04685 -5.571884,-0.07332 -8.3580565,-0.07332 H 6.6717818 6.1219096 c -0.018423,0 -0.036827,10e-4 -0.055179,0.0026 -0.018351,0.0016 -0.037347,0.0033 -0.054795,-0.0026 -0.016628,-0.0056 -0.030214,-0.01791 -0.041438,-0.03141 -0.011224,-0.0135 -0.020572,-0.02848 -0.031878,-0.04191 -0.023139,-0.02749 -0.053803,-0.04768 -0.08571,-0.0642 -0.031907,-0.01652 -0.065421,-0.02974 -0.097581,-0.04577 C 5.5838678,40.165208 5.4622775,40.007075 5.3154305,39.884058 5.0924466,39.69726 4.8137804,39.593511 4.5456095,39.480818 4.187969,39.330527 3.8314935,39.156487 3.4458653,39.114237 3.3116407,39.099531 3.1755871,39.101112 3.0426257,39.077579 2.8439214,39.042411 2.6567904,38.951964 2.4560955,38.930946 c -0.1459383,-0.01528 -0.2933203,0.0068 -0.4398977,0 -0.1103429,-0.0051 -0.2226854,-0.0265 -0.3299233,0 -0.075137,0.01857 -0.1437241,0.0599 -0.2199488,0.07332 -0.087996,0.01549 -0.1811461,-0.0088 -0.2539746,-0.06054 -0.072829,-0.05176 -0.1255312,-0.129604 -0.1524069,-0.214815 -0.026876,-0.08521 -0.02866,-0.177377 -0.011168,-0.264997 0.017493,-0.08762 0.053811,-0.17085 0.1008804,-0.246796 0.094139,-0.151891 0.2290978,-0.273336 0.3616873,-0.393142 0.1325895,-0.119805 0.2666535,-0.242554 0.3582209,-0.39601 0.090102,-0.150999 0.1347981,-0.325301 0.1563431,-0.499814 0.021545,-0.174514 0.02101,-0.350875 0.026948,-0.526613 0.035479,-1.050064 0.3023195,-2.078819 0.6231884,-3.079287 0.1796248,-0.56007 0.3770267,-1.115438 0.6231884,-1.649617 0.7309873,-1.586267 1.8965962,-2.969627 3.3358909,-3.959079 0.8256046,-0.516907 1.5704842,-1.162469 2.1994885,-1.906223 0.5808167,-0.686775 1.0605954,-1.453012 1.5029839,-2.236147 0.299005,-0.529312 0.582354,-1.068409 0.916453,-1.5763 1.148785,-1.746363 2.841131,-3.047294 4.435636,-4.398977 0.607195,-0.514727 1.206709,-1.043692 1.722932,-1.649616 0.407415,-0.478209 0.759531,-1.000352 1.136403,-1.502984 0.494748,-0.659844 1.032367,-1.286299 1.5763,-1.906224 0.132406,-0.150904 0.266139,-0.302731 0.366581,-0.476555 0.196134,-0.339428 0.253259,-0.742193 0.256637,-1.134199 0.0034,-0.392007 -0.04301,-0.783294 -0.03669,-1.1752644 0.0082,-0.5072535 0.104469,-1.0089823 0.219949,-1.5029838 0.03983,-0.1704005 0.08203,-0.3404648 0.109974,-0.5132139 0.07636,-0.4720839 0.04506,-0.9558748 0.109975,-1.4296676 0.08519,-0.6217684 0.332828,-1.2073973 0.549872,-1.7962489 0.113059,-0.306736 0.219799,-0.6193666 0.394326,-0.8957897 0.174527,-0.276423 0.427559,-0.5180395 0.742076,-0.6071941 0.177654,-0.050359 0.365701,-0.050002 0.549872,-0.036658 0.859001,0.062238 1.676231,0.3955766 2.529412,0.5132139 0.461457,0.063626 0.929081,0.063541 1.393597,0.098413 0.464515,0.034872 0.934011,0.1070524 1.355764,0.3048268 0.207484,0.097296 0.403816,0.22665 0.549872,0.4032396 0.195146,0.2359432 0.288362,0.5409591 0.331822,0.8440472 0.04346,0.3030881 0.04171,0.6107997 0.07142,0.9155436 0.09935,1.0192307 0.54497,1.9702376 0.769821,2.9693094 0.09794,0.4351953 0.153736,0.8785537 0.219949,1.3196931 0.162982,1.085861 0.389756,2.161629 0.659847,3.225916 0.404242,1.592908 0.905792,3.161187 1.502984,4.692242 0.548702,1.40674 1.178467,2.782699 1.906223,4.105712 0.208228,0.378546 0.424478,0.752775 0.623188,1.136403 0.163374,0.315408 0.314749,0.636896 0.476556,0.953111 0.468532,0.91564 1.024292,1.786096 1.649616,2.602728 0.716107,0.935187 1.52169,1.798141 2.346122,2.639387 0.48414,0.494014 0.975923,0.981729 1.502983,1.429667 0.257567,0.218901 0.523556,0.428304 0.769821,0.659847 0.18886,0.177569 0.365533,0.367614 0.549872,0.549872 0.264289,0.261304 0.544217,0.506484 0.80648,0.769821 0.428722,0.430477 0.808092,0.907302 1.17306,1.393009 0.349966,0.465741 0.689411,0.942808 1.099744,1.356351 0.09738,0.09814 0.198582,0.192521 0.293265,0.293266 0.444077,0.47251 0.731541,1.069785 1.136403,1.5763 0.253797,0.317521 0.551507,0.596626 0.843137,0.879795 0.111588,0.10835 0.222459,0.217482 0.329923,0.329923 0.114827,0.120144 0.227351,0.246426 0.298206,0.396757 0.03543,0.07516 0.05997,0.155936 0.06715,0.238721 0.0072,0.08279 -0.0034,0.167653 -0.03543,0.244318 -0.03286,0.07859 -0.08769,0.147083 -0.153619,0.20101 -0.06593,0.05393 -0.142758,0.09365 -0.223094,0.121957 -0.160671,0.05662 -0.333178,0.06789 -0.503083,0.08027 -0.477865,0.03483 -0.954865,0.08237 -1.429667,0.146633 -0.317027,0.04291 -0.633628,0.09333 -0.953112,0.109974 -0.329534,0.01717 -0.659794,-0.0017 -0.98977,0 -0.293553,0.0015 -0.586747,0.01938 -0.879795,0.03666 -0.549499,0.0324 -1.099263,0.06285 -1.649617,0.07332 -0.513135,0.0098 -1.026418,0.0022 -1.539641,0 -0.721113,-0.003 -1.442423,0.0047 -2.162831,0.03666 -0.305487,0.01357 -0.61229,0.03148 -0.916453,0 -0.471063,-0.04875 -0.922002,-0.214515 -1.356352,-0.40324 -0.120765,-0.05247 -0.24103,-0.106952 -0.366581,-0.146632 -0.318586,-0.100689 -0.65856,-0.102639 -0.98977,-0.146633 -0.221058,-0.02936 -0.439197,-0.07768 -0.659846,-0.109974 -0.56925,-0.08331 -1.148059,-0.05916 -1.722933,-0.03666 -0.57105,0.02235 -1.155208,0.0455 -1.686275,0.256607 -0.15833,0.06294 -0.311165,0.142353 -0.476555,0.18329 -0.109439,0.02709 -0.223198,0.03698 -0.329924,0.07332 -0.114007,0.03881 -0.21634,0.106592 -0.329923,0.146632 -0.117701,0.04149 -0.243625,0.05194 -0.366581,0.07332 -0.385865,0.06709 -0.747954,0.243261 -1.136403,0.293266 -0.14596,0.01879 -0.293742,0.01946 -0.439897,0.03666 -0.297673,0.03504 -0.583518,0.137949 -0.879796,0.18329 -0.230381,0.03526 -0.466124,0.03526 -0.696505,0 z"
     id="path2"
     inkscape:path-effect="#path-effect2"
     inkscape:original-d="m 25.770673,41.02046 c -0.801053,-0.03815 -1.585812,-0.220813 -2.382779,-0.293265 -1.66959,-0.151781 -3.659906,-0.189848 -5.31543,-0.219949 -2.785459,-0.05064 -5.572192,-0.07332 -8.3580565,-0.07332 -1.0142086,0 -2.0284172,0 -3.0426257,0 -0.1832908,0 -0.3665815,0 -0.5498722,0 -0.036658,0 -0.075938,0.01362 -0.1099744,0 -0.03209,-0.01284 -0.045192,-0.05323 -0.073316,-0.07332 C 5.8806399,40.3192 5.8129512,40.292547 5.7553282,40.250639 5.6009625,40.138373 5.4742463,39.989935 5.3154305,39.884058 5.1847951,39.796968 4.6515874,39.52792 4.5456095,39.480818 4.1466851,39.303519 3.8721876,39.203054 3.4458653,39.114237 3.3137348,39.08671 3.1735634,39.110313 3.0426257,39.077579 2.8515025,39.029798 2.6575778,38.950135 2.4560955,38.930946 c -0.1459721,-0.0139 -0.2932652,0 -0.4398977,0 -0.1099744,0 -0.2212277,-0.01672 -0.3299233,0 -0.1313528,0.02021 -0.2020926,0.162598 -0.2199488,0.07332 -0.1216761,-0.608381 0.241288,-1.014868 0.4032395,-1.576301 0.096329,-0.333938 0.1220171,-0.684316 0.1832907,-1.026427 C 2.196897,35.597305 2.4511636,34.071853 2.6760443,33.322251 2.8449479,32.759239 2.9602574,32.152849 3.2992327,31.672634 4.294417,30.26279 5.4586673,28.976093 6.6351236,27.713555 7.819417,26.825335 7.8346477,26.900316 8.8346121,25.807332 9.4337136,25.1525 9.9273036,24.35447 10.337596,23.571185 c 0.530779,-1.013305 0.178641,-0.59255 0.916453,-1.5763 1.253389,-1.671185 2.905462,-2.994227 4.435636,-4.398977 0.243749,-0.22377 1.440201,-1.311448 1.722932,-1.649616 0.402864,-0.481857 0.750217,-1.00766 1.136403,-1.502984 0.506596,-0.649766 1.06411,-1.26042 1.5763,-1.906224 0.124535,-0.157023 0.265599,-0.303443 0.366581,-0.476555 0.398082,-0.682426 0.168872,-1.568848 0.219949,-2.3094634 0.03405,-0.4937623 0.12978,-1.0160721 0.219949,-1.5029838 0.03186,-0.17203 0.09029,-0.3393695 0.109974,-0.5132139 0.05377,-0.4749301 0.05621,-0.9547375 0.109975,-1.4296676 0.07164,-0.632843 0.335297,-1.2061684 0.549872,-1.7962489 0.224664,-0.6178261 0.442758,-1.2862199 1.136402,-1.5029838 0.09922,-0.031006 0.436921,-0.050777 0.549872,-0.036658 2.562215,0.3202768 0.519173,0.046551 2.529412,0.5132139 0.904675,0.210014 1.827552,0.31682 2.749361,0.4032396 0.386653,0.036249 0.447444,0.019136 0.549872,0.4032396 0.155458,0.58297 0.234105,1.1797029 0.403239,1.7595908 0.546921,1.875155 0.225063,0.2757837 0.769821,2.9693094 0.08841,0.4371153 0.144177,0.8802119 0.219949,1.3196931 0.272178,1.578634 0.282272,1.805515 0.659847,3.225916 0.422178,1.588196 0.895511,3.164358 1.502984,4.692242 0.556671,1.400113 1.207994,2.770863 1.906223,4.105712 0.20024,0.382813 0.421976,0.7541 0.623188,1.136403 0.165435,0.314326 0.299418,0.645229 0.476556,0.953111 0.03481,0.0605 1.322478,2.186371 1.649616,2.602728 0.719684,0.915962 1.517905,1.81117 2.346122,2.639387 0.488927,0.488928 0.990814,0.965142 1.502983,1.429667 0.250342,0.227054 0.520684,0.431471 0.769821,0.659847 0.19108,0.175156 0.359673,0.373761 0.549872,0.549872 0.658287,0.609524 0.236473,0.104813 0.80648,0.769821 0.39506,0.460904 0.785218,0.926015 1.17306,1.393009 0.371878,0.447771 0.716456,0.918308 1.099744,1.356351 0.09104,0.104042 0.204762,0.187062 0.293265,0.293266 0.42613,0.511355 0.709874,1.069796 1.136403,1.5763 0.258566,0.307047 0.558705,0.595363 0.843137,0.879795 0.02989,0.02989 0.277302,0.237836 0.329923,0.329923 0.09,0.157497 0.381919,0.706479 0.329924,0.879796 -0.08751,0.2917 -0.660128,0.365365 -0.879796,0.403239 -0.328795,0.05669 -1.140794,0.116542 -1.429667,0.146633 -0.318091,0.03313 -0.633811,0.0919 -0.953112,0.109974 -0.329396,0.01864 -0.65991,-0.0065 -0.98977,0 -0.293463,0.0058 -0.586553,0.02391 -0.879795,0.03666 -0.100269,0.0044 -1.569645,0.07209 -1.649617,0.07332 -0.513153,0.0079 -1.026483,-0.0075 -1.539641,0 -0.721961,0.01062 -1.440487,0.03666 -2.162831,0.03666 -0.305484,0 -0.612982,0.03502 -0.916453,0 -0.465384,-0.0537 -0.92193,-0.237746 -1.356352,-0.40324 -0.122984,-0.04685 -0.240038,-0.110477 -0.366581,-0.146632 -0.229338,-0.06553 -0.798061,-0.11844 -0.98977,-0.146633 -0.22061,-0.03244 -0.438391,-0.08392 -0.659846,-0.109974 -0.558889,-0.06575 -1.162015,-0.05419 -1.722933,-0.03666 -0.548115,0.01713 -1.165027,0.07045 -1.686275,0.256607 -0.312816,0.11172 -0.180633,0.104378 -0.476555,0.18329 -0.108854,0.02903 -0.223048,0.03769 -0.329924,0.07332 -0.114171,0.03806 -0.215162,0.110392 -0.329923,0.146632 -0.118829,0.03753 -0.245688,0.04309 -0.366581,0.07332 -0.375185,0.0938 -0.755019,0.226938 -1.136403,0.293266 -0.144965,0.02521 -0.294106,0.01678 -0.439897,0.03666 -0.296234,0.04039 -0.58566,0.134268 -0.879796,0.18329 -0.206316,0.03439 -0.498562,0 -0.696505,0 z" />
  <path
     style="fill:none;stroke:#ff9500;stroke-width:2.6;stroke-dasharray:none;stroke-opacity:1"
     d="m 25.294118,12.976982 c -0.08265,0.06311 -0.15684,0.137295 -0.219949,0.219949 -0.219908,0.288013 -0.294665,0.664062 -0.293265,1.026428 3.78e-4,0.09778 0.0058,0.195659 0,0.293265 -0.01469,0.246941 -0.100826,0.485955 -0.109975,0.733163 -0.0091,0.245725 0.05819,0.487735 0.07332,0.733163 0.01279,0.207408 -0.01177,0.41572 0,0.623188 0.02339,0.412147 0.188367,0.802588 0.256607,1.209719 0.05072,0.302581 0.0474,0.613334 0,0.916453 -0.01712,0.109506 -0.04003,0.219139 -0.03666,0.329924 0.0043,0.14167 0.0514,0.278442 0.10534,0.409512 0.05394,0.13107 0.115495,0.25982 0.151267,0.396967 0.09286,0.356003 0.0047,0.733219 0.03666,1.099744 0.01396,0.160158 0.05081,0.317375 0.07332,0.476556 0.08062,0.570172 -0.02659,1.158366 -0.256607,1.686274 -0.08985,0.206206 -0.19864,0.405857 -0.256607,0.623189 -0.07603,0.285061 -0.0608,0.585758 -0.03666,0.879795 0.01061,0.129219 0.02293,0.258909 0.05447,0.384668 0.03154,0.125759 0.08322,0.248281 0.165479,0.348495 0.109266,0.133109 0.264568,0.21862 0.39634,0.329495 0.06589,0.05544 0.126774,0.118335 0.169782,0.192931 0.04301,0.0746 0.06728,0.161896 0.05707,0.247395 -0.0092,0.07699 -0.04512,0.147726 -0.07332,0.219949 -0.114422,0.293016 -0.100801,0.633513 0.03666,0.916453"
     id="path7"
     inkscape:path-effect="#path-effect7"
     inkscape:original-d="m 25.294118,12.976982 c -0.07332,0.07332 -0.158965,0.136095 -0.219949,0.219949 -0.07286,0.10018 -0.275905,0.896223 -0.293265,1.026428 -0.01292,0.0969 0.0061,0.1957 0,0.293265 -0.01549,0.247773 -0.08275,0.488138 -0.109975,0.733163 -0.02743,0.246858 0.03893,0.492438 0.07332,0.733163 0.02882,0.201757 -0.01355,0.420006 0,0.623188 0.0279,0.418556 0.155997,0.80728 0.256607,1.209719 0.0731,0.29239 0.04522,0.622544 0,0.916453 -0.02458,0.159803 -0.05365,0.177008 -0.03666,0.329924 0.03152,0.283698 0.173911,0.537716 0.256607,0.806479 0.107983,0.350943 -0.01103,0.742093 0.03666,1.099744 0.09346,0.700934 0.07332,-0.14045 0.07332,0.476556 0,0.514818 -0.08956,1.206012 -0.256607,1.686274 -0.0738,0.212182 -0.192054,0.408012 -0.256607,0.623189 -0.07915,0.263832 -0.05927,0.608439 -0.03666,0.879795 0.0184,0.220748 0.08329,0.550956 0.219949,0.733163 0.107509,0.143346 0.623188,0.567182 0.623188,0.769821 0,0.07728 -0.06373,0.143263 -0.07332,0.219949 -0.03869,0.30949 0.03666,0.60744 0.03666,0.916453" />
  <path
     style="fill:none;stroke:#ff9500;stroke-width:2;stroke-dasharray:none;stroke-opacity:1"
     d="m 24.231032,36.621483 c 0.148031,-0.366341 0.258761,-0.747744 0.329923,-1.136402 0.02879,-0.157216 0.05117,-0.317387 0.03666,-0.476556 -0.01598,-0.175201 -0.07606,-0.34322 -0.106654,-0.516467 -0.0153,-0.08662 -0.0232,-0.175147 -0.01426,-0.262657 0.0089,-0.08751 0.03528,-0.174238 0.08426,-0.247304 0.05838,-0.08709 0.146847,-0.151421 0.243573,-0.191877 0.09673,-0.04046 0.201656,-0.05822 0.306299,-0.06473 0.111217,-0.0069 0.225077,-0.0011 0.329923,0.03666 0.141675,0.051 0.259981,0.15992 0.329923,0.293265 0.07625,0.14537 0.09574,0.313021 0.109975,0.476556 0.02471,0.283879 0.03575,0.579885 -0.07332,0.843138 -0.05055,0.122018 -0.12654,0.236042 -0.146633,0.366581 -0.0057,0.03692 -0.0067,0.07439 -0.01043,0.111561 -0.0037,0.03717 -0.01028,0.07461 -0.02623,0.108388 -0.01884,0.03989 -0.04976,0.07267 -0.07332,0.109974 -0.05033,0.07968 -0.06504,0.176382 -0.07253,0.270329 -0.0075,0.09395 -0.0091,0.189647 -0.03744,0.279543 -0.0164,0.05211 -0.04201,0.101939 -0.07927,0.141893 -0.03726,0.03995 -0.08672,0.06957 -0.140684,0.07806 -0.04836,0.0076 -0.09771,-0.0017 -0.146632,0 -0.07525,0.0026 -0.146834,0.03097 -0.219921,0.04906 -0.03654,0.009 -0.07398,0.01559 -0.111622,0.01496 -0.03764,-6.29e-4 -0.07566,-0.0087 -0.108355,-0.02736 -0.01197,-0.0068 -0.02312,-0.015 -0.03498,-0.02201 -0.01186,-0.007 -0.02467,-0.01293 -0.03834,-0.01465 -0.0186,-0.0023 -0.03714,0.0032 -0.05559,0.0066 -0.0092,0.0017 -0.01862,0.0028 -0.02796,0.0021 -0.0093,-7.1e-4 -0.01869,-0.0033 -0.02642,-0.0086 -0.0072,-0.0049 -0.01262,-0.01186 -0.01807,-0.01862 -0.0054,-0.0068 -0.01115,-0.01357 -0.01859,-0.01804 -0.01071,-0.0064 -0.02391,-0.0073 -0.03633,-0.006 -0.01243,0.0013 -0.02457,0.0046 -0.03699,0.006 -0.02221,0.0024 -0.04509,-0.0016 -0.0651,-0.01158 -0.02001,-0.0099 -0.03708,-0.0257 -0.04858,-0.04486 -0.01149,-0.01916 -0.01737,-0.04164 -0.01672,-0.06397 6.51e-4,-0.02233 0.0078,-0.04443 0.02042,-0.06289 z"
     id="path8"
     inkscape:path-effect="#path-effect8"
     inkscape:original-d="m 24.231032,36.621483 c 0.09678,-0.871059 -0.07493,0.438025 0.329923,-1.136402 0.03968,-0.154301 0.0287,-0.317433 0.03666,-0.476556 0.01684,-0.336811 -0.141236,-0.712693 -0.03666,-1.026428 0.08135,-0.244063 0.339425,-0.256607 0.549872,-0.256607 0.106137,0 0.231994,-0.0193 0.329923,0.03666 0.107677,0.06153 0.259029,0.186924 0.329923,0.293265 0.05577,0.08366 0.102963,0.37138 0.109975,0.476556 0.01762,0.264239 0.02114,0.591253 -0.07332,0.843138 -0.113771,0.303388 -0.0477,-0.02914 -0.146633,0.366581 -0.01803,0.07211 -0.01315,0.149435 -0.03666,0.219949 -0.01393,0.0418 -0.06121,0.06761 -0.07332,0.109974 -0.05803,0.203103 0.04324,0.335365 -0.109975,0.549872 -0.06027,0.08437 -0.137001,0.157738 -0.219949,0.219949 -0.0391,0.02933 -0.09842,-0.008 -0.146632,0 -0.124289,0.02072 -0.309558,0.08011 -0.439898,0.03666 -0.02592,-0.0086 -0.04652,-0.0313 -0.07332,-0.03666 -0.03595,-0.0072 -0.07441,0.0089 -0.109975,0 -0.01676,-0.0042 -0.02026,-0.03119 -0.03666,-0.03666 -0.02318,-0.0077 -0.05603,0.01728 -0.07332,0 -0.05038,-0.05038 -0.07332,-0.122194 -0.109974,-0.183291 z" />
</svg>
