<?xml version="1.0" encoding="UTF-8" standalone="no"?>
<svg
   width="34px"
   height="41px"
   viewBox="0 0 34 41"
   version="1.1"
   id="svg6"
   sodipodi:docname="ico_invoice.svg"
   inkscape:version="1.3.2 (091e20e, 2023-11-25, custom)"
   xmlns:inkscape="http://www.inkscape.org/namespaces/inkscape"
   xmlns:sodipodi="http://sodipodi.sourceforge.net/DTD/sodipodi-0.dtd"
   xmlns="http://www.w3.org/2000/svg"
   xmlns:svg="http://www.w3.org/2000/svg">
  <sodipodi:namedview
     id="namedview6"
     pagecolor="#ffffff"
     bordercolor="#000000"
     borderopacity="0.25"
     inkscape:showpageshadow="2"
     inkscape:pageopacity="0.0"
     inkscape:pagecheckerboard="0"
     inkscape:deskcolor="#d1d1d1"
     inkscape:zoom="28.609756"
     inkscape:cx="16.987212"
     inkscape:cy="20.5"
     inkscape:window-width="2560"
     inkscape:window-height="1369"
     inkscape:window-x="-8"
     inkscape:window-y="-8"
     inkscape:window-maximized="1"
     inkscape:current-layer="svg6" />
  <!-- Generator: Sketch 49 (51002) - http://www.bohemiancoding.com/sketch -->
  <title
     id="title1">icon</title>
  <desc
     id="desc1">Created with Sketch.</desc>
  <defs
     id="defs1">
    <inkscape:path-effect
       effect="spiro"
       id="path-effect15"
       is_visible="true"
       lpeversion="1" />
    <inkscape:path-effect
       effect="spiro"
       id="path-effect14"
       is_visible="true"
       lpeversion="1" />
    <inkscape:path-effect
       effect="spiro"
       id="path-effect13"
       is_visible="true"
       lpeversion="1" />
    <inkscape:path-effect
       effect="spiro"
       id="path-effect12"
       is_visible="true"
       lpeversion="1" />
    <inkscape:path-effect
       effect="spiro"
       id="path-effect11"
       is_visible="true"
       lpeversion="1" />
    <inkscape:path-effect
       effect="spiro"
       id="path-effect10"
       is_visible="true"
       lpeversion="1" />
    <inkscape:path-effect
       effect="spiro"
       id="path-effect9"
       is_visible="true"
       lpeversion="1" />
    <inkscape:path-effect
       effect="spiro"
       id="path-effect8"
       is_visible="true"
       lpeversion="1" />
    <inkscape:path-effect
       effect="spiro"
       id="path-effect7"
       is_visible="true"
       lpeversion="1" />
    <polyline
       id="path-1"
       points="0 11.3305964 0 0 30 0 30 37 0 37" />
    <polygon
       id="path-2"
       points="4 3 22.8504551 3 22.8504551 14.1825112 33 14.1825112 33 41 4 41" />
  </defs>
  <path
     style="fill:none;stroke:#ff9500;stroke-width:1.3;stroke-opacity:1"
     d="M 2.9710145,35.337596 C 2.6060886,35.381895 2.2284157,35.315049 1.9008652,35.148183 1.5733148,34.981318 1.2972053,34.715106 1.1184996,34.393862 0.85011259,33.911406 0.80964068,33.32157 0.94373402,32.786019 c 0.0350192,-0.139862 0.0813657,-0.277186 0.10485938,-0.419438 0.019085,-0.115557 0.02286,-0.233034 0.034953,-0.349531 0.03331,-0.320878 0.1292703,-0.631323 0.2097186,-0.943734 0.1497702,-0.581613 0.2471989,-1.186405 0.1747656,-1.782608 -0.041364,-0.340471 -0.1374719,-0.6727 -0.1747656,-1.013641 -0.021706,-0.19844 -0.023543,-0.400038 -0.069906,-0.594203 -0.022325,-0.09349 -0.054864,-0.184684 -0.069906,-0.279624 -0.025566,-0.161368 4.003e-4,-0.325963 0,-0.489344 -5.741e-4,-0.234323 -0.05542,-0.465186 -0.069906,-0.699062 -0.00865,-0.139591 -0.00288,-0.279609 0,-0.419438 0.012461,-0.605898 -0.029494,-1.21156 -0.034953,-1.817561 -0.00443,-0.491338 0.015376,-0.98489 0.1048593,-1.468031 0.1230614,-0.664438 0.3756641,-1.298185 0.5242967,-1.957374 0.1327476,-0.588739 0.1816939,-1.193901 0.314578,-1.782609 0.036741,-0.162769 0.079911,-0.324356 0.1048593,-0.489344 0.043626,-0.288505 0.030832,-0.582071 0.034953,-0.873827 0.00774,-0.54799 0.075497,-1.096255 0.034953,-1.642797 -0.019045,-0.256732 -0.061931,-0.511655 -0.069906,-0.768968 -0.00397,-0.128108 7.342e-4,-0.256317 0,-0.384484 -0.00248,-0.432668 -0.066841,-0.862263 -0.1048599,-1.293265 -0.051239,-0.580872 -0.054635,-1.164728 -0.069906,-1.747656 -0.00766,-0.292397 -0.018437,-0.585895 -0.069906,-0.873828 -0.06118,-0.342261 -0.179068,-0.6722 -0.2446718,-1.0136401 -0.068426,-0.3561316 -0.079223,-0.7210204 -0.069906,-1.0835464 0.00629,-0.244748 0.021631,-0.490144 0,-0.7340154 -0.047126,-0.5313119 -0.2682335,-1.0396138 -0.2796249,-1.57289 -0.00224,-0.1048447 0.0037,-0.2097746 0,-0.314578 C 1.2491891,5.7182853 1.1816939,5.4653261 1.1534527,5.2080136 1.1241811,4.9413136 1.137257,4.6717372 1.1184996,4.4040921 1.0888836,3.9815087 0.98026818,3.5678217 0.94373402,3.1457801 c -0.0130841,-0.1511476 -0.01686,-0.3036174 0,-0.4543905 C 0.96481893,2.5028346 1.017842,2.3193614 1.0485934,2.1321398 1.0817586,1.9302228 1.0909016,1.717835 1.1884058,1.5379369 1.2586216,1.4083868 1.3713414,1.3047104 1.499473,1.2319382 1.6276047,1.1591661 1.7708537,1.1159831 1.9159478,1.0902697 2.2061361,1.0388429 2.5045299,1.0555212 2.7962489,1.0136402 3.2420334,0.94964058 3.656193,0.75184504 4.0895141,0.62915601 4.5102993,0.51001635 4.9475481,0.46219705 5.3827792,0.41943734 c 0.90735,-0.0891435 1.8283922,-0.15784653 2.7263427,0 C 8.6001277,0.50574896 9.077309,0.65883793 9.5421995,0.83887468 10.056,1.0378528 10.566895,1.2728535 11.11509,1.3282182 c 0.440713,0.044509 0.885263,0 1.328218,0 h 2.411764 2.446718 c 0.337932,0 0.676243,0.018985 1.013641,0 0.852497,-0.047969 1.663632,-0.41623643 2.516624,-0.45439041 0.197896,-0.008852 0.396109,2.2488e-4 0.594202,0 0.174788,-1.9842e-4 0.349676,-0.007638 0.524297,0 0.674394,0.0294999 1.320679,0.28195641 1.992328,0.34953111 0.128052,0.012883 0.256776,0.019011 0.384484,0.034953 0.211013,0.026341 0.418044,0.079323 0.629156,0.1048594 0.544285,0.065839 1.097054,-0.052402 1.642796,0 0.257593,0.024734 0.510788,0.087287 0.768968,0.1048593 0.124265,0.00846 0.249113,0.00644 0.373251,0.016592 0.124138,0.010147 0.249113,0.033066 0.360765,0.088268 0.11309,0.055912 0.20784,0.1424692 0.314578,0.2097187 0.216497,0.1364028 0.475739,0.1896632 0.699062,0.314578 0.110033,0.061547 0.209781,0.1396261 0.314578,0.2097187 0.09003,0.060216 0.187261,0.1178739 0.244672,0.2097186 0.03759,0.060142 0.05521,0.131008 0.06139,0.2016628 0.0062,0.070655 0.0017,0.1417928 -0.0043,0.2124656 -0.01196,0.1413455 -0.02212,0.2828956 -0.02212,0.4247463 v 1.3282183 4.2293265 c 0,0.089439 -0.01031,0.1784706 -0.02681,0.2663746 -0.0082,0.043952 -0.01617,0.088363 -0.01488,0.1330638 0.0013,0.044701 0.01287,0.090666 0.04169,0.1248583 0.01062,0.012604 0.02331,0.023286 0.03495,0.034953 0.0556,0.05571 0.08605,0.1330734 0.09547,0.2112182 0.0094,0.078145 -8.43e-4,0.1574508 -0.01766,0.2343433 -0.03363,0.1537844 -0.09391,0.3066254 -0.07781,0.4632194 0.01625,0.158048 0.108608,0.298605 0.139812,0.454391 0.0084,0.04204 0.01232,0.0849 0.02104,0.12688 0.0087,0.04198 0.02272,0.08381 0.04887,0.117791 0.01008,0.01309 0.02186,0.02487 0.03495,0.03495"
     id="path15"
     inkscape:path-effect="#path-effect15"
     inkscape:original-d="M 2.9710145,35.337596 C 2.5297008,35.0174 1.366628,34.81568 1.1184996,34.393862 0.9397322,34.089957 0.89106852,33.137122 0.94373402,32.786019 c 0.0213781,-0.142521 0.0790792,-0.277647 0.10485938,-0.419438 0.020946,-0.115202 0.017584,-0.233735 0.034953,-0.349531 0.038621,-0.257475 0.1646059,-0.733208 0.2097186,-0.943734 0.1253896,-0.585151 0.1747656,-1.185501 0.1747656,-1.782608 0,-0.351841 -0.1133767,-0.66577 -0.1747656,-1.013641 C 1.226331,27.897773 1.290635,28.041678 1.223359,27.682864 1.205653,27.588434 1.169248,27.498009 1.153453,27.40324 c -0.025087,-0.150523 0.00991,-0.340737 0,-0.489344 -0.054908,-0.823625 -0.023339,0.418564 -0.069906,-0.699062 -0.00582,-0.139691 0.00537,-0.279728 0,-0.419438 C 1.060277,25.190385 1.019706,24.584478 1.048594,23.977835 1.071929,23.4878 1.102972,22.99779 1.1534533,22.509804 1.2233743,21.833902 1.5203818,21.20813 1.67775,20.55243 2.3527795,17.739807 1.783097,20.286745 1.992328,18.769821 2.015121,18.604568 2.07274,18.445494 2.0971873,18.280477 c 0.065115,-0.439524 0.017063,-0.44446 0.034953,-0.873827 0.022814,-0.547533 0.054577,-1.093338 0.034953,-1.642797 -0.00919,-0.257215 -0.058219,-0.511854 -0.069906,-0.768968 -0.00582,-0.128029 0.0061,-0.256468 0,-0.384484 C 2.0766632,14.179408 2.0110783,13.748406 1.9923274,13.317136 1.967008,12.73479 1.9531184,12.152727 1.9224211,11.56948 1.9070631,11.277677 1.9038821,10.983308 1.8525149,10.695652 1.6092782,9.3335268 1.8063454,10.972276 1.6078431,9.6820119 1.5535102,9.328848 1.5379369,8.9554462 1.5379369,8.5984655 c 0,-0.2446718 0.022152,-0.4903484 0,-0.7340154 -0.047845,-0.5262961 -0.225274,-1.0565569 -0.2796249,-1.57289 -0.010977,-0.1042832 0.00616,-0.2098996 0,-0.314578 C 1.2431207,5.7187293 1.1732592,5.465498 1.1534527,5.2080136 1.1326166,4.937145 1.1430271,4.6738945 1.1184996,4.4040921 1.0799368,3.9799014 0.97213833,3.5718448 0.94373402,3.1457801 c -0.009351,-0.14027 -0.0175346,-0.3141137 0,-0.4543905 C 0.96723193,2.5034063 1.0313761,2.3215292 1.0485934,2.1321398 1.0674427,1.9247966 1.0342576,1.6920851 1.1884058,1.5379369 1.4031311,1.3232116 2.5178976,1.0873215 2.7962489,1.0136402 3.2300417,0.89881273 3.6548927,0.74183561 4.0895141,0.62915601 4.5664477,0.50550656 4.8616216,0.48458204 5.3827792,0.41943734 c 0.9101829,-0.11377287 1.8177308,-0.16225212 2.7263427,0 0.4963202,0.0886286 0.961818,0.242715 1.4330776,0.41943734 0.4967225,0.18627102 1.0306645,0.46675082 1.5728905,0.48934352 0.440025,0.018334 0.887451,0 1.328218,0 0.803921,0 1.607843,0 2.411764,0 0.815573,0 1.631146,0 2.446718,0 0.33788,0 0.676684,0.02496 1.013641,0 0.852445,-0.063144 1.669347,-0.36966271 2.516624,-0.45439041 0.197084,-0.0197085 0.396135,0 0.594202,0 0.174766,0 0.350399,-0.0173898 0.524297,0 0.669752,0.0669752 1.330385,0.23920741 1.992328,0.34953111 0.126938,0.021157 0.257218,0.015863 0.384484,0.034953 0.446103,0.066915 0.179792,0.083461 0.629156,0.1048594 0.545567,0.025979 1.097796,-0.036333 1.642796,0 0.664656,0.04431 0.105587,0.014398 0.768968,0.1048593 0.414599,0.056536 0.339742,-2.804e-4 0.734016,0.1048593 0.339121,0.090432 0.02203,0.029691 0.314578,0.2097187 0.217622,0.1339211 0.475165,0.1914347 0.699062,0.314578 0.110425,0.060734 0.208568,0.1415696 0.314578,0.2097187 0.15334,0.098575 0.172604,0.065583 0.244672,0.2097186 0.130515,0.2610296 0.03495,0.546223 0.03495,0.8388747 0,0.4427394 0,0.8854789 0,1.3282183 0,1.4097755 0,2.819551 0,4.2293265 0,0.082097 -0.03873,0.4468377 0,0.5242967 0.0074,0.014738 0.02974,0.019322 0.03495,0.034953 0.05185,0.1555337 -0.02251,0.7061879 0,0.9087809 0.01757,0.158127 0.139812,0.306735 0.139812,0.454391 0,0.153474 -0.02036,0.109269 0.06991,0.244671 0.03107,0.04661 -0.04272,0.03495 0.03495,0.03495" />
  <path
     style="fill:none;stroke:#1c1f30;stroke-width:1.3;stroke-opacity:1"
     d="M 10.695652,39.531969 C 10.421784,39.268415 10.100532,39.054247 9.7519182,38.902813 9.2624934,38.690212 8.7281341,38.603378 8.1972644,38.549406 7.6663947,38.495434 7.1314417,38.472281 6.6061381,38.378517 6.2438871,38.313857 5.8875511,38.215822 5.5225916,38.168798 5.1964688,38.126778 4.8653343,38.125759 4.5416735,38.067746 4.2180128,38.009732 3.8925565,37.886626 3.6700767,37.644501 3.5490263,37.512762 3.4634829,37.350656 3.4100871,37.179901 c -0.053396,-0.170755 -0.075427,-0.350214 -0.078568,-0.529095 -0.00628,-0.357763 0.061806,-0.712161 0.093886,-1.068538 0.1143558,-1.270363 -0.2291432,-2.535389 -0.2796248,-3.809889 -0.01568,-0.395872 -0.00303,-0.792235 0,-1.188406 0.00642,-0.838919 -0.030317,-1.678229 0,-2.516624 0.016022,-0.443071 0.050752,-0.885272 0.069906,-1.328219 0.018631,-0.43085 0.022516,-0.862191 0.034953,-1.293265 0.033355,-1.156105 0.1282021,-2.309651 0.2446718,-3.460358 0.068247,-0.674275 0.1440248,-1.349573 0.1398124,-2.02728 -0.00734,-1.180948 -0.2573481,-2.349504 -0.2796249,-3.530265 -0.00571,-0.302881 0.00358,-0.605867 0,-0.90878 -0.010209,-0.863381 -0.1246807,-1.732139 0,-2.586531 0.071054,-0.486907 0.2185259,-0.958772 0.3495311,-1.433077 0.2273891,-0.823263 0.4069816,-1.6638521 0.4543905,-2.5166243 0.02717,-0.4887254 0.010801,-0.9786698 0,-1.4680307 C 4.1488628,7.0365922 4.1435763,6.5572205 4.089514,6.0818414 4.0718772,5.9267577 4.0484041,5.7699222 3.9846547,5.627451 3.9418771,5.5318489 3.8820061,5.4451025 3.8277319,5.3555257 3.7734578,5.265949 3.7238833,5.1712266 3.7050298,5.0682012 3.6858396,4.963336 3.6999189,4.8532532 3.7408129,4.7548019 3.7817069,4.6563506 3.8488627,4.5695314 3.9310821,4.5016717 4.0955211,4.3659522 4.3152306,4.3091587 4.5283949,4.3137309 c 0.2131643,0.00457 0.4213809,0.06621 0.6191808,0.1458037 0.1978,0.079593 0.387805,0.1774125 0.5847346,0.2591355 C 6.606284,5.081357 7.5848471,5.113627 8.5256892,5.0126908 9.4665312,4.9117546 10.388992,4.683974 11.324808,4.5439045 c 0.832957,-0.1246739 1.674927,-0.1796081 2.516624,-0.2097187 0.919971,-0.032911 1.840737,-0.034953 2.761296,-0.034953 h 1.433078 c 0.209731,0 0.419551,-0.00725 0.629156,0 0.73412,0.025398 1.439173,0.2859469 2.167093,0.3844843 0.266604,0.03609 0.535598,0.050337 0.803921,0.069906 0.186304,0.013587 0.372523,0.029758 0.55925,0.034953 0.10483,0.00292 0.209734,0.00237 0.314578,0 0.01165,-2.633e-4 0.02331,-5.49e-4 0.03495,0 0.06475,0.00305 0.127163,0.032687 0.173387,0.078133 0.04622,0.045446 0.07654,0.1059559 0.08936,0.1694976 0.01282,0.063542 0.0086,0.1299531 -0.0081,0.1925859 -0.01671,0.062633 -0.04565,0.1216087 -0.08147,0.1756376 -0.07163,0.1080577 -0.169503,0.1955961 -0.26516,0.2831032 -0.09566,0.087507 -0.191529,0.1778719 -0.257547,0.2894488 -0.06446,0.1089518 -0.09764,0.2336145 -0.119183,0.3583625 -0.02154,0.1247481 -0.0322,0.251237 -0.05558,0.3756528 -0.02663,0.1416688 -0.06957,0.2796728 -0.104859,0.4194374 -0.206845,0.8193241 -0.147318,1.6820153 -0.279625,2.516624 -0.09607,0.6060314 -0.292196,1.1908344 -0.45439,1.7826094 -0.149898,0.546911 -0.272013,1.1141 -0.209719,1.677749 0.03267,0.295631 0.117953,0.589221 0.279625,0.838875 0.209895,0.32412 0.540837,0.559432 0.902747,0.694084 0.36191,0.134652 0.75397,0.173719 1.139852,0.159393 0.771763,-0.02865 1.522002,-0.26454 2.291587,-0.329181 0.895518,-0.07522 1.792988,0.08281 2.691389,0.10486 0.500891,0.0123 1.002255,-0.01772 1.502984,0 0.199225,0.0071 0.40291,0.02115 0.594203,-0.03495 0.05786,-0.01697 0.114001,-0.04024 0.173116,-0.05214 0.05911,-0.0119 0.123352,-0.01145 0.176415,0.01719 0.02947,0.01591 0.05415,0.03986 0.07348,0.0672 0.01933,0.02735 0.0335,0.05806 0.04472,0.08961 0.02243,0.06311 0.03336,0.129893 0.05656,0.19272 0.04044,0.109489 0.116454,0.202287 0.199502,0.284303 0.08305,0.08202 0.174367,0.155496 0.254888,0.239994 0.194516,0.204125 0.319565,0.466633 0.39546,0.73819 0.0759,0.271558 0.105238,0.553725 0.128837,0.8347 0.07519,0.895251 0.09508,1.794101 0.139812,2.69139 0.0525,1.053126 0.139425,2.105996 0.314578,3.14578 0.05887,0.349454 0.127683,0.697358 0.174766,1.048593 0.03898,0.290776 0.06301,0.583451 0.104859,0.873828 0.03362,0.233239 0.07871,0.464868 0.10486,0.699062 0.052,0.465753 0.02817,0.939857 -0.06991,1.398125 -0.09495,0.44362 -0.258076,0.869265 -0.419437,1.293265 -0.184846,0.48571 -0.368301,0.972301 -0.524297,1.46803 -0.243578,0.77405 -0.419502,1.568133 -0.664109,2.341859 -0.292888,0.926446 -0.686042,1.831786 -0.803921,2.796249 -0.07358,0.601981 -0.03758,1.211107 -0.03495,1.817562 0.0016,0.374314 -0.0091,0.752624 0.06991,1.118499 0.03943,0.182516 0.101648,0.361481 0.199022,0.520809 0.09737,0.159328 0.231201,0.298654 0.395181,0.387972 0.05645,0.03075 0.116378,0.05563 0.168954,0.0926 0.02629,0.01849 0.05066,0.04002 0.07025,0.06549 0.0196,0.02547 0.03433,0.05502 0.04042,0.08658 0.0066,0.03444 0.0029,0.06991 0,0.104859 -0.006,0.07304 -0.0081,0.146604 -0.02104,0.218733 -0.01296,0.07213 -0.03764,0.143808 -0.08382,0.200705 -0.02207,0.02719 -0.04865,0.05053 -0.07008,0.07823 -0.01072,0.01385 -0.02014,0.02883 -0.02656,0.04512 -0.0064,0.01629 -0.0098,0.03397 -0.0082,0.05141 0.0011,0.01188 0.0043,0.02345 0.0057,0.0353 6.86e-4,0.0059 8.88e-4,0.01193 8.7e-5,0.01784 -8.02e-4,0.0059 -0.0026,0.01172 -0.0058,0.01677 -0.0044,0.007 -0.01113,0.01221 -0.01766,0.01731 -0.0065,0.0051 -0.01317,0.01045 -0.01729,0.01764 -0.003,0.0051 -0.0045,0.01102 -0.005,0.01693 -5.14e-4,0.0059 -5.2e-5,0.01186 7.64e-4,0.01773 0.0016,0.01174 0.0047,0.02341 0.0042,0.03525 -6.94e-4,0.01771 -0.0095,0.0346 -0.02229,0.04684 -0.01282,0.01224 -0.02942,0.02007 -0.04667,0.02419 -0.03448,0.0082 -0.07051,0.0022 -0.105807,-0.0011 -0.201501,-0.0191 -0.399205,0.05061 -0.594203,0.104859 -0.720136,0.200349 -1.482885,0.196946 -2.225682,0.113349 -0.742797,-0.0836 -1.474414,-0.245365 -2.213363,-0.35802 -0.741669,-0.113069 -1.489861,-0.176539 -2.236999,-0.244672 -1.802942,-0.164415 -3.607323,-0.356614 -5.417732,-0.349531 -0.326245,0.0013 -0.652565,0.009 -0.978688,0 -0.571799,-0.01583 -1.141095,-0.08318 -1.712702,-0.10486 -0.605473,-0.02296 -1.211678,0.0054 -1.817562,0 -0.559903,-0.005 -1.12268,-0.03863 -1.677749,0.03495 -0.110942,0.01471 -0.226468,0.03586 -0.314578,0.10486 -0.05362,0.04199 -0.09324,0.09889 -0.140178,0.148252 -0.02347,0.02468 -0.04903,0.04768 -0.0782,0.06526 -0.02917,0.01757 -0.06218,0.02959 -0.0962,0.03116 -0.01976,9.14e-4 -0.03975,-0.0017 -0.05924,0.0017 -0.0097,0.0017 -0.01934,0.0049 -0.02755,0.0104 -0.0082,0.0055 -0.01497,0.01346 -0.01807,0.02285 -0.0029,0.0086 -0.0025,0.01807 -8.02e-4,0.02702 0.0017,0.0089 0.0047,0.01758 0.0072,0.02634 0.0025,0.0088 0.0044,0.01782 0.0039,0.02691 -5.18e-4,0.0091 -0.0038,0.01832 -0.01035,0.02459 -0.0047,0.0045 -0.01098,0.0073 -0.01743,0.0083 -0.0064,0.0011 -0.0131,4.79e-4 -0.01944,-0.0011 -0.01268,-0.0032 -0.024,-0.01017 -0.03553,-0.01632 -0.01153,-0.0062 -0.024,-0.01165 -0.03706,-0.01136 -0.0065,1.47e-4 -0.0131,0.0018 -0.01863,0.0053 -0.0055,0.0035 -0.0099,0.0089 -0.01173,0.01517 -0.0016,0.0056 -0.0011,0.01163 -3.95e-4,0.01745 6.76e-4,0.0058 0.0015,0.01174 3.95e-4,0.0175 -9.48e-4,0.005 -0.0033,0.0097 -0.0067,0.01362 -0.0033,0.0039 -0.0076,0.0069 -0.01227,0.009 -0.0093,0.0042 -0.02007,0.0045 -0.0301,0.0025 -0.02006,-0.0041 -0.0371,-0.01681 -0.05581,-0.0251 -0.03196,-0.01416 -0.06965,-0.01485 -0.102113,-0.0019 -0.03246,0.01299 -0.05927,0.03948 -0.07265,0.07178 z"
     id="path7"
     inkscape:path-effect="#path-effect7"
     inkscape:original-d="M 10.695652,39.531969 C 10.381379,39.343844 10.111431,39.014662 9.7519182,38.902813 8.73807,38.587394 7.6468676,38.546376 6.6061381,38.378517 6.2429468,38.319937 5.8833326,38.240946 5.5225916,38.168798 5.0645617,38.077192 4.0541743,37.956581 3.6700767,37.644501 3.1984988,37.261344 3.4309359,35.781382 3.4254049,35.582268 3.3900469,34.30938 3.213298,33.043966 3.1457801,31.772379 c -0.021004,-0.395579 0,-0.792271 0,-1.188406 0,-0.838875 -0.022362,-1.678048 0,-2.516624 0.011818,-0.443195 0.052186,-0.885221 0.069906,-1.328219 0.017236,-0.430901 0.017,-0.862393 0.034953,-1.293265 0.048148,-1.15555 0.1296104,-2.309744 0.2446718,-3.460358 0.063477,-0.634771 0.1689642,-1.385941 0.1398124,-2.02728 -0.043466,-0.5129 -0.2484448,-2.823515 -0.2796249,-3.530265 -0.013351,-0.302632 0.00594,-0.605912 0,-0.90878 -0.016805,-0.857068 -0.097278,-1.730487 0,-2.586531 0.057615,-0.507014 0.2159845,-0.943406 0.3495311,-1.433077 0.2261953,-0.829383 0.428205,-1.6525039 0.4543905,-2.5166243 0.014822,-0.489119 0,-0.9786871 0,-1.4680307 0,-0.726193 0.040036,-0.8174014 -0.069906,-1.4330776 C 4.0621884,5.9288179 4.0377767,5.7735364 3.9846547,5.627451 3.911827,5.4271748 3.6346628,5.15616 3.7050298,5.0682012 4.0116124,4.684973 5.3234097,4.7332737 5.7323103,4.7186701 c 1.8636739,-0.06656 3.7306266,-0.06394 5.5924977,-0.1747656 0.842504,-0.023968 1.676481,-0.1572097 2.516624,-0.2097187 0.918577,-0.057411 1.841601,-0.034953 2.761296,-0.034953 0.477693,0 0.955385,0 1.433078,0 0.209718,0 0.420768,-0.023591 0.629156,0 1.140615,0.1291263 1.124354,0.2385009 2.167093,0.3844843 0.266387,0.037294 0.535728,0.049276 0.803921,0.069906 0.18623,0.014325 0.372619,0.027488 0.55925,0.034953 0.104775,0.00419 0.209719,0 0.314578,0 0.01165,0 0.03304,-0.011493 0.03495,0 0.05079,0.304756 -0.271255,0.9179984 -0.349531,1.1884058 -0.06994,0.2415928 -0.11551,0.489584 -0.174766,0.7340153 -0.03395,0.1400586 -0.08606,0.2765536 -0.104859,0.4194374 -0.109768,0.8342383 -0.107791,1.6886976 -0.279625,2.516624 -0.124613,0.6004084 -0.309459,1.1867794 -0.45439,1.7826094 -0.153009,0.629037 -0.209719,1.032414 -0.209719,1.677749 0,0.345207 -0.0589,0.618098 0.279625,0.838875 1.115271,0.72735 3.082201,0.507378 4.334186,0.524296 0.44841,0.0061 2.537822,0.100652 2.691389,0.10486 0.500807,0.01372 1.002287,0.01727 1.502984,0 0.198292,-0.0068 0.397007,-0.01304 0.594203,-0.03495 0.100025,-0.01111 0.245867,-0.08679 0.349531,-0.03495 0.116511,0.05826 0.100968,0.24219 0.174766,0.349531 0.593992,0.863989 -0.09418,-0.389982 0.45439,0.524297 0.281898,0.469829 0.441625,1.035524 0.524297,1.57289 0.137122,0.891292 0.06585,1.7964 0.139812,2.69139 0.0868,1.050242 0.192461,2.099056 0.314578,3.14578 0.04106,0.351965 0.12376,0.697931 0.174766,1.048593 0.04223,0.290311 0.06609,0.583036 0.104859,0.873828 0.03114,0.233561 0.08724,0.464094 0.10486,0.699062 0.02767,0.368883 -0.0046,1.034375 -0.06991,1.398125 -0.09981,0.556084 -0.221775,0.770872 -0.419437,1.293265 -0.110183,0.291197 -0.44687,1.209943 -0.524297,1.46803 -0.233154,0.777182 -0.432473,1.564224 -0.664109,2.341859 -0.28034,0.941141 -0.69425,1.809205 -0.803921,2.796249 -0.04573,0.411603 -0.03495,1.390647 -0.03495,1.817562 0,0.503179 -0.03366,0.662804 0.06991,1.118499 0.08332,0.366591 0.333918,0.648497 0.594203,0.908781 0.08758,0.08758 0.210924,0.141621 0.279625,0.244672 0.01043,0.01564 0,0.08535 0,0.104859 0,0.179317 -0.0061,0.261438 -0.10486,0.419438 -0.03601,0.05761 -0.0781,0.112322 -0.104859,0.174765 -0.0092,0.02142 0.0074,0.0478 0,0.06991 -0.0052,0.01563 -0.02758,0.02022 -0.03495,0.03495 -0.01042,0.02084 0.01648,0.05343 0,0.06991 -0.02289,0.02289 -0.116875,0.05833 -0.174766,0.06991 -0.197222,0.03944 -0.393075,0.104859 -0.594203,0.104859 -0.965839,0 -3.357201,-0.144669 -4.439045,-0.244671 -0.746929,-0.06904 -1.49011,-0.175194 -2.236999,-0.244672 -1.795502,-0.167024 -3.614109,-0.295692 -5.417732,-0.349531 -0.326084,-0.0097 -0.652517,0.0062 -0.978688,0 -2.063233,-0.03893 0.291674,-0.01771 -1.712702,-0.10486 -0.602156,-0.02618 -1.214323,0 -1.817562,0 -0.550733,0 -1.132601,-0.05985 -1.677749,0.03495 -0.108897,0.01894 -0.215716,0.05543 -0.314578,0.10486 -0.07754,0.03877 -0.209231,0.191998 -0.314578,0.244672 -0.0457,0.02285 -0.07115,-0.03247 -0.104859,0.03495 -0.01748,0.03495 0.03495,0.06991 0,0.104859 -0.0233,0.0233 -0.116511,-0.0233 -0.139813,0 -0.0082,0.0082 0.01042,0.02974 0,0.03495 -0.06991,0.03495 -0.05243,-0.01748 -0.104859,0 -0.05952,0.01984 -0.116511,0.0466 -0.174766,0.06991 z" />
  <path
     style="fill:none;stroke:#1c1f30;stroke-width:1.3;stroke-opacity:1"
     d="m 23.034101,5.1730605 c 0.2403,0.3467968 0.522642,0.6644325 0.838874,0.943734 0.715271,0.6317398 1.588701,1.0567413 2.341859,1.6427963 0.384327,0.299056 0.735197,0.6384012 1.083546,0.9786871 0.866407,0.8463536 1.722723,1.7033671 2.551577,2.5865301 0.501958,0.534848 0.994648,1.080081 1.537937,1.57289 0.134428,0.121937 0.272722,0.241486 0.384485,0.384484 0.148066,0.189448 0.247012,0.423676 0.244671,0.66411 -4.54e-4,0.04664 -0.0046,0.09341 0,0.139812 0.01024,0.102169 0.06296,0.195995 0.12897,0.274645 0.06601,0.07865 0.145484,0.14465 0.220561,0.214699 0.01205,0.01124 0.02401,0.02262 0.03495,0.03495 0.03522,0.03972 0.05915,0.08904 0.07035,0.140925 0.0112,0.05189 0.0098,0.106244 -0.0022,0.157945 -0.02407,0.103402 -0.09009,0.19405 -0.172987,0.260379 -0.03018,0.02415 -0.06278,0.04553 -0.08984,0.07312 -0.01353,0.0138 -0.02562,0.02914 -0.03459,0.04626 -0.009,0.01712 -0.01474,0.03607 -0.01538,0.05539 -8.08e-4,0.02412 0.0063,0.04777 0.01434,0.07053 0.008,0.02276 0.01715,0.04539 0.02061,0.06928 0.0059,0.04107 -0.0052,0.08249 -0.01657,0.122403 -0.01135,0.03992 -0.02311,0.08104 -0.01838,0.122269 0.003,0.02598 0.01241,0.05076 0.02265,0.07482 0.01024,0.02406 0.02143,0.04787 0.02824,0.07312 0.0068,0.02525 0.009,0.05243 0.0012,0.07739 -0.0039,0.01248 -0.01033,0.02424 -0.01922,0.03383 -0.0089,0.0096 -0.02029,0.01695 -0.03288,0.02047 -0.01136,0.0032 -0.02359,0.0032 -0.03495,0"
     id="path8"
     inkscape:path-effect="#path-effect8"
     inkscape:original-d="m 23.034101,5.1730605 c 0.347942,0.5654063 0.231445,0.476481 0.838874,0.943734 2.458762,1.8913553 -1.653028,-1.499848 2.341859,1.6427963 0.382525,0.3009196 0.725481,0.6490399 1.083546,0.9786871 1.549966,1.4269531 0.879417,0.8130272 2.551577,2.5865301 0.719938,0.763571 0.852956,0.887909 1.537937,1.57289 0.128162,0.128162 0.283946,0.233677 0.384485,0.384484 0.258681,0.388023 0.244671,0.390688 0.244671,0.66411 0,0.0466 -0.01792,0.09679 0,0.139812 0.04662,0.111892 0.221385,0.403912 0.349531,0.489344 0.0329,0.02193 0.04866,-0.03358 0.03495,0.03495 -0.02148,0.107419 -0.03575,0.490135 -0.10486,0.559249 -0.06239,0.06239 -0.139812,-0.07284 -0.139812,0.174766 0,0.09686 -9.3e-4,0.06805 0.03495,0.139812 0.03308,0.06615 -0.02549,0.187916 -0.03495,0.244672 -0.0078,0.04701 0.03573,0.243891 0,0.279625 -0.0082,0.0082 -0.0233,0 -0.03495,0" />
  <path
     style="fill:none;stroke:#1c1f30;stroke-width:1.3;stroke-opacity:1"
     d="m 8.3537937,12.373402 c 0.3330699,0.454636 0.7499334,0.847678 1.2233589,1.153452 1.1598984,0.74915 2.6198854,0.943768 3.9846544,0.734016 0.466151,-0.07164 0.927951,-0.188686 1.356715,-0.38513 0.428764,-0.196444 0.824502,-0.474696 1.124956,-0.838229 0.118518,-0.1434 0.222896,-0.300473 0.363122,-0.42273 0.07011,-0.06113 0.14916,-0.1131 0.236402,-0.145371 0.08724,-0.03227 0.183065,-0.04421 0.274304,-0.0261 0.125804,0.02497 0.238593,0.108935 0.298603,0.222288 0.06001,0.113353 0.06604,0.253834 0.01598,0.371915"
     id="path9"
     inkscape:path-effect="#path-effect9"
     inkscape:original-d="m 8.3537937,12.373402 c 0.3708903,0.425707 0.7210374,0.866411 1.2233589,1.153452 1.3047194,0.745554 2.4828924,1.054392 3.9846544,0.734016 0.920106,-0.19629 1.715555,-0.712615 2.481671,-1.223359 0.06476,-0.04318 0.742526,-0.681738 0.873828,-0.594203 0.102724,0.06848 0.269328,0.503704 0.314578,0.594203" />
  <path
     style="fill:none;stroke:#1c1f30;stroke-width:1.3;stroke-opacity:1"
     d="m 10.695652,18.035806 c 0.05951,0.0034 0.118527,0.0152 0.174766,0.03495 0.159458,0.05598 0.289151,0.171985 0.419437,0.279625 0.364502,0.301146 0.766323,0.555904 1.188406,0.768968 0.689877,0.348245 1.430705,0.584444 2.13214,0.908781 0.07738,0.03578 0.154728,0.0728 0.236829,0.09576 0.0821,0.02296 0.170208,0.03131 0.252514,0.0091 0.06919,-0.01868 0.131535,-0.05828 0.183838,-0.107277 0.0523,-0.04899 0.09513,-0.107236 0.133724,-0.167623 0.07718,-0.120773 0.140009,-0.253238 0.241688,-0.354256 0.07572,-0.07523 0.170511,-0.129864 0.271241,-0.165171 0.10073,-0.03531 0.207399,-0.05175 0.314036,-0.05641 0.213273,-0.0093 0.425451,0.02783 0.638082,0.04681 0.389418,0.03477 0.791008,0.0068 1.153453,-0.139813 0.274521,-0.111028 0.517512,-0.285788 0.766739,-0.445711 0.249227,-0.159922 0.514161,-0.308904 0.806151,-0.35821 0.288495,-0.04872 0.582998,0.003 0.873827,0.03495 0.371122,0.04078 0.745419,0.04926 1.1185,0.03495 0.643094,-0.02466 1.281474,-0.116754 1.922421,-0.174766 1.604417,-0.145217 3.243983,-0.0732 4.788576,0.384485 0.211994,0.06282 0.421871,0.132775 0.629156,0.209718"
     id="path10"
     inkscape:path-effect="#path-effect10"
     inkscape:original-d="m 10.695652,18.035806 c 0.05825,0.01165 0.119139,0.01409 0.174766,0.03495 0.157335,0.059 0.278625,0.187933 0.419437,0.279625 0.395394,0.257465 0.782194,0.528934 1.188406,0.768968 0.987597,0.58358 1.086791,0.617056 2.13214,0.908781 0.160678,0.04484 0.322526,0.104859 0.489343,0.104859 0.257636,0 0.216301,-0.465847 0.55925,-0.629156 0.438292,-0.20871 0.733687,-0.129425 1.223359,-0.174765 0.385649,-0.03571 0.774295,-0.06082 1.153453,-0.139813 0.610083,-0.1271 0.963106,-0.67136 1.57289,-0.803921 0.413944,-0.08999 0.453582,-0.01007 0.873827,0.03495 0.321674,0.03446 0.801758,0.0504 1.1185,0.03495 1.234504,-0.06022 0.515599,-0.09438 1.922421,-0.174766 1.598498,-0.09134 3.225809,0.02385 4.788576,0.384485 0.215402,0.04971 0.419438,0.139812 0.629156,0.209718" />
  <path
     style="fill:none;stroke:#1c1f30;stroke-width:1.3;stroke-opacity:1"
     d="m 7.1304348,23.803069 c 0.062036,0.09878 0.1322616,0.192412 0.2097187,0.279625 0.1601642,0.180337 0.3510094,0.332693 0.5592497,0.45439 0.098161,0.05737 0.2004051,0.108146 0.2939326,0.172792 0.093527,0.06465 0.1793306,0.145048 0.2303641,0.246646 0.052226,0.103971 0.064875,0.224311 0.054754,0.34022 -0.010121,0.11591 -0.04187,0.228722 -0.074692,0.340347 -0.032822,0.111625 -0.067004,0.223489 -0.082218,0.338841 -0.015214,0.115351 -0.010629,0.235601 0.03225,0.343763 0.043582,0.109936 0.1253558,0.202568 0.2232394,0.268932 0.097884,0.06636 0.2113503,0.107491 0.3273365,0.130569 0.2319725,0.04615 0.4712239,0.0218 0.7077361,0.01994 0.7083441,-0.0056 1.4039941,0.192659 2.0622331,0.454391 0.259149,0.103044 0.514901,0.216371 0.782163,0.29604 0.267262,0.07967 0.54922,0.125131 0.82568,0.08844 0.154205,-0.02046 0.303766,-0.066 0.454391,-0.104859 0.251316,-0.06484 0.50951,-0.111606 0.768968,-0.10486 0.205104,0.0053 0.41019,0.04402 0.614312,0.02328 0.102061,-0.01037 0.20362,-0.03606 0.29342,-0.08565 0.0898,-0.0496 0.167411,-0.124273 0.210768,-0.217247 0.01802,-0.03865 0.02996,-0.07981 0.045,-0.119717 0.01504,-0.03991 0.03368,-0.07934 0.06276,-0.110541 0.01454,-0.0156 0.03162,-0.02897 0.05081,-0.03826 0.01919,-0.0093 0.04054,-0.01442 0.06185,-0.01367 0.02131,7.5e-4 0.04254,0.0075 0.05967,0.02022 0.01713,0.0127 0.02995,0.03141 0.03448,0.05225 0.0025,0.01147 0.0025,0.02348 0,0.03495"
     id="path11"
     inkscape:path-effect="#path-effect11"
     inkscape:original-d="m 7.1304348,23.803069 c 0.1557126,0.311425 0.022593,0.131894 0.2097187,0.279625 0.1885227,0.148834 0.3653206,0.312673 0.5592497,0.45439 0.1860533,0.135962 0.4242905,0.18609 0.5242967,0.419438 0.2255456,0.526273 -0.5338391,0.693046 -0.069906,1.363171 0.2367447,0.341965 0.916149,0.346117 1.258312,0.419437 0.6882751,0.147488 1.3750951,0.301694 2.0622331,0.454391 0.537936,0.119541 1.063706,0.297422 1.607843,0.384484 0.474538,0.07593 0.265268,-0.06704 0.454391,-0.104859 0.253671,-0.05073 0.514146,-0.06027 0.768968,-0.10486 0.231753,-0.04056 0.867159,-0.188228 1.1185,-0.279624 0.75066,-0.272968 0.121087,-0.01623 0.314578,-0.209719 0.0082,-0.0082 0,0.0233 0,0.03495" />
  <path
     style="fill:none;stroke:#1c1f30;stroke-width:1.3;stroke-opacity:1"
     d="m 21.950554,23.942882 c 0.230179,-0.04197 0.465845,-0.05376 0.699062,-0.03495 0.719511,0.05802 1.385936,0.401071 2.097187,0.524297 0.380005,0.06584 0.767792,0.06804 1.153453,0.06991 0.524295,0.0025 1.048611,0.0048 1.57289,0 0.245282,-0.0023 0.492154,-0.0059 0.734015,0.03495 0.259832,0.04392 0.51082,0.139534 0.734015,0.279625"
     id="path12"
     inkscape:path-effect="#path-effect12"
     inkscape:original-d="m 21.950554,23.942882 c 0.233021,-0.01165 0.465872,-0.04248 0.699062,-0.03495 0.541471,0.01747 1.648338,0.423535 2.097187,0.524297 0.385141,0.08646 0.764404,0.06991 1.153453,0.06991 0.52352,0 1.049716,-0.01276 1.57289,0 0.244876,0.006 0.489826,0.01568 0.734015,0.03495 0.447567,0.03533 0.619524,-0.06385 0.734015,0.279625" />
  <path
     style="fill:none;stroke:#1c1f30;stroke-width:1.3;stroke-opacity:1"
     d="m 17.231884,30.514066 c 0.12789,-0.01021 0.256594,-0.01021 0.384484,0 0.307797,0.02459 0.607357,0.107782 0.908781,0.174766 0.391225,0.08694 0.7886,0.147009 1.188406,0.174766 0.392749,0.02727 0.787554,0.02338 1.179208,0.06342 0.391653,0.04004 0.785413,0.126548 1.127697,0.321065 0.118155,0.06715 0.229181,0.14659 0.349531,0.209719 0.153769,0.08066 0.320666,0.133554 0.489344,0.174765 0.920412,0.224874 1.886055,0.108262 2.831202,0.174766 0.388329,0.02732 0.774459,0.08583 1.153453,0.174765"
     id="path13"
     inkscape:path-effect="#path-effect13"
     inkscape:original-d="m 17.231884,30.514066 c 0.128161,0 0.257477,-0.01716 0.384484,0 0.305699,0.04131 0.604501,0.124053 0.908781,0.174766 0.394948,0.06583 0.791652,0.120885 1.188406,0.174766 1.368195,0.185804 1.316947,0.09116 2.306905,0.384484 0.493961,0.146359 0.150556,0.01074 0.349531,0.209719 0.113167,0.113166 0.387592,0.155071 0.489344,0.174765 0.93898,0.181738 1.881841,0.111475 2.831202,0.174766 0.390077,0.02601 0.75823,0.174765 1.153453,0.174765" />
  <path
     style="fill:none;stroke:#1c1f30;stroke-width:1.3;stroke-opacity:1"
     d="m 9.0528559,34.009378 c 0.7072053,0.127034 1.4183811,0.231961 2.1321401,0.314578 0.104805,0.01213 0.209666,0.02378 0.314578,0.03495"
     id="path14"
     inkscape:path-effect="#path-effect14"
     inkscape:original-d="m 9.0528559,34.009378 c 0.6792959,0.211398 1.4204671,0.284925 2.1321401,0.314578 0.127586,0.0053 0.314578,-0.04089 0.314578,0.03495" />
</svg>
