<?xml version="1.0" encoding="UTF-8" standalone="no"?>
<svg
   width="12px"
   height="15px"
   viewBox="0 0 12 15"
   version="1.1"
   id="svg1"
   sodipodi:docname="ico_download.svg"
   inkscape:version="1.3.2 (091e20e, 2023-11-25, custom)"
   xmlns:inkscape="http://www.inkscape.org/namespaces/inkscape"
   xmlns:sodipodi="http://sodipodi.sourceforge.net/DTD/sodipodi-0.dtd"
   xmlns="http://www.w3.org/2000/svg"
   xmlns:svg="http://www.w3.org/2000/svg">
  <sodipodi:namedview
     id="namedview1"
     pagecolor="#ffffff"
     bordercolor="#000000"
     borderopacity="0.25"
     inkscape:showpageshadow="2"
     inkscape:pageopacity="0.0"
     inkscape:pagecheckerboard="0"
     inkscape:deskcolor="#d1d1d1"
     inkscape:zoom="78.2"
     inkscape:cx="5.9974425"
     inkscape:cy="7.5"
     inkscape:window-width="2560"
     inkscape:window-height="1369"
     inkscape:window-x="-8"
     inkscape:window-y="-8"
     inkscape:window-maximized="1"
     inkscape:current-layer="svg1" />
  <!-- Generator: Sketch 49 (51002) - http://www.bohemiancoding.com/sketch -->
  <title
     id="title1">icon/download</title>
  <desc
     id="desc1">Created with Sketch.</desc>
  <defs
     id="defs1">
    <inkscape:path-effect
       effect="spiro"
       id="path-effect2"
       is_visible="true"
       lpeversion="1" />
    <inkscape:path-effect
       effect="spiro"
       id="path-effect1"
       is_visible="true"
       lpeversion="1" />
  </defs>
  <path
     style="fill:#95aabf;fill-opacity:1;stroke:#95aabf;stroke-width:1.3;stroke-opacity:1"
     d="m 3.7595908,0.34526854 c -0.069614,0.27500429 -0.042053,0.57358786 0.076726,0.83120206 0.045047,0.0977 0.1024673,0.189137 0.1521351,0.2845712 0.049668,0.095434 0.092061,0.1967016 0.1036194,0.3036641 0.013142,0.1216191 -0.014199,0.2439019 -0.048462,0.3613325 -0.034263,0.1174306 -0.075808,0.2335565 -0.092203,0.35478 -0.010315,0.076268 -0.010491,0.1539355 0,0.230179 0.013341,0.096949 0.043697,0.190781 0.060407,0.2872065 0.01671,0.096426 0.018856,0.1993351 -0.022044,0.2882411 -0.033235,0.072245 -0.091831,0.129053 -0.1406649,0.1918159 -0.051747,0.066507 -0.093074,0.1406474 -0.1278773,0.2173913 -0.056895,0.1254576 -0.096676,0.2581205 -0.1534527,0.3836317 -0.019646,0.04343 -0.041296,0.085932 -0.063939,0.1278772 -0.032927,0.060996 -0.068685,0.1229681 -0.076726,0.1918159 -0.00302,0.025878 -0.00219,0.052923 -0.012788,0.076726 -0.00627,0.014077 -0.016184,0.026147 -0.025575,0.038363 -0.052604,0.068428 -0.091904,0.1470412 -0.1150895,0.230179 -0.00363,0.013003 -0.0069,0.026215 -0.012788,0.038363 -0.010378,0.021409 -0.028472,0.038411 -0.048911,0.050589 -0.020439,0.012178 -0.04323,0.019861 -0.066179,0.026137 -0.1611041,0.04406 -0.3317419,0.021884 -0.4987213,0.025576 -0.085343,0.00189 -0.170418,0.010626 -0.2557545,0.012788 -0.1150741,0.00292 -0.2303209,-0.00613 -0.3452685,0 -0.098286,0.00524 -0.1957742,0.02156 -0.2941176,0.025576 -0.093901,0.00383 -0.1887752,-0.00351 -0.28133,0.012788 -0.034637,0.0061 -0.068615,0.015468 -0.1023018,0.025575 -0.054302,0.016291 -0.108135,0.034572 -0.1636401,0.046116 -0.055505,0.011544 -0.1132601,0.01621 -0.1688407,0.00504 -0.0734793,-0.014774 -0.14001149,-0.056467 -0.21425064,-0.066764 -0.0371196,-0.00515 -0.0764116,-0.00184 -0.10938523,0.01597 -0.0164868,0.0089 -0.0311537,0.021369 -0.041864,0.036744 -0.0107103,0.015375 -0.017367,0.033691 -0.0181319,0.052413 -1.7403e-4,0.00426 -4.849e-5,0.00852 0,0.012788 2.425e-4,0.021318 -0.001442,0.042669 0,0.063939 0.003455,0.050975 0.025064,0.099809 0.0566765,0.1399471 0.0316126,0.040138 0.0728736,0.071964 0.11742148,0.096982 C 0.915367,5.414844 1.0165521,5.438079 1.1125313,5.4731466 1.4047175,5.5799017 1.6434258,5.7939421 1.867007,6.010231 2.0056567,6.1443585 2.1415887,6.2812717 2.2762141,6.4194381 2.4235236,6.5706222 2.5693,6.7233393 2.7109967,6.8797962 c 0.085417,0.094314 0.169524,0.1902071 0.2429668,0.2941176 0.038903,0.055042 0.074748,0.1122433 0.1150895,0.1662405 0.1562647,0.209161 0.3788374,0.3690858 0.4987212,0.601023 0.043068,0.083324 0.071683,0.1748817 0.076726,0.2685422 0.00459,0.085208 -0.010219,0.171037 0,0.2557544 0.00995,0.082479 0.043546,0.1609782 0.089514,0.2301791 0.034054,0.051265 0.075104,0.098244 0.1023018,0.1534527 0.018564,0.037684 0.030346,0.078595 0.051151,0.1150895 0.024104,0.042281 0.059309,0.076927 0.089514,0.1150895 0.068419,0.086444 0.1121988,0.192287 0.1918159,0.2685422 0.026183,0.025077 0.056161,0.046868 0.076726,0.076726 0.016241,0.023581 0.025768,0.051013 0.038363,0.076726 0.013561,0.027685 0.030811,0.05356 0.051151,0.076726 0.03452,0.1220924 0.096099,0.2364547 0.1790281,0.3324808 0.013315,0.015418 0.027206,0.030413 0.038946,0.047062 0.01174,0.016649 0.021359,0.035195 0.024993,0.05524 0.00493,0.02721 -0.00151,0.05546 -0.012759,0.08073 -0.011248,0.02527 -0.027128,0.04814 -0.04218,0.07134 -0.015053,0.0232 -0.029514,0.04722 -0.037441,0.07372 -0.00793,0.0265 -0.0088,0.05603 0.00287,0.0811 0.00527,0.01133 0.013045,0.02175 0.015469,0.03401 0.00121,0.0061 9.719e-4,0.01269 -0.00161,0.01838 -0.00129,0.0028 -0.00316,0.0054 -0.00553,0.0075 -0.00237,0.002 -0.00525,0.0035 -0.00832,0.0041 -0.0042,8.03e-4 -0.00852,-2.6e-5 -0.012788,0 -0.00638,3.8e-5 -0.012702,0.002 -0.018107,0.0054 -0.0054,0.0034 -0.0099,0.0082 -0.013218,0.01361 -0.00663,0.01091 -0.00842,0.02426 -0.00703,0.03694 0.00278,0.02537 0.01725,0.04777 0.025567,0.0719 0.00944,0.02739 0.010862,0.05724 0.00585,0.08577 -0.00501,0.02853 -0.01631,0.05576 -0.031428,0.08047 -0.025747,0.04208 -0.061995,0.07648 -0.094597,0.113497 -0.032602,0.03702 -0.062653,0.07887 -0.071698,0.127366 -0.00452,0.02425 -0.00348,0.04978 0.00499,0.07294 0.00848,0.02316 0.02468,0.04378 0.046241,0.05575 0.021561,0.01198 0.048488,0.01472 0.07136,0.0055 0.011436,-0.0046 0.021734,-0.0121 0.029445,-0.02173 0.00771,-0.0096 0.012789,-0.02138 0.014255,-0.03362 0.00101,-0.0085 3.242e-4,-0.01704 0,-0.02557 -0.00234,-0.06148 0.014486,-0.122326 0.038363,-0.179028 0.093705,-0.222524 0.2896739,-0.383656 0.4859335,-0.524297 0.037491,-0.02687 0.075319,-0.05337 0.1150895,-0.07673 0.1010108,-0.05933 0.2154128,-0.09801 0.3324809,-0.102302 0.085297,-0.0031 0.1712208,0.01181 0.2557544,0 0.029873,-0.0042 0.059372,-0.01167 0.089514,-0.01279 0.029852,-0.0011 0.059918,0.0041 0.089514,0 0.036229,-0.005 0.068981,-0.0233 0.1023018,-0.03836 0.087364,-0.039495 0.1835068,-0.058015 0.2685422,-0.1023018 0.070473,-0.036703 0.1307925,-0.089777 0.1918158,-0.140665 0.074665,-0.062265 0.1514509,-0.1219869 0.230179,-0.1790281 0.012091,-0.021721 0.024888,-0.043049 0.038363,-0.063939 0.07074,-0.1096631 0.1608838,-0.2075795 0.2685439,-0.2813324 0.034005,-0.023295 0.069661,-0.044144 0.1031939,-0.068113 0.033533,-0.02397 0.065218,-0.051409 0.088622,-0.085339 C 7.149666,9.097182 7.1605538,9.0746754 7.173913,9.0537084 7.2177641,8.9848851 7.2859847,8.9357156 7.3401535,8.8746803 7.3888706,8.8197878 7.4258501,8.7557133 7.4680307,8.6956522 7.5549717,8.5718565 7.6638352,8.465356 7.7621483,8.3503836 7.9119075,8.1752474 8.0376711,7.979843 8.1969309,7.8132992 8.3784063,7.6235236 8.6002762,7.47453 8.7723785,7.2762148 8.8160219,7.2259241 8.8562274,7.172716 8.9002558,7.1227621 9.0279383,6.9778957 9.1855727,6.8627548 9.3222506,6.7263427 9.4140282,6.6347436 9.4962005,6.5337023 9.5907928,6.4450128 c 0.077061,-0.072252 0.162404,-0.1363649 0.2301791,-0.2173913 0.025236,-0.03017 0.048,-0.062646 0.076726,-0.089514 0.024323,-0.022749 0.052508,-0.041078 0.076726,-0.063939 0.042537,-0.040154 0.07206,-0.095143 0.076726,-0.1534527 0.005,-0.061907 -0.01835,-0.1242864 -0.057468,-0.1725188 C 9.9545597,5.6999648 9.9005893,5.6651724 9.8427852,5.6424641 9.727177,5.5970475 9.5994797,5.598595 9.4757033,5.5882353 9.0100785,5.5492639 8.5728481,5.335337 8.1074169,5.2941176 7.9789986,5.2827446 7.8484944,5.2845206 7.7232583,5.2539178 7.6606403,5.2386164 7.5995687,5.2150795 7.5457924,5.1795371 7.492016,5.1439948 7.4456871,5.0960286 7.4168798,5.0383632 7.3859134,4.9763757 7.3761726,4.9057075 7.3762847,4.8364156 c 1.12e-4,-0.069292 0.0096,-0.1381803 0.01502,-0.2072596 0.010704,-0.1363093 0.00564,-0.2739391 0.025576,-0.4092072 0.036419,-0.2471354 0.1541737,-0.4744397 0.2173913,-0.7161125 0.031951,-0.1221441 0.049836,-0.2474869 0.076726,-0.370844 0.046525,-0.2134306 0.1201709,-0.4219071 0.140665,-0.6393862 0.00884,-0.093809 0.00772,-0.1888121 0.025575,-0.2813299 0.00824,-0.0427 0.020497,-0.084687 0.025575,-0.1278772 0.00946,-0.080488 0,-0.1619247 0,-0.2429668 V 1.2659847 c 0,-0.066467 -0.00391,-0.1328561 -0.010235,-0.1990213 -0.00633,-0.066165 -0.012802,-0.13505088 0.010235,-0.19739818 0.00707,-0.0191341 0.016862,-0.0371365 0.024838,-0.0559108 0.00798,-0.0187743 0.014199,-0.0387914 0.013525,-0.0591787 -2.842e-4,-0.008595 -0.00179,-0.0171017 -0.00247,-0.0256747 -6.803e-4,-0.008573 -4.977e-4,-0.017405 0.00247,-0.0254762 0.00266,-0.00724 0.00742,-0.0134928 0.012269,-0.0194938 0.00485,-0.006001 0.0099,-0.0119485 0.013306,-0.0188694 0.00389,-0.007911 0.00546,-0.0167352 0.00683,-0.0254448 0.00137,-0.00871 0.00262,-0.0175442 0.00596,-0.0257061 0.00337,-0.008239 0.00875,-0.015506 0.014664,-0.0221616 0.00591,-0.006656 0.012387,-0.0127871 0.018356,-0.0193901 0.00597,-0.006603 0.011477,-0.0137619 0.015061,-0.021909 0.00359,-0.008147 0.00514,-0.0173976 0.00307,-0.0260534 -0.00165,-0.00689 -0.0055,-0.0131201 -0.00697,-0.0200516 -7.334e-4,-0.003466 -8.426e-4,-0.007132 2.417e-4,-0.0105049 5.422e-4,-0.001686 0.00138,-0.003284 0.00252,-0.004641 0.00114,-0.001358 0.00258,-0.002471 0.00421,-0.003165 0.00199,-8.4791e-4 0.00421,-0.001052 0.00637,-9.3192e-4 0.00216,1.2014e-4 0.00429,5.5188e-4 0.00642,9.3192e-4 0.027893,0.004976 0.057215,0.001011 0.083068,-0.0105816 0.025854,-0.0115923 0.04819,-0.0306912 0.064223,-0.0540521 0.016033,-0.0233609 0.025789,-0.0508885 0.028728,-0.0790692 0.00294,-0.0281807 -8.811e-4,-0.0569677 -0.010421,-0.083647 C 8.1899962,0.20522511 8.1481967,0.1614016 8.098023,0.13506213 8.0478494,0.10872267 7.9898588,0.09913697 7.9332923,0.10251286 c -0.113133,0.006752 -0.2169225,0.0626786 -0.313963,0.12122592 -0.097041,0.0585473 -0.1942078,0.1221094 -0.3047513,0.14710521 -0.085985,0.0194428 -0.1756902,0.0143703 -0.2629904,0.002116 -0.0873,-0.0122548 -0.1736014,-0.0315699 -0.2613063,-0.0404788 -0.1485281,-0.0150871 -0.2982779,-1.0085e-4 -0.4475703,0 -0.2560934,1.73e-4 -0.5130116,-0.0434457 -0.7672634,-0.0127877 -0.042557,0.005132 -0.085015,0.0123446 -0.1278773,0.0127877 -0.034123,3.5279e-4 -0.068366,-0.00359 -0.1023018,0 -0.043268,0.004577 -0.084583,0.021252 -0.1278772,0.0255754 -0.02547,0.002543 -0.051141,7.6193e-4 -0.076726,0 -0.1449627,-0.004317 -0.2897556,0.0127877 -0.4347826,0.0127877 H 4.1432228 c -0.051377,0 -0.1027266,0.003054 -0.1536853,0.009594 -0.050959,0.00654 -0.1032175,0.0149966 -0.1532201,0.003194 -0.02808,-0.006628 -0.054576,-0.0198757 -0.076727,-0.0383631 z"
     id="path1"
     inkscape:path-effect="#path-effect1"
     inkscape:original-d="m 3.7595908,0.34526854 c -0.1375411,0.3329523 -0.1015634,0.51028048 0.076726,0.83120206 0.1111625,0.2000925 0.2376786,0.3532488 0.2557545,0.5882353 0.020525,0.266827 -0.1179704,0.4589077 -0.140665,0.7161125 -0.00674,0.076429 -0.0062,0.1537037 0,0.230179 0.011871,0.1464025 0.098925,0.4341371 0.038363,0.5754476 -0.00649,0.015137 -0.1375248,0.1869629 -0.1406649,0.1918159 -0.045672,0.070584 -0.088541,0.1430902 -0.1278773,0.2173913 -0.064731,0.1222697 -0.099274,0.2572136 -0.1534527,0.3836317 -0.018773,0.043804 -0.043646,0.084756 -0.063939,0.1278772 -0.027836,0.059151 -0.060633,0.1274443 -0.076726,0.1918159 -0.00558,0.02231 -0.00462,0.056317 -0.012788,0.076726 -0.00571,0.01427 -0.018702,0.024617 -0.025575,0.038363 -0.03852,0.077039 -0.064006,0.1620678 -0.1150895,0.230179 -0.00809,0.010784 -0.00326,0.028832 -0.012788,0.038363 C 3.2282669,4.81521 3.1895199,4.844754 3.1457794,4.859334 2.9935874,4.910065 2.8035034,4.88491 2.6470581,4.88491 c -0.3871556,0 0.031229,-0.00634 -0.2557545,0.012788 -0.1145802,0.00764 -0.2306882,-0.00764 -0.3452685,0 -0.098057,0.00654 -0.1957596,0.01923 -0.2941176,0.025576 -0.093679,0.00604 -0.1879224,0.00345 -0.28133,0.012788 -0.034976,0.0035 -0.067906,0.018334 -0.1023018,0.025575 C 1.2614184,4.984135 1.1453373,5.005486 1.0358049,5.012788 0.9222447,5.020358 0.75807792,4.998199 0.65217321,5.051151 c -0.003813,0.00191 0,0.00853 0,0.012788 0,0.021313 -0.01117,0.045787 0,0.063939 C 0.73627341,5.2645408 0.97548696,5.3844709 1.1125313,5.4731466 1.3696525,5.6395192 1.6341854,5.8097457 1.867007,6.010231 2.0511755,6.1688205 2.1201363,6.251799 2.2762141,6.4194381 2.420043,6.573921 2.5690138,6.723615 2.7109967,6.8797962 c 0.012935,0.014229 0.2255851,0.2709421 0.2429668,0.2941176 0.040438,0.053918 0.072119,0.114318 0.1150895,0.1662405 0.1533205,0.1852622 0.3959821,0.3784216 0.4987212,0.601023 0.017512,0.037943 0.072498,0.2262539 0.076726,0.2685422 0.00831,0.083112 -0.01534,0.1739415 0,0.2557544 0.00974,0.051948 0.065437,0.1850349 0.089514,0.2301791 0.028519,0.053472 0.075139,0.099127 0.1023018,0.1534527 0.044564,0.089127 -0.041466,-0.023836 0.051151,0.1150895 0.026959,0.040438 0.060354,0.076209 0.089514,0.1150895 0.066002,0.088003 0.122448,0.1831664 0.1918159,0.2685422 0.022808,0.028071 0.055025,0.047791 0.076726,0.076726 0.017157,0.022875 0.023955,0.052027 0.038363,0.076726 0.015488,0.026551 0.034101,0.051151 0.051151,0.076726 0.059676,0.110827 0.1187539,0.2219781 0.1790281,0.3324808 0.019256,0.035303 0.051222,0.064152 0.063939,0.1023023 0.032029,0.09609 -0.049195,0.226268 -0.089514,0.306905 -0.00671,0.01342 0.010207,0.05373 0,0.06394 -0.00301,0.003 -0.00977,-0.003 -0.012788,0 -0.020442,0.02044 -0.00872,0.09938 -0.012788,0.127877 -0.00855,0.05986 -0.021816,0.09858 -0.025575,0.16624 -0.00588,0.105798 0,0.213586 0,0.319693 0,0.0085 -9.415e-4,-0.0171 0,-0.02557 0.00683,-0.06149 0.015157,-0.121013 0.038363,-0.179028 0.1228235,-0.307059 0.2147981,-0.353053 0.4859335,-0.524297 0.038983,-0.02462 0.074341,-0.05515 0.1150895,-0.07673 0.09296,-0.04921 0.2280733,-0.09131 0.3324809,-0.102302 0.084783,-0.0089 0.1706501,0.005 0.2557544,0 0.030089,-0.0018 0.05945,-0.01064 0.089514,-0.01279 0.029762,-0.0021 0.060255,0.0059 0.089514,0 0.035712,-0.0071 0.068004,-0.02611 0.1023018,-0.03836 0.091188,-0.03257 0.1822104,-0.056258 0.2685422,-0.1023018 0.071125,-0.037933 0.127943,-0.095042 0.1918158,-0.140665 0.076603,-0.054717 0.1752067,-0.09657 0.230179,-0.1790281 0.02445,-0.073351 -0.00377,-0.00777 0.038363,-0.063939 C 6.741551,9.4639508 6.8554751,9.3397456 6.943734,9.2710997 7.0060432,9.222637 7.0823755,9.1774682 7.1355499,9.1176471 7.1520625,9.0990703 7.1586536,9.0733277 7.173913,9.0537084 7.2237446,8.9896393 7.2894979,8.9379997 7.3401535,8.8746803 7.3849729,8.818656 7.4232113,8.7516765 7.4680307,8.6956522 7.5624182,8.5776677 7.6670098,8.4679078 7.7621483,8.3503836 7.9066704,8.1718564 8.0436992,7.9845582 8.1969309,7.8132992 8.3726518,7.6169054 8.5912346,7.4659847 8.7723785,7.2762148 8.8183528,7.2280513 8.8553605,7.1719331 8.9002558,7.1227621 9.0307968,6.9797887 9.18283,6.8599542 9.3222506,6.7263427 9.5960124,6.4639877 9.3897753,6.6578549 9.5907928,6.4450128 9.9015342,6.1159925 9.5145683,6.534025 9.8209719,6.2276215 9.8487605,6.1998329 9.8699096,6.165896 9.8976982,6.1381074 9.921239,6.1145666 9.9521535,6.0989144 9.9744246,6.0741688 9.991313,6.0554039 10.062759,5.9555396 10.051151,5.9207161 10.000231,5.767957 9.5994305,5.6284466 9.4757033,5.5882353 9.0333473,5.4444696 8.5624823,5.3831522 8.1074169,5.2941176 7.981764,5.2695334 7.4780459,5.2014728 7.4168798,5.0383632 7.3702782,4.9140923 7.3913043,4.7571502 7.3913043,4.629156 c 0,-0.139119 -0.00501,-0.2715802 0.025576,-0.4092072 0.054684,-0.2460771 0.1546981,-0.4723056 0.2173913,-0.7161125 0.02019,-0.078517 0.060407,-0.2946858 0.076726,-0.370844 0.045475,-0.2122168 0.1113221,-0.4242047 0.140665,-0.6393862 0.012723,-0.0933 0.012259,-0.1881129 0.025575,-0.2813299 0.00615,-0.043033 0.02125,-0.084623 0.025575,-0.1278772 0.00806,-0.080587 0,-0.1619779 0,-0.2429668 0,-0.1918158 0,-0.3836317 0,-0.5754475 0,-0.069585 -0.015991,-0.34844627 0,-0.39641948 0.012301,-0.0369045 0.032769,-0.0759299 0.038363,-0.11508952 0.00241,-0.0168789 -0.00468,-0.0347566 0,-0.0511509 0.00422,-0.0147776 0.019521,-0.0242369 0.025575,-0.0383632 0.00692,-0.016154 0.00586,-0.0349969 0.012788,-0.0511509 0.012366,-0.0288537 0.044646,-0.0569892 0.051151,-0.0895141 0.00251,-0.0125394 -0.00404,-0.0262317 0,-0.0383632 0.00135,-0.004044 0.0166,0.001906 0.012788,0 C 7.8756373,0.40201303 7.4781245,0.38788009 7.314578,0.37084399 7.0827115,0.34669123 7.0261468,0.33852865 6.7902813,0.33248082 c -0.1491411,-0.003824 -0.2984578,0.00481 -0.4475703,0 -0.2546611,-0.008215 -0.5121085,-0.0262169 -0.7672634,-0.0127877 -0.042779,0.002252 -0.085105,0.0104115 -0.1278773,0.0127877 -0.034048,0.001892 -0.06841,-0.003766 -0.1023018,0 -0.043204,0.0048 -0.084743,0.0201837 -0.1278772,0.0255754 -0.025378,0.003172 -0.051208,-0.001701 -0.076726,0 -0.1455939,0.009706 -0.2885644,0.0127877 -0.4347826,0.0127877 -0.1875533,0 -0.3751066,0 -0.5626599,0 -0.067256,0 -0.2442724,0.0336654 -0.3069054,0.0127877 -0.027127,-0.009042 -0.051151,-0.0255754 -0.076727,-0.0383631 z"
     transform="translate(0.2685422,0.42199488)" />
  <path
     style="fill:#95aabf;fill-opacity:1;stroke:none;stroke-width:1.3;stroke-opacity:1"
     d="m 0.23017903,14.948849 c -0.020528,-0.08794 -0.020528,-0.180603 0,-0.268542 0.008943,-0.03831 0.0217501,-0.07594 0.0255754,-0.11509 0.004979,-0.05096 -0.005469,-0.102541 0,-0.153452 0.004201,-0.03911 0.0176543,-0.07657 0.0255754,-0.11509 0.009494,-0.04617 0.0109827,-0.09356 0.0127877,-0.140665 0.007109,-0.185526 0.0200115,-0.373084 0.0767263,-0.549872 0.0151081,-0.04709 0.0333931,-0.09376 0.0386559,-0.142937 0.002631,-0.02459 0.001917,-0.0497 -0.004089,-0.07369 -0.006006,-0.02399 -0.0174603,-0.04685 -0.0345668,-0.0647 -0.008846,-0.0092 -0.0192498,-0.01724 -0.0258592,-0.02819 -0.003305,-0.0055 -0.005586,-0.01168 -0.005802,-0.01807 -2.1637e-4,-0.0064 0.001768,-0.01297 0.006086,-0.01769 0.002602,-0.0028 0.005964,-0.0049 0.009572,-0.0063 0.003608,-0.0014 0.007461,-0.002 0.0113115,-0.0021 0.007701,-2.79e-4 0.0153352,0.0013 0.0228589,0.003 0.0150473,0.0033 0.0303605,0.0054 0.0457716,0.0054 H 0.56265977 1.0102301 c 0.093944,0 0.1881588,7.65e-4 0.2813299,0.01279 0.1544229,0.01993 0.3048332,0.06927 0.4603581,0.07673 0.085023,0.0041 0.1702274,-0.0045 0.255298,-0.0015 0.085071,0.0029 0.1725094,0.0184 0.2434232,0.06548 0.060449,0.04013 0.1043763,0.100008 0.1534527,0.153453 0.077606,0.08451 0.1723791,0.155826 0.2813299,0.191816 0.070021,0.02313 0.1439978,0.03119 0.2173913,0.03836 0.2082846,0.02034 0.4184557,0.03453 0.6265985,0.01279 0.1499179,-0.01566 0.297498,-0.04984 0.4475703,-0.06394 0.1698875,-0.01596 0.3409799,-0.006 0.5115089,0 0.1961675,0.0069 0.3926692,0.0087 0.5882353,0.02558 0.1241604,0.0107 0.2479067,0.02746 0.3724602,0.03154 0.1245534,0.0041 0.2510156,-0.0049 0.3692278,-0.04433 0.034549,-0.01153 0.068191,-0.02559 0.1023018,-0.03836 0.098976,-0.03705 0.20209,-0.06321 0.3069054,-0.07673 0.1035813,-0.01336 0.2083609,-0.01436 0.3123119,-0.02444 0.1039509,-0.01009 0.2087478,-0.02985 0.3014988,-0.07786 0.047467,-0.02457 0.091282,-0.05628 0.140665,-0.07673 0.065634,-0.02718 0.1380201,-0.03318 0.2090552,-0.03389 0.071035,-7.07e-4 0.1423543,0.0035 0.2129397,-0.0045 0.039127,-0.0044 0.077886,-0.01266 0.1150895,-0.02557 0.055036,-0.0191 0.1080376,-0.0487 0.1662404,-0.05115 0.053173,-0.0022 0.104583,0.01866 0.1516251,0.04355 0.047042,0.02489 0.092139,0.05431 0.1424925,0.07154 0.069022,0.02362 0.1437477,0.02294 0.2166254,0.01968 0.072878,-0.0033 0.1466954,-0.0088 0.2181573,0.0059 0.043618,0.0089 0.08533,0.02523 0.1278772,0.03836 0.0827,0.02552 0.1692091,0.03921 0.2557545,0.03836 0.1466544,-0.0014 0.289464,-0.04414 0.4347826,-0.06394 0.1902888,-0.02593 0.3834005,-0.01245 0.5754475,-0.01279 0.226342,-4.05e-4 0.452147,-0.02008 0.67775,-0.03836 0.115005,-0.0093 0.231334,-0.01823 0.345268,0 0.03264,0.0052 0.06511,0.01267 0.09816,0.0134 0.03305,7.27e-4 0.06751,-0.006 0.09365,-0.02619 0.01331,-0.0103 0.02389,-0.02363 0.03554,-0.03578 0.01165,-0.01215 0.02502,-0.02351 0.04119,-0.02816 0.01235,-0.0035 0.02549,-0.0029 0.03828,-0.0017 0.01279,0.0012 0.02566,0.003 0.03845,0.0017 0.01751,-0.0018 0.03392,-0.0092 0.05115,-0.01279 0.03767,-0.0078 0.07677,0.0034 0.11509,0 0.0099,-8.75e-4 0.01972,-0.0027 0.02876,-0.0068 0.009,-0.004 0.01723,-0.01035 0.02239,-0.01879 0.005,-0.0082 0.007,-0.01797 0.01279,-0.02558 0.0045,-0.0059 0.01097,-0.01005 0.01806,-0.01201 0.0071,-0.002 0.01472,-0.0017 0.0218,2.88e-4 0.01415,0.0041 0.02558,0.01508 0.03268,0.02797 0.0071,0.01289 0.01029,0.02757 0.01215,0.04217 0.0019,0.0146 0.0025,0.02935 0.0048,0.04388 0.0093,0.05693 0.04439,0.105689 0.07673,0.153453 0.05521,0.08154 0.106311,0.170461 0.11509,0.268542 0.0023,0.0255 0.0016,0.05118 0,0.07673 -0.0034,0.05352 -0.01122,0.106707 -0.01425,0.160255 -0.003,0.05355 -0.0012,0.108073 0.01425,0.159439 0.01172,0.03901 0.03096,0.07525 0.04729,0.112563 0.01633,0.03731 0.02998,0.07689 0.02944,0.117616 -2.84e-4,0.02138 -0.0045,0.04303 0,0.06394 0.0028,0.01319 0.009,0.02543 0.01279,0.03836 0.0086,0.02891 0.0053,0.05995 -1.76e-4,0.08961 -0.0054,0.02966 -0.01296,0.05926 -0.01261,0.08942 2.7e-4,0.02375 0.0054,0.04714 0.0079,0.07076 0.0025,0.02362 0.0021,0.0484 -0.0079,0.06991 -0.0062,0.01332 -0.01603,0.02487 -0.02778,0.03372 -0.01175,0.0089 -0.02541,0.01504 -0.03966,0.01867 -0.02851,0.0073 -0.05883,0.0043 -0.0872,-0.0035 -0.05674,-0.01557 -0.107433,-0.04982 -0.165055,-0.06171 -0.02942,-0.0061 -0.06009,-0.0061 -0.08951,0 -0.03719,-0.01298 -0.0759,-0.02158 -0.11509,-0.02558 -0.07654,-0.0078 -0.154656,0.0019 -0.230179,-0.01279 -0.09035,-0.01755 -0.170155,-0.06849 -0.255754,-0.102302 -0.09536,-0.03767 -0.197929,-0.05401 -0.294118,-0.08951 -0.03417,-0.01261 -0.06749,-0.02763 -0.102302,-0.03836 -0.05772,-0.0178 -0.119584,-0.0235 -0.179028,-0.01279 -0.06113,0.01101 -0.118148,0.03883 -0.179028,0.05115 -0.063413,0.01284 -0.1291483,0.0085 -0.1930356,-0.0018 -0.063887,-0.01022 -0.1267418,-0.02619 -0.1905962,-0.03661 -0.1141027,-0.01862 -0.2312793,-0.0193 -0.3452686,0 -0.051152,0.0087 -0.101746,0.02133 -0.1534526,0.02557 -0.1025011,0.0084 -0.2044608,-0.01649 -0.3069054,-0.02557 -0.051143,-0.0045 -0.102685,-0.0051 -0.1534527,-0.01279 -0.042989,-0.0065 -0.085067,-0.018 -0.1278772,-0.02558 -0.1724254,-0.03053 -0.3492233,0.0035 -0.5242967,0 -0.1199418,-0.0024 -0.2387376,-0.02237 -0.3580399,-0.03497 -0.1193023,-0.0126 -0.241197,-0.01765 -0.3580726,0.0094 -0.056505,0.01308 -0.111,0.03348 -0.1662405,0.05115 -0.074995,0.02399 -0.1518557,0.04307 -0.230179,0.05115 -0.1527193,0.01576 -0.3068275,0 -0.460358,0 H 5.4731617 c -0.1321593,0 -0.2644635,-0.0073 -0.3964195,0 -0.1890865,0.0105 -0.3739441,0.06091 -0.5626598,0.07673 -0.1912288,0.01603 -0.3835824,-0.0036 -0.5754476,0 -0.1535465,0.0029 -0.3069911,0.02077 -0.460358,0.01279 -0.1415451,-0.0074 -0.2810052,-0.03662 -0.4219949,-0.05115 -0.255075,-0.02628 -0.5125649,-0.0041 -0.7672634,0.02557 -0.1024041,0.01195 -0.2046612,0.02511 -0.3069054,0.03836 -0.1868779,0.02421 -0.3742362,0.04871 -0.5626599,0.05115 -0.055409,7.17e-4 -0.1108265,0 -0.1662404,0 H 0.78006707 c -0.0189631,0 -0.0379794,-4.33e-4 -0.0567417,-0.0032 -0.0187623,-0.0028 -0.0371168,-0.0077 -0.0554626,-0.0125 -0.0183458,-0.0048 -0.0370799,-0.0094 -0.0560225,-0.0085 -0.009471,4.41e-4 -0.0189458,0.0023 -0.0275683,0.0063 -0.008622,0.0039 -0.0163749,0.01003 -0.0215962,0.01794 -0.005255,0.008 -0.007791,0.01745 -0.0127877,0.02558 -0.004886,0.0079 -0.0120425,0.01439 -0.0201627,0.01899 -0.00812,0.0046 -0.0171848,0.0074 -0.0264063,0.0088 -0.0184429,0.0029 -0.0372494,3.37e-4 -0.0557328,-0.0023 -0.0370622,-0.0052 -0.0747317,-0.01064 -0.1117396,-0.0051 -0.0185039,0.0028 -0.0367067,0.0084 -0.0529462,0.01766 -0.0162394,0.0093 -0.0304708,0.02241 -0.0399178,0.03856 -0.008994,0.01538 -0.0134869,0.03335 -0.0127877,0.05115 z"
     id="path2"
     inkscape:path-effect="#path-effect2"
     inkscape:original-d="m 0.23017903,14.948849 c 0.006688,-0.08877 -0.009824,-0.180125 0,-0.268542 0.00434,-0.03906 0.0218495,-0.07597 0.0255754,-0.11509 0.00485,-0.05092 -0.00485,-0.102532 0,-0.153452 0.003726,-0.03912 0.0197458,-0.07623 0.0255754,-0.11509 0.006984,-0.04656 0.005629,-0.09413 0.0127877,-0.140665 0.0284159,-0.184703 0.0767263,-0.361425 0.0767263,-0.549872 0,-0.0878 0.0145824,-0.193836 0,-0.28133 -0.001075,-0.0065 -0.0369824,-0.05824 -0.0255754,-0.06394 0.0266879,-0.01334 0.059676,0 0.0895141,0 0.0426257,0 0.0852515,0 0.12787724,0 0.14919011,0 0.29838022,0 0.44757033,0 0.071966,0 0.2017146,-0.0071 0.2813299,0.01279 0.1492209,0.03731 0.3059786,0.05908 0.4603581,0.07673 0.00452,5.16e-4 0.4701724,0.04681 0.4987212,0.06394 0.06203,0.03722 0.099543,0.105218 0.1534527,0.153453 0.063919,0.05719 0.2002722,0.163865 0.2813299,0.191816 0.069564,0.02399 0.1442207,0.03058 0.2173913,0.03836 0.2573039,0.02737 0.3867962,0.03459 0.6265985,0.01279 0.1506333,-0.01369 0.296277,-0.05673 0.4475703,-0.06394 0.1682642,-0.008 0.3433664,-0.0044 0.5115089,0 0.1961958,0.0052 0.3921569,0.01705 0.5882353,0.02558 0.2460523,0.0107 0.4973582,0.0342 0.741688,-0.01279 0.035764,-0.0069 0.067751,-0.02685 0.1023018,-0.03836 0.1178269,-0.03928 0.1783132,-0.05184 0.3069054,-0.07673 0.2037321,-0.03943 0.4143549,-0.04364 0.6138107,-0.102302 0.063244,-0.0186 0.074577,-0.06571 0.140665,-0.07673 0.1396733,-0.02328 0.2820739,-0.01928 0.4219949,-0.03836 0.038939,-0.0053 0.077579,-0.01385 0.1150895,-0.02557 0.060884,-0.01903 0.100593,-0.06756 0.1662404,-0.05115 0.1053844,0.02635 0.176987,0.09166 0.2941176,0.115089 0.1436938,0.02874 0.2904563,-0.0019 0.4347827,0.02558 0.043717,0.0083 0.084481,0.0285 0.1278772,0.03836 0.03764,0.0086 0.2012124,0.03417 0.2557545,0.03836 0.1478366,0.01137 0.2878364,-0.04761 0.4347826,-0.06394 0.190813,-0.0212 0.383923,-0.01279 0.5754475,-0.01279 0.22773,0 0.450889,-0.02642 0.67775,-0.03836 0.114013,-0.006 0.231203,0 0.345268,0 0.0575,0 0.136354,0.01098 0.191816,-0.01279 0.02564,-0.01099 0.05087,-0.0536 0.07673,-0.06394 0.02375,-0.0095 0.05141,0.0036 0.07673,0 0.0174,-0.0025 0.03375,-0.0103 0.05115,-0.01279 0.03721,-0.0053 0.07827,0.0074 0.11509,0 0.0026,-5.1e-4 0.04902,-0.02344 0.05115,-0.02557 0.02646,-0.02646 -0.04043,10e-4 0.01279,-0.02558 0.04053,-0.02026 0.0662,0.06345 0.08951,0.102302 0.02942,0.04904 0.05205,0.101861 0.07673,0.153453 0.01625,0.03397 0.104254,0.2252 0.11509,0.268542 0.0062,0.02481 0,0.05115 0,0.07673 0,0.09734 -0.01754,0.237827 0,0.319694 0.01682,0.07849 0.06127,0.152882 0.07673,0.230179 0.0042,0.0209 -0.0026,0.04279 0,0.06394 0.0017,0.01338 0.01088,0.02502 0.01279,0.03836 0.0086,0.06005 -0.01279,0.118851 -0.01279,0.179029 0,0.029 0.0093,0.131409 0,0.140664 -0.01369,0.01369 -0.30252,-0.01147 -0.319693,-0.01279 -0.02975,-0.0023 -0.05968,0 -0.08951,0 -0.03836,-0.0085 -0.07619,-0.02002 -0.11509,-0.02558 -0.06616,-0.0095 -0.163197,0.0016 -0.230179,-0.01279 -0.103473,-0.02217 -0.155304,-0.063 -0.255754,-0.102302 -0.16826,-0.06584 -0.129648,-0.03758 -0.294118,-0.08951 -0.03473,-0.01097 -0.06711,-0.02898 -0.102302,-0.03836 -0.0376,-0.01003 -0.134581,-0.02549 -0.179028,-0.01279 -0.163199,0.04663 0.134391,0.01816 -0.179028,0.05115 -0.1321439,0.01391 -0.2543034,-0.02661 -0.3836318,-0.03836 -0.091084,-0.0083 -0.2502619,-0.01188 -0.3452686,0 -0.093815,0.01173 -0.041978,0.01938 -0.1534526,0.02557 -0.1687503,0.0094 -0.1277784,-0.0041 -0.3069054,-0.02557 -0.050963,-0.0061 -0.1025952,-0.0059 -0.1534527,-0.01279 -0.043071,-0.0059 -0.084603,-0.02145 -0.1278772,-0.02558 -0.1722687,-0.01641 -0.3511925,0.006 -0.5242967,0 -0.2314276,-0.008 -0.4850973,-0.05198 -0.7161125,-0.02557 -0.057602,0.0066 -0.1103061,0.0359 -0.1662405,0.05115 -0.075829,0.02068 -0.1520617,0.04247 -0.230179,0.05115 -0.148145,0.01646 -0.311892,0 -0.460358,0 -0.3196931,0 -0.6393862,0 -0.9590793,0 -0.1321398,0 -0.264537,-0.0082 -0.3964195,0 -0.1881578,0.01176 -0.3736616,0.06491 -0.5626598,0.07673 -0.1904464,0.0119 -0.385661,-0.01898 -0.5754476,0 -0.1508618,0.01509 -0.3076754,0.02042 -0.460358,0.01279 -0.142636,-0.0071 -0.2783583,-0.04602 -0.4219949,-0.05115 -0.2566027,-0.0092 -0.5121327,6.2e-5 -0.7672634,0.02557 -0.102052,0.01021 -0.2047705,0.03107 -0.3069054,0.03836 -0.187816,0.01342 -0.376006,0.03041 -0.5626599,0.05115 -0.055074,0.0061 -0.1108269,0 -0.1662404,0 -0.1577152,0 -0.31543047,0 -0.47314573,0 -0.0197694,0 -0.20607385,-0.0075 -0.2173913,0 -0.007931,0.0053 -0.006048,0.01884 -0.0127877,0.02558 -0.013366,0.01337 -0.0790797,0.01894 -0.10230179,0.02557 -0.0319011,0.0091 -0.19629819,0.03454 -0.20460358,0.05115 -0.00786,0.01572 -0.008525,0.0341 -0.0127877,0.05115 z"
     transform="matrix(1.0198979,0,0,1.5125891,-0.05542464,-7.3684981)" />
</svg>
