<?xml version="1.0" encoding="UTF-8" standalone="no"?>
<svg
   width="42px"
   height="32px"
   viewBox="0 0 42 32"
   version="1.1"
   id="svg9"
   sodipodi:docname="ico_docs.svg"
   inkscape:version="1.3.2 (091e20e, 2023-11-25, custom)"
   xmlns:inkscape="http://www.inkscape.org/namespaces/inkscape"
   xmlns:sodipodi="http://sodipodi.sourceforge.net/DTD/sodipodi-0.dtd"
   xmlns="http://www.w3.org/2000/svg"
   xmlns:svg="http://www.w3.org/2000/svg">
  <sodipodi:namedview
     id="namedview9"
     pagecolor="#ffffff"
     bordercolor="#000000"
     borderopacity="0.25"
     inkscape:showpageshadow="2"
     inkscape:pageopacity="0.0"
     inkscape:pagecheckerboard="0"
     inkscape:deskcolor="#d1d1d1"
     inkscape:zoom="34.428571"
     inkscape:cx="21"
     inkscape:cy="15.989627"
     inkscape:window-width="2560"
     inkscape:window-height="1369"
     inkscape:window-x="-8"
     inkscape:window-y="-8"
     inkscape:window-maximized="1"
     inkscape:current-layer="svg9" />
  <!-- Generator: Sketch 49 (51002) - http://www.bohemiancoding.com/sketch -->
  <title
     id="title1">icon/news</title>
  <desc
     id="desc1">Created with Sketch.</desc>
  <defs
     id="defs1">
    <inkscape:path-effect
       effect="spiro"
       id="path-effect22"
       is_visible="true"
       lpeversion="1" />
    <inkscape:path-effect
       effect="spiro"
       id="path-effect21"
       is_visible="true"
       lpeversion="1" />
    <inkscape:path-effect
       effect="spiro"
       id="path-effect20"
       is_visible="true"
       lpeversion="1" />
    <inkscape:path-effect
       effect="spiro"
       id="path-effect19"
       is_visible="true"
       lpeversion="1" />
    <inkscape:path-effect
       effect="spiro"
       id="path-effect18"
       is_visible="true"
       lpeversion="1" />
    <inkscape:path-effect
       effect="spiro"
       id="path-effect15"
       is_visible="true"
       lpeversion="1" />
    <inkscape:path-effect
       effect="spiro"
       id="path-effect14"
       is_visible="true"
       lpeversion="1" />
    <inkscape:path-effect
       effect="spiro"
       id="path-effect13"
       is_visible="true"
       lpeversion="1" />
    <inkscape:path-effect
       effect="spiro"
       id="path-effect12"
       is_visible="true"
       lpeversion="1" />
    <inkscape:path-effect
       effect="spiro"
       id="path-effect11"
       is_visible="true"
       lpeversion="1" />
    <inkscape:path-effect
       effect="spiro"
       id="path-effect10"
       is_visible="true"
       lpeversion="1" />
  </defs>
  <path
     style="fill:none;stroke:#1c1f30;stroke-width:1.079;stroke-opacity:1"
     d="m 36.510362,21.174274 c -0.162749,-0.25508 -0.216451,-0.577294 -0.145228,-0.871369 0.0188,-0.07764 0.04589,-0.153421 0.05809,-0.232366 0.01482,-0.09591 0.0073,-0.193685 0,-0.290456 -0.04069,-0.54167 -0.07138,-1.08807 0,-1.626556 0.03473,-0.262033 0.0935,-0.520881 0.116182,-0.784232 0.03582,-0.415869 -0.01897,-0.833392 -0.05809,-1.248963 -0.06454,-0.685557 -0.08655,-1.374291 -0.116183,-2.062241 -0.0059,-0.135806 -0.01201,-0.271777 -0.02904,-0.406639 -0.0419,-0.331856 -0.149171,-0.654005 -0.174274,-0.987552 -0.01745,-0.231792 0.0052,-0.464705 0,-0.697095 -0.0089,-0.398919 -0.09942,-0.792206 -0.116183,-1.190871 -0.0069,-0.164468 -0.0012,-0.329167 0,-0.493776 0.0023,-0.3014467 -0.0099,-0.6067381 0.05809,-0.9004149 0.02973,-0.128345 0.07444,-0.252637 0.116183,-0.3775933 0.114659,-0.3432262 0.207521,-0.6934037 0.290456,-1.0456432 0.08088,-0.3434989 0.15312,-0.6915265 0.290457,-1.0165975 0.08938,-0.2115683 0.205253,-0.4107152 0.319502,-0.6099585 0.205809,-0.3589183 0.410211,-0.7275686 0.493776,-1.1327801 0.02573,-0.1247441 0.03965,-0.2515655 0.05809,-0.3775933 0.05255,-0.359202 0.14189,-0.7131111 0.174274,-1.0746888 0.01643,-0.1834916 0.0181,-0.3679672 0.02905,-0.5518673 0.02137,-0.3588405 0.07811,-0.7153255 0.08714,-1.0746887 0.0044,-0.1761717 -0.0031,-0.3553857 -0.05809,-0.5228216 C 37.835823,1.3881124 37.694421,1.2064049 37.519877,1.0718418 37.345332,0.93727868 37.138751,0.84806719 36.925346,0.79301044 36.498535,0.68289695 36.050642,0.70660662 35.609959,0.69709587 c -0.484897,-0.010465 -0.967924,-0.0620282 -1.452283,-0.0871369 -0.696292,-0.036095 -1.394155,-0.0174731 -2.091286,-0.0290457 -1.996718,-0.033146 -3.9871,-0.31394545 -5.983402,-0.26141079 -0.79518,0.0209259 -1.587894,0.0947033 -2.381743,0.14522822 -0.841233,0.0535407 -1.684058,0.0809795 -2.526971,0.0871369 -1.161942,0.008488 -2.32469,-0.0234363 -3.485477,0.0290456 -0.813916,0.036799 -1.625646,0.11505262 -2.439834,0.14522822 -0.696727,0.0258222 -1.394274,0.0164003 -2.091287,0 -0.426397,-0.0100329 -0.854631,-0.0225933 -1.278008,0.0290456 -0.38283,0.0466934 -0.757064,0.14532201 -1.13278,0.23236515 C 10.160433,1.1234178 9.567933,1.2314946 8.9751037,1.3360999 8.1573007,1.480402 7.3358306,1.6184818 6.5062241,1.655602 5.6548479,1.6936963 4.8024344,1.6251261 3.9502075,1.626556 3.4894361,1.6273291 3.026395,1.648446 2.569676,1.5874651 2.112957,1.5264841 1.655388,1.3763082 1.3070539,1.0746888 1.2448943,1.0208653 1.1866035,0.9625746 1.1327801,0.90041494 c 0.040549,0.0909206 0.060551,0.19093416 0.058091,0.29045646 -0.00193,0.078095 -0.017425,0.1551152 -0.029046,0.2323651 -0.057692,0.3834835 -0.020113,0.7741298 -0.029046,1.1618257 -0.00693,0.3007147 -0.041899,0.6000566 -0.058091,0.900415 -0.035975,0.6673559 0.020866,1.3358746 0.029046,2.0041494 0.00403,0.3291639 -0.00375,0.6583846 0,0.9875518 0.00299,0.2623966 0.013407,0.5256512 0.058091,0.7842324 0.020064,0.116106 0.047028,0.2312414 0.058091,0.3485477 0.016371,0.1736011 -0.00238,0.3484665 0,0.5228216 0.00671,0.4926845 0.1808243,0.9661866 0.2614108,1.4522821 0.032028,0.1931926 0.04931,0.3887715 0.087137,0.5809128 0.030467,0.154758 0.074288,0.307526 0.087137,0.46473 0.00947,0.115855 0.00195,0.232323 0,0.348548 -0.00358,0.213011 0.011571,0.426278 0,0.639004 -0.015862,0.291607 -0.081785,0.579381 -0.087137,0.87137 -0.00266,0.145244 0.0097,0.29074 0,0.435684 -0.01244,0.185913 -0.060904,0.367394 -0.087137,0.551867 -0.053367,0.375285 -0.014471,0.760751 -0.087137,1.132781 -0.022962,0.117561 -0.056877,0.232649 -0.087137,0.348547 -0.065268,0.249978 -0.1136061,0.504053 -0.1742738,0.755187 -0.037496,0.155215 -0.079694,0.309275 -0.1161826,0.46473 -0.10501039,0.447385 -0.16243698,0.905754 -0.17427385,1.365145 -0.006734,0.261335 0.001232,0.522814 0,0.784233 -0.00105,0.222706 -0.008774,0.445515 0,0.66805 0.0180329,0.457388 0.10552612,0.909127 0.14522822,1.365145 0.0512613,0.588788 0.0226221,1.181202 0,1.771784 -0.0137387,0.358667 -0.0251108,0.719868 0.0290456,1.074689 0.045416,0.297553 0.1362678,0.586123 0.2323652,0.871369 0.2108217,0.625784 0.4513106,1.256808 0.4647302,1.917013 0.00644,0.316832 -0.039931,0.632077 -0.061004,0.948273 -0.021072,0.316197 -0.015662,0.640947 0.09005,0.939693 0.027599,0.078 0.061834,0.153596 0.087137,0.232366 0.036135,0.112492 0.053662,0.230477 0.058091,0.348547 0.00472,0.125796 -0.00527,0.25182 0,0.377594 0.015779,0.376568 0.1738797,0.745469 0.4356847,1.016597 l 0.058091,0.05809 c 0.019817,0.0087 0.039211,0.01844 0.058091,0.02905 0.17389,0.09774 0.2942733,0.265949 0.4356847,0.406639 0.3010304,0.299494 0.7051215,0.477736 1.1183196,0.575632 0.4131981,0.0979 0.8397956,0.121251 1.2634231,0.150509 0.8327241,0.05751 1.6639524,0.139252 2.4979253,0.174274 0.4937444,0.02073 0.9882516,0.02508 1.4813278,0.05809 0.2615463,0.01751 0.5225315,0.04307 0.7842329,0.05809 0.686666,0.03941 1.376407,0.0062 2.062241,0.05809 0.408402,0.03092 0.813826,0.09194 1.219917,0.145228 1.569602,0.205963 3.152229,0.296745 4.734439,0.348548 2.235871,0.0732 4.473777,0.06888 6.709544,0.145228 1.229547,0.04199 2.458558,0.108369 3.688797,0.116183 0.580905,0.0037 1.161849,-0.0057 1.742738,0 0.545319,0.0053 1.099262,0.02297 1.626556,-0.116183 0.441865,-0.116607 0.854786,-0.341091 1.307054,-0.406639 0.128606,-0.01864 0.263254,-0.02539 0.377594,-0.08714 0.06356,-0.03433 0.117404,-0.08406 0.167574,-0.136034 0.05017,-0.05197 0.09755,-0.106864 0.151928,-0.154422 0.08534,-0.07464 0.186217,-0.129671 0.290456,-0.174274 0.01341,-0.0057 0.0271,-0.01144 0.03836,-0.0207 0.0056,-0.0046 0.01061,-0.01014 0.01417,-0.0165 0.0036,-0.0064 0.0057,-0.01361 0.0056,-0.02089 -7.9e-5,-0.0049 -0.0012,-0.0097 -0.0017,-0.01461 -5.14e-4,-0.0049 -4.29e-4,-0.01 0.0017,-0.01444 0.0023,-0.0049 0.0069,-0.0084 0.01194,-0.01018 0.0051,-0.0017 0.01063,-0.0018 0.01592,-8.25e-4 0.01057,0.0019 0.02005,0.0076 0.03023,0.011 0.01294,0.0044 0.02696,0.0051 0.04046,0.0031 0.0135,-0.002 0.02651,-0.0068 0.03864,-0.01305 0.02427,-0.01253 0.04492,-0.03089 0.06612,-0.04811 0.128655,-0.104485 0.285548,-0.171213 0.447787,-0.205092 0.162239,-0.03388 0.329955,-0.03583 0.494911,-0.01974 0.329913,0.03218 0.648428,0.135156 0.974314,0.195784 0.114942,0.02138 0.231942,0.03755 0.348548,0.02905 0.04867,-0.0035 0.09697,-0.01137 0.145679,-0.01439 0.04871,-0.003 0.09849,-0.0011 0.144777,0.01439 0.04113,0.01375 0.07796,0.03761 0.116183,0.05809 0.162219,0.08693 0.349316,0.112899 0.522822,0.174274 0.117423,0.04154 0.228343,0.09921 0.341874,0.150441 0.113531,0.05123 0.23151,0.09651 0.355221,0.11097 0.03858,0.0045 0.0778,0.006 0.116183,0 0.07552,-0.01175 0.145421,-0.05278 0.195652,-0.110391 0.05023,-0.05761 0.08108,-0.13107 0.09119,-0.206828 0.01011,-0.07576 -5.8e-5,-0.153639 -0.02532,-0.225775 -0.02526,-0.07214 -0.06533,-0.138641 -0.114068,-0.197518 -0.09747,-0.117754 -0.227535,-0.20384 -0.360583,-0.279105 -0.133047,-0.07527 -0.271532,-0.141794 -0.396836,-0.229346 -0.19494,-0.136207 -0.353528,-0.321 -0.472698,-0.526796 -0.11917,-0.205797 -0.199825,-0.432388 -0.253443,-0.664075 -0.02448,-0.105779 -0.04358,-0.213284 -0.0807,-0.315317 -0.03712,-0.102034 -0.09422,-0.199962 -0.180715,-0.265596 -0.01662,-0.01261 -0.03422,-0.02396 -0.04999,-0.03761 -0.01577,-0.01365 -0.02986,-0.02999 -0.03715,-0.04953 -0.0052,-0.01397 -0.0068,-0.02926 -0.0047,-0.04403 0.002,-0.01477 0.0076,-0.02901 0.01599,-0.04136 0.01669,-0.02471 0.04426,-0.04131 0.07362,-0.04654 0.02936,-0.0052 0.06022,5.18e-4 0.08676,0.01412 0.02654,0.0136 0.04884,0.03478 0.06563,0.05942 0.03358,0.04929 0.04479,0.110496 0.04787,0.17006 0.0031,0.05956 -0.0011,0.119488 0.0053,0.178784 0.01,0.09205 0.04569,0.180316 0.09654,0.257688 0.05086,0.07737 0.116567,0.144232 0.188592,0.202416 0.144051,0.116368 0.312256,0.198163 0.470049,0.295083 0.171728,0.105479 0.331441,0.229116 0.493776,0.348548 0.411115,0.302463 0.840735,0.57909 1.278009,0.842323 0.09025,0.05433 0.185322,0.109542 0.290456,0.116183 0.0097,6.11e-4 0.01939,8.01e-4 0.02905,0 0.02429,-0.002 0.04792,-0.01036 0.06856,-0.02333 0.02063,-0.01297 0.03828,-0.0305 0.05211,-0.05057 0.02765,-0.04014 0.03958,-0.08969 0.03988,-0.138429 5.96e-4,-0.09748 -0.04237,-0.189036 -0.0734,-0.281449 -0.124292,-0.370094 -0.06023,-0.772666 -0.02905,-1.161826 0.06268,-0.78225 -0.01375,-1.568089 -0.02905,-2.352697 -0.02153,-1.10384 0.07804,-2.207333 0.05809,-3.311203 -0.01139,-0.62992 -0.06167,-1.258459 -0.08714,-1.887967 -0.0306,-0.756275 -0.02512,-1.517037 0.08714,-2.26556 0.05267,-0.351212 0.128652,-0.698442 0.203319,-1.045643 0.08504,-0.395452 0.168488,-0.791454 0.232365,-1.190872 0.107914,-0.674785 0.159682,-1.35745 0.261411,-2.033195 0.168531,-1.119487 0.473617,-2.216387 0.609959,-3.340249 0.02812,-0.231778 0.0488,-0.468774 0,-0.697095 -0.02563,-0.119923 -0.06996,-0.234959 -0.116183,-0.348548 -0.09254,-0.22743 -0.194278,-0.454519 -0.232355,-0.6970853 -0.01509,-0.096146 -0.01996,-0.1935584 -0.02905,-0.2904565 C 40.81135,9.2991045 40.747639,9.0174733 40.6639,8.7427386 40.613865,8.5785807 40.556574,8.4163387 40.518672,8.2489627 40.481753,8.0859309 40.463514,7.9192589 40.431535,7.7551867 40.387495,7.5292362 40.317625,7.309284 40.257261,7.0871369 40.122726,6.5920329 40.035253,6.0852342 39.966805,5.5767635 39.930028,5.303566 39.898402,5.0282257 39.821577,4.7634855 39.784748,4.6365724 39.737416,4.511471 39.723182,4.3800911 c -0.0071,-0.06569 -0.0057,-0.1327319 0.0094,-0.1970452 0.01515,-0.064313 0.04449,-0.1258975 0.08899,-0.1747471 0.0155,-0.017017 0.03315,-0.033014 0.04221,-0.054172 0.0045,-0.010579 0.0067,-0.022368 0.0048,-0.033715 -0.0019,-0.011348 -0.0082,-0.022168 -0.01796,-0.028296 -0.0085,-0.00532 -0.01886,-0.00682 -0.02882,-0.00612 -0.01,7.014e-4 -0.01965,0.00346 -0.02927,0.00612 -0.216635,0.059963 -0.444317,0.079762 -0.66805,0.058091"
     id="path10"
     inkscape:path-effect="#path-effect10"
     inkscape:original-d="m 36.510362,21.174274 c -0.08515,-0.255453 -0.172458,-0.57183 -0.145228,-0.871369 0.0072,-0.07951 0.05239,-0.152726 0.05809,-0.232366 0.0069,-0.09657 0,-0.193636 0,-0.290456 0,-0.542185 -0.02927,-1.085161 0,-1.626556 0.05518,-1.020949 0.04149,5.9e-5 0.116182,-0.784232 0.03846,-0.403786 -0.03897,-0.847346 -0.05809,-1.248963 -0.03276,-0.688019 -0.06124,-1.375555 -0.116183,-2.062241 -0.01083,-0.135459 -0.0094,-0.272169 -0.02904,-0.406639 -0.04824,-0.330771 -0.133644,-0.655759 -0.174274,-0.987552 -0.01978,-0.161502 0.01187,-0.507248 0,-0.697095 -0.02488,-0.398065 -0.09343,-0.792679 -0.116183,-1.190871 -0.0094,-0.164324 0,-0.329184 0,-0.493776 0,-0.4167288 -0.03024,-0.5323589 0.05809,-0.9004149 0.03073,-0.1280515 0.08225,-0.250352 0.116183,-0.3775933 0.297856,-1.1168392 -0.09156,0.1640715 0.290456,-1.0456432 0.115076,-0.3975336 0.149459,-0.6359032 0.290457,-1.0165975 0.112233,-0.3030305 0.161977,-0.3342905 0.319502,-0.6099585 0.204211,-0.3573695 0.393301,-0.7308805 0.493776,-1.1327801 0.03088,-0.123543 0.03715,-0.2519807 0.05809,-0.3775933 0.05971,-0.3582783 0.142264,-0.7119603 0.174274,-1.0746888 0.0162,-0.1834975 0.01593,-0.368125 0.02905,-0.5518673 0.02561,-0.3584918 0.06375,-0.7160455 0.08714,-1.0746887 0.009,-0.1383798 0.04194,-0.3977819 -0.05809,-0.5228216 C 37.316225,0.86208705 36.465739,0.76127937 35.609959,0.69709587 34.780155,0.63486057 35.049592,0.62560657 34.157676,0.60995897 32.97728,0.58925027 33.439824,0.64587297 32.06639,0.58091327 30.080359,0.48697939 28.075478,0.27149068 26.082988,0.31950248 25.129639,0.34247474 24.660671,0.4082939 23.701245,0.4647307 22.857924,0.5143378 22.019018,0.5422686 21.174274,0.5518676 18.890387,0.5778212 20.788622,0.5014305 17.688797,0.5809132 c -2.843711,0.0729156 0.503497,0.036216 -2.439834,0.14522822 -0.696618,0.0258007 -1.394191,0 -2.091287,0 -0.371472,0 -0.890926,-0.0139634 -1.278008,0.0290456 -0.476671,0.0529635 -0.649421,0.12728707 -1.13278,0.23236515 C 10.52958,1.0347929 9.0302507,1.3267899 8.9751037,1.3360999 8.5659784,1.405173 6.8940362,1.64385 6.5062241,1.655602 5.6545545,1.68141 4.8015649,1.661164 3.9502075,1.626556 3.3282885,1.6012748 1.8795723,1.4245611 1.3070539,1.0746888 1.2369539,1.0318499 1.1908711,0.95850624 1.1327801,0.90041494 c 0.019364,0.0968188 0.052614,0.19187226 0.058091,0.29045646 0.00433,0.077938 -0.024177,0.1544593 -0.029046,0.2323651 -0.024111,0.3857789 -0.012254,0.7756257 -0.029046,1.1618257 -0.013072,0.3006644 -0.043079,0.6001669 -0.058091,0.900415 -0.033276,0.6655144 0.00349,1.3396575 0.029046,2.0041494 0.012642,0.3286977 -0.012642,0.6588541 0,0.9875518 0.010074,0.2619333 0.028045,0.5238331 0.058091,0.7842324 0.013501,0.1170088 0.047427,0.2312463 0.058091,0.3485477 0.00622,0.068465 -0.00498,0.433195 0,0.5228216 0.027701,0.4986246 0.1664812,0.9657682 0.2614108,1.4522821 0.037498,0.1921798 0.054947,0.3877731 0.087137,0.5809128 0.025911,0.155465 0.070346,0.308018 0.087137,0.46473 0.012377,0.115522 0,0.232366 0,0.348548 0,0.213001 0.015176,0.426544 0,0.639004 -0.020797,0.291164 -0.06772,0.580111 -0.087137,0.87137 -0.00966,0.144906 0.011138,0.290884 0,0.435684 -0.074637,0.970276 -0.042803,-0.201808 -0.087137,0.551867 -0.046752,0.79478 0.1652868,-0.634185 -0.087137,1.132781 -0.016936,0.118554 -0.060208,0.231856 -0.087137,0.348547 -0.2244595,0.972658 0.043441,-0.115671 -0.1742738,0.755187 -0.038728,0.15491 -0.09115,0.307027 -0.1161826,0.46473 -0.0719158,0.45307 -0.13078099,0.90847 -0.17427385,1.365145 -0.0247841,0.260234 0,0.522822 0,0.784233 0,0.222683 -0.0148127,0.44586 0,0.66805 0.030507,0.457605 0.12819373,0.905214 0.14522822,1.365145 0.0217849,0.588194 0,1.183536 0,1.771784 0,0.273299 -0.00916,0.807252 0.0290456,1.074689 0.022327,0.156289 0.1853602,0.70424 0.2323652,0.871369 0.1771414,0.629836 0.3894343,1.264448 0.4647302,1.917013 0.072461,0.627999 -0.024759,1.260242 0.029046,1.887966 0.00706,0.08242 0.064411,0.152826 0.087137,0.232366 0.032358,0.113253 0.04831,0.231169 0.058091,0.348547 0.010452,0.12543 -0.010452,0.252164 0,0.377594 0.030015,0.360185 0.200911,0.742695 0.4356847,1.016597 0.019364,0.01936 0.038727,0.03873 0.058091,0.05809 0.019364,0.0097 0.042783,0.01374 0.058091,0.02905 0.2794991,0.279499 -0.2675253,-0.04705 0.4356847,0.406639 0.7206015,0.464904 1.5416418,0.638631 2.3817427,0.726141 1.200184,0.125019 1.520605,0.135181 2.4979253,0.174274 0.493776,0.01936 0.9875519,0.03873 1.4813278,0.05809 0.2614108,0.01936 0.5223235,0.0474 0.7842325,0.05809 0.687114,0.02804 1.37587,0.01557 2.062241,0.05809 0.408726,0.02532 0.812226,0.106663 1.219917,0.145228 1.563659,0.147914 3.158709,0.293259 4.734439,0.348548 2.237325,0.0785 4.472639,0.07744 6.709544,0.145228 1.229146,0.03725 2.459293,0.102521 3.688797,0.116183 0.580877,0.0065 1.161825,0 1.742738,0 0.892398,0 0.78918,0.04417 1.626556,-0.116183 0.505372,-0.09677 0.842898,-0.25192 1.307054,-0.406639 0.122544,-0.04085 0.256198,-0.04299 0.377594,-0.08714 0.179628,-0.06532 0.185801,-0.173468 0.319502,-0.290456 0.06267,-0.05484 0.218823,-0.126519 0.290456,-0.174274 0.02278,-0.01519 0.0429,-0.03531 0.05809,-0.05809 0.0054,-0.0081 -0.0087,-0.02472 0,-0.02905 0.01732,-0.0087 0.03947,0.0053 0.05809,0 0.05013,-0.01432 0.09425,-0.04717 0.145228,-0.05809 0.542963,-0.11635 1.376765,-0.07227 1.917012,-0.02905 0.116214,0.0093 0.232083,0.02375 0.348548,0.02905 0.09672,0.0044 0.194611,-0.01369 0.290456,0 0.04286,0.0061 0.07639,0.04104 0.116183,0.05809 0.167621,0.07184 0.358426,0.09208 0.522822,0.174274 0.216044,0.108022 0.460322,0.188557 0.697095,0.261411 0.03701,0.01139 0.131911,0.03539 0.116183,0 -0.187191,-0.421178 -0.376361,-0.850982 -0.609959,-1.248963 -0.439484,-0.748751 -0.409988,-0.600719 -0.726141,-1.190871 -0.301575,-0.56294 -0.12676,-0.221846 -0.261411,-0.580913 -0.01442,-0.03846 -0.114616,-0.117669 -0.08714,-0.08714 0.0916,0.101773 0.195915,0.191413 0.290457,0.290456 0.312655,0.327544 0.382105,0.452058 0.755186,0.755187 0.156362,0.127043 0.330843,0.23005 0.493776,0.348548 0.625408,0.454842 0.451595,0.385621 1.278009,0.842323 0.09127,0.05044 0.192457,0.08055 0.290456,0.116183 0.0091,0.0033 0.02324,0.0077 0.02905,0 0.10671,-0.142281 0.08714,-0.329176 0.08714,-0.493776 0,-1.037935 0.01181,-0.242457 -0.02905,-1.161826 -0.03476,-0.781995 -0.04938,-1.56997 -0.02905,-2.352697 0.02868,-1.104336 0.08572,-2.205962 0.05809,-3.311203 -0.01575,-0.629812 -0.07502,-1.257981 -0.08714,-1.887967 -0.01563,-0.812888 0.01173,-1.410936 0.08714,-2.26556 0.02672,-0.302887 0.139509,-0.750523 0.203319,-1.045643 0.08267,-0.382323 0.172518,-0.806138 0.232365,-1.190872 0.105434,-0.677785 0.132187,-1.358359 0.261411,-2.033195 0.213091,-1.112809 0.580616,-2.195867 0.609959,-3.340249 0.006,-0.232289 0.02566,-0.466151 0,-0.697095 -0.01352,-0.121718 -0.07746,-0.232365 -0.116183,-0.348548 C 41.02213,10.340249 40.921503,10.114362 40.86722,9.8755187 40.845656,9.7806366 40.854846,9.680925 40.838174,9.5850622 40.789047,9.3025813 40.731452,9.0213884 40.6639,8.7427386 40.62348,8.5760047 40.557967,8.4159654 40.518672,8.2489627 40.480392,8.0862704 40.468223,7.9182454 40.431535,7.7551867 40.381018,7.5306641 40.307779,7.3116595 40.257261,7.0871369 40.144968,6.588056 40.058314,6.0800607 39.966805,5.5767635 39.923478,5.338465 39.843045,5.0103718 39.821577,4.7634855 c -0.01269,-0.1459189 -0.0274,-0.5907743 0,-0.7551867 0.0066,-0.039376 0.05727,-0.087955 0.02905,-0.1161826 -0.01369,-0.013692 -0.0391,-0.0038 -0.05809,0 -0.225358,0.045072 -0.439399,0.058091 -0.66805,0.058091" />
  <path
     style="fill:none;stroke:#ff9500;stroke-width:1.079;stroke-opacity:1"
     d="M 6.0124481,15.626556 C 5.4230065,14.558296 5.0731299,13.358719 4.9958506,12.141079 4.8929905,10.520378 5.2746593,8.8823776 6.0124481,7.4356846 6.1180828,7.2285509 6.2311338,7.0245281 6.3165412,6.8082675 6.4019486,6.592007 6.4594453,6.36087 6.4481328,6.1286307 6.4358691,5.8768638 6.3411414,5.6307628 6.186722,5.4315353 c -0.00675,-0.0087 -0.013629,-0.01736 -0.019084,-0.026924 -0.00546,-0.00956 -0.00947,-0.020168 -0.00996,-0.031168 -5.441e-4,-0.012186 0.00336,-0.024438 0.010419,-0.034386 0.00706,-0.00995 0.017173,-0.017603 0.028468,-0.022209 0.011295,-0.00461 0.023728,-0.00621 0.035883,-0.00519 0.012155,0.00103 0.024031,0.00464 0.034958,0.010064 0.021855,0.010842 0.039604,0.028616 0.054234,0.048139 0.01463,0.019523 0.026473,0.040953 0.039357,0.061669 0.092104,0.1480881 0.2380772,0.2584628 0.3995179,0.3244178 0.1614406,0.065955 0.3378819,0.089529 0.5122648,0.087591 0.3487656,-0.00388 0.6882663,-0.1066625 1.0342753,-0.1505975 0.7094588,-0.090085 1.4290858,0.069618 2.1033771,0.3078985 0.674292,0.2382808 1.318667,0.5550255 1.992059,0.7958359 0.334518,0.1196262 0.675478,0.2202531 1.016597,0.3195021 0.335162,0.097516 0.678856,0.1977401 0.958506,0.406639 0.02646,0.019764 0.05234,0.040502 0.08092,0.057045 0.02858,0.016543 0.06035,0.028873 0.09335,0.030092 0.0097,3.574e-4 0.01937,-2.41e-4 0.02905,0 0.03251,8.091e-4 0.06452,0.01124 0.09209,0.028489 0.02757,0.017249 0.05073,0.041175 0.06836,0.068497 0.03527,0.054643 0.04793,0.1214511 0.04684,0.1864775 -0.0022,0.1300529 -0.05583,0.254665 -0.06207,0.3845866 -0.0079,0.1642686 0.06102,0.3238119 0.153477,0.4598215 0.09245,0.1360096 0.208547,0.2540585 0.311253,0.3825022 0.441919,0.5526614 0.617002,1.2720309 0.697096,1.9751039 0.02977,0.261354 0.04815,0.524093 0.08714,0.784232 0.136454,0.910531 0.523698,1.780977 0.551867,2.701245 0.0055,0.178598 -0.0045,0.364405 -0.08714,0.522821 -0.08007,0.153465 -0.224198,0.26836 -0.385599,0.330911 -0.161401,0.06255 -0.339062,0.07553 -0.511198,0.05731 -0.344272,-0.03644 -0.662645,-0.191888 -0.99117,-0.301078 -1.174743,-0.390443 -2.453234,-0.184912 -3.688796,-0.26141 -0.390067,-0.02415 -0.794378,-0.07501 -1.1618262,0.05809 -0.1472134,0.05333 -0.2840968,0.135073 -0.4356846,0.174274 -0.1233677,0.0319 -0.2523672,0.03452 -0.3775934,0.05809 -0.1778558,0.03348 -0.3455615,0.108722 -0.5228216,0.145228 -0.1639223,0.03376 -0.3350071,0.0342 -0.4937759,0.08714 -0.049475,0.0165 -0.097136,0.03791 -0.1452282,0.05809 -0.1750549,0.07344 -0.3626521,0.131536 -0.5518672,0.116183 -0.078563,-0.0064 -0.1556343,-0.02531 -0.2340648,-0.03315 -0.078431,-0.0078 -0.1609886,-0.0037 -0.2306655,0.03315 -0.03088,0.01633 -0.05819,0.03854 -0.087137,0.05809 -0.072335,0.04886 -0.1564186,0.08145 -0.2434294,0.08845 -0.087011,0.007 -0.1768062,-0.01237 -0.2503465,-0.0594 -0.040795,-0.02609 -0.077444,-0.05809 -0.1161826,-0.08714 z"
     id="path11"
     inkscape:path-effect="#path-effect11"
     inkscape:original-d="M 6.0124481,15.626556 C 5.0770159,14.691124 5.2462899,14.919762 4.9958506,12.141079 4.7003867,8.8628361 4.8528995,9.3779285 6.0124481,7.4356846 6.2724215,7.0002292 6.5082862,6.6399346 6.4481328,6.1286307 6.4205496,5.8941738 6.2903672,5.6388257 6.186722,5.4315353 6.182941,5.4239733 6.1349706,5.3961497 6.1576763,5.373444 6.2075169,5.3236035 6.2918795,5.417712 6.3609959,5.4315353 9.0767085,5.9746778 5.6602538,5.2750302 8.3070539,5.6929461 9.6792305,5.9096055 11.114613,6.409349 12.40249,6.7966805 c 0.340156,0.1023028 0.679618,0.2071756 1.016597,0.3195021 0.715893,0.2386308 0.459901,0.1426716 0.958506,0.406639 0.0574,0.030388 0.114578,0.061553 0.174274,0.087137 0.0089,0.00381 0.02598,-0.00919 0.02905,0 0.07334,0.2200049 0.05595,0.4448668 0.145228,0.6680498 0.241939,0.6048481 0.166837,0.2244704 0.46473,0.8423237 0.431788,0.8955589 0.551501,1.1015369 0.697096,1.9751039 0.04324,0.259441 0.04558,0.524516 0.08714,0.784232 0.14489,0.905562 0.478428,1.783258 0.551867,2.701245 0.0055,0.06862 0.05132,0.4709 -0.08714,0.522821 -0.364089,0.136534 -1.603648,0.09741 -1.887967,0.08714 -1.233978,-0.0446 -2.454687,-0.220948 -3.688796,-0.26141 -0.376499,-0.01234 -0.787211,-0.01683 -1.1618262,0.05809 -0.1652358,0.03305 -0.2815199,0.135733 -0.4356846,0.174274 -0.1235431,0.03088 -0.2535093,0.02946 -0.3775934,0.05809 -0.7535214,0.17389 0.3797727,-0.08042 -0.5228216,0.145228 -0.1580032,0.0395 -0.3357727,0.04764 -0.4937759,0.08714 -0.050582,0.01265 -0.094927,0.04437 -0.1452282,0.05809 -0.085434,0.0233 -0.4626402,0.10981 -0.5518672,0.116183 -0.051164,0.0037 -0.3876686,-0.03853 -0.4647303,0 -0.031223,0.01561 -0.05402,0.04705 -0.087137,0.05809 -0.044172,0.01472 -0.443995,0.05891 -0.4937759,0.02905 -0.041511,-0.02491 -0.077455,-0.05809 -0.1161826,-0.08714 z" />
  <path
     style="fill:none;stroke:#95aabf;stroke-width:1.079"
     d="m 18.385892,6.0705394 c 0.388221,0.6871521 0.879484,1.3159696 1.452282,1.8589212 0.07473,0.070833 0.150937,0.1403041 0.232365,0.2033195 0.270944,0.2096768 0.594837,0.3435297 0.927769,0.4243472 0.332932,0.080818 0.676113,0.1104924 1.01829,0.12752 0.280598,0.013963 0.561536,0.019595 0.842323,0.029046 0.912527,0.030716 1.836814,0.1008728 2.730291,-0.087137 0.135664,-0.028547 0.270126,-0.062977 0.406639,-0.087137 0.277466,-0.049106 0.560559,-0.055322 0.842323,-0.058091 0.59115,-0.00581 1.183175,0.00304 1.771785,0.058091 0.689965,0.064531 1.372719,0.1922979 2.06224,0.2614108 0.318575,0.031932 0.638407,0.051315 0.958506,0.058091"
     id="path12"
     inkscape:path-effect="#path-effect12"
     inkscape:original-d="m 18.385892,6.0705394 c 0.868675,1.3190997 0.506955,0.9440883 1.452282,1.8589212 0.07396,0.071573 0.141406,0.1551646 0.232365,0.2033195 0.664796,0.3519507 1.171816,0.4523217 1.946059,0.5518672 0.278647,0.035826 0.561647,0.016842 0.842323,0.029046 0.915764,0.039816 1.814481,0.00926 2.730291,-0.087137 0.137861,-0.014512 0.269315,-0.068196 0.406639,-0.087137 0.278801,-0.038455 0.561019,-0.0493 0.842323,-0.058091 0.588766,-0.018399 1.186019,-0.0095 1.771785,0.058091 0.687439,0.07932 1.372981,0.1987509 2.06224,0.2614108 0.318774,0.028979 0.639524,0.031509 0.958506,0.058091" />
  <path
     style="fill:none;stroke:#95aabf;stroke-width:1.079"
     d="m 19.954357,11.53112 c 1.525206,0.976724 3.225781,1.678706 4.99585,2.062241 0.53695,0.116345 1.08019,0.203652 1.626556,0.261411"
     id="path13"
     inkscape:path-effect="#path-effect13"
     inkscape:original-d="m 19.954357,11.53112 c 2.223144,1.127682 2.316801,1.286727 4.99585,2.062241 0.207512,0.06007 1.130144,0.190495 1.626556,0.261411" />
  <path
     style="fill:none;stroke:#95aabf;stroke-width:1.079"
     d="m 25.618257,17.950207 c 1.4069,-0.113655 2.811246,-0.258932 4.211619,-0.435684 0.436084,-0.05504 0.871782,-0.113135 1.307053,-0.174274"
     id="path14"
     inkscape:path-effect="#path-effect14"
     inkscape:original-d="m 25.618257,17.950207 c 1.924744,0 0.574005,0.03297 4.211619,-0.435684 0.435937,-0.05616 0.871369,-0.116183 1.307053,-0.174274" />
  <path
     style="fill:none;stroke:#95aabf;stroke-width:1.079"
     d="m 19.257261,18.240664 c 1.146587,0.226768 2.316772,0.334035 3.485478,0.319502 0.871957,-0.01084 1.746649,-0.08912 2.614107,0 0.425938,0.04376 0.849988,0.127847 1.278009,0.116183 0.0097,-2.64e-4 0.01937,-5.76e-4 0.02904,0 0.03282,0.002 0.06473,0.01435 0.09122,0.03382 0.0265,0.01947 0.04764,0.04585 0.0623,0.07528 0.02933,0.05886 0.03234,0.128164 0.02,0.192755 -0.02468,0.129181 -0.105927,0.240456 -0.144469,0.3662 -0.03794,0.123783 -0.03276,0.258611 0.0033,0.382968 0.03601,0.124357 0.101798,0.238735 0.181903,0.340445 0.160208,0.20342 0.374583,0.355704 0.570029,0.52555 0.03106,0.02699 0.06187,0.05467 0.08714,0.08714 0.048,0.06168 0.07378,0.137661 0.116182,0.203319 0.07069,0.109463 0.184135,0.184787 0.302729,0.238773 0.118594,0.05399 0.244681,0.08958 0.365321,0.138821 0.145038,0.0592 0.283179,0.138455 0.435685,0.174274 0.123173,0.02893 0.25107,0.02838 0.377593,0.02904 0.290657,0.0015 0.581317,0.01025 0.871369,0.02905 0.542036,0.03513 1.085448,0.105407 1.626556,0.05809 0.13647,-0.01193 0.272286,-0.03134 0.406639,-0.05809"
     id="path15"
     inkscape:path-effect="#path-effect15"
     inkscape:original-d="m 19.257261,18.240664 c 1.208251,0.201375 1.224117,0.208651 3.485478,0.319502 0.870324,0.04266 1.743126,-0.026 2.614107,0 0.42757,0.01276 0.851929,0.07831 1.278009,0.116183 0.0096,8.57e-4 0.0267,-0.0094 0.02904,0 0.05349,0.213971 -0.04379,0.449547 0.02905,0.668049 0.127909,0.383729 0.533872,0.949538 0.755187,1.248963 0.02442,0.03303 0.06435,0.05296 0.08714,0.08714 0.110744,0.166116 -0.0943,0.01038 0.116182,0.203319 0.26229,0.240433 0.314278,0.231205 0.66805,0.377594 0.144531,0.05981 0.283939,0.136337 0.435685,0.174274 0.122467,0.03062 0.251831,0.01811 0.377593,0.02904 0.29399,0.02557 0.576872,0.01853 0.871369,0.02905 0.541618,0.01934 1.083596,0.09003 1.626556,0.05809 0.136687,-0.008 0.271093,-0.03873 0.406639,-0.05809" />
  <path
     style="fill:none;stroke:#95aabf;stroke-width:1.079"
     d="m 4.7344398,20.041494 c 1.568309,0.426567 3.1964482,0.632537 4.8215768,0.609958 0.4272358,-0.0059 0.8548954,-0.02763 1.2780084,-0.08714 0.333012,-0.04684 0.662527,-0.117009 0.987552,-0.203319 0.254618,-0.06761 0.506601,-0.145147 0.755186,-0.232365"
     id="path18"
     inkscape:path-effect="#path-effect18"
     inkscape:original-d="m 4.7344398,20.041494 c 1.5392598,0.576063 3.1946357,0.658767 4.8215768,0.609958 0.4267998,-0.0128 0.8544834,-0.03284 1.2780084,-0.08714 0.33336,-0.04274 0.662529,-0.117787 0.987552,-0.203319 0.919247,-0.241907 0.404714,-0.232365 0.755186,-0.232365" />
  <path
     style="fill:none;stroke:#95aabf;stroke-width:1.079"
     d="m 5.8381743,23.033195 c 2.5365945,0.456966 5.0489107,1.04867 7.5228217,1.771784 0.189362,0.05535 0.385209,0.112075 0.580913,0.08714 0.126363,-0.0161 0.248138,-0.06684 0.348547,-0.145228"
     id="path19"
     inkscape:path-effect="#path-effect19"
     inkscape:original-d="m 5.8381743,23.033195 c 1.3848349,0.321225 5.4033567,1.226779 7.5228217,1.771784 0.286595,0.0737 0.07582,0.161965 0.580913,0.08714 0.124505,-0.01844 0.232365,-0.09682 0.348547,-0.145228" />
  <path
     style="fill:none;stroke:#95aabf;stroke-width:1.079"
     d="m 6.0414938,26.896266 c 2.401132,0.05593 4.8042432,0.02686 7.2033192,-0.08714 0.263124,-0.0125 0.527941,-0.02627 0.784233,-0.08714 0.528302,-0.125478 0.987673,-0.441878 1.481327,-0.66805 0.510983,-0.234112 1.065519,-0.372746 1.626556,-0.406639"
     id="path20"
     inkscape:path-effect="#path-effect20"
     inkscape:original-d="m 6.0414938,26.896266 c 2.3991753,-0.123639 4.8033062,-0.0091 7.2033192,-0.08714 0.262881,-0.0085 0.529631,-0.02113 0.784233,-0.08714 0.69804,-0.180974 0.832517,-0.410974 1.481327,-0.66805 0.65013,-0.257598 0.956672,-0.282586 1.626556,-0.406639" />
  <path
     style="fill:none;stroke:#95aabf;stroke-width:1.079"
     d="m 22.481328,22.829876 c 0.170198,-0.134497 0.394396,-0.198553 0.609958,-0.174274 0.2076,0.02338 0.39973,0.124277 0.566374,0.25027 0.166645,0.125993 0.311962,0.277476 0.464986,0.419702 0.153024,0.142227 0.317024,0.277358 0.50807,0.361892 0.191045,0.08453 0.413658,0.114343 0.609948,0.04282 0.163112,-0.05943 0.298066,-0.183781 0.46473,-0.232365 0.08445,-0.02462 0.173445,-0.0286 0.261411,-0.02904 0.957122,-0.0048 1.891869,0.38905 2.846473,0.319502 0.75888,-0.05529 1.476414,-0.401008 2.236515,-0.435685 0.183788,-0.0084 0.367894,0.0016 0.551867,0 0.203421,-0.0018 0.407302,-0.01772 0.609958,0 0.195112,0.01706 0.386301,0.0651 0.580913,0.08714 0.163894,0.01856 0.329882,0.01856 0.493776,0"
     id="path21"
     inkscape:path-effect="#path-effect21"
     inkscape:original-d="m 22.481328,22.829876 c 0.07003,0.124309 0.4351,-0.293178 0.609958,-0.174274 1.150152,0.782103 -0.08416,0.614843 2.149378,1.074688 0.280474,0.05775 0.29469,-0.15949 0.46473,-0.232365 0.08495,-0.0364 0.171095,-0.03436 0.261411,-0.02904 0.975527,0.05738 1.85309,0.392545 2.846473,0.319502 0.774632,-0.05696 1.463909,-0.395021 2.236515,-0.435685 0.183701,-0.0097 0.367911,0 0.551867,0 0.203319,0 0.407181,-0.01484 0.609958,0 0.195282,0.01429 0.385913,0.06941 0.580913,0.08714 0.163916,0.0149 0.329184,0 0.493776,0" />
  <path
     style="fill:none;stroke:#95aabf;stroke-width:1.079"
     d="m 20.302905,26.838174 c 1.655212,0.06857 3.310858,0.126666 4.966805,0.174274 0.600215,0.01726 1.20128,0.03312 1.800829,0 0.611848,-0.0338 1.219639,-0.118494 1.829876,-0.174274 0.89761,-0.08205 1.800938,-0.101474 2.701245,-0.05809"
     id="path22"
     inkscape:path-effect="#path-effect22"
     inkscape:original-d="m 20.302905,26.838174 c 3.221685,0.238644 1.566316,0.174274 4.966805,0.174274 0.600276,0 1.201477,0.0333 1.800829,0 0.611776,-0.03399 1.217476,-0.154519 1.829876,-0.174274 0.898673,-0.02899 1.807962,0.06952 2.701245,-0.05809" />
</svg>
