<?xml version="1.0" encoding="UTF-8" standalone="no"?>
<svg
   width="35px"
   height="34px"
   viewBox="0 0 35 34"
   version="1.1"
   id="svg7"
   sodipodi:docname="ico_law.svg"
   inkscape:version="1.3.2 (091e20e, 2023-11-25, custom)"
   xmlns:inkscape="http://www.inkscape.org/namespaces/inkscape"
   xmlns:sodipodi="http://sodipodi.sourceforge.net/DTD/sodipodi-0.dtd"
   xmlns="http://www.w3.org/2000/svg"
   xmlns:svg="http://www.w3.org/2000/svg">
  <sodipodi:namedview
     id="namedview7"
     pagecolor="#ffffff"
     bordercolor="#000000"
     borderopacity="0.25"
     inkscape:showpageshadow="2"
     inkscape:pageopacity="0.0"
     inkscape:pagecheckerboard="0"
     inkscape:deskcolor="#d1d1d1"
     inkscape:zoom="34.5"
     inkscape:cx="17.507246"
     inkscape:cy="17"
     inkscape:window-width="2560"
     inkscape:window-height="1369"
     inkscape:window-x="-8"
     inkscape:window-y="-8"
     inkscape:window-maximized="1"
     inkscape:current-layer="svg7" />
  <!-- Generator: Sketch 49 (51002) - http://www.bohemiancoding.com/sketch -->
  <title
     id="title1">organizations icon</title>
  <desc
     id="desc1">Created with Sketch.</desc>
  <defs
     id="defs1">
    <inkscape:path-effect
       effect="spiro"
       id="path-effect19"
       is_visible="true"
       lpeversion="1" />
    <inkscape:path-effect
       effect="spiro"
       id="path-effect18"
       is_visible="true"
       lpeversion="1" />
    <inkscape:path-effect
       effect="spiro"
       id="path-effect17"
       is_visible="true"
       lpeversion="1" />
    <inkscape:path-effect
       effect="spiro"
       id="path-effect16"
       is_visible="true"
       lpeversion="1" />
    <inkscape:path-effect
       effect="spiro"
       id="path-effect15"
       is_visible="true"
       lpeversion="1" />
    <inkscape:path-effect
       effect="spiro"
       id="path-effect14"
       is_visible="true"
       lpeversion="1" />
    <inkscape:path-effect
       effect="spiro"
       id="path-effect13"
       is_visible="true"
       lpeversion="1" />
    <inkscape:path-effect
       effect="spiro"
       id="path-effect12"
       is_visible="true"
       lpeversion="1" />
    <inkscape:path-effect
       effect="spiro"
       id="path-effect11"
       is_visible="true"
       lpeversion="1" />
    <inkscape:path-effect
       effect="spiro"
       id="path-effect10"
       is_visible="true"
       lpeversion="1" />
    <inkscape:path-effect
       effect="spiro"
       id="path-effect9"
       is_visible="true"
       lpeversion="1" />
    <inkscape:path-effect
       effect="spiro"
       id="path-effect8"
       is_visible="true"
       lpeversion="1" />
  </defs>
  <path
     style="fill:none;stroke:#1c3c55;stroke-width:1.079;stroke-opacity:1"
     d="m 5.826087,8.8405797 c -0.1062223,-0.0043 -0.2126183,-0.0043 -0.3188406,0 -0.1740536,0.00704 -0.3475762,0.025604 -0.5217392,0.028986 C 4.5124984,8.8787505 4.0454521,8.7761245 3.5816218,8.6829413 3.1177915,8.5897581 2.6448102,8.5051446 2.173913,8.5507246 1.7043202,8.5961783 1.2523734,8.7699274 0.78122608,8.7944954 0.54565242,8.8067794 0.30444988,8.7801701 0.08862515,8.684957 -0.12719957,8.5897439 -0.31593324,8.4210048 -0.4057971,8.2028986 -0.48447781,8.0119347 -0.48360872,7.7948864 -0.43478261,7.5942029 -0.37880783,7.3641371 -0.26299904,7.1524002 -0.1263894,6.9590062 0.01022025,6.7656121 0.16809755,6.5883895 0.31884058,6.4057971 0.46819115,6.2248914 0.61104154,6.0381057 0.77353917,5.8689106 0.9360368,5.6997155 1.1201847,5.5472558 1.3333333,5.4492754 1.5405086,5.3540407 1.7706807,5.3129071 1.9986536,5.3173375 c 0.2279728,0.00443 0.4538749,0.053605 0.6680131,0.1319379 0.1585215,0.057988 0.3110394,0.1310261 0.4637681,0.2028985 L 3.6231884,5.884058 c 0.1335754,0.080204 0.2688832,0.1575226 0.4057971,0.231884 0.380763,0.2068021 0.7752364,0.3912072 1.1884058,0.5217392 0.3761972,0.1188514 0.7675524,0.1930153 1.1304348,0.347826 0.2401113,0.1024349 0.4653907,0.2395614 0.6666667,0.4057971 -0.00339,0.053972 0.017404,0.1090149 0.055644,0.1472546 0.03824,0.03824 0.093282,0.059039 0.1472545,0.055644 0.019402,-0.00122 0.039281,-0.00535 0.057971,0 0.010552,0.00302 0.020174,0.00901 0.027887,0.016818 0.00771,0.00781 0.01354,0.017397 0.017372,0.027681 0.00766,0.020569 0.00729,0.043462 0.00254,0.064893 -0.0095,0.042862 -0.03543,0.080369 -0.047799,0.1224915 -0.017138,0.058364 -0.00899,0.1210083 -0.017169,0.181284 -0.00409,0.030138 -0.011972,0.059809 -0.02419,0.087661 -0.012217,0.027852 -0.028728,0.053575 -0.045599,0.078881 L 7.1304343,8.26087 c 0.00809,-8.427e-4 0.016488,0.00189 0.02253,0.00734 0.00604,0.00545 0.00963,0.013514 0.00963,0.021648 0,0.00813 -0.00359,0.016203 -0.00963,0.021648 -0.00604,0.00545 -0.01444,0.00818 -0.02253,0.00734 -0.005,-5.206e-4 -0.00978,-0.00232 -0.014743,-0.00308 -0.00248,-3.809e-4 -0.00503,-4.985e-4 -0.0075,-6.07e-5 -0.00247,4.378e-4 -0.00488,0.00146 -0.00674,0.00314 -0.0019,0.00172 -0.00315,0.00408 -0.00378,0.00656 -6.237e-4,0.00248 -6.379e-4,0.00509 -2.981e-4,0.00763 6.797e-4,0.00508 0.00273,0.00985 0.00408,0.014794 0.0032,0.01175 0.00229,0.024463 -0.00186,0.03591 -0.00415,0.011447 -0.011452,0.021638 -0.020468,0.029822 -0.018033,0.016367 -0.042232,0.024427 -0.066318,0.028017 -0.024087,0.00359 -0.048572,0.00313 -0.072867,0.00482 -0.024294,0.00168 -0.048999,0.00569 -0.070366,0.017378 -0.018078,0.00989 -0.032886,0.024789 -0.046342,0.040394 -0.013456,0.015605 -0.025877,0.032163 -0.040615,0.046563 -0.027028,0.026408 -0.061208,0.044793 -0.097152,0.056451 -0.035944,0.011659 -0.073711,0.016825 -0.1114285,0.019127 -0.075435,0.0046 -0.15182,-0.002 -0.2262023,0.011379 -0.060267,0.010837 -0.1173677,0.034473 -0.1739131,0.057971 -0.1159873,0.0482 -0.2319294,0.096509 -0.347826,0.1449275 z"
     id="path8"
     inkscape:path-effect="#path-effect8"
     inkscape:original-d="m 5.826087,8.8405797 c -0.1062802,0 -0.2126236,-0.00366 -0.3188406,0 -0.1740778,0.006 -0.3475991,0.032771 -0.5217392,0.028986 C 4.0397562,8.8490054 3.1109317,8.6534116 2.173913,8.5507246 1.3264459,8.4578515 0.41108892,8.4946436 -0.4057971,8.2028986 -0.61001538,8.1299634 -0.49028948,7.7052166 -0.43478261,7.5942029 -0.22741794,7.1794736 0.07463885,6.7992332 0.31884058,6.4057971 0.56893402,6.0028688 0.81088902,5.5317666 1.3333333,5.4492754 c 0.4195284,-0.066241 0.9197121,-0.1063598 1.3333334,0 0.1634203,0.042022 0.3101558,0.1330748 0.4637681,0.2028985 0.1642512,0.077295 0.3285024,0.1545894 0.4927536,0.2318841 0.1352657,0.077295 0.2649495,0.1653015 0.4057971,0.231884 0.391129,0.1848974 0.7867187,0.3610643 1.1884058,0.5217392 0.3692079,0.1476831 0.7675491,0.1890636 1.1304348,0.347826 0.2634504,0.1152596 0.4103655,0.2263864 0.6666667,0.4057971 0.1441236,-0.00622 0.1263807,0.1455102 0.2028985,0.2028986 0.015459,0.011594 0.040687,-0.00864 0.057971,0 0.017366,0.00868 0,0.214375 0,0.2318841 0,0.2021028 0.030391,0.1835397 -0.086957,0.347826 -0.019324,0.028986 -0.038647,0.057971 -0.057971,0.086957 0,0.019324 0.00864,0.040687 0,0.057971 -0.00432,0.00864 -0.022154,-0.00683 -0.028986,0 -0.00683,0.00683 0.00683,0.022153 0,0.028986 C 7.0782993,8.370976 6.8709109,8.4629273 6.8695642,8.463769 6.8348032,8.485495 6.8167152,8.527987 6.7826072,8.550726 6.6503559,8.638894 6.491025,8.613816 6.3478246,8.637683 6.2875496,8.647729 6.2334535,8.681914 6.1739115,8.695654 5.8689746,8.766024 6.0613023,8.652408 5.8260855,8.8405815 Z" />
  <path
     style="fill:none;stroke:#1c3c55;stroke-width:1.079;stroke-opacity:1"
     d="m 3.3333333,3.2753623 c -0.047704,0.054275 -0.081223,0.1209103 -0.096364,0.1915659 -0.01514,0.070656 -0.011868,0.1451747 0.00941,0.2142312 0.019141,0.062128 0.05222,0.118961 0.086956,0.1739131 0.205019,0.3243409 0.4834379,0.6084317 0.8254591,0.7823609 C 4.5008135,4.8113625 4.9091287,4.8680905 5.2753623,4.7536232 5.3918914,4.7172017 5.5049206,4.6629821 5.5942029,4.5797101 5.7075116,4.4740292 5.7766082,4.3254481 5.7983346,4.172036 5.8200611,4.0186238 5.7963523,3.8608009 5.7438571,3.7150217 5.6388665,3.4234634 5.4260487,3.1856317 5.2173913,2.9565217 5.1621414,2.8958563 5.106611,2.8350215 5.0434783,2.7826087 4.8719071,2.6401703 4.6530906,2.5672029 4.4347826,2.5217391 4.1779545,2.4682533 3.9140795,2.448707 3.6521739,2.4637681"
     id="path9"
     inkscape:path-effect="#path-effect9"
     inkscape:original-d="m 3.3333333,3.2753623 c -0.052531,0.1400822 -0.1254261,0.2519188 -0.086956,0.4057971 0.01572,0.062878 0.0548,0.1176391 0.086956,0.1739131 0.336599,0.5890481 1.2592166,1.0897382 1.942029,0.8985507 C 5.3919411,4.7209811 5.498036,4.6532495 5.5942029,4.5797101 6.1719211,4.1379257 5.576925,3.3160555 5.2173913,2.9565217 5.1594203,2.8985507 5.111036,2.8290547 5.0434783,2.7826087 4.9418223,2.7127202 4.5522227,2.5430919 4.4347826,2.5217391 4.1545663,2.4707907 3.9175461,2.4637681 3.6521739,2.4637681" />
  <path
     style="fill:none;stroke:#1c3c55;stroke-width:1.079;stroke-opacity:1"
     d="M 14,9.7391304 C 13.967621,9.3781147 13.909453,9.0194143 13.826087,8.6666667 13.743068,8.3153869 13.634894,7.9689302 13.586806,7.6111911 c -0.04809,-0.3577391 -0.0323,-0.7347887 0.123339,-1.0604665 0.17188,-0.3596608 0.502723,-0.6266419 0.869565,-0.7826087 0.593872,-0.2524911 1.267064,-0.2337502 1.906531,-0.147049 0.639468,0.086701 1.274246,0.237187 1.919556,0.234006 0.477945,-0.00236 0.964281,-0.088463 1.428681,0.024537 0.232201,0.0565 0.456098,0.1653493 0.621099,0.3382187 0.0825,0.086435 0.14946,0.1882295 0.192119,0.2998428 0.04266,0.1116133 0.06068,0.2330858 0.04796,0.3518942 -0.01476,0.1378308 -0.07061,0.2697314 -0.151357,0.3824016 -0.08075,0.1126701 -0.185811,0.2066584 -0.301406,0.2831631 -0.23119,0.1530094 -0.500491,0.2357273 -0.764628,0.3199426 -0.585245,0.1865945 -1.165159,0.3898691 -1.739131,0.6086956 -0.338649,0.1291098 -0.681893,0.2651809 -1.043478,0.2898551 -0.310651,0.021199 -0.620021,-0.040947 -0.927805,-0.088093 -0.307784,-0.047146 -0.626369,-0.07895 -0.927267,0.00114 -0.16818,0.044762 -0.32705,0.1241975 -0.463768,0.231884"
     id="path10"
     inkscape:path-effect="#path-effect10"
     inkscape:original-d="M 14,9.7391304 C 13.953427,9.3845338 13.881284,9.0229383 13.826087,8.6666667 13.728938,8.0396114 13.432117,7.2179924 13.710145,6.5507246 13.827071,6.2701013 14.325786,5.8540595 14.57971,5.7681159 c 1.344578,-0.4550877 2.498709,-0.2922942 3.826087,0.086957 0.261568,0.074734 2.065463,0.5977647 2.289855,1.0144927 0.163802,0.3042037 -0.929935,0.8577489 -1.217391,0.9855073 -0.564457,0.2508697 -1.158325,0.4037056 -1.739131,0.6086956 -0.459181,0.162064 -0.527584,0.2382657 -1.043478,0.2898551 -0.623145,0.062314 -1.231598,-0.1247428 -1.855072,-0.086956 -0.215246,0.013045 -0.320081,0.231884 -0.463768,0.231884" />
  <path
     style="fill:none;stroke:#1c3c55;stroke-width:1.079;stroke-opacity:1"
     d="m 15.362319,1.3913043 c -0.184944,0.1528156 -0.315125,0.3705741 -0.362176,0.6058258 -0.04705,0.2352516 -0.01064,0.486329 0.101306,0.6985221 0.105033,0.1990949 0.273296,0.3612691 0.467024,0.4759001 0.193728,0.114631 0.412291,0.1833255 0.634426,0.219752 0.519492,0.085188 1.051093,-0.00278 1.565217,-0.115942 0.100372,-0.022093 0.201442,-0.045461 0.294402,-0.089292 0.09296,-0.043831 0.178345,-0.1102163 0.227337,-0.2005627 0.03578,-0.065987 0.05066,-0.1423673 0.04734,-0.2173587 -0.0033,-0.074991 -0.02437,-0.148621 -0.05659,-0.2164226 C 18.21618,2.4161226 18.109412,2.3056991 18,2.2028986 17.687264,1.9090598 17.331345,1.6524478 16.927536,1.5072464 16.631599,1.4008334 16.307965,1.3565703 16,1.4202899 c -0.248615,0.05144 -0.482252,0.173337 -0.666667,0.347826"
     id="path11"
     inkscape:path-effect="#path-effect11"
     inkscape:original-d="m 15.362319,1.3913043 c -0.423988,0.2356564 -0.56942,0.9058043 -0.26087,1.3043479 0.291386,0.3763728 0.641346,0.6036315 1.10145,0.6956521 0.452797,0.09056 1.126247,0.042087 1.565217,-0.115942 0.09006,-0.03242 0.440588,-0.1816542 0.521739,-0.2898551 C 18.489334,2.7195348 18.160878,2.3637768 18,2.2028986 17.777519,1.9804171 17.223642,1.6059484 16.927536,1.5072464 16.731561,1.4419212 16.219678,1.3796087 16,1.4202899 c -0.269379,0.049885 -0.435951,0.232468 -0.666667,0.347826" />
  <path
     style="fill:none;stroke:#1c3c55;stroke-width:1.079;stroke-opacity:1"
     d="m 27.014493,5.942029 c -0.475213,0.2942371 -0.877005,0.7060734 -1.159421,1.1884058 -0.266162,0.454572 -0.427346,0.9835535 -0.378232,1.5080205 0.02456,0.2622334 0.101859,0.5205166 0.234599,0.7480019 0.13274,0.2274852 0.321595,0.4234344 0.549431,0.5555718 0.389976,0.226173 0.868525,0.253494 1.313292,0.179893 0.444767,-0.0736 0.86776,-0.2401148 1.295403,-0.3827916 0.349633,-0.1166499 0.706353,-0.2182891 1.072464,-0.2608695 0.396879,-0.046159 0.800619,-0.022434 1.194792,-0.087792 0.197086,-0.032679 0.391892,-0.088125 0.568282,-0.1819189 0.176391,-0.093794 0.334115,-0.2274378 0.439825,-0.3969557 0.09105,-0.1460037 0.141759,-0.3167011 0.14641,-0.488704 C 32.29599,8.1508873 32.254704,7.9780036 32.173908,7.826087 32.131093,7.7455841 32.077682,7.6712876 32.028981,7.5942029 31.987364,7.5283301 31.949146,7.4603507 31.913038,7.3913043 31.785112,7.1466844 31.683224,6.8879679 31.536201,6.6543265 31.389179,6.4206851 31.187746,6.208096 30.927531,6.115942 c -0.151782,-0.053753 -0.315945,-0.06385 -0.47672,-0.054987 -0.160775,0.00886 -0.319896,0.036085 -0.479802,0.054987 -0.598546,0.070751 -1.212906,0.025656 -1.797101,0.1739131 -0.07724,0.019602 -0.153705,0.042541 -0.231884,0.057971 -0.237567,0.046889 -0.482558,0.023163 -0.724638,0.028986 -0.116378,0.0028 -0.23259,0.012484 -0.347826,0.028986"
     id="path12"
     inkscape:path-effect="#path-effect12"
     inkscape:original-d="m 27.014493,5.942029 c -0.308897,0.4602082 -0.873659,0.7144595 -1.159421,1.1884058 -0.535192,0.8876358 -0.834789,2.3558686 0.405798,2.8115942 0.840783,0.308859 1.795001,0.00356 2.608695,-0.2028986 0.356612,-0.090484 0.713849,-0.1786868 1.072464,-0.2608695 0.383398,-0.087862 1.700896,-0.1885692 2.202899,-0.6666667 0.230168,-0.2192077 0.06723,-0.8325056 0.02898,-0.9855072 C 32.151798,7.737659 32.075878,7.672363 32.028981,7.5942029 31.988901,7.5274079 31.951231,7.4591968 31.913038,7.3913043 31.664542,6.9495325 31.43277,6.3102646 30.927531,6.115942 c -0.219604,-0.084463 -0.761521,-0.017727 -0.956522,0 -0.595935,0.054176 -1.205703,0.080534 -1.797101,0.1739131 -0.0787,0.012426 -0.153575,0.043288 -0.231884,0.057971 -0.243491,0.045655 -0.480483,0.011546 -0.724638,0.028986 -0.119358,0.00853 -0.228459,0.028986 -0.347826,0.028986" />
  <path
     style="fill:none;stroke:#1c3c55;stroke-width:1.079;stroke-opacity:1"
     d="m 27.217391,2.2898551 c -0.05023,0.025613 -0.09869,0.05469 -0.144927,0.086956 -0.268358,0.1872689 -0.456335,0.4857573 -0.50992,0.8085802 -0.05358,0.3228228 0.02775,0.6657851 0.220065,0.9305502 0.229696,0.3162275 0.599134,0.5080896 0.979089,0.5997131 0.379954,0.091624 0.775002,0.09318 1.165838,0.095939 0.155192,0.0011 0.311764,0.00233 0.463768,-0.028986 0.201266,-0.041464 0.391304,-0.1415925 0.533353,-0.2900823 0.14205,-0.1484897 0.234349,-0.3455449 0.249256,-0.5504964 0.01017,-0.1398545 -0.01503,-0.2809956 -0.06285,-0.4128131 C 30.06324,3.3973984 29.993202,3.2744737 29.913043,3.1594203 29.672591,2.8142962 29.339669,2.5379943 28.967568,2.3418581 28.595468,2.145722 28.18486,2.0280464 27.768116,1.9710145 27.178954,1.890387 26.573588,1.9300832 26,2.0869565"
     id="path13"
     inkscape:path-effect="#path-effect13"
     inkscape:original-d="m 27.217391,2.2898551 c -0.04831,0.028986 -0.109733,0.042964 -0.144927,0.086956 -0.25822,0.3227751 -0.694808,1.384797 -0.289855,1.7391304 0.584155,0.5111362 1.397878,0.6616954 2.144927,0.6956522 0.154731,0.00703 0.315837,0.016924 0.463768,-0.028986 C 29.734886,4.6759799 30.093745,4.2947664 30.173913,3.942029 30.244838,3.629957 30.107653,3.4085202 29.913043,3.1594203 29.390283,2.4902862 28.598619,2.0896578 27.768116,1.9710145 27.398034,1.9181457 26.2893,1.7976568 26,2.0869565" />
  <path
     style="fill:none;stroke:#95aabf;stroke-width:1.079;stroke-opacity:1"
     d="m 4.5217391,9.942029 c 0.1926028,0.212857 0.3958384,0.416093 0.6086957,0.608696 0.2137959,0.193452 0.4372214,0.376118 0.6666666,0.550724 0.8084364,0.615215 1.6908903,1.129681 2.6086957,1.565218 0.1374091,0.06521 0.276781,0.129344 0.3985361,0.220497 0.1217551,0.09115 0.2262766,0.212989 0.2681306,0.359213 0.024144,0.08435 0.026641,0.173161 0.028986,0.260869 0.00785,0.293628 0.016864,0.593048 0.115942,0.869566 0.046692,0.130314 0.1124912,0.252758 0.173913,0.376811 0.2636168,0.532426 0.4487162,1.099482 0.6666672,1.652174 0.108861,0.276055 0.226625,0.550651 0.289855,0.84058 0.0184,0.08438 0.03221,0.170147 0.0607,0.251675 0.02849,0.08153 0.07333,0.159982 0.142197,0.212093 0.0319,0.02414 0.06835,0.0422 0.09819,0.06885 0.01492,0.01333 0.02814,0.02886 0.03694,0.04682 0.0088,0.01796 0.013,0.0385 0.0098,0.05824 -0.0016,0.0099 -0.005,0.01947 -0.0063,0.02942 -6.47e-4,0.005 -7.54e-4,0.01006 1.71e-4,0.01499 9.26e-4,0.0049 0.0029,0.0097 0.0062,0.01356 0.0052,0.0062 0.0132,0.0094 0.0212,0.01066 0.008,0.0012 0.01613,6.16e-4 0.02421,3.6e-4 0.0081,-2.55e-4 0.01633,-1.37e-4 0.02399,0.0024 0.0038,0.0013 0.0075,0.0032 0.01057,0.0058 0.0031,0.0026 0.0056,0.0059 0.007,0.0097 0.0017,0.0046 0.0017,0.0096 0.0013,0.01444 -4.18e-4,0.0049 -0.0013,0.0097 -0.0013,0.01455 -1.01e-4,0.01145 0.0045,0.02286 0.0126,0.03099 0.0081,0.0081 0.01943,0.01287 0.03088,0.01287 0.01145,0 0.02282,-0.0047 0.03088,-0.01287 0.0081,-0.0081 0.0127,-0.01955 0.0126,-0.03099"
     id="path14"
     inkscape:path-effect="#path-effect14"
     inkscape:original-d="m 4.5217391,9.942029 c 0.271178,0.117153 0.4034429,0.415882 0.6086957,0.608696 0.2100833,0.197351 0.4382005,0.374981 0.6666666,0.550724 1.1929339,0.917642 0.9050712,0.606929 2.6086957,1.565218 0.3445099,0.193786 0.5647821,0.233302 0.6666667,0.57971 0.024687,0.08394 0.019826,0.173858 0.028986,0.260869 0.031761,0.30173 0.00726,0.579746 0.115942,0.869566 0.048573,0.129528 0.1204961,0.249204 0.173913,0.376811 0.2279646,0.544582 0.451155,1.101422 0.6666672,1.652174 0.235797,0.602592 0.05751,0.213241 0.289855,0.84058 0.05861,0.158232 0.104822,0.326461 0.202899,0.463768 0.04386,0.06141 0.104933,0.109922 0.144927,0.173913 0.01024,0.01639 -0.0086,0.04069 0,0.05797 0.01366,0.02733 0.06535,0.0074 0.08696,0.02898 0.0068,0.0068 -0.0068,0.02215 0,0.02899 0.0205,0.0205 0.05797,0 0.08696,0" />
  <path
     style="fill:none;stroke:#95aabf;stroke-width:1.079;stroke-opacity:1"
     d="m 17.826087,9.5362319 c -0.09176,0.026322 -0.179841,0.065467 -0.26087,0.115942 -0.167016,0.1040386 -0.302218,0.2555163 -0.398194,0.4272911 -0.09598,0.171776 -0.153651,0.363429 -0.181516,0.558216 -0.04526,0.316413 -0.01326,0.640031 -0.05797,0.956522 -0.01644,0.116398 -0.04319,0.231205 -0.05797,0.347826 -0.01584,0.124994 -0.01784,0.251312 -0.02899,0.376812 -0.04263,0.479875 -0.218048,0.940431 -0.26087,1.420289 -0.03179,0.35625 0.01024,0.714945 0,1.072464 -0.0067,0.23395 -0.03587,0.467251 -0.08696,0.695652"
     id="path15"
     inkscape:path-effect="#path-effect15"
     inkscape:original-d="m 17.826087,9.5362319 c -0.08696,0.038647 -0.184743,0.058847 -0.26087,0.115942 -0.273463,0.2050975 -0.502965,0.6689341 -0.57971,0.9855071 -0.114038,0.470409 -0.02479,0.508569 -0.05797,0.956522 -0.0087,0.11722 -0.04397,0.231122 -0.05797,0.347826 -0.01501,0.125078 -0.01117,0.252103 -0.02899,0.376812 -0.07217,0.505197 -0.236975,0.894604 -0.26087,1.420289 -0.01623,0.35712 0.03389,0.716587 0,1.072464 -0.01079,0.113259 -0.174952,0.607657 -0.08696,0.695652" />
  <path
     style="fill:none;stroke:#95aabf;stroke-width:1.079;stroke-opacity:1"
     d="m 23.797101,17.362319 c -0.03477,-0.05483 -0.06395,-0.113202 -0.08696,-0.173913 -0.07346,-0.193843 -0.08219,-0.409007 -0.04239,-0.612448 0.0398,-0.203442 0.12658,-0.395749 0.237474,-0.570891 0.221787,-0.350284 0.535462,-0.630511 0.819414,-0.932603 0.823921,-0.876556 1.406319,-1.948996 2.144927,-2.898551 0.48325,-0.621265 1.033133,-1.189247 1.623189,-1.710145 0.237133,-0.209339 0.486361,-0.41788 0.637681,-0.6956521 0.07798,-0.1431409 0.127527,-0.3016968 0.144927,-0.4637681"
     id="path16"
     inkscape:path-effect="#path-effect16"
     inkscape:original-d="m 23.797101,17.362319 c -0.02899,-0.05797 -0.10671,-0.112183 -0.08696,-0.173913 0.208449,-0.651402 0.651238,-1.504145 1.014493,-2.115942 0.620827,-1.045604 1.323114,-2.002027 2.144927,-2.898551 0.53108,-0.57936 1.085651,-1.136771 1.623189,-1.710145 0.215145,-0.229488 0.456276,-0.438661 0.637681,-0.6956521 0.100327,-0.1421297 0.09271,-0.3071273 0.144927,-0.4637681" />
  <path
     style="fill:none;stroke:#95aabf;stroke-width:1.079;stroke-opacity:1"
     d="M 17.304348,32.666667 C 16.779429,32.544087 16.257485,32.408768 15.73913,32.26087 14.816108,31.997512 13.903985,31.694071 13.014493,31.333333 12.27094,31.031781 11.527659,30.679508 10.956522,30.115942 10.437018,29.603325 10.089522,28.945109 9.7681159,28.289855 9.5856081,27.917775 9.4079733,27.540746 9.2948083,27.142064 9.1816432,26.743383 9.1348282,26.319166 9.2173913,25.913043 c 0.072181,-0.355054 0.2397942,-0.68319 0.4229849,-0.995783 0.1831907,-0.312593 0.3844298,-0.616033 0.5335368,-0.946246 0.117164,-0.259472 0.200992,-0.533263 0.26087,-0.811594 0.104236,-0.48452 0.136172,-0.985105 0.08696,-1.478261 -0.0299,-0.299653 -0.08959,-0.59742 -0.08696,-0.89855 0.0023,-0.266574 0.05396,-0.532025 0.144927,-0.782609 0.04175,-0.115015 0.09197,-0.227839 0.115942,-0.347826 0.043,-0.215208 -0.0011,-0.436804 -0.01503,-0.655821 -0.007,-0.109508 -0.0063,-0.220399 0.01646,-0.327745 0.02276,-0.107345 0.06869,-0.211522 0.143498,-0.291796 0.08532,-0.09155 0.203346,-0.147137 0.324449,-0.178673 0.121102,-0.03154 0.246665,-0.04093 0.371203,-0.05321 0.866541,-0.08542 1.713663,-0.315503 2.57971,-0.405798 0.481412,-0.05019 0.966186,-0.05692 1.449275,-0.08696 0.396438,-0.02465 0.79181,-0.065 1.188406,-0.08696 0.637276,-0.03529 1.276912,-0.023 1.913044,0.02899 0.145846,0.01192 0.291986,0.026 0.434782,0.05797 0.520361,0.116516 0.957944,0.459438 1.449276,0.666667 0.269895,0.113834 0.555333,0.186315 0.829331,0.289884 0.273998,0.103568 0.542914,0.243369 0.735886,0.463739 0.225743,0.257793 0.326132,0.599126 0.492754,0.89855 0.140892,0.253187 0.330864,0.477946 0.550724,0.666667 0.104206,0.08945 0.215062,0.170929 0.318841,0.26087 0.320362,0.277645 0.568929,0.631965 0.898551,0.89855 0.175724,0.142119 0.371949,0.257158 0.548638,0.398074 0.17669,0.140916 0.337484,0.314706 0.407883,0.529463 0.0517,0.157719 0.05147,0.326903 0.05797,0.492753 0.0098,0.251277 0.03628,0.502259 0.02899,0.753623 -0.01675,0.576981 -0.210112,1.135158 -0.26087,1.710145 -0.02556,0.289496 -0.01484,0.582163 -0.05797,0.869566 -0.0823,0.548374 -0.354665,1.046518 -0.550724,1.565217 -0.08551,0.226219 -0.156991,0.45821 -0.202899,0.695652 -0.02986,0.154425 -0.04887,0.310941 -0.08393,0.464269 -0.03506,0.153327 -0.08719,0.305116 -0.176943,0.434282 -0.05867,0.08444 -0.132067,0.157355 -0.202899,0.231884 -0.08956,0.09423 -0.175591,0.191738 -0.26087,0.289855 -0.171308,0.197097 -0.339854,0.396999 -0.492753,0.608696 -0.05659,0.07835 -0.111113,0.158416 -0.173913,0.231884 -0.178896,0.209286 -0.417229,0.3568 -0.637681,0.521739 -0.189674,0.141911 -0.368378,0.298731 -0.565412,0.430232 -0.197035,0.131501 -0.416642,0.23838 -0.65198,0.26542 -0.182525,0.02097 -0.367121,-0.0067 -0.550724,0 -0.164846,0.006 -0.332604,0.03953 -0.492754,0 -0.06321,-0.0156 -0.123093,-0.04219 -0.184925,-0.06257 -0.06183,-0.02038 -0.127594,-0.03464 -0.191887,-0.02439 -0.03481,0.0055 -0.06825,0.01815 -0.103158,0.02301 -0.01746,0.0024 -0.03533,0.0029 -0.05263,-4.74e-4 -0.0173,-0.0034 -0.03405,-0.0107 -0.04711,-0.02253 -0.01014,-0.0092 -0.01794,-0.02091 -0.02899,-0.02899 -0.01416,-0.01035 -0.03248,-0.0137 -0.04998,-0.01266 -0.01751,0.001 -0.03449,0.0061 -0.05125,0.01128 -0.01676,0.0052 -0.03365,0.01047 -0.05112,0.01199 -0.01747,0.0015 -0.03584,-0.001 -0.05054,-0.0106 -0.0115,-0.0075 -0.02,-0.01862 -0.02899,-0.02898 -0.04306,-0.04959 -0.101954,-0.08433 -0.165017,-0.102692 -0.06306,-0.01836 -0.130161,-0.02081 -0.19524,-0.01193 -0.130157,0.01776 -0.249902,0.07917 -0.36438,0.143601 -0.08131,0.04576 -0.161844,0.09371 -0.248447,0.128432 -0.0866,0.03472 -0.180576,0.05591 -0.273293,0.04548 -0.105444,-0.01186 -0.202634,-0.0635 -0.307194,-0.08157 -0.05228,-0.009 -0.107104,-0.0093 -0.157292,0.0079 -0.02509,0.0086 -0.0488,0.02156 -0.06885,0.03892 -0.02006,0.01736 -0.0364,0.03919 -0.04637,0.06377 -0.01489,0.03672 -0.01489,0.07923 0,0.115942 l -0.05797,0.05797 -0.260869,0.260869"
     id="path17"
     inkscape:path-effect="#path-effect17"
     inkscape:original-d="M 17.304348,32.666667 C 16.160959,32.237896 17.748238,32.806553 15.73913,32.26087 15.298515,32.141196 13.346873,31.464824 13.014493,31.333333 12.11316,30.976762 11.65077,30.784477 10.956522,30.115942 10.363304,29.544695 10.108031,29.035475 9.7681159,28.289855 9.4463289,27.584 9.0897002,26.715673 9.2173913,25.913043 c 0.1071224,-0.67334 0.7116512,-1.424302 0.9565217,-1.942029 0.121497,-0.256879 0.202329,-0.533526 0.26087,-0.811594 0.08006,-0.380279 0.108666,-1.065776 0.08696,-1.478261 -0.01959,-0.372206 -0.100188,-0.528059 -0.08696,-0.89855 0.005,-0.139177 0.111936,-0.660069 0.144927,-0.782609 0.03177,-0.118011 0.09825,-0.2269 0.115942,-0.347826 0.01691,-0.115567 0.0078,-1.092542 0.144928,-1.275362 0.142226,-0.189635 0.501439,-0.193042 0.695652,-0.231884 0.856902,-0.171381 1.708144,-0.302586 2.57971,-0.405798 0.671977,-0.07958 0.790258,-0.04398 1.449275,-0.08696 0.939248,-0.08539 0.322485,-0.03747 1.188406,-0.08696 0.642908,-0.03674 1.272666,-0.04864 1.913044,0.02899 0.145147,0.01759 0.292654,0.02366 0.434782,0.05797 0.507248,0.122439 0.986701,0.440758 1.449276,0.666667 0.217274,0.10611 1.457432,0.692821 1.565217,0.753623 0.404701,0.228293 0.299407,0.544082 0.492754,0.89855 0.102354,0.18765 0.408829,0.531222 0.550724,0.666667 0.09933,0.09482 0.218337,0.167297 0.318841,0.26087 0.310016,0.288636 0.587302,0.611244 0.898551,0.89855 0.324015,0.299092 0.71764,0.545327 0.956521,0.927537 0.0958,0.153274 0.05064,0.324063 0.05797,0.492753 0.01765,0.405926 0.05523,0.320656 0.02899,0.753623 -0.04033,0.665428 -0.150951,0.954452 -0.26087,1.710145 -0.04181,0.287474 0.005,0.585985 -0.05797,0.869566 -0.224913,1.012111 -0.234247,0.671633 -0.550724,1.565217 -0.08064,0.227688 -0.142905,0.461675 -0.202899,0.695652 -0.102494,0.399725 -0.05388,0.516407 -0.260869,0.898551 -0.04892,0.09031 -0.134664,0.15512 -0.202899,0.231884 -0.08636,0.09715 -0.176275,0.191162 -0.26087,0.289855 -0.07515,0.08768 -0.413024,0.506187 -0.492753,0.608696 -0.05932,0.07627 -0.107694,0.161526 -0.173913,0.231884 -0.155763,0.165497 -0.455477,0.397307 -0.637681,0.521739 -0.158793,0.108444 -0.847059,0.637788 -1.217392,0.695652 -0.181374,0.02834 -0.367149,0 -0.550724,0 -0.164252,0 -0.329318,0.01634 -0.492754,0 -0.128265,-0.01283 -0.249661,-0.06577 -0.376812,-0.08696 -0.06671,-0.01112 -0.138736,0.02139 -0.202898,0 -0.01296,-0.0043 -0.01543,-0.02729 -0.02899,-0.02899 -0.06711,-0.0084 -0.135788,0.0084 -0.202898,0 -0.01356,-0.0017 -0.01676,-0.02287 -0.02899,-0.02898 -0.06907,-0.03454 -0.677425,0.01905 -0.724637,0.02898 -0.179758,0.03784 -0.339892,0.147935 -0.52174,0.173913 -0.13512,0.0193 -0.508895,-0.04183 -0.57971,0.02899 -0.02733,0.02733 0.0076,0.07804 0,0.115942 0.05249,0.121268 -0.04575,0.03353 -0.05797,0.05797 -0.05994,0.119872 -0.04893,0.260869 -0.260869,0.260869" />
  <path
     style="fill:none;stroke:#ff9500;stroke-width:1.079;stroke-opacity:1"
     d="m 19.217391,28.782609 c -0.771496,-0.08303 -1.544647,-0.150685 -2.31884,-0.202899 -0.736033,-0.04964 -1.474595,-0.0855 -2.202899,-0.202898 C 14.464927,28.33962 14.227517,28.294407 14,28.347822 c -0.04384,0.01029 -0.08708,0.02423 -0.131907,0.02858 -0.02241,0.0022 -0.04517,0.0019 -0.06727,-0.0024 -0.0221,-0.0043 -0.04354,-0.01283 -0.06169,-0.02615 -0.02207,-0.01619 -0.03847,-0.03877 -0.05797,-0.05797 -0.03446,-0.03394 -0.07807,-0.05688 -0.115942,-0.08696 -0.08278,-0.06576 -0.134669,-0.162704 -0.173913,-0.26087 -0.109682,-0.274361 -0.136961,-0.57658 -0.11465,-0.871209 0.02231,-0.294629 0.09262,-0.583484 0.17262,-0.867921 0.120565,-0.42869 0.272504,-0.866017 0.579711,-1.188406 0.278108,-0.291853 0.663119,-0.464318 1.05715,-0.549537 0.39403,-0.08522 0.800581,-0.08951 1.203719,-0.08814 0.367157,0.0012 0.734354,0.0069 1.101449,0 0.280237,-0.0053 0.560861,-0.01784 0.84058,0 0.821617,0.05239 1.608485,0.366443 2.318841,0.782608 0.07499,0.04393 0.149647,0.08928 0.216133,0.145258 0.06649,0.05598 0.12494,0.123343 0.160678,0.202568 0.03105,0.06884 0.04415,0.145005 0.04381,0.220527 -3.39e-4,0.07552 -0.01382,0.150549 -0.03403,0.223317 -0.04042,0.145536 -0.107437,0.282265 -0.154711,0.425722 -0.105074,0.318855 -0.11028,0.662814 -0.202899,0.985507 -0.03008,0.1048 -0.07098,0.209735 -0.144927,0.289855 -0.06682,0.07239 -0.157226,0.120177 -0.25187,0.147514 -0.09464,0.02734 -0.193836,0.03528 -0.292334,0.037 -0.196996,0.0034 -0.399911,-0.01669 -0.586231,0.04737 -0.160301,0.05512 -0.294075,0.168368 -0.410503,0.29157 -0.116428,0.123201 -0.219799,0.258796 -0.34312,0.375097 -0.09586,0.09041 -0.203295,0.168539 -0.318841,0.231884 L 18,28.811582"
     id="path18"
     inkscape:path-effect="#path-effect18"
     inkscape:original-d="m 19.217391,28.782609 c -0.782435,0.05125 -1.548351,-0.09589 -2.31884,-0.202899 -1.224923,-0.170128 -0.996694,-0.143577 -2.202899,-0.202898 -0.231805,-0.0114 -0.463673,-0.02196 -0.695652,-0.02899 -0.08692,-0.0026 -0.175316,0.01555 -0.26087,0 -0.02689,-0.0049 -0.03698,-0.04048 -0.05797,-0.05797 -0.03711,-0.03093 -0.08501,-0.04984 -0.115942,-0.08696 -0.0669,-0.08029 -0.139579,-0.162162 -0.173913,-0.26087 -0.156287,-0.449326 -0.04826,-1.305361 0.05797,-1.73913 0.102668,-0.419228 0.249507,-0.880216 0.579711,-1.188406 0.57452,-0.536219 1.529081,-0.606319 2.260869,-0.637681 0.366813,-0.01572 0.7343,0 1.101449,0 0.280194,0 0.561099,-0.01996 0.84058,0 0.830379,0.05931 1.629157,0.31072 2.318841,0.782608 0.141074,0.09652 0.304828,0.192787 0.376811,0.347826 0.140032,0.301607 -0.07811,0.602309 -0.144927,0.869566 -0.08135,0.325378 -0.114651,0.661932 -0.202899,0.985507 -0.02842,0.104216 -0.05021,0.237914 -0.144927,0.289855 -0.866005,0.474906 -0.498722,0.06709 -1.130435,0.231884 -0.364631,0.09512 -0.519515,0.41455 -0.753623,0.666667 -0.04067,0.0438 -0.240994,0.208529 -0.318841,0.231884 -0.175481,0 -0.0991,-0.01528 -0.231884,0.02898" />
  <path
     style="fill:none;stroke:#ff9500;stroke-width:1.079;stroke-opacity:1"
     d="m 15.594203,23.681159 c -0.148695,-0.335285 -0.206669,-0.710289 -0.166166,-1.074823 0.0405,-0.364535 0.179383,-0.717666 0.39805,-1.012133 0.294044,-0.395973 0.734496,-0.682264 1.217391,-0.782609 0.352243,-0.07319 0.737409,-0.04416 1.043479,0.144928 0.215745,0.133285 0.381299,0.339351 0.488845,0.569013 0.107547,0.229661 0.159504,0.482402 0.177821,0.735335 0.01841,0.254204 0.0027,0.515043 -0.08696,0.753623 -0.0782,0.208097 -0.212297,0.394889 -0.384455,0.535534 -0.172158,0.140646 -0.381943,0.234789 -0.601456,0.269912 -0.219513,0.03512 -0.4482,0.01113 -0.655647,-0.06878 -0.207446,-0.07991 -0.39313,-0.215536 -0.532355,-0.388845 -0.04543,0.07315 -0.111095,0.133594 -0.18775,0.172828 -0.07665,0.03924 -0.164083,0.05715 -0.249991,0.05123 -0.08591,-0.0059 -0.17005,-0.03567 -0.240592,-0.08506 -0.07054,-0.04939 -0.127285,-0.118271 -0.162247,-0.196966 -0.01243,-0.02797 -0.02215,-0.05713 -0.02899,-0.08696"
     id="path19"
     inkscape:path-effect="#path-effect19"
     inkscape:original-d="m 15.594203,23.681159 c 0.02879,-0.688653 -0.121357,-1.451122 0.231884,-2.086956 0.315698,-0.568257 0.601122,-0.746358 1.217391,-0.782609 0.37459,-0.02203 0.694225,-0.02368 1.043479,0.144928 0.4913,0.237179 0.648437,0.812164 0.666666,1.304348 0.0092,0.247369 0.02471,0.520134 -0.08696,0.753623 -0.407511,0.852067 -1.45569,0.46753 -2.173913,0.347826 -0.273112,-0.115971 -0.562185,-0.02085 -0.84058,-0.05797 -0.03331,-0.0044 -0.02899,-0.06417 -0.02899,-0.08696" />
</svg>
