<?xml version="1.0" encoding="UTF-8" standalone="no"?>
<svg
   width="51px"
   height="45px"
   viewBox="0 0 51 45"
   version="1.1"
   id="svg1"
   sodipodi:docname="download.svg"
   inkscape:version="1.3.2 (091e20e, 2023-11-25, custom)"
   xmlns:inkscape="http://www.inkscape.org/namespaces/inkscape"
   xmlns:sodipodi="http://sodipodi.sourceforge.net/DTD/sodipodi-0.dtd"
   xmlns="http://www.w3.org/2000/svg"
   xmlns:svg="http://www.w3.org/2000/svg">
  <sodipodi:namedview
     id="namedview1"
     pagecolor="#ffffff"
     bordercolor="#000000"
     borderopacity="0.25"
     inkscape:showpageshadow="2"
     inkscape:pageopacity="0.0"
     inkscape:pagecheckerboard="0"
     inkscape:deskcolor="#d1d1d1"
     inkscape:zoom="26.066667"
     inkscape:cx="25.511509"
     inkscape:cy="22.5"
     inkscape:window-width="2560"
     inkscape:window-height="1369"
     inkscape:window-x="-8"
     inkscape:window-y="-8"
     inkscape:window-maximized="1"
     inkscape:current-layer="svg1" />
  <!-- Generator: Sketch 49 (51002) - http://www.bohemiancoding.com/sketch -->
  <title
     id="title1">icon/fees</title>
  <desc
     id="desc1">Created with Sketch.</desc>
  <defs
     id="defs1">
    <inkscape:path-effect
       effect="spiro"
       id="path-effect5"
       is_visible="true"
       lpeversion="1" />
    <inkscape:path-effect
       effect="spiro"
       id="path-effect4"
       is_visible="true"
       lpeversion="1" />
    <inkscape:path-effect
       effect="spiro"
       id="path-effect3"
       is_visible="true"
       lpeversion="1" />
    <inkscape:path-effect
       effect="spiro"
       id="path-effect2"
       is_visible="true"
       lpeversion="1" />
  </defs>
  <path
     style="fill:none;stroke:#95aabf;stroke-opacity:1"
     d="M 12.314578,42.429668 C 12.051072,42.18121 11.782454,41.938175 11.508951,41.700767 10.777555,41.065896 9.9846415,40.437237 9.5907928,39.55243 9.5395631,39.437339 9.4956383,39.318838 9.4373402,39.207161 9.368312,39.074929 9.2799069,38.953752 9.2071611,38.823529 9.0366286,38.518256 8.9563483,38.171234 8.9002558,37.826087 8.8398564,37.454439 8.8048696,37.077522 8.7084399,36.713555 8.6328172,36.428123 8.5201697,36.153725 8.4398977,35.869565 8.4022183,35.736181 8.3697969,35.596674 8.286445,35.485934 8.2428639,35.428033 8.1871576,35.380627 8.1329923,35.332481 7.7408967,34.983962 7.4079906,34.573538 7.0204604,34.219949 6.5713831,33.810204 6.0543798,33.481756 5.5242967,33.184143 5.363042,33.093607 5.1983195,33.004288 5.0639386,32.877238 c -0.072983,-0.069 -0.1387392,-0.150265 -0.230179,-0.191816 -0.036845,-0.01674 -0.07646,-0.02629 -0.1150895,-0.03836 C 4.5040293,32.57999 4.3232432,32.436556 4.1432225,32.30179 4.032394,32.218822 3.9195197,32.137856 3.797954,32.071611 3.6472381,31.989481 3.4842662,31.930586 3.3375959,31.841432 c -0.039408,-0.02395 -0.077499,-0.05001 -0.1150895,-0.07673 -0.035355,-0.02513 -0.070389,-0.05092 -0.1082378,-0.07211 -0.037849,-0.02119 -0.078879,-0.03778 -0.1219412,-0.04298 -0.038124,-0.0046 -0.076689,-2.04e-4 -0.1150895,0 -0.097957,5.21e-4 -0.1953816,-0.0268 -0.2809433,-0.0745 -0.085562,-0.0477 -0.1593695,-0.115402 -0.217778,-0.194043 -0.098644,-0.132813 -0.153031,-0.296491 -0.1619338,-0.46169 -0.0089,-0.165199 0.026722,-0.331587 0.094752,-0.482391 0.1360601,-0.301608 0.3957503,-0.533693 0.683893,-0.696339 0.5762854,-0.325291 1.2695906,-0.400124 1.8385318,-0.738096 0.2510777,-0.149149 0.4703309,-0.345265 0.6905371,-0.537085 1.1403366,-0.993337 2.3501339,-1.903607 3.5677749,-2.800511 0.6966517,-0.513147 1.3980744,-1.023719 2.0332484,-1.611254 0.385044,-0.356165 0.744145,-0.739164 1.112532,-1.112532 0.774874,-0.785352 1.592028,-1.529279 2.340153,-2.340153 0.449899,-0.487634 0.874311,-0.999002 1.265985,-1.534527 0.129881,-0.177582 0.256137,-0.357781 0.383631,-0.537084 0.511931,-0.719961 1.045287,-1.427249 1.649617,-2.071611 0.105387,-0.112368 0.213123,-0.223048 0.306905,-0.345269 0.09098,-0.11857 0.168373,-0.247558 0.230179,-0.383632 0.169059,-0.15406 0.312307,-0.336375 0.421995,-0.537084 0.101537,-0.185794 0.173963,-0.386016 0.268542,-0.575448 0.08728,-0.174823 0.193149,-0.339846 0.306906,-0.498721 0.08209,-0.114647 0.169085,-0.227451 0.227116,-0.355962 0.02902,-0.06425 0.05055,-0.132252 0.05917,-0.202226 0.0086,-0.06997 0.0041,-0.14203 -0.01774,-0.209075 -0.0063,-0.0193 -0.01401,-0.03838 -0.01626,-0.05855 -0.0011,-0.01009 -8.41e-4,-0.0204 0.0017,-0.03023 0.0025,-0.0098 0.0074,-0.01916 0.01458,-0.02631 0.0072,-0.0071 0.01654,-0.01191 0.02636,-0.01438 0.0098,-0.0025 0.02012,-0.0027 0.03019,-0.0016 0.02013,0.0023 0.03919,0.0099 0.05854,0.01595 0.0615,0.01916 0.126988,0.02206 0.191308,0.01859 0.06432,-0.0035 0.128141,-0.01315 0.192324,-0.01859 0.217409,-0.01844 0.435607,0.0118 0.652174,0.03836 0.954409,0.117053 1.91609,0.163634 2.877238,0.191816 0.7931,0.02325 1.588381,0.03398 2.378517,-0.03836 1.17277,-0.107369 2.321795,-0.396497 3.491048,-0.537084 0.328623,-0.03951 0.669192,-0.07043 0.959079,-0.230179 0.05018,-0.02765 0.0989,-0.0592 0.153453,-0.07673 0.06507,-0.02091 0.134735,-0.02071 0.202414,-0.03021 0.03384,-0.0048 0.06756,-0.01204 0.09903,-0.02535 0.03147,-0.01332 0.06074,-0.03293 0.08219,-0.05952 0.0057,-0.0071 0.01091,-0.01471 0.01693,-0.02159 0.006,-0.0069 0.01304,-0.01314 0.02143,-0.01677 0.01098,-0.0047 0.02385,-0.0046 0.03497,-2.04e-4 0.01113,0.0044 0.02048,0.01284 0.02658,0.02313 0.0061,0.01029 0.009,0.02234 0.009,0.0343 -2.8e-5,0.01196 -0.0029,0.02383 -0.0078,0.03477 -0.0097,0.02188 -0.02672,0.03968 -0.04506,0.05504 -0.01834,0.01536 -0.03828,0.02877 -0.05607,0.04478 -0.05592,0.05033 -0.08649,0.12223 -0.11509,0.191816 -0.05235,0.127393 -0.103723,0.255193 -0.153452,0.383632 -0.309024,0.798143 -0.556941,1.637958 -0.537085,2.493606 0.01691,0.728617 0.226737,1.436613 0.383632,2.148338 0.159187,0.722122 0.264898,1.45558 0.437848,2.17453 0.172949,0.718949 0.417284,1.430602 0.828137,2.045419 0.13312,0.199207 0.284255,0.389388 0.377594,0.610051 0.04667,0.110331 0.07831,0.227977 0.08282,0.347688 0.0045,0.119711 -0.01897,0.241683 -0.07678,0.346608 -0.04839,0.08784 -0.118976,0.161244 -0.191816,0.230179 -0.304895,0.288547 -0.661111,0.516063 -0.997442,0.767264 -0.631752,0.471846 -1.194481,1.028287 -1.764706,1.57289 -0.117731,0.112441 -0.236,0.224586 -0.345268,0.345268 -0.59074,0.652448 -0.891803,1.537205 -0.920717,2.41688 -0.0088,0.268419 0.0062,0.537134 0,0.805627 -0.0057,0.245388 -0.0293,0.491669 -0.0935,0.728577 -0.0642,0.236909 -0.170245,0.46487 -0.328497,0.652497 -0.152387,0.180674 -0.347857,0.318732 -0.537085,0.460358 -0.414403,0.310156 -0.808735,0.646544 -1.189258,0.997442 -0.228236,0.210467 -0.455216,0.42887 -0.7289,0.575448 -0.08596,0.04604 -0.175923,0.08459 -0.268543,0.11509 -0.09045,0.04948 -0.179989,0.100644 -0.268542,0.153452 -0.420432,0.25072 -0.81779,0.537931 -1.227621,0.805627 -0.259191,0.1693 -0.524241,0.331266 -0.805627,0.460358 -0.140465,0.06444 -0.284833,0.120613 -0.421995,0.191816 -0.325322,0.168881 -0.601031,0.417198 -0.882353,0.652174 -0.341593,0.285317 -0.701775,0.557523 -1.112532,0.7289 -0.06356,0.02652 -0.128128,0.05053 -0.191816,0.07673 -0.293454,0.120712 -0.568085,0.288338 -0.805626,0.498721 -0.08128,0.07199 -0.158193,0.148901 -0.230179,0.23018 -0.122143,0.07992 -0.237745,0.169829 -0.345269,0.268542 -0.113547,0.104242 -0.218773,0.218823 -0.345268,0.306905 -0.108125,0.07529 -0.229231,0.129409 -0.345269,0.191816 -0.282024,0.151677 -0.538367,0.356438 -0.7289,0.613811 -0.05962,0.08053 -0.113865,0.167232 -0.191816,0.230179 -0.03922,0.03167 -0.08345,0.05646 -0.124853,0.0852 -0.04141,0.02874 -0.0809,0.06252 -0.105326,0.106616 -0.01387,0.02504 -0.02257,0.05286 -0.03836,0.07673 -0.02091,0.03161 -0.05304,0.05429 -0.08693,0.07127 -0.03389,0.01698 -0.07004,0.02892 -0.10489,0.04382 -0.142525,0.06092 -0.259246,0.16917 -0.365029,0.282458 -0.105784,0.113287 -0.204562,0.234419 -0.325508,0.331353 -0.0499,0.03999 -0.103201,0.07555 -0.153453,0.11509 -0.263496,0.207335 -0.432438,0.514884 -0.690537,0.7289 -0.154339,0.127979 -0.340618,0.222817 -0.460358,0.383632 -0.108906,0.146266 -0.150108,0.330328 -0.194706,0.507148 -0.0446,0.17682 -0.09964,0.360062 -0.227289,0.490294 -0.05111,0.05215 -0.111915,0.09358 -0.168263,0.140018 -0.05635,0.04644 -0.109674,0.09986 -0.138642,0.166887 -0.02096,0.04851 -0.0281,0.101617 -0.03836,0.153453 -0.01962,0.09917 -0.05202,0.197226 -0.108597,0.281002 -0.05658,0.08378 -0.139189,0.152578 -0.236672,0.179356 -0.01961,0.0054 -0.03966,0.0091 -0.05929,0.01439 -0.01963,0.0053 -0.03905,0.01243 -0.05579,0.02397 -0.02651,0.01827 -0.04448,0.04628 -0.06056,0.07417 -0.01608,0.02789 -0.03138,0.05692 -0.05453,0.07929 -0.02322,0.02243 -0.05284,0.03674 -0.08095,0.05262 -0.02811,0.01588 -0.05612,0.03466 -0.0725,0.06247 -0.01045,0.01774 -0.01551,0.03811 -0.01907,0.05839 -0.0036,0.02028 -0.0057,0.04085 -0.01105,0.06074 -0.0053,0.01989 -0.01405,0.03941 -0.02874,0.05383 -0.0073,0.0072 -0.01613,0.01304 -0.02583,0.01649 -0.0097,0.0034 -0.02033,0.0045 -0.03041,0.0024 -0.01478,-0.0031 -0.02768,-0.01267 -0.03678,-0.02471 -0.0091,-0.01204 -0.01468,-0.02641 -0.01846,-0.04102 -0.0076,-0.02922 -0.0085,-0.06047 -0.02149,-0.08772 -0.01398,-0.02935 -0.04021,-0.05057 -0.06398,-0.07275 -0.01189,-0.01109 -0.0234,-0.02272 -0.03269,-0.03606 -0.0093,-0.01334 -0.01632,-0.02853 -0.01843,-0.04464 -0.0017,-0.01272 -2.42e-4,-0.02562 8.86e-4,-0.0384 0.0011,-0.01278 0.0019,-0.02581 -8.86e-4,-0.03833 -0.0041,-0.01821 -0.01577,-0.03402 -0.02983,-0.04631 -0.01406,-0.01229 -0.03053,-0.02144 -0.0469,-0.03042 -0.12539,-0.06876 -0.25339,-0.132759 -0.383632,-0.191815 z"
     id="path4"
     inkscape:path-effect="#path-effect4"
     inkscape:original-d="M 12.314578,42.429668 C 11.997225,42.24144 11.774276,41.950485 11.508951,41.700767 10.850878,41.081404 10.032934,40.348284 9.5907928,39.55243 9.5296288,39.442334 9.4959983,39.318612 9.4373402,39.207161 9.3678838,39.075194 9.2652678,38.960873 9.2071611,38.823529 9.0716195,38.503158 8.9846251,38.163564 8.9002558,37.826087 8.80657,37.451344 8.7832594,37.087653 8.7084399,36.713555 8.648575,36.41423 8.5430594,36.15326 8.4398977,35.869565 8.3616156,35.654289 8.4562113,35.728457 8.286445,35.485934 8.2449617,35.426672 8.1813841,35.386249 8.1329923,35.332481 7.7829332,34.943526 7.437005,34.541824 7.0204604,34.219949 6.5401836,33.848826 6.0225333,33.529076 5.5242967,33.184143 5.3726621,33.079165 5.2114804,32.987894 5.0639386,32.877238 c -0.0799,-0.05992 -0.1470777,-0.136415 -0.230179,-0.191816 -0.033647,-0.02243 -0.07974,-0.01873 -0.1150895,-0.03836 C 4.5231265,32.538424 4.3337332,32.419028 4.1432225,32.30179 3.7700896,32.07217 4.2312205,32.300988 3.797954,32.071611 3.6463266,31.991338 3.4865563,31.926552 3.3375959,31.841432 c -0.1500951,-0.08577 -0.017814,-0.07673 -0.1150895,-0.07673 -0.1152411,0 -0.1251298,-0.08007 -0.230179,-0.11509 -0.036395,-0.01213 -0.077471,0.0075 -0.1150895,0 C 2.7428895,31.622747 2.3232515,31.528448 2.3785166,31.381074 2.7846822,30.297966 3.9543089,29.637716 4.8337596,29.002558 5.0701577,28.831826 5.291769,28.64144 5.5242967,28.465473 6.7306341,27.552569 7.9143974,26.613644 9.0920716,25.664962 9.7654097,25.12255 10.474009,24.623605 11.12532,24.053708 c 0.818414,-0.716112 0.345268,-0.345268 1.112532,-1.112532 0.78035,-0.78035 1.607752,-1.512221 2.340153,-2.340153 0.436169,-0.49306 0.861987,-1.015101 1.265985,-1.534527 0.135072,-0.173664 0.24949,-0.3627 0.383631,-0.537084 0.536589,-0.697565 1.096613,-1.38694 1.649617,-2.071611 0.09675,-0.119791 0.215562,-0.221303 0.306905,-0.345269 0.08846,-0.120057 0.147457,-0.259549 0.230179,-0.383632 0.105624,-0.20599 0.292398,-0.349888 0.421995,-0.537084 0.223878,-0.32338 0.100065,-0.214426 0.268542,-0.575448 0.236744,-0.507308 0.06269,-0.04081 0.306906,-0.498721 0.127501,-0.239064 0.215621,-0.502661 0.268542,-0.767263 0.0075,-0.03762 -0.02713,-0.08796 0,-0.11509 0.02713,-0.02713 0.07673,0 0.115089,0 0.127878,0 0.255843,-0.0047 0.383632,0 0.217618,0.0081 0.434988,0.02247 0.652174,0.03836 1.41903,0.103832 0.93727,0.116233 2.877238,0.191816 0.507717,0.01978 1.981343,-0.01817 2.378517,-0.03836 1.167029,-0.05934 2.352779,-0.274407 3.491048,-0.537084 0.317282,-0.07322 0.643326,-0.151241 0.959079,-0.230179 0.05548,-0.01387 0.0992,-0.05864 0.153453,-0.07673 0.120644,-0.04021 0.269231,-0.05789 0.383632,-0.115089 0.01618,-0.0081 0.02028,-0.03836 0.03836,-0.03836 0.0028,0 0.0038,0.09689 -0.03836,0.191815 -0.03028,0.06814 -0.08174,0.125124 -0.11509,0.191816 -0.06159,0.123188 -0.09646,0.258249 -0.153452,0.383632 -0.335066,0.737145 -0.562245,1.68849 -0.537085,2.493606 0.02315,0.740723 0.189098,1.435045 0.383632,2.148338 0.390074,1.430273 0.783864,2.821797 1.265985,4.219949 0.07291,0.211434 0.451063,1.03462 0.383631,1.304347 -0.02373,0.09492 -0.135249,0.164185 -0.191816,0.230179 -0.282658,0.329768 -0.638498,0.527968 -0.997442,0.767264 -0.654089,0.436059 -1.227522,1.004107 -1.764706,1.57289 -0.111756,0.118329 -0.254985,0.209843 -0.345268,0.345268 -0.343743,0.515614 -0.843328,1.720381 -0.920717,2.41688 -0.02945,0.265065 0.02046,0.539704 0,0.805627 -0.03498,0.454768 -0.138455,1.012472 -0.421994,1.381074 -0.170297,0.221385 -0.32051,0.282003 -0.537085,0.460358 -0.399188,0.328744 -0.78684,0.671675 -1.189258,0.997442 -0.03052,0.0247 -0.670121,0.538711 -0.7289,0.575448 -0.08259,0.05162 -0.179029,0.07673 -0.268543,0.11509 -0.08951,0.05115 -0.181818,0.0977 -0.268542,0.153452 -0.413375,0.265741 -0.802702,0.553823 -1.227621,0.805627 -0.266083,0.157679 -0.531645,0.316843 -0.805627,0.460358 -0.136874,0.0717 -0.28748,0.115786 -0.421995,0.191816 -0.653728,0.369499 -0.276084,0.227786 -0.882353,0.652174 -0.363205,0.254243 -0.735331,0.495923 -1.112532,0.7289 -0.05859,0.03619 -0.131183,0.04408 -0.191816,0.07673 -0.146922,0.07911 -0.671176,0.395298 -0.805626,0.498721 -0.08601,0.06616 -0.150192,0.156858 -0.230179,0.23018 -0.07502,0.134071 -0.235056,0.176698 -0.345269,0.268542 -0.223747,0.186455 -0.0034,0.07899 -0.345268,0.306905 -0.109546,0.07303 -0.238135,0.115291 -0.345269,0.191816 -0.258474,0.184625 -0.504294,0.389205 -0.7289,0.613811 -0.07062,0.07062 -0.121193,0.159556 -0.191816,0.230179 -0.07062,0.07062 -0.159556,0.121193 -0.230179,0.191816 -0.02022,0.02022 -0.0164,0.05842 -0.03836,0.07673 -0.05728,0.04773 -0.132164,0.07035 -0.191816,0.115089 -0.243384,0.182538 -0.46152,0.413421 -0.690537,0.613811 -0.04812,0.0421 -0.108241,0.06988 -0.153453,0.11509 -0.230298,0.230298 -0.435646,0.516491 -0.690537,0.7289 -0.274301,0.228584 -0.246506,0.127009 -0.460358,0.383632 -0.268138,0.321766 -0.261055,0.635328 -0.421995,0.997442 -0.07294,0.164123 -0.189236,0.130401 -0.306905,0.306905 -0.02925,0.04387 -0.01478,0.106294 -0.03836,0.153453 -0.05831,0.116613 -0.236547,0.387877 -0.345269,0.460358 -0.03365,0.02243 -0.08041,0.01756 -0.115089,0.03836 -0.172466,0.10348 -8.47e-4,0.03921 -0.11509,0.153453 -0.04432,0.04432 -0.11793,0.09733 -0.153453,0.11509 -0.05493,0.02746 -0.06643,0.191815 -0.115089,0.191815 -0.05719,0 -0.05115,-0.102301 -0.07673,-0.153452 -0.02445,-0.0489 -0.09819,-0.102742 -0.11509,-0.153453 -0.0081,-0.02426 0.01144,-0.05385 0,-0.07673 -0.01618,-0.03235 -0.05503,-0.04779 -0.07673,-0.07673 -0.150392,-0.200522 -0.110855,-0.13726 -0.383632,-0.191815 z"
     transform="translate(1.6112532,0.19181585)" />
  <path
     style="fill:none;stroke:#95aabf;stroke-opacity:1"
     d="m 23.70844,22.289003 c -0.246491,0.07583 -0.525389,0.0385 -0.743261,-0.09948 -0.217873,-0.137986 -0.370831,-0.374166 -0.407634,-0.629419 -0.0073,-0.05088 -0.01024,-0.103075 0,-0.153452 0.01719,-0.08457 0.06949,-0.156908 0.115089,-0.230179 0.153518,-0.246695 0.240681,-0.527881 0.326221,-0.805566 0.08554,-0.277685 0.172602,-0.55889 0.325953,-0.805688 0.272092,-0.437896 0.730855,-0.729713 1.209069,-0.922322 0.478215,-0.192608 0.985921,-0.299806 1.476353,-0.458752 0.138891,-0.04501 0.277459,-0.09444 0.421995,-0.115089 0.241273,-0.03446 0.490554,0.01255 0.7289,-0.03836 0.06382,-0.01363 0.126075,-0.03416 0.190265,-0.0459 0.06419,-0.01174 0.131878,-0.0143 0.193367,0.0075 0.06556,0.02329 0.11906,0.07266 0.160755,0.128354 0.04169,0.0557 0.07314,0.118216 0.107787,0.178552 0.102872,0.17916 0.236153,0.342983 0.306906,0.537084 0.08419,0.230949 0.07261,0.485484 0.03836,0.7289 -0.09117,0.647933 -0.352269,1.294672 -0.84399,1.726343 -0.313501,0.275215 -0.704817,0.449864 -1.107233,0.559805 -0.402417,0.109942 -0.818632,0.158558 -1.23292,0.207459 -0.844308,0.09966 -1.688303,0.20196 -2.53197,0.306905"
     id="path5"
     inkscape:path-effect="#path-effect5"
     inkscape:original-d="m 23.70844,22.289003 c -0.500085,-4e-4 -1.086678,-0.150949 -1.150895,-0.728901 -0.0056,-0.05084 -0.0147,-0.104459 0,-0.153452 0.02465,-0.08216 0.08796,-0.148799 0.115089,-0.230179 0.188167,-0.5645 0.233479,-1.154495 0.652174,-1.611254 0.691456,-0.754315 1.724133,-1.130303 2.685422,-1.381074 0.141081,-0.0368 0.278768,-0.08781 0.421995,-0.115089 0.418991,-0.07981 0.326006,-0.0115 0.7289,-0.03836 0.01439,-9.6e-4 0.323746,-0.07829 0.383632,-0.03836 0.113105,0.0754 0.194459,0.192932 0.268542,0.306906 0.112375,0.172883 0.225681,0.34756 0.306906,0.537084 0.05718,0.133417 0.04326,0.665235 0.03836,0.7289 -0.04902,0.637306 -0.218495,1.404118 -0.84399,1.726343 -0.705539,0.363459 -1.56857,0.589206 -2.340153,0.767264 -0.869086,0.200558 -1.646217,0.306905 -2.53197,0.306905" />
  <path
     style="fill:none;stroke:#000000;stroke-opacity:1"
     d="m 25.319693,20.409207 c 0.195791,-0.751922 0.597956,-1.449009 1.150895,-1.994885 0.244898,-0.24177 0.517692,-0.453594 0.767264,-0.690537 0.131158,-0.124521 0.255705,-0.255792 0.383631,-0.383632 0.460749,-0.460438 0.965003,-0.876041 1.419438,-1.342711 0.20734,-0.212923 0.409412,-0.445439 0.498721,-0.7289 0.08518,-0.270366 0.05989,-0.561341 0.03836,-0.84399 -0.03113,-0.408764 -0.05247,-0.821045 0,-1.227621 0.03696,-0.286437 0.110204,-0.566948 0.191816,-0.84399 0.132575,-0.450046 0.287658,-0.893188 0.421995,-1.342711 0.114696,-0.383799 0.214299,-0.77234 0.345268,-1.150895 0.09788,-0.2829176 0.213095,-0.5596965 0.306906,-0.8439897 0.07985,-0.2419837 0.144078,-0.4890697 0.230179,-0.7289003 0.102835,-0.2864421 0.237754,-0.5633883 0.421995,-0.8056266 0.151066,-0.1986198 0.337861,-0.3788808 0.421995,-0.6138107 0.06746,-0.1883836 0.06217,-0.3950472 0.112453,-0.5887254 0.02514,-0.096839 0.06511,-0.1915227 0.129939,-0.2677233 0.06483,-0.0762 0.156634,-0.1325718 0.256329,-0.1409938 0.05962,-0.00504 0.119988,0.00704 0.175208,0.030062 0.05522,0.023026 0.105517,0.056752 0.15125,0.095326 0.09147,0.077147 0.164835,0.1731807 0.248989,0.2582445 0.172906,0.1747755 0.388535,0.3006509 0.575448,0.4603581 0.295942,0.2528671 0.514459,0.5856403 0.805627,0.8439898 0.365538,0.324336 0.826297,0.5156235 1.265984,0.7289002 0.126875,0.061542 0.253731,0.1257501 0.389946,0.1622206 0.136215,0.036471 0.2847,0.043469 0.415681,-0.00877 0.08608,-0.03433 0.160508,-0.092342 0.230179,-0.1534527 0.08163,-0.071602 0.158577,-0.1485473 0.230179,-0.230179 0.196435,-0.188087 0.401313,-0.3673554 0.613811,-0.5370844 0.579697,-0.4630223 1.213899,-0.8534414 1.803069,-1.3043478 0.290594,-0.2223991 0.570942,-0.4600039 0.882353,-0.652174 0.567024,-0.3499071 1.216152,-0.537097 1.841432,-0.7672634 0.394886,-0.145358 0.783814,-0.3093957 1.189258,-0.4219949 0.232722,-0.064631 0.470566,-0.1122182 0.698016,-0.1934783 0.227449,-0.08126 0.447789,-0.1997589 0.606332,-0.3819692 0.03746,-0.043056 0.07143,-0.089579 0.114339,-0.1272099 0.02145,-0.018816 0.04513,-0.035324 0.07117,-0.04701 0.02603,-0.011685 0.05451,-0.018451 0.08304,-0.017596 0.03892,0.00117 0.07668,0.016593 0.107809,0.03999 0.03113,0.023397 0.05593,0.054463 0.07546,0.08815 0.03907,0.067372 0.05743,0.1443956 0.08527,0.2171284 0.06766,0.1767289 0.19171,0.32759 0.335225,0.4509352 0.143514,0.1233451 0.306741,0.2213258 0.470402,0.3163283 0.23493,0.136373 0.473461,0.2684909 0.690141,0.4323178 0.216681,0.1638269 0.412632,0.3622357 0.53748,0.6034878 0.03171,0.061277 0.05875,0.1252039 0.07673,0.1918159 0.0472,0.1748412 0.03068,0.361936 0.07673,0.5370844 0.02057,0.07824 0.0533,0.1527474 0.07673,0.230179 0.06158,0.2034972 0.05723,0.4211428 0.03444,0.6325277 -0.02279,0.2113849 -0.06345,0.4210532 -0.07281,0.6334569 -0.01762,0.3999562 0.0759,0.7951372 0.141305,1.1901022 0.06541,0.3949651 0.101575,0.809013 -0.02622,1.1884142 -0.116843,0.3469 -0.363511,0.637938 -0.647791,0.868539 -0.28428,0.230601 -0.607431,0.407386 -0.925099,0.589262 -0.763768,0.437284 -1.506544,0.911217 -2.225064,1.419437 -0.409482,0.289632 -0.811525,0.590746 -1.189258,0.920716 -0.388757,0.3396 -0.751145,0.709218 -1.150896,1.035806 -0.371229,0.303287 -0.772957,0.567956 -1.189258,0.805626 -0.333429,0.190358 -0.677,0.363959 -0.997442,0.575448 -0.303872,0.200553 -0.585356,0.43428 -0.84399,0.690537 -0.201174,0.199324 -0.395526,0.417365 -0.652174,0.537085 -0.114295,0.05332 -0.238788,0.08587 -0.345269,0.153452 -0.08442,0.05358 -0.154029,0.127013 -0.230179,0.191816 -0.127273,0.108307 -0.273104,0.192646 -0.421995,0.268542 -0.404013,0.205943 -0.843683,0.358547 -1.189258,0.652174 -0.111478,0.09472 -0.213756,0.204481 -0.345268,0.268542 -0.06864,0.03343 -0.143125,0.05326 -0.212742,0.08459 -0.03481,0.01567 -0.0685,0.0343 -0.09827,0.0582 -0.02977,0.02389 -0.0556,0.05322 -0.07262,0.08739 -0.01055,0.02118 -0.01763,0.04396 -0.0285,0.06498 -0.0054,0.01051 -0.01183,0.02058 -0.0198,0.02933 -0.008,0.0087 -0.01754,0.01615 -0.02843,0.02078 -0.01784,0.0076 -0.03799,0.0073 -0.05726,0.0052 -0.01926,-0.0021 -0.03847,-0.006 -0.05783,-0.0052 -0.02977,0.0012 -0.05891,0.01403 -0.07998,0.03511 -0.02107,0.02107 -0.03386,0.05021 -0.0351,0.07998"
     id="path2"
     inkscape:path-effect="#path-effect2"
     inkscape:original-d="m 25.319693,20.409207 c 0.15553,-0.723713 0.664171,-1.44732 1.150895,-1.994885 0.397792,-0.447516 0.304155,-0.271534 0.767264,-0.690537 0.134103,-0.121332 0.252674,-0.25891 0.383631,-0.383632 1.07953,-1.028123 -0.48233,0.559057 1.419438,-1.342711 0.213339,-0.213339 0.413106,-0.429248 0.498721,-0.7289 0.0511,-0.178844 0.03836,-0.662414 0.03836,-0.84399 0,-0.401431 -0.03806,-0.828017 0,-1.227621 0.02686,-0.282059 0.116558,-0.573061 0.191816,-0.84399 0.614641,-2.212706 0.01707,-0.18578 0.421995,-1.342711 0.132152,-0.377577 0.218758,-0.771364 0.345268,-1.150895 0.330428,-0.9912823 0.06652,-0.1571792 0.306906,-0.8439897 0.08417,-0.2404891 0.124744,-0.4969447 0.230179,-0.7289003 0.125445,-0.27598 0.258063,-0.5506211 0.421995,-0.8056266 0.384992,-0.5988774 0.08464,-0.014068 0.421995,-0.6138107 0.142703,-0.2536943 0.295349,-0.7940704 0.498721,-0.9974425 0.04629,-0.046289 0.355413,0.2114312 0.575447,0.3836317 0.193446,0.1513926 0.395204,0.2934655 0.575448,0.4603581 0.01435,0.013282 0.700679,0.7740249 0.805627,0.8439898 0.40516,0.2701068 0.828523,0.5150303 1.265984,0.7289002 0.0452,0.022099 0.662335,0.2171381 0.805627,0.1534527 0.08427,-0.037451 0.159338,-0.094419 0.230179,-0.1534527 0.08336,-0.069465 0.153453,-0.1534527 0.230179,-0.230179 0.204603,-0.1790281 0.404363,-0.3637484 0.613811,-0.5370844 0.571463,-0.4729355 1.202413,-0.8713172 1.803069,-1.3043478 0.296678,-0.2138841 0.57804,-0.4492991 0.882353,-0.652174 0.555333,-0.3702222 1.21841,-0.5536558 1.841432,-0.7672634 1.336837,-0.4583441 0.01831,-0.016666 1.189258,-0.4219949 0.454699,-0.1573957 0.884103,-0.3353077 1.304348,-0.5754475 0.127915,-0.073094 0.232606,-0.2322443 0.268542,-0.1918159 0.09687,0.1089741 0.171322,0.2366105 0.268542,0.3452685 0.158488,0.1771334 0.62779,0.6203551 0.805627,0.7672635 0.350141,0.2892473 0.961163,0.6551513 1.227621,1.0358056 0.03949,0.056416 0.04876,0.1288871 0.07673,0.1918159 0.119917,0.2698139 0.03723,0.260614 0.07673,0.5370844 0.01144,0.080064 0.06086,0.1508729 0.07673,0.230179 0.07584,0.3791885 -0.07385,0.8756433 -0.03836,1.2659846 0.07279,0.8006994 0.408022,1.5834158 0.11509,2.3785164 -0.217483,0.59031 -1.071526,1.123558 -1.57289,1.457801 -0.732605,0.488403 -1.497569,0.922611 -2.225064,1.419437 -0.327287,0.223513 -0.869297,0.629842 -1.189258,0.920716 -0.381246,0.346587 -0.742605,0.718247 -1.150896,1.035806 -0.350495,0.272608 -0.807805,0.585557 -1.189258,0.805626 -0.634407,0.366004 -0.43286,0.143708 -0.997442,0.575448 -0.288746,0.220805 -0.565483,0.456951 -0.84399,0.690537 -0.194685,0.163284 -0.426506,0.404338 -0.652174,0.537085 -0.108556,0.06386 -0.237272,0.08865 -0.345269,0.153452 -0.08564,0.05139 -0.149406,0.133072 -0.230179,0.191816 -0.134841,0.09807 -0.277975,0.184531 -0.421995,0.268542 -0.390367,0.227715 -0.798473,0.428868 -1.189258,0.652174 -0.127712,0.07298 -0.232506,0.178332 -0.345268,0.268542 -0.116373,0.0931 -0.278273,0.12482 -0.383632,0.230179 -0.0326,0.0326 -0.03719,0.09137 -0.07673,0.11509 -0.0329,0.01974 -0.08078,-0.01716 -0.11509,0 -0.0707,0.03535 -0.01606,0.115089 -0.115089,0.115089" />
  <path
     style="fill:none;stroke:#ff9500;stroke-opacity:1"
     d="m 25.127877,20.907928 c 0.09962,-0.518026 0.227753,-1.030566 0.383632,-1.534526 0.06334,-0.204792 0.131267,-0.408175 0.191816,-0.613811 0.322392,-1.094899 0.43204,-2.239426 0.537084,-3.375959 0.11277,-1.220127 0.225726,-2.457413 0.652174,-3.606138 0.211174,-0.568842 0.496095,-1.106806 0.767264,-1.649617 0.249998,-0.5004328 0.495237,-1.0156128 0.882352,-1.4194371 0.389318,-0.4061227 0.910331,-0.6863188 1.227622,-1.1508951 0.04638,-0.067905 0.08915,-0.1405575 0.153453,-0.1918159 0.03232,-0.025763 0.06909,-0.04526 0.10362,-0.067967 0.03453,-0.022708 0.0677,-0.049596 0.0882,-0.085485 0.0142,-0.024864 0.02188,-0.053309 0.03836,-0.076726 0.01852,-0.026321 0.04659,-0.04412 0.07447,-0.060196 0.02788,-0.016076 0.05685,-0.031524 0.07898,-0.054894 0.01915,-0.020228 0.03219,-0.045366 0.04881,-0.067722 0.0083,-0.011178 0.01761,-0.021742 0.02864,-0.030247 0.01103,-0.00851 0.02389,-0.014908 0.03764,-0.017121 0.01268,-0.00204 0.02563,-4.929e-4 0.03841,7.937e-4 0.01278,0.00129 0.02586,0.00229 0.03833,-7.937e-4 0.01173,-0.0029 0.02242,-0.00936 0.03119,-0.01768 0.0088,-0.00832 0.01568,-0.01845 0.02119,-0.029206 0.01102,-0.021513 0.01648,-0.045352 0.02436,-0.068204 0.03334,-0.096806 0.109256,-0.1736397 0.193521,-0.2317995 0.08426,-0.05816 0.178127,-0.1007097 0.266837,-0.1518322 0.228295,-0.1315633 0.419826,-0.3183514 0.594636,-0.5155042 0.17481,-0.1971527 0.335636,-0.4067418 0.517896,-0.5970278 0.206785,-0.2158909 0.441749,-0.4077068 0.61381,-0.6521739 0.03419,-0.048573 0.06574,-0.099038 0.10205,-0.1460451 0.03631,-0.047007 0.07785,-0.090873 0.128129,-0.1224971 0.03958,-0.024897 0.08366,-0.041656 0.125081,-0.063358 0.04142,-0.021702 0.08149,-0.049728 0.105098,-0.090095 0.02099,-0.035891 0.02743,-0.078924 0.04903,-0.1144511 0.0108,-0.017764 0.02574,-0.033629 0.04474,-0.042064 0.0095,-0.00422 0.01991,-0.0065 0.0303,-0.00613 0.01039,3.659e-4 0.02073,0.00343 0.02938,0.00919 0.01218,0.00812 0.0204,0.02108 0.02586,0.03466 0.0055,0.01358 0.0085,0.02799 0.0125,0.042066 0.02554,0.089561 0.08986,0.1621359 0.153453,0.230179 0.179332,0.1918936 0.368673,0.3751361 0.575448,0.5370844 0.181637,0.14226 0.376054,0.2675617 0.575447,0.3836317 0.593244,0.3453365 1.229832,0.6090409 1.841432,0.9207162 0.104508,0.053258 0.210527,0.1086851 0.326254,0.1278075 0.05786,0.00956 0.117736,0.0097 0.17469,-0.0043 0.05695,-0.013991 0.110909,-0.04256 0.15123,-0.085149 0.05143,-0.054326 0.07769,-0.1270261 0.11509,-0.1918158 0.05913,-0.1024314 0.146302,-0.1851546 0.230179,-0.2685422 0.584633,-0.5812191 1.062577,-1.2626433 1.649616,-1.8414323 0.818048,-0.8065515 1.823304,-1.3909049 2.800512,-1.9948849 0.218223,-0.1348764 0.438246,-0.273301 0.61381,-0.460358 0.03453,-0.036795 0.06726,-0.075386 0.104169,-0.1097933 0.03691,-0.034408 0.07857,-0.064832 0.12601,-0.082023 0.04962,-0.017979 0.103665,-0.020857 0.153453,-0.038363 0.07053,-0.0248 0.127519,-0.076933 0.191816,-0.1150896 0.139505,-0.082788 0.308184,-0.09725 0.460358,-0.15345264 0.05011,-0.0185069 0.0985,-0.041587 0.149254,-0.0582581 0.05075,-0.0166711 0.104895,-0.0268483 0.157651,-0.0184683 0.04342,0.006897 0.08427,0.0262037 0.119998,0.051827 0.03573,0.0256233 0.06661,0.0574555 0.09485,0.0911541 0.05648,0.067397 0.103566,0.1433085 0.168786,0.2022875 0.04745,0.042908 0.103139,0.07558 0.153453,0.1150895 0.160529,0.1260578 0.258099,0.3141636 0.345268,0.4987212 0.06855,0.1451428 0.134446,0.2931496 0.230179,0.4219949 0.05958,0.080185 0.129895,0.1517891 0.191816,0.230179 0.189369,0.2397356 0.29667,0.5381146 0.498721,0.7672634 0.168066,0.1906063 0.392298,0.3225588 0.575448,0.4987213 0.07822,0.075239 0.148779,0.1583899 0.230179,0.230179 0.144477,0.1274182 0.319243,0.2156251 0.497494,0.2886713 0.17825,0.073046 0.362038,0.1323547 0.538312,0.2100499 0.319521,0.1408335 0.609719,0.3399486 0.920716,0.4987212 0.117397,0.059935 0.238479,0.1145471 0.345268,0.1918159 0.243919,0.176492 0.396509,0.467269 0.421995,0.7672634 0.01666,0.196065 -0.01755,0.3931741 -0.06733,0.5835437 -0.04978,0.1903696 -0.115187,0.3764392 -0.162847,0.5673515 -0.06992,0.2800713 -0.101473,0.5698247 -0.191816,0.8439897 -0.0342,0.1037811 -0.07661,0.2046346 -0.115089,0.3069054 -0.155323,0.4128112 -0.245996,0.8469447 -0.383632,1.2659847 -0.06452,0.1964298 -0.139434,0.3896714 -0.230179,0.5754473 -0.07531,0.154183 -0.161467,0.303122 -0.230179,0.460358 -0.178306,0.408025 -0.234969,0.861882 -0.421995,1.265985 -0.07932,0.171386 -0.18102,0.331374 -0.268542,0.498721 -0.106043,0.20276 -0.19129,0.416352 -0.306905,0.613811 -0.199186,0.34019 -0.48326,0.623758 -0.690538,0.959079 -0.07286,0.117866 -0.136805,0.242887 -0.230179,0.345269 -0.07953,0.0872 -0.177648,0.154891 -0.268542,0.230179 -0.132519,0.109766 -0.250395,0.236373 -0.383631,0.345268 -0.315516,0.257874 -0.703423,0.406341 -1.074169,0.575448 -0.426718,0.194638 -0.838345,0.421208 -1.265985,0.613811 -0.151597,0.06828 -0.305132,0.13225 -0.460358,0.191815 -0.13041,0.02912 -0.258727,0.06762 -0.383632,0.11509 -0.413083,0.156998 -0.781947,0.408938 -1.150895,0.652174 -0.459592,0.302994 -0.927765,0.597347 -1.342711,0.959079 -0.08889,0.07749 -0.175276,0.158024 -0.268542,0.230179 -0.227419,0.175943 -0.491145,0.298656 -0.7289,0.460358 -0.19898,0.13533 -0.378412,0.297024 -0.567933,0.44531 -0.189521,0.148287 -0.39277,0.285022 -0.621326,0.360317 -0.08516,0.02806 -0.172996,0.04729 -0.258558,0.07411 -0.08556,0.02682 -0.169966,0.06192 -0.240163,0.117709 -0.03668,0.02915 -0.06893,0.06351 -0.105322,0.09301 -0.03639,0.0295 -0.07838,0.05456 -0.124857,0.06044 -0.0254,0.0032 -0.05113,5.83e-4 -0.07673,0 -0.113949,-0.0026 -0.224734,0.0354 -0.330267,0.07845 -0.105534,0.04306 -0.20994,0.09204 -0.321907,0.113361 -0.06447,0.01228 -0.130319,0.01514 -0.195453,0.02318 -0.06513,0.008 -0.1308,0.0217 -0.188179,0.05355 -0.02523,0.01401 -0.04846,0.03132 -0.0732,0.04618 -0.02473,0.01486 -0.05157,0.02743 -0.08026,0.03055 -0.02967,0.0032 -0.0595,-0.0038 -0.0879,-0.01301 -0.0284,-0.0092 -0.0562,-0.02059 -0.08545,-0.02649 -0.02925,-0.0059 -0.06079,-0.0059 -0.08767,0.0071 -0.01344,0.0065 -0.02544,0.01619 -0.03382,0.02854 -0.0084,0.01235 -0.013,0.02738 -0.01207,0.04227 4.06e-4,0.0065 0.0018,0.01284 0.0024,0.0193 6.07e-4,0.0065 3.45e-4,0.0132 -0.0024,0.01906 -0.0031,0.0065 -0.009,0.01129 -0.01573,0.01376 -0.0067,0.0025 -0.01408,0.0027 -0.02113,0.0016 -0.01411,-0.0023 -0.02672,-0.0098 -0.03987,-0.01536 -0.03108,-0.01321 -0.06761,-0.01557 -0.09847,-0.0019 -0.01543,0.0069 -0.0292,0.01762 -0.03905,0.03133 -0.0099,0.01371 -0.0157,0.03038 -0.01593,0.04726 -1.74e-4,0.01283 0.0028,0.02584 0,0.03836 -0.0024,0.0109 -0.0092,0.02059 -0.01799,0.0275 -0.0088,0.0069 -0.01946,0.01117 -0.03042,0.01331 -0.02193,0.0043 -0.04451,3.62e-4 -0.06667,-0.0024 -0.183166,-0.02323 -0.367947,0.03052 -0.536761,0.105295 -0.168813,0.07477 -0.327813,0.170916 -0.499045,0.239974 -0.147164,0.05935 -0.302578,0.0982 -0.460358,0.115089"
     id="path3"
     inkscape:path-effect="#path-effect3"
     inkscape:original-d="m 25.127877,20.907928 c 0.155594,-0.504224 0.246144,-1.025822 0.383632,-1.534526 0.05593,-0.206937 0.145758,-0.404456 0.191816,-0.613811 0.242468,-1.10213 0.397076,-2.255891 0.537084,-3.375959 0.149699,-1.197592 0.215424,-2.465734 0.652174,-3.606138 0.07848,-0.204921 0.578837,-1.327468 0.767264,-1.649617 0.281275,-0.4808906 0.566733,-0.9603547 0.882352,-1.4194371 0.324358,-0.4717922 0.831438,-0.7547108 1.227622,-1.1508951 0.0579,-0.057899 0.09555,-0.133917 0.153453,-0.1918159 0.0579,-0.057899 0.133917,-0.095554 0.191816,-0.1534527 0.02022,-0.020219 0.01814,-0.056507 0.03836,-0.076726 0.04521,-0.045211 0.104907,-0.073479 0.153452,-0.1150895 0.04119,-0.035308 0.06857,-0.087176 0.11509,-0.1150896 0.02193,-0.013158 0.05627,0.015345 0.07673,0 0.03689,-0.027664 0.04294,-0.083716 0.07673,-0.1150895 0.146376,-0.1359205 0.311495,-0.250439 0.460358,-0.3836317 0.388422,-0.3475358 0.743961,-0.7439609 1.112532,-1.112532 0.211767,-0.211767 0.413793,-0.429932 0.61381,-0.6521739 0.07887,-0.087632 0.143271,-0.1888763 0.230179,-0.2685422 0.06798,-0.062311 0.15739,-0.096839 0.230179,-0.1534527 0.08707,-0.067723 0.143444,-0.1584572 0.153453,-0.1534526 0.02558,0.012788 0.02321,0.052479 0.03836,0.076726 0.04887,0.078197 0.08994,0.1633242 0.153453,0.230179 0.180716,0.1902269 0.370561,0.3731756 0.575448,0.5370844 0.180016,0.1440135 0.383631,0.2557545 0.575447,0.3836317 0.569441,0.3796274 1.162138,0.7663311 1.841432,0.9207162 0.0704,0.016001 0.641011,0.049526 0.652174,0.038363 0.05272,-0.052725 0.06851,-0.1335907 0.11509,-0.1918158 0.07365,-0.092062 0.153452,-0.1790282 0.230179,-0.2685422 0.538141,-0.6278319 1.010656,-1.3047055 1.649616,-1.8414323 0.87957,-0.7388384 1.904364,-1.2779669 2.800512,-1.9948849 0.661756,-0.529405 -0.167672,0.080668 0.61381,-0.460358 0.08212,-0.05685 0.140848,-0.1471503 0.230179,-0.1918159 0.04716,-0.023579 0.105272,-0.016949 0.153453,-0.038363 0.06814,-0.030284 0.123935,-0.084234 0.191816,-0.1150896 0.147255,-0.066934 0.306905,-0.1023017 0.460358,-0.15345264 0.100039,-0.0333463 0.206866,-0.11007265 0.306905,-0.0767264 0.175015,0.0583383 0.26093,0.22256604 0.383632,0.34526864 0.141512,0.1415118 0.01548,-0.09187 0.153453,0.1150895 0.10074,0.1511105 0.237101,0.3364706 0.345268,0.4987212 0.026,0.039002 0.204178,0.3829925 0.230179,0.4219949 0.0554,0.083101 0.131891,0.1502788 0.191816,0.230179 0.165172,0.2202287 0.349017,0.5842919 0.498721,0.7672634 0.108353,0.132431 0.429057,0.3645293 0.575448,0.4987213 0.07999,0.073321 0.141883,0.1671103 0.230179,0.230179 0.285221,0.2037292 0.721547,0.3498617 1.035806,0.4987212 0.31614,0.1497506 0.616805,0.3298818 0.920716,0.4987212 0.254888,0.1416044 -0.03786,-0.1529978 0.345268,0.1918159 0.203351,0.1830161 0.377328,0.4992602 0.421995,0.7672634 0.06418,0.3850993 -0.139781,0.7893039 -0.230179,1.1508952 -0.06439,0.2575588 -0.121626,0.598327 -0.191816,0.8439897 -0.03001,0.1050546 -0.0825,0.2026205 -0.115089,0.3069054 -0.131744,0.4215813 -0.227816,0.8504752 -0.383632,1.2659847 -0.07254,0.1934381 -0.148798,0.3855595 -0.230179,0.5754473 -0.06758,0.157694 -0.173816,0.298315 -0.230179,0.460358 -0.146542,0.421309 -0.250026,0.853261 -0.421995,1.265985 -0.07721,0.185308 -0.173466,0.320454 -0.268542,0.498721 -0.107649,0.201842 -0.189213,0.417656 -0.306905,0.613811 -0.202123,0.336871 -0.459304,0.643761 -0.690538,0.959079 -0.0818,0.111542 -0.139588,0.240742 -0.230179,0.345269 -0.07721,0.08909 -0.180138,0.152176 -0.268542,0.230179 -0.129003,0.113826 -0.251466,0.23513 -0.383631,0.345268 -0.334364,0.278637 -0.689205,0.392132 -1.074169,0.575448 -0.424315,0.202055 -0.83344,0.425748 -1.265985,0.613811 -0.153453,0.06394 -0.306905,0.127877 -0.460358,0.191815 -0.127877,0.03836 -0.259673,0.06551 -0.383632,0.11509 -0.400745,0.160298 -0.788207,0.421373 -1.150895,0.652174 -0.461746,0.293838 -0.912204,0.620824 -1.342711,0.959079 -0.0927,0.07284 -0.173469,0.160459 -0.268542,0.230179 -0.230246,0.168847 -0.491266,0.301935 -0.7289,0.460358 -0.398453,0.265636 -0.751946,0.601548 -1.189259,0.805627 -0.157164,0.07334 -0.336469,0.126915 -0.498721,0.191816 -0.126099,0.05044 -0.07133,0.05814 -0.230179,0.153452 -0.02193,0.01316 -0.05191,-0.0062 -0.07673,0 -0.218802,0.0547 -0.4267,0.159606 -0.652174,0.191816 -0.13204,0.01886 -0.253655,0.02799 -0.383632,0.07673 -0.05355,0.02008 -0.09797,0.06286 -0.153452,0.07673 -0.05786,0.01446 -0.253578,-0.01497 -0.306906,0.03836 -0.009,0.009 0.009,0.02932 0,0.03836 -0.01808,0.01808 -0.05385,-0.01144 -0.07673,0 -0.05115,0.02558 -0.105869,0.045 -0.153453,0.07673 -0.01064,0.0071 0.009,0.02932 0,0.03836 -0.02859,0.02859 -0.08144,0.01593 -0.115089,0.03836 -0.305424,0.203616 -0.682883,0.257038 -1.035806,0.345269 -0.127134,0.03178 -0.318088,0.115089 -0.460358,0.115089" />
</svg>
