<?xml version="1.0" encoding="UTF-8" standalone="no"?>
<svg
   width="54px"
   height="41px"
   viewBox="0 0 54 41"
   version="1.1"
   id="svg12"
   sodipodi:docname="ico_voucher.svg"
   inkscape:version="1.3.2 (091e20e, 2023-11-25, custom)"
   xmlns:inkscape="http://www.inkscape.org/namespaces/inkscape"
   xmlns:sodipodi="http://sodipodi.sourceforge.net/DTD/sodipodi-0.dtd"
   xmlns="http://www.w3.org/2000/svg"
   xmlns:svg="http://www.w3.org/2000/svg">
  <sodipodi:namedview
     id="namedview12"
     pagecolor="#ffffff"
     bordercolor="#000000"
     borderopacity="0.25"
     inkscape:showpageshadow="2"
     inkscape:pageopacity="0.0"
     inkscape:pagecheckerboard="0"
     inkscape:deskcolor="#d1d1d1"
     inkscape:zoom="26.777778"
     inkscape:cx="27"
     inkscape:cy="20.483402"
     inkscape:window-width="2560"
     inkscape:window-height="1369"
     inkscape:window-x="-8"
     inkscape:window-y="-8"
     inkscape:window-maximized="1"
     inkscape:current-layer="svg12" />
  <!-- Generator: Sketch 49 (51002) - http://www.bohemiancoding.com/sketch -->
  <title
     id="title1">icon/vouchers</title>
  <desc
     id="desc1">Created with Sketch.</desc>
  <defs
     id="defs1">
    <inkscape:path-effect
       effect="spiro"
       id="path-effect26"
       is_visible="true"
       lpeversion="1" />
    <inkscape:path-effect
       effect="spiro"
       id="path-effect25"
       is_visible="true"
       lpeversion="1" />
    <inkscape:path-effect
       effect="spiro"
       id="path-effect24"
       is_visible="true"
       lpeversion="1" />
    <inkscape:path-effect
       effect="spiro"
       id="path-effect23"
       is_visible="true"
       lpeversion="1" />
    <inkscape:path-effect
       effect="spiro"
       id="path-effect22"
       is_visible="true"
       lpeversion="1" />
    <inkscape:path-effect
       effect="spiro"
       id="path-effect21"
       is_visible="true"
       lpeversion="1" />
    <inkscape:path-effect
       effect="spiro"
       id="path-effect20"
       is_visible="true"
       lpeversion="1" />
    <inkscape:path-effect
       effect="spiro"
       id="path-effect19"
       is_visible="true"
       lpeversion="1" />
    <inkscape:path-effect
       effect="spiro"
       id="path-effect18"
       is_visible="true"
       lpeversion="1" />
    <inkscape:path-effect
       effect="spiro"
       id="path-effect17"
       is_visible="true"
       lpeversion="1" />
    <inkscape:path-effect
       effect="spiro"
       id="path-effect16"
       is_visible="true"
       lpeversion="1" />
    <inkscape:path-effect
       effect="spiro"
       id="path-effect15"
       is_visible="true"
       lpeversion="1" />
    <inkscape:path-effect
       effect="spiro"
       id="path-effect14"
       is_visible="true"
       lpeversion="1" />
    <inkscape:path-effect
       effect="spiro"
       id="path-effect13"
       is_visible="true"
       lpeversion="1" />
  </defs>
  <path
     style="fill:none;stroke:#ff9500;stroke-width:1.3"
     d="m 36.485477,21.099585 c 1.236355,0.466658 2.446381,1.003061 3.622407,1.605809 0.441323,0.226191 0.879431,0.462421 1.344398,0.634855 0.382182,0.141734 0.790298,0.244632 1.111751,0.495269 0.160727,0.125319 0.296339,0.288098 0.366703,0.479375 0.07036,0.191277 0.07062,0.412286 -0.02202,0.593821 -0.06685,0.130989 -0.178637,0.236297 -0.307362,0.307406 -0.128726,0.07111 -0.273858,0.109321 -0.420104,0.124781 -0.292491,0.03092 -0.585964,-0.02679 -0.878343,-0.05874 -0.705821,-0.07715 -1.419382,-0.0042 -2.128631,-0.03734 -0.640603,-0.02997 -1.275166,-0.146441 -1.9161,-0.16819 -0.640935,-0.02175 -1.307461,0.05951 -1.855684,0.392257 -0.140357,0.08519 -0.27213,0.186768 -0.378726,0.311646 -0.106596,0.124879 -0.187416,0.27408 -0.218785,0.435242 -0.02669,0.137106 -0.01826,0.283013 -0.07469,0.410788 -0.03058,0.06925 -0.07897,0.129498 -0.13395,0.181532 -0.05498,0.05203 -0.116678,0.09639 -0.178474,0.140109 -0.123592,0.08745 -0.253312,0.178511 -0.32243,0.313214 -0.04515,0.088 -0.06074,0.189042 -0.05705,0.287878 0.0037,0.09884 0.02586,0.196086 0.05285,0.291236 0.05398,0.190302 0.128424,0.381128 0.116238,0.578562 -0.0072,0.116554 -0.04485,0.229897 -0.09907,0.333324 -0.05422,0.103427 -0.124735,0.197513 -0.200378,0.286478 -0.151285,0.177931 -0.325339,0.338782 -0.447441,0.537874 -0.150059,0.244676 -0.212904,0.534491 -0.227587,0.821142 -0.01468,0.286651 0.01625,0.573387 0.04086,0.859356 0.04838,0.561986 0.0726,1.126809 0.157711,1.684415 0.08511,0.557607 0.23382,1.112613 0.514488,1.601892 0.52775,0.920008 1.466313,1.524284 2.128631,2.352698 0.06964,0.08711 0.136397,0.176902 0.214063,0.256941 0.07767,0.08004 0.167483,0.150735 0.271414,0.191191 0.03775,0.0147 0.077,0.02527 0.114758,0.03995 0.03775,0.01468 0.0746,0.03396 0.102739,0.06311 0.01407,0.01457 0.0258,0.03153 0.03349,0.05027 0.0077,0.01874 0.01128,0.03928 0.0093,0.05944 -0.002,0.02016 -0.0096,0.03989 -0.02247,0.0555 -0.01291,0.01561 -0.03119,0.02691 -0.05112,0.03049 -0.0123,0.0022 -0.02494,0.0015 -0.03734,0 -0.05888,-0.0072 -0.113802,-0.03242 -0.167776,-0.05701 -0.05397,-0.02459 -0.109296,-0.04921 -0.168324,-0.05502 -0.01495,-0.0015 -0.03026,-0.0018 -0.04444,-0.0067 -0.0071,-0.0025 -0.01384,-0.0062 -0.01929,-0.01133 -0.0055,-0.0052 -0.0096,-0.01189 -0.01097,-0.01927 -0.0012,-0.0061 -4.79e-4,-0.01246 1.65e-4,-0.01868 6.44e-4,-0.0062 0.0012,-0.01257 -1.65e-4,-0.01866 -0.0012,-0.0053 -0.0039,-0.01019 -0.0075,-0.01421 -0.0036,-0.004 -0.0082,-0.0072 -0.01318,-0.0093 -0.01,-0.0043 -0.0213,-0.0046 -0.03193,-0.0025 -0.02126,0.0042 -0.03948,0.01745 -0.0594,0.02599 -0.0347,0.01488 -0.07388,0.01528 -0.111454,0.01157 -0.03757,-0.0037 -0.07486,-0.0113 -0.112612,-0.01157 -0.05951,-4.13e-4 -0.117725,0.01741 -0.172705,0.04018 -0.05498,0.02277 -0.1078,0.05063 -0.163395,0.07185 -0.165198,0.06307 -0.34627,0.06483 -0.522822,0.07469 -0.593312,0.03313 -1.175989,0.165915 -1.755186,0.298755 -0.673936,0.154569 -1.347828,0.309898 -2.016598,0.485477 -0.648502,0.170258 -1.316252,0.361271 -1.979253,0.261411 -0.429292,-0.06466 -0.829864,-0.248107 -1.232365,-0.410789 C 27.678525,38.099453 27.227758,37.944001 26.775936,37.792545 25.352042,37.315239 23.909621,36.874489 22.556017,36.224066 22.204768,36.055287 21.8603,35.872747 21.510373,35.701245 21.100414,35.500321 20.68297,35.31455 20.278008,35.103734 19.669865,34.787146 19.091971,34.415172 18.485477,34.095436 18.026759,33.853605 17.552187,33.64198 17.06639,33.460581 16.495622,33.247454 15.903101,33.073054 15.385892,32.751037 14.553007,32.232478 13.993855,31.383963 13.33195,30.659751 12.50593,29.755975 11.500356,29.029701 10.680498,28.120332 10.221606,27.611338 9.8250912,27.049506 9.4481328,26.477178 8.9474345,25.716979 8.4741178,24.929174 7.8423237,24.273859 7.3019945,23.713414 6.6594076,23.264256 6.0497925,22.780083 5.7525521,22.544006 5.4621445,22.298704 5.1908714,22.033195 5.0650588,21.910056 4.9434589,21.782666 4.8174274,21.659751 4.4205314,21.272669 3.9665086,20.923437 3.4356846,20.763485 3.1279201,20.670747 2.7989742,20.642986 2.5082801,20.505813 c -0.145347,-0.06859 -0.2800648,-0.165631 -0.3740953,-0.29597 -0.09403,-0.130338 -0.1443304,-0.29618 -0.1175873,-0.454656 0.0021,-0.01246 0.00467,-0.02489 0.00542,-0.03751 7.539e-4,-0.01262 -3.854e-4,-0.02559 -0.00542,-0.03718 -0.00708,-0.01629 -0.021116,-0.02841 -0.03525,-0.03917 -0.014134,-0.01076 -0.029112,-0.02106 -0.039439,-0.03552 -0.011405,-0.01596 -0.016222,-0.03608 -0.015473,-0.05569 7.496e-4,-0.01961 0.0068,-0.03874 0.015473,-0.05634 0.015708,-0.03187 0.039824,-0.05893 0.066264,-0.08266 0.026441,-0.02374 0.05538,-0.0445 0.083113,-0.06671 0.208985,-0.167391 0.3413264,-0.40921 0.4854772,-0.634854 0.1957148,-0.306359 0.4246689,-0.595731 0.7095436,-0.821577 0.4352942,-0.345097 0.978008,-0.524726 1.5186489,-0.652321 0.5406409,-0.127594 1.0937559,-0.210437 1.6182805,-0.393322 0.2321092,-0.08093 0.4574571,-0.181089 0.692338,-0.253581 0.234881,-0.07249 0.4833682,-0.117013 0.7267492,-0.08252 0.2837339,0.04021 0.5411744,0.184295 0.7842323,0.3361 0.1137519,0.07105 0.2274648,0.145075 0.3542945,0.188678 0.063415,0.0218 0.1298708,0.03575 0.196919,0.03689 0.067048,0.0011 0.1347538,-0.01082 0.1956745,-0.03884 0.089767,-0.04129 0.1607885,-0.115255 0.2179552,-0.195849 0.057167,-0.08059 0.1024669,-0.168905 0.1554888,-0.252284 0.090879,-0.14291 0.2038894,-0.270494 0.2987552,-0.410789 0.334478,-0.494653 0.423762,-1.127188 0.3361,-1.717842 -0.04303,-0.289903 -0.125691,-0.572267 -0.186722,-0.858921 -0.05503,-0.258474 -0.09249,-0.520688 -0.112033,-0.784232 -0.0048,-0.425272 -0.04227,-0.850172 -0.1120338,-1.26971 C 9.852374,10.826292 9.6408689,10.129186 9.560166,9.4107884 9.5100783,8.9649191 9.5108938,8.5149053 9.5228216,8.06639 9.529857,7.801842 9.5408405,7.5364 9.587249,7.2758595 9.6336575,7.0153189 9.7167324,6.758468 9.8589212,6.5352697 9.8924023,6.4827134 9.9291277,6.4320838 9.9709544,6.3858921 10.081096,6.264256 10.225147,6.1757568 10.379589,6.1203106 c 0.154442,-0.055446 0.319186,-0.078748 0.483259,-0.081316 0.328147,-0.00514 0.651261,0.07098 0.975326,0.1228314 0.943749,0.1510023 1.922615,0.099192 2.838175,0.373444 0.734269,0.2199469 1.391428,0.6394887 2.016597,1.0829876 0.287856,0.2042065 0.574031,0.4162007 0.896266,0.5601659 0.168751,0.075393 0.351052,0.1345614 0.485477,0.2614108 0.10928,0.1031212 0.17943,0.2447896 0.298755,0.3360996 0.101952,0.078016 0.231335,0.1125262 0.3361,0.186722 0.08639,0.061182 0.152099,0.1464315 0.224066,0.2240664 0.139399,0.1503778 0.305657,0.2749039 0.485477,0.373444 0.125087,0.068547 0.257674,0.1252813 0.371756,0.2109005 0.05704,0.04281 0.1092,0.092873 0.149554,0.151677 0.04035,0.058804 0.06863,0.1266735 0.0762,0.1975885 0.0016,0.01481 0.0023,0.02993 0.0074,0.04393 0.0025,0.007 0.0062,0.01366 0.01123,0.01914 0.005,0.0055 0.0115,0.0098 0.01871,0.01162 0.0061,0.0016 0.0124,0.0014 0.01863,9.28e-4 0.0062,-4.77e-4 0.01247,-0.0013 0.01871,-9.28e-4 0.01522,8.23e-4 0.02962,0.0085 0.04025,0.01939 0.01063,0.01092 0.01773,0.02492 0.02218,0.0395 0.0089,0.02916 0.0076,0.06035 0.01225,0.09049 0.01034,0.0674 0.0501,0.127349 0.09883,0.175047 0.04873,0.0477 0.106504,0.08491 0.162577,0.123709 0.391812,0.271136 0.712703,0.630099 1.045643,0.970954 0.08611,0.08816 0.173255,0.175302 0.261411,0.261411"
     id="path13"
     inkscape:path-effect="#path-effect13"
     inkscape:original-d="m 36.485477,21.099585 c 1.156843,0.636794 2.418784,1.067346 3.622407,1.605809 0.45238,0.202381 0.916322,0.385144 1.344398,0.634855 0.152044,0.08869 1.674471,1.10513 1.456432,1.568465 -0.21264,0.45186 -1.575959,0.37278 -1.605809,0.373444 -0.709478,0.01577 -1.419079,-0.02542 -2.128631,-0.03734 -1.315379,-0.02211 -2.509731,-0.188528 -3.771784,0.224067 -0.459481,0.150215 -0.508932,0.370428 -0.597511,0.746888 -0.0096,0.04099 -0.03638,0.334171 -0.07469,0.410788 -0.09855,0.197103 -0.491666,0.377116 -0.634854,0.634855 -0.205492,0.369885 0.244081,0.787942 0.112033,1.157676 -0.138036,0.3865 -0.570427,0.709738 -0.746888,1.157676 -0.231478,0.587599 -0.236495,1.040561 -0.186722,1.680498 0.09512,1.222939 0.01033,2.274044 0.672199,3.286307 0.445666,0.681607 1.620319,1.844386 2.128631,2.352698 0.155726,0.155726 0.329751,0.292406 0.485477,0.448132 0.08304,0.08304 0.269761,0.215716 0.186722,0.298756 -0.0088,0.0088 -0.02553,-0.0039 -0.03734,0 -0.248766,0.08292 -0.15399,-0.02098 -0.3361,-0.112034 -0.05151,-0.02576 -0.0334,0.04523 -0.07469,-0.03734 -0.0056,-0.01113 0.0088,-0.02854 0,-0.03734 -0.0099,-0.0099 -0.09666,0 -0.112033,0 -0.07469,0 -0.15129,-0.0168 -0.224066,0 -0.11507,0.02655 -0.220702,0.08695 -0.3361,0.112033 -0.172025,0.0374 -0.348652,0.04907 -0.522822,0.07469 -0.586703,0.08628 -1.175809,0.170004 -1.755186,0.298755 -0.67494,0.149986 -1.344285,0.324122 -2.016598,0.485477 -0.629422,0.151061 -1.320269,0.349275 -1.979253,0.261411 -0.400225,-0.05336 -0.86803,-0.27585 -1.232365,-0.410789 -0.446796,-0.16548 -0.894387,-0.328951 -1.344398,-0.485477 -1.419266,-0.493671 -2.8457,-0.953156 -4.219919,-1.568479 C 22.200354,36.064815 21.86006,35.873222 21.510373,35.701245 21.10071,35.499771 20.684791,35.310963 20.278008,35.103734 19.666919,34.792425 19.092664,34.412229 18.485477,34.095436 18.032163,33.858924 17.54585,33.633719 17.06639,33.460581 16.669366,33.317211 15.733811,33.098956 15.385892,32.751037 14.692543,32.057688 14.060188,31.320245 13.33195,30.659751 12.442696,29.853219 11.427404,29.068328 10.680498,28.120332 10.256789,27.582547 9.8438708,27.035867 9.4481328,26.477178 8.9360769,25.754276 8.491523,24.89656 7.8423237,24.273859 7.2207159,23.677623 6.6786187,23.296619 6.0497925,22.780083 5.8158056,22.587879 5.422197,22.252954 5.1908714,22.033195 5.0632402,21.911945 4.9558534,21.768514 4.8174274,21.659751 4.6267067,21.509899 3.6309832,20.884385 3.4356846,20.763485 3.1753701,20.602338 2.2330489,20.115939 2.0165975,19.755187 c -0.012809,-0.02135 0.011134,-0.05242 0,-0.07469 -0.015746,-0.03149 -0.058943,-0.0432 -0.074689,-0.07469 -0.016701,-0.0334 -0.023329,-0.08287 0,-0.112033 0.043989,-0.05499 0.1047867,-0.09488 0.1493776,-0.149378 0.1686956,-0.206183 0.3240263,-0.42295 0.4854772,-0.634854 0.2342285,-0.307425 0.3831016,-0.588404 0.7095436,-0.821577 0.7782795,-0.555914 2.2763789,-0.820576 3.1369294,-1.045643 0.4446234,-0.116286 0.9539773,-0.266333 1.4190872,-0.3361 0.3385073,-0.05078 0.500496,0.178468 0.7842323,0.3361 0.1128022,0.06267 0.5948353,0.273609 0.746888,0.186722 0.1033435,-0.05905 0.3441064,-0.408318 0.373444,-0.448133 0.1004362,-0.136306 0.2283617,-0.256803 0.2987552,-0.410789 0.261957,-0.573031 0.391956,-1.089458 0.3361,-1.717842 -0.02594,-0.291843 -0.13431,-0.570653 -0.186722,-0.858921 -0.04724,-0.259805 -0.07845,-0.522311 -0.112033,-0.784232 -0.09641,-0.417833 -0.06091,-0.847916 -0.1120338,-1.26971 C 9.8838316,10.820656 9.6577354,10.126298 9.560166,9.4107884 9.4946466,8.9303126 9.5228216,8.5937412 9.5228216,8.06639 c 0,-0.5943038 -0.039226,-1.0485591 0.3360996,-1.5311203 0.038212,-0.04913 0.059025,-0.1167574 0.1120332,-0.1493776 0.5174556,-0.3184342 1.3039306,-0.2351113 1.8672196,-0.2240664 0.968512,0.018991 1.903208,0.1063106 2.838175,0.373444 0.749887,0.2142537 1.357582,0.6875784 2.016597,1.0829876 0.3021,0.1812601 0.594165,0.3789058 0.896266,0.5601659 0.157602,0.094562 0.327058,0.1682233 0.485477,0.2614108 0.166739,0.098082 0.168664,0.2222701 0.298755,0.3360996 0.167763,0.1467929 0.198384,0.1178643 0.3361,0.186722 0.07768,0.038842 0.162212,0.1710487 0.224066,0.2240664 0.154151,0.1321299 0.334628,0.2376797 0.485477,0.373444 0.202926,0.1826333 0.404464,0.3671195 0.597511,0.560166 0.01968,0.01968 0.01766,0.05501 0.03734,0.07469 0.0088,0.0088 0.02988,-0.01 0.03734,0 0.0334,0.04454 0.04233,0.104077 0.07469,0.149377 0.07691,0.107678 0.173499,0.199854 0.261411,0.298756 0.31757,0.357266 0.707774,0.633085 1.045643,0.970954 0.02819,0.02819 0.261411,0.217887 0.261411,0.261411" />
  <path
     style="fill:none;stroke:#ff9500;stroke-width:1.3"
     d="m 12.697095,25.020747 c -0.116367,-0.120881 -0.199766,-0.273195 -0.238923,-0.436351 -0.03916,-0.163157 -0.03397,-0.336731 0.01486,-0.497259 0.05682,-0.186802 0.169283,-0.35067 0.261411,-0.522822 0.07485,-0.139863 0.137686,-0.289932 0.149377,-0.448132 0.0046,-0.06281 0.0011,-0.125916 0.0029,-0.188867 0.0018,-0.06295 0.0092,-0.126851 0.0344,-0.184577 0.02309,-0.05294 0.06021,-0.09858 0.100452,-0.140018 0.04024,-0.04143 0.08401,-0.07936 0.123614,-0.121393 0.175964,-0.186751 0.260865,-0.455604 0.224067,-0.709544"
     id="path14"
     inkscape:path-effect="#path-effect14"
     inkscape:original-d="m 12.697095,25.020747 c -0.07099,-0.305036 -0.289191,-0.607986 -0.224066,-0.93361 0.07305,-0.365243 0.112541,-0.225083 0.261411,-0.522822 0.07042,-0.140834 0.118497,-0.293732 0.149377,-0.448132 0.0276,-0.138014 -0.01709,-0.237357 0.03735,-0.373444 0.04627,-0.115682 0.157636,-0.161766 0.224066,-0.261411 0.129193,-0.19379 0.167936,-0.485021 0.224067,-0.709544" />
  <path
     style="fill:none;stroke:#ff9500;stroke-width:1.3"
     d="m 15.647303,10.680498 c 0.01049,0.06165 0.01049,0.125072 0,0.186722 -0.01625,0.09548 -0.05742,0.185644 -0.111885,0.26573 -0.05446,0.08009 -0.122019,0.150552 -0.19406,0.215282 -0.144083,0.129461 -0.307366,0.237635 -0.440943,0.377909 -0.109212,0.114688 -0.198808,0.254447 -0.224066,0.410788 -0.02386,0.147713 0.01089,0.298902 0,0.448133 -0.01084,0.148571 -0.06656,0.290296 -0.132876,0.423684 -0.06632,0.133388 -0.143898,0.26125 -0.203224,0.397893 -0.126597,0.291582 -0.16605,0.620355 -0.112033,0.93361"
     id="path15"
     inkscape:path-effect="#path-effect15"
     inkscape:original-d="m 15.647303,10.680498 c 0,0.06224 0.0135,0.125963 0,0.186722 -0.08714,0.392145 -0.531735,0.561017 -0.746888,0.858921 -0.09132,0.126445 -0.1693,0.264745 -0.224066,0.410788 -0.04952,0.132054 0.04064,0.312669 0,0.448133 -0.08502,0.28341 -0.24592,0.539765 -0.3361,0.821577 -0.09456,0.295506 -0.112033,0.62574 -0.112033,0.93361" />
  <path
     style="fill:none;stroke:#ff9500;stroke-width:1.3"
     d="m 12.547718,19.456432 c 0.792,-0.08968 1.539782,-0.518964 2.016597,-1.157677 0.123997,-0.166099 0.229944,-0.34479 0.3361,-0.522821 0.111521,-0.187028 0.223555,-0.373751 0.3361,-0.560166"
     id="path16"
     inkscape:path-effect="#path-effect16"
     inkscape:original-d="m 12.547718,19.456432 c 0.820106,0.01966 1.560754,-0.506472 2.016597,-1.157677 0.118809,-0.169727 0.219389,-0.351645 0.3361,-0.522821 0.09253,-0.135711 0.3361,-0.357942 0.3361,-0.560166" />
  <path
     style="fill:none;stroke:#ff9500;stroke-width:1.3"
     d="m 24.647303,31.929461 c -0.183457,-0.07663 -0.339208,-0.217778 -0.433468,-0.392832 -0.09426,-0.175053 -0.126365,-0.382781 -0.08935,-0.578123 0.02765,-0.145929 0.09261,-0.283632 0.180639,-0.40326 0.08803,-0.119627 0.198747,-0.221576 0.320253,-0.306994 0.24301,-0.170838 0.525706,-0.274835 0.806162,-0.372733 0.211716,-0.0739 0.430577,-0.149029 0.597511,-0.298756 0.05964,-0.05349 0.113443,-0.116986 0.186722,-0.149377 0.04705,-0.0208 0.09894,-0.02721 0.149377,-0.03734 0.104727,-0.02102 0.206029,-0.05901 0.298755,-0.112033"
     id="path17"
     inkscape:path-effect="#path-effect17"
     inkscape:original-d="m 24.647303,31.929461 c -0.07135,-0.202113 -0.568535,-0.803338 -0.522822,-0.970955 0.138483,-0.507771 0.89551,-0.870578 1.307054,-1.082987 0.197877,-0.10213 0.404171,-0.188276 0.597511,-0.298756 0.06921,-0.03955 0.117045,-0.110668 0.186722,-0.149377 0.04487,-0.02493 0.101723,-0.01828 0.149377,-0.03734 0.307918,-0.123167 0.122201,-0.112033 0.298755,-0.112033" />
  <path
     style="fill:none;stroke:#ff9500;stroke-width:1.3"
     d="m 28.008299,27.037344 c 0.308233,-0.222142 0.59613,-0.472488 0.858921,-0.746888 0.158839,-0.165857 0.30852,-0.340484 0.448133,-0.522821"
     id="path18"
     inkscape:path-effect="#path-effect18"
     inkscape:original-d="m 28.008299,27.037344 c 0.218619,-0.33343 0.607528,-0.456819 0.858921,-0.746888 0.55696,-0.642646 0.09141,-0.166096 0.448133,-0.522821" />
  <path
     style="fill:none;stroke:#ff9500;stroke-width:1.3"
     d="m 31.369295,25.319502 c 0.162098,-0.214011 0.288809,-0.454762 0.373444,-0.709543 0.178309,-0.536774 0.166428,-1.117505 0.112033,-1.680498 -0.01084,-0.112204 -0.02329,-0.224253 -0.03735,-0.3361"
     id="path19"
     inkscape:path-effect="#path-effect19"
     inkscape:original-d="m 31.369295,25.319502 c 0.06935,-0.262744 0.280616,-0.458909 0.373444,-0.709543 0.135213,-0.365078 0.151377,-1.287054 0.112033,-1.680498 -0.01248,-0.124749 -0.03735,-0.21036 -0.03735,-0.3361" />
  <path
     style="fill:none;stroke:#1c1f30;stroke-width:1.3;stroke-opacity:1"
     d="m 18.149378,21.771784 c 0.07399,-0.01255 0.150081,-0.01255 0.224066,0 0.144005,0.02442 0.275319,0.09477 0.410788,0.149378 0.433909,0.174909 0.913913,0.189012 1.381743,0.186722 0.735631,-0.0036 1.471029,-0.04192 2.20332,-0.112033 1.341005,-0.128393 2.669272,-0.363055 3.99585,-0.597511 0.560266,-0.09902 1.120533,-0.198045 1.680498,-0.298755 0.850766,-0.153011 1.701592,-0.310077 2.539419,-0.522822 0.278841,-0.0708 0.557141,-0.148101 0.821577,-0.26141 0.215005,-0.09213 0.419482,-0.207492 0.634855,-0.298755 0.492146,-0.208544 1.034564,-0.286866 1.568465,-0.261411 0.527844,0.02517 1.045377,0.149016 1.568464,0.224066 0.608456,0.0873 1.226104,0.108742 1.829876,0.224067 0.753929,0.144006 1.478385,0.432953 2.240664,0.522821 0.285445,0.03365 0.573723,0.03901 0.858921,0.07469 0.349561,0.04373 0.693742,0.132909 1.045643,0.149377 0.187237,0.0088 0.377112,-0.003 0.560166,0.03735 0.15066,0.03319 0.294243,0.101199 0.448133,0.112033 0.09942,0.007 0.199622,-0.01028 0.298755,0 0.06318,0.0065 0.124592,0.02416 0.186722,0.03734 0.183993,0.03904 0.376173,0.03904 0.560166,0 0.06095,0.05306 0.143471,0.08057 0.224066,0.07469 0.01878,-0.0014 0.03741,-0.0045 0.0562,-0.0057 0.01879,-0.0012 0.03802,-4.46e-4 0.05583,0.0057 0.02977,0.01022 0.05245,0.03409 0.07414,0.05689 0.01085,0.0114 0.0218,0.02278 0.03409,0.0326 0.0123,0.0098 0.02605,0.01809 0.04115,0.02254 0.01801,0.0053 0.03717,0.005 0.05588,0.0035 0.01871,-0.0015 0.0374,-0.0042 0.05616,-0.0035 0.03376,0.0013 0.06614,0.0137 0.09643,0.02868 0.03029,0.01498 0.05922,0.03272 0.09029,0.04601 0.05792,0.02478 0.121532,0.03333 0.184478,0.03584 0.06295,0.0025 0.126011,-7.82e-4 0.188966,0.0015 0.264391,0.0096 0.519713,0.116864 0.784233,0.112033 0.112386,-0.0021 0.226349,-0.02429 0.336099,0 0.07694,0.01703 0.147476,0.05616 0.224067,0.07469 0.08565,0.02072 0.176163,0.01503 0.26141,0.03734 0.09184,0.02404 0.172356,0.07914 0.261411,0.112033 0.08,0.02955 0.165367,0.04066 0.248948,0.05758 0.08358,0.01693 0.168118,0.04088 0.236529,0.09179 0.01812,0.01349 0.03489,0.02872 0.05288,0.04238 0.01799,0.01366 0.03749,0.02588 0.05915,0.03231 0.03608,0.0107 0.07467,0.0045 0.112033,0 0.303634,-0.03679 0.609838,0.04211 0.896265,0.149377 0.06278,0.02351 0.125044,0.04842 0.186722,0.07469 0.122336,0.04405 0.247061,0.08147 0.373444,0.112033 0.173246,0.0419 0.349397,0.07088 0.522822,0.112033 0.235023,0.05577 0.464577,0.13377 0.701152,0.182536 0.236574,0.04877 0.484818,0.06745 0.717935,0.0042 0.106957,-0.02903 0.208524,-0.07467 0.312263,-0.113663 0.10374,-0.03899 0.211775,-0.07172 0.322592,-0.07306 0.08852,-0.0011 0.176746,0.01793 0.265085,0.01215 0.04417,-0.0029 0.08843,-0.01219 0.127845,-0.03234 0.03941,-0.02015 0.07379,-0.05175 0.09255,-0.09184 0.01611,-0.03445 0.02014,-0.07352 0.01789,-0.111486 -0.0022,-0.03796 -0.01048,-0.07528 -0.01789,-0.11258 -0.08786,-0.442583 -0.06151,-0.901817 -0.149378,-1.344399 -0.113387,-0.571152 -0.410119,-1.085823 -0.672199,-1.605809 -0.390992,-0.775758 -0.712897,-1.585448 -1.120332,-2.352697 -0.264386,-0.497871 -0.563856,-0.976106 -0.858921,-1.456431 -0.235607,-0.383535 -0.47425,-0.784872 -0.522822,-1.232365 -0.03982,-0.366867 0.05325,-0.73841 0.206752,-1.073989 0.153505,-0.335579 0.365749,-0.640374 0.577481,-0.942609 0.09161,-0.130772 0.184093,-0.262327 0.298755,-0.373444 0.114548,-0.111006 0.248782,-0.199242 0.373444,-0.298755 0.130925,-0.104512 0.251282,-0.221468 0.373444,-0.3361 0.322091,-0.302239 0.658212,-0.589608 1.008299,-0.858921 0.367094,-0.2823961 0.75004,-0.5453677 1.09631,-0.8529433 0.34627,-0.3075756 0.658356,-0.6653546 0.845598,-1.0889653 0.175636,-0.3973531 0.2346,-0.8360983 0.261411,-1.2697095 C 53.213102,6.4598726 53.196955,5.894404 53.103733,5.340247 53.056539,5.0597015 52.989259,4.7812016 52.879667,4.5186702 52.853834,4.4567867 52.825638,4.3957449 52.804977,4.3319482 52.770008,4.2239725 52.75722,4.1088665 52.767637,3.9958486 52.743984,3.8711228 52.719086,3.7466332 52.692947,3.6224046 52.604372,3.2014363 52.500464,2.780314 52.319502,2.3900415 52.197612,2.1271669 52.041297,1.8794691 51.946058,1.6058091 51.898837,1.4701239 51.86716,1.3294423 51.820476,1.1935713 51.773792,1.0577003 51.710352,0.92434586 51.609959,0.82157676 c -0.08033,-0.0822278 -0.182113,-0.1420948 -0.290816,-0.1794765 -0.108704,-0.0373817 -0.224249,-0.0527675 -0.3392,-0.052714 -0.229903,1.0691e-4 -0.454937,0.060773 -0.677038,0.12015733 -0.738553,0.19747117 -1.480493,0.38590413 -2.20332,0.63485473 -1.054748,0.3632683 -2.060931,0.8526292 -3.062241,1.3443984 -1.675824,0.8230405 -3.381446,1.6676362 -5.228215,1.9419087 -0.371336,0.055149 -0.745779,0.086704 -1.120332,0.1120332 -0.559653,0.037847 -1.122981,0.061793 -1.680498,0 C 36.053064,4.6368639 35.144693,4.2833673 34.207469,4.0705394 33.836069,3.9862006 33.460027,3.9239573 33.087137,3.846473 32.58453,3.7420343 32.088093,3.6100011 31.593361,3.473029 30.676552,3.2192005 29.763143,2.94782 28.829876,2.7634855 28.060819,2.611585 27.280536,2.519271 26.514523,2.3526971 25.556616,2.1443947 24.617185,1.8195134 23.639004,1.7551867 23.02998,1.7151364 22.416573,1.7772149 21.809129,1.7178427 21.597048,1.6971137 21.386562,1.6616436 21.174274,1.6431537 20.651169,1.5975922 20.116123,1.6547908 19.605809,1.5311205 19.36471,1.4726922 19.133269,1.374627 18.888281,1.3355993 18.765786,1.3160854 18.639874,1.3116928 18.518035,1.33495 c -0.121839,0.023257 -0.239687,0.075218 -0.331313,0.1588265 -0.07742,0.07065 -0.134162,0.1618023 -0.17475,0.2584388 -0.04059,0.096636 -0.06571,0.1990289 -0.08666,0.3017272 -0.05261,0.2578618 -0.07988,0.524518 -0.03734,0.7842324 0.03126,0.1908293 0.09935,0.3733763 0.149377,0.5601659 0.04928,0.1840161 0.08102,0.3722069 0.112034,0.560166 0.08769,0.5314271 0.171634,1.0690883 0.373444,1.5684648 0.219273,0.5425892 0.574546,1.0262221 1.008298,1.4190871 0.1372,0.1242672 0.282476,0.2400195 0.410789,0.373444 0.152786,0.1588733 0.280776,0.3420328 0.448132,0.4854772 0.136472,0.116973 0.295267,0.2042076 0.448133,0.2987551 0.299798,0.1854245 0.581226,0.4020186 0.896266,0.560166 0.204984,0.1029 0.426829,0.1828805 0.597506,0.336099 0.119204,0.1070104 0.207036,0.2445954 0.28013,0.3871368 0.07309,0.1425415 0.13288,0.2915786 0.205347,0.43444 0.144073,0.2840262 0.340028,0.5484042 0.410789,0.8589212 0.05113,0.224378 0.0309,0.467721 -0.07469,0.672199 -0.07781,0.150682 -0.197413,0.274813 -0.298755,0.410788 -0.08688,0.116573 -0.160749,0.242568 -0.224067,0.373444 -0.08496,0.175614 -0.151808,0.361433 -0.26141,0.522822 -0.0896,0.131936 -0.205514,0.244056 -0.298756,0.373444 -0.06868,0.0953 -0.124465,0.19914 -0.186722,0.298755 -0.276322,0.442136 -0.673654,0.792352 -1.045643,1.157677 -0.333021,0.327055 -0.650273,0.671477 -1.008298,0.970954 -0.355308,0.297204 -0.747172,0.547121 -1.120332,0.821577 -0.1568,0.115325 -0.310849,0.235462 -0.448133,0.373444 -0.08102,0.08143 -0.155984,0.168889 -0.224067,0.26141 -0.0042,0.0378 -0.0216,0.074 -0.04849,0.100889 -0.02689,0.02689 -0.06309,0.04429 -0.100889,0.04849 -0.0124,0.0014 -0.02494,0.0014 -0.03734,0 -0.01261,0.01228 -0.02506,0.02473 -0.03734,0.03734 -0.13062,0.134094 -0.242193,0.286194 -0.3361,0.448133 -0.209887,0.361941 -0.331455,0.776653 -0.336099,1.195021 -0.0011,0.09959 0.0043,0.199251 0,0.298755 -0.006,0.139479 -0.03124,0.278115 -0.07469,0.410789 0.04476,0.172122 0.03142,0.358807 -0.03734,0.522821 -0.05494,0.131051 -0.144024,0.248125 -0.179239,0.385795 -0.01761,0.06883 -0.02079,0.142846 0.0018,0.21022 0.01128,0.03369 0.02895,0.06537 0.05277,0.09173 0.02382,0.02635 0.05387,0.04728 0.08735,0.05915 0.03791,0.01344 0.07883,0.01504 0.118432,0.02208 0.0198,0.0035 0.03948,0.0085 0.05779,0.01676 0.01832,0.0083 0.0353,0.02012 0.04784,0.03584 0.01146,0.01436 0.01891,0.03152 0.02971,0.04639 0.0054,0.0074 0.01168,0.01433 0.01926,0.01953 0.0076,0.0052 0.01653,0.0086 0.02572,0.0088 0.0067,1.04e-4 0.01324,-0.0015 0.01959,-0.0035 0.0064,-0.002 0.01259,-0.0044 0.01905,-0.006 0.0065,-0.0016 0.01326,-0.0024 0.01979,-0.0011 0.0033,6.58e-4 0.0064,0.0018 0.0093,0.0036 0.0028,0.0018 0.0053,0.0042 0.007,0.007 0.0033,0.0054 0.0038,0.01217 0.0031,0.0185 -6.68e-4,0.0063 -0.0024,0.01251 -0.0031,0.01884 -0.002,0.01701 0.0034,0.03443 0.013,0.04858 0.0097,0.01415 0.02339,0.02518 0.03845,0.03334 0.03012,0.01631 0.06482,0.02132 0.09792,0.03012 0.107305,0.02851 0.200728,0.09886 0.268878,0.18651 0.06815,0.08765 0.112448,0.191919 0.14191,0.298967 0.01793,0.06516 0.03191,0.1344 0.07469,0.186722 0.0363,0.0444 0.09207,0.07229 0.149378,0.07469 z"
     id="path20"
     inkscape:path-effect="#path-effect20"
     inkscape:original-d="m 18.149378,21.771784 c 0.07469,0 0.151363,-0.01711 0.224066,0 0.141828,0.03337 0.270221,0.111041 0.410788,0.149378 0.294837,0.08041 1.294342,0.181775 1.381743,0.186722 0.800037,0.04528 1.397834,-0.02253 2.20332,-0.112033 1.612868,-0.179208 2.21059,-0.294654 3.99585,-0.597511 0.560935,-0.09516 1.119474,-0.204124 1.680498,-0.298755 1.606027,-0.270896 1.113604,-0.111529 2.539419,-0.522822 0.276129,-0.07965 0.553345,-0.158244 0.821577,-0.26141 0.21829,-0.08396 0.418746,-0.209331 0.634855,-0.298755 0.436476,-0.180611 1.100021,-0.301794 1.568465,-0.261411 0.526177,0.04536 1.044413,0.15856 1.568464,0.224066 0.956522,0.119565 1.006136,0.06389 1.829876,0.224067 0.756576,0.147112 1.47298,0.422688 2.240664,0.522821 0.601857,0.0785 0.22821,-0.0041 0.858921,0.07469 1.035741,0.129468 -0.218548,0.02704 1.045643,0.149377 0.186266,0.01803 0.37505,0.0099 0.560166,0.03735 0.152312,0.02257 0.295861,0.08919 0.448133,0.112033 0.09848,0.01477 0.199463,-0.0076 0.298755,0 0.06329,0.0049 0.123637,0.03033 0.186722,0.03734 0.184445,0.02049 0.375721,-0.02049 0.560166,0 0.09636,-0.03862 0.146866,0.05925 0.224066,0.07469 0.03662,0.0073 0.07771,-0.01471 0.112033,0 0.05721,0.02452 0.09217,0.08752 0.149378,0.112033 0.03433,0.01471 0.0752,-0.0061 0.112033,0 0.155419,0.0259 0.06482,0.03405 0.186722,0.07469 0.118683,0.03956 0.249726,0.01879 0.373444,0.03734 0.431273,0.06469 0.364531,0.08994 0.784233,0.112033 0.111878,0.0059 0.225049,-0.01481 0.336099,0 0.07804,0.0104 0.147354,0.05699 0.224067,0.07469 0.08577,0.01979 0.176775,0.01316 0.26141,0.03734 0.09116,0.02604 0.172132,0.08015 0.261411,0.112033 0.158714,0.05668 0.330418,0.08046 0.485477,0.149378 0.04101,0.01823 0.06945,0.0605 0.112034,0.07469 0.03543,0.01181 0.07492,-0.0041 0.112033,0 0.288676,0.03208 0.616188,0.07299 0.896265,0.149377 0.06467,0.01764 0.124482,0.04979 0.186722,0.07469 0.124482,0.03734 0.247362,0.08051 0.373444,0.112033 0.172909,0.04323 0.348836,0.07337 0.522822,0.112033 0.45814,0.101809 0.941091,0.250455 1.419087,0.186722 0.227656,-0.03035 0.414008,-0.142552 0.634855,-0.186722 0.116648,-0.02333 0.390207,-0.01676 0.485477,-0.112033 0.01659,-0.01659 0,-0.215178 0,-0.224066 0,-0.498618 0.0083,-0.846982 -0.149378,-1.344399 -0.05612,-0.176982 -0.592168,-1.422208 -0.672199,-1.605809 -0.346678,-0.795321 -0.714203,-1.585565 -1.120332,-2.352697 -0.264115,-0.498884 -0.587059,-0.962137 -0.858921,-1.456431 -0.211604,-0.384735 -0.375283,-0.819258 -0.522822,-1.232365 -0.300239,-0.84067 0.262645,-1.397212 0.784233,-2.016598 0.102684,-0.121937 0.186032,-0.260721 0.298755,-0.373444 0.112723,-0.112723 0.25198,-0.195511 0.373444,-0.298755 0.127604,-0.108463 0.248637,-0.22443 0.373444,-0.3361 0.328697,-0.294097 0.650082,-0.600209 1.008299,-0.858921 0.807956,-0.5835239 1.45078,-1.0298135 1.941908,-1.9419086 0.206862,-0.3841708 0.234954,-0.8464005 0.261411,-1.2697095 0.05043,-0.8068558 0.07005,-0.7879486 -0.07469,-1.6804979 -0.04544,-0.2802009 -0.139397,-0.5506371 -0.224066,-0.8215768 -0.02,-0.063984 -0.06064,-0.1211748 -0.07469,-0.186722 -0.02362,-0.1102205 -0.0249,-0.2240664 -0.03734,-0.3360996 -0.0249,-0.1244813 -0.04529,-0.2499496 -0.07469,-0.373444 C 52.618502,3.309742 52.394722,2.5867713 52.319502,2.3900415 51.694279,0.75484178 52.417501,2.8854403 51.946058,1.6058091 51.883207,1.4352125 51.790826,0.94215512 51.609959,0.82157676 51.316031,0.6256253 50.525707,0.68584114 50.302905,0.70954357 49.430655,0.80233603 48.941506,1.0176826 48.099585,1.3443983 46.83511,1.8350902 46.36568,2.082026 45.037344,2.6887967 c -1.675858,0.7655155 -3.401512,1.6046712 -5.228215,1.9419087 -0.36907,0.068136 -0.745885,0.086647 -1.120332,0.1120332 -0.393741,0.026694 -1.213456,0.069559 -1.680498,0 C 35.666815,4.5429432 35.690244,4.4312146 34.207469,4.0705394 33.837419,3.9805274 33.460581,3.9211618 33.087137,3.846473 32.589212,3.7219917 32.090846,3.5992567 31.593361,3.473029 30.672661,3.2394185 29.755045,2.9786411 28.829876,2.7634855 28.065032,2.5856149 27.283654,2.500607 26.514523,2.3526971 25.554906,2.1681555 24.608283,1.8816143 23.639004,1.7551867 c -0.734969,-0.095866 -0.720007,0.00229 -1.829875,-0.037344 -0.212942,-0.00761 -0.422708,-0.0548 -0.634855,-0.074689 -0.520319,-0.04878 -1.046839,-0.079432 -1.568465,-0.1120332 -0.436441,-0.027278 -0.976831,-0.086484 -1.419087,-0.037344 -0.292033,0.032448 -0.245982,0.3441628 -0.261411,0.560166 -0.02047,0.2865824 -0.08157,0.4857373 -0.03734,0.7842324 0.02832,0.1911606 0.105466,0.3719741 0.149377,0.5601659 0.04327,0.1854387 0.07469,0.373444 0.112034,0.560166 0.10118,0.5059003 0.170882,1.0896825 0.373444,1.5684648 0.214593,0.5072203 0.632345,1.0260446 1.008298,1.4190871 0.127914,0.1337283 0.279935,0.2425905 0.410789,0.373444 0.155726,0.1557261 0.282393,0.3404547 0.448132,0.4854772 0.13511,0.118221 0.298756,0.1991701 0.448133,0.2987551 0.513748,0.3424982 0.36846,0.2585627 0.896266,0.560166 C 21.932848,8.7772768 22.153508,8.8572463 22.33195,9 c 0.08257,0.066054 0.42936,0.7261768 0.485477,0.8215768 0.159923,0.2718672 0.375416,0.5405662 0.410789,0.8589212 0.01929,0.173636 -0.011,0.51934 -0.07469,0.672199 -0.05677,0.136242 -0.214795,0.290845 -0.298755,0.410788 -0.08325,0.118927 -0.153566,0.246544 -0.224067,0.373444 -0.09649,0.173691 -0.146068,0.358047 -0.26141,0.522822 -0.09142,0.130597 -0.208016,0.242375 -0.298756,0.373444 -0.06685,0.09656 -0.119876,0.202201 -0.186722,0.298755 -0.298166,0.430685 -0.694562,0.77468 -1.045643,1.157677 -0.312873,0.341316 -0.658518,0.664896 -1.008298,0.970954 -0.347955,0.30446 -0.749949,0.552207 -1.120332,0.821577 -0.157256,0.114367 -0.310639,0.23595 -0.448133,0.373444 -0.247264,0.247263 0.01984,0.05816 -0.224067,0.26141 -0.412936,0.275292 0.08029,-0.08029 -0.149377,0.149378 -0.0088,0.0088 -0.0249,0 -0.03734,0 -0.01245,0.01245 -0.02678,0.02326 -0.03734,0.03734 -0.106215,0.141621 -0.257733,0.291401 -0.3361,0.448133 -0.181837,0.363675 -0.310535,0.78599 -0.336099,1.195021 -0.0062,0.09939 0.01042,0.199717 0,0.298755 -0.01457,0.13841 -0.04979,0.273859 -0.07469,0.410789 -0.01245,0.174273 -0.02078,0.34889 -0.03734,0.522821 -0.01553,0.16305 -0.09046,0.587558 -0.03735,0.746888 0.01735,0.05205 0.190198,0.05437 0.224067,0.07469 0.03019,0.01811 0.0432,0.05894 0.07469,0.07469 0.02227,0.01113 0.05242,-0.01113 0.07469,0 0.01113,0.0056 -0.0088,0.02854 0,0.03734 0.04401,0.04401 0.105367,0.06802 0.149378,0.112033 0.151631,0.151632 0.28295,0.315026 0.410788,0.485477 0.04022,0.05363 0.02729,0.139321 0.07469,0.186722 0.03936,0.03937 0.09959,0.04979 0.149378,0.07469 z"
     transform="matrix(1.0060574,0,0,0.99982694,-0.32413327,0.00201286)" />
  <path
     style="fill:none;stroke:#1c1f30;stroke-width:1.3;stroke-opacity:1"
     d="m 26.962656,18.746888 c -0.372916,-0.564795 -0.445186,-1.316405 -0.186722,-1.941909 0.102731,-0.248618 0.254917,-0.481478 0.298755,-0.746888 0.03459,-0.209425 -0.0011,-0.426093 0.03734,-0.634854 0.01934,-0.10515 0.05746,-0.206817 0.112033,-0.298756"
     id="path21"
     inkscape:path-effect="#path-effect21"
     inkscape:original-d="m 26.962656,18.746888 c -0.0486,-0.616722 -0.351313,-1.310979 -0.186722,-1.941909 0.272284,-1.043757 0.09025,-0.06924 0.298755,-0.746888 0.06776,-0.220227 -0.0063,-0.416418 0.03734,-0.634854 0.02086,-0.104292 0.07469,-0.199171 0.112033,-0.298756" />
  <path
     style="fill:none;stroke:#1c1f30;stroke-width:1.3;stroke-opacity:1"
     d="m 28.195021,11.80083 c 0.0015,-0.07468 0.0015,-0.149388 0,-0.224067 -0.01069,-0.536014 -0.09802,-1.070196 -0.07469,-1.6058086 C 28.134516,9.6453342 28.189475,9.3230947 28.232365,9 c 0.0313,-0.235782 0.05621,-0.4724123 0.07469,-0.7095436"
     id="path22"
     inkscape:path-effect="#path-effect22"
     inkscape:original-d="m 28.195021,11.80083 c 0,-0.07469 0.0041,-0.149493 0,-0.224067 -0.02989,-0.537916 -0.0972,-1.065475 -0.07469,-1.6058086 C 28.153296,9.1798213 28.142102,9.7221079 28.232365,9 c 0.04465,-0.5358503 0.01615,-0.2997439 0.07469,-0.7095436" />
  <path
     style="fill:none;stroke:#1c1f30;stroke-width:1.3;stroke-opacity:1"
     d="m 25.170124,4.2946058 1.008299,1.0082988"
     id="path23"
     inkscape:path-effect="#path-effect23"
     inkscape:original-d="m 25.170124,4.2946058 c 0.08793,0.4184769 1.008299,0.676523 1.008299,1.0082988" />
  <path
     style="fill:none;stroke:#1c1f30;stroke-width:1.3;stroke-opacity:1"
     d="m 39.099585,17.701245 c 0.322176,-0.139514 0.616072,-0.343964 0.858921,-0.597511 0.306814,-0.320329 0.528492,-0.712707 0.821577,-1.045643 0.07587,-0.08619 0.156609,-0.168494 0.224066,-0.261411 0.131102,-0.180583 0.207144,-0.394028 0.298756,-0.59751 0.112389,-0.249631 0.250264,-0.487779 0.410788,-0.709543"
     id="path24"
     inkscape:path-effect="#path-effect24"
     inkscape:original-d="m 39.099585,17.701245 c 0.236888,-0.250815 0.623285,-0.352056 0.858921,-0.597511 0.152357,-0.158705 0.608665,-0.783597 0.821577,-1.045643 0.07237,-0.08907 0.160406,-0.165919 0.224066,-0.261411 0.12352,-0.18528 0.188276,-0.40417 0.298756,-0.59751 0.138165,-0.241789 0.306287,-0.448291 0.410788,-0.709543" />
  <path
     style="fill:none;stroke:#1c1f30;stroke-width:1.3;stroke-opacity:1"
     d="m 41.414938,10.605809 c 0.06466,-0.24568 0.114568,-0.495239 0.149377,-0.7468878 0.04251,-0.3073036 0.06617,-0.6292222 0.224067,-0.8962656 0.05871,-0.099294 0.134919,-0.1882064 0.224066,-0.2614108 l 0.224067,-0.373444"
     id="path25"
     inkscape:path-effect="#path-effect25"
     inkscape:original-d="m 41.414938,10.605809 c -0.0036,-0.26106 0.09597,-0.497666 0.149377,-0.7468878 0.06428,-0.2999607 0.05114,-0.6272623 0.224067,-0.8962656 0.06206,-0.096539 0.149377,-0.1742739 0.224066,-0.2614108 0.07469,-0.1244813 0.149378,-0.2489626 0.224067,-0.373444" />
  <path
     style="fill:none;stroke:#1c1f30;stroke-width:1.3;stroke-opacity:1"
     d="m 43.244813,4.6680498 c -0.07032,0.2425052 -0.10811,0.4944229 -0.112033,0.746888 -0.0015,0.099577 0.0021,0.1991896 0,0.2987551 -0.0041,0.1887184 -0.02916,0.3769763 -0.07469,0.560166"
     id="path26"
     inkscape:path-effect="#path-effect26"
     inkscape:original-d="m 43.244813,4.6680498 c 0,0.5449804 0.01565,-0.1894516 -0.112033,0.746888 -0.01345,0.098672 0.0071,0.1994232 0,0.2987551 -0.01446,0.2024936 -0.07469,0.35499 -0.07469,0.560166" />
</svg>
