<?xml version="1.0" encoding="UTF-8" standalone="no"?>
<svg
   width="36px"
   height="35px"
   viewBox="0 0 36 35"
   version="1.1"
   id="svg1"
   sodipodi:docname="ico_mining.svg"
   inkscape:version="1.3.2 (091e20e, 2023-11-25, custom)"
   xmlns:inkscape="http://www.inkscape.org/namespaces/inkscape"
   xmlns:sodipodi="http://sodipodi.sourceforge.net/DTD/sodipodi-0.dtd"
   xmlns="http://www.w3.org/2000/svg"
   xmlns:svg="http://www.w3.org/2000/svg">
  <sodipodi:namedview
     id="namedview1"
     pagecolor="#ffffff"
     bordercolor="#000000"
     borderopacity="0.25"
     inkscape:showpageshadow="2"
     inkscape:pageopacity="0.0"
     inkscape:pagecheckerboard="0"
     inkscape:deskcolor="#d1d1d1"
     inkscape:zoom="33.514286"
     inkscape:cx="17.992327"
     inkscape:cy="17.5"
     inkscape:window-width="2560"
     inkscape:window-height="1369"
     inkscape:window-x="-8"
     inkscape:window-y="-8"
     inkscape:window-maximized="1"
     inkscape:current-layer="svg1" />
  <!-- Generator: Sketch 49 (51002) - http://www.bohemiancoding.com/sketch -->
  <title
     id="title1">Mining icon</title>
  <desc
     id="desc1">Created with Sketch.</desc>
  <defs
     id="defs1">
    <inkscape:path-effect
       effect="spiro"
       id="path-effect9"
       is_visible="true"
       lpeversion="1" />
    <inkscape:path-effect
       effect="spiro"
       id="path-effect8"
       is_visible="true"
       lpeversion="1" />
    <inkscape:path-effect
       effect="spiro"
       id="path-effect7"
       is_visible="true"
       lpeversion="1" />
    <inkscape:path-effect
       effect="spiro"
       id="path-effect6"
       is_visible="true"
       lpeversion="1" />
    <inkscape:path-effect
       effect="spiro"
       id="path-effect5"
       is_visible="true"
       lpeversion="1" />
    <inkscape:path-effect
       effect="spiro"
       id="path-effect4"
       is_visible="true"
       lpeversion="1" />
    <inkscape:path-effect
       effect="spiro"
       id="path-effect3"
       is_visible="true"
       lpeversion="1" />
    <inkscape:path-effect
       effect="spiro"
       id="path-effect2"
       is_visible="true"
       lpeversion="1" />
  </defs>
  <path
     style="display:inline;fill:none;stroke:#95aabf;stroke-width:1.079;stroke-opacity:1"
     d="m 22.885763,32.344416 c -1.78656,-0.369268 -3.5672,-0.767177 -5.341006,-1.193521 -0.709265,-0.170476 -1.424231,-0.347952 -2.076735,-0.674076 -0.652503,-0.326125 -1.246139,-0.817452 -1.563504,-1.474261 -0.105554,-0.21845 -0.17891,-0.451144 -0.238704,-0.686275 -0.08511,-0.334664 -0.143341,-0.675451 -0.208866,-1.014493 -0.07739,-0.40045 -0.165076,-0.799003 -0.268542,-1.193521 -0.135135,-0.515274 -0.297249,-1.023941 -0.404839,-1.545662 -0.10759,-0.521721 -0.159852,-1.06183 -0.07257,-1.58733 0.03678,-0.221414 0.0979,-0.437927 0.149191,-0.656436 0.11943,-0.508783 0.185656,-1.029481 0.208866,-1.551578 0.02121,-0.477073 0.0066,-0.955245 0.02984,-1.432225 0.03171,-0.652081 0.136087,-1.307297 0.387894,-1.909633 0.179469,-0.4293 0.431275,-0.825588 0.716113,-1.193521 0.367701,-0.474968 0.797341,-0.914527 1.04433,-1.462063 0.05185,-0.114939 0.09529,-0.234282 0.119352,-0.358056 0.02669,-0.137244 0.02923,-0.27792 0.02984,-0.417733 0.0019,-0.42351 -0.01075,-0.861044 0.149191,-1.253197 0.164602,-0.403589 0.492804,-0.712821 0.775788,-1.04433 0.114998,-0.134718 0.223611,-0.274797 0.328218,-0.417733 0.203737,-0.278386 0.392383,-0.56774 0.566923,-0.865302 0.137586,-0.234562 0.270781,-0.4796472 0.477408,-0.6564368 0.142924,-0.1222849 0.315428,-0.2063172 0.494209,-0.2647815 0.178781,-0.058464 0.364556,-0.092352 0.550122,-0.1231127 1.38851,-0.2301685 2.799709,-0.2941937 4.207161,-0.2983803 1.447721,-0.00431 2.93362,0.062288 4.266837,0.6265985 0.586912,0.2484222 1.130089,0.5878278 1.670929,0.9249788 0.292686,0.182456 0.585787,0.364867 0.865303,0.566922 0.491667,0.355413 0.939183,0.770347 1.342711,1.223359 0.178041,0.199874 0.347859,0.407442 0.537084,0.596761 0.323601,0.323763 0.703366,0.593683 0.984655,0.954816 0.07982,0.102481 0.151196,0.211821 0.208866,0.328219 0.126039,0.254389 0.184385,0.538466 0.199345,0.821972 0.01496,0.283506 -0.01224,0.567599 -0.05015,0.848957 -0.04302,0.319258 -0.09985,0.636475 -0.14919,0.954817 -0.113399,0.731622 -0.186564,1.484433 -0.02984,2.208013 0.03015,0.139217 0.06873,0.276811 0.08951,0.417733 0.02472,0.167666 0.02395,0.337869 0.02984,0.507246 0.01742,0.50097 0.09342,0.997993 0.179029,1.491901 0.05304,0.305994 0.110052,0.615102 0.08951,0.924979 -0.03729,0.562563 -0.323887,1.07269 -0.566923,1.581415 -0.05578,0.116761 -0.109704,0.234827 -0.14919,0.358056 -0.119415,0.372675 -0.101725,0.774609 -0.05968,1.163683 0.04218,0.390281 0.107551,0.777692 0.179028,1.163683 0.03485,0.188182 0.0712,0.376419 0.08951,0.566922 0.04856,0.505254 -0.03066,1.015084 0,1.521739 0.0076,0.126161 0.02209,0.252153 0.01978,0.378524 -0.0023,0.126371 -0.0222,0.254748 -0.07946,0.367427 -0.05311,0.104511 -0.136067,0.19112 -0.226199,0.26608 -0.09013,0.07496 -0.188257,0.139685 -0.281047,0.211328 -0.323834,0.250029 -0.576181,0.578669 -0.835465,0.895141 -0.299853,0.365989 -0.618942,0.725041 -1.014493,0.984655 -0.538966,0.353743 -1.182825,0.500205 -1.790281,0.716112 -0.228272,0.08113 -0.453137,0.172841 -0.686274,0.238704 -0.435442,0.123016 -0.890944,0.153555 -1.342711,0.179029 -0.32792,0.01849 -0.656249,0.03467 -0.984655,0.02984 -0.118613,-0.0017 -0.237655,-0.0063 -0.354447,-0.02705 -0.116792,-0.02078 -0.231817,-0.05834 -0.331828,-0.122139 -0.06292,-0.04013 -0.119053,-0.09004 -0.181006,-0.131641 -0.06195,-0.0416 -0.132286,-0.07542 -0.206888,-0.07722 -0.01989,-4.81e-4 -0.03983,0.0013 -0.05968,0 -0.04925,-0.0033 -0.09514,-0.02555 -0.137843,-0.05031 -0.0427,-0.02475 -0.08415,-0.05263 -0.130699,-0.06904 -0.05737,-0.02024 -0.119327,-0.022 -0.180084,-0.02516 -0.06076,-0.0032 -0.123052,-0.0083 -0.177972,-0.03452 -0.02455,-0.0117 -0.04701,-0.02734 -0.07116,-0.03984 -0.02415,-0.0125 -0.05092,-0.02197 -0.07803,-0.01984 -0.01008,7.92e-4 -0.01998,0.0032 -0.03005,0.0042 -0.01007,9.88e-4 -0.02064,4.77e-4 -0.02963,-0.0042 -0.0063,-0.0032 -0.01144,-0.0083 -0.01606,-0.01369 -0.0046,-0.0054 -0.0088,-0.0111 -0.01378,-0.01615 -0.01105,-0.01121 -0.02564,-0.01859 -0.04094,-0.02229 -0.0153,-0.0037 -0.0313,-0.0038 -0.04692,-0.0019 -0.03124,0.0039 -0.06078,0.01594 -0.09117,0.02417 -0.06887,0.01865 -0.143008,0.01739 -0.211202,-0.0036 -0.0682,-0.02098 -0.130219,-0.06162 -0.176692,-0.115756 z"
     id="path2"
     inkscape:path-effect="#path-effect2"
     inkscape:original-d="m 22.885763,32.344416 c -1.838439,0.210606 -3.659139,-0.562821 -5.341006,-1.193521 -1.420426,-0.53266 -2.651157,-0.906725 -3.640239,-2.148337 -0.15091,-0.189441 -0.177065,-0.452048 -0.238704,-0.686275 -0.08786,-0.333889 -0.135902,-0.677034 -0.208866,-1.014493 -0.08618,-0.398576 -0.173376,-0.796994 -0.268542,-1.193521 -0.282539,-1.177245 -0.555795,-1.878815 -0.477409,-3.132992 0.014,-0.223955 0.106105,-0.43622 0.149191,-0.656436 0.09939,-0.508019 0.169961,-1.036088 0.208866,-1.551578 0.09944,-1.317549 -0.02574,-0.181771 0.02984,-1.432225 0.02872,-0.646101 0.131435,-1.311229 0.387894,-1.909633 0.156713,-0.365663 0.464802,-0.882374 0.716113,-1.193521 0.967218,-1.197508 0.715877,-0.542395 1.04433,-1.462063 0.04231,-0.118479 0.09559,-0.234512 0.119352,-0.358056 0.02636,-0.137087 0.01953,-0.278515 0.02984,-0.417733 0.03086,-0.416643 0.05996,-0.846696 0.149191,-1.253197 0.09748,-0.444064 0.497998,-0.718229 0.775788,-1.04433 0.114833,-0.134804 0.224357,-0.274305 0.328218,-0.417733 0.05864,-0.08098 0.50752,-0.762337 0.566923,-0.865302 0.189991,-0.329318 0.139422,-0.4266064 0.477408,-0.6564368 0.248084,-0.1686967 0.778917,-0.3230153 1.044331,-0.3878942 1.368029,-0.3344071 2.817281,-0.2878509 4.207161,-0.2983803 1.431903,-0.010848 2.926958,0.076291 4.266837,0.6265985 0.731932,0.3006148 1.009559,0.4998118 1.670929,0.9249788 0.290061,0.186468 0.597457,0.34975 0.865303,0.566922 0.470312,0.381334 0.907722,0.802179 1.342711,1.223359 0.192263,0.18616 0.350389,0.405019 0.537084,0.596761 0.128773,0.132253 0.822449,0.761714 0.984655,0.954816 0.08341,0.0993 0.160704,0.207814 0.208866,0.328219 0.162113,0.405281 0.181932,1.228922 0.14919,1.670929 -0.0238,0.321254 -0.125908,0.633525 -0.14919,0.954817 -0.03487,0.481224 -0.09696,1.587118 -0.02984,2.208013 0.01531,0.14158 0.07129,0.276498 0.08951,0.417733 0.02167,0.167981 0.01352,0.338659 0.02984,0.507246 0.04825,0.498539 0.120507,0.994464 0.179029,1.491901 0.03362,0.2858 0.100211,0.63616 0.08951,0.924979 -0.02059,0.556015 -0.354084,1.078341 -0.566923,1.581415 -0.05038,0.119079 -0.11981,0.23214 -0.14919,0.358056 -0.06134,0.262905 -0.08449,0.915579 -0.05968,1.163683 0.03905,0.39051 0.115791,0.776353 0.179028,1.163683 0.0459,0.28116 0.07639,0.291282 0.08951,0.566922 0.02413,0.506673 0,1.014493 0,1.521739 0,0.142032 0.02926,0.577963 -0.05968,0.745951 -0.03078,0.05814 -0.506293,0.47643 -0.507246,0.477408 -0.284834,0.292329 -0.564305,0.590086 -0.835465,0.895141 -0.578471,0.65078 -0.14537,0.352566 -1.014493,0.984655 -0.374733,0.272533 -1.439829,0.586597 -1.790281,0.716112 -0.256945,0.09496 -0.426007,0.177975 -0.686274,0.238704 -0.450722,0.105169 -0.883122,0.153496 -1.342711,0.179029 -0.327864,0.01821 -0.65845,0.06748 -0.984655,0.02984 -0.179035,-0.02066 -0.486658,-0.06934 -0.686275,-0.149191 -0.135581,-0.05423 -0.253542,-0.151286 -0.387894,-0.208866 -0.01828,-0.0078 -0.04121,0.0074 -0.05968,0 -0.09372,-0.03749 -0.163746,-0.09839 -0.268542,-0.119352 -0.130768,-0.02615 -0.235259,-0.03921 -0.358056,-0.05968 -0.261924,-0.04365 0.04561,-0.01098 -0.149191,-0.05968 -0.0193,-0.0048 -0.0408,0.0063 -0.05968,0 -0.01334,-0.0044 -0.01619,-0.02643 -0.02984,-0.02984 -0.05789,-0.01447 -0.119812,0.0074 -0.179028,0 -0.178442,-0.02231 -0.233187,-0.02653 -0.387894,-0.119352 z" />
  <path
     style="fill:none;stroke:#ff9500;stroke-width:1.079;stroke-opacity:1"
     d="m 18.55925,29.241262 c 0.246035,-0.395318 0.428134,-0.830333 0.537084,-1.283035 0.04873,-0.202471 0.08399,-0.411457 0.179028,-0.596761 0.04753,-0.09268 0.109121,-0.177484 0.158504,-0.269188 0.04938,-0.0917 0.08693,-0.193797 0.0802,-0.297734 -0.0068,-0.105688 -0.06237,-0.207883 -0.14919,-0.268542 -0.06732,-0.04703 -0.149904,-0.06839 -0.231843,-0.07383 -0.08194,-0.0054 -0.164057,0.0041 -0.245565,0.01415 -0.168986,0.02074 -0.337776,0.04336 -0.507246,0.05968 -0.455929,0.0439 -0.914853,0.04201 -1.372549,0.05968 -0.146258,0.0056 -0.293506,0.01325 -0.43838,-0.0076 -0.144875,-0.02085 -0.289216,-0.07249 -0.397085,-0.171428 -0.106242,-0.09744 -0.168927,-0.23191 -0.238704,-0.358057 -0.03599,-0.06507 -0.07469,-0.129166 -0.100404,-0.19894 -0.02572,-0.06977 -0.03787,-0.146875 -0.01895,-0.218792 0.02014,-0.07656 0.07357,-0.140479 0.134364,-0.191184 0.0608,-0.05071 0.12976,-0.09057 0.193854,-0.137034 0.199931,-0.144941 0.346821,-0.349351 0.507246,-0.537085 0.798375,-0.93428 1.961473,-1.478711 3.132993,-1.849957 0.07783,-0.02466 0.15624,-0.04878 0.236998,-0.0608 0.08076,-0.01202 0.164528,-0.01158 0.242608,0.01229 0.07808,0.02388 0.150185,0.07275 0.192451,0.142607 0.02113,0.03493 0.03455,0.07468 0.03749,0.115402 0.0029,0.04072 -0.0047,0.08234 -0.02327,0.118712 -0.0058,0.01136 -0.01261,0.02222 -0.01767,0.03392 -0.0051,0.01171 -0.0083,0.02458 -0.0065,0.03721 9.1e-4,0.0063 0.0031,0.01248 0.0067,0.01773 0.0036,0.0053 0.0087,0.0096 0.01456,0.01199 0.0059,0.0024 0.01266,0.0029 0.01872,8.77e-4 0.0061,-0.002 0.01135,-0.0064 0.01402,-0.01222 0.0021,-0.0046 0.0026,-0.0098 0.0022,-0.01484 -3.4e-4,-0.005 -0.0014,-0.01 -0.0022,-0.015 -0.004,-0.02532 -6.68e-4,-0.05134 0.0057,-0.07617 0.0064,-0.02483 0.0158,-0.04877 0.02411,-0.07302 0.06078,-0.1774 0.06272,-0.37045 0.03673,-0.556161 -0.026,-0.185711 -0.07894,-0.366386 -0.126235,-0.547846 -0.08958,-0.343718 -0.159358,-0.692597 -0.208866,-1.04433 -0.0629,-0.131209 -0.103438,-0.2731 -0.119352,-0.417733 -0.0099,-0.08959 -0.0104,-0.180529 -0.02984,-0.268542 -0.02036,-0.0922 -0.06088,-0.178567 -0.08951,-0.268542 -0.0428,-0.134506 -0.05866,-0.279555 -0.02984,-0.417732 0.0094,-0.0453 0.02363,-0.08976 0.02831,-0.135795 0.0023,-0.02302 0.0023,-0.0464 -0.002,-0.06914 -0.0042,-0.02274 -0.01277,-0.04487 -0.02634,-0.06361 -0.0083,-0.01144 -0.0184,-0.02156 -0.02984,-0.02984 -0.01235,-0.01856 -0.0224,-0.03866 -0.02984,-0.05968 -0.01056,-0.02984 -0.01579,-0.06125 -0.02328,-0.09201 -0.0075,-0.03076 -0.01757,-0.06157 -0.0364,-0.08702 -0.01676,-0.02265 -0.03959,-0.03992 -0.05968,-0.05968 -0.06429,-0.06324 -0.09911,-0.150821 -0.119352,-0.238704 -0.02431,-0.105558 -0.03,-0.2144 -0.04564,-0.321585 -0.01564,-0.107185 -0.04246,-0.215565 -0.103548,-0.305014 -0.02422,-0.03546 -0.05336,-0.06724 -0.08057,-0.100455 -0.02722,-0.03322 -0.05286,-0.06846 -0.06862,-0.108411 -0.01582,-0.04013 -0.0211,-0.0835 -0.03117,-0.125442 -0.01007,-0.04195 -0.0262,-0.08448 -0.05833,-0.113262 -0.02676,-0.02397 -0.06227,-0.03626 -0.08951,-0.05968 -0.02214,-0.01904 -0.03774,-0.04453 -0.0508,-0.07064 -0.01306,-0.02612 -0.02397,-0.05335 -0.03871,-0.07855 -0.04642,-0.07932 -0.127217,-0.132954 -0.179028,-0.208866 -0.03564,-0.05222 -0.0563,-0.113178 -0.07219,-0.174377 -0.01589,-0.0612 -0.02749,-0.123588 -0.04716,-0.183679 -0.01667,-0.05092 -0.03901,-0.09976 -0.05968,-0.149191 -0.04351,-0.104039 -0.07997,-0.211927 -0.09478,-0.323721 -0.0148,-0.111794 -0.0071,-0.228152 0.0351,-0.332715 0.0218,-0.05398 0.05254,-0.104214 0.08951,-0.14919 0.08435,-0.102623 0.199163,-0.176116 0.318848,-0.23375 0.119685,-0.05763 0.245696,-0.100967 0.367426,-0.154144 0.110142,-0.04812 0.216736,-0.104271 0.328219,-0.149191 0.274117,-0.11045 0.574105,-0.15065 0.869187,-0.13436 0.295083,0.01629 0.585551,0.08804 0.861418,0.19404 0.113956,0.04379 0.227218,0.09437 0.321693,0.171683 0.09447,0.07732 0.169335,0.184728 0.185553,0.305725 0.0119,0.0888 0,0.178952 0,0.268542 v 0.02984 c -0.0092,0.01458 -0.02266,0.02634 -0.03803,0.03416 -0.01537,0.0078 -0.03263,0.01173 -0.04988,0.01192 -0.03449,3.79e-4 -0.06824,-0.01411 -0.09445,-0.03652 -0.02621,-0.02242 -0.04534,-0.05243 -0.05755,-0.08469 -0.01222,-0.03225 -0.01776,-0.06682 -0.01853,-0.101298 -0.0015,-0.06897 0.01506,-0.13745 0.04041,-0.201603 0.02536,-0.06415 0.05986,-0.124947 0.104147,-0.177838 0.04429,-0.05289 0.09972,-0.09831 0.164928,-0.12084 0.0326,-0.01126 0.0675,-0.01651 0.101836,-0.01322 0.03434,0.0033 0.06812,0.01536 0.09535,0.03653 0.02723,0.02117 0.04759,0.05172 0.05408,0.0856 0.0065,0.03388 -0.0016,0.07084 -0.0239,0.09719 -0.01113,0.01318 -0.02558,0.02358 -0.04174,0.02961 -0.01616,0.006 -0.034,0.0076 -0.0509,0.0042 -0.0169,-0.0035 -0.03278,-0.01199 -0.04471,-0.02445 -0.01193,-0.01246 -0.0198,-0.02881 -0.02172,-0.04595 -0.178048,-0.222304 -0.277263,-0.506485 -0.276264,-0.791299 9.99e-4,-0.284815 0.102205,-0.568292 0.281808,-0.789342 0.179603,-0.22105 0.43636,-0.378142 0.714939,-0.437423 0.278579,-0.05928 0.577051,-0.02034 0.831095,0.10843 0.114152,-0.02462 0.224915,-0.0649 0.328218,-0.119352 0.03938,-0.02076 0.07783,-0.04363 0.119352,-0.05968 0.0916,-0.0354 0.195496,-0.03534 0.288844,-0.0048 0.09335,0.03049 0.176032,0.09048 0.238281,0.166434 0.06225,0.07595 0.104439,0.167413 0.127221,0.262936 0.02278,0.09552 0.0265,0.195064 0.01648,0.292752 -0.02006,0.195377 -0.0939,0.380981 -0.175237,0.559749 -0.08134,0.178769 -0.171342,0.354759 -0.227043,0.543098 -0.0404,0.13662 -0.0622,0.277905 -0.08951,0.417732 -0.02321,0.118834 -0.05054,0.237322 -0.05968,0.358056 -0.0031,0.04162 -0.0041,0.08354 -0.0115,0.124625 -0.0074,0.04109 -0.02158,0.08191 -0.04818,0.114079 -0.002,0.0025 -0.0041,0.0049 -0.0059,0.0075 -0.0018,0.0027 -0.0032,0.0056 -0.0037,0.0087 -5.31e-4,0.0031 -9.5e-5,0.0065 0.0016,0.0092 8.61e-4,0.0013 0.002,0.0025 0.0034,0.0033 0.0014,7.83e-4 0.003,0.0012 0.0046,0.0011 0.0015,-8.2e-5 0.003,-6.18e-4 0.0043,-0.0015 0.0013,-8.6e-4 0.0023,-0.002 0.0031,-0.0034 0.0015,-0.0027 0.0018,-0.0059 0.0013,-0.0089 -5.37e-4,-0.003 -0.0019,-0.0058 -0.0035,-0.0085 -0.0016,-0.0026 -0.0034,-0.0051 -0.0052,-0.0076 -0.01281,-0.01892 -0.01745,-0.04267 -0.01539,-0.06542 0.0021,-0.02276 0.01046,-0.04459 0.02182,-0.06442 0.02271,-0.03965 0.05678,-0.07149 0.08308,-0.108861 0.03918,-0.05569 0.06007,-0.122135 0.07504,-0.18856 0.01497,-0.06643 0.02465,-0.134146 0.04432,-0.199334 0.04655,-0.15426 0.146055,-0.285904 0.238704,-0.417732 0.291078,-0.414168 0.534841,-0.867768 0.895141,-1.223359 0.06533,-0.06448 0.134313,-0.12548 0.208866,-0.179029 0.03561,-0.02558 0.07352,-0.04989 0.116316,-0.05943 0.0214,-0.0048 0.04382,-0.0057 0.06525,-0.0011 0.02143,0.0046 0.04183,0.01495 0.05713,0.03065 0.01267,0.01299 0.02161,0.02934 0.02719,0.0466 0.0056,0.01727 0.0079,0.03546 0.0084,0.05359 0.001,0.03628 -0.0052,0.07239 -0.0058,0.108671 -0.0019,0.114136 0.05036,0.220988 0.08951,0.328218 0.101356,0.277647 0.119874,0.578208 0.123216,0.873757 0.0033,0.29555 -0.0039,0.591118 -0.0039,0.886686 v 0.745951 c 0,0.05987 -0.0026,0.119702 -0.0068,0.179424 -0.0042,0.05972 -0.0086,0.120779 0.0068,0.178632 0.0202,0.07584 0.07499,0.139736 0.141868,0.18082 0.06688,0.04108 0.145085,0.0609 0.223254,0.06798 0.156337,0.01415 0.313709,-0.02047 0.470343,-0.0101 0.14183,0.0094 0.278682,0.0554 0.410277,0.109133 0.131595,0.05373 0.260108,0.115663 0.39535,0.159409 0.05988,0.01937 0.121065,0.03517 0.179028,0.05968 0.177128,0.0749 0.30981,0.223868 0.44757,0.358057 0.136126,0.132597 0.282457,0.254428 0.417732,0.387894 0.27048,0.266863 0.497261,0.583302 0.628943,0.939722 0.131683,0.35642 0.164254,0.754487 0.05733,1.119101 -0.04525,0.154312 -0.114268,0.300378 -0.179028,0.447571 -0.106404,0.241845 -0.205934,0.494698 -0.387894,0.686274 -0.167103,0.175934 -0.392981,0.286961 -0.626131,0.354175 -0.233149,0.06721 -0.475737,0.09372 -0.71658,0.123234 -0.258396,0.03166 -0.516427,0.06709 -0.775789,0.08951 -0.417308,0.03607 -0.83746,0.03842 -1.253197,0.08951 -0.04093,0.005 -0.08276,0.01082 -0.119352,0.02984 -0.04885,0.02539 -0.08432,0.07362 -0.0978,0.126995 -0.01348,0.05338 -0.0058,0.111144 0.0177,0.160948 0.02346,0.0498 0.06203,0.09177 0.10748,0.122834 0.04545,0.03106 0.09761,0.05153 0.151279,0.06382 0.107328,0.02456 0.219027,0.01685 0.328966,0.01085 0.109939,-0.006 0.222401,-0.0099 0.327845,0.02181 0.146165,0.04393 0.263092,0.15085 0.387894,0.238704 0.178643,0.125756 0.379759,0.215534 0.566922,0.328219 0.220102,0.132517 0.42717,0.304868 0.537085,0.537084 0.05798,0.122498 0.08651,0.256405 0.119352,0.387894 0.08868,0.355056 0.212805,0.708228 0.208866,1.074169 -0.0021,0.197891 -0.04404,0.399265 -0.14919,0.566923 -0.04995,0.07965 -0.113886,0.151564 -0.14919,0.238704 -0.01916,0.04728 -0.02934,0.09818 -0.02984,0.14919 -0.05326,0.04346 -0.0867,0.110337 -0.08951,0.179028 -8.71e-4,0.02128 0.001,0.04272 -0.0017,0.06384 -0.0014,0.01056 -0.004,0.02103 -0.0085,0.03067 -0.0045,0.0096 -0.01108,0.01844 -0.01959,0.02485 -0.0089,0.0067 -0.01961,0.0106 -0.03007,0.01452 -0.01046,0.0039 -0.02107,0.0081 -0.02961,0.01532 -0.01232,0.01038 -0.01906,0.02603 -0.02263,0.04174 -0.0036,0.01571 -0.0044,0.03191 -0.0072,0.04777 -0.0076,0.04316 -0.03007,0.08296 -0.06009,0.114896 -0.03002,0.03194 -0.06738,0.05636 -0.107011,0.07508 -0.07927,0.03743 -0.166944,0.05247 -0.250631,0.07857 -0.272563,0.08501 -0.499472,0.286174 -0.775788,0.358057 -0.07781,0.02024 -0.158302,0.02977 -0.238705,0.02984 -0.04988,4.4e-5 -0.101074,-0.0033 -0.148388,0.01245 -0.02366,0.0079 -0.046,0.02073 -0.06279,0.03918 -0.01678,0.01845 -0.02766,0.04279 -0.02753,0.06773 5.3e-5,0.01 0.0018,0.02004 0,0.02984 -0.0013,0.0073 -0.0047,0.01417 -0.0093,0.01993 -0.0047,0.0058 -0.01066,0.0104 -0.01728,0.01372 -0.01325,0.0066 -0.02878,0.0079 -0.04339,0.0054 -0.02923,-0.0049 -0.05397,-0.02346 -0.07919,-0.03905 -0.06523,-0.04033 -0.140237,-0.06342 -0.216336,-0.07289 -0.0761,-0.0095 -0.1534,-0.0056 -0.229324,0.0051 -0.151846,0.02158 -0.298492,0.07066 -0.44948,0.09759 -0.137983,0.02462 -0.280912,0.03042 -0.417733,0 -0.196736,-0.04374 -0.369213,-0.158869 -0.556785,-0.232586 -0.09379,-0.03686 -0.192877,-0.06357 -0.293644,-0.06424 -0.100767,-6.68e-4 -0.203707,0.0263 -0.283416,0.08796 -0.06291,0.04866 -0.108858,0.116683 -0.140993,0.189437 -0.03214,0.07275 -0.05125,0.150517 -0.06787,0.228295 -0.09883,0.462332 -0.114948,0.939033 -0.208866,1.402387 -0.04698,0.231772 -0.11321,0.459133 -0.179028,0.686274 -0.0052,0.01789 -0.01044,0.03597 -0.01959,0.0522 -0.0091,0.01623 -0.02268,0.03068 -0.04009,0.03731 -0.0094,0.0036 -0.01967,0.0048 -0.02976,0.0044 -0.01009,-3.45e-4 -0.02007,-0.0022 -0.02992,-0.0044 -0.08435,-0.01927 -0.158997,-0.06943 -0.22125,-0.12952 -0.06225,-0.0601 -0.113638,-0.130309 -0.166644,-0.198699 -0.228722,-0.295105 -0.493603,-0.563215 -0.693904,-0.878301 -0.100151,-0.157544 -0.183763,-0.326867 -0.233279,-0.506862 -0.04952,-0.179995 -0.06415,-0.371231 -0.02763,-0.554308 0.01389,-0.06964 0.03504,-0.137803 0.04595,-0.207976 0.0109,-0.07017 0.011,-0.14412 -0.01611,-0.209756 -0.01009,-0.02442 -0.02374,-0.04722 -0.03425,-0.07146 -0.01051,-0.02424 -0.01791,-0.05075 -0.01443,-0.07694 0.0017,-0.0131 0.0062,-0.02592 0.01383,-0.03674 0.0076,-0.01082 0.01833,-0.01954 0.03078,-0.02394 0.01246,-0.0044 0.02661,-0.0043 0.03867,0.0011 0.01206,0.0054 0.02178,0.01617 0.02508,0.02896 0.0025,0.0097 0.0014,0.01992 0,0.02984 -0.013,0.0939 -0.04644,0.184092 -0.08951,0.268543 -0.05271,0.103361 -0.11972,0.198659 -0.179028,0.29838 -0.189221,0.318156 -0.298259,0.67902 -0.358057,1.044331 -0.01136,0.06941 -0.02101,0.13909 -0.02984,0.208866 -0.0073,0.05792 -0.01429,0.11667 -0.03578,0.170956 -0.01075,0.02714 -0.02514,0.053 -0.04406,0.07523 -0.01892,0.02223 -0.04249,0.04077 -0.06935,0.05219 -0.0172,0.0073 -0.03561,0.01169 -0.05236,0.01998 -0.0084,0.0041 -0.01634,0.0093 -0.02294,0.01591 -0.0066,0.0066 -0.01182,0.01476 -0.01421,0.02379 -0.0026,0.0097 -0.0018,0.01986 -8.12e-4,0.0298 0.001,0.0099 0.0023,0.02 8.12e-4,0.02988 -0.002,0.01349 -0.0093,0.02592 -0.01926,0.03526 -0.0099,0.0093 -0.02246,0.0157 -0.03557,0.01947 -0.02622,0.0076 -0.05415,0.005 -0.08133,0.0026 -0.02719,-0.0024 -0.05526,-0.0043 -0.08116,0.0043 -0.01295,0.0043 -0.02515,0.0113 -0.03452,0.02122 -0.0094,0.0099 -0.01576,0.02288 -0.01671,0.03649 -6.94e-4,0.0099 0.0015,0.01999 0,0.02984 -0.0013,0.0086 -0.0053,0.01662 -0.01098,0.02309 -0.0057,0.0065 -0.01313,0.01139 -0.02117,0.01456 -0.01608,0.0063 -0.03425,0.0057 -0.05099,0.0014 -0.03348,-0.0086 -0.0623,-0.03079 -0.09588,-0.039 -0.02487,-0.0061 -0.05113,-0.0041 -0.07612,0.0014 -0.02499,0.0056 -0.04903,0.01467 -0.07324,0.02298 -0.02422,0.0083 -0.04892,0.01589 -0.07441,0.01827 -0.02549,0.0024 -0.05205,-7.43e-4 -0.07461,-0.01285 -0.01561,-0.0084 -0.02886,-0.02083 -0.03907,-0.0353 -0.01022,-0.01447 -0.01745,-0.03092 -0.02227,-0.04796 -0.0096,-0.03409 -0.0097,-0.07008 -0.0086,-0.105491 0.001,-0.03541 0.0031,-0.0711 -0.0026,-0.106057 -0.0057,-0.03496 -0.02009,-0.06975 -0.04675,-0.09308 -0.02043,-0.01788 -0.04745,-0.02803 -0.0746,-0.02803 -0.02714,0 -0.05417,0.01015 -0.07459,0.02803 -0.0076,-0.01737 -0.02023,-0.03248 -0.03599,-0.04299 -0.01576,-0.01051 -0.03458,-0.01638 -0.05352,-0.01669 -0.02034,-3.37e-4 -0.04021,0.0055 -0.06033,0.0085 -0.01006,0.0015 -0.0203,0.0023 -0.03041,0.0012 -0.01011,-0.0011 -0.02014,-0.0041 -0.02861,-0.0097 -0.01175,-0.0078 -0.01975,-0.01999 -0.02984,-0.02984 -0.01669,-0.01629 -0.03909,-0.02596 -0.06208,-0.02985 -0.02299,-0.0039 -0.04662,-0.0023 -0.0696,0.0017 -0.04595,0.008 -0.0903,0.02552 -0.136861,0.02815 -0.051,0.0029 -0.101209,-0.01232 -0.14919,-0.02984 -0.10468,-0.03822 -0.204996,-0.08838 -0.29838,-0.14919 z"
     id="path3"
     inkscape:path-effect="#path-effect3"
     inkscape:original-d="m 18.55925,29.241262 c 0.012,-0.424663 0.415917,-0.988771 0.537084,-1.283035 0.07907,-0.192036 0.113355,-0.399739 0.179028,-0.596761 0.06332,-0.189947 0.148546,-0.386606 0.238704,-0.566922 0.100348,-0.200695 0.02552,-0.210306 -0.14919,-0.268542 -0.252802,-0.08427 -0.188545,-0.05968 -0.477408,-0.05968 -0.528211,0 -0.01893,-0.02171 -0.507246,0.05968 -0.446139,0.07436 -0.921779,0.07846 -1.372549,0.05968 -0.248412,-0.01035 -0.619322,-0.02183 -0.835465,-0.179028 -0.07968,-0.05795 -0.200774,-0.287616 -0.238704,-0.358057 -0.05871,-0.109034 -0.158337,-0.281284 -0.119352,-0.417732 0.05378,-0.188236 0.168891,-0.175019 0.328218,-0.328218 0.177506,-0.170679 0.33312,-0.362958 0.507246,-0.537085 0.830271,-0.83027 1.852488,-1.921096 3.132993,-1.849957 0.21303,0.01184 0.558423,0.136442 0.686274,0.328218 0.01745,0.02617 0.01577,0.06138 0.02984,0.08951 0.0044,0.0089 -0.0016,-0.02003 0,-0.02984 0.0083,-0.05003 0.02789,-0.09851 0.02984,-0.14919 0.02411,-0.626991 0.0198,-0.546515 -0.08951,-1.104007 -0.06962,-0.34811 -0.139244,-0.69622 -0.208866,-1.04433 -0.03978,-0.139244 -0.08859,-0.276222 -0.119352,-0.417733 -0.01913,-0.08801 -0.0103,-0.180622 -0.02984,-0.268542 -0.02047,-0.09211 -0.07335,-0.175581 -0.08951,-0.268542 -0.02392,-0.137535 -0.0225,-0.278326 -0.02984,-0.417732 -0.0016,-0.02999 0.02162,-0.225305 0,-0.268543 -0.0063,-0.01258 -0.01989,-0.01989 -0.02984,-0.02984 -0.0099,-0.01989 -0.02203,-0.03885 -0.02984,-0.05968 -0.02209,-0.0589 -0.03155,-0.122765 -0.05968,-0.179028 -0.01258,-0.02516 -0.0428,-0.03717 -0.05968,-0.05968 -0.04761,-0.06348 -0.09502,-0.165707 -0.119352,-0.238704 -0.06736,-0.202068 -0.09089,-0.422558 -0.149191,-0.626599 -0.0568,-0.198808 -0.04885,-0.04833 -0.14919,-0.208866 -0.04504,-0.07206 -0.03643,-0.172347 -0.08951,-0.238704 -0.0224,-0.028 -0.06416,-0.03432 -0.08951,-0.05968 -0.04101,-0.04101 -0.05328,-0.103904 -0.08951,-0.14919 -0.04919,-0.06149 -0.148682,-0.138059 -0.179028,-0.208866 -0.04956,-0.115636 -0.07748,-0.239421 -0.119352,-0.358056 -0.01783,-0.05051 -0.04917,-0.09667 -0.05968,-0.149191 -0.01672,-0.0836 -0.08843,-0.550992 -0.05968,-0.656436 0.01526,-0.05595 0.05098,-0.105844 0.08951,-0.14919 0.177278,-0.199438 0.451726,-0.287373 0.686274,-0.387894 0.110462,-0.04734 0.214711,-0.10971 0.328219,-0.149191 0.534976,-0.186078 1.201859,-0.103015 1.730605,0.05968 0.349082,0.107409 0.477566,0.121238 0.507246,0.477408 0.0074,0.0892 0,0.179028 0,0.268542 0,0.0099 0,0.03978 0,0.02984 0,-0.251421 -0.0117,-0.09225 0.119352,-0.507246 0.270382,-0.85621 0.74237,-1.488846 1.551578,-1.909634 0.176705,-0.05049 0.190131,-0.04045 0.328218,-0.119352 0.03862,-0.02207 0.09775,-0.09856 0.119352,-0.05968 0.260193,0.468347 0.320261,1.302929 0.268542,1.82012 -0.01417,0.141698 -0.06262,0.277889 -0.08951,0.417732 -0.02285,0.118821 -0.03595,0.239407 -0.05968,0.358056 -0.01609,0.08042 -0.04188,0.15864 -0.05968,0.238704 -0.0022,0.0097 -0.0099,0.02984 0,0.02984 0.0099,0 -0.0031,-0.0204 0,-0.02984 0.02687,-0.08062 0.06264,-0.158086 0.08951,-0.238704 0.04278,-0.128338 0.06441,-0.264273 0.119352,-0.387894 0.06513,-0.146552 0.161231,-0.277312 0.238704,-0.417732 0.390968,-0.708629 0.143807,-0.394302 0.895141,-1.223359 0.06158,-0.06795 0.130771,-0.13097 0.208866,-0.179029 0.06829,-0.04203 0.210549,-0.104919 0.238704,-0.02984 0.02469,0.06585 0.01458,0.140212 0.02984,0.208867 0.0246,0.110701 0.07269,0.216071 0.08951,0.328218 0.08772,0.584786 0.119352,1.170848 0.119352,1.760443 0,0.24865 0,0.497301 0,0.745951 0,0.09034 -0.0055,0.354727 0,0.358056 0.23853,0.143118 0.5761,0.178851 0.835465,0.238704 0.290956,0.06714 0.53436,0.155514 0.805627,0.268542 0.05806,0.02419 0.123643,0.02985 0.179028,0.05968 0.14083,0.07583 0.334866,0.25944 0.44757,0.358057 0.113809,0.09958 0.314337,0.265699 0.417732,0.387894 0.402581,0.475777 0.766937,1.413525 0.686275,2.058823 -0.0181,0.144811 -0.132682,0.349086 -0.179028,0.447571 -0.107295,0.228001 -0.183133,0.518742 -0.387894,0.686274 -0.205369,0.168029 -1.072399,0.425921 -1.342711,0.477409 -0.253294,0.04825 -0.519984,0.05016 -0.775789,0.08951 -0.419164,0.06449 -0.826385,0.07173 -1.253197,0.08951 -0.04097,0.0017 -0.143957,-0.003 -0.119352,0.02984 0.186441,0.248588 0.580297,0.365486 0.835465,0.507246 0.132713,0.07373 0.257351,0.161195 0.387894,0.238704 0.187757,0.111481 0.385236,0.207095 0.566922,0.328219 0.157046,0.104696 0.437398,0.412476 0.537085,0.537084 0.08143,0.101787 0.08972,0.281224 0.119352,0.387894 0.09531,0.343101 0.265263,0.707586 0.208866,1.074169 -0.02971,0.193136 -0.09551,0.379033 -0.14919,0.566923 -0.02715,0.09501 -0.115428,0.137418 -0.14919,0.238704 -0.01604,0.04811 -0.01989,0.09946 -0.02984,0.14919 -0.02984,0.05968 -0.06473,0.11708 -0.08951,0.179028 -0.01523,0.03807 -0.0087,0.08419 -0.02984,0.119352 -0.01144,0.01907 -0.04633,0.01205 -0.05968,0.02984 -0.01887,0.02516 -0.01366,0.06254 -0.02984,0.08951 -0.05893,0.09822 -0.313877,0.199305 -0.417733,0.268542 -0.240472,0.160315 -0.48631,0.300161 -0.775788,0.358057 -0.07863,0.01573 -0.161343,0.0087 -0.238705,0.02984 -0.02333,0.0064 -0.214049,0.102915 -0.238704,0.119352 -0.0083,0.0055 0.0094,0.02669 0,0.02984 -0.01865,0.0062 -0.120181,-0.0041 -0.14919,0 -0.297207,0.04246 -0.593164,0.02984 -0.89514,0.02984 -0.139245,0 -0.27897,0.01156 -0.417733,0 -0.340835,-0.0284 -0.814418,-0.248795 -1.133845,-0.208866 -0.138286,0.01729 -0.194347,0.348768 -0.208866,0.417732 -0.09788,0.464929 -0.121691,0.937453 -0.208866,1.402387 -0.04638,0.247383 -0.04704,0.466301 -0.179028,0.686274 -0.01557,0.02596 -0.02711,0.07323 -0.05968,0.08951 -0.01779,0.0089 -0.03978,0 -0.05968,0 -0.226948,0 -0.264066,-0.137714 -0.387894,-0.328219 -0.389612,-0.599403 -0.845965,-1.213791 -0.954817,-1.939471 -0.01435,-0.09564 0.0046,-0.325361 0.02984,-0.417732 0.06857,-0.251431 0.05968,-0.02376 0.05968,-0.179029 0,-0.0099 0.0029,0.02031 0,0.02984 -0.02711,0.09038 -0.05778,0.179684 -0.08951,0.268543 -0.115262,0.322732 0.01175,-0.02867 -0.179028,0.29838 -0.182051,0.312088 -0.291958,0.691804 -0.358057,1.044331 -0.01296,0.06912 -0.01133,0.141015 -0.02984,0.208866 -0.02029,0.07441 -0.09207,0.241265 -0.14919,0.29838 -0.02536,0.02536 -0.06416,0.03432 -0.08951,0.05968 -0.01407,0.01407 0.01591,0.04774 0,0.05968 -0.03465,0.02599 -0.245318,0.09613 -0.268542,0.119352 -0.007,0.007 0.0089,0.02539 0,0.02984 -0.04265,0.02132 -0.132471,-0.01164 -0.179028,0 -0.05826,0.01457 -0.226964,0.06555 -0.29838,0.02984 -0.142836,-0.07142 0.02382,-0.316308 -0.119352,-0.387894 -0.04019,-0.0201 -0.105636,0.01452 -0.149191,0 -0.05401,0.01798 -0.05549,-0.04834 -0.08951,-0.05968 -0.03774,-0.01258 -0.08161,0.01258 -0.119352,0 -0.01334,-0.0044 -0.01726,-0.02355 -0.02984,-0.02984 -0.07103,-0.03552 -0.192615,0.02531 -0.268542,0 -0.05119,-0.01706 -0.101598,-0.01397 -0.14919,-0.02984 -0.04489,-0.01496 -0.278646,-0.13735 -0.29838,-0.14919 z" />
  <path
     style="fill:none;stroke:#ff9500;stroke-width:1.079;stroke-opacity:1"
     d="m 21.244672,25.213129 c 0.301131,-0.410345 0.543099,-0.864036 0.716112,-1.342711 0.05659,-0.156571 0.106309,-0.316835 0.18697,-0.462474 0.08066,-0.14564 0.19683,-0.278186 0.350115,-0.343153 0.121222,-0.05138 0.256258,-0.05716 0.387894,-0.05968 0.190969,-0.0037 0.385929,-0.0013 0.566922,0.05968 0.273281,0.09214 0.490288,0.313429 0.62288,0.569538 0.132593,0.25611 0.188172,0.545487 0.212585,0.832849 0.0042,0.04967 0.0075,0.09991 0,0.14919 -0.01573,0.102826 -0.07752,0.193147 -0.14919,0.268542 -0.168701,0.177473 -0.395866,0.289418 -0.629039,0.364167 -0.233172,0.07475 -0.475616,0.115593 -0.713672,0.172918 -0.128435,0.03093 -0.256302,0.06679 -0.387668,0.08076 -0.131366,0.01396 -0.268356,0.0048 -0.388121,-0.05092 -0.02016,-0.0094 -0.03972,-0.02003 -0.05968,-0.02984 -0.164941,-0.08104 -0.358375,-0.102536 -0.537084,-0.05968"
     id="path4"
     inkscape:path-effect="#path-effect4"
     inkscape:original-d="m 21.244672,25.213129 c 0.156411,-0.482899 0.470341,-0.900323 0.716112,-1.342711 0.128059,-0.230506 0.283977,-0.644558 0.537085,-0.805627 0.128374,-0.08169 0.245291,-0.05968 0.387894,-0.05968 0.232703,0 0.346381,-0.02158 0.566922,0.05968 0.593572,0.218685 0.835465,0.811579 0.835465,1.402387 0,0.04973 0.0098,0.100426 0,0.14919 -0.02069,0.103424 -0.08089,0.191705 -0.14919,0.268542 -0.347479,0.390914 -0.840434,0.501208 -1.342711,0.537085 -0.146763,0.01048 -0.569827,0.07103 -0.775789,0.02984 -0.02181,-0.0044 -0.03858,-0.02281 -0.05968,-0.02984 -0.105512,-0.03517 -0.456599,0.02081 -0.537084,-0.05968" />
  <path
     style="fill:none;stroke:#ff9500;stroke-width:1.079;stroke-opacity:1"
     d="m 22.885763,21.155158 c -0.100824,-0.250763 -0.118273,-0.534242 -0.04897,-0.795478 0.06931,-0.261235 0.224988,-0.498782 0.43686,-0.666585 0.145661,-0.115364 0.321688,-0.199187 0.507247,-0.208867 0.08944,-0.0047 0.17932,0.0078 0.268542,0 0.08589,-0.0075 0.168876,-0.03358 0.252157,-0.05589 0.08328,-0.02231 0.169198,-0.04112 0.255089,-0.03362 0.01998,0.0017 0.03983,0.0049 0.05985,0.006 0.02002,0.0011 0.04045,2.05e-4 0.0595,-0.006 0.02116,-0.0069 0.03966,-0.02008 0.05968,-0.02984 0.03682,-0.01795 0.07882,-0.02425 0.119625,-0.0206 0.0408,0.0036 0.08042,0.01699 0.116521,0.03635 0.0722,0.03872 0.129328,0.100183 0.181587,0.163278 0.103039,0.124404 0.194151,0.262464 0.238704,0.417732 0.04167,0.145237 0.0406,0.30203 0,0.44757 -0.04212,0.150961 -0.126068,0.289159 -0.235914,0.400948 -0.109846,0.11179 -0.245085,0.19749 -0.390685,0.255489 -0.08768,0.03492 -0.178914,0.05995 -0.268542,0.08951 -0.09327,0.03076 -0.18557,0.06681 -0.268542,0.119352 -0.0303,0.01919 -0.05921,0.04049 -0.08951,0.05968 -0.124015,0.07857 -0.270928,0.12038 -0.417732,0.119352 -0.09975,-6.98e-4 -0.200767,-0.02054 -0.298381,0 -0.03084,0.0065 -0.06076,0.01694 -0.08951,0.02984 -0.08624,0.03871 -0.163618,0.09995 -0.256075,0.119652 -0.04623,0.0098 -0.09605,0.0083 -0.13879,-0.01184 -0.02137,-0.01009 -0.04069,-0.02477 -0.05533,-0.04332 -0.01464,-0.01855 -0.0245,-0.04102 -0.02722,-0.06449 -0.0034,-0.02969 0.0044,-0.05994 0,-0.08951 -0.0046,-0.03117 -0.0224,-0.05889 -0.02984,-0.08951 -0.0067,-0.02776 -0.0046,-0.05761 0.006,-0.08413 0.01061,-0.02653 0.02966,-0.0496 0.05369,-0.06506 z"
     id="path5"
     inkscape:path-effect="#path-effect5"
     inkscape:original-d="m 22.885763,21.155158 c -0.09867,-0.546272 -0.02545,-1.048724 0.387894,-1.462063 0.107834,-0.107834 0.37417,-0.186687 0.507247,-0.208867 0.0883,-0.01472 0.179618,0.01026 0.268542,0 0.170563,-0.01968 0.337277,-0.06523 0.507246,-0.08951 0.03938,-0.0056 0.08011,0.0065 0.119352,0 0.02194,-0.0037 0.03858,-0.02281 0.05968,-0.02984 0.146967,-0.04899 0.325567,0.08686 0.417733,0.179029 0.138718,0.138718 0.194391,0.225709 0.238704,0.417732 0.02764,0.119752 0.06499,0.328419 0,0.44757 -0.07866,0.144211 -0.471836,0.59011 -0.626599,0.656437 -0.08673,0.03717 -0.181815,0.05235 -0.268542,0.08951 -0.09004,0.03859 -0.180927,0.07554 -0.268542,0.119352 -0.03207,0.01604 -0.05581,0.04742 -0.08951,0.05968 -0.136097,0.04949 -0.276365,0.08794 -0.417732,0.119352 -0.09484,0.02107 -0.20239,-0.016 -0.298381,0 -0.03102,0.0052 -0.05838,0.02539 -0.08951,0.02984 -0.06282,0.009 -0.432399,0.0225 -0.477408,0 -0.0049,-0.0025 0,-0.08158 0,-0.08951 0,-0.04627 -0.05143,-0.02475 -0.02984,-0.08951 0.01694,-0.05081 0.03978,-0.09946 0.05968,-0.14919 z" />
  <path
     style="fill:none;stroke:#1c3c55;stroke-width:1.079"
     d="m 13.994032,15.903666 c -0.166846,-0.163273 -0.317061,-0.343532 -0.44757,-0.537085 -0.14379,-0.21325 -0.26556,-0.444874 -0.44757,-0.626598 -0.08477,-0.08464 -0.181108,-0.156818 -0.268542,-0.238704 -0.149007,-0.139551 -0.270732,-0.305908 -0.417733,-0.447571 -0.111913,-0.107849 -0.237422,-0.200383 -0.358056,-0.29838 -0.20915,-0.169902 -0.404429,-0.356898 -0.620513,-0.517889 -0.216084,-0.16099 -0.45747,-0.297118 -0.722198,-0.347413 -0.04985,-0.0095 -0.100409,-0.01588 -0.14919,-0.02984 -0.07291,-0.02086 -0.139895,-0.05799 -0.208866,-0.08952 -0.241459,-0.1104 -0.5103119,-0.152736 -0.7757889,-0.14919 -0.035584,4.75e-4 -0.071259,0.0017 -0.1066951,-0.0015 -0.035436,-0.0033 -0.07092,-0.01129 -0.102171,-0.02831 -0.046205,-0.02517 -0.080689,-0.06924 -0.099146,-0.118513 -0.018457,-0.04927 -0.021641,-0.103429 -0.01458,-0.155569 0.014122,-0.104281 0.067107,-0.198497 0.1137264,-0.29284 0.1047712,-0.212026 0.1811979,-0.436657 0.2685422,-0.656437 0.1046608,-0.263352 0.2264452,-0.522318 0.3952268,-0.749961 0.168781,-0.227643 0.387636,-0.423789 0.649104,-0.533074 0.319714,-0.1336299 0.678364,-0.1298255 1.024393,-0.1114382 0.346029,0.018387 0.69885,0.048619 1.03443,-0.037751 0.176294,-0.045374 0.348265,-0.1228894 0.530298,-0.1213183 0.09102,7.856e-4 0.183605,0.022701 0.258571,0.074321 0.03748,0.02581 0.07017,0.058853 0.09414,0.097543 0.02396,0.03869 0.03906,0.083066 0.04197,0.1284826 0.0019,0.02979 -0.0014,0.05969 0,0.08951 0.0037,0.08148 0.04177,0.157765 0.08862,0.224531 0.04686,0.06677 0.103014,0.126585 0.150081,0.193201 0.06344,0.08979 0.109742,0.191043 0.176447,0.278427 0.03335,0.04369 0.07196,0.0839 0.117597,0.114541 0.04564,0.03064 0.09865,0.05144 0.153527,0.0546 0.0099,5.73e-4 0.0199,5.73e-4 0.02984,0 0.01171,-0.004 0.02502,-0.0031 0.03609,0.0024 0.01107,0.0055 0.01977,0.01565 0.02359,0.02742 0.0031,0.0095 0.003,0.01977 0.0022,0.02975 -8.18e-4,0.01 -0.0024,0.01992 -0.0022,0.02993 4.02e-4,0.02594 0.01248,0.0507 0.02935,0.07042 0.01686,0.01972 0.0383,0.03496 0.06016,0.04893 0.01212,0.0077 0.02452,0.01522 0.03535,0.0247 0.01083,0.0095 0.02014,0.02121 0.02433,0.03498 0.0044,0.01437 0.0029,0.02979 0.001,0.04469 -0.0019,0.0149 -0.0041,0.03011 -0.001,0.04482 0.0023,0.01094 0.0073,0.0211 0.01294,0.03075 0.0056,0.0096 0.0119,0.01894 0.0169,0.02893 0.01045,0.02092 0.01502,0.04449 0.01514,0.06787 1.24e-4,0.02338 -0.0041,0.04663 -0.01046,0.06913 -0.01276,0.04499 -0.03409,0.08711 -0.04838,0.131637 -0.0071,0.02227 -0.01253,0.04522 -0.01401,0.06855 -0.0015,0.02334 0.0011,0.04712 0.0093,0.069 0.0083,0.02188 0.02243,0.04178 0.0416,0.05518 0.01917,0.0134 0.04343,0.01991 0.06649,0.01604 0.005,-8.43e-4 0.01,-0.0022 0.01504,-0.0026 0.0051,-4.45e-4 0.0104,5.1e-5 0.0148,0.0026 0.0047,0.0027 0.0079,0.0075 0.0093,0.01274 0.0014,0.0052 0.0012,0.01074 1.61e-4,0.01603 -0.0021,0.01058 -0.0074,0.02032 -0.0095,0.03091 -0.0025,0.01284 1.01e-4,0.02633 0.0057,0.03815 0.0056,0.01181 0.01409,0.02206 0.02359,0.03105 0.01898,0.01798 0.04211,0.03129 0.06022,0.05015 0.02275,0.02369 0.03628,0.05484 0.04495,0.08652 0.0087,0.03168 0.01291,0.06438 0.01979,0.09649 0.0069,0.03211 0.01667,0.06422 0.03514,0.09138 0.0092,0.01358 0.0206,0.0258 0.03401,0.03528 0.01341,0.0095 0.0289,0.01616 0.04515,0.01855 0.01207,0.0018 0.02456,0.0012 0.03623,0.0048 0.0058,0.0018 0.01144,0.0046 0.01579,0.0089 0.0044,0.0043 0.0074,0.01006 0.0077,0.01616 2.29e-4,0.0051 -0.0014,0.01009 -0.0023,0.01513 -4.39e-4,0.0025 -6.83e-4,0.0051 -3.95e-4,0.0076 2.88e-4,0.0025 0.0011,0.0051 0.0027,0.0071 0.0016,0.0021 0.004,0.0036 0.0066,0.0044 0.0026,7.83e-4 0.0053,8.9e-4 0.008,5.62e-4 0.0053,-6.57e-4 0.01027,-0.003 0.01527,-0.005 0.0207,-0.0081 0.04378,-0.01007 0.06555,-0.0055 0.02177,0.0045 0.04215,0.01556 0.05787,0.03128 0.01573,0.01573 0.02674,0.0361 0.03129,0.05787 0.0045,0.02177 0.0026,0.04485 -0.0055,0.06555"
     id="path6"
     inkscape:path-effect="#path-effect6"
     inkscape:original-d="m 13.994032,15.903666 c -0.132354,-0.192439 -0.302883,-0.356226 -0.44757,-0.537085 -0.159292,-0.199115 -0.271929,-0.439248 -0.44757,-0.626598 -0.08191,-0.08737 -0.183855,-0.154017 -0.268542,-0.238704 -0.497185,-0.497185 0.05736,0.02752 -0.417733,-0.447571 -0.30343,-0.30343 0.02208,0.0057 -0.358056,-0.29838 -0.404589,-0.323671 -0.830468,-0.711629 -1.342711,-0.865302 -0.04858,-0.01457 -0.101078,-0.0138 -0.14919,-0.02984 -0.477409,-0.159137 0.156137,0.01477 -0.208866,-0.08952 -0.248721,-0.07106 -0.5205097,-0.112721 -0.7757889,-0.14919 -0.022033,-0.0031 -0.2026306,-0.0049 -0.2088661,-0.02984 -0.018346,-0.07338 -0.017403,-0.51278 0,-0.566922 0.072345,-0.225073 0.173116,-0.440137 0.2685422,-0.656437 0.1710275,-0.387662 0.6245078,-1.115105 1.0443308,-1.283035 0.571492,-0.2285962 1.45058,-0.2221789 2.058823,-0.1491896 0.05796,0.00696 0.880189,0.1342376 0.924979,0.1790286 0.0211,0.0211 -0.0072,0.06057 0,0.08951 0.03657,0.14627 0.150093,0.299583 0.238704,0.417732 0.09097,0.121286 0.327388,0.367449 0.447571,0.44757 0.0083,0.0055 0.01989,0 0.02984,0 0.01989,0.0099 0.04395,0.01411 0.05968,0.02984 0.01407,0.01407 -0.01103,0.04312 0,0.05968 0.02759,0.04138 0.05968,0.07957 0.08951,0.119352 0.01688,0.02251 0.04923,0.03356 0.05968,0.05968 0.01108,0.0277 -0.0059,0.06026 0,0.08951 0.0044,0.02181 0.02444,0.0381 0.02984,0.05968 0.01118,0.04474 0.05638,0.474109 0.05968,0.477408 0.007,0.007 0.0228,-0.007 0.02984,0 0.01407,0.01407 -0.01023,0.04262 0,0.05968 0.02559,0.04264 0.06393,0.07671 0.08951,0.119352 0.05544,0.0924 0.107348,0.242202 0.179028,0.328218 0.01424,0.01708 0.04395,0.01411 0.05968,0.02984 0.007,0.007 -0.007,0.0228 0,0.02984 0.007,0.007 0.02539,-0.0089 0.02984,0 0.06916,0.138328 -0.118155,0.14919 0.14919,0.14919" />
  <path
     style="fill:none;stroke:#1c3c55;stroke-width:1.079"
     d="m 9.0110827,12.054561 c -0.2039055,0.214536 -0.423495,0.414163 -0.6564365,0.59676 -0.2782583,0.21812 -0.5788269,0.415045 -0.8056266,0.686275 -0.1294041,0.154754 -0.2316071,0.330157 -0.3282182,0.507246 -0.2348708,0.430521 -0.4410192,0.877676 -0.5967605,1.342711 -0.082913,0.247572 -0.1514455,0.499877 -0.2387042,0.745951 -0.2493854,0.70328 -0.6466061,1.342678 -0.9925463,2.00383 -0.3459402,0.661151 -0.6472195,1.36828 -0.6783829,2.113817 -0.036289,0.868151 0.2949423,1.705881 0.4177323,2.56607 0.083085,0.582042 0.070311,1.172815 0.089514,1.760443 0.0065,0.19894 0.016673,0.398415 0,0.596761 -0.040233,0.478608 -0.2340429,0.928767 -0.4177323,1.372549 -0.017047,0.04118 -0.034225,0.08276 -0.059676,0.119352 -0.037096,0.05333 -0.090894,0.09411 -0.1506274,0.119652 -0.059733,0.02554 -0.1252275,0.03626 -0.1901912,0.03572 C 4.2734996,26.620629 4.148155,26.575775 4.028133,26.526006 3.8330429,26.445108 3.6403928,26.347118 3.4910486,26.197783 3.3479652,26.054708 3.2520851,25.872132 3.1628303,25.690537 2.9150074,25.186324 2.7011227,24.665958 2.5063939,24.13896 2.1349927,23.13383 1.829339,22.074508 1.9096334,21.005968 c 0.1057169,-1.406857 0.8630454,-2.672329 1.2531969,-4.028133 0.076722,-0.266614 0.1392706,-0.537064 0.2088662,-0.805627 0.1283632,-0.495341 0.2810895,-0.98602 0.3580563,-1.491901 0.067603,-0.444333 0.075958,-0.895365 0.1193521,-1.342711 0.054673,-0.563617 0.1649241,-1.120618 0.2983802,-1.670929 0.046778,-0.192891 0.096832,-0.38626 0.1790281,-0.566923 C 4.4919567,10.736109 4.7775175,10.443791 5.0426257,10.144928 5.3419525,9.807489 5.6216969,9.4522448 5.9377664,9.1304348 6.3627983,8.6976835 6.8486068,8.3302979 7.3103154,7.9369139 7.8031912,7.5169748 8.2696439,7.0664046 8.7127025,6.5942029 8.8812066,6.4146151 9.0463976,6.2318337 9.2199488,6.0571185 9.8294795,5.4434996 10.540314,4.9325905 11.30861,4.5353794 12.096396,4.1280919 12.944555,3.8398054 13.815004,3.6700767 14.338327,3.5680341 14.86887,3.5086488 15.396419,3.4313725 16.832683,3.220986 18.245618,2.8781853 19.663257,2.5660699 20.393492,2.4052973 21.127229,2.2522953 21.87127,2.1781756 c 0.625571,-0.062318 1.256311,-0.06864 1.879796,-0.1491901 0.258279,-0.033368 0.515556,-0.07949 0.775788,-0.089514 0.198796,-0.00766 0.397902,0.00582 0.596761,0 0.179245,-0.00525 0.3578,-0.026174 0.537084,-0.029838 0.278673,-0.0057 0.556734,0.030335 0.835465,0.029838 0.09948,-1.773e-4 0.199029,-0.00501 0.29838,0 0.160817,0.0081 0.32187,0.042744 0.465142,0.1162364 0.143271,0.073492 0.268061,0.1875198 0.340485,0.331334 0.06458,0.1282303 0.08554,0.2742146 0.08951,0.4177323 0.0045,0.161049 -0.0116,0.3236382 -0.05968,0.4774083 -0.06099,0.1950593 -0.172808,0.3724763 -0.313497,0.520713 -0.140688,0.1482367 -0.309759,0.2679501 -0.490644,0.3630712 -0.36177,0.1902422 -0.76592,0.2818368 -1.165169,0.3694128 -1.082262,0.2373959 -2.167823,0.4594251 -3.252344,0.6862745 -1.101707,0.2304441 -2.20271,0.4659342 -3.312021,0.6564365 -0.683471,0.1173726 -1.374353,0.2187349 -2.028985,0.4475703 -0.392393,0.1371664 -0.768369,0.3190618 -1.163683,0.4475703 -0.278208,0.09044 -0.564651,0.1539868 -0.842251,0.246275 -0.2776,0.092288 -0.550137,0.2160562 -0.769002,0.4101615 -0.03736,0.033134 -0.07391,0.068803 -0.119352,0.089514 -0.02872,0.01309 -0.05988,0.019662 -0.09056,0.0271 -0.03067,0.00744 -0.0616,0.016031 -0.08847,0.032576 -0.03745,0.023052 -0.06412,0.059605 -0.09481,0.091097 -0.01535,0.015746 -0.03201,0.030468 -0.05114,0.0413 -0.01913,0.010832 -0.04094,0.017647 -0.06291,0.016793 -0.02371,-9.22e-4 -0.04657,-0.01062 -0.0703,-0.010403 -0.01187,1.086e-4 -0.02401,0.00288 -0.03362,0.00985 -0.0048,0.00348 -0.0089,0.00798 -0.01167,0.01323 -0.0028,0.00525 -0.0042,0.011244 -0.0038,0.017162 3.63e-4,0.00512 0.0021,0.010055 0.0028,0.015136 3.75e-4,0.00254 5.12e-4,0.00514 1.22e-4,0.00767 -3.89e-4,0.00254 -0.0013,0.00502 -0.0029,0.00703 -0.0017,0.0021 -0.0041,0.0036 -0.0066,0.00443 -0.0026,8.274e-4 -0.0053,0.001 -0.008,7.213e-4 -0.0054,-5.609e-4 -0.01035,-0.00288 -0.01523,-0.00516 -0.0049,-0.00228 -0.0099,-0.0046 -0.01523,-0.00516 -0.0027,-2.794e-4 -0.0054,-1.037e-4 -0.008,7.251e-4 -0.0026,8.288e-4 -0.0049,0.00233 -0.0066,0.00444 -0.0016,0.00201 -0.0025,0.00449 -0.0029,0.00703 -3.87e-4,0.00254 -2.5e-4,0.00513 1.26e-4,0.00767 7.51e-4,0.00508 0.0024,0.010013 0.0028,0.015135 4.09e-4,0.00591 -0.001,0.011897 -0.0038,0.017126 -0.0028,0.00523 -0.0069,0.00971 -0.01171,0.013165 -0.0096,0.00691 -0.02176,0.00963 -0.03361,0.00971 -0.0237,1.51e-4 -0.04654,-0.00952 -0.07023,-0.010161 -0.02195,-5.922e-4 -0.0436,0.0067 -0.06246,0.017947 -0.01885,0.011247 -0.03514,0.026321 -0.05025,0.04225 -0.03021,0.031858 -0.05736,0.068434 -0.09616,0.088993 -0.0364,0.01929 -0.07886,0.022219 -0.119352,0.029838 -0.110413,0.020778 -0.211061,0.078492 -0.29838,0.1491901 -0.04953,0.040103 -0.09568,0.084739 -0.149191,0.1193521 -0.112324,0.072655 -0.251783,0.097778 -0.358056,0.1790281 -0.05594,0.042767 -0.0998,0.098999 -0.14919,0.1491901 -0.143997,0.1463455 -0.334285,0.2406942 -0.477408,0.3878943 -0.05418,0.055721 -0.100791,0.1182198 -0.14919,0.1790281 -0.193075,0.242578 -0.416404,0.4602072 -0.656437,0.6564365 -0.114688,0.093759 -0.234345,0.1837859 -0.328218,0.2983809 -0.07194,0.08782 -0.127819,0.189041 -0.208866,0.268542 -0.04556,0.04469 -0.09811,0.08153 -0.146888,0.122689 -0.04878,0.04116 -0.09474,0.08798 -0.121654,0.145853 -0.0094,0.02029 -0.01638,0.04165 -0.02503,0.06229 -0.0086,0.02065 -0.01919,0.04088 -0.03465,0.05706 -0.01483,0.0155 -0.03352,0.02663 -0.05053,0.0397 -0.0085,0.0065 -0.016648,0.01362 -0.023529,0.02185 -0.00688,0.0082 -0.012484,0.01765 -0.015456,0.02796 -0.00555,0.01924 -0.00162,0.03972 0,0.05968 0.00583,0.07176 -0.01935,0.143578 -0.059186,0.203547 -0.039836,0.05997 -0.093628,0.109329 -0.1496805,0.154509 -0.052982,0.0427 -0.1086247,0.08239 -0.1575201,0.129714 -0.048895,0.04733 -0.091396,0.103509 -0.1110221,0.168667 -0.00917,0.03044 -0.013166,0.06218 -0.020446,0.09313 -0.00728,0.03095 -0.018323,0.06194 -0.03923,0.08589 -0.017066,0.01955 -0.039725,0.03332 -0.058588,0.05115 -0.00943,0.0089 -0.017979,0.01895 -0.023834,0.03054 -0.00585,0.01158 -0.0089,0.02482 -0.00709,0.03767 0.00147,0.01045 0.00604,0.02024 0.00793,0.03063 9.432e-4,0.0052 0.0012,0.01058 3.93e-5,0.01573 -0.00116,0.0051 -0.00382,0.01006 -0.00797,0.01333 -0.00402,0.0032 -0.00919,0.0046 -0.014301,0.0048 -0.00511,2.27e-4 -0.010203,-6.94e-4 -0.015184,-0.0019 -0.00498,-0.0012 -0.00991,-0.0026 -0.014965,-0.0034 -0.00505,-7.95e-4 -0.010291,-9.5e-4 -0.015226,3.98e-4 -0.00458,0.0012 -0.00876,0.0038 -0.012237,0.007 -0.00347,0.0032 -0.00625,0.0072 -0.00844,0.01138 -0.00437,0.0084 -0.00636,0.01785 -0.0084,0.02712 -0.00204,0.0093 -0.00423,0.01867 -0.00893,0.02692 -0.00235,0.0041 -0.00533,0.0079 -0.00899,0.01094 -0.00366,0.003 -0.00802,0.0053 -0.012682,0.0061 -0.00491,9.31e-4 -0.00996,3.63e-4 -0.014927,-1.55e-4 -0.00497,-5.18e-4 -0.010046,-9.79e-4 -0.014911,1.55e-4 -0.00575,0.0013 -0.010853,0.0049 -0.014665,0.0094 -0.00381,0.0045 -0.0064,0.01 -0.00819,0.01558 -0.00357,0.01126 -0.00402,0.02328 -0.00699,0.03471 -0.00575,0.02218 -0.021396,0.0416 -0.041844,0.05194 -0.020448,0.01034 -0.045359,0.01144 -0.066635,0.0029 -0.021276,-0.0085 -0.03856,-0.02648 -0.046234,-0.04807 -0.00767,-0.02159 -0.00561,-0.04644 0.00552,-0.06647 z"
     id="path7"
     inkscape:path-effect="#path-effect7"
     inkscape:original-d="m 9.0110827,12.054561 c -0.1231709,0.313685 -0.4032837,0.409647 -0.6564365,0.59676 -0.086059,0.06361 -0.7790107,0.655564 -0.8056266,0.686275 -0.1318973,0.152189 -0.2239373,0.334956 -0.3282182,0.507246 -0.4360607,0.720448 -0.3309683,0.528723 -0.5967605,1.342711 -0.081037,0.248176 -0.1318239,0.507761 -0.2387042,0.745951 -0.5814843,1.295879 -1.5894357,2.650764 -1.6709292,4.117647 -0.039676,0.714159 0.3253222,2.073216 0.4177323,2.56607 0.142964,0.762475 0.089514,0.84244 0.089514,1.760443 0,0.19892 0.031564,0.400361 0,0.596761 -0.1399794,0.870983 -0.1503472,0.837778 -0.4177323,1.372549 -0.019892,0.03978 -0.023481,0.0935 -0.059676,0.119352 -0.085314,0.06094 -0.6176965,0.08592 -0.7161125,0.05968 C 3.9108225,26.494719 3.5484419,26.263376 3.4910486,26.197783 3.3584315,26.046221 3.2598846,25.866999 3.1628303,25.690537 2.882421,25.180702 2.7044604,24.688144 2.5063939,24.13896 2.1444026,23.135257 1.8392147,22.090415 1.9096334,21.005968 c 0.090575,-1.394861 0.8382037,-2.70992 1.2531969,-4.028133 0.083305,-0.264618 0.139668,-0.536975 0.2088662,-0.805627 0.053749,-0.208672 0.3023488,-1.06481 0.3580563,-1.491901 0.057884,-0.443777 0.078818,-0.896836 0.1193521,-1.342711 0.051485,-0.566332 0.1669711,-1.119011 0.2983802,-1.670929 0.088682,-0.372466 0.00902,-0.226909 0.1790281,-0.566923 C 4.5078266,10.737118 4.7874233,10.454816 5.0426257,10.144928 5.3273021,9.7992491 5.6129733,9.4401212 5.9377664,9.1304348 7.0240233,8.0947015 6.5293478,8.5877202 7.3103154,7.9369139 7.8058922,7.5239333 8.2677843,7.061367 8.7127025,6.5942029 9.0469588,6.2432337 8.8946678,6.3643283 9.2199488,6.0571185 9.8374213,5.47395 10.558684,4.9337775 11.30861,4.5353794 c 0.784273,-0.4166449 1.636899,-0.698092 2.506394,-0.8653027 0.716912,-0.1378677 0.839438,-0.1127079 1.581415,-0.2387042 1.429428,-0.2427329 2.844328,-0.587341 4.266838,-0.8653026 0.10254,-0.020037 1.686069,-0.3192174 2.208013,-0.3878943 0.6257,-0.082329 1.252455,-0.096912 1.879796,-0.1491901 0.259412,-0.021618 0.516028,-0.072573 0.775788,-0.089514 0.198499,-0.012946 0.397909,0.00523 0.596761,0 0.179242,-0.00472 0.357862,-0.024407 0.537084,-0.029838 0.620023,-0.018788 0.261641,0.00489 0.835465,0.029838 0.09937,0.00432 0.199114,-0.0062 0.29838,0 0.300252,0.018766 0.589524,0.2623395 0.805627,0.4475704 0.13703,0.1174549 0.08951,0.2481677 0.08951,0.4177323 0,0.1589758 0.0193,0.328235 -0.05968,0.4774083 -0.317811,0.6003093 -1.363028,1.0735579 -1.96931,1.253197 -1.062652,0.3148598 -2.165459,0.4833892 -3.252344,0.6862745 -1.108422,0.2069054 -2.208855,0.4224316 -3.312021,0.6564365 -0.67742,0.1436952 -1.367382,0.2349121 -2.028985,0.4475703 -0.395659,0.1271761 -0.772793,0.3064156 -1.163683,0.4475703 -0.550091,0.1986438 -1.089189,0.3829742 -1.611253,0.6564365 -0.04405,0.023075 -0.07487,0.067274 -0.119352,0.089514 -0.05626,0.028132 -0.122765,0.031545 -0.179029,0.059676 -0.03334,0.016671 -0.173108,0.122372 -0.208866,0.1491901 -0.01508,0.011313 -0.111257,0.021743 -0.119352,0.029838 -0.007,0.00703 0.0089,0.02539 0,0.029838 -0.01779,0.0089 -0.04188,-0.0089 -0.05968,0 -0.0089,0.00445 0.007,0.022805 0,0.029838 -0.029,0.028997 -0.08419,0.00874 -0.119352,0.029838 -0.0506,0.030359 -0.15857,0.1240422 -0.208866,0.1491901 -0.03668,0.01834 -0.08095,0.015439 -0.119352,0.029838 -0.10412,0.039045 -0.204566,0.08949 -0.29838,0.1491901 -0.05373,0.034191 -0.09418,0.087263 -0.149191,0.1193521 -0.191261,0.1115694 -0.198205,0.051148 -0.358056,0.1790281 -0.05492,0.043934 -0.09476,0.1046552 -0.14919,0.1491901 -0.428657,0.3507197 0.132293,-0.2218065 -0.477408,0.3878943 -0.05493,0.054929 -0.0965,0.121948 -0.14919,0.1790281 -0.208156,0.2255023 -0.433314,0.4457091 -0.656437,0.6564365 -0.107495,0.1015228 -0.223667,0.1938289 -0.328218,0.2983809 -0.077,0.077 -0.131862,0.191538 -0.208866,0.268542 -0.09588,0.09588 -0.187594,0.16061 -0.268542,0.268542 -0.02669,0.03558 -0.035,0.08234 -0.05968,0.119352 -0.02984,0.04476 -0.059676,0.02984 -0.089514,0.08951 -0.0089,0.01779 0.00629,0.0408 0,0.05968 -0.031627,0.09488 -0.1499159,0.269631 -0.2088662,0.358056 -0.069803,0.104706 -0.214474,0.190244 -0.2685422,0.298381 -0.028132,0.05626 -0.027312,0.125088 -0.059676,0.179028 -0.072861,0.121435 -0.049104,-0.0019 -0.089514,0.119352 -0.00629,0.01887 0.014066,0.04561 0,0.05968 -0.019933,0.01993 -0.039742,-0.01993 -0.059676,0 -0.036342,0.03634 -0.013977,0.06666 -0.059676,0.08951 -0.0089,0.0044 -0.022805,-0.007 -0.029838,0 -0.020168,0.02017 -0.016293,0.06239 -0.029838,0.05968 -0.052521,-0.0105 -0.09946,-0.03978 -0.1491901,-0.05968 z" />
  <path
     style="fill:none;stroke:#1c3c55;stroke-width:1.079"
     d="m 30.494459,32.404092 c 0.340426,0.211982 0.688868,0.411092 1.04433,0.596761 0.236562,0.123564 0.476189,0.241155 0.716113,0.358056 0.487849,0.237701 0.977077,0.472624 1.462063,0.716112 0.0795,0.03992 0.158892,0.08006 0.238704,0.119352 0.0049,0.0024 0.0099,0.0048 0.01526,0.0054 0.0027,2.93e-4 0.0055,1.05e-4 0.008,-7.69e-4 0.0026,-8.74e-4 0.0049,-0.0025 0.0065,-0.0046 0.0013,-0.0017 0.002,-0.0037 0.0023,-0.0058 2.67e-4,-0.0021 3.4e-5,-0.0043 -6.04e-4,-0.0063 -0.0013,-0.004 -0.0041,-0.0074 -0.0076,-0.0099 -0.0069,-0.0049 -0.01566,-0.0061 -0.02394,-0.0078 -0.02902,-0.0062 -0.05579,-0.02156 -0.07686,-0.04245 -0.02107,-0.02089 -0.03652,-0.04715 -0.04606,-0.07524 -0.01909,-0.05619 -0.0145,-0.11815 0.0012,-0.175385 0.01567,-0.05723 0.04189,-0.110909 0.06625,-0.165018 0.02436,-0.05411 0.04722,-0.10974 0.0555,-0.168501 0.01119,-0.07941 -0.0048,-0.159814 -0.01924,-0.238692 -0.01447,-0.07888 -0.02749,-0.160321 -0.0106,-0.238716 0.016,-0.07425 0.05757,-0.139955 0.08951,-0.208867 0.112869,-0.243556 0.105465,-0.528064 0.208866,-0.775788 0.04236,-0.101487 0.103167,-0.19643 0.126689,-0.303858 0.01176,-0.05371 0.01369,-0.110393 -0.0014,-0.163283 -0.01504,-0.05289 -0.04813,-0.101693 -0.0955,-0.12962 -0.04822,-0.02843 -0.107002,-0.03346 -0.162735,-0.02823 -0.05573,0.0052 -0.110129,0.0199 -0.165483,0.02823 -0.223636,0.03366 -0.453648,-0.03903 -0.643934,-0.161247 -0.190285,-0.12222 -0.34577,-0.291081 -0.489911,-0.465351 -0.04434,-0.0536 -0.08818,-0.108281 -0.141467,-0.153007 -0.05328,-0.04472 -0.117471,-0.0794 -0.186751,-0.0857 -0.02447,-0.0022 -0.04961,-9.65e-4 -0.07303,-0.0084 -0.01171,-0.0037 -0.02288,-0.0097 -0.03147,-0.01847 -0.0086,-0.0088 -0.01445,-0.02053 -0.01485,-0.03281 -3.35e-4,-0.01023 0.003,-0.02017 0.0048,-0.03026 8.69e-4,-0.005 0.0013,-0.0102 7.36e-4,-0.01528 -6.02e-4,-0.0051 -0.0023,-0.01011 -0.0055,-0.01413 -0.0033,-0.0042 -0.0081,-0.0071 -0.01322,-0.0087 -0.0051,-0.0015 -0.0106,-0.0017 -0.01592,-0.0011 -0.01064,0.0013 -0.02052,0.006 -0.03053,0.0098 -0.04603,0.01755 -0.09829,0.01821 -0.144747,0.0018 -0.04646,-0.01639 -0.08673,-0.0497 -0.111555,-0.09225 -0.02482,-0.04255 -0.03399,-0.09401 -0.02539,-0.142515 0.0086,-0.04851 0.03489,-0.09368 0.07283,-0.125104"
     id="path8"
     inkscape:path-effect="#path-effect8"
     inkscape:original-d="m 30.494459,32.404092 c 0.487284,0.121821 -0.0664,-0.02929 1.04433,0.596761 0.232493,0.131041 0.478313,0.236912 0.716113,0.358056 1.662789,0.847081 0.163623,0.113265 1.462063,0.716112 0.08069,0.03746 0.157412,0.08322 0.238704,0.119352 0.0091,0.004 0.02984,0.0099 0.02984,0 0,-0.01407 -0.02643,-0.01619 -0.02984,-0.02984 -0.04781,-0.19123 0.01962,-0.430426 0,-0.626598 -0.01491,-0.149093 -0.06056,-0.323813 -0.02984,-0.477408 0.01414,-0.07073 0.06958,-0.139097 0.08951,-0.208867 0.06615,-0.231512 0.173396,-0.545231 0.208866,-0.775788 0.0043,-0.02801 0.04613,-0.580465 0.02984,-0.596761 -0.02011,-0.02011 -0.285408,0.01511 -0.328218,0 -0.438034,-0.1546 -0.750387,-0.365149 -1.133845,-0.626598 -0.111772,-0.07621 -0.215658,-0.163664 -0.328218,-0.238704 -0.03701,-0.02467 -0.08377,-0.03299 -0.119352,-0.05968 -0.01591,-0.01194 0.01779,-0.05078 0,-0.05968 -0.01779,-0.0089 -0.04313,0.01103 -0.05968,0 -0.07846,-0.05231 -0.160392,-0.358057 -0.208866,-0.358057" />
  <path
     style="fill:none;stroke:#1c3c55;stroke-width:1.079"
     d="M 6.3554987,8.1756181 C 5.6923221,7.7437785 5.1721263,7.0961877 4.8934356,6.3554987 4.8224941,6.1669543 4.7666922,5.9725261 4.6845695,5.7885763 4.5502973,5.4878146 4.3452691,5.2182164 4.087809,5.0127877 3.7439477,4.7384191 3.3041667,4.5820913 2.8644501,4.5950554 c -0.019894,5.865e-4 -0.039831,0.00151 -0.059676,0 C 2.7308764,4.5894423 2.6612566,4.5488961 2.6162376,4.4900262 2.5712186,4.4311562 2.5503872,4.3552654 2.5544093,4.281264 2.5584314,4.2072626 2.5865087,4.1354163 2.6299593,4.0753794 2.67341,4.0153426 2.7318028,3.9668616 2.7965866,3.9308693 2.9261541,3.8588846 3.0776508,3.8372163 3.2257671,3.83164 c 0.1481163,-0.00558 0.2969527,0.00361 0.4443096,-0.012373 0.1729187,-0.018756 0.339964,-0.071715 0.5072464,-0.1193521 1.1126991,-0.3168609 2.3030862,-0.4050613 3.4313726,-0.1491901 0.1294161,0.029349 0.2578403,0.063135 0.3878942,0.089514 0.062081,0.012592 0.126494,0.024281 0.1790282,0.059676 0.052609,0.035445 0.088043,0.091478 0.1133005,0.1496683 0.025257,0.058191 0.041791,0.1198037 0.065728,0.17855 0.050398,0.123689 0.1327835,0.2327553 0.1790281,0.3580563 0.066544,0.180302 0.052961,0.3821738 0,0.5669224 -0.019961,0.069634 -0.045352,0.137858 -0.059676,0.2088661 -0.021751,0.1078241 -0.017381,0.2196042 0,0.3282183 0.012976,0.081085 0.033133,0.160996 0.059676,0.2387042 0.024507,0.071749 0.054459,0.1416374 0.089514,0.2088661"
     id="path9"
     inkscape:path-effect="#path-effect9"
     inkscape:original-d="M 6.3554987,8.1756181 C 5.7909646,7.6481988 5.2067347,7.0784966 4.8934356,6.3554987 4.813361,6.170711 4.7669498,5.9723477 4.6845695,5.7885763 4.5678897,5.5282906 4.3330683,5.1762939 4.087809,5.0127877 3.8814168,4.8751929 3.0939048,4.6587928 2.8644501,4.5950554 c -0.019166,-0.00532 -0.054851,0.019298 -0.059676,0 C 2.7347851,4.3150993 3.4957135,3.8815394 3.6700767,3.8192668 3.8336569,3.7608454 4.0069967,3.73398 4.1773231,3.6999147 5.3702052,3.4613383 6.3907109,3.4178536 7.6086957,3.5507246 c 0.1319136,0.014391 0.259567,0.055744 0.3878942,0.089514 0.060833,0.016009 0.1293747,0.021057 0.1790282,0.059676 0.033775,0.026269 0.1671946,0.3045512 0.1790281,0.3282183 0.059676,0.1193521 0.1466643,0.2286007 0.1790281,0.3580563 0.023062,0.092247 0.013257,0.4741221 0,0.5669224 -0.01024,0.07168 -0.045476,0.1378642 -0.059676,0.2088661 -0.015191,0.075955 -0.015031,0.2530643 0,0.3282183 0.016085,0.080424 0.029216,0.1625534 0.059676,0.2387042 0.099749,0.249371 0.089514,0.062684 0.089514,0.2088661" />
</svg>
