<?xml version="1.0" encoding="UTF-8" standalone="no"?>
<svg
   width="30px"
   height="35px"
   viewBox="0 0 30 35"
   version="1.1"
   id="svg5"
   sodipodi:docname="ico_meetups.svg"
   inkscape:version="1.3.2 (091e20e, 2023-11-25, custom)"
   xmlns:inkscape="http://www.inkscape.org/namespaces/inkscape"
   xmlns:sodipodi="http://sodipodi.sourceforge.net/DTD/sodipodi-0.dtd"
   xmlns="http://www.w3.org/2000/svg"
   xmlns:svg="http://www.w3.org/2000/svg">
  <sodipodi:namedview
     id="namedview5"
     pagecolor="#ffffff"
     bordercolor="#000000"
     borderopacity="0.25"
     inkscape:showpageshadow="2"
     inkscape:pageopacity="0.0"
     inkscape:pagecheckerboard="0"
     inkscape:deskcolor="#d1d1d1"
     inkscape:zoom="33.514286"
     inkscape:cx="15.008525"
     inkscape:cy="17.5"
     inkscape:window-width="2560"
     inkscape:window-height="1369"
     inkscape:window-x="-8"
     inkscape:window-y="-8"
     inkscape:window-maximized="1"
     inkscape:current-layer="svg5" />
  <!-- Generator: Sketch 49 (51002) - http://www.bohemiancoding.com/sketch -->
  <title
     id="title1">people</title>
  <desc
     id="desc1">Created with Sketch.</desc>
  <defs
     id="defs1">
    <inkscape:path-effect
       effect="spiro"
       id="path-effect11"
       is_visible="true"
       lpeversion="1" />
    <inkscape:path-effect
       effect="spiro"
       id="path-effect10"
       is_visible="true"
       lpeversion="1" />
    <inkscape:path-effect
       effect="spiro"
       id="path-effect9"
       is_visible="true"
       lpeversion="1" />
    <inkscape:path-effect
       effect="spiro"
       id="path-effect8"
       is_visible="true"
       lpeversion="1" />
    <inkscape:path-effect
       effect="spiro"
       id="path-effect7"
       is_visible="true"
       lpeversion="1" />
    <inkscape:path-effect
       effect="spiro"
       id="path-effect6"
       is_visible="true"
       lpeversion="1" />
  </defs>
  <path
     style="fill:none;stroke:#95aabf;stroke-width:1.079"
     d="m 9.1304348,21.184996 c -0.2045182,0.554779 -0.3256435,1.140218 -0.3580563,1.730605 -0.020724,0.377471 -0.00541,0.755845 0,1.133845 0.00627,0.437765 -7.454e-4,0.876132 0.029838,1.312873 0.032013,0.457152 0.1051363,0.911184 0.1222273,1.369137 0.017091,0.457954 -0.024689,0.927764 -0.2117413,1.346123 -0.1381463,0.308977 -0.3514227,0.581009 -0.4774084,0.895141 -0.2052789,0.511841 -0.1636928,1.095169 -0.3580562,1.611253 -0.048485,0.128739 -0.1111082,0.251654 -0.1640967,0.378606 -0.052989,0.126951 -0.096693,0.259834 -0.1044455,0.397182 -0.00449,0.07946 0.00314,0.159179 0,0.238704 -0.00716,0.181544 -0.069968,0.356454 -0.089514,0.537085 -0.024448,0.225935 0.019296,0.452851 0.039577,0.679198 0.010141,0.113174 0.014399,0.227401 0.00133,0.340275 -0.013064,0.112873 -0.043938,0.224739 -0.1005873,0.323238 -0.075421,0.13114 -0.1932238,0.23328 -0.3200665,0.315723 -0.1268428,0.08244 -0.2640774,0.1474 -0.396046,0.221361 -0.089346,0.05007 -0.1764481,0.104371 -0.2685422,0.14919 -0.172123,0.08377 -0.3617125,0.133544 -0.5531148,0.136434 -0.1914024,0.0029 -0.3844221,-0.04193 -0.550892,-0.136434 C 5.1421237,34.034692 4.9743629,33.819881 4.8337596,33.597613 4.3125089,32.773611 4.091003,31.793288 3.998295,30.822677 3.9717467,30.544728 3.9550177,30.265944 3.938619,29.987212 3.9310017,29.857739 3.9234478,29.728183 3.908781,29.599318 3.8758425,29.309915 3.8071219,29.024749 3.7894289,28.734015 c -0.031489,-0.517437 0.099111,-1.042745 0,-1.551577 -0.030146,-0.154771 -0.081311,-0.305249 -0.1491902,-0.44757 -0.1304266,-0.273462 -0.3225148,-0.518005 -0.4177323,-0.805627 -0.077047,-0.232736 -0.086581,-0.482105 -0.082677,-0.727232 0.0039,-0.245126 0.020509,-0.491203 -0.00684,-0.734831 C 3.1138361,24.29651 3.0733101,24.129061 3.0434783,23.959932 3.011947,23.781168 2.9923227,23.600272 2.9539642,23.422847 2.8854568,23.105971 2.7584178,22.805325 2.655584,22.497869 2.5644272,22.225326 2.4919955,21.946199 2.4467178,21.662404 c -0.077095,-0.483221 -0.074767,-0.978477 0,-1.462063 0.044729,-0.289307 0.1151572,-0.574544 0.1491901,-0.865303 0.03947,-0.337212 0.029402,-0.680186 -0.029838,-1.014492 C 2.5088091,17.997408 2.4063311,17.684259 2.3273657,17.365729 2.2930941,17.227485 2.2632358,17.088146 2.2378517,16.947997 2.1974888,16.808919 2.1577043,16.669673 2.1184996,16.530264 2.068794,16.353515 2.0198445,16.175615 1.9991475,15.99318 1.9800506,15.824849 1.9852426,15.654594 1.9693095,15.485934 1.9570023,15.355656 1.9321531,15.226945 1.9096335,15.098039 1.8304656,14.644869 1.7798505,14.18015 1.8499575,13.72549 c 0.012231,-0.07932 0.028142,-0.158465 0.029838,-0.238704 0.00168,-0.07964 -0.010663,-0.159762 0,-0.238704 0.010989,-0.08135 0.045953,-0.157766 0.059676,-0.238704 0.02252,-0.132817 -0.013256,-0.268017 -0.016068,-0.402701 -0.00141,-0.06734 0.00576,-0.13591 0.031664,-0.198087 0.025902,-0.06218 0.072105,-0.11767 0.1335947,-0.145163 0.035935,-0.01607 0.075976,-0.02216 0.1152685,-0.0198 0.039293,0.0024 0.077856,0.01301 0.1138051,0.02905 0.071897,0.03207 0.1324717,0.08479 0.1886587,0.13994 0.085526,0.08394 0.1635715,0.175185 0.2387041,0.268542 0.6645017,0.825688 1.1192878,1.83511 1.9394715,2.506394 0.1262436,0.103325 0.2598089,0.197348 0.3878943,0.298381 0.045867,0.03618 0.092815,0.07419 0.1491901,0.08951 0.042333,0.0115 0.087998,0.0092 0.1296653,-0.0045 0.041667,-0.01372 0.079336,-0.0386 0.1098839,-0.07008 0.061095,-0.06297 0.092429,-0.150228 0.1019259,-0.237448 0.018994,-0.17444 -0.042508,-0.347945 -0.043095,-0.523415 -5.144e-4,-0.153835 0.045884,-0.304268 0.1058609,-0.44593 0.059976,-0.141663 0.1338308,-0.277172 0.1925193,-0.419373 0.1345685,-0.326056 0.1866053,-0.679936 0.2983802,-1.014492 0.1130228,-0.338291 0.2858697,-0.653253 0.4177324,-0.984655 0.056056,-0.140883 0.1050098,-0.285401 0.1790281,-0.417732 0.073421,-0.131263 0.1699952,-0.247828 0.2562675,-0.371025 0.086272,-0.123197 0.163809,-0.256897 0.1913028,-0.404764 0.014628,-0.07867 0.014628,-0.160034 0,-0.238704"
     id="path6"
     inkscape:path-effect="#path-effect6"
     inkscape:original-d="m 9.1304348,21.184996 c -0.1228734,0.584858 -0.3207908,1.12504 -0.3580563,1.730605 -0.023214,0.377235 -0.00461,0.755925 0,1.133845 0.00534,0.437705 0.014214,0.875414 0.029838,1.312873 0.03499,0.979708 0.131701,1.749958 -0.089514,2.71526 -0.074513,0.325149 -0.3610451,0.584839 -0.4774084,0.895141 -0.1940325,0.51742 -0.2099022,1.082131 -0.3580562,1.611253 -0.070807,0.252883 -0.2225186,0.514988 -0.2685422,0.775788 -0.013828,0.07836 0.00912,0.159661 0,0.238704 -0.020804,0.180302 -0.06789,0.35688 -0.089514,0.537085 -0.053367,0.444728 0.084518,0.91013 -0.059676,1.342711 -0.1119917,0.335975 -0.4287501,0.393403 -0.7161125,0.537084 -0.09159,0.04579 -0.1719796,0.115109 -0.2685422,0.14919 -0.1875657,0.0662 -0.9006474,0.05546 -1.1040068,0 C 5.0880124,34.087399 4.9806058,33.828371 4.8337596,33.597613 4.2607755,32.697209 3.998295,31.894033 3.998295,30.822677 c 0,-0.96027 0.030246,-0.116086 -0.059676,-0.835465 C 3.922534,29.858534 3.927121,29.727695 3.908781,29.599318 3.809017,28.90097 3.814391,29.408004 3.7894289,28.734015 c -0.019554,-0.527946 0.1364298,-1.025348 0,-1.551577 C 3.7499625,27.030211 3.7045669,26.878369 3.6402387,26.734868 3.5002891,26.422673 3.3183149,26.259248 3.2225064,25.929241 3.0783558,25.432722 3.1784963,24.967722 3.1329923,24.467178 3.1174478,24.296189 3.0724885,24.129158 3.0434783,23.959932 3.0128117,23.781044 2.9955343,23.59952 2.9539642,23.422847 2.879412,23.106 2.7428529,22.810583 2.655584,22.497869 2.5784228,22.221374 2.5030147,21.943889 2.4467178,21.662404 c -0.072318,-0.361588 -0.045958,-1.094399 0,-1.462063 0.036372,-0.290973 0.1317836,-0.569392 0.1491901,-0.865303 0.019373,-0.329337 0.00765,-0.689591 -0.029838,-1.014492 -0.037574,-0.325638 -0.1626226,-0.637811 -0.2387042,-0.954817 -0.033234,-0.138473 -0.059676,-0.278488 -0.089514,-0.417732 -0.039784,-0.139245 -0.084229,-0.277241 -0.1193521,-0.417733 -0.04448,-0.177919 -0.097501,-0.354995 -0.1193521,-0.537084 -0.02018,-0.168168 -0.012985,-0.338713 -0.029838,-0.507246 -0.013017,-0.130171 -0.047465,-0.257647 -0.059676,-0.387895 -0.036671,-0.391153 -0.086573,-0.969091 -0.059676,-1.372549 0.00533,-0.08001 0.024836,-0.158673 0.029838,-0.238704 0.00496,-0.07941 -0.00987,-0.159751 0,-0.238704 0.010173,-0.08138 0.044561,-0.158092 0.059676,-0.238704 0.022134,-0.118046 0.064563,-0.689533 0.1491902,-0.745951 0.093791,-0.06253 0.3670932,0.105785 0.4177323,0.14919 0.090933,0.07794 0.1662359,0.173189 0.2387041,0.268542 0.6372554,0.838494 1.1767294,1.768257 1.9394715,2.506394 0.1172231,0.113442 0.2583133,0.199289 0.3878943,0.298381 0.086116,0.06585 0.1354369,0.113582 0.1491901,0.08951 0.142365,-0.249139 0.2057423,-0.567845 0.2983802,-0.835465 0.1413855,-0.408447 0.1669898,-0.444853 0.2983802,-0.865303 0.1051382,-0.336442 0.18406,-0.681058 0.2983802,-1.014492 0.176755,-0.515536 0.2062996,-0.512997 0.4177324,-0.984655 0.061969,-0.138239 0.1112783,-0.282233 0.1790281,-0.417732 0.1335138,-0.267028 0.3090429,-0.511328 0.4475703,-0.775789 0.072724,-0.138836 0.1263471,-0.175531 0,-0.238704" />
  <path
     style="fill:none;stroke:#95aabf;stroke-width:1.079"
     d="m 3.4015345,6.5942029 c -0.1976025,-0.029128 -0.3997974,-0.033177 -0.5967604,0 C 2.5654725,6.634512 2.3317733,6.7327585 2.155716,6.8997732 2.0676873,6.9832805 1.9948743,7.0833388 1.9461773,7.1944744 1.8974803,7.30561 1.8732158,7.4278617 1.8797954,7.5490196 c 0.00833,0.153342 0.065962,0.3020269 0.1536408,0.4281041 0.087679,0.1260772 0.2045548,0.2302472 0.3336571,0.3134079 0.2582047,0.1663214 0.560072,0.248359 0.8554131,0.3326568 0.2934806,0.083767 0.5900046,0.1727276 0.8951407,0.1790281 0.2437147,0.00503 0.4852813,-0.042952 0.7286676,-0.056563 0.1216932,-0.00681 0.2444472,-0.00495 0.3644645,0.016301 0.1200173,0.021246 0.2375337,0.062387 0.3390929,0.1297761 0.029868,0.019819 0.059727,0.042453 0.095103,0.048235 0.017688,0.00289 0.036464,0.00118 0.052376,-0.00707 0.00796,-0.00412 0.015115,-0.00985 0.020648,-0.016896 0.00553,-0.00705 0.00941,-0.015434 0.010901,-0.02427 0.00166,-0.00983 3.648e-4,-0.019877 0,-0.029838 -0.00104,-0.028532 0.00568,-0.057164 0.018221,-0.082814 0.012542,-0.025649 0.030803,-0.048343 0.05238,-0.067042 0.043154,-0.037396 0.098604,-0.058302 0.1548021,-0.068428 0.1123952,-0.020253 0.2291511,-1.9e-5 0.3415193,-0.020421 C 6.4200903,8.6006262 6.5309437,8.529509 6.6240409,8.4441603 6.7946459,8.2877547 6.9138508,8.0828111 7.0061704,7.870571 7.0984899,7.6583308 7.166307,7.4363398 7.2506394,7.2208014 7.3242302,7.0327167 7.4105847,6.849011 7.4659285,6.6547728 7.5212724,6.4605345 7.5443856,6.2514425 7.4893436,6.0571185 7.4540747,5.9326026 7.3883398,5.8191713 7.3401535,5.6990622 7.2861793,5.5645261 7.2544935,5.4223194 7.2208014,5.2813299 7.1663706,5.0535559 7.1060544,4.826696 7.0716113,4.5950554 7.0509199,4.4558992 7.0396079,4.3152608 7.0119352,4.1773231 6.9230853,3.7344401 6.6721819,3.344392 6.4450128,2.9539642 6.4198614,2.9107374 6.3941226,2.8663823 6.3554987,2.8346121 6.3151889,2.8014552 6.2630887,2.7844708 6.2109868,2.781364 6.1588849,2.7782573 6.1066654,2.788362 6.0571185,2.8047741 5.9479741,2.8409276 5.8503226,2.9075936 5.7696579,2.9895251 5.6889931,3.0714566 5.6247212,3.1683966 5.5716277,3.2703803 5.4654408,3.4743476 5.4032302,3.6980611 5.3111679,3.9087809 5.2237668,4.1088319 5.1092712,4.2976526 5.0426257,4.5055413 4.9944932,4.6556821 4.9711693,4.8159385 4.8934356,4.9531117 c -0.025361,0.044754 -0.056094,0.086202 -0.08387,0.1294986 -0.027776,0.043296 -0.052874,0.089132 -0.06532,0.1390436 -0.00383,0.015379 -0.00644,0.03105 -0.010562,0.046355 -0.00412,0.015305 -0.00985,0.030414 -0.019276,0.043159 -0.010755,0.014548 -0.025818,0.025357 -0.041541,0.034307 -0.015722,0.00895 -0.032329,0.016282 -0.047973,0.025369 -0.062905,0.036538 -0.106371,0.099056 -0.1399845,0.1635708 -0.033614,0.064515 -0.059603,0.1331507 -0.09872,0.1944856 -0.087522,0.1372358 -0.2317496,0.2255518 -0.3580563,0.3282182 -0.093506,0.076005 -0.1800804,0.1632642 -0.2387042,0.2685422 -0.028333,0.050881 -0.049869,0.1054751 -0.080694,0.1548856 -0.030825,0.04941 -0.073111,0.094686 -0.1281719,0.1136566 -0.028505,0.00982 -0.059145,0.01213 -0.089263,0.010749 -0.030118,-0.00138 -0.059938,-0.00635 -0.089765,-0.010749 z"
     id="path7"
     inkscape:path-effect="#path-effect7"
     inkscape:original-d="m 3.4015345,6.5942029 c -0.1989201,0 -0.4010489,-0.035584 -0.5967604,0 -0.386743,0.070317 -0.974633,0.5327556 -0.9249787,0.9548167 0.07972,0.677616 0.7788968,0.8922933 1.342711,1.0741688 0.2895948,0.093418 0.5944499,0.1323692 0.8951407,0.1790281 0.7134364,0.1107057 0.7825227,0.089514 1.432225,0.089514 0.059676,0 0.1201641,0.00981 0.1790282,0 0.00981,-0.00164 -0.00914,-0.02592 0,-0.029838 C 6.5295338,8.5187639 5.0188955,9.2894113 6.2958227,8.6231884 6.4063116,8.565542 6.5256694,8.5206715 6.6240409,8.4441603 6.9888096,8.1604513 7.1103876,7.6415566 7.2506394,7.2208014 7.3380074,6.9586974 7.5366847,6.3293302 7.4893436,6.0571185 7.4671895,5.9297325 7.3824482,5.8212471 7.3401535,5.6990622 7.2927826,5.5622131 7.2571447,5.4215114 7.2208014,5.2813299 7.1857617,5.1461771 7.0982388,4.7548208 7.0716113,4.5950554 7.0464796,4.4442657 7.0457435,4.3238257 7.0119352,4.1773231 6.9095236,3.7335393 6.7285495,3.3083851 6.4450128,2.9539642 6.4139467,2.9151316 6.3976697,2.860969 6.3554987,2.8346121 6.2997429,2.7997647 6.1175863,2.8001227 6.0571185,2.8047741 5.3820284,2.8567041 5.4339493,3.3930991 5.3111679,3.9087809 5.2550722,4.1443831 5.1293016,4.2888518 5.0426257,4.5055413 4.9850714,4.6494271 4.9514602,4.8080502 4.8934356,4.9531117 4.835965,5.0967882 4.8199524,5.0702402 4.7442455,5.2216539 c -0.014066,0.028132 -0.01019,0.064954 -0.029838,0.089514 -0.022402,0.028003 -0.064157,0.034319 -0.089514,0.059676 C 4.5269713,5.4687662 4.4655766,5.617758 4.3861893,5.7289003 4.2912448,5.8618225 4.1268653,5.9254755 4.028133,6.0571185 3.9569536,6.1520244 3.861,6.2302324 3.7894288,6.3256607 c -0.064672,0.08623 -0.1150827,0.2060199 -0.2088661,0.2685422 -0.049654,0.033102 -0.1193521,0 -0.1790282,0 z" />
  <path
     style="fill:none;stroke:#ff9500;stroke-width:1.079;fill-opacity:1;stroke-opacity:1"
     d="m 11.845695,18.231032 c 0.917695,1.014309 1.562679,2.273068 1.849957,3.6104 0.142909,0.665269 0.198634,1.35034 0.14919,2.028986 -0.05595,0.767944 -0.244935,1.518876 -0.399974,2.273085 -0.155039,0.754209 -0.277053,1.526347 -0.196786,2.292132 0.121422,1.15842 0.695925,2.224094 0.895141,3.371697 0.07349,0.423349 0.09501,0.858325 0.02984,1.283035 -0.02796,0.18219 -0.07188,0.365321 -0.05271,0.548644 0.0096,0.09166 0.03548,0.182609 0.08403,0.260942 0.04856,0.07833 0.120816,0.143449 0.207384,0.175068 0.01054,0.0038 0.02127,0.0072 0.03156,0.0117 0.01028,0.0045 0.02019,0.0102 0.02812,0.01814 0.0092,0.0092 0.01535,0.02101 0.01909,0.03342 0.0037,0.01241 0.0051,0.02541 0.0057,0.03836 0.001,0.0259 -0.0013,0.0523 0.0051,0.0774 0.0053,0.02081 0.01659,0.03978 0.03056,0.05609 0.01397,0.01631 0.03064,0.03012 0.04795,0.04284 0.03461,0.02546 0.07262,0.04742 0.100519,0.08009 0.03858,0.04518 0.05333,0.105249 0.07347,0.161145 0.01007,0.02795 0.02186,0.05554 0.03882,0.07993 0.01696,0.02439 0.03945,0.04556 0.06674,0.0573 0.02428,0.01045 0.05112,0.01303 0.07745,0.01534 0.02634,0.0023 0.05315,0.0046 0.07767,0.01445 0.01226,0.0049 0.02384,0.01181 0.0334,0.02093 0.0096,0.0091 0.01706,0.02058 0.02066,0.0333 0.0036,0.01272 0.0032,0.0267 -0.0021,0.03883 -0.0053,0.01212 -0.01553,0.02218 -0.02807,0.02635 -0.01161,0.0039 -0.02474,0.0025 -0.03561,-0.0031 -0.01086,-0.0056 -0.01941,-0.01541 -0.02407,-0.02672 -0.0039,-0.0094 -0.0051,-0.01964 -0.0048,-0.02975 3.69e-4,-0.01011 0.0023,-0.02011 0.0048,-0.02993 0.01989,-0.08046 0.07052,-0.150519 0.130563,-0.207645 0.06005,-0.05713 0.12973,-0.102921 0.197655,-0.150411 0.605264,-0.423178 1.093128,-1.001318 1.462063,-1.641092 0.212454,-0.368418 0.390055,-0.769136 0.417733,-1.193521 0.02819,-0.432287 -0.100176,-0.857065 -0.179028,-1.283034 -0.09274,-0.500992 -0.117436,-1.01552 -0.05968,-1.52174 0.102935,-0.902203 0.463164,-1.75741 0.59676,-2.655584 0.09258,-0.622421 0.07461,-1.259255 -0.02984,-1.879795 -0.116286,-0.690879 -0.338669,-1.362703 -0.417732,-2.058824 -0.05192,-0.457142 -0.04085,-0.923585 0.05968,-1.372549 0.03584,-0.160079 0.08289,-0.317469 0.119352,-0.477408 0.15771,-0.691837 0.113857,-1.411913 0.179028,-2.118499 0.03912,-0.424122 0.117876,-0.844773 0.238704,-1.253197 0.282577,-0.955171 0.789936,-1.829653 1.104007,-2.774936 0.110259,-0.331853 0.197381,-0.674063 0.358056,-0.984655 0.04705,-0.09096 0.100152,-0.178641 0.14919,-0.268542 0.122568,-0.224703 0.220088,-0.464784 0.268543,-0.716113 0.03664,-0.190069 0.04577,-0.387886 0.119352,-0.566922 0.02038,-0.04959 0.04562,-0.09746 0.05968,-0.14919 0.01209,-0.04448 0.01561,-0.09074 0.02183,-0.136406 0.0062,-0.04566 0.01551,-0.09182 0.03785,-0.132137 0.01739,-0.03139 0.04214,-0.0582 0.05968,-0.08951 0.03228,-0.05761 0.03797,-0.126686 0.03209,-0.192462 -0.0059,-0.06578 -0.0225,-0.130093 -0.03209,-0.195432 -0.02461,-0.167733 -0.0026,-0.339918 -0.02984,-0.507246 C 19.816947,10.108471 19.748913,9.9609384 19.654148,9.8346895 19.559384,9.7084405 19.438406,9.603036 19.3052,9.5183291 19.211205,9.4585568 19.110921,9.4087729 19.00682,9.369139 18.601807,9.2149396 18.152873,9.2188212 17.723785,9.2796249 c -0.487967,0.069147 -0.976118,0.2144403 -1.372549,0.5072464 -0.363003,0.2681157 -0.632471,0.6487497 -0.818653,1.0598377 -0.186182,0.411087 -0.293348,0.853506 -0.374868,1.297366 -0.04349,0.236809 -0.08005,0.475529 -0.08951,0.716113 -0.0067,0.171472 3.02e-4,0.343353 -0.0096,0.514672 -0.0099,0.171319 -0.03752,0.344159 -0.109756,0.49982 -0.02446,0.05272 -0.05396,0.103212 -0.08951,0.14919 -0.101306,0.131042 -0.251031,0.221912 -0.412238,0.259953 -0.161208,0.03804 -0.33293,0.02447 -0.489365,-0.02996 -0.156434,-0.05444 -0.297715,-0.148776 -0.414632,-0.266103 -0.116916,-0.117327 -0.209923,-0.25727 -0.281328,-0.406723 -0.142809,-0.298908 -0.198854,-0.631317 -0.236158,-0.96048 -0.0373,-0.329163 -0.0577,-0.661741 -0.135588,-0.983725 -0.03182,-0.131557 -0.07311,-0.260689 -0.119353,-0.387895 -0.115131,-0.316703 -0.261834,-0.624439 -0.328218,-0.954816 -0.02058,-0.10242 -0.03445,-0.209603 -0.08951,-0.2983806 -0.02262,-0.036471 -0.0515,-0.068559 -0.07892,-0.1015765 -0.02742,-0.033017 -0.05381,-0.067657 -0.07027,-0.1072896 -0.028,-0.067403 -0.02523,-0.1438559 -0.04817,-0.2131446 -0.01147,-0.034644 -0.02997,-0.067898 -0.05828,-0.090931 -0.01415,-0.011517 -0.03064,-0.020306 -0.04833,-0.024782 -0.01769,-0.00448 -0.03659,-0.00455 -0.05408,6.391e-4 -0.005,0.00149 -0.01,0.00341 -0.01516,0.00399 -0.0026,2.894e-4 -0.0053,2.341e-4 -0.0078,-3.81e-4 -0.0025,-6.152e-4 -0.005,-0.00181 -0.0069,-0.00361 -0.0019,-0.00182 -0.0033,-0.00422 -0.004,-0.00678 -7.25e-4,-0.00255 -8.58e-4,-0.00525 -5.92e-4,-0.00788 5.32e-4,-0.00528 0.0026,-0.010252 0.0046,-0.015178 0.03085,-0.077477 0.03721,-0.1642124 0.01987,-0.2457831 -0.01734,-0.081571 -0.05808,-0.1577727 -0.114872,-0.2188338 -0.0568,-0.061061 -0.129378,-0.1069933 -0.208264,-0.1340379 -0.07889,-0.027045 -0.163911,-0.035328 -0.246777,-0.025967 -0.165731,0.018721 -0.319658,0.1083501 -0.429429,0.23392 -0.109771,0.12557 -0.177002,0.285028 -0.205633,0.4493377 -0.05726,0.3286193 0.03483,0.664 0.145089,0.978823 0.110256,0.314822 0.240946,0.62893 0.264224,0.961688 0.01253,0.179176 -0.0066,0.35898 -0.02984,0.537085 -0.05188,0.397676 -0.124397,0.793242 -0.14919,1.193521 -0.03075,0.496471 0.01225,0.99463 0,1.491901 -0.0064,0.258749 -0.02767,0.518444 0,0.775788 0.02575,0.23949 0.09376,0.47528 0.08951,0.716113 -8.04e-4,0.04557 -0.0042,0.09115 -0.0019,0.136666 0.0023,0.04551 0.01059,0.09151 0.03174,0.131876 0.01041,0.01986 0.02375,0.03801 0.03534,0.0572 0.0116,0.01919 0.02161,0.0399 0.02434,0.06216 0.0024,0.0199 -0.0011,0.03997 -0.0034,0.05988 -0.0023,0.01991 -0.0035,0.04064 0.0034,0.05947 0.0044,0.01197 0.01184,0.02267 0.02085,0.03169 0.009,0.009 0.01951,0.01643 0.03052,0.02286 0.02202,0.01285 0.04611,0.02188 0.06799,0.03496 0.05266,0.03148 0.08954,0.0851 0.11014,0.142879 0.0206,0.05778 0.02622,0.119838 0.02724,0.181178 0.001,0.06134 -0.0024,0.122755 9.49e-4,0.184013 0.0033,0.06126 0.01371,0.123114 0.0407,0.178205 0.01962,0.04004 0.04788,0.07635 0.05968,0.119352 0.01324,0.04825 0.0043,0.09934 0,0.14919 -0.0164,0.189114 0.03761,0.383522 0.14919,0.537085"
     id="path8"
     inkscape:path-effect="#path-effect8"
     inkscape:original-d="m 11.845695,18.231032 c 0.450301,1.286837 1.346707,2.345474 1.849957,3.6104 0.157018,0.394666 0.201929,1.648511 0.14919,2.028986 -0.433582,3.127986 -0.59676,0.840724 -0.59676,4.565217 0,1.188488 0.711941,2.220156 0.895141,3.371697 0.068,0.427422 -0.003,0.85571 0.02984,1.283035 0.02573,0.334468 0.10195,0.676959 0.238704,0.984654 0.04967,0.111761 0.0067,-0.02312 0.05968,0.02984 0.03586,0.03586 7.55e-4,0.107643 0.02984,0.14919 0.0484,0.06914 0.128391,0.111513 0.179028,0.179029 0.06959,0.09279 0.10657,0.207807 0.179028,0.29838 0.04853,0.06066 0.1241,0.09426 0.179028,0.14919 0.01573,0.01573 -0.04734,-0.01133 -0.05968,-0.02984 -0.01103,-0.01655 -0.0078,-0.04139 0,-0.05968 0.08025,-0.187262 0.161916,-0.206872 0.328218,-0.358056 0.54286,-0.493509 1.074964,-1.010262 1.462063,-1.641092 0.170121,-0.277232 0.442807,-0.817405 0.417733,-1.193521 -0.01,-0.149315 -0.16153,-1.122046 -0.179028,-1.283034 -0.04694,-0.431805 -0.09426,-1.089407 -0.05968,-1.52174 0.07296,-0.912044 0.490479,-1.752192 0.59676,-2.655584 0.05517,-0.468987 0.02961,-1.451807 -0.02984,-1.879795 -0.507771,-3.655955 0.0032,1.188671 -0.417732,-2.058824 -0.06604,-0.509456 -0.02924,-0.86444 0.05968,-1.372549 0.02828,-0.161578 0.08886,-0.316233 0.119352,-0.477408 0.133217,-0.704149 0.118626,-1.408782 0.179028,-2.118499 0.04123,-0.484458 0.106506,-0.790503 0.238704,-1.253197 0.274739,-0.961587 0.726839,-1.852971 1.104007,-2.774936 0.1317,-0.321934 0.224503,-0.664128 0.358056,-0.984655 0.03939,-0.09452 0.105354,-0.175999 0.14919,-0.268542 0.103544,-0.218593 0.209339,-0.479299 0.268543,-0.716113 0.0465,-0.186007 0.06894,-0.382065 0.119352,-0.566922 0.01409,-0.05167 0.04558,-0.09752 0.05968,-0.14919 0.0275,-0.100848 0.01461,-0.178407 0.05968,-0.268543 0.01604,-0.03208 0.04636,-0.05622 0.05968,-0.08951 0.0312,-0.078 0,-0.325018 0,-0.387894 0,-0.163594 0.02292,-0.348965 -0.02984,-0.507246 C 19.778929,10.074213 19.461653,9.6258906 19.3052,9.5183291 19.213567,9.4553312 19.113102,9.4018412 19.00682,9.369139 18.638683,9.2558661 18.072309,9.2369485 17.723785,9.2796249 c -0.395818,0.048467 -1.04528,0.3156746 -1.372549,0.5072464 -0.93361,0.5465037 -1.062991,1.3564737 -1.193521,2.3572037 -0.03111,0.238541 -0.06773,0.476539 -0.08951,0.716113 -0.0926,1.018644 0.05169,0.202059 -0.119352,1.014492 -0.01248,0.05926 -0.01018,0.220172 -0.08951,0.14919 -0.775462,-0.693834 -1.579949,-1.395943 -1.969309,-2.387041 -0.04947,-0.125913 -0.07812,-0.25905 -0.119353,-0.387895 -0.102661,-0.320816 -0.226809,-0.633688 -0.328218,-0.954816 -0.03127,-0.09902 -0.0453,-0.204425 -0.08951,-0.2983806 -0.03643,-0.077415 -0.102923,-0.1368959 -0.14919,-0.2088661 -0.06128,-0.095331 -0.122553,-0.2419055 -0.208866,-0.3282183 -0.007,-0.00703 -0.0228,0.00703 -0.02984,0 -0.007,-0.00703 0.0099,-0.029838 0,-0.029838 -0.414216,0 -0.727884,1.635069 -0.775789,1.999147 -0.02339,0.177772 -0.01408,0.358475 -0.02984,0.537085 -0.03531,0.400131 -0.128062,0.792088 -0.14919,1.193521 -0.02599,0.493788 0,0.997492 0,1.491901 0,0.258596 -0.01434,0.51759 0,0.775788 0.01313,0.236333 0.05603,0.481737 0.08951,0.716113 0.01274,0.08916 0.008,0.181166 0.02984,0.268542 0.0091,0.03628 0.0476,0.08313 0.05968,0.119352 0.01258,0.03774 -0.01258,0.08161 0,0.119352 0.0249,0.0747 0.08562,-0.01168 0.119352,0.08951 0.07438,0.223154 0.10489,0.463858 0.179029,0.686275 0.01407,0.0422 0.04561,0.07715 0.05968,0.119352 0.01498,0.04494 -0.01363,0.103756 0,0.14919 0.04466,0.148883 0.14919,0.370983 0.14919,0.537085" />
  <path
     style="fill:none;stroke:#ff9500;stroke-width:1.079;fill-opacity:1;stroke-opacity:1"
     d="M 15.127877,6.8627451 C 15.000246,6.9392819 14.857385,6.9903039 14.710145,7.0119352 14.435698,7.0522547 14.154627,6.9901909 13.897385,6.8863969 13.640143,6.7826029 13.401777,6.6380904 13.158568,6.5046888 12.767481,6.2901749 12.360282,6.1028016 11.935209,5.9676044 11.670395,5.8833787 11.397074,5.8187296 11.149372,5.692778 11.025521,5.6298022 10.908611,5.5514049 10.810707,5.4528159 10.712802,5.3542269 10.634259,5.2348201 10.592498,5.1023018 c -0.06971,-0.2212214 -0.03255,-0.4656857 0.06012,-0.678315 0.09267,-0.2126293 0.237229,-0.3981536 0.387449,-0.5748819 0.20558,-0.2418567 0.426653,-0.4738061 0.686275,-0.6564365 0.579449,-0.4076112 1.301419,-0.539503 1.969309,-0.7757886 0.495717,-0.1753744 0.970744,-0.4124499 1.48048,-0.5415268 0.254868,-0.064538 0.518302,-0.1015226 0.780847,-0.08764 0.262546,0.013883 0.524618,0.07999 0.752313,0.2114345 0.105227,0.060745 0.202148,0.1346921 0.298381,0.2088661 0.261977,0.2019246 0.527332,0.4139041 0.696064,0.6983948 0.08437,0.1422453 0.142723,0.3016101 0.156122,0.466449 0.0134,0.1648389 -0.01984,0.3352269 -0.106236,0.4762475 -0.05929,0.096772 -0.141362,0.177311 -0.208866,0.2685422 -0.133156,0.1799585 -0.207619,0.4027369 -0.208866,0.6265984 -0.0012,0.2109777 0.06041,0.4169375 0.08336,0.6266664 0.01148,0.1048644 0.01319,0.2116771 -0.0074,0.3151473 -0.02055,0.1034702 -0.06435,0.2038288 -0.135683,0.2815452 -0.106798,0.1163553 -0.263629,0.1718157 -0.416578,0.2111985 -0.152949,0.039383 -0.311799,0.068145 -0.448725,0.1468578 -0.116178,0.066785 -0.209732,0.1657093 -0.309979,0.2546369 -0.100247,0.088928 -0.214205,0.1713246 -0.346457,0.1929334 -0.07387,0.01207 -0.149359,0.00443 -0.223898,-0.00243 -0.07454,-0.00686 -0.150395,-0.012841 -0.223673,0.00243 -0.06605,0.013768 -0.128386,0.044937 -0.179028,0.089514 z"
     id="path9"
     inkscape:path-effect="#path-effect9"
     inkscape:original-d="M 15.127877,6.8627451 C 14.988633,6.9124751 14.857935,7.0074567 14.710145,7.0119352 14.322457,7.0236833 13.364908,6.5911288 13.158568,6.5046888 12.7478,6.3326106 12.335687,6.1624318 11.935209,5.9676044 11.772898,5.8886425 10.808471,5.4511808 10.592498,5.1023018 c -0.174439,-0.2817863 0.279414,-1.063343 0.44757,-1.2531969 0.209889,-0.2369717 0.420272,-0.4848218 0.686275,-0.6564365 0.63904,-0.412284 1.264745,-0.5744847 1.969309,-0.7757886 0.964001,-0.2754289 2.002625,-0.5019836 3.01364,-0.4177323 0.134317,0.011193 0.217516,0.1033906 0.298381,0.2088661 0.251029,0.3274292 0.924089,1.1066742 0.74595,1.6410913 -0.05675,0.1702542 -0.108373,0.1345512 -0.208866,0.2685422 -0.181874,0.2424984 -0.186021,0.2953408 -0.208866,0.6265984 -0.006,0.087452 0.01416,1.1905416 -0.05968,1.2233589 C 16.9927,6.0936093 16.680734,6.163765 16.410908,6.3256607 16.181251,6.463455 15.993024,6.653955 15.754472,6.773231 c -0.121063,0.060532 -0.319923,-0.047868 -0.447571,0 -0.06247,0.023427 -0.119352,0.059676 -0.179028,0.089514 z" />
  <path
     style="fill:none;stroke:#1c3c55;stroke-width:1.079;stroke-opacity:1"
     d="M 25.272805,9.9062234 C 25.160911,9.8867857 25.050856,9.8567708 24.944587,9.8167093 24.677368,9.7159728 24.438546,9.5538871 24.198636,9.398977 23.463442,8.9242622 22.693831,8.5044514 21.960784,8.026428 21.782776,7.910348 21.605292,7.7894424 21.46059,7.6338049 21.315889,7.4781674 21.204833,7.2831957 21.184996,7.0716113 c -0.01241,-0.1323159 0.01133,-0.2667797 0.0598,-0.3905201 0.04847,-0.1237403 0.121188,-0.2371007 0.20646,-0.3390325 0.170543,-0.2038635 0.388793,-0.3610374 0.599042,-0.5236444 0.38496,-0.2977291 0.755345,-0.623714 1.193521,-0.8354646 0.659958,-0.3189278 1.4162,-0.3527588 2.148338,-0.3878943 0.228715,-0.010976 0.458415,-0.022616 0.686274,0 0.08214,0.00815 0.16562,0.021313 0.238705,0.059676 0.08596,0.04512 0.152049,0.123178 0.192973,0.2112103 0.04092,0.088032 0.05799,0.1856951 0.06118,0.2827224 0.0064,0.1940546 -0.04102,0.3861237 -0.04529,0.5802361 -0.0046,0.2092125 0.04096,0.4176312 0.02984,0.6265984 -0.01697,0.3187938 -0.163566,0.6147018 -0.238704,0.9249787 -0.05337,0.2203763 -0.07062,0.4482516 -0.12375,0.6686847 -0.05313,0.220433 -0.148456,0.4407738 -0.323821,0.5845122 -0.0364,0.029832 -0.07587,0.056051 -0.109678,0.088784 -0.03381,0.032733 -0.0623,0.073553 -0.06935,0.1200821 -0.0024,0.016122 -0.0023,0.032603 -0.0055,0.048584 -0.0016,0.00799 -0.0041,0.015858 -0.0081,0.022991 -0.0039,0.00713 -0.0094,0.013522 -0.01626,0.01794 -0.0096,0.00616 -0.02112,0.00814 -0.03203,0.011374 -0.0055,0.00161 -0.01085,0.00359 -0.01571,0.00654 -0.0049,0.00295 -0.0092,0.00694 -0.01193,0.011925 -0.0024,0.00443 -0.0035,0.0095 -0.0037,0.014551 -2.16e-4,0.00505 4.1e-4,0.010094 0.0012,0.015077 0.0017,0.00997 0.0042,0.020085 0.0025,0.030048 -0.0016,0.00926 -0.0067,0.017665 -0.01348,0.024183 -0.0068,0.00652 -0.01504,0.011266 -0.02365,0.014996 -0.01723,0.00746 -0.0361,0.011136 -0.05237,0.020497 -0.02178,0.012526 -0.03681,0.034008 -0.04933,0.055783 -0.01253,0.021775 -0.02348,0.044806 -0.04018,0.063569 -0.01659,0.018636 -0.03805,0.032142 -0.05929,0.045219 -0.02125,0.013076 -0.04288,0.026201 -0.06006,0.044295 -0.02005,0.021117 -0.03296,0.04785 -0.04533,0.074207 -0.01238,0.026357 -0.02481,0.053236 -0.04418,0.074983 -0.02397,0.026924 -0.05674,0.044016 -0.08612,0.064905 -0.01469,0.010444 -0.02874,0.022029 -0.04013,0.036001 -0.01139,0.013972 -0.02006,0.030492 -0.02294,0.048285 -0.0032,0.019668 7.66e-4,0.039767 0,0.059676 -0.001,0.026985 -0.01072,0.052926 -0.0226,0.077177 -0.01188,0.024251 -0.02607,0.047355 -0.03708,0.072013 -0.02228,0.049894 -0.031,0.1062892 -0.0214,0.1600826 0.0096,0.053793 0.03806,0.1046046 0.08108,0.1382976 0.01765,0.013825 0.03783,0.02483 0.05968,0.029838 0.03566,0.0082 0.07485,-7.89e-4 0.103421,-0.02364 0.02857,-0.022855 0.04591,-0.059124 0.04577,-0.095709 z"
     id="path10"
     inkscape:path-effect="#path-effect10"
     inkscape:original-d="M 25.272805,9.9062234 C 25.163399,9.8763853 25.04713,9.8651326 24.944587,9.8167093 24.68689,9.6950194 24.446645,9.5393596 24.198636,9.398977 23.459582,8.9806447 22.634325,8.5162756 21.960784,8.026428 21.717787,7.8497024 21.248964,7.4426289 21.184996,7.0716113 c -0.09822,-0.5696805 0.505773,-0.9465397 0.865302,-1.253197 0.360826,-0.3077627 0.741625,-0.6589427 1.193521,-0.8354646 1.03032,-0.4024686 1.16941,-0.369424 2.148338,-0.3878943 0.228717,-0.00432 0.457991,-0.014728 0.686274,0 0.08185,0.00528 0.178017,0.00451 0.238705,0.059676 0.132484,0.12044 0.195022,0.9311209 0.208866,1.0741688 0.02014,0.2081305 0.05427,0.4189278 0.02984,0.6265984 -0.03767,0.3201537 -0.150771,0.617211 -0.238704,0.9249787 -0.123291,0.4315186 -0.195006,0.8743503 -0.447571,1.2531969 -0.05086,0.076297 -0.128163,0.1325691 -0.179028,0.2088662 -0.01745,0.02617 -0.01097,0.064352 -0.02984,0.089514 -0.01334,0.017792 -0.04734,0.011333 -0.05968,0.029838 -0.01103,0.016551 0.01193,0.043762 0,0.059676 -0.02152,0.028689 -0.06416,0.034319 -0.08951,0.059676 -0.03516,0.035164 -0.05435,0.084188 -0.08951,0.1193521 -0.03516,0.035164 -0.08419,0.05435 -0.119352,0.089514 -0.07397,0.073972 -0.04242,0.078554 -0.08951,0.1491901 -0.07346,0.1101856 -0.03066,-0.087871 -0.14919,0.1491901 -0.0089,0.017792 0.0039,0.04017 0,0.059676 -0.01051,0.052521 -0.04917,0.096669 -0.05968,0.1491901 -0.01852,0.092587 -0.0068,0.2319286 0.05968,0.2983802 0.01573,0.015726 0.03923,0.038599 0.05968,0.029838 0.05854,-0.02509 0.09946,-0.079568 0.14919,-0.1193516 z" />
  <path
     style="fill:none;stroke:#1c3c55;stroke-width:1.079;stroke-opacity:1"
     d="m 22.109974,12.144075 c 0.573318,0.445776 1.35218,0.615094 2.058824,0.44757 0.205354,-0.04868 0.403595,-0.12385 0.59676,-0.208866 0.380664,-0.167538 0.743389,-0.373716 1.124315,-0.540657 0.380926,-0.166941 0.78715,-0.295401 1.203051,-0.294807 0.189238,2.7e-4 0.379649,0.02719 0.566923,0 0.04499,-0.0065 0.08961,-0.01618 0.134966,-0.01935 0.04535,-0.0032 0.09222,4.54e-4 0.133576,0.01935 0.04539,0.02074 0.08064,0.05803 0.119352,0.08951 0.0863,0.07018 0.191731,0.11256 0.297878,0.145796 0.106147,0.03324 0.215,0.05845 0.318374,0.09951 0.103373,0.04106 0.202795,0.0998 0.271355,0.187389 0.03428,0.04379 0.06029,0.09444 0.07295,0.148591 0.01266,0.05415 0.01167,0.111843 -0.0057,0.164663 -0.0145,0.04401 -0.03996,0.08382 -0.07004,0.119071 -0.03008,0.03525 -0.06479,0.06623 -0.09999,0.09637 -0.0704,0.06028 -0.145213,0.120094 -0.188026,0.202292 -0.02585,0.04962 -0.03867,0.105371 -0.04206,0.161217 -0.0034,0.05584 0.0024,0.111921 0.01222,0.167001 0.0233,0.130688 0.06909,0.256725 0.08951,0.387894 0.02453,0.157611 0.01183,0.318338 0,0.477408 -0.03029,0.407431 -0.05435,0.818434 0,1.223359 0.0094,0.0697 0.02102,0.139091 0.02984,0.208866 0.0724,0.572749 0,1.1533 0,1.730606 v 1.223359 c 0,0.212153 -0.02086,0.425858 -0.08951,0.626598 -0.126742,0.370619 -0.365745,0.69246 -0.626598,0.984655 -0.145275,0.16273 -0.298348,0.318291 -0.447571,0.477408 -0.154279,0.164508 -0.304509,0.332895 -0.44757,0.507247 -0.436079,0.531463 -0.803213,1.115379 -1.163683,1.700767 -0.229102,0.372052 -0.45791,0.749399 -0.59676,1.163683 -0.131821,0.393309 -0.178997,0.809624 -0.208866,1.223359 -0.05093,0.705511 -0.05388,1.414188 -0.119352,2.118499 -0.0471,0.506693 -0.126492,1.017267 -0.05968,1.521739 0.03236,0.244333 0.09869,0.483107 0.179028,0.716113 0.154931,0.449353 0.362809,0.88142 0.477408,1.342711 0.04699,0.189134 0.07796,0.382018 0.126958,0.570642 0.04899,0.188623 0.117305,0.375155 0.231098,0.533365 0.136936,0.190386 0.334876,0.33326 0.45617,0.533974 0.06065,0.100357 0.100832,0.21626 0.09478,0.333362 -0.003,0.05855 -0.01772,0.116751 -0.04522,0.168534 -0.02749,0.05178 -0.06797,0.09698 -0.117837,0.127813 -0.06103,0.03773 -0.133258,0.05281 -0.20448,0.06148 -0.07122,0.0087 -0.143409,0.01162 -0.213253,0.02803 -0.08003,0.01881 -0.156619,0.05517 -0.238704,0.05968 -0.04971,0.0027 -0.09982,-0.0064 -0.14919,0 -0.06253,0.0081 -0.118993,0.04039 -0.179028,0.05968 -0.08105,0.02604 -0.167923,0.02809 -0.252867,0.0224 -0.08494,-0.0057 -0.169321,-0.01885 -0.25438,-0.0224 -0.180361,-0.0075 -0.359332,0.0282 -0.537084,0.05968 -0.355123,0.0629 -0.722347,0.109151 -1.074169,0.02984 -0.08951,-0.02018 -0.177484,-0.0484 -0.268542,-0.05968 -0.133209,-0.0165 -0.268025,0.0038 -0.402247,0.0025 -0.06711,-6.48e-4 -0.134614,-0.0068 -0.19912,-0.02532 -0.06451,-0.01853 -0.126127,-0.04991 -0.174421,-0.09652 -0.07917,-0.07639 -0.116481,-0.187575 -0.12737,-0.29705 -0.01089,-0.109476 0.0018,-0.219708 0.008,-0.329549 0.01456,-0.25824 -0.007,-0.517233 0,-0.775788 0.0087,-0.319642 0.06091,-0.63634 0.08951,-0.954817 0.03386,-0.376987 0.03457,-0.756175 0.05968,-1.133845 0.03242,-0.487582 0.105345,-0.979273 0.02984,-1.462063 -0.0547,-0.349776 -0.186835,-0.69039 -0.179029,-1.044331 0.0011,-0.04976 0.005,-0.09967 0,-0.14919 -0.0051,-0.0505 -0.01924,-0.09956 -0.02984,-0.14919 -0.06249,-0.292663 7.6e-5,-0.59588 0,-0.895141 -6.8e-5,-0.269379 -0.05113,-0.536382 -0.05968,-0.805626 -0.0079,-0.248633 0.02051,-0.49804 0,-0.745951 -0.01985,-0.239917 -0.08532,-0.475411 -0.08951,-0.716112 -0.001,-0.05967 0.0017,-0.119374 0,-0.179029 -0.0082,-0.286216 -0.118829,-0.561551 -0.268542,-0.805626 -0.03503,-0.05711 -0.07282,-0.114147 -0.08951,-0.179028 -0.01509,-0.05867 -0.01214,-0.121096 -0.02984,-0.179028 -0.01303,-0.04265 -0.03673,-0.08111 -0.05968,-0.119352 -0.416787,-0.694349 -0.664575,-1.489335 -0.716113,-2.297528"
     id="path11"
     inkscape:path-effect="#path-effect11"
     inkscape:original-d="m 22.109974,12.144075 c -0.204089,0.79152 1.842886,0.488313 2.058824,0.44757 0.207098,-0.03908 0.400056,-0.13321 0.59676,-0.208866 0.797749,-0.306826 1.44804,-0.766044 2.327366,-0.835464 0.188388,-0.01487 0.377948,0 0.566923,0 0.08951,0 0.188478,-0.04003 0.268542,0 0.04448,0.02224 0.07797,0.06193 0.119352,0.08951 0.297238,0.198159 0.788973,0.414262 0.954817,0.74595 0.102226,0.204453 -0.282434,0.247582 -0.358057,0.417733 -0.03493,0.07859 -0.03762,0.250407 -0.02984,0.328218 0.01298,0.129753 0.07771,0.258064 0.08951,0.387894 0.01441,0.158483 0,0.318272 0,0.477408 0,0.406357 -0.0156,0.817734 0,1.223359 0.0027,0.07028 0.02614,0.138635 0.02984,0.208866 0.03014,0.572631 0,1.157336 0,1.730606 0,0.407786 0,0.815572 0,1.223359 0,0.251202 0.03774,0.403899 -0.08951,0.626598 -0.193018,0.337782 -0.396257,0.671134 -0.626598,0.984655 -0.129152,0.175789 -0.300838,0.316003 -0.447571,0.477408 -0.151682,0.16685 -0.303214,0.334019 -0.44757,0.507247 -0.448647,0.538376 -0.807734,1.100103 -1.163683,1.700767 -0.187679,0.316709 -0.494851,0.823984 -0.59676,1.163683 -0.112081,0.373603 -0.1611,0.829287 -0.208866,1.223359 -0.08554,0.705686 -0.0991,1.409578 -0.119352,2.118499 -0.01434,0.501949 -0.105361,1.019207 -0.05968,1.521739 0.04229,0.46525 0.06567,0.376028 0.179028,0.716113 0.716396,2.149188 -0.08781,-0.147414 0.477408,1.342711 0.137069,0.361363 0.229232,0.739005 0.358056,1.104007 0.06823,0.193314 0.473699,0.992073 0.387895,1.163683 -0.06953,0.139062 -0.316777,0.07689 -0.417733,0.08951 -0.08138,0.01017 -0.157641,0.0472 -0.238704,0.05968 -0.04915,0.0076 -0.100262,-0.0089 -0.14919,0 -0.06189,0.01125 -0.116756,0.05078 -0.179028,0.05968 -0.167383,0.02391 -0.338425,-0.0094 -0.507247,0 -0.179852,0.01 -0.358056,0.03978 -0.537084,0.05968 -0.344771,0.03831 -0.728906,0.06618 -1.074169,0.02984 -0.09119,-0.0096 -0.177966,-0.04537 -0.268542,-0.05968 -0.203384,-0.03211 -0.591364,-0.0087 -0.775788,-0.119352 -0.177151,-0.106291 -0.119353,-0.459419 -0.119353,-0.626599 0,-0.258596 -0.01613,-0.517696 0,-0.775788 0.01994,-0.319046 0.05949,-0.636562 0.08951,-0.954817 0.115768,-1.227131 0.02739,-0.06848 0.05968,-1.133845 0.01394,-0.460185 0.07943,-1.00584 0.02984,-1.462063 -0.03817,-0.35112 -0.147052,-0.692593 -0.179029,-1.044331 -0.0045,-0.04953 0.0049,-0.09971 0,-0.14919 -0.005,-0.05046 -0.02743,-0.09853 -0.02984,-0.14919 -0.0061,-0.127877 0.0053,-0.745951 0,-0.895141 -0.0108,-0.302503 -0.0454,-0.505746 -0.05968,-0.805626 -0.01181,-0.248019 0.01377,-0.498045 0,-0.745951 -0.01335,-0.240212 -0.06962,-0.477394 -0.08951,-0.716112 -0.005,-0.05947 0.0091,-0.120046 0,-0.179029 -0.04184,-0.271996 -0.158693,-0.558467 -0.268542,-0.805626 -0.0271,-0.06097 -0.06841,-0.115732 -0.08951,-0.179028 -0.01913,-0.05739 -0.01245,-0.121081 -0.02984,-0.179028 -0.01278,-0.0426 -0.04689,-0.07675 -0.05968,-0.119352 -0.177473,-0.591578 -0.143553,-1.915822 -0.716113,-2.297528" />
</svg>
