<?xml version="1.0" encoding="UTF-8" standalone="no"?>
<svg
   width="35px"
   height="38px"
   viewBox="0 0 35 38"
   version="1.1"
   id="svg4"
   sodipodi:docname="donation.svg"
   inkscape:version="1.3.2 (091e20e, 2023-11-25, custom)"
   xmlns:inkscape="http://www.inkscape.org/namespaces/inkscape"
   xmlns:sodipodi="http://sodipodi.sourceforge.net/DTD/sodipodi-0.dtd"
   xmlns="http://www.w3.org/2000/svg"
   xmlns:svg="http://www.w3.org/2000/svg">
  <sodipodi:namedview
     id="namedview4"
     pagecolor="#ffffff"
     bordercolor="#000000"
     borderopacity="0.25"
     inkscape:showpageshadow="2"
     inkscape:pageopacity="0.0"
     inkscape:pagecheckerboard="0"
     inkscape:deskcolor="#d1d1d1"
     inkscape:zoom="30.868421"
     inkscape:cx="17.493606"
     inkscape:cy="19"
     inkscape:window-width="2560"
     inkscape:window-height="1369"
     inkscape:window-x="-8"
     inkscape:window-y="-8"
     inkscape:window-maximized="1"
     inkscape:current-layer="svg4" />
  <!-- Generator: Sketch 49 (51002) - http://www.bohemiancoding.com/sketch -->
  <title
     id="title1">tips and donation icon</title>
  <desc
     id="desc1">Created with Sketch.</desc>
  <defs
     id="defs1">
    <inkscape:path-effect
       effect="spiro"
       id="path-effect12"
       is_visible="true"
       lpeversion="1" />
    <inkscape:path-effect
       effect="spiro"
       id="path-effect9"
       is_visible="true"
       lpeversion="1" />
    <inkscape:path-effect
       effect="spiro"
       id="path-effect8"
       is_visible="true"
       lpeversion="1" />
    <inkscape:path-effect
       effect="spiro"
       id="path-effect7"
       is_visible="true"
       lpeversion="1" />
    <inkscape:path-effect
       effect="spiro"
       id="path-effect6"
       is_visible="true"
       lpeversion="1" />
    <inkscape:path-effect
       effect="spiro"
       id="path-effect5"
       is_visible="true"
       lpeversion="1" />
  </defs>
  <path
     style="fill:none;stroke:#ff9500;stroke-width:1.079"
     d="m 20.571185,20.344416 c -1.22468,-0.08178 -2.446158,-0.211491 -3.660699,-0.388747 -0.867057,-0.126543 -1.735239,-0.27849 -2.562719,-0.566723 -0.82748,-0.288233 -1.617735,-0.719559 -2.231825,-1.344615 -0.253234,-0.257756 -0.474041,-0.545603 -0.680307,-0.842285 -0.495987,-0.713399 -0.918803,-1.504032 -1.036658,-2.364876 -0.03968,-0.289863 -0.04406,-0.585451 0,-0.874681 0.110855,-0.727692 0.517781,-1.372803 0.939471,-1.976129 0.125344,-0.179333 0.253223,-0.357759 0.356352,-0.550725 0.385794,-0.721865 0.394767,-1.578804 0.388746,-2.3972718 -0.0025,-0.3351416 -0.0059,-0.671304 0.0324,-1.0042626 0.124495,-1.0831707 0.681826,-2.0699675 1.328218,-2.9479966 0.159214,-0.2162685 0.325244,-0.4288626 0.518329,-0.6155158 0.535623,-0.5177824 1.245392,-0.8067125 1.878943,-1.1986359 0.471424,-0.2916294 0.905234,-0.6437077 1.39301,-0.9070759 0.247487,-0.1336271 0.507922,-0.2437225 0.777493,-0.3239557 0.339158,-0.1009446 0.690337,-0.1541052 1.036658,-0.226769 0.482196,-0.1011725 0.955596,-0.2403283 1.425405,-0.3887468 0.459388,-0.1451264 0.916409,-0.2994383 1.360614,-0.48593346 0.214552,-0.0900774 0.426437,-0.1877808 0.647911,-0.25916453 0.438457,-0.14131996 0.902746,-0.17603972 1.360614,-0.22676897 0.540122,-0.0598426 1.095297,-0.14223909 1.619779,0 0.317957,0.0862296 0.607771,0.25109134 0.907075,0.3887468 0.519868,0.23909676 1.087457,0.40589236 1.522592,0.77749356 0.469565,0.4010043 0.725742,0.9890873 1.036658,1.5225917 0.172987,0.2968303 0.368059,0.5843716 0.485934,0.9070759 0.124743,0.3415049 0.157909,0.7082224 0.207891,1.0683448 0.04998,0.3601225 0.121147,0.7269554 0.310438,1.037367 0.06864,0.1125678 0.151639,0.215609 0.226769,0.3239557 0.297548,0.4290986 0.466391,0.9325846 0.712702,1.3930094 0.398246,0.7444334 1.004919,1.389477 1.231032,2.2028982 0.139811,0.502955 0.122638,1.036177 0.06479,1.554988 -0.09654,0.865774 -0.302563,1.715254 -0.518329,2.559249 -0.04152,0.162421 -0.08343,0.324767 -0.129582,0.485934 -0.04329,0.151161 -0.0903,0.301287 -0.129583,0.453538 -0.09686,0.375454 -0.150367,0.772939 -0.356351,1.101449 -0.154503,0.246407 -0.384815,0.436039 -0.626499,0.597831 -0.241684,0.161792 -0.498741,0.300381 -0.734115,0.471223 -0.186014,0.135015 -0.357393,0.289434 -0.518329,0.453538 -0.451344,0.460228 -0.819232,0.99427 -1.231031,1.490196 -0.17714,0.213328 -0.368604,0.424542 -0.615516,0.550724 -0.224659,0.11481 -0.481634,0.151624 -0.733894,0.155875 -0.25226,0.0043 -0.504038,-0.02229 -0.756302,-0.02629 -0.417754,-0.0066 -0.839082,0.04967 -1.231032,0.194373 -0.244784,0.09037 -0.484376,0.216301 -0.745098,0.226769 -0.02793,0.0011 -0.05599,8.97e-4 -0.08369,0.0046 -0.0277,0.0037 -0.05539,0.01172 -0.07829,0.02776 -0.02507,0.01755 -0.04279,0.04352 -0.06479,0.06479 -0.0489,0.04729 -0.117546,0.06963 -0.185317,0.07552 -0.06777,0.0059 -0.135825,-0.0032 -0.20343,-0.01073 -0.311625,-0.03483 -0.625954,-0.03791 -0.939471,-0.0324 -0.04319,7.6e-4 -0.08641,0.0017 -0.129582,0 -0.155082,-0.006 -0.30716,-0.04561 -0.453538,-0.09719 -0.09185,-0.03237 -0.183321,-0.06986 -0.280154,-0.08026 -0.04842,-0.0052 -0.09793,-0.0034 -0.14497,0.0091 -0.04704,0.01257 -0.09159,0.03627 -0.125601,0.07112 -0.01068,0.01094 -0.02036,0.02298 -0.0324,0.03239 -0.02192,0.01713 -0.05036,0.02434 -0.07817,0.0247 -0.02781,3.63e-4 -0.05531,-0.0056 -0.08223,-0.01262 -0.02693,-0.007 -0.05369,-0.01499 -0.08125,-0.01879 -0.02756,-0.0038 -0.0563,-0.0032 -0.0823,0.0067 -0.02259,0.0086 -0.04219,0.02382 -0.06479,0.0324 -0.03385,0.01286 -0.07351,0.0093 -0.104565,-0.0093 -0.03105,-0.01863 -0.05283,-0.05197 -0.05741,-0.08789 z"
     id="path5"
     inkscape:path-effect="#path-effect5"
     inkscape:original-d="M 20.571185,20.344416 C 19.347249,20.303822 18.120139,20.143837 16.910486,19.955669 15.17892,19.686315 13.417177,19.31901 12.115942,18.044331 11.858128,17.791778 11.646513,17.494932 11.435635,17.202046 10.933286,16.504339 10.48434,15.70787 10.398977,14.83717 c -0.02845,-0.290169 -0.04207,-0.586172 0,-0.874681 0.09566,-0.655923 0.589478,-1.428313 0.939471,-1.976129 0.117721,-0.184259 0.254046,-0.357482 0.356352,-0.550725 0.401797,-0.758951 0.388746,-1.5645809 0.388746,-2.3972718 0,-0.3409217 -0.0101,-0.6642669 0.0324,-1.0042626 0.137332,-1.0986549 0.658506,-2.0869382 1.328218,-2.9479966 0.14598,-0.1876879 0.344977,-0.4579231 0.518329,-0.6155158 0.556149,-0.5055901 1.26064,-0.7864338 1.878943,-1.1986359 0.552356,-0.3682372 0.845504,-0.6555191 1.39301,-0.9070759 0.255121,-0.117218 0.514043,-0.2268949 0.777493,-0.3239557 0.511774,-0.1885481 0.462928,-0.09768 1.036658,-0.226769 0.480477,-0.1081072 0.955149,-0.2424449 1.425405,-0.3887468 0.247821,-0.0771 1.083559,-0.3793738 1.360614,-0.48593346 0.217103,-0.0835012 0.426101,-0.18911918 0.647911,-0.25916453 0.404517,-0.12774214 0.954256,-0.18161808 1.360614,-0.22676897 0.526618,-0.058513 1.0965,-0.14088282 1.619779,0 0.435639,0.11728756 0.496396,0.19709636 0.907075,0.3887468 0.50987,0.23793896 1.071916,0.42924396 1.522592,0.77749356 0.457585,0.3535883 0.764026,1.0284455 1.036658,1.5225917 0.255938,0.4638877 0.306667,0.4409816 0.485934,0.9070759 0.261326,0.6794472 0.162416,1.4585972 0.518329,2.1057118 0.06352,0.1154965 0.159712,0.2104746 0.226769,0.3239557 0.264983,0.4484333 0.444088,0.9453185 0.712702,1.3930094 0.374872,0.624786 0.991455,1.4841688 1.231032,2.2028982 0.16241,0.48723 0.103248,1.05505 0.06479,1.554988 -0.06698,0.870775 -0.29545,1.717262 -0.518329,2.559249 -0.04319,0.161978 -0.08639,0.323956 -0.129582,0.485934 -0.04319,0.151179 -0.08871,0.301715 -0.129583,0.453538 -0.08942,0.332126 -0.170863,0.80776 -0.356351,1.101449 -0.31256,0.494887 -0.920179,0.719744 -1.360614,1.069054 -0.179875,0.142659 -0.353169,0.294073 -0.518329,0.453538 -0.469245,0.453064 -0.80738,1.001367 -1.231031,1.490196 -0.165228,0.190647 -0.367303,0.457645 -0.615516,0.550724 -0.453449,0.170044 -1.024151,0.07429 -1.490196,0.129583 -0.412534,0.04894 -0.823079,0.115921 -1.231032,0.194373 -0.344836,0.06631 -0.439383,0.139422 -0.745098,0.226769 -0.05294,0.01513 -0.111368,0.01071 -0.161978,0.0324 -0.02807,0.01203 -0.0386,0.04908 -0.06479,0.06479 -0.06698,0.04019 -0.313675,0.05797 -0.388747,0.06479 -0.308175,0.02802 -0.636768,0.0054 -0.939471,-0.0324 -0.04286,-0.0054 -0.08735,0.0091 -0.129582,0 -0.51146,-0.109598 -0.155229,-0.09719 -0.453538,-0.09719 -0.127255,0 -0.443004,-0.03591 -0.550725,0 -0.01449,0.0048 -0.01758,0.02869 -0.0324,0.03239 -0.08967,0.02242 -0.2409,-0.04153 -0.323956,0 -0.02634,0.01317 -0.0268,0.05139 -0.06479,0.0324 -0.05632,-0.02816 -0.107985,-0.06479 -0.161978,-0.09719 z" />
  <path
     style="fill:none;stroke:#ff9500;stroke-width:1.079"
     d="m 21.640239,3.6606991 c 0.72572,-0.2938395 1.543962,-0.3540405 2.304873,-0.1695774 0.76091,0.184463 1.460747,0.6126834 1.971342,1.2062355 0.7555,0.8782478 1.063161,2.0419703 1.425404,3.14237 0.193594,0.5880876 0.409455,1.1722713 0.51833,1.7817562 0.146094,0.8178416 0.09797,1.6724746 0.356351,2.4620626 0.250098,0.764289 0.774411,1.423349 0.971867,2.202899 0.02634,0.10399 0.04675,0.210747 0.04171,0.317902 -0.005,0.107156 -0.03735,0.215604 -0.106505,0.297614 -0.06027,0.07148 -0.143989,0.118499 -0.226769,0.161978 -0.361017,0.18962 -0.741653,0.341852 -1.133845,0.453538 -1.019516,0.290331 -2.106844,0.305225 -3.109975,0.647911 -0.193967,0.06626 -0.384272,0.144642 -0.58312,0.194373 -0.162891,0.04074 -0.332028,0.06245 -0.485933,0.129583 -0.06641,0.02897 -0.12898,0.066 -0.194374,0.09719 -0.213336,0.10176 -0.45055,0.138886 -0.680307,0.194374 -0.23675,0.05718 -0.470357,0.13571 -0.680306,0.259164 -0.06265,0.03684 -0.124237,0.07812 -0.194374,0.09719 -0.06344,0.01725 -0.130857,0.01541 -0.194373,0.0324 -0.04678,0.01251 -0.09113,0.0355 -0.126128,0.06896 -0.035,0.03346 -0.06028,0.07765 -0.06825,0.125414 -0.0071,0.04269 -5.01e-4,0.08631 0,0.129582 1.52e-4,0.0131 -3.19e-4,0.02652 -0.0051,0.03873 -0.0024,0.0061 -0.0058,0.01184 -0.01046,0.01647 -0.0046,0.0046 -0.01047,0.0081 -0.01686,0.0096 -0.0053,0.0012 -0.01078,9.87e-4 -0.01618,5.77e-4 -0.0054,-4.1e-4 -0.01082,-0.001 -0.01622,-5.77e-4 -0.0072,5.83e-4 -0.01428,0.0031 -0.02028,0.0071 -0.006,0.0041 -0.01094,0.0097 -0.01418,0.01615 -0.0032,0.0065 -0.0048,0.0138 -0.0044,0.02103 3.59e-4,0.0072 0.0026,0.01437 0.0065,0.02049"
     id="path6"
     inkscape:path-effect="#path-effect6"
     inkscape:original-d="m 21.640239,3.6606991 c 1.465014,-0.086009 3.145811,-0.030945 4.276215,1.0366581 0.936332,0.8843139 1.11084,1.9714926 1.425404,3.14237 0.160485,0.5973575 0.378222,1.1792937 0.51833,1.7817562 0.191088,0.8216786 0.02331,1.6710866 0.356351,2.4620626 0.328542,0.780289 0.971867,1.295928 0.971867,2.202899 0,0.158033 0.05882,0.478165 -0.06479,0.615516 -0.06214,0.06905 -0.142134,0.12369 -0.226769,0.161978 -0.370878,0.167778 -0.74833,0.322854 -1.133845,0.453538 -0.950058,0.322053 -2.145396,0.435377 -3.109975,0.647911 -0.08133,0.01792 -0.445266,0.153017 -0.58312,0.194373 -0.157986,0.0474 -0.332498,0.07379 -0.485933,0.129583 -0.06808,0.02476 -0.127116,0.07028 -0.194374,0.09719 -0.467975,0.18719 -0.127375,0.01006 -0.680307,0.194374 -0.230213,0.07674 -0.455575,0.167607 -0.680306,0.259164 -0.06708,0.02733 -0.125653,0.07428 -0.194374,0.09719 -0.06231,0.02077 -0.132059,0.01162 -0.194373,0.0324 -0.06103,0.02034 -0.17786,0.128318 -0.194374,0.194374 -0.01048,0.0419 0.01932,0.09095 0,0.129582 -0.0108,0.0216 -0.01532,0.04772 -0.0324,0.06479 -0.0076,0.0076 -0.02757,-0.0097 -0.0324,0 -0.0378,0.07559 0.04049,0.06479 -0.0324,0.06479" />
  <path
     style="fill:none;stroke:#1c1f30;stroke-width:1.079;stroke-opacity:1"
     d="m 7.3537937,25.527707 c 0.040783,-0.03545 0.084127,-0.06796 0.1295823,-0.09719 0.2744782,-0.176478 0.6136919,-0.225388 0.9398016,-0.213752 0.3261096,0.01164 0.6473832,0.07905 0.9715368,0.116562 0.5160138,0.05972 1.0383066,0.04355 1.5549876,0.09719 0.761377,0.07904 1.501397,0.309185 2.202898,0.615516 0.566846,0.247529 1.111369,0.545058 1.68457,0.777493 0.221715,0.08991 0.447872,0.170074 0.680307,0.226769 0.768987,0.18757 1.57349,0.112392 2.364876,0.09719 1.004303,-0.01929 2.010094,0.06001 3.012788,0 0.649078,-0.03885 1.294016,-0.135949 1.943734,-0.161978 0.23744,-0.0095 0.475262,-0.0095 0.712702,0"
     id="path7"
     inkscape:path-effect="#path-effect7"
     inkscape:original-d="m 7.3537937,25.527707 c 0.043194,-0.0324 0.076788,-0.08587 0.1295823,-0.09719 0.6024762,-0.129102 1.3122699,-0.11884 1.9113384,-0.09719 0.5190015,0.01876 1.0397486,0.03204 1.5549876,0.09719 0.896271,0.113322 1.403107,0.272748 2.202898,0.615516 1.173841,0.503075 0.548029,0.33276 1.68457,0.777493 0.2226,0.08711 0.444137,0.189868 0.680307,0.226769 0.766294,0.119734 1.588647,0.09719 2.364876,0.09719 1.00351,0 2.009462,0.01929 3.012788,0 0.658346,-0.01266 1.289936,-0.118391 1.943734,-0.161978 0.234821,-0.01565 0.47626,0 0.712702,0" />
  <path
     style="fill:none;stroke:#1c1f30;stroke-width:1.079;stroke-opacity:1"
     d="m 7.4185848,32.00682 c 1.174729,0.243933 2.3663612,0.406429 3.5635122,0.485934 0.362115,0.02405 0.731413,0.04186 1.071258,0.169187 0.169923,0.06366 0.330923,0.154987 0.463065,0.279345 0.132143,0.124358 0.234561,0.282824 0.279829,0.458543 0.03674,0.142625 0.03543,0.291834 0.03761,0.4391 0.0022,0.147265 0.0086,0.297394 0.05958,0.435581 0.05958,0.161598 0.177652,0.297331 0.317109,0.398405 0.139458,0.101074 0.299907,0.169678 0.463346,0.22401 0.326878,0.108664 0.677236,0.166185 0.968905,0.349452 0.09894,0.06217 0.189285,0.13785 0.29156,0.194373 0.216009,0.119379 0.47114,0.14575 0.717928,0.143079 0.246788,-0.0027 0.493756,-0.03187 0.739873,-0.0135 0.234286,0.01749 0.462911,0.07773 0.693299,0.123749 0.230389,0.04602 0.468148,0.07792 0.69971,0.03823 0.297639,-0.05101 0.562279,-0.215887 0.809889,-0.388746 0.223602,-0.156099 0.441377,-0.322096 0.680307,-0.453538 0.198961,-0.109454 0.410554,-0.193805 0.615516,-0.291561 0.161391,-0.07697 0.319092,-0.162457 0.485934,-0.226768 0.309254,-0.119205 0.641948,-0.162731 0.971867,-0.194374 0.31344,-0.03006 0.628106,-0.05028 0.939471,-0.09719 0.182975,-0.02757 0.365685,-0.06442 0.550725,-0.06479 0.242151,-4.89e-4 0.47962,0.06143 0.7134,0.124554 0.23378,0.06312 0.469935,0.128314 0.712005,0.134611 0.387479,0.01008 0.762757,-0.131233 1.112285,-0.298779 0.349529,-0.167546 0.687823,-0.36448 1.058218,-0.478715 0.387383,-0.119474 0.796345,-0.144359 1.198636,-0.194373 0.174629,-0.02171 0.34925,-0.04841 0.518329,-0.09719 0.247745,-0.07147 0.482497,-0.190952 0.680307,-0.356351 0.0764,-0.06388 0.147239,-0.134444 0.226769,-0.194374 0.206514,-0.15562 0.461047,-0.232103 0.712702,-0.29156 0.153231,-0.0362 0.308813,-0.06757 0.453538,-0.129582 0.157875,-0.06764 0.299224,-0.17058 0.421142,-0.29156 0.219623,-0.217932 0.375083,-0.490386 0.550725,-0.745098 0.252488,-0.366154 0.550355,-0.699907 0.87468,-1.004263 0.078,-0.0732 0.157808,-0.144998 0.226769,-0.226769 0.147741,-0.175184 0.240561,-0.390016 0.3126,-0.607565 0.07204,-0.217548 0.125432,-0.441224 0.205729,-0.655862 0.105544,-0.282123 0.257442,-0.5485 0.323956,-0.842284 0.09569,-0.422638 0.0071,-0.86635 0.06479,-1.295823 0.0014,-0.01079 0.003,-0.02193 0,-0.0324 -0.0026,-0.009 -0.0084,-0.01696 -0.01579,-0.02273 -0.0074,-0.0058 -0.01629,-0.0095 -0.02546,-0.01142 -0.01835,-0.0039 -0.03739,-0.0011 -0.05593,0.0018 -0.912858,0.141098 -1.819931,0.387725 -2.624041,0.842284 -0.746141,0.42179 -1.386995,1.012531 -2.138107,1.425405 -0.624466,0.343259 -1.310434,0.555658 -1.97613,0.80989 -0.90877,0.347063 -1.784867,0.774453 -2.688832,1.133844 -0.542819,0.21581 -1.095237,0.406913 -1.652173,0.583121 -0.563341,0.178235 -1.131998,0.341475 -1.68457,0.550724 -0.441483,0.167182 -0.888652,0.366785 -1.360614,0.356352 -0.163589,-0.0036 -0.325483,-0.0327 -0.485933,-0.06479 -0.14454,-0.02891 -0.290628,-0.06107 -0.421143,-0.129582 -0.232007,-0.121786 -0.393593,-0.346613 -0.615515,-0.485933 -0.110708,-0.0695 -0.23394,-0.11613 -0.356352,-0.161978 -0.323129,-0.121023 -0.647095,-0.239811 -0.971867,-0.356351"
     id="path8"
     inkscape:path-effect="#path-effect8"
     inkscape:original-d="m 7.4185848,32.00682 c 1.1878375,0.161978 2.4029853,0.185315 3.5635122,0.485934 0.654493,0.169537 1.262068,0.51681 1.814152,0.907075 0.06315,0.04464 0.08102,0.841097 0.09719,0.874681 0.30995,0.643744 1.165467,0.73831 1.74936,0.971867 0.15702,0.06281 0.0095,0.140135 0.29156,0.194373 0.20913,0.04022 1.315305,0.111771 1.457801,0.129582 0.09007,0.01126 1.204242,0.245875 1.393009,0.161978 0.273643,-0.121619 0.549197,-0.241399 0.809889,-0.388746 0.237266,-0.134107 0.444039,-0.317684 0.680307,-0.453538 0.196811,-0.113166 0.410099,-0.194894 0.615516,-0.291561 0.161734,-0.07611 0.316951,-0.168499 0.485934,-0.226768 0.09334,-0.03219 0.906535,-0.184475 0.971867,-0.194374 2.010751,-0.304659 -0.569726,0.108613 0.939471,-0.09719 0.270485,-0.03688 0.301412,-0.09412 0.550725,-0.06479 0.560638,0.06596 0.792049,0.294351 1.425405,0.259165 0.806368,-0.0448 1.411903,-0.576688 2.170503,-0.777494 0.07129,-0.01887 1.143966,-0.185001 1.198636,-0.194373 0.173259,-0.0297 0.353917,-0.03498 0.518329,-0.09719 0.239429,-0.0906 0.461485,-0.223495 0.680307,-0.356351 0.0851,-0.05167 0.142344,-0.141608 0.226769,-0.194374 0.09873,-0.0617 0.659373,-0.273783 0.712702,-0.29156 0.14916,-0.04972 0.311874,-0.06137 0.453538,-0.129582 0.153837,-0.07407 0.288997,-0.183441 0.421142,-0.29156 0.477323,-0.390537 0.144013,-0.202815 0.550725,-0.745098 0.266354,-0.355138 0.571063,-0.680404 0.87468,-1.004263 0.07311,-0.07799 0.16418,-0.140107 0.226769,-0.226769 0.268773,-0.372147 0.348381,-0.84628 0.518329,-1.263427 0.246493,-0.605027 0.157863,-0.225368 0.323956,-0.842284 0.138138,-0.513085 0.166728,-0.786139 0.06479,-1.295823 -0.0021,-0.01059 0.009,-0.02641 0,-0.0324 -0.02841,-0.01894 -0.06479,-0.0216 -0.09719,-0.0324 -0.882199,-0.294067 -1.921066,0.373635 -2.624041,0.842284 -0.720567,0.480379 -1.356211,1.034457 -2.138107,1.425405 -0.669898,0.334949 -1.284488,0.52643 -1.97613,0.80989 -0.900261,0.368959 -1.781553,0.781014 -2.688832,1.133844 -0.753905,0.293186 -0.910927,0.336038 -1.652173,0.583121 -0.56062,0.186873 -1.122063,0.369918 -1.68457,0.550724 -0.445287,0.143128 -0.889986,0.317133 -1.360614,0.356352 -0.227181,0.01893 -0.25785,-0.004 -0.485933,-0.06479 -0.120918,-0.03224 -0.307145,-0.06118 -0.421143,-0.129582 -0.225122,-0.135073 -0.395279,-0.345783 -0.615515,-0.485933 -0.154721,-0.09846 -0.200703,-0.09014 -0.356352,-0.161978 -0.331543,-0.15302 -0.637936,-0.356351 -0.971867,-0.356351" />
  <path
     style="fill:none;stroke:#95aabf;stroke-width:1.079;stroke-opacity:1"
     d="M 0.61551577,22.514919 C 1.3946383,22.407145 2.1722357,22.288346 2.9479966,22.158568 c 0.2923463,-0.04891 0.5878959,-0.09956 0.8835277,-0.07811 0.2956317,0.02145 0.5963065,0.122935 0.8010418,0.337275 0.1375821,0.144037 0.2239617,0.329998 0.2827432,0.520314 0.058782,0.190316 0.092154,0.387392 0.1383991,0.581136 0.1745374,0.731225 0.530671,1.408712 0.7127025,2.138107 0.2541105,1.018214 0.1565861,2.100301 -0.1295823,3.109974 -0.079519,0.280563 -0.1744439,0.55952 -0.3239556,0.80989 -0.084556,0.141596 -0.186122,0.273277 -0.2591646,0.421142 -0.062192,0.1259 -0.1026556,0.26147 -0.1619778,0.388747 -0.077592,0.166475 -0.1866906,0.317167 -0.2591645,0.485933 -0.028771,0.067 -0.051581,0.136429 -0.080322,0.203438 -0.028741,0.06701 -0.063973,0.132314 -0.1140518,0.185309 -0.052607,0.05567 -0.1210136,0.09726 -0.1619779,0.161978 -0.023588,0.03727 -0.036604,0.08005 -0.053604,0.120745 -0.017,0.0407 -0.039524,0.0812 -0.075978,0.106024 -0.019981,0.01361 -0.043079,0.02176 -0.064791,0.03239 -0.04848,0.02374 -0.089962,0.0599 -0.1262249,0.09989 -0.036262,0.03999 -0.067753,0.084 -0.100544,0.126879 -0.02238,0.02927 -0.045485,0.05817 -0.063832,0.09013 -0.018347,0.03195 -0.031901,0.06743 -0.033355,0.104248 -8.527e-4,0.0216 0.00245,0.04332 0,0.06479 -0.00362,0.0317 -0.019572,0.06073 -0.038374,0.0865 -0.018802,0.02577 -0.040721,0.0492 -0.058813,0.07548 -0.043944,0.06382 -0.063435,0.142475 -0.063618,0.219964 -1.83e-4,0.07749 0.01806,0.154099 0.044356,0.22699 0.052592,0.145782 0.137321,0.279101 0.1812398,0.427726 0.040301,0.136382 0.044712,0.280354 0.064791,0.421142 0.023718,0.166307 0.069552,0.329037 0.1295823,0.485934 0.1226875,0.320661 0.3040638,0.61672 0.4211424,0.939471 0.031476,0.08677 0.0583,0.175455 0.097187,0.259165 0.053099,0.114304 0.1276017,0.217061 0.1943734,0.323956 0.08619,0.137983 0.1617674,0.290848 0.1619778,0.453538 6.99e-5,0.05408 -0.00823,0.108531 0,0.161977 0.006,0.03896 0.020589,0.07598 0.034426,0.112892 0.013837,0.03691 0.027139,0.07459 0.030365,0.113877 0.00494,0.06021 -0.01399,0.119422 -0.028672,0.178022 -0.00734,0.0293 -0.013682,0.059 -0.015472,0.08915 -0.00179,0.03015 0.0011,0.06091 0.011748,0.08918 0.011007,0.02922 0.030109,0.05545 0.036595,0.08599 0.00324,0.01527 0.00309,0.03162 -0.00292,0.04603 -0.00301,0.0072 -0.00746,0.01384 -0.013215,0.01911 -0.00576,0.0053 -0.012838,0.0091 -0.020458,0.01084 -0.01058,0.0023 -0.021568,4.72e-4 -0.032396,0 -0.036915,-0.0016 -0.072735,0.01337 -0.1040491,0.03298 -0.031314,0.01961 -0.0594,0.04399 -0.090324,0.06421 -0.097418,0.06371 -0.218173,0.08284 -0.3345095,0.07903 -0.1163365,-0.0038 -0.2307652,-0.02884 -0.3457974,-0.04663 -0.4061906,-0.0628 -0.820025,-0.03532 -1.2310315,-0.0324 -0.1295793,9.22e-4 -0.2591642,0 -0.3887468,0 H 1.3930092"
     id="path9"
     inkscape:path-effect="#path-effect9"
     inkscape:original-d="M 0.61551577,22.514919 C 1.7659351,22.238818 1.4357034,22.281186 2.9479966,22.158568 c 0.4306345,-0.03492 1.3272903,-0.169571 1.6845695,0.259164 0.1860898,0.223308 0.3565541,0.919083 0.4211423,1.10145 0.2490442,0.703183 0.5797341,1.397283 0.7127025,2.138107 0.1714779,0.955377 0.1438957,2.172336 -0.1295823,3.109974 -0.086016,0.294911 -0.1769988,0.53697 -0.3239556,0.80989 -0.078147,0.14513 -0.1831187,0.2749 -0.2591646,0.421142 -0.064765,0.124548 -0.1010784,0.262263 -0.1619778,0.388747 -0.079638,0.165401 -0.1770673,0.321739 -0.2591645,0.485933 -0.1038272,0.207655 -0.025905,0.164123 -0.1943734,0.388747 -0.045814,0.06109 -0.111249,0.104908 -0.1619779,0.161978 -0.3651729,0.41082 0.076418,-0.08223 -0.1295822,0.226769 -0.013394,0.02009 -0.047717,0.01532 -0.064791,0.03239 -0.07559,0.07559 -0.1571994,0.145605 -0.2267689,0.226769 -0.032239,0.03761 -0.08516,0.146265 -0.097187,0.194374 -0.00524,0.02095 0.00966,0.04547 0,0.06479 -0.076633,0.153267 -0.068889,-0.03611 -0.097187,0.161978 -0.046211,0.323475 0.081733,0.573764 0.1619778,0.87468 0.036596,0.137237 0.030343,0.283351 0.064791,0.421142 0.040658,0.162633 0.079101,0.326077 0.1295823,0.485934 0.1037496,0.32854 0.2784532,0.630312 0.4211424,0.939471 0.038663,0.08377 0.055926,0.176643 0.097187,0.259165 0.056318,0.112636 0.1404639,0.210147 0.1943734,0.323956 0.068721,0.145078 0.1112133,0.301244 0.1619778,0.453538 0.015802,0.04741 -0.00823,0.112611 0,0.161977 0.080515,0.483088 -0.012237,-0.158374 0.064791,0.226769 0.024174,0.120872 -0.01328,0.241656 -0.032395,0.356352 -0.00888,0.05326 0.024146,0.113685 0,0.161977 -0.00483,0.0097 -0.022151,-0.0034 -0.032396,0 -0.085001,0.02833 -0.09516,0.08616 -0.1943734,0.09719 -0.2256374,0.02507 -0.4535379,0.0216 -0.6803069,0.0324 -0.4067826,0.01937 -0.8306145,0.01766 -1.2310315,-0.0324 -0.1210349,-0.01513 -0.2676263,0 -0.3887468,0 -0.3347542,0 -0.6695084,0 -1.0042626,0" />
  <path
     style="fill:none;stroke:#95aabf;stroke-width:1.079;stroke-opacity:1"
     d="m 1.3930094,34.339301 c -0.100733,-0.03531 -0.1903345,-0.101684 -0.2534575,-0.18776 -0.063123,-0.08608 -0.099498,-0.191487 -0.1028938,-0.298174 -0.0021,-0.0661 0.0083,-0.132785 0.032396,-0.194373 0.049335,-0.12608 0.1521384,-0.223479 0.2604179,-0.304755 0.1082796,-0.08128 0.2257356,-0.151484 0.3227023,-0.24597 0.133483,-0.130068 0.2227486,-0.303151 0.2591645,-0.485933 0.00673,-0.03377 0.01227,-0.06925 0.032396,-0.09719 0.016431,-0.02281 0.04183,-0.03866 0.06925,-0.04487 0.02742,-0.0062 0.056651,-0.003 0.082714,0.0075 0.026063,0.01054 0.048981,0.02825 0.067,0.04983 0.018019,0.02158 0.031234,0.04696 0.040119,0.07363 0.01777,0.05335 0.018265,0.110908 0.013932,0.166971 -0.00433,0.05606 -0.01331,0.111835 -0.013851,0.168063 -0.00179,0.186441 0.088153,0.360225 0.1800821,0.522436 0.091928,0.162211 0.1904712,0.328662 0.2086647,0.514222 0.012659,0.12911 -0.014754,0.25986 0,0.388747 0.00248,0.02167 0.00615,0.04322 0.00736,0.065 0.00121,0.02178 -1.152e-4,0.04401 -0.00736,0.06458 -0.00779,0.02211 -0.022188,0.04151 -0.039396,0.05743 -0.017209,0.01592 -0.037198,0.02856 -0.057791,0.03976 -0.083853,0.04563 -0.1796397,0.06857 -0.2751026,0.06789 -0.095463,-6.78e-4 -0.1904471,-0.02478 -0.2756221,-0.06789 -0.077727,-0.03935 -0.1472122,-0.09408 -0.226769,-0.129582 -0.031234,-0.01394 -0.063837,-0.02481 -0.097187,-0.0324"
     id="path12"
     inkscape:path-effect="#path-effect12"
     inkscape:original-d="M 1.3930094,34.339301 C 1.1217056,34.212327 1.0119393,34.174712 1.0366581,33.853367 c 0.00504,-0.06549 0.00522,-0.134576 0.032396,-0.194373 0.1114809,-0.245258 0.421249,-0.340292 0.5831202,-0.550725 0.054996,-0.07149 0.2265561,-0.414195 0.2591645,-0.485933 0.014131,-0.03109 0.013454,-0.06877 0.032396,-0.09719 0.051343,-0.07701 0.1505927,0.137185 0.2591646,0.421143 0.1318017,0.344712 0.2720428,0.686546 0.3887468,1.036658 0.035107,0.10532 0,0.279678 0,0.388747 0,0.04319 0.02396,0.09364 0,0.129582 -0.025413,0.03812 -0.05274,0.08608 -0.097187,0.09719 -0.057837,0.01446 -0.4764632,0.02475 -0.5507247,0 -0.083871,-0.02796 -0.1428981,-0.101625 -0.226769,-0.129582 -0.054647,-0.01821 -0.047819,0.01697 -0.097187,-0.0324" />
</svg>
