<?xml version="1.0" encoding="UTF-8" standalone="no"?>
<svg
   width="48px"
   height="36px"
   viewBox="0 0 48 36"
   version="1.1"
   id="svg1"
   sodipodi:docname="download.svg"
   inkscape:version="1.3.2 (091e20e, 2023-11-25, custom)"
   xmlns:inkscape="http://www.inkscape.org/namespaces/inkscape"
   xmlns:sodipodi="http://sodipodi.sourceforge.net/DTD/sodipodi-0.dtd"
   xmlns="http://www.w3.org/2000/svg"
   xmlns:svg="http://www.w3.org/2000/svg">
  <sodipodi:namedview
     id="namedview1"
     pagecolor="#ffffff"
     bordercolor="#000000"
     borderopacity="0.25"
     inkscape:showpageshadow="2"
     inkscape:pageopacity="0.0"
     inkscape:pagecheckerboard="0"
     inkscape:deskcolor="#d1d1d1"
     inkscape:zoom="21.949773"
     inkscape:cx="23.098189"
     inkscape:cy="18.155085"
     inkscape:window-width="2560"
     inkscape:window-height="1369"
     inkscape:window-x="-8"
     inkscape:window-y="-8"
     inkscape:window-maximized="1"
     inkscape:current-layer="svg1" />
  <!-- Generator: Sketch 49 (51002) - http://www.bohemiancoding.com/sketch -->
  <title
     id="title1">icon/laptop</title>
  <desc
     id="desc1">Created with Sketch.</desc>
  <defs
     id="defs1">
    <inkscape:path-effect
       effect="spiro"
       id="path-effect4"
       is_visible="true"
       lpeversion="1" />
    <inkscape:path-effect
       effect="spiro"
       id="path-effect3"
       is_visible="true"
       lpeversion="1" />
    <inkscape:path-effect
       effect="spiro"
       id="path-effect2"
       is_visible="true"
       lpeversion="1" />
    <inkscape:path-effect
       effect="spiro"
       id="path-effect1"
       is_visible="true"
       lpeversion="1" />
  </defs>
  <path
     style="fill:none;stroke:#000000;stroke-width:1;stroke-dasharray:none;stroke-opacity:1"
     d="M 9.9773241,30.569792 C 8.3360166,30.691987 6.6799965,30.61532 5.0569999,30.341999 4.8957325,30.314841 4.7327783,30.285135 4.5841359,30.216943 4.4354934,30.148751 4.3004442,30.037121 4.2369459,29.886414 4.1833333,29.759169 4.1846145,29.615715 4.1993598,29.478427 4.2141051,29.341138 4.2414574,29.204364 4.2369459,29.06636 4.2281101,28.796077 4.0992098,28.546855 4.0091531,28.291864 3.915719,28.02731 3.8588698,27.74161 3.6902432,27.517369 3.5480377,27.328263 3.3381399,27.199992 3.189099,27.016225 3.0560003,26.852115 2.9774969,26.651545 2.8701891,26.469522 2.7657952,26.292441 2.6342547,26.133185 2.5144607,25.966137 2.3946666,25.79909 2.2848587,25.620422 2.2323693,25.421675 c -0.059415,-0.224973 -0.04202,-0.463852 0.00456,-0.691829 0.046578,-0.227977 0.1215332,-0.449116 0.1776768,-0.674928 0.070555,-0.283773 0.1112256,-0.574309 0.1366756,-0.865612 0.054224,-0.620655 0.045559,-1.244882 0.045559,-1.867901 v -1.047847 c 0,-0.151919 0.013507,-0.304267 0,-0.455585 C 2.5801079,19.630549 2.5090352,19.452981 2.4601621,19.27127 2.3959283,19.032447 2.3698763,18.785253 2.3234864,18.542333 2.2592081,18.20574 2.1558752,17.877394 2.0956937,17.540045 1.9777786,16.879068 2.0277108,16.197088 1.9134594,15.535468 1.8871048,15.382851 1.852097,15.231874 1.8223423,15.079883 1.6692495,14.297866 1.6578335,13.479512 1.8679009,12.710838 2.1228316,11.778001 2.6855148,10.965696 3.1435405,10.114 3.2336729,9.9463992 3.320026,9.7766571 3.4168918,9.6128557 3.5374538,9.4089837 3.6740964,9.2146648 3.7873688,9.0066543 3.9006411,8.7986438 3.9910417,8.5733749 4.0091531,8.3372161 4.0239048,8.1448643 3.990298,7.9521058 3.9472393,7.7640559 3.9041806,7.576006 3.851431,7.3896051 3.8269188,7.1982521 c -0.056001,-0.4371701 0,-0.8804559 0,-1.3211982 V 3.0524234 1.9134594 c 0,-0.039295 1.505e-4,-0.078768 0.00618,-0.1175973 0.00603,-0.038829 0.018082,-0.077171 0.039377,-0.1101955 0.020307,-0.031491 0.048691,-0.057528 0.081122,-0.076297 0.032431,-0.018769 0.068832,-0.030355 0.1059857,-0.035218 0.074307,-0.00973 0.1503077,0.00738 0.2186699,0.038084 C 4.41498,1.6736453 4.5215931,1.785776 4.6469733,1.8679009 4.907224,2.038367 5.235613,2.07095 5.5457108,2.04588 5.8558085,2.0208101 6.1596599,1.9435014 6.4693156,1.9134599 c 0.3630125,-0.035218 0.7287238,-0.00507 1.0934054,0 0.5881463,0.00818 1.1864782,-0.051464 1.7312252,-0.2733513 0.1338831,-0.054533 0.2665069,-0.1193395 0.410027,-0.1366757 0.1056348,-0.01276 0.2125107,8.77e-4 0.3189098,0 0.262623,-0.00216 0.515654,-0.092211 0.774495,-0.1366757 0.52548,-0.090268 1.070682,0.00808 1.59455,-0.091117 0.406251,-0.076926 0.782115,-0.2694623 1.184522,-0.36446845 0.121967,-0.0287957 0.246551,-0.0486856 0.364469,-0.0911171 0.108859,-0.0391717 0.210254,-0.0969448 0.31891,-0.13667567 0.289177,-0.10573969 0.609001,-0.0775353 0.911171,-0.13667568 0.199028,-0.0389535 0.390524,-0.11589717 0.592261,-0.13667567 0.120961,-0.0124587 0.242948,-0.00441 0.364468,0 0.546697,0.0198382 1.093168,-0.0342833 1.640109,-0.0455586 1.232688,-0.0254122 2.458808,0.16669712 3.690243,0.22779279 0.773766,0.0383891 1.549172,0.0250074 2.323486,0 0.759163,-0.0245181 1.51851,-0.0602069 2.277928,-0.0455586 1.384898,0.0267131 2.761678,0.22062498 4.145829,0.27335135 0.728591,0.0277542 1.458277,0.0163473 2.186811,0.0455586 0.334177,0.0133991 0.667998,0.0353406 1.002288,0.0455586 0.804552,0.0245922 1.609894,-0.0187698 2.414603,0 0.622706,0.0145246 1.245026,0.0455586 1.867901,0.0455586 h 2.141252 c 0.330648,0 0.662129,0.0199908 0.986089,0.086158 0.32396,0.066167 0.642795,0.1687656 0.972929,0.1871934 0.06804,0.0038 0.137024,0.00388 0.202913,0.021263 0.03294,0.00869 0.06495,0.021759 0.09317,0.040849 0.02822,0.01909 0.05259,0.044375 0.06839,0.074564 0.02156,0.041203 0.02623,0.089425 0.02279,0.1358009 -0.0034,0.046376 -0.0145,0.091792 -0.02279,0.1375505 -0.06508,0.3592071 0.04388,0.7325041 0.227793,1.0478468 0.104189,0.1786431 0.231725,0.3425633 0.364468,0.5011441 0.200102,0.2390511 0.413019,0.4673899 0.63782,0.6833784 0.27481,0.2640371 0.570829,0.511904 0.911171,0.6833784 0.146223,0.073672 0.299537,0.1326605 0.455586,0.1822342 0.127415,0.040477 0.256916,0.074791 0.381937,0.1221482 0.125022,0.047357 0.246517,0.1085787 0.347,0.1967617 0.127034,0.1114843 0.215776,0.2629049 0.265386,0.4244756 0.04961,0.1615708 0.06141,0.3331356 0.04957,0.5017357 -0.02369,0.3372004 -0.139326,0.6599504 -0.223834,0.9872481 -0.290259,1.1241753 -0.213846,2.3061715 -0.31891,3.462451 -0.02781,0.306089 -0.06854,0.611469 -0.136676,0.911171 -0.04823,0.212145 -0.110265,0.42187 -0.136676,0.63782 -0.0277,0.226466 -0.01572,0.455766 0,0.683378 0.05137,0.743995 0.142241,1.486623 0.136676,2.232369 -0.0027,0.364616 -0.02849,0.729895 0,1.093406 0.02518,0.321247 0.09248,0.637543 0.136676,0.956729 0.0689,0.497543 0.08154,1.002432 0.04556,1.503433 -0.06942,0.966665 -0.31812,1.910833 -0.455585,2.870189 -0.05837,0.407399 -0.09665,0.821705 -0.04556,1.230081 0.05628,0.449903 0.219117,0.878906 0.31891,1.321198 0.044,0.195016 0.07577,0.392932 0.09112,0.592261 0.03862,0.501563 -0.02614,1.014242 0.09112,1.503433 0.03362,0.140241 0.08186,0.276638 0.136676,0.410027 0.07327,0.17829 0.159066,0.353738 0.195435,0.543034 0.01818,0.09465 0.02363,0.192394 0.0083,0.287538 -0.01538,0.09514 -0.05219,0.187709 -0.112571,0.262833 -0.0404,0.05026 -0.09035,0.09182 -0.136676,0.136676 -0.08532,0.08263 -0.158605,0.176813 -0.227792,0.273351 -0.133128,0.185756 -0.252341,0.381621 -0.394548,0.560522 -0.142206,0.178901 -0.310711,0.342627 -0.516623,0.441767 -0.203648,0.09805 -0.434644,0.128767 -0.63782,0.227792 -0.199096,0.09704 -0.361063,0.25428 -0.536675,0.389247 -0.0878,0.06748 -0.18015,0.130075 -0.280931,0.175976 -0.100782,0.0459 -0.210637,0.07478 -0.321358,0.0726 -0.04521,-8.9e-4 -0.09117,-0.0069 -0.135177,0.0036 -0.022,0.0052 -0.04329,0.01468 -0.0603,0.02958 -0.01701,0.0149 -0.02949,0.03552 -0.03231,0.05795 -0.0019,0.01508 5.14e-4,0.03037 0,0.04556 -8.82e-4,0.02607 -0.01052,0.05147 -0.02543,0.07287 -0.0149,0.02141 -0.03491,0.03897 -0.05695,0.05291 -0.04409,0.02789 -0.09548,0.04134 -0.145414,0.05645 -0.156672,0.0474 -0.306563,0.114516 -0.455585,0.182234 -0.311249,0.141435 -0.623675,0.287307 -0.95673,0.364469 -0.76106,0.176322 -1.551153,-0.01919 -2.323487,-0.136676 -0.469295,-0.07139 -0.942576,-0.113832 -1.412315,-0.182234 -0.38048,-0.0554 -0.758345,-0.127795 -1.138964,-0.182234 -0.709337,-0.101455 -1.425927,-0.140256 -2.141252,-0.182235 -1.289719,-0.07569 -2.582489,-0.162068 -3.872477,-0.09112 -0.243087,0.01337 -0.485843,0.03232 -0.728937,0.04556 -0.925195,0.0504 -1.852915,0.01802 -2.779072,0.04556 -0.654454,0.01946 -1.307798,0.06884 -1.959018,0.136676 -0.380335,0.03962 -0.760006,0.08553 -1.138964,0.136676 -0.698212,0.09423 -1.394356,0.206235 -2.095694,0.273351 -0.742227,0.07103 -1.492381,0.09145 -2.232369,0 -0.275088,-0.034 -0.548051,-0.08335 -0.820054,-0.136676 -1.734056,-0.339963 -3.497529,-0.84501 -5.239234,-0.546702 -0.403473,0.0691 -0.799231,0.180839 -1.204739,0.236777 -0.405508,0.05594 -0.830324,0.05324 -1.209865,-0.100102 -0.03017,-0.01219 -0.06052,-0.02544 -0.09287,-0.02891 -0.01618,-0.0017 -0.03274,-9.34e-4 -0.04835,0.0036 -0.01561,0.0046 -0.03024,0.01307 -0.04101,0.02526 -0.01606,0.01817 -0.02253,0.04341 -0.02148,0.06764 0.001,0.02423 0.009,0.04766 0.01888,0.0698 0.0099,0.02215 0.02176,0.04337 0.03132,0.06565 0.0096,0.02229 0.01684,0.046 0.01684,0.07025 0,0.02162 -0.0059,0.04313 -0.01625,0.0621 -0.01036,0.01898 -0.02514,0.03544 -0.04245,0.04839 -0.03462,0.02591 -0.07868,0.03734 -0.1219206,0.03733 -0.086491,-2e-5 -0.1663361,-0.04252 -0.2450106,-0.07845 -0.039337,-0.01797 -0.079591,-0.03461 -0.121851,-0.04379 -0.04226,-0.0092 -0.086886,-0.01064 -0.1283709,0.0016 -0.041485,0.01221 -0.07956,0.03905 -0.1002398,0.07703 -0.01034,0.01899 -0.016196,0.0405 -0.016163,0.06213 3.25e-5,0.02162 0.00604,0.04331 0.017762,0.06147 0.018804,0.02914 0.050638,0.04741 0.083159,0.05946 0.032521,0.01205 0.066793,0.01899 0.099075,0.03166 0.063335,0.02486 0.1172147,0.07107 0.1822342,0.09112 0.077127,0.02378 0.1657471,0.0061 0.2277928,-0.04556 z"
     id="path1"
     inkscape:path-effect="#path-effect2"
     inkscape:original-d="m 9.9773241,30.569792 c -1.6122007,-0.137107 -3.3418224,0.265489 -4.9203242,-0.227793 -0.107494,-0.03359 -0.7842527,-0.31238 -0.820054,-0.455585 -0.061857,-0.247429 0.021247,-0.565088 0,-0.820054 C 4.213199,28.781398 4.0821469,28.559508 4.0091531,28.291864 3.9298947,28.00125 3.8953119,27.763451 3.6902432,27.517369 3.5400779,27.337171 3.333025,27.201272 3.189099,27.016225 3.0479724,26.834776 3.0339121,26.633245 2.8701891,26.469522 2.408836,26.008169 2.2911735,26.127326 2.2323693,25.421675 2.1933982,24.954022 2.334862,24.506788 2.4146036,24.054918 c 0.050765,-0.287667 0.093344,-0.576732 0.1366756,-0.865612 0.091847,-0.612312 0.045559,-1.250793 0.045559,-1.867901 0,-0.349282 0,-0.698565 0,-1.047847 0,-0.151862 0.020519,-0.305116 0,-0.455585 C 2.5714578,19.631852 2.4995206,19.454943 2.4601621,19.27127 2.4083638,19.029544 2.3771145,18.783659 2.3234864,18.542333 2.1796036,17.89486 2.1810455,18.194409 2.0956937,17.540045 2.0090374,16.87568 2.0129618,16.198817 1.9134594,15.535468 1.890486,15.382312 1.8400941,15.233731 1.8223423,15.079883 1.7345396,14.318926 1.7112582,13.462723 1.8679009,12.710838 2.0713012,11.734516 2.6359567,10.947887 3.1435405,10.114 3.2424772,9.9514609 3.3189924,9.7760215 3.4168918,9.6128557 3.6626942,9.2031851 3.9286672,8.8201312 4.0091531,8.3372161 4.1165854,7.6926223 3.9429119,7.7395531 3.8269188,7.1982521 c -0.056496,-0.2636502 0,-1.0142192 0,-1.3211982 0,-0.9415435 0,-1.883087 0,-2.8246305 0,-0.3796547 0,-0.7593093 0,-1.138964 0,-0.066949 0.027012,-0.2277928 0.045559,-0.2277928 0.2652153,0 0.5116066,0.1471824 0.7744955,0.1822343 0.4806815,0.064091 1.3675144,0.045559 1.8223423,0.045559 0.3644685,0 0.7293305,0.016934 1.0934054,0 0.5703337,-0.026527 1.1789744,-0.1109246 1.7312252,-0.2733513 0.1382146,-0.040651 0.2684258,-0.1101255 0.410027,-0.1366757 0.1044825,-0.01959 0.2135391,0.014049 0.3189098,0 0.958555,-0.1278073 -0.2658741,-0.073623 0.774495,-0.1366757 0.21211,-0.012855 1.212423,-0.030781 1.59455,-0.091117 0.408568,-0.064511 0.789321,-0.2515539 1.184522,-0.36446845 0.12041,-0.0344029 0.245666,-0.0515164 0.364469,-0.0911171 0.109719,-0.0365732 0.207063,-0.10724237 0.31891,-0.13667567 0.2548,-0.0670527 0.636864,-0.097489 0.911171,-0.13667568 0.200572,-0.0286532 0.391429,-0.10989811 0.592261,-0.13667567 0.120424,-0.0160565 0.243166,0.006739 0.364468,0 0.546788,-0.0303771 1.090774,-0.0659043 1.640109,-0.0455586 1.232847,0.045661 2.455251,0.19691801 3.690243,0.22779279 0.769462,0.0192366 1.553746,0.0213817 2.323486,0 0.760447,-0.0211235 1.516458,-0.0701221 2.277928,-0.0455586 1.38317,0.0446184 2.765859,0.18335331 4.145829,0.27335135 1.397775,0.0911592 0.788351,0.0151573 2.186811,0.0455586 0.334362,0.007269 0.667941,0.0375979 1.002288,0.0455586 0.804383,0.019152 1.610259,-0.0206242 2.414603,0 2.195939,0.0563061 0.130887,0.0455586 1.867901,0.0455586 0.713751,0 1.427502,0 2.141252,0 0.71583,0 1.274324,-0.0119381 1.959018,0.27335143 0.0045,0.00188 0.333535,0.1057418 0.364469,0.1366756 0.06443,0.06443 -0.01289,0.18315 0,0.2733514 0.04302,0.3011674 0.117433,0.7609112 0.227793,1.0478468 0.143023,0.3718616 0.10857,0.1987193 0.364468,0.5011441 0.596562,0.7050281 -0.08155,0.03973 0.63782,0.6833784 0.455409,0.407471 0.415592,0.4521083 0.911171,0.6833784 0.148216,0.069167 0.300419,0.1305119 0.455586,0.1822342 0.243627,0.081209 0.57373,0.060232 0.728937,0.3189099 0.33969,0.5661509 0.170544,1.3045139 0.09112,1.9134594 -0.151021,1.157829 -0.2031,2.3043492 -0.31891,3.462451 -0.03056,0.305597 -0.08075,0.609184 -0.136676,0.911171 -0.03959,0.213798 -0.114302,0.421541 -0.136676,0.63782 -0.02344,0.226583 0,0.455585 0,0.683378 0,1.461998 -0.022,0.01093 0.136676,2.232369 0.02597,0.363543 -0.01517,0.729253 0,1.093406 0.01402,0.336537 0.09273,0.619795 0.136676,0.956729 0.06419,0.492123 0.07034,1.007892 0.04556,1.503433 -0.04838,0.967505 -0.383031,1.902794 -0.455585,2.870189 -0.03069,0.409159 -0.06555,0.82026 -0.04556,1.230081 0.01272,0.260801 0.268608,1.086455 0.31891,1.321198 0.04185,0.19531 0.06634,0.394061 0.09112,0.592261 0.06145,0.491626 -0.02244,1.020794 0.09112,1.503433 0.033,0.140239 0.09112,0.273351 0.136676,0.410027 0.110147,0.33044 0.228443,0.75009 0.09112,1.093405 -0.02393,0.05982 -0.09387,0.08852 -0.136676,0.136676 -0.0788,0.08865 -0.155476,0.17934 -0.227792,0.273351 -0.282552,0.367317 -0.496873,0.760615 -0.911171,1.002289 -0.316957,0.184891 -0.306713,0.100443 -0.63782,0.227792 -0.405742,0.156055 -0.752533,0.444605 -1.138964,0.63782 -0.07315,0.03657 -0.157667,0.04904 -0.227793,0.09112 -0.01302,0.0078 0.0084,0.03292 0,0.04556 -0.05193,0.0779 -0.154682,0.133494 -0.227793,0.182234 -0.160398,0.106932 -0.283623,0.108536 -0.455585,0.182234 -0.398945,0.170977 -0.441338,0.288114 -0.95673,0.364469 -0.793265,0.11752 -1.542376,-0.02509 -2.323487,-0.136676 -0.469903,-0.06713 -0.942411,-0.115105 -1.412315,-0.182234 -0.380619,-0.05437 -0.757219,-0.136425 -1.138964,-0.182234 -0.711228,-0.08535 -1.426927,-0.12866 -2.141252,-0.182235 -1.284683,-0.09635 -2.584371,-0.13137 -3.872477,-0.09112 -0.243335,0.0076 -0.485589,0.0384 -0.728937,0.04556 -0.928173,0.0273 -1.85051,-0.0091 -2.779072,0.04556 -0.653464,0.03844 -1.308429,0.06439 -1.959018,0.136676 -1.962233,0.218026 0.69554,-0.0162 -1.138964,0.136676 -0.705082,0.05876 -1.391894,0.192917 -2.095694,0.273351 -0.730538,0.08349 -1.502352,0.07892 -2.232369,0 -0.275517,-0.02979 -0.545567,-0.09855 -0.820054,-0.136676 -1.734447,-0.240895 -3.484122,-0.546702 -5.239234,-0.546702 -0.784555,0 -1.660189,-0.114796 -2.414604,0.136675 -0.05763,0.01921 -0.124607,-0.01921 -0.182234,0 -8.11e-4,2.71e-4 0.09641,0.247924 0.04556,0.273352 -0.05516,0.02758 -0.7744947,0.218068 -0.7744947,0.227793 0,0.06791 0.1214895,0.06074 0.1822342,0.09112 0.028889,0.01444 0.1614695,0.09112 0.1822342,0.09112 0.077435,0 0.1518619,-0.03037 0.2277928,-0.04556 z"
     transform="matrix(1.0000832,0,0,0.99260929,-0.00197606,0.2286421)" />
  <path
     style="fill:none;stroke:#ff9500;stroke-width:1;stroke-dasharray:none;stroke-opacity:1"
     d="M 5.8770539,3.3257747 C 6.9119169,3.0975057 7.9635058,2.9451016 9.0205944,2.8701891 10.233392,2.784242 11.451272,2.8002381 12.665279,2.7335135 c 0.926342,-0.050914 1.851428,-0.1500103 2.779072,-0.1366757 1.468276,0.021106 2.91603,0.3230845 4.373622,0.5011441 0.710447,0.086788 1.425563,0.1442553 2.141252,0.1366757 0.258207,-0.00273 0.516649,-0.013927 0.774495,0 0.519365,0.028053 1.029452,0.1576117 1.548991,0.1822342 0.288255,0.013661 0.57708,-0.00511 0.865613,0 0.136714,0.00242 0.273673,0.010202 0.410027,0 0.312902,-0.023411 0.609908,-0.1400639 0.911171,-0.2277928 0.75103,-0.2187028 1.54138,-0.2596842 2.323486,-0.2733513 0.319381,-0.00558 0.639649,-0.00689 0.95673,-0.045559 0.290002,-0.035365 0.575554,-0.1017787 0.865613,-0.1366756 0.271915,-0.032714 0.546295,-0.037561 0.820054,-0.045559 0.623136,-0.018206 1.24567,-0.052927 1.867901,-0.091117 0.379536,-0.023295 0.761731,-0.047808 1.138964,0 0.183299,0.02323 0.364028,0.063392 0.546702,0.091117 0.180933,0.027461 0.363721,0.042693 0.546703,0.045559 0.402954,0.1090833 0.814787,0.1853487 1.230081,0.2277928 0.57781,0.059054 1.164921,0.053191 1.731225,0.1822342 0.212196,0.048353 0.421208,0.1155991 0.63782,0.1366757 0.1205,0.011725 0.242435,0.00903 0.361933,0.028477 0.119497,0.019443 0.240011,0.064168 0.321445,0.153757 0.05974,0.065717 0.0938,0.1500163 0.136676,0.2277928 0.114962,0.208563 0.295576,0.3729761 0.484294,0.5182349 0.188719,0.1452589 0.389432,0.276025 0.563553,0.4384948 0.293806,0.2741456 0.499812,0.6266093 0.728937,0.9567297 0.31362,0.4518597 0.677697,0.8699116 1.093405,1.2300811 0.158037,0.1369236 0.323904,0.2658924 0.466522,0.4188105 0.142618,0.152918 0.262748,0.3337662 0.307974,0.5379192 0.0396,0.1787697 0.01996,0.3646904 0,0.5467027 -0.100827,0.9193248 -0.206102,1.8429633 -0.455586,2.7335143 -0.06362,0.227087 -0.136607,0.452004 -0.182234,0.683378 -0.04447,0.225529 -0.06257,0.455285 -0.09112,0.683378 -0.04775,0.381535 -0.124812,0.758764 -0.182234,1.138964 -0.134412,0.889961 -0.160224,1.802277 0,2.687955 0.115713,0.639634 0.327779,1.26448 0.364468,1.91346 0.02144,0.379151 -0.0176,0.759615 0,1.138963 0.02261,0.487176 0.13845,0.972476 0.09112,1.457874 -0.03443,0.353109 -0.154475,0.694151 -0.182234,1.047847 -0.0322,0.410322 0.06004,0.832275 -0.04556,1.230081 -0.02838,0.106914 -0.07073,0.210188 -0.09112,0.31891 -0.01704,0.09089 -0.01859,0.184897 -0.04556,0.273351 -0.03378,0.110795 -0.105791,0.207273 -0.136676,0.31891 -0.04071,0.147144 -0.0061,0.303036 0,0.455586 0.0067,0.167863 -0.02165,0.334859 -0.04556,0.501144 -0.0303,0.210705 -0.05381,0.423301 -0.110549,0.628473 -0.05674,0.205172 -0.149328,0.405154 -0.299478,0.55605 -0.06067,0.06097 -0.130344,0.113636 -0.182234,0.182234 -0.05347,0.07068 -0.08572,0.155278 -0.136675,0.227793 -0.100296,0.142744 -0.262404,0.225943 -0.410027,0.318909 -0.414339,0.260932 -0.753174,0.63388 -1.184523,0.865613 -0.288406,0.15494 -0.607918,0.241092 -0.911171,0.364469 -0.487166,0.1982 -0.940916,0.495469 -1.457874,0.592261 -0.23965,0.04487 -0.485124,0.04484 -0.728937,0.04556 -1.386422,0.0041 -2.784776,0.03625 -4.145829,-0.227792 -0.289472,-0.05616 -0.576241,-0.125558 -0.865612,-0.182235 -0.466124,-0.0913 -0.938468,-0.149447 -1.412316,-0.182234 -1.40963,-0.09754 -2.82404,0.0292 -4.236945,0.04556 -0.455559,0.0053 -0.911168,-9.34e-4 -1.366757,0 -1.518817,0.0031 -3.037564,0.08561 -4.555856,0.04556 -0.881193,-0.02324 -1.765265,-0.08765 -2.642396,0 -0.151872,0.01518 -0.30333,0.0349 -0.455586,0.04556 -0.638872,0.04473 -1.276445,-0.07056 -1.913459,-0.136676 -0.861911,-0.08946 -1.730299,-0.08903 -2.596838,-0.09112 -0.351589,-8.48e-4 -0.707565,-0.0027 -1.047847,-0.09112 -0.06062,-0.01576 -0.120632,-0.03424 -0.182234,-0.04556 -0.127159,-0.02336 -0.2577,-0.01661 -0.386831,-0.01026 -0.129131,0.0064 -0.258378,0.01026 -0.387665,0.01026 H 9.066146 c -0.1140551,0 -0.2280792,-0.0032 -0.3420131,-0.0085 -0.113934,-0.0053 -0.2289626,-0.01085 -0.3413653,0.0085 -0.1340428,0.02307 -0.2590748,0.08184 -0.3798837,0.144332 -0.1208089,0.06249 -0.2402127,0.129699 -0.3695493,0.171791 -0.1293366,0.04209 -0.271722,0.05767 -0.4009269,0.01518 -0.064603,-0.02125 -0.1248599,-0.05701 -0.1717479,-0.106265 -0.046888,-0.04926 -0.079975,-0.112245 -0.090207,-0.179478 -0.00915,-0.06015 -1.811e-4,-0.121396 0,-0.182234 4.187e-4,-0.140689 -0.046009,-0.276763 -0.09111,-0.410027 C 6.6449549,26.642566 6.4307028,25.939528 6.1048467,25.285 5.7476732,24.567566 5.2633947,23.922395 4.7836486,23.280423 4.5788621,23.006388 4.3725095,22.728904 4.2369459,22.41481 4.0041092,21.875339 3.9964015,21.270241 3.9635945,20.683585 3.8973173,19.498413 3.713937,18.315126 3.7813603,17.130018 c 0.026868,-0.472255 0.093461,-0.941276 0.1366757,-1.412316 0.062541,-0.681693 0.075963,-1.369807 0,-2.050135 -0.018621,-0.166773 -0.042623,-0.33336 -0.045559,-0.501144 -0.00868,-0.495859 0.1655866,-0.97379 0.2733514,-1.457874 C 4.2181574,11.383644 4.2631636,11.04585 4.4191797,10.75182 4.486352,10.625226 4.5726383,10.509877 4.6469729,10.387351 4.9620215,9.8680563 5.0513008,9.2411782 5.3303513,8.7016845 5.4397594,8.4901637 5.5786433,8.2912945 5.6492612,8.0638647 5.7535297,7.7280611 5.6989717,7.3651904 5.7403783,7.0160179 c 0.021761,-0.1835069 0.070101,-0.363109 0.091117,-0.5467027 0.050161,-0.4381912 -0.056655,-0.8837993 0,-1.3211982 0.021815,-0.1684164 0.067608,-0.3329558 0.091117,-0.5011441 0.03581,-0.256194 0.019407,-0.51654 0,-0.7744955 C 5.9088931,3.6901249 5.8937063,3.5078828 5.8770539,3.3257747 Z"
     id="path2"
     inkscape:path-effect="#path-effect3"
     inkscape:original-d="M 5.8770539,3.3257747 C 6.9249008,3.1739129 7.9658074,2.9622175 9.0205944,2.8701891 10.231742,2.7645185 11.450831,2.7897379 12.665279,2.7335135 c 0.910832,-0.042168 1.862308,-0.2058654 2.779072,-0.1366757 1.464101,0.1104982 2.910489,0.3863886 4.373622,0.5011441 0.01975,0.00155 1.820025,0.1247784 2.141252,0.1366757 0.257988,0.00956 0.517091,-0.0198 0.774495,0 0.518952,0.039919 1.026767,0.1573664 1.548991,0.1822342 0.288211,0.013724 0.577075,0 0.865613,0 0.136676,0 0.274407,0.016953 0.410027,0 0.303324,-0.037915 0.604169,-0.1805616 0.911171,-0.2277928 0.773444,-0.1189913 1.540778,-0.2146482 2.323486,-0.2733513 0.318378,-0.023878 0.639043,-0.01379 0.95673,-0.045559 0.290663,-0.029066 0.575193,-0.1052789 0.865613,-0.1366756 0.272187,-0.029426 0.546977,-0.026053 0.820054,-0.045559 1.575792,-0.1125566 0.568769,-0.091117 1.867901,-0.091117 0.379654,0 0.760736,-0.032889 1.138964,0 0.184053,0.016005 0.363381,0.068202 0.546702,0.091117 0.181454,0.022682 0.364469,0.030372 0.546703,0.045559 0.410027,0.075931 0.817632,0.1663642 1.230081,0.2277928 1.417575,0.2111281 0.398095,-0.026067 1.731225,0.1822342 0.214827,0.033567 0.424957,0.092329 0.63782,0.1366757 0.05163,0.010757 0.5641,0.062956 0.683378,0.1822342 0.05221,0.05221 0.08447,0.1755829 0.136676,0.2277928 0.334441,0.334441 0.713406,0.6222886 1.047847,0.9567297 0.280747,0.2807472 0.475425,0.652516 0.728937,0.9567297 0.345727,0.4148721 0.711592,0.8482677 1.093405,1.2300811 0.270621,0.2706205 0.674941,0.5585108 0.774496,0.9567297 0.0442,0.1767931 0.0083,0.3646564 0,0.5467027 -0.04221,0.9286687 -0.236789,1.8309783 -0.455586,2.7335143 -0.05554,0.229116 -0.135999,0.452203 -0.182234,0.683378 -0.04507,0.225346 -0.05744,0.456051 -0.09112,0.683378 -0.04276,0.288642 -0.150808,0.856127 -0.182234,1.138964 -0.09381,0.844242 -0.09423,1.839926 0,2.687955 0.07192,0.647253 0.288772,1.270043 0.364468,1.91346 0.04351,0.369817 -0.01769,0.767474 0,1.138963 0.04634,0.973079 0.09112,0.04052 0.09112,1.457874 0,0.352809 -0.142373,0.702388 -0.182234,1.047847 -0.04703,0.407604 0.0024,0.822583 -0.04556,1.230081 -0.01292,0.1098 -0.06626,0.211184 -0.09112,0.31891 -0.02077,0.09001 -0.01839,0.185062 -0.04556,0.273351 -0.03401,0.110541 -0.116577,0.205016 -0.136676,0.31891 -0.02639,0.149551 0.0072,0.303896 0,0.455586 -0.008,0.167547 -0.02184,0.335093 -0.04556,0.501144 -0.05757,0.402982 -0.135825,0.86462 -0.410027,1.184523 -0.05591,0.06522 -0.129493,0.114424 -0.182234,0.182234 -0.05436,0.0699 -0.07836,0.161152 -0.136675,0.227793 -0.11402,0.130308 -0.273877,0.211934 -0.410027,0.318909 -0.384887,0.302411 -0.761042,0.616507 -1.184523,0.865613 -0.281956,0.165857 -0.613797,0.228172 -0.911171,0.364469 -0.501805,0.229993 -0.891824,0.497919 -1.457874,0.592261 -0.240141,0.04002 -0.485904,0.03126 -0.728937,0.04556 -1.373037,0.08077 -2.786192,-0.0073 -4.145829,-0.227792 -0.29106,-0.0472 -0.574989,-0.132414 -0.865612,-0.182235 -0.46785,-0.0802 -0.939281,-0.142814 -1.412316,-0.182234 -1.416237,-0.11802 -2.822435,0.0014 -4.236945,0.04556 -0.455364,0.01423 -0.911381,-0.0138 -1.366757,0 -1.518777,0.04602 -3.035693,0.04556 -4.555856,0.04556 -0.873186,0 -1.769197,-0.04158 -2.642396,0 -0.152447,0.0073 -0.303022,0.04968 -0.455586,0.04556 -0.639211,-0.01728 -1.275341,-0.09551 -1.913459,-0.136676 -0.865785,-0.05586 -1.730847,-0.05781 -2.596838,-0.09112 -0.04313,-0.0017 -0.979827,-0.08205 -1.047847,-0.09112 -0.06207,-0.0083 -0.119804,-0.04076 -0.182234,-0.04556 -0.257405,-0.0198 -0.51633,0 -0.774496,0 -0.637819,0 -1.2756392,0 -1.913459,0 -0.2277928,0 -0.4573446,-0.02825 -0.6833784,0 -0.2727299,0.03409 -1.1560453,0.301829 -1.4123153,0.04556 -0.042953,-0.04295 0.00999,-0.122316 0,-0.182234 -0.02301,-0.138105 -0.055479,-0.274628 -0.09111,-0.410027 C 6.7012839,26.658513 6.4018863,25.921513 6.1048467,25.285 5.7696599,24.566742 5.236202,23.918112 4.7836486,23.280423 4.5948721,23.01442 4.3606337,22.711661 4.2369459,22.41481 4.0144038,21.88071 4.0198622,21.246262 3.9635945,20.683585 3.8406327,19.453967 3.7386711,18.368005 3.7813603,17.130018 c 0.04807,-1.39404 0.040177,0.179906 0.1366757,-1.412316 0.040526,-0.668678 0.02792,-1.380045 0,-2.050135 -0.00698,-0.167591 -0.045559,-0.333407 -0.045559,-0.501144 0,-0.490818 0.1481577,-0.992869 0.2733514,-1.457874 0.021962,-0.08157 0.2301614,-0.859552 0.2733513,-0.956729 C 4.477366,10.620901 4.5829023,10.515492 4.6469729,10.387351 4.9169352,9.8474265 5.0743308,9.2502997 5.3303513,8.7016845 5.4308717,8.4862835 5.5740934,8.2893681 5.6492612,8.0638647 5.7639493,7.7198002 5.7111001,7.3673562 5.7403783,7.0160179 c 0.015343,-0.1841098 0.076948,-0.362499 0.091117,-0.5467027 0.033678,-0.4378088 -0.033678,-0.8833894 0,-1.3211982 0.013022,-0.1692866 0.077017,-0.3319439 0.091117,-0.5011441 0.021306,-0.2556698 -0.028325,-0.519573 0,-0.7744955 0.030476,-0.2742827 0.066667,-0.2661396 -0.045558,-0.5467027 z" />
  <path
     style="fill:none;stroke:#95aabf;stroke-width:1;stroke-dasharray:none;stroke-opacity:1"
     d="m 5.7403783,30.706468 c -0.3601609,0.06708 -0.7271094,0.09766 -1.0934054,0.09112 -0.5502504,-0.0098 -1.0952434,-0.102943 -1.6433284,-0.15269 -0.548085,-0.04975 -1.110861,-0.05463 -1.6368878,0.10713 -0.1436448,0.04417 -0.2844856,0.100729 -0.4329901,0.123785 -0.0742523,0.01153 -0.15025448,0.01449 -0.22451524,0.003 -0.0742608,-0.01147 -0.14683541,-0.03775 -0.20810723,-0.08124 -0.015805,-0.01122 -0.0308264,-0.02355 -0.0470382,-0.03417 -0.0162118,-0.01062 -0.0338541,-0.0196 -0.0528933,-0.02324 -0.0190392,-0.0036 -0.0396779,-0.0015 -0.0561275,0.0087 -0.008225,0.0051 -0.0152712,0.01222 -0.0199825,0.02069 -0.004711,0.0085 -0.007032,0.01832 -0.006193,0.02797 6.8134e-4,0.0078 0.003375,0.01536 0.00454,0.02314 5.8247e-4,0.0039 7.7836e-4,0.0079 1.4134e-4,0.01175 -6.3701e-4,0.0039 -0.002141,0.0077 -0.004682,0.01067 -0.00263,0.0031 -0.006288,0.0053 -0.0101965,0.0064 -0.003908,0.0011 -0.00806,0.0013 -0.0121042,8.3e-4 -0.008088,-9.45e-4 -0.0156481,-0.0043 -0.023258,-0.0072 -0.034171,-0.01301 -0.071816,-0.01649 -0.1079172,-0.01069 -0.0361012,0.0058 -0.07059994,0.0208 -0.09990862,0.04266 -0.05861735,0.04372 -0.09481791,0.114456 -0.10147986,0.18728 -0.0066619,0.07282 0.01497961,0.146974 0.05514542,0.208084 0.0401658,0.06111 0.09809858,0.109515 0.16287398,0.143454 0.1295508,0.06788 0.281414,0.0779 0.42759187,0.07311 0.14617786,-0.0048 0.29291248,-0.02297 0.43818981,-0.0061 0.1471544,0.01711 0.2902988,0.07093 0.4104036,0.157657 0.1201047,0.08673 0.2166547,0.206465 0.2729748,0.343488 0.064387,0.15665 0.075255,0.329486 0.081003,0.498754 0.00575,0.169269 0.00755,0.341148 0.055673,0.503534 0.061383,0.207139 0.1938541,0.384857 0.3278791,0.554303 0.1340249,0.169445 0.2741931,0.338943 0.3554993,0.539102 0.06703,0.165015 0.092421,0.347337 0.1822343,0.501144 0.1118772,0.191592 0.3099936,0.315621 0.5092605,0.413175 0.1992669,0.09755 0.4101754,0.178072 0.5841447,0.315762 0.056987,0.0451 0.1093878,0.09591 0.1678506,0.139082 0.058463,0.04317 0.1245831,0.07908 0.1966179,0.08871 0.04522,0.006 0.09108,0.0016 0.1366757,0 0.344038,-0.01179 0.6689557,0.141825 1.0022883,0.227793 0.6941082,0.179013 1.4246642,0.06383 2.1412522,0.04556 0.7899221,-0.02014 1.5828406,0.07915 2.3690451,0 0.3805755,-0.03831 0.7569065,-0.118267 1.1389635,-0.136675 0.303406,-0.01462 0.607414,0 0.911172,0 h 2.095693 c 0.425468,0 0.852826,0.04745 1.27564,0 0.245755,-0.02758 0.484772,-0.09743 0.728937,-0.136676 0.465984,-0.07489 0.941821,-0.03721 1.412315,0 1.062293,0.08402 2.136239,0.164353 3.189099,0 0.550375,-0.08591 1.088982,-0.237949 1.640108,-0.31891 0.197673,-0.02904 0.39697,-0.04894 0.592261,-0.09112 0.122414,-0.02644 0.242776,-0.06154 0.364469,-0.09112 0.844706,-0.205335 1.727542,-0.140538 2.596838,-0.136676 1.093864,0.0049 2.18995,-0.08879 3.280216,0 0.289186,0.02355 0.577154,0.05989 0.865612,0.09112 0.953314,0.103207 1.911828,0.150565 2.87019,0.182235 0.895765,0.0296 1.792857,0.04553 2.687954,0 0.440246,-0.02239 0.880609,-0.05966 1.321199,-0.04556 0.426136,0.01363 0.84958,0.07525 1.275639,0.09112 0.470877,0.01754 0.94176,-0.02087 1.412316,-0.04556 0.849646,-0.04458 1.701626,-0.04444 2.551279,0 0.08671,0.0045 0.173939,0.0095 0.260146,-8.76e-4 0.08621,-0.01039 0.172289,-0.03715 0.240998,-0.09024 0.02189,-0.01691 0.04178,-0.03629 0.06359,-0.05331 0.02181,-0.01702 0.04608,-0.03185 0.07309,-0.03781 0.02987,-0.0066 0.06092,-0.0019 0.09125,0.0021 0.03033,0.004 0.06183,0.0072 0.09098,-0.0021 0.01832,-0.0058 0.03486,-0.01637 0.04959,-0.02872 0.01474,-0.01235 0.02782,-0.02652 0.04092,-0.04059 0.01311,-0.01407 0.02634,-0.02812 0.04132,-0.04017 0.01498,-0.01205 0.03186,-0.02211 0.0504,-0.0272 0.02207,-0.0061 0.04543,-0.0048 0.06821,-0.0027 0.02278,0.0022 0.04572,0.0052 0.06846,0.0027 0.04451,-0.005 0.08385,-0.03071 0.118898,-0.05859 0.03505,-0.02788 0.06838,-0.05901 0.108894,-0.07809 0.05677,-0.02673 0.125463,-0.02673 0.182235,0 0.08777,-0.0394 0.179495,-0.06998 0.273351,-0.09112 0.27088,-0.06101 0.558451,-0.04361 0.820054,-0.136676 0.04529,-0.01611 0.08967,-0.03551 0.136676,-0.04556 0.09099,-0.01946 0.185183,-0.0028 0.277936,0.0046 0.04638,0.0037 0.09322,0.005 0.139262,-0.0016 0.04604,-0.0067 0.09147,-0.0217 0.129504,-0.04849 0.03375,-0.02377 0.06088,-0.05628 0.08083,-0.09241 0.01995,-0.03614 0.03289,-0.07586 0.04098,-0.116336 0.01619,-0.08095 0.0132,-0.164298 0.01486,-0.246836 0.008,-0.398045 0.12683,-0.790238 0.31891,-1.138963 0.07546,-0.137001 0.162223,-0.268027 0.227793,-0.410027 0.08209,-0.177777 0.129401,-0.369301 0.196118,-0.553399 0.06672,-0.184098 0.156967,-0.3663 0.305026,-0.494448 0.08008,-0.06931 0.174424,-0.12045 0.255402,-0.188701 0.04049,-0.03412 0.07771,-0.07273 0.105823,-0.117611 0.02811,-0.04488 0.04684,-0.09636 0.0488,-0.149274 0.0021,-0.05557 -0.01465,-0.111226 -0.04445,-0.158168 -0.0298,-0.04694 -0.07234,-0.08527 -0.120678,-0.112754 -0.09667,-0.05496 -0.21327,-0.06581 -0.32373,-0.05295 -0.11046,0.01286 -0.216938,0.0478 -0.323476,0.07968 -0.106537,0.03188 -0.215429,0.0611 -0.326632,0.06196 -0.170166,0.0013 -0.333232,-0.06349 -0.501144,-0.09112 -0.195282,-0.03214 -0.394825,-0.01367 -0.592261,0 -1.152109,0.07977 -2.308231,-0.0069 -3.462451,-0.04556 -0.774231,-0.02594 -1.549412,-0.03027 -2.323486,0 -0.926479,0.03623 -1.855039,0.121969 -2.779072,0.04556 -0.777493,-0.06429 -1.543934,-0.24293 -2.323487,-0.273352 -0.288351,-0.01125 -0.57705,-0.0021 -0.865612,0 -1.946007,0.01447 -3.900506,-0.287282 -5.831496,-0.04556 -0.899665,0.11262 -1.783794,0.342401 -2.687955,0.410027 -0.257899,0.01929 -0.516669,0.02531 -0.774495,0.04556 -0.471642,0.03704 -0.939459,0.121651 -1.412315,0.136676 -0.273234,0.0087 -0.546746,-0.0059 -0.820054,0 -0.578889,0.01257 -1.15253,0.117162 -1.731226,0.136676 -0.303573,0.01024 -0.60744,-0.003 -0.911171,0 -0.7153,0.007 -1.426674,0.103799 -2.141252,0.136675 -0.940928,0.04329 -1.882946,-0.02434 -2.82463,-0.04556 -1.366493,-0.0308 -2.733909,0.03616 -4.1002707,0 -0.3341292,-0.0088 -0.668893,-0.02384 -1.0022882,0 -0.3656824,0.02614 -0.7401592,0.0981 -1.0934055,0 -0.044917,-0.01247 -0.089119,-0.02764 -0.1346006,-0.03787 -0.045481,-0.01023 -0.092782,-0.01544 -0.1387508,-0.0077 -0.076325,0.01286 -0.1426878,0.06003 -0.2175829,0.07957 -0.037448,0.0098 -0.077816,0.0123 -0.114446,-1.86e-4 -0.018315,-0.0062 -0.035456,-0.01623 -0.049248,-0.0298 -0.013792,-0.01357 -0.02415,-0.03078 -0.02875,-0.04958 -0.00364,-0.01489 -0.00364,-0.03067 0,-0.04556 h -0.091117 c -0.077958,0 -0.1563359,-0.0041 -0.232186,-0.02216 -0.07585,-0.01801 -0.1484261,-0.0476 -0.2233996,-0.06896 -0.192003,-0.05471 -0.3983251,-0.04741 -0.5922612,0 -0.037987,0.0093 -0.075869,0.02012 -0.1148554,0.02318 -0.038986,0.0031 -0.079889,-0.0023 -0.1129374,-0.02318 -0.028952,-0.01832 -0.05032,-0.04825 -0.058235,-0.08158 -0.00792,-0.03333 -0.00229,-0.06968 0.015339,-0.09905 0.017626,-0.02938 0.047047,-0.05145 0.080183,-0.06015 0.033136,-0.0087 0.069604,-0.0039 0.09939,0.01299 z"
     id="path3"
     inkscape:path-effect="#path-effect4"
     inkscape:original-d="m 5.7403783,30.706468 c -0.3644685,0.03037 -0.7279907,0.07589 -1.0934054,0.09112 -1.0948887,0.04562 -2.1863609,-0.04556 -3.2802162,-0.04556 -0.2936557,0 -0.57317863,0.04556 -0.86561257,0.04556 -0.0607447,0 -0.13928121,-0.04295 -0.18223423,0 -0.0107383,0.01074 0.0107383,0.03482 0,0.04556 -0.0107383,0.01074 -0.0387671,-0.01358 -0.0455586,0 -0.16747644,0.334952 0.64507138,0.560165 0.7744954,0.637819 0.1735794,0.104148 0.5477084,0.331557 0.6833784,0.501145 0.2660137,0.332517 0.040844,0.738752 0.1366757,1.002288 0.1417853,0.389909 0.4710801,0.74842 0.6833784,1.093405 0.092038,0.149561 0.078541,0.353011 0.1822343,0.501144 0.2546744,0.363821 0.7189422,0.527303 1.0934052,0.728937 0.1261419,0.06792 0.2285543,0.182488 0.3644685,0.227793 0.043221,0.01441 0.092284,-0.01024 0.1366757,0 0.7183689,0.165777 0.1991849,0.138559 1.0022883,0.227793 0.7108779,0.07899 1.4275349,0.04556 2.1412522,0.04556 0.7844251,0 1.5864493,0.04891 2.3690451,0 0.3816295,-0.02385 0.7563965,-0.112765 1.1389635,-0.136675 0.30125,-0.01883 0.609239,0 0.911172,0 0.698564,0 1.397129,0 2.095693,0 0.425213,0 0.851679,0.03261 1.27564,0 0.239933,-0.01846 0.489004,-0.11822 0.728937,-0.136676 0.46113,-0.03547 0.951027,0 1.412315,0 1.059706,0 2.130324,0.04412 3.189099,0 0.578153,-0.02409 1.078901,-0.206668 1.640108,-0.31891 0.195864,-0.03917 0.396046,-0.05374 0.592261,-0.09112 0.123017,-0.02343 0.240499,-0.07341 0.364469,-0.09112 0.847508,-0.121073 1.742013,-0.136676 2.596838,-0.136676 1.090289,0 2.190837,-0.04357 3.280216,0 2.033112,0.08132 -0.232276,-3.73e-4 0.865612,0.09112 0.951246,0.07927 1.916381,0.150441 2.87019,0.182235 0.888055,0.0296 1.79983,0.03063 2.687954,0 0.923964,-0.03186 0.361694,-0.07754 1.321199,-0.04556 1.356646,0.04522 0.04317,0.03976 1.275639,0.09112 0.476586,0.01986 0.939009,-0.02924 1.412316,-0.04556 0.847774,-0.02923 1.704439,0.04981 2.551279,0 0.0571,-0.0034 0.403533,-0.04929 0.501144,-0.09112 0.05033,-0.02157 0.08584,-0.07078 0.136676,-0.09112 0.0564,-0.02256 0.124606,0.01921 0.182234,0 0.07694,-0.02565 0.08428,-0.117084 0.182234,-0.136675 0.04467,-0.0089 0.09248,0.01105 0.136676,0 0.06959,-0.0174 0.143873,-0.12269 0.227792,-0.136676 0.05992,-0.01 0.12149,0 0.182235,0 0.09112,-0.03037 0.180173,-0.06782 0.273351,-0.09112 0.267749,-0.06694 0.5527,-0.09212 0.820054,-0.136676 0.04737,-0.0079 0.08902,-0.0396 0.136676,-0.04556 0.171017,-0.02138 0.38103,0.0097 0.546702,-0.04556 0.137617,-0.04587 0.120259,-0.384445 0.136676,-0.455586 0.08614,-0.373257 0.157104,-0.788384 0.31891,-1.138963 0.06552,-0.141961 0.15787,-0.270183 0.227793,-0.410027 0.17819,-0.35638 0.280059,-0.71622 0.501144,-1.047847 0.08713,-0.130695 0.410027,-0.391202 0.410027,-0.455586 0,-0.04023 -1.045191,-0.169447 -1.138964,-0.182234 -0.16823,-0.02294 -0.331944,-0.07702 -0.501144,-0.09112 -0.196739,-0.01639 -0.394976,0.0073 -0.592261,0 -1.154691,-0.04277 -2.305814,-0.04556 -3.462451,-0.04556 -0.770264,0 -1.552804,-0.02854 -2.323486,0 -0.921155,0.03412 -1.85612,0.09171 -2.779072,0.04556 -0.776438,-0.03882 -1.547749,-0.212109 -2.323487,-0.273352 -0.06412,-0.0051 -0.779051,0.0046 -0.865612,0 -1.935247,-0.101855 -3.89199,-0.157453 -5.831496,-0.04556 -0.910583,0.05253 -1.782098,0.325103 -2.687955,0.410027 -0.257482,0.02414 -0.516946,0.02214 -0.774495,0.04556 -0.895899,0.08145 -0.540152,0.110247 -1.412315,0.136676 -0.273226,0.0083 -0.546808,-0.0076 -0.820054,0 -2.107338,0.05854 0.547799,0.02273 -1.731226,0.136676 -0.303344,0.01517 -0.607552,-0.008 -0.911171,0 -0.715132,0.01882 -1.426849,0.11363 -2.141252,0.136675 -0.940561,0.03034 -1.88571,0.01135 -2.82463,-0.04556 -1.311766,-0.0795 -2.784768,-0.109625 -4.1002707,0 -0.3259592,0.02716 -0.6749234,0 -1.0022882,0 -0.3593771,0 -0.7371425,0.03563 -1.0934055,0 -0.091916,-0.0092 -0.1814358,-0.03637 -0.2733514,-0.04556 -0.090698,-0.0091 -0.3229439,0.04354 -0.410027,0 -0.013583,-0.0068 0,-0.03037 0,-0.04556 -0.030372,0 -0.060745,0 -0.091117,0 -0.2057124,0 -0.2782384,-0.04678 -0.4555856,-0.09112 -0.1750115,-0.04375 -0.4126476,0 -0.5922612,0 -0.075931,0 -0.1741015,0.05369 -0.2277928,0 -0.062614,-0.06262 0.083546,-0.156953 0.1366757,-0.227793 z"
     transform="translate(0.54670269,-0.09111712)" />
</svg>
