<?xml version="1.0" encoding="UTF-8" standalone="no"?>
<svg
   width="42px"
   height="43px"
   viewBox="0 0 42 43"
   version="1.1"
   id="svg1"
   sodipodi:docname="download.svg"
   inkscape:version="1.3.2 (091e20e, 2023-11-25, custom)"
   xmlns:inkscape="http://www.inkscape.org/namespaces/inkscape"
   xmlns:sodipodi="http://sodipodi.sourceforge.net/DTD/sodipodi-0.dtd"
   xmlns="http://www.w3.org/2000/svg"
   xmlns:svg="http://www.w3.org/2000/svg">
  <sodipodi:namedview
     id="namedview1"
     pagecolor="#ffffff"
     bordercolor="#000000"
     borderopacity="0.25"
     inkscape:showpageshadow="2"
     inkscape:pageopacity="0.0"
     inkscape:pagecheckerboard="0"
     inkscape:deskcolor="#d1d1d1"
     inkscape:zoom="27.27907"
     inkscape:cx="21.005115"
     inkscape:cy="21.5"
     inkscape:window-width="2560"
     inkscape:window-height="1369"
     inkscape:window-x="-8"
     inkscape:window-y="-8"
     inkscape:window-maximized="1"
     inkscape:current-layer="svg1" />
  <!-- Generator: Sketch 49 (51002) - http://www.bohemiancoding.com/sketch -->
  <title
     id="title1">user</title>
  <desc
     id="desc1">Created with Sketch.</desc>
  <defs
     id="defs1">
    <inkscape:path-effect
       effect="spiro"
       id="path-effect4"
       is_visible="true"
       lpeversion="1" />
    <inkscape:path-effect
       effect="spiro"
       id="path-effect3"
       is_visible="true"
       lpeversion="1" />
    <inkscape:path-effect
       effect="spiro"
       id="path-effect2"
       is_visible="true"
       lpeversion="1" />
    <inkscape:path-effect
       effect="spiro"
       id="path-effect1"
       is_visible="true"
       lpeversion="1" />
  </defs>
  <path
     style="fill:none;stroke:#95aabf;stroke-opacity:1"
     d="m 20.931799,21.335038 c -0.05476,0.03744 -0.117818,0.06267 -0.183291,0.07332 -0.0846,0.01377 -0.170962,0.0034 -0.256607,0 -0.18373,-0.0072 -0.366932,0.01818 -0.549872,0.03666 -0.584059,0.059 -1.172666,0.04781 -1.759591,0.03666 -0.79441,-0.01509 -1.595378,-0.03074 -2.370314,-0.206211 -0.774935,-0.17547 -1.531881,-0.524621 -2.065321,-1.113482 -0.344257,-0.380023 -0.581475,-0.842055 -0.843137,-1.283035 -0.221439,-0.373192 -0.462531,-0.73428 -0.696505,-1.099744 -0.162716,-0.25416 -0.324144,-0.515245 -0.403239,-0.806479 -0.02334,-0.08593 -0.03943,-0.174269 -0.07332,-0.256607 -0.03754,-0.09122 -0.09569,-0.172142 -0.146632,-0.256607 C 11.456911,16.248846 11.373894,16.014517 11.254046,15.799666 10.959664,15.271928 10.459142,14.889554 9.9343564,14.58994 9.5546032,14.373128 9.1559275,14.191786 8.7612958,14.00341 8.3607489,13.81221 7.9528111,13.605155 7.6615516,13.270247 7.4559739,13.033861 7.3199976,12.74646 7.1849957,12.463768 7.1047329,12.295699 7.0236843,12.127334 6.9650469,11.950554 6.7711996,11.366145 6.8334,10.732985 6.8550725,10.117647 6.864976,9.8364614 6.8659597,9.554687 6.8917305,9.2745098 6.948018,8.6625584 7.1355621,8.0405451 7.5515772,7.5882353 7.7159619,7.409509 7.9110192,7.2623507 8.1014493,7.1116795 8.5903696,6.7248384 9.0558409,6.3083641 9.4944587,5.8653026 9.7738185,5.6848516 10.043193,5.4889432 10.300938,5.2787724 10.828594,4.8485113 11.31388,4.3541491 11.913896,4.0323956 12.429143,3.756099 13.005395,3.6200047 13.563512,3.4458653 14.157556,3.2605162 14.736328,3.029892 15.323103,2.8226769 c 0.404651,-0.1428994 0.813588,-0.2748426 1.209719,-0.4398977 0.329014,-0.1370898 0.6495,-0.2971229 0.98977,-0.4032396 0.359479,-0.1121075 0.735216,-0.1622011 1.099744,-0.2566069 0.330209,-0.085518 0.652205,-0.2076012 0.98977,-0.256607 0.445502,-0.064676 0.901603,0.00102 1.334921,0.1230422 0.433318,0.1220248 0.848612,0.2993845 1.267807,0.463488 0.268964,0.1052921 0.54087,0.2056794 0.795838,0.3413967 0.254969,0.1357174 0.494571,0.3093098 0.670487,0.5383987 0.0477,0.062122 0.0908,0.128358 0.146633,0.1832907 0.04942,0.048624 0.108852,0.088502 0.146633,0.1466326 0.03098,0.047663 0.04508,0.104348 0.05304,0.1606337 0.008,0.056286 0.01029,0.1133298 0.02028,0.1692896 0.02909,0.1628897 0.121079,0.3072164 0.219949,0.4398977 0.232818,0.3124375 0.51363,0.5861147 0.806479,0.8431372 0.398837,0.3500435 0.821798,0.6714408 1.246377,0.9897698 0.274048,0.2054678 0.549506,0.4101777 0.843137,0.5865303 0.221249,0.1328805 0.453328,0.2500242 0.656769,0.4088328 0.203441,0.1588086 0.380194,0.3672616 0.442975,0.6175952 0.01516,0.060444 0.02347,0.1223874 0.03666,0.1832907 0.03276,0.1511912 0.09513,0.2940259 0.146633,0.4398977 0.13825,0.3915252 0.198372,0.8054906 0.293265,1.2097186 0.06369,0.2713006 0.143155,0.5385931 0.219949,0.8064791 0.08663,0.302185 0.17007,0.60608 0.219949,0.916454 0.134865,0.839207 0.01616,1.716428 -0.329924,2.492753 -0.06677,0.149773 -0.141719,0.295779 -0.219948,0.439898 -0.214041,0.394321 -0.452849,0.774996 -0.659847,1.17306 -0.306543,0.589493 -0.549076,1.225681 -0.98977,1.722933 -0.160501,0.181099 -0.344272,0.339962 -0.513214,0.513214 -0.156962,0.160966 -0.301853,0.335043 -0.476556,0.476556 -0.171272,0.138733 -0.367347,0.243028 -0.549872,0.366581 -0.358947,0.242974 -0.662449,0.558245 -0.953111,0.879796 -0.06961,0.077 -0.139055,0.154902 -0.219949,0.219949 -0.07709,0.06199 -0.164058,0.111685 -0.256607,0.146632 -0.08958,0.105494 -0.187771,0.20368 -0.293265,0.293265 -0.265236,0.225236 -0.577837,0.397543 -0.80648,0.659847 -0.07142,0.08193 -0.13353,0.171489 -0.202135,0.255789 -0.06861,0.0843 -0.144897,0.164294 -0.237762,0.220767 -0.03775,0.02296 -0.07854,0.04228 -0.109975,0.07332 -0.01863,0.0184 -0.03334,0.04032 -0.04994,0.06057 -0.0166,0.02025 -0.03585,0.03937 -0.06004,0.04941 -0.01807,0.0075 -0.03786,0.0095 -0.05706,0.01324 -0.0192,0.0037 -0.03888,0.0098 -0.05291,0.02342 -0.0099,0.0096 -0.01619,0.02224 -0.02126,0.03503 -0.0051,0.01279 -0.0091,0.02604 -0.0154,0.03829 -0.01414,0.02764 -0.03876,0.04856 -0.0651,0.065 -0.02633,0.01645 -0.05485,0.02912 -0.08154,0.04497 -0.04125,0.02451 -0.07778,0.0564 -0.119249,0.08053 -0.02074,0.01207 -0.04277,0.02219 -0.06607,0.02794 -0.0233,0.0057 -0.04794,0.007 -0.07129,0.0015 -0.02158,-0.0051 -0.0414,-0.01566 -0.06079,-0.0264 -0.01939,-0.01074 -0.03885,-0.02184 -0.06012,-0.02807 -0.02127,-0.0062 -0.0449,-0.0072 -0.06504,0.0021 -0.01007,0.0046 -0.01905,0.01181 -0.02526,0.02099 -0.0062,0.0092 -0.0096,0.02039 -0.0087,0.03144 4.58e-4,0.0062 0.0022,0.01231 0.0029,0.01851 3.74e-4,0.0031 4.99e-4,0.0063 9.2e-5,0.0094 -4.07e-4,0.0031 -0.0014,0.0062 -0.003,0.0088 -0.0017,0.0027 -0.0042,0.005 -0.007,0.0066 -0.0028,0.0016 -0.006,0.0026 -0.0092,0.003 -0.0064,8.94e-4 -0.013,-3.18e-4 -0.01924,-0.0022 -0.0062,-0.0018 -0.01228,-0.0043 -0.01855,-0.006 -0.0063,-0.0017 -0.0129,-0.0027 -0.01928,-0.0014 -0.0088,0.0017 -0.01625,0.0075 -0.022,0.01431 -0.0057,0.0068 -0.01001,0.01474 -0.01466,0.02235 -0.02782,0.04544 -0.07135,0.08105 -0.121397,0.09932 -0.05005,0.01826 -0.106288,0.01905 -0.156832,0.0022 -0.05054,-0.01685 -0.09506,-0.05122 -0.124142,-0.09586 -0.02908,-0.04464 -0.04254,-0.09925 -0.03753,-0.152292 z"
     id="path2"
     inkscape:path-effect="#path-effect2"
     inkscape:original-d="m 20.931799,21.335038 c -0.0611,0.02444 -0.118383,0.0625 -0.183291,0.07332 -0.08437,0.01406 -0.171159,-0.0039 -0.256607,0 -0.183508,0.0083 -0.366457,0.02647 -0.549872,0.03666 -0.566775,0.03149 -1.196914,0.06345 -1.759591,0.03666 -1.487613,-0.07084 -3.249969,-0.321238 -4.435635,-1.319693 -0.468378,-0.394424 -0.562058,-0.770479 -0.843137,-1.283035 -0.163442,-0.298041 -0.516174,-0.799192 -0.696505,-1.099744 -0.132109,-0.220182 -0.309478,-0.56538 -0.403239,-0.806479 -0.03224,-0.08291 -0.03827,-0.174842 -0.07332,-0.256607 C 11.691792,16.62557 11.628027,16.547628 11.58397,16.459513 11.40699,16.105554 11.474094,16.139739 11.254046,15.799666 10.925415,15.291769 10.446345,14.90374 9.9343564,14.58994 9.3547927,14.234724 9.3327881,14.299739 8.7612958,14.00341 8.3801691,13.805789 7.990527,13.533428 7.6615516,13.270247 7.5039458,13.144163 7.2682354,12.651057 7.1849957,12.463768 7.1620064,12.412042 7.0022577,12.099397 6.9650469,11.950554 6.8138626,11.345817 6.8550725,10.736574 6.8550725,10.117647 c 0,-0.3759509 -0.013276,-0.4769572 0.036658,-0.8431372 C 6.9733799,8.6757481 7.169535,8.065788 7.5515772,7.5882353 7.79462,7.2844317 7.8123947,7.3646022 8.1014493,7.1116795 8.5677501,6.7036663 9.0028529,6.2451798 9.4944587,5.8653026 10.113229,5.4527889 9.7535269,5.7109389 10.300938,5.2787724 10.831108,4.8602173 11.326864,4.3748311 11.913896,4.0323956 12.390128,3.7545937 13.097502,3.5978253 13.563512,3.4458653 14.154979,3.2529956 14.73848,3.035267 15.323103,2.8226769 c 0.40324,-0.1466326 0.807966,-0.2892403 1.209719,-0.4398977 0.33357,-0.1250888 0.651798,-0.2905824 0.98977,-0.4032396 0.357804,-0.1192682 0.739087,-0.1505315 1.099744,-0.2566069 0.337793,-0.099351 0.631587,-0.2310225 0.98977,-0.256607 0.826569,-0.059041 1.850388,0.2682327 2.602728,0.5865302 0.509925,0.2157375 1.073348,0.4868184 1.466325,0.8797954 0.05533,0.055326 0.09465,0.1248118 0.146633,0.1832907 0.04592,0.051663 0.106455,0.090385 0.146633,0.1466326 0.04251,0.05952 0.06425,0.304545 0.07332,0.3299233 0.05514,0.1543893 0.12466,0.306494 0.219949,0.4398977 0.254007,0.3556095 0.454726,0.5484255 0.806479,0.8431372 0.406657,0.3407129 0.819742,0.6744312 1.246377,0.9897698 0.275318,0.2034962 0.567517,0.3834422 0.843137,0.5865303 0.353887,0.2607588 0.911045,0.6112909 1.099744,1.026428 0.02578,0.056722 0.02026,0.1231793 0.03666,0.1832907 0.04067,0.149118 0.106807,0.2905523 0.146633,0.4398977 0.106765,0.4003677 0.177101,0.8114429 0.293265,1.2097186 0.314575,0.9437241 0.01269,-0.022551 0.219949,0.8064791 0.08973,0.358929 0.187317,0.557506 0.219949,0.916454 0.07814,0.859596 -0.09565,1.67278 -0.329924,2.492753 -0.05148,0.180188 -0.128133,0.267744 -0.219948,0.439898 -0.21021,0.394143 -0.464606,0.771731 -0.659847,1.17306 -0.428598,0.881008 -0.356445,0.956276 -0.98977,1.722933 -0.149836,0.181381 -0.346068,0.346069 -0.513214,0.513214 -0.156291,0.156292 -0.307313,0.33552 -0.476556,0.476556 -0.537821,0.448184 -0.05354,0.02297 -0.549872,0.366581 -0.348189,0.241054 -0.661081,0.587766 -0.953111,0.879796 -0.07332,0.07332 -0.137766,0.156731 -0.219949,0.219949 -0.07809,0.06007 -0.171072,0.09775 -0.256607,0.146632 -0.09775,0.09775 -0.191681,0.199495 -0.293265,0.293265 -0.254147,0.234597 -0.547745,0.42986 -0.80648,0.659847 -0.17926,0.159342 -0.252732,0.28939 -0.439897,0.476556 -0.03115,0.03115 -0.07613,0.04511 -0.109975,0.07332 -0.03983,0.03319 -0.06684,0.08122 -0.109974,0.109974 -0.03215,0.02144 -0.07906,0.01347 -0.109975,0.03666 -0.02186,0.01639 -0.01734,0.054 -0.03666,0.07332 -0.0432,0.0432 -0.0958,0.07608 -0.146632,0.109974 -0.05745,0.0383 -0.182299,0.0852 -0.256607,0.109975 -0.06386,0.02129 -0.160458,-0.02975 -0.219949,0 -0.01093,0.0055 0.01093,0.03119 0,0.03666 -0.02186,0.01093 -0.05013,-0.0077 -0.07332,0 -0.01639,0.0055 -0.02026,0.03119 -0.03666,0.03666 -0.179015,0.05967 -0.311562,-0.04396 -0.439898,-0.146633 z" />
  <path
     style="fill:none;stroke:#000000;stroke-opacity:1"
     d="m 28.776643,27.896866 c -0.05562,-0.03592 -0.11824,-0.06097 -0.183291,-0.07332 -0.07316,-0.01389 -0.149675,-0.01202 -0.219948,-0.03666 -0.0442,-0.0155 -0.08412,-0.04089 -0.125155,-0.06347 -0.04104,-0.02258 -0.08476,-0.04284 -0.131452,-0.0465 -0.02444,-0.0019 -0.04897,7.75e-4 -0.07341,0.0026 -0.02445,0.0018 -0.0493,0.0028 -0.07322,-0.0026 -0.04044,-0.0091 -0.07459,-0.03507 -0.108271,-0.0592 -0.01684,-0.01207 -0.03398,-0.02386 -0.05249,-0.03317 -0.01851,-0.0093 -0.03853,-0.0161 -0.05919,-0.0176 -0.02068,-0.0015 -0.04137,0.0023 -0.06157,0.007 -0.02021,0.0047 -0.0403,0.0102 -0.06094,0.01225 -0.02063,0.0021 -0.04216,4.02e-4 -0.06078,-0.0087 -0.0093,-0.0046 -0.01777,-0.01097 -0.02428,-0.01905 -0.0065,-0.0081 -0.011,-0.01784 -0.01238,-0.02811 -0.0016,-0.01213 0.001,-0.02447 0,-0.03666 -9.13e-4,-0.01073 -0.0047,-0.02115 -0.01063,-0.03016 -0.0059,-0.009 -0.01384,-0.01661 -0.02288,-0.02247 -0.01807,-0.01171 -0.04013,-0.01623 -0.06166,-0.01578 -0.04306,9.04e-4 -0.08322,0.02038 -0.124771,0.03174 -0.05591,0.01529 -0.115503,0.0158 -0.172226,0.0039 -0.05672,-0.01193 -0.110592,-0.03613 -0.15861,-0.0686 -0.09604,-0.06494 -0.167284,-0.161454 -0.219036,-0.265192 -0.0122,-0.02445 -0.02343,-0.04941 -0.03666,-0.07332 -0.06746,-0.121901 -0.182192,-0.209157 -0.293265,-0.293265 -0.02513,-0.01903 -0.05045,-0.03828 -0.07104,-0.06216 -0.02059,-0.02388 -0.03635,-0.05305 -0.03894,-0.08447 -0.001,-0.01218 -2.2e-5,-0.02443 0,-0.03666 1.11e-4,-0.06112 -0.02425,-0.12087 -0.0619,-0.169019 -0.03765,-0.04815 -0.08798,-0.08531 -0.14216,-0.113613 -0.10835,-0.05661 -0.230961,-0.07873 -0.345812,-0.120608 -0.25758,-0.09392 -0.46686,-0.282851 -0.678254,-0.457437 -0.211395,-0.174585 -0.443756,-0.344139 -0.714755,-0.3857 -0.12108,-0.01857 -0.244536,-0.01051 -0.366581,0 -0.428264,0.03687 -0.865628,0.102669 -1.283035,0 -0.379754,-0.09341 -0.717393,-0.321114 -1.099745,-0.40324 -0.335848,-0.07214 -0.684028,-0.02757 -1.026427,0 -0.792231,0.0638 -1.588742,0.03471 -2.38278,0 -0.391457,-0.01711 -0.783049,-0.0356 -1.17306,-0.07332 -0.830753,-0.08035 -1.669569,-0.247719 -2.492754,-0.109974 -0.260262,0.04355 -0.514377,0.117099 -0.769821,0.18329 -0.895834,0.232131 -1.843433,0.387423 -2.602728,0.916454 -0.114351,0.07967 -0.223115,0.167075 -0.329923,0.256607 -0.221563,0.185726 -0.438324,0.383111 -0.696505,0.513214 -0.4513167,0.227429 -0.9806496,0.226833 -1.4663255,0.366581 -0.4606358,0.132543 -0.8771202,0.390887 -1.2463768,0.696505 -0.7062541,0.584537 -1.2499926,1.339352 -1.9062233,1.979539 -0.1361049,0.132777 -0.2772519,0.260827 -0.4032396,0.40324 -0.1328444,0.150164 -0.2477542,0.315072 -0.3665814,0.476556 -0.2231799,0.303297 -0.4615579,0.596328 -0.6598466,0.916453 -0.4094657,0.661056 -0.635602,1.416352 -0.9531116,2.126173 -0.1741263,0.389274 -0.3760955,0.765495 -0.5865303,1.136402 -0.1862642,0.328304 -0.3794332,0.652978 -0.5498721,0.98977 -0.5121834,1.012088 -0.8136953,2.130194 -0.8797954,3.262574 0.094441,0.07686 0.209585,0.128039 0.3299233,0.146633 0.1089245,0.01683 0.2199512,0.0073 0.3299232,0 0.4026165,-0.0269 0.8069546,-0.02459 1.2097187,0 0.3302217,0.02016 0.6594261,0.05527 0.9897698,0.07332 0.6834596,0.03734 1.3692785,0.0015 2.052856,0.03666 0.2689546,0.01382 0.5399396,0.03852 0.8064791,0 0.2968526,-0.04291 0.5805223,-0.163339 0.8797954,-0.18329 0.086658,-0.0058 0.1763227,-0.0035 0.256607,-0.03666 0.038043,-0.0157 0.072471,-0.0388 0.1076479,-0.06016 0.035177,-0.02136 0.072024,-0.04136 0.1123009,-0.04981 0.059957,-0.01259 0.1220417,0.0014 0.1832907,0 0.069906,-0.0015 0.137753,-0.02301 0.2034767,-0.04688 0.065724,-0.02387 0.1309854,-0.05049 0.1997629,-0.0631 0.09644,-0.01768 0.1954752,-0.0071 0.2932651,0 0.4510819,0.0327 0.9042055,-0.01043 1.3563509,0 0.452526,0.01044 0.90529,0.0745 1.356352,0.03666 0.647906,-0.05435 1.261896,-0.316184 1.906223,-0.40324 0.159403,-0.02154 0.320986,-0.03244 0.476556,-0.07332 0.123439,-0.03244 0.241742,-0.08343 0.366581,-0.109974 0.108316,-0.02303 0.219587,-0.02724 0.329923,-0.03666 0.506656,-0.04326 0.997979,-0.19709 1.502984,-0.256607 0.461578,-0.0544 0.928295,-0.02937 1.39301,-0.03666 0.305586,-0.0048 0.611742,-0.02359 0.916453,0 0.589479,0.04564 1.157276,0.249152 1.686275,0.513214 0.09779,0.04881 0.194534,0.09975 0.293265,0.146633 0.580772,0.275779 1.226655,0.407284 1.869565,0.403239 0.171123,-0.0011 0.342478,-0.01156 0.513214,0 0.24666,0.0167 0.487877,0.07908 0.733163,0.109975 0.267129,0.03365 0.537328,0.02976 0.806479,0.03666 0.771234,0.01976 1.538192,0.128359 2.309463,0.146633 0.158822,0.0038 0.317732,0.0037 0.476556,0 0.195905,-0.0046 0.391815,-0.01463 0.58653,-0.03666 0.366589,-0.04149 0.731139,-0.125447 1.099744,-0.109974 0.220746,0.0093 0.445565,0.05383 0.659847,0 0.06401,-0.01608 0.125846,-0.04082 0.18329,-0.07332"
     id="path3"
     inkscape:path-effect="#path-effect3"
     inkscape:original-d="m 28.776643,27.896866 c -0.06426,0 -0.125871,-0.05418 -0.183291,-0.07332 -0.0665,-0.02217 -0.151358,-0.01951 -0.219948,-0.03666 -0.08823,-0.02205 -0.179867,-0.08439 -0.256607,-0.109974 -0.04637,-0.01546 -0.09921,0.01185 -0.146633,0 -0.07879,-0.0197 -0.154569,-0.07728 -0.219949,-0.109975 -0.06037,-0.03016 -0.158579,-0.006 -0.219949,-0.03666 -0.01093,-0.0055 0.01017,-0.02986 0,-0.03666 -0.112025,-0.07469 -0.119224,-0.0031 -0.219949,-0.03666 -0.0065,-0.0022 -0.549399,-0.32945 -0.549872,-0.329923 -0.01932,-0.01932 -0.02027,-0.05146 -0.03666,-0.07332 -0.08212,-0.109499 -0.207715,-0.186328 -0.293265,-0.293265 -0.03816,-0.04771 -0.08265,-0.09198 -0.109974,-0.146632 -0.0055,-0.01093 0.0086,-0.02806 0,-0.03666 -0.115578,-0.115578 -0.410883,-0.294034 -0.549873,-0.40324 -0.427417,-0.335828 -0.846091,-0.733754 -1.393009,-0.843137 -0.107827,-0.02157 -0.257813,0 -0.366581,0 -0.413319,0 -0.868636,0.04144 -1.283035,0 -0.387767,-0.03878 -0.729371,-0.36957 -1.099745,-0.40324 -0.340737,-0.03098 -0.684285,0 -1.026427,0 -0.792629,0 -1.590974,0.03045 -2.38278,0 -0.391493,-0.01506 -0.782886,-0.03785 -1.17306,-0.07332 -0.865543,-0.07868 -1.632734,-0.253311 -2.492754,-0.109974 -0.159156,0.02653 -0.647691,0.15276 -0.769821,0.18329 -0.910252,0.227563 -1.762258,0.474101 -2.602728,0.916454 -0.123289,0.06489 -0.219102,0.172167 -0.329923,0.256607 -0.229393,0.174775 -0.445153,0.371828 -0.696505,0.513214 -0.4571232,0.257132 -0.9756843,0.226398 -1.4663255,0.366581 -0.4542097,0.129774 -0.8814788,0.404586 -1.2463768,0.696505 -0.7184119,0.574729 -1.2893998,1.303971 -1.9062233,1.979539 -0.1281712,0.140378 -0.2780651,0.260184 -0.4032396,0.40324 -0.1319727,0.150826 -0.2413846,0.32006 -0.3665814,0.476556 -0.3721231,0.465154 -0.3778152,0.392681 -0.6598466,0.916453 -0.3638817,0.675781 -0.636164,1.43465 -0.9531116,2.126173 -0.1029065,0.224523 -0.4595891,0.914255 -0.5865303,1.136402 -0.2098519,0.367241 -0.3981744,0.588854 -0.5498721,0.98977 -0.4003563,1.058084 -0.4749576,2.20745 -0.8797954,3.262574 0.1099744,0.04888 0.2124421,0.120526 0.3299233,0.146633 0.1073556,0.02386 0.2199488,0 0.3299232,0 0.4032396,0 0.8068437,-0.01714 1.2097187,0 0.3305281,0.01406 0.6594337,0.0553 0.9897698,0.07332 0.8959452,0.04887 1.1561737,0.03666 2.052856,0.03666 0.2688263,0 0.5392268,0.02905 0.8064791,0 0.2978077,-0.03237 0.5856916,-0.126367 0.8797954,-0.18329 0.08483,-0.01642 0.1740238,-0.01125 0.256607,-0.03666 0.078345,-0.02411 0.140867,-0.08841 0.2199488,-0.109975 0.058944,-0.01608 0.1232403,0.01126 0.1832907,0 0.1369361,-0.02567 0.2656221,-0.08825 0.4032396,-0.109974 0.096559,-0.01525 0.1956606,0.0054 0.2932651,0 0.4649341,-0.02583 0.8868018,-0.04143 1.3563509,0 0.631225,0.0557 0.711667,0.13043 1.356352,0.03666 1.900748,-0.276473 0.712596,-0.156282 1.906223,-0.40324 0.157388,-0.03256 0.319503,-0.03917 0.476556,-0.07332 0.124662,-0.0271 0.241744,-0.08369 0.366581,-0.109974 0.108278,-0.0228 0.220662,-0.01918 0.329923,-0.03666 0.502969,-0.08047 0.995874,-0.200261 1.502984,-0.256607 0.463913,-0.05154 0.927315,-0.03666 1.39301,-0.03666 0.305484,0 0.611391,-0.01606 0.916453,0 0.588517,0.03097 1.159816,0.265469 1.686275,0.513214 0.09889,0.04654 0.18958,0.112071 0.293265,0.146633 0.502874,0.167625 1.326454,0.353866 1.869565,0.403239 0.170369,0.01549 0.342992,-0.01702 0.513214,0 0.244504,0.02445 0.488639,0.09251 0.733163,0.109975 0.275638,0.01969 0.530435,-9.84e-4 0.806479,0.03666 0.775105,0.105696 1.522689,0.126459 2.309463,0.146633 0.121523,0.0031 0.345457,0.02622 0.476556,0 0.197889,-0.03958 0.384066,-0.0222 0.58653,-0.03666 0.367287,-0.02623 0.730909,-0.09321 1.099744,-0.109974 0.219722,-0.01 0.440989,0.02189 0.659847,0 0.07353,-0.0074 0.115187,-0.07332 0.18329,-0.07332" />
  <path
     style="fill:none;stroke:#ff9500;stroke-opacity:1"
     d="m 33.578858,41.936914 c -0.39896,-0.568221 -0.853997,-1.097047 -1.356352,-1.5763 -0.2861,-0.272943 -0.592928,-0.53335 -0.953111,-0.696505 -0.10966,-0.04967 -0.223671,-0.09004 -0.329924,-0.146632 -0.177466,-0.09453 -0.330805,-0.234336 -0.439897,-0.40324 -0.04788,-0.07413 -0.08776,-0.154221 -0.146633,-0.219949 -0.05236,-0.05845 -0.11783,-0.103364 -0.183291,-0.146632 -0.03668,-0.02424 -0.07373,-0.04828 -0.10646,-0.07764 -0.03273,-0.02936 -0.06123,-0.06455 -0.07683,-0.105653 -0.0082,-0.02171 -0.0128,-0.04482 -0.02292,-0.06572 -0.0051,-0.01045 -0.01154,-0.02032 -0.02,-0.02828 -0.0085,-0.008 -0.01897,-0.01394 -0.0304,-0.01598 -0.01205,-0.0022 -0.02441,9.7e-5 -0.03666,0 -0.02114,-1.67e-4 -0.04193,-0.0075 -0.05952,-0.01922 -0.01759,-0.01174 -0.03207,-0.02776 -0.04348,-0.04557 -0.0228,-0.03561 -0.03325,-0.07751 -0.04364,-0.118502 -0.09694,-0.382376 -0.219988,-0.757559 -0.329924,-1.136403 -0.07691,-0.265025 -0.147601,-0.532838 -0.18329,-0.806479 -0.01274,-0.0977 -0.021,-0.195994 -0.03666,-0.293265 -0.06839,-0.424818 -0.274061,-0.812673 -0.439898,-1.209719 -0.237111,-0.567688 -0.396669,-1.166849 -0.659847,-1.722932 -0.126539,-0.26737 -0.276402,-0.523309 -0.439897,-0.769821 -0.100158,-0.151016 -0.207215,-0.302206 -0.256607,-0.476556 -0.02116,-0.07468 -0.03204,-0.154223 -0.07332,-0.219949 -0.03256,-0.05184 -0.08236,-0.09199 -0.109974,-0.146632 -0.02283,-0.04517 -0.0287,-0.09665 -0.03666,-0.146633 -0.03833,-0.240698 -0.135236,-0.474289 -0.293265,-0.659847 -0.10473,-0.122974 -0.236277,-0.225919 -0.313034,-0.368044 -0.03838,-0.07106 -0.06183,-0.151934 -0.0554,-0.232441 0.0032,-0.04025 0.01393,-0.08004 0.03275,-0.115776 0.01881,-0.03573 0.04582,-0.06732 0.07908,-0.09022 0.0073,-0.005 0.01484,-0.0096 0.02152,-0.01537 0.0067,-0.0058 0.01251,-0.01287 0.01514,-0.02129 0.0019,-0.0059 0.002,-0.01228 0.0014,-0.01847 -6.01e-4,-0.0062 -0.002,-0.01227 -0.0032,-0.01837 -0.0012,-0.0061 -0.0023,-0.01226 -0.0023,-0.01848 -6e-6,-0.0062 0.0011,-0.01253 0.0041,-0.01801 0.0033,-0.0062 0.0088,-0.01094 0.01492,-0.01435 0.0061,-0.0034 0.01285,-0.0055 0.01962,-0.0073 0.0068,-0.0018 0.01363,-0.0032 0.02027,-0.0054 0.0066,-0.0022 0.01313,-0.0052 0.0185,-0.0096 0.0053,-0.0044 0.0094,-0.01021 0.01249,-0.01637 0.0031,-0.0062 0.0053,-0.01275 0.0074,-0.01935 0.0041,-0.01319 0.0079,-0.02702 0.01678,-0.0376 0.0075,-0.0089 0.01801,-0.01473 0.0289,-0.0188 0.01089,-0.0041 0.0223,-0.0065 0.03342,-0.0099 0.01112,-0.0034 0.02217,-0.0077 0.0312,-0.01506 0.0045,-0.0037 0.0085,-0.008 0.01139,-0.01307 0.0029,-0.005 0.0048,-0.01071 0.0051,-0.01651 3.08e-4,-0.0062 -0.0011,-0.01231 -0.0019,-0.01846 -7.96e-4,-0.0061 -8.78e-4,-0.01268 0.0019,-0.0182 0.0015,-0.003 0.0038,-0.0055 0.0065,-0.0074 0.0027,-0.0019 0.0058,-0.0032 0.009,-0.004 0.0064,-0.0015 0.01324,-8.75e-4 0.01967,7.27e-4 0.01286,0.0032 0.02491,0.01009 0.03815,0.01069 0.0092,4.12e-4 0.01833,-0.0023 0.02625,-0.007 0.0079,-0.0046 0.01464,-0.01113 0.02028,-0.01837 0.01127,-0.01449 0.0182,-0.03178 0.02679,-0.048 0.01986,-0.03747 0.049,-0.06961 0.08263,-0.09544 0.03363,-0.02583 0.07169,-0.04551 0.111219,-0.06085 0.07906,-0.03069 0.163518,-0.04417 0.246051,-0.06366 0.182085,-0.04302 0.357347,-0.116457 0.513214,-0.219949 0.110235,-0.07319 0.211216,-0.161489 0.329923,-0.219949 0.07369,-0.03629 0.154009,-0.06099 0.219949,-0.109974 0.05557,-0.04128 0.09782,-0.09755 0.146633,-0.146633 0.09834,-0.09889 0.222408,-0.167778 0.329923,-0.256607 0.174102,-0.143844 0.300234,-0.335741 0.439898,-0.513214 0.236208,-0.300152 0.516758,-0.565065 0.733162,-0.879795 0.115247,-0.167611 0.2113,-0.347976 0.329924,-0.513214 0.116254,-0.161937 0.253524,-0.308277 0.403239,-0.439898 0.09112,-0.08011 0.188271,-0.156351 0.256607,-0.256607 0.04014,-0.0589 0.06933,-0.124734 0.109975,-0.183291 0.0643,-0.09264 0.155248,-0.164244 0.219949,-0.256606 0.03814,-0.05445 0.06641,-0.115055 0.09866,-0.173194 0.03225,-0.05814 0.06951,-0.11503 0.121285,-0.15673 0.02054,-0.01654 0.0431,-0.03046 0.06332,-0.04738 0.02022,-0.01692 0.03844,-0.03753 0.04666,-0.06259 0.0062,-0.01887 0.0064,-0.0391 0.0097,-0.05868 0.0016,-0.0098 0.0041,-0.01952 0.0084,-0.02847 0.0043,-0.009 0.01047,-0.01714 0.01861,-0.02282 0.01146,-0.008 0.02574,-0.01046 0.03918,-0.0143 0.0067,-0.0019 0.01338,-0.0043 0.0194,-0.0078 0.006,-0.0036 0.01139,-0.0084 0.01475,-0.01455 0.003,-0.0054 0.0043,-0.0117 0.0045,-0.01791 1.93e-4,-0.0062 -6.62e-4,-0.0124 -0.0017,-0.01851 -0.0022,-0.01223 -0.0052,-0.02474 -0.0027,-0.0369 0.0019,-0.0091 0.0069,-0.01751 0.01388,-0.02373 0.0069,-0.0062 0.0157,-0.01032 0.02486,-0.01203 0.0092,-0.0017 0.01871,-0.0011 0.02769,0.0014 0.009,0.0025 0.0174,0.0068 0.02489,0.0124 0.01497,0.01111 0.02602,0.0268 0.03441,0.04345 0.0084,0.01665 0.01435,0.03439 0.0209,0.05185 0.04626,0.123288 0.122756,0.233155 0.208041,0.333488 0.08529,0.100333 0.179869,0.192324 0.268515,0.289701 0.192405,0.211357 0.359026,0.450176 0.58653,0.623188 0.105232,0.08003 0.221489,0.144317 0.329923,0.219949 0.194293,0.135518 0.361389,0.305909 0.545492,0.454976 0.184103,0.149067 0.39328,0.27986 0.627569,0.314845 0.181531,0.02711 0.366395,-0.0049 0.549872,0 0.323949,0.0087 0.633167,0.131777 0.953112,0.183291 0.33019,0.05316 0.675956,0.03099 0.989769,0.146632 0.09806,0.03614 0.191697,0.08538 0.293265,0.109975 0.04903,0.01187 0.09978,0.01796 0.146633,0.03666 0.06078,0.02426 0.111497,0.06836 0.15692,0.115476 0.04542,0.04711 0.08699,0.09816 0.136345,0.141131 0.107682,0.09376 0.245808,0.14379 0.366582,0.219949 0.111966,0.07061 0.209856,0.164223 0.329923,0.219948 0.0797,0.03699 0.16701,0.05617 0.245159,0.09633 0.03908,0.02008 0.07587,0.04559 0.104672,0.07876 0.02881,0.03317 0.04931,0.07443 0.05341,0.118171 0.0023,0.02435 -4.77e-4,0.04887 0,0.07332 0.0011,0.05829 0.0206,0.114655 0.04352,0.168263 0.02292,0.05361 0.04959,0.105852 0.06646,0.16166 0.02505,0.08286 0.02764,0.170517 0.03666,0.256607 0.02199,0.209867 0.08289,0.413918 0.109974,0.623188 0.04405,0.340358 -0.0022,0.684965 -0.03666,1.026428 -0.03199,0.317054 -0.05378,0.635048 -0.07332,0.953112 -0.04767,0.776131 -0.08311,1.560805 -0.293265,2.309463 -0.189599,0.675442 -0.520268,1.317786 -0.58653,2.016198 -0.04623,0.487304 0.03908,0.982728 -0.03666,1.466325 -0.0096,0.06157 -0.02188,0.122744 -0.03666,0.183291 -0.01542,0.09732 -0.02765,0.195144 -0.03666,0.293265 -0.03373,0.367356 -0.02273,0.74131 -0.109974,1.099745 -0.05057,0.207767 -0.134011,0.409727 -0.146633,0.623188 -0.0094,0.158755 0.02093,0.318907 0,0.476556 -0.02399,0.180707 -0.113213,0.344929 -0.183291,0.513214 -0.09277,0.222775 -0.15538,0.4618 -0.293265,0.659846 -0.03491,0.05015 -0.07428,0.09704 -0.109974,0.146633 -0.10904,0.151467 -0.182661,0.326227 -0.293265,0.476556 -0.114209,0.155228 -0.266927,0.281607 -0.439898,0.366581 -0.08747,0.04297 -0.181841,0.07672 -0.254459,0.141715 -0.03631,0.0325 -0.06651,0.07287 -0.08188,0.119117 -0.01537,0.04624 -0.01496,0.09861 0.0064,0.142408 0.003,0.0061 0.0064,0.0122 0.0073,0.01894 4.6e-4,0.0034 2.61e-4,0.0069 -9.27e-4,0.01006 -0.0012,0.0032 -0.0034,0.006 -0.0064,0.0077 -0.0028,0.0015 -0.006,0.0019 -0.0091,0.0017 -0.0031,-2.2e-4 -0.0062,-0.001 -0.0092,-0.0018 -0.003,-7.91e-4 -0.0061,-0.0016 -0.0092,-0.0017 -0.0031,-1.74e-4 -0.0064,3e-4 -0.0091,0.0019 -0.0029,0.0017 -0.005,0.0046 -0.0061,0.0078 -0.0011,0.0032 -0.0012,0.0066 -7.12e-4,0.01 9.83e-4,0.0067 0.0043,0.0127 0.0068,0.01893 0.0054,0.0134 0.0074,0.02815 0.0059,0.04254 -0.0015,0.01439 -0.0063,0.02839 -0.01383,0.04074 -0.01503,0.02471 -0.04059,0.04229 -0.06856,0.04963 -0.02797,0.0073 -0.0581,0.0048 -0.0853,-0.005 -0.0272,-0.0098 -0.05156,-0.02668 -0.07202,-0.04711 -0.04093,-0.04087 -0.0659,-0.0947 -0.08862,-0.147893 -0.02271,-0.05319 -0.04451,-0.107855 -0.08086,-0.152846 -0.04723,-0.05846 -0.115743,-0.09619 -0.186418,-0.121741 -0.07068,-0.02555 -0.144743,-0.04028 -0.216821,-0.06155 -0.156458,-0.04618 -0.301894,-0.122671 -0.450194,-0.190633 -0.148301,-0.06796 -0.303487,-0.128474 -0.46626,-0.13929 -0.06098,-0.0041 -0.122182,-0.0011 -0.183291,0 -0.233997,0.004 -0.468475,-0.02065 -0.696504,-0.07332 z"
     id="path4"
     inkscape:path-effect="#path-effect4"
     inkscape:original-d="m 33.578858,41.936914 c -0.398117,-0.581922 -0.822556,-1.113677 -1.356352,-1.5763 -0.32719,-0.283565 -0.587431,-0.487545 -0.953111,-0.696505 -0.103163,-0.05895 -0.228993,-0.08607 -0.329924,-0.146632 -0.155109,-0.09307 -0.32765,-0.253577 -0.439897,-0.40324 -0.05287,-0.07049 -0.08433,-0.157642 -0.146633,-0.219949 -0.05532,-0.05533 -0.127965,-0.09131 -0.183291,-0.146632 -0.08002,-0.08002 -0.0608,-0.101633 -0.18329,-0.183291 -0.08422,-0.05615 0.01572,-0.02094 -0.07332,-0.109975 -0.0086,-0.0086 -0.02573,0.0055 -0.03666,0 -0.03814,-0.01907 -0.125728,-0.151934 -0.146632,-0.18329 -0.217387,-0.32608 -0.254393,-0.758751 -0.329924,-1.136403 -0.054,-0.269994 -0.129291,-0.536484 -0.18329,-0.806479 -0.01932,-0.0966 -0.01409,-0.197368 -0.03666,-0.293265 -0.09797,-0.416372 -0.29064,-0.811698 -0.439898,-1.209719 -0.214302,-0.571471 -0.400906,-1.168058 -0.659847,-1.722932 -0.124782,-0.267392 -0.293992,-0.514488 -0.439897,-0.769821 -0.08506,-0.148862 -0.186391,-0.322081 -0.256607,-0.476556 -0.03198,-0.07035 -0.03875,-0.150826 -0.07332,-0.219949 -0.02732,-0.05465 -0.08265,-0.09199 -0.109974,-0.146632 -0.02253,-0.04506 -0.01897,-0.09946 -0.03666,-0.146633 -0.08377,-0.223389 -0.20438,-0.437634 -0.293265,-0.659847 -0.04837,-0.120933 -0.328274,-0.663146 -0.256607,-0.806479 0.0077,-0.01546 0.03119,-0.02026 0.03666,-0.03666 0.0077,-0.02318 -0.01356,-0.05298 0,-0.07332 0.01516,-0.02274 0.05058,-0.0215 0.07332,-0.03666 0.09118,-0.06079 0.0042,-0.0084 0.03666,-0.07332 0.02526,-0.05052 0.08597,-0.04931 0.109975,-0.07332 0.0086,-0.0086 -0.01093,-0.03119 0,-0.03666 0.02186,-0.01093 0.05013,0.0077 0.07332,0 0.03279,-0.01093 0.04456,-0.05414 0.07332,-0.07332 0.109831,-0.07322 0.309319,-0.145332 0.439898,-0.219949 0.165506,-0.09457 0.346039,-0.136361 0.513214,-0.219949 0.118219,-0.05911 0.213889,-0.156658 0.329923,-0.219949 0.07196,-0.03925 0.152797,-0.06297 0.219949,-0.109974 0.05663,-0.03964 0.09387,-0.101983 0.146633,-0.146633 0.106356,-0.08999 0.227548,-0.162107 0.329923,-0.256607 0.160115,-0.147799 0.293814,-0.350899 0.439898,-0.513214 0.258101,-0.286779 0.503058,-0.57299 0.733162,-0.879795 0.122727,-0.163636 0.193614,-0.357432 0.329924,-0.513214 0.130948,-0.149655 0.272406,-0.290374 0.403239,-0.439898 0.07966,-0.09104 0.184028,-0.159834 0.256607,-0.256607 0.04275,-0.057 0.07045,-0.124006 0.109975,-0.183291 0.183049,-0.274573 0.03116,-0.03006 0.219949,-0.256606 0.08405,-0.100864 0.148172,-0.222259 0.219948,-0.329924 0.02696,-0.04044 0.08832,-0.06667 0.109975,-0.109974 0.01728,-0.03456 0.01347,-0.07906 0.03666,-0.109975 0.01639,-0.02186 0.05816,-0.01392 0.07332,-0.03666 0.01356,-0.02033 -0.01093,-0.05146 0,-0.07332 0.02444,-0.04888 0.110648,0.03219 0.146633,0.07332 0.33154,0.378903 0.05428,0.0883 0.476556,0.623189 0.120961,0.153217 0.449799,0.509245 0.58653,0.623188 0.101538,0.08461 0.224185,0.140645 0.329923,0.219949 0.387134,0.29035 0.666279,0.697423 1.173061,0.769821 0.177897,0.02541 0.372592,-0.01773 0.549872,0 0.347149,0.03471 0.606805,0.12145 0.953112,0.183291 0.09055,0.01617 0.883494,0.121329 0.989769,0.146632 0.101564,0.02418 0.194221,0.07696 0.293265,0.109975 0.0478,0.01593 0.10157,0.01413 0.146633,0.03666 0.116181,0.05809 0.186227,0.183018 0.293265,0.256607 0.117427,0.08073 0.246098,0.143854 0.366582,0.219949 0.11175,0.07058 0.215999,0.152934 0.329923,0.219948 0.221362,0.130214 0.298432,0.08365 0.403239,0.293266 0.01093,0.02186 -0.0048,0.04935 0,0.07332 0.02273,0.113672 0.08391,0.216969 0.109975,0.329923 0.01943,0.08419 0.02074,0.171683 0.03666,0.256607 0.06092,0.324922 0.08887,0.306608 0.109974,0.623188 0.02296,0.344397 -0.02238,0.683878 -0.03666,1.026428 -0.05854,1.404993 0.08338,-0.457197 -0.07332,0.953112 -0.08529,0.767607 -0.09102,1.55825 -0.293265,2.309463 -0.182015,0.676054 -0.456985,1.325288 -0.58653,2.016198 -0.09092,0.484884 0.0076,0.979309 -0.03666,1.466325 -0.0056,0.06205 -0.02444,0.122194 -0.03666,0.183291 -0.01222,0.09775 -0.02812,0.19512 -0.03666,0.293265 -0.03223,0.37063 -0.04341,0.733639 -0.109974,1.099745 -0.03749,0.206174 -0.11742,0.418698 -0.146633,0.623188 -0.0088,0.06178 0.0076,0.400912 0,0.476556 -0.018,0.180024 -0.113881,0.351257 -0.183291,0.513214 -0.0915,0.213501 -0.167585,0.458759 -0.293265,0.659846 -0.03238,0.05181 -0.0803,0.09322 -0.109974,0.146633 -0.108914,0.196045 -0.136377,0.29352 -0.293265,0.476556 -0.125254,0.146129 -0.306163,0.232847 -0.439898,0.366581 -0.08883,0.08883 -0.263479,0.303573 -0.329923,0.40324 -0.0068,0.01017 0.0086,0.02802 0,0.03666 -0.0086,0.0086 -0.02802,-0.0086 -0.03666,0 -0.0086,0.0086 0.0086,0.02802 0,0.03666 -0.08201,0.08201 -0.271065,-0.135838 -0.40324,-0.219949 -0.124564,-0.07927 -0.26695,-0.126503 -0.403239,-0.183291 -0.303062,-0.126275 -0.610782,-0.228032 -0.916454,-0.329923 -0.05039,-0.0168 -0.128376,0 -0.183291,0 -0.249936,0 -0.463072,0.02006 -0.696504,-0.07332 z" />
</svg>
