<?xml version="1.0" encoding="UTF-8" standalone="no"?>
<svg
   width="47px"
   height="28px"
   viewBox="0 0 47 28"
   version="1.1"
   id="svg1"
   sodipodi:docname="ico_doc.svg"
   inkscape:version="1.3.2 (091e20e, 2023-11-25, custom)"
   xmlns:inkscape="http://www.inkscape.org/namespaces/inkscape"
   xmlns:sodipodi="http://sodipodi.sourceforge.net/DTD/sodipodi-0.dtd"
   xmlns="http://www.w3.org/2000/svg"
   xmlns:svg="http://www.w3.org/2000/svg">
  <sodipodi:namedview
     id="namedview1"
     pagecolor="#ffffff"
     bordercolor="#000000"
     borderopacity="0.25"
     inkscape:showpageshadow="2"
     inkscape:pageopacity="0.0"
     inkscape:pagecheckerboard="0"
     inkscape:deskcolor="#d1d1d1"
     inkscape:zoom="30.765957"
     inkscape:cx="23.5"
     inkscape:cy="13.992739"
     inkscape:window-width="2560"
     inkscape:window-height="1369"
     inkscape:window-x="-8"
     inkscape:window-y="-8"
     inkscape:window-maximized="1"
     inkscape:current-layer="svg1" />
  <!-- Generator: Sketch 49 (51002) - http://www.bohemiancoding.com/sketch -->
  <title
     id="title1">icon/documentaries</title>
  <desc
     id="desc1">Created with Sketch.</desc>
  <defs
     id="defs1">
    <inkscape:path-effect
       effect="spiro"
       id="path-effect3"
       is_visible="true"
       lpeversion="1" />
    <inkscape:path-effect
       effect="spiro"
       id="path-effect2"
       is_visible="true"
       lpeversion="1" />
  </defs>
  <path
     style="fill:none;stroke-width:1.3;stroke:#1c1f30;stroke-opacity:1"
     d="M 4.1279391,24.540111 C 3.5207275,24.42265 2.9289981,24.225407 2.3727524,23.955048 2.1284857,23.836324 1.8912039,23.703666 1.6576763,23.565007 1.473044,23.45538 1.2897023,23.341247 1.1282953,23.199631 0.96688828,23.058015 0.827191,22.886836 0.74757953,22.687414 0.67387118,22.502779 0.65409701,22.301114 0.65006916,22.102351 0.62867144,21.046433 1.0260769,20.034479 1.3001383,19.014523 1.6170379,17.835139 1.7723024,16.619169 1.917704,15.406639 2.1390645,13.560673 2.3398424,11.707738 2.340249,9.8485477 2.3403012,9.6097862 2.3370086,9.3704331 2.3077455,9.1334716 2.2780463,8.892978 2.221816,8.6566723 2.1777317,8.4183956 2.1123071,8.0647739 2.0735536,7.7053427 2.0802213,7.3457815 2.0858613,7.0416394 2.1239007,6.7391304 2.1452282,6.4356846 2.1748679,6.0139729 2.1722104,5.5907658 2.1777317,5.1680498 2.1802808,4.9728898 2.1845402,4.776996 2.161173,4.5832232 2.1378058,4.3894504 2.085561,4.1963076 1.9827109,4.0304288 1.9129811,3.9179672 1.8213365,3.8199981 1.7551867,3.7053942 1.6871685,3.5875533 1.6465552,3.4529745 1.560166,3.3478562 1.5301985,3.3113917 1.4952979,3.2792603 1.464669,3.2433495 1.4340402,3.2074387 1.4072324,3.1665474 1.3976487,3.120332 c -0.00905,-0.043628 -0.00219,-0.088734 -6.65e-4,-0.1332644 7.617e-4,-0.022265 1.603e-4,-0.04472 -0.00441,-0.066524 -0.00457,-0.021804 -0.013281,-0.043028 -0.027426,-0.060239 -0.00973,-0.011845 -0.021792,-0.021534 -0.032503,-0.032504 -0.036011,-0.03688 -0.055639,-0.087315 -0.06358,-0.1382447 -0.00794,-0.05093 -0.00506,-0.1028691 -0.00143,-0.1542864 0.00904,-0.1279813 0.022609,-0.2562482 0.014558,-0.3842956 C 1.2741428,2.0229267 1.242989,1.8932919 1.1701245,1.7876902 1.1369297,1.7395813 1.0958844,1.6975274 1.0570748,1.6538219 1.0182651,1.6101164 0.98108671,1.563839 0.95759069,1.5103198 c -0.023496,-0.053519 -0.0322536,-0.115542 -0.0131273,-0.1707737 0.009563,-0.027616 0.0260417,-0.053012 0.0483767,-0.071859 0.022335,-0.018848 0.0505946,-0.030926 0.079774,-0.032555 0.01082,-6.041e-4 0.021669,1.967e-4 0.032504,0 0.044858,-8.143e-4 0.087386,-0.018514 0.1300138,-0.032504 0.1298774,-0.042625 0.2686775,-0.052084 0.4052279,-0.045838 0.1365504,0.00625 0.2718611,0.027798 0.4073585,0.045838 1.0109633,0.1346032 2.0369676,0.07422 3.0553251,0.1300139 0.7588364,0.041575 1.5154749,0.1477643 2.275242,0.1300138 0.130039,-0.00304 0.2603295,-0.0097 0.3900415,0 0.2311705,0.017292 0.4549635,0.086049 0.6825726,0.1300138 0.5971628,0.115348 1.2120227,0.05903 1.8201945,0.065007 0.249251,0.00245 0.498794,0.015439 0.747579,0 0.507538,-0.031496 0.999213,-0.1801705 1.495159,-0.2925311 0.397949,-0.090159 0.800693,-0.1572406 1.202628,-0.2275242 0.808231,-0.14132969 1.617771,-0.296203 2.437759,-0.32503455 0.693525,-0.024385 1.386659,0.0417169 2.080221,0.0650069 0.71473,0.0240008 1.430099,0.002523 2.145228,0 0.877669,-0.003097 1.755164,0.0223613 2.63278,0.0325035 1.615905,0.0186742 3.23671,-0.0143514 4.843015,0.16251725 0.400826,0.044135 0.800402,0.1013133 1.202628,0.1300138 0.341048,0.024335 0.692393,0.030054 1.007607,0.1625173 0.125281,0.052648 0.24159,0.124148 0.357539,0.1950208 0.277542,0.1696446 0.556486,0.3374954 0.845089,0.4875518 0.202329,0.1051992 0.409636,0.201786 0.60292,0.3228035 0.193284,0.1210175 0.373987,0.2686898 0.502198,0.4572795 0.04102,0.060345 0.07666,0.1250928 0.09751,0.1950208 0.02647,0.088786 0.02832,0.1830992 0.02244,0.2755609 -0.0059,0.092462 -0.01924,0.1844056 -0.02244,0.2769979 -0.0049,0.1413539 0.01391,0.2823329 0.0325,0.4225449 0.06731,0.5077706 0.132297,1.0163418 0.162517,1.5276625 0.01855,0.3138548 0.02397,0.6283135 0.0325,0.9426003 0.0194,0.7151529 0.05489,1.4298838 0.06501,2.1452282 0.0064,0.4552926 0.0026,0.9111613 -0.0325,1.3651452 -0.04151,0.5369869 -0.126811,1.0708159 -0.260028,1.5926699 -0.206241,0.807911 -0.52675,1.586125 -0.682572,2.405256 -0.120013,0.630888 -0.140349,1.275885 -0.162518,1.917704 -0.03372,0.976107 -0.07214,1.958299 0.06501,2.925311 0.134065,0.945233 0.435342,1.873193 0.422545,2.827801 -0.0034,0.250983 -0.02855,0.50129 -0.03208,0.75227 -0.0035,0.250981 0.01531,0.505577 0.09709,0.742889 0.09016,0.261663 0.254241,0.495072 0.326187,0.762319 0.03597,0.133624 0.04774,0.276327 0.01318,0.410322 -0.03456,0.133995 -0.11926,0.258337 -0.241857,0.322518 -0.02147,0.01124 -0.0439,0.0206 -0.06501,0.0325 -0.04724,0.02664 -0.08647,0.06518 -0.130015,0.09751 -0.147626,0.10959 -0.339155,0.143236 -0.523005,0.141748 -0.183851,-0.0015 -0.366002,-0.03467 -0.549609,-0.04424 -0.271859,-0.01417 -0.543543,0.0235 -0.812587,0.06501 -1.057663,0.163202 -2.115596,0.388145 -3.185339,0.357538 -0.467872,-0.01339 -0.93275,-0.07567 -1.397648,-0.130014 -0.7689,-0.08988 -1.540332,-0.158238 -2.307746,-0.260027 -0.303787,-0.04029 -0.606853,-0.08582 -0.910097,-0.130014 -0.592339,-0.08634 -1.193229,-0.167764 -1.78769,-0.09751 -0.206985,0.02446 -0.411362,0.06716 -0.617565,0.09751 -0.226192,0.03329 -0.454333,0.05169 -0.682573,0.06501 -0.781168,0.04558 -1.568679,0.03221 -2.340249,0.162517 -0.425368,0.07184 -0.842493,0.186865 -1.267635,0.260028 -0.428925,0.07381 -0.864967,0.104721 -1.300138,0.09751 -0.195073,-0.0032 -0.390471,-0.01409 -0.585062,0 -0.297014,0.02151 -0.586306,0.100622 -0.877594,0.162517 -0.566015,0.120271 -1.144339,0.176125 -1.722683,0.195021 -0.725695,0.02371 -1.4529179,-0.0104 -2.1777312,0.0325 -0.4767787,0.02822 -0.9559736,0.08968 -1.4301522,0.0325 C 7.2532316,25.732724 6.9102265,25.633849 6.565699,25.547713 L 6.3056713,25.482703 C 6.2186895,25.47454 6.1319589,25.4637 6.0456437,25.450203 5.8069411,25.412879 5.5664368,25.353118 5.363071,25.222679 5.198087,25.116858 5.0592864,24.965817 4.8755192,24.897645 c -0.041968,-0.01557 -0.085657,-0.02649 -0.1300139,-0.0325 -0.013359,-0.02826 -0.036749,-0.05165 -0.065007,-0.06501 -0.029956,-0.01416 -0.063875,-0.01694 -0.096965,-0.01867 -0.03309,-0.0017 -0.066833,-0.0027 -0.098055,-0.01383 -0.025713,-0.0091 -0.048653,-0.02479 -0.069573,-0.04231 -0.02092,-0.01752 -0.040089,-0.03702 -0.060441,-0.0552 -0.065629,-0.05862 -0.1437041,-0.103231 -0.2275242,-0.130013 z"
     id="path2"
     inkscape:path-effect="#path-effect2"
     inkscape:original-d="M 4.1279391,24.540111 C 3.5046251,24.541876 2.9129212,24.231414 2.3727524,23.955048 2.1310399,23.831382 1.8853234,23.712977 1.6576763,23.565007 1.3993065,23.397066 0.88739558,23.020821 0.74757953,22.687414 0.67111948,22.505086 0.65884764,22.299867 0.65006916,22.102351 0.60005921,20.977128 1.0167072,20.085263 1.3001383,19.014523 1.621303,17.801234 1.747325,16.641887 1.917704,15.406639 2.1711656,13.569042 2.3824665,11.70612 2.340249,9.8485477 2.3348275,9.6100045 2.3346863,9.3705506 2.3077455,9.1334716 2.2803913,8.8927544 2.2136696,8.6579817 2.1777317,8.4183956 2.1372588,8.1485766 2.0904816,7.63307 2.0802213,7.3457815 2.0562798,6.6754192 2.0894756,7.1604693 2.1452282,6.4356846 2.1662696,6.1621467 2.1891141,5.4981415 2.1777317,5.1680498 2.1647308,4.7910231 2.1698104,4.3706096 1.9827109,4.0304288 1.9189763,3.9145477 1.824798,3.8178432 1.7551867,3.7053942 1.6837311,3.5899658 1.6309558,3.463694 1.560166,3.3478562 1.5115659,3.2683288 1.4393298,3.2036941 1.3976487,3.120332 1.2872703,2.8995752 1.4072124,3.028573 1.3651452,2.8603043 1.361429,2.8454395 1.3383323,2.8420272 1.3326418,2.8278008 1.3152517,2.7843256 1.2736382,2.5682879 1.2676349,2.5352697 1.2225176,2.2871251 1.2168451,2.0368668 1.1701245,1.7876902 1.1416737,1.6359527 1.0311878,1.4008368 1.0726141,1.2351314 c 0.00263,-0.010511 0.021879,0.00212 0.032504,0 0.043804,-0.00876 0.085456,-0.029321 0.1300138,-0.032504 0.2701738,-0.019298 0.5417243,0 0.8125864,0 1.0194274,0 2.0364757,0.086349 3.0553251,0.1300139 0.7589093,0.032525 1.5165898,0.1019156 2.275242,0.1300138 0.1299248,0.00481 0.2606133,-0.012326 0.3900415,0 0.227182,0.021636 0.4534402,0.1058946 0.6825726,0.1300138 0.6055306,0.06374 1.2122392,0.065007 1.8201945,0.065007 0.249193,0 0.49905,0.018185 0.747579,0 0.499221,-0.036528 1.007585,-0.1841812 1.495159,-0.2925311 0.922894,-0.2050874 0.479755,-0.1204318 1.202628,-0.2275242 0.811267,-0.1201877 1.615624,-0.28766475 2.437759,-0.32503455 0.694923,-0.0315874 1.386597,0.0467536 2.080221,0.0650069 0.714542,0.0188037 1.430575,-0.0140128 2.145228,0 0.878982,0.0172349 1.752949,0.0325035 2.63278,0.0325035 1.618191,0 3.234959,-0.0384897 4.843015,0.16251725 0.270339,0.033792 0.93894,0.101507 1.202628,0.1300138 0.270299,0.029222 0.731578,0.059006 1.007607,0.1625173 0.127113,0.047667 0.239474,0.128011 0.357539,0.1950208 0.282835,0.1605279 0.563939,0.3240921 0.845089,0.4875518 0.357801,0.2080236 0.844251,0.4322589 1.105118,0.780083 0.04361,0.058144 0.08228,0.1239542 0.09751,0.1950208 0.03859,0.1800977 -0.0084,0.3685625 0,0.5525588 0.0064,0.1411187 0.01971,0.2818606 0.0325,0.4225449 0.04636,0.5099912 0.126032,1.0168697 0.162517,1.5276625 0.0224,0.3135879 0.01626,0.6286332 0.0325,0.9426003 0.09259,1.7900351 0.06501,0.058047 0.06501,2.1452282 0,0.3996903 0.01082,0.966549 -0.0325,1.3651452 -0.0044,0.040486 -0.24566,1.5341719 -0.260028,1.5926699 -0.198822,0.809489 -0.552767,1.57775 -0.682572,2.405256 -0.06877,0.43838 -0.140711,1.481574 -0.162518,1.917704 -0.04895,0.979088 -0.05461,1.951257 0.06501,2.925311 0.115476,0.940308 0.358396,1.881609 0.422545,2.827801 0.180489,2.662214 -0.143245,-0.274984 0.06501,1.495159 0.0202,0.171687 0.2197,1.37297 0.09751,1.495159 -0.01713,0.01713 -0.04485,0.01907 -0.06501,0.0325 -0.04507,0.03005 -0.07762,0.08372 -0.130015,0.09751 -0.270081,0.07107 -0.813571,0.07944 -1.072614,0.09751 -0.271069,0.01891 -0.542156,0.03849 -0.812587,0.06501 -1.066009,0.104511 -2.109557,0.357538 -3.185339,0.357538 -0.737418,0 -0.678505,-0.04012 -1.397648,-0.130014 -0.768126,-0.09601 -1.539732,-0.160929 -2.307746,-0.260027 -0.303926,-0.03922 -0.605278,-0.09848 -0.910097,-0.130014 -0.153022,-0.01583 -1.558784,-0.107915 -1.78769,-0.09751 -0.20819,0.0095 -0.410769,0.07166 -0.617565,0.09751 -0.226789,0.02835 -0.454958,0.04431 -0.682573,0.06501 -0.779935,0.0709 -1.561132,0.08261 -2.340249,0.162517 -0.53356,0.05472 -0.738055,0.180591 -1.267635,0.260028 -0.240343,0.03605 -1.022265,0.08979 -1.300138,0.09751 -0.194946,0.0054 -0.390893,-0.0182 -0.585062,0 -0.296206,0.02777 -0.582699,0.123198 -0.877594,0.162517 -0.570785,0.0761 -1.149142,0.144415 -1.722683,0.195021 -0.725112,0.06398 -1.4514918,0.01233 -2.1777312,0.0325 -0.4762577,0.01323 -0.9530092,0.05419 -1.4301522,0.0325 -0.3621742,-0.01646 -0.692507,-0.13605 -1.0401106,-0.227524 -0.086676,-0.02167 -0.1733518,-0.04334 -0.2600277,-0.06501 -0.086676,-0.01083 -0.1749992,-0.0125 -0.2600276,-0.0325 -0.2220266,-0.05224 -0.4712507,-0.136957 -0.6825727,-0.227524 -0.16964,-0.0727 -0.3315315,-0.227522 -0.4875518,-0.325034 -0.071357,-0.0446 -0.069441,-0.01231 -0.1300139,-0.0325 -0.1359866,0.05886 -0.037598,-0.0513 -0.065007,-0.06501 -0.060935,-0.03047 -0.1273282,-0.01558 -0.1950207,-0.0325 -0.065774,-0.01644 -0.077202,-0.07991 -0.1300139,-0.09751 -0.2303682,-0.07679 0.2592214,0.259383 -0.2275242,-0.130013 z" />
  <path
     style="fill:none;stroke:#ff9500;stroke-width:1.3;stroke-opacity:1"
     d="m 36.826418,17.454357 c -0.616182,-1.45646 -1.053862,-2.988337 -1.300139,-4.550484 -0.07831,-0.496693 -0.137457,-0.998938 -0.118224,-1.501397 0.01923,-0.50246 0.119347,-1.007444 0.345749,-1.4564179 0.313111,-0.620923 0.844434,-1.0974546 1.332641,-1.5926694 0.414475,-0.4204244 0.807059,-0.8657865 1.267635,-1.2351314 0.626916,-0.5027362 1.361145,-0.8500399 2.047718,-1.2676349 0.192029,-0.1167982 0.384757,-0.2430691 0.520055,-0.4225449 0.108677,-0.1441623 0.17591,-0.3172347 0.292532,-0.4550485 0.09267,-0.1095129 0.212628,-0.1920911 0.33327,-0.2697238 0.120642,-0.077633 0.244456,-0.1524098 0.349302,-0.2503315 0.0448,-0.041837 0.08577,-0.087589 0.130014,-0.1300138 0.144362,-0.138442 0.322289,-0.2404361 0.455048,-0.3900415 0.08786,-0.099013 0.152994,-0.215633 0.227525,-0.3250346 0.07448,-0.1093267 0.158774,-0.2120168 0.227524,-0.3250346 0.138647,-0.2279213 0.210766,-0.4923004 0.357538,-0.715076 0.113237,-0.1718746 0.266726,-0.3126638 0.40169,-0.4680601 0.134965,-0.1553962 0.255553,-0.3352879 0.280882,-0.5395471 0.0076,-0.061405 0.0066,-0.1248596 0.02783,-0.182991 0.0106,-0.029066 0.02693,-0.0565 0.05012,-0.076975 0.02319,-0.020474 0.05365,-0.033532 0.08457,-0.032565 0.01087,3.396e-4 0.02189,0.00235 0.0325,0 0.0099,-0.00219 0.01874,-0.00813 0.02558,-0.015636 0.0068,-0.00751 0.0118,-0.016541 0.0158,-0.025872 0.008,-0.018663 0.01248,-0.039029 0.02363,-0.056001 0.01282,-0.019521 0.03401,-0.033035 0.05687,-0.037779 0.02287,-0.00474 0.04718,-9.71e-4 0.06819,0.00924 0.021,0.010209 0.03873,0.026644 0.05171,0.046058 0.01298,0.019414 0.02133,0.041735 0.0257,0.064676 0.0088,0.045882 0.0018,0.093322 -0.0088,0.1388101 -0.01061,0.045489 -0.02492,0.090248 -0.03118,0.1365352 -0.0124,0.091577 0.0074,0.1850334 0.0405,0.2713133 0.0331,0.08628 0.07923,0.1668322 0.122014,0.248742 0.539252,1.0322841 0.540494,2.249069 0.585062,3.4128631 0.04696,1.2263713 0.15477,2.46546 -0.06501,3.6728907 -0.171466,0.942002 -0.537742,1.83649 -0.780083,2.762794 -0.253511,0.968998 -0.370116,1.967489 -0.520055,2.957814 -0.05601,0.369907 -0.116777,0.739269 -0.195021,1.105118 -0.06226,0.291133 -0.135757,0.581081 -0.162517,0.877593 -0.05922,0.65617 0.112163,1.308178 0.260027,1.950208 0.09261,0.402109 0.1766,0.806613 0.292531,1.202628 0.161947,0.553202 0.38626,1.090226 0.487552,1.657676 0.132212,0.740667 0.05066,1.511446 0.227524,2.242738 0.09425,0.389711 0.261743,0.769182 0.260028,1.170125 -2.12e-4,0.04953 -0.003,0.09911 -2.71e-4,0.148569 0.0028,0.04946 0.01135,0.0993 0.03277,0.143962 0.0052,0.01086 0.01124,0.02165 0.01288,0.03358 8.19e-4,0.006 4.79e-4,0.01216 -0.0016,0.01781 -0.0021,0.0056 -0.006,0.01071 -0.01127,0.01362 -0.0049,0.0027 -0.01061,0.0034 -0.01615,0.0031 -0.0055,-3.51e-4 -0.01096,-0.0017 -0.01635,-0.0031 -0.09695,-0.02415 -0.196461,-0.03757 -0.292531,-0.06501 -0.08906,-0.02544 -0.174217,-0.06265 -0.260028,-0.09751 -0.302063,-0.122707 -0.61567,-0.217494 -0.910096,-0.357538 -0.592528,-0.281836 -1.083622,-0.734654 -1.625173,-1.105118 -0.501889,-0.343332 -1.054525,-0.621052 -1.495159,-1.040111 -0.250348,-0.23809 -0.461982,-0.52227 -0.585063,-0.845089 -0.03299,-0.08652 -0.05957,-0.175563 -0.09751,-0.260028 -0.04573,-0.101807 -0.107301,-0.195541 -0.162517,-0.292531 -0.204957,-0.360022 -0.329078,-0.775296 -0.617566,-1.072614 -0.06405,-0.06601 -0.135308,-0.125073 -0.195021,-0.195021 -0.117221,-0.137312 -0.184765,-0.310196 -0.292531,-0.455048 -0.08485,-0.114051 -0.192847,-0.208397 -0.298289,-0.303736 -0.105442,-0.09534 -0.210344,-0.193971 -0.286773,-0.31383 -0.03397,-0.05328 -0.06198,-0.110262 -0.09751,-0.162517 -0.08638,-0.127049 -0.212708,-0.220225 -0.325035,-0.325035 -0.302936,-0.282665 -0.511417,-0.664881 -0.585062,-1.072614 z"
     id="path3"
     inkscape:path-effect="#path-effect3"
     inkscape:original-d="M 36.826418,17.454357 C 36.307754,15.778673 35.876712,14.563819 35.526279,12.903873 35.316173,11.908634 35.191587,10.85776 35.753804,9.9460581 36.179852,9.2551688 36.583102,8.9088021 37.086445,8.3533887 37.665418,7.7145221 37.546619,7.746283 38.35408,7.1182573 38.984923,6.6276016 39.729531,6.280873 40.401798,5.8506224 c 0.26221,-0.1678145 0.36697,-0.1819828 0.520055,-0.4225449 0.142981,-0.2246843 0.05954,-0.241471 0.292532,-0.4550485 0.342272,-0.3137502 0.196214,-0.1417766 0.682572,-0.5200553 0.04838,-0.037628 0.08421,-0.089296 0.130014,-0.1300138 0.149316,-0.1327253 0.317106,-0.2455309 0.455048,-0.3900415 0.09132,-0.095665 0.151683,-0.2166897 0.227525,-0.3250346 0.07584,-0.1083448 0.157912,-0.2125855 0.227524,-0.3250346 0.291095,-0.4702303 0.106649,-0.2361069 0.357538,-0.715076 0.187142,-0.3572716 0.448939,-0.6805208 0.682572,-1.0076072 0.06543,-0.091601 0.08267,-0.2126859 0.162518,-0.2925311 0.0077,-0.00766 0.02484,0.00766 0.0325,0 0.03959,-0.039589 0.01523,-0.07262 0.06501,-0.09751 0.117093,-0.058546 0.121119,0.2333425 0.162517,0.357538 0.05743,0.172299 0.115455,0.3446399 0.162518,0.5200553 0.299808,1.117468 0.473243,2.2627237 0.585062,3.4128631 0.120593,1.240387 0.170529,2.4408549 -0.06501,3.6728907 -0.179875,0.940885 -0.536222,1.839606 -0.780083,2.762794 -0.256046,0.969318 -0.353125,1.971408 -0.520055,2.957814 -0.06242,0.368821 -0.127446,0.737208 -0.195021,1.105118 -0.0409,0.222701 -0.135839,0.637492 -0.162517,0.877593 -0.0737,0.663309 0.09203,1.311806 0.260027,1.950208 0.105929,0.402527 0.173761,0.800636 0.292531,1.202628 0.137128,0.464123 0.376797,1.181428 0.487552,1.657676 0.173385,0.745553 0.07436,1.496075 0.227524,2.242738 0.270613,1.319239 0.07237,-0.04966 0.260028,1.170125 0.01492,0.09697 0.02362,0.194824 0.0325,0.292531 0.002,0.02158 0.0097,0.04563 0,0.06501 -0.0048,0.0097 -0.02188,0.0021 -0.0325,0 -0.09795,-0.01959 -0.196701,-0.03682 -0.292531,-0.06501 -0.08881,-0.02612 -0.171672,-0.0699 -0.260028,-0.09751 -0.333483,-0.104214 -0.604661,-0.166641 -0.910096,-0.357538 -0.555065,-0.346916 -1.070832,-0.755008 -1.625173,-1.105118 -0.509973,-0.322088 -1.054579,-0.619556 -1.495159,-1.040111 -0.222391,-0.212281 -0.447254,-0.569471 -0.585063,-0.845089 -0.0414,-0.0828 -0.05809,-0.176269 -0.09751,-0.260028 -0.0475,-0.100931 -0.110758,-0.193719 -0.162517,-0.292531 -0.189795,-0.362336 -0.359738,-0.750329 -0.617566,-1.072614 -0.05743,-0.07179 -0.136805,-0.123868 -0.195021,-0.195021 -0.111743,-0.136576 -0.180787,-0.318473 -0.292531,-0.455048 -0.177953,-0.217499 -0.405296,-0.401846 -0.585062,-0.617566 -0.04044,-0.04853 -0.05525,-0.11556 -0.09751,-0.162517 -0.340119,-0.37791 -0.0669,0.04374 -0.325035,-0.325035 -0.232795,-0.332564 -0.404566,-0.711622 -0.585062,-1.072614 z" />
</svg>
