<?xml version="1.0" encoding="UTF-8" standalone="no"?>
<svg
   width="52px"
   height="23px"
   viewBox="0 0 52 23"
   version="1.1"
   id="svg4"
   sodipodi:docname="ico_translate.svg"
   inkscape:version="1.3.2 (091e20e, 2023-11-25, custom)"
   xmlns:inkscape="http://www.inkscape.org/namespaces/inkscape"
   xmlns:sodipodi="http://sodipodi.sourceforge.net/DTD/sodipodi-0.dtd"
   xmlns="http://www.w3.org/2000/svg"
   xmlns:svg="http://www.w3.org/2000/svg">
  <sodipodi:namedview
     id="namedview4"
     pagecolor="#ffffff"
     bordercolor="#000000"
     borderopacity="0.25"
     inkscape:showpageshadow="2"
     inkscape:pageopacity="0.0"
     inkscape:pagecheckerboard="0"
     inkscape:deskcolor="#d1d1d1"
     inkscape:zoom="27.807692"
     inkscape:cx="26"
     inkscape:cy="11.489627"
     inkscape:window-width="2560"
     inkscape:window-height="1369"
     inkscape:window-x="-8"
     inkscape:window-y="-8"
     inkscape:window-maximized="1"
     inkscape:current-layer="svg4" />
  <!-- Generator: Sketch 49 (51002) - http://www.bohemiancoding.com/sketch -->
  <title
     id="title1">translate icon</title>
  <desc
     id="desc1">Created with Sketch.</desc>
  <defs
     id="defs1">
    <inkscape:path-effect
       effect="spiro"
       id="path-effect8"
       is_visible="true"
       lpeversion="1" />
    <inkscape:path-effect
       effect="spiro"
       id="path-effect7"
       is_visible="true"
       lpeversion="1" />
    <inkscape:path-effect
       effect="spiro"
       id="path-effect6"
       is_visible="true"
       lpeversion="1" />
    <inkscape:path-effect
       effect="spiro"
       id="path-effect5"
       is_visible="true"
       lpeversion="1" />
  </defs>
  <path
     style="fill:none;stroke:#1c3c55;stroke-width:1.079;stroke-opacity:1"
     d="m 4.6390041,15.966805 c -6e-7,0.730261 -0.3135508,1.418969 -0.6113416,2.085754 -0.093094,0.208447 -0.1862722,0.420926 -0.2157676,0.647303 -0.027907,0.21419 0.00247,0.431317 0,0.647303 -0.00233,0.204161 -0.033948,0.410009 0,0.611341 0.029712,0.176212 0.1081578,0.339751 0.1798063,0.503458 0.064288,0.146889 0.1246723,0.297583 0.2200083,0.426503 0.047668,0.06446 0.1040171,0.123048 0.1699889,0.1686 0.065972,0.04555 0.141845,0.07781 0.2213445,0.08816 0.073083,0.0095 0.1481905,3.48e-4 0.2178467,-0.02373 0.069656,-0.02408 0.1338979,-0.06285 0.1896322,-0.111074 0.1114686,-0.09644 0.1874171,-0.228724 0.2368614,-0.367583 0.098889,-0.277719 0.09762,-0.581907 0.1827689,-0.864142 0.09603,-0.318303 0.2985391,-0.595478 0.5332566,-0.830948 0.2347174,-0.235469 0.5029122,-0.434302 0.7613493,-0.643464 0.5841593,-0.472779 1.1378615,-1.011553 1.8340248,-1.294606 0.6134736,-0.249432 1.2897973,-0.280177 1.9419092,-0.395574 0.57515,-0.101778 1.142275,-0.271681 1.726141,-0.28769 0.563369,-0.01545 1.120297,0.113239 1.664052,0.261408 0.543755,0.14817 1.084996,0.317287 1.644385,0.385895 1.033321,0.126735 2.083854,-0.09686 3.056708,-0.467497 0.241296,-0.09193 0.479055,-0.192858 0.719225,-0.28769 0.603062,-0.238121 1.220538,-0.437494 1.834025,-0.647303 0.804935,-0.275283 1.615912,-0.575211 2.301522,-1.078838 0.393275,-0.288887 0.743387,-0.647173 0.970954,-1.078838 0.315783,-0.598999 0.37757,-1.301958 0.332857,-1.97762 -0.04471,-0.675663 -0.188992,-1.340774 -0.260937,-2.0140816 -0.02054,-0.1922603 -0.03524,-0.385537 -0.07192,-0.5753804 -0.03706,-0.1918043 -0.09657,-0.3803561 -0.107884,-0.5753803 -0.0083,-0.1436611 0.0097,-0.287963 0,-0.4315353 C 24.296597,7.6447011 24.232658,7.45705 24.201936,7.264177 24.175454,7.0979229 24.173812,6.9288866 24.165975,6.7607192 24.104235,5.4359713 23.64498,4.1338782 22.871369,3.0567082 22.696635,2.8134098 22.505188,2.5801639 22.279558,2.3831432 22.053928,2.1861224 21.792427,2.0256967 21.504841,1.9419087 21.065099,1.8137901 20.596338,1.8705414 20.138313,1.8699862 19.789692,1.8695636 19.442068,1.8352478 19.095436,1.7980636 18.580645,1.7428405 18.066143,1.6811778 17.549101,1.6542185 c -0.56279,-0.029345 -1.126928,-0.017483 -1.69018,-0.035961 -1.178184,-0.038651 -2.347962,-0.2098237 -3.524205,-0.2876902 -1.161371,-0.076882 -2.32851,-0.062598 -3.488243,0.035961 -0.3950565,0.033573 -0.7902734,0.076951 -1.186722,0.071923 -0.1558821,-0.00198 -0.3120217,-0.011435 -0.4674965,0 C 7.034933,1.4500218 6.8800848,1.4828504 6.724758,1.5103734 5.7308124,1.6864949 4.7134064,1.6459952 3.7040111,1.6542185 3.4838029,1.6560125 3.2607908,1.660544 3.0486168,1.7195109 2.8364429,1.7784777 2.6330609,1.8984259 2.5172891,2.0857538 2.4691757,2.1636051 2.4375755,2.2504071 2.4094053,2.3374827 2.181905,3.0406991 2.1600882,3.7920236 2.1576763,4.5311203 c -0.00389,1.1913895 0.038029,2.3880924 0.251729,3.560166 0.1257201,0.6895343 0.3102067,1.3667678 0.4674965,2.0497927 0.1007453,0.437482 0.1900074,0.897443 0.071922,1.330567 -0.062937,0.230845 -0.183272,0.44621 -0.2157676,0.683264 -0.027775,0.20262 0.010216,0.412109 -0.035961,0.611342 -0.019713,0.08505 -0.054401,0.1662 -0.071922,0.251729 -0.03137,0.153136 -0.00631,0.311307 0,0.467496 0.00973,0.240804 -0.025508,0.48142 -0.022209,0.722399 0.00165,0.120489 0.013061,0.241433 0.044073,0.357874 0.031012,0.116442 0.082154,0.228533 0.1579416,0.322217 0.031119,0.03847 0.066266,0.07374 0.094619,0.114286 0.028353,0.04055 0.05,0.08797 0.049226,0.137443 -3.767e-4,0.02407 -0.006,0.0486 0,0.07192 0.00431,0.01676 0.014423,0.03159 0.026705,0.04378 0.012282,0.01219 0.026722,0.02196 0.041295,0.03129 0.014572,0.0093 0.029421,0.01833 0.042845,0.02925 0.013423,0.01092 0.02549,0.02394 0.033001,0.03952 0.00832,0.01726 0.010644,0.03667 0.014214,0.05549 0.00357,0.01882 0.0089,0.03818 0.021747,0.0524 0.012951,0.01433 0.031993,0.02163 0.050879,0.02568 0.018886,0.0041 0.038324,0.0054 0.057005,0.01028 0.037594,0.0099 0.070018,0.0338 0.098154,0.06062 0.028137,0.02682 0.052971,0.05699 0.081652,0.08323 0.065918,0.06031 0.1502838,0.09784 0.2372312,0.118386 0.086947,0.02055 0.1768855,0.02495 0.2662266,0.02546 0.1569149,9.01e-4 0.3173039,-0.0095 0.4674965,0.03596 0.093289,0.02823 0.180048,0.0778 0.2517289,0.143845 0,10e-7 0,3e-6 0,4e-6 z"
     id="path5"
     inkscape:path-effect="#path-effect5"
     inkscape:original-d="m 4.6390041,15.966805 c -0.026093,0.755045 -0.3528259,1.378237 -0.6113416,2.085754 -0.078056,0.213625 -0.1783769,0.422958 -0.2157676,0.647303 -0.035472,0.212832 0,0.431535 0,0.647303 0,0.20378 -0.032449,0.410161 0,0.611341 0.028375,0.175927 0.1172358,0.336603 0.1798063,0.503458 0.059203,0.157874 0.2930317,0.824735 0.6113417,0.683264 0.4777158,-0.212318 0.5623328,-0.98525 0.8271092,-1.366528 0.3112998,-0.448272 0.8559165,-1.095935 1.2946059,-1.474412 0.6867092,-0.592455 1.0731713,-0.985509 1.8340248,-1.294606 0.6207818,-0.252193 1.2908094,-0.275 1.9419092,-0.395574 0.0467,-0.0086 1.330744,-0.318906 1.726141,-0.28769 1.136188,0.0897 2.153382,0.703647 3.308437,0.647303 1.019098,-0.04971 2.078218,-0.157244 3.056708,-0.467497 0.246133,-0.07804 0.476761,-0.198901 0.719225,-0.28769 0.608767,-0.222929 1.221487,-0.434956 1.834025,-0.647303 1.14836,-0.398098 1.019341,-0.254579 2.301522,-1.078838 0.428635,-0.275552 0.724988,-0.641566 0.970954,-1.078838 0.709114,-1.260648 0.286077,-2.663946 0.07192,-3.9917016 -0.03078,-0.1908199 -0.04208,-0.3844114 -0.07192,-0.5753804 -0.03012,-0.1927964 -0.0871,-0.3813551 -0.107884,-0.5753803 -0.01532,-0.1430265 0.01532,-0.2885088 0,-0.4315353 C 24.289032,7.6455322 24.227726,7.457601 24.201936,7.264177 24.1797,7.0974061 24.184555,6.927937 24.165975,6.7607192 24.017516,5.4245872 23.630095,4.1695065 22.871369,3.0567082 22.488696,2.4954543 22.169555,2.2239086 21.504841,1.9419087 21.195651,1.8107373 20.265677,1.8732519 20.138313,1.8699862 19.789976,1.8610545 19.442747,1.826224 19.095436,1.7980636 18.674673,1.7639477 17.957132,1.671959 17.549101,1.6542185 c -3.055507,-0.1328481 1.474937,0.1502221 -1.69018,-0.035961 -1.177228,-0.069249 -2.344913,-0.257452 -3.524205,-0.2876902 -1.158969,-0.029717 -2.330739,-0.00465 -3.488243,0.035961 -0.39673,0.00256 -0.7906746,0.057778 -1.186722,0.071923 -0.1557329,0.00556 -0.3121233,-0.011952 -0.4674965,0 C 7.0350533,1.4505433 6.8820412,1.4994002 6.724758,1.5103734 5.7066026,1.5814075 4.7214074,1.5172613 3.7040111,1.6542185 3.543526,1.6758223 2.6611577,1.9258998 2.5172891,2.0857538 2.4562186,2.1536098 2.4453665,2.2535731 2.4094053,2.3374827 2.123733,3.0040512 2.1576763,3.8162709 2.1576763,4.5311203 c 0,1.1425897 0.028384,2.4434408 0.251729,3.560166 0.137649,0.6882452 0.3711333,1.3511596 0.4674965,2.0497927 0.055279,0.400772 0.1126022,0.923771 0.071922,1.330567 -0.023499,0.234994 -0.1654311,0.45675 -0.2157676,0.683264 -0.043375,0.195189 0.00331,0.414965 -0.035961,0.611342 -0.016611,0.08305 -0.05738,0.164473 -0.071922,0.251729 -0.024192,0.145152 0,0.319434 0,0.467496 0,0.439679 -0.024372,0.994134 0.1798064,1.40249 0.04322,0.08644 0.1045946,0.163415 0.143845,0.251729 0.00974,0.02191 -0.013298,0.05197 0,0.07192 0.037614,0.05642 0.1044318,0.08867 0.1438451,0.143845 0.022033,0.03085 0.014935,0.07634 0.035961,0.107884 0.021027,0.03154 0.076344,0.01493 0.1078838,0.03596 0.07171,0.04781 0.091279,0.09958 0.1798064,0.143846 0.1654703,0.08274 0.3378553,0.08864 0.5034578,0.143845 0.080078,0.02669 0.3612621,-0.01716 0.4674965,0.03596 0.08644,0.04322 0.1678193,0.0959 0.2517289,0.143845 z" />
  <path
     style="fill:none;stroke:#ff9500;stroke-width:1.079;stroke-opacity:1"
     d="m 47.576763,21.576763 c -0.07245,-0.04715 -0.144378,-0.0951 -0.215767,-0.143845 -0.566324,-0.386671 -1.097543,-0.822246 -1.654219,-1.222683 -1.053782,-0.758023 -2.207784,-1.392941 -3.452282,-1.762102 -0.609425,-0.180777 -1.238165,-0.297363 -1.835573,-0.514579 -0.597408,-0.217216 -1.175972,-0.549976 -1.544786,-1.067717 -0.01495,-0.02098 -0.02957,-0.0423 -0.04686,-0.0614 -0.01728,-0.01911 -0.03746,-0.03608 -0.06103,-0.04648 -0.02784,-0.01229 -0.05911,-0.01484 -0.08948,-0.01288 -0.03036,0.002 -0.06026,0.0082 -0.09033,0.01288 -0.142443,0.02209 -0.287624,0.0082 -0.431535,0 -0.383557,-0.02188 -0.768566,-0.003 -1.150761,0.03596 -0.671127,0.06849 -1.339499,0.199268 -2.013831,0.179807 -0.252903,-0.0073 -0.504778,-0.03575 -0.755187,-0.07192 -1.393718,-0.201327 -2.739976,-0.640248 -4.099585,-1.006916 -0.568411,-0.153293 -1.142458,-0.294936 -1.686339,-0.520285 -0.543882,-0.22535 -1.061891,-0.540771 -1.442291,-0.990088 -0.437326,-0.516556 -0.666729,-1.176483 -0.82711,-1.834025 -0.154907,-0.635099 -0.254163,-1.297567 -0.143845,-1.941909 0.142901,-0.8346476 0.621559,-1.5661332 0.970955,-2.3374823 0.180111,-0.397625 0.326983,-0.8094016 0.467496,-1.2226833 0.185739,-0.5463028 0.361524,-1.0981255 0.611342,-1.6182573 0.06963,-0.1449718 0.144873,-0.2871775 0.215767,-0.4315352 0.229711,-0.4677481 0.413034,-0.9565492 0.611342,-1.4384509 0.135796,-0.3299946 0.279456,-0.6591917 0.359613,-1.0069157 0.04568,-0.1981541 0.07042,-0.40116 0.126962,-0.5964926 0.05654,-0.1953326 0.149121,-0.3872104 0.304573,-0.5183068 0.171248,-0.1444178 0.402219,-0.2005598 0.626167,-0.2059842 0.223949,-0.00542 0.446064,0.035087 0.668439,0.062139 0.821946,0.09999 1.653484,0.016357 2.481328,0 0.996375,-0.019687 1.99189,0.058353 2.984785,0.1438451 1.259695,0.1084639 2.51834,0.2290236 3.775934,0.3596127 0.263406,0.027352 0.526857,0.055152 0.791148,0.071923 0.598394,0.037972 1.198777,0.019282 1.798064,0 0.719253,-0.023142 1.438479,-0.047116 2.157676,-0.071923 0.243142,-0.083659 0.498316,-0.1322636 0.755187,-0.1438451 0.215569,-0.00972 0.431514,0 0.647302,0 h 1.042877 0.467497 c 0.04801,0 0.09601,-0.00131 0.143971,-0.00343 0.04796,-0.00212 0.09635,-0.00439 0.143719,0.00343 0.05793,0.00956 0.11266,0.034592 0.160914,0.068044 0.04826,0.033452 0.09031,0.075191 0.128291,0.1199674 0.07596,0.089553 0.13633,0.1916319 0.214253,0.2794852 0.124432,0.1402888 0.288261,0.2386295 0.431535,0.3596127 0.267409,0.2258058 0.461946,0.5319686 0.575381,0.8630705 0.133798,0.3905396 0.157121,0.8118743 0.125163,1.2234589 -0.03196,0.4115845 -0.117585,0.8168112 -0.197083,1.2219077 -0.116646,0.5943916 -0.22071,1.1931293 -0.251729,1.7980636 -0.03255,0.6347609 0.01555,1.2724432 -0.03596,1.9059474 -0.0235,0.2890217 -0.06764,0.5759001 -0.107884,0.8630701 -0.08196,0.584883 -0.147886,1.172369 -0.179806,1.762103 -0.01427,0.263604 -0.02174,0.527541 -0.03596,0.791148 -0.03691,0.684002 -0.119271,1.365236 -0.143845,2.049792 -0.006,0.167765 -0.0086,0.335804 0,0.503458 0.0088,0.171586 0.02917,0.342966 0.02331,0.514676 -0.0059,0.171709 -0.03982,0.346743 -0.131198,0.49224 -0.0656,0.104461 -0.157716,0.189169 -0.249363,0.271733 -0.09165,0.08256 -0.185005,0.165497 -0.254094,0.267686 -0.07515,0.111148 -0.11839,0.240328 -0.179807,0.359613 -0.07287,0.14153 -0.170855,0.268262 -0.260235,0.399989 -0.08938,0.131726 -0.171704,0.271954 -0.207261,0.42712 -0.01366,0.05959 -0.02024,0.120724 -0.03596,0.179806 -0.02629,0.09879 -0.07734,0.189066 -0.131688,0.27565 -0.05435,0.08658 -0.112738,0.171148 -0.156002,0.263769 -0.08029,0.171895 -0.105464,0.364867 -0.179806,0.539419 -0.06307,0.148092 -0.160476,0.280367 -0.215768,0.431536 -0.07914,0.216355 -0.06632,0.4549 -0.03596,0.683264 0.0507,0.381348 0.147521,0.756541 0.28769,1.114799"
     id="path6"
     inkscape:path-effect="#path-effect6"
     inkscape:original-d="m 47.576763,21.576763 c -0.07192,-0.04795 -0.147368,-0.09099 -0.215767,-0.143845 -0.734746,-0.567758 -0.695014,-0.639382 -1.654219,-1.222683 -0.964726,-0.586658 -2.450745,-1.302213 -3.452282,-1.762102 -1.112167,-0.510689 -2.343962,-0.911686 -3.380359,-1.582296 -0.0427,-0.02763 -0.0672,-0.07737 -0.107884,-0.107884 -0.04795,-0.03596 -0.119871,0 -0.179807,0 -0.143845,0 -0.287727,-0.0033 -0.431535,0 -0.383675,0.0087 -0.767649,0.01342 -1.150761,0.03596 -0.671553,0.0395 -1.338176,0.196698 -2.013831,0.179807 -0.252789,-0.0063 -0.504443,-0.03922 -0.755187,-0.07192 -1.406287,-0.183429 -2.764928,-0.534225 -4.099585,-1.006916 -1.066727,-0.377799 -2.221835,-0.82042 -3.12863,-1.510373 -0.425127,-0.323466 -0.72056,-1.341235 -0.82711,-1.834025 -0.08807,-0.407308 -0.234432,-1.549365 -0.143845,-1.941909 0.191078,-0.8280048 0.631843,-1.5688287 0.970955,-2.3374823 0.272958,-0.6187066 0.238246,-0.5922464 0.467496,-1.2226833 0.0897,-0.2466622 0.608904,-1.6123774 0.611342,-1.6182573 0.0616,-0.1485596 0.148373,-0.2855138 0.215767,-0.4315352 0.217199,-0.4705976 0.422428,-0.9556697 0.611342,-1.4384509 0.130433,-0.333329 0.235503,-0.675955 0.359613,-1.0069157 0.123119,-0.328318 0.146867,-0.8870646 0.431535,-1.1147994 0.213867,-0.1710934 1.189332,-0.1427008 1.294606,-0.1438451 0.82706,-0.00899 1.654253,-0.00759 2.481328,0 1.149269,0.010544 1.827961,0.043873 2.984785,0.1438451 1.259645,0.1088582 2.516671,0.2464206 3.775934,0.3596127 0.26374,0.023707 0.526659,0.059021 0.791148,0.071923 0.598643,0.029202 1.198709,0 1.798064,0 0.717983,0 1.441988,-0.00483 2.157676,-0.071923 0.277633,0.080129 0.50118,-0.1099775 0.755187,-0.1438451 0.213874,-0.028517 0.431535,0 0.647302,0 0.347626,0 0.695252,0 1.042877,0 0.155833,0 0.311665,0 0.467497,0 0.0959,0 0.193656,-0.018807 0.28769,0 0.06121,0.012241 0.48821,0.4538534 0.503458,0.4674966 0.139542,0.1248535 0.299133,0.227211 0.431535,0.3596127 0.173092,0.1730914 0.515718,0.6189975 0.575381,0.8630705 0.259043,1.0597229 0.08246,1.4629275 -0.07192,2.4453666 -0.09395,0.5978629 -0.188374,1.1961892 -0.251729,1.7980636 -0.106753,1.0141538 0.02459,0.8765568 -0.03596,1.9059474 -0.01703,0.2894288 -0.0763,0.5748671 -0.107884,0.8630701 -0.06432,0.586904 -0.130089,1.173782 -0.179806,1.762103 -0.02223,0.263051 -0.01151,0.528294 -0.03596,0.791148 -0.176037,1.892399 -0.08877,-0.704119 -0.143845,2.049792 -0.0034,0.167786 0,0.335639 0,0.503458 0,0.301112 0.09252,0.726356 -0.107884,1.006916 -0.142648,0.199707 -0.364823,0.331468 -0.503457,0.539419 -0.200048,0.300072 -0.02748,0.05496 -0.179807,0.359613 -0.141667,0.283334 -0.357351,0.524209 -0.467496,0.827109 -0.02089,0.05744 -0.0145,0.122576 -0.03596,0.179806 -0.05646,0.150554 -0.217181,0.386651 -0.28769,0.539419 -0.23572,0.510727 0.02972,0.08544 -0.179806,0.539419 -0.108118,0.234257 -0.184728,0.172873 -0.215768,0.431536 -0.02717,0.226445 -0.02752,0.45535 -0.03596,0.683264 -0.0064,0.172454 -0.01745,1.114799 0.28769,1.114799" />
  <path
     style="fill:none;stroke:#95aabf;stroke-width:1.079"
     d="m 11.147994,12.802213 c 0.02903,-0.641384 -0.04409,-1.287284 -0.215767,-1.905947 -0.07001,-0.252308 -0.1563,-0.500187 -0.215768,-0.755187 -0.06357,-0.2725878 -0.09604,-0.5513202 -0.143845,-0.8271094 -0.0482,-0.2780563 -0.11201,-0.5531707 -0.179806,-0.8271093 -0.0808,-0.3264989 -0.167619,-0.6532405 -0.199856,-0.9880413 -0.03224,-0.3348007 -0.0073,-0.6818773 0.127936,-0.9898287 0.07375,-0.1678905 0.178378,-0.3202677 0.28769,-0.4674965 0.131915,-0.1776719 0.272058,-0.3500439 0.431536,-0.5034578 0.456429,-0.4390745 1.053896,-0.7057171 1.66355,-0.8772849 0.609654,-0.1715677 1.239878,-0.2558579 1.860654,-0.3813597 0.25976,-0.052515 0.524526,-0.112617 0.787252,-0.077859 0.131363,0.017379 0.260789,0.059194 0.3711,0.1326095 0.11031,0.073416 0.200645,0.1796962 0.244138,0.3048625 0.02796,0.080452 0.03624,0.166559 0.03596,0.251729 -7.43e-4,0.2225661 -0.05908,0.4431028 -0.155612,0.6436479 -0.09653,0.200545 -0.230571,0.3816585 -0.383807,0.543074 -0.390385,0.4112236 -0.897418,0.6908134 -1.408216,0.9369653 -0.510798,0.246152 -1.037678,0.4675469 -1.504647,0.7891758 -0.266932,0.1838515 -0.519024,0.4027722 -0.827109,0.5034578 -0.0874,0.028562 -0.181324,0.048746 -0.251729,0.1078839 -0.0032,0.00271 -0.0064,0.00552 -0.009,0.00883 -0.0026,0.00331 -0.0046,0.00717 -0.0053,0.011344 -6.19e-4,0.00417 2.91e-4,0.00866 0.003,0.011914 0.0013,0.00163 0.0031,0.00291 0.0051,0.00362 0.002,7.085e-4 0.0042,8.258e-4 0.0062,2.554e-4 0.0017,-4.653e-4 0.0032,-0.00138 0.0044,-0.00257 0.0012,-0.0012 0.0022,-0.00267 0.0028,-0.00426 0.0013,-0.00318 0.0014,-0.00677 7.1e-4,-0.010147 -0.0013,-0.00675 -0.0054,-0.012599 -0.008,-0.018979 -0.004,-0.00991 -0.0043,-0.021197 -0.0012,-0.031445 0.003,-0.010248 0.0093,-0.019439 0.01747,-0.026361 0.0081,-0.00692 0.0181,-0.011604 0.02853,-0.013936 0.01043,-0.00233 0.02133,-0.00235 0.03186,-5.287e-4 0.02107,0.00364 0.04033,0.014462 0.05706,0.02778 0.01672,0.013318 0.03123,0.029157 0.04613,0.044491 0.154193,0.1587062 0.356043,0.2670678 0.569306,0.3260742 0.213263,0.059007 0.437837,0.070197 0.658332,0.051623 0.44099,-0.037148 0.862457,-0.190203 1.289651,-0.3057754 0.364537,-0.098621 0.743548,-0.1708446 1.118732,-0.127829 0.187592,0.021508 0.372742,0.072208 0.540465,0.1589396 0.167723,0.086732 0.317689,0.2101876 0.426557,0.3644634 0.202521,0.28699 0.248754,0.6716962 0.143845,1.0069156 -0.05815,0.1857996 -0.15948,0.3569506 -0.28769,0.5034586 -0.255951,0.292479 -0.610742,0.481543 -0.974906,0.617334 -0.364165,0.135791 -0.744306,0.224383 -1.110848,0.35362 -0.152379,0.05373 -0.304625,0.115768 -0.431535,0.215768 -0.04073,0.03209 -0.07847,0.06781 -0.118878,0.100304 -0.04041,0.03249 -0.08404,0.06201 -0.132851,0.0795 -0.04656,0.01668 -0.09642,0.02194 -0.143845,0.03596 -0.08405,0.02485 -0.158761,0.07727 -0.215768,0.143845 -0.0314,0.03667 -0.05775,0.07761 -0.09126,0.112352 -0.01675,0.01737 -0.03533,0.03317 -0.05623,0.04524 -0.0209,0.01207 -0.04422,0.02035 -0.06828,0.02221 -0.02392,0.0019 -0.04807,-0.0026 -0.07192,0 -0.04039,0.0044 -0.07566,0.02833 -0.108637,0.05207 -0.03298,0.02374 -0.06712,0.04872 -0.10713,0.05581 -0.02528,0.0045 -0.05127,0.0015 -0.07686,0.0036 -0.01279,0.0011 -0.02559,0.0035 -0.03736,0.0086 -0.01177,0.0051 -0.02252,0.01308 -0.02962,0.02377 -0.0075,0.01134 -0.01059,0.02495 -0.01474,0.03791 -0.0021,0.0065 -0.0045,0.0129 -0.0079,0.0188 -0.0034,0.0059 -0.0078,0.01131 -0.01337,0.01521 -0.0051,0.0035 -0.011,0.0058 -0.01709,0.0069 -0.0061,0.0011 -0.01233,0.0011 -0.01849,4.99e-4 -0.01231,-0.0012 -0.02422,-0.0049 -0.03635,-0.0074 -0.04675,-0.0094 -0.09604,3.43e-4 -0.138944,0.02115 -0.0429,0.02081 -0.07994,0.05216 -0.112785,0.08673 -0.02338,0.02461 -0.04505,0.05117 -0.07192,0.07192 -0.03192,0.02465 -0.06984,0.04009 -0.107353,0.0549 -0.03752,0.0148 -0.07562,0.0295 -0.108414,0.05299 -0.03149,0.02256 -0.0569,0.05237 -0.08435,0.07971 -0.02745,0.02734 -0.05834,0.05306 -0.09546,0.06414 -0.02312,0.0069 -0.04765,0.0078 -0.07174,0.0065 -0.02409,-0.0013 -0.04803,-0.0048 -0.0721,-0.0065 -0.07341,-0.005 -0.147952,0.0074 -0.215768,0.03596 z"
     id="path7"
     inkscape:path-effect="#path-effect7"
     inkscape:original-d="m 11.147994,12.802213 c 0.101211,-0.653242 -0.05112,-1.277304 -0.215767,-1.905947 -0.06633,-0.25326 -0.157747,-0.499895 -0.215768,-0.755187 -0.06202,-0.2728828 -0.09011,-0.5524751 -0.143845,-0.8271094 -0.05417,-0.2768927 -0.1282,-0.5497264 -0.179806,-0.8271093 -0.102401,-0.5504055 -0.261405,-1.4283707 -0.07192,-1.97787 0.05965,-0.1729796 0.178779,-0.3204656 0.28769,-0.4674965 0.131564,-0.1776111 0.266963,-0.3559097 0.431536,-0.5034578 0.834713,-0.7483635 2.416817,-1.234036 3.524204,-1.2586446 0.315487,-0.00701 1.171782,-0.1018026 1.40249,0.3596127 0.03791,0.075813 0.03067,0.1671325 0.03596,0.251729 0.03544,0.5670424 -0.05427,0.5336352 -0.539419,1.1867219 -0.658908,0.8869925 -1.980652,1.1848572 -2.912863,1.7261411 -0.963821,0.5596381 -0.02494,0.1259641 -0.827109,0.5034578 -0.0826,0.038872 -0.172466,0.062591 -0.251729,0.1078839 -0.01041,0.00595 -0.01199,0.035961 0,0.035961 0.01199,0 -0.01175,-0.03361 0,-0.035961 0.05877,-0.011754 0.119871,0 0.179806,0 1.806548,0 1.035143,-0.03587 2.517289,0.071922 0.609167,0.044303 1.531162,0.054287 2.085754,0.395574 0.169007,0.1040041 0.186583,0.8145952 0.143845,1.0069156 -0.03769,0.1696146 -0.165204,0.3809726 -0.28769,0.5034586 -0.620817,0.620817 -1.319773,0.664562 -2.085754,0.970954 -0.107945,0.04318 -0.322141,0.161071 -0.431535,0.215768 -0.09589,0.04794 -0.15584,0.131861 -0.251729,0.179806 -0.04421,0.0221 -0.09842,0.01649 -0.143845,0.03596 -0.07945,0.03405 -0.143845,0.0959 -0.215768,0.143845 -0.0779,0.05193 -0.135487,0.131639 -0.215767,0.179807 -0.02056,0.01233 -0.04918,-0.0076 -0.07192,0 -0.06471,0.02157 -0.141281,0.08926 -0.215767,0.107884 -0.07596,0.01899 -0.07593,-0.03195 -0.143846,0.03596 -0.01895,0.01895 -0.01366,0.05705 -0.03596,0.07192 -0.01995,0.0133 -0.04918,-0.0076 -0.07192,0 -0.01122,0.0037 -0.221044,0.08743 -0.251729,0.107884 -0.02821,0.01881 -0.04285,0.05448 -0.07192,0.07192 -0.345637,0.207382 0.147987,-0.164933 -0.215767,0.107884 -0.06753,0.05064 -0.108937,0.10841 -0.179807,0.143845 -0.02654,0.01327 -0.120881,-0.0029 -0.143845,0 -0.07235,0.009 -0.143845,0.02397 -0.215768,0.03596 z" />
  <path
     style="fill:none;stroke:#95aabf;stroke-width:1.079"
     d="m 34.450899,3.7040111 c 1.316632,-0.242341 2.679649,-0.2300617 3.991701,0.035961 0.607993,0.1232726 1.213811,0.3013333 1.834025,0.2876902 0.05681,-0.00125 0.113972,-0.0041 0.170194,0.00414 0.05622,0.00824 0.112336,0.028568 0.153458,0.067782 0.02529,0.024121 0.04409,0.054672 0.05614,0.087482 0.01205,0.03281 0.01748,0.06785 0.01798,0.1027991 0.001,0.069898 -0.01737,0.1385515 -0.03816,0.2052929 -0.110252,0.3538998 -0.291242,0.6808259 -0.467497,1.0069156 -0.08712,0.1611842 -0.174007,0.3238063 -0.28769,0.4674965 -0.233124,0.2946597 -0.563729,0.4921433 -0.86307,0.7192255 -0.225602,0.1711437 -0.437582,0.3626516 -0.683265,0.5034578 -0.224508,0.1286705 -0.471818,0.2118616 -0.719225,0.2876902 -0.547868,0.1679182 -1.105098,0.3037221 -1.654219,0.4674965 -0.702694,0.2095774 -1.392838,0.465398 -2.049792,0.791148 -0.227055,0.112585 -0.451622,0.2345205 -0.647303,0.395574 -0.483474,0.3979191 -0.749272,0.9966816 -0.970954,1.5822956 -0.04028,0.106413 -0.07975,0.213404 -0.107884,0.323652 -0.055,0.215481 -0.06555,0.444179 -0.01405,0.660522 0.0515,0.216344 0.167062,0.419544 0.337698,0.562161 0.05892,0.04924 0.123942,0.09116 0.179807,0.143845 0.06175,0.05823 0.111753,0.129089 0.179806,0.179806 0.07362,0.05487 0.163472,0.08257 0.251729,0.107884 0.4528,0.129895 0.915751,0.222862 1.366528,0.359613 0.476712,0.144619 0.943512,0.338973 1.438451,0.395574 0.20285,0.0232 0.407593,0.02282 0.611342,0.03596 0.264279,0.01704 0.526751,0.05683 0.791148,0.07192 0.418962,0.02392 0.839244,-0.01432 1.258644,0 0.360247,0.0123 0.723955,0.06314 1.078839,0 0.206199,-0.03668 0.404463,-0.111209 0.611341,-0.143845 0.06048,-0.0095 0.122069,-0.0156 0.179807,-0.03596 0.06613,-0.02332 0.124317,-0.06438 0.181028,-0.105626 0.05671,-0.04124 0.113674,-0.08361 0.178584,-0.110141 0.0477,-0.0195 0.09851,-0.02994 0.148136,-0.04385 0.04962,-0.01391 0.09926,-0.03191 0.139554,-0.06404 0.02659,-0.0212 0.04821,-0.04784 0.07025,-0.07373 0.02204,-0.0259 0.04508,-0.05158 0.07359,-0.07011 0.03191,-0.02074 0.06917,-0.03153 0.106164,-0.04047 0.037,-0.0089 0.07464,-0.0164 0.109603,-0.03145 0.04326,-0.01863 0.0809,-0.04828 0.115246,-0.08051 0.03435,-0.03223 0.06592,-0.06734 0.100522,-0.09929 0.16653,-0.153786 0.392387,-0.225837 0.57538,-0.359613 0.147513,-0.107839 0.266352,-0.258023 0.323652,-0.431535 0.0085,-0.02581 0.01571,-0.05211 0.02634,-0.07712 0.01062,-0.02501 0.02499,-0.04899 0.04559,-0.06672 0.01645,-0.01417 0.0362,-0.02382 0.05536,-0.03404 0.01916,-0.01022 0.03833,-0.02145 0.05252,-0.03788 0.01646,-0.01906 0.02501,-0.04381 0.02928,-0.06863 0.0043,-0.02482 0.0046,-0.05012 0.0067,-0.07522 0.0076,-0.09185 0.03861,-0.180444 0.07885,-0.263361 0.04024,-0.08292 0.08973,-0.160927 0.136919,-0.240097 0.05237,-0.08788 0.102237,-0.177884 0.136883,-0.274137 0.03465,-0.09625 0.05373,-0.199516 0.04292,-0.301243 -0.0019,-0.01803 -0.0048,-0.03598 -0.0057,-0.05409 -9.41e-4,-0.01811 7.4e-5,-0.03655 0.0057,-0.05379 0.0067,-0.02064 0.01974,-0.0386 0.03333,-0.05553 0.0136,-0.01693 0.02809,-0.03335 0.03859,-0.05236 0.02066,-0.03741 0.02423,-0.08169 0.02495,-0.124416 7.26e-4,-0.04273 -8.41e-4,-0.08625 0.01101,-0.1273123 0.01489,-0.051613 0.04969,-0.094942 0.07192,-0.1438451 0.02294,-0.050452 0.03212,-0.1059272 0.03977,-0.1608177 0.0077,-0.05489 0.0141,-0.110434 0.03215,-0.1628338 0.02105,-0.061126 0.0575,-0.1167835 0.07192,-0.1798063 0.0161,-0.070384 0.0034,-0.1436469 0,-0.2157677 -0.01094,-0.2309454 0.07365,-0.4546081 0.107884,-0.6832641 0.02316,-0.1546832 0.02316,-0.3128134 0,-0.4674966"
     id="path8"
     inkscape:path-effect="#path-effect8"
     inkscape:original-d="m 34.450899,3.7040111 c 1.316924,-0.236503 2.672544,-0.1223376 3.991701,0.035961 0.615227,0.073827 1.229158,0.1532753 1.834025,0.2876902 0.07449,0.016553 0.270971,0.019242 0.323652,0.071923 0.07387,0.073873 0.03596,0.3228364 0.03596,0.395574 0,0.4532138 -0.236197,0.6284255 -0.467497,1.0069156 -0.0899,0.1471067 -0.176847,0.3320217 -0.28769,0.4674965 -0.233188,0.2850077 -0.576727,0.5002568 -0.86307,0.7192255 -0.327685,0.2505825 -0.152717,0.1586017 -0.683265,0.5034578 -0.180869,0.1175649 -0.570599,0.235994 -0.719225,0.2876902 -0.542786,0.1887953 -1.109669,0.2859799 -1.654219,0.4674965 -0.674541,0.2248473 -1.407372,0.4699379 -2.049792,0.791148 -0.0015,7.506e-4 -0.614471,0.3658689 -0.647303,0.395574 -0.499682,0.4520936 -0.762538,0.9570456 -0.970954,1.5822956 -0.03596,0.107884 -0.08812,0.211663 -0.107884,0.323652 -0.07421,0.420536 0.09531,0.880173 0.323651,1.222683 0.05608,0.08413 0.102861,0.07652 0.179807,0.143845 0.06379,0.05582 0.10928,0.132789 0.179806,0.179806 0.07596,0.05064 0.16884,0.06963 0.251729,0.107884 0.460553,0.212563 0.879082,0.223128 1.366528,0.359613 0.477097,0.133587 0.952315,0.298347 1.438451,0.395574 0.318112,0.06362 0.27659,0.02002 0.611342,0.03596 0.265458,0.0023 0.52671,0.058 0.791148,0.07192 0.415967,0.02189 0.842448,0 1.258644,0 0.359613,0 0.720371,0.02868 1.078839,0 0.412399,-0.03299 0.301108,-0.05924 0.611341,-0.143845 0.05897,-0.01608 0.123056,-0.01326 0.179807,-0.03596 0.129793,-0.05192 0.237412,-0.147878 0.359612,-0.215767 0.08953,-0.04974 0.20084,-0.0536 0.28769,-0.107884 0.0575,-0.03594 0.0857,-0.108958 0.143846,-0.143845 0.06501,-0.03901 0.150281,-0.03372 0.215767,-0.07192 0.08087,-0.04717 0.138501,-0.126939 0.215768,-0.179806 0.186661,-0.127716 0.42512,-0.19057 0.57538,-0.359613 0.08042,-0.09047 0.25135,-0.305006 0.323652,-0.431535 0.0266,-0.04655 0.0376,-0.102662 0.07192,-0.143845 0.02767,-0.0332 0.08391,-0.03596 0.107884,-0.07192 0.02741,-0.04112 0.02033,-0.09696 0.03596,-0.143845 0.05824,-0.174733 0.160827,-0.327647 0.215768,-0.503458 0.05994,-0.191793 0.131071,-0.380439 0.179806,-0.57538 0.0087,-0.03489 -0.01137,-0.07377 0,-0.107884 0.01367,-0.041 0.05259,-0.06923 0.07192,-0.107884 0.0974,-0.194811 -0.02258,-0.01756 0.03596,-0.2517283 0.013,-0.052007 0.0531,-0.09365 0.07192,-0.1438451 0.04151,-0.1106801 0.03775,-0.2097286 0.07192,-0.3236515 0.01855,-0.06183 0.06038,-0.1162951 0.07192,-0.1798063 0.01287,-0.070763 -0.0051,-0.1440279 0,-0.2157677 0.01658,-0.2321929 0.08239,-0.4538281 0.107884,-0.6832641 0.01689,-0.1520141 0,-0.3139849 0,-0.4674966" />
</svg>
