<?xml version="1.0" encoding="UTF-8" standalone="no"?>
<svg
   width="41px"
   height="41px"
   viewBox="0 0 41 41"
   version="1.1"
   id="svg13"
   sodipodi:docname="ico_market.svg"
   inkscape:version="1.3.2 (091e20e, 2023-11-25, custom)"
   xmlns:inkscape="http://www.inkscape.org/namespaces/inkscape"
   xmlns:sodipodi="http://sodipodi.sourceforge.net/DTD/sodipodi-0.dtd"
   xmlns="http://www.w3.org/2000/svg"
   xmlns:svg="http://www.w3.org/2000/svg">
  <sodipodi:namedview
     id="namedview13"
     pagecolor="#ffffff"
     bordercolor="#000000"
     borderopacity="0.25"
     inkscape:showpageshadow="2"
     inkscape:pageopacity="0.0"
     inkscape:pagecheckerboard="0"
     inkscape:deskcolor="#d1d1d1"
     inkscape:zoom="28.609756"
     inkscape:cx="20.482523"
     inkscape:cy="20.5"
     inkscape:window-width="2560"
     inkscape:window-height="1369"
     inkscape:window-x="-8"
     inkscape:window-y="-8"
     inkscape:window-maximized="1"
     inkscape:current-layer="svg13" />
  <!-- Generator: Sketch 49 (51002) - http://www.bohemiancoding.com/sketch -->
  <title
     id="title1">icon/chartsandstatistics</title>
  <desc
     id="desc1">Created with Sketch.</desc>
  <defs
     id="defs1">
    <inkscape:path-effect
       effect="spiro"
       id="path-effect26"
       is_visible="true"
       lpeversion="1" />
    <inkscape:path-effect
       effect="spiro"
       id="path-effect25"
       is_visible="true"
       lpeversion="1" />
    <inkscape:path-effect
       effect="spiro"
       id="path-effect24"
       is_visible="true"
       lpeversion="1" />
    <inkscape:path-effect
       effect="spiro"
       id="path-effect23"
       is_visible="true"
       lpeversion="1" />
    <inkscape:path-effect
       effect="spiro"
       id="path-effect22"
       is_visible="true"
       lpeversion="1" />
    <inkscape:path-effect
       effect="spiro"
       id="path-effect21"
       is_visible="true"
       lpeversion="1" />
    <inkscape:path-effect
       effect="spiro"
       id="path-effect20"
       is_visible="true"
       lpeversion="1" />
    <inkscape:path-effect
       effect="spiro"
       id="path-effect19"
       is_visible="true"
       lpeversion="1" />
    <inkscape:path-effect
       effect="spiro"
       id="path-effect18"
       is_visible="true"
       lpeversion="1" />
    <inkscape:path-effect
       effect="spiro"
       id="path-effect17"
       is_visible="true"
       lpeversion="1" />
    <inkscape:path-effect
       effect="spiro"
       id="path-effect16"
       is_visible="true"
       lpeversion="1" />
    <inkscape:path-effect
       effect="spiro"
       id="path-effect15"
       is_visible="true"
       lpeversion="1" />
    <inkscape:path-effect
       effect="spiro"
       id="path-effect14"
       is_visible="true"
       lpeversion="1" />
  </defs>
  <path
     style="fill:none;stroke:#1c1f30;stroke-width:1.3;stroke-opacity:1"
     d="M 18.525149,5.9769821 C 16.354446,6.2276152 14.187095,6.5072735 12.02387,6.8158568 11.167648,6.9379966 10.307385,7.0657408 9.4844025,7.3317003 8.6614199,7.5976598 7.8703122,8.0105569 7.2702472,8.6334186 6.953305,8.9624015 6.6858221,9.3672023 6.6410912,9.8218244 c -0.019587,0.1990686 0.00426,0.3994726 0.012219,0.5993436 0.00796,0.199872 -0.00125,0.406109 -0.082125,0.589062 -0.080654,0.182462 -0.2265137,0.327916 -0.3803336,0.454948 -0.15382,0.127031 -0.3194681,0.240901 -0.4585411,0.383927 -0.2604227,0.267824 -0.4125686,0.622223 -0.5242967,0.978687 -0.08285,0.264329 -0.1465507,0.534212 -0.2097186,0.803922 -0.1460302,0.623511 -0.2899919,1.249859 -0.3495311,1.887468 -0.02717,0.290962 -0.03667,0.583495 -0.069906,0.873827 -0.064735,0.565484 -0.2187442,1.116699 -0.314578,1.67775 -0.069001,0.403963 -0.1078039,0.813556 -0.1048593,1.223359 0.00176,0.245544 0.018204,0.494287 -0.034953,0.734015 -0.051572,0.23258 -0.166527,0.446049 -0.2925729,0.648201 -0.1260459,0.202152 -0.2648501,0.397106 -0.3715362,0.610111 -0.2059548,0.4112 -0.2843361,0.872968 -0.3495312,1.328218 -0.049755,0.347432 -0.093399,0.698405 -0.069906,1.048594 0.012578,0.187493 0.044312,0.373086 0.069906,0.559249 0.051039,0.37124 0.077388,0.751846 0,1.1185 -0.022188,0.105124 -0.052797,0.208509 -0.069906,0.314578 -0.039042,0.242039 -0.00674,0.490475 -0.034953,0.734015 -0.021831,0.188478 -0.079575,0.371204 -0.1048593,0.55925 -0.02645,0.196712 -0.017043,0.396531 -0.034953,0.594203 -0.016957,0.187151 -0.058338,0.371689 -0.069906,0.55925 -0.032639,0.529184 0.172287,1.044023 0.2097187,1.57289 0.011522,0.162799 0.0071,0.326291 0,0.489343 -0.021296,0.489315 -0.066583,0.979275 -0.034953,1.468031 0.020555,0.31763 0.073508,0.632422 0.1398124,0.943734 0.096638,0.453735 0.222588,0.90352 0.4167947,1.324826 0.1942067,0.421305 0.4589711,0.814657 0.8065642,1.121892 0.5967568,0.527469 1.3905927,0.766564 2.167093,0.943734 0.4217015,0.09622 0.8476126,0.178873 1.258312,0.314578 0.2733034,0.09031 0.5383334,0.203614 0.8039216,0.314578 0.6653864,0.278 1.3460785,0.544624 2.0622332,0.629156 0.185775,0.02193 0.374829,0.03133 0.55925,0 0.153306,-0.02605 0.300915,-0.07982 0.45439,-0.104859 0.230456,-0.0376 0.465747,-0.0093 0.699062,0 0.244501,0.0098 0.489323,-0.0013 0.734016,0 0.422932,0.0023 0.846851,0.04195 1.258312,0.139812 0.405256,0.09639 0.794786,0.248154 1.188406,0.384484 0.495435,0.171594 1.019205,0.320954 1.537936,0.244672 0.223902,-0.03293 0.440154,-0.107255 0.66411,-0.139812 0.473504,-0.06883 0.957399,0.05172 1.433077,0 0.518973,-0.05643 0.991012,-0.312235 1.468031,-0.524297 0.475213,-0.211259 0.967637,-0.382648 1.468031,-0.524297 0.280313,-0.07935 0.563526,-0.149514 0.838874,-0.244672 0.370083,-0.127898 0.729854,-0.301848 1.1185,-0.349531 0.139275,-0.01709 0.280196,-0.01759 0.419437,-0.03495 0.152122,-0.01897 0.301555,-0.05799 0.454391,-0.06991 0.117009,-0.0091 0.236734,-0.0025 0.349531,-0.03495 0.107347,-0.03086 0.202908,-0.09621 0.279394,-0.177602 0.07649,-0.0814 0.134769,-0.178467 0.181649,-0.279846 0.09376,-0.202758 0.143466,-0.423709 0.238019,-0.626099 0.154651,-0.33103 0.421343,-0.596129 0.701966,-0.830113 0.280622,-0.233985 0.581658,-0.445482 0.835971,-0.707823 0.178569,-0.184206 0.337175,-0.395838 0.55925,-0.524297 0.185713,-0.107425 0.402534,-0.148192 0.616319,-0.166229 0.213785,-0.01804 0.429331,-0.01513 0.641993,-0.04349 0.176716,-0.02356 0.349765,-0.06849 0.524296,-0.104859 0.808639,-0.168517 1.670662,-0.159522 2.411765,-0.524297 0.452765,-0.222854 0.830048,-0.571947 1.258312,-0.838874 0.407396,-0.25392 0.859175,-0.432348 1.258312,-0.699063 0.110565,-0.07388 0.216884,-0.154454 0.314578,-0.244672 0.407452,-0.37627 0.643485,-0.896859 0.943734,-1.363171 0.140096,-0.217581 0.295471,-0.424918 0.454391,-0.629156 0.190902,-0.245339 0.388832,-0.489175 0.524296,-0.768968 0.06136,-0.126737 0.109339,-0.259799 0.174766,-0.384485 0.06789,-0.129371 0.154324,-0.249293 0.209718,-0.384484 0.04615,-0.112628 0.06958,-0.23304 0.10486,-0.349531 0.03954,-0.130542 0.09393,-0.256036 0.139812,-0.384484 0.238325,-0.667144 0.240803,-1.401918 0.10486,-2.097187 -0.01583,-0.08097 -0.03356,-0.162181 -0.03495,-0.244672 -0.0012,-0.07032 0.0095,-0.140227 0.01516,-0.210332 0.0056,-0.07011 0.006,-0.142035 -0.01516,-0.209105 -0.02356,-0.07465 -0.07223,-0.138567 -0.10486,-0.209719 -0.06976,-0.152085 -0.06275,-0.327411 -0.104859,-0.489343 -0.0093,-0.03568 -0.02097,-0.07074 -0.03495,-0.10486"
     id="path14"
     inkscape:path-effect="#path-effect14"
     inkscape:original-d="M 18.525149,5.9769821 C 16.981357,6.0942343 12.828237,6.6714833 12.02387,6.8158568 10.435773,7.1009 8.5923845,7.6237865 7.2702472,8.6334186 6.7749586,9.011639 6.6410912,9.2669917 6.6410912,9.8218244 c 0,0.4587836 0.248696,0.7901526 -0.069906,1.1884056 -0.5445321,0.680665 -0.2726121,-0.01052 -0.8388747,0.838875 -0.2052903,0.307935 -0.383384,0.636471 -0.5242967,0.978687 -0.1054456,0.256082 -0.1450879,0.534627 -0.2097186,0.803922 -0.1773337,0.73889 -0.2625306,1.133463 -0.3495311,1.887468 -0.033494,0.29028 -0.032904,0.583973 -0.069906,0.873827 -0.071879,0.563052 -0.2175584,1.119887 -0.314578,1.67775 -0.079354,0.456285 -0.089404,0.744234 -0.1048593,1.223359 -0.00347,0.107489 0.01592,0.617006 -0.034953,0.734015 -0.1891039,0.434939 -0.4678547,0.826552 -0.6641091,1.258312 -0.1465087,0.322319 -0.2898761,0.980231 -0.3495312,1.328218 -0.062073,0.362096 -0.094273,0.68309 -0.069906,1.048594 0.012497,0.187451 0.052897,0.372154 0.069906,0.559249 0.026807,0.294873 0.02438,0.838131 0,1.1185 -0.00931,0.107013 -0.059218,0.207694 -0.069906,0.314578 -0.024373,0.243733 -0.00863,0.490485 -0.034953,0.734015 -0.020386,0.188567 -0.082037,0.370963 -0.1048593,0.55925 -0.023875,0.196968 -0.01699,0.396608 -0.034953,0.594203 -0.017009,0.187096 -0.05741,0.371799 -0.069906,0.55925 -0.037013,0.555198 0.1568848,1.026939 0.2097187,1.57289 0.015712,0.162356 0,0.326229 0,0.489343 0,0.489505 -0.034953,0.979463 -0.034953,1.468031 0,0.397895 0.055556,0.550538 0.1398124,0.943734 0.2035108,0.949717 0.465232,1.772827 1.2233589,2.446718 0.6823454,0.606529 1.3065185,0.72859 2.167093,0.943734 0.4194373,0.104859 0.8399664,0.205444 1.258312,0.314578 0.5482412,0.143019 0.1857008,0.06729 0.8039216,0.314578 0.6462752,0.25851 1.3602139,0.544914 2.0622332,0.629156 0.185089,0.02221 0.375114,0.02907 0.55925,0 0.153542,-0.02424 0.299584,-0.09079 0.45439,-0.104859 0.232064,-0.0211 0.466042,0 0.699062,0 0.244672,0 0.48942,-0.0061 0.734016,0 0.483389,0.01208 0.792007,0.02677 1.258312,0.139812 0.259141,0.06282 0.952476,0.314343 1.188406,0.384484 0.66121,0.196576 0.80036,0.223598 1.537936,0.244672 0.323527,0.0092 0.394923,-0.109903 0.66411,-0.139812 0.449683,-0.04997 0.999631,0.07431 1.433077,0 0.442641,-0.07588 1.06776,-0.36055 1.468031,-0.524297 0.950226,-0.388729 0.542279,-0.250779 1.468031,-0.524297 0.279338,-0.08253 0.560312,-0.159555 0.838874,-0.244672 0.364173,-0.111274 0.742359,-0.281141 1.1185,-0.349531 0.138034,-0.0251 0.280139,-0.01824 0.419437,-0.03495 0.152154,-0.01826 0.302432,-0.05008 0.454391,-0.06991 0.116108,-0.01514 0.238448,0.0021 0.349531,-0.03495 0.508579,-0.169526 0.47112,-0.696046 0.699062,-1.083547 0.368375,-0.626238 1.010617,-1.060837 1.537937,-1.537936 0.107009,-0.09682 0.407358,-0.430825 0.55925,-0.524297 0.207849,-0.127907 1.013039,-0.173382 1.258312,-0.209719 0.176302,-0.02612 0.348206,-0.07735 0.524296,-0.104859 0.826857,-0.129196 1.645682,-0.131913 2.411765,-0.524297 1.544458,-0.791064 0.203612,-0.174804 1.258312,-0.838874 0.429447,-0.270393 0.830442,-0.38379 1.258312,-0.699063 0.106946,-0.0788 0.224813,-0.146746 0.314578,-0.244672 0.384997,-0.419996 0.632956,-0.897003 0.943734,-1.363171 0.143498,-0.215247 0.302663,-0.419628 0.454391,-0.629156 0.174676,-0.24122 0.3808,-0.505891 0.524296,-0.768968 0.06741,-0.12359 0.111807,-0.258567 0.174766,-0.384485 0.06529,-0.130574 0.152211,-0.2503 0.209718,-0.384484 0.04792,-0.111805 0.06639,-0.234133 0.10486,-0.349531 0.04312,-0.129374 0.113068,-0.25076 0.139812,-0.384484 0.121256,-0.606279 0.147409,-1.458946 0.10486,-2.097187 -0.0055,-0.0822 -0.02981,-0.162447 -0.03495,-0.244672 -0.0087,-0.13954 0.02298,-0.281527 0,-0.419437 -0.02549,-0.152969 -0.04045,-0.06479 -0.10486,-0.209719 -0.120213,-0.270478 -0.0345,-0.172743 -0.104859,-0.489343 -0.0104,-0.0468 -0.03495,-0.04564 -0.03495,-0.10486" />
  <path
     style="fill:none;stroke:#1c1f30;stroke-width:1.3;stroke-opacity:1"
     d="M 17.721228,9.087809 16.952259,9.716965"
     id="path15"
     inkscape:path-effect="#path-effect15"
     inkscape:original-d="M 17.721228,9.087809 C 17.328646,9.2454344 17.229684,9.3778905 16.952259,9.716965" />
  <path
     style="fill:none;stroke:#1c1f30;stroke-width:1.3;stroke-opacity:1"
     d="m 16.427962,14.26087 0.10486,0.244671"
     id="path16"
     inkscape:path-effect="#path-effect16"
     inkscape:original-d="m 16.427962,14.26087 c 0.03495,0.08156 0.06991,0.163114 0.10486,0.244671" />
  <path
     style="fill:none;stroke:#1c1f30;stroke-width:1.3;stroke-opacity:1"
     d="m 17.441603,15.83376 v 0.524296"
     id="path17"
     inkscape:path-effect="#path-effect17"
     inkscape:original-d="m 17.441603,15.83376 c 0,0.174765 0,0.349531 0,0.524296" />
  <path
     style="fill:none;stroke:#1c1f30;stroke-width:1.3;stroke-opacity:1"
     d="m 17.266837,18.769821 1.537937,0.838875"
     id="path18"
     inkscape:path-effect="#path-effect18"
     inkscape:original-d="m 17.266837,18.769821 c 0.45212,0.394162 0.995316,0.588434 1.537937,0.838875" />
  <path
     style="fill:none;stroke:#1c1f30;stroke-width:1.3;stroke-opacity:1"
     d="m 19.748508,20.342711 -0.174765,0.45439"
     id="path19"
     inkscape:path-effect="#path-effect19"
     inkscape:original-d="m 19.748508,20.342711 c -0.106877,0.267192 -0.04788,0.116018 -0.174765,0.45439" />
  <path
     style="fill:none;stroke:#1c1f30;stroke-width:1.3;stroke-opacity:1"
     d="m 18.630009,21.740835 0.594202,0.838875"
     id="path20"
     inkscape:path-effect="#path-effect20"
     inkscape:original-d="m 18.630009,21.740835 c 0.442838,0.684388 0.230952,0.415083 0.594202,0.838875" />
  <path
     style="fill:none;stroke:#1c1f30;stroke-width:1.3;stroke-opacity:1"
     d="m 21.356351,23.59335 h 0.55925"
     id="path21"
     inkscape:path-effect="#path-effect21"
     inkscape:original-d="m 21.356351,23.59335 c 0.186417,0 0.372833,0 0.55925,0" />
  <path
     style="fill:none;stroke:#1c1f30;stroke-width:1.3;stroke-opacity:1"
     d="m 23.034101,23.069054 1.887468,0.279625"
     id="path22"
     inkscape:path-effect="#path-effect22"
     inkscape:original-d="m 23.034101,23.069054 c 0.628413,0.09762 1.257863,0.189681 1.887468,0.279625" />
  <path
     style="fill:none;stroke:#1c1f30;stroke-width:1.3;stroke-opacity:1"
     d="m 25.935209,23.383632 2.02728,-0.244672"
     id="path23"
     inkscape:path-effect="#path-effect23"
     inkscape:original-d="m 25.935209,23.383632 c 0.608775,-0.359982 1.347864,-0.244672 2.02728,-0.244672" />
  <path
     style="fill:none;stroke:#1c1f30;stroke-width:1.3;stroke-opacity:1"
     d="m 28.696505,23.069054 1.537937,0.209718"
     id="path24"
     inkscape:path-effect="#path-effect24"
     inkscape:original-d="m 28.696505,23.069054 c 0.549731,-0.03842 0.965679,0.09527 1.537937,0.209718" />
  <path
     style="fill:none;stroke:#1c1f30;stroke-width:1.3;stroke-opacity:1"
     d="m 33.205456,23.488491 0.838875,0.279625"
     id="path25"
     inkscape:path-effect="#path-effect25"
     inkscape:original-d="m 33.205456,23.488491 c 0.472774,0.118193 0.189665,0.03617 0.838875,0.279625" />
  <path
     style="fill:none;stroke:#ff9500;stroke-width:1.3"
     d="m 25.341006,16.882353 c 0.02217,-1.386756 0.05712,-2.773308 0.104859,-4.15942 0.05497,-1.59619 0.126804,-3.196482 0,-4.7885766 C 25.403977,7.408437 25.340477,6.8844698 25.2711,6.3614663 25.134286,5.3300754 24.974377,4.3008244 24.746803,3.2855925 24.577098,2.5285197 24.36747,1.7735896 24.012788,1.0835465 c -0.04616,-0.089809 -0.0954,-0.18032849 -0.112826,-0.2797919 -0.0087,-0.0497317 -0.0091,-0.10133752 0.003,-0.15034016 0.01216,-0.0490026 0.03735,-0.0953152 0.07485,-0.12911776 0.04307,-0.0388205 0.100678,-0.0595372 0.158533,-0.0634 0.05785,-0.003863 0.115982,0.008318 0.170127,0.0290656 0.108291,0.0414949 0.200337,0.11569331 0.300496,0.17414681 0.292588,0.17075693 0.642614,0.20199767 0.978687,0.24467178 1.04717,0.1329684 2.070316,0.4129234 3.075874,0.7340153 1.161822,0.3709899 2.305,0.7977507 3.460358,1.1884058 0.233359,0.078904 0.47283,0.1593543 0.664109,0.3145781 0.07686,0.06237 0.144192,0.1355343 0.209718,0.2097186 0.290371,0.3287403 0.5509,0.6827997 0.838875,1.0136403 0.200248,0.2300554 0.413433,0.4484975 0.629156,0.6641091 1.153585,1.1529891 2.423172,2.286573 3.005968,3.8098892 0.09615,0.2513181 0.171953,0.5098978 0.244672,0.7689684 0.229301,0.8169103 0.429286,1.6432023 0.559249,2.4816713 0.03056,0.197149 0.05725,0.395102 0.06991,0.594203 0.01628,0.256119 0.0093,0.513618 0.03495,0.768968 0.05628,0.560174 0.267269,1.092139 0.384484,1.642796 0.03543,0.166443 0.06319,0.337396 0.139812,0.489344 0.07326,0.145287 0.18981,0.270238 0.23278,0.427174 0.02148,0.07847 0.02261,0.164834 -0.01095,0.238944 -0.01678,0.03706 -0.0421,0.07046 -0.07446,0.09512 -0.03235,0.02466 -0.07181,0.04033 -0.112421,0.04268 -0.01163,6.76e-4 -0.0233,2.8e-4 -0.03495,0 -0.05824,-0.0014 -0.116508,1.26e-4 -0.174765,0 -0.376297,-8.12e-4 -0.748682,-0.07028 -1.1185,-0.139812 -1.133306,-0.213078 -2.270828,-0.429634 -3.422901,-0.479752 -1.152073,-0.05012 -2.328103,0.07213 -3.392956,0.514702 -0.117733,0.04893 -0.234242,0.101802 -0.356433,0.138201 -0.122191,0.0364 -0.251574,0.05599 -0.377582,0.03656 -0.105643,-0.01629 -0.205045,-0.05923 -0.303158,-0.101647 -0.09811,-0.04242 -0.197651,-0.08513 -0.303372,-0.1009 -0.05286,-0.0079 -0.107009,-0.0089 -0.159637,4.34e-4 -0.05263,0.0093 -0.103741,0.02912 -0.14702,0.06048 -0.04328,0.03136 -0.07847,0.07452 -0.09745,0.124482 -0.01898,0.04996 -0.02115,0.106694 -0.003,0.156964 0.0021,0.0058 0.0045,0.01163 0.0051,0.01778 3.25e-4,0.0031 2.04e-4,0.0062 -6.02e-4,0.0092 -8.06e-4,0.003 -0.0023,0.0058 -0.0045,0.008 -0.0022,0.0021 -0.005,0.0036 -0.008,0.0043 -0.003,7.48e-4 -0.0061,8.29e-4 -0.0092,4.92e-4 -0.0061,-6.75e-4 -0.0119,-0.003 -0.01777,-0.0048 -0.0324,-0.01022 -0.06828,-0.0066 -0.09962,0.0065 -0.03135,0.01309 -0.05837,0.03522 -0.08045,0.06104 -0.04415,0.05164 -0.06865,0.116672 -0.09955,0.177178 -0.127028,0.248696 -0.368222,0.424801 -0.629156,0.524297 -0.187099,0.07134 -0.385942,0.107553 -0.574196,0.175788 -0.09413,0.03412 -0.185832,0.07644 -0.268203,0.133357 -0.08237,0.05691 -0.155361,0.128896 -0.206195,0.215151 -0.0539,0.09145 -0.08224,0.197305 -0.144767,0.283087 -0.03126,0.04289 -0.07154,0.08044 -0.12034,0.101316 -0.0244,0.01044 -0.05074,0.01657 -0.07727,0.01694 -0.02654,3.64e-4 -0.05325,-0.0051 -0.07706,-0.01685 -0.0058,-0.0029 -0.01163,-0.0062 -0.01806,-0.007 -0.0032,-4.42e-4 -0.0066,-2.48e-4 -0.0096,8.96e-4 -0.003,0.0011 -0.0058,0.0033 -0.0073,0.0061 -0.0014,0.0026 -0.0018,0.0057 -0.0015,0.0087 2.38e-4,0.003 0.001,0.0059 0.0018,0.0088 7.68e-4,0.0029 0.0015,0.0058 0.0017,0.0088 1.43e-4,0.003 -3.59e-4,0.0061 -0.0019,0.0086 -0.0017,0.0027 -0.0045,0.0046 -0.0075,0.0055 -0.003,9.33e-4 -0.0063,9.54e-4 -0.0094,4.46e-4 -0.0063,-0.001 -0.01199,-0.0041 -0.01804,-0.006 -0.0098,-0.0031 -0.02036,-0.0032 -0.03032,-8.46e-4 -0.01,0.0024 -0.01928,0.0071 -0.02736,0.01341 -0.01617,0.01255 -0.02716,0.03071 -0.03498,0.04962 -0.0078,0.01891 -0.01282,0.03886 -0.0193,0.05827 -0.0065,0.01942 -0.01465,0.03866 -0.02784,0.05431 -0.01384,0.01642 -0.03272,0.02817 -0.05297,0.03533 -0.02025,0.0072 -0.04186,0.0099 -0.06334,0.01012 -0.04295,4.75e-4 -0.08544,-0.0088 -0.12836,-0.0105 -0.09524,-0.0038 -0.188217,0.02993 -0.273139,0.07321 -0.08492,0.04328 -0.164638,0.09653 -0.251158,0.136511 -0.164582,0.07606 -0.347122,0.10133 -0.524297,0.139812 -0.492957,0.10707 -0.961754,0.323648 -1.363171,0.629156 -0.02105,0.01602 -0.04201,0.03235 -0.06503,0.04539 -0.02302,0.01305 -0.04838,0.02279 -0.07478,0.02452 -0.03236,0.0021 -0.06509,-0.0082 -0.09144,-0.02711 -0.02635,-0.0189 -0.04636,-0.04607 -0.05828,-0.07623 -0.01192,-0.03015 -0.01592,-0.06319 -0.01333,-0.09551 0.0026,-0.03232 0.01163,-0.06396 0.02487,-0.09356 0.02647,-0.0592 0.06905,-0.109637 0.113491,-0.156869 0.04444,-0.04723 0.09151,-0.09241 0.129554,-0.144927 0.07433,-0.102622 0.110501,-0.228587 0.126049,-0.354344 0.01555,-0.125758 0.01179,-0.252972 0.01376,-0.379672 0.0016,-0.10577 0.0074,-0.212435 0.03495,-0.314578 0.06434,-0.238898 0.239043,-0.42901 0.384485,-0.629156 0.06847,-0.09422 0.132013,-0.193209 0.215714,-0.274192 0.04185,-0.04049 0.08869,-0.07626 0.140769,-0.102304 0.05208,-0.02605 0.109585,-0.04219 0.167813,-0.04294 0.02331,-3.02e-4 0.04667,0.0018 0.06991,0 0.03686,-0.0029 0.07219,-0.01573 0.106304,-0.03001 0.03411,-0.01428 0.06773,-0.03021 0.103414,-0.0399 0.08174,-0.02221 0.172415,-0.0093 0.244672,0.03495 z"
     id="path26"
     inkscape:path-effect="#path-effect26"
     inkscape:original-d="m 25.341006,16.882353 c 0.186089,-1.367091 0.09403,-2.784232 0.104859,-4.15942 0.0122,-1.549522 0.08152,-3.2397315 0,-4.7885766 C 25.418139,7.4075623 25.338028,6.8847265 25.2711,6.3614663 25.139639,5.3336828 24.968566,4.2973839 24.746803,3.2855925 24.578923,2.5196386 24.29699,1.8098403 24.012788,1.0835465 23.977808,0.9941454 23.783711,0.58900467 23.977838,0.52429668 c 0.20381,-0.0679366 0.421023,0.0865693 0.629156,0.13981244 0.325778,0.0833387 0.650644,0.17074666 0.978687,0.24467178 2.070144,0.4665114 0.970197,0.1394715 3.075874,0.7340153 1.177529,0.3324789 2.341353,0.6910702 3.460358,1.1884058 0.223837,0.099483 0.454067,0.1885528 0.664109,0.3145781 0.08477,0.050864 0.141538,0.1381287 0.209718,0.2097186 1.525067,1.6013203 -0.40338,-0.4504462 0.838875,1.0136403 0.197287,0.2325171 0.423351,0.439096 0.629156,0.6641091 0.972324,1.0630741 2.416331,2.3685551 3.005968,3.8098892 0.101846,0.2489583 0.168456,0.511007 0.244672,0.7689684 0.240405,0.8136783 0.433357,1.6423903 0.559249,2.4816713 0.02958,0.197227 0.05618,0.395241 0.06991,0.594203 0.02947,0.427244 -0.03859,0.371843 0.03495,0.768968 0.102406,0.552994 0.248083,1.097192 0.384484,1.642796 0.04114,0.164577 0.10052,0.324315 0.139812,0.489344 0.02363,0.09924 0.07865,0.716532 0.03495,0.803921 -0.0052,0.01042 -0.0233,0 -0.03495,0 -0.05826,0 -0.116624,0.0036 -0.174765,0 -0.554991,-0.03469 -0.402348,-0.06024 -1.1185,-0.139812 -2.262729,-0.251414 -4.564816,-0.396097 -6.815857,0.03495 -0.247023,0.0473 -0.487388,0.12544 -0.734015,0.174766 -0.321639,0.06433 -0.695746,0.04899 -1.01364,0.139812 -0.0112,0.0032 0.0082,0.02671 0,0.03495 -0.0082,0.0082 -0.02453,-0.0052 -0.03495,0 -0.06933,0.03467 -0.244287,0.215223 -0.279625,0.244672 -0.212848,0.177373 -0.390652,0.381194 -0.629156,0.524297 -0.349068,0.20944 -0.721835,0.274422 -1.048594,0.524296 -0.120062,0.09181 -0.278105,0.290263 -0.419437,0.384485 -0.0097,0.0065 -0.02671,-0.0082 -0.03495,0 -0.0082,0.0082 0.0082,0.02671 0,0.03495 -0.0082,0.0082 -0.02671,-0.0082 -0.03495,0 -0.06964,0.06964 -0.04026,0.141581 -0.139813,0.174765 -0.07538,0.02513 -0.172389,0.01086 -0.244671,0.03495 -0.524297,0.174766 0.349531,-0.06991 -0.524297,0.209719 -0.172268,0.05513 -0.354314,0.078 -0.524297,0.139812 -0.461116,0.167679 -0.930475,0.396166 -1.363171,0.629156 -0.02353,0.01267 -0.138279,0.07144 -0.139813,0.06991 -0.07739,-0.07739 0.08411,-0.497374 0.10486,-0.594203 0.05099,-0.237959 0.0976,-0.494816 0.139812,-0.734016 0.01834,-0.103899 0.0094,-0.212223 0.03495,-0.314578 0.06109,-0.244336 0.23485,-0.436768 0.384485,-0.629156 0.181173,-0.232936 0.26868,-0.291629 0.524296,-0.419437 0.02084,-0.01042 0.0478,0.0074 0.06991,0 0.102161,-0.03405 0.06438,-0.06991 0.209718,-0.06991 0.08239,0 0.163115,0.0233 0.244672,0.03495 z" />
</svg>
