<?xml version="1.0" encoding="UTF-8" standalone="no"?>
<svg
   width="31px"
   height="32px"
   viewBox="0 0 31 32"
   version="1.1"
   id="svg2"
   sodipodi:docname="ico_config.svg"
   inkscape:version="1.3.2 (091e20e, 2023-11-25, custom)"
   xmlns:inkscape="http://www.inkscape.org/namespaces/inkscape"
   xmlns:sodipodi="http://sodipodi.sourceforge.net/DTD/sodipodi-0.dtd"
   xmlns="http://www.w3.org/2000/svg"
   xmlns:svg="http://www.w3.org/2000/svg">
  <sodipodi:namedview
     id="namedview2"
     pagecolor="#ffffff"
     bordercolor="#000000"
     borderopacity="0.25"
     inkscape:showpageshadow="2"
     inkscape:pageopacity="0.0"
     inkscape:pagecheckerboard="0"
     inkscape:deskcolor="#d1d1d1"
     inkscape:zoom="36.65625"
     inkscape:cx="15.495311"
     inkscape:cy="16"
     inkscape:window-width="2560"
     inkscape:window-height="1369"
     inkscape:window-x="-8"
     inkscape:window-y="-8"
     inkscape:window-maximized="1"
     inkscape:current-layer="svg2" />
  <!-- Generator: Sketch 49 (51002) - http://www.bohemiancoding.com/sketch -->
  <title
     id="title1">Development/icon</title>
  <desc
     id="desc1">Created with Sketch.</desc>
  <defs
     id="defs1">
    <inkscape:path-effect
       effect="spiro"
       id="path-effect9"
       is_visible="true"
       lpeversion="1" />
    <inkscape:path-effect
       effect="spiro"
       id="path-effect8"
       is_visible="true"
       lpeversion="1" />
    <inkscape:path-effect
       effect="spiro"
       id="path-effect7"
       is_visible="true"
       lpeversion="1" />
    <inkscape:path-effect
       effect="spiro"
       id="path-effect6"
       is_visible="true"
       lpeversion="1" />
    <inkscape:path-effect
       effect="spiro"
       id="path-effect5"
       is_visible="true"
       lpeversion="1" />
    <inkscape:path-effect
       effect="spiro"
       id="path-effect4"
       is_visible="true"
       lpeversion="1" />
    <inkscape:path-effect
       effect="spiro"
       id="path-effect3"
       is_visible="true"
       lpeversion="1" />
    <inkscape:path-effect
       effect="spiro"
       id="path-effect2"
       is_visible="true"
       lpeversion="1" />
  </defs>
  <path
     style="fill:none;stroke:#95aabf;stroke-width:1.079;stroke-opacity:1"
     d="m 14.131287,31.099744 h -2.973572 c -0.391448,0 -0.782926,0.01039 -1.1734363,0.03747 -0.3905099,0.02709 -0.7818184,0.06571 -1.1726845,0.04437 -0.3712809,-0.02027 -0.7370868,-0.09672 -1.1067652,-0.136699 -0.3696785,-0.03998 -0.752429,-0.04193 -1.1029535,0.08214 -0.1445271,0.05116 -0.2844249,0.123797 -0.4370415,0.138396 -0.076308,0.0073 -0.1552399,-7.56e-4 -0.2250247,-0.03248 -0.069785,-0.03172 -0.1296514,-0.08862 -0.1563481,-0.160478 -0.025753,-0.06932 -0.019441,-0.146898 0,-0.218244 0.015124,-0.0555 0.037819,-0.108649 0.054561,-0.163683 0.03858,-0.126822 0.044843,-0.261248 0.041489,-0.393766 -0.00335,-0.132519 -0.016034,-0.26482 -0.014209,-0.397368 0.00241,-0.175092 0.030677,-0.351088 0.096922,-0.513182 0.066245,-0.162094 0.1716848,-0.309977 0.312285,-0.414354 0.2028566,-0.150594 0.4640277,-0.201602 0.7166365,-0.205849 0.2526088,-0.0042 0.5040007,0.03388 0.7565093,0.04217 0.2363409,0.0078 0.4730643,-0.01065 0.7092924,0 0.2840994,0.01281 0.5643743,0.06746 0.8456948,0.109122 0.9646646,0.142845 1.9443086,0.133102 2.9190116,0.163683 0.600108,0.01883 1.200661,0.05305 1.800511,0.02728 0.692729,-0.02976 1.380375,-0.139391 2.073317,-0.163682 0.563511,-0.01975 1.127789,0.01703 1.691389,0 0.191097,-0.0058 0.381945,-0.01773 0.57289,-0.02728 0.417934,-0.02089 0.836456,-0.03022 1.254902,-0.02728 0.409252,0.0029 0.818733,0.01749 1.227622,0 0.810717,-0.03467 1.624452,-0.195135 2.427962,-0.08184 0.06825,0.0096 0.136378,0.02122 0.205219,0.02461 0.06884,0.0034 0.138982,-0.0017 0.203988,-0.02461 0.09554,-0.03367 0.175401,-0.103988 0.27226,-0.133651 0.04843,-0.01483 0.10167,-0.01873 0.149317,-0.0015 0.02382,0.0086 0.0459,0.02242 0.06311,0.04099 0.01722,0.01857 0.02944,0.04196 0.03364,0.06693 0.006,0.03595 -0.0045,0.07294 0,0.109122 0.0029,0.02351 0.01206,0.04591 0.024,0.06637 0.01195,0.02045 0.02667,0.03914 0.04153,0.05759 0.02972,0.0369 0.06119,0.07519 0.07087,0.121567 0.0039,0.01865 0.004,0.03786 0.0066,0.05673 0.0026,0.01887 0.008,0.03812 0.02063,0.0524 0.01093,0.01238 0.0262,0.01989 0.04103,0.02714 0.01483,0.0073 0.03006,0.01489 0.04081,0.02742 0.0095,0.01103 0.01472,0.02508 0.0182,0.03919 0.0035,0.01412 0.0054,0.0286 0.0091,0.04265 0.01341,0.05062 0.04945,0.09191 0.08681,0.128617 0.03736,0.0367 0.07779,0.07166 0.104155,0.116907 0.01459,0.02504 0.02454,0.05299 0.02728,0.08184 0.0032,0.0339 -0.0036,0.06832 -0.01673,0.09973 -0.01316,0.03141 -0.03252,0.05993 -0.05461,0.08584 -0.04419,0.05182 -0.09908,0.09332 -0.146908,0.141797 -0.0782,0.07926 -0.136274,0.175821 -0.190963,0.272804 -0.05319,0.09432 -0.104149,0.190381 -0.168551,0.277432 -0.0644,0.08705 -0.143595,0.16561 -0.240656,0.213617 -0.08701,0.04304 -0.18495,0.05986 -0.281941,0.06382 -0.09699,0.004 -0.193996,-0.0044 -0.290949,-0.0093 -0.327265,-0.01625 -0.65498,0.0083 -0.982097,0.02728 -0.681205,0.03958 -1.363683,0.05526 -2.046036,0.05456 -0.227339,-2.33e-4 -0.454685,-0.0023 -0.682012,0 -0.347077,0.0035 -0.695625,0.01725 -1.036658,0.08184 -0.347224,0.06576 -0.684937,0.183879 -1.036659,0.218244 -0.154141,0.01506 -0.309477,0.01384 -0.463768,0.02728 -0.219169,0.01909 -0.435191,0.06765 -0.654731,0.08184 -0.190616,0.01232 -0.381881,-0.0014 -0.57289,0 -0.172861,0.0013 -0.346103,0.01486 -0.518329,0 -0.17887,-0.01544 -0.355031,-0.06179 -0.518329,-0.136403 -0.06232,-0.01639 -0.126543,-0.02557 -0.190964,-0.02728 -0.05455,-0.0014 -0.109168,0.0024 -0.163682,0 -0.104432,-0.0047 -0.207748,-0.03284 -0.300086,-0.08184 z"
     id="path2"
     inkscape:path-effect="#path-effect2"
     inkscape:original-d="m 14.131287,31.099744 c -0.99119,0 -1.982381,0 -2.973572,0 -1.9649245,0 0.244755,-0.01781 -2.3461208,0.08184 -0.7377621,0.02838 -1.4745367,-0.002 -2.2097187,-0.05456 -0.027583,-0.002 -0.7256432,-0.02364 -0.8184143,-0.05456 -9.807e-4,-3.27e-4 -0.007,-0.179726 0,-0.218244 0.010288,-0.05659 0.045591,-0.106874 0.054561,-0.163683 0.033044,-0.209276 0.033902,-0.59249 0.02728,-0.791134 -0.015564,-0.466919 -0.1001441,-0.713072 0.4092072,-0.927536 0.458109,-0.192888 0.9922052,-0.163683 1.4731458,-0.163683 0.2364308,0 0.4734416,-0.01655 0.7092924,0 0.283538,0.0199 0.5626037,0.08364 0.8456948,0.109122 1.6411646,0.147705 1.5754436,0.12737 2.9190116,0.163683 0.312358,0.0084 1.439668,0.04928 1.800511,0.02728 1.824231,-0.111233 0.85741,-0.137812 2.073317,-0.163682 0.563485,-0.01199 1.127966,0.01445 1.691389,0 0.191117,-0.0049 0.381927,-0.01819 0.57289,-0.02728 0.418301,-0.0091 0.836545,-0.0213 1.254902,-0.02728 0.409166,-0.0058 0.818536,0.01 1.227622,0 0.809453,-0.01974 1.618376,-0.05996 2.427962,-0.08184 0.136353,-0.0037 0.272881,0.0045 0.409207,0 0.17292,-0.0058 0.35048,-0.06924 0.518329,-0.02728 0.01817,0.0045 -0.02162,0.04426 0,0.109122 0.02961,0.08882 0.101632,0.158597 0.136403,0.245524 0.01393,0.03481 0.0065,0.07793 0.02728,0.109122 0.01819,0.02728 0.06136,0.02896 0.08184,0.05456 0.01796,0.02246 0.0086,0.06001 0.02728,0.08184 0.207267,0.241811 0.08734,-0.03081 0.190964,0.245524 0.0101,0.02693 0.03046,0.05326 0.02728,0.08184 -0.02251,0.202549 -0.08964,0.16908 -0.218244,0.327366 -0.07,0.08615 -0.130662,0.179612 -0.190963,0.272804 -0.167227,0.258441 -0.10271,0.388883 -0.409207,0.491049 -0.19266,0.06422 -0.371283,0.04709 -0.57289,0.05456 -1.042881,0.03862 0.239354,0.02728 -0.982097,0.02728 -0.68333,0 -1.363812,0.02929 -2.046036,0.05456 -0.0465,0.0017 -0.621601,-0.0016 -0.682012,0 -0.638947,0.01682 -0.560484,-0.0047 -1.036658,0.08184 -0.347761,0.06323 -0.684808,0.175595 -1.036659,0.218244 -0.153731,0.01863 -0.309631,0.01236 -0.463768,0.02728 -1.392733,0.134781 0.400059,-0.0061 -0.654731,0.08184 -0.188398,0.0157 -0.384279,0 -0.57289,0 -0.156224,0 -0.362672,0.02919 -0.518329,0 -0.167754,-0.03145 -0.345359,-0.114782 -0.518329,-0.136403 -0.285049,0 0.04173,0.0115 -0.190964,-0.02728 -0.05075,-0.0085 -0.113335,0.01259 -0.163682,0 -0.109035,-0.02726 -0.186222,-0.05907 -0.300086,-0.08184 z" />
  <path
     style="fill:none;stroke:#95aabf;stroke-width:1.079;stroke-opacity:1"
     d="m 12.603581,28.344416 c -0.503359,-0.469535 -0.813658,-1.140183 -0.845695,-1.827792 -0.0093,-0.199868 0.0039,-0.400123 0,-0.60017 -0.0032,-0.163796 -0.01773,-0.328184 0,-0.491049 0.01967,-0.180672 0.07849,-0.354354 0.13016,-0.528592 0.05167,-0.174239 0.09688,-0.353821 0.08808,-0.535347 -0.0043,-0.08787 -0.02163,-0.176209 -0.06146,-0.254652 -0.03983,-0.07844 -0.10348,-0.14654 -0.184065,-0.181835 -0.01868,-0.0082 -0.03846,-0.01476 -0.05456,-0.02728 -0.02147,-0.01669 -0.03443,-0.043 -0.03758,-0.07001 -0.0031,-0.02702 0.003,-0.0546 0.01443,-0.07926 0.02295,-0.04932 0.06554,-0.08608 0.104988,-0.123534 0.01865,-0.01771 0.03685,-0.03591 0.05456,-0.05456"
     id="path3"
     inkscape:path-effect="#path-effect3"
     inkscape:original-d="m 12.603581,28.344416 c -0.417906,-0.49737 -0.78001,-1.170942 -0.845695,-1.827792 -0.01991,-0.199064 0,-0.400114 0,-0.60017 0,-0.163683 -0.01021,-0.327685 0,-0.491049 0.02301,-0.3682 0.181956,-0.701059 0.218244,-1.063939 0.0196,-0.195989 -0.09996,-0.320032 -0.245525,-0.436487 -0.01588,-0.0127 -0.04018,-0.0129 -0.05456,-0.02728 -0.0043,-0.0043 0.05694,-0.222994 0.08184,-0.272805 0.0115,-0.023 0.03637,-0.03637 0.05456,-0.05456" />
  <path
     style="fill:none;stroke:#95aabf;stroke-width:1.079;stroke-opacity:1"
     d="m 17.077579,24.606991 c 0.116636,0.06331 0.265291,0.06331 0.381927,0 0.0179,-0.0097 0.03523,-0.02088 0.05456,-0.02728 0.03104,-0.01028 0.06569,-0.0074 0.09588,0.0052 0.03019,0.01256 0.05606,0.0343 0.07621,0.06004 0.04031,0.0515 0.05762,0.116829 0.07343,0.180287 0.153618,0.616513 0.257218,1.245524 0.436487,1.855073 0.107176,0.364418 0.241228,0.721263 0.327366,1.091219 0.03561,0.152963 0.06295,0.307854 0.08184,0.463768"
     id="path4"
     inkscape:path-effect="#path-effect4"
     inkscape:original-d="m 17.077579,24.606991 c 0.12653,-0.01406 0.255396,0.01406 0.381927,0 0.02021,-0.0022 0.03462,-0.03127 0.05456,-0.02728 0.113494,0.0227 0.182648,0.148352 0.245525,0.245524 0.341631,0.527977 0.313144,1.258915 0.436487,1.855073 0.07735,0.373834 0.223121,0.726361 0.327366,1.091219 0.04012,0.140411 -0.02709,0.354834 0.08184,0.463768" />
  <path
     style="fill:none;stroke:#ff9500;stroke-width:1.079"
     d="M 13.231032,23.40665 C 11.576518,23.087839 9.8957959,22.905152 8.2114237,22.86104 7.6659214,22.846754 7.1201245,22.846972 6.5745951,22.83376 c -0.1545887,-0.0037 -0.3093715,-0.0086 -0.4637682,0 -0.1375346,0.0076 -0.2744783,0.02589 -0.4092071,0.05456 -0.245061,0.01841 -0.4908213,0.02752 -0.7365729,0.02728 -0.5007202,-4.78e-4 -1.0041859,-0.03955 -1.5004263,0.02728 -0.183843,0.02476 -0.3661031,0.06401 -0.5513434,0.07387 C 2.7280368,23.026608 2.5358999,23.005073 2.3734015,22.9156 2.2595556,22.852915 2.1652112,22.759651 2.0835328,22.658562 2.0018543,22.557474 1.9315384,22.447798 1.8550725,22.342711 1.6042455,21.998 1.2886447,21.704478 1.0366581,21.360614 0.50641626,20.637039 0.28777052,19.735007 0.13640239,18.85081 c -0.0529803,-0.309478 -0.0992359,-0.620242 -0.16368287,-0.927536 -0.05162717,-0.246167 -0.11487265,-0.489832 -0.16368286,-0.736573 -0.11193186,-0.565829 -0.14718864,-1.14354 -0.19096334,-1.71867 -0.0138242,-0.181628 -0.0285329,-0.363461 -0.0272805,-0.54561 0.002524,-0.367066 0.0697371,-0.730249 0.13640239,-1.091219 0.10491751,-0.568093 0.211607,-1.144347 0.46376811,-1.664109 C 0.421975,11.690925 0.76656106,11.280184 1.1184996,10.88491 1.6518261,10.285912 2.2138293,9.7053271 2.6462063,9.029838 2.9558708,8.5460589 3.1971287,8.012511 3.3009378,7.4475703 c 0.049585,-0.2698476 0.06754,-0.5444218 0.081841,-0.8184143 0.00664,-0.1272626 0.012505,-0.2551059 0,-0.3819267 C 3.3556356,5.9719529 3.2417774,5.7096641 3.0826939,5.483376 2.9475143,5.29109 2.7787472,5.120647 2.6734868,4.9104859 2.5871047,4.7380171 2.5474678,4.5465067 2.4825234,4.3648764 2.3560724,4.0112304 2.1331377,3.6935518 2.0460358,3.3282182 2.007802,3.167853 1.9968791,3.0005718 2.0187553,2.8371697 2.0463728,2.6308838 2.1255838,2.4340056 2.2291641,2.2534849 2.3327445,2.0729642 2.4605204,1.9075763 2.5916454,1.7459506 2.7136252,1.5955974 2.8410037,1.445984 3.0008525,1.3367434 3.1613529,1.2270575 3.3490942,1.1622828 3.5398032,1.1245805 3.7305121,1.0868782 3.9252773,1.0751778 4.1193521,1.0639386 4.9190949,1.017624 5.7192762,0.97763049 6.5200341,0.95481671 7.5116278,0.92656597 8.5047551,0.9246246 9.4936061,0.8456948 c 0.3184302,-0.025417 0.6362059,-0.0588039 0.9548169,-0.0818414 0.453904,-0.0328199 0.909044,-0.0446031 1.364024,-0.054561 1.145653,-0.0250743 2.291523,-0.0386352 3.43734,-0.0545609 0.309311,-0.004299 0.618749,-0.008775 0.927536,-0.0272805 0.38301,-0.0229534 0.764352,-0.0674488 1.14578,-0.10912191 0.871648,-0.0952323 1.744866,-0.17582282 2.618926,-0.2455243 C 20.733217,0.2097119 21.52516,0.15553462 22.315431,0.08184143 22.651571,0.05049621 22.987571,0.0156086 23.324808,0 c 0.726776,-0.03363792 1.454884,0 2.182438,0 h 2.618926 c 0.392259,0 0.781583,0.0571025 1.173061,0.08184143 0.09324,0.0058925 0.187388,0.0078731 0.278461,0.0287363 0.09107,0.0208632 0.180549,0.062762 0.239868,0.13494657 0.03588,0.0436597 0.0593,0.096768 0.0719,0.15185499 0.0126,0.055087 0.01468,0.11219626 0.01081,0.16857391 -0.0077,0.11275531 -0.03887,0.222502 -0.05543,0.33430255 -0.03418,0.23073615 -0.0056,0.46770735 0.0583,0.69204725 0.06387,0.22434 0.16225,0.4373384 0.26907,0.6446961 0.351077,0.6815072 0.806609,1.3397177 0.900256,2.1005968 0.0393,0.3193538 0.01151,0.6468933 -0.08184,0.9548167 -0.111138,0.3665834 -0.311249,0.6984167 -0.491048,1.0366582 -0.225479,0.4241751 -0.421224,0.8636566 -0.600171,1.3094629 -0.349832,0.8715308 -0.636483,1.7693331 -1.036658,2.6189263 -0.310821,0.659891 -0.690845,1.292752 -0.900256,1.991474 -0.07282,0.242986 -0.124294,0.491827 -0.190963,0.736573 -0.01972,0.07237 -0.04079,0.144509 -0.05456,0.218244 -0.05905,0.316128 0.01856,0.639509 0.08184,0.954817 0.07125,0.355037 0.124829,0.714078 0.218244,1.063938 0.09799,0.366984 0.239265,0.721737 0.327366,1.091219 0.109687,0.460006 0.135931,0.938644 0.272805,1.391305 0.02748,0.09089 0.05938,0.180543 0.08184,0.272805 0.06278,0.257897 0.05007,0.527612 0.08184,0.791133 0.02907,0.24119 0.09529,0.476183 0.163683,0.709293 0.02919,0.09951 0.05885,0.198966 0.08184,0.300085 0.06716,0.29542 0.07602,0.606991 0,0.900256 -0.03609,0.139224 -0.09071,0.272833 -0.136402,0.409207 -0.05346,0.159545 -0.09475,0.323019 -0.150222,0.481875 -0.05547,0.158856 -0.126173,0.314606 -0.231705,0.445661 -0.069,0.08568 -0.152308,0.159827 -0.245524,0.218244 -0.220893,0.138431 -0.488936,0.184017 -0.749618,0.182957 -0.260683,-0.0011 -0.518939,-0.04559 -0.778089,-0.07383 -0.904974,-0.09865 -1.818084,0.0013 -2.728048,0.02728 -0.945774,0.02699 -1.89445,-0.02604 -2.83717,0.05456 -0.3372,0.02883 -0.672703,0.07469 -1.009377,0.109122 -0.552734,0.05653 -1.108492,0.0822 -1.664109,0.08184 -0.43653,-2.83e-4 -0.873249,-0.01662 -1.309463,0 -0.309382,0.01178 -0.620532,0.04006 -0.927536,0 -0.284869,-0.03717 -0.560105,-0.132533 -0.845695,-0.163683 -0.108865,-0.01187 -0.218623,-0.01434 -0.327366,-0.02728 -0.127162,-0.01514 -0.255046,-0.04461 -0.381927,-0.02728 -0.0915,0.0125 -0.177872,0.04886 -0.261779,0.08743 -0.08391,0.03857 -0.167268,0.07994 -0.25655,0.103533 -0.07984,0.0211 -0.162942,0.02752 -0.245524,0.02728 -0.09559,-2.8e-4 -0.193427,-0.0091 -0.284922,0.01858 -0.04575,0.01383 -0.08931,0.03708 -0.122521,0.07145 -0.03321,0.03437 -0.05541,0.08043 -0.05632,0.128218 -7.99e-4,0.0419 0.01432,0.08244 0.03209,0.120388 0.01777,0.03795 0.03854,0.07482 0.05031,0.115038 0.0059,0.02011 0.0095,0.04101 0.009,0.06196 -4.33e-4,0.02095 -0.005,0.04197 -0.01463,0.06057 -0.0097,0.0186 -0.02457,0.03467 -0.04314,0.04437 -0.01857,0.0097 -0.04083,0.01272 -0.06095,0.0069 -0.0046,-0.0013 -0.0091,-0.0031 -0.01387,-0.0037 -0.0024,-2.75e-4 -0.0048,-2.33e-4 -0.0071,3.31e-4 -0.0023,5.64e-4 -0.0045,0.0017 -0.0063,0.0033 -0.0017,0.0017 -0.0029,0.0039 -0.0035,0.0062 -6.21e-4,0.0023 -7.03e-4,0.0048 -4.41e-4,0.0072 5.25e-4,0.0048 0.0024,0.0093 0.004,0.01388 0.0086,0.02474 0.0089,0.05225 9.66e-4,0.07719 -0.0079,0.02494 -0.02415,0.04718 -0.04545,0.0624 -0.0213,0.01522 -0.0476,0.02333 -0.07377,0.02276 -0.02618,-5.7e-4 -0.05209,-0.0098 -0.07271,-0.02595 z"
     id="path5"
     inkscape:path-effect="#path-effect5"
     inkscape:original-d="M 13.231032,23.40665 C 11.618924,22.872783 9.8896143,22.908988 8.2114237,22.86104 7.0293624,22.827267 7.5750091,22.83376 6.5745951,22.83376 c -0.1545894,0 -0.3094798,-0.0096 -0.4637682,0 -0.1373415,0.0086 -0.2728047,0.03637 -0.4092071,0.05456 -0.2455243,0.0091 -0.4910486,0.01819 -0.7365729,0.02728 -0.9910162,0.0367 -0.4908803,0.02728 -1.5004263,0.02728 -0.1905616,0 -0.8797966,0.0496 -1.0912191,-0.02728 C 2.2384977,22.866545 1.9061681,22.402323 1.8550725,22.342711 1.7147046,22.178949 1.1181429,21.517472 1.0366581,21.360614 0.5614153,20.445771 0.34259099,19.799277 0.13640239,18.85081 0.06970882,18.544019 0.0333199,18.231326 -0.02728048,17.923274 -0.0758281,17.67649 -0.14725397,17.434387 -0.19096334,17.186701 c -0.0967923,-0.54849 -0.16161363,-1.161026 -0.19096334,-1.71867 -0.009571,-0.181846 -0.0393934,-0.363916 -0.0272805,-0.54561 0.0243839,-0.365758 0.0871486,-0.727973 0.13640239,-1.091219 0.0755124,-0.556904 0.20032011,-1.161163 0.46376811,-1.664109 C 0.35722412,11.849686 0.92829846,11.121502 1.1184996,10.88491 1.9163223,9.8924969 1.6726751,10.3047 2.6462063,9.029838 2.905422,8.6903889 3.2332586,7.8729824 3.3009378,7.4475703 3.3440133,7.17681 3.3641294,6.9026864 3.3827792,6.629156 c 0.00866,-0.127014 0.018657,-0.2559923 0,-0.3819267 C 3.3540179,6.0530904 3.1742904,5.6342408 3.0826939,5.483376 2.7144688,4.8768874 2.9137351,5.3609515 2.6734868,4.9104859 2.5712845,4.7188567 2.5613603,4.5838676 2.4825234,4.3648764 2.3555259,4.0121054 2.174167,3.680579 2.0460358,3.3282182 2.0046092,3.214295 2.0187553,2.9276656 2.0187553,2.8371697 c 0,-0.4988754 0.2603148,-0.7305554 0.5728901,-1.0912191 C 2.7232666,1.5940799 2.8328573,1.4522401 3.0008525,1.3367434 3.3268063,1.1126501 3.7395288,1.0937287 4.1193521,1.0639386 4.8550377,1.0062378 5.8200515,0.98004131 6.5200341,0.95481671 6.7550439,0.94634789 9.192585,0.86299486 9.4936061,0.8456948 9.8125192,0.8273665 10.129741,0.7858315 10.448423,0.7638534 10.616445,0.7522657 11.693934,0.7133791 11.812447,0.7092924 12.958353,0.6697784 14.103833,0.6911109 15.249787,0.6547315 15.558944,0.6449165 15.868678,0.6477565 16.177323,0.627451 16.56015,0.602265 16.94106,0.5534595 17.323103,0.51832909 18.196223,0.43804219 19.0689,0.35299011 19.942029,0.27280479 21.166792,0.16032658 21.154371,0.17231363 22.315431,0.08184143 22.651974,0.05561729 22.987494,0.01297361 23.324808,0 c 0.726942,-0.0279593 1.454959,0 2.182438,0 0.872976,0 1.745951,0 2.618926,0 0.682995,0 0.533482,-0.03102545 1.173061,0.08184143 0.118018,0.02082675 0.398873,0.04422748 0.518329,0.16368287 0.08789,0.0878894 0.0066,0.54266209 0.02728,0.65473145 0.08329,0.45112505 0.177488,0.90316895 0.327366,1.33674335 0.199893,0.5782628 0.865912,1.4595041 0.900256,2.1005968 0.01709,0.3189819 -0.01693,0.6420429 -0.08184,0.9548167 -0.02804,0.1350918 -0.447806,0.9458486 -0.491048,1.0366582 -0.206433,0.4335086 -0.405947,0.8703486 -0.600171,1.3094629 -0.380195,0.859572 -0.649263,1.7634278 -1.036658,2.6189263 -0.303517,0.670267 -0.649034,1.300615 -0.900256,1.991474 -0.08764,0.241022 -0.141076,0.48714 -0.190963,0.736573 -0.01471,0.07353 -0.04628,0.143716 -0.05456,0.218244 -0.03655,0.328961 0.02026,0.634601 0.08184,0.954817 0.06805,0.353867 0.128433,0.714671 0.218244,1.063938 0.09457,0.367791 0.223039,0.726076 0.327366,1.091219 0.131434,0.46002 0.167334,0.927232 0.272805,1.391305 0.02104,0.09258 0.06571,0.179246 0.08184,0.272805 0.04505,0.261263 0.03642,0.529936 0.08184,0.791133 0.04158,0.239057 0.104833,0.473893 0.163683,0.709293 0.02515,0.100586 0.06567,0.197672 0.08184,0.300085 0.02126,0.13464 0.01268,0.798824 0,0.900256 -0.01827,0.146133 -0.09178,0.275338 -0.136402,0.409207 -0.140599,0.421796 -0.119627,0.616055 -0.381927,0.927536 -0.07053,0.08376 -0.15076,0.163381 -0.245524,0.218244 -0.326678,0.189129 -1.25183,0.105492 -1.527707,0.109122 -2.917792,0.03839 0.635958,0.02728 -2.728048,0.02728 -1.096183,0 -1.763893,-0.0212 -2.83717,0.05456 -0.337579,0.02383 -0.67223,0.07981 -1.009377,0.109122 -0.446353,0.03881 -1.206034,0.07366 -1.664109,0.08184 -0.436418,0.0078 -0.872976,0 -1.309463,0 -0.275384,0 -0.6325,0.02107 -0.927536,0 -0.309997,-0.02214 -0.498773,-0.104211 -0.845695,-0.163683 -0.107926,-0.0185 -0.218277,-0.01779 -0.327366,-0.02728 -0.127153,-0.01106 -0.256772,-0.05231 -0.381927,-0.02728 -0.179446,0.03589 -0.333343,0.153966 -0.518329,0.190963 -0.08075,0.01615 -0.165007,0.01003 -0.245524,0.02728 -9.1e-4,1.95e-4 -0.449924,0.2044 -0.463768,0.218244 -0.07067,0.07067 0.01323,0.368691 -0.02728,0.409207 -0.0064,0.0064 -0.02085,-0.0064 -0.02728,0 -0.0064,0.0064 0.0041,0.01915 0,0.02728 -0.02764,0.05528 -0.169232,0.123364 -0.190963,0.136403 z" />
  <path
     style="fill:none;stroke:#1c3c55;stroke-width:1.079;stroke-opacity:1"
     d="m 16.341006,19.614663 c -1.83643,0.05644 -3.674874,0.04734 -5.510656,-0.02728 C 9.637796,19.53891 8.4464648,19.462803 7.256607,19.369139 6.6933172,19.324797 6.1300093,19.276502 5.5652174,19.260017 5.3286045,19.253111 5.0897424,19.25155 4.8589562,19.19891 4.6281699,19.146269 4.4021656,19.036813 4.2557545,18.85081 4.1004058,18.653452 4.0504333,18.389559 4.0659254,18.138873 4.0814175,17.888188 4.1564391,17.645557 4.228474,17.404945 4.5018307,16.491875 4.7394916,15.56858 4.9923274,14.649616 5.1316124,14.143367 5.2756934,13.637637 5.374254,13.12191 5.5422359,12.24293 5.5762892,11.3409 5.5106564,10.448423 5.4811164,10.046737 5.4315371,9.646758 5.374254,9.2480818 5.2957868,8.7019695 5.2028353,8.1579744 5.1287298,7.6112532 5.0989964,7.3918921 5.072197,7.1715513 5.0196078,6.9565217 4.9509422,6.6757577 4.839246,6.4077464 4.7424776,6.1353877 4.6457092,5.8630289 4.5629336,5.5813643 4.5558397,5.2924126 c -0.00402,-0.1637358 0.016347,-0.3280812 0,-0.4910486 -0.0055,-0.05484 -0.015143,-0.1092648 -0.018581,-0.164273 -0.00344,-0.055008 -4.398e-4,-0.1113634 0.018581,-0.1630927 0.029686,-0.080731 0.095163,-0.142758 0.1364024,-0.2182438 0.019565,-0.035812 0.033505,-0.074358 0.049252,-0.1120053 0.015747,-0.037648 0.033646,-0.074972 0.05987,-0.1062385 0.038805,-0.046267 0.093773,-0.076583 0.15093,-0.096063 0.057157,-0.01948 0.1171197,-0.029024 0.1764358,-0.040339 0.2774326,-0.052922 0.5454208,-0.1458278 0.8184143,-0.2182438 0.1432862,-0.038009 0.288681,-0.070491 0.4364876,-0.081841 0.1541975,-0.011841 0.3091176,-5.623e-4 0.4637681,0 0.1455267,5.292e-4 0.2912048,-0.00844 0.4364877,0 0.2870415,0.016667 0.5651709,0.1006199 0.8456948,0.1636829 0.3855444,0.086672 0.7789846,0.1343442 1.1730605,0.1636828 0.7893162,0.058764 1.5819652,0.044411 2.3734012,0.054561 0.582729,0.00747 1.165641,0.028273 1.745951,0.081841 0.667322,0.0616 1.329819,0.1663903 1.991475,0.2728048 0.68846,0.1107255 1.37776,0.2234222 2.073316,0.2728048 0.707838,0.050255 1.418536,0.034682 2.127877,0.054561 0.482092,0.013511 0.965538,0.043368 1.445866,0 0.173035,-0.015623 0.345143,-0.040717 0.518329,-0.054561 0.281187,-0.022478 0.563868,-0.015207 0.845694,-0.02728 0.172859,-0.0074 0.346723,-0.02205 0.51833,0 0.240906,0.030955 0.468336,0.1331188 0.709292,0.1636829 0.203188,0.025773 0.410239,-1.344e-4 0.613506,0.025012 0.101633,0.012573 0.202729,0.038331 0.29265,0.087337 0.08992,0.049006 0.168328,0.1225492 0.212343,0.215016 0.02853,0.059945 0.04198,0.1257771 0.05456,0.1909633 0.10076,0.522027 0.162118,1.0513886 0.190964,1.5822677 0.02714,0.4995474 0.02555,1.000145 0.02728,1.5004263 0.004,1.1461985 0.02545,2.2925218 0.08184,3.4373398 0.05804,1.17832 0.153291,2.356743 0.354646,3.519182 0.05692,0.328621 0.122285,0.65573 0.190963,0.982097 0.01715,0.08152 0.03457,0.163395 0.03895,0.246582 0.0044,0.08319 -0.0048,0.168475 -0.03895,0.244467 -0.04666,0.103899 -0.136542,0.183044 -0.234838,0.240573 -0.0983,0.05753 -0.206183,0.09626 -0.310771,0.141353 -0.408639,0.176174 -0.766552,0.449183 -1.14578,0.682012 -0.348472,0.213947 -0.720717,0.396314 -1.1185,0.491049 -0.578534,0.137783 -1.184615,0.08495 -1.773231,0 -0.328285,-0.04738 -0.656118,-0.104596 -0.987541,-0.117812 -0.331424,-0.01322 -0.669779,0.01922 -0.976653,0.145092 -0.150238,0.06163 -0.290638,0.144617 -0.436789,0.215393 -0.14615,0.07077 -0.301341,0.130075 -0.463467,0.139254 -0.01484,8.4e-4 -0.02983,0.0013 -0.04427,0.0048 -0.01443,0.0036 -0.02851,0.01064 -0.03757,0.02243 -0.0062,0.0081 -0.0097,0.0179 -0.01328,0.02748 -0.0035,0.0096 -0.0073,0.01933 -0.014,0.02707 -0.0096,0.01114 -0.02402,0.01692 -0.03839,0.02001 -0.01436,0.0031 -0.02915,0.0039 -0.04345,0.0073 -0.02597,0.0061 -0.04928,0.02031 -0.07095,0.03587 -0.02167,0.01556 -0.04229,0.03273 -0.06545,0.04597 -0.04138,0.02366 -0.08894,0.03373 -0.135731,0.04281 -0.04679,0.0091 -0.09443,0.01774 -0.137074,0.03903 -0.07284,0.03636 -0.125627,0.110268 -0.136402,0.190964 -0.02108,-0.01054 -0.04712,-0.01054 -0.0682,-1e-6 -0.02108,0.01054 -0.03671,0.03137 -0.04092,0.05456 -0.0016,0.009 -0.0016,0.01829 0,0.02728 -0.009,0.0092 -0.01808,0.0183 -0.02728,0.02728 -0.06935,0.06772 -0.145987,0.129989 -0.234822,0.168765 -0.08883,0.03878 -0.191405,0.05241 -0.283507,0.0222 -0.03078,-0.01009 -0.06089,-0.02505 -0.09328,-0.02546 -0.01619,-2.04e-4 -0.03275,0.0035 -0.04615,0.01259 -0.0067,0.0045 -0.01254,0.01041 -0.01681,0.01729 -0.0043,0.0069 -0.007,0.01478 -0.0074,0.02286 -5.56e-4,0.0091 0.0016,0.01831 0,0.02728 -0.0012,0.0064 -0.0042,0.01243 -0.0085,0.01739 -0.0043,0.005 -0.0096,0.0089 -0.01549,0.01176 -0.0117,0.0058 -0.02499,0.0075 -0.03803,0.008 -0.01304,5.62e-4 -0.02617,1.04e-4 -0.03908,0.002 -0.01291,0.0019 -0.02589,0.0064 -0.03531,0.01541 -0.0074,0.0071 -0.01212,0.0165 -0.01589,0.02603 -0.0038,0.0095 -0.0068,0.01939 -0.01139,0.02853 -0.0083,0.01637 -0.02194,0.02998 -0.03832,0.03826 -0.01638,0.0083 -0.03543,0.01119 -0.05353,0.0082 -0.0181,-0.003 -0.03518,-0.01194 -0.04799,-0.02509 -0.01281,-0.01314 -0.02129,-0.03044 -0.02384,-0.04862 z"
     id="path6"
     inkscape:path-effect="#path-effect6"
     inkscape:original-d="M 16.341006,19.614663 C 14.526149,19.960649 12.655005,19.721302 10.83035,19.587383 8.9073023,19.446242 9.3704576,19.48993 7.256607,19.369139 7.2223904,19.367184 5.6321069,19.268648 5.5652174,19.260017 5.2971919,19.225433 4.521894,19.165338 4.2557545,18.85081 3.9716178,18.515012 4.1656944,17.707072 4.228474,17.404945 4.3925917,16.615128 4.7902021,15.39748 4.9923274,14.649616 5.1292806,14.142889 5.2799188,13.638271 5.374254,13.12191 5.5172709,12.339081 5.5526093,11.237136 5.5106564,10.448423 5.4892671,10.046303 5.4279776,9.6471708 5.374254,9.2480818 5.3006488,8.7013003 5.2131095,8.156476 5.1287298,7.6112532 5.0948909,7.392602 5.0702838,7.1718944 5.0196078,6.9565217 4.8892745,6.402605 4.6332177,5.8598514 4.5558397,5.2924126 c -0.022116,-0.1621819 0,-0.3273657 0,-0.4910486 0,-0.1091219 -0.021401,-0.2203629 0,-0.3273657 C 4.5743785,4.3813042 4.649008,4.3335759 4.6922421,4.2557545 4.7231266,4.2001624 4.7436444,4.0856103 4.801364,4.0375107 4.8501331,3.9968698 5.1204768,3.9042522 5.1287298,3.9011083 5.6518606,3.7018203 5.3314164,3.7948149 5.9471441,3.6828645 6.0927876,3.6563838 6.2362083,3.6144251 6.3836317,3.601023 c 0.1539545,-0.013996 0.3091788,0 0.4637681,0 0.1454959,0 0.291627,-0.013581 0.4364877,0 0.07208,0.00676 0.7622369,0.147455 0.8456948,0.1636829 0.5938572,0.1154722 0.561542,0.1238012 1.1730605,0.1636828 0.7909432,0.051583 1.5823952,0.029316 2.3734012,0.054561 0.582326,0.018585 1.164723,0.041558 1.745951,0.081841 0.877283,0.060802 1.128689,0.1358547 1.991475,0.2728048 0.697335,0.1106882 1.364319,0.1951065 2.073316,0.2728048 0.86998,0.09534 1.050334,0.054561 2.127877,0.054561 0.475717,0 0.970002,0.027992 1.445866,0 0.173431,-0.010202 0.345251,-0.039511 0.518329,-0.054561 0.282202,-0.024539 0.560592,-0.02728 0.845694,-0.02728 0.128116,0 0.376549,-0.028356 0.51833,0 0.235468,0.047094 0.472237,0.1213515 0.709292,0.1636829 0.257934,0.04606 0.964836,0.020038 1.118499,0.3273657 0.02961,0.059213 0.03923,0.126562 0.05456,0.1909633 0.12608,0.5295343 0.169224,1.0387779 0.190964,1.5822677 0.03742,0.9353932 0.02728,0.5143889 0.02728,1.5004263 0,1.1464026 0.03993,2.2916438 0.08184,3.4373398 0.04352,1.189409 0.173429,2.341273 0.354646,3.519182 0.05004,0.325249 0.1319,0.657252 0.190963,0.982097 0.016,0.088 0.08048,0.399072 0,0.491049 -0.108345,0.123823 -0.469622,0.331268 -0.545609,0.381926 -0.804883,0.536589 -0.229212,0.202897 -1.14578,0.682012 -0.31046,0.162286 -0.756553,0.431955 -1.1185,0.491049 -0.407009,0.06645 -1.410328,0 -1.773231,0 -0.654795,0 -1.310883,-0.01676 -1.964194,0.02728 -0.341053,0.02299 -0.601461,0.226591 -0.900256,0.354647 -0.02643,0.01133 -0.05884,0.01003 -0.08184,0.02728 -0.01627,0.0122 -0.0129,0.04018 -0.02728,0.05456 -0.06891,0.06891 -0.03145,0.01048 -0.08184,0.02728 -0.08055,0.02685 -0.04302,0.04034 -0.136403,0.08184 -0.08676,0.03856 -0.190375,0.03474 -0.272805,0.08184 -0.1219,0.06966 -0.05267,0.09049 -0.136402,0.190964 0.02349,0.163287 -0.08037,0.0258 -0.109122,0.05456 -0.0064,0.0064 0,0.01819 0,0.02728 -0.0091,0.0091 -0.01658,0.02015 -0.02728,0.02728 -0.145649,0.0971 -0.353185,0.135915 -0.518329,0.190963 -0.05248,0.01749 -0.114209,0.0025 -0.163683,0.02728 -0.0081,0.0041 0.0064,0.02085 0,0.02728 -0.02464,0.02464 -0.103899,0.03831 -0.136403,0.05456 -0.113535,0.05677 0.02916,-0.0019 -0.02728,0.05456 -0.03911,0.03911 -0.109444,-0.01643 -0.163683,-0.02728 z" />
  <path
     style="fill:none;stroke:#1c3c55;stroke-width:1.079;stroke-opacity:1"
     d="M 11.103154,8.6479113 C 10.549055,9.1495516 10.077137,9.7417624 9.71185,10.393862 9.5866136,10.61743 9.4739287,10.847746 9.3572038,11.075874 c -0.1163985,0.22749 -0.2372592,0.453787 -0.324067,0.69413 -0.086808,0.240342 -0.1389292,0.497575 -0.1124207,0.751735 0.034676,0.332466 0.2021089,0.639519 0.416254,0.896186 0.214145,0.256667 0.4747238,0.469721 0.7295259,0.686082 0.108097,0.09179 0.216465,0.185552 0.300085,0.300085 0.05802,0.07947 0.103281,0.167847 0.163683,0.245524 0.07113,0.09148 0.161414,0.165816 0.245525,0.245525 0.228519,0.21656 0.414869,0.477451 0.545609,0.763853"
     id="path7"
     inkscape:path-effect="#path-effect7"
     inkscape:original-d="M 11.103154,8.6479113 C 10.627337,9.2189696 10.10564,9.7587164 9.71185,10.393862 c -0.1350212,0.217776 -0.2357507,0.455029 -0.3546462,0.682012 -0.2124959,0.405674 -0.6421486,0.955443 -0.4364877,1.445865 0.2331128,0.555884 0.7382572,1.143397 1.1457799,1.582268 0.09626,0.103662 0.208468,0.1923 0.300085,0.300085 0.0637,0.07494 0.100714,0.169961 0.163683,0.245524 0.0741,0.08892 0.169874,0.157929 0.245525,0.245525 0.193462,0.224009 0.411991,0.496618 0.545609,0.763853" />
  <path
     style="fill:none;stroke:#1c3c55;stroke-width:1.079;stroke-opacity:1"
     d="m 15.140665,15.304348 c 0.14648,-0.42817 0.26503,-0.865893 0.354646,-1.309463 0.07669,-0.379566 0.132144,-0.763039 0.190964,-1.14578 0.06314,-0.410866 0.130241,-0.821354 0.218243,-1.227622 0.189136,-0.87316 0.473915,-1.7228089 0.682012,-2.591645 0.114285,-0.4771565 0.205363,-0.9598705 0.272805,-1.4458653"
     id="path8"
     inkscape:path-effect="#path-effect8"
     inkscape:original-d="m 15.140665,15.304348 c 0.09585,-0.442248 0.258348,-0.867623 0.354646,-1.309463 0.08245,-0.378314 0.127309,-0.763853 0.190964,-1.14578 0.07275,-0.409207 0.129426,-0.821599 0.218243,-1.227622 0.424231,-1.9393397 0.257189,-0.802917 0.682012,-2.591645 0.07947,-0.3346206 0.199589,-1.0309756 0.272805,-1.4458653" />
  <path
     style="fill:none;stroke:#1c3c55;stroke-width:1.079;stroke-opacity:1"
     d="m 18.387042,13.749361 c 0.003,0.05534 0.01219,0.110348 0.02728,0.163682 0.03454,0.122125 0.1,0.234434 0.183139,0.330327 0.08314,0.09589 0.183686,0.175779 0.291706,0.242408 0.21604,0.133257 0.459726,0.213333 0.698216,0.300241 0.390869,0.142437 0.777116,0.307861 1.118499,0.545609 0.09875,0.06877 0.19443,0.14397 0.304288,0.193075 0.05493,0.02455 0.113251,0.04235 0.173137,0.04816 0.05989,0.0058 0.121436,-6.63e-4 0.177307,-0.02299 0.08506,-0.03399 0.152675,-0.102994 0.199781,-0.181553 0.04711,-0.07856 0.07555,-0.166743 0.100304,-0.254935 0.149587,-0.532961 0.177319,-1.09157 0.272805,-1.636828 0.05715,-0.326349 0.138656,-0.648237 0.18921,-0.975673 0.05055,-0.327436 0.06962,-0.664233 0.0018,-0.988522 -0.05793,-0.276776 -0.17732,-0.536399 -0.300085,-0.791133 C 21.518685,10.086915 21.167019,9.4428861 20.59676,9.029838 20.444292,8.9194027 20.275129,8.8243584 20.160273,8.6751918 c -0.03559,-0.046224 -0.06573,-0.097407 -0.109122,-0.1364024 -0.03654,-0.032836 -0.08084,-0.055528 -0.121576,-0.082974 -0.02037,-0.013723 -0.04,-0.028758 -0.05694,-0.046536 -0.01695,-0.017778 -0.0312,-0.038418 -0.03973,-0.061454 -0.006,-0.01628 -0.0092,-0.033631 -0.01664,-0.049296 -0.0037,-0.00783 -0.0086,-0.015225 -0.01497,-0.02111 -0.0064,-0.00589 -0.01436,-0.010208 -0.02295,-0.011435 -0.0071,-0.00102 -0.01438,9.49e-5 -0.02134,0.0019 -0.007,0.0018 -0.01372,0.00429 -0.02068,0.00611 -0.007,0.00182 -0.01421,0.00296 -0.02133,0.00198 -0.0071,-9.748e-4 -0.01414,-0.00427 -0.01849,-0.00999 -0.0028,-0.00372 -0.0044,-0.0083 -0.005,-0.012935 -6.03e-4,-0.00464 -2.66e-4,-0.00936 4.55e-4,-0.013976 0.0014,-0.00924 0.0044,-0.018296 0.0046,-0.027649 2.05e-4,-0.014356 -0.0065,-0.028277 -0.01649,-0.038607 -0.01,-0.010329 -0.02297,-0.017334 -0.03651,-0.022117 -0.02707,-0.00957 -0.05663,-0.010768 -0.08341,-0.021118 -0.0376,-0.01453 -0.0665,-0.045997 -0.087,-0.08071 C 19.452613,8.01416 19.439332,7.9757759 19.4237,7.9386189 19.360159,7.7875851 19.255327,7.6541629 19.123615,7.5566922"
     id="path9"
     inkscape:path-effect="#path-effect9"
     inkscape:original-d="m 18.387042,13.749361 c 0.0091,0.05456 -0.0026,0.117154 0.02728,0.163682 0.183296,0.285128 0.891181,0.72264 1.173061,0.872976 0.366023,0.195212 0.742058,0.371331 1.118499,0.545609 0.02869,0.01328 0.54618,0.254428 0.654732,0.218244 0.189213,-0.06307 0.239425,-0.277256 0.300085,-0.436488 0.204775,-0.537533 0.224183,-1.069579 0.272805,-1.636828 0.05241,-0.611484 0.279597,-1.361484 0.190963,-1.964195 -0.02983,-0.202852 -0.196719,-0.603782 -0.300085,-0.791133 -0.316027,-0.5728 -0.779444,-1.2196243 -1.227622,-1.69139 -0.147293,-0.1550459 -0.272034,-0.2230838 -0.436487,-0.3546462 -0.08442,-0.067539 -0.03178,-0.046171 -0.109122,-0.1364024 -0.255024,-0.297528 0.03257,0.059854 -0.218244,-0.1909633 -0.02318,-0.023184 -0.02645,-0.064973 -0.05456,-0.081841 -0.02339,-0.014036 -0.05914,0.015132 -0.08184,0 -0.01513,-0.010088 0.01091,-0.040011 0,-0.054561 -0.03382,-0.045088 -0.09279,-0.052768 -0.136403,-0.081841 C 19.484768,8.0793594 19.476112,8.0060059 19.4237,7.9386189 19.340002,7.8310078 19.123615,7.7053386 19.123615,7.5566922" />
</svg>
