<?xml version="1.0" encoding="UTF-8" standalone="no"?>
<svg
   width="45px"
   height="45px"
   viewBox="0 0 45 45"
   version="1.1"
   id="svg1"
   xmlns="http://www.w3.org/2000/svg"
   xmlns:svg="http://www.w3.org/2000/svg"
   xmlns:rdf="http://www.w3.org/1999/02/22-rdf-syntax-ns#"
   xmlns:cc="http://creativecommons.org/ns#"
   xmlns:dc="http://purl.org/dc/elements/1.1/">
  <!-- Generator: Sketch 49 (51002) - http://www.bohemiancoding.com/sketch -->
  <title
     id="title1">user</title>
  <desc
     id="desc1">Created with Sketch.</desc>
  <defs
     id="defs1" />
  <g
     id="layer6">
    <path
       style="opacity:1;fill:none;fill-opacity:1;stroke:#ff7e00;stroke-width:1;stroke-dasharray:none;stroke-opacity:1"
       d="m 1.4578005,43.772379 c -0.065038,-0.431896 0.017276,-0.884624 0.230179,-1.265985 0.02792,-0.05001 0.058202,-0.09925 0.076726,-0.153453 0.025206,-0.07375 0.027457,-0.153008 0.038363,-0.230179 0.045378,-0.321083 0.2400247,-0.603414 0.3069053,-0.920716 0.053797,-0.255228 0.021257,-0.52553 -0.076726,-0.767263 -0.02588,-0.06385 -0.056257,-0.126034 -0.076726,-0.191816 -0.035644,-0.114551 -0.040142,-0.236975 -0.02839,-0.356366 0.011752,-0.119391 0.039333,-0.236583 0.066835,-0.353356 0.027502,-0.116773 0.055069,-0.233969 0.066794,-0.353363 0.011725,-0.119393 0.00718,-0.241819 -0.028514,-0.356353 -0.028998,-0.09304 -0.077699,-0.178546 -0.1150895,-0.268542 -0.079436,-0.191198 -0.1067865,-0.400537 -0.109431,-0.607563 -0.00264,-0.207026 0.018607,-0.413496 0.032705,-0.620058 0.01512,-0.221527 0.023485,-0.449909 0.1150895,-0.652174 0.035403,-0.07817 0.082616,-0.150745 0.1150896,-0.230179 0.040797,-0.09979 0.05721,-0.207499 0.07919,-0.313045 0.02198,-0.105547 0.050921,-0.212359 0.112626,-0.300766 0.057255,-0.08203 0.140226,-0.144472 0.1918159,-0.230179 0.056465,-0.09381 0.070361,-0.206969 0.1150895,-0.306905 0.042156,-0.09419 0.1107777,-0.174588 0.1534527,-0.268543 0.056162,-0.123649 0.064218,-0.263356 0.063026,-0.399156 -0.00119,-0.135801 -0.010647,-0.272865 0.0137,-0.40647 0.03943,-0.216373 0.1647256,-0.407648 0.3069054,-0.575448 0.064588,-0.07623 0.1333403,-0.149169 0.1918158,-0.230179 0.1147826,-0.159016 0.1871621,-0.345745 0.2301791,-0.537084 0.070463,-0.313417 0.064335,-0.638078 0.076726,-0.959079 0.00882,-0.228483 0.028137,-0.4608 0.1132834,-0.673009 0.042573,-0.106104 0.1016324,-0.206256 0.1793613,-0.290094 0.077729,-0.08384 0.1745515,-0.15102 0.2828029,-0.187793 0.013683,-0.0046 0.027559,-0.0088 0.040799,-0.01461 0.013241,-0.0058 0.025942,-0.0133 0.035927,-0.02375 0.00994,-0.0104 0.016847,-0.02334 0.022469,-0.03659 0.00562,-0.01325 0.010088,-0.02697 0.015894,-0.04014 0.018441,-0.04183 0.049825,-0.07672 0.084244,-0.1068 0.034419,-0.03008 0.072233,-0.05602 0.107572,-0.08502 0.077675,-0.06373 0.1431391,-0.142286 0.1918159,-0.230179 0.083207,-0.06986 0.1603201,-0.146972 0.230179,-0.230179 0.052652,-0.06271 0.1011437,-0.128816 0.1534527,-0.191816 0.3717512,-0.447727 0.9114243,-0.713574 1.4194374,-0.997442 0.1805345,-0.100879 0.3595065,-0.205802 0.5499022,-0.286542 0.1903957,-0.08074 0.3941919,-0.137097 0.6009929,-0.135453 0.063983,5.09e-4 0.128166,0.0065 0.1918159,0 0.1203527,-0.01237 0.2315197,-0.06884 0.3352028,-0.131191 0.1036831,-0.06235 0.2041274,-0.132078 0.3169711,-0.175715 0.075458,-0.02918 0.1552641,-0.04618 0.230179,-0.07673 0.1070269,-0.04364 0.200989,-0.113603 0.2919468,-0.18492 0.090958,-0.07132 0.1810165,-0.145267 0.2835008,-0.198712 0.1328652,-0.06929 0.2814479,-0.101484 0.4219949,-0.153452 0.2445932,-0.09044 0.4642736,-0.241167 0.6521736,-0.421995 0.09122,-0.08779 0.175409,-0.182779 0.268542,-0.268542 0.1321,-0.121645 0.2859,-0.225973 0.460359,-0.268543 0.05127,-0.01251 0.104104,-0.01966 0.153452,-0.03836 0.06058,-0.02296 0.114444,-0.06336 0.153453,-0.115089 0.09544,-0.06357 0.198787,-0.115246 0.306905,-0.153453 0.18252,-0.0645 0.376479,-0.09015 0.561673,-0.146518 0.0926,-0.02818 0.183347,-0.06426 0.265658,-0.115188 0.08231,-0.05092 0.156163,-0.117216 0.208475,-0.198652 0.02497,-0.03887 0.04521,-0.08132 0.07673,-0.11509 0.02559,-0.02742 0.05765,-0.04801 0.09083,-0.0655 0.03318,-0.01749 0.06778,-0.03216 0.100986,-0.04959 0.153268,-0.08043 0.269624,-0.215027 0.383632,-0.345269 0.04112,-0.04697 0.08287,-0.09418 0.133363,-0.130882 0.0505,-0.0367 0.111139,-0.06252 0.173542,-0.06093 0.02567,6.52e-4 0.05173,0.0058 0.07673,0 0.01915,-0.0045 0.03649,-0.01535 0.05027,-0.02939 0.01378,-0.01404 0.02416,-0.03115 0.03203,-0.04918 0.01576,-0.03605 0.02171,-0.0755 0.03278,-0.113251 0.02724,-0.09288 0.08496,-0.17389 0.148945,-0.24651 0.06399,-0.07262 0.135174,-0.138824 0.196324,-0.213848 0.03452,-0.04235 0.06724,-0.08872 0.115089,-0.11509 0.02952,-0.01627 0.0636,-0.02388 0.09729,-0.02269 0.03369,0.0012 0.06691,0.0111 0.09625,0.0277 0.05867,0.0332 0.100288,0.09257 0.118673,0.157431 0.01839,0.06486 0.0148,0.134689 -0.0028,0.199758 -0.01762,0.06507 -0.0488,0.125785 -0.08496,0.182675 -0.07234,0.11378 -0.165537,0.214633 -0.224546,0.335861 -0.02951,0.06061 -0.05011,0.126387 -0.05267,0.193752 -0.0026,0.06736 0.01384,0.136483 0.0528,0.191503 0.03203,0.04524 0.0776,0.07915 0.125002,0.107894 0.0474,0.02875 0.09743,0.05315 0.14354,0.08392 0.08689,0.05799 0.157554,0.137012 0.222836,0.218571 0.06528,0.08156 0.126426,0.166798 0.199159,0.241787 0.127728,0.131689 0.286963,0.227594 0.443605,0.323091 0.156641,0.0955 0.314772,0.193856 0.438748,0.329083 0.09201,0.100355 0.163948,0.219749 0.268542,0.306905 0.06301,0.05251 0.136967,0.09247 0.191816,0.153453 0.04032,0.04483 0.06876,0.09968 0.08585,0.157506 0.01708,0.05782 0.02304,0.118586 0.02134,0.178853 -0.0034,0.120535 -0.03676,0.237938 -0.06883,0.354178 -0.01402,0.05084 -0.02785,0.101774 -0.03836,0.153452 -0.05521,0.271514 -0.01534,0.55999 0.103156,0.810444 0.118492,0.250454 0.313869,0.462459 0.549018,0.608994 0.343836,0.214263 0.758728,0.285775 1.163698,0.297245 0.404969,0.01147 0.809705,-0.03254 1.214819,-0.0287 0.564102,0.0053 1.123975,0.103325 1.687979,0.115089 0.383642,0.008 0.767916,-0.02393 1.150895,0 0.115154,0.0072 0.231529,0.01938 0.345269,0 0.155964,-0.02657 0.295575,-0.110411 0.428061,-0.196889 0.132486,-0.08648 0.26473,-0.178523 0.415929,-0.225105 0.175377,-0.05403 0.367885,-0.04404 0.537084,-0.11509 0.05274,-0.02215 0.102,-0.05173 0.153453,-0.07673 0.09568,-0.04649 0.200528,-0.07723 0.306905,-0.07673 0.05279,2.46e-4 0.10539,0.0081 0.15817,0.007 0.05278,-0.0011 0.107592,-0.01231 0.148736,-0.04538 0.03199,-0.02572 0.05346,-0.0619 0.07644,-0.09592 0.02298,-0.03402 0.04908,-0.06581 0.07701,-0.0959 l 0.498721,-0.537084 c 0.07473,-0.03527 0.141004,-0.08829 0.191816,-0.153453 0.102796,-0.131827 0.137125,-0.302389 0.191816,-0.460358 0.139663,-0.4034 0.432844,-0.751063 0.805627,-0.959079 0.196022,-0.109382 0.410572,-0.180429 0.618199,-0.265749 0.207628,-0.08532 0.413376,-0.188297 0.571059,-0.348062 0.03813,-0.03864 0.0733,-0.08045 0.11509,-0.115089 0.101582,-0.0842 0.234511,-0.120108 0.345268,-0.191816 0.0953,-0.0617 0.171526,-0.148092 0.247285,-0.232654 0.07576,-0.08456 0.153853,-0.169673 0.251436,-0.227704 0.08893,-0.05288 0.193046,-0.08271 0.268543,-0.153453 0.03055,-0.02862 0.05519,-0.06295 0.08463,-0.09271 0.01472,-0.01488 0.03069,-0.02866 0.0486,-0.03951 0.0179,-0.01084 0.03781,-0.0187 0.05859,-0.02124 0.02541,-0.0031 0.05119,0.0018 0.07673,0 0.04688,-0.0033 0.08939,-0.02896 0.125384,-0.05919 0.03599,-0.03023 0.0675,-0.06565 0.104795,-0.09426 0.09443,-0.07243 0.218887,-0.09533 0.337824,-0.09128 0.118938,0.004 0.235464,0.03254 0.352713,0.05292 0.139313,0.02421 0.2806,0.03706 0.421995,0.03836 0.150095,0.04204 0.304741,0.06782 0.460358,0.07673 0.232488,0.01331 0.474234,-0.0095 0.690537,0.07673 0.149722,0.05971 0.275806,0.168294 0.379487,0.291712 0.103682,0.123417 0.18711,0.262229 0.272687,0.398825 0.04544,0.07253 0.09229,0.14544 0.154814,0.20389 0.06252,0.05845 0.143238,0.101836 0.228818,0.103016 0.0256,3.53e-4 0.05131,-0.003 0.07673,0 0.03754,0.0045 0.07217,0.02271 0.102941,0.04466 0.03077,0.02196 0.05856,0.04784 0.08887,0.07042 0.07562,0.05635 0.165548,0.09105 0.257322,0.112758 0.09177,0.0217 0.185958,0.03098 0.279762,0.04069 0.102564,0.01062 0.205125,0.02183 0.306905,0.03836 0.407944,0.06623 0.796577,0.216404 1.189259,0.345269 0.530788,0.174187 1.073099,0.310467 1.611253,0.460358 0.188897,0.05261 0.379516,0.107279 0.575448,0.115089 0.05112,0.002 0.102301,8.63e-4 0.153452,0 0.129168,-0.0022 0.259417,-0.0023 0.386093,0.02307 0.126676,0.02535 0.250867,0.07799 0.342807,0.168745 0.02576,0.02542 0.04885,0.05366 0.07673,0.07673 0.02473,0.02046 0.05276,0.03646 0.07979,0.05376 0.02704,0.0173 0.05356,0.03631 0.07366,0.06133 0.02169,0.027 0.0349,0.05979 0.04536,0.0928 0.01046,0.03302 0.0185,0.06686 0.03137,0.09901 0.02731,0.0682 0.07553,0.126353 0.130277,0.175344 0.05475,0.04899 0.116265,0.08968 0.176628,0.131561 0.211146,0.14648 0.41206,0.31077 0.576719,0.508067 0.164659,0.197297 0.292378,0.42945 0.343997,0.681192 0.02328,0.113533 0.03095,0.22961 0.03836,0.345268 0.03111,0.485345 0.05871,0.971887 0.03836,1.457801 -0.02158,0.515301 -0.09475,1.048117 0.07673,1.534527 0.05715,0.162114 0.14015,0.313926 0.230179,0.460358 0.144903,0.235682 0.308698,0.459145 0.460358,0.690537 0.130645,0.199329 0.252523,0.404887 0.397564,0.593999 0.145041,0.189112 0.315584,0.363055 0.523152,0.480169 0.254827,0.143779 0.553997,0.195967 0.805627,0.345269 0.172186,0.102165 0.315222,0.245714 0.460358,0.383632 0.0825,0.07839 0.166729,0.155797 0.261504,0.218794 0.09478,0.063 0.201134,0.111464 0.313943,0.126474 0.02048,0.0027 0.04119,0.0044 0.06121,0.0094 0.02003,0.0051 0.03967,0.01393 0.05388,0.02893 0.01411,0.01489 0.02187,0.03473 0.02667,0.05468 0.0048,0.01995 0.007,0.04045 0.01169,0.06041 0.01269,0.05349 0.04349,0.101194 0.07999,0.142312 0.03649,0.04112 0.07885,0.07652 0.11938,0.113672 0.04053,0.03715 0.07975,0.07669 0.108098,0.123796 0.02835,0.04711 0.04523,0.10283 0.0378,0.157304 -0.0051,0.03763 -0.02142,0.07275 -0.03892,0.106455 -0.0175,0.0337 -0.03655,0.06694 -0.04793,0.103171 -0.01138,0.03623 -0.01456,0.07649 -1.9e-4,0.111643 0.0072,0.01758 0.01874,0.03351 0.03394,0.04488 0.01521,0.01137 0.03412,0.01801 0.0531,0.01748 0.0064,-1.79e-4 0.01282,-0.0012 0.01924,-0.0016 0.0064,-4.44e-4 0.01299,-3.34e-4 0.01912,0.0016 0.009,0.0028 0.0165,0.0095 0.02121,0.01769 0.0047,0.0082 0.0067,0.01769 0.0068,0.02711 4.9e-5,0.01884 -0.0075,0.03674 -0.01443,0.05427 -0.0069,0.01753 -0.01331,0.03616 -0.0108,0.05483 0.0013,0.0093 0.0048,0.01848 0.01106,0.02557 0.0062,0.0071 0.01516,0.01194 0.02457,0.01235 0.0065,2.83e-4 0.01291,-0.0015 0.01937,-0.0025 0.0032,-4.77e-4 0.0065,-7.49e-4 0.0097,-4.49e-4 0.0032,2.99e-4 0.0065,0.0012 0.0092,0.0029 0.0029,0.0018 0.0052,0.0044 0.0068,0.0075 0.0016,0.003 0.0024,0.0064 0.0027,0.0098 5.4e-4,0.0068 -0.0012,0.01357 -0.0035,0.02001 -0.0023,0.0064 -0.005,0.01271 -0.0066,0.01934 -0.0016,0.0066 -0.0019,0.0138 6.2e-4,0.02012 0.0017,0.0043 0.0047,0.0079 0.0081,0.01101 0.0034,0.0031 0.0072,0.0057 0.01104,0.0082 0.0038,0.0025 0.0077,0.0051 0.01107,0.0082 0.0034,0.0031 0.0064,0.0067 0.0082,0.01095 0.0026,0.0063 0.0024,0.01339 8.9e-4,0.02001 -0.0015,0.0066 -0.0042,0.0129 -0.0064,0.01932 -0.0022,0.0064 -0.004,0.01314 -0.0035,0.01991 2.24e-4,0.0034 0.001,0.0068 0.0025,0.0098 0.0015,0.003 0.0037,0.0058 0.0065,0.0077 0.0027,0.0019 0.0059,0.0029 0.0092,0.0034 0.0032,4.52e-4 0.0066,3.09e-4 0.0098,-1.1e-4 0.0065,-8.39e-4 0.01286,-0.0028 0.0194,-0.0033 0.01309,-9.77e-4 0.02631,0.0041 0.03615,0.01279 0.0098,0.0087 0.01638,0.02078 0.01939,0.03356 0.003,0.01278 0.0026,0.02621 0,0.03907 -0.0026,0.01286 -0.0074,0.0252 -0.01314,0.03701 -0.01143,0.02363 -0.02658,0.0454 -0.03684,0.06957 -0.0051,0.01208 -0.009,0.02478 -0.01036,0.03784 -0.0013,0.01306 -6.9e-5,0.02651 0.0048,0.0387 0.0069,0.01727 0.02109,0.03147 0.03836,0.03836"
       id="path2"
       transform="translate(0.03836317,0.65217391)" />
    <path
       style="opacity:1;fill:none;fill-opacity:1;stroke:#ff7e00;stroke-width:1;stroke-dasharray:none;stroke-opacity:1"
       d="m 14.347826,8.0179028 c -0.06028,0.028225 -0.104873,0.087677 -0.115089,0.1534527 -0.0059,0.037975 -9.8e-4,0.076671 0,0.1150895 0.0028,0.1080505 -0.02584,0.2147003 -0.06445,0.3156524 -0.03862,0.100952 -0.08735,0.1977529 -0.127364,0.2981584 -0.139894,0.3510167 -0.169053,0.7461178 -0.07673,1.1125322 0.05105,0.202594 0.13746,0.394161 0.215806,0.587841 0.07835,0.19368 0.149607,0.393287 0.167826,0.601417 0.01785,0.203963 -0.01584,0.409681 0,0.613811 0.02044,0.26337 0.122005,0.512493 0.191816,0.767263 0.111632,0.407391 0.143999,0.83789 0.306905,1.227622 0.06189,0.148052 0.141839,0.288036 0.230179,0.421995 0.155204,0.235352 0.339816,0.459224 0.421995,0.7289 0.08284,0.271836 0.0532,0.564837 0,0.84399 -0.05594,0.293551 -0.137257,0.583959 -0.153452,0.882353 -0.006,0.109988 -0.003,0.220334 -0.0097,0.330278 -0.0067,0.109944 -0.02352,0.220685 -0.06698,0.321895 -0.02726,0.06348 -0.06511,0.123714 -0.07673,0.191816 -0.01293,0.07579 0.008,0.153717 0,0.230179 -0.0055,0.05251 -0.02451,0.1025 -0.03836,0.153453 -0.03706,0.136378 -0.03725,0.28005 -0.02787,0.421063 0.0094,0.141012 0.02807,0.281603 0.02787,0.422927 -2.38e-4,0.166528 -0.02664,0.334338 0,0.498721 0.0286,0.176459 0.116229,0.336726 0.191816,0.498721 0.09636,0.206516 0.175709,0.424853 0.191815,0.652174 0.0118,0.166577 -0.01061,0.333381 -0.02475,0.499776 -0.01413,0.166395 -0.01967,0.336687 0.02475,0.497667 0.02493,0.09037 0.06505,0.17568 0.09818,0.263373 0.03313,0.08769 0.0596,0.180069 0.05527,0.273711 -0.0015,0.03217 -0.0066,0.06408 -0.0088,0.09621 -0.0022,0.03213 -0.0013,0.06502 0.0088,0.09561 0.009,0.02726 0.02496,0.05158 0.04019,0.07592 0.01523,0.02434 0.03011,0.04955 0.03654,0.07753 0.0086,0.03753 0.0014,0.07661 0,0.115089 -0.0032,0.08699 0.02419,0.173297 0.0678,0.248631 0.0436,0.07533 0.102934,0.140489 0.166759,0.199675 0.12765,0.118372 0.276404,0.216865 0.379257,0.357321 0.02724,0.0372 0.05089,0.0769 0.07673,0.115089 0.163067,0.241023 0.411337,0.416666 0.68155,0.524684 0.270213,0.108019 0.562304,0.15197 0.852976,0.165853 0.103317,0.0049 0.208513,0.0065 0.306906,0.03836 0.125555,0.0407 0.230032,0.12746 0.345268,0.191816 0.131076,0.0732 0.276261,0.117379 0.421995,0.153453 0.379844,0.09402 0.770975,0.136464 1.150895,0.230179 0.29278,0.07222 0.581254,0.175239 0.882353,0.191816 0.127708,0.007 0.255741,-0.0017 0.383632,0 0.12886,0.0017 0.257432,0.01391 0.386301,0.01476 0.128869,8.41e-4 0.259487,-0.01009 0.380962,-0.05312 0.211383,-0.07488 0.377604,-0.239688 0.575448,-0.345269 0.197305,-0.105294 0.423885,-0.150456 0.613811,-0.268542 0.131136,-0.08153 0.239286,-0.194473 0.345736,-0.306333 0.106451,-0.111859 0.21419,-0.225107 0.344801,-0.307478 0.08272,-0.05217 0.17372,-0.09117 0.268542,-0.115089 0.186429,-0.0422 0.36087,-0.136128 0.498721,-0.268543 0.09052,-0.08695 0.164906,-0.18938 0.253675,-0.278123 0.08877,-0.08874 0.197352,-0.165662 0.321773,-0.182235 0.08881,-0.01183 0.178953,0 0.268542,0 h 0.767263 c 0.217975,0 0.436254,0.0085 0.652174,0.03836 0.289871,0.04009 0.577563,0.109147 0.84399,0.230179 0.09984,0.04535 0.198505,0.09854 0.306905,0.115089 0.076,0.0116 0.153431,0.0046 0.230179,0 0.234545,-0.01405 0.470804,-0.0054 0.703594,-0.03732 0.232789,-0.0319 0.467634,-0.10895 0.639117,-0.269581 0.119673,-0.112099 0.201577,-0.257959 0.306906,-0.383632 0.03933,-0.04693 0.08203,-0.09116 0.118012,-0.140709 0.03598,-0.04955 0.06542,-0.105537 0.0738,-0.166196 0.007,-0.05073 -9.56e-4,-0.10225 0,-0.153453 0.0015,-0.0779 0.02347,-0.153706 0.03836,-0.230179 0.05394,-0.276964 0.0145,-0.562196 0,-0.84399 -0.02587,-0.502578 0.02883,-1.008594 0.153453,-1.496163 0.199481,-0.780432 0.575599,-1.51099 0.7289,-2.301791 0.05738,-0.295989 0.08372,-0.600895 0.191816,-0.882353 0.03921,-0.102094 0.08905,-0.200687 0.115089,-0.306905 0.02457,-0.10023 0.02723,-0.204308 0.03836,-0.306905 0.02382,-0.219536 0.08663,-0.433192 0.11509,-0.652174 0.04785,-0.368151 -0.0023,-0.741291 0,-1.112532 0.0023,-0.371226 0.05714,-0.741774 0.03836,-1.112532 -0.01884,-0.371969 -0.111329,-0.747304 -0.03836,-1.112532 0.03347,-0.167526 0.101271,-0.328444 0.115089,-0.498721 0.0072,-0.08926 -5.75e-4,-0.178993 0,-0.268543 0.0016,-0.246423 0.06644,-0.487322 0.11509,-0.7289 0.02832,-0.1406562 0.05132,-0.2831981 0.05074,-0.4266766 -5.76e-4,-0.1434786 -0.02555,-0.2886752 -0.0891,-0.4173131 -0.02535,-0.051311 -0.05671,-0.099838 -0.07673,-0.1534527 -0.04094,-0.1096242 -0.03116,-0.2324761 0,-0.3452685 0.06041,-0.2186518 0.195837,-0.4085794 0.341445,-0.5825237 0.145607,-0.1739444 0.304722,-0.3381914 0.425819,-0.5300083 0.0545,-0.086325 0.101445,-0.1792332 0.120885,-0.2794542 0.01944,-0.1002209 0.0092,-0.2089603 -0.04416,-0.2959934 -0.02413,-0.039352 -0.05646,-0.073617 -0.07673,-0.1150895 -0.02323,-0.047549 -0.02911,-0.101346 -0.03836,-0.1534527 -0.05638,-0.3174915 -0.250406,-0.599911 -0.498722,-0.8056266 -0.08412,-0.069687 -0.177266,-0.1346165 -0.230179,-0.230179 -0.01385,-0.025019 -0.02462,-0.051646 -0.03836,-0.076726 -0.03138,-0.05727 -0.07795,-0.1054766 -0.131371,-0.1430405 -0.05342,-0.037564 -0.113606,-0.064788 -0.175696,-0.085027 -0.124179,-0.040479 -0.25537,-0.05335 -0.38347,-0.078834 -0.15368,-0.030573 -0.309355,-0.082892 -0.421995,-0.1918159 -0.02601,-0.025151 -0.04939,-0.053024 -0.07673,-0.076726 -0.04502,-0.039028 -0.09982,-0.065767 -0.157004,-0.082492 -0.05718,-0.016725 -0.116826,-0.023729 -0.176351,-0.026231 -0.11905,-0.005 -0.238862,0.00771 -0.357182,-0.00637 -0.173128,-0.020604 -0.333699,-0.097187 -0.498721,-0.1534527 -0.270393,-0.092192 -0.558737,-0.1306524 -0.84399,-0.1150895 -0.06397,0.00349 -0.128479,0.00964 -0.191816,0 -0.08013,-0.012196 -0.154039,-0.048943 -0.230179,-0.076726 -0.232973,-0.085011 -0.495946,-0.085063 -0.7289,0 -0.0915,0.033411 -0.17797,0.079244 -0.268543,0.1150895 -0.115495,0.045709 -0.241195,0.075161 -0.363914,0.055959 -0.06136,-0.0096 -0.12117,-0.031535 -0.172137,-0.067024 -0.05097,-0.035489 -0.09281,-0.084824 -0.116122,-0.1423875 -0.009,-0.022159 -0.01524,-0.045471 -0.02624,-0.066701 -0.0055,-0.010615 -0.01219,-0.020689 -0.02059,-0.029196 -0.0084,-0.00851 -0.01856,-0.015421 -0.0299,-0.019193 -0.01223,-0.00407 -0.02539,-0.00438 -0.03824,-0.00349 -0.01285,8.909e-4 -0.02562,0.00295 -0.03849,0.00349 -0.03707,0.00157 -0.07428,-0.00976 -0.10526,-0.030164 -0.03098,-0.020406 -0.05579,-0.049633 -0.07263,-0.082694 -0.03367,-0.066121 -0.03485,-0.1451787 -0.01706,-0.2172138 0.03557,-0.1440701 0.139761,-0.261075 0.194948,-0.3988291 0.06001,-0.1497856 0.05927,-0.3167998 0.04319,-0.4773546 -0.01608,-0.1605547 -0.04664,-0.3204033 -0.04319,-0.4817247 0.0054,-0.2527291 0.09383,-0.495876 0.191816,-0.7289002 0.02064,-0.049085 0.04218,-0.1003417 0.03836,-0.1534527 -0.0014,-0.019481 -0.0062,-0.038567 -0.0083,-0.057991 -0.002,-0.019424 -0.0011,-0.039949 0.0083,-0.057098 0.0087,-0.016011 0.02379,-0.027419 0.0384,-0.038335 0.01461,-0.010916 0.02966,-0.022353 0.03833,-0.038391 0.0084,-0.015435 0.0099,-0.03371 0.0086,-0.051206 -0.0014,-0.017495 -0.0055,-0.034651 -0.0079,-0.052038 -0.0024,-0.017387 -0.0029,-0.035467 0.0026,-0.052112 0.0028,-0.00832 0.0071,-0.016187 0.01305,-0.022637 0.0059,-0.00645 0.01356,-0.011448 0.02201,-0.013824 0.01239,-0.00348 0.02555,-0.00123 0.03836,0 0.07776,0.00748 0.155929,-0.02493 0.214771,-0.076313 0.05884,-0.051383 0.100063,-0.1202825 0.130497,-0.1922295 0.02237,-0.052892 0.04013,-0.1092009 0.07673,-0.1534527 0.02307,-0.027888 0.05266,-0.049698 0.07673,-0.076726 0.03,-0.033689 0.05088,-0.0751237 0.06206,-0.11882998 0.01118,-0.0437062 0.01281,-0.0896292 0.0068,-0.1343358 -0.01209,-0.0894133 -0.05425,-0.17248499 -0.107181,-0.24555542 -0.03203,-0.0442115 -0.06887,-0.0860331 -0.11509,-0.11508952 -0.03647,-0.0229284 -0.07757,-0.037183 -0.11767,-0.0529179 -0.0401,-0.0157349 -0.08029,-0.0335785 -0.112509,-0.0621716 -0.02709,-0.0240388 -0.04775,-0.0550054 -0.07673,-0.0767263 -0.02378,-0.0178206 -0.05235,-0.0286571 -0.08163,-0.0336964 -0.02928,-0.005039 -0.05932,-0.00445 -0.08882,-9.1384e-4 -0.059,0.007072 -0.116052,0.0257544 -0.174816,0.0346103 -0.108997,0.0164261 -0.219786,-0.001355 -0.329714,-0.009472 -0.109928,-0.008117 -0.225842,-0.005222 -0.32246,0.0478351 -0.04043,0.0222036 -0.0759,0.0523993 -0.115089,0.0767263 -0.06592,0.0409149 -0.140855,0.0643764 -0.214197,0.0896725 -0.07334,0.0252961 -0.147297,0.0535781 -0.207798,0.10214338 -0.07064,0.0567014 -0.118983,0.13796492 -0.191816,0.19181586 -0.07861,0.0581201 -0.177768,0.0787989 -0.268542,0.11508951 -0.247944,0.0991251 -0.429575,0.3128738 -0.652174,0.460358 -0.248259,0.1644853 -0.542838,0.2435243 -0.805627,0.3836317 -0.329724,0.1757942 -0.608206,0.4469587 -0.959079,0.5754476 -0.136978,0.050161 -0.281186,0.076986 -0.421995,0.1150895 -0.179792,0.048652 -0.354657,0.1158693 -0.537084,0.1534527 -0.364556,0.075106 -0.741446,0.028943 -1.112532,0 -0.54856,-0.042785 -1.099462,-0.047205 -1.649617,-0.038363 -0.191819,0.00308 -0.38376,0.00777 -0.575447,0 C 17.785458,2.4805511 17.466,2.4324111 17.148327,2.3785183 16.74123,2.3094549 16.319023,2.2313409 15.920705,2.3401553 c -0.08273,0.022601 -0.163125,0.053022 -0.245446,0.077069 -0.08232,0.024047 -0.167596,0.041785 -0.253275,0.03802 -0.05132,-0.00226 -0.103535,-0.012125 -0.153453,0 -0.05575,0.013541 -0.101336,0.052738 -0.153452,0.076726 -0.06126,0.028197 -0.129839,0.034695 -0.196452,0.045211 -0.06661,0.010517 -0.135343,0.026741 -0.18718,0.069878 -0.02513,0.020909 -0.04512,0.047245 -0.06861,0.06998 -0.01174,0.011367 -0.02443,0.021883 -0.03862,0.030003 -0.01418,0.00812 -0.02994,0.013805 -0.04623,0.015106 -0.0194,0.00155 -0.03868,-0.0031 -0.05795,-0.00579 -0.0096,-0.00135 -0.01939,-0.00221 -0.0291,-0.00156 -0.0097,6.464e-4 -0.01941,0.00285 -0.02804,0.00735 -0.01621,0.00847 -0.02718,0.024143 -0.03777,0.039063 -0.0053,0.00746 -0.01067,0.014901 -0.01698,0.021528 -0.0063,0.00663 -0.0136,0.012454 -0.02197,0.016135 -0.01186,0.00521 -0.02525,0.00587 -0.03817,0.00482 -0.01291,-0.00105 -0.02565,-0.00371 -0.03856,-0.00482 -0.03927,-0.00339 -0.07919,0.00794 -0.112468,0.029056 -0.03328,0.021115 -0.06008,0.051651 -0.07935,0.086034 -0.01398,0.024951 -0.02414,0.051909 -0.03836,0.076726 -0.01949,0.034019 -0.04677,0.063816 -0.08004,0.084554 -0.03327,0.020738 -0.0726,0.032172 -0.111773,0.030535 -0.01286,-5.374e-4 -0.02563,-0.00245 -0.03847,-0.00327 -0.01285,-8.201e-4 -0.02596,-5.149e-4 -0.03826,0.00327 -0.01153,0.00355 -0.02203,0.01009 -0.03085,0.018321 -0.0088,0.00823 -0.016,0.018121 -0.0218,0.028698 -0.0116,0.021154 -0.01769,0.044803 -0.02408,0.068071 -0.01845,0.067262 -0.04118,0.1353488 -0.08542,0.1892711 -0.02212,0.026961 -0.04953,0.04994 -0.08117,0.06461 -0.03164,0.01467 -0.06762,0.020745 -0.101958,0.014661 -0.0064,-0.00114 -0.0128,-0.00269 -0.0193,-0.00318 -0.0065,-4.905e-4 -0.01328,1.527e-4 -0.01906,0.00318 -0.0063,0.0033 -0.01097,0.00929 -0.01341,0.015966 -0.0024,0.00668 -0.0028,0.014007 -0.0017,0.02104 0.0021,0.014066 0.0093,0.026734 0.01512,0.03972 0.01904,0.042675 0.02288,0.091208 0.01561,0.1373685 -0.0073,0.04616 -0.02521,0.090139 -0.04802,0.1309212 -0.04562,0.081565 -0.110356,0.1508823 -0.159408,0.2304315 -0.07384,0.1197501 -0.110262,0.2614033 -0.10852,0.4020783 0.0017,0.1406751 0.04106,0.2800917 0.10852,0.4035483 0.01373,0.025121 0.02868,0.049785 0.03836,0.076726 0.01743,0.048506 0.01677,0.1015732 0.01191,0.1528848 -0.0049,0.051312 -0.0137,0.1025107 -0.01191,0.1540205 0.0023,0.066996 0.02257,0.1320651 0.04628,0.1947684 0.02371,0.062703 0.05112,0.1242042 0.06881,0.1888634 0.02431,0.088826 0.02973,0.1815141 0.0408,0.2729374 0.01107,0.091423 0.02862,0.1841761 0.07429,0.264147 0.04584,0.080277 0.118355,0.1446576 0.153453,0.230179 0.01543,0.037587 0.02297,0.077833 0.03249,0.117333 0.0095,0.0395 0.02141,0.079236 0.04424,0.112846 0.03055,0.044981 0.07803,0.075302 0.11509,0.1150895 0.053,0.056901 0.08298,0.1311589 0.107598,0.2049231 0.02462,0.073764 0.04538,0.1496995 0.08422,0.2170718 0.04614,0.080048 0.116449,0.1455175 0.153452,0.230179 0.03246,0.074277 0.03736,0.1593179 0.07673,0.2301791 0.02241,0.040339 0.05511,0.074321 0.07673,0.1150895 0.03741,0.070547 0.03741,0.1596319 0,0.230179 z"
       id="path3"
       transform="translate(0.03836317,0.65217391)" />
    <path
       style="opacity:1;fill:none;fill-opacity:1;stroke:#ff7e00;stroke-width:1;stroke-dasharray:none;stroke-opacity:1"
       d="m 14.424552,7.7493606 c 0.101516,0.1636379 0.249451,0.2981244 0.421995,0.3836317 0.05127,0.025408 0.10477,0.046658 0.153453,0.076726 0.06973,0.043068 0.127367,0.1028193 0.191816,0.1534527 0.124963,0.098176 0.274099,0.1609062 0.425361,0.2096293 0.151262,0.048723 0.306501,0.084585 0.456992,0.1356392 0.165054,0.055994 0.32593,0.130621 0.498721,0.1534527 0.126955,0.016775 0.255667,0.00489 0.383632,0 0.460399,-0.017589 0.920671,0.055856 1.381074,0.038363 0.307805,-0.011695 0.612953,-0.063957 0.920716,-0.076726 0.268347,-0.011133 0.537163,0.00782 0.805627,0 0.140743,-0.0041 0.282052,-0.015536 0.421995,0 0.290308,0.03223 0.55658,0.1780846 0.843989,0.230179 0.189327,0.034316 0.383362,0.027175 0.575448,0.038363 0.399198,0.023251 0.790342,0.1257756 1.189258,0.1534527 0.310122,0.021517 0.632185,-6.191e-4 0.920716,0.1150895 0.20796,0.083397 0.381894,0.2324006 0.575448,0.3452686 0.369875,0.2156872 0.802455,0.294649 1.227621,0.345269 0.801151,0.09538 1.610497,0.102952 2.41688,0.07673 0.306926,-0.01 0.614633,-0.02482 0.920716,0 0.131853,0.01069 0.263923,0.02892 0.389768,0.06969 0.125845,0.04078 0.245816,0.105084 0.339132,0.198849 0.06453,0.06485 0.114936,0.142124 0.17263,0.213124 0.05769,0.071 0.125597,0.137709 0.211002,0.170508 0.01347,0.0052 0.02727,0.0095 0.04052,0.01517 0.01325,0.0057 0.02606,0.01295 0.03621,0.02319 0.01448,0.01461 0.02264,0.03439 0.02752,0.05437 0.0049,0.01998 0.0068,0.04055 0.01084,0.06072 0.01138,0.05706 0.03943,0.109998 0.07599,0.155262 0.03656,0.04526 0.08147,0.08321 0.129085,0.116651 0.09523,0.06688 0.202033,0.116685 0.293644,0.188445 0.115741,0.09066 0.20317,0.213579 0.268542,0.345268 0.03332,0.06711 0.06243,0.138516 0.11509,0.191816 0.01916,0.01939 0.04101,0.0359 0.0616,0.05377 0.02059,0.01787 0.04024,0.03749 0.05349,0.06132 0.01969,0.03542 0.02377,0.07728 0.03836,0.115089 0.01503,0.03897 0.041,0.07291 0.0705,0.102486 0.0295,0.02957 0.06265,0.05519 0.09495,0.08167 0.0323,0.02648 0.06405,0.05411 0.08994,0.08688 0.02589,0.03278 0.04582,0.07122 0.05152,0.112594 0.0021,0.01527 0.0023,0.03097 0.0072,0.04559 0.0025,0.0073 0.0061,0.01429 0.01138,0.01993 0.0053,0.0056 0.01217,0.0099 0.01976,0.01121 0.0063,0.0011 0.01282,2.12e-4 0.01921,-5.2e-4 0.0064,-7.32e-4 0.01298,-0.0013 0.01915,5.2e-4 0.0051,0.0015 0.0098,0.0046 0.01332,0.0086 0.0036,0.004 0.0061,0.0089 0.0076,0.01401 0.003,0.01029 0.0018,0.02138 -0.0012,0.03167 -0.0029,0.01029 -0.0076,0.02001 -0.01162,0.02991 -0.0041,0.0099 -0.0076,0.02022 -0.0081,0.03091 -6e-4,0.01219 0.0028,0.02442 0.0088,0.03507 0.006,0.01064 0.01447,0.01975 0.0241,0.02725 0.01926,0.015 0.04266,0.0235 0.06554,0.03202 0.02288,0.0085 0.04615,0.01757 0.06475,0.03339 0.0093,0.0079 0.0173,0.01749 0.02258,0.0285 0.0053,0.01101 0.0077,0.0235 0.0061,0.03559 -0.0019,0.01373 -0.0088,0.02626 -0.01176,0.0398 -0.0015,0.0068 -0.0019,0.01389 -1.52e-4,0.02059 0.0017,0.0067 0.0059,0.01296 0.01191,0.01634 0.0059,0.0033 0.01308,0.0036 0.01973,0.0024 0.0067,-0.0012 0.01295,-0.0038 0.01931,-0.0061 0.0064,-0.0023 0.01297,-0.0043 0.01973,-0.0042 0.0034,5.2e-5 0.0068,6.4e-4 0.0099,0.0019 0.0031,0.0013 0.006,0.0033 0.0081,0.006 0.0021,0.0026 0.0034,0.0058 0.004,0.009 6.37e-4,0.0033 6.31e-4,0.0066 2.61e-4,0.0099 -7.4e-4,0.0066 -0.0029,0.01294 -0.0043,0.01943 -0.0041,0.01977 -2.74e-4,0.04107 0.01046,0.05817 0.01074,0.0171 0.02826,0.02981 0.04784,0.03471 0.01959,0.0049 0.04103,0.0019 0.05855,-0.0081 0.01752,-0.01004 0.03092,-0.02703 0.0366,-0.04641"
       id="path4"
       transform="translate(0.03836317,0.65217391)" />
  </g>
  <metadata
     id="metadata4">
    <rdf:RDF>
      <cc:Work
         rdf:about="">
        <dc:title>user</dc:title>
      </cc:Work>
    </rdf:RDF>
  </metadata>
</svg>
