<?xml version="1.0" encoding="UTF-8" standalone="no"?>
<svg
   width="18px"
   height="12px"
   viewBox="0 0 18 12"
   version="1.1"
   id="svg1"
   sodipodi:docname="ico_burger_light.svg"
   inkscape:version="1.3.2 (091e20e, 2023-11-25, custom)"
   xmlns:inkscape="http://www.inkscape.org/namespaces/inkscape"
   xmlns:sodipodi="http://sodipodi.sourceforge.net/DTD/sodipodi-0.dtd"
   xmlns="http://www.w3.org/2000/svg"
   xmlns:svg="http://www.w3.org/2000/svg">
  <sodipodi:namedview
     id="namedview1"
     pagecolor="#ffffff"
     bordercolor="#000000"
     borderopacity="0.25"
     inkscape:showpageshadow="2"
     inkscape:pageopacity="0.0"
     inkscape:pagecheckerboard="0"
     inkscape:deskcolor="#d1d1d1"
     inkscape:zoom="56.804245"
     inkscape:cx="8.2036123"
     inkscape:cy="6.0470833"
     inkscape:window-width="2560"
     inkscape:window-height="1369"
     inkscape:window-x="-8"
     inkscape:window-y="-8"
     inkscape:window-maximized="1"
     inkscape:current-layer="svg1" />
  <!-- Generator: Sketch 49 (51002) - http://www.bohemiancoding.com/sketch -->
  <title
     id="title1">menu - material</title>
  <desc
     id="desc1">Created with Sketch.</desc>
  <defs
     id="defs1">
    <inkscape:path-effect
       effect="spiro"
       id="path-effect6"
       is_visible="true"
       lpeversion="1" />
    <inkscape:path-effect
       effect="spiro"
       id="path-effect5"
       is_visible="true"
       lpeversion="1" />
    <inkscape:path-effect
       effect="spiro"
       id="path-effect1"
       is_visible="true"
       lpeversion="1" />
  </defs>
  <path
     style="fill:none;stroke:#ffffff;stroke-width:0.979;stroke-opacity:1;stroke-dasharray:none"
     d="M 0.21125182,2.0773095 C 1.0589501,2.2690708 1.9598111,2.2197086 2.7814823,1.936475 2.9416272,1.8812723 3.1056287,1.8163951 3.2744032,1.8308491 c 0.091058,0.0078 0.1784185,0.038526 0.2640648,0.070417 0.1931403,0.071918 0.3837964,0.1511791 0.5809425,0.2112518 0.6169249,0.1879842 1.2752551,0.1819864 1.9188706,0.1408345 0.581662,-0.037191 1.1612934,-0.1016951 1.7428275,-0.1408345 0.2932711,-0.019738 0.5869486,-0.03302 0.880216,-0.052813 0.7801235,-0.052651 1.5608184,-0.151424 2.3413744,-0.1056259 0.152762,0.00896 0.305139,0.023454 0.457712,0.035209 0.369816,0.028492 0.74116,0.040942 1.109072,0.088022 0.28901,0.036983 0.574841,0.095206 0.862612,0.1408346 0.174898,0.027732 0.351057,0.050853 0.528129,0.052813 0.08802,9.745e-4 0.176097,-0.00328 0.264065,0 0.165177,0.00617 0.328762,0.0335 0.492921,0.052813 l 0.299273,0.035209 c 0.02123,0.012262 0.04592,0.018436 0.07042,0.017604 0.01788,-6.074e-4 0.03542,-0.00484 0.05319,-0.00679 0.01778,-0.00195 0.03655,-0.00144 0.05243,0.00679 0.01324,0.00686 0.02339,0.018564 0.03137,0.031161 0.008,0.012597 0.0141,0.026273 0.02144,0.039256 0.02285,0.040421 0.05753,0.073654 0.09755,0.097191 0.04002,0.023537 0.08527,0.037581 0.131304,0.043643 0.0699,0.0092 0.140753,3.301e-4 0.211252,0 0.142239,-6.659e-4 0.281981,0.033399 0.422221,0.057172 0.14024,0.023773 0.286681,0.03697 0.422786,-0.00436 0.04799,-0.014571 0.09371,-0.035658 0.140834,-0.052813 0.02483,-0.00904 0.05085,-0.017446 0.07042,-0.035209 0.0061,-0.00558 0.01151,-0.011967 0.0176,-0.017604 0.02331,-0.021569 0.05744,-0.030795 0.08844,-0.023905 0.031,0.00689 0.05801,0.029703 0.06999,0.059114"
     id="path1"
     inkscape:path-effect="#path-effect1"
     inkscape:original-d="M 0.21125182,2.0773095 C 1.0700773,2.0851595 1.9312242,2.0707295 2.7814823,1.936475 3.1095532,1.884674 3.0023753,1.862852 3.2744032,1.8308491 c 0.1396474,-0.016429 0.112474,0.012668 0.2640648,0.070417 0.1925542,0.073354 0.3784618,0.1730479 0.5809425,0.2112518 0.665182,0.125506 1.2610225,0.1596302 1.9188706,0.1408345 0.5829628,-0.016656 1.1621264,-0.09343 1.7428275,-0.1408345 0.2929585,-0.023915 0.5870744,-0.031258 0.880216,-0.052813 0.7810198,-0.057428 1.5568814,-0.1352294 2.3413744,-0.1056259 0.152913,0.00577 0.305066,0.024497 0.457712,0.035209 0.369856,0.025955 0.740322,0.049875 1.109072,0.088022 0.290137,0.030014 0.573468,0.1046917 0.862612,0.1408346 0.175555,0.021944 0.351819,0.03812 0.528129,0.052813 0.08772,0.00731 0.176331,-0.00711 0.264065,0 0.164707,0.013355 0.328684,0.034564 0.492921,0.052813 0.09976,0.011736 0.199516,0.023472 0.299273,0.035209 0.02347,0.00587 0.04655,0.013627 0.07042,0.017604 0.02382,0.00397 0.0849,-0.013818 0.105626,0 0.09497,0.063314 -0.01212,0.00548 0.05281,0.070417 0.01417,0.014165 0.221143,0.1402413 0.228856,0.1408346 0.07021,0.0054 0.141027,-0.0052 0.211252,0 0.277321,0.020542 0.565001,0.089335 0.845007,0.052813 0.04972,-0.00648 0.09455,-0.033529 0.140834,-0.052813 0.02422,-0.010093 0.04791,-0.021707 0.07042,-0.035209 0.0071,-0.00427 0.0093,-0.01843 0.0176,-0.017604 0.05383,0.00538 0.105626,0.023472 0.158439,0.035209" />
  <path
     style="fill:none;stroke:#ffffff;stroke-width:0.879;stroke-opacity:1;stroke-dasharray:none"
     d="m 1.4083455,4.8587918 c 0.1616382,0.091653 0.3150282,0.1978463 0.4577122,0.3168778 0.079753,0.066532 0.1561663,0.1370678 0.2288562,0.2112518 0.1374,0.081703 0.2672324,0.1761268 0.387295,0.2816691 0.087632,0.077034 0.1700934,0.1599895 0.2607383,0.2334547 0.090645,0.073465 0.1908426,0.1379192 0.3025998,0.1714446 0.1275867,0.038274 0.2640708,0.034499 0.3962963,0.018384 0.1322255,-0.016115 0.2630261,-0.044198 0.3958981,-0.053593 0.1055698,-0.00747 0.212043,-0.0031 0.3168777,-0.017604 0.11993,-0.016594 0.234931,-0.057474 0.3520864,-0.088022 C 4.611416,5.9053518 4.7180721,5.8862616 4.8235832,5.8622378 5.2200484,5.7719667 5.5970778,5.6129064 5.9854682,5.4925471 6.0548664,5.4710411 6.1248995,5.4507088 6.19672,5.4397341 6.2839702,5.4264016 6.372659,5.4270492 6.4607848,5.4221301 6.6730584,5.4102811 6.8824223,5.366082 7.0945402,5.3517131 7.5806138,5.3187865 8.0647598,5.4435521 8.52049,5.6157779 8.8147182,5.7269702 9.1060621,5.859565 9.4183102,5.897447 c 0.1050595,0.012746 0.2110925,0.014534 0.3168778,0.017604 0.269905,0.00783 0.539781,0.017604 0.809799,0.017604 h 0.08802 c 0.0467,0.00763 0.09369,0.013505 0.140835,0.017604 0.289302,0.025156 0.581072,-0.01686 0.862611,-0.088022 0.356448,-0.090097 0.699868,-0.2265533 1.056259,-0.3168778 0.281778,-0.071415 0.577153,-0.1161659 0.827403,-0.2640647 0.116341,-0.068758 0.219407,-0.158 0.334482,-0.2288562 0.290108,-0.1786312 0.639379,-0.2311557 0.950634,-0.3696907 0.167156,-0.074399 0.328492,-0.1751971 0.510525,-0.1936475 0.105139,-0.010657 0.2112,0 0.316878,0 h 0.77459"
     id="path5"
     inkscape:path-effect="#path-effect5"
     inkscape:original-d="m 1.4083455,4.8587918 c 0.1454065,0.1134868 0.3141104,0.2019963 0.4577122,0.3168778 0.081068,0.064854 0.1486337,0.1453548 0.2288562,0.2112518 0.1141386,0.1136436 0.2634041,0.1810077 0.387295,0.2816691 0.1865459,0.1515686 0.3093193,0.3468378 0.5633381,0.4048993 0.124218,0.028393 0.7219128,-0.030417 0.7921944,-0.035209 0.1055437,-0.0072 0.2116909,-0.00633 0.3168777,-0.017604 0.1260601,-0.013506 0.2307345,-0.063751 0.3520864,-0.088022 0.1758397,-0.035168 0.07381,0.0025 0.3168777,-0.070417 0.3956113,-0.1186834 0.7575902,-0.27343 1.161885,-0.3696907 0.070611,-0.016812 0.139451,-0.042176 0.2112518,-0.052813 0.087264,-0.012928 0.1763498,-0.00821 0.2640648,-0.017604 0.2320236,-0.02486 0.3970164,-0.084343 0.6337554,-0.070417 0.4856043,0.028565 0.9594619,0.1297728 1.4259498,0.2640648 0.280958,0.080882 0.5988996,0.241813 0.8978202,0.2816691 0.1048608,0.013981 0.2112432,0.011894 0.3168778,0.017604 0.270881,0.014642 0.538723,0.017604 0.809799,0.017604 0.02934,0 0.05868,0 0.08802,0 0.04694,0.00587 0.09356,0.015853 0.140835,0.017604 0.35098,0.012999 0.483779,-0.00248 0.862611,-0.088022 0.35748,-0.080721 0.706761,-0.2088511 1.056259,-0.3168778 0.131709,-0.04071 0.64695,-0.1625598 0.827403,-0.2640647 0.194539,-0.1094279 0.132959,-0.1097742 0.334482,-0.2288562 0.294887,-0.1742512 0.628085,-0.2656427 0.950634,-0.3696907 0.155302,-0.050098 0.35824,-0.1598064 0.510525,-0.1936475 0.0976,-0.021688 0.217559,0 0.316878,0 0.258196,0 0.516393,0 0.77459,0" />
  <path
     style="fill:none;stroke:#ffffff;stroke-width:0.779;stroke-opacity:1;stroke-dasharray:none"
     d="m 1.8308491,9.682375 c 0.011622,-0.1325226 0.084508,-0.2584165 0.1936475,-0.334482 0.092281,-0.064316 0.2051792,-0.092366 0.3168777,-0.1056259 0.1342035,-0.015932 0.2698569,-0.012319 0.4048993,-0.017604 0.1961711,-0.00768 0.3921035,-0.034339 0.5809425,-0.088022 0.083809,-0.023825 0.1662614,-0.052966 0.2516021,-0.070533 0.085341,-0.017568 0.1749686,-0.023192 0.2589232,1.16e-4 0.088744,0.024638 0.1653276,0.079641 0.2464604,0.1232302 0.155493,0.08354 0.3352319,0.1263465 0.5105252,0.1056259 0.1227217,-0.014506 0.2408385,-0.059273 0.364114,-0.067888 0.061638,-0.00431 0.1247359,7.51e-4 0.1825218,0.022627 0.057786,0.021876 0.1100165,0.061616 0.1399327,0.1156786 0.00635,0.011482 0.01167,0.023504 0.017604,0.035209 0.053064,0.1046689 0.1514446,0.1775885 0.2464604,0.2464605 0.1182714,0.085729 0.2377156,0.1722442 0.3344821,0.2816691 0.065273,0.073811 0.1191687,0.1568932 0.181128,0.2335072 0.061959,0.07662 0.1340849,0.148191 0.2237713,0.188996 0.075753,0.03447 0.1601617,0.0452 0.2433348,0.04815 0.083173,0.003 0.1665847,-0.0014 0.2495861,0.0047 0.1126218,0.0083 0.2228512,0.03576 0.3344821,0.05281 0.1979191,0.03023 0.4002329,0.02753 0.5985468,0 0.076452,-0.01061 0.1523653,-0.02488 0.2288561,-0.03521 0.2628533,-0.0355 0.5309978,-0.02429 0.7921943,-0.07042 0.327501,-0.05784 0.6321507,-0.203505 0.9506332,-0.299273 0.2540359,-0.076389 0.5254543,-0.1248105 0.7393813,-0.2816691 0.12398,-0.090906 0.22098,-0.2131848 0.334482,-0.3168777 0.215365,-0.1967532 0.485075,-0.3224331 0.721777,-0.4929209 0.105772,-0.076184 0.205253,-0.1615391 0.316878,-0.2288562 0.224509,-0.1353933 0.490001,-0.1919716 0.752122,-0.1972606 0.262122,-0.00529 0.522745,0.038378 0.779454,0.091635 0.124059,0.025737 0.247709,0.053764 0.369691,0.088022 0.15369,0.043163 0.30446,0.096139 0.457712,0.1408346 0.219443,0.064 0.445625,0.1116314 0.65136,0.2112518 0.203553,0.098564 0.383624,0.2464711 0.598546,0.3168777 0.08747,0.028656 0.178786,0.043743 0.267377,0.068731 0.08859,0.024988 0.176612,0.061311 0.243149,0.1249163 0.0078,0.00744 0.01527,0.015245 0.02382,0.021787 0.0085,0.00654 0.01835,0.011837 0.029,0.013422 0.01163,0.00173 0.0235,-0.00104 0.03521,0 0.01201,0.00107 0.02346,0.00617 0.03304,0.013474 0.0096,0.00731 0.01739,0.016755 0.02382,0.026952 0.01286,0.020393 0.02032,0.043667 0.03116,0.0652 0.02627,0.052191 0.07328,0.093579 0.128385,0.1130264 0.0551,0.019447 0.117675,0.016737 0.170888,-0.0074"
     id="path6"
     inkscape:path-effect="#path-effect6"
     inkscape:original-d="M 1.8308491,9.682375 C 1.8879122,9.5111856 1.8752271,9.4883819 2.0244966,9.347893 2.1692713,9.2116344 2.1791854,9.2476734 2.3413743,9.2422671 c 0.135019,-0.0045 0.2705742,-0.00321 0.4048993,-0.017604 0.1947431,-0.020865 0.3878619,-0.055157 0.5809425,-0.088022 0.160938,-0.027394 0.3416376,-0.094544 0.5105253,-0.070417 0.079028,0.01129 0.1797259,0.097278 0.2464604,0.1232302 0.1640681,0.063804 0.3367839,0.082765 0.5105252,0.1056259 0.011019,0.00145 0.6609968,0.044846 0.6865685,0.070417 0.00928,0.00928 0.00896,0.025334 0.017604,0.035209 0.076507,0.087436 0.1596245,0.169273 0.2464604,0.2464605 0.1185975,0.1054199 0.2257749,0.1657147 0.3344821,0.2816691 0.1121386,0.1196142 0.2354191,0.3695412 0.4048993,0.4225032 0.1646862,0.05147 0.3220199,0.03382 0.4929209,0.05281 0.1121849,0.01247 0.2220192,0.04317 0.3344821,0.05281 0.1987867,0.01704 0.3991906,0.008 0.5985468,0 0.1098184,-0.0044 0.124235,-0.02649 0.2288561,-0.03521 0.2687362,-0.02239 0.5242114,-0.0156 0.7921943,-0.07042 0.3295262,-0.0674 0.6346735,-0.189903 0.9506332,-0.299273 0.2243681,-0.077666 0.5411033,-0.1527882 0.7393813,-0.2816691 0.225538,-0.1465992 0.13854,-0.1307322 0.334482,-0.3168777 0.213128,-0.2024716 0.476113,-0.3365891 0.721777,-0.4929209 0.111729,-0.0711 0.190222,-0.1760829 0.316878,-0.2288562 0.381411,-0.1589212 1.135598,-0.1810502 1.531576,-0.1056259 0.124438,0.023702 0.247186,0.055784 0.369691,0.088022 0.154379,0.040626 0.306488,0.090427 0.457712,0.1408346 0.21639,0.07213 0.440987,0.1210923 0.65136,0.2112518 0.206594,0.08854 0.394086,0.2214629 0.598546,0.3168777 0.409303,0.1910077 0.08115,0.02667 0.510526,0.1936475 0.01972,0.00767 0.03317,0.027351 0.05281,0.035209 0.0109,0.00436 0.02544,-0.00651 0.03521,0 0.01762,0.011746 0.06971,0.099521 0.08802,0.1056259 0.06145,0.020483 0.299273,0.034602 0.299273,0.105626" />
</svg>
