<?xml version="1.0" encoding="UTF-8" standalone="no"?>
<svg
   width="35px"
   height="44px"
   viewBox="0 0 35 44"
   version="1.1"
   id="svg1"
   sodipodi:docname="download.svg"
   inkscape:version="1.3.2 (091e20e, 2023-11-25, custom)"
   xmlns:inkscape="http://www.inkscape.org/namespaces/inkscape"
   xmlns:sodipodi="http://sodipodi.sourceforge.net/DTD/sodipodi-0.dtd"
   xmlns="http://www.w3.org/2000/svg"
   xmlns:svg="http://www.w3.org/2000/svg">
  <sodipodi:namedview
     id="namedview1"
     pagecolor="#ffffff"
     bordercolor="#000000"
     borderopacity="0.25"
     inkscape:showpageshadow="2"
     inkscape:pageopacity="0.0"
     inkscape:pagecheckerboard="0"
     inkscape:deskcolor="#d1d1d1"
     inkscape:zoom="13.329545"
     inkscape:cx="11.065644"
     inkscape:cy="25.844842"
     inkscape:window-width="2560"
     inkscape:window-height="1369"
     inkscape:window-x="-8"
     inkscape:window-y="-8"
     inkscape:window-maximized="1"
     inkscape:current-layer="svg1" />
  <!-- Generator: Sketch 49 (51002) - http://www.bohemiancoding.com/sketch -->
  <title
     id="title1">icon/security</title>
  <desc
     id="desc1">Created with Sketch.</desc>
  <defs
     id="defs1">
    <inkscape:path-effect
       effect="spiro"
       id="path-effect3"
       is_visible="true"
       lpeversion="1" />
    <inkscape:path-effect
       effect="spiro"
       id="path-effect2"
       is_visible="true"
       lpeversion="1" />
    <inkscape:path-effect
       effect="spiro"
       id="path-effect1"
       is_visible="true"
       lpeversion="1" />
  </defs>
  <path
     style="fill:none;stroke:#95aabf;stroke-width:1.13386"
     d="m 8.1773231,17.479966 v -1.650469 c 0,-0.675288 0.036886,-1.351295 0,-2.025575 C 8.1386784,13.097492 7.9925549,12.40148 7.9198265,11.697742 7.8470981,10.994004 7.8512679,10.26418 8.1023018,9.602728 8.2889264,9.110989 8.6204426,8.662507 9.0775789,8.402387 9.2045598,8.3301322 9.3413182,8.2718866 9.4526854,8.1773231 9.5659445,8.0811532 9.646969,7.9520292 9.7090409,7.8170353 9.7711127,7.6820413 9.8157847,7.539849 9.8680877,7.4007782 9.9203906,7.2617074 9.981294,7.1240418 10.071572,7.0060329 c 0.09028,-0.1180089 0.212798,-0.2159366 0.35639,-0.2541147 0.04715,-0.012537 0.09652,-0.018739 0.140585,-0.03969 0.02203,-0.010475 0.04257,-0.024722 0.0581,-0.043535 0.01553,-0.018813 0.02581,-0.042428 0.02638,-0.066817 2.93e-4,-0.012605 -0.002,-0.025111 -0.0032,-0.037662 -0.0012,-0.012551 -0.0013,-0.025554 0.0032,-0.037359 0.0036,-0.00964 0.01016,-0.018086 0.01827,-0.024443 0.0081,-0.00636 0.01772,-0.010666 0.02775,-0.013042 0.02004,-0.00475 0.04121,-0.00182 0.06095,0.00404 0.01975,0.00586 0.03852,0.014569 0.05785,0.02167 0.01934,0.0071 0.03967,0.012648 0.06025,0.011772 0.02299,-9.787e-4 0.04509,-0.01 0.06433,-0.0226 0.01925,-0.012605 0.03592,-0.028717 0.05197,-0.045204 0.01605,-0.016487 0.03164,-0.033498 0.04924,-0.048318 0.0176,-0.01482 0.03744,-0.027502 0.05953,-0.033921 0.02413,-0.00701 0.0498,-0.00627 0.07484,-0.0041 0.02504,0.00217 0.05012,0.00571 0.0752,0.0041 0.03198,-0.00207 0.06308,-0.01256 0.0912,-0.027937 0.02812,-0.015377 0.05339,-0.035551 0.07664,-0.057618 0.04648,-0.044134 0.08521,-0.095965 0.132246,-0.1395097 0.107303,-0.099337 0.250114,-0.1491788 0.375107,-0.225064 0.206955,-0.125646 0.361909,-0.3209235 0.495259,-0.5230005 0.13335,-0.202077 0.250423,-0.4159742 0.404996,-0.6023192 0.284414,-0.3428735 0.69045,-0.5785417 1.12532,-0.6751918 0.31888,-0.070871 0.648665,-0.069408 0.975277,-0.075021 1.326345,-0.022795 2.649706,-0.1676327 3.97613,-0.1500426 0.850843,0.011283 1.704504,0.089289 2.550724,0 0.04998,-0.00527 0.101023,-0.011075 0.150043,0 0.04613,0.010423 0.08822,0.035601 0.122411,0.068277 0.03419,0.032677 0.06081,0.072657 0.08192,0.1149833 0.04221,0.084653 0.06274,0.178221 0.09575,0.2668673 0.08661,0.2325857 0.258548,0.4266563 0.459904,0.5717542 0.201355,0.1450979 0.431807,0.2446918 0.665416,0.3285016 0.201212,0.072187 0.406876,0.133771 0.600171,0.2250639 0.263866,0.1246237 0.498897,0.3018145 0.750213,0.4501279 0.646114,0.381303 1.394859,0.5690094 2.025575,0.9752771 0.198576,0.1279104 0.385163,0.2773054 0.600171,0.3751065 0.17363,0.078979 0.363803,0.1233177 0.525149,0.225064 0.154334,0.097324 0.27455,0.2437096 0.355179,0.4073866 0.08063,0.1636769 0.123085,0.3442853 0.140781,0.5258836 0.03539,0.3631966 -0.026,0.7279274 -0.04583,1.0923052 -0.06051,1.1118157 0.265179,2.2029437 0.450128,3.3009377 0.05869,0.348452 0.102444,0.712114 0,1.050299 -0.03906,0.128954 -0.09847,0.250628 -0.150043,0.375106 -0.284243,0.686012 -0.326727,1.443377 -0.450128,2.175619 -0.02528,0.150004 -0.05408,0.299455 -0.07502,0.450127 -0.05525,0.397568 -0.05525,0.802773 0,1.200341"
     id="path3"
     inkscape:path-effect="#path-effect3"
     inkscape:original-d="m 8.1773231,17.479966 c 0,-0.550156 0,-1.100313 0,-1.650469 0,-0.675192 0.040439,-1.351596 0,-2.025575 C 8.1170383,12.799175 7.6575253,10.64054 8.1023018,9.602728 8.2761394,9.197107 8.7469959,8.672864 9.0775789,8.402387 9.1904336,8.3100513 9.3495785,8.28043 9.4526854,8.1773231 9.8555386,7.7744699 10.089179,7.2036289 10.427962,6.7519182 c 0.06108,-0.081434 0.181909,-0.1068869 0.225064,-0.1500427 0.01768,-0.017683 -0.02372,-0.067113 0,-0.075021 0.07117,-0.023724 0.153893,0.023724 0.225064,0 0.08554,-0.028512 0.141349,-0.1165564 0.225064,-0.1500426 0.04644,-0.018575 0.105309,0.022367 0.150043,0 0.111835,-0.055918 0.196049,-0.1557067 0.300085,-0.2250639 0.121326,-0.080884 0.262252,-0.1327283 0.375107,-0.225064 0.419413,-0.3431565 0.537836,-0.7629005 0.900255,-1.1253197 0.290115,-0.2901141 0.73208,-0.5572196 1.12532,-0.6751918 0.381023,-0.1143067 0.576247,-0.06293 0.975277,-0.075021 1.322755,-0.040083 2.654703,-0.089978 3.97613,-0.1500426 0.859178,-0.039054 1.700607,-0.1416864 2.550724,0 0.04933,0.00822 0.114678,-0.035365 0.150043,0 0.127512,0.1275117 0.180281,0.3153484 0.300085,0.4501278 0.179153,0.2015465 0.900122,0.7876567 1.12532,0.9002558 0.191104,0.095552 0.409067,0.1295119 0.600171,0.2250639 0.260842,0.1304211 0.490788,0.3169098 0.750213,0.4501279 0.666623,0.3423199 1.359161,0.63255 2.025575,0.9752771 0.209798,0.1078959 0.392453,0.2632586 0.600171,0.3751065 0.167684,0.090292 0.419507,0.066601 0.525149,0.225064 0.01209,0.018138 0.434056,1.9516442 0.450128,2.0255754 0.242789,1.1168317 0.450128,2.1555787 0.450128,3.3009377 0,0.3501 0.05756,0.704963 0,1.050299 -0.02214,0.132835 -0.11461,0.245184 -0.150043,0.375106 -0.171487,0.628787 -0.368035,1.518878 -0.450128,2.175619 -0.114045,0.912364 0.108488,-0.100399 -0.07502,0.450127 -0.09432,0.282947 0,0.876078 0,1.200341" />
  <path
     style="fill:none;stroke:#1c1f30;stroke-width:1.13386;stroke-opacity:1"
     d="M 3.601023,42.462063 C 3.2699358,42.298465 2.9445779,42.123272 2.6257459,41.936914 2.5172718,41.873511 2.4075418,41.80715 2.3256607,41.71185 2.2158114,41.583998 2.1664352,41.416894 2.1005968,41.261722 1.9823685,40.983075 1.8033135,40.729004 1.7254902,40.436488 1.62216,40.048099 1.7078642,39.633927 1.6504689,39.236147 1.6322555,39.109919 1.5997339,38.986242 1.5754476,38.86104 1.4847067,38.393248 1.5099848,37.91205 1.5004263,37.435635 1.4942838,37.129481 1.4719428,36.816433 1.3503836,36.535379 1.2967602,36.411398 1.223799,36.293302 1.200341,36.160273 c -0.017417,-0.09877 -0.0064,-0.199993 0,-0.300085 C 1.2312738,35.37633 1.1513874,34.886513 0.97527707,34.434783 0.73130245,33.808978 0.30958945,33.263662 0.07502131,32.634271 -0.28541836,31.667143 -0.16520488,30.5547 0.30008525,29.633419 c 0.0504246,-0.09984 0.10472553,-0.197825 0.15004263,-0.300086 0.23752643,-0.535994 0.21301903,-1.145725 0.30008525,-1.72549 0.0641461,-0.427143 0.19062864,-0.844804 0.22506394,-1.275362 0.0459078,-0.574003 -0.073209,-1.154327 0,-1.72549 0.0486623,-0.379655 0.18125013,-0.745075 0.22506393,-1.12532 0.040219,-0.349051 0.00505,-0.705976 0.075021,-1.050298 0.03627,-0.17848 0.1001467,-0.34999 0.1500426,-0.52515 0.2282091,-0.801129 0.1585393,-1.65793 0,-2.475703 -0.026625,-0.137334 -0.055772,-0.274792 -0.063633,-0.414462 -0.00786,-0.13967 0.00649,-0.283083 0.063633,-0.410772 0.064473,-0.144076 0.1806723,-0.260913 0.314089,-0.345261 0.1334167,-0.08435 0.2838721,-0.138249 0.4361242,-0.179889 0.7806596,-0.213506 1.6140089,-0.115136 2.400682,0.07502 0.1002209,0.02423 0.2000826,0.04991 0.3000852,0.07502 0.2480427,0.06229 0.4986196,0.121308 0.7539942,0.13504 0.2553745,0.01373 0.5180255,-0.02 0.7464321,-0.13504 0.1000444,-0.05039 0.1933315,-0.116106 0.3000852,-0.150043 0.1682857,-0.0535 0.3500127,-0.02257 0.5251492,0 1.0238581,0.13193 2.0600936,-0.041 3.0758743,-0.225064 0.821623,-0.148884 1.643594,-0.305634 2.475703,-0.375106 0.773075,-0.06454 1.550199,-0.05335 2.325661,-0.07502 0.775529,-0.02167 1.553577,-0.07616 2.325661,0 0.683739,0.06745 1.352661,0.236415 2.025575,0.375106 1.037439,0.213821 2.091813,0.356578 3.150895,0.375107 1.351297,0.02364 2.708513,-0.15455 4.051151,0 0.599008,0.06895 1.197549,0.150042 1.800512,0.150042 h 2.100596 c 0.101272,0 0.202679,-0.0085 0.301304,-0.03152 0.04931,-0.0115 0.09817,-0.02505 0.147874,-0.03471 0.0497,-0.0097 0.100778,-0.0153 0.150993,-0.0088 0.09131,0.01184 0.174005,0.06385 0.236912,0.131089 0.06291,0.06724 0.107935,0.149116 0.147023,0.232484 0.03909,0.08337 0.07299,0.169288 0.117186,0.250062 0.0442,0.08077 0.09977,0.157216 0.174071,0.211599 0.08273,0.06055 0.183623,0.09039 0.273146,0.14036 0.04476,0.02498 0.08715,0.05547 0.119862,0.09494 0.03272,0.03947 0.05531,0.08858 0.05712,0.139811 8.89e-4,0.02516 -0.0032,0.05019 -0.0054,0.07526 -0.0022,0.02507 -0.0026,0.05091 0.0054,0.07478 0.01139,0.03399 0.03841,0.06034 0.06675,0.08229 0.02834,0.02195 0.0592,0.0412 0.08329,0.06775 0.02187,0.0241 0.0374,0.05352 0.04765,0.08441 0.01025,0.03089 0.01537,0.06329 0.018,0.09573 0.0053,0.06488 7.27e-4,0.130448 0.0094,0.194965 0.01125,0.08396 0.04455,0.163643 0.08613,0.237449 0.04157,0.07381 0.09148,0.142514 0.138938,0.212679 0.417416,0.617104 0.645841,1.356155 0.675192,2.100596 0.01182,0.299887 -0.0077,0.600236 0,0.900256 0.01382,0.53677 0.115695,1.071153 0.300085,1.575448 0.05436,0.148674 0.116064,0.295517 0.150043,0.450128 0.05386,0.245091 0.03603,0.499684 0.01344,0.749605 -0.02259,0.249922 -0.0496,0.5025 -0.01344,0.750821 0.04462,0.306436 0.183724,0.593359 0.225064,0.900256 0.02038,0.151291 0.01741,0.308758 0.07502,0.450128 0.04227,0.103721 0.11538,0.193582 0.150043,0.300085 0.0314,0.09648 0.02921,0.200138 0.02945,0.301598 2.42e-4,0.10146 0.0039,0.206056 0.04557,0.298572 0.03708,0.08236 0.101498,0.148899 0.150043,0.225064 0.09729,0.152647 0.127673,0.340582 0.11623,0.521236 -0.01144,0.180655 -0.062,0.35636 -0.11623,0.529063 -0.173001,0.550975 -0.386713,1.08981 -0.525149,1.650469 -0.106532,0.43145 -0.170401,0.880909 -0.375107,1.275362 -0.05156,0.09936 -0.111912,0.194835 -0.150042,0.300085 -0.05151,0.142179 -0.06025,0.296032 -0.06066,0.447253 -4.17e-4,0.151222 0.0069,0.303285 -0.01436,0.453003 -0.04017,0.282677 -0.180243,0.543256 -0.225064,0.825234 -0.02751,0.173086 -0.01955,0.349624 -0.01207,0.524724 0.0075,0.175099 0.01207,0.350317 0.01207,0.525575 v 1.950554 c 0,0.125165 0.0031,0.250305 0.008,0.375371 0.005,0.125066 0.01029,0.251026 -0.008,0.374842 -0.02276,0.153811 -0.08237,0.299275 -0.134512,0.445759 -0.05214,0.146483 -0.09771,0.299175 -0.09055,0.454497 0.0066,0.1427 0.05738,0.279578 0.115938,0.409877 0.05856,0.130298 0.125693,0.257422 0.16825,0.393787 0.04256,0.136365 0.05928,0.285576 0.01523,0.421465 -0.02203,0.06795 -0.05928,0.131432 -0.110889,0.180807 -0.05161,0.04937 -0.117851,0.08416 -0.188526,0.09449 -0.04958,0.0072 -0.100003,0.0026 -0.150042,0 -0.338762,-0.01752 -0.675839,0.06088 -0.997271,0.169269 -0.321432,0.10839 -0.632021,0.246988 -0.953283,0.35588 -0.414104,0.140362 -0.843677,0.230578 -1.275363,0.300085 -1.040988,0.167612 -2.105964,0.215975 -3.150895,0.07502 -0.904981,-0.122077 -1.789919,-0.384931 -2.700767,-0.450128 -0.325397,-0.02329 -0.653503,-0.02129 -0.975277,-0.07502 -0.276018,-0.04609 -0.545917,-0.13297 -0.825235,-0.150042 -0.224761,-0.01374 -0.450743,0.01815 -0.675191,0 -0.332995,-0.02692 -0.647146,-0.162293 -0.975278,-0.225064 -0.418717,-0.0801 -0.850452,-0.04049 -1.275362,-0.07502 -0.325429,-0.02644 -0.649482,-0.0965 -0.975277,-0.07502 -0.467492,0.03082 -0.899859,0.246556 -1.350384,0.375107 -0.198314,0.05659 -0.401035,0.09642 -0.60017,0.150042 -0.458277,0.123406 -0.894283,0.318909 -1.350384,0.450128 -1.167357,0.335845 -2.420417,0.239345 -3.601023,0.52515 -0.348563,0.08438 -0.69239,0.202314 -1.050298,0.225064 -0.1248353,0.0079 -0.2500887,0.0042 -0.3751069,0 -1.4755638,-0.04905 -2.9498786,-0.150103 -4.4262575,-0.150043 -0.2029426,8e-6 -0.411936,8.32e-4 -0.6001705,-0.07502 -0.074363,-0.02997 -0.1436338,-0.07127 -0.2170346,-0.10352 -0.073401,-0.03225 -0.1534356,-0.0556 -0.2330933,-0.04652 -0.038365,0.0044 -0.075571,0.01615 -0.1138894,0.02092 -0.019159,0.0024 -0.038657,0.003 -0.057732,5e-6 -0.019075,-0.003 -0.037762,-0.0097 -0.053443,-0.02092 -0.014407,-0.01035 -0.025861,-0.02419 -0.037247,-0.0378 -0.011385,-0.0136 -0.023068,-0.0273 -0.037774,-0.03722 -0.015915,-0.01073 -0.034798,-0.01657 -0.053874,-0.01874 -0.019075,-0.0022 -0.038401,-7.88e-4 -0.057395,0.002 -0.037988,0.0056 -0.0754,0.01679 -0.1137949,0.01674 -0.044614,-6.5e-5 -0.089044,-0.016 -0.1235256,-0.04431 -0.034482,-0.02831 -0.058766,-0.06879 -0.067515,-0.112535 -0.00875,-0.04375 -0.0019,-0.09045 0.019039,-0.129845 0.020941,-0.03939 0.055823,-0.07119 0.09698,-0.08841 z"
     id="path1"
     inkscape:path-effect="#path-effect1"
     inkscape:original-d="M 3.601023,42.462063 C 3.1133716,42.48389 2.9499869,42.214835 2.6257459,41.936914 2.5308119,41.855542 2.4024251,41.810547 2.3256607,41.71185 2.2226705,41.579434 2.1756181,41.411765 2.1005968,41.261722 1.9806288,41.021786 1.8051194,40.701918 1.7254902,40.436488 1.6033033,40.029198 1.6880827,39.649898 1.6504689,39.236147 1.6389245,39.109159 1.5895289,38.987772 1.5754476,38.86104 1.5224491,38.384054 1.5804201,37.915598 1.5004263,37.435635 1.450412,37.13555 1.4304304,36.828884 1.3503836,36.535379 1.3149503,36.405457 1.2295545,36.291733 1.200341,36.160273 c -0.021699,-0.09765 0.012407,-0.200829 0,-0.300085 -0.05915,-0.473197 -0.07175,-0.965464 -0.22506393,-1.425405 -0.21478449,-0.644354 -0.71440522,-1.150035 -0.90025576,-1.800512 -0.14342947,-0.502003 0.10775832,-2.560956 0.22506394,-3.000852 0.0288157,-0.108059 0.11467724,-0.19399 0.15004263,-0.300086 0.18437735,-0.553132 0.23325969,-1.157473 0.30008525,-1.72549 0.0504391,-0.428733 0.18210922,-0.845815 0.22506394,-1.275362 0.0569718,-0.569719 -0.0518433,-1.155215 0,-1.72549 0.0343047,-0.377353 0.18762523,-0.750933 0.22506393,-1.12532 0.088539,-0.885394 -0.1375817,0.01272 0.075021,-1.050298 0.035704,-0.17852 0.12236,-0.345212 0.1500426,-0.52515 0.1037555,-0.67441 0,-1.731779 0,-2.475703 0,-0.205887 -0.077341,-0.631882 0,-0.825234 0.111573,-0.278933 0.5191553,-0.44813 0.7502132,-0.52515 0.3503337,-0.116778 2.0071112,0.02255 2.400682,0.07502 0.1022025,0.01363 0.197282,0.06711 0.3000852,0.07502 0.292102,0.02247 1.2091479,0.08322 1.5004263,0 0.1075322,-0.03072 0.190054,-0.130037 0.3000852,-0.150043 0.1722262,-0.03131 0.3502394,0.007 0.5251492,0 1.0144141,-0.04058 2.0669301,-0.08748 3.0758743,-0.225064 0.826938,-0.112764 1.648765,-0.262342 2.475703,-0.375106 0.773809,-0.105519 1.54757,-0.07502 2.325661,-0.07502 0.77522,0 1.551634,-0.043 2.325661,0 0.690017,0.03833 1.346277,0.256967 2.025575,0.375106 1.045073,0.181752 2.088822,0.338483 3.150895,0.375107 1.3475,0.04647 2.704857,-0.07086 4.051151,0 0.609515,0.03208 1.19167,0.150042 1.800512,0.150042 0.700198,0 1.400397,0 2.100596,0 0.207919,0 0.389565,-0.127673 0.600171,-0.07502 0.08788,0.02197 0.571943,0.721986 0.675192,0.825234 0.103287,0.103288 0.396078,0.212957 0.450128,0.375107 0.01581,0.04745 -0.02237,0.105309 0,0.150043 0.03163,0.06326 0.12218,0.08503 0.150042,0.150042 0.05023,0.117202 0.03144,0.255272 0.07502,0.375107 0.05733,0.157653 0.162763,0.294373 0.225064,0.450128 0.25739,0.643474 0.587373,1.398045 0.675192,2.100596 0.03687,0.294979 -0.04203,0.606046 0,0.900256 0.07238,0.506649 0.163928,1.076203 0.300085,1.575448 0.04162,0.152586 0.119026,0.29504 0.150043,0.450128 0.09473,0.473652 -0.04378,1.018874 0,1.500426 0.05609,0.616965 0.07364,0.29456 0.225064,0.900256 0.03689,0.14757 0.03131,0.30443 0.07502,0.450128 0.03214,0.107118 0.122919,0.191589 0.150043,0.300085 0.145598,0.582391 -0.174339,0.01833 0.07502,0.60017 0.03552,0.08287 0.12153,0.139527 0.150043,0.225064 0.04816,0.144477 0.02813,0.909662 0,1.050299 -0.110005,0.550025 -0.358445,1.117015 -0.525149,1.650469 -0.130391,0.41725 -0.221814,0.866581 -0.375107,1.275362 -0.03927,0.104714 -0.117907,0.192966 -0.150042,0.300085 -0.139463,0.464876 -0.03579,0.429456 -0.07502,0.900256 -0.160833,1.929996 0.03784,-0.883655 -0.225064,0.825234 -0.05323,0.346029 0,0.700199 0,1.050299 0,0.650184 0,1.300369 0,1.950554 0,0.250071 0.04111,0.503544 0,0.750213 -0.05085,0.305112 -0.197059,0.592205 -0.225064,0.900256 -0.02255,0.248085 0.08671,1.327004 0,1.500426 -0.02237,0.04473 -0.102595,-0.01582 -0.150042,0 -0.650642,0.21688 -1.272191,0.389476 -1.950554,0.525149 -0.753001,0.1506 -0.47807,0.167203 -1.275363,0.300085 -1.008981,0.168164 -2.136749,0.114027 -3.150895,0.07502 -0.89591,-0.03446 -1.818548,-0.336293 -2.700767,-0.450128 -0.323372,-0.04173 -0.651742,-0.03458 -0.975277,-0.07502 -0.277429,-0.03468 -0.547034,-0.122222 -0.825235,-0.150042 -0.223947,-0.0224 -0.452191,0.03041 -0.675191,0 -0.330577,-0.04508 -0.647534,-0.162637 -0.975278,-0.225064 -0.747278,-0.142339 -0.48364,-0.03104 -1.275362,-0.07502 -0.238149,-0.01323 -0.685711,-0.107196 -0.975277,-0.07502 -0.495384,0.05504 -0.884965,0.219967 -1.350384,0.375107 -0.195631,0.06521 -0.40189,0.09339 -0.60017,0.150042 -0.453896,0.129685 -0.897826,0.326703 -1.350384,0.450128 -1.068024,0.29128 -2.50587,0.388255 -3.601023,0.52515 -2.3322458,0.29153 1.319842,-0.16996 -1.050298,0.225064 -0.1233347,0.02056 -0.250692,-0.01244 -0.3751069,0 -1.3520821,0.135208 -3.1293373,0.220505 -4.4262575,-0.150043 -0.7134463,-0.203842 0.1098964,0.02642 -0.6001705,-0.07502 -0.1565692,-0.02237 -0.294121,-0.124042 -0.4501279,-0.150043 -0.074,-0.01233 -0.1522826,0.01819 -0.2250639,0 -0.034309,-0.0086 -0.041471,-0.06384 -0.075021,-0.07502 -0.071172,-0.02372 -0.1972018,0.06965 -0.225064,0 -0.047357,-0.118392 -0.050014,-0.250071 -0.075021,-0.375107 z"
     transform="matrix(0.98079504,0,0,1.006076,0.66879658,-0.25929725)" />
  <path
     style="fill:none;stroke:#ff9500;stroke-width:1.13386;stroke-opacity:1"
     d="m 16.879795,35.935209 c -0.692752,-0.72913 -1.033205,-1.778864 -0.900255,-2.775789 0.08185,-0.613716 0.330118,-1.193103 0.450128,-1.800511 0.04261,-0.215646 0.06898,-0.436164 0.05199,-0.655321 -0.01699,-0.219157 -0.07912,-0.437801 -0.20203,-0.620042 -0.131092,-0.194373 -0.324136,-0.338399 -0.524111,-0.460775 -0.199975,-0.122375 -0.411049,-0.227327 -0.601209,-0.364459 -0.174783,-0.126044 -0.332111,-0.279334 -0.525149,-0.375107 -0.170906,-0.08479 -0.36477,-0.121732 -0.525149,-0.225063 -0.119537,-0.07702 -0.213963,-0.186933 -0.300085,-0.300086 -0.185379,-0.243565 -0.344456,-0.520686 -0.375107,-0.825234 -0.02774,-0.275638 0.05423,-0.5567 0.204769,-0.789261 0.150536,-0.232562 0.366571,-0.418436 0.606821,-0.55637 0.480501,-0.275868 1.042998,-0.361261 1.589092,-0.454881 0.227425,-0.03899 0.455202,-0.08042 0.675192,-0.150042 0.226326,-0.07162 0.443624,-0.172823 0.675192,-0.225064 0.148414,-0.03348 0.300706,-0.04637 0.450128,-0.07502 0.233523,-0.04478 0.458239,-0.12775 0.675191,-0.225064 0.232232,-0.104167 0.46385,-0.227118 0.717378,-0.249616 0.126764,-0.01125 0.257604,0.0041 0.372941,0.05786 0.115337,0.05379 0.213962,0.148154 0.260065,0.266772 0.04629,0.119096 0.03796,0.252823 0.07502,0.375106 0.0325,0.107246 0.09825,0.200712 0.150043,0.300086 0.124639,0.239127 0.168234,0.514816 0.156827,0.784234 -0.01141,0.269419 -0.07566,0.53406 -0.156827,0.791213 -0.06434,0.203847 -0.139507,0.404279 -0.225064,0.600171 -0.07193,0.27591 -0.146953,0.551011 -0.225064,0.825234 -0.07408,0.260051 -0.152792,0.523457 -0.300085,0.750213 -0.04913,0.07564 -0.105555,0.146605 -0.150043,0.225064 -0.102605,0.180953 -0.136697,0.392581 -0.150042,0.600171 -0.02889,0.4494 0.03105,0.901127 0,1.350383 -0.0139,0.201188 -0.04597,0.400606 -0.07502,0.600171 -0.09786,0.67241 -0.16075,1.36537 0,2.025575 0.06629,0.272262 0.170289,0.537367 0.194802,0.816509 0.01226,0.139571 0.004,0.282273 -0.0384,0.415816 -0.04239,0.133543 -0.120368,0.2577 -0.231423,0.343123 -0.09451,0.0727 -0.208248,0.114769 -0.31656,0.164621 -0.108312,0.04985 -0.216606,0.111859 -0.283611,0.210485 -0.03144,0.04628 -0.05262,0.09907 -0.08577,0.144144 -0.01657,0.02254 -0.03625,0.04313 -0.05988,0.0581 -0.02364,0.01496 -0.05147,0.02406 -0.07942,0.02282 -0.02066,-9.13e-4 -0.04068,-0.0073 -0.05998,-0.01479 -0.0193,-0.0074 -0.03824,-0.01599 -0.0582,-0.02143 -0.01995,-0.0054 -0.0413,-0.0077 -0.06129,-0.0023 -0.01,0.0027 -0.01953,0.0072 -0.02754,0.01379 -0.008,0.0065 -0.01446,0.01509 -0.01806,0.02478 -0.0044,0.01182 -0.0044,0.0248 -0.0033,0.03736 0.0011,0.01256 0.0033,0.02505 0.0033,0.03766 -2.8e-5,0.03447 -0.01764,0.068 -0.0446,0.08948 -0.02697,0.02148 -0.06252,0.03112 -0.0969,0.02863 -0.03438,-0.0025 -0.06746,-0.01666 -0.09459,-0.03792 -0.02713,-0.02126 -0.04849,-0.04939 -0.06399,-0.08018 -0.04014,-0.07973 -0.04064,-0.172859 -0.03957,-0.262115 0.0011,-0.08926 0.0021,-0.18207 -0.03545,-0.263035 -0.03124,-0.0673 -0.08889,-0.121908 -0.157777,-0.149463 -0.06889,-0.02756 -0.148294,-0.02777 -0.21733,-5.79e-4 z"
     id="path2"
     inkscape:path-effect="#path-effect2"
     inkscape:original-d="m 16.879795,35.935209 c -0.267292,-0.940998 -1.013398,-1.757508 -0.900255,-2.775789 0.06901,-0.62113 0.413434,-1.176722 0.450128,-1.800511 0.01578,-0.268327 0.09193,-0.972892 -0.150043,-1.275363 -0.276973,-0.346216 -0.827243,-0.621287 -1.12532,-0.825234 -0.177539,-0.121474 -0.338373,-0.268378 -0.525149,-0.375107 -0.165356,-0.09449 -0.364475,-0.122816 -0.525149,-0.225063 -0.119346,-0.07595 -0.19268,-0.208024 -0.300085,-0.300086 -0.263402,-0.225772 -0.51249,-0.413086 -0.375107,-0.825234 0.245206,-0.735617 1.702132,-1.582215 2.400682,-1.800512 0.220059,-0.06877 0.453049,-0.08834 0.675192,-0.150042 0.228583,-0.0635 0.445964,-0.163937 0.675192,-0.225064 0.146976,-0.03919 0.305821,-0.02692 0.450128,-0.07502 1.628577,-0.542859 -0.214636,-0.09794 0.675191,-0.225064 0.245657,-0.03509 1.232509,-0.278603 1.350384,0.07502 0.04032,0.120968 0.0347,0.254138 0.07502,0.375106 0.03537,0.106097 0.125782,0.190914 0.150043,0.300086 0.04997,0.224846 0.04748,1.33802 0,1.575447 -0.0419,0.209512 -0.153202,0.398957 -0.225064,0.600171 -0.162438,0.224264 -0.141541,0.574665 -0.225064,0.825234 -0.07152,0.214573 -0.196287,0.542617 -0.300085,0.750213 -0.04032,0.08065 -0.116557,0.141349 -0.150043,0.225064 -0.04873,0.121817 -0.0938,0.431431 -0.150042,0.600171 -0.0867,0.260098 0,1.036579 0,1.350383 0,0.88478 0.02426,-0.293365 -0.07502,0.600171 -0.07284,0.655559 0,1.367199 0,2.025575 0,0.351492 0.110342,1.26651 -0.07502,1.575448 -0.128806,0.214677 -0.413673,0.241894 -0.600171,0.375106 -0.08633,0.06167 -0.130168,0.177617 -0.225064,0.225064 -0.0671,0.03355 -0.153892,-0.02372 -0.225063,0 -0.02372,0.0079 0.01768,0.05734 0,0.07502 -0.01169,0.01169 -0.288394,0.01169 -0.300086,0 -0.06664,-0.06664 0.02997,-0.462157 -0.07502,-0.52515 -0.115476,-0.06929 -0.250071,-0.100028 -0.375107,-0.150042 z" />
</svg>
