<?xml version="1.0" encoding="UTF-8" standalone="no"?>
<!-- Created with Inkscape (http://www.inkscape.org/) -->

<svg
   width="30"
   height="49"
   viewBox="0 0 7.9374998 12.964583"
   version="1.1"
   id="svg1"
   xml:space="preserve"
   xmlns="http://www.w3.org/2000/svg"
   xmlns:svg="http://www.w3.org/2000/svg"><defs
     id="defs1" /><g
     id="layer1"><g
       id="Group"
       style="display:inline;fill:none;fill-rule:nonzero;stroke:none;stroke-width:1"
       transform="matrix(0.26458333,0,0,0.26458333,0.01910171,-0.009945)" /><path
       style="fill:none;stroke:#f7931a;stroke-width:0.3;stroke-dasharray:none;stroke-opacity:1"
       d="m 0.18989769,11.615409 c -0.0266775,-0.294526 -0.0372483,-0.59051 -0.0316496,-0.886189 0.001429,-0.07547 0.003903,-0.151154 -0.00326,-0.226299 -0.007163,-0.07515 -0.0243333,-0.150289 -0.06003969,-0.216796 C 0.06582178,10.231873 0.02486773,10.184209 0,10.127877 -0.03023688,10.059383 -0.03478353,9.9821181 -0.02909039,9.9074633 -0.02339725,9.8328084 -0.00798388,9.7592272 0,9.6847825 0.0213909,9.4853256 -0.01083679,9.2837474 0,9.0834397 0.01266347,8.8493678 0.08385656,8.6212999 0.09494885,8.3871482 c 0.0074915,-0.1581412 -0.01256979,-0.3169255 0,-0.4747443 0.01120658,-0.140703 0.04821517,-0.2782574 0.09494884,-0.4114448 0.0365365,-0.1041262 0.0793942,-0.2072477 0.0949489,-0.3164962 0.0209257,-0.1469725 -0.008361,-0.3001335 0.0316496,-0.4430948 0.008993,-0.032132 0.0213713,-0.063205 0.0316496,-0.094949 0.0592685,-0.1830479 0.0466023,-0.3830179 0,-0.5696928 C 0.32954163,6.0022036 0.30570952,5.9291011 0.28484659,5.855179 0.2267221,5.6492307 0.1916592,5.4361728 0.18989769,5.2221867 0.18832755,5.0314479 0.21310438,4.8415998 0.22586445,4.6512818 0.23862452,4.4609638 0.23903529,4.2671078 0.18989769,4.0828003 0.17010606,4.0085649 0.142411,3.9364367 0.12659846,3.8612532 0.10042652,3.7368141 0.10755335,3.6079931 0.09494885,3.4814578 0.07595392,3.2907696 0.01203186,3.1023898 0.03164962,2.9117647 0.04740723,2.7586485 0.11597501,2.6166763 0.15824808,2.46867 c 0.0330622,-0.1157572 0.0503118,-0.2363406 0.0949488,-0.3481457 0.026256,-0.065765 0.0615867,-0.1274366 0.0949489,-0.1898977 0.0999547,-0.1871365 0.18446232,-0.3892544 0.1898977,-0.6013427 0.001622,-0.063294 -0.003845,-0.1267002 0,-0.1898977 0.005857,-0.096281 0.0331428,-0.18981526 0.0492898,-0.28491357 0.016147,-0.0950983 0.0204715,-0.19616854 -0.0176402,-0.28477953 -0.0167342,-0.0389074 -0.0414791,-0.0750549 -0.0492959,-0.11668078 -0.003908,-0.020813 -0.00327,-0.0428886 0.00481,-0.0624632 0.00404,-0.009787 0.009918,-0.0188547 0.0174895,-0.0262564 0.007572,-0.007402 0.0168534,-0.0131092 0.0269967,-0.0161469 0.0101715,-0.003046 0.0209686,-0.00338 0.0315686,-0.002766 0.0106,6.1465e-4 0.0211304,0.002152 0.0317306,0.002766 0.0386453,0.002236 0.0770008,-0.007867 0.1133216,-0.021256 0.0363208,-0.0133887 0.0713924,-0.0301368 0.10822571,-0.0420432 0.095949,-0.0310154 0.19941221,-0.0278846 0.29979441,-0.0183147 0.1003821,0.00957 0.2009514,0.0252743 0.3015483,0.0183147 0.074899,-0.005182 0.148409,-0.0228612 0.2231108,-0.0303727 0.074702,-0.007511 0.1532684,-0.004063 0.2199838,0.0303727 0.033829,0.0174613 0.063267,0.0421913 0.094949,0.0632992 0.072922,0.0485839 0.1577432,0.0777278 0.2442856,0.0914563 0.086543,0.0137286 0.1749406,0.0124286 0.2621083,0.003492 0.1904423,-0.0195235 0.3786277,-0.0752762 0.5696931,-0.0632992 0.042263,0.002649 0.08513,0.008577 0.1265983,0 0.034798,-0.007198 0.066711,-0.0242702 0.097127,-0.0426433 0.030416,-0.0183732 0.060089,-0.0383547 0.092771,-0.0523056 0.07876,-0.0336203 0.1675867,-0.0295717 0.253197,-0.0316496 0.3628635,-0.008807 0.7137219,-0.13729449 1.0760869,-0.15824808 0.207919,-0.01202282 0.4257603,0.01459076 0.6013426,0.12659846 0.020055,0.0127934 0.039462,0.0266381 0.06016,0.0383631 0.020698,0.011725 0.042919,0.0213695 0.066439,0.0249361 0.026216,0.003976 0.0529,2.7742e-4 0.079263,-0.002567 0.026363,-0.002845 0.053505,-0.004771 0.078985,0.002567 0.018423,0.005305 0.035201,0.0152678 0.050586,0.0267074 0.015385,0.0114396 0.029556,0.024412 0.044363,0.0365918 0.098064,0.0806696 0.2225827,0.12481851 0.3485461,0.14085848 0.1259635,0.01604 0.2539378,0.005351 0.3793949,-0.01426 0.1541889,-0.0241026 0.3065101,-0.0616597 0.4620545,-0.0743511 0.1555444,-0.0126915 0.317931,0.001197 0.4557845,0.0743511 0.07522,0.0399168 0.1417899,0.0973712 0.1879048,0.16895924 0.046115,0.071588 0.071075,0.15752705 0.065292,0.24248575 -0.00144,0.0211388 -0.00471,0.0426408 0,0.0632992 0.00426,0.0187189 0.014827,0.0354081 0.026728,0.0504723 0.011902,0.0150642 0.025314,0.0289249 0.036572,0.0444765 0.019721,0.027244 0.032343,0.059038 0.041416,0.091424 0.00907,0.032386 0.014771,0.065602 0.021883,0.098474 0.032497,0.1502008 0.094429,0.2928235 0.1265983,0.4430947 0.017874,0.083495 0.026157,0.171915 0,0.2531969 -0.010282,0.03195 -0.025635,0.061987 -0.038697,0.092904 -0.013062,0.030917 -0.023977,0.063437 -0.024602,0.096994 -7.076e-4,0.038012 0.011766,0.074873 0.01811,0.1123586 0.00317,0.018743 0.00482,0.037905 0.00249,0.056771 -0.00233,0.018866 -0.00881,0.037505 -0.020597,0.052418 -0.00926,0.011715 -0.021431,0.020761 -0.03165,0.03165 -0.026467,0.028203 -0.038451,0.067513 -0.040905,0.1061118 -0.00245,0.038599 0.00375,0.077152 0.00926,0.1154355 0.030172,0.2098164 0.039656,0.4247602 0,0.6329923 -0.038408,0.2016782 -0.1225241,0.3960803 -0.1265987,0.6013427 -0.00158,0.079471 0.00897,0.1586122 0.014632,0.2378969 0.00566,0.079285 0.00628,0.1601614 -0.014632,0.2368473 -0.014964,0.054869 -0.040547,0.1061249 -0.063299,0.1582481 -0.048039,0.1100527 -0.084124,0.2264052 -0.093872,0.3460896 -0.00975,0.1196844 0.00785,0.243139 0.062223,0.3502019 0.021395,0.042124 0.048402,0.081763 0.063299,0.1265986 0.023572,0.070942 0.014884,0.1486955 0.031649,0.2215473 0.018055,0.078459 0.064485,0.1470235 0.094949,0.2215473 0.040551,0.0992 0.052321,0.2083561 0.047625,0.3154216 -0.0047,0.1070655 -0.025338,0.2127454 -0.047625,0.3175707 -0.031414,0.1477523 -0.066221,0.2947965 -0.094949,0.4430945 -0.05677,0.293058 -0.088834,0.6012081 0,0.8861893 0.029803,0.095609 0.072845,0.1871699 0.094949,0.2848468 0.035092,0.1550703 0.015674,0.3165274 0,0.4747442 -0.036451,0.3679571 -0.051707,0.7385226 -0.031649,1.1077363 0.010696,0.196882 0.031422,0.3934094 0.031083,0.5905819 -3.4e-4,0.197172 -0.022459,0.396868 -0.094383,0.580454 -0.053316,0.136092 -0.1328574,0.260583 -0.1880068,0.395942 -0.027575,0.06768 -0.049038,0.138323 -0.057016,0.210968 -0.00798,0.07264 -0.00211,0.147522 0.023476,0.21598 0.018275,0.0489 0.046107,0.09354 0.071286,0.139275 0.025179,0.04574 0.048153,0.09386 0.055312,0.145571 0.00519,0.03748 0.00189,0.07555 0.00298,0.113371 0.00109,0.03782 0.00719,0.07703 0.028668,0.108177 0.00852,0.01235 0.019299,0.02313 0.03165,0.03165 -0.00684,0.0019 -0.01301,0.0061 -0.017298,0.0118 -0.00429,0.0057 -0.00667,0.01275 -0.00667,0.01985 0,0.0071 0.00238,0.01419 0.00667,0.01985 0.00429,0.0057 0.01046,0.0099 0.017298,0.0118 0.010214,0.0029 0.021059,6.84e-4 0.031649,0 0.028401,-0.0018 0.05716,0.0078 0.079581,0.0253 0.022422,0.01753 0.038517,0.04267 0.046328,0.07004 0.00781,0.02737 0.00749,0.05682 3.785e-4,0.08438 -0.00711,0.02756 -0.020878,0.05322 -0.038868,0.07527 -0.035979,0.04411 -0.087802,0.07301 -0.1418446,0.09088 -0.054043,0.01787 -0.1108171,0.02558 -0.1671224,0.03392 -0.016698,0.0025 -0.033443,0.005 -0.049665,0.0097 -0.016222,0.0047 -0.031998,0.01155 -0.045284,0.02196 -0.011779,0.0092 -0.021292,0.02097 -0.030963,0.0324 -0.00967,0.01142 -0.01977,0.02278 -0.032336,0.0309 -0.013574,0.0088 -0.029545,0.01342 -0.04563,0.01504 -0.016085,0.0016 -0.032339,3.18e-4 -0.048327,-0.0021 -0.031977,-0.0048 -0.063623,-0.01394 -0.095941,-0.01297 -0.028713,8.6e-4 -0.056692,0.0097 -0.082777,0.02177 -0.026084,0.01203 -0.050568,0.02721 -0.075472,0.04153 -0.2933924,0.16867 -0.6545407,0.215269 -0.9811383,0.126598 -0.062722,-0.05198 -0.1406518,-0.08538 -0.2215472,-0.09495 -0.052451,-0.0062 -0.1054955,-0.0026 -0.1582481,0 -0.5060604,0.02503 -1.0126073,-0.04194 -1.5191817,-0.03165 -0.1899974,0.0039 -0.3805648,0.01856 -0.5696928,0 -0.1218667,-0.01196 -0.2420142,-0.03764 -0.3636821,-0.05148 -0.1216679,-0.01384 -0.2470038,-0.01546 -0.3642592,0.01983 -0.1264289,0.03806 -0.2370628,0.116979 -0.3620441,0.159549 -0.062491,0.02128 -0.1292398,0.03327 -0.1947401,0.02504 -0.0655,-0.0082 -0.1297435,-0.03823 -0.171157,-0.08964 -0.023881,-0.02965 -0.039528,-0.06522 -0.063299,-0.09495 -0.023936,-0.02994 -0.055403,-0.05305 -0.08842,-0.07252 C 1.7775412,12.567847 1.7426917,12.55168 1.7090799,12.53325 1.6146345,12.481464 1.5309081,12.412368 1.44005,12.354519 1.349192,12.296669 1.2470958,12.249135 1.1393868,12.248403 c -0.08018,-5.45e-4 -0.15829027,0.0249 -0.23226209,0.05584 -0.0739718,0.03094 -0.14572231,0.06772 -0.22219683,0.09182 -0.0764745,0.0241 -0.15967206,0.03498 -0.23674343,0.01287 -0.0385357,-0.01106 -0.0749519,-0.03041 -0.10409459,-0.05794 -0.0291427,-0.02753 -0.0507744,-0.06341 -0.0592427,-0.102593 -0.003593,-0.01662 -0.004837,-0.0337 -0.008635,-0.05028 -0.003798,-0.01658 -0.0105248,-0.03313 -0.0230143,-0.04467 -0.008705,-0.008 -0.0196714,-0.01318 -0.0306851,-0.01756 -0.0110137,-0.0044 -0.0223363,-0.0082 -0.0326141,-0.01409 -0.0212379,-0.0122 -0.0367175,-0.03284 -0.0463883,-0.05535 -0.009671,-0.0225 -0.013982,-0.04693 -0.0169109,-0.07125 -0.015556,-0.129165 0.006692,-0.262657 0.0632986,-0.379795 z"
       id="path2"
       transform="matrix(0.9766278,0,0,0.98802442,0.21815724,0.12504442)" /><path
       style="fill:none;stroke:#1c3c55;stroke-width:0.3;stroke-dasharray:none;stroke-opacity:1"
       d="m 1.4242327,10.064578 c -0.046654,-0.0099 -0.090684,-0.03192 -0.1265984,-0.0633 -0.059812,-0.052263 -0.095076,-0.1281601 -0.1117355,-0.2058217 -0.01666,-0.077662 -0.016242,-0.1578569 -0.014863,-0.2372734 0.00165,-0.094954 0.00457,-0.1899882 0,-0.2848464 -0.010198,-0.2118908 -0.057621,-0.4209324 -0.063299,-0.6329924 -0.00395,-0.1477106 0.012392,-0.2958514 0,-0.4430945 C 1.0886094,7.9699733 1.0020901,7.7545398 0.94948847,7.5326086 0.90747755,7.3553608 0.8871073,7.1737886 0.85453962,6.9945651 0.81047088,6.7520501 0.74388511,6.5125942 0.72794116,6.2666239 c -0.0102391,-0.1579597 5.8365e-4,-0.3164542 0,-0.4747443 -0.001367,-0.3708603 -0.0645406,-0.7495652 0.0316496,-1.1077365 0.0199248,-0.074192 0.0465304,-0.1465793 0.0632992,-0.2215473 0.0346826,-0.1550554 0.0263172,-0.3159468 0.0316496,-0.4747443 0.006484,-0.1930808 0.0337886,-0.3864398 0.0949488,-0.5696928 0.0243654,-0.073005 0.0542467,-0.1451178 0.0632992,-0.2215476 0.01243,-0.1049499 -0.0152142,-0.2119135 0,-0.3164961 0.00627,-0.043082 0.019684,-0.084739 0.03165,-0.1265984 0.07371,-0.257853 0.092134,-0.5393822 0,-0.7912404 C 1.0092708,1.8661442 0.95843502,1.7750638 0.93775106,1.674813 0.92740908,1.6246875 0.92491195,1.5723619 0.93619692,1.5224403 0.94748189,1.4725187 0.97324642,1.4250795 1.0127876,1.3925831 1.0494032,1.362491 1.0952963,1.346672 1.1393861,1.3292841 1.2545285,1.2838747 1.3655359,1.223585 1.4875319,1.2026856 c 0.083302,-0.014271 0.1685324,-0.010143 0.252959,-0.00627 0.084426,0.00388 0.1689192,0.00627 0.2534348,0.00627 h 0.9178389 c 0.1583394,0 0.3173571,-0.017341 0.4747442,0 0.2628221,0.028958 0.4978841,0.1838149 0.7595907,0.2215473 0.1097478,0.015823 0.2212992,0.011235 0.3320986,0.00694 0.1107995,-0.0043 0.2216608,-0.00694 0.3325435,-0.00694 h 1.2343349 c 0.1033703,0 0.2061151,-0.013713 0.3071554,-0.035536 0.05052,-0.010912 0.1017492,-0.021382 0.1534029,-0.019578 0.025827,9.024e-4 0.051674,0.00501 0.075955,0.013853 0.024281,0.00885 0.046993,0.02256 0.064829,0.041261 0.026302,0.027578 0.040704,0.064259 0.063299,0.094949 0.035447,0.048148 0.089553,0.079669 0.1265983,0.1265984 0.046851,0.059352 0.062285,0.1383833 0.060094,0.2139664 -0.00219,0.075583 -0.020053,0.1497336 -0.037497,0.2233086 -0.034889,0.14715 -0.054247,0.2976846 -0.054247,0.4489143 v 1.0760869 c 0,0.063434 0.00222,0.126841 0.00583,0.1901721 0.00361,0.063331 0.00742,0.1275886 -0.00583,0.1896232 -0.013949,0.065311 -0.046827,0.1251772 -0.063299,0.1898978 -0.023596,0.092712 -0.012564,0.191102 -0.031649,0.2848465 -0.022024,0.1081796 -0.083425,0.2067007 -0.094949,0.3164962 -0.00551,0.052498 6.777e-4,0.1054663 0,0.158248 -0.00165,0.1285258 -0.043766,0.2527518 -0.063299,0.3797954 -0.022636,0.1472265 -0.014483,0.2995802 0.027933,0.4423697 0.042417,0.1427894 0.1194151,0.2757149 0.2252632,0.3805204 0.018997,0.01881 0.038934,0.036759 0.056231,0.057144 0.017297,0.020385 0.032038,0.043569 0.038718,0.069455 0.00533,0.020649 0.00533,0.04265 0,0.063299 0.043482,0.04432 0.076306,0.099026 0.094949,0.1582481 0.013065,0.041503 0.019209,0.084904 0.03165,0.1265986 0.016253,0.054469 0.042978,0.1051626 0.063299,0.1582481 0.056298,0.1470679 0.062029,0.3099168 0.0382,0.4655787 -0.023829,0.155662 -0.076063,0.3054959 -0.1331487,0.45226 -0.024217,0.06226 -0.049472,0.1245408 -0.063299,0.1898978 -0.032891,0.1554693 6.265e-4,0.3191464 -0.03165,0.4747443 -0.013311,0.064169 -0.037532,0.125457 -0.058202,0.1876468 -0.020671,0.06219 -0.038005,0.1266255 -0.036747,0.1921485 8.126e-4,0.042338 0.00934,0.085295 0,0.1265984 -0.010444,0.046201 -0.041831,0.084376 -0.063299,0.1265986 -0.026791,0.052692 -0.038131,0.1121518 -0.040734,0.1712061 -0.0026,0.059054 0.00321,0.1181204 0.00908,0.1769396 0.00858,0.085982 0.017265,0.1732389 0.00242,0.2583636 -0.00742,0.042562 -0.020806,0.084322 -0.042095,0.1219171 -0.021289,0.037596 -0.050673,0.070956 -0.086923,0.094464 -0.012941,0.00839 -0.026752,0.015549 -0.038689,0.025317 -0.00597,0.00488 -0.011452,0.010422 -0.015806,0.016787 -0.00435,0.00637 -0.00756,0.013584 -0.0088,0.021195 -0.0017,0.01043 3.111e-4,0.021087 0,0.03165 -4.967e-4,0.016857 -0.00705,0.03329 -0.01734,0.046648 -0.010294,0.013358 -0.024202,0.023717 -0.039457,0.030905 -0.030511,0.014378 -0.065415,0.016089 -0.099105,0.014493 -0.033691,-0.0016 -0.067403,-0.00624 -0.101028,-0.0036 -0.016812,0.00132 -0.033567,0.00449 -0.049284,0.010602 -0.015716,0.0061 -0.030392,0.01525 -0.041932,0.02755 -0.00514,0.0055 -0.00962,0.01153 -0.014565,0.01717 -0.00495,0.0056 -0.010456,0.01096 -0.017085,0.01448 -0.0071,0.0038 -0.015214,0.0053 -0.023249,0.0055 -0.00804,1.7e-4 -0.016038,-9.98e-4 -0.023948,-0.0024 -0.01582,-0.0028 -0.032096,-0.0067 -0.047753,-0.0031 -0.014939,0.0035 -0.027623,0.01352 -0.037518,0.02524 -0.00989,0.01172 -0.017435,0.0252 -0.025781,0.03806 -0.052025,0.0802 -0.1357174,0.136133 -0.2253935,0.169244 -0.089676,0.03311 -0.1856749,0.04515 -0.2810004,0.0523 -0.1894966,0.01422 -0.3799303,0.01007 -0.5696929,0 -0.4115473,-0.02183 -0.8222896,-0.07144 -1.2343352,-0.0633 -0.1372008,0.0027 -0.2747267,0.01181 -0.4114448,0 -0.138043,-0.01193 -0.2732851,-0.04501 -0.4101616,-0.06653 -0.1368765,-0.02152 -0.2785227,-0.03122 -0.4127286,0.0032 -0.031884,0.0082 -0.063366,0.01886 -0.096123,0.02211 -0.016379,0.0016 -0.033034,0.0014 -0.049143,-0.002 -0.016109,-0.0034 -0.031679,-0.0099 -0.044632,-0.02009 -0.011753,-0.0092 -0.021071,-0.02111 -0.03165,-0.03165 -0.038821,-0.03868 -0.093947,-0.05793 -0.1486221,-0.06171 -0.054675,-0.0038 -0.1093585,0.0067 -0.162377,0.02059 -0.053018,0.01388 -0.1052005,0.03123 -0.1590057,0.04165 -0.053805,0.01042 -0.1100674,0.01372 -0.1629875,-5.32e-4 -0.067107,-0.01807 -0.1258851,-0.06509 -0.1582482,-0.126597 z"
       id="path3" /><path
       style="fill:none;stroke:#95aabf;stroke-width:0.3;stroke-dasharray:none;stroke-opacity:1"
       d="m 3.9562021,12.153452 c -0.02254,-0.03637 -0.056474,-0.06556 -0.0958,-0.08241 -0.039327,-0.01685 -0.083867,-0.0213 -0.1257472,-0.01254 -0.021589,0.0045 -0.042468,0.01243 -0.064345,0.01522 -0.010939,0.0014 -0.022128,0.0015 -0.032919,-7.87e-4 -0.010791,-0.0023 -0.021189,-0.007 -0.029334,-0.01444 -0.0088,-0.008 -0.014608,-0.01882 -0.019088,-0.02985 -0.00448,-0.01104 -0.0078,-0.02253 -0.012561,-0.03345 -0.015244,-0.03493 -0.04428,-0.06192 -0.063299,-0.09495 -0.017405,-0.03023 -0.026008,-0.06496 -0.028553,-0.09975 -0.00254,-0.03479 7.731e-4,-0.06976 0.00598,-0.104245 0.010412,-0.06898 0.028444,-0.137942 0.022574,-0.207452 -0.00407,-0.04816 -0.019483,-0.09451 -0.03015,-0.141652 -0.010667,-0.04714 -0.016462,-0.09724 -0.0015,-0.143195 0.016641,-0.05112 0.05829,-0.092 0.1072417,-0.11421 0.048952,-0.02221 0.1045468,-0.02698 0.1579311,-0.02068 0.1067688,0.01261 0.2033427,0.06688 0.3045201,0.10324 0.096859,0.0348 0.1987121,0.05333 0.2975659,0.08198 0.098854,0.02865 0.1972004,0.06901 0.2721273,0.139567 0.077958,0.07342 0.125963,0.178586 0.12705,0.285665 0.00109,0.107079 -0.0457,0.214391 -0.12705,0.284028 -0.022816,0.01953 -0.04883,0.03698 -0.063299,0.0633 -0.00962,0.0175 -0.01333,0.03762 -0.021274,0.05594 -0.00397,0.0092 -0.00908,0.01796 -0.016086,0.02508 -0.00701,0.0071 -0.016058,0.01247 -0.025939,0.01393 -0.010456,0.0015 -0.02116,-0.0013 -0.03165,0 -0.012509,0.0015 -0.023809,0.009 -0.031746,0.01879 -0.00794,0.0098 -0.012776,0.02177 -0.015889,0.03398 -0.00623,0.02443 -0.00603,0.05053 -0.015664,0.07382 -0.010398,0.02514 -0.031866,0.04491 -0.05679,0.05581 -0.024924,0.0109 -0.053042,0.01335 -0.080008,0.0098 -0.053933,-0.0072 -0.1017637,-0.03699 -0.148048,-0.06558 -0.052335,-0.03233 -0.10509,-0.06399 -0.1582481,-0.09495 z"
       id="path4" /></g></svg>
