<?xml version="1.0" encoding="UTF-8" standalone="no"?>
<svg
   width="45px"
   height="38px"
   viewBox="0 0 45 38"
   version="1.1"
   id="svg3"
   xmlns="http://www.w3.org/2000/svg"
   xmlns:svg="http://www.w3.org/2000/svg"
   xmlns:rdf="http://www.w3.org/1999/02/22-rdf-syntax-ns#"
   xmlns:cc="http://creativecommons.org/ns#"
   xmlns:dc="http://purl.org/dc/elements/1.1/">
  <!-- Generator: Sketch 49 (51002) - http://www.bohemiancoding.com/sketch -->
  <title
     id="title1">suitcase</title>
  <desc
     id="desc1">Created with Sketch.</desc>
  <defs
     id="defs1" />
  <path
     style="opacity:1;fill:none;fill-opacity:1;stroke:#ff7e00;stroke-width:1;stroke-dasharray:none;stroke-opacity:1"
     d="m 0.64791134,36.218244 c 0.001394,-0.130215 -0.009468,-0.260559 -0.0323956,-0.388747 -0.0332097,-0.185679 -0.0914856,-0.365987 -0.12958227,-0.550725 -0.072299,-0.350591 -0.0709383,-0.713165 -0.0323956,-1.069053 0.0493423,-0.455607 0.15884288,-0.903723 0.1943734,-1.360614 0.0452234,-0.581533 0,-1.166072 0,-1.749361 V 30.25746 c 0,-0.19449 0.0216993,-0.389845 0,-0.583121 -0.0196335,-0.174875 -0.086162,-0.342701 -0.0971867,-0.518329 -0.005414,-0.08624 0.002694,-0.172795 0,-0.259164 -0.002385,-0.07648 -0.013272,-0.152684 -0.0323956,-0.226769 -0.0254085,-0.160561 -0.0362658,-0.323421 -0.0323956,-0.485934 0.005152,-0.216353 0.036205,-0.434547 0,-0.647911 -0.009212,-0.05429 -0.0227229,-0.107769 -0.0323956,-0.161978 -0.0437295,-0.245076 -0.008016,-0.49628 0,-0.745098 0.005912,-0.183493 -0.003337,-0.367167 0,-0.550725 0.005953,-0.327434 0.0520616,-0.653686 0.12958226,-0.971867 0.0468203,-0.192172 0.10554669,-0.385503 0.0971867,-0.58312 -0.002747,-0.06493 -0.0127029,-0.130643 0,-0.194373 0.0133703,-0.06708 0.0510486,-0.127371 0.0647911,-0.194374 0.015229,-0.07425 8.605e-5,-0.150972 0,-0.226769 -1.494e-4,-0.131603 0.0450326,-0.258635 0.0647911,-0.388746 0.0276087,-0.181805 0.005291,-0.366911 0,-0.550725 -0.003728,-0.129535 0.00104,-0.259162 0,-0.388747 -0.001573,-0.19604 -0.0166379,-0.39308 -0.0647911,-0.58312 -0.0109375,-0.04317 -0.023572,-0.08594 -0.0323956,-0.129582 -0.0257478,-0.127364 -0.0184764,-0.258878 -0.00832,-0.388421 0.010156,-0.129542 0.0230782,-0.259974 0.00832,-0.389073 -0.0149327,-0.130629 -0.0579871,-0.257443 -0.0647911,-0.388747 -0.004473,-0.08631 0.006841,-0.173007 0,-0.259164 -0.0114198,-0.143817 -0.0726506,-0.278975 -0.0971867,-0.421143 -0.0257797,-0.149374 -0.0104858,-0.302319 0,-0.453538 0.0463482,-0.668404 -0.002856,-1.339167 -0.0323956,-2.008525 -0.0257158,-0.582716 -0.0365191,-1.166091 -0.0323956,-1.74936 0.0337361,-0.09395 0.0555623,-0.192166 0.0647911,-0.29156 0.0180316,-0.1942 -0.0116503,-0.393124 0.0323956,-0.583121 0.0100567,-0.04338 0.0238887,-0.08587 0.0323956,-0.129582 0.0268827,-0.138132 -4.9849e-4,-0.280419 0,-0.421142 4.2273e-4,-0.119336 0.0209525,-0.237566 0.0323956,-0.356352 0.0321179,-0.333404 -0.007444,-0.669398 0,-1.004262 0.006738,-0.303105 0.0519631,-0.604167 0.0647911,-0.907076 0.0127948,-0.302124 -0.006689,-0.604755 0,-0.907076 0.005739,-0.259375 0.0306882,-0.519876 0,-0.777493 -0.0193436,-0.162383 -0.0607034,-0.322454 -0.0647911,-0.485934 -0.004057,-0.1622502 0.0286549,-0.3261822 0,-0.4859335 -0.009726,-0.054224 -0.0264422,-0.1072112 -0.0323956,-0.1619778 -0.0116948,-0.1075836 0.0186018,-0.2173491 0,-0.3239557 -0.0135304,-0.077543 -0.0522996,-0.1490523 -0.0647911,-0.2267689 -0.0120154,-0.074754 8.825e-4,-0.1510604 0,-0.226769 -0.001534,-0.1315611 -0.0445082,-0.2587496 -0.0647911,-0.3887468 -0.0267004,-0.1711281 -0.0138794,-0.3456876 0,-0.5183291 0.023401,-0.2910775 0.0496549,-0.5831741 0.0323956,-0.8746803 -0.003837,-0.064811 -0.0098,-0.1301924 0,-0.1943734 0.0134629,-0.088166 0.0561644,-0.1703948 0.0647911,-0.2591645 0.004181,-0.043019 2.1301e-4,-0.086361 0,-0.1295823 -0.001123,-0.2279472 0.10448188,-0.4480808 0.25916454,-0.6155158 0.0368837,-0.039925 0.0776026,-0.078879 0.0971867,-0.1295822 0.0123308,-0.031925 0.0157012,-0.067312 0.0323956,-0.097187 0.0170223,-0.030462 0.0461889,-0.052084 0.0758208,-0.070514 0.029632,-0.01843 0.060971,-0.034915 0.086157,-0.059069 0.039047,-0.037446 0.06009,-0.090204 0.097187,-0.1295823 0.032312,-0.034299 0.075505,-0.056863 0.1204517,-0.071017 0.044946,-0.014154 0.091944,-0.020412 0.1387129,-0.02617 0.4346515,-0.053513 0.889622,-0.066479 1.2958227,0.097187 0.063537,0.0256 0.126483,0.055668 0.1943734,0.064791 0.075011,0.01008 0.1513303,-0.00611 0.2267689,0 0.054937,0.00445 0.1081385,0.020596 0.1619779,0.032395 0.2857018,0.062609 0.5822063,0.0021 0.8746803,0 0.2162847,-0.00155 0.4316471,0.029042 0.6479113,0.032396 0.1728081,0.00268 0.3459198,-0.012036 0.5183291,0 0.097558,0.00681 0.1943029,0.022152 0.2915601,0.032396 0.3868941,0.04075 0.7772066,5.424e-4 1.1662404,0 0.5410243,-7.543e-4 1.0791983,0.075252 1.6197783,0.097187 0.6260312,0.025402 1.2524859,-0.021783 1.8789423,-0.032396 0.50747,-0.0086 1.015095,0.00681 1.522592,0 0.522225,-0.00701 1.047627,-0.038065 1.554987,-0.1619778 0.173037,-0.042261 0.343551,-0.095226 0.518329,-0.1295823 0.425025,-0.083548 0.862773,-0.055067 1.295823,-0.064791 0.18363,-0.00412 0.367676,-0.015168 0.550725,0 0.352916,0.029244 0.689961,0.1546138 1.036658,0.2267689 0.488266,0.1016187 0.991468,0.096949 1.490196,0.097187 1.123105,5.359e-4 2.246042,0.028108 3.369139,0.032396 1.047458,0.004 2.094976,-0.012257 3.14237,0 0.681289,0.00797 1.365909,0.027821 2.040921,-0.064791 0.140716,-0.019306 0.280717,-0.043468 0.421142,-0.064791 0.290104,-0.044051 0.582018,-0.075982 0.87468,-0.097187 0.529769,-0.038384 1.063528,-0.041811 1.587383,-0.1295822 0.291032,-0.048762 0.579652,-0.1235957 0.87468,-0.1295823 0.107978,-0.00219 0.216067,0.00489 0.323956,0 0.108434,-0.00491 0.215922,-0.02188 0.323956,-0.032396 0.344148,-0.033499 0.690886,-0.00138 1.036658,0 0.270027,0.00108 0.540371,-0.016602 0.809889,0 0.195233,0.012026 0.388852,0.041975 0.58312,0.064791 0.397613,0.046697 0.798292,0.063522 1.198636,0.064791 0.734437,0.00233 1.468615,-0.047566 2.202899,-0.032396 0.216006,0.00446 0.432349,0.014548 0.647911,0 0.216594,-0.014617 0.431091,-0.054032 0.647911,-0.064791 0.204954,-0.01017 0.41038,0.00535 0.615516,0 0.1623,-0.00423 0.323944,-0.021502 0.485934,-0.032396 0.668193,-0.044938 1.339085,0.018759 2.008525,0 0.477641,-0.013385 0.966262,-0.067529 1.425405,0.064791 0.07442,0.021448 0.147593,0.047711 0.223375,0.063719 0.07578,0.016008 0.155435,0.02144 0.230163,0.00107 0.01631,-0.00445 0.03242,-0.010119 0.04924,-0.011821 0.0084,-8.51e-4 0.01697,-6.868e-4 0.02522,0.00113 0.0083,0.00181 0.01621,0.00532 0.02273,0.010694 0.0094,0.00778 0.01538,0.01898 0.01979,0.030378 0.0044,0.011397 0.0075,0.023296 0.01261,0.034413 0.01148,0.025136 0.03241,0.044949 0.05561,0.059962 0.0232,0.015013 0.04884,0.025746 0.07398,0.037225 0.120669,0.055109 0.233384,0.1298423 0.323956,0.226769 0.03133,0.033533 0.06028,0.069915 0.09719,0.097187 0.03894,0.028773 0.08493,0.04606 0.129582,0.064791 0.147905,0.062043 0.289172,0.1447875 0.401761,0.2590202 0.112589,0.1142327 0.195162,0.261977 0.213755,0.4212867 0.01002,0.085891 0.0016,0.1727047 0,0.2591646 -0.0022,0.1205008 0.0092,0.240938 0.0071,0.3614409 -0.002,0.1205029 -0.01825,0.2433391 -0.0719,0.3512616 -0.02152,0.043292 -0.04892,0.083916 -0.06479,0.1295822 -0.0216,0.062159 -0.02052,0.1296481 -0.0324,0.1943734 -0.01851,0.1008861 -0.06807,0.1932098 -0.09719,0.2915601 -0.01869,0.063127 -0.02889,0.1286313 -0.0324,0.1943734 -0.0081,0.1518496 0.01916,0.3030137 0.03884,0.4538005 0.01969,0.1507868 0.03159,0.3060414 -0.0064,0.4532754 -0.04627,0.1791173 -0.163838,0.3358705 -0.194373,0.5183291 -0.01086,0.064915 -0.01051,0.1323016 -0.0324,0.1943734 -0.01608,0.04559 -0.04345,0.086206 -0.06479,0.1295822 -0.05589,0.1136015 -0.06915,0.2441603 -0.06093,0.3704989 0.0082,0.126338 0.03683,0.250309 0.06093,0.374599 0.05796,0.29887 0.09009,0.608154 0.0324,0.907076 -0.02334,0.120955 -0.06109,0.238573 -0.09719,0.356351 -0.09761,0.318437 -0.184072,0.641553 -0.226769,0.971867 -0.04026,0.311451 -0.0412,0.628144 0,0.939472 0.03147,0.237834 0.08745,0.472992 0.09719,0.712702 0.0088,0.216509 -0.0203,0.432487 -0.04108,0.648176 -0.02078,0.21569 -0.03311,0.435027 0.0087,0.647647 0.03494,0.177763 0.106719,0.345798 0.161978,0.518329 0.06038,0.188532 0.101386,0.385198 0.09719,0.58312 -0.0011,0.05403 -0.0056,0.108236 0,0.161978 0.0084,0.08011 0.039,0.156104 0.0721,0.229544 0.0331,0.07344 0.06923,0.146129 0.08987,0.223994 0.02928,0.110464 0.02619,0.227026 0.01311,0.340555 -0.01307,0.11353 -0.03589,0.225879 -0.04551,0.339752 -0.01729,0.204538 0.0082,0.410411 0,0.615515 -0.0078,0.195026 -0.04575,0.393377 0,0.583121 0.01044,0.0433 0.02517,0.08563 0.0324,0.129582 0.01756,0.10675 -0.01002,0.216237 0,0.323956 0.0051,0.05487 0.01988,0.108306 0.0324,0.161977 0.01494,0.06402 0.02674,0.128876 0.0324,0.194374 0.0093,0.108106 0.0019,0.216848 -1.53e-4,0.325338 -0.002,0.10849 0.0017,0.218544 0.03255,0.322573 0.01943,0.06551 0.0494,0.127795 0.06479,0.194374 0.02444,0.105725 0.01088,0.21599 0,0.323955 -0.02931,0.290748 -0.03827,0.584977 0,0.874681 0.02,0.151437 0.05285,0.301251 0.06479,0.453537 0.01568,0.200082 -0.005,0.400951 -0.01511,0.601389 -0.01016,0.200438 -0.0094,0.404781 0.04751,0.597247 0.03583,0.121254 0.09323,0.235251 0.129582,0.356352 0.04531,0.150954 0.05806,0.313093 0.129582,0.453538 0.02194,0.04309 0.04928,0.08378 0.06479,0.129582 0.02284,0.06742 0.01837,0.141074 0.0062,0.21121 -0.01217,0.07014 -0.03176,0.139078 -0.0386,0.209932 -0.0083,0.08604 0.0024,0.172759 0,0.259165 -0.0051,0.186593 -0.07079,0.365937 -0.09719,0.550724 -0.05357,0.374932 0.05564,0.759214 0,1.133845 -0.01932,0.130055 -0.05836,0.257422 -0.06479,0.388747 -0.0042,0.08658 0.0058,0.173116 0.01189,0.259584 0.0061,0.08647 0.0081,0.174395 -0.01189,0.258745 -0.01026,0.04336 -0.02626,0.08545 -0.0324,0.129582 -0.009,0.06479 0.0036,0.130329 0.01217,0.19518 0.0085,0.06485 0.01263,0.133038 -0.01217,0.193567 -0.0092,0.02235 -0.02201,0.04298 -0.0324,0.06479 -0.04258,0.08939 -0.04153,0.192971 -0.0324,0.29156 0.01056,0.114042 0.03074,0.227127 0.03817,0.341415 0.0074,0.114288 0.0016,0.231499 -0.03817,0.338892 -0.02022,0.05457 -0.04898,0.105975 -0.06479,0.161978 -0.01786,0.06326 -0.01856,0.13011 -0.0324,0.194374 -0.01656,0.07692 -0.05173,0.149177 -0.06479,0.226769 -0.01616,0.09601 0.0024,0.194232 0,0.29156 -0.0021,0.0871 -0.021,0.172793 -0.0324,0.259164 -0.0382,0.289364 0.0076,0.582903 0,0.87468 -0.0065,0.250651 -0.05233,0.498409 -0.09719,0.745099 -0.01976,0.108651 -0.03942,0.217986 -0.04009,0.328416 -6.69e-4,0.110431 0.01863,0.223087 0.07249,0.319495 0.02366,0.04235 0.05417,0.08225 0.06479,0.129582 0.01186,0.05284 -0.0027,0.107887 0,0.161978 0.0029,0.05849 0.0258,0.114113 0.05232,0.166324 0.02653,0.05221 0.0571,0.102651 0.07726,0.157632 0.03183,0.0868 0.03635,0.181123 0.03441,0.273554 -0.0019,0.09243 -0.01001,0.185065 -0.002,0.27717 0.01634,0.188137 0.09862,0.364434 0.129582,0.550725 0.03547,0.213449 0.0025,0.431549 0,0.647911 -0.0027,0.237046 0.0312,0.473891 0.01907,0.710642 -0.0061,0.118375 -0.02384,0.23682 -0.06259,0.348839 -0.03875,0.112018 -0.09909,0.217665 -0.183246,0.301133 -0.04344,0.04308 -0.09321,0.08039 -0.129582,0.129582 -0.05189,0.07017 -0.07321,0.160146 -0.129582,0.226769 -0.02476,0.02927 -0.05538,0.05288 -0.0847,0.07758 -0.02932,0.0247 -0.05801,0.05125 -0.07727,0.0844 -0.0099,0.01707 -0.01713,0.03556 -0.02652,0.05292 -0.0094,0.01736 -0.02142,0.03399 -0.03827,0.04427 -0.01466,0.0089 -0.03189,0.01245 -0.04871,0.01591 -0.01682,0.0035 -0.03404,0.0072 -0.04848,0.01649 -0.01065,0.0069 -0.01942,0.01662 -0.02508,0.02795 -0.0057,0.01133 -0.0082,0.0242 -0.0073,0.03684 -0.02939,0.0257 -0.06216,0.04755 -0.09719,0.06479 -0.110719,0.0545 -0.238339,0.0611 -0.356351,0.09719 -0.08827,0.02699 -0.170836,0.07041 -0.259165,0.09719 -0.136301,0.04133 -0.284841,0.04133 -0.421142,0 -0.06208,0.02882 -0.127419,0.0506 -0.194374,0.06479 -0.153845,0.03259 -0.313312,0.02475 -0.469732,0.0085 -0.156421,-0.01622 -0.31248,-0.0407 -0.469739,-0.04093 -0.227505,-3.27e-4 -0.458331,0.04985 -0.680307,0 -0.07672,-0.01723 -0.150389,-0.0461 -0.226769,-0.06479 -0.138047,-0.03378 -0.282455,-0.03374 -0.421142,-0.06479 -0.203807,-0.04563 -0.386584,-0.156112 -0.583121,-0.226769 -0.359944,-0.129403 -0.755549,-0.121332 -1.133845,-0.06479 -0.140484,0.021 -0.280042,0.04844 -0.421142,0.06479 -0.407981,0.04729 -0.82032,0.0012 -1.231031,0 -0.302468,-8.99e-4 -0.605449,0.02256 -0.907076,0 -0.326006,-0.02438 -0.646098,-0.102218 -0.971867,-0.129582 -0.193896,-0.01629 -0.389091,-0.0146 -0.583121,0 -0.140417,0.01056 -0.280401,0.02788 -0.421142,0.0324 -0.379476,0.01218 -0.755244,-0.0687 -1.133845,-0.09719 -0.387887,-0.02919 -0.778346,-0.0033 -1.16624,-0.0324 -0.347326,-0.02604 -0.689984,-0.09596 -1.036658,-0.129582 -0.184109,-0.01786 -0.369956,-0.02558 -0.550725,-0.06479 -0.228094,-0.04948 -0.442682,-0.148007 -0.647911,-0.259165 -0.0726,-0.03932 -0.145822,-0.08089 -0.226769,-0.09719 -0.08497,-0.01711 -0.172652,-0.0052 -0.259165,0 -0.388959,0.02354 -0.780625,-0.08847 -1.16624,-0.0324 -0.252965,0.03678 -0.489319,0.144038 -0.724358,0.244542 -0.235039,0.100505 -0.478116,0.19665 -0.733443,0.208996 -0.107882,0.0052 -0.216049,-0.0047 -0.323955,0 -0.286035,0.01246 -0.558175,0.126586 -0.842285,0.161978 -0.322083,0.04012 -0.651857,-0.02183 -0.971867,0.0324 -0.09817,0.01664 -0.194172,0.04404 -0.29156,0.06479 -0.233689,0.04978 -0.473801,0.06093 -0.712703,0.06479 -0.766788,0.01238 -1.53474,-0.04863 -2.300085,0 -0.140514,0.0089 -0.280764,0.02154 -0.421142,0.0324 -0.345201,0.0267 -0.691129,0.04274 -1.036658,0.06479 -0.182137,0.01162 -0.365041,0.02504 -0.542882,0.06604 -0.177842,0.041 -0.351707,0.110957 -0.493777,0.225521 -0.08444,0.06809 -0.159069,0.152583 -0.259164,0.194373 -0.08062,0.03366 -0.170866,0.03631 -0.257903,0.0288 -0.08704,-0.0075 -0.173165,-0.02465 -0.260426,-0.0288 -0.119372,-0.0057 -0.238423,0.01304 -0.356351,0.0324 -0.622298,0.102165 -1.255471,0.224316 -1.878943,0.129582 -0.205496,-0.03122 -0.407969,-0.08588 -0.615516,-0.09719 -0.08731,-0.0048 -0.177115,-0.0022 -0.259165,-0.0324 -0.04535,-0.01671 -0.08651,-0.04285 -0.129582,-0.06479 -0.199057,-0.101398 -0.430665,-0.109927 -0.647911,-0.161977 -0.176087,-0.04219 -0.343877,-0.113468 -0.518329,-0.161978 -0.2731,-0.07594 -0.55883,-0.09508 -0.842285,-0.09719 -0.410461,-0.0031 -0.821564,0.0287 -1.231032,0 -0.237994,-0.01668 -0.474381,-0.05373 -0.712702,-0.06479 -0.269701,-0.01252 -0.539898,0 -0.809889,0 H 8.2284612 6.4143095 c -0.1797916,0 -0.3592659,-0.01297 -0.5378332,-0.03391 -0.089284,-0.01047 -0.1789224,-0.02054 -0.2688062,-0.01907 -0.089884,0.0015 -0.180883,0.01512 -0.2624144,0.05299 -0.021902,0.01017 -0.042983,0.02203 -0.064791,0.0324 -0.1411185,0.0671 -0.3124194,0.0671 -0.4535379,0 -0.1849491,-0.02808 -0.3773418,-0.0054 -0.5507247,0.06479 -0.1400178,0.05672 -0.2710708,0.144638 -0.4211423,0.161977 -0.022425,0.0026 -0.045063,0.0036 -0.067286,0.0075 -0.022223,0.004 -0.044357,0.01117 -0.062297,0.02488 -0.012154,0.0093 -0.021966,0.02121 -0.032396,0.0324 -0.066936,0.07179 -0.1613913,0.113946 -0.2581128,0.13066 -0.096722,0.01671 -0.1961086,0.0096 -0.2930921,-0.0055 -0.1939671,-0.03024 -0.388971,-0.09246 -0.5826399,-0.06037 -0.1218412,0.02019 -0.2343384,0.07669 -0.3428572,0.135653 -0.1085187,0.05896 -0.216532,0.121677 -0.3351258,0.156152 -0.059297,0.01724 -0.1210235,0.02721 -0.182747,0.02535 -0.061724,-0.0019 -0.1234971,-0.0158 -0.1782637,-0.04433 -0.054767,-0.02853 -0.1022743,-0.07202 -0.1320626,-0.126107 -0.029788,-0.05409 -0.041109,-0.118868 -0.02758,-0.179119 0.00121,-0.0054 0.00262,-0.01079 0.00302,-0.01631 3.98e-4,-0.0055 -2.846e-4,-0.01127 -0.00302,-0.01609 -0.00293,-0.0052 -0.00806,-0.0089 -0.013694,-0.01071 -0.00563,-0.0018 -0.011735,-0.0019 -0.017587,-9.97e-4 -0.011704,0.0019 -0.022328,0.0078 -0.03351,0.01171 -0.031531,0.01111 -0.066497,0.0065 -0.098648,-0.0026 -0.032151,-0.0092 -0.063037,-0.02275 -0.095725,-0.02976 -0.049103,-0.01053 -0.1001341,-0.0058 -0.14983435,0.0014 -0.0497002,0.0072 -0.0993981,0.01686 -0.14961151,0.01606 -0.0502134,-8.03e-4 -0.10203388,-0.01312 -0.14072719,-0.04513 -0.0193467,-0.01601 -0.034976,-0.03678 -0.0435574,-0.06038 -0.008581,-0.0236 -0.009883,-0.05003 -0.002203,-0.07394 0.00175,-0.0054 0.003964,-0.01081 0.00462,-0.01649 3.2825e-4,-0.0028 2.5531e-4,-0.0058 -4.6213e-4,-0.0085 -7.1743e-4,-0.0028 -0.002101,-0.0054 -0.004158,-0.0074 -0.00214,-0.0021 -0.004948,-0.0034 -0.007869,-0.004 -0.002921,-5.7e-4 -0.005954,-4.19e-4 -0.008868,1.86e-4 -0.005828,0.0012 -0.0111145,0.0042 -0.0164363,0.0068 -0.005322,0.0027 -0.01097,0.0051 -0.0169223,0.0052 -0.002976,3.3e-5 -0.005987,-5.57e-4 -0.008622,-0.0019 -0.002635,-0.0014 -0.004874,-0.0036 -0.006073,-0.0063 -0.001117,-0.0025 -0.001299,-0.0054 -0.001003,-0.0082 2.9526e-4,-0.0028 0.001045,-0.0054 0.001732,-0.0081 6.8673e-4,-0.0027 0.001316,-0.0054 0.001361,-0.0082 4.487e-5,-0.0028 -5.3395e-4,-0.0056 -0.002089,-0.0079 -0.001632,-0.0024 -0.004251,-0.0041 -0.007055,-0.0048 -0.002804,-7.74e-4 -0.005787,-7.3e-4 -0.008655,-2.41e-4 -0.005736,9.77e-4 -0.0110372,0.0037 -0.0166859,0.0051 -0.008665,0.0021 -0.0180109,0.0011 -0.0261785,-0.0025 -0.008168,-0.0036 -0.0151524,-0.0097 -0.0201903,-0.01706 -0.005038,-0.0074 -0.00816,-0.01597 -0.009452,-0.02481 -0.001292,-0.0088 -7.8408e-4,-0.01788 0.001056,-0.02662 0.00368,-0.01747 0.012552,-0.03343 0.022764,-0.04807 0.010212,-0.01464 0.0218571,-0.02824 0.0320007,-0.04293 0.0298491,-0.04322 0.0459046,-0.09497 0.0516435,-0.147182 0.005739,-0.05222 0.001542,-0.105082 -0.00646,-0.156998 -0.0160038,-0.103834 -0.0472598,-0.206297 -0.0451832,-0.311336 0.002349,-0.118842 0.0493238,-0.236277 0.12958227,-0.323955 z"
     id="path4"
     transform="matrix(0.970299,0,0,0.970299,0.54621827,0.46851405)" />
  <path
     style="opacity:1;fill:none;fill-opacity:1;stroke:#ff7e00;stroke-width:1;stroke-dasharray:none;stroke-opacity:1"
     d="m 0.68030691,6.3495311 c 0.45430569,-0.012933 0.90959269,0.00875 1.36061379,0.064791 0.5172433,0.064272 1.0394246,0.1737821 1.5549872,0.097187 0.270095,-0.040127 0.5389549,-0.1311879 0.8098892,-0.097187 0.021631,0.00271 0.0432,0.00623 0.064974,0.0073 0.021774,0.00107 0.043943,-3.577e-4 0.064608,-0.0073 0.022917,-0.0077 0.043051,-0.021819 0.064791,-0.032396 0.049442,-0.024055 0.1062173,-0.029226 0.1610687,-0.025422 0.054851,0.0038 0.1086985,0.016108 0.162887,0.025422 0.3240171,0.05569 0.6589214,0.00358 0.971867,-0.097187 0.2453768,-0.079008 0.4873734,-0.1888851 0.745098,-0.1943734 0.032389,-6.897e-4 0.064792,2.94e-4 0.097187,0 0.11933,-0.00108 0.2377184,-0.019471 0.3563513,-0.032396 0.4082711,-0.04448 0.8203447,-0.032396 1.2310315,-0.032396 h 0.1295823 c 0.010802,0 0.021629,-8.817e-4 0.032395,0 0.022536,0.00185 0.043469,0.014168 0.058346,0.031195 0.014877,0.017027 0.02408,0.038446 0.029229,0.060463 0.010299,0.044034 0.00506,0.090118 0.00961,0.1351108 0.00804,0.079555 0.047002,0.1539642 0.1003918,0.2134882 0.05339,0.059524 0.1206519,0.1051666 0.1911683,0.1428631 0.038119,0.020377 0.077555,0.038716 0.1128143,0.063717 0.035259,0.025001 0.066671,0.057682 0.081559,0.098261 0.00423,0.011529 0.00708,0.023542 0.011594,0.034961 0.00452,0.011419 0.010961,0.022484 0.020802,0.02983 0.0067,0.005 0.014739,0.00807 0.02298,0.00951 0.00824,0.00145 0.016699,0.00132 0.025009,3.51e-4 0.016621,-0.00194 0.032682,-0.00718 0.049198,-0.00987 0.039426,-0.00641 0.079958,0.00201 0.1174385,0.01582 0.03748,0.013812 0.072753,0.03292 0.1093305,0.048971 0.1451103,0.063678 0.3074393,0.077761 0.4658068,0.072141 0.1583675,-0.00562 0.3154965,-0.030014 0.4736645,-0.039746 0.453847,-0.027925 0.916365,0.064555 1.360614,-0.032395 0.130533,-0.028487 0.257346,-0.073016 0.388747,-0.097187 0.160808,-0.029581 0.32655,-0.028306 0.485934,-0.064791 0.0434,-0.00994 0.08614,-0.022633 0.129582,-0.032395 0.243287,-0.054671 0.496224,-0.015468 0.745098,0 0.431471,0.026817 0.863736,-0.018695 1.295823,-0.032396 0.529124,-0.016778 1.060041,0.014137 1.587382,-0.032396 0.368304,-0.032499 0.732699,-0.1026219 1.10145,-0.1295822 0.431554,-0.031552 0.867426,-0.00387 1.295822,-0.064791 0.167359,-0.0238 0.332672,-0.061021 0.500426,-0.081855 0.167754,-0.020833 0.340085,-0.024898 0.503837,0.017064 0.122512,0.031394 0.237028,0.087668 0.356351,0.1295823 0.178101,0.062561 0.365591,0.092714 0.550725,0.1295822 0.387119,0.077093 0.771628,0.1850932 1.16624,0.1943734 0.07557,0.00178 0.151177,-8.99e-5 0.226769,0 0.378639,4.502e-4 0.755496,0.049961 1.133845,0.064791 0.478221,0.018745 0.959911,-0.018398 1.425405,-0.1295823 0.280494,-0.066997 0.555852,-0.1608845 0.842285,-0.1943734 0.107804,-0.012604 0.216578,-0.016558 0.323955,-0.032396 0.142597,-0.021034 0.28117,-0.062778 0.421143,-0.097187 0.654342,-0.1608565 1.335534,-0.160873 2.008525,-0.1943734 0.746153,-0.037142 1.489605,-0.1164482 2.235294,-0.1619778 1.035353,-0.063216 2.074501,-0.061215 3.109974,0 0.918601,0.054306 1.834256,0.155144 2.753624,0.1943734 0.464086,0.019803 0.929115,0.02388 1.393009,0 0.464344,-0.023903 0.930078,-0.075774 1.393009,-0.032396 0.270794,0.025374 0.538269,0.083206 0.809889,0.097187 0.291529,0.015006 0.583,-0.020716 0.874681,-0.032396 0.377675,-0.015123 0.755868,0 1.133845,0 h 1.652174 c 0.270079,0 0.541015,0.025481 0.809889,0 0.109826,-0.010408 0.218574,-0.032158 0.323955,-0.064791"
     id="path5"
     transform="matrix(0.970299,0,0,0.970299,0.54621827,0.46851405)" />
  <path
     style="opacity:1;fill:none;fill-opacity:1;stroke:#ff7e00;stroke-width:1;stroke-dasharray:none;stroke-opacity:1"
     d="m 0.77749361,20.538789 v 0.80989 c 0,0.03783 -9.1163e-4,0.07566 -0.002392,0.113462 -0.00148,0.0378 -0.003062,0.07587 0.002392,0.113307 0.007501,0.0515 0.0286933,0.100441 0.0575313,0.143759 0.028838,0.04332 0.0651939,0.08124 0.10444655,0.115405 0.0994941,0.0866 0.21715546,0.149356 0.32395566,0.226769 0.061369,0.04448 0.1191881,0.09384 0.1820728,0.136149 0.062885,0.04231 0.1319635,0.07785 0.206674,0.09062 0.08531,0.01458 0.172625,-0.0012 0.2591645,0 0.087134,0.0012 0.1729685,0.01959 0.2591646,0.0324 0.1395283,0.02073 0.2826472,0.02678 0.4211424,0 0.00539,-0.001 0.010784,-0.0021 0.016262,-0.0024 0.00548,-2.84e-4 0.011085,2.73e-4 0.016133,0.0024 0.00414,0.0018 0.00782,0.0046 0.010744,0.008 0.00293,0.0034 0.00511,0.0075 0.00655,0.01172 0.00288,0.0085 0.00276,0.01786 9.921e-4,0.0267 -0.00353,0.01767 -0.013305,0.03346 -0.018285,0.05078 -0.00473,0.01643 -0.005,0.03405 -0.00129,0.05074 0.0037,0.01669 0.011338,0.03244 0.02173,0.04601 0.020784,0.02715 0.052204,0.04507 0.08543,0.05314 0.033225,0.0081 0.0682,0.0068 0.1017957,4.55e-4 0.033596,-0.0063 0.066038,-0.01765 0.098069,-0.02961 0.064061,-0.02392 0.1298083,-0.05109 0.1980481,-0.0467 0.03412,0.0022 0.068237,0.01275 0.095322,0.03361 0.027085,0.02087 0.046493,0.05263 0.048812,0.08674 7.326e-4,0.01078 -1.955e-4,0.0216 0,0.0324 9.382e-4,0.05182 0.028546,0.101153 0.068253,0.134467 0.039707,0.03331 0.090475,0.05162 0.1418607,0.0584 0.1027715,0.01357 0.2055511,-0.01654 0.3082154,-0.03089 0.075154,-0.01051 0.1519289,-0.01255 0.226769,0 0.054325,0.0091 0.1072883,0.02582 0.1619778,0.0324 0.08585,0.01032 0.1728213,-0.0047 0.2591646,0 0.1616793,0.0087 0.3110381,0.0851 0.4535379,0.161978 0.07547,0.04072 0.15143,0.08237 0.2339842,0.105568 0.082554,0.0232 0.1736487,0.02659 0.2519493,-0.0084 0.022153,-0.0099 0.043474,-0.02285 0.067429,-0.0267 0.011977,-0.0019 0.024525,-0.0014 0.035858,0.0029 0.011333,0.0043 0.021345,0.01272 0.026296,0.02379 0.00454,0.01016 0.00454,0.02224 0,0.0324 0.042882,0.012 0.086098,0.02281 0.1295822,0.0324 0.3600897,0.07943 0.7328352,0.07465 1.1014493,0.06479 0.226768,-0.0061 0.4538846,-0.01391 0.6803069,0 0.3135497,0.01926 0.6289699,0.08008 0.9394715,0.0324 0.3009311,-0.04621 0.5777928,-0.191691 0.8746803,-0.259164 0.2014543,-0.04578 0.4091565,-0.055 0.6155157,-0.06479 0.1187606,-0.0056 0.2380152,-0.01151 0.3563512,0 0.300253,0.0292 0.578756,0.168175 0.87468,0.226769 0.414003,0.08197 0.842364,0.0037 1.263427,0.0324 0.271357,0.0185 0.53836,0.08141 0.809889,0.09719 0.237225,0.01379 0.475232,-0.0086 0.712703,0 0.424556,0.0153 0.839882,0.128938 1.263427,0.161977 0.635858,0.0496 1.275583,-0.0833 1.911338,-0.0324 0.284495,0.02278 0.565225,0.0822 0.849944,0.10198 0.28472,0.01978 0.581296,-0.0029 0.834626,-0.13438 0.0859,-0.04457 0.166568,-0.101443 0.259164,-0.129582 0.09869,-0.02999 0.204353,-0.02529 0.30701,-0.01522 0.102656,0.01007 0.205844,0.02523 0.308506,0.01522 0.13288,-0.01295 0.257646,-0.06726 0.386163,-0.103431 0.06426,-0.01808 0.130211,-0.03174 0.19695,-0.03316 0.06674,-0.0014 0.134548,0.0098 0.194381,0.0394 0.03748,0.01854 0.07116,0.04388 0.107635,0.06432 0.03648,0.02044 0.07746,0.03621 0.119134,0.03287 0.03634,-0.0029 0.07078,-0.0206 0.09648,-0.04646 0.0257,-0.02585 0.04291,-0.05947 0.05182,-0.09482 0.01782,-0.0707 0.0031,-0.145524 -0.01872,-0.215073 -0.01191,-0.03789 -0.02604,-0.07554 -0.03005,-0.115049 -0.002,-0.01976 -0.0014,-0.0399 0.0032,-0.0592 0.0047,-0.0193 0.01352,-0.03776 0.02681,-0.05252 0.01023,-0.01136 0.02292,-0.0204 0.03239,-0.0324 0.01171,-0.01484 0.01788,-0.03364 0.01907,-0.05251 0.0012,-0.01887 -0.0024,-0.03783 -0.0086,-0.05568 -0.01249,-0.0357 -0.03517,-0.06674 -0.05392,-0.09958 -0.0094,-0.01642 -0.01784,-0.03347 -0.02346,-0.05152 -0.0056,-0.01806 -0.0083,-0.03721 -0.006,-0.05598 0.0023,-0.01877 0.0098,-0.03714 0.02268,-0.05098 0.01289,-0.01383 0.03138,-0.02276 0.05028,-0.02251 0.0054,7.4e-5 0.01083,8.78e-4 0.01625,0.0013 0.0054,3.83e-4 0.01096,3.3e-4 0.01615,-0.0013 0.009,-0.0027 0.01614,-0.01 0.01991,-0.01857 0.0038,-0.0086 0.0043,-0.01832 0.0028,-0.02755 -0.0031,-0.01847 -0.01399,-0.03449 -0.0227,-0.05107 -0.02432,-0.04629 -0.03236,-0.09978 -0.03085,-0.152054 0.0015,-0.05227 0.01215,-0.103808 0.02337,-0.154883 0.01122,-0.05107 0.0231,-0.102234 0.02716,-0.154368 0.0041,-0.05213 1.5e-5,-0.10577 -0.01968,-0.154211 -0.0091,-0.02238 -0.02137,-0.0433 -0.0324,-0.06479 -0.06563,-0.127941 -0.08612,-0.275456 -0.07888,-0.419066 0.0072,-0.143611 0.04096,-0.284517 0.07888,-0.423219 0.02974,-0.10876 0.06215,-0.216789 0.09719,-0.323956 -0.02506,-0.08595 -0.01304,-0.182031 0.0324,-0.259164 0.01232,-0.02091 0.02722,-0.04108 0.0324,-0.06479 0.0035,-0.01588 0.0023,-0.03237 8.8e-4,-0.04856 -0.0015,-0.01619 -0.0032,-0.03254 -8.8e-4,-0.04863 0.0028,-0.01957 0.01156,-0.03792 0.02283,-0.05417 0.01127,-0.01624 0.02505,-0.03057 0.03896,-0.04462 0.01391,-0.01405 0.02807,-0.02794 0.04027,-0.0435 0.0122,-0.01556 0.02246,-0.03297 0.02752,-0.05208 0.0083,-0.03148 0.0021,-0.06469 0,-0.09719 -0.0063,-0.09821 0.02645,-0.194871 0.068,-0.284078 0.04155,-0.08921 0.09245,-0.174267 0.126372,-0.266647 0.0472,-0.128549 0.06117,-0.270118 0.129582,-0.388746 0.02702,-0.04685 0.0618,-0.08869 0.09719,-0.129583 0.117385,-0.135636 0.250625,-0.268275 0.421142,-0.323955 0.124367,-0.04061 0.258915,-0.03675 0.388706,-0.0203 0.12979,0.01645 0.258182,0.04505 0.388788,0.05269 0.184218,0.01077 0.373748,-0.01987 0.550724,0.0324 0.06554,0.01936 0.127712,0.04975 0.194374,0.06479 0.06413,0.01447 0.131137,0.01443 0.194373,0.0324 0.09873,0.02806 0.179612,0.09712 0.259165,0.161978 0.07073,0.05767 0.14349,0.113739 0.22425,0.156238 0.08076,0.0425 0.170425,0.07114 0.261683,0.07053 0.03243,-2.16e-4 0.06502,-0.0041 0.09719,0 0.05798,0.0074 0.109195,0.03969 0.161978,0.06479 0.169263,0.0805 0.364875,0.0891 0.550724,0.06479 0.04871,-0.0064 0.09722,-0.0149 0.146266,-0.01756 0.04905,-0.0027 0.09915,7.36e-4 0.145295,0.01756 0.05253,0.01915 0.09806,0.05527 0.132296,0.09947 0.03424,0.0442 0.05754,0.09623 0.07218,0.150189 0.02928,0.107911 0.02445,0.22167 0.02229,0.333463 -0.0012,0.06478 -0.0015,0.129595 0,0.194373 0.0023,0.09722 0.0087,0.194697 0,0.29156 -0.0073,0.08137 -0.02505,0.161413 -0.0362,0.242345 -0.01115,0.08093 -0.01553,0.164213 0.0038,0.243589 0.01055,0.04332 0.02809,0.0852 0.0324,0.129582 0.0052,0.05385 -0.0093,0.108687 0,0.161978 0.01007,0.05743 0.04669,0.106551 0.06479,0.161978 0.02024,0.06198 0.01651,0.12904 0.0094,0.193856 -0.0071,0.06482 -0.01734,0.130169 -0.0094,0.19489 0.0067,0.05469 0.02618,0.107232 0.0324,0.161978 0.01266,0.111474 -0.03018,0.220634 -0.05439,0.330182 -0.0121,0.05477 -0.01963,0.111261 -0.01313,0.166979 0.0065,0.05572 0.02799,0.110951 0.06752,0.150751 0.01077,0.01084 0.0228,0.0205 0.0324,0.0324 0.0146,0.0181 0.02292,0.0408 0.02561,0.0639 0.0027,0.0231 -7.3e-5,0.0466 -0.0059,0.06911 -0.01174,0.045 -0.03552,0.08574 -0.05453,0.128189 -0.01901,0.04245 -0.03356,0.0893 -0.02518,0.135042 0.0042,0.02287 0.01432,0.04493 0.03051,0.06161 0.0162,0.01668 0.03868,0.02764 0.06193,0.02808 0.01082,2.05e-4 0.02173,-0.0018 0.0324,0 0.0078,0.0013 0.01515,0.0046 0.02165,0.0091 0.0065,0.0045 0.01216,0.01009 0.01715,0.01619 0.01,0.01221 0.01734,0.02632 0.02599,0.03952 0.02565,0.03913 0.06281,0.07004 0.104342,0.09158 0.04153,0.02155 0.08736,0.03402 0.133718,0.04037 0.09271,0.0127 0.186766,0.0014 0.280269,-0.0024 0.367957,-0.01468 0.733982,0.08879 1.101449,0.06479 0.216607,-0.01415 0.434558,-0.07237 0.647912,-0.03239 0.17194,0.03222 0.325104,0.125558 0.485933,0.194373 0.504257,0.215761 1.078806,0.187611 1.619779,0.09719 0.399445,-0.06677 0.794685,-0.165432 1.198636,-0.194374 0.05394,-0.0039 0.108287,-0.0065 0.161977,0 0.09678,0.01166 0.187859,0.05241 0.272011,0.101605 0.08415,0.0492 0.162876,0.107169 0.246319,0.15756 0.317966,0.192016 0.695838,0.267667 1.067276,0.270181 0.371437,0.0025 0.739661,-0.0645 1.103227,-0.140599 0.118211,-0.02474 0.236424,-0.05051 0.356351,-0.06479 0.253914,-0.03023 0.510685,-0.0085 0.766317,-0.0023 0.255632,0.0062 0.517171,-0.0043 0.756274,-0.0949 0.152246,-0.05771 0.290649,-0.146192 0.437199,-0.217134 0.14655,-0.07094 0.308099,-0.125192 0.469877,-0.106821 0.136171,0.01546 0.260692,0.08076 0.388747,0.129582 0.18657,0.07113 0.384603,0.108166 0.58312,0.129582 0.681984,0.07357 1.393001,-0.03083 2.040921,0.194374 0.12916,0.04489 0.254686,0.102652 0.388747,0.129582 0.148752,0.02988 0.302268,0.02067 0.453538,0.0324 0.06486,0.005 0.130814,0.01386 0.194373,0 0.05693,-0.01241 0.108244,-0.04226 0.161978,-0.06479 0.137483,-0.05763 0.289615,-0.06691 0.438357,-0.07686 0.148741,-0.01 0.301143,-0.02227 0.436323,-0.08512 0.08775,-0.0408 0.166364,-0.102138 0.259165,-0.129582 0.08363,-0.02473 0.172822,-0.02013 0.259164,-0.0324 0.17873,-0.02539 0.339033,-0.121844 0.485934,-0.226769 0.03766,-0.0269 0.07612,-0.05599 0.09719,-0.09719 0.0126,-0.02464 0.0182,-0.05224 0.02176,-0.07968 0.0036,-0.02744 0.0052,-0.05516 0.01064,-0.0823 0.01475,-0.07407 0.05637,-0.13982 0.100942,-0.20079 0.04457,-0.06097 0.09331,-0.119789 0.125827,-0.187957 0.02943,-0.06171 0.04458,-0.129055 0.06479,-0.194373 0.01417,-0.04579 0.0311,-0.09119 0.05693,-0.13157 0.02583,-0.04038 0.06124,-0.07573 0.105044,-0.0952 0.0111,-0.0049 0.02263,-0.0088 0.03379,-0.01361 0.01116,-0.0048 0.02206,-0.01058 0.031,-0.01879 0.01447,-0.01329 0.02274,-0.03181 0.03113,-0.04958 0.0084,-0.01777 0.01782,-0.03599 0.03366,-0.04761 0.0098,-0.0072 0.02137,-0.01135 0.03272,-0.01563 0.01134,-0.0043 0.02284,-0.0089 0.03207,-0.01677 0.0094,-0.008 0.01592,-0.01893 0.02046,-0.03041 0.0045,-0.01148 0.0072,-0.02358 0.01009,-0.03559 0.0029,-0.01201 0.0059,-0.02406 0.01116,-0.03524 0.0052,-0.01118 0.01278,-0.02155 0.02308,-0.02835 0.0072,-0.0048 0.0156,-0.0076 0.02408,-0.0095 0.0085,-0.0019 0.01713,-0.0028 0.02574,-0.0039 0.0086,-0.0012 0.01722,-0.0026 0.02542,-0.0054 0.0082,-0.0028 0.01602,-0.0072 0.02195,-0.01354 0.0083,-0.0089 0.0123,-0.02089 0.01608,-0.03246 0.0038,-0.01157 0.0079,-0.02356 0.01632,-0.03233 0.0084,-0.0088 0.02028,-0.01329 0.03181,-0.01719 0.01153,-0.0039 0.02349,-0.0076 0.03298,-0.01521 0.0095,-0.0077 0.01577,-0.01874 0.0203,-0.03012 0.0045,-0.01137 0.0076,-0.02329 0.0121,-0.03467 0.01588,-0.03992 0.0489,-0.07066 0.08448,-0.09474 0.03558,-0.02407 0.07456,-0.04282 0.109896,-0.06724 0.07797,-0.05388 0.136301,-0.135543 0.161978,-0.226769"
     id="path6"
     transform="matrix(0.970299,0,0,0.970299,0.54621827,0.46851405)" />
  <path
     style="opacity:1;fill:none;fill-opacity:1;stroke:#ff7e00;stroke-width:1;stroke-dasharray:none;stroke-opacity:1"
     d="m 25.786884,22.806479 c 0.133401,0.123585 0.212236,0.304084 0.212236,0.485933 0,0.18185 -0.07884,0.362349 -0.212236,0.485934 -0.01122,0.01039 -0.02285,0.02046 -0.0324,0.0324 -0.01907,0.02386 -0.02883,0.05422 -0.03155,0.08465 -0.0027,0.03043 0.0012,0.06108 0.0072,0.09104 0.01194,0.05992 0.03219,0.120068 0.02438,0.180662 -0.0044,0.03396 -0.01742,0.06613 -0.03083,0.09764 -0.01342,0.0315 -0.02744,0.06312 -0.03396,0.09674 -0.01236,0.06375 0.0031,0.129507 0,0.194374 -0.0021,0.04476 -0.01321,0.08909 -0.0324,0.129582 -0.01669,0.01791 -0.02808,0.04069 -0.0324,0.06479 -0.0038,0.02132 -0.0022,0.04319 -4.1e-4,0.06477 0.0018,0.02158 0.0037,0.0434 4.1e-4,0.06481 -0.0048,0.03147 -0.02062,0.06025 -0.03911,0.08617 -0.01849,0.02592 -0.0399,0.04967 -0.05808,0.07581 -0.07118,0.102327 -0.08754,0.232077 -0.09719,0.356351 -0.01945,0.250427 -0.01919,0.508372 0.06479,0.745099 0.02469,0.06961 0.05657,0.137226 0.07053,0.209754 0.007,0.03627 0.0094,0.07367 0.0038,0.110189 -0.0055,0.03652 -0.01916,0.07216 -0.04198,0.101199 -0.01889,0.02403 -0.04343,0.04292 -0.06479,0.06479 -0.0443,0.04536 -0.07421,0.102889 -0.09719,0.161978 -0.02476,0.06366 -0.04214,0.129931 -0.06479,0.194373 -0.06018,0.171219 -0.158702,0.329902 -0.29156,0.453538 -0.215456,0.200501 -0.515703,0.300258 -0.80989,0.29156 -0.104012,-0.0031 -0.207337,-0.01889 -0.311351,-0.02187 -0.104014,-0.003 -0.21112,0.0077 -0.304164,0.05428 -0.07804,0.03908 -0.14389,0.102221 -0.226769,0.129582 -0.07728,0.02551 -0.161076,0.01829 -0.24216,0.0113 -0.08108,-0.007 -0.16239,-0.0113 -0.243774,-0.0113 H 22.25575 c -0.07564,0 -0.151635,0.0087 -0.226768,0 -0.08463,-0.0098 -0.163176,-0.04861 -0.235817,-0.09313 -0.07264,-0.04452 -0.141555,-0.09547 -0.217721,-0.133641 -0.06485,-0.0325 -0.134862,-0.05571 -0.194374,-0.09719 -0.05981,-0.04168 -0.106003,-0.09975 -0.149773,-0.158048 -0.04377,-0.0583 -0.08657,-0.118305 -0.141787,-0.165907 -0.04091,-0.03527 -0.08779,-0.06297 -0.129582,-0.09719 -0.125877,-0.103072 -0.198244,-0.260477 -0.226733,-0.420656 -0.02849,-0.16018 -0.01699,-0.324613 -3.6e-5,-0.48642 0.0068,-0.06475 0.01436,-0.130874 0,-0.194373 -0.01509,-0.06674 -0.05369,-0.126861 -0.06479,-0.194374 -0.0088,-0.05337 1.98e-4,-0.10789 0,-0.161977 -3.27e-4,-0.08937 -0.02569,-0.176666 -0.05424,-0.261356 -0.02855,-0.08469 -0.06067,-0.168813 -0.07534,-0.256974 -0.03207,-0.192658 0.02112,-0.388138 0.0324,-0.58312 0.0087,-0.150972 -0.0078,-0.302513 0,-0.453538 0.0062,-0.120904 0.02805,-0.240997 0.06479,-0.356351 l 0.06479,-0.615516"
     id="path7"
     transform="matrix(0.970299,0,0,0.970299,0.54621827,0.46851405)" />
  <path
     style="opacity:1;fill:none;fill-opacity:1;stroke:#ff7e00;stroke-width:1;stroke-dasharray:none;stroke-opacity:1"
     d="m 8.455243,23.745951 c -0.077765,0.349961 -0.099722,0.712262 -0.064791,1.069053 0.00423,0.04318 0.00924,0.08719 0,0.129583 -0.00728,0.03339 -0.023117,0.0643 -0.032395,0.09719 -0.014821,0.05254 -0.012454,0.108139 -0.011546,0.16272 9.08e-4,0.05458 -6.42e-5,0.110761 -0.02085,0.161236 -0.0092,0.02233 -0.022058,0.04296 -0.032396,0.06479 -0.023488,0.0496 -0.033553,0.104669 -0.03652,0.159467 -0.00297,0.0548 9.308e-4,0.109703 0.00412,0.164489 0.011321,0.19418 0.013811,0.389101 0,0.58312 -0.00846,0.118875 -0.022946,0.239405 0,0.356351 0.012911,0.0658 0.037374,0.128659 0.058533,0.192288 0.021159,0.06363 0.039245,0.129407 0.038654,0.196459 -1.903e-4,0.02161 -0.00232,0.0433 0,0.06479 0.00443,0.04097 0.024998,0.07894 0.05209,0.109994 0.027092,0.03105 0.060536,0.05585 0.094585,0.07906 0.03405,0.02321 0.069095,0.04516 0.1006667,0.07165 0.031572,0.02648 0.059868,0.058 0.076614,0.09565 0.013313,0.02993 0.018922,0.06288 0.019781,0.09562 8.593e-4,0.03275 -0.00291,0.06544 -0.00767,0.09786 -0.00954,0.06482 -0.023135,0.130683 -0.012107,0.195268 0.010846,0.06352 0.046247,0.122518 0.097187,0.161978 l 0.032396,0.06479 c 0.00117,-0.0033 0.00339,-0.0063 0.00627,-0.0083 0.00288,-0.002 0.0064,-0.0032 0.00992,-0.0032 0.00353,0 0.00705,0.0011 0.00993,0.0032 0.00288,0.002 0.0051,0.005 0.00627,0.0083 0.00181,0.0051 0.00108,0.01079 2.467e-4,0.01618 -8.33e-4,0.0054 -0.00174,0.01097 -2.467e-4,0.01622 8.559e-4,0.003 0.00249,0.0058 0.00463,0.0081 0.00214,0.0023 0.00477,0.0041 0.00763,0.0053 0.00572,0.0025 0.012246,0.0029 0.018411,0.0018 0.01233,-0.0021 0.022986,-0.0095 0.03412,-0.01522 0.034985,-0.01794 0.07674,-0.01971 0.1150255,-0.01076 0.038285,0.009 0.073535,0.02794 0.1061957,0.04984 0.065322,0.04378 0.1244085,0.100953 0.1999212,0.122899 0.057251,0.01664 0.1182638,0.0119 0.17771,0.0074 0.059446,-0.0045 0.1190214,-0.0074 0.1786412,-0.0074 h 0.8746808 c 0.194473,0 0.389684,0.02006 0.58312,0 0.137071,-0.01422 0.272245,-0.05598 0.388747,-0.129582 0.04113,-0.02599 0.08163,-0.05657 0.129582,-0.06479 0.03073,-0.0053 0.06229,-8.27e-4 0.09277,0.0057 0.03049,0.0065 0.06064,0.01513 0.09165,0.01833 0.03101,0.0032 0.06358,5.88e-4 0.09103,-0.01419 0.01373,-0.0074 0.02594,-0.01778 0.03469,-0.03068 0.0087,-0.0129 0.01392,-0.02835 0.0138,-0.04394 -8.2e-5,-0.01084 -0.0026,-0.02188 0,-0.0324 0.0018,-0.0073 0.0062,-0.01388 0.01184,-0.01881 0.0057,-0.0049 0.01267,-0.0083 0.01998,-0.01004 0.01463,-0.0035 0.03012,-9.03e-4 0.04438,0.0039 0.01426,0.0048 0.02769,0.01179 0.04173,0.01722 0.01404,0.0054 0.02909,0.0094 0.04405,0.0077 0.01964,-0.0022 0.03699,-0.01369 0.05196,-0.02659 0.01497,-0.01289 0.02857,-0.02757 0.04523,-0.0382 0.02599,-0.01659 0.05777,-0.02211 0.0886,-0.0214 0.03082,7.05e-4 0.06117,0.0072 0.09145,0.01305 0.03028,0.0058 0.06104,0.01098 0.0918,0.0089 0.03076,-0.0021 0.06191,-0.01199 0.08451,-0.03296 0.0113,-0.01048 0.02009,-0.02331 0.02982,-0.03525 0.0097,-0.01195 0.02086,-0.02336 0.03497,-0.02954 0.015,-0.0066 0.03204,-0.0066 0.04833,-0.005 0.01629,0.0017 0.03247,0.0051 0.04886,0.005 0.03444,-2.22e-4 0.06676,-0.01559 0.09753,-0.03105 0.03077,-0.01546 0.06247,-0.03166 0.09685,-0.03374 0.03631,-0.0022 0.07172,0.01168 0.103767,0.02889 0.03205,0.01721 0.0623,0.03804 0.09602,0.05168 0.01686,0.0068 0.03458,0.01181 0.0527,0.0133 0.01813,0.0015 0.0367,-5.83e-4 0.05356,-0.0074 0.01686,-0.0068 0.03191,-0.01859 0.04146,-0.03407 0.0095,-0.01548 0.01327,-0.03474 0.0088,-0.05239 -0.0014,-0.0055 -0.0035,-0.01086 -0.0042,-0.01649 -3.59e-4,-0.0028 -3.51e-4,-0.0057 2.94e-4,-0.0085 6.45e-4,-0.0028 0.002,-0.0054 0.004,-0.0074 0.002,-0.002 0.0046,-0.0033 0.0074,-0.004 0.0028,-6.61e-4 0.0057,-6.8e-4 0.0085,-3.25e-4 0.0056,7.11e-4 0.01099,0.0029 0.0165,0.0043 0.01741,0.0046 0.0364,0.0018 0.05242,-0.0065 0.01602,-0.0082 0.02912,-0.02159 0.0383,-0.03709 0.01835,-0.03098 0.02093,-0.06886 0.0181,-0.104764 -0.0028,-0.0359 -0.01054,-0.07141 -0.01095,-0.107423 -2.04e-4,-0.018 0.0015,-0.03613 0.0064,-0.05345 0.0049,-0.01732 0.01323,-0.03383 0.02533,-0.04717 0.01035,-0.01141 0.02316,-0.02023 0.03512,-0.02994 0.01196,-0.0097 0.02343,-0.02077 0.02967,-0.03485 0.0066,-0.01498 0.0067,-0.03203 0.005,-0.04833 -0.0017,-0.0163 -0.0051,-0.03247 -0.005,-0.04886 1.01e-4,-0.02935 0.01124,-0.05756 0.02465,-0.08366 0.01342,-0.02611 0.02931,-0.05103 0.04014,-0.07831 0.01814,-0.0457 0.02126,-0.09611 0.01808,-0.145183 -0.0032,-0.04907 -0.01239,-0.09753 -0.01808,-0.146377 -0.02631,-0.225897 0.02311,-0.453073 0.0324,-0.680307 0.0084,-0.205431 -0.01607,-0.410563 -0.0324,-0.615516 -0.01033,-0.12963 -0.01741,-0.259571 -0.03239,-0.388747 -0.01004,-0.08656 -0.02362,-0.172825 -0.02789,-0.259859 -0.0043,-0.08703 0.001,-0.175579 0.02789,-0.25847 0.02486,-0.07668 0.06735,-0.146211 0.108782,-0.215357 0.04143,-0.06914 0.08261,-0.139683 0.104427,-0.217285 0.01091,-0.0388 0.01683,-0.07919 0.01508,-0.119458 -0.0018,-0.04027 -0.01132,-0.08043 -0.03007,-0.116106 -0.01875,-0.03568 -0.04689,-0.06672 -0.08181,-0.08686 -0.03491,-0.02014 -0.07664,-0.02898 -0.116411,-0.02243 -0.0054,8.93e-4 -0.0108,0.0021 -0.01628,0.0024 -0.0055,3.6e-4 -0.01113,-1.3e-4 -0.01612,-0.0024 -0.004,-0.0018 -0.0075,-0.0048 -0.01006,-0.0084 -0.0026,-0.0036 -0.0044,-0.0077 -0.0054,-0.01198 -0.002,-0.0086 -9.48e-4,-0.01763 0.0013,-0.02614 0.0023,-0.0085 0.0058,-0.01664 0.0087,-0.02495 0.0029,-0.0083 0.0054,-0.01695 0.0054,-0.02576 1.5e-5,-0.0123 -0.0047,-0.0242 -0.01098,-0.03476 -0.0063,-0.01057 -0.01421,-0.02006 -0.02142,-0.03003 -0.02663,-0.03679 -0.04381,-0.08036 -0.04944,-0.125428 -0.0056,-0.04507 2.91e-4,-0.09153 0.01705,-0.133737"
     id="path8"
     transform="matrix(0.970299,0,0,0.970299,0.54621827,0.46851405)" />
  <path
     style="opacity:1;fill:none;fill-opacity:1;stroke:#ff7e00;stroke-width:1;stroke-dasharray:none;stroke-opacity:1"
     d="m 31.4237,22.936061 c 0.02496,0.32483 0.0031,0.653225 -0.06479,0.971867 -0.03664,0.17202 -0.08865,0.345384 -0.194374,0.485934 -0.02348,0.03121 -0.04978,0.06113 -0.06479,0.09719 -0.0135,0.03245 -0.01709,0.0682 -0.01696,0.103345 1.26e-4,0.03514 0.0038,0.0702 0.0041,0.10534 3.42e-4,0.03514 -0.0028,0.0709 -0.0157,0.103587 -0.0129,0.03269 -0.03655,0.06223 -0.06868,0.07647 -0.01119,0.005 -0.02312,0.008 -0.03454,0.01239 -0.01142,0.0044 -0.02262,0.01044 -0.03025,0.02001 -0.0052,0.0066 -0.0086,0.01457 -0.01018,0.02282 -0.0016,0.0083 -0.0016,0.01676 -6.97e-4,0.02512 0.0019,0.01672 0.0074,0.03279 0.01088,0.04924 0.0075,0.03533 0.0056,0.0723 -0.0027,0.107467 -0.0083,0.03517 -0.02278,0.06864 -0.04024,0.100267 -0.03491,0.06326 -0.08145,0.119334 -0.119081,0.181012 -0.06508,0.106662 -0.102825,0.231531 -0.09719,0.356352 0.002,0.0433 0.009,0.08718 0,0.129582 -0.009,0.04241 -0.03369,0.08036 -0.06475,0.110605 -0.03106,0.03024 -0.06832,0.05337 -0.10654,0.07381 -0.07645,0.04089 -0.160649,0.07405 -0.217461,0.139538 -0.03331,0.0384 -0.05505,0.08607 -0.0662,0.13567 -0.01115,0.0496 -0.01199,0.101131 -0.0066,0.151676 0.01083,0.10109 0.04612,0.19766 0.07277,0.295774 0.05242,0.192991 0.07371,0.399179 0.176239,0.57088 0.05126,0.08585 0.123581,0.161358 0.214216,0.203591 0.04532,0.02112 0.09482,0.03366 0.1448,0.0348 0.04998,0.0011 0.10041,-0.0093 0.145052,-0.03178 0.0108,-0.0054 0.02156,-0.01169 0.03354,-0.01336 0.006,-8.35e-4 0.01222,-4.62e-4 0.01787,0.0017 0.0056,0.0022 0.01065,0.0062 0.01338,0.01164 0.0025,0.0049 0.003,0.01061 0.0026,0.0161 -4.14e-4,0.0055 -0.0017,0.01087 -0.0026,0.0163 -0.0062,0.038 0.0074,0.0777 0.03192,0.107408 0.0245,0.02971 0.059,0.05003 0.0955,0.06227 0.07301,0.02448 0.152218,0.018 0.228933,0.02469 0.103,0.009 0.20377,0.04258 0.29156,0.09719 l 0.291561,0.0324 c 0.0015,0.008 0.0055,0.01547 0.01119,0.0212 0.0057,0.0057 0.01323,0.0097 0.0212,0.0112 0.01064,0.002 0.02158,-2.98e-4 0.0324,0 0.02069,5.71e-4 0.04034,0.01086 0.05504,0.02544 0.01469,0.01458 0.02482,0.03319 0.03235,0.05247 0.01505,0.03857 0.02063,0.08113 0.0422,0.116465 0.01815,0.02974 0.04628,0.052 0.07536,0.07119 0.02908,0.01919 0.05985,0.03608 0.08662,0.05839 0.06493,0.05413 0.101194,0.135625 0.161978,0.194373 0.06294,0.06083 0.147266,0.09297 0.226769,0.129583 0.08339,0.03841 0.163891,0.08329 0.249386,0.116756 0.08549,0.03347 0.177698,0.05541 0.268943,0.04522 0.110393,-0.01233 0.210677,-0.07059 0.297833,-0.13946 0.08716,-0.06887 0.164713,-0.149339 0.252891,-0.216891 0.130934,-0.100307 0.282384,-0.169994 0.421143,-0.259164 0.07915,-0.05086 0.154626,-0.108503 0.217778,-0.178238 0.06315,-0.06974 0.113788,-0.152147 0.138573,-0.242905 0.009,-0.03306 0.01487,-0.06773 0.03239,-0.09719 0.02016,-0.03391 0.05476,-0.05801 0.09255,-0.06931 0.03779,-0.0113 0.07854,-0.01046 0.117045,-0.0019 0.07701,0.01714 0.14369,0.06336 0.211546,0.1036 0.134532,0.07979 0.285645,0.140011 0.442058,0.139336 0.07821,-3.37e-4 0.156794,-0.01623 0.22713,-0.05043 0.07034,-0.03419 0.132142,-0.08707 0.173097,-0.1537 0.03309,-0.05383 0.05309,-0.116723 0.09719,-0.161978 0.04416,-0.04532 0.106456,-0.06684 0.161978,-0.09719 0.123195,-0.06734 0.216155,-0.181716 0.276845,-0.308318 0.06069,-0.126601 0.09135,-0.265499 0.111902,-0.404384 0.0665,-0.449438 0.03171,-0.907488 0.06479,-1.360614 0.0071,-0.09721 0.01727,-0.195632 0,-0.29156 -0.01768,-0.09825 -0.06383,-0.191734 -0.06479,-0.29156 -5.24e-4,-0.05418 0.01234,-0.109223 0,-0.161978 -0.01105,-0.04722 -0.04106,-0.08729 -0.06479,-0.129582 -0.07635,-0.13608 -0.08848,-0.297744 -0.09719,-0.453538 -0.0187,-0.334437 -0.02951,-0.669316 -0.0324,-1.004263"
     id="path9"
     transform="matrix(0.970299,0,0,0.970299,0.54621827,0.46851405)" />
  <path
     style="opacity:1;fill:none;fill-opacity:1;stroke:#ff7e00;stroke-width:1;stroke-dasharray:none;stroke-opacity:1"
     d="m 14.739983,4.8917306 c 0.122704,-0.2416873 0.182156,-0.515146 0.170872,-0.7859629 -0.01128,-0.2708169 -0.09328,-0.5383822 -0.235662,-0.7690243 -0.07544,-0.1221944 -0.169,-0.2375707 -0.205263,-0.3765202 -0.01813,-0.069475 -0.02077,-0.1442727 0.0018,-0.2124258 0.0113,-0.034076 0.02884,-0.066196 0.05237,-0.093315 0.02352,-0.02712 0.05308,-0.049161 0.08628,-0.062837 0.06059,-0.024964 0.128918,-0.02107 0.192775,-0.035797 0.03193,-0.00736 0.06335,-0.019785 0.08825,-0.041077 0.01245,-0.010646 0.02315,-0.023449 0.03075,-0.037963 0.0076,-0.014514 0.01206,-0.030758 0.01218,-0.047141 8.2e-5,-0.010815 -0.0017,-0.021713 0,-0.032395 0.0025,-0.015705 0.01236,-0.029476 0.02447,-0.039778 0.01211,-0.010302 0.02644,-0.017589 0.04061,-0.024806 0.01417,-0.00722 0.02847,-0.014563 0.04051,-0.024959 0.01203,-0.010395 0.02175,-0.024299 0.024,-0.04004 0.0015,-0.010784 -4.7e-4,-0.02171 -0.0019,-0.032515 -0.0014,-0.010805 -0.0021,-0.022124 0.0019,-0.032276 0.0023,-0.00597 0.0062,-0.011279 0.01093,-0.015586 0.0047,-0.00431 0.01032,-0.00763 0.01624,-0.010067 0.01184,-0.00488 0.02482,-0.00622 0.03761,-0.00674 0.0793,-0.00322 0.156548,0.023194 0.23534,0.032676 0.0394,0.00474 0.07979,0.00518 0.118305,-0.00434 0.03852,-0.00953 0.07521,-0.029657 0.09989,-0.060728 0.01631,-0.020533 0.02697,-0.045308 0.032,-0.071043 0.005,-0.025735 0.0045,-0.052407 -1.09e-4,-0.078215 -0.0093,-0.051615 -0.03472,-0.098993 -0.06429,-0.1423022 -0.03795,-0.05557 -0.08327,-0.1060958 -0.117539,-0.1640061 -0.01713,-0.028955 -0.03146,-0.059781 -0.03992,-0.092346 -0.0085,-0.032565 -0.01092,-0.066968 -0.0045,-0.1 0.0032,-0.016471 0.0086,-0.032538 0.01042,-0.049211 9.33e-4,-0.00834 9.77e-4,-0.016822 -5.73e-4,-0.025067 -0.0015,-0.00824 -0.0047,-0.016255 -0.0098,-0.022909 -0.0047,-0.00608 -0.01078,-0.010863 -0.01669,-0.015752 -0.0059,-0.00489 -0.01177,-0.010065 -0.0157,-0.016644 -0.0057,-0.0095 -0.0068,-0.021102 -0.0058,-0.032125 9.81e-4,-0.011023 0.0039,-0.021767 0.0058,-0.032666 0.0071,-0.04031 1.06e-4,-0.082136 -0.01399,-0.120563 -0.01409,-0.038427 -0.03506,-0.073919 -0.05667,-0.1086801 -0.02161,-0.034761 -0.04405,-0.0691675 -0.06147,-0.10620572 -0.01742,-0.0370382 -0.02977,-0.0771591 -0.02985,-0.11808914 -4e-5,-0.0216312 0.0033,-0.0434176 0,-0.0647911 -0.0045,-0.0290401 -0.02091,-0.0546103 -0.03589,-0.0798969 -0.0075,-0.0126433 -0.01474,-0.0254954 -0.02015,-0.0391595 -0.0054,-0.0136641 -0.0089,-0.0282276 -0.0088,-0.0429214 2.15e-4,-0.0162484 0.005,-0.0322865 0.01292,-0.0464921 0.0079,-0.0142056 0.01879,-0.0266222 0.0312,-0.0371135 0.02482,-0.0209824 0.0552,-0.0341229 0.08546,-0.0459767 0.263853,-0.10335666 0.551746,-0.13009435 0.835118,-0.12878626 0.283371,0.001308 0.566085,0.0295643 0.849452,0.0315996 0.454056,0.003261 0.910617,-0.0606752 1.360613,0 0.07568,0.0102039 0.15088,0.0239094 0.226769,0.0323956 0.22557,0.0252242 0.453367,0.004031 0.680307,0 0.685256,-0.0121726 1.362126,0.13210861 2.040921,0.22676897 1.114796,0.15546213 2.246427,0.17753845 3.369139,0.0971867 0.151179,-0.0108198 0.302234,-0.0234898 0.453538,-0.0323956 0.604168,-0.0355616 1.211328,-0.0110575 1.814152,-0.0647911 0.38038,-0.0339058 0.757216,-0.0988101 1.133844,-0.16197784 0.333056,-0.05586 0.667094,-0.11049834 1.004263,-0.12958226 0.15139,-0.008569 0.30357,-0.009988 0.453538,-0.0323956 0.230661,-0.0344645 0.4513,-0.11783652 0.680307,-0.16197784 0.3524,-0.06792553 0.717811,-0.0412805 1.069054,0.0323956 0.07705,0.0161627 0.154021,0.034686 0.226768,0.0647911 0.05805,0.024021 0.112995,0.0552513 0.171804,0.0773365 0.05881,0.0220853 0.123527,0.034773 0.184548,0.0198502 0.02216,-0.005419 0.0435,-0.0143938 0.0661,-0.0174824 0.0113,-0.001544 0.02291,-0.001575 0.03401,0.001075 0.01109,0.00265 0.02167,0.008092 0.02948,0.0164074 0.007,0.007484 0.01157,0.016969 0.01496,0.0266578 0.0034,0.009689 0.0057,0.0197155 0.009,0.0294442 0.0033,0.009729 0.0076,0.019299 0.01433,0.0270307 0.0034,0.003866 0.0074,0.007237 0.01184,0.009718 0.0045,0.002481 0.0095,0.004056 0.01464,0.004337 0.0055,2.9826e-4 0.01087,-8.5505e-4 0.01629,-0.001503 0.0054,-6.4825e-4 0.01113,-7.5036e-4 0.01611,0.001503 0.0054,0.002466 0.0094,0.007597 0.01127,0.0132783 0.0019,0.005681 0.0018,0.0118615 5.92e-4,0.0177236 -0.0023,0.0117243 -0.0087,0.0222615 -0.01187,0.0337892 -0.0039,0.014392 -0.0027,0.0298667 0.0016,0.044154 0.0043,0.0142873 0.01156,0.0275187 0.01959,0.0400957 0.01607,0.025154 0.03582,0.0489086 0.04358,0.0777281 0.0085,0.0314432 0.0016,0.06466 0,0.0971867 -0.0037,0.0771744 0.023,0.15204265 0.04124,0.2271214 0.0091,0.037539 0.01621,0.075835 0.01629,0.1144662 9e-5,0.038631 -0.0071,0.0778 -0.02514,0.1119503 -0.02722,0.05147 -0.07615,0.087115 -0.121469,0.1236723 -0.02266,0.018279 -0.0449,0.037323 -0.06373,0.059523 -0.01883,0.0222 -0.03425,0.047793 -0.04157,0.075969 -0.01092,0.042029 -0.0033,0.086282 0,0.1295822 0.0099,0.1300187 -0.021,0.261658 -0.07977,0.3780544 -0.05877,0.1163965 -0.144732,0.2179299 -0.244189,0.3022526 -0.08775,0.074395 -0.187209,0.1370109 -0.259165,0.2267689 -0.08022,0.1000669 -0.120904,0.2335543 -0.09923,0.359962 0.01084,0.063204 0.0369,0.1239201 0.07641,0.1744285 0.03951,0.050508 0.09251,0.090601 0.152405,0.1135209 0.01136,0.00435 0.02297,0.00809 0.03411,0.012969 0.01115,0.00488 0.02192,0.010972 0.03067,0.019426 0.01223,0.011817 0.01995,0.027823 0.02346,0.044467 0.0035,0.016644 0.003,0.033936 4.25e-4,0.05075 -0.0051,0.033628 -0.01833,0.065595 -0.02389,0.099156 -0.0038,0.02276 -0.004,0.046264 0.0011,0.068773 0.0051,0.022509 0.0155,0.044001 0.0313,0.060809 0.01047,0.011141 0.0232,0.020185 0.0324,0.032396 0.01168,0.015504 0.01686,0.035191 0.0175,0.054595 6.41e-4,0.019404 -0.003,0.038694 -0.0074,0.057594 -0.0044,0.0189 -0.0097,0.037643 -0.01255,0.056852 -0.0028,0.019209 -0.0031,0.039119 0.0025,0.057728 0.0069,0.023189 0.02223,0.042836 0.03239,0.064791 0.02065,0.044621 0.01888,0.096203 0.01252,0.1449553 -0.0064,0.048752 -0.01694,0.097639 -0.01252,0.1466048 0.0062,0.068286 0.04077,0.1301526 0.06479,0.1943734 0.0541,0.1446689 0.0541,0.308869 0,0.4535379"
     id="path10"
     transform="matrix(0.970299,0,0,0.970299,0.54621827,0.46851405)" />
  <metadata
     id="metadata10">
    <rdf:RDF>
      <cc:Work
         rdf:about="">
        <dc:title>suitcase</dc:title>
      </cc:Work>
    </rdf:RDF>
  </metadata>
</svg>
