<?xml version="1.0" encoding="UTF-8" standalone="no"?>
<svg
   width="15px"
   height="23px"
   viewBox="0 0 15 23"
   version="1.1"
   id="svg1"
   sodipodi:docname="ico_arrow_down.svg"
   inkscape:version="1.3.2 (091e20e, 2023-11-25, custom)"
   xmlns:inkscape="http://www.inkscape.org/namespaces/inkscape"
   xmlns:sodipodi="http://sodipodi.sourceforge.net/DTD/sodipodi-0.dtd"
   xmlns="http://www.w3.org/2000/svg"
   xmlns:svg="http://www.w3.org/2000/svg"
   xmlns:rdf="http://www.w3.org/1999/02/22-rdf-syntax-ns#"
   xmlns:cc="http://creativecommons.org/ns#"
   xmlns:dc="http://purl.org/dc/elements/1.1/">
  <sodipodi:namedview
     id="namedview1"
     pagecolor="#ffffff"
     bordercolor="#000000"
     borderopacity="0.25"
     inkscape:showpageshadow="2"
     inkscape:pageopacity="0.0"
     inkscape:pagecheckerboard="0"
     inkscape:deskcolor="#d1d1d1"
     showgrid="false"
     inkscape:zoom="51"
     inkscape:cx="7.4901961"
     inkscape:cy="11.5"
     inkscape:window-width="2560"
     inkscape:window-height="1369"
     inkscape:window-x="-8"
     inkscape:window-y="-8"
     inkscape:window-maximized="1"
     inkscape:current-layer="layer5" />
  <!-- Generator: Sketch 49 (51002) - http://www.bohemiancoding.com/sketch -->
  <title
     id="title1">ion-ios-arrow-thin-down - Ionicons</title>
  <desc
     id="desc1">Created with Sketch.</desc>
  <defs
     id="defs1">
    <inkscape:path-effect
       effect="spiro"
       id="path-effect1"
       is_visible="true"
       lpeversion="1" />
  </defs>
  <g
     inkscape:groupmode="layer"
     id="layer5"
     inkscape:label="layur">
    <path
       style="opacity:1;fill:#f7931a;fill-opacity:1;stroke:#f7931a;stroke-width:0.395;stroke-opacity:1"
       d="m 7.8823529,22.72549 c -0.1226801,0.02363 -0.2498689,0.02363 -0.372549,0 -0.1312466,-0.02528 -0.2605303,-0.0799 -0.3529412,-0.17647 -0.012792,-0.01337 -0.024879,-0.02752 -0.039216,-0.03922 -0.038808,-0.03166 -0.089951,-0.04236 -0.1372549,-0.05882 -0.089949,-0.03129 -0.1710807,-0.08653 -0.2352942,-0.156862 -0.018735,-0.02052 -0.036314,-0.04253 -0.058823,-0.05882 -0.023729,-0.01717 -0.051749,-0.02714 -0.078431,-0.03922 -0.149131,-0.06754 -0.2563702,-0.201139 -0.3529411,-0.333333 -0.043559,-0.05963 -0.087428,-0.123002 -0.098039,-0.196078 -0.00241,-0.01662 -0.00304,-0.03345 -0.00523,-0.0501 -0.00219,-0.01665 -0.00605,-0.03336 -0.014376,-0.04794 -0.013823,-0.02421 -0.038267,-0.03999 -0.058823,-0.05882 -0.035874,-0.03286 -0.060662,-0.07606 -0.080608,-0.120431 -0.019946,-0.04437 -0.03563,-0.0906 -0.056648,-0.134474 C 5.8826171,21.132669 5.7848544,21.033344 5.6792559,20.948379 5.5736573,20.863414 5.4587923,20.790532 5.3529412,20.705882 5.1178718,20.517894 4.930237,20.274332 4.6862745,20.098039 4.5598755,20.0067 4.4202389,19.934859 4.2941176,19.843137 4.0990602,19.701281 3.9400053,19.514611 3.745098,19.372549 3.5926446,19.26143 3.4200015,19.178914 3.2745098,19.058824 c -0.039377,-0.0325 -0.07662,-0.06765 -0.1176471,-0.09804 -0.056827,-0.0421 -0.1203282,-0.07464 -0.1764705,-0.117647 C 2.8478185,18.741583 2.764845,18.588975 2.6470588,18.470588 2.5850243,18.408237 2.5137021,18.355778 2.4509804,18.294118 2.3684739,18.213009 2.301592,18.116716 2.2156863,18.039216 2.1428547,17.973511 2.0579682,17.922775 1.9803922,17.862745 1.9141752,17.811505 1.8532219,17.753441 1.7843137,17.705882 1.7215667,17.662575 1.6529762,17.6285 1.5882353,17.588235 1.363396,17.448397 1.1913885,17.238393 0.98039216,17.078431 c -0.0335144,-0.02541 -0.0680646,-0.04959 -0.0993344,-0.07772 -0.0312698,-0.02812 -0.0594337,-0.0606 -0.0771362,-0.09875 -0.0278012,-0.05991 -0.0277774,-0.128737 -0.0228309,-0.1946 0.004946,-0.06586 0.0142562,-0.132436 0.003223,-0.197557 -0.0153492,-0.0906 -0.0689183,-0.171237 -0.0845427,-0.261786 -0.007812,-0.04527 -0.005428,-0.09364 0.0154244,-0.134578 0.010426,-0.02047 0.0254019,-0.03876 0.0441268,-0.05207 0.0187249,-0.01331 0.0412448,-0.0215 0.0642072,-0.02216 0.006534,-1.88e-4 0.013075,2.22e-4 0.0196078,0 0.0314716,-0.0011 0.0607649,-0.01671 0.0856599,-0.03599 C 0.9536923,15.98394 0.97536892,15.960795 1,15.941176 c 0.051355,-0.04091 0.1151314,-0.06555 0.1804914,-0.07177 0.06536,-0.0062 0.1321101,0.0058 0.1920576,0.03255 0.074881,0.03345 0.1388158,0.08907 0.2156863,0.117647 0.044807,0.01666 0.09252,0.02355 0.139452,0.03263 0.046932,0.0091 0.094311,0.0208 0.1350578,0.0458 0.044575,0.02734 0.078773,0.06928 0.1040748,0.115048 0.025302,0.04576 0.042343,0.09556 0.05866,0.14524 0.016316,0.04968 0.032125,0.09977 0.055216,0.146693 0.023091,0.04692 0.054007,0.09097 0.095775,0.122431 0.018827,0.01418 0.039574,0.02561 0.058823,0.03922 0.049271,0.03483 0.087381,0.08283 0.1255379,0.129568 0.038157,0.04674 0.077989,0.0937 0.1293641,0.125334 0.037354,0.023 0.079542,0.03708 0.117647,0.05882 0.061629,0.03515 0.1105767,0.08928 0.1502392,0.148108 0.039663,0.05883 0.07091,0.122816 0.1046628,0.185225 0.1313036,0.242781 0.3028021,0.464485 0.5098039,0.647059 0.3716022,0.327751 0.8436649,0.519992 1.2352941,0.82353 0.1336274,0.10357 0.2593271,0.221002 0.4117647,0.294117 0.02637,0.01265 0.053493,0.02394 0.078431,0.03922 0.04167,0.02553 0.076007,0.06146 0.1066916,0.09949 0.030685,0.03804 0.058209,0.07856 0.089387,0.116193 0.1225745,0.147956 0.2947686,0.244034 0.4586946,0.344253 0.163926,0.100218 0.3292498,0.213899 0.4236584,0.381238 0.072273,0.128105 0.096915,0.277449 0.1568627,0.411764 0.092515,0.207283 0.2642835,0.369119 0.3725491,0.568628 0.020009,0.03687 0.038139,0.07545 0.066167,0.106666 0.014014,0.01561 0.030485,0.02922 0.04932,0.03846 0.018835,0.0092 0.040124,0.01394 0.060984,0.01174 0.018816,-0.002 0.036603,-0.0094 0.053676,-0.01757 0.017073,-0.0082 0.033868,-0.01716 0.05197,-0.02267 0.018102,-0.0055 0.037979,-0.0073 0.055778,-8.76e-4 0.0089,0.0032 0.017123,0.0085 0.02336,0.01558 0.00624,0.0071 0.010421,0.01611 0.011294,0.02553 6.04e-4,0.0065 -3.477e-4,0.01308 0,0.01961 5.152e-4,0.0097 0.00391,0.01909 0.00904,0.02731 0.00513,0.0082 0.01196,0.0153 0.019516,0.02137 0.015112,0.01214 0.032968,0.02026 0.049872,0.02975 0.081201,0.04558 0.1395556,0.122076 0.1960785,0.196078 0.036218,0.04742 0.072939,0.09499 0.1175623,0.134595 0.044623,0.03961 0.098104,0.07121 0.1569475,0.08109 0.034334,0.0058 0.069411,0.004 0.1042247,0.0038 0.034814,-2.29e-4 0.070297,0.0012 0.103098,0.01286 0.0164,0.0058 0.031986,0.01424 0.04517,0.02561 0.013184,0.01137 0.023916,0.02576 0.030037,0.04205 0.00612,0.0163 0.00749,0.03451 0.00283,0.05128 -0.00466,0.01677 -0.015517,0.03194 -0.030456,0.04087 -0.00308,0.0018 -0.00642,0.0035 -0.01,0.0038 -0.00179,1.56e-4 -0.00362,-2.4e-5 -0.00531,-6.41e-4 -0.00169,-6.18e-4 -0.00322,-0.0017 -0.0043,-0.0031 -0.00101,-0.0013 -0.00158,-0.003 -0.00182,-0.0046 -2.38e-4,-0.0017 -1.477e-4,-0.0034 8.94e-5,-0.005 4.742e-4,-0.0033 0.00153,-0.0066 0.00173,-0.0099 3.198e-4,-0.0053 -0.00165,-0.01076 -0.00531,-0.01464 -0.00366,-0.0039 -0.00896,-0.0062 -0.0143,-0.0062 -0.00534,0 -0.01064,0.0023 -0.0143,0.0062 -0.00366,0.0039 -0.00563,0.0093 -0.00531,0.01464 -0.020282,-0.03684 -0.046939,-0.07016 -0.078431,-0.09804 -0.03135,-0.02775 -0.067288,-0.05002 -0.098039,-0.07843 -0.067889,-0.06272 -0.1061593,-0.151307 -0.1308421,-0.24038 -0.024683,-0.08907 -0.037691,-0.181195 -0.065236,-0.269424 -0.024656,-0.07897 -0.060845,-0.154451 -0.078431,-0.235295 -0.016753,-0.07701 -0.016125,-0.156556 -0.019608,-0.235294 -0.00937,-0.211803 -0.048944,-0.421203 -0.098039,-0.627451 -0.040127,-0.168574 -0.086883,-0.336879 -0.098039,-0.509804 -0.00424,-0.06566 -0.00339,-0.132307 -0.019608,-0.196078 -0.011807,-0.04643 -0.032358,-0.09007 -0.049531,-0.134799 -0.017172,-0.04472 -0.031176,-0.09186 -0.0289,-0.139711 6.246e-4,-0.01313 0.00247,-0.02618 0.00324,-0.03931 7.67e-4,-0.01313 4.233e-4,-0.02649 -0.00324,-0.03912 -0.00408,-0.01408 -0.012096,-0.02663 -0.019608,-0.03922 -0.080987,-0.135719 -0.1126362,-0.300176 -0.087805,-0.456259 0.024831,-0.156083 0.1059537,-0.3026 0.2250597,-0.406486 -0.00757,-0.130917 -9.785e-4,-0.262647 0.019608,-0.392157 0.019926,-0.125352 0.052844,-0.248229 0.078431,-0.372549 0.06753,-0.328105 0.083684,-0.665941 0.058823,-1 -0.00975,-0.131015 -0.025755,-0.261471 -0.039216,-0.392157 -0.028255,-0.274312 -0.045314,-0.549762 -0.078431,-0.823529 -0.021329,-0.176314 -0.049329,-0.352066 -0.058824,-0.529412 -0.015731,-0.293804 0.019498,-0.588775 0,-0.882353 -0.014831,-0.22331 -0.06119,-0.443529 -0.078431,-0.666666 -0.017128,-0.221672 -0.0054,-0.4444 0,-0.666667 C 7.096059,11.666676 7.0461673,10.941336 7.0392142,10.21568 7.0353931,9.816892 7.0445307,9.4176346 7.0196078,9.0196078 6.9913603,8.5684854 6.9194078,8.1167748 6.9607843,7.6666667 6.9812737,7.4437754 7.0294491,7.2236179 7.0392157,7 7.0497754,6.7582245 7.0152521,6.5164766 7.0196077,6.2745098 c 0.00212,-0.117741 0.013424,-0.2359487 0,-0.3529412 -0.00905,-0.078885 -0.029225,-0.1560048 -0.044427,-0.2339391 -0.015202,-0.077934 -0.025453,-0.1580198 -0.014396,-0.2366491 0.010423,-0.074113 0.039337,-0.1441272 0.065789,-0.214139 0.026452,-0.070012 0.050951,-0.1423969 0.051858,-0.2172336 5.26e-4,-0.043381 -0.00692,-0.08648 -0.00824,-0.129844 -0.00132,-0.043364 0.00415,-0.088712 0.027844,-0.1250579 0.011474,-0.017605 0.026731,-0.032346 0.04126,-0.047528 0.014528,-0.015183 0.028669,-0.031293 0.037171,-0.050511 0.012033,-0.027197 0.011727,-0.058204 0.00839,-0.087757 -0.00333,-0.029553 -0.00948,-0.058994 -0.00839,-0.088714 0.00137,-0.037382 0.014115,-0.073316 0.02737,-0.1082958 0.013255,-0.03498 0.027292,-0.070216 0.031453,-0.1073905 0.00364,-0.032503 -4.129e-4,-0.065336 0,-0.098039 0.00101,-0.079623 0.028318,-0.1564139 0.039216,-0.2352941 0.01433,-0.1037218 8.23e-5,-0.2090185 0,-0.3137255 C 7.2743831,3.4661477 7.3078594,3.3070135 7.3319617,3.1475206 7.356064,2.9880277 7.3706642,2.8235912 7.3333333,2.6666667 7.3160787,2.5941352 7.2879504,2.5243144 7.2745098,2.4509804 7.2614885,2.3799346 7.2625293,2.3071195 7.254902,2.2352941 7.2336149,2.0348362 7.1455274,1.8467064 7.1176471,1.6470588 7.1044431,1.5525068 7.1048201,1.4558284 7.0819989,1.3631267 7.0705883,1.3167758 7.0532569,1.2715066 7.0268628,1.2317328 7.0004688,1.1919589 6.9646553,1.157801 6.9215686,1.1372549 c -0.013209,-0.0063 -0.027128,-0.011359 -0.039216,-0.019608 -0.02279,-0.015553 -0.037125,-0.041477 -0.042867,-0.068465 -0.00574,-0.026987 -0.0036,-0.0550867 0.00133,-0.0822346 0.00493,-0.027148 0.012593,-0.0537293 0.017957,-0.0807944 0.00536,-0.0270651 0.00841,-0.0549986 0.00398,-0.0822319 -0.00384,-0.0235699 -0.013129,-0.0458382 -0.021689,-0.0681314 -0.00856,-0.0222932 -0.016536,-0.0452641 -0.017527,-0.0691235 -0.0013,-0.0312358 0.00946,-0.0617027 0.022319,-0.0901996 0.012856,-0.028497 0.028037,-0.0561767 0.036504,-0.0862709 0.0065,-0.0231018 0.0089,-0.0471298 0.013426,-0.0706969 0.00453,-0.0235671 0.011486,-0.0472877 0.02579,-0.066558 0.011538,-0.0155439 0.027386,-0.0274887 0.044424,-0.0366777 0.017038,-0.009189 0.035335,-0.015778 0.053615,-0.0221459 C 7.1309149,0.25534419 7.244806,0.22337417 7.35294,0.17647042 7.4781308,0.12216815 7.597126,0.04742244 7.731665,0.02460281 7.7989345,0.013193 7.8696575,0.01561065 7.9332842,0.04024817 c 0.063627,0.02463751 0.1194574,0.07301257 0.145146,0.13622225 0.00778,0.0191526 0.012756,0.0393181 0.019608,0.0588235 0.019394,0.0552102 0.053375,0.10398082 0.078431,0.15686274 0.046808,0.0987911 0.061474,0.20988672 0.063869,0.31917968 0.0024,0.10929297 -0.00685,0.21857485 -0.00505,0.32787916 0.00227,0.13743 0.021996,0.2743368 0.019608,0.4117647 -0.00227,0.1309271 -0.024616,0.2613058 -0.019608,0.3921569 0.0058,0.1515818 0.048141,0.2996641 0.058823,0.4509803 0.00923,0.13072 -0.00518,0.2634776 0.019608,0.3921569 0.010197,0.052934 0.026904,0.1043808 0.039216,0.1568628 0.046464,0.1980528 0.029328,0.4046535 0.039216,0.6078431 0.010512,0.2160224 0.051775,0.4331862 0.019608,0.6470588 -0.016043,0.1066704 -0.050029,0.2096618 -0.078431,0.3137257 -0.040517,0.1484531 -0.069801,0.2997106 -0.098039,0.4509804 -0.067768,0.3630255 -0.1299157,0.7288155 -0.1372549,1.0980392 -0.00364,0.1831545 0.00624,0.3663177 0.019608,0.5490196 0.027322,0.3732738 0.068711,0.7539445 -0.019608,1.1176471 -0.012719,0.052379 -0.028084,0.1041234 -0.039216,0.1568627 C 8.0437283,7.855826 8.0364749,7.9288849 8.0196078,8 c -0.0373,0.1572648 -0.1200915,0.2995046 -0.1764705,0.4509804 -0.074278,0.1995653 -0.102107,0.4145497 -0.098039,0.627451 0.00313,0.1639346 0.02479,0.3268674 0.039216,0.4901961 0.034644,0.3922264 0.027794,0.7890335 0.098039,1.1764705 0.01419,0.07827 0.031524,0.156125 0.039216,0.235294 0.013281,0.136692 -0.00242,0.27445 0,0.411765 0.00277,0.157424 0.029332,0.31345 0.039216,0.470588 0.015595,0.247923 0,0.496685 0,0.745098 v 1.039216 c 0,0.183121 -0.020889,0.367093 0,0.549019 0.016833,0.146604 0.069282,0.286634 0.098039,0.431373 0.053632,0.269939 0.023784,0.548747 0.039216,0.823529 0.012513,0.222807 0.054891,0.443544 0.058823,0.666667 0.00265,0.150365 -0.012188,0.301086 0,0.45098 0.012821,0.157671 0.055414,0.312434 0.058824,0.470589 0.00127,0.05882 -0.00291,0.117709 0,0.17647 0.00553,0.111817 0.036592,0.221411 0.039216,0.333334 0.00123,0.05229 -0.00378,0.104694 0,0.156862 0.00334,0.04611 0.013492,0.09143 0.019608,0.137255 0.01991,0.149171 -0.00321,0.300521 0,0.450981 0.0045,0.210873 0.060573,0.417288 0.078431,0.627451 0.020485,0.241075 -0.00954,0.483734 0,0.72549 0.00724,0.183437 0.037077,0.369223 0,0.549019 -0.013487,0.0654 -0.03564,0.128717 -0.050789,0.193755 -0.01515,0.06504 -0.023174,0.133361 -0.00803,0.198402 0.0095,0.04083 0.027916,0.0794 0.034628,0.120777 0.00336,0.02069 0.00369,0.04212 -0.00156,0.06241 -0.00525,0.02029 -0.016389,0.03942 -0.03307,0.05211 -0.00374,0.0028 -0.00774,0.0054 -0.011308,0.0084 -0.00357,0.0031 -0.00676,0.0068 -0.0083,0.01119 -0.00173,0.005 -0.00125,0.01046 1.057e-4,0.01554 0.00136,0.0051 0.00355,0.0099 0.00529,0.01486 0.00174,0.005 0.00303,0.01022 0.00246,0.01545 -2.809e-4,0.0026 -0.00103,0.0052 -0.00235,0.0075 -0.00131,0.0023 -0.00321,0.0042 -0.00551,0.0055 -0.00294,0.0016 -0.0064,0.002 -0.00974,0.0018 -0.00334,-2.29e-4 -0.0066,-0.0011 -0.00987,-0.0018 -0.043566,-0.0097 -0.091133,-0.0017 -0.1281819,0.02323 -0.037049,0.0249 -0.0627,0.06662 -0.0666,0.111085 -0.00195,0.02223 0.00138,0.04494 0.00983,0.06559 0.00845,0.02066 0.022035,0.03922 0.0393,0.05336 0.017266,0.01414 0.038194,0.02382 0.06019,0.0276 0.021996,0.0038 0.045011,0.0016 0.065851,-0.0064 0.035632,-0.01366 0.06301,-0.04324 0.083433,-0.07548 0.020422,-0.03224 0.035108,-0.06774 0.053822,-0.100992 0.063929,-0.113605 0.1709959,-0.195277 0.2745098,-0.27451 0.1178733,-0.09023 0.235722,-0.182284 0.3333334,-0.294117 0.088555,-0.101457 0.1618488,-0.220341 0.2745098,-0.294118 0.027462,-0.01798 0.057518,-0.03352 0.078431,-0.05882 0.018708,-0.02263 0.028437,-0.05111 0.039216,-0.07843 0.056094,-0.142144 0.1485899,-0.266325 0.2352941,-0.392157 0.1501886,-0.217966 0.2856302,-0.445703 0.4313727,-0.666667 0.135927,-0.206083 0.282767,-0.40841 0.470588,-0.568627 0.128394,-0.109524 0.273535,-0.197303 0.411765,-0.294118 0.123306,-0.08636 0.241755,-0.180365 0.372549,-0.254902 0.307764,-0.17539 0.666346,-0.233966 1,-0.352941 0.241141,-0.08599 0.472539,-0.205644 0.666666,-0.372549 0.126207,-0.108509 0.235066,-0.235435 0.352941,-0.352941 0.08202,-0.08176 0.169166,-0.159823 0.235295,-0.254902 0.02407,-0.0346 0.04516,-0.07122 0.0695,-0.105628 0.02434,-0.03441 0.05235,-0.06697 0.08736,-0.09045 0.01764,-0.01183 0.03682,-0.02121 0.05451,-0.03296 0.01769,-0.01175 0.03424,-0.02637 0.04353,-0.04547 0.0065,-0.01346 0.0092,-0.02843 0.01388,-0.04263 0.0024,-0.0071 0.0053,-0.01406 0.0094,-0.02032 0.0041,-0.0063 0.0094,-0.0118 0.01595,-0.01549 0.0091,-0.0052 0.01982,-0.0064 0.03013,-0.0081 0.0052,-8.66e-4 0.01031,-0.0019 0.01524,-0.0037 0.0049,-0.0018 0.0096,-0.0043 0.01345,-0.0079 0.0054,-0.005 0.0087,-0.01188 0.01132,-0.01876 0.0026,-0.0069 0.0048,-0.014 0.0083,-0.02046 0.0047,-0.0085 0.01165,-0.01558 0.01955,-0.02122 0.0079,-0.0056 0.01668,-0.0099 0.02564,-0.01361 0.01792,-0.0074 0.03693,-0.01291 0.05285,-0.02399 0.02281,-0.01588 0.03698,-0.04163 0.05882,-0.05882 0.0189,-0.01487 0.04252,-0.02249 0.06612,-0.02719 0.02359,-0.0047 0.04767,-0.0068 0.07114,-0.01203 0.04872,-0.01096 0.09317,-0.03536 0.137255,-0.05882 0.02089,-0.01112 0.04222,-0.02235 0.05882,-0.03922 0.0065,-0.0066 0.01223,-0.01403 0.01961,-0.01961 0.01346,-0.01018 0.03174,-0.01321 0.04812,-0.0091 0.01638,0.0041 0.03074,0.01489 0.04032,0.02879 0.0096,0.0139 0.01451,0.03073 0.01531,0.04759 8.08e-4,0.01686 -0.0024,0.03377 -0.008,0.04969 -0.01123,0.03184 -0.03171,0.05941 -0.05098,0.08713 -0.01927,0.02772 -0.03797,0.05698 -0.04477,0.09005 -0.0082,0.04012 0.0019,0.08178 0.01622,0.120154 0.01433,0.03837 0.03294,0.07534 0.0426,0.11514 0.01399,0.05758 0.0086,0.118252 0.01961,0.176471 0.0089,0.04678 0.02812,0.09096 0.03922,0.137255 0.02753,0.114821 0.0037,0.235942 0.01961,0.352941 0.0058,0.04264 0.01685,0.0844 0.0234,0.126932 0.0065,0.04253 0.0085,0.08672 -0.0038,0.12797 -0.01132,0.03813 -0.03481,0.07254 -0.0662,0.09696 -0.03139,0.02442 -0.07053,0.03873 -0.110268,0.04029 -0.01393,5.47e-4 -0.02797,-4.22e-4 -0.04177,0.0015 -0.0069,9.8e-4 -0.01374,0.0027 -0.02007,0.0056 -0.0063,0.0029 -0.01216,0.0071 -0.01659,0.01245 -0.0047,0.0057 -0.0076,0.0125 -0.01036,0.01931 -0.0027,0.0068 -0.0053,0.01375 -0.0093,0.01991 -0.0061,0.0094 -0.01538,0.0166 -0.02597,0.02013 -0.01059,0.0035 -0.02238,0.0033 -0.03285,-5.25e-4 -0.0182,0.01504 -0.03794,0.0282 -0.05882,0.03922 -0.04423,0.02334 -0.09287,0.03674 -0.140397,0.05231 -0.04753,0.01556 -0.0952,0.03393 -0.134112,0.06534 -0.02879,0.02324 -0.05176,0.05279 -0.07843,0.07843 -0.06164,0.05925 -0.140913,0.09579 -0.215686,0.137255 -0.266677,0.147865 -0.487311,0.366542 -0.745098,0.529412 -0.03987,0.02519 -0.08072,0.04911 -0.117647,0.07843 -0.09069,0.07201 -0.153464,0.172959 -0.235294,0.254902 -0.09176,0.09189 -0.206589,0.158971 -0.294118,0.254902 -0.05997,0.06573 -0.105389,0.143111 -0.156863,0.215687 -0.126447,0.178284 -0.290036,0.328266 -0.411764,0.509804 -0.06278,0.09363 -0.114951,0.196242 -0.196079,0.274509 -0.08104,0.07818 -0.185693,0.126865 -0.27451,0.196079 -0.04827,0.03762 -0.09163,0.08112 -0.138335,0.120662 -0.04671,0.03954 -0.09774,0.07561 -0.155782,0.09502 -0.0168,0.0056 -0.03405,0.0098 -0.05084,0.01542 -0.01679,0.0056 -0.0333,0.01283 -0.0472,0.0238 -0.02182,0.0172 -0.03615,0.04275 -0.05882,0.05882 -0.01441,0.01021 -0.03142,0.01602 -0.04832,0.02115 -0.0169,0.0051 -0.03412,0.0098 -0.04972,0.01807 -0.02891,0.01536 -0.05028,0.0421 -0.07843,0.05882 -0.03031,0.018 -0.06658,0.0233 -0.09804,0.03922 -0.03532,0.01788 -0.06259,0.04805 -0.08878,0.07774 -0.02618,0.02969 -0.05292,0.0602 -0.08769,0.07912 -0.03095,0.01684 -0.06651,0.02348 -0.09804,0.03922 -0.02921,0.01458 -0.05415,0.0366 -0.07606,0.06081 -0.0219,0.02421 -0.04105,0.05076 -0.0612,0.07645 -0.1043313,0.133007 -0.2379686,0.244431 -0.3921571,0.313726 -0.035043,0.01575 -0.07238,0.03023 -0.098039,0.05882 -0.015759,0.01756 -0.025973,0.03929 -0.039216,0.05882 -0.02477,0.03653 -0.059724,0.0648 -0.094997,0.09133 -0.035273,0.02653 -0.071735,0.05218 -0.1010812,0.08514 -0.021739,0.02442 -0.039109,0.05235 -0.058823,0.07843 -0.033535,0.04437 -0.073865,0.08335 -0.1176471,0.117647 -0.077277,0.06053 -0.1658274,0.107115 -0.2352941,0.176471 -0.068939,0.06883 -0.1172885,0.158395 -0.1960784,0.215686 -0.04265,0.03101 -0.092223,0.05099 -0.1372549,0.07843 -0.043737,0.02665 -0.083033,0.06029 -0.1176471,0.09804 -0.044213,0.04822 -0.080699,0.102877 -0.117647,0.156863 -0.017482,0.02554 -0.03526,0.05117 -0.057474,0.07272 -0.022214,0.02155 -0.049397,0.03902 -0.079781,0.04492 -0.015464,0.003 -0.031539,0.003 -0.046565,0.0077 -0.00751,0.0024 -0.014741,0.006 -0.020562,0.01126 -0.00582,0.0053 -0.010162,0.01243 -0.011304,0.02022 -9.489e-4,0.0065 3.038e-4,0.01307 0,0.01961 -4.106e-4,0.0088 -0.00371,0.01742 -0.0088,0.02466 -0.00509,0.0072 -0.011915,0.01316 -0.019471,0.01775 -0.015114,0.0092 -0.032787,0.01308 -0.050162,0.01641 -0.058188,0.01115 -0.1172543,0.01771 -0.1764706,0.01961 z"
       id="path1"
       inkscape:path-effect="#path-effect1"
       inkscape:original-d="m 7.8823529,22.72549 c -0.1214736,-0.0162 -0.251728,0.02014 -0.372549,0 -0.056881,-0.0095 -0.2965135,-0.13415 -0.3529412,-0.17647 -0.014789,-0.01109 -0.023364,-0.0297 -0.039216,-0.03922 -0.041587,-0.02495 -0.09531,-0.03086 -0.1372549,-0.05882 -0.074945,-0.04996 -0.1648926,-0.09819 -0.2352942,-0.156862 -0.021303,-0.01775 -0.036259,-0.04271 -0.058823,-0.05882 -0.023785,-0.01699 -0.053645,-0.02372 -0.078431,-0.03922 -0.097961,-0.06123 -0.2776515,-0.232947 -0.3529411,-0.333333 -0.042005,-0.05601 -0.080854,-0.127336 -0.098039,-0.196078 -0.00808,-0.03233 -0.0047,-0.06823 -0.019608,-0.09804 -0.012401,-0.0248 -0.044127,-0.03531 -0.058823,-0.05882 -0.054507,-0.08721 -0.065776,-0.17449 -0.137256,-0.254905 C 5.7746661,21.067578 5.5429155,20.874748 5.3529412,20.705882 5.1290467,20.506865 4.9343537,20.269786 4.6862745,20.098039 4.5593394,20.010161 4.4150797,19.939907 4.2941176,19.843137 4.1070558,19.693488 3.9328259,19.522731 3.745098,19.372549 3.5973412,19.254344 3.4266397,19.169463 3.2745098,19.058824 3.2332259,19.028799 3.1981466,18.990809 3.1568627,18.960784 3.012053,18.855468 3.1053884,18.950277 2.9803922,18.843137 2.8535137,18.734384 2.7580946,18.593961 2.6470588,18.470588 2.5526404,18.365679 2.569267,18.402547 2.4509804,18.294118 2.1679896,18.034709 2.5027811,18.32631 2.2156863,18.039216 2.1173151,17.940845 2.0892862,17.941941 1.9803922,17.862745 1.9127002,17.813515 1.8528842,17.753882 1.7843137,17.705882 1.7218706,17.662172 1.6516555,17.630515 1.5882353,17.588235 1.3657164,17.439889 1.1572633,17.277411 0.98039216,17.078431 0.92869496,17.020272 0.8474926,16.967317 0.80392157,16.901961 c -0.001084,-0.0016 -0.0196078,-0.341228 -0.0196078,-0.392157 0,-0.0398 0.0215901,-0.452963 0.0392157,-0.470588 0.004622,-0.0046 0.0137619,0.0029 0.0196078,0 0.0784073,-0.0392 0.0386125,-0.05862 0.15686273,-0.09804 0.038899,-0.01297 0.3312636,-0.06674 0.372549,-0.03922 0.069708,0.04647 0.1276405,0.09808 0.2156863,0.117647 0.061682,0.01371 0.2179987,0.04453 0.2745098,0.07843 0.1886446,0.113187 0.2025381,0.354689 0.3137255,0.529412 0.012652,0.01988 0.041386,0.02336 0.058823,0.03922 0.088913,0.08083 0.1577227,0.184226 0.254902,0.254902 0.035459,0.02579 0.081728,0.03368 0.117647,0.05882 0.1221434,0.0855 0.1689962,0.218792 0.254902,0.333333 0.164445,0.21926 0.3279239,0.440929 0.5098039,0.647059 0.3152232,0.357253 0.8195561,0.599671 1.2352941,0.82353 0.1581217,0.08514 0.2629631,0.187831 0.4117647,0.294117 0.023785,0.01699 0.057012,0.01933 0.078431,0.03922 0.071201,0.06611 0.124183,0.150327 0.1960784,0.215686 0.2803759,0.254887 0.6404207,0.427728 0.882353,0.725491 0.043363,0.05337 0.127392,0.341034 0.1568627,0.411764 0.082795,0.198708 0.2335502,0.411096 0.3725491,0.568628 0.052072,0.05901 0.113508,0.10964 0.1764705,0.156862 0.042043,0.03153 0.1481775,-0.02395 0.1960785,0 0.00585,0.0029 -0.00408,0.0145 0,0.01961 0.023097,0.02887 0.052288,0.05229 0.078431,0.07843 0.06536,0.06536 0.1265161,0.135211 0.1960785,0.196078 0.087577,0.07663 0.1800721,0.147691 0.2745098,0.215686 0.083866,0.06038 0.2086858,0.08404 0.2549019,0.176471 0.00292,0.0058 -0.014986,0.0046 -0.019608,0 -0.00462,-0.0046 0.00585,-0.01668 0,-0.01961 -0.011692,-0.0058 -0.026144,0 -0.039216,0 -0.026144,-0.03268 -0.048839,-0.06845 -0.078431,-0.09804 -0.029593,-0.02959 -0.07048,-0.04694 -0.098039,-0.07843 -0.097016,-0.110876 -0.157195,-0.382045 -0.1960784,-0.509804 -0.024071,-0.07909 -0.06157,-0.154358 -0.078431,-0.235295 -0.016052,-0.07705 -0.00985,-0.157198 -0.019608,-0.235294 -0.026018,-0.208146 -0.063559,-0.42057 -0.098039,-0.627451 -0.028201,-0.169204 -0.076764,-0.339601 -0.098039,-0.509804 -0.025087,-0.200699 0.042448,0.07283 -0.019608,-0.196078 -0.021399,-0.09273 -0.061408,-0.18088 -0.078431,-0.27451 -0.00468,-0.02572 0.0043,-0.05264 0,-0.07843 -0.0024,-0.01442 -0.017795,-0.02471 -0.019608,-0.03922 -0.037252,-0.298013 0.089531,-0.576402 0.1372549,-0.862745 0.044084,-0.128345 0.00172,-0.262502 0.019608,-0.392157 0.01734,-0.125715 0.056123,-0.24762 0.078431,-0.372549 0.057621,-0.322676 0.074347,-0.674004 0.058823,-1 -0.00625,-0.131222 -0.028599,-0.261215 -0.039216,-0.392157 -0.051691,-0.637522 -0.01294,-0.348714 -0.078431,-0.823529 -0.033016,-0.239366 -0.048953,-0.292529 -0.058824,-0.529412 -0.012185,-0.292444 0.024298,-0.590775 0,-0.882353 -0.018617,-0.22341 -0.068621,-0.441041 -0.078431,-0.666666 -0.00962,-0.221162 0,-0.445271 0,-0.666667 0,-0.726982 0.00916,-1.45077 -0.039216,-2.176471 C 7.0126188,9.8167333 7.0329091,9.4186447 7.0196078,9.0196078 7.0045282,8.5672189 6.9426292,8.1205441 6.9607843,7.6666667 6.9724895,7.3740366 7.0065523,7.3484096 7.0392157,7 c 0.02248,-0.2397823 -0.00634,-0.4866892 -0.019608,-0.7254902 -0.00653,-0.1174659 0.00783,-0.2355547 0,-0.3529412 -0.010504,-0.1575562 -0.073302,-0.3113297 -0.058823,-0.4705882 0.01401,-0.1541104 0.077672,-0.284798 0.1176471,-0.4313726 0.022001,-0.080669 -0.00274,-0.1878535 0.019608,-0.2549019 0.012307,-0.036921 0.064188,-0.055307 0.078431,-0.098039 0.017067,-0.051201 -0.00893,-0.1229152 0,-0.1764706 0.012038,-0.072229 0.050626,-0.1419063 0.058823,-0.2156863 0.00361,-0.03248 -0.00296,-0.065494 0,-0.098039 0.0072,-0.079187 0.033927,-0.155957 0.039216,-0.2352941 0.00696,-0.1043436 -0.00802,-0.2094584 0,-0.3137255 C 7.2982734,3.3185242 7.3721776,2.9774207 7.3333333,2.6666667 7.3241045,2.592836 7.2889414,2.5231382 7.2745098,2.4509804 7.2607277,2.3820698 7.2718859,2.3032297 7.254902,2.2352941 7.2066497,2.0422852 7.1699772,1.8432967 7.1176471,1.6470588 7.0685363,1.4628935 7.0055684,1.3052544 6.9215686,1.1372549 c -0.040801,-0.081603 0.00135,0.020961 -0.039216,-0.019608 -0.00874,-0.00874 -0.018979,-0.30932294 -0.019608,-0.31372553 -0.00673,-0.0471042 -0.034908,-0.0898679 -0.039216,-0.1372549 -0.00336,-0.0369195 0.050742,-0.15222712 0.058823,-0.17647059 0.00272,-0.008149 0.027886,-0.12214834 0.039216,-0.1372549 0.022867,-0.0304886 0.06828,-0.0350159 0.098039,-0.0588235 0.1248805,-0.0999043 0.1429456,-0.10971424 0.3333334,-0.11764706 0.081896,-0.003412 0.6459803,-0.0216845 0.7254902,0 0.01994,0.005438 0.00897,0.0411004 0.019608,0.0588235 0.1152161,0.19202673 -0.071213,-0.25465851 0.078431,0.15686274 0.075261,0.20696928 0.045191,0.42893509 0.058824,0.64705884 0.00821,0.1313532 0.034491,0.2778134 0.019608,0.4117647 -0.014542,0.1308825 -0.028577,0.2576158 -0.019608,0.3921569 0.010067,0.1510051 0.048058,0.3002579 0.058823,0.4509803 0.00919,0.1285908 0.0026,0.2645925 0.019608,0.3921569 0.00712,0.053424 0.032794,0.1033499 0.039216,0.1568628 0.024104,0.2008667 0.02579,0.4064628 0.039216,0.6078431 0.014033,0.2104884 0.044483,0.4356183 0.019608,0.6470588 C 8.39917,4.2050945 8.3555399,4.3062833 8.3333333,4.4117647 8.3016411,4.5623028 8.26667,4.7121408 8.2352941,4.8627451 8.1607759,5.2204324 8.1162891,5.5957859 8.0980392,5.9607843 c -0.00898,0.1796087 0.012564,0.3729291 0.019608,0.5490196 0.01495,0.3737413 0.042506,0.744962 -0.019608,1.1176471 -0.00886,0.053164 -0.028112,0.104122 -0.039216,0.1568627 C 8.0437695,7.8558204 8.0421015,7.930474 8.0196078,8 7.9699176,8.1535879 7.8915371,8.296981 7.8431373,8.4509804 c -0.040333,0.1283314 -0.088945,0.4819432 -0.098039,0.627451 -0.01037,0.1659183 0.02559,0.3266826 0.039216,0.4901961 0.032526,0.3903153 0.047222,0.7868695 0.098039,1.1764705 0.010284,0.07884 0.032612,0.156056 0.039216,0.235294 0.00572,0.06863 -0.00429,0.325981 0,0.411765 0.025382,0.507643 0.016362,-0.100749 0.039216,0.470588 0.00989,0.24731 0,0.497586 0,0.745098 0,0.346405 0,0.692811 0,1.039216 0,0.183006 -0.013039,0.366478 0,0.549019 0.010735,0.150287 0.078955,0.285064 0.098039,0.431373 0.035569,0.272692 0.014341,0.54991 0.039216,0.823529 0.020197,0.22217 0.049133,0.443792 0.058823,0.666667 0.00653,0.150185 -0.00653,0.300796 0,0.45098 0.02173,0.499782 0.011197,-0.02949 0.058824,0.470589 0.00558,0.05856 -0.00326,0.117737 0,0.17647 0.03208,0.577435 0.00634,-0.192619 0.039216,0.333334 0.00326,0.05219 -0.00348,0.104691 0,0.156862 0.00307,0.04611 0.016725,0.09113 0.019608,0.137255 0.00934,0.149412 -0.012432,0.301793 0,0.450981 0.017411,0.208927 0.063495,0.418342 0.078431,0.627451 0.017052,0.238734 0,0.486465 0,0.72549 0,0.181828 0.016421,0.368386 0,0.549019 -0.012203,0.134234 -0.058824,0.255711 -0.058824,0.392157 0,0.06712 0.016597,0.168905 0,0.235294 -0.00224,0.009 -0.015474,0.01134 -0.019608,0.01961 -0.00592,0.01184 0.00906,0.04976 0,0.05882 -0.00462,0.0046 -0.014986,-0.0046 -0.019608,0 -0.00688,0.0069 -0.02221,0.271908 -0.019608,0.27451 0.052694,0.05269 0.090262,-0.118634 0.1372549,-0.176471 0.081602,-0.100433 0.1794225,-0.186737 0.2745098,-0.27451 0.1080324,-0.09972 0.2296385,-0.190423 0.3333334,-0.294117 0.094493,-0.09449 0.1800162,-0.199625 0.2745098,-0.294118 0.023108,-0.02311 0.057164,-0.03401 0.078431,-0.05882 0.019022,-0.02219 0.024177,-0.05337 0.039216,-0.07843 0.2557806,-0.401941 0.030804,-0.03895 0.2352941,-0.392157 0.132283,-0.228489 0.2728424,-0.455293 0.4313727,-0.666667 0.145031,-0.193374 0.279778,-0.415979 0.470588,-0.568627 0.131711,-0.105369 0.275746,-0.194371 0.411765,-0.294118 0.134456,-0.0986 0.21708,-0.186313 0.372549,-0.254902 0.324985,-0.143376 0.668572,-0.228655 1,-0.352941 0.199947,-0.07498 0.488238,-0.262093 0.666666,-0.372549 0.157328,-0.09739 0.23901,-0.213691 0.352941,-0.352941 0.07263,-0.08876 0.159017,-0.169089 0.235295,-0.254902 0.05561,-0.06256 0.09768,-0.136893 0.156862,-0.196078 0.02959,-0.02959 0.07048,-0.04694 0.09804,-0.07843 0.01925,-0.022 0.01855,-0.05776 0.03922,-0.07843 0.01461,-0.01461 0.04229,-0.0072 0.05882,-0.01961 0.01169,-0.0088 0.01084,-0.02752 0.01961,-0.03922 0.06106,-0.08142 0.01359,-0.0025 0.09804,-0.05882 0.02307,-0.01538 0.03402,-0.04642 0.05882,-0.05882 0.04256,-0.02128 0.09244,-0.02321 0.137255,-0.03922 0.04688,-0.01674 0.09273,-0.03656 0.137255,-0.05882 0.02108,-0.01054 0.03997,-0.02508 0.05882,-0.03922 0.0074,-0.0055 0.01036,-0.01961 0.01961,-0.01961 0.0039,0 -0.0044,0.263491 0,0.294117 0.01143,0.08003 0.04653,0.155389 0.05882,0.235294 0.03694,0.240122 -0.05222,-0.110836 0.01961,0.176471 0.01154,0.04616 0.03139,0.09032 0.03922,0.137255 0.01917,0.115051 0.0032,0.237805 0.01961,0.352941 0.0098,0.06849 0.04392,0.181975 0.01961,0.254902 -0.02222,0.06667 -0.116683,0.111632 -0.17647,0.137255 -0.02477,0.01061 -0.05532,0.0057 -0.07843,0.01961 -0.01253,0.0075 -0.0079,0.03045 -0.01961,0.03922 -0.01653,0.0124 -0.03963,0.01193 -0.05882,0.01961 -0.03347,-0.0069 -0.03775,0.02868 -0.05882,0.03922 -0.08815,0.04407 -0.192991,0.05651 -0.274509,0.117647 -0.02958,0.02218 -0.05061,0.05409 -0.07843,0.07843 -0.07992,0.06993 -0.115634,0.07569 -0.215686,0.137255 -0.262938,0.161808 -0.494983,0.348774 -0.745098,0.529412 -0.03821,0.0276 -0.08262,0.0469 -0.117647,0.07843 -0.07953,0.07158 -0.156677,0.181901 -0.235294,0.254902 -0.22237,0.206487 -0.142303,0.08622 -0.294118,0.254902 -0.108145,0.120162 -0.05491,0.07975 -0.156863,0.215687 -0.130674,0.174232 -0.275682,0.3397 -0.411764,0.509804 -0.07025,0.08781 -0.123443,0.188668 -0.196079,0.274509 -0.0656,0.07753 -0.19465,0.137999 -0.27451,0.196079 -0.157013,0.114191 -0.07009,0.08127 -0.294117,0.215686 -0.03018,0.01811 -0.06819,0.02056 -0.09804,0.03922 -0.02351,0.0147 -0.03531,0.04413 -0.05882,0.05882 -0.02985,0.01865 -0.06727,0.02212 -0.09804,0.03922 -0.02857,0.01587 -0.04986,0.04295 -0.07843,0.05882 -0.03077,0.01709 -0.0694,0.01876 -0.09804,0.03922 -0.06404,0.04575 -0.112427,0.111118 -0.17647,0.156863 -0.02864,0.02046 -0.06727,0.02212 -0.09804,0.03922 -0.117647,0.06536 -0.04575,0.04575 -0.137254,0.137254 -0.113877,0.113877 -0.2611134,0.218421 -0.3921571,0.313726 -0.030822,0.02242 -0.069103,0.03402 -0.098039,0.05882 -0.017893,0.01534 -0.024129,0.04072 -0.039216,0.05882 -0.055475,0.06657 -0.1255662,0.129462 -0.1960785,0.176471 -0.031173,0.02078 -0.037775,0.05037 -0.058823,0.07843 -0.033276,0.04437 -0.076611,0.08034 -0.1176471,0.117647 -0.3351109,0.304646 0.021251,-0.01594 -0.2352941,0.176471 -0.077731,0.0583 -0.1273732,0.146981 -0.1960784,0.215686 -0.1657693,0.165769 -0.00265,-0.01131 -0.1372549,0.07843 -4.899e-4,3.27e-4 -0.105702,0.08609 -0.1176471,0.09804 -0.042911,0.04291 -0.074736,0.113952 -0.117647,0.156863 -0.034795,0.03479 -0.096622,0.08717 -0.1372549,0.117647 -0.023384,0.01754 -0.057763,0.01855 -0.078431,0.03922 -0.00462,0.0046 0.00292,0.01376 0,0.01961 -0.00281,0.0056 -0.074254,0.05743 -0.078431,0.05882 -0.034253,0.01142 -0.1655533,0.01779 -0.1764706,0.01961 z"
       transform="matrix(0.9801,0,0,0.9801,0.09334063,0.36372798)" />
  </g>
  <metadata
     id="metadata1">
    <rdf:RDF>
      <cc:Work
         rdf:about="">
        <dc:title>ion-ios-arrow-thin-down - Ionicons</dc:title>
      </cc:Work>
    </rdf:RDF>
  </metadata>
</svg>
