<?xml version="1.0" encoding="UTF-8" standalone="no"?>
<svg
   width="8px"
   height="5px"
   viewBox="0 0 8 5"
   version="1.1"
   id="svg1"
   xmlns="http://www.w3.org/2000/svg"
   xmlns:svg="http://www.w3.org/2000/svg"
   xmlns:rdf="http://www.w3.org/1999/02/22-rdf-syntax-ns#"
   xmlns:cc="http://creativecommons.org/ns#"
   xmlns:dc="http://purl.org/dc/elements/1.1/">
  <!-- Generator: Sketch 49 (51002) - http://www.bohemiancoding.com/sketch -->
  <title
     id="title1">Icon/arrow/down</title>
  <desc
     id="desc1">Created with Sketch.</desc>
  <defs
     id="defs1" />
  <metadata
     id="metadata1">
    <rdf:RDF>
      <cc:Work
         rdf:about="">
        <dc:title>Icon/arrow/down</dc:title>
      </cc:Work>
    </rdf:RDF>
  </metadata>
  <g
     id="layer4"
     style="display:inline">
    <path
       style="opacity:1;fill:#4d5060;fill-opacity:1;stroke:#4d5060;stroke-width:0.395;stroke-opacity:1"
       d="m 0.04822553,0.95245415 c 0.0088117,0.008007 0.02150884,0.011523 0.03318417,0.009188 0.01167533,-0.002335 0.0220436,-0.0104637 0.02709773,-0.0212443 0.001929,-0.004115 0.003108,-0.008537 0.004746,-0.0127771 0.001638,-0.00424 0.003827,-0.008416 0.007311,-0.0113357 0.003471,-0.00291 0.007914,-0.004327 0.0122064,-0.005774 0.004292,-0.001447 0.008703,-0.00308 0.0119064,-0.006282 0.003203,-0.003202 0.004839,-0.007612 0.006286,-0.0119044 0.001447,-0.004292 0.002863,-0.008735 0.005771,-0.0122084 0.002918,-0.003486 0.007091,-0.005681 0.0113302,-0.007321 0.00424,-0.00164 0.008662,-0.002817 0.0127826,-0.004735 0.009541,-0.004442 0.0168994,-0.0126135 0.0224975,-0.0215257 0.005598,-0.008912 0.00967,-0.0186789 0.0144344,-0.0280631 0.004765,-0.009384 0.010377,-0.0185765 0.0183669,-0.0254268 0.003995,-0.003425 0.008563,-0.006224 0.0135387,-0.007936 0.004976,-0.001712 0.0103678,-0.002316 0.0155572,-0.001443 0.004159,6.9975e-4 0.008126,0.002323 0.0122964,0.002952 0.002085,3.1451e-4 0.004229,3.7489e-4 0.006293,-5.915e-5 0.002064,-4.3404e-4 0.004049,-0.001385 0.005524,-0.002893 0.001468,-0.001502 0.002373,-0.003496 0.002772,-0.005558 3.9839e-4,-0.002062 3.1274e-4,-0.004194 -9.72e-6,-0.006269 -6.4493e-4,-0.00415 -0.002221,-0.00812 -0.002762,-0.0122856 -5.7864e-4,-0.004454 5.691e-5,-0.009029 0.001593,-0.0132495 0.001537,-0.00422 0.003957,-0.008091 0.00689,-0.0114922 0.005866,-0.006802 0.0136532,-0.0116555 0.0216116,-0.0158197 0.007958,-0.004164 0.0162375,-0.007761 0.0238057,-0.0125986 0.007568,-0.004837 0.0145171,-0.0110969 0.0184374,-0.0191784 0.002789,-0.00575 0.00392,-0.012134 0.005285,-0.0183773 0.001365,-0.006243 0.003063,-0.0125872 0.006771,-0.0177918 0.004239,-0.005949 0.0107194,-0.009873 0.0172246,-0.0131962 0.006505,-0.003323 0.0133077,-0.00627 0.0189445,-0.0109166 0.006561,-0.005408 0.0112025,-0.0128941 0.0141282,-0.0208772 0.002926,-0.007983 0.004217,-0.016478 0.00487,-0.0249553 0.001306,-0.0169546 1.6809e-4,-0.034349 0.005114,-0.0506185 0.004005,-0.0131725 0.0118662,-0.0249505 0.0214098,-0.0348737 0.009544,-0.009923 0.0207538,-0.0180974 0.0323138,-0.0255751 0.0231201,-0.0149555 0.0483136,-0.0276877 0.0668402,-0.0480586 0.0190001,-0.0208915 0.0293935,-0.0481496 0.0369491,-0.0753594 0.007556,-0.0272098 0.0127416,-0.0551956 0.0233328,-0.0813736 0.0102077,-0.02523 0.0255789,-0.0486556 0.0463208,-0.0662774 0.0207418,-0.0176217 0.0470447,-0.0291762 0.0742431,-0.0301737 0.008033,-2.9461e-4 0.0160801,3.1322e-4 0.0241128,0 0.018389,-7.1706e-4 0.0364169,-0.006298 0.0526691,-0.0149314 0.0162522,-0.008633 0.0307879,-0.0202624 0.0437819,-0.0332941 0.026176,-0.02625188 0.0461937,-0.0581115 0.0723383,-0.08439468 0.00868,-0.0087259 0.0180624,-0.01684559 0.0285974,-0.02320905 0.0105351,-0.00636345 0.0222828,-0.01094127 0.0345211,-0.0122467263 0.0122384,-0.001305459 0.024985,7.922663e-4 0.0356458,0.006942746 0.010661,0.00615047 0.019047,0.01651695 0.021799,0.02851303 0.00271,0.0117909 -6.2e-6,0.0240719 0,0.03616915 1.33e-5,0.02568153 0.012186,0.04959455 0.024113,0.07233829 0.022929,0.0437224 0.046903,0.0884434 0.084395,0.12056382 0.024248,0.0207736 0.053071,0.035308 0.080937,0.0508968 0.027866,0.0155889 0.055592,0.0328864 0.075796,0.0576106 0.018861,0.0230805 0.030083,0.0512905 0.041337,0.0788909 0.011254,0.0276004 0.023172,0.0556386 0.043058,0.0778421 0.016159,0.0180422 0.036875,0.0313954 0.058192,0.0428945 0.021317,0.011499 0.043511,0.0213796 0.064331,0.0337562 0.02082,0.0123766 0.040492,0.0275419 0.054277,0.0474571 0.00689,0.009958 0.012238,0.0210435 0.015184,0.0327901 0.00295,0.0117466 0.00345,0.0241622 9.182e-4,0.0360042 -4.309e-4,0.002013 -9.498e-4,0.004017 -0.0011,0.00607 -1.504e-4,0.002053 9.25e-5,0.004191 0.0011,0.005986 0.00108,0.001926 0.00299,0.003317 0.00509,0.004013 0.0021,6.9607e-4 0.00437,7.3695e-4 0.00655,3.8528e-4 0.00436,-7.0334e-4 0.00832,-0.002901 0.012475,-0.004399 0.012355,-0.004452 0.02644,-0.002502 0.038167,0.003408 0.011727,0.00591 0.02129,0.0154742 0.029032,0.0260814 0.015485,0.0212146 0.024365,0.046892 0.041308,0.0669614 0.011467,0.0135832 0.026264,0.0240907 0.042135,0.032098 0.015871,0.008007 0.032845,0.0136066 0.049959,0.0184144 0.034228,0.009616 0.069851,0.0163995 0.1008084,0.0338823 0.016579,0.009363 0.031351,0.0215505 0.046674,0.0328519 0.015323,0.0113013 0.031558,0.0219011 0.049777,0.02743 0.012214,0.003706 0.025411,0.005189 0.036169,0.0120564 0.00854,0.005451 0.014763,0.0138443 0.020049,0.0224869 0.00529,0.00864 0.00987,0.017767 0.01612,0.025739 0.00973,0.012402 0.023016,0.021428 0.036098,0.030217 0.013083,0.00879 0.026404,0.017749 0.03624,0.030065 0.00844,0.010564 0.013928,0.023133 0.018997,0.035666 0.00507,0.012533 0.00987,0.025296 0.017172,0.036672 0.00946,0.014736 0.022737,0.02654 0.034607,0.039416 0.01187,0.012877 0.022771,0.027708 0.025675,0.044979 0.00267,0.015885 -0.0017,0.032208 0,0.048226 0.00115,0.01082 0.00504,0.021169 0.00967,0.031016 0.00463,0.00985 0.010023,0.019326 0.014447,0.029266 0.021855,0.049109 0.018676,0.1059067 0.036169,0.156733 0.00705,0.020471 0.017364,0.039712 0.024113,0.060282 0.00718,0.021871 0.01019,0.044843 0.014436,0.067466 0.00425,0.022623 0.00991,0.045405 0.021733,0.065154 0.01033,0.017253 0.024968,0.031526 0.036169,0.048226 0.016116,0.024028 0.02459,0.05221 0.033733,0.07966 0.00914,0.02745 0.019559,0.055294 0.038605,0.077073 0.023035,0.026341 0.056171,0.041074 0.087559,0.056542 0.015694,0.00773 0.031271,0.015878 0.045437,0.026147 0.014166,0.010268 0.02695,0.022778 0.035793,0.037875 0.00454,0.00776 0.00799,0.016094 0.012056,0.024113 0.014584,0.028794 0.037263,0.053434 0.064752,0.07035 0.027489,0.016916 0.059705,0.026058 0.091981,0.026101 0.04498,0.045394 0.098412,0.082385 0.156733,0.1085074 0.019754,0.00885 0.040038,0.016452 0.060282,0.024113 0.056698,0.021456 0.1134657,0.043532 0.1660063,0.073773 0.052541,0.030241 0.1010659,0.06917 0.1354032,0.1191295 0.011411,0.016602 0.021381,0.034546 0.036169,0.048226 0.014768,0.013662 0.033604,0.022352 0.048226,0.036169 0.015125,0.014293 0.024903,0.033265 0.033258,0.052324 0.00836,0.019059 0.015659,0.038751 0.027024,0.056183 0.016606,0.025472 0.041073,0.044838 0.066707,0.061191 0.025635,0.016354 0.052859,0.03017 0.07797,0.047316 0.047135,0.032185 0.085728,0.075353 0.1205638,0.1205639 0.030757,0.039917 0.059217,0.082043 0.095759,0.1167425 0.036541,0.0347 0.082966,0.061973 0.1333125,0.064103 0.0049,2.075e-4 0.00992,1.947e-4 0.014547,0.00184 0.00231,8.202e-4 0.0045,0.00206 0.00623,0.0038 0.00173,0.00174 0.00299,0.00399 0.00333,0.00642 2.824e-4,0.002 -5.32e-5,0.00404 -2.914e-4,0.00605 -2.382e-4,0.00201 -3.71e-4,0.0041 2.914e-4,0.00601 4.383e-4,0.00127 0.00122,0.00241 0.00222,0.00329 0.001,8.867e-4 0.00223,0.00152 0.00352,0.00185 0.00259,6.626e-4 0.00544,8.52e-5 0.00768,-0.00138 0.00224,-0.00146 0.00389,-0.00376 0.00474,-0.0063 8.501e-4,-0.00254 9.319e-4,-0.0053 4.329e-4,-0.00794 -9.981e-4,-0.00526 -0.00421,-0.00984 -0.00778,-0.013825 -0.00358,-0.00399 -0.00762,-0.00757 -0.010814,-0.01187 -0.00611,-0.00821 -0.00882,-0.01871 -0.00827,-0.028929 5.457e-4,-0.010219 0.00421,-0.02014 0.00973,-0.028759 0.011035,-0.017238 0.028821,-0.028922 0.046768,-0.038762 0.056349,-0.030896 0.1190659,-0.048628 0.1759979,-0.078436 0.028466,-0.014904 0.055571,-0.03295 0.077962,-0.055995 0.022391,-0.023045 0.039952,-0.051338 0.047449,-0.082583 0.00757,-0.031543 0.00474,-0.064849 0.012056,-0.096451 0.00634,-0.027379 0.020076,-0.052503 0.035715,-0.075852 0.015639,-0.023349 0.03331,-0.045297 0.04868,-0.068825 0.053194,-0.081423 0.07685,-0.1783587 0.1205638,-0.2652404 0.020794,-0.041328 0.046996,-0.081274 0.084395,-0.1085075 0.018953,-0.013801 0.040265,-0.023962 0.060282,-0.036169 0.056067,-0.034193 0.1008809,-0.083686 0.1446766,-0.1326202 0.032182,-0.035958 0.064439,-0.072162 0.1017413,-0.1027754 0.037303,-0.030614 0.080198,-0.055659 0.1273299,-0.066014 0.05582,-0.012264 0.1137594,-0.00339 0.1707359,0.00108 0.028488,0.00224 0.0572,0.00335 0.085594,1.367e-4 0.028394,-0.00321 0.056584,-0.010899 0.081249,-0.02533 0.04187,-0.024498 0.070532,-0.066266 0.1085075,-0.096451 0.027087,-0.02153 0.058765,-0.037036 0.084395,-0.060282 0.023282,-0.021117 0.04066,-0.047782 0.060282,-0.072338 0.054794,-0.068572 0.1270093,-0.1206045 0.1933741,-0.1780523 0.066365,-0.057448 0.1294736,-0.1241638 0.156261,-0.2077519 0.00664,-0.020718 0.011211,-0.042765 0.024113,-0.060282 0.013514,-0.018348 0.03484,-0.029784 0.048226,-0.048226 0.012772,-0.017596 0.017059,-0.039715 0.024113,-0.060282 0.01325,-0.0386293 0.036832,-0.072802 0.061581,-0.10528706 0.024749,-0.0324851 0.051084,-0.0640401 0.071039,-0.0996714 0.02374,-0.0423891 0.037864,-0.0895176 0.060282,-0.1326202 0.044922,-0.0863702 0.1204159,-0.152026 0.1929021,-0.21701487 0.036205,-0.0324603 0.072716,-0.0660678 0.096451,-0.10850744 0.011477,-0.0205216 0.020032,-0.0431806 0.036169,-0.0602819 0.013903,-0.0147338 0.032344,-0.02416 0.049988,-0.0341139 0.017644,-0.009954 0.035413,-0.0212456 0.046463,-0.0382244 0.00982,-0.0150932 0.013589,-0.033613 0.024113,-0.0482255 0.011882,-0.0164974 0.030867,-0.0260668 0.048952,-0.0353551 0.00904,-0.004644 0.018076,-0.00939 0.026352,-0.0152936 0.00828,-0.005903 0.015818,-0.0130331 0.021147,-0.02168961 0.00471,-0.0076567 0.00759,-0.01631019 0.012056,-0.02411276 0.00589,-0.01029092 0.01451,-0.01892634 0.024487,-0.025337 0.00998,-0.0064107 0.021287,-0.01063176 0.032926,-0.01290503 0.023278,-0.0045465 0.047457,-0.0013485 0.07038,0.0047374 0.022923,0.0060859 0.044986,0.0150039 0.067599,0.02215854 0.022613,0.0071546 0.046163,0.01258102 0.069849,0.01134607 0.029406,-0.0015332 0.057269,-0.01319034 0.086222,-0.01855462 0.014476,-0.0026821 0.029416,-0.0037771 0.043913,-0.0012061 0.014497,0.002571 0.028579,0.0090253 0.038654,0.0197607 0.00853,0.0090893 0.013859,0.0208683 0.016509,0.03304889 0.00265,0.01218059 0.00274,0.02479272 0.00176,0.03721969 -0.00196,0.0248539 -0.00812,0.0495503 -0.00621,0.074408 0.00261,0.0339701 0.020123,0.0651314 0.041237,0.0918707 0.021114,0.0267393 0.0461,0.0502251 0.067271,0.0769186 0.036811,0.0464128 0.061423,0.10166007 0.099266,0.14723477 0.018922,0.0227873 0.041326,0.04315 0.067758,0.0565146 0.026433,0.0133646 0.057174,0.019359 0.086159,0.0132655 0.00403,-8.4804e-4 0.00804,-0.001926 0.012149,-0.00225 0.00411,-3.244e-4 0.00841,1.614e-4 0.011964,0.00225 0.00398,0.002342 0.00664,0.006465 0.00831,0.0107728 0.00167,0.004308 0.0025,0.008889 0.00375,0.01334 0.00511,0.0182903 0.017163,0.0340642 0.031598,0.0464028 0.014436,0.0123386 0.03124,0.0215535 0.04815,0.0301953 0.01691,0.008642 0.034127,0.0168418 0.049864,0.0274717 0.015736,0.0106299 0.030096,0.0239288 0.039177,0.0406067 0.0057,0.0104704 0.00918,0.0219886 0.01413,0.0328358 0.00495,0.0108472 0.011759,0.021408 0.022039,0.0274461 0.00549,0.003227 0.011707,0.005 0.017886,0.006557 0.00618,0.001557 0.012446,0.002944 0.018283,0.0055 0.00904,0.003958 0.016891,0.0108124 0.021488,0.0195442 0.0046,0.008732 0.00578,0.0193298 0.00263,0.0286813 -0.00287,0.008531 -0.00905,0.015629 -0.012056,0.0241128 -0.00204,0.005746 -0.00255,0.0119422 -0.00228,0.0180327 2.719e-4,0.006091 0.0013,0.0121178 0.00228,0.0181364 0.00648,0.0401541 0.010346,0.0812295 0.00429,0.12144966 -0.00606,0.04022 -0.022809,0.079833 -0.052511,0.1076216 -0.00832,0.00779 -0.01768,0.014706 -0.024113,0.024113 -0.0051,0.00745 -0.00809,0.016098 -0.011309,0.024535 -0.00321,0.00844 -0.0068,0.016946 -0.012804,0.023691 -0.00604,0.00679 -0.014184,0.011383 -0.022582,0.014858 -0.0084,0.00348 -0.017177,0.00595 -0.025644,0.00925 -0.028209,0.011014 -0.051998,0.030839 -0.074393,0.051224 -0.022395,0.020385 -0.044218,0.041869 -0.070284,0.057284 -0.034106,0.020169 -0.073869,0.028986 -0.1085075,0.048226 -0.030246,0.0168 -0.055655,0.041019 -0.084395,0.060282 C 7.4480383,1.5090605 7.4030931,1.52597 7.36645,1.5552752 7.3397977,1.5765903 7.3184828,1.6037231 7.294112,1.6276132 7.2181897,1.702038 7.1142646,1.7435406 7.0409269,1.8205136 6.9975763,1.866013 6.9664264,1.9224394 6.920363,1.9651902 6.8908847,1.9925487 6.8561569,2.0134923 6.823912,2.0375282 6.6750228,2.1485126 6.585343,2.3195273 6.4983897,2.4836146 6.4470269,2.58054 6.3949277,2.6770779 6.3416567,2.7729678 6.2570309,2.9252978 6.1685784,3.0772049 6.0523036,3.2069975 5.9401954,3.3321392 5.8048708,3.4337918 5.6785557,3.5445762 5.618573,3.5971839 5.5604444,3.6520154 5.49771,3.7013092 5.3870197,3.7882846 5.2623753,3.8577294 5.1601313,3.9544932 5.1038829,4.0077267 5.0550426,4.068777 5.0154547,4.1353389 c -0.033015,0.01748 -0.062071,0.042386 -0.084395,0.072338 -0.026016,0.034906 -0.042938,0.0764 -0.072338,0.1085074 -0.021524,0.023506 -0.048791,0.04091 -0.076289,0.057024 -0.027498,0.016114 -0.055744,0.03134 -0.080444,0.051483 -0.026444,0.021566 -0.048176,0.048242 -0.072338,0.072338 -0.053051,0.052907 -0.1173079,0.092915 -0.1808457,0.1326202 -0.017089,0.010679 -0.034372,0.021534 -0.048225,0.036169 -0.00516,0.00546 -0.00984,0.011423 -0.015634,0.016201 -0.0029,0.00239 -0.00608,0.00447 -0.00954,0.00591 -0.00347,0.00144 -0.00724,0.00222 -0.010991,0.002 -0.00203,-1.2e-4 -0.00403,-5.308e-4 -0.00606,-7.056e-4 -0.00203,-1.748e-4 -0.00413,-1.002e-4 -0.006,7.056e-4 -0.00209,9.04e-4 -0.00375,0.0027 -0.00468,0.00478 -9.356e-4,0.00208 -0.00119,0.00443 -9.389e-4,0.0067 4.964e-4,0.00454 0.00288,0.00862 0.00524,0.012522 0.00236,0.0039 0.00481,0.00793 0.00545,0.01245 3.219e-4,0.00226 1.669e-4,0.00461 -6.66e-4,0.00674 -8.329e-4,0.00212 -0.00238,0.004 -0.00441,0.00504 -0.00183,9.335e-4 -0.00395,0.00116 -0.00599,0.00102 -0.00205,-1.382e-4 -0.00405,-6.168e-4 -0.00606,-0.00102 -0.011408,-0.00227 -0.023471,-0.00199 -0.034412,0.00196 -0.010941,0.00395 -0.020661,0.011755 -0.02587,0.022155 -0.00341,0.00681 -0.00483,0.01446 -0.00793,0.02142 -0.00155,0.00348 -0.00355,0.00681 -0.00625,0.00949 -0.00271,0.00268 -0.00617,0.00469 -0.00993,0.00526 -0.00404,6.059e-4 -0.00812,-4.56e-4 -0.012153,-0.00113 -0.00202,-3.392e-4 -0.00406,-5.841e-4 -0.0061,-4.752e-4 -0.00204,1.089e-4 -0.00409,5.849e-4 -0.00586,0.00161 -0.00199,0.00115 -0.00354,0.00295 -0.00468,0.00494 -0.00114,0.00199 -0.00188,0.00419 -0.0025,0.0064 -0.00125,0.00442 -0.00212,0.00911 -0.00488,0.012775 -0.00196,0.00259 -0.00475,0.00448 -0.00775,0.00573 -0.003,0.00125 -0.00622,0.0019 -0.00943,0.00235 -0.00644,9.078e-4 -0.013155,0.00111 -0.018989,0.00397 -0.00525,0.00257 -0.00936,0.00718 -0.011843,0.012471 -0.00249,0.00529 -0.00342,0.011221 -0.00325,0.017062 3.256e-4,0.011682 0.00484,0.02277 0.00874,0.03379 0.00389,0.01102 0.00724,0.022767 0.00515,0.034265 -0.00105,0.00575 -0.00351,0.011313 -0.0075,0.015583 -0.00399,0.00427 -0.00957,0.00716 -0.015407,0.00739 -0.00409,1.653e-4 -0.00812,-9.322e-4 -0.012168,-0.00152 -0.00203,-2.929e-4 -0.00408,-4.584e-4 -0.00612,-2.729e-4 -0.00204,1.856e-4 -0.00407,7.337e-4 -0.00582,0.00179 -0.00196,0.00118 -0.00352,0.00297 -0.00468,0.00494 -0.00116,0.00198 -0.00195,0.00415 -0.00261,0.00634 -0.00132,0.00439 -0.00221,0.00903 -0.00477,0.012828 -0.00267,0.00396 -0.00705,0.00667 -0.011741,0.00755 -0.00469,8.8e-4 -0.00966,-1.45e-5 -0.013883,-0.00224 -0.00423,-0.00223 -0.00772,-0.00574 -0.010172,-0.00984 -0.00245,-0.0041 -0.00388,-0.00877 -0.00442,-0.013518 -0.00108,-0.00949 0.00132,-0.019063 0.00477,-0.027972 0.00345,-0.00891 0.00795,-0.017384 0.011332,-0.026317 0.010019,-0.026435 0.0098,-0.05615 0.00209,-0.083348 -0.00771,-0.027198 -0.0226,-0.052 -0.040834,-0.073603 C 4.0239579,4.7067889 3.9749919,4.6764435 3.9303804,4.6417069 3.8854094,4.6066904 3.8442335,4.5665747 3.8098166,4.5211431 3.7873562,4.4914945 3.767243,4.4590546 3.7374783,4.4367484 3.7014438,4.4097435 3.6550245,4.4004534 3.6169145,4.3764665 c -0.017778,-0.01119 -0.033454,-0.025399 -0.050701,-0.037392 -0.017247,-0.011993 -0.036821,-0.021958 -0.057807,-0.02289 -0.00803,-3.566e-4 -0.016096,6.216e-4 -0.024113,0 -0.015301,-0.00119 -0.029734,-0.00822 -0.041707,-0.017816 -0.011973,-0.0096 -0.021703,-0.021693 -0.030617,-0.034186 -0.00891,-0.012493 -0.017124,-0.025499 -0.026628,-0.03755 -0.0095,-0.01205 -0.020439,-0.02323 -0.033667,-0.031011 -0.00775,-0.00456 -0.016155,-0.00788 -0.024113,-0.012056 -0.018801,-0.00987 -0.034883,-0.024486 -0.047903,-0.041263 -0.01302,-0.016777 -0.023072,-0.035701 -0.031314,-0.055273 C 3.2318599,4.0478849 3.2224806,4.0060997 3.2069975,3.9665495 3.1626458,3.8532565 3.0700393,3.764167 2.9658699,3.7013092 2.9333853,3.6817074 2.8994519,3.6642112 2.8694188,3.6410272 2.840077,3.6183769 2.814902,3.5906273 2.7850241,3.568689 2.7472215,3.5409319 2.7029051,3.5232113 2.6644603,3.4963507 2.6387167,3.4783642 2.6159519,3.4565233 2.592122,3.4360688 2.5260295,3.3793378 2.4515504,3.3331423 2.3751072,3.2913922 2.3466629,3.2758571 2.3178559,3.2608769 2.2907125,3.2431666 2.192882,3.179335 2.1213059,3.0834431 2.0375285,3.002039 1.9762406,2.9424873 1.9081089,2.8904562 1.8446264,2.8332497 1.7935341,2.7872085 1.7448221,2.7369595 1.7120062,2.6765167 1.6991413,2.6528212 1.688852,2.6277918 1.675837,2.6041784 1.6454117,2.548977 1.6009352,2.5029515 1.5552732,2.4595018 1.4397938,2.3496173 1.3121383,2.2503385 1.2176945,2.1219232 1.1769323,2.0664987 1.1413894,2.0047128 1.0850743,1.9651902 1.0493676,1.9401309 1.0062525,1.924816 0.97656691,1.8928519 0.95686199,1.8716345 0.94463105,1.844607 0.93474948,1.817389 0.92486792,1.7901711 0.91694614,1.7621329 0.90422862,1.7361189 0.88278119,1.6922477 0.84868206,1.6560439 0.81480972,1.620868 0.78093738,1.5856921 0.74629983,1.5501695 0.7233829,1.5070477 0.70648633,1.4752541 0.69623225,1.4397886 0.67515737,1.4105966 0.64950581,1.3750652 0.61023142,1.3521125 0.57107748,1.3324287 0.53192355,1.3127448 0.49105215,1.2948587 0.4581425,1.2659201 c -0.016145,-0.014197 -0.0300111,-0.030758 -0.0450568,-0.046115 -0.0150457,-0.015357 -0.031655,-0.029761 -0.0513942,-0.03828 -0.0159272,-0.00687 -0.0332569,-0.00965 -0.0500801,-0.013883 -0.0168232,-0.00423 -0.0338337,-0.010297 -0.046371,-0.022286 -0.007583,-0.00725 -0.0131736,-0.016344 -0.0204889,-0.023865 -0.003658,-0.00376 -0.007777,-0.00714 -0.0124862,-0.00945 -0.004709,-0.00231 -0.0100466,-0.00352 -0.0152503,-0.00285 -0.00661,8.436e-4 -0.012499,0.00457 -0.0189679,0.00617 -0.003234,7.99e-4 -0.00668,0.00105 -0.009878,1.147e-4 -0.001599,-4.67e-4 -0.003119,-0.00123 -0.004401,-0.00229 -0.001281,-0.00106 -0.002318,-0.00244 -0.002922,-0.00399 -7.4963e-4,-0.00193 -8.138e-4,-0.00406 -5.4813e-4,-0.00611 2.6567e-4,-0.00205 8.4732e-4,-0.00404 0.00136,-0.00605 5.1227e-4,-0.002 9.5916e-4,-0.00404 9.4582e-4,-0.00611 -1.335e-5,-0.00207 -5.1983e-4,-0.00418 -0.001757,-0.00584 -0.001395,-0.00187 -0.003698,-0.00302 -0.006028,-0.00302 -0.002331,0 -0.004633,0.00115 -0.006028,0.00302 -0.002722,-0.012438 -0.006771,-0.024585 -0.0120564,-0.036169 -0.020681,-0.045322 -0.06107323,-0.0812262 -0.10850737,-0.096451 z"
       id="path1"
       transform="matrix(0.92256016,0,0,0.92256016,0.34966709,0.20517649)" />
  </g>
</svg>
