<?xml version="1.0" encoding="UTF-8" standalone="no"?>
<svg
   width="38px"
   height="36px"
   viewBox="0 0 38 36"
   version="1.1"
   id="svg3"
   sodipodi:docname="ico_visib.svg"
   inkscape:version="1.3.2 (091e20e, 2023-11-25, custom)"
   xmlns:inkscape="http://www.inkscape.org/namespaces/inkscape"
   xmlns:sodipodi="http://sodipodi.sourceforge.net/DTD/sodipodi-0.dtd"
   xmlns="http://www.w3.org/2000/svg"
   xmlns:svg="http://www.w3.org/2000/svg">
  <sodipodi:namedview
     id="namedview3"
     pagecolor="#ffffff"
     bordercolor="#000000"
     borderopacity="0.25"
     inkscape:showpageshadow="2"
     inkscape:pageopacity="0.0"
     inkscape:pagecheckerboard="0"
     inkscape:deskcolor="#d1d1d1"
     inkscape:zoom="32.583333"
     inkscape:cx="18.997442"
     inkscape:cy="18"
     inkscape:window-width="2560"
     inkscape:window-height="1369"
     inkscape:window-x="-8"
     inkscape:window-y="-8"
     inkscape:window-maximized="1"
     inkscape:current-layer="svg3" />
  <!-- Generator: Sketch 49 (51002) - http://www.bohemiancoding.com/sketch -->
  <title
     id="title1">visibility</title>
  <desc
     id="desc1">Created with Sketch.</desc>
  <defs
     id="defs1">
    <inkscape:path-effect
       effect="spiro"
       id="path-effect12"
       is_visible="true"
       lpeversion="1" />
    <inkscape:path-effect
       effect="spiro"
       id="path-effect11"
       is_visible="true"
       lpeversion="1" />
    <inkscape:path-effect
       effect="spiro"
       id="path-effect10"
       is_visible="true"
       lpeversion="1" />
    <inkscape:path-effect
       effect="spiro"
       id="path-effect9"
       is_visible="true"
       lpeversion="1" />
    <inkscape:path-effect
       effect="spiro"
       id="path-effect8"
       is_visible="true"
       lpeversion="1" />
    <inkscape:path-effect
       effect="spiro"
       id="path-effect7"
       is_visible="true"
       lpeversion="1" />
    <inkscape:path-effect
       effect="spiro"
       id="path-effect6"
       is_visible="true"
       lpeversion="1" />
    <inkscape:path-effect
       effect="spiro"
       id="path-effect5"
       is_visible="true"
       lpeversion="1" />
    <inkscape:path-effect
       effect="spiro"
       id="path-effect4"
       is_visible="true"
       lpeversion="1" />
  </defs>
  <path
     style="fill:none;stroke:#1c3c55;stroke-opacity:1"
     d="m 2.6086957,6.1074169 c -0.012573,-0.081197 -0.012573,-0.1643277 0,-0.2455243 C 2.6265597,5.7465234 2.6692689,5.6367112 2.7007677,5.5242967 2.7707149,5.2746658 2.7850969,5.0134141 2.8235294,4.7570332 2.9081957,4.1922298 3.1093581,3.6524482 3.2531969,3.0997442 3.3021931,2.9114753 3.3454902,2.7190599 3.4370884,2.5474336 3.4828875,2.4616204 3.5407828,2.3815955 3.6130476,2.316486 3.6853124,2.2513764 3.772372,2.2015123 3.8670077,2.1790281 c 0.1200461,-0.028521 0.2455209,-0.012375 0.3682864,0 0.4694936,0.047327 0.9447713,0.036995 1.4117647,-0.03069"
     id="path4"
     inkscape:path-effect="#path-effect4"
     inkscape:original-d="m 2.6086957,6.1074169 c 0.02858,-0.078814 -0.017148,-0.1654996 0,-0.2455243 0.02444,-0.1140528 0.066221,-0.2238545 0.092072,-0.3375959 C 2.7795717,5.177557 2.7566705,5.131443 2.8235294,4.7570332 2.9220315,4.2054214 3.0682667,3.626084 3.2531969,3.0997442 c 0.078799,-0.2242738 0.3380925,-0.82881 0.6138108,-0.9207161 0.1164624,-0.038821 0.2455243,0 0.3682864,0 0.4590855,0 0.9649212,0.1182573 1.4117647,-0.03069" />
  <path
     style="fill:none;stroke:#1c3c55;stroke-opacity:1"
     d="m 15.40665,1.4424552 4.450127,0.092072"
     id="path5"
     inkscape:path-effect="#path-effect5"
     inkscape:original-d="m 15.40665,1.4424552 c 3.529204,0.1058762 2.045575,0.092072 4.450127,0.092072" />
  <path
     style="fill:none;stroke:#1c3c55;stroke-opacity:1"
     d="m 22.741688,2.2097187 c 1.657089,-0.033767 3.314449,-0.054228 4.971867,-0.061381 0.78815,-0.0034 1.577118,-0.00382 2.363171,-0.061381 0.563105,-0.041233 1.134447,-0.1113036 1.68798,0 0.163439,0.032864 0.324675,0.081476 0.491048,0.092072 0.0817,0.0052 0.163666,0.00115 0.245525,0 0.223141,-0.00314 0.447702,0.015547 0.66344,0.072634 0.215738,0.057087 0.422812,0.1535355 0.594872,0.2956522 0.06163,0.050906 0.118711,0.1075358 0.184143,0.1534527 0.06755,0.047406 0.142776,0.08253 0.214834,0.1227621 0.28016,0.1564193 0.510991,0.3896011 0.705882,0.6445013 0.07963,0.1041489 0.154257,0.2127869 0.245524,0.3069054 0.09075,0.093589 0.197477,0.1723143 0.276215,0.2762148 0.0669,0.088284 0.111708,0.1924101 0.184143,0.2762148 0.05681,0.065724 0.129008,0.1170111 0.184144,0.1841433 0.07887,0.09603 0.117987,0.2185291 0.142926,0.3402665 0.02494,0.1217374 0.03753,0.2461998 0.07191,0.3656158 0.0179,0.062183 0.04159,0.1225368 0.06138,0.1841432 0.02889,0.089924 0.04947,0.1825177 0.06138,0.2762149"
     id="path6"
     inkscape:path-effect="#path-effect6"
     inkscape:original-d="m 22.741688,2.2097187 c 1.813615,0 1.663588,0.00194 4.971867,-0.061381 0.787845,-0.015078 1.575592,-0.035975 2.363171,-0.061381 0.562357,-0.01814 1.125504,-0.068179 1.68798,0 0.165325,0.020039 0.325799,0.071416 0.491048,0.092072 0.08121,0.010151 0.164315,-0.010151 0.245525,0 0.220694,0.027587 1.02881,0.2076349 1.258312,0.3682865 0.06546,0.04582 0.11845,0.1079726 0.184143,0.1534527 0.06781,0.046947 0.147718,0.074823 0.214834,0.1227621 0.248866,0.1777618 0.503395,0.4167037 0.705882,0.6445013 0.08704,0.097918 0.158167,0.2092711 0.245524,0.3069054 0.08682,0.097037 0.192858,0.1761855 0.276215,0.2762148 0.07084,0.085009 0.115017,0.1898068 0.184143,0.2762148 0.05423,0.067784 0.137203,0.111124 0.184144,0.1841433 0.13546,0.2107162 0.150366,0.4695003 0.214833,0.7058823 0.01702,0.062422 0.04981,0.1204855 0.06138,0.1841432 0.0095,0.052043 -0.03327,0.2762149 0.06138,0.2762149" />
  <path
     style="fill:none;stroke:#95aabf"
     d="m 2.516624,18.721228 c 1.4152773,-0.605873 2.728247,-1.449925 3.8670077,-2.485934 0.6763972,-0.615365 1.2966445,-1.301662 2.056266,-1.810742 0.9358097,-0.627158 2.0343523,-0.953624 3.0997443,-1.319693 0.397774,-0.136675 0.793493,-0.280055 1.196931,-0.398977 0.404662,-0.119283 0.816172,-0.213689 1.227621,-0.306905 1.258956,-0.285224 2.522975,-0.560532 3.805627,-0.705882 0.530245,-0.06009 1.062851,-0.09786 1.595908,-0.122763 0.920242,-0.043 1.841971,-0.0477 2.762148,-0.09207 0.608108,-0.02932 1.216988,-0.07598 1.82502,-0.04511 0.608032,0.03086 1.220604,0.142389 1.765773,0.413398 0.483051,0.24013 0.898714,0.598023 1.270897,0.988512 0.372182,0.390489 0.70545,0.816028 1.061584,1.221207 0.769063,0.874975 1.641928,1.651932 2.455243,2.485933 0.481727,0.493979 0.950097,1.014308 1.534527,1.381075 0.190874,0.119785 0.394859,0.222905 0.61381,0.276214 0.264555,0.06441 0.541386,0.05404 0.81248,0.02862 0.271095,-0.02542 0.541906,-0.06553 0.814119,-0.05931 0.09544,0.0022 0.194903,0.01135 0.276215,0.06138 0.03144,0.01934 0.05932,0.04435 0.09207,0.06138 0.03246,0.01688 0.06876,0.02537 0.105165,0.02906 0.0364,0.0037 0.0731,0.0027 0.109669,0.0016 0.166601,-0.005 0.341006,-0.0112 0.491049,0.06138 0.01949,0.0094 0.03847,0.02016 0.05897,0.02712 0.0205,0.007 0.0431,0.01 0.06379,0.0036 0.0052,-0.0016 0.01026,-0.0038 0.01566,-0.0045 0.0027,-3.41e-4 0.0055,-2.92e-4 0.0081,4.03e-4 0.0026,6.94e-4 0.0051,0.0021 0.0069,0.0041 0.0015,0.0017 0.0025,0.0038 0.003,0.006 4.55e-4,0.0022 3.58e-4,0.0045 -2.04e-4,0.0067 -0.0011,0.0044 -0.0041,0.0081 -0.0077,0.01077 -0.0037,0.0026 -0.008,0.0042 -0.01236,0.0053 -0.0044,0.001 -0.0089,0.0015 -0.01337,0.002 -0.110131,0.01277 -0.208548,0.0716 -0.306906,0.122762 -0.382853,0.199151 -0.811425,0.297082 -1.19693,0.491049 -0.465257,0.234093 -0.849464,0.59806 -1.258312,0.920716 -0.472458,0.372855 -0.983172,0.69396 -1.473146,1.043478 -0.361108,0.257592 -0.712962,0.532445 -1.012788,0.859335 -0.638405,0.696032 -1.008944,1.589434 -1.503836,2.393862 -0.447298,0.727065 -1.010481,1.395502 -1.71867,1.872123 -1.029314,0.692743 -2.28571,0.936197 -3.498722,1.196931 -1.944629,0.417993 -3.907392,0.921701 -5.892583,0.797954 -0.576457,-0.03593 -1.14817,-0.124704 -1.71867,-0.214834 -0.913459,-0.144313 -1.832998,-0.294109 -2.700767,-0.613811 -0.206791,-0.07619 -0.409959,-0.16179 -0.613811,-0.245524 -0.420031,-0.17253 -0.84338,-0.337283 -1.258312,-0.521739 C 10.82182,26.32371 10.329686,26.070121 9.8823529,25.749361 9.7160725,25.63013 9.5564092,25.501928 9.3913043,25.381074 8.8689557,24.998724 8.2928748,24.690407 7.7953964,24.276215 7.577896,24.095128 7.3765124,23.894653 7.1508951,23.723785 6.6681445,23.358182 6.0812953,23.133078 5.6470588,22.710997 5.5536686,22.620221 5.4683195,22.521157 5.370844,22.434783 5.2835189,22.357403 5.1872498,22.290905 5.0946292,22.219949 4.893221,22.065652 4.7085705,21.889766 4.5421995,21.69821 4.3849964,21.51721 4.2440627,21.322297 4.0818414,21.14578 3.8467731,20.889997 3.568973,20.674986 3.3452685,20.409207 3.2186818,20.258812 3.1103759,20.093241 2.9769821,19.948849 2.9180707,19.88508 2.8545548,19.825764 2.7928389,19.764706 2.6465172,19.619944 2.5079428,19.461838 2.4245524,19.273657 c -0.026226,-0.05918 -0.046736,-0.120799 -0.073789,-0.179609 -0.027053,-0.05881 -0.061417,-0.115613 -0.1103539,-0.157987 -0.047829,-0.04141 -0.1075083,-0.06731 -0.1552765,-0.108796 -0.023884,-0.02074 -0.044796,-0.04567 -0.056841,-0.07492 -0.012045,-0.02925 -0.014568,-0.06317 -0.00272,-0.0925 0.00989,-0.02447 0.029068,-0.04436 0.051054,-0.05897 0.021985,-0.01461 0.046795,-0.02437 0.071709,-0.0331 0.04493,-0.01573 0.091378,-0.02853 0.138925,-0.03089 0.047547,-0.0024 0.096549,0.0063 0.1372898,0.03089 0.053122,0.03211 0.088737,0.09147 0.092072,0.153453 z"
     id="path7"
     inkscape:path-effect="#path-effect7"
     inkscape:original-d="m 2.516624,18.721228 c 1.3752852,-0.67258 2.7143627,-1.468894 3.8670077,-2.485934 1.0803117,-0.953216 0.8319357,-1.039867 2.056266,-1.810742 1.1820226,-0.744236 1.7596353,-0.863485 3.0997443,-1.319693 0.398122,-0.13553 0.793137,-0.281417 1.196931,-0.398977 0.404986,-0.117907 0.816128,-0.214226 1.227621,-0.306905 1.317829,-0.296808 2.477351,-0.554079 3.805627,-0.705882 0.53009,-0.06058 1.063619,-0.08623 1.595908,-0.122763 1.698737,-0.116579 1.217157,-0.09207 2.762148,-0.09207 1.22996,0 2.400946,-0.02241 3.590793,0.368286 1.007869,0.330942 1.669966,1.458869 2.332481,2.209719 0.771298,0.874138 1.613991,1.68048 2.455243,2.485933 0.489611,0.468777 0.983395,0.980252 1.534527,1.381075 0.203577,0.148056 0.36713,0.231363 0.61381,0.276214 0.551544,0.100281 1.079844,-0.06974 1.626599,-0.03069 0.05501,0.0039 0.208832,0.02769 0.276215,0.06138 0.08422,0.04211 -0.04131,0.03174 0.09207,0.06138 0.07062,0.01569 0.143735,0.01736 0.214834,0.03069 0.853768,0.160081 -0.203537,-0.0018 0.491049,0.06138 0.04201,0.0038 0.0814,0.02242 0.122762,0.03069 0.01003,0.002 0.03069,-0.01023 0.03069,0 0,0.01447 -0.01752,0.0247 -0.03069,0.03069 -0.100306,0.04559 -0.202839,0.08657 -0.306906,0.122762 -0.594937,0.206935 -0.449554,0.06862 -1.19693,0.491049 -0.276193,0.156108 -1.019534,0.741632 -1.258312,0.920716 -2.122602,1.591951 0.770706,-0.579734 -1.473146,1.043478 -0.276158,0.199774 -0.767799,0.555211 -1.012788,0.859335 -0.748208,0.928809 -0.734631,1.189258 -1.503836,2.393862 -0.46836,0.733469 -1.004675,1.372326 -1.71867,1.872123 -0.988377,0.691863 -2.350056,0.930573 -3.498722,1.196931 -1.940348,0.449935 -3.88319,0.907557 -5.892583,0.797954 -0.300954,-0.01642 -1.442735,-0.171266 -1.71867,-0.214834 C 14.992573,27.78547 14.067706,27.604833 13.19693,27.314574 12.987874,27.244894 12.788406,27.149162 12.583119,27.06905 11.551148,26.666329 12.32179,26.99333 11.324807,26.547311 10.814015,26.318802 10.342087,26.071175 9.8823529,25.749361 9.7147352,25.632028 9.5600468,25.496783 9.3913043,25.381074 8.857013,25.014703 8.3030566,24.682343 7.7953964,24.276215 7.4998898,24.03981 7.4688002,23.942345 7.1508951,23.723785 6.9511799,23.586481 6.0142008,23.025691 5.6470588,22.710997 5.5481968,22.626259 5.4681634,22.521289 5.370844,22.434783 5.2836647,22.35729 5.1820917,22.297122 5.0946292,22.219949 4.9047047,22.052368 4.7213007,21.877311 4.5421995,21.69821 4.2186934,21.374704 4.3727682,21.481465 4.0818414,21.14578 3.8544841,20.883445 3.5894369,20.653376 3.3452685,20.409207 3.2062748,20.270213 3.104279,20.097362 2.9769821,19.948849 2.9204895,19.882941 2.8466277,19.832838 2.7928389,19.764706 2.6660574,19.604116 2.5398132,19.442706 2.4245524,19.273657 2.1971676,18.94016 2.4622182,19.231807 2.2404092,18.936061 2.1735643,18.846935 2.0763903,18.761476 2.0255754,18.659847 c -0.014613,-0.02923 0.095242,-0.0829 0.1227622,-0.09207 0.043162,-0.01439 0.2362491,-0.01998 0.2762148,0 0.042028,0.02101 0.090672,0.150653 0.092072,0.153453 z" />
  <path
     style="fill:none;stroke:#95aabf"
     d="M 18.84399,26.762148 C 18.029927,26.440552 17.247464,26.039024 16.511509,25.565217 15.87998,25.158639 15.280543,24.696961 14.762148,24.153453 14.296368,23.665109 13.898879,23.113456 13.565217,22.526854 12.794932,21.172636 12.367692,19.632 12.276215,18.076726 c -0.01383,-0.235096 -0.02013,-0.471241 0,-0.705882 0.05587,-0.651156 0.312055,-1.266314 0.460358,-1.902813 0.02872,-0.12328 0.05348,-0.247729 0.09207,-0.368287 0.0881,-0.275262 0.246128,-0.523792 0.337595,-0.797954 0.02997,-0.08983 0.05264,-0.181997 0.08362,-0.271487 0.03097,-0.08949 0.0709,-0.177242 0.131216,-0.250252 0.05349,-0.06475 0.121222,-0.115862 0.184112,-0.171524 0.06289,-0.05566 0.122845,-0.118565 0.153484,-0.196762 0.007,-0.01774 0.01235,-0.03618 0.02135,-0.05298 0.0045,-0.0084 0.0099,-0.01637 0.01655,-0.02319 0.0067,-0.0068 0.01459,-0.01248 0.02349,-0.0159 0.01123,-0.0043 0.02352,-0.005 0.03507,-0.0084 0.0058,-0.0017 0.01141,-0.0041 0.01616,-0.0078 0.0048,-0.0037 0.0086,-0.0087 0.01015,-0.01454 0.0014,-0.0052 8.98e-4,-0.01074 -3.19e-4,-0.01598 -0.0012,-0.0052 -0.0031,-0.01029 -0.0046,-0.01546 -0.0015,-0.0052 -0.0026,-0.01055 -0.0021,-0.01591 2.57e-4,-0.0027 9.2e-4,-0.0053 0.0021,-0.0078 0.0012,-0.0024 0.0028,-0.0046 0.005,-0.0063 0.0021,-0.0016 0.0046,-0.0027 0.0072,-0.0033 0.0026,-5.82e-4 0.0053,-6.7e-4 0.008,-4.38e-4 0.0053,4.66e-4 0.01042,0.0022 0.01552,0.0037 0.07151,0.02178 0.149261,0.01127 0.220634,-0.01097 0.07137,-0.02224 0.138695,-0.05577 0.209033,-0.0811 0.208585,-0.07512 0.436497,-0.07584 0.657367,-0.05669 0.220869,0.01915 0.440629,0.05726 0.662326,0.05669 0.246477,-6.38e-4 0.490401,-0.04909 0.736573,-0.06138 0.132857,-0.0066 0.265982,-0.0027 0.398977,0 1.043589,0.02122 2.08702,-0.03288 3.130435,-0.06138 0.286409,-0.0078 0.573148,-0.01372 0.859335,0 0.514801,0.02468 1.024127,0.112582 1.534527,0.184143 0.288383,0.04043 0.578643,0.07592 0.859335,0.153453 0.473283,0.130736 0.904888,0.376668 1.350384,0.58312 0.14538,0.06737 0.293142,0.130958 0.429667,0.214834 0.303242,0.186301 0.537326,0.463525 0.797954,0.705882 0.148568,0.138154 0.308137,0.267219 0.429668,0.429667 0.120961,0.161686 0.199776,0.350576 0.306905,0.52174 0.05871,0.09381 0.125848,0.182146 0.184143,0.276214 0.224085,0.361593 0.307797,0.789363 0.429668,1.196931 0.08188,0.273828 0.183031,0.544612 0.214833,0.828645 0.01371,0.122444 0.01434,0.246166 0.03069,0.368286 0.01652,0.123391 0.04898,0.244415 0.06138,0.368287 0.01224,0.122261 0.0048,0.245507 0,0.368286 -0.01874,0.482105 0.0039,0.969618 -0.09207,1.442455 -0.06764,0.333393 -0.19291,0.65227 -0.276214,0.982098 -0.07438,0.294496 -0.115026,0.596611 -0.186786,0.891757 -0.07176,0.295146 -0.177658,0.58833 -0.365644,0.826913 -0.04945,0.06277 -0.104187,0.121231 -0.153453,0.184143 -0.119095,0.152083 -0.204248,0.32742 -0.306905,0.491049 -0.166628,0.265594 -0.382583,0.502843 -0.644501,0.675191 -0.06165,0.04057 -0.125808,0.07756 -0.184144,0.122763 -0.137387,0.10645 -0.237234,0.254128 -0.368286,0.368286 -0.218765,0.190563 -0.511514,0.27727 -0.736573,0.460358 -0.106829,0.08691 -0.196411,0.194018 -0.306905,0.276215 -0.107086,0.07966 -0.23135,0.134054 -0.337596,0.214834 -0.06362,0.04837 -0.120071,0.105683 -0.184143,0.153452 -0.121272,0.09041 -0.265504,0.143655 -0.398977,0.214834 -0.190517,0.101599 -0.359734,0.240193 -0.55243,0.337596 -0.182513,0.09225 -0.382287,0.145566 -0.58312,0.184143 -0.195224,0.0375 -0.393875,0.06189 -0.58312,0.122762 -0.071,0.02284 -0.140991,0.05088 -0.214834,0.06138 -0.10141,0.01443 -0.204595,-0.005 -0.306906,0 -0.0723,0.0035 -0.143377,0.01912 -0.214833,0.03069 -0.395138,0.06396 -0.798147,0.0039 -1.196931,-0.03069 -0.06216,-0.0054 -0.125166,-0.01032 -0.184144,-0.03069 -0.08662,-0.02992 -0.159429,-0.09137 -0.245524,-0.122762 -0.03967,-0.01447 -0.08139,-0.02226 -0.122762,-0.03069 -0.0238,-0.0049 -0.04766,-0.01 -0.07032,-0.01871 -0.02266,-0.0087 -0.04422,-0.02134 -0.06057,-0.03929 -0.01635,-0.01795 -0.02714,-0.04166 -0.02663,-0.06594 2.54e-4,-0.01214 0.0033,-0.02426 0.0093,-0.03485 0.0059,-0.01059 0.0148,-0.01959 0.02549,-0.02535 0.0091,-0.0049 0.01947,-0.0074 0.02983,-0.0083 0.01036,-8.27e-4 0.02079,-2.4e-5 0.03108,0.0014 0.0206,0.0028 0.04109,0.0078 0.06185,0.0069 0.01936,-8.82e-4 0.03844,-0.0071 0.05457,-0.01789 0.01612,-0.01075 0.02924,-0.02596 0.0375,-0.04349 l 0.122762,-0.03069 z"
     id="path8"
     inkscape:path-effect="#path-effect8"
     inkscape:original-d="M 18.84399,26.762148 C 17.993482,26.542958 17.231348,26.05368 16.511509,25.565217 15.84083,25.110114 15.338694,24.729999 14.762148,24.153453 14.333235,23.724539 13.85206,23.016585 13.565217,22.526854 12.709726,21.066259 12.31384,19.769853 12.276215,18.076726 c -0.0052,-0.235236 -0.01601,-0.471133 0,-0.705882 0.04616,-0.676981 0.26449,-1.266244 0.460358,-1.902813 0.03721,-0.120945 0.0537,-0.247703 0.09207,-0.368287 0.08782,-0.276002 0.240487,-0.526051 0.337595,-0.797954 0.06369,-0.178345 0.107512,-0.360756 0.214834,-0.521739 0.09527,-0.142907 0.229612,-0.238706 0.337596,-0.368286 0.02361,-0.02834 0.0353,-0.06599 0.06138,-0.09207 0.01618,-0.01617 0.04869,-0.01166 0.06138,-0.03069 0.01135,-0.01702 -0.0091,-0.04308 0,-0.06138 0.0046,-0.0091 0.02046,0 0.03069,0 0.140222,0 0.288065,-0.08027 0.429667,-0.09207 0.435968,-0.03633 0.882553,0.01748 1.319693,0 0.246179,-0.0098 0.490395,-0.05153 0.736573,-0.06138 0.132886,-0.0053 0.266083,0.0051 0.398977,0 1.043166,-0.04012 2.085665,-0.06138 3.130435,-0.06138 0.286445,0 0.573119,-0.01145 0.859335,0 0.518421,0.02074 1.021357,0.122563 1.534527,0.184143 0.57577,0.06909 0.194888,-0.03259 0.859335,0.153453 0.457184,0.128011 0.926698,0.371277 1.350384,0.58312 0.143222,0.07161 0.296433,0.126011 0.429667,0.214834 0.302968,0.201978 0.534971,0.45674 0.797954,0.705882 0.265038,0.251089 0.21939,0.154689 0.429668,0.429667 0.460362,0.602013 0.04033,0.04783 0.306905,0.52174 0.05425,0.09645 0.130404,0.179483 0.184143,0.276214 0.208053,0.374496 0.31522,0.788191 0.429668,1.196931 0.06648,0.237416 0.175201,0.580943 0.214833,0.828645 0.01946,0.12164 0.01541,0.24605 0.03069,0.368286 0.01544,0.123495 0.05105,0.244261 0.06138,0.368287 0.01019,0.122338 0,0.245524 0,0.368286 0,0.483812 0.01598,0.967045 -0.09207,1.442455 -0.07521,0.330938 -0.199656,0.650344 -0.276214,0.982098 -0.134172,0.581409 -0.202882,1.213768 -0.55243,1.71867 -0.04548,0.06569 -0.107012,0.119125 -0.153453,0.184143 -0.112192,0.157069 -0.191092,0.33663 -0.306905,0.491049 -0.174592,0.232788 -0.424195,0.486357 -0.644501,0.675191 -0.05601,0.04801 -0.129558,0.07314 -0.184144,0.122763 -0.447664,0.406967 0.183237,-0.04536 -0.368286,0.368286 -0.232224,0.174168 -0.508453,0.282932 -0.736573,0.460358 -0.108641,0.0845 -0.201838,0.187312 -0.306905,0.276215 -0.101825,0.08616 -0.229056,0.137305 -0.337596,0.214834 -0.06502,0.04644 -0.11845,0.107972 -0.184143,0.153452 -0.207061,0.14335 -0.197108,0.09708 -0.398977,0.214834 -0.313352,0.182789 -0.09932,0.121827 -0.55243,0.337596 -0.06502,0.03096 -0.52719,0.168607 -0.58312,0.184143 -0.403855,0.112182 -0.0983,0.01503 -0.58312,0.122762 -0.0727,0.01616 -0.140868,0.05268 -0.214834,0.06138 -0.101601,0.01195 -0.20478,-0.006 -0.306906,0 -0.07221,0.0042 -0.142792,0.02414 -0.214833,0.03069 -0.39082,0.03553 -0.811831,0.0121 -1.196931,-0.03069 -0.06185,-0.0069 -0.12454,-0.01281 -0.184144,-0.03069 -0.08764,-0.02629 -0.159848,-0.09063 -0.245524,-0.122762 -0.03949,-0.01481 -0.08504,-0.01183 -0.122762,-0.03069 -0.02074,-0.01037 -0.16178,-0.145125 -0.122762,-0.184143 0.02894,-0.02894 0.08394,0.01294 0.122762,0 0.03499,-0.01166 0.06138,-0.04092 0.09207,-0.06138 0.04092,-0.01023 0.08184,-0.02046 0.122762,-0.03069 z" />
  <path
     style="fill:none;stroke:#ff9500;stroke-opacity:1"
     d="m 18.659847,24.368286 c -0.07702,-0.01513 -0.150759,-0.04674 -0.214834,-0.09207 -0.0784,-0.05547 -0.141319,-0.130389 -0.194319,-0.210484 -0.053,-0.0801 -0.09679,-0.16583 -0.143277,-0.249874 -0.19649,-0.355253 -0.44143,-0.680872 -0.675192,-1.012788 -0.227605,-0.323174 -0.446116,-0.654844 -0.613811,-1.012788 -0.265168,-0.566 -0.397015,-1.183364 -0.58312,-1.780051 -0.125227,-0.401503 -0.2755,-0.794886 -0.398977,-1.196931 -0.13477,-0.438814 -0.237905,-0.891403 -0.245524,-1.350383 -0.0041,-0.245585 0.0192,-0.491706 0,-0.736573 -0.01528,-0.194843 -0.05738,-0.387369 -0.06247,-0.582744 -0.0025,-0.09769 0.0043,-0.196121 0.02806,-0.290905 0.02377,-0.09478 0.06493,-0.186005 0.126483,-0.261901 0.02237,-0.02758 0.04743,-0.05318 0.06638,-0.08321 0.0095,-0.01501 0.01739,-0.03112 0.0222,-0.04822 0.0048,-0.01709 0.0065,-0.03521 0.0035,-0.05272 -0.0037,-0.02174 -0.01426,-0.0418 -0.01854,-0.06344 -0.0021,-0.01082 -0.0027,-0.02213 1.2e-4,-0.0328 0.0028,-0.01067 0.0091,-0.02068 0.01842,-0.02653 0.0089,-0.0056 0.01993,-0.007 0.03044,-0.0062 0.0105,8.07e-4 0.02072,0.0037 0.03094,0.0062 0.07975,0.01968 0.163199,0.01726 0.245104,0.01103 0.08191,-0.0062 0.163963,-0.01614 0.245945,-0.01103 0.104279,0.0065 0.205285,0.03709 0.306905,0.06138 0.678792,0.162231 1.389047,0.09207 2.086957,0.09207 h 2.179028 2.823529 0.460358 c 0.04645,0 0.09281,-0.0033 0.138947,-0.0087 0.02307,-0.0027 0.04623,-0.0053 0.06945,-0.0049 0.02322,3.75e-4 0.04672,0.0039 0.06782,0.01358 0.02155,0.0099 0.03989,0.02607 0.0542,0.04499 0.01431,0.01892 0.02473,0.04055 0.03269,0.06289 0.01592,0.04469 0.02221,0.09222 0.03588,0.137644 0.02453,0.08154 0.07196,0.153881 0.116153,0.226671 0.04419,0.07279 0.08646,0.149418 0.09868,0.233688 0.0074,0.05072 0.0035,0.102318 0,0.153452 -0.03861,0.561577 -0.03599,1.125102 -0.03069,1.68798 0.0027,0.286858 0.006,0.574824 -0.03069,0.859335 -0.01317,0.102061 -0.03151,0.204001 -0.03069,0.306905 6.56e-4,0.08199 0.01345,0.164642 0,0.245524 -0.01223,0.07353 -0.04563,0.141974 -0.06138,0.214834 -0.01316,0.06087 -0.01386,0.124185 -0.03069,0.184143 -0.02108,0.0751 -0.06637,0.141189 -0.09207,0.214834 -0.03891,0.111498 -0.03089,0.233137 -0.04561,0.350309 -0.0074,0.05859 -0.02075,0.117111 -0.04767,0.169666 -0.02692,0.05255 -0.0683,0.09902 -0.121557,0.124526 -0.0375,0.01796 -0.07935,0.02499 -0.120841,0.02765 -0.04149,0.0027 -0.08315,0.0012 -0.124683,0.003 -0.175385,0.008 -0.346812,0.07635 -0.521739,0.06138 -0.139126,-0.01191 -0.267596,-0.07547 -0.398977,-0.122762 -0.214468,-0.07721 -0.445928,-0.112319 -0.672292,-0.08555 -0.226364,0.02677 -0.447188,0.117319 -0.616711,0.269697 -0.157327,0.141416 -0.26697,0.333132 -0.317869,0.53846 -0.0509,0.205327 -0.04401,0.423507 0.01096,0.627781 0.03364,0.124984 0.08471,0.244575 0.122762,0.368286 0.05335,0.173437 0.08123,0.355276 0.153453,0.521739 0.04118,0.09491 0.09627,0.18354 0.133437,0.280093 0.01858,0.04828 0.03262,0.09859 0.03746,0.150097 0.0048,0.0515 2.41e-4,0.104317 -0.01744,0.15293 -0.01803,0.04956 -0.04934,0.09377 -0.08766,0.130009 -0.03832,0.03624 -0.08353,0.06471 -0.131288,0.08709 -0.09551,0.04476 -0.200216,0.06521 -0.302791,0.0898 -0.205149,0.04918 -0.406139,0.116334 -0.61381,0.153452 -0.203762,0.03642 -0.412561,0.04365 -0.613811,0.09207 -0.08204,0.01974 -0.162509,0.04625 -0.245524,0.06138 -0.141377,0.02576 -0.286424,0.0179 -0.429978,0.0113 -0.143554,-0.0066 -0.289052,-0.01169 -0.429357,0.01939 -0.177785,0.03938 -0.341949,0.137875 -0.460358,0.276214 z"
     id="path9"
     inkscape:path-effect="#path-effect9"
     inkscape:original-d="m 18.659847,24.368286 c -0.07161,-0.03069 -0.159743,-0.03698 -0.214834,-0.09207 -0.134557,-0.134557 -0.225064,-0.306906 -0.337596,-0.460358 -0.643714,-0.877792 -0.03594,-0.02194 -0.675192,-1.012788 -0.316492,-0.490563 -0.331996,-0.402189 -0.613811,-1.012788 -0.262117,-0.567921 -0.409721,-1.182787 -0.58312,-1.780051 -0.118146,-0.406948 -0.285971,-0.790109 -0.398977,-1.196931 -0.110953,-0.399431 -0.216216,-0.940066 -0.245524,-1.350383 -0.01732,-0.242528 0,-0.493345 0,-0.736573 0,-0.382265 -0.01917,-0.764738 0.09207,-1.13555 0.09207,-0.306906 0.03069,0 0.09207,-0.184143 0.0082,-0.02453 -0.01731,-0.10545 0,-0.122763 0.01447,-0.01447 0.04092,0 0.06138,0 0.159612,0 0.333999,-0.01848 0.491049,0 0.103613,0.01219 0.203383,0.04844 0.306905,0.06138 0.696392,0.08705 1.386121,0.09207 2.086957,0.09207 0.726342,0 1.452685,0 2.179028,0 0.941176,0 1.882353,0 2.823529,0 0.153453,0 0.306906,0 0.460358,0 0.05583,0 0.255817,-0.0204 0.276215,0 0.0097,0.0097 0.115646,0.231293 0.122762,0.245524 0.03222,0.06444 0.193481,0.374948 0.214834,0.460359 0.01241,0.04962 -0.0051,0.102555 0,0.153452 0.05642,0.564219 0.03202,1.123579 -0.03069,1.68798 -0.06569,0.591196 -8.24e-4,0.02308 -0.03069,0.859335 -0.0037,0.102746 -0.02499,0.204251 -0.03069,0.306905 -0.0045,0.08172 0.01082,0.164401 0,0.245524 -0.0098,0.07382 -0.04463,0.142265 -0.06138,0.214834 -0.01399,0.06063 -0.01239,0.124667 -0.03069,0.184143 -0.02291,0.07447 -0.07067,0.139921 -0.09207,0.214834 -0.03418,0.119632 -0.0637,0.594124 -0.214834,0.644501 -0.07392,0.02464 -0.168118,0.01963 -0.245524,0.03069 -0.172645,0.02466 -0.342079,0.09731 -0.521739,0.06138 -0.290935,-0.05819 -0.132113,-0.05605 -0.398977,-0.122762 -0.450796,-0.112699 -0.893035,-0.07983 -1.289003,0.184143 -0.463273,0.308849 -0.408954,0.655993 -0.306905,1.166241 0.02538,0.126889 0.08871,0.243443 0.122762,0.368286 0.05084,0.186403 0.07317,0.338225 0.153453,0.521739 0.08207,0.187585 0.196711,0.366829 0.153453,0.58312 -0.03962,0.198113 -0.367945,0.272729 -0.52174,0.306906 -0.987237,0.179497 0.241128,-0.06028 -0.61381,0.153452 -0.459079,0.11477 -0.199346,0.01893 -0.613811,0.09207 -0.08308,0.01466 -0.162802,0.04484 -0.245524,0.06138 -0.133486,0.0267 -0.815232,0.0086 -0.859335,0.03069 -0.152351,0.07617 -0.311342,0.17687 -0.460358,0.276214 z" />
  <path
     style="fill:none;stroke:#1c3c55;stroke-opacity:1"
     d="m 4.6035806,30.813299 c 0.083514,0.754387 -0.05692,1.532171 -0.398977,2.209719 -0.046948,0.09299 -0.098158,0.185674 -0.1199984,0.287531 -0.01092,0.05093 -0.014226,0.103874 -0.00548,0.155222 0.00874,0.05135 0.029903,0.10108 0.064102,0.140367 0.033737,0.03876 0.078511,0.06595 0.1227622,0.09207 0.63335,0.373806 1.3183952,0.657445 2.0255754,0.859335 0.8164269,0.233079 1.6596023,0.357351 2.4859335,0.552429 0.3048747,0.07197 0.6089291,0.15385 0.9207161,0.184144 0.2141018,0.0208 0.4298242,0.01705 0.6445012,0.03069 0.338016,0.02147 0.678623,0.08591 1.012788,0.03069 0.06141,-0.01015 0.122227,-0.02431 0.184143,-0.03069 0.09166,-0.0094 0.184086,-0.0017 0.276215,0 0.511103,0.0095 1.004657,-0.166052 1.503836,-0.276215 0.524479,-0.115746 1.061619,-0.159961 1.595908,-0.214833 0.164119,-0.01685 0.328229,-0.03475 0.491049,-0.06138 0.218131,-0.03567 0.4337,-0.087 0.644501,-0.153453"
     id="path10"
     inkscape:path-effect="#path-effect10"
     inkscape:original-d="m 4.6035806,30.813299 c -0.3337987,0.7096 -0.2747118,1.464128 -0.398977,2.209719 -0.018779,0.112673 -0.1642569,0.439094 -0.061381,0.58312 0.029731,0.04162 0.078277,0.06682 0.1227622,0.09207 1.0738846,0.609502 0.8727949,0.543504 2.0255754,0.859335 1.1738393,0.3216 1.2881562,0.316248 2.4859335,0.552429 0.3070706,0.06055 0.6106399,0.141584 0.9207161,0.184144 0.2130795,0.02925 0.4297062,0.01967 0.6445012,0.03069 0.315755,0.01619 0.686531,0.06332 1.012788,0.03069 0.06192,-0.0062 0.122053,-0.02655 0.184143,-0.03069 0.09187,-0.0061 0.1846,0.0092 0.276215,0 0.503567,-0.05036 1.003247,-0.204702 1.503836,-0.276215 1.519403,-0.168822 0.150366,-0.0033 1.595908,-0.214833 0.163218,-0.02389 0.329754,-0.02682 0.491049,-0.06138 0.253438,-0.05431 0.395058,-0.153453 0.644501,-0.153453" />
  <path
     style="fill:none;stroke:#1c3c55;stroke-opacity:1"
     d="m 19.918159,34.035806 c 0.951543,-0.06979 1.902952,-0.1414 2.85422,-0.214834 0.379183,-0.02927 0.765795,-0.0583 1.135549,0.03069 0.132858,0.03197 0.262944,0.07909 0.398977,0.09207 0.051,0.0049 0.102456,0.0049 0.153453,0 l 0.153453,0.03069 c 0.0925,0.0185 0.18483,0.03799 0.276215,0.06138"
     id="path11"
     inkscape:path-effect="#path-effect11"
     inkscape:original-d="m 19.918159,34.035806 c 0.947784,-0.148918 1.896256,-0.214834 2.85422,-0.214834 0.311553,0 0.81526,-0.01201 1.135549,0.03069 0.135291,0.01804 0.264347,0.06963 0.398977,0.09207 0.05045,0.0084 0.102302,0 0.153453,0 0.05115,0.01023 0.102302,0.02046 0.153453,0.03069 0.09018,0.01804 0.185734,0.06138 0.276215,0.06138" />
  <path
     style="fill:none;stroke:#1c3c55;stroke-opacity:1"
     d="m 29.401535,33.636829 c 0.876191,-0.199161 1.771888,-0.312411 2.670076,-0.337596 0.115535,-0.0032 0.231422,-0.0051 0.345937,-0.02071 0.114515,-0.01566 0.228366,-0.04566 0.329255,-0.102055 0.08431,-0.04713 0.158323,-0.111908 0.245524,-0.153453 0.114578,-0.05459 0.24415,-0.06565 0.368287,-0.09207 0.234803,-0.04997 0.456345,-0.157816 0.644501,-0.306905 0.102763,-0.08143 0.196221,-0.175244 0.306905,-0.245524 0.07468,-0.04742 0.158476,-0.08527 0.214834,-0.153453 0.02352,-0.02845 0.04126,-0.06112 0.06138,-0.09207 0.06726,-0.103465 0.160405,-0.186866 0.245525,-0.276215 0.365215,-0.383361 0.588623,-0.88941 0.675191,-1.411764 0.01871,-0.112899 0.03142,-0.227149 0.06138,-0.337596 0.02798,-0.103134 0.07082,-0.202179 0.09207,-0.306905 0.01844,-0.09083 0.02026,-0.184116 0.03069,-0.276215 0.02487,-0.219673 0.09831,-0.430413 0.153452,-0.644502 0.115832,-0.44971 0.151219,-0.916691 0.153453,-1.381074 5.94e-4,-0.123547 -9.12e-4,-0.248848 0.03069,-0.368286 0.01413,-0.05339 0.03479,-0.105048 0.06138,-0.153453"
     id="path12"
     inkscape:path-effect="#path-effect12"
     inkscape:original-d="m 29.401535,33.636829 c 0.888865,-0.121027 1.781968,-0.210724 2.670076,-0.337596 0.06224,-0.0089 0.569002,-0.07904 0.675192,-0.122762 0.08924,-0.03675 0.155916,-0.11761 0.245524,-0.153453 0.11749,-0.047 0.24824,-0.05206 0.368287,-0.09207 0.155955,-0.05199 0.512491,-0.222041 0.644501,-0.306905 0.110203,-0.07084 0.202097,-0.166918 0.306905,-0.245524 0.0704,-0.0528 0.152606,-0.09123 0.214834,-0.153453 0.02608,-0.02608 0.03738,-0.06407 0.06138,-0.09207 0.148328,-0.173048 0.110103,-0.07308 0.245525,-0.276215 0.281062,-0.421593 0.541604,-0.921944 0.675191,-1.411764 0.03009,-0.110347 0.03489,-0.22633 0.06138,-0.337596 0.02474,-0.103902 0.07007,-0.20239 0.09207,-0.306905 0.01908,-0.09065 0.01412,-0.185071 0.03069,-0.276215 0.0395,-0.217277 0.117147,-0.426667 0.153452,-0.644502 0.07574,-0.454405 0.111978,-0.924844 0.153453,-1.381074 0.01115,-0.122682 0.01541,-0.24605 0.03069,-0.368286 0.0094,-0.07505 0.06138,-0.09279 0.06138,-0.153453" />
</svg>
