<?xml version="1.0" encoding="UTF-8" standalone="no"?>
<svg
   width="46px"
   height="46px"
   viewBox="0 0 46 46"
   version="1.1"
   id="svg1"
   sodipodi:docname="download.svg"
   inkscape:version="1.3.2 (091e20e, 2023-11-25, custom)"
   xmlns:inkscape="http://www.inkscape.org/namespaces/inkscape"
   xmlns:sodipodi="http://sodipodi.sourceforge.net/DTD/sodipodi-0.dtd"
   xmlns="http://www.w3.org/2000/svg"
   xmlns:svg="http://www.w3.org/2000/svg">
  <sodipodi:namedview
     id="namedview1"
     pagecolor="#ffffff"
     bordercolor="#000000"
     borderopacity="0.25"
     inkscape:showpageshadow="2"
     inkscape:pageopacity="0.0"
     inkscape:pagecheckerboard="0"
     inkscape:deskcolor="#d1d1d1"
     inkscape:zoom="12.75"
     inkscape:cx="24.313725"
     inkscape:cy="21.372549"
     inkscape:window-width="2560"
     inkscape:window-height="1369"
     inkscape:window-x="-8"
     inkscape:window-y="-8"
     inkscape:window-maximized="1"
     inkscape:current-layer="svg1" />
  <!-- Generator: Sketch 49 (51002) - http://www.bohemiancoding.com/sketch -->
  <title
     id="title1">icon</title>
  <desc
     id="desc1">Created with Sketch.</desc>
  <defs
     id="defs1">
    <inkscape:path-effect
       effect="spiro"
       id="path-effect8"
       is_visible="true"
       lpeversion="1" />
    <inkscape:path-effect
       effect="spiro"
       id="path-effect7"
       is_visible="true"
       lpeversion="1" />
    <inkscape:path-effect
       effect="spiro"
       id="path-effect6"
       is_visible="true"
       lpeversion="1" />
    <inkscape:path-effect
       effect="spiro"
       id="path-effect5"
       is_visible="true"
       lpeversion="1" />
    <inkscape:path-effect
       effect="spiro"
       id="path-effect4"
       is_visible="true"
       lpeversion="1" />
    <inkscape:path-effect
       effect="spiro"
       id="path-effect1"
       is_visible="true"
       lpeversion="1" />
  </defs>
  <path
     style="fill:none;stroke:#95aabf;stroke-opacity:1"
     d="m 20.862745,45.176471 c -1.126982,-0.334667 -2.283103,-0.571146 -3.45098,-0.705883 -0.373559,-0.0431 -0.756498,-0.07796 -1.09804,-0.235294 -0.144341,-0.06649 -0.278103,-0.153556 -0.417529,-0.229817 -0.139426,-0.07626 -0.287526,-0.142611 -0.445216,-0.16234 -0.13211,-0.01653 -0.265811,2.4e-4 -0.398928,0.0027 -0.133117,0.0025 -0.272164,-0.01112 -0.385385,-0.08118 -0.07185,-0.04445 -0.129072,-0.109215 -0.177671,-0.178331 -0.0486,-0.06912 -0.08955,-0.143282 -0.136055,-0.213826 -0.265218,-0.402332 -0.693644,-0.664702 -1.019608,-1.019609 -0.138143,-0.150409 -0.257471,-0.317075 -0.392157,-0.470588 -0.486582,-0.554599 -1.165885,-0.921924 -1.882352,-1.098039 -0.127297,-0.03129 -0.256443,-0.05702 -0.379482,-0.102241 C 10.556303,40.63685 10.437989,40.570341 10.352941,40.470588 10.238707,40.336602 10.195562,40.157896 10.117647,40 10.017391,39.79683 9.8580703,39.627188 9.6785867,39.488931 9.499103,39.350674 9.2990518,39.24177 9.0980392,39.137255 8.6588081,38.90888 8.2026944,38.693232 7.8431373,38.352941 7.4795096,38.008798 7.2285081,37.549269 6.8235294,37.254902 6.6055891,37.096488 6.3531059,36.993711 6.1176471,36.862745 5.3361054,36.428038 4.7505706,35.672874 4.4705882,34.823529 4.3772497,34.54038 4.316182,34.247738 4.2352941,33.960784 4.1319721,33.594244 3.9961091,33.236202 3.9215686,32.862745 3.793184,32.219522 3.8510484,31.555419 3.9124526,30.902389 3.9738568,30.249359 4.0379594,29.586677 3.9215686,28.941176 3.7514843,27.997891 3.2079557,27.162579 2.5882353,26.431373 2.1113732,25.868725 1.5682196,25.326592 1.3333333,24.627451 1.1819065,24.176728 1.1708235,23.689908 1.2142304,23.216414 c 0.043407,-0.473495 0.1394906,-0.940568 0.1975339,-1.412492 0.064642,-0.525578 0.08294,-1.06148 0.2352941,-1.568628 0.071377,-0.237594 0.1714931,-0.466142 0.2352941,-0.705882 0.1018611,-0.382755 0.1086078,-0.783344 0.1568628,-1.176471 0.087049,-0.709176 0.310515,-1.403155 0.3137255,-2.117647 3.524e-4,-0.07843 -0.00196,-0.156884 0,-0.235294 0.01464,-0.584366 0.2648483,-1.136232 0.5490196,-1.647059 0.6418081,-1.153716 1.475305,-2.188014 2.1960784,-3.294117 C 5.2326999,10.852172 5.3634501,10.642972 5.4901957,10.431373 5.7852018,10.119181 6.0484333,9.7769797 6.2745098,9.4117647 6.6731768,8.7677386 6.9680803,8.0379509 7.5294118,7.5294118 7.7232984,7.3537599 7.9434742,7.2101872 8.1568627,7.0588235 8.7473327,6.6399832 9.2906249,6.1575571 9.8039216,5.6470588 10.578097,4.877104 11.290875,4.0375626 12.156863,3.372549 12.513635,3.0985748 12.893748,2.8564064 13.254902,2.5882353 13.406497,2.4756701 13.556007,2.3577408 13.72549,2.2745098 c 0.292331,-0.1435601 0.632744,-0.1754055 0.953509,-0.1190431 0.320765,0.056362 0.622758,0.1973925 0.891395,0.3815142 0.537276,0.3682433 0.938041,0.8977579 1.370782,1.3845877 0.430623,0.4844464 0.901175,0.9340569 1.411765,1.3333334 0.729572,0.5705182 1.548839,1.0406151 2.440791,1.2899914 0.891952,0.2493762 1.86086,0.2689787 2.73568,-0.03509 C 23.850515,6.3981954 24.155409,6.2450277 24.470588,6.1176471 24.953815,5.9223496 25.45913,5.7884552 25.960784,5.6470588 27.422399,5.2350869 28.875953,4.750541 30.196078,4 30.600791,3.7699052 30.993407,3.5146277 31.422289,3.3335289 31.85117,3.15243 32.327404,3.0479804 32.784314,3.1372549 c 0.381982,0.074635 0.725773,0.2785842 1.098039,0.3921569 0.230638,0.070364 0.470293,0.1054555 0.705882,0.1568627 0.428072,0.093408 0.85712,0.2490443 1.176471,0.5490196 0.276178,0.2594215 0.449877,0.6064505 0.627451,0.9411765 0.203778,0.3841208 0.421393,0.7640275 0.699836,1.0980091 0.278443,0.3339816 0.622152,0.6222923 1.025654,0.7843438 0.617317,0.2479226 1.310453,0.1818986 1.968169,0.2816779 0.328858,0.04989 0.65694,0.1447309 0.932837,0.3305194 0.275897,0.1857884 0.495597,0.4714217 0.549974,0.7995674 0.02157,0.1301861 0.01713,0.2630411 0.01934,0.394984 0.0022,0.1319428 0.01165,0.2661898 0.05909,0.3893298 0.05491,0.1425339 0.15698,0.261016 0.235294,0.3921568 0.16758,0.2806224 0.223216,0.6145482 0.235294,0.9411762 0.0097,0.261277 0,0.522859 0,0.784314 v 2.745098 c 0,0.418599 -0.05092,0.839411 0,1.254902 0.06653,0.542887 0.358921,1.0332 0.470588,1.568627 0.03247,0.155694 0.04942,0.314213 0.07843,0.470589 0.08913,0.480495 0.290546,0.933753 0.392157,1.411764 0.10402,0.489344 0.101045,1.000229 0,1.490196 -0.06022,0.292025 -0.154504,0.57573 -0.235295,0.862746 -0.101498,0.360579 -0.18189,0.727274 -0.235294,1.098039 -0.04863,0.337639 -0.07485,0.678504 -0.07843,1.019608 -0.18968,0.693247 -0.321014,1.402449 -0.392157,2.117647 -0.0546,0.548907 -0.07388,1.101721 -0.156863,1.647059 -0.09576,0.629314 -0.276068,1.246908 -0.313725,1.882352 -0.0263,0.443741 0,0.888815 0,1.333334 v 2.431372 c 0,0.314001 0.0423,0.630039 0,0.941177 -0.02569,0.18897 -0.09223,0.369595 -0.156863,0.549019 -0.354528,0.984236 -0.677594,2.008412 -1.333333,2.82353 -0.382763,0.475795 -0.865977,0.862561 -1.254902,1.333333 -0.500464,0.605783 -0.839465,1.34392 -1.411765,1.882353 -0.373292,0.351201 -0.830668,0.601661 -1.302673,0.801411 -0.472005,0.19975 -0.962452,0.35216 -1.442425,0.531922 -1.009623,0.378128 -1.970876,0.876489 -2.980392,1.254902 -0.351638,0.13181 -0.714395,0.2518 -1.019608,0.470589 -0.12474,0.08942 -0.243524,0.197032 -0.392157,0.235294 -0.07627,0.01964 -0.156225,0.01961 -0.234826,0.01458 -0.0786,-0.005 -0.157002,-0.01492 -0.235762,-0.01458 -0.162275,6.88e-4 -0.321146,0.0447 -0.475256,0.09553 -0.154109,0.05083 -0.306578,0.109042 -0.465921,0.13976 -0.231442,0.04462 -0.469655,0.03174 -0.705046,0.01961 -0.235391,-0.01213 -0.471015,-0.01961 -0.706718,-0.01961 h -3.215687 c -0.455511,0 -0.912771,0.0068 -1.362836,0.077 -0.450065,0.07022 -0.891132,0.200791 -1.30383,0.393586 -0.08181,-0.01367 -0.168298,0.0027 -0.23942,0.04541 -0.07112,0.04267 -0.126298,0.111269 -0.152737,0.189883 -0.0095,0.02835 -0.01545,0.05788 -0.02617,0.0858 -0.01072,0.02793 -0.02707,0.05494 -0.05226,0.07106 -0.01824,0.01167 -0.03993,0.01688 -0.06147,0.01909 -0.02154,0.0022 -0.04327,0.0016 -0.06489,0.0027 -0.02163,0.0011 -0.04352,0.004 -0.06335,0.01266 -0.01983,0.0087 -0.03756,0.02385 -0.04558,0.04397 -0.0049,0.0123 -0.006,0.02584 -0.0053,0.03907 7.33e-4,0.01322 0.0032,0.02628 0.0053,0.03936 0.02097,0.134477 -0.0074,0.276088 -0.07843,0.392157 z"
     id="path1"
     inkscape:path-effect="#path-effect1"
     inkscape:original-d="m 20.862745,45.176471 c -1.176055,-0.02067 -2.312437,-0.443142 -3.45098,-0.705883 -0.364736,-0.08417 -0.737373,-0.135109 -1.09804,-0.235294 -0.288935,-0.08026 -0.581365,-0.28664 -0.862745,-0.392157 -0.233854,-0.08769 -0.588357,0.01955 -0.784313,-0.07843 -0.130389,-0.06519 -0.23456,-0.297158 -0.313726,-0.392157 C 14.048214,43.006877 13.654398,42.703193 13.333333,42.352941 13.195357,42.202422 13.097052,42.014248 12.941176,41.882353 12.451701,41.468181 11.636382,41.050879 11.058824,40.784314 10.837321,40.682082 10.540042,40.657689 10.352941,40.470588 10.22893,40.346577 10.219583,40.142711 10.117647,40 9.9025324,39.69884 9.3828113,39.334405 9.0980392,39.137255 8.7017787,38.862921 8.1910355,38.700839 7.8431373,38.352941 7.4773507,37.987155 7.2787105,37.558356 6.8235294,37.254902 6.5995691,37.105595 6.3501477,36.99837 6.1176471,36.862745 5.3510399,36.415558 4.7647472,35.65698 4.4705882,34.823529 4.3713795,34.542438 4.3295569,34.243573 4.2352941,33.960784 4.0419783,33.380837 3.9215686,33.47982 3.9215686,32.862745 c 0,-0.974412 0.2696616,-2.950787 0,-3.921569 C 3.6816265,28.077385 3.1265192,27.13787 2.5882353,26.431373 2.0484735,25.722935 1.5287081,25.526175 1.3333333,24.627451 c -0.206271,-0.948847 -0.043805,-1.886382 0.078431,-2.823529 0.1242291,-0.952423 -0.00422,-0.706365 0.2352941,-1.568628 0.066382,-0.238973 0.17514,-0.465266 0.2352941,-0.705882 0.029633,-0.118533 0.1451272,-1.094322 0.1568628,-1.176471 0.1009195,-0.706436 0.2302769,-1.408334 0.3137255,-2.117647 0.00916,-0.07789 -0.019022,-0.159204 0,-0.235294 0.1094013,-0.437605 0.3797974,-1.240925 0.5490196,-1.647059 0.5156171,-1.237481 1.4167745,-2.23143 2.1960784,-3.294117 0.145854,-0.198892 0.2524282,-0.42421 0.3921569,-0.627451 C 5.7002306,10.052668 6.0286149,9.7630432 6.2745098,9.4117647 6.7027937,8.7999305 6.9932466,8.0655769 7.5294118,7.5294118 7.7142763,7.3445472 7.952714,7.2221425 8.1568627,7.0588235 8.7132406,6.6137212 9.2867108,6.1370479 9.8039216,5.6470588 10.591179,4.9012359 11.336888,4.0831939 12.156863,3.372549 12.496768,3.0779647 12.885084,2.844263 13.254902,2.5882353 13.409906,2.4809247 13.552208,2.3487737 13.72549,2.2745098 c 1.768167,-0.7577859 2.250564,0.4548483 3.215686,1.6470588 0.535338,0.6612996 0.741775,0.860399 1.411765,1.3333334 1.581348,1.1162454 3.226237,1.5628336 5.176471,1.2549019 0.33571,-0.053007 0.620874,-0.2785012 0.941176,-0.3921568 C 24.96151,5.9434492 25.470505,5.8230564 25.960784,5.6470588 27.382681,5.1366344 28.789375,4.5526337 30.196078,4 c 0.293953,-0.1154815 2.168627,-1.0026147 2.588236,-0.8627451 0.362059,0.1206863 0.731195,0.2842615 1.098039,0.3921569 0.231239,0.068012 0.477217,0.080641 0.705882,0.1568627 0.153234,0.051078 0.961154,0.4259816 1.176471,0.5490196 0.118449,0.067685 0.596274,0.8944116 0.627451,0.9411765 0.469119,0.7036792 0.953385,1.4641292 1.72549,1.8823529 0.864823,0.4684456 2.805394,0.7661784 3.45098,1.4117647 0.02061,0.020608 0.06743,0.7513042 0.07843,0.7843138 0.04821,0.1446203 0.172212,0.2533777 0.235294,0.3921568 0.129591,0.2851 0.204275,0.6309852 0.235294,0.9411762 0.02601,0.260141 0,0.522876 0,0.784314 0,0.915033 0,1.830065 0,2.745098 0,0.399745 -0.06041,0.862265 0,1.254902 0.08448,0.549085 0.338514,1.040331 0.470588,1.568627 0.213992,0.855969 -0.250369,-0.406214 0.07843,0.470589 0.172931,0.461149 0.350696,0.914243 0.392157,1.411764 0.03612,0.433443 0.07084,1.065162 0,1.490196 -0.04901,0.29403 -0.156863,0.575164 -0.235295,0.862746 -0.07843,0.366013 -0.180437,0.727758 -0.235294,1.098039 -0.04995,0.337193 -0.03481,0.681537 -0.07843,1.019608 0.02962,0.735754 -0.285666,1.407705 -0.392157,2.117647 -0.08181,0.545402 -0.08397,1.100392 -0.156863,1.647059 -0.08407,0.630525 -0.25043,1.249403 -0.313725,1.882352 -0.04422,0.442239 0,0.888889 0,1.333334 0,0.810457 0,1.620915 0,2.431372 0,0.313726 0.03284,0.629175 0,0.941177 -0.01993,0.189284 -0.110701,0.364373 -0.156863,0.549019 -0.254158,1.016632 -0.65181,2.005702 -1.333333,2.82353 -0.397059,0.476471 -0.867339,0.835037 -1.254902,1.333333 -0.472592,0.607618 -0.833654,1.356797 -1.411765,1.882353 -0.711526,0.646842 -1.890558,0.934548 -2.745098,1.333333 -0.988152,0.461138 -1.960251,0.872349 -2.980392,1.254902 -0.290624,0.108984 -0.740525,0.318362 -1.019608,0.470589 -0.133829,0.073 -0.245085,0.195183 -0.392157,0.235294 -0.151335,0.04127 -0.314504,-0.01561 -0.470588,0 -0.3157,0.03157 -0.630738,0.200801 -0.941177,0.235294 -0.454985,0.05055 -0.953658,0 -1.411764,0 -1.071896,0 -2.143791,0 -3.215687,0 -0.846547,0 -1.882957,0.07873 -2.666666,0.470588 -0.556292,0.556292 0.0095,0.101403 -0.392157,0.235294 -0.244809,0.0816 0.02614,0.05229 -0.07843,0.156863 -0.02614,0.02614 -0.209151,0.05229 -0.235295,0.07843 -0.01849,0.01849 0.0043,0.05264 0,0.07843 -0.02191,0.131494 -0.05229,0.261438 -0.07843,0.392157 z" />
  <path
     style="fill:#c6d1dc;fill-opacity:1;stroke:none;stroke-opacity:1"
     d="m 5.4901961,11.529412 c 0.063372,0.09852 0.1160662,0.203913 0.1568627,0.313725 0.1388254,0.373679 0.1358818,0.786192 0.078648,1.180694 -0.057234,0.394503 -0.1664281,0.779646 -0.235511,1.172247 -0.036542,0.207667 -0.061822,0.417248 -0.078431,0.627451 -0.00619,0.07836 -0.011158,0.157491 0,0.235295 0.014211,0.0991 0.054625,0.193675 0.1119771,0.275728 0.057353,0.08205 0.1313438,0.151814 0.2135627,0.208928 0.1644379,0.114228 0.3588126,0.177124 0.553208,0.225065 0.1943954,0.04794 0.3925773,0.08267 0.5818414,0.147991 0.1892641,0.06532 0.3724353,0.164598 0.5001951,0.318758 0.035845,0.04325 0.066929,0.09032 0.1034718,0.132986 0.036543,0.04267 0.07964,0.08151 0.1318223,0.102308 0.02777,0.01107 0.057403,0.01675 0.0855,0.02696 0.014049,0.0051 0.027755,0.01137 0.040125,0.01976 0.01237,0.0084 0.023401,0.01898 0.031238,0.0317 0.014067,0.02285 0.016954,0.05103 0.014548,0.07775 -0.00241,0.02672 -0.00968,0.05273 -0.014548,0.07912 -0.015441,0.08373 -0.00622,0.171145 0.021083,0.25179 0.027301,0.08064 0.072266,0.154691 0.1269651,0.219935 0.1093979,0.13049 0.2551908,0.224593 0.4009715,0.312589 0.1301616,0.07857 0.2631138,0.154553 0.3780449,0.254081 0.1149311,0.09953 0.212229,0.225949 0.2494061,0.37337 0.013254,0.05256 0.018658,0.106728 0.02792,0.160134 0.00926,0.05341 0.022764,0.107029 0.050511,0.153592 0.038061,0.06387 0.099612,0.109425 0.1568628,0.156862 0.3514156,0.291177 0.5892581,0.721698 0.627451,1.176471 0.012149,0.14466 0.00478,0.290178 0.00795,0.435313 0.00317,0.145134 0.01741,0.292313 0.070484,0.427432 0.042768,0.108883 0.1094967,0.206762 0.1568633,0.313725 0.07716,0.174241 0.1007,0.366923 0.156862,0.54902 0.06748,0.21879 0.181209,0.419855 0.289433,0.621622 0.108224,0.201767 0.212839,0.409144 0.259587,0.63328 0.02725,0.130659 0.03461,0.266085 0.07843,0.392157 0.03285,0.09451 0.08518,0.18076 0.132529,0.268898 0.04735,0.08814 0.09062,0.18081 0.102766,0.280121 0.01119,0.09151 -0.0046,0.18383 -0.01522,0.275399 -0.01066,0.09157 -0.01584,0.186822 0.01522,0.273621 0.01971,0.05509 0.05312,0.104105 0.07843,0.156863 0.06295,0.131234 0.07379,0.281113 0.07234,0.426655 -0.0014,0.145542 -0.01407,0.291943 0.0061,0.43609 0.03606,0.257895 0.174262,0.489998 0.328774,0.699607 0.154512,0.209609 0.329056,0.406104 0.45554,0.633726 0.08521,0.153344 0.147392,0.318772 0.235294,0.470589 0.165733,0.286239 0.41856,0.515035 0.699192,0.690094 0.280632,0.17506 0.589614,0.299499 0.900948,0.411176 0.622667,0.223352 1.284977,0.412287 1.772409,0.859514 0.37189,0.341215 0.615407,0.828769 0.627451,1.333333 0.0031,0.130719 -0.0088,0.261695 0,0.392157 0.01788,0.266314 0.120759,0.519853 0.156863,0.784314 0.04603,0.337141 -0.01774,0.679803 0,1.019608 0.01235,0.23649 0.06408,0.469505 0.07843,0.705882 0.01426,0.234923 -0.0086,0.470683 0,0.705882 0.01643,0.451644 0.147666,0.889968 0.235294,1.333334 0.10708,0.541787 0.149394,1.094841 0.156863,1.647058 0.0095,0.705943 -0.03747,1.412636 0,2.117648 0.0157,0.29528 0.04656,0.591629 0.128335,0.875794 0.08178,0.284164 0.216777,0.557118 0.420685,0.771264 0.092,0.09662 0.196984,0.180368 0.286981,0.278863 0.09,0.09849 0.166259,0.216302 0.183607,0.348588 0.01362,0.103824 -0.0099,0.209478 0,0.313726 0.0084,0.08842 0.04059,0.173265 0.08328,0.251144 0.0427,0.07788 0.09579,0.14949 0.148934,0.220653 0.05314,0.07116 0.106667,0.142408 0.150336,0.219744 0.04367,0.07734 0.07746,0.161453 0.08804,0.249635 0.01465,0.122184 -0.01582,0.245568 -0.05881,0.360871 -0.043,0.115304 -0.09866,0.225749 -0.137582,0.342492 -0.03892,0.116743 -0.06067,0.243052 -0.03324,0.363015 0.01372,0.05998 0.03986,0.117523 0.07902,0.164982 0.03916,0.04746 0.09163,0.0845 0.150622,0.101974 0.02909,0.0086 0.05952,0.0125 0.08811,0.02266 0.01429,0.0051 0.02813,0.01175 0.0402,0.02094 0.01207,0.0092 0.02234,0.02099 0.02856,0.03483 0.0054,0.01206 0.0076,0.02538 0.0079,0.0386 2.66e-4,0.01322 -0.0014,0.02641 -0.0034,0.03948 -0.004,0.02614 -0.0095,0.05281 -0.0045,0.07878 0.005,0.02606 0.02076,0.04955 0.04179,0.06575 0.02103,0.0162 0.04707,0.02532 0.0735,0.02783 0.05285,0.005 0.105049,-0.01561 0.150495,-0.04305 0.04545,-0.02744 0.08638,-0.06189 0.132096,-0.08888 0.04571,-0.027 0.09846,-0.04663 0.151145,-0.04007 0.04748,0.0059 0.08996,0.03244 0.126795,0.06298 0.03683,0.03054 0.06981,0.06573 0.108499,0.09388 0.06756,0.04915 0.151414,0.07497 0.23496,0.0743 0.08354,-6.66e-4 0.166416,-0.02751 0.235628,-0.0743 0.05456,-0.03689 0.100148,-0.08524 0.148707,-0.129722 0.04856,-0.04448 0.102064,-0.08624 0.165018,-0.105572 0.07565,-0.02323 0.157058,-0.0119 0.235294,0 0.06933,0.01054 0.139595,0.02141 0.20929,0.01365 0.03485,-0.0039 0.06935,-0.01249 0.101007,-0.02756 0.03166,-0.01507 0.06043,-0.03677 0.08186,-0.06452 0.01157,-0.01498 0.02094,-0.03158 0.03288,-0.04627 0.01194,-0.01469 0.02715,-0.02774 0.04556,-0.03216 0.01346,-0.0032 0.02766,-0.0016 0.04107,0.0018 0.01341,0.0034 0.02632,0.0086 0.03958,0.01252 0.01327,0.0039 0.02717,0.0067 0.04092,0.0051 0.0069,-8e-4 0.01365,-0.0027 0.01977,-0.0059 0.0061,-0.0032 0.01158,-0.0078 0.01551,-0.0135 0.0038,-0.0055 0.0062,-0.01202 0.0073,-0.01866 0.0011,-0.0066 0.001,-0.01343 3.11e-4,-0.02013 -0.0014,-0.01338 -0.0054,-0.02636 -0.0076,-0.03964 -0.0054,-0.03309 0.0011,-0.06772 0.0165,-0.09746 0.01545,-0.02975 0.03967,-0.05463 0.06818,-0.07226 0.05701,-0.03527 0.128903,-0.04072 0.194378,-0.02633 0.06547,0.01439 0.125522,0.04702 0.181593,0.08377 0.05607,0.03674 0.109201,0.07799 0.166799,0.112289 0.131257,0.07817 0.282718,0.118159 0.434815,0.132479 0.152097,0.01432 0.305483,0.0038 0.457277,-0.01341 0.303587,-0.03448 0.611325,-0.09587 0.91183,-0.04064 0.120541,0.02216 0.240154,0.06306 0.362366,0.05383 0.06111,-0.0046 0.122235,-0.02246 0.171835,-0.05845 0.0496,-0.03599 0.08663,-0.09133 0.09325,-0.152251 0.0028,-0.02601 2.15e-4,-0.05227 0,-0.07843 -6.22e-4,-0.07558 0.01915,-0.15097 0.05489,-0.217566 0.03574,-0.0666 0.08725,-0.124401 0.148022,-0.169333 0.121554,-0.08986 0.277939,-0.126283 0.428746,-0.115898 0.150808,0.01038 0.296263,0.06518 0.426146,0.142516 0.129882,0.07734 0.245259,0.176801 0.353958,0.281851 0.132601,0.12815 0.256481,0.265501 0.395561,0.386588 0.13908,0.121088 0.295932,0.226775 0.47288,0.278687 0.176948,0.05191 0.376491,0.04524 0.536097,-0.04713 0.0798,-0.04618 0.148094,-0.113136 0.192222,-0.194093 0.04413,-0.08096 0.06342,-0.175926 0.0503,-0.26719 -0.0019,-0.01311 -0.0044,-0.02615 -0.0052,-0.03937 -7.94e-4,-0.01322 2.26e-4,-0.02679 0.0052,-0.03906 0.0041,-0.0101 0.01084,-0.01906 0.01911,-0.02616 0.0083,-0.0071 0.01806,-0.01237 0.02841,-0.01579 0.0207,-0.0068 0.0433,-0.0063 0.06463,-0.0018 0.04267,0.009 0.08086,0.03298 0.123135,0.04371 0.05222,0.01326 0.108968,0.0052 0.156959,-0.0193 0.04799,-0.02447 0.08725,-0.06471 0.113483,-0.111759 0.02623,-0.04705 0.03975,-0.100685 0.04232,-0.154495 0.0026,-0.05381 -0.0056,-0.107823 -0.02064,-0.159545 -0.03013,-0.103444 -0.08707,-0.196718 -0.144005,-0.288187 -0.05694,-0.09147 -0.115097,-0.183757 -0.148113,-0.286317 -0.03909,-0.121421 -0.041,-0.252892 -0.01813,-0.378383 0.02287,-0.12549 0.06979,-0.245556 0.12646,-0.359836 0.113331,-0.228559 0.266336,-0.437151 0.362259,-0.673545 0.04447,-0.109592 0.07617,-0.22403 0.12079,-0.333563 0.04462,-0.109532 0.103867,-0.216075 0.192935,-0.293888 0.02811,-0.02456 0.05886,-0.04596 0.08707,-0.0704 0.02821,-0.02444 0.05427,-0.05252 0.06979,-0.08646 0.01658,-0.03626 0.02022,-0.07728 0.01767,-0.117063 -0.0026,-0.03979 -0.01102,-0.07892 -0.01767,-0.118231 -0.02894,-0.171146 -0.0231,-0.349391 0.02815,-0.515229 0.05125,-0.165838 0.149114,-0.318676 0.285574,-0.425948 0.02943,-0.02313 0.06056,-0.04415 0.08871,-0.06882 0.02815,-0.02468 0.05358,-0.05356 0.06816,-0.08804 0.01547,-0.03659 0.01788,-0.07747 0.01502,-0.117095 -0.0029,-0.03962 -0.01073,-0.07871 -0.01502,-0.1182 -0.01369,-0.125977 0.0095,-0.254149 0.054,-0.372815 0.04446,-0.118665 0.10963,-0.228561 0.181298,-0.333067 0.05333,-0.07777 0.110566,-0.153139 0.156863,-0.235294 0.131676,-0.233663 0.167427,-0.506994 0.22056,-0.769889 0.02657,-0.131448 0.05823,-0.262522 0.109188,-0.38657 0.05095,-0.124048 0.121999,-0.241421 0.219272,-0.333737 0.04044,-0.03838 0.08504,-0.07212 0.126838,-0.109015 0.0418,-0.0369 0.08129,-0.07759 0.108456,-0.126279 0.03269,-0.05858 0.04603,-0.125907 0.05388,-0.192525 0.0079,-0.06662 0.01071,-0.133997 0.02455,-0.199632 0.02793,-0.132424 0.0991,-0.251436 0.175449,-0.363179 0.07635,-0.111743 0.159587,-0.220011 0.216708,-0.342703 0.06984,-0.150022 0.098,-0.315927 0.156863,-0.470589 0.129445,-0.340118 0.399993,-0.609171 0.54902,-0.941176 0.06777,-0.150972 0.10911,-0.312144 0.156862,-0.470588 0.204725,-0.679289 0.53026,-1.31641 0.752478,-1.99018 0.222217,-0.67377 0.337149,-1.416039 0.110267,-2.088252 -0.173032,-0.512665 -0.536027,-0.947845 -0.971731,-1.268669 -0.435704,-0.320824 -0.94214,-0.534133 -1.459641,-0.692115 -0.942524,-0.287731 -1.927953,-0.399189 -2.901961,-0.54902 -1.225346,-0.188494 -2.446889,-0.440132 -3.686274,-0.470588 -0.679643,-0.0167 -1.360187,0.03336 -2.039216,0 -0.418828,-0.02058 -0.841904,-0.07261 -1.254902,0 -0.291119,0.05118 -0.567595,0.162833 -0.851403,0.245435 -0.283808,0.0826 -0.586407,0.136192 -0.874087,0.06829 -0.266681,-0.06294 -0.499917,-0.226006 -0.698402,-0.414908 -0.198486,-0.188902 -0.368329,-0.405521 -0.5565,-0.6047 -0.216646,-0.22932 -0.460016,-0.438509 -0.627451,-0.705883 -0.05011,-0.08002 -0.09347,-0.16532 -0.156863,-0.235294 -0.08798,-0.09712 -0.208041,-0.157806 -0.313725,-0.235294 -0.165283,-0.121186 -0.295382,-0.283696 -0.415011,-0.450109 -0.11963,-0.166414 -0.23142,-0.339433 -0.369303,-0.491067 -0.113166,-0.124451 -0.244028,-0.234024 -0.392157,-0.313726 -0.08651,-0.04655 -0.179265,-0.08322 -0.257026,-0.143258 -0.03888,-0.03002 -0.07375,-0.06593 -0.09858,-0.10831 -0.02482,-0.04238 -0.03924,-0.09154 -0.03655,-0.140589 0.0015,-0.02654 0.0078,-0.05257 0.01061,-0.07901 0.0028,-0.02643 0.0018,-0.05432 -0.01061,-0.07786 -0.007,-0.01337 -0.01747,-0.02479 -0.02952,-0.0339 -0.01205,-0.0091 -0.02567,-0.01599 -0.0398,-0.02135 -0.02824,-0.01073 -0.05834,-0.01548 -0.08755,-0.02317 -0.09734,-0.02565 -0.184324,-0.08453 -0.251051,-0.159903 -0.06673,-0.07537 -0.113919,-0.166697 -0.145393,-0.262316 -0.06295,-0.191238 -0.064,-0.396313 -0.07414,-0.597389 -0.01929,-0.382573 -0.07357,-0.762956 -0.08589,-1.145816 -0.01232,-0.382861 0.01919,-0.774192 0.164319,-1.128693 0.03143,-0.07678 0.06846,-0.152937 0.07843,-0.235295 0.01465,-0.121034 -0.03045,-0.240096 -0.05629,-0.359244 -0.01292,-0.05957 -0.02111,-0.120894 -0.01451,-0.181495 0.0066,-0.0606 0.02897,-0.120806 0.0708,-0.165143 0.04123,-0.04369 0.09944,-0.06957 0.159088,-0.07667 0.05965,-0.0071 0.120601,0.0037 0.176591,0.02551 0.111979,0.04354 0.202235,0.127914 0.291772,0.208029 0.597917,0.534997 1.292812,0.960607 2.039215,1.254902 0.569011,0.224352 1.185338,0.383164 1.647059,0.784313 0.06785,0.05895 0.133002,0.123569 0.214003,0.162527 0.0405,0.01948 0.08477,0.03214 0.129709,0.03261 0.04494,4.68e-4 0.09057,-0.01178 0.126877,-0.03827 0.02834,-0.02068 0.0503,-0.04944 0.06523,-0.08119 0.01493,-0.03175 0.02303,-0.06643 0.02641,-0.101346 0.0068,-0.06984 -0.005,-0.139938 -0.01322,-0.209621 -0.02758,-0.234015 -0.01524,-0.47074 0,-0.705882 0.06145,-0.947969 0.165095,-1.929793 -0.156863,-2.823529 -0.09271,-0.257358 -0.219353,-0.502138 -0.299995,-0.763529 -0.08064,-0.261391 -0.112562,-0.550029 -0.01373,-0.805099 0.0948,-0.244651 0.300567,-0.432455 0.528443,-0.562505 0.227875,-0.130049 0.480092,-0.209999 0.726459,-0.30024 0.558479,-0.204563 1.114222,-0.48032 1.490196,-0.941176 0.05899,-0.07231 0.113078,-0.148641 0.175058,-0.218398 0.06198,-0.06976 0.132914,-0.133503 0.217099,-0.173759 0.05291,-0.0253 0.111267,-0.04154 0.156862,-0.07843 0.04686,-0.03791 0.07621,-0.09663 0.07843,-0.156862 0.0527,-0.09948 0.135813,-0.182591 0.235294,-0.235295 0.05169,-0.02739 0.107658,-0.04679 0.156863,-0.07843 0.08815,-0.05669 0.149854,-0.152831 0.164676,-0.256587 0.01482,-0.103756 -0.01749,-0.213325 -0.08625,-0.292432 l 0.07843,-0.156863 c 0.01063,0.0096 0.02489,0.01508 0.03922,0.01508 0.01432,0 0.02858,-0.0055 0.03921,-0.01508 0.01027,-0.0093 0.01701,-0.02207 0.02027,-0.03551 0.0033,-0.01345 0.0032,-0.02754 0.0012,-0.04124 -0.0039,-0.0274 -0.01502,-0.05321 -0.0215,-0.08011 -0.01858,-0.07707 0.0026,-0.1602 0.04552,-0.226885 0.04288,-0.06668 0.105742,-0.118431 0.173166,-0.160141 0.134846,-0.08342 0.292887,-0.132187 0.408761,-0.240425 0.07097,-0.06629 0.122427,-0.152593 0.150397,-0.245595 0.02797,-0.093 0.03275,-0.192477 0.01732,-0.288361 C 22.803507,10.019384 22.692876,9.8462146 22.548754,9.7159994 22.404632,9.5857842 22.228494,9.4954821 22.046761,9.4269245 21.865028,9.3583669 21.676364,9.3102977 21.490196,9.254902 20.800841,9.0497791 20.145025,8.7439523 19.45767,8.5322263 18.770314,8.3205003 18.027857,8.2052851 17.333333,8.3921569 c -0.07856,0.021137 -0.156756,0.046164 -0.237795,0.053297 -0.08104,0.00713 -0.167011,-0.00543 -0.232793,-0.053297 -0.05321,-0.038717 -0.08943,-0.098344 -0.105538,-0.1621478 -0.01611,-0.063804 -0.013,-0.1315154 0.0025,-0.1954622 C 16.790806,7.9066533 16.868751,7.796168 16.941175,7.6862745 17.203071,7.2888816 17.41544,6.8438156 17.450845,6.3692029 17.468547,6.1318965 17.440794,5.889825 17.35657,5.6672625 17.272347,5.4447 17.130416,5.2423156 16.941175,5.0980392 c -0.0398,-0.030344 -0.08206,-0.058543 -0.114274,-0.096843 -0.01611,-0.01915 -0.02955,-0.040785 -0.03758,-0.064485 -0.008,-0.0237 -0.01049,-0.049551 -0.005,-0.073967 0.0064,-0.02859 0.02325,-0.053996 0.02982,-0.08255 0.0033,-0.014277 0.0039,-0.029502 -7.96e-4,-0.043387 -0.0023,-0.00694 -0.006,-0.013475 -0.01092,-0.018891 -0.0049,-0.00542 -0.01117,-0.00969 -0.01811,-0.012034 -0.01253,-0.00423 -0.0262,-0.002 -0.03923,2.058e-4 -0.0065,0.0011 -0.01306,0.00219 -0.01967,0.00243 -0.0066,2.402e-4 -0.01332,-3.897e-4 -0.01953,-0.00264 -0.01047,-0.00378 -0.01901,-0.012084 -0.02406,-0.022001 -0.0051,-0.00992 -0.0068,-0.021336 -0.0059,-0.032434 0.0016,-0.022197 0.01288,-0.042414 0.02432,-0.061505 0.01144,-0.019091 0.0236,-0.038503 0.02745,-0.060425 0.0019,-0.010961 0.0017,-0.022433 -0.0019,-0.032994 -0.0035,-0.01056 -0.01042,-0.020148 -0.01992,-0.025935 -0.01142,-0.00696 -0.02556,-0.00797 -0.03886,-0.00658 -0.0133,0.0014 -0.02629,0.00499 -0.03957,0.00658 -0.02786,0.00332 -0.05662,-0.00249 -0.08143,-0.015589 -0.02482,-0.013097 -0.04569,-0.033328 -0.06034,-0.057263 -0.01465,-0.023935 -0.02314,-0.051484 -0.02542,-0.079454 -0.0023,-0.027969 0.0016,-0.056331 0.01033,-0.082988 0.01394,-0.042365 0.04008,-0.080487 0.04929,-0.1241229 0.0046,-0.021818 0.0047,-0.045067 -0.0032,-0.065903 -0.004,-0.010418 -0.0099,-0.020122 -0.01778,-0.028049 -0.0078,-0.00793 -0.01758,-0.014042 -0.02827,-0.01722 -0.0126,-0.00374 -0.02603,-0.00335 -0.03912,-0.0022 -0.01309,0.00116 -0.0262,0.00305 -0.03931,0.0022 -0.02443,-0.00159 -0.04774,-0.012888 -0.06572,-0.029515 -0.01797,-0.016627 -0.03082,-0.038333 -0.03894,-0.061429 -0.01626,-0.046193 -0.01403,-0.096554 -0.01175,-0.1454715 0.0023,-0.048918 0.0042,-0.099351 -0.01266,-0.1453346 -0.0084,-0.022992 -0.02161,-0.044508 -0.0399,-0.060792 -0.01829,-0.016283 -0.04186,-0.027075 -0.06633,-0.028046 -0.01316,-5.225e-4 -0.02625,0.00173 -0.03936,0.00299 -0.01311,0.00126 -0.02667,0.00146 -0.03907,-0.00299 -0.01426,-0.00511 -0.0259,-0.01611 -0.03396,-0.028936 -0.0081,-0.012826 -0.01284,-0.027445 -0.01643,-0.042166 -0.0036,-0.014721 -0.0061,-0.029703 -0.0099,-0.044347 -0.0039,-0.014644 -0.0093,-0.029104 -0.01811,-0.041413 -0.01481,-0.020631 -0.03817,-0.033645 -0.06225,-0.0417 -0.02408,-0.00805 -0.04937,-0.011765 -0.07404,-0.01775 -0.02468,-0.00599 -0.0494,-0.014598 -0.06892,-0.030839 -0.0098,-0.00812 -0.01807,-0.018106 -0.02355,-0.029561 -0.0055,-0.011454 -0.008,-0.024408 -0.0065,-0.037013 0.0017,-0.013863 0.0081,-0.026716 0.01083,-0.040408 0.0014,-0.00685 0.0018,-0.013984 2.17e-4,-0.020785 -0.0016,-0.0068 -0.0053,-0.013255 -0.01105,-0.017238 -0.0055,-0.00385 -0.01254,-0.00515 -0.01928,-0.00485 -0.0067,2.968e-4 -0.01332,0.00207 -0.0198,0.00392 -0.0065,0.00184 -0.013,0.00378 -0.01972,0.00439 -0.0067,6.186e-4 -0.01374,-1.633e-4 -0.01963,-0.00346 -0.0063,-0.00352 -0.0108,-0.00972 -0.01308,-0.016536 -0.0023,-0.00682 -0.0024,-0.014223 -0.0013,-0.021321 0.0023,-0.014198 0.0094,-0.027067 0.01436,-0.040573 0.01142,-0.031267 0.01072,-0.066418 1.84e-4,-0.097994 -0.01054,-0.031577 -0.03057,-0.059603 -0.05556,-0.081595 -0.04998,-0.043984 -0.117431,-0.063062 -0.18365,-0.069965 -0.06622,-0.0069 -0.133112,-0.00295 -0.199537,-0.00745 -0.06643,-0.0045 -0.134439,-0.018408 -0.188889,-0.056721 -0.06061,-0.042648 -0.09851,-0.1111705 -0.156863,-0.1568627 -0.03705,-0.029008 -0.08134,-0.047875 -0.127072,-0.058961 -0.04573,-0.011085 -0.09298,-0.014626 -0.140034,-0.015119 -0.0941,-9.869e-4 -0.188912,0.010008 -0.281914,-0.00435 -0.135208,-0.020875 -0.25844,-0.09412 -0.394084,-0.1119497 -0.06782,-0.00891 -0.139398,-0.00298 -0.199842,0.02905 -0.03022,0.016013 -0.05723,0.038445 -0.07719,0.066224 -0.01995,0.027779 -0.03268,0.060968 -0.03477,0.095106 -0.0016,0.026117 0.0029,0.052429 0,0.078431 -0.0026,0.023197 -0.01117,0.045573 -0.0238,0.065208 -0.01262,0.019635 -0.02925,0.036567 -0.04799,0.050474 -0.0375,0.027813 -0.08281,0.043278 -0.12846,0.05304 -0.04565,0.00976 -0.09227,0.014219 -0.138233,0.022402 -0.04596,0.00818 -0.09194,0.020375 -0.132106,0.04417 -0.06433,0.038105 -0.108068,0.1021346 -0.151879,0.1627179 -0.02191,0.030292 -0.04443,0.060315 -0.07073,0.086877 -0.0263,0.026562 -0.05663,0.0497 -0.09111,0.06413 -0.02755,0.01153 -0.05717,0.017288 -0.08527,0.027402 -0.01405,0.00506 -0.02778,0.011237 -0.04019,0.019543 -0.01241,0.00831 -0.02351,0.018809 -0.0314,0.031486 -0.01419,0.022786 -0.01712,0.051002 -0.0147,0.077735 0.0024,0.026733 0.0098,0.052741 0.0147,0.079127 0.01662,0.088982 0.0053,0.1821678 -0.02657,0.2669004 -0.03185,0.084733 -0.08368,0.161211 -0.146224,0.2266468 -0.125095,0.1308718 -0.289657,0.2162525 -0.454653,0.2907665 -0.05332,0.024081 -0.107261,0.0474 -0.156862,0.078431 -0.126356,0.079052 -0.216836,0.2027686 -0.306968,0.3214761 -0.09013,0.1187075 -0.187355,0.2389516 -0.320483,0.3059749 -0.07398,0.037243 -0.155527,0.056141 -0.235294,0.078431 -0.284542,0.079511 -0.559635,0.2086784 -0.777594,0.4081265 -0.21796,0.1994481 -0.3750316,0.4738659 -0.3988771,0.7683441 -0.00254,0.031343 -0.0037,0.063353 -0.014467,0.092898 -0.00538,0.014773 -0.013199,0.028797 -0.023987,0.040235 -0.010788,0.011438 -0.024655,0.020202 -0.039977,0.02373 -0.012782,0.00294 -0.026099,0.00221 -0.039169,0.0011 -0.013069,-0.00111 -0.026231,-0.00259 -0.039262,-0.0011 -0.024605,0.00282 -0.047187,0.016296 -0.064221,0.034274 -0.017034,0.017978 -0.028945,0.040245 -0.038147,0.063238 -0.018404,0.045987 -0.027088,0.096523 -0.054495,0.1377819 -0.024358,0.036668 -0.061729,0.062957 -0.1012268,0.082393 -0.039497,0.019436 -0.081655,0.032782 -0.1225307,0.049123 -0.040875,0.016341 -0.08121,0.036168 -0.1133149,0.066286 -0.016052,0.015059 -0.02989,0.032625 -0.039699,0.052329 -0.00981,0.019704 -0.015518,0.041585 -0.015385,0.063595 7.92e-5,0.013166 0.00222,0.026223 0.00327,0.039347 0.00105,0.013124 9.577e-4,0.026614 -0.00327,0.039084 -0.00489,0.014432 -0.015135,0.026674 -0.027436,0.035668 -0.012301,0.00899 -0.026599,0.01493 -0.041208,0.019263 -0.029218,0.00867 -0.060297,0.011286 -0.088219,0.0235 -0.022108,0.00967 -0.041417,0.025093 -0.057388,0.043182 -0.015971,0.018089 -0.028722,0.038821 -0.039633,0.060344 -0.021821,0.043046 -0.036531,0.089513 -0.059844,0.1317697 C 8.8077329,7.3938339 8.7096177,7.4620455 8.6095767,7.5164651 8.5095357,7.5708846 8.403215,7.6158378 8.3137255,7.6862745 8.1973587,7.7778663 8.1157745,7.9076607 8,8 7.9259727,8.0590426 7.840156,8.1010309 7.7570508,8.1464138 c -0.083105,0.045383 -0.1655964,0.09578 -0.227639,0.1673117 -0.055662,0.064176 -0.0922,0.1422532 -0.136317,0.2148514 -0.044117,0.072598 -0.099666,0.1430573 -0.1774085,0.1773054 -0.027134,0.011953 -0.056126,0.019086 -0.083822,0.029669 -0.027697,0.010583 -0.054899,0.02531 -0.07304,0.048762 -0.018128,0.023433 -0.025475,0.053142 -0.034274,0.081432 -0.0044,0.014145 -0.00929,0.028213 -0.016257,0.041287 -0.00696,0.013074 -0.0161,0.025188 -0.0279,0.034144 -0.012082,0.00917 -0.026536,0.014734 -0.041193,0.01864 -0.014657,0.00391 -0.029679,0.00626 -0.044451,0.00971 -0.014772,0.00345 -0.029468,0.00806 -0.042356,0.01606 -0.012888,0.008 -0.023926,0.019683 -0.028864,0.034025 -0.00449,0.013033 -0.0037,0.027365 -6.972e-4,0.040819 0.003,0.013454 0.00811,0.026328 0.012246,0.039478 0.00413,0.01315 0.00732,0.026872 0.00627,0.040616 -5.242e-4,0.00687 -0.00212,0.013695 -0.00507,0.019927 -0.00294,0.00623 -0.00726,0.011862 -0.01275,0.016023 -0.0054,0.00409 -0.01185,0.0067 -0.018499,0.00801 -0.00665,0.00132 -0.013504,0.00138 -0.020246,6.901e-4 -0.013486,-0.00137 -0.026476,-0.00566 -0.039686,-0.0087 -0.068893,-0.015872 -0.143276,0.00347 -0.2011675,0.04405 -0.057892,0.04058 -0.1001689,0.1007927 -0.1274106,0.1660313 -0.054483,0.1304772 -0.05091,0.2765424 -0.063579,0.4173694 -0.00653,0.072576 -0.01835,0.1469309 -0.05603,0.2093011 -0.01884,0.03118 -0.044117,0.05884 -0.075108,0.078 -0.03099,0.01916 -0.067852,0.0295 -0.1041563,0.02642 -0.013212,-0.0011 -0.02623,-0.004 -0.03944,-0.0051 -0.01321,-0.0011 -0.026958,-4.68e-4 -0.038991,0.0051 -0.010251,0.0047 -0.018752,0.01288 -0.024748,0.02245 -0.006,0.0096 -0.00957,0.02054 -0.011321,0.03169 -0.0035,0.02232 1.469e-4,0.04505 0.00313,0.06745 0.00298,0.02239 0.00524,0.04553 -8.75e-4,0.06728 -0.00306,0.01087 -0.00825,0.02125 -0.01585,0.02961 -0.0076,0.0084 -0.017683,0.01462 -0.028762,0.01681 -0.012997,0.0026 -0.026353,-4.34e-4 -0.039429,-0.0026 -0.00654,-0.0011 -0.013144,-0.0019 -0.019767,-0.0018 -0.00662,1.71e-4 -0.013297,0.0014 -0.019235,0.0043 -0.00632,0.0031 -0.011639,0.0081 -0.015494,0.01403 -0.00386,0.0059 -0.00628,0.01269 -0.00743,0.01964 -0.00231,0.01391 3.641e-4,0.02821 0.0046,0.04166 0.00424,0.01345 0.010032,0.02637 0.014196,0.03985 0.00416,0.01347 0.00668,0.02782 0.00413,0.04169 -0.00352,0.0191 -0.016391,0.03543 -0.031776,0.04729 -0.015385,0.01186 -0.033298,0.01989 -0.050846,0.02822 -0.017548,0.0083 -0.035167,0.01724 -0.0494,0.03046 -0.00712,0.0066 -0.013322,0.01427 -0.017766,0.02291 -0.00444,0.0086 -0.00709,0.01827 -0.00708,0.02798 2.12e-5,0.0136 0.00515,0.02661 0.00768,0.03998 0.00126,0.0067 0.00187,0.01356 8.498e-4,0.02028 -0.00102,0.0067 -0.00377,0.01331 -0.00853,0.01817 -0.00477,0.0049 -0.011331,0.0078 -0.018059,0.0089 -0.00673,0.0011 -0.013643,5.98e-4 -0.020352,-6.39e-4 -0.013419,-0.0025 -0.026385,-0.0077 -0.04002,-0.0083 -0.012231,-4.55e-4 -0.024504,0.0031 -0.034931,0.0095 -0.010427,0.0064 -0.019017,0.01565 -0.025122,0.02626 -0.01221,0.02122 -0.01422,0.04724 -0.00938,0.07123 0.00484,0.02399 0.016068,0.04625 0.028995,0.06704 0.012927,0.02079 0.027655,0.04042 0.040432,0.0613 0.055828,0.09123 0.07148,0.206103 0.042096,0.308946 -0.029384,0.102844 -0.1033593,0.192106 -0.1989592,0.240074 z"
     id="path6"
     inkscape:path-effect="#path-effect7"
     inkscape:original-d="m 5.4901961,11.529412 c 0.052288,0.104575 0.1285058,0.200298 0.1568627,0.313725 0.1330609,0.532244 -0.075793,1.825986 -0.1568627,2.352941 -0.03205,0.208327 -0.059349,0.417539 -0.078431,0.627451 -0.0071,0.07811 -0.055459,0.179835 0,0.235295 0.5384798,0.538479 1.3420171,0.763959 1.9607843,1.17647 0.090498,0.06033 0.1447964,0.174962 0.2352941,0.235294 0.048641,0.03243 0.1244354,0.02979 0.1568628,0.07843 0.029004,0.0435 -0.012682,0.106136 0,0.156862 0.061959,0.247835 0.3980116,0.608138 0.5490196,0.784314 0.1561523,0.182178 0.5160899,0.404729 0.627451,0.627451 0.048207,0.09641 0.030225,0.217312 0.078431,0.313726 0.03307,0.06614 0.1171631,0.09448 0.1568628,0.156862 0.018843,0.02961 0.5705113,1.005652 0.627451,1.176471 0.085209,0.255626 0.021255,0.605453 0.078431,0.862745 0.025363,0.114134 0.1158099,0.204251 0.1568633,0.313725 0.199001,0.530669 -0.03275,0.106591 0.156862,0.54902 0.178383,0.416225 0.405402,0.824047 0.54902,1.254902 0.04216,0.126467 0.03628,0.26569 0.07843,0.392157 0.127548,0.382641 0.166763,0.206363 0.235295,0.549019 0.03519,0.175968 -0.03519,0.373052 0,0.54902 0.01146,0.05732 0.05994,0.101403 0.07843,0.156863 0.08489,0.254671 -5.43e-4,0.586334 0.07843,0.862745 0.143322,0.501624 0.526239,0.890919 0.784314,1.333333 0.08837,0.151488 0.138012,0.324665 0.235294,0.470589 0.80012,1.20018 2.776685,1.066988 3.372549,1.960784 0.252948,0.379422 0.569082,0.866379 0.627451,1.333333 0.01621,0.12971 -0.01728,0.262585 0,0.392157 0.03524,0.264277 0.123793,0.519757 0.156863,0.784314 0.04215,0.337245 -0.0212,0.6804 0,1.019608 0.01477,0.236281 0.0653,0.469504 0.07843,0.705882 0.01305,0.234932 -0.02598,0.472027 0,0.705882 0.236262,2.126357 0.09752,-0.595528 0.235294,1.333334 0.03972,0.55605 0.06642,1.104409 0.156863,1.647058 0.114467,0.686805 -0.114467,1.430843 0,2.117648 0.04635,0.278113 0.40312,1.413618 0.54902,1.647058 0.142138,0.227422 0.379289,0.353553 0.470588,0.627451 0.02919,0.08756 -0.01743,0.22657 0,0.313726 0.07458,0.372876 0.283325,0.62907 0.470588,0.941176 0.114782,0.191304 -0.09182,1.057861 0,1.333334 0.0816,0.244809 0.05229,-0.02614 0.156863,0.07843 0.03697,0.03697 -0.03697,0.11989 0,0.156863 0.111061,0.111061 0.461321,-0.07843 0.54902,-0.07843 0.140244,0 0.123363,0.100898 0.235294,0.156863 0.06764,0.03382 0.397542,0.02435 0.470588,0 0.161931,-0.05398 0.181555,-0.169209 0.313725,-0.235294 0.06275,-0.03137 0.172549,0.03137 0.235294,0 0.212554,-0.106277 0.09046,-0.003 0.392157,-0.07843 0.03587,-0.009 0.04336,-0.06674 0.07843,-0.07843 0.0496,-0.01653 0.110095,0.02338 0.156862,0 0.02338,-0.01169 -0.01849,-0.05994 0,-0.07843 0.04855,-0.04855 0.585989,0 0.627451,0 0.595346,0 1.193629,0.165616 1.803922,0.07843 0.07126,-0.01018 0.542263,-0.10007 0.627451,-0.156863 0.02175,-0.0145 -0.01849,-0.05994 0,-0.07843 0.06888,-0.06888 1.249252,-0.09649 1.411765,-0.07843 0.160954,0.01788 1.518544,0.285377 1.647059,0.156862 0.01849,-0.01849 -0.01849,-0.05994 0,-0.07843 0.03921,-0.03922 0.196078,0.03922 0.235294,0 0.05078,-0.05079 -0.03315,-0.886998 0,-1.019608 0.113317,-0.453269 0.259338,-0.989265 0.470588,-1.411764 0.07939,-0.158774 0.211153,-0.490689 0.313725,-0.627451 0.04437,-0.05916 0.1294,-0.08821 0.156863,-0.156863 0.02913,-0.07282 -0.01701,-0.158731 0,-0.235294 0.04477,-0.201465 0.188653,-0.732722 0.313726,-0.941177 0.03804,-0.06341 0.1294,-0.08821 0.156862,-0.156862 0.02913,-0.07282 -0.01289,-0.15793 0,-0.235295 0.03426,-0.20553 0.142083,-0.519459 0.235294,-0.705882 0.04216,-0.08431 0.12465,-0.146707 0.156863,-0.235294 0.177494,-0.488108 0.276103,-1.035335 0.54902,-1.490196 0.05707,-0.09511 0.200218,-0.130068 0.235294,-0.235294 0.03787,-0.113604 0.02288,-0.281052 0.07843,-0.392157 0.422702,-0.845403 -0.198895,0.712643 0.392157,-0.705882 0.06359,-0.152629 0.08757,-0.32046 0.156863,-0.470589 0.152202,-0.329772 0.398726,-0.61053 0.54902,-0.941176 0.06842,-0.150527 0.09327,-0.31796 0.156862,-0.470588 0.586199,-1.406878 1.061993,-2.484451 0.862745,-4.078432 -0.122531,-0.980251 -1.652407,-1.668672 -2.431372,-1.960784 -0.943792,-0.353922 -1.912063,-0.384037 -2.901961,-0.54902 -1.215229,-0.202538 -2.454532,-0.382606 -3.686274,-0.470588 -0.670976,-0.04793 -1.365653,0 -2.039216,0 -0.378457,0 -0.878151,-0.07535 -1.254902,0 -0.461266,0.09225 -1.210838,0.485276 -1.72549,0.313726 -0.549589,-0.183197 -0.890692,-0.564345 -1.254902,-1.019608 -0.200197,-0.250247 -0.429743,-0.442271 -0.627451,-0.705883 -0.05656,-0.07541 -0.09021,-0.16864 -0.156863,-0.235294 -0.09243,-0.09243 -0.221293,-0.142862 -0.313725,-0.235294 -0.281145,-0.281145 -0.546109,-0.62357 -0.784314,-0.941176 -0.103095,-0.137461 -0.296897,-0.170836 -0.392157,-0.313726 -0.170915,-0.256372 -0.237624,-0.186113 -0.392157,-0.392157 -0.03137,-0.04183 0.029,-0.113357 0,-0.156862 -0.03243,-0.04864 -0.120343,-0.03278 -0.156863,-0.07843 -0.181718,-0.227148 -0.39979,-0.736415 -0.470588,-1.019608 -0.107072,-0.42829 0.0049,-1.833556 0.07843,-2.274509 0.05907,-0.35439 -0.143765,0.431295 0.07843,-0.235295 0.0484,-0.145208 -0.1063,-0.599582 0,-0.705882 0.07588,-0.07588 0.616921,0.151598 0.627451,0.156863 1.182528,0.591264 0.796786,0.564663 2.039215,1.254902 0.531566,0.295314 1.094939,0.529489 1.647059,0.784313 0.113213,0.05225 0.451345,0.204973 0.470589,0.156863 0.04951,-0.123773 0.06371,-0.259664 0.07843,-0.392157 0.02598,-0.233855 -0.01954,-0.471401 0,-0.705882 0.08196,-0.983514 0.06007,-1.84732 -0.156863,-2.823529 -0.03857,-0.173584 -0.411643,-1.372792 -0.313725,-1.568628 0.200066,-0.400133 0.979713,-0.711391 1.254902,-0.862745 0.51086,-0.280973 1.043723,-0.558486 1.490196,-0.941176 0.140359,-0.120309 0.244265,-0.281239 0.392157,-0.392157 0.04677,-0.03508 0.115525,-0.0371 0.156862,-0.07843 0.04134,-0.04134 0.05229,-0.104575 0.07843,-0.156862 0.07843,-0.07843 0.148681,-0.166004 0.235294,-0.235295 0.04565,-0.03652 0.115526,-0.03709 0.156863,-0.07843 0.161818,-0.161818 0.01759,-0.366496 0.07843,-0.549019 0.02614,-0.05229 0.05229,-0.104576 0.07843,-0.156863 0.02614,0 0.06674,0.02338 0.07843,0 0.02338,-0.04677 -0.01654,-0.107259 0,-0.156863 0.04551,-0.13654 0.521552,-0.548027 0.627451,-0.627451 C 23.256198,10.30295 21.776645,9.4402515 21.490196,9.254902 20.21765,8.4314898 18.791359,8.3921569 17.333333,8.3921569 c -0.156862,0 -0.330286,0.070151 -0.470588,0 -0.05656,-0.028279 0.07843,-0.4260452 0.07843,-0.7058824 0,-0.3444178 0.08789,-2.3245518 0,-2.5882353 -0.01595,-0.047864 -0.140908,-0.1874303 -0.156862,-0.2352941 -0.01653,-0.049604 0.02338,-0.1100953 0,-0.1568627 -0.01169,-0.023384 -0.06674,0.023384 -0.07843,0 -0.03507,-0.070151 0.05546,-0.1798348 0,-0.2352942 -0.01849,-0.018486 -0.05994,0.018486 -0.07843,0 C 16.560803,4.4039342 16.512746,4.3196053 16.47059,4.2352941 16.44691,4.1879391 16.50685,4.036256 16.47059,4 16.4521,3.981514 16.41065,4.018486 16.39216,4 16.27451,3.8823529 16.27451,3.6470588 16.156863,3.5294118 c -0.01849,-0.018487 -0.05995,0.018486 -0.07843,0 C 16.037094,3.4880748 16.041337,3.413886 16,3.372549 15.904472,3.2770209 15.824768,3.33581 15.764706,3.2156863 c -0.01169,-0.023384 0.01849,-0.059945 0,-0.078431 -0.01849,-0.018486 -0.05995,0.018487 -0.07843,0 -0.01849,-0.018486 0.01849,-0.059945 0,-0.078431 -0.07091,-0.070914 -0.494371,-0.225005 -0.627451,-0.3137255 -0.06153,-0.041018 -0.08671,-0.133479 -0.156863,-0.1568627 -0.165277,-0.055092 -0.346906,-0.01106 -0.54902,-0.078431 -0.07516,-0.025054 -0.697859,0.070409 -0.705882,0.078431 -0.01849,0.018486 0.01849,0.059945 0,0.078431 -0.124011,0.1240109 -0.320203,0.1450629 -0.470588,0.2352941 -0.123147,0.073888 -0.194063,0.2339503 -0.313726,0.3137255 -0.04864,0.032427 -0.124435,0.02979 -0.156863,0.078431 -0.029,0.043506 0.02338,0.1100954 0,0.1568628 -0.02448,0.04895 -0.557889,0.7147519 -0.627451,0.7843137 -0.04134,0.041337 -0.110095,0.043356 -0.156862,0.078431 -0.231534,0.1736503 -0.386918,0.4670952 -0.627451,0.627451 -0.06879,0.045859 -0.164402,0.035896 -0.235294,0.078431 -0.219448,0.1316686 -1.003168,0.9454001 -1.1764711,1.1764706 -0.035076,0.046767 -0.037094,0.1155258 -0.078431,0.1568628 -0.018486,0.018486 -0.055048,-0.011692 -0.078431,0 -0.1201238,0.060062 -0.061335,0.139766 -0.1568628,0.2352941 -0.1234362,0.1234362 -0.2587733,0.1803419 -0.3921568,0.3137255 -0.018486,0.018486 0.018486,0.059945 0,0.078431 -0.041337,0.041337 -0.1155258,0.037094 -0.1568628,0.078431 C 8.952954,7.1254774 8.9293989,7.2274638 8.8627451,7.2941176 8.7037186,7.4531441 8.4844803,7.5399132 8.3137255,7.6862745 8.2014378,7.7825211 8.1154839,7.9076128 8,8 7.891262,8.0869904 7.6321812,8.2109561 7.5294118,8.3137255 7.4117647,8.4313725 7.3333333,8.5882353 7.2156863,8.7058823 c -0.041337,0.041337 -0.1155258,0.037094 -0.1568628,0.078431 -0.041337,0.041337 -0.037094,0.1155258 -0.078431,0.1568628 -0.1622773,0.1622773 0.00634,-0.2479812 -0.1568628,0.078431 -0.023384,0.046768 0.036973,0.1198899 0,0.1568628 -0.018486,0.018486 -0.059945,-0.018486 -0.078431,0 -0.1611644,0.1611644 -0.2655581,0.4375528 -0.3921568,0.627451 -0.045163,0.067745 -0.1893393,0.2677701 -0.2352941,0.3137251 -0.018486,0.01849 -0.059945,-0.01849 -0.078431,0 -0.058459,0.05846 -0.019972,0.176835 -0.078431,0.235294 -0.018486,0.01849 -0.059945,-0.01849 -0.078431,0 -0.036973,0.03697 0.023384,0.110095 0,0.156863 -0.1255814,0.251163 -0.031281,-0.0943 -0.1568627,0.156863 -0.011692,0.02338 0.018486,0.05994 0,0.07843 -0.018487,0.01849 -0.059945,-0.01849 -0.078431,0 -0.036256,0.03626 0.023677,0.187939 0,0.235294 -0.1193109,0.238622 -0.1568627,0.1959 -0.1568627,0.54902 z" />
  <path
     style="fill:#c6d1dc;fill-opacity:1;stroke:none;stroke-opacity:1"
     d="m 41.647059,28.235294 c -0.393435,0.0189 -0.789026,-0.0075 -1.176471,-0.07843 -0.355404,-0.06509 -0.719006,-0.176108 -0.978957,-0.427054 -0.129975,-0.125473 -0.229934,-0.284907 -0.270656,-0.460915 -0.04072,-0.176008 -0.0192,-0.368523 0.07314,-0.523796 0.01557,-0.02618 0.03344,-0.05227 0.03812,-0.08237 0.0023,-0.01505 0.0011,-0.0309 -0.0053,-0.04473 -0.0064,-0.01383 -0.01826,-0.02542 -0.03286,-0.02975 -0.01263,-0.0037 -0.02616,-0.002 -0.0392,-1.55e-4 -0.01305,0.0018 -0.02654,0.0037 -0.03923,1.55e-4 -0.0109,-0.003 -0.02051,-0.01003 -0.02755,-0.01889 -0.007,-0.0089 -0.01159,-0.01954 -0.01409,-0.03059 -0.005,-0.02208 -0.0019,-0.0451 0.0014,-0.0675 0.0032,-0.02241 0.0066,-0.04535 0.002,-0.06752 -0.0023,-0.01109 -0.0066,-0.02187 -0.01332,-0.03094 -0.0068,-0.0091 -0.01612,-0.01637 -0.02689,-0.01985 -0.01253,-0.004 -0.02608,-0.0028 -0.03914,-0.0011 -0.01306,0.0017 -0.02638,0.0037 -0.03929,0.0011 -0.01105,-0.0022 -0.02134,-0.0078 -0.02958,-0.01546 -0.0082,-0.0077 -0.01448,-0.01742 -0.01853,-0.02793 -0.0081,-0.02104 -0.0074,-0.04465 -0.002,-0.06655 0.01071,-0.04379 0.03878,-0.08172 0.05012,-0.125349 0.01129,-0.04346 0.005,-0.09042 -0.01279,-0.131644 -0.01779,-0.04123 -0.04654,-0.07706 -0.0796,-0.107444 -0.06612,-0.06078 -0.14865,-0.10031 -0.221328,-0.153069 -0.03939,-0.02859 -0.0762,-0.06144 -0.104726,-0.100877 -0.02852,-0.03944 -0.04851,-0.08588 -0.05214,-0.134417 -0.0039,-0.05229 0.01101,-0.105596 0,-0.156863 -0.007,-0.03251 -0.02412,-0.06215 -0.04519,-0.08787 -0.02108,-0.02572 -0.0461,-0.04788 -0.07108,-0.06981 -0.02499,-0.02194 -0.05017,-0.04388 -0.07166,-0.06925 -0.02149,-0.02537 -0.03932,-0.05453 -0.04736,-0.08679 -0.01268,-0.05094 -1.38e-4,-0.104367 0,-0.156863 2.34e-4,-0.08922 -0.03568,-0.17499 -0.08223,-0.251103 -0.04655,-0.07611 -0.103962,-0.144998 -0.153067,-0.219485 -0.166316,-0.252282 -0.231012,-0.560605 -0.235294,-0.862745 -0.0041,-0.287973 0.04333,-0.57802 0,-0.862745 -0.04111,-0.27018 -0.161793,-0.521093 -0.235294,-0.784314 -0.07102,-0.254322 -0.09768,-0.520965 -0.07843,-0.784314 -0.07404,-0.120551 -0.127337,-0.253801 -0.156862,-0.392157 -0.06581,-0.308372 -0.01317,-0.632689 -0.07843,-0.941176 -0.02231,-0.105484 -0.05819,-0.207824 -0.07843,-0.313726 -0.04694,-0.245653 -0.0081,-0.498421 0.02319,-0.746559 0.03124,-0.248138 0.05393,-0.505725 -0.02319,-0.743637 -0.06148,-0.189683 -0.18349,-0.356468 -0.235294,-0.549019 -0.05553,-0.206418 -0.02564,-0.42785 0.04141,-0.630819 0.06705,-0.20297 0.169734,-0.391909 0.263546,-0.583981 0.09381,-0.192071 0.180064,-0.39132 0.210535,-0.602895 0.03047,-0.211574 -2.9e-5,-0.439069 -0.123334,-0.613678 -0.04286,-0.0607 -0.09617,-0.114 -0.156863,-0.156863 -3.69e-4,-0.08408 -0.02828,-0.16781 -0.07843,-0.235294 -0.06629,-0.0892 -0.167296,-0.147399 -0.235295,-0.235294 -0.06125,-0.07918 -0.09184,-0.177215 -0.120284,-0.273192 -0.02845,-0.09598 -0.05693,-0.194295 -0.11501,-0.275827 -0.06447,-0.0905 -0.160376,-0.15324 -0.235294,-0.235295 -0.119173,-0.130526 -0.17958,-0.302852 -0.235294,-0.470588 -0.05598,-0.168528 -0.113043,-0.342703 -0.229902,-0.476416 -0.05843,-0.06686 -0.131654,-0.122138 -0.215354,-0.15177 -0.0837,-0.02963 -0.178204,-0.03229 -0.260626,7.35e-4 -0.02681,0.01074 -0.05261,0.02521 -0.08115,0.02961 -0.01427,0.0022 -0.02914,0.0017 -0.04279,-0.003 -0.01364,-0.0047 -0.02597,-0.01398 -0.03292,-0.02663 -0.0064,-0.01172 -0.008,-0.02561 -0.007,-0.03895 9.68e-4,-0.01334 0.0043,-0.02638 0.007,-0.03948 0.02235,-0.107457 0.0049,-0.219856 -0.02889,-0.32427 -0.03382,-0.104414 -0.08358,-0.202801 -0.127969,-0.303181 -0.325251,-0.735569 -0.353976,-1.597346 -0.07843,-2.3529413 0.08973,-0.2248344 0.142925,-0.4642048 0.156863,-0.7058824 0.01355,-0.2349639 -0.0097,-0.4707295 0,-0.7058823 0.0098,-0.2364477 0.05285,-0.4700739 0.08175,-0.704953 0.0289,-0.2348792 0.04347,-0.4748317 -0.0033,-0.7068117 -0.02639,-0.1308759 -0.07221,-0.2587914 -0.07843,-0.3921569 -0.0037,-0.078681 0.0066,-0.1572442 0.01261,-0.23578 0.006,-0.078536 0.0077,-0.1587067 -0.01261,-0.2348082 -0.02273,-0.085122 -0.07163,-0.160485 -0.119298,-0.2345778 -0.04767,-0.074093 -0.09561,-0.150299 -0.115996,-0.2360104 -0.02819,-0.1185041 -0.0011,-0.2420396 0.0094,-0.363404 0.0052,-0.060682 0.0061,-0.1223104 -0.0061,-0.1819718 -0.01225,-0.059661 -0.03846,-0.1175991 -0.08169,-0.1605066 -0.02633,-0.026141 -0.05892,-0.046865 -0.07843,-0.078431 -0.01401,-0.022678 -0.02019,-0.049554 -0.02118,-0.076194 -9.88e-4,-0.026639 0.003,-0.053216 0.008,-0.079389 0.01012,-0.052346 0.02467,-0.1060901 0.01313,-0.158143 -0.0061,-0.027505 -0.01928,-0.053149 -0.02425,-0.08088 -0.0025,-0.013865 -0.0028,-0.028309 8.39e-4,-0.041906 0.0037,-0.013597 0.01166,-0.02631 0.02341,-0.034077 0.0087,-0.00578 0.0193,-0.00864 0.02979,-0.00863 0.01049,9.4e-6 0.02089,0.00282 0.03024,0.00758 0.01869,0.00952 0.03273,0.026412 0.04287,0.044772 0.01014,0.01836 0.01682,0.038377 0.02438,0.057941 0.0076,0.019564 0.01621,0.039058 0.0296,0.055202 0.01554,0.018734 0.03674,0.032032 0.05893,0.042024 0.02219,0.00999 0.0456,0.016953 0.06853,0.025104 0.02293,0.00815 0.04569,0.01765 0.0653,0.032061 0.01961,0.014411 0.03602,0.034226 0.04254,0.057675 0.0071,0.025476 0.0021,0.052528 -0.0022,0.078616 -0.0022,0.013044 -0.0041,0.026171 -0.0043,0.03939 -1.57e-4,0.01322 0.0016,0.026606 0.0065,0.038856 0.0057,0.014145 0.01572,0.026361 0.02764,0.035898 0.01192,0.00954 0.02575,0.016491 0.04011,0.021673 0.02872,0.010364 0.05942,0.013755 0.08911,0.02086 0.0869,0.020792 0.164751,0.074284 0.219272,0.1450714 0.05452,0.070788 0.08611,0.1581264 0.09445,0.2470855 0.0049,0.052101 0.0021,0.1045734 0,0.1568627 -0.0068,0.1727995 -0.0039,0.3521012 0.06806,0.5093425 0.03599,0.078621 0.08942,0.1502223 0.159356,0.201071 0.06994,0.050849 0.156916,0.079931 0.243172,0.0739 0.02637,-0.00184 0.05243,-0.00687 0.07878,-0.00892 0.02635,-0.00205 0.05356,-9.682e-4 0.07808,0.00892 0.02236,0.00901 0.04144,0.025015 0.05659,0.043769 0.01515,0.018754 0.02657,0.040238 0.03645,0.062225 0.01977,0.043975 0.03418,0.091277 0.06382,0.1292999 0.02385,0.030585 0.0564,0.053457 0.09104,0.070903 0.03464,0.017445 0.07156,0.029816 0.108189,0.042549 0.03663,0.012733 0.07332,0.025976 0.107122,0.04499 0.0338,0.019015 0.06486,0.044212 0.0858,0.076853 0.02244,0.034964 0.03213,0.076379 0.04087,0.1169934 0.0087,0.040614 0.01717,0.08211 0.03756,0.1183007 0.0267,0.047367 0.07214,0.081929 0.121321,0.1051118 0.04918,0.023183 0.102461,0.036072 0.155251,0.049095 0.05279,0.013023 0.105985,0.026499 0.154664,0.050721 0.04868,0.024222 0.09312,0.06034 0.117783,0.1087975 0.01344,0.0264 0.02058,0.055468 0.03076,0.083288 0.01017,0.02782 0.02422,0.055481 0.04767,0.073575 0.01601,0.012347 0.03562,0.019515 0.05561,0.022506 0.01999,0.00299 0.04041,0.00196 0.06042,-9.109e-4 0.04002,-0.00573 0.07893,-0.018736 0.119261,-0.021595 0.07309,-0.00518 0.1454,0.023779 0.204752,0.066744 0.05935,0.042965 0.107531,0.099299 0.154154,0.1558219 0.04662,0.056523 0.09272,0.1142338 0.149105,0.1610256 0.05638,0.046792 0.124739,0.082498 0.197871,0.086997 0.04464,0.00275 0.08915,-0.00614 0.132595,-0.016782 0.04344,-0.010639 0.08667,-0.023115 0.131151,-0.027758 0.04448,-0.00464 0.09104,-9.642e-4 0.130913,0.01929 0.01994,0.010127 0.03793,0.02435 0.05146,0.042157 0.01353,0.017807 0.02248,0.039251 0.02447,0.061525 0.0023,0.026097 -0.0048,0.052664 0,0.078431 0.003,0.016102 0.01057,0.031242 0.02123,0.043668 0.01066,0.012426 0.02433,0.02216 0.03931,0.028764 0.02997,0.013207 0.06448,0.01368 0.09632,0.006 0.05972,-0.014408 0.110109,-0.055477 0.169419,-0.071484 0.02966,-0.008 0.06209,-0.00929 0.09045,0.00249 0.01418,0.00589 0.02711,0.015027 0.03678,0.026962 0.0097,0.011936 0.01596,0.026713 0.01708,0.042031 9.57e-4,0.013189 -0.0019,0.026315 -0.0035,0.039436 -0.0016,0.013121 -0.002,0.026969 0.0035,0.038995 0.003,0.00655 0.0077,0.012295 0.01326,0.016814 0.0056,0.00452 0.01215,0.00783 0.01904,0.00995 0.01377,0.00424 0.02865,0.00371 0.04274,7.228e-4 0.02818,-0.00597 0.05368,-0.021323 0.08183,-0.027482 0.02941,-0.00644 0.06047,-0.00241 0.0888,0.00779 0.02833,0.010203 0.05417,0.026351 0.07834,0.044313 C 39.901751,7.9311706 39.945093,7.9752705 40,8 c 0.07073,0.031857 0.152689,0.027693 0.228437,0.010954 0.07575,-0.016739 0.148555,-0.045268 0.224529,-0.060948 0.07597,-0.01568 0.158356,-0.017499 0.227694,0.01729 0.03467,0.017395 0.06516,0.043924 0.08464,0.077469 0.01947,0.033545 0.02738,0.074224 0.01902,0.1120981 -0.0029,0.013348 -0.0078,0.02629 -0.0095,0.039855 -8.45e-4,0.00678 -8.71e-4,0.013718 5.61e-4,0.020401 0.0014,0.00668 0.0044,0.013119 0.009,0.018175 0.0048,0.00523 0.01116,0.00883 0.01796,0.010715 0.0068,0.00189 0.01401,0.00211 0.02102,0.00122 0.01402,-0.0018 0.02705,-0.00794 0.03988,-0.01384 0.01284,-0.0059 0.02607,-0.011731 0.04016,-0.012829 0.007,-5.49e-4 0.01424,1.268e-4 0.02089,0.00252 0.0066,0.00239 0.01273,0.00655 0.01695,0.01222 0.004,0.00539 0.0062,0.011975 0.007,0.01864 8.17e-4,0.00666 3.02e-4,0.013432 -7.43e-4,0.020065 -0.0021,0.013265 -0.0063,0.026298 -0.0063,0.039727 2.5e-5,0.016134 0.0063,0.031959 0.01639,0.044584 0.01005,0.012625 0.02366,0.022155 0.03845,0.028604 0.02958,0.012897 0.06287,0.013595 0.09514,0.01313 0.03227,-4.649e-4 0.0652,-0.0018 0.0961,0.0075 0.01545,0.00465 0.03023,0.012014 0.04235,0.022662 0.01212,0.010648 0.02149,0.024702 0.0253,0.040379 0.0031,0.012747 0.0025,0.026082 0.0014,0.039157 -0.0011,0.013074 -0.0027,0.026213 -0.0014,0.039274 0.0023,0.024182 0.01412,0.046651 0.02941,0.065525 0.01529,0.018874 0.03401,0.034622 0.0524,0.050492 0.01839,0.01587 0.03673,0.032157 0.051,0.051813 0.01427,0.019656 0.02434,0.043176 0.02406,0.067465 -3.2e-4,0.028025 -0.01406,0.053944 -0.02068,0.081178 -0.0033,0.013617 -0.0048,0.027932 -0.0019,0.041644 0.0014,0.00686 0.004,0.013505 0.0078,0.019399 0.0038,0.00589 0.0088,0.011021 0.01483,0.014642 0.01145,0.00691 0.02556,0.00794 0.03886,0.00656 0.0133,-0.00138 0.02629,-0.00495 0.03957,-0.00656 0.03522,-0.00427 0.07159,0.00579 0.100961,0.025695 0.02937,0.019903 0.05185,0.049225 0.06566,0.081906 0.01381,0.032681 0.01919,0.068607 0.01796,0.1040666 -0.0012,0.035459 -0.0089,0.0705 -0.02035,0.1040889 -0.02286,0.067178 -0.0603,0.128233 -0.09383,0.190771 -0.03353,0.062538 -0.06385,0.1286978 -0.07041,0.1993548 -0.0077,0.083295 0.01819,0.1661959 0.05218,0.242631 0.03399,0.076435 0.07638,0.1492364 0.104681,0.2279574 0.06237,0.173512 0.0525,0.364037 0.03135,0.547203 -0.02115,0.183165 -0.0528,0.367706 -0.03135,0.550836 0.02219,0.1894 0.09996,0.367013 0.156863,0.54902 0.196577,0.628766 0.142988,1.305176 0.07843,1.960784 -0.01561,0.158535 -0.03198,0.318208 -0.07843,0.470588 -0.03174,0.104132 -0.07716,0.203583 -0.111794,0.306789 -0.03463,0.103207 -0.05853,0.212636 -0.04507,0.320662 0.01129,0.09059 0.04827,0.175846 0.08829,0.257899 0.04002,0.08205 0.08375,0.16299 0.110135,0.250385 0.02639,0.0874 0.03437,0.183496 0.0024,0.269014 -0.01598,0.04276 -0.04191,0.08211 -0.07671,0.11165 -0.0348,0.02954 -0.0786,0.04894 -0.12413,0.05223 -0.02609,0.0019 -0.05232,-0.0014 -0.07843,0 -0.04664,0.0025 -0.09199,0.02047 -0.129206,0.0487 -0.03721,0.02824 -0.06638,0.06651 -0.08588,0.108956 -0.03901,0.08489 -0.03884,0.183769 -0.01662,0.274513 0.04444,0.181488 0.169813,0.3327 0.231703,0.509002 0.05672,0.161577 0.05772,0.336799 0.05332,0.507986 -0.0044,0.171187 -0.01333,0.344748 0.02511,0.511622 0.02422,0.105153 0.0668,0.205331 0.0921,0.31023 0.01265,0.05245 0.02095,0.10622 0.02015,0.160167 -8.08e-4,0.05395 -0.01094,0.10819 -0.03382,0.157054 -0.01364,0.02914 -0.0316,0.05602 -0.04806,0.08367 -0.01646,0.02765 -0.03163,0.05658 -0.0389,0.08793 -0.0073,0.03135 -0.006,0.06563 0.0091,0.09403 0.0076,0.0142 0.01853,0.02669 0.03208,0.03536 0.01355,0.0087 0.0297,0.01344 0.04578,0.01273 0.01345,-5.95e-4 0.02643,-0.0049 0.03975,-0.0069 0.0067,-9.93e-4 0.01345,-0.0014 0.02012,-4.68e-4 0.0067,9.34e-4 0.01322,0.0033 0.01857,0.0074 0.0056,0.0043 0.0097,0.01036 0.01205,0.01699 0.0024,0.0066 0.0031,0.01379 0.0025,0.02081 -0.001,0.01404 -0.0067,0.02729 -0.01243,0.04014 -0.0058,0.01285 -0.01177,0.02587 -0.01358,0.03983 -9.04e-4,0.007 -7.22e-4,0.01416 0.0011,0.02096 0.0018,0.0068 0.0053,0.01324 0.01033,0.01812 0.005,0.0048 0.01135,0.0079 0.01804,0.0096 0.0067,0.0016 0.01368,0.0018 0.02053,0.001 0.01369,-0.0015 0.02667,-0.0066 0.03987,-0.01059 0.05999,-0.01798 0.125964,-0.01191 0.18387,0.01194 0.0579,0.02386 0.10794,0.06476 0.147198,0.113551 0.07851,0.09759 0.113285,0.222619 0.13952,0.345095 0.02792,0.130358 0.04838,0.262271 0.07843,0.392156 0.05849,0.252817 0.155218,0.500426 0.313725,0.705883 0.06959,0.09021 0.150239,0.171281 0.222987,0.258967 0.07275,0.08769 0.138507,0.183915 0.171682,0.292912 0.01659,0.0545 0.02476,0.111822 0.02104,0.168668 -0.0037,0.05685 -0.01953,0.113204 -0.04854,0.162234 -0.02901,0.04903 -0.07144,0.09049 -0.122496,0.11576 -0.05106,0.02527 -0.110724,0.03381 -0.166247,0.02107 -0.01319,-0.003 -0.02619,-0.0072 -0.03966,-0.0086 -0.0067,-6.65e-4 -0.01358,-5.99e-4 -0.02022,6.96e-4 -0.0066,0.0013 -0.01309,0.0038 -0.01854,0.0079 -0.0056,0.0041 -0.01,0.0096 -0.01306,0.0158 -0.0031,0.0062 -0.0049,0.01295 -0.0056,0.01981 -0.0014,0.01372 0.0014,0.02754 0.0054,0.04077 0.0039,0.01322 0.009,0.02612 0.01221,0.03953 0.0032,0.01341 0.0046,0.02761 0.0011,0.04094 -0.0048,0.01823 -0.01828,0.03297 -0.03302,0.04473 -0.01475,0.01175 -0.03121,0.0213 -0.04541,0.0337 -0.02578,0.02253 -0.04298,0.05372 -0.05279,0.08651 -0.0098,0.0328 -0.01262,0.0673 -0.01301,0.101532 -7.78e-4,0.06846 0.0077,0.138723 -0.01263,0.204111 -0.01405,0.04525 -0.04112,0.0853 -0.07032,0.122615 -0.0292,0.03731 -0.06099,0.07278 -0.08654,0.112679 -0.05901,0.09216 -0.08177,0.204342 -0.07843,0.313725 0.0025,0.08311 0.0194,0.165637 0.01663,0.248743 -0.0014,0.04155 -0.0078,0.08327 -0.02288,0.122003 -0.0151,0.03874 -0.03924,0.07447 -0.07218,0.09984 -0.015,0.01156 -0.03166,0.02088 -0.04637,0.0328 -0.01471,0.01192 -0.02778,0.02718 -0.03206,0.04563 -0.0031,0.01355 -0.0013,0.02782 0.0023,0.04125 0.0036,0.01343 0.009,0.02633 0.01304,0.03964 0.0041,0.01331 0.0068,0.02731 0.0051,0.04111 -8.83e-4,0.0069 -0.0029,0.01369 -0.0063,0.01975 -0.0034,0.0061 -0.0082,0.0114 -0.01408,0.01511 -0.0057,0.0036 -0.0122,0.0056 -0.01883,0.0064 -0.0066,8.26e-4 -0.01336,5.07e-4 -0.01999,-3.24e-4 -0.01326,-0.0017 -0.02626,-0.0054 -0.03961,-0.0061 -0.02314,-0.0012 -0.04639,0.0069 -0.06473,0.02105 -0.01835,0.01416 -0.03188,0.0341 -0.0398,0.05588 -0.01583,0.04356 -0.0093,0.09248 0.0065,0.136078 0.01572,0.0436 0.04003,0.08349 0.0606,0.125018 0.02058,0.04153 0.03775,0.08622 0.03746,0.132562 -3.79e-4,0.05924 -0.02914,0.114532 -0.06213,0.16374 -0.03298,0.04921 -0.07121,0.09562 -0.09474,0.149985 -0.02124,0.04908 -0.02965,0.102901 -0.0316,0.156345 -0.002,0.05344 0.0023,0.106888 0.0055,0.160274 0.0032,0.05339 0.0052,0.107121 -0.0013,0.160207 -0.0065,0.05309 -0.02181,0.10584 -0.05104,0.150625 -0.02035,0.03118 -0.04725,0.05808 -0.07843,0.07843 -0.03184,0.04917 -0.0582,0.101887 -0.07843,0.156862 -0.08211,0.22312 -0.05996,0.468854 -0.07843,0.705883 -0.02715,0.348367 -0.143324,0.682505 -0.235294,1.019608 -0.05629,0.206318 -0.103954,0.416445 -0.113494,0.630091 -0.0095,0.213646 0.02055,0.432205 0.113494,0.624811 0.05717,0.118469 0.137571,0.225672 0.235294,0.313725 z"
     id="path7"
     inkscape:path-effect="#path-effect8"
     inkscape:original-d="m 41.647059,28.235294 c -0.384315,-0.0368 -0.806237,0.08024 -1.176471,-0.07843 -0.40124,-0.17196 -1.039589,-1.001121 -1.17647,-1.411765 -0.01653,-0.0496 0.02338,-0.110095 0,-0.156863 -0.01169,-0.02338 -0.06393,0.02175 -0.07843,0 -0.04586,-0.06879 -0.03257,-0.166505 -0.07843,-0.235294 -0.0145,-0.02175 -0.06674,0.02338 -0.07843,0 -0.03137,-0.06274 0.03137,-0.172549 0,-0.235294 -0.07487,-0.149729 -0.220868,-0.25287 -0.313726,-0.392157 -0.05229,-0.07843 -0.114707,-0.150983 -0.156863,-0.235294 -0.02338,-0.04677 0.02338,-0.110095 0,-0.156863 -0.06156,-0.123123 -0.170047,-0.183231 -0.235294,-0.313725 -0.02338,-0.04677 0.01653,-0.107259 0,-0.156863 -0.05546,-0.166378 -0.192759,-0.300447 -0.235294,-0.470588 -0.07194,-0.287774 -0.161149,-0.566163 -0.235294,-0.862745 -0.0681,-0.272405 0.06089,-0.588722 0,-0.862745 -0.06192,-0.278651 -0.169668,-0.521808 -0.235294,-0.784314 -0.06077,-0.243076 -0.03706,-0.536097 -0.07843,-0.784314 0.02724,-0.159579 -0.129251,-0.254102 -0.156862,-0.392157 -0.06038,-0.301896 -0.04022,-0.635448 -0.07843,-0.941176 -0.01337,-0.106961 -0.06653,-0.206591 -0.07843,-0.313726 -0.04352,-0.391673 0.120044,-1.130063 0,-1.490196 -0.05868,-0.176038 -0.194832,-0.346706 -0.235294,-0.549019 -0.11907,-0.595348 0.606855,-2.109326 0.392157,-2.431373 -0.04102,-0.06153 -0.104575,-0.104575 -0.156863,-0.156863 -0.02614,-0.07843 -0.03257,-0.166505 -0.07843,-0.235294 -0.06153,-0.09229 -0.178227,-0.140182 -0.235295,-0.235294 -0.102438,-0.170731 -0.132855,-0.378288 -0.235294,-0.549019 -0.05707,-0.09511 -0.173767,-0.143005 -0.235294,-0.235295 -0.47164,-0.70746 0.381768,0.269887 -0.235294,-0.470588 -0.137606,-0.165127 -0.520061,-0.53454 -0.705882,-0.627451 -0.04677,-0.02338 -0.110096,0.02338 -0.156863,0 -0.02338,-0.01169 0,-0.05229 0,-0.07843 0,-0.213245 -0.13015,-0.413752 -0.156863,-0.627451 -0.09388,-0.751031 -0.154709,-1.590167 -0.07843,-2.3529413 -0.0045,-0.2461982 0.130245,-0.4663227 0.156863,-0.7058824 0.02598,-0.2338549 -0.03328,-0.472953 0,-0.7058823 0.0619,-0.4332824 0.143259,-0.9579708 0.07843,-1.4117647 -0.01885,-0.1319679 -0.05958,-0.260189 -0.07843,-0.3921569 -0.02025,-0.1417569 0.04505,-0.3354277 0,-0.4705882 -0.0472,-0.1416139 -0.182261,-0.3114874 -0.235294,-0.4705882 -0.04925,-0.1477416 -0.0086,-0.5662819 -0.07843,-0.7058824 -0.01654,-0.03307 -0.0619,-0.045362 -0.07843,-0.078431 -0.03257,-0.065136 0,-0.2393701 0,-0.3137255 0,-0.052287 -0.05229,-0.1568627 0,-0.1568627 0.07395,0 0.09771,0.1124953 0.156863,0.1568627 0.07541,0.056558 0.178736,0.081453 0.235294,0.1568628 0.03137,0.04183 -0.029,0.1133568 0,0.1568627 0.03243,0.048641 0.115525,0.037094 0.156862,0.078431 0.01438,0.014384 0.313415,0.3912248 0.313726,0.3921569 0.01654,0.049604 -0.01653,0.1072584 0,0.1568627 0.04376,0.1312821 0.383958,0.7409986 0.470588,0.7843137 0.08366,0.04183 0.0732,-0.04183 0.156863,0 0.120124,0.060062 0.06133,0.139766 0.156863,0.2352942 0.03983,0.039833 0.358145,0.2012826 0.392156,0.2352941 0.0028,0.00276 0.05051,0.2073689 0.07843,0.2352941 0.02841,0.02841 0.463085,0.2564358 0.549019,0.3137255 0.04864,0.032427 0.02614,0.1307189 0.07843,0.1568627 0.07015,0.035076 0.172549,-0.047059 0.235294,0 0.213094,0.1598206 0.434122,0.3800014 0.705882,0.4705883 0.146792,0.04893 0.333457,0.00987 0.470589,0.078431 0.02338,0.011692 -0.01849,0.059945 0,0.078431 0.04134,0.041337 0.104575,0.052288 0.156862,0.078431 0.08366,0.04183 0.230066,-0.04183 0.313726,0 0.02338,0.011692 -0.01849,0.059945 0,0.078431 0.03697,0.036973 0.110095,-0.023384 0.156862,0 C 39.800192,7.9000961 39.855355,7.9638387 40,8 c 0.16899,0.042248 0.669149,0.041698 0.784314,0.1568627 0.01849,0.018486 -0.01849,0.059945 0,0.078431 0.03697,0.036973 0.11989,-0.036973 0.156862,0 0.01849,0.018486 -0.01849,0.059945 0,0.078431 0.04862,0.048615 0.276077,0.1192138 0.313726,0.1568627 0.01849,0.018486 -0.0083,0.053629 0,0.078431 0.02981,0.089426 0.127054,0.1458686 0.156863,0.2352941 0.01653,0.049604 -0.02338,0.1100953 0,0.1568628 0.01169,0.023384 0.05994,-0.018486 0.07843,0 0.104613,0.1046132 -0.04002,0.5457997 0,0.7058823 0.0401,0.160411 0.11676,0.3101773 0.156863,0.4705884 0.08612,0.344483 -0.08612,0.753556 0,1.098039 0.04745,0.189819 0.09469,0.36249 0.156863,0.54902 0.02306,0.06917 0.123005,1.871635 0.07843,1.960784 -0.102262,0.204524 -0.02465,0.255455 -0.07843,0.470588 -0.05151,0.206052 -0.120758,0.410818 -0.156863,0.627451 -0.0072,0.04313 0.01289,0.928288 0,0.941177 -0.01849,0.01849 -0.07016,-0.0248 -0.07843,0 -0.0826,0.247812 0,0.668593 0,0.941176 0,0.35805 0.0205,0.672011 0.07843,1.019608 0.04171,0.250254 -0.02894,0.412714 0.07843,0.627451 0.03265,0.0653 -0.04975,0.263976 0,0.313726 0.01849,0.01849 0.05994,-0.01849 0.07843,0 0.03697,0.03697 -0.03697,0.119889 0,0.156862 0.01849,0.01849 0.05505,-0.01169 0.07843,0 0.161345,0.08067 0.392324,0.314061 0.470588,0.470589 0.05452,0.109042 0.01077,0.256833 0.07843,0.392156 0.131883,0.263767 0.195554,0.469541 0.313725,0.705883 0.0389,0.07779 0.140346,0.957693 0.07843,1.019608 -0.01849,0.01849 -0.06674,-0.02338 -0.07843,0 -0.02338,0.04677 0.01654,0.107258 0,0.156862 -0.01169,0.03508 -0.0619,0.04536 -0.07843,0.07843 -0.378741,0.757481 0.101043,-0.146268 -0.07843,0.392157 -0.02708,0.08124 -0.117958,0.157484 -0.156862,0.235294 -0.03763,0.07525 0.0044,0.148069 -0.07843,0.313725 -0.05963,0.119257 -0.01232,0.33837 -0.07843,0.470589 -0.01653,0.03307 -0.06674,0.04335 -0.07843,0.07843 -0.01653,0.0496 0.02338,0.110095 0,0.156863 -0.01169,0.02338 -0.07016,-0.0248 -0.07843,0 -0.0496,0.148813 0.03076,0.316771 0,0.470588 -0.02808,0.140373 -0.102211,0.204421 -0.156863,0.313725 -0.08788,0.175755 -0.01771,0.445276 -0.07843,0.627451 -0.01169,0.03508 -0.05229,0.05229 -0.07843,0.07843 -0.02614,0.05229 -0.06425,0.100149 -0.07843,0.156862 -0.06145,0.245806 -0.03651,0.45438 -0.07843,0.705883 -0.05499,0.329917 -0.09682,0.74265 -0.235294,1.019608 -0.01787,0.03574 -0.01287,1.233461 0,1.254902 0.06725,0.11209 0.156862,0.20915 0.235294,0.313725 z" />
</svg>
