<?xml version="1.0" encoding="UTF-8" standalone="no"?>
<svg
   width="54px"
   height="57px"
   viewBox="0 0 54 57"
   version="1.1"
   id="svg6"
   sodipodi:docname="ico_solve.svg"
   inkscape:version="1.3.2 (091e20e, 2023-11-25, custom)"
   xmlns:inkscape="http://www.inkscape.org/namespaces/inkscape"
   xmlns:sodipodi="http://sodipodi.sourceforge.net/DTD/sodipodi-0.dtd"
   xmlns="http://www.w3.org/2000/svg"
   xmlns:svg="http://www.w3.org/2000/svg">
  <sodipodi:namedview
     id="namedview6"
     pagecolor="#ffffff"
     bordercolor="#000000"
     borderopacity="0.25"
     inkscape:showpageshadow="2"
     inkscape:pageopacity="0.0"
     inkscape:pagecheckerboard="0"
     inkscape:deskcolor="#d1d1d1"
     inkscape:zoom="20.578947"
     inkscape:cx="27.017903"
     inkscape:cy="28.5"
     inkscape:window-width="2560"
     inkscape:window-height="1369"
     inkscape:window-x="-8"
     inkscape:window-y="-8"
     inkscape:window-maximized="1"
     inkscape:current-layer="svg6" />
  <!-- Generator: Sketch 49 (51002) - http://www.bohemiancoding.com/sketch -->
  <title
     id="title1">icon/learning resources</title>
  <desc
     id="desc1">Created with Sketch.</desc>
  <defs
     id="defs1">
    <inkscape:path-effect
       effect="spiro"
       id="path-effect19"
       is_visible="true"
       lpeversion="1" />
    <inkscape:path-effect
       effect="spiro"
       id="path-effect18"
       is_visible="true"
       lpeversion="1" />
    <inkscape:path-effect
       effect="spiro"
       id="path-effect17"
       is_visible="true"
       lpeversion="1" />
    <inkscape:path-effect
       effect="spiro"
       id="path-effect16"
       is_visible="true"
       lpeversion="1" />
    <inkscape:path-effect
       effect="spiro"
       id="path-effect15"
       is_visible="true"
       lpeversion="1" />
    <inkscape:path-effect
       effect="spiro"
       id="path-effect14"
       is_visible="true"
       lpeversion="1" />
    <inkscape:path-effect
       effect="spiro"
       id="path-effect13"
       is_visible="true"
       lpeversion="1" />
    <inkscape:path-effect
       effect="spiro"
       id="path-effect12"
       is_visible="true"
       lpeversion="1" />
    <inkscape:path-effect
       effect="spiro"
       id="path-effect11"
       is_visible="true"
       lpeversion="1" />
    <inkscape:path-effect
       effect="spiro"
       id="path-effect10"
       is_visible="true"
       lpeversion="1" />
    <inkscape:path-effect
       effect="spiro"
       id="path-effect9"
       is_visible="true"
       lpeversion="1" />
    <inkscape:path-effect
       effect="spiro"
       id="path-effect8"
       is_visible="true"
       lpeversion="1" />
    <inkscape:path-effect
       effect="spiro"
       id="path-effect7"
       is_visible="true"
       lpeversion="1" />
  </defs>
  <path
     style="fill:none;stroke:#1c1f30;stroke-width:1.3"
     d="m 28.086957,55.202046 c -0.820853,0.218732 -1.686294,0.268662 -2.526855,0.14578 -0.43641,-0.0638 -0.871869,-0.1739 -1.31202,-0.14578 -0.347785,0.02222 -0.685341,0.130317 -1.032675,0.158729 -0.173668,0.01421 -0.35065,0.0081 -0.518651,-0.03818 -0.168,-0.04624 -0.327072,-0.134486 -0.441002,-0.266327 -0.109435,-0.126639 -0.172144,-0.28569 -0.242966,-0.43734 -0.119921,-0.256786 -0.269107,-0.503136 -0.340154,-0.777494 -0.118283,-0.456763 -0.0084,-0.937452 0,-1.409207 0.0038,-0.210587 -0.01292,-0.421489 0,-0.631713 0.01606,-0.261282 0.07754,-0.517371 0.116459,-0.776237 0.03892,-0.258866 0.05463,-0.527623 -0.01927,-0.778751 -0.04729,-0.160699 -0.129567,-0.30842 -0.207202,-0.456856 -0.07764,-0.148435 -0.152065,-0.30152 -0.181545,-0.466417 -0.01931,-0.108018 -0.01884,-0.218579 -0.03242,-0.327466 -0.01359,-0.108886 -0.04322,-0.219856 -0.113358,-0.304248 -0.01466,-0.01764 -0.03095,-0.03393 -0.04859,-0.04859 -0.01839,-0.04782 -0.03461,-0.09649 -0.04859,-0.14578 -0.09566,-0.337325 -0.08435,-0.694042 -0.103786,-1.044129 -0.01944,-0.350087 -0.07677,-0.714664 -0.28496,-0.996792 -0.116808,-0.158294 -0.274748,-0.281467 -0.40127,-0.43211 -0.06326,-0.07532 -0.118923,-0.158203 -0.153982,-0.250106 -0.03506,-0.0919 -0.04871,-0.19352 -0.02787,-0.289651 0.02656,-0.122536 0.107316,-0.228219 0.205487,-0.306211 0.09817,-0.07799 0.213421,-0.131217 0.32904,-0.179723 1.17008,-0.490888 2.479148,-0.564029 3.741688,-0.43734 0.388966,0.03903 0.787223,0.09572 1.166241,0 0.146037,-0.03688 0.286009,-0.09582 0.433025,-0.128587 0.07351,-0.01638 0.148877,-0.02614 0.224116,-0.02285 0.07524,0.0033 0.150488,0.01995 0.217539,0.05425 0.122589,0.0627 0.209238,0.179304 0.27161,0.302058 0.06237,0.122754 0.104785,0.25478 0.16573,0.378249 0.154828,0.313665 0.426759,0.561389 0.738449,0.720156 0.31169,0.158766 0.661635,0.232665 1.010912,0.251711 0.130837,0.0071 0.264422,0.0072 0.388747,0.04859 0.103245,0.03437 0.195004,0.09561 0.29156,0.14578 0.13692,0.07115 0.285115,0.120547 0.43734,0.14578 0.128225,0.164738 0.3266,0.272942 0.534527,0.29156 0.186952,0.01674 0.374587,-0.03564 0.561832,-0.02257 0.09362,0.0065 0.187957,0.03041 0.265513,0.08326 0.03878,0.02642 0.07295,0.05993 0.09842,0.09934 0.02547,0.03941 0.0421,0.08478 0.0461,0.131534 0.0041,0.04846 -0.0051,0.09741 0,0.14578 0.0058,0.05452 0.02964,0.105564 0.05788,0.152559 0.02825,0.047 0.0612,0.09111 0.0879,0.139001 0.07499,0.134534 0.09688,0.291286 0.14578,0.43734 0.111932,0.334333 0.360269,0.601469 0.58312,0.874681 0.384145,0.470957 0.71603,1.005871 0.826087,1.60358 0.12381,0.672399 -0.04175,1.359469 -0.09719,2.040921 -0.03706,0.455486 -0.0255,0.919736 -0.14578,1.360614 -0.103915,0.380898 -0.303387,0.732166 -0.388747,1.117647 -0.01445,0.06526 -0.02566,0.131587 -0.04859,0.194373 -0.05111,0.139928 -0.159328,0.254981 -0.288073,0.329929 -0.128744,0.07495 -0.277004,0.111921 -0.425473,0.124141 -0.296938,0.02444 -0.592685,-0.04656 -0.890035,-0.06532 -0.319734,-0.02018 -0.639923,0.02016 -0.960225,0.02678 -0.320301,0.0066 -0.651375,-0.02342 -0.934915,-0.172557 -0.07569,-0.03981 -0.148096,-0.0886 -0.203128,-0.154061 -0.05503,-0.06546 -0.09159,-0.149222 -0.08843,-0.234686 5.99e-4,-0.01622 0.0026,-0.03257 0,-0.04859 -0.0044,-0.02745 -0.02266,-0.05186 -0.04665,-0.06593 -0.02399,-0.01407 -0.05318,-0.01818 -0.08062,-0.0136 -0.02743,0.0046 -0.05311,0.01747 -0.07478,0.03489 -0.02168,0.01742 -0.03951,0.03927 -0.05443,0.06274 -0.02983,0.04694 -0.04815,0.100133 -0.07299,0.149899 -0.01242,0.02488 -0.02656,0.04905 -0.04421,0.07054 -0.01765,0.02149 -0.03893,0.04031 -0.06366,0.05302 -0.04392,0.02257 -0.09563,0.02455 -0.144753,0.01948 -0.04912,-0.0051 -0.09751,-0.01666 -0.146808,-0.01948 -0.127652,-0.0073 -0.257416,0.0483 -0.340153,0.14578"
     id="path7"
     inkscape:path-effect="#path-effect7"
     inkscape:original-d="m 28.086957,55.202046 c -0.853089,0.05145 -1.666103,0.198479 -2.526855,0.14578 -0.439209,-0.02689 -0.873574,-0.108465 -1.31202,-0.14578 -0.212544,-0.01809 -1.808367,-0.06795 -1.992328,-0.14578 -0.153586,-0.06498 -0.168386,-0.28818 -0.242966,-0.43734 -0.126509,-0.253018 -0.267266,-0.504163 -0.340154,-0.777494 -0.122246,-0.458421 -0.01842,-0.948795 0,-1.409207 0.0084,-0.210403 -0.0084,-0.421311 0,-0.631713 0.01801,-0.450132 0.196123,-1.109774 0.09719,-1.554988 -0.07147,-0.321632 -0.292183,-0.609442 -0.388747,-0.923273 -0.06116,-0.198777 -0.08133,-0.438348 -0.14578,-0.631714 -0.0072,-0.02173 -0.0324,-0.0324 -0.04859,-0.04859 -0.0162,-0.04859 -0.03748,-0.09578 -0.04859,-0.14578 -0.145126,-0.653068 -0.125906,-1.427628 -0.388746,-2.040921 -0.09808,-0.228848 -0.625843,-0.82234 -0.583121,-0.971867 0.04583,-0.160416 0.475256,-0.472859 0.534527,-0.485934 2.167784,-0.478187 2.218702,-0.43734 3.741688,-0.43734 0.388747,0 0.777956,0.01894 1.166241,0 0.293006,-0.01429 0.612296,-0.228378 0.87468,-0.09719 0.147207,0.0736 0.35843,0.595326 0.43734,0.680307 0.340361,0.366542 1.665249,0.93682 1.749361,0.971867 0.120545,0.05023 0.26318,0.01272 0.388747,0.04859 0.104477,0.02985 0.190673,0.105425 0.29156,0.14578 0.142675,0.05707 0.29156,0.09719 0.43734,0.14578 0.178175,0.09719 0.34668,0.214714 0.534527,0.29156 0.08843,0.03618 0.918518,0.238211 0.971867,0.29156 0.03436,0.03436 -0.01706,0.100281 0,0.14578 0.03815,0.10174 0.105425,0.190674 0.14578,0.29156 0.05707,0.142675 0.07115,0.303013 0.14578,0.43734 0.170175,0.306315 0.398981,0.576551 0.58312,0.874681 0.241913,0.391668 0.663443,1.174791 0.826087,1.60358 0.334155,0.880955 0.03855,1.226494 -0.09719,2.040921 -0.0748,0.448808 -0.05636,0.913528 -0.14578,1.360614 -0.07565,0.378247 -0.219543,0.77924 -0.388747,1.117647 -0.02987,0.05973 -0.01155,0.138805 -0.04859,0.194373 -0.221266,0.331899 -1.314498,0.379713 -1.603581,0.388747 -0.477107,0.01491 -1.433793,0.08489 -1.89514,-0.14578 -0.10727,-0.05363 -0.239033,-0.283693 -0.29156,-0.388747 -0.0072,-0.01449 0.01145,-0.03714 0,-0.04859 -0.143395,-0.143395 -0.401425,0.275597 -0.43734,0.29156 -0.08881,0.03947 -0.195942,-0.01739 -0.291561,0 -0.08693,0.01581 -0.243702,0.09755 -0.340153,0.14578" />
  <path
     style="fill:none;stroke:#1c1f30;stroke-width:1.3"
     d="m 21.672634,49.468031 2.624041,-0.680307"
     id="path8"
     inkscape:path-effect="#path-effect8"
     inkscape:original-d="m 21.672634,49.468031 c 0.88479,-0.110061 1.938928,0.0048 2.624041,-0.680307" />
  <path
     style="fill:none;stroke:#1c1f30;stroke-width:1.3"
     d="m 22.547315,52.723785 c 0.140058,0.09076 0.286286,0.171998 0.43734,0.242967 0.980985,0.460893 2.156573,0.46182 3.158568,0.04859 0.152397,-0.06285 0.30178,-0.135154 0.436861,-0.229643 0.135081,-0.09449 0.25592,-0.21206 0.340632,-0.353477 0.0267,-0.04457 0.05031,-0.09386 0.04859,-0.14578 -5.43e-4,-0.01635 -0.0036,-0.03251 -0.005,-0.04881 -0.0014,-0.0163 -0.001,-0.03317 0.005,-0.04838 0.005,-0.01271 0.01392,-0.02378 0.02493,-0.03187 0.01101,-0.0081 0.02409,-0.01324 0.0376,-0.01535 0.027,-0.0042 0.05499,0.0037 0.07818,0.01818 0.0232,0.01446 0.04201,0.03505 0.05805,0.05718 0.01603,0.02214 0.02954,0.04598 0.0442,0.06904 0.103805,0.163222 0.268863,0.286454 0.454855,0.339595 0.185992,0.05314 0.391239,0.03571 0.565606,-0.04803"
     id="path9"
     inkscape:path-effect="#path-effect9"
     inkscape:original-d="m 22.547315,52.723785 c 0.14578,0.08099 0.278507,0.192141 0.43734,0.242967 0.771718,0.24695 2.39178,0.322446 3.158568,0.04859 0.497859,-0.177807 0.594371,-0.216875 0.777493,-0.58312 0.02291,-0.04581 0.03855,-0.09555 0.04859,-0.14578 0.0064,-0.03177 -0.02291,-0.07428 0,-0.09719 0.06265,-0.06265 0.237787,0.09497 0.242967,0.09719 0.340578,0.145962 0.709168,0.08403 1.020461,0.29156" />
  <path
     style="fill:none;stroke:#1c1f30;stroke-width:1.3"
     d="m 28.378517,49.370844 c 0.569019,-0.156682 1.180341,-0.156682 1.74936,0 0.420896,0.115896 0.813647,0.313787 1.214834,0.485933 0.160336,0.0688 0.322381,0.133617 0.485934,0.194374"
     id="path10"
     inkscape:path-effect="#path-effect10"
     inkscape:original-d="m 28.378517,49.370844 c 0.576507,0.05276 1.175224,-0.07177 1.74936,0 0.416388,0.05205 0.827618,0.340728 1.214834,0.485933 0.04406,0.01652 0.485934,0.105921 0.485934,0.194374" />
  <path
     style="fill:none;stroke:#1c1f30;stroke-width:1.3"
     d="m 20.603581,45.289003 c 0.154267,-0.963897 0.235564,-1.939465 0.242966,-2.915601 0.003,-0.389301 -0.0059,-0.77928 -0.04859,-1.166241 -0.0701,-0.634986 -0.232083,-1.260305 -0.485937,-1.846547 -0.334853,-0.773298 -0.823235,-1.468128 -1.263427,-2.186701 -0.19735,-0.322155 -0.385453,-0.649906 -0.58312,-0.971867 C 18.199389,35.768648 17.915481,35.344864 17.68798,34.890026 17.545227,34.604624 17.425428,34.308445 17.299233,34.015345 16.599867,32.391007 15.69934,30.853561 14.626598,29.44757 13.944019,28.552947 13.19016,27.709643 12.342711,26.969309 11.832444,26.523538 11.28246,26.108772 10.88491,25.560102 c -0.102811,-0.141892 -0.194429,-0.291501 -0.29156,-0.43734 -0.12939,-0.194274 -0.269119,-0.382765 -0.375169,-0.590701 -0.10605,-0.207937 -0.177849,-0.440041 -0.159357,-0.672726 0.0137,-0.172449 0.077,-0.339208 0.171326,-0.484222 0.09433,-0.145014 0.219003,-0.268877 0.357665,-0.372315 0.277324,-0.206876 0.60589,-0.331267 0.928809,-0.455483 1.033467,-0.397539 2.058304,-0.819713 3.109974,-1.166241 1.277007,-0.420777 2.641824,-0.756385 3.644502,-1.652174 0.886157,-0.791689 1.374691,-1.921008 1.943734,-2.964194 0.463746,-0.850153 0.998666,-1.666407 1.652174,-2.381074 0.270652,-0.295981 0.56091,-0.573785 0.826087,-0.874681 0.128982,-0.146356 0.252034,-0.298177 0.388746,-0.43734 0.681932,-0.694158 1.648033,-1.023982 2.429668,-1.60358 0.372729,-0.276386 0.706212,-0.611523 1.117647,-0.826087 0.259501,-0.13533 0.542666,-0.218571 0.826087,-0.29156 1.225953,-0.315717 2.498341,-0.456111 3.693095,-0.8746807 0.212943,-0.074602 0.422756,-0.1578362 0.631713,-0.2429667 0.280131,-0.1141274 0.5598,-0.2320399 0.851605,-0.3117144 0.291805,-0.079674 0.598392,-0.1203884 0.897756,-0.077032 0.3885,0.056265 0.744974,0.2510316 1.058,0.4879129 0.313026,0.2368813 0.590151,0.5171953 0.885734,0.7755143 0.64418,0.562968 1.373698,1.019528 2.04092,1.554987 0.435968,0.349873 0.852782,0.738232 1.360614,0.971867 0.367938,0.169275 0.771806,0.251248 1.136529,0.427342 0.182361,0.08805 0.355202,0.200547 0.492926,0.349007 0.137723,0.14846 0.238975,0.334937 0.265686,0.535672 0.02703,0.203132 -0.02334,0.41174 -0.117533,0.593731 -0.09419,0.181991 -0.230397,0.33935 -0.379656,0.47976 -0.298516,0.280822 -0.654977,0.502427 -0.912018,0.821649 -0.206314,0.256224 -0.339101,0.564826 -0.430116,0.880947 -0.09102,0.316121 -0.142368,0.642014 -0.201598,0.965601 -0.16235,0.886957 -0.38618,1.770945 -0.388747,2.672634 -0.0047,1.64628 0.721316,3.191575 1.214834,4.762148 0.261522,0.832267 0.459643,1.682834 0.680307,2.526854 0.1593,0.609307 0.331156,1.2194 0.388747,1.846548 0.02375,0.258597 0.02789,0.518634 0.04859,0.777493 0.03111,0.389057 0.09963,0.77595 0.09719,1.166241 -0.0011,0.178285 -0.01704,0.357054 0,0.534527 0.01731,0.180348 0.06832,0.355664 0.09719,0.534526 0.06206,0.384449 0.02098,0.777796 0.04859,1.166241 0.01153,0.162211 0.03487,0.327096 0,0.485933 -0.02655,0.120939 -0.08562,0.231935 -0.14578,0.340154 -0.194455,0.349763 -0.407423,0.689038 -0.631714,1.02046 -0.355427,0.525195 -0.742662,1.034465 -1.214833,1.457801 -0.586477,0.525819 -1.289085,0.90608 -1.895141,1.409207 -0.43206,0.358681 -0.810817,0.776243 -1.214834,1.16624 -0.20619,0.199035 -0.419074,0.39099 -0.631713,0.58312 -0.307785,0.278099 -0.620381,0.563058 -0.826087,0.923274 -0.04052,0.07095 -0.07904,0.147235 -0.14578,0.194373 -0.0593,0.04188 -0.134653,0.05592 -0.194374,0.09719 -0.05665,0.03915 -0.09473,0.09957 -0.14578,0.14578 -0.06014,0.05443 -0.137232,0.08821 -0.194373,0.14578 -0.04128,0.04159 -0.07015,0.0936 -0.09814,0.145081 -0.02799,0.05148 -0.05609,0.103795 -0.09623,0.146479 -0.03562,0.03788 -0.07948,0.06683 -0.122597,0.09591 -0.04312,0.02907 -0.08643,0.05907 -0.120369,0.09847 -0.03886,0.04512 -0.06367,0.100521 -0.09845,0.148865 -0.01739,0.02417 -0.03747,0.04674 -0.06175,0.06398 -0.02428,0.01724 -0.05302,0.02897 -0.08277,0.03012 -0.0162,6.29e-4 -0.03248,-0.0018 -0.04859,0 -0.0152,0.0017 -0.02986,0.0073 -0.0428,0.0155 -0.01294,0.0082 -0.02419,0.01887 -0.03364,0.0309 -0.01891,0.02406 -0.0305,0.05303 -0.03971,0.08221 -0.0092,0.02918 -0.01634,0.05907 -0.02759,0.08753 -0.01125,0.02846 -0.02709,0.05587 -0.05063,0.07541 -0.02798,0.02322 -0.06417,0.03338 -0.09719,0.04859 -0.09182,0.04228 -0.159626,0.124438 -0.209427,0.212404 -0.0498,0.08797 -0.08462,0.183571 -0.130726,0.273529 -0.148028,0.288824 -0.404653,0.50642 -0.58312,0.777494 -0.191469,0.290823 -0.288584,0.636409 -0.485934,0.923274 -0.09192,0.133619 -0.204077,0.252173 -0.299169,0.383557 -0.09509,0.131384 -0.174451,0.280813 -0.186764,0.44253 -0.0038,0.04985 -0.0011,0.100024 -0.0051,0.149859 -0.0039,0.04984 -0.0151,0.100561 -0.0435,0.141701 -0.01309,0.01895 -0.02964,0.03551 -0.04859,0.04859"
     id="path11"
     inkscape:path-effect="#path-effect11"
     inkscape:original-d="m 20.603581,45.289003 c 0.179237,-0.973702 0.263995,-1.927257 0.242966,-2.915601 -0.0083,-0.388997 0.01938,-0.78314 -0.04859,-1.166241 C 20.686768,40.580476 20.5192,39.962422 20.31202,39.360614 19.965432,38.353857 19.6195,38.061991 19.048593,37.173913 18.844298,36.856121 18.65883,36.526609 18.465473,36.202046 18.20529,35.765311 17.927209,35.338581 17.68798,34.890026 17.537834,34.608503 17.436661,34.30329 17.299233,34.015345 16.543078,32.431022 15.704351,30.839667 14.626598,29.44757 c -0.813859,-1.051235 -1.147606,-1.341979 -2.283887,-2.478261 -0.472931,-0.47293 -1.034165,-0.88781 -1.457801,-1.409207 -0.110483,-0.135979 -0.192624,-0.292741 -0.29156,-0.43734 -0.278906,-0.407633 -0.6098046,-0.73648 -0.534526,-1.263427 0.08096,-0.56675 1.021598,-1.088847 1.4578,-1.31202 1.208551,-0.618329 1.750947,-0.725992 3.109974,-1.166241 1.270385,-0.411533 2.599088,-0.767593 3.644502,-1.652174 0.773372,-0.654392 1.439395,-2.081601 1.943734,-2.964194 0.48191,-0.843342 1.045778,-1.623079 1.652174,-2.381074 0.349436,-0.436796 0.437153,-0.462868 0.826087,-0.874681 0.133924,-0.141801 0.246945,-0.303416 0.388746,-0.43734 0.712756,-0.673158 1.638896,-1.04345 2.429668,-1.60358 0.441272,-0.312568 0.621075,-0.586363 1.117647,-0.826087 0.26297,-0.126951 0.547632,-0.203627 0.826087,-0.29156 1.212775,-0.3829821 2.478429,-0.5066003 3.693095,-0.8746807 0.215913,-0.065428 0.426326,-0.1496091 0.631713,-0.2429667 0.660845,-0.3003842 0.956143,-0.6991365 1.749361,-0.3887468 0.721279,0.2822398 1.334938,0.8068303 1.943734,1.2634272 0.684214,0.51316 1.356706,1.041827 2.04092,1.554987 0.445884,0.334413 0.89824,0.660654 1.360614,0.971867 0.157692,0.106139 1.671886,0.977138 1.895141,1.312021 0.05043,0.07565 -1.294446,1.679963 -1.409207,1.89514 -0.234632,0.439935 -0.496883,1.385876 -0.631714,1.846548 -0.254892,0.870883 -0.483125,1.752449 -0.388747,2.672634 0.17033,1.660714 0.73558,3.173041 1.214834,4.762148 0.07576,0.251197 0.670385,2.486341 0.680307,2.526854 0.149621,0.610954 0.299792,1.223861 0.388747,1.846548 0.03672,0.25706 0.03009,0.518483 0.04859,0.777493 0.02779,0.389103 0.08024,0.776515 0.09719,1.166241 0.0077,0.178007 -0.01613,0.357083 0,0.534527 0.0164,0.180353 0.07376,0.354951 0.09719,0.534526 0.06473,0.496303 0.04859,0.667624 0.04859,1.166241 0,0.161978 0.02815,0.32642 0,0.485933 -0.02144,0.121482 -0.09361,0.228368 -0.14578,0.340154 -0.254701,0.545788 -0.207735,0.396962 -0.631714,1.02046 -0.366492,0.538959 -0.725696,1.020151 -1.214833,1.457801 -0.587953,0.526063 -1.291056,0.900504 -1.895141,1.409207 -0.432079,0.363856 -0.802176,0.783058 -1.214834,1.16624 -0.398437,0.369978 -0.276958,0.196114 -0.631713,0.58312 -0.27859,0.303917 -0.54881,0.618269 -0.826087,0.923274 -0.05448,0.05993 -0.08429,0.141667 -0.14578,0.194373 -0.055,0.04714 -0.135428,0.05508 -0.194374,0.09719 -0.05592,0.03994 -0.0936,0.101057 -0.14578,0.14578 -0.06149,0.05271 -0.140567,0.08525 -0.194373,0.14578 -0.0776,0.0873 -0.116236,0.204741 -0.194374,0.29156 -0.06938,0.07709 -0.165875,0.124991 -0.242966,0.194374 -0.08513,0.07662 -0.154978,0.169643 -0.242967,0.242967 -0.01244,0.01037 -0.03714,-0.01145 -0.04859,0 -0.0054,0.0054 -0.175749,0.272934 -0.194374,0.29156 -0.02561,0.02561 -0.07158,0.02298 -0.09719,0.04859 -0.124593,0.124593 -0.23945,0.34327 -0.340153,0.485933 -0.18682,0.264662 -0.407939,0.50499 -0.58312,0.777494 -0.868936,1.351678 0.203453,-0.302303 -0.485934,0.923274 -0.165494,0.294211 -0.347469,0.514542 -0.485933,0.826087 -0.276878,0.622975 0.153398,-0.314415 -0.04859,0.29156 -0.06479,0.194373 -0.04859,-0.210571 -0.04859,0.04859" />
  <path
     style="fill:none;stroke:#ff9500;stroke-width:1.3;stroke-opacity:1"
     d="m 43.102302,41.936061 c 0.137218,0.353966 0.33537,0.68422 0.58312,0.971867 0.519444,0.603093 1.233259,0.999027 1.846547,1.506394 0.135767,0.112319 0.271185,0.232903 0.43734,0.29156 0.01724,0.0061 0.03476,0.01148 0.05152,0.01881 0.01675,0.0073 0.03287,0.01673 0.04567,0.02978 0.01399,0.01425 0.02365,0.0327 0.0274,0.05231 0.0038,0.01961 0.0016,0.04032 -0.0061,0.05873 -0.0077,0.01841 -0.02099,0.03446 -0.03763,0.04552 -0.01663,0.01105 -0.03656,0.01708 -0.05653,0.01708 -0.01997,0 -0.0399,-0.006 -0.05653,-0.01708 -0.01663,-0.01105 -0.0299,-0.0271 -0.03763,-0.04552 -0.0077,-0.01841 -0.0099,-0.03912 -0.0061,-0.05873 0.0038,-0.01961 0.01342,-0.03806 0.0274,-0.05231"
     id="path12"
     inkscape:path-effect="#path-effect12"
     inkscape:original-d="m 43.102302,41.936061 c 0,0.533498 -0.05059,0.25894 0.58312,0.971867 0.534106,0.60087 1.196678,1.042202 1.846547,1.506394 0.142571,0.101837 0.289526,0.197497 0.43734,0.29156 0.03056,0.01945 0.09719,0.01237 0.09719,0.04859 0,0.04859 -0.09719,0 -0.14578,0" />
  <path
     style="fill:none;stroke:#ff9500;stroke-width:1.3;stroke-opacity:1"
     d="m 46.309463,26.726343 c 0.941371,-0.733641 1.820261,-1.547428 2.624041,-2.429668 0.170496,-0.187139 0.337927,-0.377732 0.485933,-0.58312 0.0683,-0.09478 0.132352,-0.192559 0.194374,-0.29156 0.03102,-0.04951 0.0616,-0.09944 0.09719,-0.14578 0.08604,-0.112044 0.201135,-0.201583 0.330898,-0.25743 0.129763,-0.05585 0.273909,-0.07788 0.41443,-0.06334 0.14052,0.01454 0.277103,0.06561 0.392686,0.146837 0.115583,0.08123 0.209909,0.19243 0.271194,0.319715"
     id="path13"
     inkscape:path-effect="#path-effect13"
     inkscape:original-d="m 46.309463,26.726343 c 1.866497,-1.244332 0.985716,-0.48139 2.624041,-2.429668 0.162842,-0.19365 0.330596,-0.3834 0.485933,-0.58312 0.07171,-0.0922 0.129583,-0.194373 0.194374,-0.29156 0.0324,-0.04859 0.04028,-0.132648 0.09719,-0.14578 0.348111,-0.08033 1.15838,0.103975 1.409208,0.14578" />
  <path
     style="fill:none;stroke:#ff9500;stroke-width:1.3;stroke-opacity:1"
     d="m 46.309463,27.746803 c 0.0024,-0.2666 0.07352,-0.532285 0.204497,-0.764503 0.130982,-0.232218 0.321599,-0.430472 0.548494,-0.570472 0.226896,-0.139999 0.489586,-0.221445 0.755884,-0.234357 0.266298,-0.01291 0.535636,0.04274 0.775012,0.160125 0.07752,0.03802 0.152107,0.08244 0.232529,0.113862 0.08042,0.03142 0.168863,0.04946 0.253405,0.03192 0.08047,-0.0167 0.151355,-0.06429 0.212644,-0.119051 0.06129,-0.05476 0.115101,-0.11743 0.176103,-0.172509 0.147585,-0.133257 0.337086,-0.219394 0.534527,-0.242967"
     id="path14"
     inkscape:path-effect="#path-effect14"
     inkscape:original-d="m 46.309463,27.746803 c 1.122993,-1.5508 0.545407,-1.55408 2.283887,-1.409207 0.168526,0.01404 0.319125,0.173581 0.485934,0.14578 0.159774,-0.02663 0.248567,-0.210403 0.388747,-0.29156 0.16938,-0.09806 0.356351,-0.161978 0.534527,-0.242967" />
  <path
     style="fill:none;stroke:#ff9500;stroke-width:1.3;stroke-opacity:1"
     d="m 43.588235,9.3299233 c 0.321925,-0.9047619 0.782469,-1.760057 1.360614,-2.5268542 0.152396,-0.202123 0.313008,-0.3982567 0.485934,-0.5831203 0.251251,-0.268595 0.528298,-0.5130482 0.826087,-0.7289002"
     id="path15"
     inkscape:path-effect="#path-effect15"
     inkscape:original-d="M 43.588235,9.3299233 C 44.22364,7.7125306 43.912783,8.1844911 44.948849,6.8030691 45.10066,6.6006551 45.251761,6.3946513 45.434783,6.2199488 46.689382,5.0223763 45.565428,6.3255787 46.26087,5.4910486" />
  <path
     style="fill:none;stroke:#ff9500;stroke-width:1.3;stroke-opacity:1"
     d="m 26.774936,1.5063939 -1.16624,3.887468"
     id="path16"
     inkscape:path-effect="#path-effect16"
     inkscape:original-d="m 26.774936,1.5063939 c -0.951657,-0.2452484 0.129624,3.4555133 -1.16624,3.887468" />
  <path
     style="fill:none;stroke:#ff9500;stroke-width:1.3;stroke-opacity:1"
     d="m 6.511509,6.2199488 c 0.2881136,0.066894 0.5804451,0.1156158 0.8746803,0.1457801 1.3871168,0.1422038 2.7869667,-0.1291067 4.1790277,-0.048593 0.146824,0.00849 0.294878,0.020848 0.44035,-7.645e-4 0.145473,-0.021612 0.290882,-0.081217 0.385737,-0.1936089 0.03504,-0.041519 0.06247,-0.089272 0.09991,-0.1286442 0.01872,-0.019686 0.04001,-0.037237 0.06429,-0.049415 0.02428,-0.012177 0.05172,-0.018802 0.07877,-0.016314 0.03839,0.00353 0.07383,0.025541 0.09759,0.055894 0.02376,0.030353 0.03645,0.068412 0.04023,0.1067745 0.0076,0.076725 -0.01877,0.1521455 -0.04063,0.226078 -0.18501,0.6257712 -0.06503,1.2944353 0,1.9437341 0.02604,0.2600317 0.04314,0.5218108 0.09719,0.7774936 0.01381,0.065356 0.03003,0.1302048 0.04859,0.1943734"
     id="path17"
     inkscape:path-effect="#path-effect17"
     inkscape:original-d="m 6.511509,6.2199488 c 0.2915601,0.048593 0.5800398,0.1222089 0.8746803,0.1457801 1.3392637,0.1071411 2.8454827,0.1082943 4.1790277,-0.048593 0.280945,-0.033052 0.560237,-0.0977 0.826087,-0.1943734 0.09747,-0.035444 0.152916,-0.2458311 0.242967,-0.1943734 0.115972,0.066269 0.07099,0.2577704 0.09719,0.3887468 0.13004,0.6501996 -0.03431,1.291852 0,1.9437341 0.0048,0.091442 0.07191,0.6511285 0.09719,0.7774936 0.05372,0.2685777 0.04859,0.060585 0.04859,0.1943734" />
  <path
     style="fill:none;stroke:#ff9500;stroke-width:1.3;stroke-opacity:1"
     d="m 1.5063939,22.255754 c 0.9495622,0.742212 1.8152856,1.591601 2.5754475,2.526855 0.3832114,0.471479 0.7410296,0.966893 1.0204604,1.506394 0.083291,0.160811 0.1594611,0.325234 0.2429667,0.485933 0.2891691,0.556481 0.6716482,1.072226 1.1662405,1.457801 0.6306604,0.491652 1.4360383,0.754275 2.2352941,0.7289"
     id="path18"
     inkscape:path-effect="#path-effect18"
     inkscape:original-d="m 1.5063939,22.255754 c 0.8584825,0.842285 1.7750896,1.629156 2.5754475,2.526855 0.4036122,0.4527 0.6873849,0.99954 1.0204604,1.506394 0.095223,0.144904 0.1599161,0.333673 0.2429667,0.485933 0.2747301,0.503672 0.6242405,1.186801 1.1662405,1.457801 0.7080798,0.354039 1.4686662,0.551986 2.2352941,0.7289" />
  <path
     style="fill:none;stroke:#ff9500;stroke-width:1.3;stroke-opacity:1"
     d="m 5.3452685,47.670077 c 0.7361262,-0.964901 1.4178709,-1.971287 2.0409208,-3.012788 0.2084763,-0.348493 0.4106468,-0.70141 0.5831202,-1.069054 0.296697,-0.632439 0.5037148,-1.305577 0.6317135,-1.992327 0.05377,-0.28849 0.093724,-0.584713 0.048593,-0.87468 C 8.6054257,40.437307 8.4817814,40.172483 8.4066496,39.895141 8.2881789,39.457817 8.2932329,38.987739 8.4210787,38.553063 8.5489245,38.118387 8.7991762,37.720426 9.1355499,37.41688"
     id="path19"
     inkscape:path-effect="#path-effect19"
     inkscape:original-d="M 5.3452685,47.670077 C 7.4405021,45.034138 6.3336552,46.716595 7.3861893,44.657289 7.5709258,44.295848 7.7908882,43.952835 7.9693095,43.588235 8.5008168,42.502112 8.5128434,42.595276 8.601023,41.595908 8.626689,41.305028 8.682773,41.011349 8.649616,40.721228 8.6170256,40.436058 8.4648026,40.176213 8.4066496,39.895141 8.2084693,38.937269 8.5511947,38.168194 9.1355499,37.41688" />
</svg>
