<?xml version="1.0" encoding="UTF-8" standalone="no"?>
<svg
   width="44px"
   height="37px"
   viewBox="0 0 44 37"
   version="1.1"
   id="svg5"
   sodipodi:docname="ico_chat.svg"
   inkscape:version="1.3.2 (091e20e, 2023-11-25, custom)"
   xmlns:inkscape="http://www.inkscape.org/namespaces/inkscape"
   xmlns:sodipodi="http://sodipodi.sourceforge.net/DTD/sodipodi-0.dtd"
   xmlns="http://www.w3.org/2000/svg"
   xmlns:svg="http://www.w3.org/2000/svg">
  <sodipodi:namedview
     id="namedview5"
     pagecolor="#ffffff"
     bordercolor="#000000"
     borderopacity="0.25"
     inkscape:showpageshadow="2"
     inkscape:pageopacity="0.0"
     inkscape:pagecheckerboard="0"
     inkscape:deskcolor="#d1d1d1"
     inkscape:zoom="31.702703"
     inkscape:cx="21.985507"
     inkscape:cy="18.5"
     inkscape:window-width="2560"
     inkscape:window-height="1369"
     inkscape:window-x="-8"
     inkscape:window-y="-8"
     inkscape:window-maximized="1"
     inkscape:current-layer="svg5" />
  <!-- Generator: Sketch 49 (51002) - http://www.bohemiancoding.com/sketch -->
  <title
     id="title1">Meet the communities icon</title>
  <desc
     id="desc1">Created with Sketch.</desc>
  <defs
     id="defs1">
    <inkscape:path-effect
       effect="spiro"
       id="path-effect12"
       is_visible="true"
       lpeversion="1" />
    <inkscape:path-effect
       effect="spiro"
       id="path-effect11"
       is_visible="true"
       lpeversion="1" />
    <inkscape:path-effect
       effect="spiro"
       id="path-effect10"
       is_visible="true"
       lpeversion="1" />
    <inkscape:path-effect
       effect="spiro"
       id="path-effect9"
       is_visible="true"
       lpeversion="1" />
    <inkscape:path-effect
       effect="spiro"
       id="path-effect8"
       is_visible="true"
       lpeversion="1" />
    <inkscape:path-effect
       effect="spiro"
       id="path-effect7"
       is_visible="true"
       lpeversion="1" />
    <inkscape:path-effect
       effect="spiro"
       id="path-effect6"
       is_visible="true"
       lpeversion="1" />
  </defs>
  <path
     style="fill:none;stroke:#ff9500;stroke-width:1.079;stroke-opacity:1"
     d="m 37.630861,35.328218 c -1.063472,-1.611413 -2.873699,-2.707077 -4.794544,-2.901961 -0.477076,-0.0484 -0.968629,-0.0462 -1.417416,-0.215123 -0.224393,-0.08446 -0.435503,-0.2129 -0.593977,-0.392823 -0.158473,-0.179922 -0.261174,-0.414018 -0.259707,-0.653776 9.8e-4,-0.160074 0.04699,-0.315899 0.0776,-0.473023 0.03061,-0.157123 0.04502,-0.324672 -0.01451,-0.473268 -0.05038,-0.125765 -0.150215,-0.226853 -0.263577,-0.301045 -0.113362,-0.07419 -0.240605,-0.124062 -0.367284,-0.172101 -0.792429,-0.300502 -1.614179,-0.552128 -2.460358,-0.599318 -1.122129,-0.06258 -2.228814,0.235605 -3.343563,0.378517 -0.752925,0.09653 -1.512841,0.122277 -2.2711,0.157715 -0.830393,0.03881 -1.660618,0.08937 -2.491901,0.09463 -0.336455,0.0021 -0.672931,-0.0032 -1.009378,0 -0.220814,0.0021 -0.441718,0.0078 -0.662404,0 -0.380718,-0.01344 -0.769406,-0.07022 -1.104007,-0.252344 -0.145088,-0.07897 -0.281095,-0.181757 -0.441602,-0.220802 -0.03146,-0.0077 -0.06386,-0.01285 -0.09332,-0.02629 -0.01473,-0.0067 -0.02864,-0.01552 -0.04007,-0.02698 -0.01143,-0.01146 -0.02033,-0.02568 -0.02433,-0.04136 -0.0052,-0.02049 -0.0019,-0.04203 0,-0.06309 0.0058,-0.06285 -6.07e-4,-0.126141 0,-0.189258 0.0023,-0.241111 0.105727,-0.467756 0.189259,-0.693947 0.07719,-0.209021 0.138681,-0.423727 0.220801,-0.630861 0.270563,-0.682452 0.752387,-1.255265 1.167093,-1.861041 0.670573,-0.979529 1.174576,-2.062378 1.640239,-3.154305 0.20528,-0.481358 0.403743,-0.965598 0.599318,-1.45098 0.26737,-0.663563 0.529813,-1.330632 0.72549,-2.018755 0.197505,-0.694551 0.325847,-1.406482 0.473146,-2.113385 0.03071,-0.147378 0.06225,-0.294582 0.09463,-0.441603 -0.02032,-0.147254 -0.0095,-0.298731 0.03154,-0.441602 0.0679,-0.23637 0.218092,-0.445597 0.41006,-0.599318 0.323722,-0.259225 0.752088,-0.357748 1.166808,-0.358144 0.414721,-3.96e-4 0.823506,0.08902 1.230464,0.168885 2.053693,0.403035 4.154984,0.571806 6.245524,0.473146 0.959429,-0.04528 1.924241,-0.148346 2.838875,-0.441603 0.330387,-0.105931 0.653822,-0.236532 0.992534,-0.311705 0.338712,-0.07517 0.700654,-0.09211 1.026221,0.02782 0.05313,0.01957 0.104912,0.04264 0.157715,0.06309 0.102446,0.03968 0.208505,0.06941 0.315431,0.09463 0.430068,0.101454 0.878502,0.131496 1.293265,0.283888 0.366645,0.134713 0.694799,0.361664 0.977834,0.630861 0.498872,0.474481 0.872401,1.110777 0.914749,1.797954 0.01229,0.199442 -0.0031,0.399522 0,0.599318 0.0092,0.594484 0.181269,1.173985 0.378517,1.734867 0.09577,0.272341 0.199477,0.545649 0.36396,0.782899 0.164482,0.23725 0.397447,0.438155 0.67696,0.510367 0.109192,0.02821 0.222382,0.03626 0.334436,0.04901 0.112054,0.01275 0.22518,0.03076 0.327968,0.07716 0.138048,0.06232 0.250662,0.173966 0.327982,0.304208 0.07732,0.130241 0.120899,0.278477 0.1424,0.428406 0.043,0.29986 9.1e-5,0.604709 0.0028,0.907625 0.0061,0.694222 0.250494,1.362785 0.346974,2.050298 0.123504,0.880085 0.0028,1.775518 -0.157716,2.649616 -0.12904,0.702826 -0.284176,1.402143 -0.504688,2.081842 -0.137511,0.423859 -0.300139,0.839166 -0.441603,1.261722 -0.04805,0.143525 -0.09544,0.291289 -0.189258,0.410059 -0.06485,0.0821 -0.149017,0.146498 -0.233195,0.208632 -0.08418,0.06213 -0.170052,0.123578 -0.239951,0.201428 -0.05081,0.05659 -0.09241,0.121111 -0.126172,0.189258 -0.01393,0.02811 -0.02677,0.05721 -0.0466,0.08153 -0.0099,0.01216 -0.02157,0.02303 -0.03505,0.03105 -0.01348,0.008 -0.02885,0.01314 -0.04453,0.01359 -0.01052,3.05e-4 -0.02112,-0.0015 -0.03154,0 -0.0106,0.0015 -0.02064,0.0063 -0.02874,0.01334 -0.0081,0.007 -0.0143,0.01609 -0.01835,0.02601 -0.0081,0.01982 -0.0075,0.04235 -0.0023,0.06313 0.01036,0.04156 0.03791,0.07708 0.04943,0.118329 0.01385,0.04957 0.0032,0.1032 -0.01735,0.150391 -0.02054,0.04719 -0.05047,0.08956 -0.07728,0.133496 -0.108826,0.178328 -0.166953,0.385006 -0.183607,0.593252 -0.01666,0.208247 0.0071,0.418328 0.05357,0.622009 0.0929,0.407363 0.274575,0.788113 0.413929,1.182011 0.04697,0.132778 0.08957,0.269309 0.09463,0.41006 0.0019,0.05254 -0.0015,0.105159 0,0.157715 2.98e-4,0.01051 7.89e-4,0.02105 0,0.03154 -0.0019,0.02457 -0.01083,0.04843 -0.02479,0.06874 -0.01396,0.02031 -0.03281,0.03709 -0.05408,0.04953 -0.04254,0.02489 -0.09372,0.03207 -0.142827,0.02794 -0.09822,-0.0083 -0.187541,-0.05854 -0.282995,-0.08312 -0.100984,-0.02601 -0.207406,-0.02279 -0.310736,-0.0087 -0.103329,0.01404 -0.204933,0.03866 -0.307896,0.05517 -0.102964,0.01651 -0.208661,0.02482 -0.31125,0.0061 -0.102589,-0.0187 -0.202538,-0.06662 -0.268754,-0.14718 -0.0241,-0.02931 -0.04329,-0.06226 -0.06309,-0.09463 -0.136802,-0.223642 -0.30759,-0.426452 -0.504689,-0.599318 z"
     id="path6"
     inkscape:path-effect="#path-effect6"
     inkscape:original-d="m 37.630861,35.328218 c -1.399955,-1.32572 -3.042759,-2.044972 -4.794544,-2.901961 -0.961416,-0.470332 -1.508703,-0.476223 -2.2711,-1.261722 -0.183903,-0.189476 0.138658,-0.732172 0.06309,-0.946291 -0.07986,-0.226284 -0.460136,-0.397827 -0.630861,-0.473146 -0.766987,-0.338377 -1.629295,-0.516212 -2.460358,-0.599318 -1.255362,-0.125536 -2.146762,0.218943 -3.343563,0.378517 -1.313785,0.175171 -0.919588,0.111111 -2.2711,0.157715 -0.830739,0.02865 -1.660972,0.07217 -2.491901,0.09463 -0.336336,0.0091 -0.672918,0 -1.009378,0 -0.220801,0 -0.443822,0.03123 -0.662404,0 -0.373699,-0.05339 -0.743048,-0.141847 -1.104007,-0.252344 -0.157367,-0.04817 -0.295966,-0.144151 -0.441602,-0.220802 -0.05425,-0.02855 -0.114364,-0.05128 -0.157716,-0.09463 -0.01487,-0.01487 0,-0.04206 0,-0.06309 0,-0.06309 -0.01322,-0.127573 0,-0.189258 0.05024,-0.234442 0.118364,-0.464904 0.189259,-0.693947 0.06588,-0.212833 0.124675,-0.42987 0.220801,-0.630861 0.371416,-0.776596 0.707841,-1.092293 1.167093,-1.861041 0.42065,-0.704131 1.335359,-2.49265 1.640239,-3.154305 0.218995,-0.475265 0.403951,-0.965524 0.599318,-1.45098 0.245087,-0.609005 0.552294,-1.369271 0.72549,-2.018755 0.277874,-1.042029 0.297286,-1.259209 0.473146,-2.113385 0.03036,-0.14745 0.06883,-0.293286 0.09463,-0.441603 0.08129,-0.141702 0.0073,-0.296034 0.03154,-0.441602 0.01174,-0.07045 0.359428,-0.554643 0.41006,-0.599318 0.550143,-0.485421 1.856002,-0.239817 2.397272,-0.189259 1.84193,0.172049 4.25475,0.566173 6.245524,0.473146 0.587485,-0.02745 2.25303,-0.316623 2.838875,-0.441603 1.243642,-0.26531 0.713873,-0.318226 2.018755,-0.283887 0.0566,0.0015 0.103999,0.04518 0.157715,0.06309 0.10414,0.03471 0.208529,0.06968 0.315431,0.09463 0.161265,0.03763 1.154819,0.217327 1.293265,0.283888 0.349589,0.168071 0.679251,0.383255 0.977834,0.630861 0.303482,0.251667 0.875113,1.38838 0.914749,1.797954 0.01924,0.198843 -0.0089,0.399742 0,0.599318 0.03153,0.709489 0.03992,1.069357 0.378517,1.734867 0.259305,0.509671 0.594257,0.945861 1.04092,1.293266 0.177793,0.138283 0.514845,-0.107464 0.662404,0.126172 0.208823,0.330635 0.394434,1.268143 0.473146,1.640239 0.111959,0.529261 0.299815,1.523687 0.346974,2.050298 0.07752,0.865618 0.0034,1.79432 -0.157716,2.649616 -0.289223,1.535112 -0.205517,1.034741 -0.504688,2.081842 -0.264104,0.924362 -0.0743,0.448412 -0.441603,1.261722 -0.06196,0.1372 -0.105752,0.2848 -0.189258,0.410059 -0.238689,0.358033 -0.214558,0.151472 -0.473146,0.41006 -0.05361,0.05361 -0.07962,0.12941 -0.126172,0.189258 -0.03652,0.04695 -0.07297,0.09957 -0.126173,0.126173 -0.0094,0.0047 -0.02411,-0.0074 -0.03154,0 -0.05204,0.05204 0.01443,0.14863 0,0.220801 -0.01956,0.09781 -0.07507,0.186077 -0.09463,0.283887 -0.160061,0.800304 0.08658,1.632703 0.283888,2.397272 0.03505,0.135829 0.07157,0.27169 0.09463,0.41006 0.0086,0.05186 0,0.105144 0,0.157715 0,0.01051 0.0087,0.02571 0,0.03154 -0.131976,0.08798 -0.372124,0.06309 -0.504689,0.06309 -0.207105,0 -1.012591,0.01168 -1.198636,-0.09463 -0.03292,-0.01881 -0.03737,-0.06677 -0.06309,-0.09463 -0.213844,-0.231664 -0.352595,-0.345827 -0.504689,-0.599318 z" />
  <path
     style="fill:none;stroke:#95aabf;stroke-width:1.079"
     d="m 25.360614,23.531117 c 0.549656,0.1084 1.118429,0.119131 1.671782,0.03154 0.29758,-0.0471 0.595916,-0.124619 0.851662,-0.283888 0.01928,-0.01201 0.03837,-0.02453 0.05514,-0.03985 0.01677,-0.01532 0.03122,-0.03363 0.03949,-0.05478 0.007,-0.01802 0.0094,-0.03777 0.0075,-0.05702 -0.0019,-0.01926 -0.008,-0.03803 -0.01718,-0.05505 -0.01839,-0.03406 -0.04875,-0.06062 -0.08271,-0.0792 -0.0679,-0.03716 -0.147693,-0.04349 -0.223077,-0.06107 -0.12988,-0.03028 -0.251199,-0.09645 -0.346974,-0.189259"
     id="path7"
     inkscape:path-effect="#path-effect7"
     inkscape:original-d="m 25.360614,23.531117 c 0.621746,0.0238 0.937394,0.119669 1.671782,0.03154 0.171325,-0.02056 0.651067,-0.191305 0.851662,-0.283888 0.0405,-0.01869 0.126172,-0.06309 0.09463,-0.09463 -0.09521,-0.09521 -0.201832,-0.180054 -0.31543,-0.252344 -0.105938,-0.06742 -0.256176,-0.09846 -0.346974,-0.189259" />
  <path
     style="fill:none;stroke:#95aabf;stroke-width:1.079"
     d="m 31.164535,22.647911 c -0.01272,0.05154 -0.01272,0.106174 0,0.157716 0.01917,0.07766 0.06693,0.146863 0.128716,0.197662 0.06179,0.0508 0.13703,0.08381 0.215009,0.101628 0.155958,0.03563 0.318747,0.01179 0.476395,-0.0154 0.490392,-0.0846 0.975368,-0.20057 1.45098,-0.346974"
     id="path8"
     inkscape:path-effect="#path-effect8"
     inkscape:original-d="m 31.164535,22.647911 c 0,0.05257 -0.03015,0.114647 0,0.157716 0.154588,0.220839 0.65671,0.264434 0.82012,0.283887 0.208251,0.02479 1.45098,0.150997 1.45098,-0.346974" />
  <path
     style="fill:none;stroke:#95aabf;stroke-width:1.079"
     d="m 37.126172,23.057971 c 0.03729,0.03731 0.07991,0.06928 0.126172,0.09463 0.104865,0.05747 0.228552,0.07984 0.346923,0.06289 0.11837,-0.01695 0.230768,-0.07312 0.315482,-0.157518 0.03728,-0.03714 0.06965,-0.0802 0.08849,-0.129336 0.01884,-0.04914 0.02337,-0.104825 0.0061,-0.154551 -0.01333,-0.03846 -0.03953,-0.07235 -0.0734,-0.09493 -0.03387,-0.02258 -0.07522,-0.03373 -0.115857,-0.03125"
     id="path9"
     inkscape:path-effect="#path-effect9"
     inkscape:original-d="m 37.126172,23.057971 c 0.04206,0.03154 0.08468,0.06235 0.126172,0.09463 0.285531,0.222079 0.495371,0.30625 0.662405,-0.09463 0.03159,-0.07581 0.107578,-0.270938 0.09463,-0.283887 -0.04639,-0.04639 -0.189259,-0.06676 -0.189259,-0.126173" />
  <path
     style="fill:none;stroke:#1c3c55;stroke-width:1.079;stroke-opacity:1"
     d="m 18.042626,23.436488 c -0.06221,-0.03325 -0.125331,-0.06481 -0.189259,-0.09463 -0.876226,-0.408733 -1.872663,-0.477246 -2.838874,-0.441602 -0.19063,0.007 -0.382411,0.01804 -0.567775,0.06309 -0.476492,0.115808 -0.87492,0.449196 -1.178155,0.834559 -0.303236,0.385363 -0.526403,0.826094 -0.777514,1.247282 -0.38833,0.651347 -0.845438,1.258737 -1.261722,1.892583 -0.187323,0.285223 -0.366556,0.576067 -0.567775,0.851663 -0.384452,0.526556 -0.8543505,0.99963 -1.4194378,1.324808 -0.2528434,0.145498 -0.5219987,0.260044 -0.7885763,0.378517 -0.5589717,0.24842 -1.1250625,0.519823 -1.7348678,0.567775 -0.209753,0.01649 -0.4205462,0.006 -0.6308611,0 -0.1685994,-0.0048 -0.3378489,-0.0068 -0.5046888,-0.03154 C 5.1453482,29.964011 4.7330275,29.736334 4.4475703,29.398131 4.060237,28.939228 3.9233469,28.313046 3.9291879,27.712559 c 0.00584,-0.600488 0.1401107,-1.191111 0.234495,-1.784163 0.1644715,-1.033436 0.2084243,-2.081805 0.3154305,-3.122762 0.06492,-0.631538 0.1546495,-1.266954 0.3785166,-1.86104 0.058247,-0.154573 0.1258481,-0.30662 0.2173802,-0.444124 0.091532,-0.137504 0.2081069,-0.26055 0.3503947,-0.344453 0.063154,-0.03724 0.1310704,-0.06667 0.1906302,-0.109426 0.02978,-0.02138 0.057404,-0.04612 0.079551,-0.07533 0.022146,-0.02921 0.038709,-0.06306 0.04525,-0.09913 0.00378,-0.02082 0.00418,-0.04235 0,-0.06309 -0.00827,-0.04104 -0.03391,-0.07664 -0.063531,-0.106225 -0.029621,-0.02959 -0.063635,-0.05441 -0.094185,-0.08304 C 5.4891644,19.531743 5.4322674,19.412446 5.3623188,19.304348 5.1486369,18.974127 4.8050222,18.743039 4.4363679,18.605927 4.0677135,18.468814 3.6727364,18.418561 3.2804774,18.389599 c -0.157637,-0.01164 -0.3155015,-0.02 -0.4731458,-0.03154 -0.1262728,-0.0092 -0.2523864,-0.02052 -0.3785166,-0.03154 -0.1509125,-0.01319 -0.3059891,-0.02712 -0.4416027,-0.09463 -0.1466212,-0.07299 -0.2591775,-0.205204 -0.3253645,-0.355018 -0.066187,-0.149815 -0.088426,-0.31637 -0.083272,-0.480073 0.010307,-0.327404 0.1259212,-0.641201 0.1878353,-0.962863 0.1733053,-0.900374 -0.077586,-1.830632 0,-2.744245 0.091671,-1.079472 0.6354982,-2.077787 0.7570333,-3.154306 0.02956,-0.261833 0.033715,-0.527246 0,-0.7885759 C 2.4603125,9.2574645 2.2671944,8.7961731 2.1133845,8.3273657 1.9027985,7.6855067 1.762711,7.0179138 1.4825234,6.4032396 1.378254,6.174494 1.2550447,5.95423 1.1632353,5.7202049 1.071426,5.4861799 1.0113357,5.2334447 1.0409207,4.9838022 1.0640269,4.7888289 1.1412126,4.6030841 1.2441979,4.435924 1.3471833,4.2687638 1.4756575,4.1188176 1.6086957,3.9744246 2.0273247,3.5200657 2.503819,3.1085324 3.059676,2.8388747 3.9036625,2.4294394 4.8684568,2.3723286 5.8039216,2.3026428 6.9193699,2.2195495 8.0325593,2.1085874 9.1474851,2.0187553 11.811941,1.804074 14.487771,1.7101697 17.15942,1.797954 c 1.745451,0.057352 3.49248,0.1921748 5.236147,0.094629 2.583273,-0.1445158 5.150998,-0.7979846 7.728048,-0.5677749 0.402036,0.035914 0.802605,0.09332 1.206072,0.1049975 0.403468,0.011678 0.814165,-0.023975 1.1912,-0.1680835 0.130051,-0.049708 0.260451,-0.1130759 0.399663,-0.1110279 0.06961,0.00102 0.140225,0.019578 0.196286,0.060847 0.02803,0.020635 0.05214,0.046778 0.0694,0.077004 0.01726,0.030226 0.02756,0.064557 0.0286,0.099348 3.13e-4,0.01051 0,0.021028 0,0.031543 v 0.2838875 c 0,0.1423356 0.0027,0.2846572 0.0031,0.4269923 3.81e-4,0.142335 -0.003,0.2858842 -0.03459,0.4246701 -0.02216,0.097356 -0.05821,0.190919 -0.09463,0.2838875 -0.14957,0.3818425 -0.307352,0.7604673 -0.473146,1.1355499 -0.120029,0.2715448 -0.244374,0.5415216 -0.346974,0.8201193 -0.15631,0.4244398 -0.261153,0.8661718 -0.410059,1.2932651 -0.05146,0.1475977 -0.108153,0.2933575 -0.157716,0.4416028 -0.168266,0.5032864 -0.252782,1.0300502 -0.378516,1.5456095 -0.14335,0.5877885 -0.341227,1.1653232 -0.41006,1.7664109 -0.0193,0.1685188 -0.02841,0.3386518 -0.06309,0.5046888 -0.0089,0.04245 -0.01939,0.08455 -0.03154,0.126172 -0.02991,0.05964 -0.05123,0.123594 -0.06309,0.189259 -0.01326,0.07345 -0.01468,0.148428 -0.01999,0.222874 -0.0053,0.07445 -0.0148,0.149669 -0.0431,0.218728 -0.02154,0.05256 -0.05396,0.101647 -0.06309,0.157716 -0.0068,0.04158 -1.76e-4,0.08404 0,0.126172 5.03e-4,0.120662 -0.05117,0.234408 -0.09463,0.346973 -0.07775,0.201389 -0.132183,0.415068 -0.126172,0.630861 8.79e-4,0.03155 0.003,0.06321 0,0.09463 -0.0074,0.07635 -0.04484,0.146299 -0.06309,0.220801 -0.02517,0.102772 -0.01318,0.211226 -0.03154,0.31543 -0.01685,0.09566 -0.05911,0.18684 -0.06309,0.283888 -0.0022,0.05259 0.0071,0.10556 0,0.157715 -0.006,0.04465 -0.0238,0.08681 -0.0428,0.127669 -0.01901,0.04086 -0.03956,0.08132 -0.05183,0.124676 -0.0288,0.101833 -0.0098,0.210055 0,0.31543 0.01678,0.180914 0.0047,0.367643 -0.06309,0.536232 -0.02054,0.05113 -0.0461,0.100387 -0.06189,0.153176 -0.01579,0.05279 -0.02122,0.110917 -0.0012,0.162254 0.01104,0.02831 0.0295,0.05388 0.03568,0.08363 0.0031,0.01487 0.0029,0.03077 -0.003,0.04479 -0.0029,0.007 -0.0073,0.01346 -0.01284,0.01861 -0.0056,0.0051 -0.01244,0.009 -0.01984,0.01069 -0.01028,0.0024 -0.02101,7.26e-4 -0.03154,0 -0.04488,-0.0031 -0.09074,0.01203 -0.124985,0.0412 -0.03424,0.02917 -0.05645,0.07206 -0.06052,0.116856 -0.0041,0.0448 0.01004,0.09099 0.03846,0.125855 0.02842,0.03487 0.07081,0.05801 0.115507,0.06306"
     id="path10"
     inkscape:path-effect="#path-effect10"
     inkscape:original-d="m 18.042626,23.436488 c -0.06309,-0.03154 -0.121135,-0.07635 -0.189259,-0.09463 -0.919394,-0.246666 -1.881173,-0.462885 -2.838874,-0.441602 -0.190376,0.0042 -0.387124,0.0029 -0.567775,0.06309 -0.670377,0.223459 -1.569723,1.551164 -1.955669,2.081841 -0.785543,1.080122 -0.544612,0.787846 -1.261722,1.892583 -0.185769,0.286184 -0.337721,0.599699 -0.567775,0.851663 -0.436394,0.477955 -0.9069889,0.92949 -1.4194378,1.324808 -0.2308614,0.178093 -0.5205794,0.263661 -0.7885763,0.378517 -0.5026428,0.215418 -1.1810724,0.488661 -1.7348678,0.567775 -0.2081735,0.02974 -0.420708,0.0075 -0.6308611,0 -0.1684504,-0.006 -0.339018,-4.8e-4 -0.5046888,-0.03154 -0.3634651,-0.06815 -0.9586475,-0.251785 -1.1355499,-0.630862 -0.3815469,-0.8176 -0.3139714,-2.67251 -0.2838874,-3.469735 0.043766,-1.15981 0.1663104,-1.984027 0.3154305,-3.122762 0.09785,-0.747217 0.095806,-1.201383 0.3785166,-1.86104 0.1046242,-0.244123 0.3888512,-0.599713 0.5677749,-0.788577 0.097286,-0.10269 0.2521695,-0.157365 0.3154306,-0.283887 0.0094,-0.01881 0.011145,-0.04525 0,-0.06309 C 5.6973121,19.739399 5.632392,19.685474 5.5831202,19.619778 5.5061138,19.517103 5.4530718,19.395101 5.3623188,19.304348 4.8323341,18.774363 3.96414,18.547368 3.2804774,18.389599 3.1264599,18.354057 2.9649651,18.369733 2.8073316,18.358056 2.681068,18.348703 2.555294,18.332262 2.428815,18.326513 2.3650924,18.323617 2.0467982,18.386807 1.9872123,18.231884 1.7706214,17.668748 1.7958872,17.023457 1.7664109,16.43393 c -0.052429,-1.048578 -0.1351657,-1.638344 0,-2.744245 0.1314266,-1.075309 0.6351872,-2.077998 0.7570333,-3.154306 0.029569,-0.26119 0.017881,-0.526326 0,-0.7885759 C 2.4781223,9.0820819 2.3638555,9.0119865 2.1133845,8.3273657 1.880529,7.6908941 1.7302977,7.0364403 1.4825234,6.4032396 1.292332,5.9171947 1.0816284,5.5130025 1.0409207,4.9838022 1.0262343,4.7928794 1.4971669,4.101886 1.6086957,3.9744246 1.9930363,3.5351781 2.521051,3.0753442 3.059676,2.8388747 3.877288,2.4799231 4.9329914,2.4115091 5.8039216,2.3026428 6.9200649,2.1631249 8.0222215,2.0631736 9.1474851,2.0187553 11.816944,1.913382 14.488121,1.8393695 17.15942,1.797954 c 1.746151,-0.027072 3.490605,0.072534 5.236147,0.094629 2.590621,0.032793 5.148749,-0.3980842 7.728048,-0.5677749 0.96913,-0.063759 1.37365,-0.097785 2.397272,-0.063086 0.139969,0.00474 0.512786,0.035592 0.693947,0.1261722 0.0094,0.0047 0,0.021029 0,0.031543 0,0.094629 0,0.1892584 0,0.2838875 0,0.2863473 0.01487,0.5731687 -0.03154,0.8516624 -0.01553,0.093158 -0.06472,0.1941614 -0.09463,0.2838875 -0.130407,0.3912183 -0.30769,0.7573635 -0.473146,1.1355499 -0.117939,0.2695735 -0.245847,0.5443196 -0.346974,0.8201193 -0.156743,0.4274816 -0.266594,0.8628687 -0.410059,1.2932651 -0.04943,0.1482859 -0.112801,0.2918878 -0.157716,0.4416028 -0.152417,0.5080577 -0.249869,1.0310189 -0.378516,1.5456095 -0.146192,0.5847667 -0.29726,1.1742103 -0.41006,1.7664109 -0.03172,0.1665448 -0.03276,0.3378848 -0.06309,0.5046888 -0.0078,0.04265 -0.02103,0.08412 -0.03154,0.126172 -0.02103,0.06309 -0.05004,0.124051 -0.06309,0.189259 -0.02916,0.145807 -0.03245,0.296096 -0.06309,0.441602 -0.01166,0.05541 -0.0508,0.102442 -0.06309,0.157716 -0.0091,0.04106 0.0059,0.08454 0,0.126172 -0.01649,0.115417 -0.07506,0.229574 -0.09463,0.346973 -0.03497,0.209831 -0.09624,0.421363 -0.126172,0.630861 -0.0045,0.03123 0.0062,0.0637 0,0.09463 -0.01501,0.07506 -0.04978,0.14542 -0.06309,0.220801 -0.01836,0.10406 -0.01506,0.211056 -0.03154,0.31543 -0.01512,0.09575 -0.04938,0.187925 -0.06309,0.283888 -0.0074,0.05204 0.0065,0.105549 0,0.157715 -0.01282,0.102595 -0.08397,0.145753 -0.09463,0.252345 -0.01046,0.104621 0.01729,0.211717 0,0.31543 -0.02946,0.176771 -0.04068,0.356958 -0.06309,0.536232 -0.01261,0.100906 -0.03848,0.217006 -0.06309,0.31543 -0.0112,0.0448 0.02013,0.117444 0,0.157716 -0.0047,0.0094 -0.02411,-0.0074 -0.03154,0 -0.01952,0.01952 -0.03154,0.284528 -0.03154,0.346973" />
  <path
     style="fill:none;stroke:#95aabf;stroke-width:1.079"
     d="m 8.2958227,9.3052003 c 0.082899,-0.044432 0.1670591,-0.086512 0.2523444,-0.1261722 0.961161,-0.4469665 2.0417719,-0.5756777 3.1017749,-0.5738633 1.060003,0.00181 2.115897,0.1278744 3.175292,0.1638037 0.758525,0.025725 1.544569,0.010449 2.239557,0.3154305 0.241416,0.1059407 0.464886,0.2479934 0.693947,0.3785166 0.468919,0.2671988 0.976288,0.4907004 1.514067,0.5362319 0.574872,0.048672 1.144741,-0.1080161 1.703325,-0.2523444 0.691357,-0.1786344 1.386926,-0.3404401 2.081841,-0.5046889 0.662663,-0.1566257 1.324794,-0.3154889 1.987212,-0.4731457 0.399441,-0.095068 0.798987,-0.1896971 1.198636,-0.2838875"
     id="path11"
     inkscape:path-effect="#path-effect11"
     inkscape:original-d="M 8.2958227,9.3052003 C 8.3799375,9.2631429 8.4550691,9.1923279 8.5481671,9.1790281 11.581032,8.7457617 11.966826,8.7024939 14.825234,8.7689685 c 0.676282,0.015727 1.576746,0.07325 2.239557,0.3154305 0.247486,0.090428 0.460437,0.2564543 0.693947,0.3785166 0.612226,0.3200269 0.802832,0.4541663 1.514067,0.5362319 0.819905,0.094605 0.900434,-0.030857 1.703325,-0.2523444 1.012054,-0.2791873 0.994507,-0.2683119 2.081841,-0.5046889 2.29593,-0.4991152 -0.162961,0.064398 1.987212,-0.4731457 0.08149,-0.020373 1.112243,-0.1974938 1.198636,-0.2838875" />
  <path
     style="fill:none;stroke:#95aabf;stroke-width:1.079"
     d="m 7.6965047,13.563512 c 0.052446,0.01113 0.1050229,0.02164 0.1577152,0.03154 1.5018783,0.282123 3.0458211,0.05782 4.5737421,0.03154 0.988581,-0.017 1.979635,0.04936 2.965047,-0.03154 0.683568,-0.05612 1.361289,-0.183192 2.018756,-0.378516"
     id="path12"
     inkscape:path-effect="#path-effect12"
     inkscape:original-d="m 7.6965047,13.563512 c 0.052572,0.01051 0.1041488,0.02931 0.1577152,0.03154 1.5207233,0.06336 3.0524951,0.04149 4.5737421,0.03154 0.988384,-0.0065 1.97814,0.02285 2.965047,-0.03154 0.672616,-0.03707 1.350877,-0.283105 2.018756,-0.378516" />
</svg>
