<?xml version="1.0" encoding="UTF-8" standalone="no"?>
<svg
   width="39px"
   height="38px"
   viewBox="0 0 39 38"
   version="1.1"
   id="svg4"
   sodipodi:docname="ico_pci.svg"
   inkscape:version="1.3.2 (091e20e, 2023-11-25, custom)"
   xmlns:inkscape="http://www.inkscape.org/namespaces/inkscape"
   xmlns:sodipodi="http://sodipodi.sourceforge.net/DTD/sodipodi-0.dtd"
   xmlns="http://www.w3.org/2000/svg"
   xmlns:svg="http://www.w3.org/2000/svg">
  <sodipodi:namedview
     id="namedview4"
     pagecolor="#ffffff"
     bordercolor="#000000"
     borderopacity="0.25"
     inkscape:showpageshadow="2"
     inkscape:pageopacity="0.0"
     inkscape:pagecheckerboard="0"
     inkscape:deskcolor="#d1d1d1"
     inkscape:zoom="30.868421"
     inkscape:cx="19.502131"
     inkscape:cy="19"
     inkscape:window-width="2560"
     inkscape:window-height="1369"
     inkscape:window-x="-8"
     inkscape:window-y="-8"
     inkscape:window-maximized="1"
     inkscape:current-layer="svg4" />
  <!-- Generator: Sketch 49 (51002) - http://www.bohemiancoding.com/sketch -->
  <title
     id="title1">Group</title>
  <desc
     id="desc1">Created with Sketch.</desc>
  <defs
     id="defs1">
    <inkscape:path-effect
       effect="spiro"
       id="path-effect14"
       is_visible="true"
       lpeversion="1" />
    <inkscape:path-effect
       effect="spiro"
       id="path-effect13"
       is_visible="true"
       lpeversion="1" />
    <inkscape:path-effect
       effect="spiro"
       id="path-effect12"
       is_visible="true"
       lpeversion="1" />
    <inkscape:path-effect
       effect="spiro"
       id="path-effect11"
       is_visible="true"
       lpeversion="1" />
    <inkscape:path-effect
       effect="spiro"
       id="path-effect10"
       is_visible="true"
       lpeversion="1" />
    <inkscape:path-effect
       effect="spiro"
       id="path-effect9"
       is_visible="true"
       lpeversion="1" />
    <inkscape:path-effect
       effect="spiro"
       id="path-effect8"
       is_visible="true"
       lpeversion="1" />
    <inkscape:path-effect
       effect="spiro"
       id="path-effect7"
       is_visible="true"
       lpeversion="1" />
    <inkscape:path-effect
       effect="spiro"
       id="path-effect6"
       is_visible="true"
       lpeversion="1" />
    <inkscape:path-effect
       effect="spiro"
       id="path-effect5"
       is_visible="true"
       lpeversion="1" />
  </defs>
  <path
     style="fill:none;stroke:#95aabf;stroke-opacity:1"
     d="M 4.4057971,31.780051 C 4.2389735,31.263253 4.0769863,30.744894 3.9198636,30.225064 3.8455589,29.979232 3.7722025,29.732498 3.7254902,29.479966 c -0.1027505,-0.555482 -0.074182,-1.12981 0.032396,-1.68457 0.06919,-0.360147 0.1707165,-0.713145 0.2591645,-1.069053 0.1354018,-0.544846 0.2402531,-1.09703 0.3239557,-1.652174 0.085766,-0.568829 0.1494358,-1.141843 0.1619778,-1.716965 0.00918,-0.421062 -0.00905,-0.842362 0,-1.263427 0.00511,-0.237634 0.018891,-0.475766 0,-0.712703 -0.018211,-0.228403 -0.066599,-0.45323 -0.097187,-0.680307 -0.028977,-0.215121 -0.04195,-0.432053 -0.064791,-0.647911 C 4.2881276,19.55313 4.1825279,19.060514 4.114237,18.56266 4.0654533,18.207017 4.0357403,17.848926 3.9846547,17.493606 3.9272495,17.094331 3.842793,16.697848 3.8226769,16.29497 c -0.00539,-0.107902 -0.00614,-0.216094 0,-0.323956 0.00976,-0.171582 0.036927,-0.342308 0.03547,-0.514162 -0.00146,-0.171853 -0.034185,-0.34925 -0.1326569,-0.4901 -0.03506,-0.05015 -0.07761,-0.0945 -0.1175585,-0.14085 -0.039948,-0.04635 -0.077854,-0.09559 -0.1014393,-0.152048 -0.023585,-0.05646 -0.031786,-0.121344 -0.01156,-0.179092 0.010113,-0.02887 0.02727,-0.05545 0.050445,-0.07542 0.023176,-0.01997 0.052441,-0.03313 0.082926,-0.03571 0.010769,-9.11e-4 0.021602,-5.28e-4 0.032396,0 0.2574209,0.01259 0.5029669,0.106075 0.745098,0.194373 0.7125498,0.259844 1.4379493,0.483809 2.170503,0.680307 1.0887019,0.29203 2.1931663,0.523417 3.3043478,0.712702 0.6022733,0.102595 1.2068103,0.192877 1.8141523,0.259165 0.838898,0.09156 1.683009,0.137268 2.526854,0.129582 1.550368,-0.01412 3.092696,-0.208078 4.632566,-0.388747 0.983088,-0.115343 1.966868,-0.225389 2.947997,-0.356351 1.451763,-0.193782 2.919209,-0.433788 4.373401,-0.259164 0.229452,0.02755 0.458264,0.06552 0.680307,0.129582 0.71339,0.205825 1.319341,0.66728 1.943734,1.069054 0.151141,0.09725 0.304271,0.191454 0.453538,0.29156 0.236705,0.158746 0.469246,0.338509 0.615516,0.58312 0.180827,0.3024 0.210321,0.677183 0.146598,1.023714 -0.06372,0.34653 -0.213533,0.670809 -0.373367,0.984811 -0.116129,0.228142 -0.238292,0.453158 -0.356352,0.680307 -0.29452,0.566663 -0.563855,1.147523 -0.777493,1.749361 -0.408731,1.151434 -0.609887,2.374094 -0.615516,3.595908 -0.0044,0.955242 0.109408,1.907369 0.259165,2.850809 0.134542,0.847584 0.299911,1.696402 0.615515,2.494459 0.03087,0.07806 0.06332,0.156116 0.08012,0.238355 0.0168,0.08224 0.01705,0.170138 -0.01533,0.247579 -0.03112,0.07444 -0.09101,0.134847 -0.161119,0.174776 -0.07011,0.03993 -0.150035,0.06041 -0.230304,0.06857 -0.16054,0.01632 -0.321898,-0.01506 -0.483258,-0.01658 -0.174426,-0.0016 -0.347084,0.03159 -0.518329,0.06479 -0.204018,0.03955 -0.408471,0.0793 -0.615516,0.09719 -0.290652,0.02511 -0.583026,0.0069 -0.87468,0 -0.626202,-0.01475 -1.252989,0.02299 -1.878943,0 -0.475947,-0.01748 -0.949912,-0.07003 -1.425405,-0.09719 -0.765618,-0.04373 -1.533296,-0.02154 -2.300085,-0.0324 -1.101771,-0.0156 -2.204506,-0.09941 -3.304348,-0.0324 -0.291822,0.01778 -0.582911,0.04616 -0.87468,0.06479 -0.679782,0.04341 -1.362702,0.03389 -2.040921,0.09719 -0.28141,0.02627 -0.561488,0.06502 -0.842285,0.09719 -0.721705,0.08268 -1.447716,0.12176 -2.170503,0.194374 -0.993528,0.09981 -1.9822691,0.263066 -2.9803919,0.29156 -0.5613164,0.01602 -1.1230244,0 -1.6845695,0 H 5.1832885 c -0.2069938,0 -0.4156,-0.01112 -0.6155158,-0.06479"
     id="path5"
     inkscape:path-effect="#path-effect5"
     inkscape:original-d="M 4.4057971,31.780051 C 4.1895589,31.281006 4.0595355,30.748834 3.9198636,30.225064 3.8537273,29.977053 3.7584872,29.734514 3.7254902,29.479966 c -0.076044,-0.586627 -0.039458,-1.10974 0.032396,-1.68457 0.047971,-0.383769 0.1571744,-0.678091 0.2591645,-1.069053 0.2164436,-0.829701 0.2097453,-0.771122 0.3239557,-1.652174 0.050085,-0.386368 0.1497502,-1.319568 0.1619778,-1.716965 0.012952,-0.420943 0,-0.842285 0,-1.263427 0,-0.237568 0.016534,-0.475711 0,-0.712703 -0.015943,-0.228516 -0.069457,-0.45292 -0.097187,-0.680307 -0.026275,-0.215451 -0.03787,-0.43254 -0.064791,-0.647911 C 4.0376732,17.626194 4.3557556,20.301594 4.114237,18.56266 4.0648555,18.207113 4.033702,17.849199 3.9846547,17.493606 3.9298839,17.096518 3.8427319,16.696069 3.8226769,16.29497 c -0.00539,-0.10785 0.00539,-0.216105 0,-0.323956 -0.016447,-0.328939 -0.045816,-0.678913 -0.097187,-1.004262 -0.020789,-0.131666 -0.1471516,-0.433226 -0.097187,-0.58312 0.00341,-0.01025 0.02192,-0.0026 0.032396,0 0.2490141,0.06225 0.4984758,0.123232 0.745098,0.194373 0.7285032,0.210145 1.4402008,0.476502 2.170503,0.680307 1.2112672,0.338028 2.0497506,0.507405 3.3043478,0.712702 0.6028393,0.09865 1.2057303,0.204679 1.8141523,0.259165 0.84003,0.07523 1.683705,0.109347 2.526854,0.129582 1.556311,0.03735 3.092646,-0.20209 4.632566,-0.388747 0.982626,-0.119106 1.966637,-0.227224 2.947997,-0.356351 1.578868,-0.207746 2.764665,-0.498763 4.373401,-0.259164 0.228328,0.03401 0.45853,0.06551 0.680307,0.129582 0.850824,0.245794 1.24426,0.602738 1.943734,1.069054 0.149539,0.09969 0.301133,0.196307 0.453538,0.29156 0.252291,0.157681 0.543974,0.261184 0.615516,0.58312 0.132037,0.59417 -4.93e-4,1.456976 -0.226769,2.008525 -0.09717,0.236839 -0.241867,0.451338 -0.356352,0.680307 -0.264499,0.529 -0.580848,1.196882 -0.777493,1.749361 -0.41288,1.159996 -0.589423,2.36953 -0.615516,3.595908 -0.02284,1.073485 0.03547,1.766754 0.259165,2.850809 0.1729,0.837902 0.494271,1.645749 0.615515,2.494459 0.0039,0.02747 0.06494,0.485708 0.06479,0.485934 -0.08968,0.134516 -0.749646,0.208906 -0.874681,0.226769 -0.172371,0.02462 -0.345958,0.04017 -0.518329,0.06479 -0.205626,0.02937 -0.408242,0.08367 -0.615516,0.09719 -0.290942,0.01898 -0.58312,0 -0.87468,0 -0.626314,0 -1.253157,0.02572 -1.878943,0 -0.475836,-0.01955 -0.949776,-0.0731 -1.425405,-0.09719 -1.195423,-0.06053 -1.091958,-0.01489 -2.300085,-0.0324 -1.099908,-0.01594 -2.204125,-0.07314 -3.304348,-0.0324 -0.292158,0.01082 -0.582698,0.04994 -0.87468,0.06479 -1.226054,0.06234 -0.83321,-0.0088 -2.040921,0.09719 -0.281543,0.0247 -0.561181,0.06791 -0.842285,0.09719 -0.722225,0.07523 -1.449244,0.110506 -2.170503,0.194374 -0.988513,0.114943 -1.9824804,0.271601 -2.9803919,0.29156 -0.5614109,0.01123 -1.1230463,0 -1.6845695,0 -0.4211424,0 -0.8422847,0 -1.2634271,0 -0.1176419,0 -0.6155158,0.0157 -0.6155158,-0.06479" />
  <path
     style="fill:none;stroke:#1c3c55;stroke-opacity:1"
     d="m 6.7382779,29.285592 c 0.088724,-0.655328 0.077761,-1.324061 -0.032395,-1.976129 -0.034009,-0.201314 -0.077504,-0.401921 -0.086486,-0.60589 -0.00898,-0.203969 0.018777,-0.414805 0.1188814,-0.592746 0.00853,-0.01516 0.017594,-0.03011 0.024131,-0.04624 0.00654,-0.01612 0.01049,-0.0337 0.00826,-0.05095 -0.00144,-0.01113 -0.00539,-0.02182 -0.00699,-0.03293 -8.008e-4,-0.0056 -0.001,-0.01124 2e-6,-0.01677 0.00101,-0.0055 0.00327,-0.01089 0.00699,-0.01509 0.00382,-0.0043 0.00904,-0.0073 0.014595,-0.0088 0.00555,-0.0015 0.011422,-0.0017 0.017141,-0.001 0.011438,0.0014 0.022165,0.0061 0.033055,0.0098 0.047048,0.01624 0.098542,0.0154 0.1475509,0.0067 0.049008,-0.0087 0.0963,-0.02492 0.1440092,-0.0391 0.3140719,-0.09338 0.6485529,-0.09841 0.9744808,-0.06478 0.3259279,0.03363 0.6466018,0.104903 0.9692532,0.161967 0.992868,0.175598 2.004561,0.21663 3.012787,0.226769 0.09705,9.76e-4 0.195444,0.0019 0.288907,0.028 0.04673,0.01307 0.09194,0.03252 0.131837,0.06014 0.0399,0.02762 0.0744,0.06361 0.09759,0.10624 0.02647,0.04866 0.03749,0.104161 0.04414,0.15915 0.0067,0.05499 0.0093,0.110589 0.02065,0.164805 0.01893,0.09048 0.06131,0.173976 0.09719,0.259165 0.24063,0.571387 0.191041,1.226531 0.388747,1.814152 0.01957,0.05816 0.04162,0.115901 0.05191,0.176397 0.01028,0.0605 0.008,0.125085 -0.01951,0.179954 -0.03069,0.06128 -0.09012,0.104529 -0.154361,0.128392 -0.06424,0.02386 -0.133535,0.03031 -0.20199,0.03359 -0.129458,0.0062 -0.259153,0.0019 -0.388747,0 -0.226749,-0.0033 -0.453538,0.0011 -0.680307,0 -1.336129,-0.0065 -2.6711934,-0.203445 -3.9522591,-0.583121"
     id="path6"
     inkscape:path-effect="#path-effect6"
     inkscape:original-d="m 6.7382779,29.285592 c 0,-1.56803 0.00609,0.294488 -0.032395,-1.976129 -0.0064,-0.377885 -0.021991,-0.817928 0.032395,-1.198636 0.00483,-0.03381 0.024114,-0.06406 0.032396,-0.09719 0.00524,-0.02095 -0.019317,-0.05513 0,-0.06479 0.019317,-0.0097 0.043283,0.002 0.064791,0 0.097383,-0.0089 0.1937753,-0.03239 0.2915601,-0.03239 0.9831305,0 0.9839742,0.0492 1.943734,0.09719 1.002181,0.05011 2.031068,-0.01866 3.012787,0.226769 7.17e-4,1.79e-4 0.482806,0.105566 0.51833,0.194374 0.04314,0.107843 0.03273,0.211745 0.06479,0.323955 0.02535,0.08871 0.06967,0.171102 0.09719,0.259165 0.184772,0.591269 0.316462,1.199731 0.388747,1.814152 0.01,0.08476 0.04404,0.347621 0.0324,0.356351 -0.04458,0.03343 -0.355213,0.161798 -0.356351,0.161978 -0.127997,0.02021 -0.259165,0 -0.388747,0 -0.226769,0 -0.454181,0.01707 -0.680307,0 C 10.425919,29.249736 9.1479677,28.76727 7.8073389,28.76727" />
  <path
     style="fill:none;stroke:#1c3c55;stroke-opacity:1"
     d="m 17.007673,23.843137 3.790281,-0.615516"
     id="path7"
     inkscape:path-effect="#path-effect7"
     inkscape:original-d="m 17.007673,23.843137 c 1.089796,-0.709778 2.64311,-0.04193 3.790281,-0.615516" />
  <path
     style="fill:none;stroke:#1c3c55;stroke-opacity:1"
     d="m 23.130435,23.875533 3.045183,-0.194374"
     id="path8"
     inkscape:path-effect="#path-effect8"
     inkscape:original-d="m 23.130435,23.875533 c 1.011035,-0.125751 2.034987,-0.0681 3.045183,-0.194374" />
  <path
     style="fill:none;stroke:#ff9500;stroke-opacity:1"
     d="m 4.3734015,20.700767 c 2.0818896,0.294135 4.1823808,0.456544 6.2847405,0.485934 0.82062,0.01147 1.641367,0.0027 2.462063,0 1.015991,-0.0033 2.034091,0.0025 3.045183,-0.09719 0.867881,-0.08558 1.726244,-0.248537 2.591645,-0.356351 1.39735,-0.174085 2.8084,-0.203896 4.211424,-0.323956 0.59016,-0.0505 1.183099,-0.117816 1.749361,-0.29156 0.340306,-0.104415 0.681363,-0.24859 1.036658,-0.226769 0.182445,0.01121 0.361968,0.06731 0.518329,0.161978 0.09295,0.05199 0.190685,0.09542 0.29156,0.129582 0.0647,0.02191 0.130715,0.04002 0.194373,0.06479 0.06759,0.0263 0.132139,0.05995 0.194374,0.09719 0.09082,0.05434 0.177447,0.116667 0.274217,0.159535 0.04838,0.02143 0.09925,0.03789 0.151682,0.04508 0.05243,0.0072 0.106523,0.0049 0.157221,-0.01024 0.03679,-0.01101 0.07243,-0.02886 0.110819,-0.02963 0.01919,-3.88e-4 0.03887,0.0038 0.05482,0.01449 0.008,0.0053 0.01493,0.01227 0.02,0.02042 0.0051,0.0082 0.0082,0.01754 0.0087,0.02712 5.76e-4,0.01081 -0.0021,0.02179 0,0.0324 0.0013,0.0063 0.0042,0.01215 0.0083,0.01705 0.0041,0.0049 0.0093,0.0088 0.01508,0.01161 0.0115,0.0056 0.02488,0.0065 0.03747,0.0043 0.02518,-0.0044 0.04658,-0.02017 0.0687,-0.03297 0.06863,-0.0397 0.152479,-0.05227 0.229733,-0.03444 0.07726,0.01783 0.147116,0.06587 0.191409,0.131629"
     id="path9"
     inkscape:path-effect="#path-effect9"
     inkscape:original-d="m 4.3734015,20.700767 c 2.0841496,0.251929 4.1831371,0.43817 6.2847405,0.485934 0.820475,0.01865 1.641375,0 2.462063,0 1.184994,0 1.687871,0.01592 3.045183,-0.09719 0.753777,-0.06282 1.815494,-0.266795 2.591645,-0.356351 1.400279,-0.161571 2.809243,-0.1895 4.211424,-0.323956 0.983204,-0.09428 0.903593,-0.09824 1.749361,-0.29156 0.343962,-0.07862 0.684426,-0.194748 1.036658,-0.226769 0.229293,-0.02085 0.310186,0.07277 0.518329,0.161978 0.650487,0.185853 0.01797,-0.03457 0.29156,0.129582 0.05856,0.03514 0.130962,0.03943 0.194373,0.06479 0.242967,0.09719 -0.226769,-0.06479 0.194374,0.09719 0.191231,0.07355 0.388746,0.129582 0.58312,0.194373 0.0048,0.0016 0.181849,0.02613 0.194373,0.0324 0.0097,0.0048 -0.0076,0.02476 0,0.0324 0.0091,0.0091 0.126686,-5.8e-4 0.129583,0 0.177288,0.03546 0.225783,0.09719 0.421142,0.09719"
     inkscape:label="path9" />
  <path
     style="fill:none;stroke:#ff9500;stroke-opacity:1"
     d="m 4.5029838,17.202046 c 1.6147125,0.225097 3.2352018,0.408752 4.859335,0.550725 1.3901062,0.121515 2.7836932,0.212528 4.1790282,0.226769 0.647882,0.0066 1.295827,-0.0033 1.943734,0 0.842612,0.0043 1.686624,0.03106 2.526854,-0.0324 0.411467,-0.03108 0.82095,-0.08372 1.231032,-0.129582 0.463478,-0.05184 0.927922,-0.09504 1.393009,-0.129582 0.128058,-0.02969 0.25798,-0.05135 0.388747,-0.06479 0.387,-0.03979 0.777995,-0.0075 1.16624,-0.03239 0.369001,-0.02363 0.732985,-0.09869 1.10145,-0.129582 0.692888,-0.05808 1.407581,0.03868 2.073316,-0.161978 0.0753,-0.0227 0.149689,-0.04915 0.226769,-0.06479 0.212239,-0.04306 0.431358,-0.0021 0.647911,0 0.336578,0.0033 0.667805,-0.08761 1.004263,-0.09719 0.28102,-0.008 0.564118,0.04074 0.842285,0 0.07067,-0.01035 0.140603,-0.02644 0.211823,-0.03188 0.07122,-0.0054 0.145189,4.26e-4 0.209319,0.03188 0.0217,0.01064 0.04209,0.02411 0.06479,0.0324 0.03412,0.01245 0.0717,0.01246 0.107568,0.0068 0.03587,-0.0057 0.07061,-0.01682 0.105669,-0.0263 0.03506,-0.0095 0.07102,-0.01737 0.107322,-0.01631 0.0363,0.0011 0.07334,0.01182 0.100583,0.03583 0.01146,0.0101 0.02095,0.02229 0.0324,0.0324 0.02212,0.01952 0.05149,0.03063 0.08099,0.03063 0.0295,0 0.05887,-0.01111 0.08099,-0.03063"
     id="path10"
     inkscape:path-effect="#path-effect10"
     inkscape:original-d="m 4.5029838,17.202046 c 1.5790673,0.431429 3.2356551,0.451316 4.859335,0.550725 1.3902422,0.08512 2.7863162,0.190118 4.1790282,0.226769 0.647687,0.01704 1.295823,0 1.943734,0 0.84193,0 1.685801,0.01708 2.526854,-0.0324 0.389734,-0.02293 0.840163,-0.09608 1.231032,-0.129582 0.465773,-0.03992 0.927932,-0.08063 1.393009,-0.129582 0.140114,0.03835 0.258181,-0.05028 0.388747,-0.06479 0.386518,-0.04295 0.778406,-0.0037 1.16624,-0.03239 0.368672,-0.02731 0.732945,-0.100102 1.10145,-0.129582 0.687083,-0.05497 1.392476,-0.0485 2.073316,-0.161978 0.07172,-0.01195 0.155046,-0.05284 0.226769,-0.06479 0.201045,-0.03351 0.450181,0.01098 0.647911,0 0.335606,-0.01865 0.66999,-0.0668 1.004263,-0.09719 0.275585,-0.02505 0.565445,0 0.842285,0 0.125204,0 0.297865,-0.03082 0.421142,0 0.02342,0.0059 0.04188,0.02476 0.06479,0.0324 0.126328,0.04211 0.291578,-0.03239 0.421142,0 0.01482,0.0037 0.01874,0.02557 0.0324,0.0324 0.03406,0.01703 0.123066,0 0.161978,0" />
  <path
     style="fill:none;stroke:#1c3c55;stroke-opacity:1"
     d="m 7.029838,14.966752 c 0.4381102,-0.628282 0.7387018,-1.351929 0.8746803,-2.105712 0.071377,-0.39567 0.097811,-0.797837 0.1295823,-1.198636 0.065126,-0.821593 0.1531442,-1.641188 0.226769,-2.462063 0.040622,-0.4529142 0.07687,-0.9063357 0.097187,-1.3606138 0.022684,-0.5072145 0.025485,-1.0155102 0,-1.5225917 -0.00833,-0.1657682 -0.019679,-0.3320376 -0.00671,-0.4975073 0.012972,-0.1654698 0.051457,-0.3316993 0.1362889,-0.4743597 0.03546,-0.059632 0.078807,-0.1147003 0.1295823,-0.1619778 0.088811,-0.082692 0.1993185,-0.1403571 0.31576,-0.1745154 0.1164416,-0.034158 0.2388108,-0.045385 0.3601119,-0.041998 0.2426022,0.00677 0.4793285,0.070862 0.717137,0.1193266 0.764897,0.1558841 1.551933,0.1513231 2.332481,0.1619778 0.507601,0.00693 1.015082,0.02055 1.522592,0.032396 1.263273,0.029486 2.526776,0.047971 3.790281,0.064791 1.706152,0.022713 3.412344,0.042391 5.1185,0.064791 1.133966,0.014888 2.267974,0.03098 3.401534,0.064791 1.482403,0.044217 2.965222,0.1188459 4.438193,0.2915601 0.290635,0.034079 0.582144,0.072039 0.87468,0.064791 0.0432,-0.00107 0.08648,-0.00313 0.129582,0 0.119135,0.00864 0.232064,0.056474 0.336847,0.1138192 0.104783,0.057345 0.203989,0.1248015 0.311065,0.1777409 0.165518,0.081834 0.346299,0.1273004 0.518329,0.1943734 0.311224,0.1213435 0.589746,0.3115858 0.87468,0.4859336 0.696171,0.4259788 1.450571,0.7682804 2.073316,1.2958226 0.576747,0.4885761 1.029687,1.1421933 1.198636,1.8789429 0.01231,0.053676 0.02311,0.1076968 0.0324,0.1619778 0.03288,0.09703 0.06527,0.194215 0.09719,0.291561 0.100066,0.30521 0.195642,0.612622 0.323955,0.907075 0.128892,0.295781 0.292849,0.585934 0.323956,0.907076 0.0074,0.07622 0.0073,0.154411 0.03239,0.226769 0.02374,0.06852 0.06867,0.127699 0.09719,0.194374 0.02688,0.06283 0.03872,0.131206 0.06479,0.194373 0.03692,0.08945 0.101556,0.166548 0.129583,0.259165 0.03153,0.104186 0.01344,0.215936 0,0.323955 -0.04686,0.376606 -0.03356,0.760111 0.0324,1.133845 0.04602,0.26073 0.117391,0.516516 0.161978,0.777494 0.103891,0.608101 0.06048,1.230728 0.09719,1.846547 0.0311,0.521617 0.119687,1.037809 0.194373,1.554987 0.154094,1.067051 0.246532,2.174969 -0.06479,3.207161 -0.064,0.212205 -0.145678,0.426851 -0.129582,0.647912 0.0028,0.03796 0.0084,0.07568 0.01055,0.113684 0.0021,0.038 6.46e-4,0.07671 -0.01055,0.113085 -0.01861,0.06045 -0.06209,0.109363 -0.09719,0.161978 -0.06887,0.10325 -0.106866,0.224125 -0.132019,0.345662 -0.02515,0.121536 -0.03831,0.24528 -0.06235,0.36704 -0.01112,0.05632 -0.02475,0.112698 -0.04976,0.16437 -0.02501,0.05167 -0.06233,0.09878 -0.112214,0.12719 -0.06218,0.03541 -0.137696,0.03876 -0.208804,0.03082 -0.07111,-0.0079 -0.140937,-0.02621 -0.212339,-0.03082 -0.09788,-0.0063 -0.195373,0.01321 -0.29156,0.0324 -0.812881,0.162179 -1.633307,0.30842 -2.462063,0.323955 -0.173303,0.0032 -0.347886,8.74e-4 -0.518329,0.0324 -0.141725,0.02621 -0.278646,0.07556 -0.421142,0.09719 -0.128601,0.01952 -0.259692,0.01615 -0.388747,0.0324 -0.130388,0.01642 -0.25788,0.05277 -0.388747,0.06479 -0.129111,0.01186 -0.259093,-1.63e-4 -0.388747,0 -0.293595,3.7e-4 -0.583069,0.06311 -0.87468,0.09719 -0.418957,0.04896 -0.842425,0.03872 -1.263427,0.06479 -0.378637,0.02345 -0.755061,0.07625 -1.133845,0.09719 -0.258896,0.01431 -0.518565,0.0137 -0.777494,0 -0.06479,-0.0034 -0.12995,-0.0077 -0.194373,0 -0.04433,0.0053 -0.08799,0.01619 -0.129582,0.0324"
     id="path11"
     inkscape:path-effect="#path-effect11"
     inkscape:original-d="m 7.029838,14.966752 c 0.4565691,-0.60892 0.7322803,-1.36085 0.8746803,-2.105712 0.075462,-0.394725 0.082322,-0.799551 0.1295823,-1.198636 0.2899649,-2.4485925 0.066398,-0.09659 0.226769,-2.462063 0.053826,-0.7939291 0.080565,-0.5960362 0.097187,-1.3606138 0.011031,-0.5074107 0,-1.0150611 0,-1.5225917 0,-0.3265934 -0.031698,-0.6723461 0.1295822,-0.971867 0.032781,-0.06088 0.072937,-0.1223262 0.1295823,-0.1619778 0.2305031,-0.1613521 1.2079469,-0.1039162 1.3930089,-0.097187 1.435387,0.052196 0.733415,0.088458 2.332481,0.1619778 0.50711,0.023315 1.015166,0.017471 1.522592,0.032396 3.030107,0.089121 0.534863,0.064791 3.790281,0.064791 5.005274,0 1.224831,-0.032551 5.1185,0.064791 0.5794,0.014485 2.734751,0.042315 3.401534,0.064791 1.483042,0.04999 2.959649,0.1742154 4.438193,0.2915601 0.291442,0.02313 0.582969,0.045344 0.87468,0.064791 0.0431,0.00287 0.08723,-0.00847 0.129582,0 0.234281,0.046856 0.431452,0.2013685 0.647912,0.2915601 0.170331,0.070971 0.348723,0.1216854 0.518329,0.1943734 0.344728,0.1477407 0.542198,0.2907813 0.87468,0.4859336 0.694732,0.4077776 1.439803,0.7890118 2.073316,1.2958226 0.599608,0.4796863 0.946621,1.1649005 1.198636,1.8789429 0.01833,0.051922 0.0216,0.1079858 0.0324,0.1619778 0.0324,0.09719 0.06122,0.195639 0.09719,0.291561 0.722192,1.925847 -0.255384,-0.7782743 0.323955,0.907075 0.104371,0.303626 0.246087,0.595599 0.323956,0.907076 0.01852,0.07408 0.0099,0.153789 0.03239,0.226769 0.0213,0.06924 0.06933,0.127507 0.09719,0.194374 0.02627,0.06304 0.03653,0.132199 0.06479,0.194373 0.09517,0.209384 0.08789,0.09241 0.129583,0.259165 0.02363,0.09452 0,0.230531 0,0.323955 0,0.374843 -0.02931,0.76359 0.0324,1.133845 0.137632,0.825791 0.06679,-0.0475 0.161978,0.777494 0.07067,0.612455 0.04711,1.233064 0.09719,1.846547 0.112146,1.373794 0.07573,0.249899 0.194373,1.554987 0.09653,1.061785 0.09768,2.151118 -0.06479,3.207161 -0.0334,0.217122 -0.105269,0.429095 -0.129582,0.647912 -0.0083,0.07513 0.0239,0.155058 0,0.226769 -0.0718,0.215408 -0.05134,0.0015 -0.09719,0.161978 -0.06775,0.237128 -0.110737,0.478519 -0.194373,0.712702 -0.01223,0.03425 -0.119447,0.274547 -0.161978,0.29156 -0.05917,0.02367 -0.395147,-0.0016 -0.421143,0 -0.09759,0.0061 -0.194857,0.01789 -0.29156,0.0324 -0.815412,0.122312 -1.640302,0.24443 -2.462063,0.323955 -0.172308,0.01667 -0.346839,0.0087 -0.518329,0.0324 -0.142719,0.01969 -0.278881,0.07443 -0.421142,0.09719 -0.128399,0.02054 -0.25972,0.01627 -0.388747,0.0324 -0.130355,0.01629 -0.257831,0.05388 -0.388747,0.06479 -0.129135,0.01076 -0.259471,-0.0089 -0.388747,0 -0.182072,0.01256 -0.646524,0.08451 -0.87468,0.09719 -0.420752,0.02338 -0.843345,0.03248 -1.263427,0.06479 -0.376044,0.02893 -0.761985,0.0507 -1.133845,0.09719 -0.25123,0.0314 -0.523326,0 -0.777494,0 -0.06009,0 -0.136077,-0.01457 -0.194373,0 -0.06627,0.01657 -0.06617,0.0324 -0.129582,0.0324" />
  <path
     style="fill:none;stroke:#1c3c55;stroke-opacity:1"
     d="M 36.477408,10.139812 C 35.598473,9.9919577 34.711053,9.8945581 33.820972,9.8482523 c -0.277347,-0.014429 -0.556238,-0.023856 -0.832114,0.0081 -0.275877,0.031959 -0.55029,0.1068991 -0.787664,0.2510618 -0.118498,0.07197 -0.226606,0.160452 -0.323956,0.259164 -0.342547,0.347339 -0.545261,0.815955 -0.629533,1.296455 -0.08427,0.480501 -0.05652,0.97446 0.01402,1.457169 0.05658,0.387225 0.140705,0.77733 0.09719,1.16624 -0.006,0.05402 -0.01444,0.109578 0,0.161978 0.01286,0.04668 0.0427,0.0865 0.06479,0.129582 0.06001,0.117035 0.06141,0.255367 0.046,0.385986 -0.01541,0.130618 -0.04626,0.259984 -0.046,0.391508 3.8e-4,0.186791 0.06327,0.367039 0.09719,0.550724 0.01979,0.107142 0.02952,0.219078 0,0.323956 -0.01866,0.06629 -0.05247,0.127725 -0.06894,0.194589 -0.0082,0.03343 -0.01203,0.06834 -0.007,0.102405 0.005,0.03406 0.01929,0.06731 0.04355,0.09175 0.02011,0.02026 0.04641,0.03384 0.07407,0.04087 0.02767,0.007 0.05669,0.0077 0.08505,0.0045 0.05673,-0.0065 0.110369,-0.02823 0.164831,-0.04536 0.187182,-0.05889 0.387509,-0.06367 0.583012,-0.04685 0.195504,0.01682 0.388554,0.05462 0.583228,0.07925 0.764476,0.09673 1.53873,-0.01076 2.300085,-0.129582 0.300757,-0.04694 0.602681,-0.0958 0.907076,-0.09719 0.162034,-7.41e-4 0.324342,0.01198 0.485934,0 0.152341,-0.0113 0.302144,-0.04442 0.453538,-0.06479 0.236462,-0.03182 0.476305,-0.03249 0.712702,-0.06479 0.109179,-0.01492 0.217438,-0.03657 0.323956,-0.06479"
     id="path12"
     inkscape:path-effect="#path-effect12"
     inkscape:original-d="m 36.477408,10.139812 c -0.277171,-0.0308 -2.547506,-0.2839951 -2.656436,-0.2915597 -0.572532,-0.039759 -1.125241,-0.055541 -1.619778,0.2591647 -0.116669,0.07424 -0.236387,0.152135 -0.323956,0.259164 -0.529621,0.647315 -0.593129,1.947683 -0.615516,2.753624 -0.01119,0.402988 0.0534,0.772164 0.09719,1.16624 0.006,0.05366 -0.01171,0.109271 0,0.161978 0.01048,0.04714 0.05532,0.08223 0.06479,0.129582 0.04903,0.245166 -0.01922,0.527643 0,0.777494 0.01443,0.18761 0.06653,0.366793 0.09719,0.550724 0.01641,0.09845 0,0.223885 0,0.323956 0,0.02585 -0.03362,0.387519 -0.0324,0.388747 0.02215,0.02215 0.3038,-0.0014 0.323956,0 0.389731,0.02784 0.773854,0.04548 1.16624,0.0324 0.746561,-0.02488 1.55703,-0.06766 2.300085,-0.129582 0.303039,-0.02525 0.603724,-0.07602 0.907076,-0.09719 0.161585,-0.01127 0.32434,0.01115 0.485934,0 0.152352,-0.01051 0.30183,-0.04729 0.453538,-0.06479 0.740929,-0.08549 0.05569,0.01734 0.712702,-0.06479 0.09073,-0.01134 0.228286,-0.06479 0.323956,-0.06479" />
  <path
     style="fill:none;stroke:#1c3c55;stroke-opacity:1"
     d="m 32.978687,13.1526 c -0.21741,0.263043 -0.320524,0.617398 -0.278196,0.956024 0.04233,0.338625 0.229496,0.656694 0.504965,0.858128 0.228005,0.166726 0.504475,0.251541 0.777494,0.323956 0.06962,0.01847 0.139937,0.0364 0.21184,0.04068 0.0719,0.0043 0.146243,-0.0059 0.209302,-0.04068 0.05887,-0.0325 0.104862,-0.08475 0.14008,-0.142036 0.03522,-0.05728 0.06059,-0.119947 0.08669,-0.18192 0.06774,-0.160849 0.141586,-0.319579 0.194373,-0.485934 0.09005,-0.283781 0.115011,-0.600067 0,-0.87468 -0.0454,-0.108397 -0.111775,-0.207963 -0.194373,-0.29156 -0.03757,-0.07862 -0.08092,-0.154484 -0.129582,-0.226769 -0.05507,-0.08181 -0.117435,-0.159531 -0.192738,-0.223213 -0.0753,-0.06368 -0.164248,-0.113049 -0.2608,-0.133138 -0.05399,-0.01123 -0.110208,-0.01339 -0.161978,-0.0324 -0.04537,-0.01666 -0.08525,-0.04553 -0.129582,-0.06479 -0.09142,-0.03973 -0.19852,-0.03577 -0.29156,0 -0.123602,0.04752 -0.219844,0.144937 -0.323956,0.226769 -0.04609,0.03623 -0.09448,0.07213 -0.124898,0.122248 -0.01521,0.02506 -0.02567,0.05293 -0.03116,0.08172 -0.0055,0.02879 -0.0059,0.05828 -0.0059,0.08759 z"
     id="path13"
     inkscape:path-effect="#path-effect13"
     inkscape:original-d="m 32.978687,13.1526 c -0.108374,0.948278 -0.339927,1.092902 0.226769,1.814152 0.160727,0.204561 0.543709,0.29698 0.777494,0.323956 0.139455,0.01609 0.284493,0.03215 0.421142,0 0.102456,-0.02411 0.195174,-0.260766 0.226769,-0.323956 0.09205,-0.184099 0.146336,-0.269765 0.194373,-0.485934 0.04531,-0.203904 0.078,-0.666676 0,-0.87468 -0.117168,-0.31245 0.0075,-0.02237 -0.194373,-0.29156 -0.04434,-0.08868 -0.06853,-0.150453 -0.129582,-0.226769 -0.111256,-0.139069 -0.288258,-0.290239 -0.453538,-0.356351 -0.05112,-0.02045 -0.109742,-0.01498 -0.161978,-0.0324 -0.04581,-0.01527 -0.08315,-0.05152 -0.129582,-0.06479 -0.05261,-0.01503 -0.239794,-0.01726 -0.29156,0 -0.125049,0.04168 -0.218506,0.147681 -0.323956,0.226769 -0.204139,0.153104 -0.161978,0.06841 -0.161978,0.29156 z" />
  <path
     style="fill:none;stroke:#95aabf;stroke-opacity:1"
     d="m 3.6283035,18.465473 c -0.3740634,0.587355 -0.6994935,1.205671 -0.971867,1.846547 -0.069967,0.164628 -0.1367448,0.331359 -0.226769,0.485934 -0.100813,0.173099 -0.2309812,0.330101 -0.3887468,0.453538 -0.067148,0.05254 -0.1391068,0.09893 -0.2037722,0.15449 -0.064665,0.05556 -0.1227974,0.121973 -0.152579,0.201861 -0.011933,0.03201 -0.019141,0.0657 -0.032396,0.09719 -0.016956,0.04028 -0.043281,0.07576 -0.068296,0.111587 -0.025016,0.03583 -0.049299,0.07316 -0.061286,0.115182 -0.00613,0.02149 -0.00891,0.04376 -0.012824,0.06576 -0.00392,0.022 -0.0091,0.04408 -0.019572,0.06382 -0.012741,0.02401 -0.032606,0.04329 -0.051371,0.06296 -0.018765,0.01966 -0.037173,0.04086 -0.045816,0.06663 -0.00864,0.02577 -0.00674,0.05379 -0.00355,0.08078 0.00319,0.02699 0.00756,0.05432 0.00355,0.0812 -0.0036,0.02407 -0.013797,0.04669 -0.025957,0.06777 -0.012159,0.02108 -0.026348,0.04092 -0.038834,0.06181 -0.058187,0.09733 -0.076939,0.212378 -0.097187,0.323956 -0.046742,0.257573 -0.1074538,0.515916 -0.097187,0.777494 0.006,0.15275 0.036155,0.303376 0.064791,0.453538 0.049601,0.260099 0.094964,0.521327 0.1619778,0.777493 0.082246,0.314394 0.1969348,0.620512 0.2591645,0.939472 0.1346791,0.690302 0.064791,1.402395 0.064791,2.105712 v 1.16624 c 0,0.162021 -0.012023,0.324359 0,0.485933 0.023405,0.31452 0.1657952,0.605824 0.2591645,0.907076 0.091602,0.295549 0.1364054,0.603135 0.1943734,0.907076 0.073165,0.383622 0.1678151,0.763432 0.2915601,1.133845 0.1748092,0.523267 0.415965,1.039154 0.8098892,1.425405 0.37849,0.371117 0.8954287,0.605123 1.4254049,0.615516 0.1728383,0.0034 0.3462176,-0.01619 0.5183291,0 0.3190192,0.03001 0.6193031,0.181472 0.9394714,0.194373 0.075537,0.003 0.1511903,-0.0017 0.226769,0 0.3554502,0.0081 0.6982709,0.16169 0.971867,0.388747 0.019031,0.01579 0.037893,0.03203 0.059241,0.04452 0.021347,0.01249 0.045625,0.02114 0.070342,0.02027 0.010837,-3.83e-4 0.02186,-0.0026 0.032396,0 0.00979,0.0024 0.01828,0.0088 0.024614,0.01659 0.00633,0.0078 0.010686,0.01708 0.014292,0.02648 0.00361,0.0094 0.00653,0.01907 0.01036,0.02839 0.00383,0.0093 0.00864,0.01838 0.015525,0.02573 0.011876,0.0127 0.028922,0.01929 0.045896,0.02305 0.016973,0.0038 0.034438,0.0051 0.051291,0.0093 0.046954,0.01188 0.08524,0.04531 0.1295823,0.06479 0.045026,0.01978 0.095111,0.02466 0.1442728,0.02598 0.049162,0.0013 0.098621,-6.64e-4 0.1472873,0.0064 0.09167,0.01335 0.1752736,0.0579 0.2591645,0.09719 0.475783,0.222845 1.0064874,0.290433 1.5225916,0.388747 0.7824801,0.149057 1.5490781,0.374198 2.3324811,0.518329 0.651788,0.119916 1.324033,0.183014 1.97613,0.06479 0.152142,-0.02758 0.302328,-0.06489 0.453538,-0.09719 0.542885,-0.115979 1.097703,-0.167228 1.652174,-0.194373 0.92779,-0.04542 1.857426,-0.02398 2.786018,0 0.431916,0.01116 0.864367,0.02285 1.295823,0 0.682551,-0.03615 1.358354,-0.15854 2.040921,-0.194374 0.162158,-0.0085 0.324819,-0.01215 0.485933,-0.0324 0.15156,-0.01905 0.301262,-0.05274 0.453538,-0.06479 0.161543,-0.01279 0.323889,-0.0011 0.485934,0 0.303293,0.002 0.605418,-0.03328 0.907076,-0.06479 0.107937,-0.01128 0.215923,-0.02208 0.323955,-0.0324 0.118118,-0.02507 0.236969,-0.04668 0.356351,-0.06479 0.332088,-0.05039 0.668492,-0.07367 1.004263,-0.06479 0.200771,0.0053 0.40271,0.02204 0.601719,-0.005 0.199008,-0.02707 0.39938,-0.103421 0.532126,-0.254138 0.114019,-0.129455 0.16866,-0.305061 0.167728,-0.477566 -9.33e-4,-0.172505 -0.05443,-0.341937 -0.135328,-0.494301 -0.01133,-0.02134 -0.02322,-0.04244 -0.0324,-0.06479 -0.02901,-0.07063 -0.02937,-0.149693 -0.02193,-0.225684 0.0074,-0.07599 0.02221,-0.151501 0.02193,-0.227854 -4.4e-4,-0.12102 -0.03852,-0.238216 -0.06479,-0.356351 -0.02598,-0.116834 -0.04062,-0.236945 -0.0324,-0.356351 0.0053,-0.07624 0.01976,-0.151593 0.02569,-0.227784 0.0059,-0.07619 0.0028,-0.154861 -0.02569,-0.225754 -0.02433,-0.06044 -0.06586,-0.112179 -0.09727,-0.169256 -0.01571,-0.02854 -0.02898,-0.05871 -0.03575,-0.09057 -0.0068,-0.03186 -0.0068,-0.0656 0.0034,-0.09652 0.0056,-0.01678 0.01412,-0.03272 0.01693,-0.05018 0.0014,-0.0087 0.0013,-0.01782 -0.0013,-0.02625 -0.0027,-0.0084 -0.008,-0.01617 -0.01558,-0.02076 -0.0049,-0.0029 -0.01052,-0.0045 -0.0162,-0.0045 -0.0057,0 -0.01135,0.0016 -0.0162,0.0045 -0.01862,-0.02905 -0.02986,-0.06278 -0.03239,-0.09719 -0.0024,-0.03233 0.0028,-0.06489 0,-0.09719 -0.0043,-0.04927 -0.02795,-0.09659 -0.06479,-0.129582"
     id="path14"
     inkscape:path-effect="#path-effect14"
     inkscape:original-d="m 3.6283035,18.465473 c -0.2656165,0.645705 -0.6418425,1.233645 -0.971867,1.846547 -0.087236,0.162011 -0.1188011,0.331694 -0.226769,0.485934 -0.084665,0.12095 -0.2743038,0.3534 -0.3887468,0.453538 -0.095206,0.0833 -0.2862725,0.239553 -0.3563512,0.356351 -0.017569,0.02928 -0.017124,0.06664 -0.032396,0.09719 -0.038592,0.07718 -0.1016266,0.142902 -0.1295823,0.226769 -0.01408,0.04224 -0.012484,0.08976 -0.032396,0.129582 -0.024146,0.04829 -0.080113,0.07836 -0.097187,0.129582 -0.017074,0.05122 0.011713,0.109271 0,0.161978 -0.010476,0.04714 -0.04952,0.08377 -0.064791,0.129582 -0.035651,0.106955 -0.067523,0.215189 -0.097187,0.323956 -0.068721,0.251978 -0.076359,0.517144 -0.097187,0.777494 -0.023665,0.295808 0.00385,0.164046 0.064791,0.453538 0.1564351,0.743066 -0.037923,0.035 0.1619778,0.777493 0.071256,0.264664 0.200361,0.674856 0.2591645,0.939472 0.135132,0.608094 0.064791,1.465286 0.064791,2.105712 0,0.388746 0,0.777493 0,1.16624 0,0.161978 -0.026629,0.32616 0,0.485933 0.047052,0.282312 0.1815846,0.627789 0.2591645,0.907076 0.082373,0.296544 0.1310274,0.606183 0.1943734,0.907076 0.080837,0.383978 0.1924083,0.753763 0.2915601,1.133845 0.1511341,0.579347 0.3229442,1.035849 0.8098892,1.425405 0.3183862,0.254709 1.019506,0.561396 1.4254049,0.615516 0.1698765,0.02265 0.3482572,-0.02126 0.5183291,0 0.31701,0.03963 0.62371,0.154903 0.9394714,0.194373 0.075006,0.0094 0.1520583,-0.01149 0.226769,0 0.2433418,0.03744 0.7558733,0.259151 0.971867,0.388747 0.041411,0.02485 0.084744,0.04686 0.1295823,0.06479 0.010026,0.004 0.02476,-0.0076 0.032396,0 0.027531,0.02753 0.034388,0.07287 0.064791,0.09719 0.026665,0.02133 0.0658,0.01894 0.097187,0.03239 0.044388,0.01902 0.084365,0.04784 0.1295823,0.06479 0.2967182,0.111269 -0.054103,-0.04737 0.2915601,0.0324 0.0899,0.02075 0.1707033,0.07098 0.2591645,0.09719 0.5025117,0.148892 1.0176248,0.251028 1.5225916,0.388747 0.7695631,0.20988 1.5374331,0.422923 2.3324811,0.518329 0.642155,0.07706 1.329737,0.160553 1.97613,0.06479 0.152942,-0.02266 0.301174,-0.07092 0.453538,-0.09719 0.539151,-0.09296 1.106942,-0.160296 1.652174,-0.194373 0.928913,-0.05806 1.856372,0 2.786018,0 0.431941,0 0.864349,0.02007 1.295823,0 0.681239,-0.03169 1.36182,-0.134453 2.040921,-0.194374 0.161709,-0.01427 0.324458,-0.01569 0.485933,-0.0324 0.151904,-0.01571 0.301186,-0.05428 0.453538,-0.06479 0.161594,-0.01114 0.324052,0.0056 0.485934,0 0.302949,-0.01045 0.604994,-0.03962 0.907076,-0.06479 0.108149,-0.009 0.21597,-0.0216 0.323955,-0.0324 0.118784,-0.0216 0.236164,-0.05335 0.356351,-0.06479 0.33394,-0.0318 0.66959,-0.04197 1.004263,-0.06479 0.328311,-0.02238 0.870465,0.0042 1.133845,-0.259165 0.126589,-0.126589 0.05986,-0.820821 0.0324,-0.971867 -0.0043,-0.02376 -0.02973,-0.04079 -0.0324,-0.06479 -0.01641,-0.14773 0.02107,-0.306049 0,-0.453538 -0.01749,-0.12242 -0.03595,-0.241006 -0.06479,-0.356351 -0.02854,-0.11415 -0.0028,-0.238076 -0.0324,-0.356351 -0.03548,-0.141933 0.02411,-0.308906 0,-0.453538 -0.02027,-0.121609 -0.09938,-0.235529 -0.129582,-0.356352 -0.0081,-0.0324 0.0162,-0.06479 0,-0.09719 -0.0048,-0.0097 -0.0216,0 -0.0324,0 -0.0108,-0.0324 -0.02411,-0.06406 -0.03239,-0.09719 -0.0067,-0.02689 0.01227,-0.07265 0,-0.09719 -0.02349,-0.04698 -0.06479,-0.06774 -0.06479,-0.129582" />
</svg>
