<?xml version="1.0" encoding="UTF-8" standalone="no"?>
<svg
   width="32px"
   height="39px"
   viewBox="0 0 32 39"
   version="1.1"
   id="svg2"
   sodipodi:docname="ico_control.svg"
   inkscape:version="1.3.2 (091e20e, 2023-11-25, custom)"
   xmlns:inkscape="http://www.inkscape.org/namespaces/inkscape"
   xmlns:sodipodi="http://sodipodi.sourceforge.net/DTD/sodipodi-0.dtd"
   xmlns="http://www.w3.org/2000/svg"
   xmlns:svg="http://www.w3.org/2000/svg">
  <sodipodi:namedview
     id="namedview2"
     pagecolor="#ffffff"
     bordercolor="#000000"
     borderopacity="0.25"
     inkscape:showpageshadow="2"
     inkscape:pageopacity="0.0"
     inkscape:pagecheckerboard="0"
     inkscape:deskcolor="#d1d1d1"
     inkscape:zoom="30.076923"
     inkscape:cx="15.992327"
     inkscape:cy="19.200767"
     inkscape:window-width="2560"
     inkscape:window-height="1369"
     inkscape:window-x="-8"
     inkscape:window-y="-8"
     inkscape:window-maximized="1"
     inkscape:current-layer="svg2" />
  <!-- Generator: Sketch 49 (51002) - http://www.bohemiancoding.com/sketch -->
  <title
     id="title1">Control against fraud ICON</title>
  <desc
     id="desc1">Created with Sketch.</desc>
  <defs
     id="defs1">
    <inkscape:path-effect
       effect="spiro"
       id="path-effect6"
       is_visible="true"
       lpeversion="1" />
    <inkscape:path-effect
       effect="spiro"
       id="path-effect5"
       is_visible="true"
       lpeversion="1" />
    <inkscape:path-effect
       effect="spiro"
       id="path-effect4"
       is_visible="true"
       lpeversion="1" />
    <inkscape:path-effect
       effect="spiro"
       id="path-effect3"
       is_visible="true"
       lpeversion="1" />
  </defs>
  <path
     style="fill:none;stroke:#ff9500;stroke-opacity:1"
     d="m 15.560102,37.370844 c -0.121783,0.0068 -0.243946,0.0068 -0.365729,0 -0.718232,-0.04019 -1.400483,-0.314412 -2.061381,-0.598465 -0.777458,-0.33415 -1.581386,-0.694095 -2.42711,-0.664962 -0.301051,0.01037 -0.6028,0.0704 -0.9015151,0.03156 C 9.6550096,36.119556 9.5071085,36.0745 9.3812847,35.991716 9.2554609,35.908932 9.1529084,35.78631 9.1099744,35.641944 9.0938541,35.587739 9.0862184,35.531452 9.0767264,35.475703 9.0595704,35.374942 9.0362079,35.275325 9.0102304,35.176471 8.92898,34.867282 8.8216757,34.564227 8.6777494,34.278772 8.3281484,33.585395 7.7764381,33.019191 7.2480818,32.450128 6.71988,31.881232 6.2052339,31.29653 5.6189258,30.787724 5.3755684,30.576535 5.1202612,30.37879 4.887468,30.15601 4.5754721,29.857435 4.3071358,29.517032 4.0230179,29.191816 3.5975579,28.704812 3.1241099,28.232964 2.8925831,27.629156 2.7786439,27.332009 2.7285485,27.014472 2.6930946,26.69821 2.6435634,26.256373 2.6212083,25.812017 2.5933504,25.368286 2.5502063,24.681072 2.4938058,23.994659 2.4603581,23.306905 2.4377211,22.841442 2.4256003,22.375417 2.3938619,21.910486 2.3327675,21.015523 2.1964008,20.116231 1.8618926,19.283887 1.5822378,18.588033 1.1631437,17.932614 1.0639386,17.189258 c -0.029376,-0.220118 -0.029684,-0.44292 -0.033248,-0.664961 -0.0048,-0.299262 -0.015606,-0.598805 0,-0.897699 0.013342,-0.255535 0.045941,-0.509649 0.066496,-0.764705 0.04455,-0.552795 0.03242,-1.108766 0,-1.662405 -0.050612,-0.864303 -0.15054537,-1.731656 -0.066496,-2.59335 0.033525,-0.34371 0.096274,-0.6853667 0.099744,-1.0306904 0.00178,-0.1773664 -0.012104,-0.3550074 0,-0.5319693 C 1.1407222,8.8930739 1.1696951,8.7445899 1.1857834,8.594695 1.2018717,8.4448002 1.2047189,8.2908433 1.1636826,8.1457801 1.1048724,7.9378863 0.96006346,7.7617989 0.90558997,7.5527269 0.87835322,7.4481909 0.87549339,7.3339908 0.91842842,7.2348636 0.93989593,7.1853 0.97269416,7.1403206 1.015133,7.1069088 c 0.042439,-0.033412 0.094644,-0.054917 0.1485496,-0.058315 0.011068,-6.977e-4 0.022177,-6.465e-4 0.033248,0 0.086153,0.00503 0.1666354,0.045892 0.2360445,0.097176 0.069409,0.051285 0.1301086,0.1132905 0.1961806,0.1688084 0.1905226,0.1600892 0.4232164,0.2637569 0.6626767,0.331478 0.2394604,0.067721 0.4870657,0.1011644 0.7337427,0.1339952 1.0785367,0.1435449 2.1593474,0.2794159 3.225064,0.4987212 0.3431517,0.070615 0.6875029,0.1501966 1.037817,0.1546211 0.3503141,0.00442 0.7132716,-0.07317 0.990316,-0.2876134 C 8.4343986,8.025319 8.5568058,7.8667811 8.6601744,7.6993134 8.7635431,7.5318458 8.8493488,7.3542759 8.943734,7.1815857 9.217642,6.6804348 9.5680888,6.2162767 10.007673,5.8516624 c 0.261031,-0.2165126 0.559873,-0.40568 0.731457,-0.6982097 0.03273,-0.055792 0.06045,-0.1148711 0.09975,-0.1662404 0.06676,-0.087256 0.1633,-0.1475933 0.232736,-0.2327366 0.05054,-0.061973 0.08527,-0.1353183 0.132993,-0.1994885 0.103735,-0.1394953 0.261044,-0.2266772 0.398977,-0.3324808 0.248991,-0.1909924 0.439,-0.4472089 0.664961,-0.6649616 0.56994,-0.5492366 1.344889,-0.8338237 1.961637,-1.3299233 0.202411,-0.1628154 0.387001,-0.3478521 0.598466,-0.4987212 0.07763,-0.055385 0.158755,-0.106068 0.232736,-0.1662405 0.0609,-0.049535 0.116705,-0.1053377 0.16624,-0.1662404 0.02486,0.017134 0.05437,0.02746 0.08449,0.029568 0.03012,0.00211 0.06078,-0.00401 0.08778,-0.017509 0.02701,-0.013503 0.05029,-0.034359 0.06668,-0.05972 0.01639,-0.025361 0.02583,-0.055161 0.02704,-0.085331 4.44e-4,-0.011075 -1.97e-4,-0.022166 0,-0.033248 9.63e-4,-0.054191 0.02253,-0.1073249 0.05756,-0.1486859 0.03503,-0.041361 0.08302,-0.071061 0.13492,-0.0866725 0.0519,-0.0156109 0.107553,-0.0174084 0.160927,-0.00798 0.05337,0.009428 0.10451,0.0298877 0.151194,0.057423 0.09337,0.055071 0.167838,0.1371315 0.233324,0.2235154 0.06549,0.086384 0.123583,0.1783908 0.193019,0.2616329 0.231187,0.2771563 0.572705,0.4391855 0.917488,0.5458999 0.344783,0.1067144 0.703294,0.1666383 1.044149,0.2853021 0.309407,0.1077157 0.599945,0.2623064 0.897698,0.398977 0.927572,0.4257623 1.923578,0.6769876 2.892584,0.9974424 0.649101,0.2146608 1.287241,0.4608446 1.928388,0.6982098 0.516118,0.191077 1.034691,0.3766093 1.56266,0.5319693 0.457273,0.1345571 0.922674,0.2466087 1.39642,0.2992327 0.210466,0.023379 0.422307,0.035002 0.631713,0.066496 0.200034,0.030084 0.39733,0.078228 0.598466,0.099744 0.187691,0.020078 0.377173,0.016797 0.565217,0.033248 0.35968,0.031466 0.708783,0.1344965 1.063939,0.1994885 0.642871,0.1176427 1.313049,0.1122983 1.928388,0.3324808 0.190317,0.0681 0.373148,0.1571437 0.566962,0.2145422 0.193813,0.057398 0.404815,0.08168 0.596721,0.018194 0.05827,-0.019278 0.116177,-0.046759 0.177507,-0.044293 0.03067,0.00123 0.06164,0.010539 0.08529,0.030096 0.01183,0.00978 0.02168,0.022029 0.02817,0.035934 0.0065,0.013905 0.0096,0.029469 0.0083,0.044759 -0.0017,0.020422 -0.01112,0.0396 -0.0235,0.055934 -0.01238,0.016334 -0.02771,0.030156 -0.043,0.04381 -0.06457,0.057683 -0.130167,0.1143595 -0.199489,0.1662404 -0.246737,0.1846581 -0.535063,0.3046442 -0.797954,0.4654732 -0.23656,0.1447207 -0.451399,0.3218135 -0.664961,0.4987212 -0.361086,0.2991119 -0.723549,0.6020064 -1.019551,0.9656453 -0.296003,0.3636389 -0.52468,0.7959503 -0.576357,1.2619762 -0.03178,0.2866167 0.0038,0.5761017 0,0.8644497 -0.0035,0.266398 -0.04064,0.53465 0,0.797954 0.03119,0.202098 0.107523,0.395567 0.132992,0.598466 0.01525,0.121513 0.01207,0.245108 0.03325,0.365729 0.02561,0.145806 0.0864,0.28479 0.09974,0.432225 0.007,0.07731 7.31e-4,0.155116 0,0.232736 -0.0027,0.290332 0.07176,0.575456 0.09974,0.86445 0.02352,0.242982 0.01409,0.488094 0.03325,0.731458 0.03423,0.434771 0.159425,0.860612 0.16624,1.296675 0.0031,0.199574 -0.01865,0.39974 0,0.598466 0.0083,0.08897 0.02475,0.177029 0.03325,0.265984 0.02003,0.209737 -0.0041,0.421064 0,0.631714 0.0068,0.345281 0.08959,0.685492 0.09974,1.030691 0.0033,0.110785 -9.88e-4,0.221652 0,0.33248 0.0027,0.300127 0.04367,0.59843 0.0665,0.897699 0.02615,0.342807 0.02846,0.68692 0.03325,1.03069 0.0048,0.343743 0.01206,0.687568 0.03325,1.030691 0.01163,0.188418 0.0274,0.378439 0,0.565217 -0.01484,0.10114 -0.04216,0.19995 -0.0665,0.299233 -0.168383,0.686934 -0.194547,1.400939 -0.332481,2.094629 -0.06097,0.306635 -0.144066,0.609812 -0.265985,0.897698 -0.06585,0.155482 -0.142943,0.306372 -0.199488,0.465473 -0.05765,0.162207 -0.09332,0.331207 -0.132993,0.498721 -0.135101,0.570503 -0.318668,1.130484 -0.565217,1.662405 -0.292065,0.63012 -0.670004,1.216159 -0.997442,1.828644 -0.148277,0.277357 -0.288698,0.563854 -0.498722,0.797954 -0.09422,0.105016 -0.201095,0.197871 -0.299232,0.299233 -0.103722,0.107132 -0.197438,0.223516 -0.299233,0.332481 -0.376191,0.402687 -0.853811,0.695304 -1.263427,1.063938 -0.215639,0.194064 -0.412094,0.40892 -0.631714,0.598466 -0.209836,0.181101 -0.439286,0.337788 -0.664961,0.498721 -0.150349,0.107217 -0.30012,0.217023 -0.465474,0.299233 -0.21054,0.104676 -0.440754,0.161915 -0.664961,0.232736 -0.587505,0.185577 -1.139322,0.466698 -1.695652,0.731458 -0.895557,0.426199 -1.812613,0.814304 -2.659847,1.329923 -0.118769,0.07228 -0.23682,0.1474 -0.365729,0.199489 -0.08782,0.03549 -0.180007,0.05998 -0.265984,0.09974 -0.126173,0.05834 -0.236458,0.148378 -0.365729,0.199489 -0.07508,0.02969 -0.154774,0.0455 -0.232737,0.0665 -0.278593,0.07503 -0.534068,0.215827 -0.797954,0.33248 -0.126604,0.05597 -0.260769,0.107446 -0.398977,0.09974 -0.02783,-0.0016 -0.05549,-0.0055 -0.08332,-0.0071 -0.02783,-0.0016 -0.05616,-7.44e-4 -0.08292,0.0071 -0.04129,0.0121 -0.07582,0.03979 -0.111998,0.06308 -0.01809,0.01165 -0.03694,0.02236 -0.05725,0.02946 -0.02031,0.0071 -0.04222,0.01047 -0.06349,0.0072 -0.01928,-0.003 -0.0373,-0.01122 -0.05473,-0.01998 -0.01742,-0.0088 -0.03469,-0.01817 -0.05338,-0.02375 -0.01869,-0.0056 -0.03928,-0.0071 -0.05743,7.1e-5 -0.0091,0.0036 -0.01737,0.0093 -0.02351,0.01686 -0.0061,0.0076 -0.01003,0.01705 -0.01045,0.0268 -2.37e-4,0.0056 6.39e-4,0.01112 0.0011,0.01668 4.97e-4,0.0056 5.96e-4,0.01127 -0.0011,0.01657 -0.0019,0.0058 -0.006,0.01081 -0.011,0.01425 -0.005,0.0034 -0.01104,0.0054 -0.01712,0.006 -0.01215,0.0012 -0.02426,-0.0026 -0.03545,-0.0075 -0.0112,-0.0049 -0.02198,-0.01089 -0.0337,-0.01432 -0.0059,-0.0017 -0.01195,-0.0028 -0.01806,-0.0027 -0.0061,1.14e-4 -0.01224,0.0014 -0.01765,0.0043 -0.007,0.0037 -0.01245,0.0096 -0.01744,0.01572 -0.005,0.0061 -0.0097,0.01252 -0.01581,0.01753 -0.0088,0.0073 -0.02007,0.01116 -0.03142,0.01244 -0.01135,0.0013 -0.02285,6.5e-5 -0.03408,-0.002 -0.02246,-0.0042 -0.0447,-0.0119 -0.0675,-0.01042 -0.01756,0.0011 -0.03428,0.0077 -0.05039,0.01479 -0.01611,0.0071 -0.03214,0.01479 -0.04935,0.01846 -0.03069,0.0066 -0.06408,-7.84e-4 -0.08919,-0.01962 -0.02511,-0.01883 -0.04151,-0.04883 -0.04381,-0.08013 z"
     id="path3"
     inkscape:path-effect="#path-effect3"
     inkscape:original-d="m 15.560102,37.370844 c -0.121909,0 -0.246075,0.02335 -0.365729,0 -0.666465,-0.130042 -1.414061,-0.413517 -2.061381,-0.598465 -0.806575,-0.230451 -1.616716,-0.448322 -2.42711,-0.664962 -0.0024,-6.3e-4 -1.4758268,-0.305366 -1.5959076,-0.465473 -0.033907,-0.04521 -0.021407,-0.110984 -0.033248,-0.166241 -0.021409,-0.09991 -0.04283,-0.199834 -0.066496,-0.299232 C 8.91157,34.762098 8.9074642,34.684152 8.6777494,34.278772 8.2985469,33.609592 7.7620808,33.017299 7.2480818,32.450128 6.7321686,31.880844 6.1850848,31.306703 5.6189258,30.787724 5.3814431,30.570031 5.1258483,30.37272 4.887468,30.15601 4.563739,29.861711 4.2931862,29.533081 4.0230179,29.191816 3.6269952,28.691577 3.1947414,28.195703 2.8925831,27.629156 2.7388079,27.340827 2.720247,27.014987 2.6930946,26.69821 2.6225938,25.8757 2.6325173,26.092874 2.5933504,25.368286 2.5561194,24.679513 2.5083447,23.994714 2.4603581,23.306905 2.4279252,22.842035 2.4317766,22.374942 2.3938619,21.910486 2.3198021,21.003253 2.1758049,20.140012 1.8618926,19.283887 1.6037338,18.579818 1.2121259,17.930195 1.0639386,17.189258 c -0.044373,-0.221863 -0.033248,-0.440455 -0.033248,-0.664961 0,-0.297817 -0.014159,-0.600354 0,-0.897699 0.014999,-0.314972 0.05615,-0.443965 0.066496,-0.764705 0.017675,-0.547936 0.016617,-1.114038 0,-1.662405 -0.026213,-0.86502 -0.092756,-1.726783 -0.066496,-2.59335 0.035586,-1.1743495 0.022825,0.200022 0.099744,-1.0306904 0.011061,-0.1769778 -0.00591,-0.3547447 0,-0.5319693 0.043513,-1.3053901 0.033248,0.3349158 0.033248,-0.8976982 0,-0.066739 -0.012792,-1.0843949 0,-1.0971867 0.00784,-0.00784 0.023626,-0.0055 0.033248,0 0.1468807,0.083932 0.2799452,0.1923008 0.4322251,0.2659846 0.3825768,0.1851178 1.0067056,0.3644362 1.3964194,0.4654732 1.0587606,0.2744934 2.1341357,0.4259926 3.225064,0.4987212 0.5440755,0.036272 1.4884647,0.094236 2.028133,-0.1329923 C 8.5614213,8.02677 8.7947599,7.4107766 8.943734,7.1815857 9.2535771,6.704904 9.6057181,6.2536169 10.007673,5.8516624 10.240601,5.6187342 10.536084,5.4145123 10.73913,5.1534527 c 0.03968,-0.05101 0.05938,-0.1157786 0.09975,-0.1662404 0.06854,-0.085672 0.166908,-0.1449661 0.232736,-0.2327366 0.04795,-0.063935 0.0799,-0.1397567 0.132993,-0.1994885 0.115012,-0.1293894 0.273751,-0.2129476 0.398977,-0.3324808 0.226747,-0.2164406 0.433888,-0.453145 0.664961,-0.6649616 0.589577,-0.5404458 1.302239,-0.8903248 1.961637,-1.3299233 0.33092,-0.2206133 0.256724,-0.2172868 0.598466,-0.4987212 0.07359,-0.060606 0.159496,-0.1052072 0.232736,-0.1662405 0.0602,-0.050169 0.105047,-0.1172852 0.16624,-0.1662404 0.05141,-0.1201763 0.183507,-0.078007 0.265985,-0.1329923 0.0092,-0.00615 -0.01087,-0.031075 0,-0.033248 0.287598,-0.05752 0.697628,0.2044471 0.930946,0.2992328 1.546923,0.6284374 -0.72418,-0.3537173 1.961637,0.831202 0.299595,0.1321743 0.591573,0.2827267 0.897698,0.398977 0.660533,0.2508351 2.130932,0.7246121 2.892584,0.9974424 0.643587,0.2305389 1.286683,0.4624814 1.928388,0.6982098 1.005875,0.3695051 0.518986,0.2536563 1.56266,0.5319693 0.374309,0.099816 1.012192,0.2415986 1.39642,0.2992327 0.209392,0.031409 0.421886,0.038141 0.631713,0.066496 0.200419,0.027084 0.397533,0.07678 0.598466,0.099744 0.187511,0.02143 0.377857,0.010538 0.565217,0.033248 0.358205,0.043419 0.707438,0.1437852 1.063939,0.1994885 0.646228,0.1009732 1.286652,0.2008426 1.928388,0.3324808 0.562048,0.1152918 0.626635,0.1393369 1.163683,0.2327366 0.0055,9.578e-4 0.242258,0.00952 0.299233,0.066496 0.02826,0.028256 -0.03642,0.073431 -0.0665,0.099744 -0.06514,0.056999 -0.128773,0.1163235 -0.199489,0.1662404 -1.225839,0.8652983 0.579167,-0.4526071 -0.797954,0.4654732 -0.230534,0.1536893 -0.453201,0.3200485 -0.664961,0.4987212 -0.459012,0.3872908 -1.514885,1.6199487 -1.595908,2.2276215 -0.03661,0.2745757 0,0.5884227 0,0.8644497 0,0.2598 -0.02567,0.541213 0,0.797954 0.02033,0.203341 0.09533,0.397611 0.132992,0.598466 0.123455,0.658426 -0.01423,-0.06161 0.03325,0.365729 0.03043,0.273879 0.05308,0.08227 0.09974,0.432225 0.01025,0.0769 -0.0052,0.155329 0,0.232736 0.01925,0.288724 0.08452,0.575191 0.09974,0.86445 0.04394,0.834788 -0.06211,-0.222121 0.03325,0.731458 0.04304,0.430424 0.13033,0.865755 0.16624,1.296675 0.01657,0.1988 -0.01171,0.399322 0,0.598466 0.0052,0.0892 0.028,0.176787 0.03325,0.265984 0.01236,0.210208 -0.01052,0.421406 0,0.631714 0.01722,0.344366 0.08333,0.686061 0.09974,1.030691 0.0053,0.110701 -0.0044,0.221742 0,0.33248 -3.86e-4,0.300739 0.05346,0.597929 0.0665,0.897699 0.01494,0.343643 0.01689,0.687154 0.03325,1.03069 0.01648,0.346182 0.03325,0.683305 0.03325,1.030691 0,0.188405 0.02201,0.378102 0,0.565217 -0.01194,0.101478 -0.05134,0.198186 -0.0665,0.299233 -0.105467,0.703114 -0.163993,1.399616 -0.332481,2.094629 -0.02335,0.09634 -0.22664,0.791466 -0.265985,0.897698 -0.05863,0.158298 -0.144459,0.305888 -0.199488,0.465473 -0.05609,0.162651 -0.08502,0.333494 -0.132993,0.498721 -0.161822,0.55739 -0.349659,1.123509 -0.565217,1.662405 -0.256121,0.640303 -0.643727,1.239119 -0.997442,1.828644 -0.140151,0.233585 -0.327057,0.585897 -0.498722,0.797954 -0.08875,0.109638 -0.202219,0.19683 -0.299232,0.299233 -0.102545,0.108241 -0.193802,0.227049 -0.299233,0.332481 -0.392344,0.392344 -0.837582,0.712153 -1.263427,1.063938 -1.364074,1.126843 0.649705,-0.499893 -0.631714,0.598466 -0.210365,0.180313 -0.441533,0.334873 -0.664961,0.498721 -0.133373,0.09781 -0.311231,0.231751 -0.465474,0.299233 -0.215148,0.09413 -0.445776,0.148434 -0.664961,0.232736 -0.574932,0.221128 -1.132996,0.481388 -1.695652,0.731458 -0.907048,0.403132 -1.779571,0.87218 -2.659847,1.329923 -0.123204,0.06407 -0.240231,0.140042 -0.365729,0.199489 -0.08557,0.04054 -0.180009,0.06006 -0.265984,0.09974 -0.308511,0.142389 -0.01811,0.06579 -0.365729,0.199489 -0.07531,0.02896 -0.156754,0.03936 -0.232737,0.0665 -0.275977,0.09856 -0.513363,0.251169 -0.797954,0.33248 -0.131811,0.03766 -0.263757,0.07721 -0.398977,0.09974 -0.05466,0.0091 -0.112146,-0.01202 -0.16624,0 -0.363366,0.08075 0.05476,0.05183 -0.232737,0.09974 -0.02061,0.0034 -0.171303,-0.01409 -0.199488,0 -0.0099,0.005 0.0078,0.02541 0,0.03325 -0.02109,0.02109 -0.105311,-0.01384 -0.132993,0 -0.01402,0.007 -0.01838,0.02829 -0.03325,0.03325 -0.04206,0.01402 -0.08999,-0.01075 -0.132992,0 -0.0073,0.0018 -0.07263,0.04952 -0.09974,0.03325 -0.04752,-0.02851 -0.08866,-0.0665 -0.132993,-0.09974 z"
     transform="matrix(0.95853533,0,0,1.0050625,0.02744702,-0.18045892)" />
  <path
     style="fill:none;stroke:#1c3c55;stroke-opacity:1"
     d="M 15.094629,32.915601 C 14.620128,32.636194 14.164377,32.32495 13.731458,31.984655 13.231265,31.591479 12.762301,31.160216 12.30179,30.721228 11.518954,29.974979 10.758983,29.20509 10.007673,28.42711 9.5101781,27.911955 9.0139545,27.390168 8.6112532,26.797954 8.3347668,26.391352 8.1044167,25.95421 7.9130435,25.501279 7.5677731,24.684114 7.3503025,23.819942 7.0818414,22.974425 6.9057561,22.419845 6.7073419,21.87217 6.5498721,21.31202 6.3548939,20.618445 6.2233177,19.907947 6.0179028,19.217391 5.8780006,18.747074 5.7043046,18.287561 5.5524297,17.820972 5.3493135,17.19696 5.1854466,16.56099 5.0204604,15.925831 4.8427022,15.241503 4.6633877,14.557154 4.5217391,13.86445 4.4340805,13.435774 4.3608368,13.003617 4.3222506,12.567775 c -0.031328,-0.353861 -0.039695,-0.710919 0,-1.063939 0.00876,-0.07789 0.019847,-0.155512 0.033248,-0.232736 0.033882,-0.07357 0.056395,-0.152369 0.066496,-0.232737 0.018781,-0.149423 -0.00525,-0.300404 -0.021933,-0.450075 -0.016687,-0.149672 -0.025524,-0.304697 0.021933,-0.447623 0.00902,-0.02717 0.020023,-0.0537 0.027495,-0.08133 0.00747,-0.02763 0.011338,-0.05684 0.00575,-0.084911 -0.00738,-0.037088 -0.030541,-0.069318 -0.039874,-0.1059624 -0.00467,-0.018322 -0.00569,-0.038071 6.258e-4,-0.055892 0.00316,-0.00891 0.00814,-0.017222 0.014859,-0.023877 0.00671,-0.00665 0.015182,-0.011611 0.024389,-0.013758 0.010847,-0.00253 0.022168,-0.00114 0.033248,0 0.077244,0.00793 0.1551389,0.00284 0.2327366,0 0.4327477,-0.01583 0.8645353,0.038634 1.2966752,0.066496 0.8968724,0.057825 1.7969004,0.00103 2.6930946,-0.066496 0.8109007,-0.061101 1.648657,-0.1390185 2.360614,-0.5319693 0.678171,-0.3743032 1.177658,-0.9997372 1.629156,-1.6291561 0.317495,-0.4426092 0.62483,-0.9001329 1.030691,-1.2634271 0.170595,-0.1527028 0.362731,-0.2941123 0.465473,-0.4987212 0.03341,-0.066542 0.05668,-0.1387407 0.09974,-0.1994885 0.03271,-0.046151 0.07825,-0.085486 0.132993,-0.099744 0.04105,-0.010692 0.08516,-0.00663 0.125174,0.00746 0.04001,0.014091 0.07613,0.037841 0.107969,0.065873 0.06368,0.056063 0.110359,0.1284635 0.165834,0.1926526 0.09783,0.1131934 0.223065,0.2005065 0.357111,0.2669469 0.134046,0.06644 0.277151,0.1127578 0.421408,0.1524175 0.288512,0.079319 0.588444,0.1346718 0.850637,0.2788453 0.167262,0.091973 0.313396,0.2171193 0.465473,0.3324809 0.286601,0.2174076 0.596638,0.401567 0.897698,0.5984654 0.744082,0.4866433 1.433727,1.0514142 2.161125,1.5626599 0.6562,0.4612044 1.354701,0.8838634 2.127877,1.0971866 0.155616,0.04293 0.313955,0.0773 0.465474,0.132992 0.09886,0.03634 0.195429,0.08191 0.299232,0.09974 0.09904,0.01701 0.201919,0.0082 0.299233,0.03325 0.04457,0.01148 0.08703,0.02984 0.130651,0.04453 0.04362,0.01469 0.08947,0.0258 0.135334,0.02197 0.04021,-0.0034 0.07861,-0.01804 0.118454,-0.02447 0.01992,-0.0032 0.04037,-0.0043 0.06025,-9.02e-4 0.01988,0.0034 0.03925,0.01164 0.05403,0.02537 0.01152,0.01069 0.02017,0.02455 0.03325,0.03325 0.01427,0.0095 0.03232,0.01172 0.0494,0.01021 0.01707,-0.0015 0.03363,-0.0064 0.05035,-0.01021 0.06112,-0.01377 0.125133,-0.0119 0.186602,2.23e-4 0.06147,0.01213 0.120592,0.0343 0.177371,0.06079 0.113558,0.05298 0.218642,0.123349 0.334236,0.171722 0.209164,0.08753 0.440835,0.09867 0.664962,0.132993 0.236662,0.03624 0.468341,0.09929 0.69821,0.16624 0.292887,0.08531 0.59601,0.178208 0.897698,0.132992 0.0351,-0.0053 0.07034,-0.0124 0.105763,-0.01016 0.01771,0.0011 0.03538,0.0046 0.05167,0.01168 0.01629,0.007 0.03118,0.0177 0.04205,0.03172 0.0158,0.02038 0.02234,0.04705 0.02083,0.0728 -0.0015,0.02575 -0.01065,0.05063 -0.02346,0.07302 -0.02561,0.04478 -0.06516,0.07966 -0.09711,0.120166 -0.05573,0.07065 -0.08735,0.157069 -0.113283,0.243236 -0.02594,0.08617 -0.04732,0.174333 -0.0862,0.255485 -0.05187,0.108254 -0.132648,0.199526 -0.199489,0.299233 -0.153191,0.228514 -0.231235,0.498127 -0.29924,0.764701 -0.119929,0.470111 -0.215782,0.947105 -0.265984,1.429668 -0.02419,0.232546 -0.03777,0.46618 -0.0665,0.698209 -0.05088,0.410878 -0.149224,0.816513 -0.166241,1.230179 -0.0082,0.199341 0.0026,0.398973 0,0.598466 -0.0029,0.221932 -0.02229,0.443281 -0.03325,0.664961 -0.03777,0.76391 0.02491,1.52968 0,2.294118 -0.02534,0.77747 -0.141149,1.549888 -0.16624,2.327366 -0.03113,0.964535 0.07755,1.9278 0.09974,2.892583 0.0028,0.121895 0.0042,0.243875 0,0.365729 -0.01366,0.394087 -0.09053,0.795868 -0.299233,1.130435 -0.145918,0.233919 -0.349528,0.425011 -0.531969,0.631713 -0.239536,0.271389 -0.444868,0.572654 -0.69821,0.831202 -0.440136,0.449182 -1.004929,0.750197 -1.529412,1.097187 -0.407889,0.269853 -0.796713,0.571456 -1.230179,0.797954 -0.197702,0.103305 -0.403728,0.190443 -0.598465,0.299233 -0.244312,0.136486 -0.468464,0.305681 -0.69821,0.465473 -0.273601,0.190294 -0.55761,0.36865 -0.86445,0.498721 -0.109902,0.04659 -0.222397,0.08684 -0.332481,0.132992 -0.489587,0.20527 -0.927635,0.525596 -1.429667,0.69821 -0.560092,0.192577 -1.173914,0.192147 -1.728901,0.398977 -0.07004,0.0261 -0.139004,0.05546 -0.210799,0.07626 -0.0718,0.02079 -0.147276,0.0329 -0.221426,0.02348 -0.01108,-0.0014 -0.02256,-0.0033 -0.03325,0 -0.0061,0.0018 -0.01157,0.0053 -0.01605,0.0098 -0.0045,0.0045 -0.0079,0.0099 -0.01028,0.01581 -0.0047,0.01175 -0.0049,0.02494 -0.0025,0.03737 0.0049,0.02484 0.01959,0.04648 0.02883,0.07005 0.01388,0.03542 0.01492,0.07571 0.0029,0.111791 -0.01203,0.03609 -0.03704,0.06769 -0.06939,0.0877 z"
     id="path4"
     inkscape:path-effect="#path-effect4"
     inkscape:original-d="M 15.094629,32.915601 C 14.576522,32.751053 14.146917,32.31933 13.731458,31.984655 12.817521,31.248428 13.238734,31.628892 12.30179,30.721228 11.468179,29.913667 10.781828,29.260816 10.007673,28.42711 9.8596576,28.267709 8.787141,27.073061 8.6112532,26.797954 8.3468231,26.384358 8.1107487,25.950609 7.9130435,25.501279 7.8593924,25.379345 7.0979309,23.022693 7.0818414,22.974425 6.7842625,22.081688 6.7841334,22.1905 6.5498721,21.31202 6.3638592,20.614472 6.2317164,19.908174 6.0179028,19.217391 5.8728251,18.748679 5.6934174,18.290931 5.5524297,17.820972 5.3641596,17.193405 5.1914486,16.558488 5.0204604,15.925831 4.8356189,15.241918 4.6773448,14.556031 4.5217391,13.86445 4.425514,13.436783 4.3453449,13.006566 4.3222506,12.567775 c -0.017844,-0.33903 -0.028442,-0.722638 0,-1.063939 0.00651,-0.07809 0.022165,-0.155157 0.033248,-0.232736 0.022165,-0.07758 0.058468,-0.152454 0.066496,-0.232737 0.029657,-0.29657 -0.026982,-0.600897 0,-0.897698 0.00512,-0.05628 0.027008,-0.110075 0.033248,-0.1662404 0.00734,-0.06609 -0.029738,-0.1400126 0,-0.1994885 0.00496,-0.00991 0.022165,0 0.033248,0 0.077579,0 0.155231,-0.00337 0.2327366,0 0.7912644,0.034403 0.3477915,0.046728 1.2966752,0.066496 0.8979644,0.018708 1.7983338,0.017388 2.6930946,-0.066496 0.8742238,-0.081958 1.573075,-0.1517781 2.360614,-0.5319693 0.706241,-0.3409437 1.181186,-1.0161434 1.629156,-1.6291561 0.320184,-0.4381459 0.677714,-0.8516211 1.030691,-1.2634271 0.147988,-0.1726533 0.329034,-0.3168029 0.465473,-0.4987212 0.04461,-0.059476 0.05851,-0.1376297 0.09974,-0.1994885 0.03074,-0.046107 0.08689,-0.1304821 0.132993,-0.099744 0.142089,0.094727 0.230232,0.186053 0.398977,0.2659846 0.56764,0.2688823 1.087618,0.3500782 1.629156,0.6982097 0.16039,0.1031084 0.308014,0.2249481 0.465473,0.3324809 0.296985,0.2028192 0.60337,0.3918094 0.897698,0.5984654 0.728873,0.5117621 1.416136,1.0716445 2.161125,1.5626599 0.661229,0.4358102 1.392582,0.8030683 2.127877,1.0971866 0.57595,0.23038 -0.0032,0.008 0.465474,0.132992 0.101589,0.02709 0.196596,0.07694 0.299232,0.09974 0.09797,0.02177 0.200402,0.01581 0.299233,0.03325 0.09,0.01588 0.175838,0.05147 0.265985,0.0665 0.07652,0.01275 0.157474,-0.01882 0.232736,0 0.01521,0.0038 0.01838,0.02829 0.03325,0.03325 0.02992,0.01 0.06982,-0.01 0.09975,0 0.230581,0.07686 0.45437,0.173624 0.698209,0.232736 0.219681,0.05326 0.444175,0.08453 0.664962,0.132993 0.233679,0.05129 0.463065,0.12215 0.69821,0.16624 0.297317,0.05575 0.598613,0.08768 0.897698,0.132992 0.06665,0.0101 0.135534,0.01193 0.199488,0.03325 0.03743,0.01248 -0.06607,0.187416 -0.09974,0.265985 -0.07053,0.16457 -0.119416,0.338577 -0.199488,0.498721 -0.05361,0.107222 -0.141718,0.194194 -0.199489,0.299233 -0.105751,0.192257 -0.247958,0.553876 -0.29924,0.764701 -0.05662,0.232779 -0.226637,1.122761 -0.265984,1.429668 -0.02973,0.231891 -0.03677,0.466318 -0.0665,0.698209 -0.08676,0.676695 -0.128615,0.534094 -0.166241,1.230179 -0.01077,0.199198 0.0052,0.399046 0,0.598466 -0.0058,0.221854 -0.02906,0.44307 -0.03325,0.664961 -0.01433,0.759609 0.03167,1.534121 0,2.294118 -0.03233,0.775821 -0.131776,1.551916 -0.16624,2.327366 -0.04292,0.965783 0.09974,1.927206 0.09974,2.892583 0,0.12191 0.01346,0.244565 0,0.365729 -0.04344,0.390952 -0.153486,0.766067 -0.299233,1.130435 -0.109226,0.273064 -0.343484,0.419667 -0.531969,0.631713 -0.198509,0.223322 -0.495286,0.636083 -0.69821,0.831202 -0.45058,0.43325 -1.01579,0.747924 -1.529412,1.097187 -0.400237,0.272161 -0.799954,0.57152 -1.230179,0.797954 -0.545746,0.287235 -0.05512,-0.03281 -0.598465,0.299233 -0.238675,0.145857 -0.459989,0.318875 -0.69821,0.465473 -0.283317,0.174349 -0.566905,0.349948 -0.86445,0.498721 -0.106763,0.05338 -0.224607,0.08189 -0.332481,0.132992 -0.478037,0.226439 -0.938499,0.498104 -1.429667,0.69821 -0.54841,0.223426 -1.144767,0.330255 -1.728901,0.398977 -0.250695,0.02949 -0.247857,0.0076 -0.432225,0.09974 -0.0099,0.005 -0.02829,-0.0099 -0.03325,0 -0.01983,0.03965 0.01075,0.08998 0,0.132993 -0.017,0.068 -0.04433,0.132992 -0.0665,0.199488 z" />
  <path
     style="fill:#c9d4de;stroke:#c9d4de;stroke-opacity:1;fill-opacity:1"
     d="m 11.936061,25.13555 c 0.04884,-0.308379 0.08214,-0.619219 0.09974,-0.930946 0.03624,-0.641925 0.0059,-1.285468 0,-1.928389 -0.0053,-0.57712 0.0091,-1.156733 -0.0665,-1.7289 -0.04418,-0.334189 -0.118828,-0.663697 -0.16624,-0.997443 -0.03187,-0.224334 -0.0521,-0.453307 -0.132992,-0.664962 -0.05148,-0.134698 -0.126848,-0.260261 -0.166241,-0.398976 -0.01792,-0.0631 -0.02815,-0.128171 -0.0457,-0.191377 -0.01754,-0.06321 -0.04323,-0.12576 -0.08729,-0.174352 -0.03134,-0.03456 -0.07067,-0.06067 -0.109189,-0.087 -0.03852,-0.02633 -0.07718,-0.05373 -0.106405,-0.0901 -0.01461,-0.01818 -0.02672,-0.03854 -0.0343,-0.06059 -0.0076,-0.02206 -0.01057,-0.04587 -0.0072,-0.06894 0.0034,-0.02308 0.01336,-0.04536 0.02937,-0.06233 0.01601,-0.01696 0.03818,-0.02833 0.06145,-0.03001 0.01106,-7.98e-4 0.02216,0 0.03325,0 h 0.16624 c 0.09997,0 0.199891,-0.0036 0.299688,-0.0094 0.0998,-0.0058 0.201132,-0.01199 0.298778,0.0094 0.09262,0.02032 0.177625,0.06532 0.265984,0.09974 0.107869,0.04202 0.221062,0.06833 0.332481,0.09974 0.305599,0.08616 0.598701,0.211001 0.898847,0.314571 0.300147,0.10357 0.612294,0.186554 0.929798,0.18415 0.09981,-7.56e-4 0.199916,-0.0099 0.299232,0 0.136619,0.01368 0.26669,0.06298 0.398977,0.09975 0.269664,0.07495 0.551319,0.09823 0.831202,0.09974 0.14408,7.78e-4 0.288201,-0.0041 0.432225,0 0.277344,0.0079 0.554204,0.04919 0.831202,0.03325 0.18852,-0.01085 0.376386,-0.03325 0.565218,-0.03325 h 0.997442 c 0.05057,0 0.101004,-0.0045 0.151048,-0.0118 0.02502,-0.0036 0.0502,-0.0071 0.07548,-0.0066 0.02528,5.29e-4 0.05102,0.0054 0.07271,0.01841 0.02367,0.0142 0.04116,0.03758 0.05062,0.06351 0.0095,0.02593 0.01123,0.05427 0.0078,0.08166 -0.0069,0.05477 -0.03379,0.104643 -0.05839,0.154065 -0.273823,0.550226 -0.309033,1.183421 -0.365729,1.795396 -0.07078,0.76396 -0.182828,1.527066 -0.16624,2.294118 0.007,0.323444 0.03698,0.646819 0.09974,0.964194 0.02171,0.109786 0.04746,0.221475 0.03325,0.332481 -0.0182,0.142189 -0.102949,0.271373 -0.216851,0.358409 -0.113902,0.08704 -0.254873,0.134203 -0.397286,0.150562 -0.284825,0.03272 -0.567982,-0.05213 -0.848779,-0.109994 -0.392976,-0.08099 -0.795826,-0.109936 -1.196931,-0.09974 -0.166299,0.0042 -0.333058,0.01513 -0.498721,0 -0.111138,-0.01015 -0.225477,-0.0317 -0.332481,0 -0.07144,0.02116 -0.133792,0.06458 -0.199488,0.09974 -0.134798,0.07214 -0.284819,0.109942 -0.432963,0.147742 -0.148144,0.0378 -0.297981,0.07698 -0.431487,0.151491 -0.06547,0.03654 -0.126113,0.0811 -0.190528,0.119468 -0.06442,0.03836 -0.134029,0.07091 -0.208449,0.08002 -0.04406,0.0054 -0.08867,0.0024 -0.132993,0 -0.299459,-0.01644 -0.600699,-0.0084 -0.897698,0.03325 -0.09991,0.01402 -0.199505,0.03186 -0.30025,0.03726 -0.100745,0.0054 -0.203661,-0.0021 -0.298215,-0.03726 -0.06091,-0.02267 -0.117577,-0.05667 -0.166241,-0.09974 z"
     id="path5"
     inkscape:path-effect="#path-effect5"
     inkscape:original-d="m 11.936061,25.13555 c 0.122396,-0.428384 0.08608,-0.234124 0.09974,-0.930946 0.01258,-0.641596 0,-1.286318 0,-1.928389 0,-0.569851 0.0092,-1.161394 -0.0665,-1.7289 -0.04455,-0.334111 -0.106528,-0.665707 -0.16624,-0.997443 -0.04004,-0.222468 -0.07179,-0.447361 -0.132992,-0.664962 -0.03901,-0.138693 -0.11374,-0.264808 -0.166241,-0.398976 -0.04727,-0.120801 -0.0836,-0.245781 -0.132992,-0.365729 -0.02449,-0.05948 -0.16624,-0.314198 -0.16624,-0.398977 0,-0.01108 0.02217,0 0.03325,0 0.05541,0 0.110827,0 0.16624,0 0.182934,0 0.422624,-0.03297 0.598466,0 0.09307,0.01745 0.176153,0.0698 0.265984,0.09974 0.109769,0.03659 0.222145,0.0649 0.332481,0.09974 0.602606,0.190297 1.198817,0.408746 1.828645,0.498721 0.08728,0.01247 0.209462,-0.01 0.299232,0 0.211838,0.02354 0.159761,0.05418 0.398977,0.09975 0.177839,0.03387 0.62868,0.0913 0.831202,0.09974 0.14395,0.006 0.288249,-0.0053 0.432225,0 0.421831,0.01562 0.439424,0.05387 0.831202,0.03325 0.192149,-0.01011 0.372799,-0.03325 0.565218,-0.03325 0.332481,0 0.664961,0 0.997442,0 0.03555,0 0.275393,-0.02384 0.299233,0 0.01654,0.01654 0,0.282605 0,0.299233 0,0.610297 -0.247004,1.201771 -0.365729,1.795396 -0.15002,0.750103 -0.202616,1.530232 -0.16624,2.294118 0.01534,0.322262 0.04664,0.645603 0.09974,0.964194 0.01188,0.07129 0.07362,0.251745 0.03325,0.332481 -0.176332,0.352663 -1.158149,0.385124 -1.462916,0.398977 -0.427593,0.01944 -0.781643,-0.06019 -1.196931,-0.09974 -0.165491,-0.01576 -0.33248,0 -0.498721,0 -0.110827,0 -0.222768,-0.01567 -0.332481,0 -0.09974,0.01425 -0.116368,0.076 -0.199488,0.09974 -0.284948,0.08141 -0.592192,0.175479 -0.86445,0.299233 -0.14116,0.06416 -0.243131,0.154961 -0.398977,0.199488 -0.04262,0.01218 -0.08999,-0.01075 -0.132993,0 -0.278722,0.06968 -0.603825,0.03325 -0.897698,0.03325 -0.10766,0 -0.508787,0.03843 -0.598465,0 -0.0594,-0.02546 -0.110827,-0.0665 -0.166241,-0.09974 z"
     transform="translate(0.59846547,0.29923274)" />
  <path
     style="fill:none;stroke:#c9d4de;stroke-opacity:1"
     d="m 18.81842,18.519187 c 0.0069,-0.02185 0.0034,-0.04675 -0.0093,-0.06581 -0.01271,-0.01906 -0.03433,-0.0319 -0.05715,-0.03394 -0.01108,-9.89e-4 -0.02222,4.36e-4 -0.03331,0.0014 -0.01109,9.58e-4 -0.02243,0.0014 -0.03319,-0.0014 -0.01535,-0.004 -0.02853,-0.01472 -0.03711,-0.02807 -0.0086,-0.01336 -0.01278,-0.02922 -0.0137,-0.04506 -0.0018,-0.03169 0.0089,-0.06256 0.01755,-0.0931 0.0548,-0.192967 0.03035,-0.401594 -0.03334,-0.591814 -0.06369,-0.19022 -0.164796,-0.365362 -0.265896,-0.538621 -0.180344,-0.309062 -0.3646,-0.620875 -0.465473,-0.964194 -0.02969,-0.101044 -0.05231,-0.205202 -0.09974,-0.299233 -0.05253,-0.10415 -0.133968,-0.191969 -0.227042,-0.262284 -0.09307,-0.07031 -0.197755,-0.123889 -0.304928,-0.169941 -0.11923,-0.05123 -0.242097,-0.09355 -0.365728,-0.132992 -0.431875,-0.137789 -0.877264,-0.241474 -1.329924,-0.265985 -0.26209,-0.01419 -0.537508,0.0016 -0.764706,0.132992 -0.146188,0.08457 -0.263431,0.212505 -0.357558,0.352728 -0.09413,0.140223 -0.166879,0.293429 -0.240907,0.445226 -0.18103,0.371208 -0.375609,0.751347 -0.398977,1.163683 -0.01494,0.263645 0.04319,0.531058 0.16624,0.764706 v 0.432225"
     id="path6"
     inkscape:path-effect="#path-effect6"
     inkscape:original-d="m 18.81842,18.519187 c -0.0331,-0.0331 -0.02404,-0.07852 -0.0665,-0.09975 -0.01983,-0.0099 -0.05083,0.01567 -0.0665,0 -0.01545,-0.01545 -0.01313,-0.13271 -0.03325,-0.16624 -0.173689,-0.289482 -0.223373,-0.801701 -0.299233,-1.130435 -0.08384,-0.363309 -0.330413,-0.626545 -0.465473,-0.964194 -0.0371,-0.09275 -0.03379,-0.216793 -0.09974,-0.299233 -0.120483,-0.150603 -0.372967,-0.348535 -0.53197,-0.432225 -0.114791,-0.06041 -0.244928,-0.08572 -0.365728,-0.132992 -0.622206,-0.243475 -0.639307,-0.265985 -1.329924,-0.265985 -0.268412,0 -0.518369,0.0098 -0.764706,0.132992 -0.309308,0.154655 -0.435983,0.521735 -0.598465,0.797954 -0.22291,0.378948 -0.398977,0.712447 -0.398977,1.163683 0,0.266574 -0.03221,0.554055 0.16624,0.764706 0,0.144075 0,0.28815 0,0.432225" />
</svg>
