<?xml version="1.0" encoding="UTF-8" standalone="no"?>
<svg
   width="39px"
   height="36px"
   viewBox="0 0 39 36"
   version="1.1"
   id="svg1"
   sodipodi:docname="ico_multi.svg"
   inkscape:version="1.3.2 (091e20e, 2023-11-25, custom)"
   xmlns:inkscape="http://www.inkscape.org/namespaces/inkscape"
   xmlns:sodipodi="http://sodipodi.sourceforge.net/DTD/sodipodi-0.dtd"
   xmlns="http://www.w3.org/2000/svg"
   xmlns:svg="http://www.w3.org/2000/svg">
  <sodipodi:namedview
     id="namedview1"
     pagecolor="#ffffff"
     bordercolor="#000000"
     borderopacity="0.25"
     inkscape:showpageshadow="2"
     inkscape:pageopacity="0.0"
     inkscape:pagecheckerboard="0"
     inkscape:deskcolor="#d1d1d1"
     inkscape:zoom="32.583333"
     inkscape:cx="19.488491"
     inkscape:cy="18"
     inkscape:window-width="2560"
     inkscape:window-height="1369"
     inkscape:window-x="-8"
     inkscape:window-y="-8"
     inkscape:window-maximized="1"
     inkscape:current-layer="svg1" />
  <!-- Generator: Sketch 49 (51002) - http://www.bohemiancoding.com/sketch -->
  <title
     id="title1">Using Bitcoin icon</title>
  <desc
     id="desc1">Created with Sketch.</desc>
  <defs
     id="defs1">
    <inkscape:path-effect
       effect="spiro"
       id="path-effect4"
       is_visible="true"
       lpeversion="1" />
    <inkscape:path-effect
       effect="spiro"
       id="path-effect3"
       is_visible="true"
       lpeversion="1" />
    <inkscape:path-effect
       effect="spiro"
       id="path-effect2"
       is_visible="true"
       lpeversion="1" />
    <inkscape:path-effect
       effect="spiro"
       id="path-effect1"
       is_visible="true"
       lpeversion="1" />
  </defs>
  <path
     style="fill:none;stroke:#ff9500;stroke-width:1.079;stroke-opacity:1"
     d="m 16.879795,22.925831 c -0.01449,0.439785 -0.02472,0.87971 -0.03069,1.319693 -0.0026,0.194367 -0.0044,0.388787 0,0.583121 0.0096,0.421732 0.04881,0.843003 0.122762,1.258312 0.02917,0.163804 0.06381,0.327246 0.07378,0.493327 0.01,0.166082 -0.0059,0.336889 -0.07378,0.48877 -0.01612,0.03604 -0.03533,0.07162 -0.04068,0.110739 -0.0027,0.01956 -0.0017,0.03984 0.0048,0.05847 0.0065,0.01863 0.01892,0.0355 0.03586,0.04563 0.01803,0.01078 0.03996,0.01336 0.0609,0.01172 0.02094,-0.0016 0.04134,-0.0072 0.06186,-0.01172 0.05097,-0.01121 0.103372,-0.01601 0.153453,-0.03069 0.07381,-0.02164 0.140488,-0.06443 0.195496,-0.118191 0.05501,-0.05376 0.09873,-0.118262 0.134125,-0.186548 0.07079,-0.136573 0.108589,-0.287367 0.161427,-0.431834 0.0678,-0.185382 0.161015,-0.36145 0.276215,-0.521739 0.06893,-0.531945 0.225088,-1.052486 0.460358,-1.534527 0.10638,-0.217961 0.228642,-0.427815 0.337596,-0.644501 0.05403,-0.10746 0.105397,-0.218577 0.122762,-0.337596 0.0065,-0.04485 0.0082,-0.09056 0.01954,-0.134443 0.0057,-0.02194 0.01378,-0.04338 0.02566,-0.06268 0.01188,-0.0193 0.02763,-0.03643 0.04687,-0.0484 0.03033,-0.01887 0.06844,-0.02389 0.103219,-0.01577 0.03478,0.0081 0.0661,0.02885 0.08907,0.0562 0.02297,0.02736 0.03778,0.06109 0.04482,0.0961 0.007,0.03502 0.0065,0.07131 8.36e-4,0.106583 -0.01129,0.07054 -0.04235,0.136148 -0.07303,0.200663 -0.03068,0.06452 -0.06168,0.130161 -0.07284,0.20072 -0.01262,0.07974 9.46e-4,0.161781 0.02615,0.238475 0.02521,0.07669 0.06178,0.149054 0.09661,0.221883 0.0378,0.07905 0.07397,0.159792 0.09207,0.245524 0.02336,0.110655 0.01581,0.225485 0.03069,0.337596 0.02197,0.165455 0.09263,0.324143 0.09207,0.491049 -2.61e-4,0.07752 -0.01601,0.154737 -0.01119,0.232106 0.0024,0.03869 0.01011,0.07743 0.02677,0.112427 0.01666,0.035 0.0427,0.06615 0.07649,0.08513 0.03217,0.01808 0.07001,0.02445 0.106872,0.02279 0.03686,-0.0017 0.07298,-0.01102 0.107962,-0.02279 0.117239,-0.03943 0.22347,-0.105755 0.337596,-0.153452 0.08066,-0.03371 0.165013,-0.05801 0.245524,-0.09207 0.197084,-0.08338 0.365081,-0.222505 0.521739,-0.368287 0.209774,-0.195211 0.408894,-0.411794 0.521739,-0.675191 0.03443,-0.08035 0.06036,-0.164061 0.09207,-0.245525 0.03173,-0.08151 0.06934,-0.161065 0.09207,-0.245524 0.0418,-0.155306 0.03132,-0.320151 0.0039,-0.478634 -0.02739,-0.158483 -0.07126,-0.313856 -0.096,-0.472773 -0.0111,-0.07127 -0.0182,-0.145035 0,-0.214833 0.02137,-0.08197 0.07714,-0.152667 0.146757,-0.200916 0.06962,-0.04825 0.152357,-0.07525 0.236167,-0.08754 0.167619,-0.02457 0.337755,0.0076 0.507102,0.01224 0.375334,0.01035 0.740018,-0.114036 1.092786,-0.242633 0.352768,-0.128598 0.711045,-0.264628 1.086242,-0.279106 0.140929,-0.0054 0.282712,0.0064 0.422728,-0.01046 0.07001,-0.0085 0.139517,-0.02422 0.204282,-0.05211 0.06477,-0.0279 0.124779,-0.06826 0.170944,-0.121569 0.04511,-0.05209 0.07588,-0.114929 0.102476,-0.178492 0.0266,-0.06356 0.04961,-0.128805 0.08167,-0.189794 0.09485,-0.18043 0.26085,-0.310451 0.398977,-0.460358 0.169052,-0.18347 0.30033,-0.404154 0.364915,-0.645128 0.06459,-0.240974 0.0604,-0.502398 -0.02732,-0.735946 -0.06616,-0.176149 -0.176569,-0.331435 -0.276215,-0.491049 -0.123701,-0.198146 -0.232057,-0.405424 -0.337596,-0.613811 -0.04762,-0.09402 -0.09486,-0.188609 -0.153453,-0.276214 -0.141635,-0.211757 -0.344207,-0.374955 -0.552429,-0.521739 -0.247775,-0.174667 -0.510844,-0.332361 -0.797954,-0.429668 -0.09922,-0.03363 -0.202148,-0.06007 -0.306906,-0.06138 -0.06143,-7.69e-4 -0.123121,0.0071 -0.184143,0 -0.05376,-0.0063 -0.106558,-0.02449 -0.150608,-0.05594 -0.04405,-0.03145 -0.07897,-0.07648 -0.09492,-0.128206 -0.0141,-0.04574 -0.01312,-0.09545 -8.98e-4,-0.141723 0.01222,-0.04627 0.03534,-0.08923 0.06418,-0.127423 0.05769,-0.07638 0.136845,-0.133133 0.212931,-0.191212 0.421001,-0.321364 0.781159,-0.716342 1.104859,-1.13555 0.109874,-0.142293 0.217361,-0.290488 0.276215,-0.460358 0.061,-0.176053 0.06652,-0.366181 0.06138,-0.55243 -0.0052,-0.187649 -0.02134,-0.378543 -0.09207,-0.55243 -0.08865,-0.21795 -0.258312,-0.39527 -0.450852,-0.530508 -0.192541,-0.135237 -0.408697,-0.232395 -0.623317,-0.328827 -0.217087,-0.09754 -0.434307,-0.195283 -0.644501,-0.306905 -0.166203,-0.08826 -0.328078,-0.185229 -0.499794,-0.262213 -0.171717,-0.07698 -0.35552,-0.134024 -0.543684,-0.136764 -0.05697,-8.3e-4 -0.113943,0.0033 -0.170894,0.0017 -0.05695,-0.0016 -0.114648,-0.0092 -0.166702,-0.0324 -0.0209,-0.0093 -0.04066,-0.021 -0.06138,-0.03069 -0.06686,-0.03127 -0.142109,-0.04082 -0.215906,-0.03958 -0.0738,0.0012 -0.146968,0.0128 -0.220214,0.02188 -0.07325,0.0091 -0.147456,0.01571 -0.220756,0.0071 -0.0733,-0.0086 -0.146282,-0.03357 -0.202459,-0.08144 -0.03919,-0.0334 -0.06892,-0.07677 -0.09207,-0.122762 -0.07087,-0.140781 -0.08158,-0.303094 -0.09207,-0.460358 -0.02658,-0.398583 -0.06004,-0.798542 -0.03069,-1.196931 0.01281,-0.173866 0.03758,-0.347538 0.03069,-0.521739 -0.0035,-0.08959 -0.01562,-0.1794257 -0.04435,-0.2643575 -0.02873,-0.084932 -0.07471,-0.1650254 -0.139796,-0.2266911 -0.06391,-0.060549 -0.145019,-0.1019308 -0.230663,-0.1223075 -0.08564,-0.020377 -0.175663,-0.020112 -0.262109,-0.00346 -0.172892,0.033307 -0.328048,0.1304263 -0.458634,0.2485285 -0.186664,0.1688186 -0.330194,0.3826219 -0.429668,0.6138104 -0.197516,0.45905 -0.220903,0.974761 -0.184143,1.473146 0.0094,0.12751 0.02424,0.259908 0.09207,0.368287 0.04782,0.07639 0.118649,0.135217 0.189964,0.190322 0.07131,0.0551 0.14519,0.108673 0.202376,0.178331 0.02859,0.03483 0.05279,0.07359 0.06855,0.115803 0.01576,0.04222 0.02292,0.088 0.01764,0.132751 -0.0053,0.04475 -0.02336,0.08837 -0.05364,0.121737 -0.03029,0.03337 -0.07303,0.05589 -0.117983,0.05901 -0.03969,0.0028 -0.07923,-0.0093 -0.114698,-0.02732 -0.03547,-0.01803 -0.06756,-0.04192 -0.100136,-0.06475 -0.303009,-0.212397 -0.666065,-0.345335 -0.920716,-0.613811 -0.137225,-0.144676 -0.237333,-0.326163 -0.276215,-0.521739 -0.0201,-0.101115 -0.02379,-0.206593 0,-0.306905 0.03204,-0.135071 0.111838,-0.253976 0.200978,-0.360392 0.08914,-0.106417 0.189137,-0.2038 0.272035,-0.315148 0.0829,-0.111347 0.14923,-0.240536 0.157685,-0.379096 0.0042,-0.06928 -0.0065,-0.139934 -0.03503,-0.203191 -0.02857,-0.063256 -0.07546,-0.1187907 -0.135308,-0.1539381 -0.03948,-0.023182 -0.08382,-0.037315 -0.122762,-0.061381 -0.03141,-0.01941 -0.05895,-0.045065 -0.09207,-0.061381 -0.04187,-0.020623 -0.0898,-0.024926 -0.136468,-0.025449 -0.04667,-5.227e-4 -0.0937,0.00236 -0.139747,-0.00524 -0.05784,-0.00955 -0.111716,-0.035245 -0.168545,-0.049633 -0.02841,-0.00719 -0.05781,-0.011555 -0.08704,-0.00943 -0.02923,0.00212 -0.0584,0.011005 -0.08201,0.028377 -0.02334,0.017174 -0.04017,0.041633 -0.06138,0.061381 -0.03752,0.03494 -0.08793,0.054452 -0.122762,0.092072 -0.0251,0.02711 -0.04031,0.061723 -0.06138,0.092072 -0.02941,0.042373 -0.06993,0.075924 -0.112884,0.1044831 -0.04295,0.02856 -0.08872,0.05261 -0.132641,0.07966 -0.261568,0.161087 -0.451574,0.430605 -0.526369,0.728552 -0.0748,0.297947 -0.03611,0.621048 0.0967,0.898047 0.0832,0.173525 0.203185,0.333672 0.240123,0.522532 0.01847,0.09443 0.01435,0.195377 -0.02586,0.282792 -0.02011,0.04371 -0.04909,0.08353 -0.08579,0.114639 -0.0367,0.03111 -0.08118,0.05334 -0.128476,0.06213 -0.0833,0.01549 -0.169263,-0.01105 -0.24422,-0.05054 -0.07496,-0.0395 -0.142446,-0.09179 -0.216138,-0.133598 -0.166966,-0.09472 -0.359441,-0.132408 -0.54866,-0.164758 -0.189218,-0.03235 -0.381948,-0.06161 -0.5562,-0.142148 -0.04153,-0.0192 -0.08171,-0.04118 -0.122762,-0.06138 -0.140814,-0.06928 -0.295633,-0.117912 -0.452418,-0.111037 -0.07839,0.0034 -0.156521,0.02094 -0.227296,0.05483 -0.07077,0.03388 -0.13402,0.08442 -0.179621,0.148279 -0.05874,0.08225 -0.08602,0.182054 -0.122762,0.276215 -0.02832,0.07259 -0.06271,0.142661 -0.09207,0.214833 -0.09784,0.240474 -0.138648,0.505028 -0.10928,0.762976 0.02937,0.257949 0.129824,0.508589 0.293424,0.71017 0.154178,0.189973 0.364126,0.335001 0.597849,0.407346 0.233724,0.07235 0.49041,0.071 0.721844,-0.0084 0.121821,-0.04178 0.23757,-0.104717 0.364718,-0.125184 0.06358,-0.01023 0.129807,-0.0093 0.191111,0.01037 0.0613,0.01971 0.117369,0.05933 0.150053,0.114812 0.02106,0.03575 0.03194,0.07677 0.03686,0.117966 0.0049,0.0412 0.0042,0.08287 0.0023,0.124318 -0.0038,0.0829 -0.0085,0.165778 -0.0085,0.248765 v 1.196931 c 0,0.22509 0.01097,0.45037 0,0.675192 -0.01772,0.363274 -0.111245,0.717843 -0.184144,1.074168 -0.05631,0.275217 -0.100479,0.552767 -0.153452,0.828645 -0.02389,0.124394 -0.04969,0.24892 -0.09207,0.368286 -0.02925,0.08239 -0.06629,0.161987 -0.09207,0.245525 -0.06833,0.221385 -0.05461,0.458718 -0.03783,0.689799 0.01678,0.231081 0.03553,0.467246 -0.02355,0.691275 -0.02979,0.112962 -0.07912,0.221492 -0.09207,0.337596 -0.0092,0.08248 3.28e-4,0.166208 -0.0091,0.248664 -0.0047,0.04123 -0.01426,0.08227 -0.03254,0.119526 -0.01827,0.03726 -0.04567,0.07066 -0.08115,0.09217 -0.01957,0.01186 -0.04119,0.01992 -0.06138,0.03069 -0.06713,0.0358 -0.114496,0.09883 -0.168406,0.152513 -0.02695,0.02684 -0.05625,0.05186 -0.08993,0.06956 -0.03368,0.01769 -0.07216,0.02776 -0.109953,0.02345 -0.01559,-0.0018 -0.03084,-0.0059 -0.04644,-0.0076 -0.0156,-0.0016 -0.03216,-4.88e-4 -0.04563,0.0076 -0.01247,0.0075 -0.02092,0.01994 -0.03069,0.03069 -0.027,0.02971 -0.06573,0.04711 -0.105375,0.05343 -0.03964,0.0063 -0.08031,0.0023 -0.119622,-0.0058 -0.07863,-0.01622 -0.155083,-0.04867 -0.235361,-0.04759 -0.06357,8.6e-4 -0.124745,0.02278 -0.184376,0.04482 -0.05963,0.02204 -0.120385,0.04474 -0.18391,0.04725 -0.03068,0.0012 -0.06146,-0.0023 -0.09207,0 -0.04536,0.0035 -0.08934,0.01997 -0.127209,0.04519 -0.03787,0.02522 -0.06972,0.05896 -0.09484,0.09689 -0.05025,0.07585 -0.07318,0.166672 -0.08486,0.256906 -0.0132,0.101996 -0.01313,0.205569 -0.03069,0.306905 -0.01443,0.0833 -0.04068,0.164482 -0.05012,0.248492 -0.0047,0.042 -0.0052,0.08473 0.0022,0.12635 0.0074,0.04162 0.02283,0.08218 0.0479,0.116207 0.03381,0.04588 0.08404,0.07817 0.138138,0.09608 0.0541,0.01791 0.112004,0.02212 0.168896,0.01883 0.113784,-0.0066 0.224036,-0.0424 0.337467,-0.05352 0.122773,-0.01204 0.246247,0.0051 0.369068,0.01659 0.122821,0.01154 0.248878,0.01726 0.367505,-0.01659 0.02526,-0.0072 0.05002,-0.01617 0.07546,-0.02273 0.02544,-0.0066 0.05186,-0.01068 0.07799,-0.008 0.02096,0.0022 0.04125,0.0087 0.06215,0.01141 0.01045,0.0013 0.02109,0.0017 0.0315,1.14e-4 0.01041,-0.0016 0.02061,-0.0053 0.02911,-0.01153 0.01168,-0.0086 0.01954,-0.02143 0.03069,-0.03069 0.01019,-0.0085 0.02283,-0.01364 0.03577,-0.01647 0.01295,-0.0028 0.02627,-0.0035 0.03952,-0.0037 0.02651,-3.8e-4 0.05416,7e-4 0.07815,-0.01057 0.01506,-0.0071 0.02766,-0.01865 0.0379,-0.03176 0.01024,-0.01311 0.01828,-0.02778 0.02601,-0.04251 0.0077,-0.01473 0.01522,-0.02964 0.02449,-0.04345 0.0093,-0.01381 0.02047,-0.02659 0.03436,-0.03574 0.01971,-0.01299 0.04369,-0.01795 0.06724,-0.01944 0.02355,-0.0015 0.0472,2.15e-4 0.07079,-7.29e-4 0.02358,-9.45e-4 0.04764,-0.0047 0.06821,-0.01633 0.01028,-0.0058 0.01956,-0.01351 0.02656,-0.02301 0.007,-0.0095 0.01168,-0.02081 0.01272,-0.03256 9.15e-4,-0.01027 -9.06e-4,-0.02056 -0.002,-0.0308 -0.0011,-0.01025 -0.0015,-0.02091 0.002,-0.03058 0.0039,-0.0106 0.01246,-0.01911 0.02244,-0.02441 0.01,-0.0053 0.02132,-0.0076 0.03261,-0.0083 0.02257,-0.0013 0.04518,0.0038 0.06771,0.002 0.03021,-0.0024 0.05815,-0.0172 0.08263,-0.03507 0.02448,-0.01787 0.0464,-0.03905 0.07082,-0.057 0.07771,-0.0571 0.177733,-0.07837 0.274022,-0.07308 0.09629,0.0053 0.189632,0.03541 0.278407,0.07308 0.06321,0.02682 0.124756,0.05759 0.184143,0.09207 z"
     id="path1"
     inkscape:path-effect="#path-effect1"
     inkscape:original-d="m 16.879795,22.925831 c 0.136359,0.440572 -0.0061,0.876501 -0.03069,1.319693 -0.01078,0.194074 -0.0049,0.388808 0,0.583121 0.04065,1.625921 -0.0013,-0.313475 0.122762,1.258312 0.02576,0.32635 0,0.654731 0,0.982097 0,0.07161 -0.05064,0.164197 0,0.214833 0.02894,0.02894 0.08216,0.0051 0.122762,0 0.05176,-0.0065 0.113379,0.0027 0.153453,-0.03069 0.14339,-0.119492 0.432995,-0.633367 0.491048,-0.736573 0.09648,-0.17151 0.20674,-0.33763 0.276215,-0.521739 0.257882,-0.478219 0.279472,-1.032064 0.460358,-1.534527 0.194036,-0.538989 0.09833,-0.14205 0.337596,-0.644501 0.05148,-0.10811 0.0849,-0.224 0.122762,-0.337596 0.02764,-0.08292 0.0047,-0.245524 0.09207,-0.245524 0.04066,0 0.07931,0.584938 0.09207,0.644501 0.03328,0.15529 0.07539,0.308772 0.122762,0.460358 0.02607,0.08343 0.07407,0.159992 0.09207,0.245524 0.02328,0.110572 0.01886,0.225221 0.03069,0.337596 0.04512,0.428623 0.0066,0.06385 0.09207,0.491049 5.82e-4,0.0029 0.08279,0.420386 0.09207,0.429667 0.01156,0.01156 0.192586,0.0056 0.214834,0 0.119921,-0.02998 0.222825,-0.107544 0.337596,-0.153452 0.08115,-0.03246 0.168401,-0.05094 0.245524,-0.09207 0.09374,-0.04999 0.435792,-0.290153 0.521739,-0.368287 0.141429,-0.128571 0.430486,-0.512963 0.521739,-0.675191 0.04285,-0.07618 0.06138,-0.163683 0.09207,-0.245525 0.03069,-0.08184 0.0777,-0.159306 0.09207,-0.245524 0.05331,-0.319852 -0.02134,-0.644886 -0.09207,-0.951407 -0.004,-0.01726 -0.01038,-0.208604 0,-0.214833 0.260555,-0.156333 0.602618,-0.204363 0.890026,-0.276215 0.728414,-0.182104 1.445417,-0.366125 2.179028,-0.521739 0.05497,-0.01166 0.713164,-0.116312 0.797954,-0.184144 0.08984,-0.07187 0.124748,-0.282493 0.184143,-0.368286 0.115585,-0.166957 0.294502,-0.286233 0.398977,-0.460358 0.197368,-0.328948 0.406877,-1.011577 0.337596,-1.381074 -0.03255,-0.173607 -0.195301,-0.35302 -0.276215,-0.491049 -0.11809,-0.201447 -0.224793,-0.409356 -0.337596,-0.613811 -0.05088,-0.09222 -0.09026,-0.191953 -0.153453,-0.276214 -0.08954,-0.119382 -0.421914,-0.414954 -0.552429,-0.521739 -0.227812,-0.186392 -0.511187,-0.362193 -0.797954,-0.429668 -0.101555,-0.0239 -0.203384,-0.04844 -0.306906,-0.06138 -0.06091,-0.0076 -0.123954,0.01204 -0.184143,0 -0.06902,-0.0138 -0.210799,-0.114692 -0.245524,-0.184143 -0.09019,-0.180384 0.172421,-0.378807 0.276215,-0.460358 0.460334,-0.361691 0.757596,-0.645296 1.104859,-1.13555 0.0145,-0.02047 0.261675,-0.41383 0.276215,-0.460358 0.05526,-0.176843 0.04982,-0.367514 0.06138,-0.55243 0.0101,-0.161618 0.02584,-0.418798 -0.09207,-0.55243 -0.303274,-0.343711 -0.674677,-0.633535 -1.074169,-0.859335 -0.207148,-0.117084 -0.434547,-0.19493 -0.644501,-0.306905 C 22.99752,12.623408 22.655083,12.4457 22.28132,12.39898 22.1839,12.3868 22.038973,12.39208 21.943724,12.36829 c -0.02219,-0.0055 -0.03895,-0.0262 -0.06138,-0.03069 -0.266827,-0.05336 -0.595821,0.06604 -0.859335,-0.09207 -0.06258,-0.03755 -0.06028,-0.06713 -0.09207,-0.122762 -0.157795,-0.276141 -0.06962,-0.03383 -0.09207,-0.460358 -0.02092,-0.397544 -0.0529,-0.797251 -0.03069,-1.196931 0.03973,-0.7151113 0.03069,0.132307 0.03069,-0.521739 0,-0.27169 0.107656,-0.4645214 -0.184144,-0.4910486 -0.257524,-0.023411 -0.744877,-0.060819 -0.951406,0.1227622 -0.186666,0.1659252 -0.315293,0.3917889 -0.429668,0.6138104 -0.127854,0.248189 -0.224358,1.178237 -0.184143,1.473146 0.0171,0.12538 0.0535,0.247766 0.09207,0.368287 0.0034,0.0106 0.341119,0.763739 0.306905,0.797954 -0.05509,0.05509 -0.144094,-0.05942 -0.214834,-0.09207 -0.417773,-0.192819 -0.622266,-0.272725 -0.920716,-0.613811 -0.137549,-0.157198 -0.254295,-0.302544 -0.276215,-0.521739 -0.01018,-0.101794 -0.02481,-0.207658 0,-0.306905 0.0691,-0.276387 0.750022,-1.122101 0.460358,-1.4117651 -0.03235,-0.032351 -0.08304,-0.038682 -0.122762,-0.061381 -0.03202,-0.0183 -0.05782,-0.047682 -0.09207,-0.061381 -0.07917,-0.031669 -0.193348,-0.018852 -0.276215,-0.030691 -0.09451,-0.013502 -0.236713,-0.064318 -0.337596,-0.030691 -0.02745,0.00915 -0.0355,0.048441 -0.06138,0.061381 -0.04233,0.021166 -0.08848,0.046362 -0.122762,0.092072 -0.02213,0.029508 -0.0353,0.06599 -0.06138,0.092072 -0.07277,0.072773 -0.178267,0.094467 -0.245525,0.1841431 -0.318445,0.424594 -0.39277,1.110044 -0.429667,1.626599 -0.0086,0.119715 0.01766,0.964435 0,0.982097 -0.03725,0.03725 -0.296729,-0.121808 -0.460358,-0.184143 -0.369376,-0.140715 -0.745442,-0.1871 -1.10486,-0.306906 -0.0434,-0.01447 -0.07936,-0.04691 -0.122762,-0.06138 -0.204573,-0.06819 -0.691521,-0.07574 -0.859335,0.09207 -0.07728,0.07728 -0.08478,0.17745 -0.122762,0.276215 -0.02797,0.07272 -0.06743,0.140921 -0.09207,0.214833 -0.117962,0.353887 -0.224067,1.250486 0.184144,1.473146 0.534784,0.291701 0.779702,0.360406 1.319693,0.398977 0.132627,0.0095 0.56561,-0.04676 0.705882,0 0.01787,0.006 0.03069,0.328037 0.03069,0.491049 0,0.398977 0,0.797954 0,1.196931 0,0.222531 0.01481,0.453091 0,0.675192 -0.02418,0.362649 -0.119552,0.718915 -0.184144,1.074168 -0.154942,0.852182 0.04121,0.01756 -0.153452,0.828645 -0.02953,0.123046 -0.05571,0.247083 -0.09207,0.368286 -0.02512,0.08372 -0.07493,0.159815 -0.09207,0.245525 -0.09366,0.468295 -0.01899,0.914734 -0.06138,1.381074 -0.0068,0.07476 -0.08085,0.236577 -0.09207,0.337596 -0.01829,0.164586 0.0089,0.328685 -0.122762,0.460358 -0.01618,0.01618 -0.04235,0.018 -0.06138,0.03069 -0.12512,0.08341 -0.206578,0.218573 -0.368287,0.245525 -0.03027,0.005 -0.0623,-0.0074 -0.09207,0 -0.01404,0.0035 -0.01642,0.02831 -0.03069,0.03069 -0.148298,0.02472 -0.31047,-0.01363 -0.460358,0 -0.139176,0.01265 -0.237616,0.07029 -0.368286,0.09207 -0.03027,0.005 -0.0623,-0.0074 -0.09207,0 -0.126835,0.03171 -0.272629,0.284723 -0.306905,0.398977 -0.06465,0.215492 -0.01278,0.127844 -0.03069,0.306905 -0.01585,0.158478 -0.07083,0.34939 0,0.491049 0.09111,0.182219 0.506888,0.07285 0.644501,0.06138 0.244676,-0.02039 0.491302,0.01115 0.736573,0 0.05211,-0.0024 0.101608,-0.02493 0.153453,-0.03069 0.04067,-0.0045 0.08264,0.008 0.122762,0 0.01419,-0.0028 0.01697,-0.02612 0.03069,-0.03069 0.140389,-0.0468 -0.0318,0.08046 0.153452,-0.03069 0.198946,-0.119367 -0.09678,0.0034 0.122762,-0.153453 0.07113,-0.0508 0.183719,-0.03026 0.245525,-0.09207 0.01447,-0.01447 -0.01637,-0.04911 0,-0.06138 0.03374,-0.02531 0.08399,-0.01407 0.122762,-0.03069 0.04621,-0.0198 0.09933,-0.07854 0.153453,-0.09207 0.08563,-0.02141 0.483819,-0.02058 0.552429,0 0.06573,0.01972 0.122762,0.06138 0.184143,0.09207 z" />
  <path
     style="fill:none;stroke:#ff9500;stroke-width:1.079;stroke-opacity:1"
     d="m 18.751918,20.59335 c -0.161231,-0.153294 -0.271586,-0.359226 -0.309937,-0.57837 -0.03835,-0.219143 -0.0045,-0.450314 0.0951,-0.649251 0.04963,-0.09914 0.1147,-0.189789 0.184144,-0.276215 0.161003,-0.200375 0.348211,-0.381321 0.563734,-0.521399 0.215524,-0.140078 0.460117,-0.238555 0.715199,-0.270258 0.255083,-0.0317 0.520643,0.0052 0.750496,0.120276 0.229853,0.115064 0.421637,0.310274 0.517885,0.548619 0.06396,0.158393 0.08524,0.330683 0.09466,0.501243 0.0094,0.17056 0.0076,0.341955 0.0281,0.511545 0.0138,0.114334 0.03769,0.22767 0.04218,0.342746 0.0045,0.115076 -0.012,0.234685 -0.07287,0.332445 -0.05317,0.08539 -0.136282,0.148034 -0.223604,0.197959 -0.08732,0.04993 -0.180487,0.08908 -0.267445,0.139637 -0.138522,0.08053 -0.260712,0.189614 -0.407648,0.25352 -0.07347,0.03195 -0.15323,0.05209 -0.233269,0.0486 -0.08004,-0.0035 -0.16041,-0.03203 -0.218418,-0.08728 -0.02097,-0.01997 -0.03887,-0.04316 -0.06138,-0.06138 -0.0357,-0.02889 -0.0805,-0.04341 -0.122762,-0.06138 -0.103143,-0.04384 -0.194816,-0.110373 -0.293254,-0.163952 -0.09844,-0.05358 -0.209289,-0.09499 -0.320557,-0.08157 -0.110861,0.01337 -0.208766,0.07933 -0.317912,0.10291 -0.05457,0.01179 -0.113182,0.01237 -0.164592,-0.0094 -0.02571,-0.01089 -0.04923,-0.02732 -0.06718,-0.0487 -0.01795,-0.02138 -0.03018,-0.04777 -0.03344,-0.0755 -0.0012,-0.01018 -0.0012,-0.02051 0,-0.03069"
     id="path2"
     inkscape:path-effect="#path-effect2"
     inkscape:original-d="m 18.751918,20.59335 c -0.110741,-0.281485 -0.304991,-0.927095 -0.214834,-1.227621 0.0318,-0.10599 0.110931,-0.193241 0.184144,-0.276215 0.554052,-0.627925 2.007076,-0.903107 2.547314,-0.122762 0.194712,0.281251 0.122762,0.692132 0.122762,1.012788 0,0.188241 0.05951,0.494795 -0.03069,0.675191 -0.06508,0.130153 -0.361945,0.282266 -0.491049,0.337596 -0.165941,0.07112 -0.664218,0.292881 -0.859335,0.214834 -0.02687,-0.01075 -0.0373,-0.04533 -0.06138,-0.06138 -0.03807,-0.02538 -0.08095,-0.0428 -0.122762,-0.06138 -0.202373,-0.08994 -0.412114,-0.164846 -0.613811,-0.245524 -0.107095,-0.04284 -0.558021,-0.0056 -0.58312,-0.03069 -0.0072,-0.0072 0,-0.02046 0,-0.03069" />
  <path
     style="fill:none;stroke:#ff9500;stroke-width:1.079;stroke-opacity:1"
     d="m 18.905371,16.726343 c -0.05224,-0.158644 -0.0833,-0.324254 -0.09207,-0.491049 -0.0054,-0.102187 -0.0024,-0.204605 0,-0.306905 0.0052,-0.21816 0.0081,-0.437312 0.04354,-0.652636 0.03544,-0.215324 0.105128,-0.428612 0.232678,-0.605676 0.162052,-0.22496 0.410147,-0.379 0.675192,-0.460358 0.178628,-0.05483 0.371801,-0.07852 0.55243,-0.03069 0.133631,0.03538 0.256793,0.109958 0.349246,0.212727 0.09245,0.102769 0.153723,0.233437 0.172493,0.370393 0.0251,0.183148 -0.02437,0.367678 -0.03069,0.55243 -0.0041,0.11988 0.01,0.240317 -0.0023,0.359635 -0.0062,0.05966 -0.01904,0.119024 -0.04329,0.173876 -0.02426,0.05485 -0.06027,0.105158 -0.107843,0.141681 -0.02927,0.02247 -0.06241,0.03944 -0.09207,0.06138 -0.08161,0.06036 -0.132811,0.155033 -0.214834,0.214834 -0.06177,0.04503 -0.136925,0.06729 -0.211142,0.08561 -0.07422,0.01832 -0.150076,0.03381 -0.218525,0.06784 -0.03312,0.01647 -0.06413,0.03715 -0.09207,0.06138 -0.103064,-0.0041 -0.206701,0.0062 -0.306905,0.03069 -0.210681,0.05144 -0.408069,0.146253 -0.613811,0.214834 z"
     id="path3"
     inkscape:path-effect="#path-effect3"
     inkscape:original-d="m 18.905371,16.726343 c 0.02044,-0.17278 -0.07368,-0.325532 -0.09207,-0.491049 -0.0113,-0.101676 0.0041,-0.204685 0,-0.306905 -0.02178,-0.544451 -0.07115,-0.82411 0.276215,-1.258312 0.187277,-0.234097 0.382864,-0.380632 0.675192,-0.460358 0.112597,-0.03071 0.450667,-0.06461 0.55243,-0.03069 0.101029,0.03368 0.50053,0.484144 0.521739,0.58312 0.03162,0.147545 -0.0128,0.400371 -0.03069,0.55243 -0.02209,0.187736 -0.0014,0.523107 -0.153453,0.675192 -0.02608,0.02608 -0.06465,0.03671 -0.09207,0.06138 -0.07528,0.06775 -0.137033,0.15 -0.214834,0.214834 -0.145682,0.121402 -0.266287,0.09219 -0.429667,0.153452 -0.03454,0.01295 -0.05629,0.05244 -0.09207,0.06138 -0.165685,0 -0.144017,-0.01003 -0.306905,0.03069 -0.215764,0.05394 -0.40411,0.130953 -0.613811,0.214834 z" />
  <path
     style="fill:none;stroke:#1c3c55;stroke-width:1.079;stroke-opacity:1"
     d="M 17.800512,7.1815857 C 17.671778,6.7625125 17.672719,6.30458 17.803173,5.8860392 17.933627,5.4674983 18.19304,5.0901286 18.537084,4.8184143 18.868231,4.556885 19.269455,4.3958506 19.679511,4.2963028 20.089568,4.196755 20.511198,4.1557469 20.930946,4.112532 c 0.428691,-0.044136 0.858048,-0.090909 1.289003,-0.092072 0.458269,-0.00124 0.916407,0.04913 1.374148,0.027092 0.457741,-0.022038 0.926958,-0.1235837 1.295929,-0.3953784 0.345007,-0.2541421 0.572592,-0.6329779 0.859335,-0.9514066 0.349857,-0.3885172 0.790169,-0.6879338 1.258312,-0.9207161 0.467473,-0.232449 0.96514,-0.4013495 1.473145,-0.5217392 1.420944,-0.3367425 2.904444,-0.29305243 4.358057,-0.1534527 0.291671,0.028011 0.585289,0.060273 0.864621,0.1487627 0.279331,0.08849 0.546432,0.237704 0.731287,0.4650481 0.130746,0.1607987 0.215473,0.3538861 0.284861,0.5491708 0.06939,0.1952848 0.125139,0.3956381 0.206187,0.586379 0.117579,0.2767157 0.286143,0.5281145 0.444398,0.7837547 0.158254,0.2556402 0.308721,0.5211339 0.384247,0.8121533 0.07662,0.2952425 0.07278,0.608592 0.0084,0.9067375 -0.06441,0.2981454 -0.188156,0.5816002 -0.345972,0.8426231 -0.413374,0.683706 -1.045386,1.2010363 -1.595908,1.7800511 -0.16534,0.1738978 -0.324396,0.3547122 -0.460358,0.5524297 -0.33703,0.4901136 -0.52259,1.0713435 -0.618279,1.6584081 -0.09569,0.587064 -0.105602,1.184256 -0.118294,1.778932 -0.0085,0.398968 -0.01837,0.798296 0,1.196931 0.02508,0.544113 0.102618,1.084286 0.153453,1.626599 0.112032,1.195185 0.09376,2.40484 -0.09207,3.590793 -0.111514,0.711685 -0.282747,1.41242 -0.429668,2.117647 -0.159044,0.763421 -0.290729,1.536512 -0.552429,2.2711 -0.180004,0.505268 -0.42045,0.988335 -0.705883,1.442455 -0.09527,0.15158 -0.195796,0.3004 -0.276214,0.460358 -0.08452,0.168111 -0.145894,0.346663 -0.214834,0.521739 -0.163288,0.414676 -0.371409,0.814047 -0.644501,1.16624 -0.220985,0.284994 -0.481989,0.536162 -0.719768,0.807302 -0.237779,0.271139 -0.455896,0.569008 -0.569235,0.911368 -0.120708,0.364618 -0.115844,0.757593 -0.184143,1.13555 -0.06179,0.341956 -0.183431,0.670887 -0.245524,1.012788 -0.1104,0.607892 -0.03029,1.243059 -0.184144,1.841432 -0.0266,0.103456 -0.06003,0.205004 -0.09207,0.306906 -0.04694,0.14928 -0.09109,0.300144 -0.113041,0.455082 -0.02195,0.154939 -0.02113,0.314919 0.02097,0.465634 0.04185,0.149816 0.124036,0.290361 0.132742,0.445669 0.0044,0.07765 -0.01134,0.158426 -0.05624,0.221932 -0.02245,0.03175 -0.05199,0.05871 -0.0865,0.07663 -0.03451,0.01792 -0.07403,0.02659 -0.11276,0.02303 -0.03465,-0.0032 -0.06789,-0.01592 -0.09829,-0.03286 -0.0304,-0.01694 -0.05824,-0.03804 -0.08586,-0.05921 -0.39822,-0.305204 -0.773985,-0.638575 -1.166241,-0.951407 -0.159993,-0.127598 -0.322783,-0.251816 -0.491048,-0.368287 -0.212309,-0.146958 -0.433092,-0.281418 -0.644502,-0.429667 -0.209414,-0.146849 -0.409182,-0.30691 -0.61381,-0.460358 -0.601285,-0.450896 -1.260851,-0.851404 -1.994885,-1.012788 -0.222037,-0.04882 -0.448481,-0.07517 -0.675192,-0.09207 -0.377696,-0.02815 -0.756806,-0.03024 -1.13555,-0.03069 -0.931073,-0.0011 -1.862553,0.0076 -2.792839,-0.03069 -1.143633,-0.04709 -2.286098,-0.165571 -3.406649,-0.398977 -0.419118,-0.0873 -0.837686,-0.191563 -1.227622,-0.368286 C 13.086062,29.72532 12.864786,29.594352 12.644506,29.46292 12.159297,29.173417 11.676173,28.880219 11.202051,28.572894 10.687242,28.239195 10.178849,27.88523 9.7595908,27.43734 8.9606785,26.583868 8.5410203,25.455053 7.9795396,24.429668 7.3910565,23.354971 6.6249295,22.355518 6.2915601,21.176471 6.2172755,20.913744 6.1656026,20.645271 6.1074169,20.378517 6.0449807,20.092276 5.9749404,19.807562 5.9232737,19.519182 5.8341926,19.021972 5.8002219,18.516764 5.7391304,18.015345 5.6308585,17.126684 5.4375344,16.250916 5.2480818,15.375959 5.1886135,15.101314 5.1294256,14.826162 5.0946292,14.547315 5.0312119,14.03911 5.0494741,13.52473 5.0639382,13.012788 c 0.015895,-0.562578 0.027067,-1.125829 0,-1.68798 C 5.0471805,10.976774 5.0157797,10.629516 5.0025575,10.28133 4.9912918,9.9846654 4.9932259,9.6874134 4.971867,9.3913043 4.9492676,9.0779976 4.8998898,8.7640002 4.7877238,8.4705882 4.7368157,8.337419 4.6731095,8.2087873 4.6342711,8.0716113 4.5888799,7.911291 4.57855,7.7431714 4.5421995,7.5805627 4.5047699,7.4131269 4.4401582,7.2531986 4.3887468,7.0895141 4.2473612,6.6393678 4.2065516,6.1634882 4.0818414,5.7084399 4.0121771,5.4542455 3.9159019,5.2041148 3.8976982,4.9411765 c -0.00848,-0.1225075 2.328e-4,-0.245486 0,-0.3682865 -2.328e-4,-0.1228107 -0.00941,-0.2458367 0,-0.3682864 0.027,-0.3512667 0.203239,-0.6708471 0.3682865,-0.9820972 C 4.367265,3.0315099 4.4667737,2.8374721 4.6035806,2.6700767 4.8079406,2.4200241 5.0882884,2.2398883 5.3870374,2.1172573 5.6857864,1.9946263 6.0039231,1.9265006 6.3222506,1.8721228 7.3369698,1.6987848 8.3694974,1.659474 9.3913043,1.5345269 9.8613179,1.4770534 10.32999,1.4013706 10.803069,1.3810742 c 0.214938,-0.00922 0.430673,-0.007 0.644501,-0.030691 0.339641,-0.037627 0.671323,-0.1402784 1.012788,-0.1534527 0.112459,-0.00434 0.225059,0.00109 0.337596,0 0.430813,-0.00418 0.864384,-0.1036037 1.289003,-0.03069 0.133374,0.022903 0.263252,0.062511 0.39532,0.09203 0.132068,0.029519 0.268541,0.048969 0.402633,0.030732 0.07284,-0.00991 0.143942,-0.030804 0.217021,-0.038728 0.03654,-0.00396 0.07362,-0.00464 0.109942,9.648e-4 0.03632,0.0056 0.07194,0.017646 0.102705,0.037763 0.02988,0.019543 0.05451,0.046168 0.08372,0.06671 0.0146,0.010271 0.03045,0.019039 0.04758,0.024053 0.01713,0.00501 0.03566,0.00613 0.05285,0.00131 0.01668,-0.00468 0.03159,-0.014739 0.04851,-0.018456 0.0085,-0.00186 0.01748,-0.00204 0.02563,9.02e-4 0.0041,0.00147 0.0079,0.00371 0.01103,0.0067 0.0031,0.00299 0.0056,0.00672 0.0069,0.010855 0.0016,0.00491 0.0015,0.010174 0.001,0.0153 -4.41e-4,0.00513 -0.0012,0.010248 -0.001,0.01539 3.8e-4,0.00999 0.0045,0.019653 0.01081,0.027446 0.0063,0.00779 0.01457,0.013797 0.02353,0.018231 0.01793,0.00887 0.03816,0.011551 0.05773,0.015704 0.0317,0.00673 0.06243,0.017585 0.09207,0.03069 0.127808,0.056508 0.23288,0.1529894 0.337596,0.2455243 0.07068,0.062458 0.142301,0.1238479 0.214834,0.1841432"
     id="path4"
     inkscape:path-effect="#path-effect4"
     inkscape:original-d="m 17.800512,7.1815857 c -0.01139,-0.7462236 0.128645,-1.8525128 0.736572,-2.3631714 0.647695,-0.5440633 1.596989,-0.6241517 2.393862,-0.7058823 0.428515,-0.04395 0.85895,-0.067356 1.289003,-0.092072 1.150119,-0.066099 1.577079,0.031078 2.670077,-0.3682865 0.263773,-0.096379 0.665769,-0.7494251 0.859335,-0.9514066 0.38328,-0.3999447 0.747049,-0.6454207 1.258312,-0.9207161 0.355344,-0.1913395 1.074794,-0.4381345 1.473145,-0.5217392 1.815895,-0.38111361 2.516139,-0.42300154 4.358057,-0.1534527 0.326411,0.047768 1.36623,0.2922615 1.595908,0.6138108 0.38674,0.5414361 0.21992,0.6133773 0.491048,1.1355498 0.04262,0.082085 0.800077,1.2316758 0.828645,1.595908 0.05514,0.7030768 -0.014,1.1584482 -0.337596,1.7493606 -0.391949,0.7157318 -1.054397,1.1907594 -1.595908,1.7800511 -0.162188,0.1764983 -0.353161,0.3380348 -0.460358,0.5524297 -0.633582,1.2671644 -0.68891,2.0789541 -0.736573,3.4373401 -0.01399,0.398732 -0.0239,0.798671 0,1.196931 0.158552,2.64253 0.03522,-0.935094 0.153453,1.626599 0.05591,1.211409 0.03769,2.379704 -0.09207,3.590793 -0.0384,0.358362 -0.399737,1.965502 -0.429668,2.117647 -0.150928,0.767221 -0.241525,1.542419 -0.552429,2.2711 -0.210074,0.49236 -0.460369,0.966773 -0.705883,1.442455 -0.08208,0.159023 -0.196183,0.300296 -0.276214,0.460358 -0.08411,0.168223 -0.136638,0.350685 -0.214834,0.521739 -0.141714,0.309998 -0.449846,0.904204 -0.644501,1.16624 -0.482302,0.649253 -1.097283,0.855933 -1.289003,1.71867 -0.08318,0.37433 -0.118747,0.757707 -0.184143,1.13555 -0.05988,0.345948 -0.185848,0.669646 -0.245524,1.012788 -0.106238,0.610865 -0.111964,1.227906 -0.184144,1.841432 -0.07569,0.643412 0.0248,-0.355382 -0.09207,0.306906 -0.0536,0.303742 -0.06415,0.613546 -0.09207,0.920716 -0.0099,0.108378 0.01204,0.632463 -0.122762,0.767263 -0.04853,0.04853 -0.133717,-0.04552 -0.184143,-0.09207 -1.246494,-1.15061 -0.143545,-0.248304 -1.166241,-0.951407 -0.168602,-0.115914 -0.323643,-0.250651 -0.491048,-0.368287 -0.211256,-0.148449 -0.433705,-0.280567 -0.644502,-0.429667 -0.208802,-0.147689 -0.401829,-0.31727 -0.61381,-0.460358 -0.589756,-0.398086 -1.319473,-0.777862 -1.994885,-1.012788 -0.210971,-0.07338 -0.458587,-0.0781 -0.675192,-0.09207 -0.642823,-0.04147 -0.477275,-0.03069 -1.13555,-0.03069 -0.931908,0 -1.861582,-0.01376 -2.792839,-0.03069 -1.22199,-0.02222 -2.221551,-0.0964 -3.406649,-0.398977 -0.228061,-0.05823 -0.981729,-0.257634 -1.227622,-0.368286 C 13.085911,29.726002 12.86769,29.589067 12.644506,29.46292 12.098987,29.154583 11.717406,28.928735 11.202051,28.572894 10.708897,28.232383 10.177622,27.871449 9.7595908,27.43734 8.8894213,26.533703 8.5642923,25.47274 7.9795396,24.429668 7.3843268,23.367937 6.6804233,22.34306 6.2915601,21.176471 6.2052378,20.917504 6.1666335,20.644992 6.1074169,20.378517 6.0438676,20.092545 5.971434,19.808143 5.9232737,19.519182 5.8402484,19.02103 5.8205057,18.513769 5.7391304,18.015345 5.5949348,17.132147 5.4099452,16.256091 5.2480818,15.375959 5.1972721,15.099681 5.1262286,14.826443 5.0946292,14.547315 c -0.040127,-0.354454 -0.030691,-1.167159 -0.030691,-1.534527 0,-0.56266 0.021625,-1.125736 0,-1.68798 C 5.0505475,10.976638 5.0167672,10.629467 5.0025575,10.28133 4.9840397,9.8276424 5.030818,9.8334365 4.971867,9.3913043 4.9605433,9.3063762 4.8199269,8.5792738 4.7877238,8.4705882 4.7472441,8.3339692 4.6721633,8.2089705 4.6342711,8.0716113 4.5899845,7.9110725 4.5825902,7.7421256 4.5421995,7.5805627 4.5006073,7.4141938 4.4351767,7.2545982 4.3887468,7.0895141 4.2459498,6.5817915 4.2042041,6.26587 4.0818414,5.7084399 4.0565731,5.5933288 3.9104636,5.0475545 3.8976982,4.9411765 c -0.014626,-0.1218877 0,-0.2455243 0,-0.3682865 0,-0.1227621 -0.015878,-0.2465554 0,-0.3682864 C 3.9437799,3.8513109 4.1043128,3.5311526 4.2659847,3.2225064 4.3814867,3.0020025 4.425676,2.8479813 4.6035806,2.6700767 5.0649875,2.2086698 5.7096658,2.025269 6.3222506,1.8721228 7.3269816,1.62094 8.3652485,1.6264124 9.3913043,1.5345269 9.8627776,1.4923054 10.331596,1.4232957 10.803069,1.3810742 c 0.21422,-0.019184 0.43074,-0.00694 0.644501,-0.030691 0.339361,-0.037707 0.673523,-0.1148998 1.012788,-0.1534527 0.111812,-0.012706 0.225126,0.00375 0.337596,0 0.424273,-0.014142 0.862806,-0.059104 1.289003,-0.03069 0.271063,0.018071 0.531123,0.087185 0.797953,0.1227622 0.138241,0.018432 0.292804,-0.027373 0.429668,0 0.06492,0.012984 0.119221,0.079087 0.184143,0.092072 0.0301,0.00602 0.06296,-0.00971 0.09207,0 0.0097,0.00323 -0.0072,0.023457 0,0.03069 0.02608,0.026082 0.05908,0.044885 0.09207,0.061381 0.02894,0.014468 0.06398,0.01464 0.09207,0.03069 0.11779,0.067308 0.225855,0.1896539 0.337596,0.2455243 0.07772,0.038862 0.122072,0.1841432 0.214834,0.1841432" />
</svg>
