<?xml version="1.0" encoding="UTF-8" standalone="no"?>
<svg
   width="29px"
   height="36px"
   viewBox="0 0 29 36"
   version="1.1"
   id="svg4"
   sodipodi:docname="ico_documentation.svg"
   inkscape:version="1.3.2 (091e20e, 2023-11-25, custom)"
   xmlns:inkscape="http://www.inkscape.org/namespaces/inkscape"
   xmlns:sodipodi="http://sodipodi.sourceforge.net/DTD/sodipodi-0.dtd"
   xmlns="http://www.w3.org/2000/svg"
   xmlns:svg="http://www.w3.org/2000/svg">
  <sodipodi:namedview
     id="namedview4"
     pagecolor="#ffffff"
     bordercolor="#000000"
     borderopacity="0.25"
     inkscape:showpageshadow="2"
     inkscape:pageopacity="0.0"
     inkscape:pagecheckerboard="0"
     inkscape:deskcolor="#d1d1d1"
     inkscape:zoom="32.583333"
     inkscape:cx="14.485934"
     inkscape:cy="18"
     inkscape:window-width="2560"
     inkscape:window-height="1369"
     inkscape:window-x="-8"
     inkscape:window-y="-8"
     inkscape:window-maximized="1"
     inkscape:current-layer="svg4" />
  <!-- Generator: Sketch 49 (51002) - http://www.bohemiancoding.com/sketch -->
  <title
     id="title1">Group</title>
  <desc
     id="desc1">Created with Sketch.</desc>
  <defs
     id="defs1">
    <inkscape:path-effect
       effect="spiro"
       id="path-effect13"
       is_visible="true"
       lpeversion="1" />
    <inkscape:path-effect
       effect="spiro"
       id="path-effect12"
       is_visible="true"
       lpeversion="1" />
    <inkscape:path-effect
       effect="spiro"
       id="path-effect11"
       is_visible="true"
       lpeversion="1" />
    <inkscape:path-effect
       effect="spiro"
       id="path-effect10"
       is_visible="true"
       lpeversion="1" />
    <inkscape:path-effect
       effect="spiro"
       id="path-effect9"
       is_visible="true"
       lpeversion="1" />
    <inkscape:path-effect
       effect="spiro"
       id="path-effect8"
       is_visible="true"
       lpeversion="1" />
    <inkscape:path-effect
       effect="spiro"
       id="path-effect7"
       is_visible="true"
       lpeversion="1" />
    <inkscape:path-effect
       effect="spiro"
       id="path-effect6"
       is_visible="true"
       lpeversion="1" />
    <inkscape:path-effect
       effect="spiro"
       id="path-effect5"
       is_visible="true"
       lpeversion="1" />
  </defs>
  <path
     style="fill:none;stroke:#1c3c55;stroke-width:1.179"
     d="m 12.920716,34.404092 c 0.0358,-0.04306 0.0576,-0.09758 0.06138,-0.153453 0.0048,-0.07032 -0.01915,-0.141451 -0.06215,-0.197288 -0.043,-0.05584 -0.104304,-0.09655 -0.171227,-0.118654 -0.06692,-0.0221 -0.139225,-0.02603 -0.208929,-0.01562 -0.0697,0.01041 -0.136895,0.03488 -0.199171,0.06788 -0.124552,0.066 -0.228292,0.164626 -0.328454,0.263803 -0.100163,0.09918 -0.199688,0.201149 -0.319067,0.276096 -0.216941,0.136197 -0.483006,0.172327 -0.739045,0.164787 -0.25604,-0.0075 -0.509238,-0.05524 -0.764792,-0.07272 -0.383894,-0.02625 -0.7686607,0.01587 -1.1524604,0.04346 -0.3837997,0.0276 -0.7737591,0.04027 -1.1493296,-0.04346 -0.2333057,-0.05201 -0.4566383,-0.140281 -0.6828585,-0.217491 -0.2262202,-0.07721 -0.4592759,-0.144106 -0.6982156,-0.150796 -0.1227569,-0.0034 -0.245818,0.0091 -0.3682865,0 -0.1141848,-0.0085 -0.2260416,-0.03558 -0.3375959,-0.06138 -0.2166209,-0.0501 -0.4361047,-0.09617 -0.6391792,-0.186701 -0.2030745,-0.09053 -0.3916736,-0.230964 -0.4963707,-0.427109 -0.068796,-0.128886 -0.098288,-0.275726 -0.106451,-0.421596 -0.00816,-0.14587 0.00414,-0.292 0.014379,-0.437739 0.033078,-0.470607 0.044592,-0.946042 -0.030691,-1.411765 -0.09332,-0.577305 -0.3189903,-1.134167 -0.3375959,-1.71867 -0.014319,-0.449844 0.095497,-0.895362 0.2455243,-1.319693 0.1338088,-0.37846 0.300409,-0.746421 0.398977,-1.13555 C 5.093271,26.166503 4.903932,25.149374 4.6649597,24.184142 4.4750796,23.417198 4.2540931,22.657616 3.9897679,21.913042 3.8607775,21.549691 3.7208312,21.18759 3.6521739,20.808184 3.6008571,20.524603 3.5901616,20.235463 3.5601019,19.948849 3.512709,19.496965 3.4171123,19.05096 3.3759587,18.598465 3.2620539,17.346049 3.5671546,16.099273 3.7442451,14.85422 3.8316745,14.239538 3.8883107,13.61943 4.02046,13.012788 4.0764438,12.75579 4.1458421,12.501901 4.2046032,12.245524 4.3775196,11.491083 4.4576682,10.717391 4.480818,9.943734 4.5092802,8.992537 4.452173,8.0392851 4.511509,7.0895141 4.5556499,6.3829665 4.6637793,5.6692738 4.542199,4.971867 4.5173199,4.8291561 4.4828035,4.6870491 4.480818,4.5421995 c -5.017e-4,-0.036599 0.00108,-0.073279 -0.00191,-0.1097597 -0.00299,-0.03648 -0.010791,-0.073199 -0.028783,-0.1050741 -0.00825,-0.014619 -0.018565,-0.028083 -0.025683,-0.043287 -0.00356,-0.0076 -0.0063,-0.015644 -0.0074,-0.023965 -0.0011,-0.00832 -5.137e-4,-0.016945 0.00239,-0.024819 0.00397,-0.010742 0.012141,-0.019657 0.021924,-0.025609 0.00978,-0.00595 0.021099,-0.00908 0.032489,-0.01026 0.02278,-0.00236 0.045568,0.00283 0.068349,0.00518 0.047349,0.00489 0.095267,-0.0025 0.1411837,-0.015052 0.045917,-0.01255 0.090248,-0.030197 0.1350324,-0.046329 0.5348243,-0.1926456 1.1196551,-0.1659652 1.6879796,-0.1534527 1.443062,0.031771 2.8861264,-0.043608 4.3273661,-0.1227621 0.46014,-0.025271 0.920359,-0.050934 1.381074,-0.061381 0.419487,-0.00951 0.839421,-0.00641 1.258312,-0.03069 0.389318,-0.022564 0.776967,-0.068735 1.16624,-0.092072 0.357589,-0.021438 0.716009,-0.023576 1.074169,-0.030691 0.920955,-0.018294 1.843636,-0.069482 2.762148,0 0.545539,0.041268 1.086937,0.1249421 1.626599,0.2148338 0.101593,0.016922 0.20397,0.034126 0.306905,0.03069 0.01716,-5.73e-4 0.03457,-0.0017 0.05133,0.00205 0.0084,0.00187 0.01654,0.00498 0.02369,0.00974 0.0071,0.00475 0.01327,0.011201 0.01705,0.018906 0.0046,0.00935 0.0056,0.020118 0.0049,0.030516 -7.2e-4,0.010398 -0.0031,0.020601 -0.0049,0.030865 -0.01423,0.080755 0.0054,0.1637006 0,0.2455243 -0.0079,0.1203665 -0.06863,0.2297971 -0.122762,0.3375959 -0.181782,0.3620245 -0.302068,0.7510704 -0.429668,1.1355499 -0.336767,1.0147325 -0.731398,2.0167929 -0.920716,3.0690537 -0.05836,0.3243535 -0.09669,0.6592122 -0.03069,0.9820972 0.04632,0.2265946 0.143419,0.4441305 0.153453,0.6751925 0.0022,0.05111 1.19e-4,0.102295 0,0.153452 -4.33e-4,0.185584 0.02522,0.370402 0.06138,0.55243 0.02229,0.112226 0.04863,0.22389 0.06138,0.337596 0.0275,0.245356 -0.0089,0.492686 -0.03392,0.738306 -0.02504,0.24562 -0.03808,0.498678 0.03392,0.73484 0.01233,0.04044 0.02719,0.08063 0.03069,0.122762 0.0025,0.0306 -0.001,0.06138 0,0.09207 0.002,0.05927 0.02122,0.117555 0.05293,0.167665 0.03171,0.05011 0.07564,0.09211 0.125849,0.123664 0.10042,0.06311 0.223471,0.08342 0.341768,0.07487 0.236593,-0.0171 0.450341,-0.140817 0.676383,-0.212746 0.470938,-0.149859 0.979045,-0.07163 1.473146,-0.06138 1.261866,0.02619 2.487978,-0.400152 3.744245,-0.521739 0.238546,-0.02309 0.482439,-0.0361 0.705882,-0.122762 0.04966,-0.01926 0.09809,-0.0421 0.149355,-0.05657 0.05126,-0.01447 0.106564,-0.02022 0.157551,-0.0048 0.04603,0.01391 0.08596,0.04452 0.115866,0.08217 0.0299,0.03765 0.0503,0.08212 0.06486,0.127948 0.02912,0.09165 0.0357,0.189273 0.0648,0.280931 0.04457,0.140383 0.139214,0.258948 0.238478,0.36776 0.09926,0.108812 0.206058,0.212691 0.283261,0.338123 0.08181,0.132918 0.126968,0.284439 0.184143,0.429667 0.04872,0.123758 0.106593,0.243812 0.153453,0.368287 0.197191,0.523803 0.191096,1.098101 0.214834,1.657289 0.02694,0.634559 0.09549,1.267692 0.09207,1.902813 -9.39e-4,0.174334 -0.0073,0.348974 -0.03069,0.521739 -0.08128,0.601251 -0.362718,1.153398 -0.58312,1.71867 -0.142249,0.36483 -0.260063,0.738746 -0.398977,1.104859 -0.09993,0.26338 -0.211149,0.52387 -0.276215,0.797954 -0.04548,0.191566 -0.06789,0.387721 -0.09207,0.583121 -0.0974,0.787236 -0.224913,1.571593 -0.276214,2.363171 -0.0675,1.04159 -0.0025,2.086662 0,3.130435 0.001,0.429677 -0.0085,0.859408 0,1.289002 0.0075,0.379062 0.0291,0.75779 0.06138,1.13555 0.02793,0.32686 0.06388,0.655729 0.03069,0.982097 -0.02196,0.215957 -0.07401,0.428183 -0.09207,0.644502 -0.01939,0.232191 6.36e-4,0.465682 -5.6e-5,0.69868 -6.93e-4,0.232998 -0.02362,0.471512 -0.122707,0.682394 -0.08992,0.191376 -0.240256,0.35522 -0.294379,0.559622 -0.02706,0.102202 -0.02752,0.21456 0.01746,0.310241 0.02249,0.04784 0.05615,0.09072 0.09885,0.121882 0.0427,0.03116 0.09454,0.05026 0.147381,0.05173 0.02046,5.7e-4 0.04097,-0.0014 0.06138,0 0.03826,0.0027 0.07567,0.01804 0.104184,0.04368 0.02852,0.02564 0.04781,0.06157 0.05249,0.09963 0.0047,0.03807 -0.0055,0.07793 -0.02867,0.108512 -0.02315,0.03058 -0.05915,0.05132 -0.09732,0.05508 -0.0102,0.001 -0.02048,8.42e-4 -0.03069,0 -0.05332,-0.0044 -0.103624,-0.02726 -0.148539,-0.05632 -0.04491,-0.02906 -0.08536,-0.0644 -0.127676,-0.09713 -0.299486,-0.23171 -0.679441,-0.325465 -1.043478,-0.429668 -0.905273,-0.259128 -1.779256,-0.615586 -2.670077,-0.920716 -0.590239,-0.202173 -1.191695,-0.38266 -1.810742,-0.460358 -0.305305,-0.03832 -0.613177,-0.05141 -0.920716,-0.06138 -0.371199,-0.01203 -0.750321,-0.01855 -1.104859,0.09207 -0.127096,0.03965 -0.249213,0.09389 -0.368287,0.153452 -0.312156,0.156133 -0.611183,0.351777 -0.951406,0.429668 -0.264754,0.06061 -0.547684,0.04794 -0.797954,0.153452 -0.126563,0.05336 -0.23993,0.135255 -0.368287,0.184144 -0.06047,0.02303 -0.123621,0.03847 -0.184143,0.06138 -0.146133,0.05531 -0.276392,0.153799 -0.429667,0.184143 -0.0611,0.0121 -0.124434,0.01296 -0.184144,0.03069 -0.05284,0.01569 -0.101104,0.0441 -0.153452,0.06138 -0.07339,0.02422 -0.152365,0.02577 -0.229451,0.02029 -0.07709,-0.0055 -0.153669,-0.01773 -0.230907,-0.02029 -0.227427,-0.0075 -0.448833,0.0688 -0.675192,0.09207 -0.275381,0.02831 -0.556893,-0.0221 -0.828645,0.03069 -0.03075,0.006 -0.06137,0.01327 -0.09262,0.01541 -0.03125,0.0021 -0.06363,-0.0012 -0.09152,-0.01541 -0.02678,-0.01366 -0.04834,-0.03728 -0.05951,-0.0652 -0.01117,-0.02792 -0.01184,-0.05989 -0.0019,-0.08825 z"
     id="path5"
     inkscape:path-effect="#path-effect5"
     inkscape:original-d="m 12.920716,34.404092 c -0.300261,0.06837 0.115584,-0.163308 0.06138,-0.153453 -0.434332,0.07897 -0.848068,0.219685 -1.289002,0.276215 -0.565293,0.07247 -0.920444,0.07006 -1.503837,0.09207 -0.765625,0.02889 -1.5364322,0.06378 -2.30179,0 -0.3924571,-0.0327 -1.1846857,-0.325593 -1.3810741,-0.368287 -0.1199603,-0.02608 -0.2459858,0.01064 -0.3682865,0 -0.1139469,-0.0099 -0.2243686,-0.04521 -0.3375959,-0.06138 -0.557839,-0.07969 -0.8109429,-0.08632 -1.1355499,-0.61381 -0.1561104,-0.25368 -0.092072,-0.573695 -0.092072,-0.859335 0,-0.362011 0.00859,-1.071364 -0.030691,-1.411765 C 4.4519016,30.521783 4.3180502,30.379816 4.2046017,29.585677 4.1379507,29.119119 4.2874687,28.691395 4.450126,28.265984 4.5569107,27.986701 4.7931529,27.424172 4.849103,27.130434 5.0262276,26.20053 4.900598,25.091348 4.6649597,24.184142 4.4763857,23.458132 4.2286105,22.647943 3.9897679,21.913042 3.9059449,21.655121 3.6992979,21.079147 3.6521739,20.808184 3.6028129,20.52436 3.5944259,20.234881 3.5601019,19.948849 3.5059749,19.497791 3.4075767,19.051658 3.3759587,18.598465 3.2884607,17.344334 3.5349282,16.083957 3.7442451,14.85422 3.8484124,14.242237 3.8986224,13.621976 4.02046,13.012788 4.072042,12.754878 4.1501695,12.502847 4.2046032,12.245524 4.3666449,11.479509 4.4612635,10.725916 4.480818,9.943734 4.504611,8.9919926 4.488308,8.0405703 4.511509,7.0895141 4.528749,6.3826727 4.542199,5.6790994 4.542199,4.971867 4.542199,4.440885 4.56808,4.978507 4.480818,4.5421995 4.429811,4.2871629 4.534083,4.5372595 4.450127,4.3273657 4.438112,4.2973287 4.396561,4.2581697 4.419436,4.2352937 4.449262,4.2054677 4.501277,4.2148337 4.5421982,4.2046037 4.633701,4.1817282 4.7253001,4.1582409 4.8184143,4.1432225 5.475556,4.0372319 5.7927269,4.017575 6.5063939,3.9897698 7.9481527,3.9335974 9.3916797,3.912547 10.83376,3.8670077 c 0.460583,-0.014545 0.920541,-0.045316 1.381074,-0.061381 0.419307,-0.014627 0.839286,-0.00947 1.258312,-0.03069 0.389457,-0.019719 0.776868,-0.070736 1.16624,-0.092072 0.357666,-0.019598 0.716238,-0.016745 1.074169,-0.030691 0.911382,-0.035508 1.853147,-0.1420315 2.762148,0 0.542099,0.084703 1.08086,0.1541961 1.626599,0.2148338 0.102183,0.011354 0.205289,0.015057 0.306905,0.03069 0.03198,0.00492 0.0692,0.00782 0.09207,0.030691 0.01447,0.014468 0,0.040921 0,0.061381 0,0.081841 0.01686,0.1654384 0,0.2455243 -0.02467,0.1171727 -0.08118,0.2253088 -0.122762,0.3375959 -0.140561,0.3795132 -0.289759,0.7557961 -0.429668,1.1355499 -0.363363,0.9862701 -0.803456,2.0137112 -0.920716,3.0690537 -0.01732,0.1559084 -0.0504,0.8046928 -0.03069,0.9820972 0.02549,0.2293917 0.112166,0.4481115 0.153453,0.6751925 0.0085,0.04694 -0.0045,0.108628 0,0.153452 0.01844,0.184357 0.03635,0.368852 0.06138,0.55243 0.01545,0.113328 0.04827,0.223973 0.06138,0.337596 0.05753,0.498555 0,0.977051 0,1.473146 0,0.217679 -0.0217,0.01798 0.03069,0.122762 0.0068,0.01358 -0.0116,0.08434 0,0.09207 0.328717,0.219145 0.83924,0.163821 1.196931,0.153453 0.491268,-0.01424 0.983151,-0.02327 1.473146,-0.06138 1.252486,-0.09742 2.506647,-0.311977 3.744245,-0.521739 0.235468,-0.03991 0.471147,-0.07875 0.705882,-0.122762 0.102541,-0.01923 0.213592,-0.108038 0.306906,-0.06138 0.06255,0.03127 0.208109,0.430608 0.245524,0.491048 0.154006,0.24878 0.375525,0.452445 0.521739,0.705883 0.07787,0.13497 0.123429,0.286161 0.184143,0.429667 0.05182,0.122482 0.123746,0.238655 0.153453,0.368287 0.244418,1.066551 0.148636,0.840849 0.214834,1.657289 0.05149,0.635077 0.110865,1.263821 0.09207,1.902813 -0.0051,0.174138 -0.0013,0.35003 -0.03069,0.521739 -0.102012,0.595069 -0.363712,1.162835 -0.58312,1.71867 -0.110552,0.280065 -0.295502,0.811679 -0.398977,1.104859 -0.09368,0.265423 -0.217239,0.522733 -0.276215,0.797954 -0.04123,0.192414 -0.0664,0.388021 -0.09207,0.583121 -0.01149,0.08729 -0.236319,1.817928 -0.276214,2.363171 -0.07615,1.040678 -0.02539,2.089384 0,3.130435 0.01048,0.42954 -0.01023,0.859457 0,1.289002 0.0055,0.230631 0.04244,0.870346 0.06138,1.13555 0.023,0.321985 0.05882,0.658576 0.03069,0.982097 -0.01864,0.214375 -0.07858,0.428582 -0.09207,0.644502 -0.02883,0.461333 -0.06859,0.920619 -0.122763,1.381074 -0.02883,0.245085 -0.139538,0.825783 -0.03069,1.043478 0.0091,0.0183 0.05491,-0.01941 0.06138,0 0.0029,0.0088 0.0405,0.297095 0.03069,0.306905 -0.0072,0.0072 -0.02154,0.0046 -0.03069,0 -0.09421,-0.0471 -0.18375,-0.103017 -0.276215,-0.153452 -0.62776,-0.342415 -0.211609,-0.136756 -1.043478,-0.429668 -1.943923,-0.68448 -0.991787,-0.386714 -2.670077,-0.920716 -0.799294,-0.254321 -0.978022,-0.330824 -1.810742,-0.460358 -0.303931,-0.04728 -0.61334,-0.05 -0.920716,-0.06138 -0.354029,-0.01311 -0.761744,-0.008 -1.104859,0.09207 -0.127673,0.03724 -0.244806,0.10406 -0.368287,0.153452 -0.329989,0.131996 -0.635101,0.271515 -0.951406,0.429668 -0.259916,0.129958 -0.500465,0.103871 -0.797954,0.153452 -0.231425,0.03857 -0.156195,0.0781 -0.368287,0.184144 -0.05787,0.02894 -0.123754,0.03815 -0.184143,0.06138 -0.145435,0.05594 -0.280736,0.138318 -0.429667,0.184143 -0.05948,0.0183 -0.124108,0.01432 -0.184144,0.03069 -0.05315,0.0145 -0.09943,0.05058 -0.153452,0.06138 -0.145734,0.02915 -0.312231,-0.01481 -0.460358,0 -0.268475,0.02685 -0.378536,0.09207 -0.675192,0.09207 -0.283187,0 -0.543309,0.03069 -0.828645,0.03069 -0.02441,0 -0.174843,0.0155 -0.184143,0 -0.02834,-0.04724 -0.04092,-0.102302 -0.06138,-0.153453 z" />
  <path
     style="fill:none;stroke:#1c3c55;stroke-width:1.179"
     d="m 20.531969,4.4808184 c 0.653752,0.4589113 1.244179,1.0079043 1.749361,1.6265985 0.309435,0.3789638 0.588002,0.7857121 0.797954,1.2276215 0.283862,0.5974764 0.438692,1.2508201 0.736573,1.8414322 0.280584,0.556317 0.68904,1.0508454 1.196931,1.4117644 0.09597,0.0682 0.195619,0.131843 0.284189,0.209409 0.08857,0.07757 0.166689,0.170971 0.206859,0.28164 0.02543,0.07005 0.03503,0.145127 0.06138,0.214834 0.05234,0.138468 0.165418,0.243802 0.245525,0.368286 0.116567,0.181142 0.161797,0.400614 0.276215,0.58312 0.127169,0.202845 0.32963,0.344927 0.491048,0.521739 0.06908,0.07567 0.130843,0.158019 0.184143,0.245525"
     id="path6"
     inkscape:path-effect="#path-effect6"
     inkscape:original-d="m 20.531969,4.4808184 c 0.526968,0.6033182 1.206788,1.0388111 1.749361,1.6265985 0.400653,0.4340407 0.577547,0.6923464 0.797954,1.2276215 0.247434,0.6009126 0.404502,1.2721683 0.736573,1.8414322 0.292835,0.5020028 0.811804,1.0146024 1.196931,1.4117644 0.112854,0.116381 0.404517,0.317986 0.491048,0.491049 0.02856,0.05711 0.03582,0.157311 0.06138,0.214834 0.06056,0.136254 0.171945,0.245653 0.245525,0.368286 0.110422,0.184037 0.132777,0.410995 0.276215,0.58312 0.152892,0.183471 0.330817,0.344641 0.491048,0.521739 0.0318,0.03515 0.184143,0.196728 0.184143,0.245525" />
  <path
     style="fill:none;stroke:#1c3c55;stroke-width:1.179"
     d="m 6.7212276,11.785166 c 0.5319808,0.121965 1.0869389,0.142906 1.6265985,0.06138 0.2855162,-0.04313 0.5755468,-0.114711 0.859335,-0.06138 0.2243406,0.04216 0.4277325,0.160218 0.6095242,0.298268 0.1817917,0.13805 0.3464287,0.297411 0.5260257,0.438305 0.165402,0.129758 0.34891,0.245939 0.555212,0.286364 0.103152,0.02021 0.210896,0.02071 0.312682,-0.0055 0.101785,-0.02624 0.197345,-0.07993 0.267656,-0.158067 0.08368,-0.093 0.12892,-0.215968 0.214834,-0.306905 0.0353,-0.03736 0.07701,-0.06865 0.122762,-0.09207"
     id="path7"
     inkscape:path-effect="#path-effect7"
     inkscape:original-d="m 6.7212276,11.785166 c 0.5377107,0.127902 1.0784011,0.09075 1.6265985,0.06138 0.2867636,-0.01536 0.5726024,-0.07731 0.859335,-0.06138 0.2549491,0.01416 0.9177959,0.647492 1.1355499,0.736573 0.249347,0.102006 0.802331,0.278265 1.13555,0.122762 0.229987,-0.107327 0.09797,-0.151084 0.214834,-0.306905 0.03069,-0.04092 0.08184,-0.06138 0.122762,-0.09207" />
  <path
     style="fill:none;stroke:#1c3c55;stroke-width:1.179"
     d="m 8.2557545,16.358056 c 1.2139595,0.436806 2.4880545,0.706127 3.7749365,0.797954 0.337,0.02405 0.674971,0.03599 1.012787,0.03069 0.546589,-0.0086 1.093629,-0.06259 1.626599,-0.184143 0.319344,-0.07283 0.632766,-0.169668 0.951406,-0.245525 0.294739,-0.07017 0.593436,-0.122267 0.890026,-0.184143 0.102135,-0.02131 0.204065,-0.04378 0.306905,-0.06138 0.747591,-0.127913 1.512664,0.0054 2.2711,0 0.926984,-0.0066 1.839173,-0.220539 2.762148,-0.306905 1.405152,-0.131485 2.837642,0.03704 4.173913,0.491048"
     id="path8"
     inkscape:path-effect="#path-effect8"
     inkscape:original-d="m 8.2557545,16.358056 c 1.228367,0.395973 2.4861065,0.666142 3.7749365,0.797954 0.335998,0.03436 0.675606,0.05029 1.012787,0.03069 0.544743,-0.03167 1.08836,-0.09444 1.626599,-0.184143 0.323069,-0.05384 0.632449,-0.171101 0.951406,-0.245525 0.295034,-0.06884 0.593247,-0.123265 0.890026,-0.184143 0.1022,-0.02096 0.202758,-0.05526 0.306905,-0.06138 0.754453,-0.04438 1.516542,0.04271 2.2711,0 0.920264,-0.05209 1.837158,-0.332132 2.762148,-0.306905 1.800857,0.04911 2.471644,0.211988 4.173913,0.491048" />
  <path
     style="fill:none;stroke:#1c3c55;stroke-width:1.179"
     d="m 8.3478261,20.624041 c 0.2480442,0.17364 0.5164505,0.318166 0.797954,0.429667 0.3911157,0.154917 0.805222,0.245566 1.1969309,0.398977 0.345368,0.135262 0.670241,0.318104 1.012788,0.460358 0.216307,0.08983 0.441856,0.16384 0.675192,0.184144 0.103911,0.009 0.208519,0.0074 0.312471,0.01591 0.103953,0.0086 0.208837,0.02796 0.301339,0.07616 0.09091,0.04736 0.165501,0.12008 0.245525,0.184144 0.267649,0.214269 0.608562,0.335238 0.951406,0.337595"
     id="path9"
     inkscape:path-effect="#path-effect9"
     inkscape:original-d="m 8.3478261,20.624041 c 0.2629212,0.157753 0.5010462,0.304654 0.797954,0.429667 0.3848558,0.162045 0.8145614,0.220538 1.1969309,0.398977 0.34462,0.160823 0.642305,0.347155 1.012788,0.460358 0.223101,0.06817 0.447773,0.132162 0.675192,0.184144 0.201691,0.0461 0.415643,0.03262 0.61381,0.09207 0.09533,0.0286 0.171695,0.128771 0.245525,0.184144 0.26092,0.19569 0.626082,0.337595 0.951406,0.337595" />
  <path
     style="fill:none;stroke:#1c3c55;stroke-width:1.179"
     d="m 17.585678,20.716113 c 0.125912,-0.07539 0.259921,-0.137237 0.398977,-0.184144 0.499363,-0.168447 1.040131,-0.139175 1.565217,-0.184143 0.204885,-0.01755 0.408705,-0.04665 0.613811,-0.06138 0.204345,-0.01468 0.409536,-0.01507 0.613811,-0.03069 0.278566,-0.0213 0.554139,-0.0708 0.828644,-0.122762 0.307528,-0.05821 0.614455,-0.119595 0.920716,-0.184143"
     id="path10"
     inkscape:path-effect="#path-effect10"
     inkscape:original-d="m 17.585678,20.716113 c 0.132992,-0.06138 0.260019,-0.137825 0.398977,-0.184144 0.498334,-0.166111 1.049719,-0.144489 1.565217,-0.184143 0.205019,-0.01577 0.408763,-0.046 0.613811,-0.06138 0.204285,-0.01532 0.410101,-0.009 0.613811,-0.03069 0.277662,-0.02954 0.553594,-0.07463 0.828644,-0.122762 0.296227,-0.05184 0.617221,-0.184143 0.920716,-0.184143" />
  <path
     style="fill:none;stroke:#1c3c55;stroke-width:1.179"
     d="m 11.478261,25.13555 c 0.146775,-0.06885 0.301626,-0.12047 0.460358,-0.153453 0.17159,-0.03565 0.346887,-0.04949 0.521739,-0.06138 0.58259,-0.03963 1.166382,-0.05865 1.749361,-0.09207 0.624361,-0.0358 1.247696,-0.08811 1.872122,-0.122763 0.246097,-0.01365 0.492855,-0.02461 0.736573,-0.06138 0.338102,-0.051 0.670866,-0.151643 1.012788,-0.153452 0.576732,-0.0031 1.11212,0.272157 1.657289,0.460358 0.43562,0.150383 0.890435,0.247453 1.350384,0.276214 0.194121,0.01214 0.388999,0.01214 0.58312,0"
     id="path11"
     inkscape:path-effect="#path-effect11"
     inkscape:original-d="m 11.478261,25.13555 c 0.153453,-0.05115 0.302341,-0.118887 0.460358,-0.153453 0.171067,-0.03742 0.347379,-0.04516 0.521739,-0.06138 1.049918,-0.09767 0.607923,-0.03857 1.749361,-0.09207 0.447917,-0.021 1.398447,-0.08633 1.872122,-0.122763 0.24565,-0.0189 0.493063,-0.02392 0.736573,-0.06138 0.343451,-0.05284 0.653943,-0.216778 1.012788,-0.153452 0.488715,0.08624 1.201533,0.333759 1.657289,0.460358 0.463722,0.128811 0.873431,0.232855 1.350384,0.276214 0.193575,0.0176 0.388746,0 0.58312,0" />
  <path
     style="fill:none;stroke:#1c3c55;stroke-width:1.179"
     d="m 6.8439898,27.805627 c 0.5568534,0.125372 1.1096655,0.268694 1.657289,0.429667 0.5370352,0.157861 1.0690443,0.332685 1.5959082,0.521739 0.44255,0.1588 0.885486,0.328699 1.350383,0.398977 0.476203,0.07199 0.961445,0.0373 1.442456,0.06138 0.738469,0.03697 1.472696,0.212621 2.209718,0.153453 0.277103,-0.02225 0.561516,-0.07696 0.828645,0 0.08403,0.02421 0.163817,0.06092 0.245524,0.09207 0.130067,0.04959 0.264978,0.08507 0.398977,0.122762 0.334772,0.09416 0.667623,0.203097 1.012788,0.245524 0.142549,0.01752 0.286223,0.02355 0.429667,0.03069 0.615292,0.03061 1.22956,0.0818 1.841432,0.153452"
     id="path12"
     inkscape:path-effect="#path-effect12"
     inkscape:original-d="m 6.8439898,27.805627 c 0.5483283,0.161108 1.1084877,0.267521 1.657289,0.429667 0.3312607,0.09787 1.3444829,0.434708 1.5959082,0.521739 0.645576,0.223469 0.679254,0.289724 1.350383,0.398977 0.600578,0.09777 0.809187,0.04762 1.442456,0.06138 0.738655,0.01606 1.472029,0.122716 2.209718,0.153453 0.227053,0.0095 0.611953,-0.04334 0.828645,0 0.08571,0.01714 0.162603,0.06443 0.245524,0.09207 0.132005,0.044 0.26453,0.08691 0.398977,0.122762 0.335645,0.0895 0.67014,0.188416 1.012788,0.245524 0.141633,0.02361 0.286472,0.02008 0.429667,0.03069 0.613609,0.04545 1.237454,0.03266 1.841432,0.153452" />
  <path
     style="fill:none;stroke:#ff9500;stroke-width:1.179;stroke-opacity:1"
     d="m 3.7749361,29.831202 c -0.3334605,0.08178 -0.671884,0.143306 -1.0127878,0.184143 -0.1428945,0.01712 -0.2890127,0.03046 -0.4296675,0 -0.1224074,-0.02651 -0.2350547,-0.08499 -0.3484844,-0.138092 -0.1134297,-0.0531 -0.2322657,-0.102104 -0.3573979,-0.107432 -0.080207,-0.0034 -0.1599178,0.01129 -0.2392362,0.02368 -0.079318,0.01239 -0.1603203,0.0225 -0.2396151,0.01 -0.039647,-0.0063 -0.078593,-0.01827 -0.1137492,-0.03764 -0.0351564,-0.01937 -0.0664587,-0.04627 -0.0888939,-0.07955 -0.0224352,-0.03328 -0.0357328,-0.07307 -0.0353995,-0.113206 3.3325e-4,-0.04014 0.0147256,-0.08042 0.0417021,-0.110141 0.009725,-0.01072 0.0209393,-0.02 0.0306905,-0.03069 0.022171,-0.02431 0.036076,-0.0552 0.0447594,-0.08694 0.00868,-0.03174 0.012454,-0.06457 0.016622,-0.09721 0.01045,-0.08182 0.023577,-0.163345 0.03069,-0.245524 0.031053,-0.358797 -0.052999,-0.716157 -0.0920718,-1.074169 -0.0677583,-0.620846 -7.885e-5,-1.24759 0,-1.872123 5.944e-5,-0.470797 -0.0383244,-0.942531 0,-1.411765 0.0200647,-0.245667 0.0611268,-0.490088 0.0613813,-0.736573 5.198e-4,-0.503619 -0.16983579,-0.993984 -0.39897717,-1.442455 -0.0697819,-0.136576 -0.14692495,-0.276436 -0.15345269,-0.429667 -0.004377,-0.102757 0.0237643,-0.204356 0.0615584,-0.30001 0.037794,-0.09565 0.0853814,-0.187226 0.12258485,-0.283111 0.0647695,-0.166932 0.0971628,-0.344521 0.12276214,-0.521739 0.15525586,-1.074796 0.0723535,-2.168416 0.12276215,-3.253197 0.017158,-0.369236 0.0497907,-0.73765 0.0920716,-1.104859 0.056487,-0.490585 0.1302605,-0.979865 0.1534527,-1.473146 0.020663,-0.439479 0.00105,-0.87973 0,-1.319693 -0.00113,-0.470637 0.018976,-0.94151 0,-1.411765 -0.014049,-0.348161 -0.049497,-0.695237 -0.061381,-1.043478 -0.013608,-0.398774 0.00372,-0.797942 0,-1.196931 -0.00372,-0.3991063 -0.028472,-0.7988239 0,-1.1969307 0.032327,-0.4520199 0.1330153,-0.8976703 0.1534527,-1.3503836 0.00923,-0.2044276 0.00203,-0.4091851 0,-0.6138108 -0.00356,-0.3582608 0.00873,-0.7165638 0.030691,-1.0741688 0.012607,-0.205325 0.028435,-0.4107545 0.061381,-0.6138107 0.028287,-0.1743423 0.069143,-0.3466116 0.092072,-0.5217392 0.062487,-0.4772597 -0.00953,-0.9612166 0,-1.4424552 0.00629,-0.3176004 0.048018,-0.6373941 0,-0.9514066 C 1.4203097,2.2183496 1.3793477,2.0771194 1.3503836,1.9335048 1.2950381,1.659082 1.2850594,1.3678281 1.3810746,1.1048603 c 0.022227,-0.060876 0.050109,-0.12032404 0.061381,-0.18414319 0.010494,-0.0594135 0.00618,-0.12049041 0.013541,-0.18037296 0.00368,-0.0299413 0.010356,-0.0597459 0.022858,-0.0872002 0.012501,-0.0274543 0.03108,-0.0525525 0.055673,-0.0700227 0.031495,-0.0223735 0.07151,-0.0310856 0.1100364,-0.028213 0.038526,0.002873 0.075656,0.0167323 0.1091637,0.0359608 0.067016,0.0384571 0.1195732,0.0972731 0.1797768,0.14570491 0.09735,0.0783146 0.2146568,0.12909579 0.3355235,0.16073984 0.1208668,0.031644 0.2457594,0.0448696 0.3703589,0.0540939 0.4400627,0.0325788 0.8849111,0.0166975 1.3196931,0.0920718 0.1730589,0.030002 0.3465936,0.074556 0.5217391,0.061381 0.085894,-0.00646 0.1706827,-0.026793 0.2568186,-0.027073 0.043068,-1.403e-4 0.086474,0.00484 0.1272325,0.018757 0.040758,0.013915 0.078859,0.037092 0.1069975,0.069697 0.02882,0.033394 0.046158,0.075195 0.058622,0.117508 0.012464,0.042313 0.020522,0.085842 0.03345,0.1280163 0.03304,0.1077831 0.097958,0.2048686 0.181531,0.280529 0.083573,0.07566 0.1853653,0.1301885 0.2932381,0.162935 0.2157455,0.065493 0.4505511,0.043577 0.6661069,-0.022538 C 6.6359274,1.7004629 6.9995539,1.4016217 7.42711,1.258312 7.9305088,1.0895811 8.4878388,1.147541 8.9923274,0.98209719 9.1061188,0.94478001 9.2160556,0.89641865 9.3299233,0.85933504 c 0.1299031,-0.0423059 0.2642032,-0.0696969 0.398977,-0.0920716 0.3054627,-0.0507119 0.6146157,-0.0760495 0.9207157,-0.12276215 0.389214,-0.0593963 0.773726,-0.15336766 1.166241,-0.18414322 0.183876,-0.014417 0.368668,-0.0148795 0.552429,-0.0306905 0.17448,-0.0150124 0.347499,-0.043816 0.52174,-0.0613811 0.72303,-0.0728881 1.452334,0 2.179028,0 h 1.687979 c 0.286509,0 0.573492,-0.0195283 0.859335,0 0.320656,0.0219066 0.633115,0.10883982 0.951407,0.15345268 0.598503,0.0838882 1.208009,0.0171522 1.810742,0.0613811 0.466873,0.0342594 0.92622,0.13483483 1.381074,0.2455243 0.163937,0.0398943 0.327542,0.0811397 0.491048,0.12276215 0.365765,0.0931097 0.731798,0.1882636 1.10486,0.2455242 0.214522,0.032927 0.430966,0.053254 0.644501,0.092072 0.153976,0.027991 0.306123,0.065542 0.460358,0.092072 0.354643,0.061003 0.71987,0.062972 1.074169,0 0.114144,-0.020288 0.227742,-0.047325 0.343593,-0.051702 0.115851,-0.00438 0.236605,0.015934 0.331599,0.082392 0.09239,0.064633 0.152867,0.1686667 0.178407,0.2784856 0.02554,0.109819 0.01838,0.2252147 -0.0051,0.3354853 -0.04703,0.2205413 -0.1575,0.4236801 -0.203961,0.6443412 -0.04687,0.2226163 -0.02729,0.4571125 -0.09207,0.6751918 -0.01571,0.052885 -0.03628,0.1043227 -0.06138,0.1534527 -0.0067,0.072054 -0.01697,0.1437787 -0.03069,0.2148338 -0.07015,0.3633929 -0.230427,0.70691 -0.276215,1.0741688 -0.04945,0.3965972 0.03734,0.7973185 0.03069,1.1969309 -8.51e-4,0.05116 -0.0032,0.1023876 0,0.1534526 0.01273,0.201062 0.110899,0.3862007 0.153452,0.5831202 0.05859,0.2711569 0.01013,0.5560032 0.06138,0.8286445 0.01929,0.1026164 0.05261,0.2028611 0.06138,0.3069054 0.0086,0.1019987 -0.0067,0.2047631 0,0.3069055 0.0047,0.072213 0.02035,0.1432093 0.03069,0.2148337 0.03816,0.2643264 0.0039,0.5331427 -0.03069,0.797954 -0.05477,0.4187696 -0.109828,0.8505071 0,1.2583121 0.02081,0.07727 0.04753,0.153587 0.05558,0.233202 0.004,0.03981 0.0033,0.08032 -0.0052,0.119418 -0.0085,0.03909 -0.02501,0.07678 -0.05035,0.107738 -0.0092,0.01121 -0.01948,0.02151 -0.03069,0.03069"
     id="path13"
     inkscape:path-effect="#path-effect13"
     inkscape:original-d="m 3.7749361,29.831202 c -0.3108541,0.197582 -0.6609149,0.184143 -1.0127878,0.184143 -0.1432225,0 -0.2879913,0.02099 -0.4296675,0 -0.2284966,-0.03385 -0.4881683,-0.167147 -0.7058823,-0.245524 -0.2258418,-0.0813 -0.67519185,-0.15908 -0.67519185,-0.306905 0,-0.01447 0.0249915,-0.01739 0.0306905,-0.03069 0.0254873,-0.05947 0.0478243,-0.120878 0.0613812,-0.184143 0.017282,-0.08065 0.026572,-0.163149 0.03069,-0.245524 0.018537,-0.370746 -0.0818388,-0.705785 -0.0920717,-1.074169 -0.0172256,-0.620123 0,-1.251961 0,-1.872123 0,-0.470588 -0.0142537,-0.941392 0,-1.411765 0.007462,-0.246262 0.0613812,-0.490197 0.0613812,-0.736573 0,-0.516992 -0.22114795,-0.94231 -0.39897712,-1.442455 -0.0279008,-0.07847 -0.16308309,-0.304472 -0.15345269,-0.429667 0.0131906,-0.171479 0.14217484,-0.436231 0.18414323,-0.583121 0.0490823,-0.171788 0.0933902,-0.345507 0.12276214,-0.521739 0.17909978,-1.074598 0.0396071,-2.172181 0.12276215,-3.253197 0.0283442,-0.368474 0.0558957,-0.737071 0.0920716,-1.104859 0.048542,-0.49351 0.1351173,-0.978089 0.1534527,-1.473146 0.016235,-0.438337 0,-0.881064 0,-1.319693 0,-0.469429 0.015135,-0.942582 0,-1.411765 -0.041406,-1.283596 -0.02248,0.356962 -0.061381,-1.043478 -0.011078,-0.398823 0,-0.797954 0,-1.196931 0,-0.3989767 -0.017715,-0.7983472 0,-1.1969307 0.1342554,-3.020746 -0.023453,0.8904199 0.1534527,-1.3503836 0.016103,-0.203969 0,-0.4092072 0,-0.6138108 0,-0.6202623 -0.012125,-0.4961634 0.030691,-1.0741688 0.00347,-0.046897 0.047401,-0.5392528 0.061381,-0.6138107 0.083473,-0.445188 0.062464,0.040801 0.092072,-0.5217392 0.025066,-0.4762466 0,-0.9653988 0,-1.4424552 0,-0.3138638 0.022379,-0.6380978 0,-0.9514066 -0.011243,-0.1573973 -0.055054,-0.2815962 -0.092072,-0.4296676 -0.037251,-0.1490045 0.0087,-0.7406939 0.030691,-0.8286445 0.015692,-0.062769 0.050744,-0.12032219 0.061381,-0.18414319 0.022295,-0.13376862 -0.01316,-0.23236445 0.092072,-0.33759591 0.061292,-0.0612921 0.3063139,0.11975703 0.3989769,0.15345269 0.2311424,0.0840518 0.4649213,0.16554627 0.7058824,0.21483376 0.3350694,0.068537 0.9861024,0.0664107 1.3196931,0.0920718 0.1745966,0.01343 0.3470416,0.049333 0.5217391,0.061381 0.3502953,0.024158 0.2822399,-0.063904 0.4910486,0.061381 0.075675,0.045405 0.022424,0.2107004 0.092072,0.2455243 C 5.6786058,1.7190983 6.8136806,1.3766931 7.42711,1.258312 7.9451309,1.1583431 8.4773502,1.0965366 8.9923274,0.98209719 9.2134337,0.93296246 9.1294253,0.91948444 9.3299233,0.85933504 c 0.1307314,-0.0392194 0.2646909,-0.067656 0.398977,-0.0920716 0.2551028,-0.0463823 0.6713317,-0.0871358 0.9207157,-0.12276215 0.389608,-0.0556582 0.774958,-0.14184236 1.166241,-0.18414322 0.183359,-0.0198226 0.368676,-0.0149402 0.552429,-0.0306905 0.174473,-0.0149548 0.346882,-0.0519293 0.52174,-0.0613811 0.722236,-0.0390398 1.455557,0 2.179028,0 0.56266,0 1.125319,0 1.687979,0 0.286445,0 0.574411,-0.029475 0.859335,0 1.203111,0.12445973 -0.09457,0.0611608 0.951407,0.15345268 0.603512,0.053251 1.206985,0.011068 1.810742,0.0613811 0.467386,0.0389489 0.925577,0.13834847 1.381074,0.2455243 0.164235,0.0386436 0.326813,0.0841185 0.491048,0.12276215 0.367242,0.0864098 0.733523,0.1788741 1.10486,0.2455242 0.213601,0.038339 0.430642,0.055199 0.644501,0.092072 0.284184,0.048997 0.189039,0.075114 0.460358,0.092072 0.354251,0.022141 0.719531,0 1.074169,0 0.02949,0 0.643526,-0.032642 0.675192,0.03069 0.20726,0.4145198 0.04413,0.8343482 -0.03069,1.2583121 -0.039,0.2210128 -0.03754,0.4570511 -0.09207,0.6751918 -0.01336,0.053446 -0.04092,0.1023018 -0.06138,0.1534527 -0.01023,0.071611 -0.01553,0.1441012 -0.03069,0.2148338 -0.07943,0.3706715 -0.255876,0.6877385 -0.276215,1.0741688 -0.02097,0.3984955 -0.0052,0.8018846 0.03069,1.1969309 0.0046,0.050941 -0.0092,0.1031269 0,0.1534526 0.03595,0.1977492 0.112046,0.3864404 0.153452,0.5831202 0.05801,0.2755596 0.03489,0.5505192 0.06138,0.8286445 0.0099,0.1038579 0.051,0.2030954 0.06138,0.3069054 0.01018,0.1017941 -0.006,0.2047802 0,0.3069055 0.0042,0.072213 0.02618,0.1426363 0.03069,0.2148337 0.01686,0.2697616 -0.01495,0.5303271 -0.03069,0.797954 -0.02444,0.415441 0,0.8413931 0,1.2583121 0,0.01258 0.0024,0.457957 0,0.460358 -0.04092,0.04092 -0.03069,-0.05115 -0.03069,0.03069" />
</svg>
