<?xml version="1.0" encoding="UTF-8" standalone="no"?>
<svg
   width="45px"
   height="36px"
   viewBox="0 0 45 36"
   version="1.1"
   id="svg1"
   xmlns="http://www.w3.org/2000/svg"
   xmlns:svg="http://www.w3.org/2000/svg"
   xmlns:rdf="http://www.w3.org/1999/02/22-rdf-syntax-ns#"
   xmlns:cc="http://creativecommons.org/ns#"
   xmlns:dc="http://purl.org/dc/elements/1.1/">
  <!-- Generator: Sketch 49 (51002) - http://www.bohemiancoding.com/sketch -->
  <title
     id="title1">notebook</title>
  <desc
     id="desc1">Created with Sketch.</desc>
  <defs
     id="defs1" />
  <path
     style="opacity:1;fill:none;fill-opacity:1;stroke:#ff7e00;stroke-width:1;stroke-dasharray:none;stroke-opacity:1"
     d="m 5.0025575,24.398977 c 0.015882,-0.256093 0.036347,-0.511902 0.061381,-0.767263 0.021011,-0.214318 0.045271,-0.42965 0.030691,-0.644502 C 5.0771786,22.730049 5.0033321,22.476861 4.8797954,22.250639 4.8459169,22.065025 4.8049564,21.880703 4.7570332,21.69821 4.6636048,21.342432 4.5431394,20.99052 4.511509,20.624041 c -0.027708,-0.321032 0.014547,-0.647896 0.1227621,-0.951407 0.021741,-0.06098 0.046165,-0.121219 0.061381,-0.184143 0.038672,-0.15992 0.016012,-0.3273 0,-0.491049 -0.0359,-0.36714 -0.037182,-0.737846 0,-1.104859 0.041713,-0.411739 0.1314975,-0.817136 0.1841432,-1.227621 0.078219,-0.609879 0.074014,-1.226824 0.092072,-1.841433 0.00601,-0.20461 0.014496,-0.409626 0,-0.61381 -0.022049,-0.310565 -0.096871,-0.614554 -0.1534527,-0.920716 -0.084088,-0.454995 -0.1281671,-0.919785 -0.092072,-1.381075 0.026508,-0.338769 0.095212,-0.686594 0,-1.012787 -0.030226,-0.103555 -0.076577,-0.202627 -0.096127,-0.308717 -0.00978,-0.05304 -0.012665,-0.107819 -0.00312,-0.160906 0.00955,-0.05309 0.032015,-0.104512 0.068555,-0.144188 0.0098,-0.01064 0.020537,-0.02038 0.030691,-0.03069 0.046328,-0.04703 0.080166,-0.105775 0.1004689,-0.168588 0.020303,-0.06281 0.027269,-0.1296078 0.023386,-0.195506 C 4.8424319,9.7547495 4.7919908,9.6286142 4.7263426,9.5140675 4.6142881,9.3185486 4.4552197,9.1462721 4.3887468,8.9309463 4.3382092,8.7672398 4.3456669,8.5922171 4.3469278,8.420892 4.3481886,8.249567 4.3413307,8.0720314 4.2659847,7.9181586 4.2065898,7.7968614 4.1090625,7.6994554 4.0215049,7.5966234 3.9777261,7.5452074 3.9359431,7.4917062 3.9025763,7.4329964 3.8692096,7.3742865 3.8443513,7.3100163 3.8363171,7.2429668 c -0.00609,-0.050853 -0.00246,-0.1022948 0,-0.1534527 0.0128,-0.2660971 -0.00637,-0.532662 -0.03069,-0.797954 -0.00937,-0.1022379 -0.019447,-0.2060974 0,-0.3069054 C 3.8197415,5.9114903 3.8490345,5.8421343 3.8670077,5.769821 3.8994943,5.6391147 3.8944564,5.5011825 3.9283887,5.370844 3.9561789,5.2640981 4.0091657,5.1659397 4.0511509,5.0639386 4.1141377,4.9109152 4.1531596,4.7472379 4.2352941,4.6035806 4.3076566,4.477015 4.4105566,4.3711692 4.511509,4.2659847 4.6777715,4.0927521 4.8428049,3.916029 4.971867,3.713555 5.1627202,3.4141424 5.2693139,3.0645677 5.2991173,2.7107533 5.3289207,2.356939 5.2834766,1.9989134 5.1867008,1.657289 5.165297,1.5817324 5.1411667,1.5052437 5.1432729,1.4267422 c 0.00105,-0.039251 0.00888,-0.078665 0.026131,-0.1139363 0.017252,-0.035272 0.044283,-0.066244 0.078677,-0.085184 0.046105,-0.025388 0.1009106,-0.027605 0.1534527,-0.030691 0.4351566,-0.025555 0.8579394,-0.150035 1.2890026,-0.21483371 0.4666028,-0.0701411 0.9404346,-0.0700297 1.4117647,-0.0920716 0.1022949,-0.004784 0.2050494,-0.0106062 0.3069054,0 0.1904922,0.0198359 0.3697211,0.0960214 0.5524296,0.15345271 0.4737332,0.1489101 0.9766915,0.1727393 1.4731462,0.1841432 0.614509,0.014116 1.231019,0.010841 1.841432,-0.061381 0.259414,-0.030693 0.518398,-0.074056 0.767263,-0.1534527 0.10182,-0.0324844 0.20212,-0.0710385 0.306906,-0.0920716 0.140952,-0.0282923 0.286053,-0.0241405 0.429667,-0.0306905 0.380509,-0.0173543 0.754847,-0.11038296 1.13555,-0.12276215 0.256261,-0.008333 0.515879,0.0197605 0.767263,-0.0306905 0.08272,-0.0166019 0.163517,-0.0415499 0.245525,-0.0613811 0.608699,-0.14719505 1.251642,-0.007315 1.872123,-0.0920716 0.128629,-0.0175705 0.256095,-0.0447885 0.385593,-0.0539716 0.129499,-0.009183 0.263322,6.0597e-4 0.38167,0.0539716 0.114137,0.0514669 0.207552,0.14061026 0.285279,0.23876647 0.07773,0.0981562 0.14175,0.20629378 0.212998,0.30924948 0.07125,0.1029557 0.151253,0.2022124 0.253383,0.2746397 0.10213,0.072427 0.229304,0.1161185 0.353199,0.098061 0.01797,-0.00262 0.03624,-0.0065 0.0541,-0.00324 0.0089,0.00163 0.01764,0.00512 0.02463,0.010912 0.007,0.0058 0.01214,0.014022 0.01334,0.023019 6.83e-4,0.00509 1.19e-4,0.010247 -3.34e-4,0.01536 -4.53e-4,0.00511 -7.88e-4,0.010322 3.34e-4,0.015331 9.97e-4,0.00445 0.0031,0.00862 0.0061,0.012115 0.0029,0.0035 0.0066,0.00632 0.0107,0.00837 0.0082,0.00409 0.01767,0.00497 0.02668,0.00357 0.01802,-0.00279 0.03343,-0.013964 0.04862,-0.024053 0.08365,-0.055547 0.182166,-0.086495 0.281938,-0.097791 0.09977,-0.011295 0.200978,-0.00351 0.299867,0.013899 0.197779,0.034814 0.387181,0.1076057 0.584436,0.1452724 0.505614,0.096549 1.022205,-0.042145 1.534527,-0.092072 0.285376,-0.027811 0.57262,-0.027945 0.859335,-0.030691 0.614981,-0.00589 1.248128,-0.027814 1.810741,-0.2762148 0.100952,-0.044572 0.199729,-0.096473 0.306906,-0.1227622 0.09011,-0.022103 0.183581,-0.025441 0.276215,-0.03069 0.329604,-0.018676 0.657454,-0.06281 0.982097,-0.1227622 0.397409,-0.0733895 0.793022,-0.17082004 1.196931,-0.18414322 0.122705,-0.004047 0.245515,-2.8872e-4 0.368286,0 0.481973,0.001133 0.962219,-0.0511793 1.442456,-0.0920716 0.846983,-0.0721209 1.697431,-0.10884987 2.547314,-0.0920716 0.277159,0.005472 0.555055,0.0167133 0.828645,0.0613811 0.205947,0.0336239 0.408396,0.0860211 0.61381,0.12276215 0.474774,0.0849198 0.960747,0.0854119 1.442456,0.0613811 0.483211,-0.0241057 0.965436,-0.0726623 1.442455,-0.15345268 0.247337,-0.0418903 0.493246,-0.092441 0.736573,-0.15345269 0.191669,-0.048059 0.385824,-0.10306264 0.58312,-0.0920716 0.140331,0.007818 0.278852,0.0497979 0.398977,0.12276215 0.03153,0.0191516 0.06175,0.040361 0.09207,0.0613811 0.0491,0.0340417 0.09885,0.067823 0.153452,0.0920716 0.08758,0.038893 0.184421,0.0518396 0.2801,0.0571424 0.09568,0.005303 0.191853,0.003409 0.287027,0.0145673 0.09517,0.0111583 0.19085,0.0363175 0.269832,0.0905799 0.03949,0.0271312 0.07435,0.0614021 0.100093,0.10181113 0.02574,0.0404091 0.04219,0.0870488 0.04505,0.13487637 0.0012,0.020429 -8e-6,0.040916 0,0.061381 5.1e-5,0.1311684 0.05467,0.26335 0.153888,0.3491442 0.04961,0.042897 0.1096,0.073942 0.173573,0.088392 0.06397,0.01445 0.131822,0.012141 0.194279,-0.00787 0.04579,-0.01467 0.08948,-0.038804 0.137456,-0.041987 0.02399,-0.00159 0.04885,0.00245 0.06944,0.014866 0.01029,0.00621 0.01941,0.014458 0.02622,0.024364 0.0068,0.00991 0.01127,0.021481 0.01241,0.033448 9.71e-4,0.01019 -4.44e-4,0.020464 0,0.03069 6.56e-4,0.015133 0.0054,0.029998 0.01324,0.04298 0.0078,0.012982 0.01858,0.024095 0.03099,0.032782 0.02482,0.017373 0.05564,0.024775 0.08593,0.025101 0.06059,6.529e-4 0.117871,-0.025142 0.17674,-0.039482 0.0948,-0.023093 0.19408,-0.0164 0.291219,-0.00717 0.09714,0.00923 0.195286,0.020833 0.291901,0.00717 0.01538,-0.00217 0.0307,-0.00499 0.0462,-0.00585 0.01551,-8.601e-4 0.03136,3.032e-4 0.04587,0.00585 0.02206,0.00843 0.03961,0.026786 0.04933,0.048308 0.0097,0.021522 0.01196,0.045957 0.0088,0.069361 -0.0063,0.046808 -0.03266,0.08811 -0.05816,0.1278552 -0.223028,0.3475941 -0.428294,0.7109642 -0.55243,1.1048593 -0.04478,0.1420742 -0.07874,0.2873567 -0.122762,0.4296675 -0.06693,0.2163973 -0.156963,0.4255066 -0.214834,0.6445013 -0.154872,0.5860638 -0.07172,1.2049019 -0.09207,1.8107417 -0.0076,0.2251925 -0.02959,0.449875 -0.03069,0.6751918 -0.0017,0.3585008 0.0494,0.7190837 0,1.0741688 -0.01715,0.1232851 -0.04632,0.2447286 -0.06138,0.3682865 -0.01614,0.132426 -0.01598,0.2663846 -0.03069,0.3989769 -0.01596,0.1438276 -0.04937,0.2854566 -0.06138,0.4296676 -0.02483,0.2981176 0.04223,0.5950562 0.09207,0.8900255 0.03771,0.2231636 0.06577,0.4489076 0.06138,0.6751916 -0.0072,0.372102 -0.10174,0.736297 -0.153452,1.104859 -0.04277,0.304799 -0.05625,0.612976 -0.06138,0.920717 -0.0034,0.204963 -0.0032,0.410672 -0.03069,0.61381 -0.06882,0.508349 -0.309673,0.990858 -0.306905,1.503837 4.42e-4,0.08188 0.0071,0.163952 0,0.245524 -0.01587,0.181092 -0.09853,0.348447 -0.153453,0.521739 -0.06273,0.197944 -0.08961,0.406178 -0.09207,0.613811 -0.0012,0.102302 0.0034,0.204654 0,0.306905 -0.0065,0.194941 -0.04216,0.392679 0,0.58312 0.02099,0.09483 0.06065,0.184313 0.09207,0.276215 0.113806,0.332873 0.118092,0.691718 0.122762,1.043478 0.0014,0.102301 0.0028,0.204636 0,0.306906 -0.0043,0.153564 -0.01829,0.307827 0,0.460358 0.0074,0.06179 0.02008,0.122817 0.03069,0.184143 0.07351,0.424825 0.04781,0.860524 0,1.289003 -0.02048,0.18359 -0.04502,0.368257 -0.03069,0.552429 0.01202,0.154402 0.05121,0.305823 0.06138,0.460358 0.01682,0.255679 -0.04623,0.511504 -0.03069,0.767264 0.0069,0.112908 0.0288,0.228206 0,0.337596 -0.0082,0.03129 -0.02049,0.06136 -0.03069,0.09207 -0.04067,0.122437 -0.04822,0.253695 -0.04152,0.382535 0.0067,0.128841 0.02727,0.256503 0.04152,0.384729 0.02265,0.203904 0.02925,0.410748 0,0.613811 -0.0025,0.01762 -0.0053,0.03565 -0.0017,0.05308 0.0018,0.0087 0.0053,0.01717 0.01075,0.02418 0.0055,0.007 0.01305,0.01252 0.02165,0.01481 0.0099,0.0026 0.02044,9.4e-4 0.03069,0 0.05527,-0.0051 0.112326,0.0141 0.153321,0.05151 0.04099,0.03741 0.06529,0.09248 0.06529,0.147977 0,0.0555 -0.0243,0.110569 -0.06529,0.147978 -0.041,0.03741 -0.09806,0.05658 -0.153321,0.05151"
     id="path1"
     transform="matrix(0.970299,0,0,0.970299,1.0094921,0.1477074)" />
  <path
     style="opacity:1;fill:none;fill-opacity:1;stroke:#ff7e00;stroke-width:1;stroke-dasharray:none;stroke-opacity:1"
     d="m 15.805627,10.250639 c -0.184221,0.153109 -0.392023,0.277791 -0.613811,0.368287 -0.17433,0.07113 -0.358094,0.121716 -0.521739,0.214834 -0.06415,0.03651 -0.124555,0.0792 -0.184143,0.122762 -0.04675,0.03418 -0.09324,0.06904 -0.143746,0.09739 -0.0505,0.02834 -0.105548,0.05016 -0.16316,0.05606 -0.01662,0.0017 -0.03345,0.0021 -0.04972,0.0059 -0.01627,0.0038 -0.03233,0.01145 -0.04235,0.02481 -0.0069,0.0092 -0.01047,0.02044 -0.0143,0.0313 -0.0038,0.01086 -0.0083,0.02193 -0.01639,0.03008 -0.0076,0.0077 -0.01802,0.01212 -0.02861,0.01431 -0.01059,0.0022 -0.02149,0.0023 -0.03231,0.0022 -0.01082,-4.1e-5 -0.0217,-1.86e-4 -0.03237,0.0016 -0.01067,0.0018 -0.02125,0.0056 -0.02947,0.01259 -0.0088,0.0075 -0.01432,0.01813 -0.0185,0.02892 -0.0042,0.01078 -0.0072,0.02202 -0.01219,0.03246 -0.01321,0.02774 -0.03906,0.04765 -0.06675,0.06098 -0.02768,0.01333 -0.05767,0.02103 -0.0867,0.03109 -0.05298,0.01836 -0.103403,0.04498 -0.146338,0.08105 -0.04293,0.03607 -0.07823,0.08178 -0.09919,0.133786 -0.0086,0.02147 -0.01484,0.04386 -0.02357,0.06529 -0.0087,0.02143 -0.02036,0.04227 -0.03781,0.05747 -0.01399,0.01219 -0.03103,0.02018 -0.04748,0.02876 -0.01645,0.0086 -0.03293,0.0182 -0.04459,0.03262 -0.01442,0.01785 -0.01998,0.04109 -0.03069,0.06138 -0.01549,0.02932 -0.04144,0.05179 -0.069,0.07023 -0.02756,0.01844 -0.05726,0.03357 -0.08446,0.05253 -0.06264,0.04368 -0.109577,0.105883 -0.154859,0.16738 -0.04528,0.0615 -0.09097,0.124365 -0.152046,0.170216 -0.0295,0.02215 -0.06207,0.0399 -0.09207,0.06138 -0.07073,0.05064 -0.125028,0.120329 -0.184143,0.184144 -0.111041,0.119869 -0.244571,0.222761 -0.398977,0.276215 -0.09534,0.03301 -0.196106,0.04645 -0.295446,0.06409 -0.09934,0.01764 -0.199549,0.04024 -0.287674,0.08936 -0.03015,0.01681 -0.05858,0.03656 -0.08846,0.05384 -0.02989,0.01728 -0.06169,0.03221 -0.09568,0.03823 -0.05257,0.0093 -0.106702,-0.0032 -0.159865,0.0017 -0.02658,0.0024 -0.05329,0.0095 -0.07527,0.02466 -0.01099,0.0076 -0.02069,0.01712 -0.02793,0.02833 -0.0072,0.01121 -0.01199,0.02411 -0.01315,0.0374 -8.92e-4,0.0102 3.02e-4,0.02046 0,0.03069 -5.47e-4,0.01852 -0.0061,0.03673 -0.01474,0.0531 -0.0087,0.01637 -0.0205,0.03095 -0.03384,0.04382 -0.02667,0.02573 -0.0591,0.04452 -0.09038,0.0644 -0.03128,0.01988 -0.06231,0.04167 -0.08425,0.07154 -0.01097,0.01494 -0.0195,0.03181 -0.02378,0.04984 -0.0043,0.01803 -0.0042,0.03725 0.0015,0.05489 0.0056,0.01749 0.01648,0.03295 0.02941,0.046 0.01292,0.01305 0.0279,0.02388 0.04306,0.03425 0.01516,0.01037 0.03062,0.02038 0.0448,0.03205 0.01418,0.01168 0.02715,0.02515 0.03618,0.04115 0.01594,0.02824 0.01849,0.06203 0.03069,0.09207 0.01107,0.02726 0.02992,0.05083 0.05164,0.07068 0.02172,0.01985 0.04634,0.03622 0.07112,0.05208 0.280697,0.179604 0.601798,0.308322 0.828645,0.55243 0.02259,0.02431 0.04415,0.04969 0.06881,0.07191 0.02465,0.02222 0.05283,0.04139 0.08464,0.05085 0.04521,0.01344 0.09382,0.0064 0.140603,0.01243 0.02339,0.003 0.04676,0.0096 0.06632,0.02275 0.0098,0.0066 0.01853,0.01479 0.02529,0.02445 0.0068,0.0097 0.01152,0.02079 0.01331,0.03244 0.0031,0.02026 -0.0027,0.04106 0,0.06138 0.0031,0.02294 0.01661,0.04301 0.03069,0.06138 0.0578,0.07541 0.131653,0.138825 0.216222,0.182133 0.08457,0.04331 0.179856,0.06623 0.274827,0.06339 0.157493,-0.0047 0.30547,-0.07826 0.462227,-0.09417 0.07838,-0.008 0.160268,-6.41e-4 0.230413,0.03522 0.03507,0.01793 0.06675,0.04291 0.09087,0.07405 0.02412,0.03115 0.04049,0.06854 0.04513,0.107659 0.0048,0.04068 -0.0029,0.08191 0,0.122762 0.003,0.04219 0.0173,0.08264 0.03069,0.122763 0.05543,0.16613 0.09842,0.338328 0.184143,0.491048 0.09458,0.168495 0.245234,0.310668 0.429667,0.368287 0.06192,0.01934 0.127666,0.02947 0.184144,0.06138 0.04458,0.02519 0.08088,0.06262 0.122762,0.09207 0.08529,0.05997 0.189784,0.08451 0.291437,0.107695 0.101652,0.02319 0.206161,0.0475 0.291683,0.107139 0.04817,0.03359 0.08836,0.07712 0.13107,0.117422 0.04271,0.0403 0.08959,0.07839 0.145145,0.09741 0.04171,0.01428 0.08669,0.01722 0.128186,0.0321 0.02075,0.0074 0.04068,0.018 0.05659,0.03325 0.01591,0.01525 0.0276,0.03551 0.03006,0.05741 0.0011,0.01018 3.07e-4,0.02045 0,0.03069 -0.0028,0.09194 0.03828,0.181877 0.100413,0.249702 0.06213,0.06782 0.143952,0.115168 0.229626,0.148645 0.171349,0.06696 0.360143,0.08176 0.529296,0.154082 0.154041,0.06586 0.284072,0.17599 0.423467,0.268916 0.0697,0.04646 0.142517,0.08903 0.220728,0.11902 0.07821,0.02999 0.162241,0.04716 0.24583,0.04173 0.01023,-6.64e-4 0.02057,-0.0017 0.03069,0 0.0099,0.0016 0.01934,0.0058 0.0273,0.01191 0.008,0.0061 0.01442,0.0141 0.01887,0.02309 0.0089,0.01798 0.0094,0.03965 0.0025,0.05848 -0.0069,0.01883 -0.02088,0.03475 -0.03802,0.04516 -0.01714,0.01042 -0.03729,0.01546 -0.05735,0.01568 -0.04011,4.29e-4 -0.07839,-0.01792 -0.110412,-0.04208 -0.03202,-0.02416 -0.05909,-0.05414 -0.08838,-0.08155 -0.03743,-0.03501 -0.07867,-0.06594 -0.122762,-0.09207"
     id="path2"
     transform="matrix(0.970299,0,0,0.970299,1.0094921,0.1477074)" />
  <path
     style="opacity:1;fill:none;fill-opacity:1;stroke:#ff7e00;stroke-width:1;stroke-dasharray:none;stroke-opacity:1"
     d="m 19.242967,20.838875 c 0.0447,-0.206146 0.09588,-0.410884 0.153452,-0.613811 0.06447,-0.227249 0.136942,-0.452187 0.214834,-0.675192 0.03464,-0.09917 0.07047,-0.198387 0.0914,-0.30133 0.02094,-0.102943 0.02654,-0.210668 6.65e-4,-0.312481 -0.0039,-0.01537 -0.0085,-0.03067 -0.0099,-0.04647 -0.0013,-0.0158 9.63e-4,-0.03247 0.0099,-0.0456 0.0081,-0.012 0.02095,-0.01995 0.03069,-0.03069 0.01246,-0.01374 0.01952,-0.03181 0.0221,-0.05018 0.0026,-0.01837 9.15e-4,-0.03711 -0.0024,-0.05536 -0.0067,-0.0365 -0.02001,-0.07219 -0.01968,-0.109292 2.91e-4,-0.03255 0.01115,-0.06408 0.02401,-0.09398 0.01287,-0.0299 0.02791,-0.05901 0.03737,-0.09016 0.01358,-0.04474 0.01516,-0.0924 0.011,-0.138976 -0.0042,-0.04657 -0.01394,-0.09243 -0.02271,-0.13836 -0.0088,-0.04593 -0.0166,-0.0923 -0.01679,-0.13906 -1.93e-4,-0.04676 0.0075,-0.09424 0.02851,-0.136033 0.01655,-0.03301 0.04074,-0.06145 0.06138,-0.09207 0.03336,-0.04949 0.05751,-0.104803 0.09207,-0.153453 0.04198,-0.05908 0.09863,-0.107025 0.161657,-0.1428 0.06303,-0.03577 0.132367,-0.05965 0.203211,-0.07493 0.141687,-0.03057 0.288139,-0.02715 0.433086,-0.02779 0.08184,-3.64e-4 0.163705,-0.0021 0.245524,0 0.03069,7.77e-4 0.06144,0.0021 0.09207,0 0.117238,-0.008 0.227732,-0.0664 0.311266,-0.149044 0.08353,-0.08265 0.14172,-0.188206 0.1817,-0.298705 0.07996,-0.220998 0.08984,-0.461024 0.151535,-0.687801 0.03745,-0.137657 0.09372,-0.269425 0.153453,-0.398977 0.06706,-0.145439 0.138718,-0.288757 0.214834,-0.429667 0.04197,-0.09846 0.07291,-0.201607 0.09207,-0.306906 0.02049,-0.112636 0.02767,-0.228187 0.06138,-0.337596 0.02297,-0.07454 0.05782,-0.144758 0.09207,-0.214833 0.08045,-0.164615 0.160131,-0.338641 0.153453,-0.52174 -0.0011,-0.03073 -0.0047,-0.06168 0,-0.09207 0.0084,-0.05463 0.04233,-0.101566 0.06138,-0.153453 0.02501,-0.06814 0.02372,-0.142585 0.03069,-0.214834 0.01718,-0.178041 0.08556,-0.346782 0.122762,-0.521739 0.09177,-0.431612 -0.0088,-0.88405 0.06138,-1.319693 0.01151,-0.07147 0.02763,-0.142507 0.03069,-0.214834 0.0026,-0.06135 -0.0042,-0.122888 0,-0.184143 0.0064,-0.09289 0.03834,-0.182748 0.08311,-0.264392 0.04476,-0.08164 0.102177,-0.155661 0.162418,-0.226656 0.07559,-0.08908 0.156664,-0.174895 0.214834,-0.276215 0.02976,-0.05183 0.05356,-0.107756 0.09207,-0.153453 0.04673,-0.05545 0.113044,-0.09324 0.153452,-0.153453 0.03081,-0.04591 0.04394,-0.100983 0.06138,-0.153452 0.0702,-0.2112401 0.217863,-0.3923243 0.398977,-0.5217394 0.04166,-0.029765 0.08531,-0.057165 0.122763,-0.092072 0.05078,-0.047333 0.08862,-0.1071862 0.117621,-0.1702598 0.029,-0.063074 0.04957,-0.1296312 0.06975,-0.1960538 0.04036,-0.1328452 0.0829,-0.2719278 0.180915,-0.3702593 0.03069,-0.030787 0.06637,-0.057012 0.09207,-0.092072 0.03277,-0.044701 0.04667,-0.1000174 0.06138,-0.1534527 0.08784,-0.3190963 0.227896,-0.6209996 0.368286,-0.9207161 0.110637,-0.236197 0.221892,-0.4721261 0.337596,-0.7058824 0.09745,-0.1968843 0.198093,-0.3922787 0.306905,-0.5831202 0.08171,-0.1433086 0.168023,-0.2840396 0.245525,-0.4296675 0.03224,-0.060588 0.06295,-0.1219951 0.09207,-0.1841432"
     id="path3"
     transform="matrix(0.970299,0,0,0.970299,1.0094921,0.1477074)" />
  <path
     style="opacity:1;fill:none;fill-opacity:1;stroke:#ff7e00;stroke-width:1;stroke-dasharray:none;stroke-opacity:1"
     d="m 27.529412,10.465473 1.71867,1.442455 c 0.01965,0.01175 0.04019,0.02202 0.06138,0.03069 0.09565,0.03915 0.201404,0.04479 0.304758,0.04505 0.103354,2.61e-4 0.207768,-0.0042 0.309053,0.01633 0.108265,0.022 0.208916,0.07194 0.303433,0.129143 0.09452,0.0572 0.184263,0.12209 0.279687,0.177762 0.05139,0.02998 0.104697,0.05739 0.161456,0.07525 0.05676,0.01786 0.11734,0.02594 0.17614,0.01682 0.02815,-0.0044 0.05606,-0.01264 0.08451,-0.01126 0.01423,6.91e-4 0.0285,0.0039 0.04094,0.01083 0.01244,0.0069 0.02294,0.0178 0.028,0.03112 0.0055,0.01447 0.0043,0.03054 0.0023,0.04588 -0.002,0.01534 -0.0048,0.03092 -0.0023,0.04619 0.0018,0.01107 0.0065,0.02159 0.01275,0.0309 0.0063,0.0093 0.0142,0.01743 0.02284,0.02459 0.01729,0.01432 0.03738,0.02477 0.05648,0.03658 0.123461,0.07637 0.201784,0.206783 0.306905,0.306905 0.09994,0.09519 0.225796,0.164546 0.306906,0.276215 0.0516,0.07105 0.0819,0.15519 0.106496,0.239487 0.02459,0.0843 0.04426,0.170344 0.07765,0.251562 0.038,0.09246 0.09302,0.176819 0.13824,0.265974 0.04522,0.08915 0.08125,0.186594 0.07659,0.286455 -0.0019,0.04108 -0.01062,0.08303 0,0.122762 0.0028,0.01042 0.0069,0.02055 0.0082,0.03125 6.66e-4,0.0053 6.22e-4,0.01083 -6.32e-4,0.01607 -0.0013,0.0052 -0.0038,0.01025 -0.0076,0.01406 -0.0038,0.0038 -0.0088,0.0063 -0.01406,0.0076 -0.0052,0.0012 -0.01072,0.0013 -0.01607,6.2e-4 -0.0107,-0.0013 -0.02083,-0.0054 -0.03125,-0.0082 -0.02904,-0.0077 -0.0604,-0.0048 -0.08848,0.0059 -0.02808,0.01067 -0.05297,0.02888 -0.07346,0.05084 -0.04099,0.04392 -0.06401,0.101335 -0.08359,0.158133 -0.02241,0.065 -0.04168,0.131547 -0.07367,0.192402 -0.03199,0.06086 -0.07858,0.116723 -0.141161,0.145194 -0.06629,0.03016 -0.142124,0.02659 -0.214834,0.03069 -0.124371,0.007 -0.24593,0.03801 -0.368287,0.06138 -0.298258,0.05697 -0.608568,0.07019 -0.890025,0.184143 -0.212215,0.08592 -0.399595,0.226102 -0.613811,0.306905 -0.09082,0.03426 -0.185527,0.05746 -0.276215,0.09207 -0.0728,0.02778 -0.142631,0.06278 -0.214833,0.09207 -0.221584,0.0899 -0.460899,0.124519 -0.696566,0.165053 -0.235666,0.04054 -0.47436,0.08913 -0.684509,0.203233 -0.05243,0.02847 -0.102646,0.0608 -0.153452,0.09207 -0.03143,0.01935 -0.06321,0.03837 -0.09207,0.06138 -0.05426,0.04325 -0.09735,0.100382 -0.124039,0.164429 -0.02669,0.06405 -0.03691,0.134878 -0.02941,0.203857 -0.09013,0.06423 -0.182263,0.125646 -0.276214,0.184143 -0.06841,0.0426 -0.140184,0.08591 -0.184144,0.153453 -0.02019,0.03103 -0.03427,0.06686 -0.06138,0.09207 -0.01698,0.01579 -0.03856,0.02658 -0.06138,0.03069"
     id="path4"
     transform="matrix(0.970299,0,0,0.970299,1.0094921,0.1477074)" />
  <path
     style="opacity:1;fill:none;fill-opacity:1;stroke:#ff7e00;stroke-width:1;stroke-dasharray:none;stroke-opacity:1"
     d="M 1.3810742,31.304348 C 1.0909747,30.971253 0.97337437,30.49549 1.0748767,30.065598 1.176379,29.635705 1.494362,29.262789 1.9028133,29.094629 c 0.017368,-0.0072 0.034959,-0.01399 0.051173,-0.02347 0.016214,-0.0095 0.03116,-0.02185 0.040899,-0.03791 0.00595,-0.0098 0.00981,-0.02073 0.014076,-0.03139 0.00427,-0.01066 0.00909,-0.02131 0.016615,-0.02999 0.00761,-0.0088 0.017673,-0.01515 0.028301,-0.01984 0.010628,-0.0047 0.021876,-0.0078 0.033077,-0.01086 0.011201,-0.0031 0.022449,-0.0062 0.033078,-0.01085 0.010629,-0.0047 0.020696,-0.01106 0.028307,-0.01983 0.010702,-0.01234 0.015833,-0.02851 0.019293,-0.04447 0.00346,-0.01596 0.00556,-0.03234 0.011397,-0.0476 0.011059,-0.0289 0.035078,-0.05166 0.062747,-0.06551 0.027669,-0.01385 0.058819,-0.01947 0.089718,-0.02114 0.061798,-0.0033 0.1248073,0.0084 0.1851315,-0.0054 0.063038,-0.01444 0.1162766,-0.05517 0.167831,-0.09421 0.051554,-0.03905 0.1060973,-0.07858 0.1697649,-0.08993 0.01629,-0.0029 0.032914,-0.0039 0.049034,-0.0076 0.016119,-0.0037 0.032144,-0.01061 0.043038,-0.02306 0.00756,-0.0086 0.012189,-0.01942 0.016337,-0.03013 0.00415,-0.01071 0.008,-0.02168 0.014353,-0.03125 0.00662,-0.01 0.015893,-0.01817 0.026601,-0.02352 0.010708,-0.0054 0.022828,-0.0079 0.03478,-0.0072 0.02252,0.01227 0.048758,0.0176 0.074281,0.01509 0.025522,-0.0025 0.050222,-0.01284 0.069923,-0.02926 0.019701,-0.01642 0.034322,-0.03885 0.041391,-0.0635 0.00707,-0.02465 0.00656,-0.05142 -0.00145,-0.07578 -0.00169,-0.0051 -0.00371,-0.01023 -0.00429,-0.0156 -2.894e-4,-0.0027 -2.069e-4,-0.0054 4.612e-4,-0.0081 6.682e-4,-0.0026 0.00194,-0.0051 0.00383,-0.007 0.0019,-0.0019 0.00438,-0.0033 0.007,-0.004 0.00262,-7.11e-4 0.00538,-8.25e-4 0.00808,-5.44e-4 0.0054,5.6e-4 0.010508,0.0026 0.015606,0.0045 0.037491,0.01378 0.07868,0.01677 0.1180476,0.01001 0.039368,-0.0068 0.076887,-0.0231 0.1095379,-0.04611 0.065301,-0.04602 0.1098147,-0.117518 0.1336933,-0.193751 0.047757,-0.152467 0.01741,-0.316604 0.00701,-0.476036 -0.00798,-0.12226 -0.0037,-0.246527 0.028378,-0.364772 0.032082,-0.118245 0.093481,-0.230628 0.1864556,-0.31042 0.011017,-0.0095 0.022618,-0.01862 0.030691,-0.03069 0.00872,-0.01303 0.01278,-0.02878 0.013625,-0.04444 8.45e-4,-0.01566 -0.00137,-0.03133 -0.00436,-0.04672 -0.00598,-0.03079 -0.015095,-0.06217 -0.00926,-0.09298 0.00428,-0.02259 0.016292,-0.04289 0.028704,-0.06225 0.012412,-0.01936 0.025591,-0.03864 0.032677,-0.06052 0.00814,-0.02513 0.00773,-0.05234 0.00355,-0.07841 -0.00419,-0.02608 -0.012022,-0.05141 -0.018585,-0.07699 -0.00656,-0.02558 -0.011894,-0.0518 -0.010904,-0.0782 9.909e-4,-0.02639 0.00879,-0.05322 0.025943,-0.0733 0.00945,-0.01107 0.021353,-0.01972 0.03261,-0.02895 0.011257,-0.0092 0.022199,-0.01944 0.028771,-0.03243 0.00706,-0.01396 0.00853,-0.03016 0.00739,-0.04575 -0.00115,-0.0156 -0.00476,-0.0309 -0.00739,-0.04631 -0.015527,-0.09124 0.00469,-0.187037 0.050185,-0.267638 0.045495,-0.0806 0.1152819,-0.146275 0.1953395,-0.19272 0.039585,-0.02296 0.081598,-0.04138 0.1227622,-0.06138 0.05376,-0.02612 0.1064488,-0.05515 0.1534527,-0.09207 0.049844,-0.03915 0.092565,-0.08656 0.1406338,-0.127864 0.048069,-0.04131 0.103637,-0.07729 0.1662715,-0.08697 0.040512,-0.0063 0.081786,-0.0012 0.1227622,0 0.1611765,0.0047 0.3178741,-0.05013 0.4666062,-0.112415 0.148732,-0.06228 0.2957753,-0.133294 0.4541099,-0.163799 0.1411309,-0.02719 0.2862553,-0.02119 0.4296675,-0.03069 0.1190385,-0.0079 0.2373278,-0.02649 0.3565785,-0.02989 0.1192507,-0.0034 0.2416168,0.0092 0.3493039,0.06058 0.087191,0.04157 0.1610426,0.106622 0.2455243,0.153452 0.107906,0.05981 0.2299827,0.08827 0.350684,0.113819 0.1207013,0.02555 0.2431873,0.0493 0.3551983,0.101015 0.062326,0.02878 0.1206719,0.06591 0.1841432,0.09207 0.1157624,0.04771 0.2445143,0.05694 0.3691686,0.0452 0.1246543,-0.01175 0.2464165,-0.04366 0.3674043,-0.07589 0.20382,-0.05429 0.4074421,-0.10984 0.6138108,-0.153453 0.092295,-0.0195 0.185185,-0.03663 0.2762148,-0.06138 0.2569923,-0.06986 0.4932623,-0.198619 0.7365733,-0.306905 0.08893,-0.03958 0.180079,-0.07681 0.276215,-0.09207 0.131563,-0.02088 0.265766,2.92e-4 0.398976,0 0.07165,-1.57e-4 0.143481,-0.0065 0.214834,0 0.09403,0.0086 0.184388,0.03937 0.276215,0.06138 0.369423,0.08854 0.755686,0.03476 1.13555,0.03069 0.266055,-0.0028 0.532561,0.01898 0.797954,0 0.406778,-0.02908 0.799754,-0.152978 1.196931,-0.245524 0.131281,-0.03059 0.264224,-0.05791 0.398977,-0.06138 0.0716,-0.0018 0.143279,0.0031 0.214834,0 0.295743,-0.0127 0.568534,-0.159515 0.859335,-0.214834 0.373077,-0.07097 0.762713,0.01084 1.13555,-0.06138 0.159875,-0.03097 0.312866,-0.08961 0.469438,-0.134382 0.156572,-0.04477 0.321221,-0.07583 0.481968,-0.04976 0.159927,0.02594 0.305297,0.106488 0.460358,0.153452 0.257911,0.07812 0.53553,0.06149 0.797954,0.122762 0.208191,0.04861 0.40354,0.145509 0.613811,0.184144 0.09115,0.01675 0.183919,0.02231 0.276215,0.03069 0.340134,0.0309 0.675394,0.100427 1.012787,0.153453 0.470336,0.07392 0.946036,0.115957 1.411765,0.214834 0.225785,0.04794 0.448671,0.109124 0.675192,0.153452 0.252995,0.04951 0.509862,0.07784 0.767263,0.09207 0.429172,0.02373 0.859753,0.0084 1.289003,0.03069 0.369089,0.01916 0.736188,0.06608 1.104859,0.09207 0.367742,0.02592 0.737508,0.03096 1.10486,0 0.184271,-0.01553 0.371862,-0.03991 0.552429,0 0.07274,0.01608 0.142816,0.04233 0.214834,0.06138 0.159721,0.04224 0.326343,0.04845 0.491049,0.06138 0.133028,0.01044 0.267962,0.02531 0.398977,0 0.07316,-0.01413 0.143302,-0.0405 0.214833,-0.06138 0.385241,-0.112439 0.79667,-0.06302 1.196931,-0.09207 0.07164,-0.0052 0.144178,-0.0129 0.214834,0 0.08878,0.01621 0.168609,0.06392 0.241454,0.11719 0.07285,0.05327 0.141209,0.113115 0.218904,0.159024 0.113221,0.0669 0.24339,0.102098 0.374392,0.11364 0.131002,0.01154 0.263159,9.1e-5 0.392872,-0.02157 0.313481,-0.05235 0.613659,-0.163507 0.920716,-0.245524 0.112707,-0.03011 0.226545,-0.05634 0.337596,-0.09207 0.314903,-0.101333 0.602613,-0.277494 0.920716,-0.368286 0.271793,-0.07757 0.557418,-0.09179 0.84005,-0.09462 0.282632,-0.0028 0.565282,0.0026 0.847929,0.0026 h 1.780051 c 0.232238,0 0.46478,0.01524 0.692876,0.0589 0.228097,0.04366 0.456379,0.10848 0.688199,0.09455 0.03071,-0.0018 0.06173,-0.0051 0.09207,0 0.05242,0.0089 0.09722,0.04169 0.139242,0.07426 0.04202,0.03257 0.08528,0.06676 0.136973,0.0792 0.03555,0.0086 0.07266,0.0062 0.109226,0.0067 0.03656,5.3e-4 0.07464,0.0045 0.105608,0.02399 0.02461,0.01546 0.04252,0.03927 0.06138,0.06138 0.137208,0.160833 0.343499,0.247575 0.491048,0.398977 0.03896,0.03998 0.07391,0.08454 0.119005,0.117438 0.02255,0.01645 0.04761,0.02984 0.0746,0.03692 0.027,0.0071 0.05603,0.0076 0.08261,-9.05e-4 0.0051,-0.0017 0.01023,-0.0036 0.01559,-0.0042 0.0027,-2.86e-4 0.0054,-2.08e-4 0.008,4.47e-4 0.0026,6.55e-4 0.0051,0.0019 0.0071,0.0038 0.002,0.0019 0.0033,0.0044 0.0041,0.007 7.42e-4,0.0026 8.73e-4,0.0054 5.85e-4,0.0081 -5.75e-4,0.0054 -0.0028,0.01056 -0.0049,0.0156 -0.0022,0.005 -0.0043,0.01018 -0.0048,0.01563 -2.42e-4,0.0027 -5.3e-5,0.0055 7.54e-4,0.0081 8.07e-4,0.0026 0.0022,0.0051 0.0043,0.0069 0.002,0.0018 0.0045,0.0029 0.0071,0.0035 0.0026,5.74e-4 0.0053,5.88e-4 0.008,2.76e-4 0.0053,-6.23e-4 0.01038,-0.0025 0.01558,-0.0038 0.01181,-0.0029 0.02434,-0.0025 0.03609,6.35e-4 0.01175,0.0031 0.02274,0.0089 0.03233,0.01634 0.01918,0.01494 0.0325,0.03633 0.04165,0.05886 0.01829,0.04506 0.02131,0.09567 0.04339,0.138996 0.01325,0.02601 0.03288,0.04831 0.05448,0.06796 0.0216,0.01964 0.04526,0.03685 0.06828,0.0548 0.183591,0.143124 0.325376,0.332082 0.460358,0.521739 0.08901,0.125069 0.176285,0.251754 0.276215,0.368286 0.113124,0.131918 0.241683,0.249898 0.355588,0.381143 0.113906,0.131244 0.214583,0.279291 0.258223,0.447502 0.05416,0.208754 0.01643,0.429308 0.03069,0.644501 0.01235,0.18639 0.06372,0.367795 0.09207,0.55243 0.03635,0.236722 0.03579,0.482734 0.122762,0.705882 0.0652,0.167289 0.176821,0.313021 0.302808,0.440944 0.125986,0.127923 0.266993,0.239883 0.403075,0.35701 0.08242,0.07094 0.163127,0.143861 0.245524,0.214834 0.03882,0.03344 0.07829,0.06663 0.122762,0.09207 0.08162,0.04668 0.1767,0.06513 0.270613,0.06963 0.09391,0.0045 0.187883,-0.0042 0.281817,-0.0083 0.02953,-0.0013 0.05966,-0.002 0.08801,0.0063 0.01418,0.0042 0.02777,0.01065 0.03931,0.01989 0.01153,0.0092 0.02095,0.02131 0.02613,0.03515 0.0081,0.02153 0.0053,0.04629 -0.005,0.06683 -0.0103,0.02055 -0.02761,0.03706 -0.0473,0.04891 -0.03939,0.0237 -0.08665,0.02909 -0.131803,0.03771 -0.158051,0.03017 -0.303927,0.105003 -0.442057,0.187529 -0.13813,0.08253 -0.271558,0.173903 -0.417278,0.242139 -0.126417,0.0592 -0.26119,0.100391 -0.398977,0.122762 -0.296587,0.04815 -0.602437,0.0085 -0.890445,-0.07716 -0.288008,-0.08564 -0.560484,-0.216138 -0.828225,-0.35251 -0.336323,-0.171303 -0.673507,-0.354976 -1.043478,-0.429667 -0.311913,-0.06297 -0.633593,-0.04559 -0.951407,-0.06138 -0.214894,-0.01068 -0.429424,-0.03663 -0.644501,-0.03069 -0.392248,0.01084 -0.774717,0.127296 -1.166241,0.153453 -0.173601,0.0116 -0.347834,0.0054 -0.521739,0 -0.439808,-0.01355 -0.880197,-0.02141 -1.319693,0 -0.666232,0.03245 -1.328206,0.132054 -1.994885,0.153453 -0.531898,0.01707 -1.063947,-0.01572 -1.595908,-0.03069 -0.787461,-0.02216 -1.575416,-0.0053 -2.363171,0 -0.859433,0.0057 -1.719019,-0.0024 -2.578005,-0.03069 -0.654791,-0.02158 -1.311349,-0.05486 -1.964195,0 -0.503306,0.04229 -1.000987,0.136724 -1.503836,0.184143 -1.059764,0.09994 -2.128126,-0.0099 -3.191816,0.03069 -0.225136,0.0086 -0.449993,0.02394 -0.675192,0.03069 -0.644324,0.0193 -1.289677,-0.03184 -1.933503,0 -0.163804,0.0081 -0.327299,0.02157 -0.491049,0.03069 -0.653861,0.03642 -1.309329,0.0035 -1.964194,0 -0.327364,-0.0017 -0.654751,0.0039 -0.982097,0 -0.389383,-0.0046 -0.778757,-0.0227 -1.166241,-0.06138 -0.224914,-0.02245 -0.449361,-0.05185 -0.675192,-0.06138 -0.470469,-0.01985 -0.943195,0.04667 -1.411764,0 -0.499484,-0.04975 -0.977684,-0.226425 -1.4731463,-0.306905 -0.7079981,-0.115003 -1.4310603,-0.03119 -2.1483376,-0.03069 -0.3278702,2.3e-4 -0.6577006,-0.01691 -0.9820972,0.03069 -0.1747585,0.02564 -0.3465045,0.06991 -0.5217391,0.09207 -0.3454533,0.04368 -0.6965782,5.85e-4 -1.0434783,0.03069 -0.2567571,0.02228 -0.5096511,0.08455 -0.7672634,0.09207 -0.092038,0.0027 -0.1841522,-0.0016 -0.2762148,0 -0.2317474,0.0041 -0.4609621,0.04597 -0.6915306,0.06968 -0.2305684,0.02371 -0.4678534,0.02867 -0.6895436,-0.03899 -0.077976,-0.0238 -0.1539886,-0.05654 -0.2348703,-0.06677 -0.040441,-0.0051 -0.081967,-0.0044 -0.1214019,0.0059 -0.039435,0.01032 -0.076745,0.03064 -0.1040859,0.06088 -0.00974,0.01077 -0.018415,0.02293 -0.03069,0.03069 -0.00987,0.0062 -0.021602,0.0092 -0.033277,0.0095 -0.011675,2.95e-4 -0.023314,-0.002 -0.034374,-0.0058 -0.02212,-0.0075 -0.041852,-0.02056 -0.06265,-0.03119 -0.020797,-0.01063 -0.043931,-0.01904 -0.067101,-0.01609 -0.011585,0.0015 -0.022922,0.0059 -0.031808,0.01349 -0.00889,0.0076 -0.01516,0.01842 -0.016315,0.03004 -0.00101,0.0102 0.00182,0.0206 0,0.03069 -0.00108,0.006 -0.00381,0.01164 -0.00765,0.01636 -0.00384,0.0047 -0.00878,0.0085 -0.014235,0.0112 -0.010912,0.0054 -0.023666,0.0063 -0.035652,0.0042 -0.023972,-0.0042 -0.044245,-0.01943 -0.065225,-0.03176 -0.064871,-0.03814 -0.1445057,-0.05036 -0.2178286,-0.03344 -0.073323,0.01692 -0.139548,0.0628 -0.1811484,0.12551 z"
     id="path5"
     transform="matrix(0.970299,0,0,0.970299,1.0094921,0.1477074)" />
  <path
     style="opacity:1;fill:none;fill-opacity:1;stroke:#ff7e00;stroke-width:1;stroke-dasharray:none;stroke-opacity:1"
     d="m 1.1969309,31.396419 c -0.23125082,0.340379 -0.38929787,0.730229 -0.46035801,1.13555 -0.0195425,0.111469 -0.0326095,0.224443 -0.0306905,0.337596 0.00289,0.1704 0.0403315,0.34058 0.11313317,0.494673 0.0728017,0.154092 0.18119744,0.291774 0.31653434,0.395353 0.01158,0.0089 0.023713,0.01788 0.03069,0.03069 0.00784,0.01439 0.00809,0.03189 0.00465,0.04791 -0.00344,0.01603 -0.010286,0.03108 -0.01613,0.04639 -0.00584,0.01532 -0.010779,0.03139 -0.010119,0.04777 3.3e-4,0.0082 0.00209,0.01637 0.00567,0.02375 0.00358,0.0074 0.00902,0.01391 0.015929,0.01832 0.00994,0.0063 0.02205,0.0079 0.033413,0.01105 0.00568,0.0016 0.0113,0.0036 0.01628,0.0067 0.00498,0.0032 0.00931,0.0075 0.011688,0.01292 0.00209,0.0048 0.00258,0.01009 0.00227,0.01528 -3.067e-4,0.0052 -0.00137,0.0103 -0.00227,0.01541 -0.012447,0.07079 0.00787,0.145325 0.048593,0.204556 0.040719,0.05923 0.1005922,0.103775 0.1662411,0.13304 0.1222953,0.05452 0.2604589,0.05724 0.3913207,0.08559 0.065431,0.01417 0.1301762,0.03524 0.186741,0.07105 0.056565,0.03581 0.1047049,0.08743 0.1278207,0.150262 0.014575,0.03961 0.018874,0.08224 0.03069,0.122762 0.031928,0.109494 0.1187649,0.198006 0.2213877,0.247774 0.1026227,0.04977 0.2196891,0.06378 0.33357,0.0575 0.2277618,-0.01257 0.4453208,-0.102457 0.6726638,-0.121128 0.3515405,-0.02887 0.6930376,0.113383 1.0434783,0.153453 0.2853555,0.03263 0.5734687,-0.0029 0.859335,-0.03069 0.3876082,-0.03769 0.7768039,-0.06121 1.1662404,-0.06138 0.2468534,-1.05e-4 0.4952628,0.0094 0.7365729,0.06138 0.2378265,0.05127 0.4660451,0.143303 0.7058824,0.184144 0.2740559,0.04667 0.5562723,0.02497 0.8286445,-0.03069 0.2699469,-0.05516 0.5319291,-0.143105 0.7979539,-0.214834 0.1126276,-0.03037 0.2260765,-0.05786 0.3375959,-0.09207 0.2599222,-0.07975 0.5076422,-0.195493 0.7672632,-0.276215 0.268761,-0.08356 0.548266,-0.128902 0.828645,-0.153453 0.08223,-0.0072 0.164966,-0.01269 0.245524,-0.03069 0.202486,-0.04526 0.381198,-0.167125 0.58312,-0.214834 0.169926,-0.04015 0.347203,-0.02581 0.52174,-0.03069 0.04093,-0.0011 0.08196,-0.0034 0.122762,0 0.08106,0.0067 0.159203,0.03529 0.23046,0.07451 0.07126,0.03922 0.136175,0.08892 0.199207,0.140327 0.140639,0.114704 0.273442,0.238946 0.417073,0.349882 0.14363,0.110936 0.299901,0.209252 0.472953,0.263929 0.265669,0.08394 0.551863,0.06015 0.828644,0.09207 0.281294,0.03244 0.552287,0.122463 0.828645,0.184144 0.474607,0.105928 0.963986,0.128001 1.442455,0.214833 0.246778,0.04478 0.490158,0.106711 0.736573,0.153453 0.586399,0.111233 1.185165,0.135695 1.780051,0.184143 0.523716,0.04265 1.045902,0.104085 1.565217,0.184144 0.573154,-0.03235 1.149284,-0.01177 1.71867,0.06138 0.163625,0.02102 0.326763,0.04638 0.491049,0.06138 0.183679,0.01677 0.368266,0.02055 0.55243,0.03069 0.409312,0.02254 0.817971,0.07659 1.227621,0.06138 0.471832,-0.01752 0.940888,-0.126812 1.411765,-0.09207 0.28421,0.02097 0.561755,0.09403 0.843496,0.136892 0.28174,0.04286 0.57723,0.05413 0.844483,-0.04482 0.08204,-0.03037 0.160651,-0.07087 0.245525,-0.09207 0.07024,-0.01754 0.143036,-0.02142 0.214834,-0.03069 0.367023,-0.04738 0.698934,-0.233233 1.043478,-0.368286 0.179597,-0.0704 0.367792,-0.129287 0.521739,-0.245525 0.0905,-0.06833 0.165927,-0.154206 0.24653,-0.233977 0.0806,-0.07977 0.169242,-0.1553 0.275209,-0.19569 0.07722,-0.02943 0.160723,-0.03898 0.243353,-0.03999 0.08263,-0.001 0.165115,0.0063 0.247696,0.0093 0.317803,0.0117 0.634161,-0.03922 0.951406,-0.06138 0.418605,-0.02924 0.839281,-0.0084 1.258312,-0.03069 0.255746,-0.01362 0.511468,-0.04333 0.767264,-0.03069 0.21559,0.01065 0.428883,0.05131 0.644501,0.06138 0.296555,0.01385 0.594698,-0.03029 0.890026,0 0.08205,0.0084 0.163444,0.02255 0.245524,0.03069 0.377222,0.03742 0.76009,-0.05222 1.13555,0 0.113302,0.01576 0.224488,0.04429 0.337596,0.06138 0.364668,0.0551 0.736189,-0.01005 1.104859,0 0.163956,0.0045 0.327176,0.02382 0.491049,0.03069 0.337425,0.01414 0.675972,-0.02472 1.012787,0 0.153738,0.01128 0.31037,0.03558 0.460358,0 0.04106,-0.0097 0.08111,-0.0239 0.122763,-0.03069 0.09849,-0.01606 0.198234,0.0099 0.297183,0.02276 0.04948,0.0065 0.09979,0.0097 0.149198,0.0027 0.04941,-0.0069 0.09813,-0.02455 0.136739,-0.05615 0.01121,-0.0092 0.02151,-0.01948 0.03069,-0.03069 0.02891,-0.01479 0.06007,-0.02518 0.09207,-0.03069 0.06064,-0.01044 0.122702,-0.0033 0.184143,0 0.133338,0.0072 0.268529,-0.0037 0.396283,-0.04254 0.127754,-0.03887 0.247985,-0.106487 0.34029,-0.202983 0.04009,-0.04191 0.07529,-0.08945 0.122762,-0.122762 0.03752,-0.02633 0.08098,-0.04254 0.122762,-0.06138 0.271151,-0.122267 0.479796,-0.365582 0.583121,-0.644501 0.01916,-0.05172 0.03509,-0.104974 0.06138,-0.153453 0.04884,-0.09007 0.130419,-0.158279 0.184143,-0.245524 0.04468,-0.07256 0.06853,-0.155611 0.09603,-0.236267 0.0275,-0.08066 0.0604,-0.162034 0.118803,-0.224091 0.01984,-0.02108 0.04233,-0.03959 0.06138,-0.06138 0.03992,-0.04565 0.06315,-0.104241 0.07297,-0.164079 0.0098,-0.05984 0.0068,-0.121128 -9.94e-4,-0.181258 -0.01567,-0.120261 -0.05067,-0.239632 -0.04129,-0.360545 0.004,-0.0521 0.01631,-0.103218 0.03069,-0.153453 0.03039,-0.106127 0.07056,-0.209636 0.122762,-0.306905 0.01082,-0.02017 0.02219,-0.04013 0.03069,-0.06138 0.02683,-0.0671 0.02333,-0.142212 0.01456,-0.213938 -0.0088,-0.07173 -0.02244,-0.143901 -0.01456,-0.21573 0.0082,-0.07507 0.03963,-0.145691 0.05304,-0.220006 0.0067,-0.03716 0.0089,-0.07559 0.0012,-0.112575 -0.0076,-0.03698 -0.02559,-0.07253 -0.05427,-0.09709 -0.01755,-0.01502 -0.03883,-0.02566 -0.06138,-0.03069"
     id="path6"
     transform="matrix(0.970299,0,0,0.970299,1.0094921,0.1477074)" />
  <metadata
     id="metadata6">
    <rdf:RDF>
      <cc:Work
         rdf:about="">
        <dc:title>notebook</dc:title>
      </cc:Work>
    </rdf:RDF>
  </metadata>
</svg>
