<?xml version="1.0" encoding="UTF-8" standalone="no"?>
<svg
   width="10px"
   height="6px"
   viewBox="0 0 10 6"
   version="1.1"
   id="svg1"
   sodipodi:docname="ico_angle_light.svg"
   inkscape:version="1.3.2 (091e20e, 2023-11-25, custom)"
   xmlns:inkscape="http://www.inkscape.org/namespaces/inkscape"
   xmlns:sodipodi="http://sodipodi.sourceforge.net/DTD/sodipodi-0.dtd"
   xmlns="http://www.w3.org/2000/svg"
   xmlns:svg="http://www.w3.org/2000/svg">
  <sodipodi:namedview
     id="namedview1"
     pagecolor="#ffffff"
     bordercolor="#000000"
     borderopacity="0.25"
     inkscape:showpageshadow="2"
     inkscape:pageopacity="0.0"
     inkscape:pagecheckerboard="0"
     inkscape:deskcolor="#d1d1d1"
     inkscape:zoom="144.6"
     inkscape:cx="5"
     inkscape:cy="2.9979253"
     inkscape:window-width="2560"
     inkscape:window-height="1369"
     inkscape:window-x="-8"
     inkscape:window-y="-8"
     inkscape:window-maximized="1"
     inkscape:current-layer="svg1" />
  <!-- Generator: Sketch 49 (51002) - http://www.bohemiancoding.com/sketch -->
  <title
     id="title1">keyboard_arrow_down - material</title>
  <desc
     id="desc1">Created with Sketch.</desc>
  <defs
     id="defs1">
    <inkscape:path-effect
       effect="spiro"
       id="path-effect1"
       is_visible="true"
       lpeversion="1" />
  </defs>
  <path
     style="fill:none;stroke:#ffffff;stroke-width:1.279;stroke-dasharray:none;stroke-opacity:1"
     d="m 0.29737206,0.85062241 c 0.11532827,0.0108342 0.23059153,0.0223606 0.34578147,0.0345781 0.0318152,0.003374 0.0638926,0.006857 0.0943236,0.0167339 0.030431,0.009877 0.0594833,0.0267436 0.0785672,0.0524224 0.0124795,0.0167921 0.0202224,0.0366413 0.0260034,0.0567483 0.005781,0.020107 0.00974,0.040702 0.0154904,0.060817 0.0308296,0.1078422 0.11050838,0.1944106 0.19363764,0.2697096 0.068897,0.062407 0.1423393,0.1205445 0.2022516,0.1916214 0.059912,0.071077 0.106304,0.1580575 0.1089517,0.2509789 0.00242,0.08479 -0.031254,0.1658913 -0.048409,0.2489626 -0.023962,0.1160348 -0.015723,0.2370507 -0.041494,0.3526971 -0.016071,0.072118 -0.045036,0.1406141 -0.067697,0.21094 -0.022662,0.070326 -0.039162,0.1446274 -0.029122,0.217829 0.00875,0.063767 0.037171,0.1233468 0.048409,0.186722 0.013725,0.077399 0.00135,0.1575229 0.013831,0.2351314 0.0137,0.085157 0.056728,0.1636104 0.069156,0.2489627 0.003,0.020635 0.00417,0.04181 0,0.062241 -0.00704,0.034493 -0.028555,0.064079 -0.041494,0.096819 -0.016094,0.040724 -0.018567,0.086211 -0.010251,0.1292027 0.00832,0.042992 0.027101,0.083564 0.051745,0.1197599 0.073848,0.108467 0.1956545,0.1741715 0.318119,0.2213001 0.2000908,0.077002 0.4125756,0.1150531 0.6224066,0.1590595 0.066814,0.014012 0.1335008,0.028668 0.2005533,0.041494 0.030229,0.00578 0.060637,0.011219 0.089903,0.020747 0.080697,0.026273 0.1479361,0.081821 0.2213001,0.1244813 0.050841,0.029564 0.1049341,0.053067 0.1590595,0.076072 0.2023621,0.086012 0.4084595,0.1667226 0.5947441,0.2835408 0.1045953,0.065591 0.2023813,0.1422425 0.3112033,0.2005533 0.049505,0.026526 0.1011438,0.049171 0.1489922,0.07858 0.047848,0.029409 0.092496,0.0665 0.1207174,0.115058 0.013545,0.023306 0.023337,0.049231 0.041494,0.069156 0.00392,0.0043 0.0082,0.00828 0.011986,0.012703 0.00379,0.00442 0.00712,0.00937 0.00876,0.014959 0.00263,0.00897 6.904e-4,0.018548 -9.5e-4,0.027747 -8.202e-4,0.0046 -0.00156,0.00924 -0.00161,0.013908 -4.33e-5,0.00467 6.368e-4,0.00941 0.00256,0.01367 0.00282,0.00627 0.00807,0.011039 0.012595,0.016217 0.00226,0.00259 0.00438,0.00534 0.00591,0.00842 0.00153,0.00308 0.00246,0.00651 0.00224,0.00994 -1.103e-4,0.00175 -5.118e-4,0.00346 -7.883e-4,0.00518 -2.766e-4,0.00173 -4.264e-4,0.00351 -3.64e-5,0.00521 1.951e-4,8.523e-4 5.262e-4,0.00168 0.00102,0.0024 4.913e-4,7.233e-4 0.00115,0.00134 0.00192,0.00175 7.744e-4,4.057e-4 0.00167,5.923e-4 0.00254,4.801e-4 8.67e-4,-1.123e-4 0.0017,-5.316e-4 0.00227,-0.00119 3.948e-4,-4.585e-4 6.588e-4,-0.00102 8.003e-4,-0.00161 1.415e-4,-5.882e-4 1.633e-4,-0.0012 1.069e-4,-0.0018 -1.128e-4,-0.0012 -5.311e-4,-0.00236 -9.072e-4,-0.00351 -0.0041,-0.012552 -0.0034,-0.026279 -2.507e-4,-0.039104 0.00315,-0.012825 0.00864,-0.024936 0.014082,-0.036968 C 4.249672,5.2173049 4.3005356,5.1018803 4.3637621,4.9930844 4.4949283,4.7673826 4.6768969,4.5746527 4.8755187,4.4052559 5.0022541,4.2971682 5.1363709,4.1977367 5.2766252,4.1078838 c 0.054487,-0.014501 0.1050719,-0.043406 0.1452282,-0.082987 0.00464,-0.00458 0.00915,-0.00929 0.013831,-0.013831 0.053197,-0.051571 0.1266332,-0.077736 0.1999405,-0.088485 0.073307,-0.010749 0.1478263,-0.00751 0.2219129,-0.00833 0.1993556,-0.00222 0.3985039,-0.034339 0.5878285,-0.096819 C 6.6083079,3.7636543 6.7635556,3.6876188 6.9087137,3.5961272 7.0089422,3.5329542 7.1066578,3.4601477 7.1715076,3.3609959 7.2257829,3.2780118 7.2540814,3.1811525 7.2959889,3.0912863 7.3396715,2.9976137 7.3985202,2.9111197 7.4688797,2.835408 7.5321762,2.7672965 7.6047829,2.7077407 7.6625173,2.6348548 c 0.021472,-0.027107 0.04075,-0.055895 0.062241,-0.082988 0.032485,-0.040952 0.069826,-0.077784 0.1037344,-0.1175657 0.048461,-0.056856 0.089669,-0.1194453 0.1346517,-0.1790912 0.044982,-0.059646 0.094511,-0.1170646 0.1558047,-0.1597746 0.063538,-0.044274 0.1372411,-0.071095 0.2074689,-0.1037345 0.086683,-0.040288 0.1692549,-0.090188 0.242047,-0.1521438 0.1655277,-0.1408852 0.2761996,-0.3446222 0.3042877,-0.560166 0.027183,-0.069153 0.059577,-0.1362563 0.096819,-0.2005532 0.013738,-0.023718 0.028179,-0.047143 0.039009,-0.072322 0.010829,-0.0251786 0.017994,-0.052465 0.016316,-0.0798224 -5.862e-4,-0.00956 -0.00224,-0.0190705 -0.00202,-0.0286454 1.132e-4,-0.004787 7.045e-4,-0.009587 0.00211,-0.0141647 0.00141,-0.004578 0.00365,-0.008936 0.00683,-0.0125149 0.00401,-0.004516 0.00935,-0.007631 0.013771,-0.0117545 0.00221,-0.002062 0.0042,-0.004403 0.00554,-0.007114 0.00133,-0.002711 0.00198,-0.005821 0.00144,-0.008794 -4.419e-4,-0.002452 -0.00165,-0.00471 -0.00214,-0.007154 -2.419e-4,-0.001222 -2.961e-4,-0.002501 2.48e-5,-0.003704 3.21e-4,-0.001204 0.00105,-0.002328 0.00211,-0.002973 0.00101,-6.1344e-4 0.00225,-7.5532e-4 0.00343,-6.5897e-4 0.00118,9.635e-5 0.00233,4.1339e-4 0.00349,6.5897e-4 0.00946,0.002004 0.019835,-0.001073 0.02667,-0.007908 0.00683,-0.006835 0.00991,-0.0172142 0.00791,-0.02667"
     id="path1"
     inkscape:path-effect="#path-effect1"
     inkscape:original-d="m 0.29737206,0.85062241 c 0.21876491,0.007292 0.16387243,-0.005846 0.34578147,0.0345781 0.0686822,0.0152627 0.12240689,0.0186725 0.17289073,0.0691563 0.0283966,0.0283966 0.0236545,0.0887926 0.0414938,0.11756569 C 0.91585666,1.1659845 0.9814971,1.2556458 1.0511757,1.3416321 1.1733148,1.492357 1.3345237,1.5706751 1.362379,1.7842324 1.374982,1.8808534 1.339472,1.928635 1.31397,2.033195 1.285453,2.1501136 1.292817,2.267913 1.272476,2.3858921 1.247549,2.530466 1.1652044,2.6630957 1.175657,2.8146611 c 0.011216,0.1626343 0.022205,0.04522 0.048409,0.186722 0.014465,0.078109 -0.00171,0.157407 0.013831,0.2351314 0.017195,0.085973 0.061786,0.1605209 0.069156,0.2489627 0.00172,0.020675 0.00596,0.042369 0,0.062241 -0.014511,0.048371 -0.034478,0.040693 -0.041494,0.096819 -0.01068,0.085439 0.0031,0.1721672 0.041494,0.2489626 0.064645,0.1292891 0.1853307,0.1770374 0.318119,0.2213001 0.2655653,0.088522 0.3474459,0.1004012 0.6224066,0.1590595 0.066765,0.014243 0.1338017,0.02719 0.2005533,0.041494 0.030073,0.00644 0.061485,0.00899 0.089903,0.020747 0.078205,0.032361 0.1459895,0.08586 0.2213001,0.1244813 0.052296,0.026818 0.1056973,0.051443 0.1590595,0.076072 0.1992725,0.091972 0.4035762,0.1748375 0.5947441,0.2835408 0.1268967,0.072157 0.1905371,0.1232031 0.3112033,0.2005533 0.098455,0.063112 0.1831851,0.114979 0.2697096,0.1936376 0.024784,0.022531 0.022652,0.039009 0.041494,0.069156 0.00611,0.00977 0.015592,0.017353 0.020747,0.027662 0.00653,0.013062 -0.00417,0.042805 0,0.055325 0.00425,0.012752 0.014078,0.022908 0.020747,0.034578 0.00256,0.00448 0.00327,0.010186 0.00692,0.013831 0.00163,0.00163 -3.789e-4,-0.00464 0,-0.00692 0.00424,-0.025422 0.00836,-0.050887 0.013831,-0.076072 C 4.2259482,5.2024088 4.2830018,5.0992692 4.3637621,4.9930844 4.533665,4.7696936 4.6724148,4.5929731 4.8755187,4.4052559 5.0223691,4.2695305 5.1152336,4.2102297 5.2766252,4.1078838 c 0.038032,-0.046127 0.097948,-0.053437 0.1452282,-0.082987 0.00553,-0.00346 0.0079,-0.011133 0.013831,-0.013831 0.1303136,-0.059233 0.2834939,-0.074437 0.4218534,-0.096819 0.1303186,-0.021081 0.477406,-0.0771 0.5878285,-0.096819 C 6.6174757,3.7866936 6.76502,3.6909651 6.9087137,3.5961272 7.0622075,3.4948213 7.0719552,3.4967491 7.1715076,3.3609959 7.2395884,3.2681583 7.2440511,3.1890516 7.2959889,3.0912863 7.3369116,3.0142554 7.4142784,2.9009295 7.4688797,2.835408 7.691843,2.567852 7.479322,2.8442208 7.6625173,2.6348548 7.6852872,2.6088321 7.702712,2.578506 7.724758,2.5518672 7.758079,2.5116043 7.7942639,2.4737959 7.8284924,2.4343015 7.9235248,2.3246488 8.0020769,2.1818193 8.1189488,2.0954357 c 0.1067808,-0.078925 0.080511,-0.040255 0.2074689,-0.1037345 0.051491,-0.025745 0.1946189,-0.111742 0.242047,-0.1521438 0.168037,-0.1431426 0.2181303,-0.368705 0.3042877,-0.560166 0.067908,-0.127327 0.043418,-0.074334 0.096819,-0.2005532 0.023125,-0.05466 0.042599,-0.0948749 0.055325,-0.15214387 0.00403,-0.0181426 0.00104,-0.0376936 0.00692,-0.055325 0.00364,-0.0109346 0.015592,-0.0173533 0.020747,-0.0276625 0.00206,-0.004124 -0.00206,-0.009708 0,-0.0138313 0.00103,-0.002062 0.005,0.001279 0.00692,0 0.017391,-0.0115938 0.01586,-0.025219 0.034578,-0.0345781"
     transform="translate(0.06224066,-0.13139696)" />
</svg>
