<?xml version="1.0" encoding="UTF-8" standalone="no"?>
<svg
   width="40px"
   height="25px"
   viewBox="0 0 40 25"
   version="1.1"
   id="svg1"
   sodipodi:docname="ico_spread.svg"
   inkscape:version="1.3.2 (091e20e, 2023-11-25, custom)"
   xmlns:inkscape="http://www.inkscape.org/namespaces/inkscape"
   xmlns:sodipodi="http://sodipodi.sourceforge.net/DTD/sodipodi-0.dtd"
   xmlns="http://www.w3.org/2000/svg"
   xmlns:svg="http://www.w3.org/2000/svg">
  <sodipodi:namedview
     id="namedview1"
     pagecolor="#ffffff"
     bordercolor="#000000"
     borderopacity="0.25"
     inkscape:showpageshadow="2"
     inkscape:pageopacity="0.0"
     inkscape:pagecheckerboard="0"
     inkscape:deskcolor="#d1d1d1"
     inkscape:zoom="36.15"
     inkscape:cx="20"
     inkscape:cy="12.489627"
     inkscape:window-width="2560"
     inkscape:window-height="1369"
     inkscape:window-x="-8"
     inkscape:window-y="-8"
     inkscape:window-maximized="1"
     inkscape:current-layer="svg1" />
  <!-- Generator: Sketch 49 (51002) - http://www.bohemiancoding.com/sketch -->
  <title
     id="title1">spread icon</title>
  <desc
     id="desc1">Created with Sketch.</desc>
  <defs
     id="defs1">
    <inkscape:path-effect
       effect="spiro"
       id="path-effect9"
       is_visible="true"
       lpeversion="1" />
    <inkscape:path-effect
       effect="spiro"
       id="path-effect8"
       is_visible="true"
       lpeversion="1" />
    <inkscape:path-effect
       effect="spiro"
       id="path-effect7"
       is_visible="true"
       lpeversion="1" />
    <inkscape:path-effect
       effect="spiro"
       id="path-effect6"
       is_visible="true"
       lpeversion="1" />
    <inkscape:path-effect
       effect="spiro"
       id="path-effect5"
       is_visible="true"
       lpeversion="1" />
    <inkscape:path-effect
       effect="spiro"
       id="path-effect4"
       is_visible="true"
       lpeversion="1" />
    <inkscape:path-effect
       effect="spiro"
       id="path-effect3"
       is_visible="true"
       lpeversion="1" />
    <inkscape:path-effect
       effect="spiro"
       id="path-effect2"
       is_visible="true"
       lpeversion="1" />
    <inkscape:path-effect
       effect="spiro"
       id="path-effect1"
       is_visible="true"
       lpeversion="1" />
  </defs>
  <path
     style="fill:none;stroke:#ff9500;stroke-width:1.079;stroke-opacity:1"
     d="m 3.6237898,13.471646 c -0.2583938,0.581599 -0.4713334,1.183385 -0.6362379,1.798064 -0.030273,0.112843 -0.059261,0.227025 -0.1106501,0.33195 -0.088578,0.180856 -0.2397101,0.324893 -0.4070186,0.436977 -0.1673084,0.112084 -0.3518721,0.195278 -0.533507,0.282248 -0.061172,0.02929 -0.1227997,0.05931 -0.1889852,0.07412 -0.066186,0.01481 -0.138469,0.01316 -0.19829,-0.0188 -0.036387,-0.01944 -0.066656,-0.04932 -0.089378,-0.08376 -0.022721,-0.03443 -0.038122,-0.07333 -0.048413,-0.113283 -0.020583,-0.0799 -0.02102,-0.163358 -0.028184,-0.245554 C 1.3531376,15.589566 1.2055528,15.268598 1.1065007,14.937759 1.0576916,14.774734 1.020458,14.60822 0.99585062,14.439834 0.95973429,14.192693 0.95089202,13.942497 0.94052559,13.692946 0.8853787,12.365398 0.78562627,11.03629 0.85753804,9.7095436 0.87307515,9.4228896 0.89621827,9.1313093 0.82987554,8.8520055 0.79765259,8.7163464 0.74467281,8.5856315 0.72274917,8.4479324 c -0.0109618,-0.06885 -0.0139933,-0.1394587 -0.002476,-0.2082175 0.0115172,-0.068759 0.0380698,-0.135739 0.08194,-0.1899224 0.0686225,-0.084755 0.17307635,-0.1317694 0.2766252,-0.1659751 0.2224026,-0.073467 0.4575265,-0.1013069 0.6915629,-0.11065 0.1481253,-0.00591 0.2978748,-0.00444 0.4426003,0.027662 0.2290632,0.05081 0.4361952,0.1768419 0.612084,0.3321313 0.1758887,0.1552895 0.3233147,0.3397275 0.4667542,0.5254067 0.095865,0.1240946 0.1907462,0.2497518 0.2668116,0.3868778 0.076065,0.137126 0.1331699,0.2869022 0.1481261,0.4429977 0.01056,0.1102127 1.34e-5,0.2212328 0,0.3319502 -2.79e-5,0.2309099 0.045776,0.4613659 0.027662,0.6915639 -0.01392,0.176903 -0.065304,0.34902 -0.082988,0.525587 -0.020379,0.203478 0.00433,0.408354 0.014787,0.612583 0.010456,0.204228 0.0056,0.414604 -0.070113,0.604568 -0.00711,0.01784 -0.014839,0.03548 -0.020427,0.05385 -0.00559,0.01838 -0.00901,0.03767 -0.00724,0.0568 0.00236,0.02544 0.013718,0.04914 0.026262,0.0714 0.012543,0.02226 0.026555,0.04395 0.035064,0.06804 0.00425,0.01205 0.00709,0.02467 0.00748,0.03744 3.818e-4,0.01277 -0.00175,0.02571 -0.00706,0.03733 -0.00531,0.01162 -0.013879,0.02187 -0.024865,0.02839 -0.010986,0.0065 -0.024411,0.0091 -0.036881,0.0064 -0.00472,-0.0011 -0.00928,-0.0028 -0.014077,-0.0035 -0.0024,-3.13e-4 -0.00485,-3.27e-4 -0.00722,1.96e-4 -0.00236,5.22e-4 -0.00463,0.0016 -0.00637,0.0033 -0.00175,0.0017 -0.00292,0.0039 -0.00351,0.0063 -5.898e-4,0.0024 -6.238e-4,0.0048 -3.253e-4,0.0073 5.97e-4,0.0048 0.00249,0.0094 0.00384,0.01409 0.00444,0.01541 0.00296,0.03212 -0.00214,0.04732 -0.0051,0.0152 -0.013672,0.02903 -0.02334,0.04182 -0.019337,0.02558 -0.04355,0.04796 -0.057504,0.07683 -0.011206,0.02319 -0.015098,0.04939 -0.014703,0.07514 3.956e-4,0.02575 0.00492,0.05125 0.00983,0.07653 0.00491,0.02528 0.010244,0.05056 0.012293,0.07623 0.00205,0.02567 7.204e-4,0.05195 -0.00742,0.07638 -0.010193,0.03059 -0.030689,0.05734 -0.038012,0.08875 -0.00366,0.0157 -0.00377,0.03265 0.00249,0.04751 0.00313,0.0074 0.00784,0.01423 0.013942,0.0195 0.0061,0.0053 0.013614,0.009 0.021578,0.01022 0.00912,0.0014 0.018433,-3.23e-4 0.027662,0 0.019389,6.78e-4 0.038185,0.01116 0.048947,0.02731 0.010761,0.01614 0.013211,0.03753 0.00638,0.05568"
     id="path1"
     inkscape:path-effect="#path-effect1"
     inkscape:original-d="m 3.6237898,13.471646 c -0.072665,0.634635 -0.4288489,1.19894 -0.6362379,1.798064 -0.038153,0.110218 -0.060505,0.226644 -0.1106501,0.33195 -0.1798623,0.377711 -0.5602591,0.59247 -0.9405256,0.719225 -0.029256,0.0098 -0.328603,0.125732 -0.3872752,0.05532 C 1.4291631,16.232285 1.4467438,16.124464 1.3831259,15.93361 1.089981,15.054175 1.3210213,15.956732 1.1065007,14.937759 1.071474,14.771383 1.0183216,14.608366 0.99585062,14.439834 0.96285664,14.192379 0.95967247,13.941855 0.94052559,13.692946 0.838524,12.366925 0.85753804,11.038606 0.85753804,9.7095436 c 0,-0.5457812 0.008628,-0.2950397 -0.0276625,-0.8575381 C 0.82313654,8.7475514 0.77473078,8.166592 0.802213,8.0497925 0.81275906,8.0049718 1.0723199,7.8864247 1.0788382,7.8838174 c 0.2753343,-0.1101337 0.354068,-0.11065 0.6915629,-0.11065 0.1478213,0 0.3086471,-0.034849 0.4426003,0.027662 0.3137321,0.1464083 0.8374664,0.5174233 1.0788382,0.857538 0.1465001,0.206432 0.3753344,0.5394509 0.4149377,0.8298755 0.01495,0.1096355 -0.00481,0.2214046 0,0.3319502 0.019848,0.4564999 0.052381,0.1724642 0.027662,0.6915639 -0.00844,0.177165 -0.068653,0.348801 -0.082988,0.525587 -0.032894,0.405697 -0.010647,0.81505 -0.055325,1.217151 -0.0042,0.03779 -0.022947,0.07292 -0.027663,0.11065 -0.00435,0.03484 0.023736,0.225227 0,0.248962 -0.00652,0.0065 -0.021142,-0.0065 -0.027662,0 -0.00652,0.0065 0.00292,0.01891 0,0.02766 -0.018705,0.05612 -0.066339,0.116029 -0.082987,0.165976 -0.02555,0.07665 0,0.227001 0,0.304287 0,0.05532 -0.024742,0.116491 0,0.165975 0.00412,0.0082 0.021142,-0.0065 0.027662,0 0.023509,0.02351 0.036883,0.05532 0.055325,0.08299" />
  <path
     style="fill:none;stroke:#ff9500;stroke-width:1.079;stroke-opacity:1"
     d="m 4.0387275,13.941909 c 0.5310739,-0.09148 1.0809139,-0.07252 1.604426,0.05532 0.1701902,0.04156 0.3379319,0.0946 0.4979253,0.165975 0.072136,0.03218 0.1436726,0.0684 0.2213002,0.08299 0.093456,0.01757 0.1902291,0.0026 0.2818096,-0.02301 0.09158,-0.02561 0.1799496,-0.06172 0.2714407,-0.08764 0.1612742,-0.0457 0.3303449,-0.05913 0.4979253,-0.05532 0.1014921,0.0023 0.2033497,0.01084 0.3042877,0 0.1474814,-0.01584 0.2870229,-0.07227 0.4260664,-0.123929 0.1390435,-0.05166 0.2831597,-0.09965 0.4314717,-0.09737 0.1835009,0.0028 0.3570304,0.08235 0.5155877,0.174764 0.1585574,0.09241 0.3098071,0.199826 0.4802629,0.267836 0.1182412,0.04718 0.2432784,0.07437 0.3662397,0.107345 0.1229613,0.03297 0.2459843,0.07264 0.3529853,0.141618 0.115471,0.07443 0.207106,0.179518 0.304288,0.276625 0.172751,0.172618 0.367643,0.323623 0.580913,0.442601 0.421088,0.234913 0.900182,0.339123 1.355463,0.497925 0.187597,0.06543 0.371779,0.140416 0.553251,0.2213 0.18472,0.08233 0.366723,0.170811 0.55325,0.248963 0.535581,0.224402 1.102744,0.361436 1.659751,0.525587 0.64058,0.18878 1.26982,0.414164 1.908714,0.608576 0.497479,0.15138 1.003609,0.284466 1.521438,0.33195 0.266532,0.02444 0.534568,0.02605 0.802213,0.02766 0.335455,0.002 0.677427,0.0051 0.995851,0.11065 0.157926,0.05235 0.307971,0.129343 0.470263,0.165975 0.133209,0.03007 0.271826,0.03222 0.403959,0.06671 0.06607,0.01724 0.130597,0.04281 0.186585,0.08189 0.05599,0.03908 0.103207,0.09234 0.128681,0.155687 0.03142,0.07813 0.02817,0.165895 0.01486,0.249047 -0.0133,0.08315 -0.03614,0.164912 -0.04252,0.248879 -0.0085,0.111852 0.01305,0.225792 0.06142,0.327006 0.04836,0.101214 0.123379,0.189485 0.21521,0.253907 0.0163,0.01143 0.03316,0.02217 0.04813,0.0353 0.01497,0.01313 0.02813,0.02896 0.03486,0.04769 0.0095,0.02636 0.0054,0.0555 0,0.08299 -0.0041,0.02078 -0.0088,0.04146 -0.0113,0.06249 -0.0025,0.02103 -0.0026,0.04258 0.0025,0.06313 0.0051,0.02055 0.01581,0.04011 0.03226,0.05344 0.0082,0.0067 0.01782,0.0117 0.02807,0.01434 0.01025,0.0026 0.02117,0.0028 0.03143,2.35e-4 0.0047,-0.0012 0.0093,-0.003 0.01406,-0.0035 0.0024,-2.89e-4 0.0049,-2.74e-4 0.0072,2.64e-4 0.0024,5.39e-4 0.0046,0.0016 0.0064,0.0033 0.0018,0.0017 0.003,0.0039 0.0037,0.0063 6.49e-4,0.0024 7.42e-4,0.0049 4.76e-4,0.0073 -5.32e-4,0.0049 -0.0025,0.0095 -0.0041,0.01408 -0.0093,0.02568 -0.01099,0.054 -0.0053,0.08073 0.0057,0.02672 0.01858,0.05181 0.03666,0.07229 0.03616,0.04096 0.09244,0.06206 0.146988,0.05898 0.05455,-0.0031 0.106713,-0.02914 0.145036,-0.06808 0.03832,-0.03894 0.06318,-0.09008 0.07442,-0.143549 0.02247,-0.106937 -0.0083,-0.218375 -0.05419,-0.317556 -0.04586,-0.09918 -0.106772,-0.191005 -0.14994,-0.291388 -0.06046,-0.140599 -0.08458,-0.295352 -0.081,-0.448358 0.0036,-0.153006 0.0343,-0.304518 0.0798,-0.450644 0.09101,-0.292254 0.240043,-0.56247 0.360808,-0.843736 0.354149,-0.824827 0.461284,-1.74674 0.357683,-2.638383 -0.103602,-0.891644 -0.413398,-1.753348 -0.855609,-2.534508 -0.400769,-0.707954 -0.907709,-1.350364 -1.3278,-2.047026 C 20.68005,9.8672487 20.494538,9.511168 20.387275,9.1286307 20.343793,8.9735572 20.313458,8.8151538 20.276625,8.6583679 20.23722,8.4906333 20.19036,8.3246949 20.138313,8.1604426 20.088936,8.0046161 20.034781,7.8498991 20,7.6901798 c -0.128809,-0.5915046 0.01682,-1.211312 0.248963,-1.7704011 0.09437,-0.2272768 0.204214,-0.4505279 0.356736,-0.6436524 0.152521,-0.1931246 0.350881,-0.3557246 0.583789,-0.4351858 0.03866,-0.013189 0.07818,-0.024088 0.115675,-0.0403 0.03749,-0.016212 0.07338,-0.03826 0.09921,-0.069901 0.01292,-0.015821 0.02316,-0.033934 0.02912,-0.053468 0.006,-0.019534 0.0076,-0.040504 0.0037,-0.060552 -0.0039,-0.020048 -0.01339,-0.039113 -0.02776,-0.053635 -0.01436,-0.014522 -0.03363,-0.024322 -0.05394,-0.026432 -0.0092,-9.535e-4 -0.01844,-3.726e-4 -0.02766,0 -0.130635,0.00528 -0.258757,-0.031326 -0.387277,-0.055325 -0.510903,-0.095401 -1.034825,0.00787 -1.549101,0.082988 C 18.52481,4.6909026 17.633512,4.7408251 16.818811,5.0622407 16.247861,5.2874919 15.735964,5.6383924 15.242047,6.0027663 15.003088,6.179052 14.766927,6.3592658 14.522822,6.5283541 14.111435,6.8133166 13.677509,7.0664922 13.222683,7.275242 13.0125,7.3717089 12.798072,7.4586103 12.586445,7.5518672 12.390155,7.6383656 12.196263,7.7303398 12.005533,7.8284924 11.484253,8.0967516 10.98324,8.41263 10.428769,8.6030429 10.274201,8.6561235 10.116379,8.6991061 9.9585062,8.7413555 9.6680323,8.8190913 9.3753768,8.8950258 9.1009682,9.0179806 8.8751241,9.119175 8.6640046,9.2512112 8.4370678,9.3499308 8.1122661,9.4912225 7.7617344,9.5615149 7.4135546,9.626556 7.2391578,9.6591339 7.0643729,9.6906638 6.8879668,9.709544 c -0.1746565,0.018693 -0.3517049,0.02488 -0.5255878,0 C 6.0857951,9.6699686 5.8251298,9.5527447 5.5878285,9.4052559 5.5174578,9.3615187 5.4470204,9.3142529 5.3665284,9.2946058 5.3031335,9.2791319 5.236472,9.2816323 5.1728907,9.2669433 5.1160352,9.2538081 5.0631282,9.2272779 5.0069156,9.2116183 4.917679,9.1867589 4.8231682,9.1900471 4.7308807,9.1980577 c -0.092288,0.00801 -0.1848456,0.020558 -0.2772154,0.013561 -0.041753,-0.00316 -0.083141,-0.010307 -0.1249219,-0.013082 -0.041781,-0.00278 -0.084613,-0.00102 -0.1240408,0.013082 -0.031619,0.011307 -0.060389,0.030487 -0.082987,0.055325"
     id="path2"
     inkscape:path-effect="#path-effect2"
     inkscape:original-d="m 4.0387275,13.941909 c 0.5026929,0 1.1432286,-0.0083 1.604426,0.05532 0.1733123,0.0239 0.3326827,0.108499 0.4979253,0.165975 0.07441,0.02588 0.1428408,0.07586 0.2213002,0.08299 0.3261171,0.02965 0.1700054,-0.02355 0.5532503,-0.11065 0.1628438,-0.03701 0.331254,-0.04491 0.4979253,-0.05532 0.1012317,-0.0063 0.2080635,0.03208 0.3042877,0 0.3575051,-0.119168 0.3892251,-0.351387 0.8575381,-0.2213 0.3499801,0.09722 0.66389,0.305237 0.9958506,0.4426 0.022586,0.0093 0.644163,0.209224 0.719225,0.248963 0.124536,0.06593 0.197918,0.190711 0.304288,0.276625 0.18938,0.152961 0.375769,0.311537 0.580913,0.442601 0.406233,0.259537 0.909857,0.332414 1.355463,0.497925 0.186195,0.06916 0.371747,0.140632 0.553251,0.2213 0.568225,0.252544 -0.330242,-0.05109 0.55325,0.248963 2.747788,0.933211 0.01111,-0.007 1.659751,0.525587 0.700671,0.226371 1.226975,0.430275 1.908714,0.608576 0.266302,0.06965 1.082217,0.301307 1.521438,0.33195 0.266915,0.01862 0.534729,0.02114 0.802213,0.02766 0.483966,0.0118 0.369475,-0.04213 0.995851,0.11065 0.161497,0.03939 0.312562,0.113408 0.470263,0.165975 0.100492,0.0335 0.656481,0.1788 0.719225,0.304287 0.05038,0.100765 -0.04632,0.376631 -0.02766,0.497926 0.03176,0.206445 0.152758,0.415758 0.276625,0.580913 0.02347,0.0313 0.05952,0.05169 0.08299,0.08299 0.0166,0.02213 -0.0087,0.05674 0,0.08299 0.02221,0.06662 0.04404,0.135208 0.08299,0.193637 0.0051,0.0077 0.02114,-0.0065 0.02766,0 0.0065,0.0065 -0.0065,0.03418 0,0.02766 0.120394,-0.120393 0.16478,-0.473303 0.193638,-0.608576 0.123754,-0.580098 0.254961,-1.158892 0.359613,-1.742738 0.32574,-1.817287 0.313859,-3.486877 -0.497926,-5.172891 -0.424432,-0.881513 -0.718607,-1.077855 -1.3278,-2.047026 C 20.849822,10.151186 20.425244,9.2393738 20.387275,9.1286307 20.335048,8.9763003 20.31673,8.8143292 20.276625,8.6583679 20.233725,8.4915358 20.185636,8.3260742 20.138313,8.1604426 20.093425,8.0033357 20.033905,7.8500171 20,7.6901798 19.870672,7.0804913 19.854196,6.4379105 20.248963,5.9197787 c 0.289373,-0.3798026 0.674143,-0.6792642 0.940525,-1.0788382 0.04009,-0.060138 0.165975,-0.2180393 0.165975,-0.3042877 0,-0.00922 -0.01852,0.00122 -0.02766,0 C 21.198542,4.5194184 21.070738,4.4883663 20.940526,4.4813278 20.349918,4.449403 20.009562,4.508121 19.391425,4.5643154 18.61546,4.6348576 17.5265,4.704233 16.818811,5.0622407 16.272722,5.3384971 15.757846,5.6734007 15.242047,6.0027663 14.991784,6.1625728 14.774039,6.3700525 14.522822,6.5283541 14.099971,6.7948078 13.664554,7.0416818 13.222683,7.275242 13.01823,7.3833104 12.796974,7.4561722 12.586445,7.5518672 12.391198,7.6406161 12.198292,7.7344631 12.005533,7.8284924 11.580008,8.0360654 10.778226,8.4542001 10.428769,8.6030429 10.278443,8.6670707 10.114462,8.6926192 9.9585062,8.7413555 9.6718278,8.8309425 9.3832355,8.915338 9.1009682,9.0179806 8.7450249,9.1474145 8.7622424,9.1950858 8.4370678,9.3499308 8.1109096,9.5052442 7.7676522,9.579343 7.4135546,9.626556 7.2390086,9.649829 7.064024,9.699187 6.8879668,9.709544 6.7130732,9.719832 6.536222,9.731274 6.362379,9.709544 6.0889118,9.6753602 5.8406089,9.497176 5.5878285,9.4052559 5.5103203,9.3770711 5.4455238,9.3183045 5.3665284,9.2946058 5.304077,9.2758704 5.2364222,9.2816044 5.1728907,9.2669433 5.1160665,9.25383 5.0644399,9.2212056 5.0069156,9.2116183 c -0.1720725,-0.028679 -0.3788842,0 -0.5532503,0 -0.082988,0 -0.1675867,-0.016275 -0.2489627,0 -0.039223,0.00784 -0.033706,0.055325 -0.082987,0.055325" />
  <path
     style="fill:none;stroke:#ff9500;stroke-width:1.079;stroke-opacity:1"
     d="M 22.378976,5.8091286 C 22.038886,5.5835392 21.752303,5.27785 21.549101,4.9239281 21.265287,4.429601 21.149082,3.8575036 21.078838,3.2918396 c -0.01973,-0.1588421 -0.03611,-0.3204639 -0.0097,-0.4783344 0.0132,-0.078935 0.03721,-0.156443 0.07531,-0.2268232 0.0381,-0.07038 0.09058,-0.1335293 0.155701,-0.180043 0.05049,-0.036061 0.107708,-0.061666 0.165975,-0.082988 0.275622,-0.100862 0.576999,-0.1088777 0.869373,-0.083218 0.292373,0.02566 0.581133,0.083668 0.873366,0.1108801 0.185906,0.017311 0.373656,0.022227 0.55657,0.059688 0.182914,0.03746 0.364281,0.1108985 0.494606,0.2446001 0.05555,0.056985 0.100544,0.123593 0.138312,0.1936376 0.162563,0.3014873 0.189024,0.6548529 0.2213,0.9958506 0.06365,0.672418 0.162449,1.3524905 0.05532,2.0193638 -0.0207,0.1288368 -0.04907,0.2569363 -0.05532,0.3872752 -0.0057,0.1197696 0.0073,0.2399276 0,0.3596127 -0.01924,0.3156516 -0.177072,0.6049053 -0.248962,0.9128631 -0.04222,0.1808709 -0.05454,0.3675182 -0.05532,0.5532503 -0.0015,0.3509478 0.03764,0.7006705 0.05532,1.0511757 0.0172,0.3408581 0.01411,0.6825136 0,1.0235133 -0.01492,0.360445 -0.04215,0.720404 -0.08299,1.078838 -0.03461,0.303729 -0.07904,0.607194 -0.08299,0.912863 -0.0057,0.437848 0.07184,0.872491 0.165975,1.300138 0.05055,0.229659 0.106055,0.458629 0.138312,0.691563 0.09376,0.677025 -0.01118,1.36374 -0.02766,2.047027 -0.0096,0.39663 0.01071,0.794602 -0.02766,1.189488 -0.0269,0.276877 -0.08259,0.551694 -0.08299,0.829875 -1.44e-4,0.101462 0.0071,0.203073 0,0.304288 -0.0091,0.13013 -0.04171,0.257539 -0.05532,0.387275 -0.01447,0.137921 -0.0074,0.277748 -0.02766,0.414938 -0.01575,0.106645 -0.0478,0.210133 -0.07034,0.315552 -0.02254,0.105419 -0.03548,0.215329 -0.01265,0.320686 0.01952,0.09009 0.06455,0.173788 0.07765,0.265037 0.0065,0.04562 0.0047,0.09329 -0.01218,0.136187 -0.01686,0.0429 -0.04996,0.08055 -0.09313,0.0967 -0.02618,0.0098 -0.05478,0.01145 -0.08268,0.0097 -0.02791,-0.0017 -0.0555,-0.0067 -0.08329,-0.0097 -0.02354,-0.0026 -0.04723,-0.0038 -0.07066,-0.0072 -0.02343,-0.0034 -0.04679,-0.0092 -0.06765,-0.02045 -0.03002,-0.01612 -0.05341,-0.04271 -0.07066,-0.07209 -0.01726,-0.02938 -0.02887,-0.06168 -0.03999,-0.09389 -0.07813,-0.226371 -0.136646,-0.458968 -0.193637,-0.691563 -0.202111,-0.824868 -0.387534,-1.675294 -0.276625,-2.517289 0.08248,-0.626198 0.325359,-1.21815 0.497925,-1.825726 0.09349,-0.329171 0.166507,-0.663744 0.248963,-0.995851 0.124061,-0.49968 0.270562,-1.017324 0.165975,-1.521439 -0.03735,-0.180042 -0.10584,-0.351825 -0.16598,-0.525588 -0.0611,-0.176543 -0.114064,-0.356565 -0.193638,-0.525588 -0.06337,-0.1346 -0.142956,-0.260805 -0.2213,-0.387275 C 23.371383,10.851185 23.129699,10.43697 22.904564,10.013831 22.618273,9.4757494 22.357133,8.9186343 22.213001,8.3264177 22.139434,8.0241399 22.096893,7.7148406 22.019364,7.4135546 21.973561,7.235561 21.915674,7.0608835 21.853389,6.8879668 c -0.071,-0.197124 -0.148982,-0.3993252 -0.138313,-0.6085754 0.0028,-0.055454 0.01185,-0.1117288 0,-0.1659751 -0.01,-0.045561 -0.03407,-0.086688 -0.0599,-0.125515 -0.02583,-0.038827 -0.05391,-0.076543 -0.07336,-0.1189318 -0.01945,-0.042389 -0.02979,-0.090852 -0.01799,-0.1359697 0.0059,-0.022559 0.01738,-0.043831 0.03406,-0.060123 0.01668,-0.016292 0.03867,-0.027396 0.06187,-0.029723 0.0092,-9.21e-4 0.01844,-4.934e-4 0.02766,0 0.23804,0.012745 0.473666,0.069295 0.691562,0.1659751 z"
     id="path3"
     inkscape:path-effect="#path-effect3"
     inkscape:original-d="M 22.378976,5.8091286 C 22.102351,5.5140618 21.801048,5.2403272 21.549101,4.9239281 21.129422,4.3968894 21.078838,3.9345182 21.078838,3.2918396 c 0,-0.2746408 -0.0064,-0.6781882 0.2213,-0.8852006 0.04577,-0.041608 0.11065,-0.055325 0.165975,-0.082988 0.53594,-0.2679699 1.188736,-0.1001844 1.742739,0.027662 0.221661,0.051153 0.828167,0.1803941 1.051176,0.3042877 0.06875,0.038194 0.111237,0.1259499 0.138312,0.1936376 0.143325,0.3583109 0.17622,0.6201796 0.2213,0.9958506 0.08258,0.6881453 0.125395,1.3186673 0.05532,2.0193638 -0.01298,0.1297552 -0.04569,0.2572291 -0.05532,0.3872752 -0.0089,0.1195434 0.01487,0.2406675 0,0.3596127 -0.03853,0.3082798 -0.190784,0.6074298 -0.248962,0.9128631 -0.03468,0.1820633 -0.04558,0.3681699 -0.05532,0.5532503 -0.0187,0.3552111 0.03927,0.6980607 0.05532,1.0511757 0.01521,0.3346315 0.01676,0.6883368 0,1.0235133 -0.01782,0.356426 -0.03873,0.724787 -0.08299,1.078838 -0.03916,0.313295 -0.101814,0.592813 -0.08299,0.912863 0.02881,0.48981 0.07775,0.810014 0.165975,1.300138 0.04165,0.231368 0.106549,0.458633 0.138312,0.691563 0.09171,0.672534 0.01707,1.376033 -0.02766,2.047027 -0.06405,0.960672 -0.003,0.302167 -0.02766,1.189488 -0.02556,0.920006 -0.01579,-0.01007 -0.08299,0.829875 -0.0081,0.101107 0.0081,0.203182 0,0.304288 -0.0104,0.129987 -0.04191,0.257565 -0.05532,0.387275 -0.01426,0.137884 -0.01177,0.277232 -0.02766,0.414938 -0.06995,0.606226 -0.05241,-0.006 -0.08299,0.636238 -0.0014,0.02881 0.04908,0.472343 -0.02766,0.497925 -0.05249,0.0175 -0.110988,0.0061 -0.165975,0 -0.04673,-0.0052 -0.101199,0.0012 -0.138313,-0.02766 -0.05249,-0.04082 -0.07954,-0.10721 -0.11065,-0.165975 -0.18937,-0.357699 -0.125954,-0.270423 -0.193637,-0.691563 -0.119437,-0.743161 -0.375385,-1.741321 -0.276625,-2.517289 0.08374,-0.657919 0.318667,-1.18936 0.497925,-1.825726 0.09277,-0.32935 0.175843,-0.661589 0.248963,-0.995851 0.0923,-0.421943 0.213915,-1.080383 0.165975,-1.521439 -0.01986,-0.182649 -0.106511,-0.351755 -0.16598,-0.525588 C 23.978293,11.994851 23.92235,11.815892 23.84509,11.64592 23.783565,11.510565 23.697903,11.387538 23.62379,11.258645 23.390741,10.853343 23.115913,10.436529 22.904564,10.013831 22.632996,9.4706943 22.3941,8.9059347 22.213001,8.3264177 22.121998,8.0352061 22.089904,7.7074722 22.019364,7.4135546 21.976357,7.2343597 21.907459,7.0636953 21.853389,6.8879668 21.796941,6.7045108 21.742071,6.4683583 21.715076,6.2793914 c -0.0078,-0.054769 0.005,-0.1108773 0,-0.1659751 -0.0098,-0.1075784 -0.111056,-0.3587997 -0.05532,-0.4702628 0.0041,-0.00825 0.01844,0 0.02766,0 0.26122,0 0.464438,0.0297 0.691562,0.1659751 z" />
  <path
     style="fill:none;stroke:#ff9500;stroke-width:1.079;stroke-opacity:1"
     d="M 13.084371,19.585062 C 11.58508,18.988619 10.072351,18.425958 8.5477178,17.897649 8.079324,17.735343 7.6097625,17.576265 7.1369295,17.427386 7.0024039,17.385029 6.8651738,17.342322 6.7496542,17.261411 6.5759923,17.139777 6.4702071,16.94604 6.362379,16.763485 6.2129566,16.51051 6.0476231,16.264732 5.9376717,15.992272 5.8277202,15.719813 5.7764418,15.411714 5.8644537,15.131397 c 0.055687,-0.177363 0.1631669,-0.333008 0.2489626,-0.497925 0.02487,-0.0478 0.048321,-0.09706 0.082988,-0.138313 0.052032,-0.06192 0.1264117,-0.101823 0.2037759,-0.125409 0.077364,-0.02359 0.1583881,-0.03211 0.2388243,-0.04057 0.4323444,-0.04546 0.8702493,-0.09234 1.3001384,-0.02766 0.5575477,0.08389 1.0686593,0.349943 1.604426,0.525588 0.1706773,0.05596 0.3461292,0.103132 0.5255871,0.11065 0.29824,0.0125 0.593418,-0.08489 0.89147,-0.06852 0.149027,0.0082 0.299782,0.04671 0.420893,0.133934 0.06055,0.04361 0.112953,0.0991 0.150117,0.163809 0.03716,0.06471 0.0588,0.138749 0.05896,0.213374 4e-5,0.01845 -0.0012,0.03691 0,0.05532 0.0036,0.05468 0.02876,0.105931 0.06056,0.150561 0.0318,0.04463 0.07036,0.08394 0.105419,0.126064 0.09828,0.118085 0.167889,0.256777 0.248963,0.387275 0.09741,0.156801 0.21186,0.302405 0.33195,0.4426 0.11062,0.12914 0.226285,0.254052 0.33195,0.387276 0.09399,0.1185 0.179881,0.243353 0.276625,0.359612 0.124628,0.149768 0.266422,0.284276 0.396755,0.429106 0.130333,0.144831 0.250686,0.302623 0.322471,0.483757 0.02592,0.0654 0.04562,0.134031 0.08299,0.193638 0.02869,0.04576 0.06785,0.08647 0.08299,0.138313 0.0078,0.02672 0.0087,0.05499 0.0072,0.08279 -0.0015,0.02779 -0.0055,0.05541 -0.0072,0.08319 -0.0052,0.08714 0.01223,0.17509 0.0467,0.255291 0.03448,0.0802 0.0857,0.152749 0.146934,0.214971 0.0091,0.0093 0.01852,0.01836 0.02766,0.02766 0.04182,0.0425 0.08006,0.09213 0.09161,0.150621 0.0058,0.02925 0.0045,0.06021 -0.0062,0.08804 -0.01067,0.02784 -0.03106,0.05229 -0.05773,0.06562 -0.02929,0.01464 -0.06362,0.01519 -0.09616,0.01154 -0.03254,-0.0036 -0.06474,-0.01116 -0.09748,-0.01154 -0.0373,-4.35e-4 -0.074,0.0084 -0.110451,0.01635 -0.03645,0.008 -0.07374,0.01512 -0.110849,0.01131 -0.01396,-0.0014 -0.02774,-0.0044 -0.04172,-0.0055 -0.01399,-0.0011 -0.0285,-2.96e-4 -0.04127,0.0055 -0.01212,0.0055 -0.02213,0.01554 -0.02766,0.02766"
     id="path4"
     inkscape:path-effect="#path-effect4"
     inkscape:original-d="M 13.084371,19.585062 C 10.458285,18.503733 11.678243,18.962453 8.5477178,17.897649 8.0784216,17.738024 7.6042374,17.592741 7.1369295,17.427386 7.0045263,17.380536 6.8674116,17.337953 6.7496542,17.261411 6.680037,17.21616 6.3711119,16.777131 6.362379,16.763485 6.0688698,16.304877 5.779675,15.696588 5.8644537,15.131397 c 0.027528,-0.18352 0.1497523,-0.34911 0.2489626,-0.497925 0.029824,-0.04474 0.044969,-0.100294 0.082988,-0.138313 0.090344,-0.09034 0.3303285,-0.137907 0.4426002,-0.165975 0.419263,-0.104816 0.8772388,-0.129158 1.3001384,-0.02766 0.5445493,0.130692 1.0677939,0.372265 1.604426,0.525588 0.1721477,0.04918 0.3509182,0.07135 0.5255871,0.11065 0.509836,0.114713 1.03731,0.24088 1.521439,0.442601 0.01702,0.0071 -0.0088,0.03913 0,0.05532 0.05149,0.0944 0.108983,0.185437 0.165975,0.276625 0.08134,0.130138 0.160956,0.261551 0.248963,0.387275 0.105756,0.15108 0.216745,0.298595 0.33195,0.4426 0.106213,0.132767 0.22455,0.255467 0.33195,0.387276 0.09553,0.117241 0.184417,0.239741 0.276625,0.359612 0.230479,0.299622 0.518635,0.591919 0.719226,0.912863 0.03722,0.05955 0.05158,0.130828 0.08299,0.193638 0.01487,0.02975 0.07264,0.09691 0.08299,0.138313 0.01302,0.05207 -0.01302,0.113904 0,0.165975 0.04147,0.165868 0.11842,0.319828 0.193637,0.470262 0.0058,0.01166 0.02183,0.016 0.02766,0.02766 7.99e-4,0.0016 0.02914,0.302814 0.02766,0.304288 -0.02198,0.02198 -0.163421,-0.006 -0.193637,0 -0.21121,0.04224 0.07975,0.02766 -0.2213,0.02766 -0.01139,0 -0.07567,-0.0073 -0.08299,0 -0.03688,0.03688 0.0461,0.02766 -0.02766,0.02766" />
  <path
     style="fill:none;stroke:#1c3c55;stroke-width:1.079"
     d="m 26.528354,18.174274 c 0.566809,-0.06959 1.156972,0.07045 1.632089,0.387275 0.104357,0.06959 0.203093,0.147186 0.304287,0.2213 0.134152,0.09825 0.272726,0.19045 0.414938,0.276625 0.255309,0.154708 0.529029,0.295495 0.719225,0.525588 0.147332,0.178238 0.23852,0.403745 0.414938,0.553251 0.05708,0.04837 0.122423,0.08771 0.193638,0.11065 0.07166,0.02309 0.147488,0.02919 0.222398,0.03676 0.07491,0.0076 0.150795,0.01705 0.220202,0.04623 0.03802,0.01599 0.0734,0.03761 0.11065,0.05532 0.134969,0.06418 0.289407,0.07467 0.438626,0.06637 0.149218,-0.0083 0.297192,-0.03426 0.446575,-0.03871 0.134375,-0.004 0.268598,0.0094 0.402967,0.01363 0.134368,0.0042 0.270963,-0.0011 0.399246,-0.04129 0.137993,-0.04325 0.260132,-0.124739 0.387275,-0.193637 0.30549,-0.165544 0.648747,-0.260893 0.995851,-0.276626"
     id="path5"
     inkscape:path-effect="#path-effect5"
     inkscape:original-d="m 26.528354,18.174274 c 0.555994,-0.0047 1.135945,0.131201 1.632089,0.387275 0.111448,0.05752 0.20117,0.149912 0.304287,0.2213 0.136674,0.09462 0.273974,0.188523 0.414938,0.276625 0.350217,0.218886 0.484416,0.22369 0.719225,0.525588 0.338873,0.435694 -0.119017,0.08211 0.414938,0.553251 0.05574,0.04919 0.128183,0.0754 0.193638,0.11065 0.261561,0.140841 0.232644,0.0305 0.4426,0.08299 0.04001,0.01 0.06983,0.04949 0.11065,0.05532 0.290159,0.04145 0.590104,0.02766 0.885201,0.02766 0.257402,0 0.549473,0.03552 0.802213,-0.02766 0.159845,-0.03996 0.240775,-0.124696 0.387275,-0.193637 0.305849,-0.14393 0.65844,-0.276626 0.995851,-0.276626" />
  <path
     style="fill:none;stroke:#1c3c55;stroke-width:1.079"
     d="m 29.792531,14.799447 c -0.03129,-1.249957 0.364542,-2.506726 1.106501,-3.51314 0.120559,-0.163529 0.249898,-0.320584 0.387275,-0.470263"
     id="path6"
     inkscape:path-effect="#path-effect6"
     inkscape:original-d="m 29.792531,14.799447 c -0.755862,-1.323969 0.335137,-2.587504 1.106501,-3.51314 0.394642,-0.473571 0.275335,-0.246382 0.387275,-0.470263" />
  <path
     style="fill:none;stroke:#95aabf;stroke-width:1.079;stroke-opacity:1"
     d="m 28.02213,8.077455 c 0.302889,-0.6120826 0.804702,-1.1237353 1.410788,-1.4384509 0.166294,-0.086349 0.341505,-0.1586613 0.525588,-0.1936376 0.04621,-0.00878 0.09296,-0.015209 0.138313,-0.027663 0.110368,-0.030306 0.20794,-0.094931 0.299563,-0.1635221 0.09162,-0.068591 0.18016,-0.1426102 0.28135,-0.1960906 0.09561,-0.050531 0.20016,-0.081459 0.304287,-0.1106501 0.129281,-0.036243 0.259209,-0.070326 0.387276,-0.1106501 0.05397,-0.016993 0.109915,-0.035327 0.165975,-0.027662 0.01399,0.00191 0.02775,0.00543 0.04181,0.00671 0.01406,0.00128 0.02883,1.331e-4 0.04118,-0.00671 0.01149,-0.00637 0.01986,-0.017033 0.02783,-0.027467 0.008,-0.010434 0.01618,-0.02119 0.02749,-0.027858 0.01223,-0.00721 0.02703,-0.00892 0.04118,-0.00782 0.01415,0.0011 0.02794,0.00482 0.04181,0.00782 0.08472,0.01829 0.173579,0.00949 0.25718,-0.013393 0.0836,-0.022886 0.162749,-0.059449 0.240745,-0.097258 0.278331,-0.1349204 0.547873,-0.2878716 0.829876,-0.4149377 0.21859,-0.098493 0.443987,-0.1811236 0.6639,-0.2766252 0.177834,-0.077228 0.351909,-0.1627968 0.525588,-0.2489627 0.147762,-0.073308 0.295296,-0.1470751 0.4426,-0.2213001"
     id="path7"
     inkscape:path-effect="#path-effect7"
     inkscape:original-d="m 28.02213,8.077455 c 0.435764,-0.8715286 0.201477,-0.5746573 1.410788,-1.4384509 0.344596,-0.2461396 0.312688,-0.087187 0.525588,-0.1936376 0.04205,-0.021027 0.09562,-0.00796 0.138313,-0.027663 0.501085,-0.2312702 -0.02036,-0.045905 0.580913,-0.3596127 0.09569,-0.049923 0.201495,-0.077757 0.304287,-0.1106501 0.12787,-0.040918 0.257027,-0.078088 0.387276,-0.1106501 0.05441,-0.013603 0.11023,-0.021469 0.165975,-0.027662 0.02749,-0.00305 0.0573,0.010274 0.08299,0 0.02422,-0.00969 0.03111,-0.045639 0.05532,-0.055325 0.02568,-0.010274 0.0557,0.00455 0.08299,0 0.169641,-0.028274 0.336414,-0.034645 0.497925,-0.1106501 0.241161,-0.1134872 0.606448,-0.3138631 0.829876,-0.4149377 0.21843,-0.098814 0.444611,-0.1797302 0.6639,-0.2766252 0.177319,-0.07835 0.352197,-0.1622672 0.525588,-0.2489627 0.474198,-0.2370992 0.211412,-0.1442374 0.4426,-0.2213001" />
  <path
     style="fill:none;stroke:#1c3c55;stroke-width:1.079"
     d="M 27.69018,3.4854772 C 27.910888,3.0287381 28.141481,2.5767759 28.381743,2.1300138 28.569844,1.7802455 28.764265,1.4330274 28.990318,1.1065007 29.102683,0.94419227 29.222733,0.78720407 29.349931,0.6362379"
     id="path8"
     inkscape:path-effect="#path-effect8"
     inkscape:original-d="m 27.69018,3.4854772 c 0.118936,-0.5946827 -0.0011,-0.065607 0.691563,-1.3554634 0.189285,-0.3524621 0.394703,-0.6838344 0.608575,-1.0235131 0.01319,-0.020944 0.239312,-0.4702628 0.359613,-0.4702628" />
  <path
     style="fill:none;stroke:#95aabf;stroke-width:1.079;stroke-opacity:1"
     d="m 27.80083,16.791148 c 1.566921,0.0604 3.136526,0.05117 4.702628,-0.02766 0.469999,-0.02366 0.940909,-0.05358 1.410788,-0.02766 0.110879,0.0061 0.221587,0.01534 0.33195,0.02766"
     id="path9"
     inkscape:path-effect="#path-effect9"
     inkscape:original-d="m 27.80083,16.791148 c 7.411701,-0.09502 -3.757739,0.03896 4.702628,-0.02766 0.198381,-0.0016 1.064484,-0.04151 1.410788,-0.02766 0.767933,0.03072 0.0026,0.02766 0.33195,0.02766" />
</svg>
