<?xml version="1.0" encoding="UTF-8" standalone="no"?>
<svg
   width="39px"
   height="43px"
   viewBox="0 0 39 43"
   version="1.1"
   id="svg7"
   sodipodi:docname="ico_network.svg"
   inkscape:version="1.3.2 (091e20e, 2023-11-25, custom)"
   xmlns:inkscape="http://www.inkscape.org/namespaces/inkscape"
   xmlns:sodipodi="http://sodipodi.sourceforge.net/DTD/sodipodi-0.dtd"
   xmlns="http://www.w3.org/2000/svg"
   xmlns:svg="http://www.w3.org/2000/svg">
  <sodipodi:namedview
     id="namedview7"
     pagecolor="#ffffff"
     bordercolor="#000000"
     borderopacity="0.25"
     inkscape:showpageshadow="2"
     inkscape:pageopacity="0.0"
     inkscape:pagecheckerboard="0"
     inkscape:deskcolor="#d1d1d1"
     inkscape:zoom="27.27907"
     inkscape:cx="19.502131"
     inkscape:cy="21.5"
     inkscape:window-width="2560"
     inkscape:window-height="1369"
     inkscape:window-x="-8"
     inkscape:window-y="-8"
     inkscape:window-maximized="1"
     inkscape:current-layer="svg7" />
  <!-- Generator: Sketch 49 (51002) - http://www.bohemiancoding.com/sketch -->
  <title
     id="title1">Be the network icon</title>
  <desc
     id="desc1">Created with Sketch.</desc>
  <defs
     id="defs1">
    <inkscape:path-effect
       effect="spiro"
       id="path-effect29"
       is_visible="true"
       lpeversion="1" />
    <inkscape:path-effect
       effect="spiro"
       id="path-effect28"
       is_visible="true"
       lpeversion="1" />
    <inkscape:path-effect
       effect="spiro"
       id="path-effect27"
       is_visible="true"
       lpeversion="1" />
    <inkscape:path-effect
       effect="spiro"
       id="path-effect26"
       is_visible="true"
       lpeversion="1" />
    <inkscape:path-effect
       effect="spiro"
       id="path-effect25"
       is_visible="true"
       lpeversion="1" />
    <inkscape:path-effect
       effect="spiro"
       id="path-effect24"
       is_visible="true"
       lpeversion="1" />
    <inkscape:path-effect
       effect="spiro"
       id="path-effect23"
       is_visible="true"
       lpeversion="1" />
    <inkscape:path-effect
       effect="spiro"
       id="path-effect22"
       is_visible="true"
       lpeversion="1" />
    <inkscape:path-effect
       effect="spiro"
       id="path-effect21"
       is_visible="true"
       lpeversion="1" />
    <inkscape:path-effect
       effect="spiro"
       id="path-effect20"
       is_visible="true"
       lpeversion="1" />
    <inkscape:path-effect
       effect="spiro"
       id="path-effect19"
       is_visible="true"
       lpeversion="1" />
    <inkscape:path-effect
       effect="spiro"
       id="path-effect18"
       is_visible="true"
       lpeversion="1" />
    <inkscape:path-effect
       effect="spiro"
       id="path-effect17"
       is_visible="true"
       lpeversion="1" />
    <inkscape:path-effect
       effect="spiro"
       id="path-effect16"
       is_visible="true"
       lpeversion="1" />
    <inkscape:path-effect
       effect="spiro"
       id="path-effect15"
       is_visible="true"
       lpeversion="1" />
    <inkscape:path-effect
       effect="spiro"
       id="path-effect14"
       is_visible="true"
       lpeversion="1" />
    <inkscape:path-effect
       effect="spiro"
       id="path-effect13"
       is_visible="true"
       lpeversion="1" />
    <inkscape:path-effect
       effect="spiro"
       id="path-effect12"
       is_visible="true"
       lpeversion="1" />
    <inkscape:path-effect
       effect="spiro"
       id="path-effect11"
       is_visible="true"
       lpeversion="1" />
    <inkscape:path-effect
       effect="spiro"
       id="path-effect10"
       is_visible="true"
       lpeversion="1" />
    <inkscape:path-effect
       effect="spiro"
       id="path-effect9"
       is_visible="true"
       lpeversion="1" />
    <inkscape:path-effect
       effect="spiro"
       id="path-effect8"
       is_visible="true"
       lpeversion="1" />
    <inkscape:path-effect
       effect="spiro"
       id="path-effect7"
       is_visible="true"
       lpeversion="1" />
  </defs>
  <path
     style="fill:none;stroke:#ff9500;stroke-width:1.079"
     d="m 5.2421142,13.893436 c -0.1964591,0.283773 -0.4823239,0.504669 -0.8064791,0.623188 -0.2450309,0.08959 -0.5091659,0.121172 -0.7698209,0.109974 -0.6084478,-0.02614 -1.1983756,-0.287513 -1.6496164,-0.696504 -0.1825967,-0.1655 -0.3462886,-0.358562 -0.4398977,-0.58653 -0.078364,-0.190842 -0.1049315,-0.400695 -0.093096,-0.606659 0.011835,-0.205965 0.061184,-0.408485 0.1297544,-0.60306 0.025697,-0.07292 0.05416,-0.145047 0.073316,-0.219949 0.045859,-0.179318 0.03695,-0.368391 0.073316,-0.549872 0.022151,-0.110544 0.061024,-0.217853 0.073316,-0.329923 0.011999,-0.109402 -0.00171,-0.21988 0,-0.329924 0.00346,-0.222358 0.070187,-0.440175 0.1661564,-0.640787 0.095969,-0.2006124 0.2207981,-0.3858635 0.3470576,-0.5689313 0.014912,-0.021621 0.029911,-0.0433 0.047639,-0.062678 0.017728,-0.019379 0.038389,-0.036508 0.062336,-0.047296 0.028347,-0.01277 0.060197,-0.016149 0.091243,-0.014476 0.031046,0.00167 0.061599,0.00819 0.092048,0.014476 0.4039909,0.083408 0.817113,0.130012 1.2097187,0.256607 0.2613948,0.084286 0.5104139,0.2030465 0.7698209,0.2932652 0.3894736,0.1354546 0.8093638,0.2099636 1.150446,0.4416976 0.170541,0.115867 0.3180775,0.272225 0.3978622,0.46234 0.039892,0.09506 0.062387,0.197773 0.062139,0.300861 -2.485e-4,0.103089 -0.023527,0.206477 -0.070805,0.298085 -0.0878,0.170125 -0.2497435,0.28824 -0.3665814,0.439898 -0.064184,0.08331 -0.1147571,0.176834 -0.1832907,0.256607 -0.051187,0.05958 -0.1129194,0.112345 -0.1466326,0.183291 -0.038279,0.08055 -0.035936,0.175632 -0.073316,0.256607 -0.029921,0.06482 -0.083683,0.116917 -0.1099744,0.18329 -0.018575,0.04689 -0.022352,0.09827 -0.036658,0.146633 -0.023298,0.07877 -0.073386,0.14641 -0.1099744,0.219949 -0.061393,0.123394 -0.084324,0.26559 -0.064832,0.402028 0.019491,0.136438 0.08132,0.266525 0.1748073,0.367793 z"
     id="path7"
     inkscape:path-effect="#path-effect7"
     inkscape:original-d="M 5.2421142,13.893436 C 5.0041813,14.133808 4.7633614,14.395883 4.4356351,14.516624 4.2631558,14.580169 3.8395836,14.61791 3.6658142,14.626598 3.0110445,14.659337 2.4836891,14.368367 2.0161978,13.930094 1.8128051,13.739413 1.6526111,13.618283 1.5763001,13.343564 1.4757688,12.981651 1.535216,12.496642 1.6129582,12.133845 c 0.016193,-0.07557 0.055939,-0.144646 0.073316,-0.219949 0.022124,-0.09587 0.058398,-0.465336 0.073316,-0.549872 0.019578,-0.110943 0.060875,-0.217955 0.073316,-0.329923 0.012145,-0.109302 -0.012145,-0.220622 0,-0.329924 0.045391,-0.40852 0.2203278,-0.9168322 0.513214,-1.2097183 0.036658,-0.036658 0.061433,-0.091771 0.1099744,-0.1099745 0.057207,-0.021452 0.1221938,0 0.1832907,0 0.6775362,0 0.3613851,-0.046369 1.2097187,0.256607 0.2585989,0.092357 0.5331369,0.1540392 0.7698209,0.2932652 0.1826157,0.1074206 1.539642,0.9290256 1.539642,1.5029836 0,0.173056 -0.2732168,0.32786 -0.3665814,0.439898 -0.067293,0.08075 -0.1202217,0.172515 -0.1832907,0.256607 -0.046945,0.06259 -0.1116416,0.113309 -0.1466326,0.183291 -0.039783,0.07957 -0.039102,0.174491 -0.073316,0.256607 -0.027404,0.06577 -0.081037,0.118181 -0.1099744,0.18329 -0.020462,0.04604 -0.017947,0.09985 -0.036658,0.146633 -0.030443,0.07611 -0.093899,0.13957 -0.1099744,0.219949 -0.054368,0.27184 0.017556,0.523371 0.1099748,0.769821 z" />
  <path
     style="fill:none;stroke:#ff9500;stroke-width:1.079"
     d="M 21.29838,7.0383632 C 21.273677,6.9818848 21.235708,6.9312595 21.188406,6.8917306 21.128325,6.841523 21.054588,6.8099393 20.979104,6.7891367 20.903621,6.7683342 20.825782,6.7577163 20.748508,6.745098 19.911123,6.6083591 19.127732,6.2340928 18.292413,6.0852515 17.764105,5.9911149 17.221575,5.98844 16.697038,5.8751607 16.434769,5.818521 16.176781,5.7336506 15.943529,5.601037 15.710277,5.4684234 15.502019,5.2863217 15.359761,5.0588235 15.316232,4.9892124 15.278986,4.9156074 15.249787,4.8388747 15.165182,4.6165358 15.150156,4.3701132 15.194373,4.1363666 15.23859,3.90262 15.340738,3.6815088 15.479509,3.4882852 c 0.277541,-0.3864473 0.692255,-0.6547595 1.126629,-0.848899 1.049517,-0.4690723 2.225656,-0.544756 3.372549,-0.6231884 0.280926,-0.019212 0.564258,-0.038923 0.843137,0 0.245173,0.034219 0.485639,0.1135718 0.733163,0.1099744 0.234928,-0.00341 0.46279,-0.081554 0.697087,-0.099103 0.117149,-0.00877 0.236998,-0.00196 0.348149,0.03607 0.111152,0.038028 0.213348,0.1093335 0.274457,0.2096653 0.01423,0.023359 0.02615,0.048067 0.03666,0.073316 0.07399,0.177705 0.07659,0.3794221 0.03512,0.5673975 -0.04147,0.1879753 -0.124773,0.3641613 -0.21841,0.5323467 -0.157133,0.2822337 -0.345484,0.5478971 -0.476556,0.8431373 -0.09954,0.2242186 -0.164471,0.462043 -0.250852,0.6916534 -0.08638,0.2296104 -0.19764,0.4558084 -0.372337,0.6280397 -0.111151,0.1095827 -0.247656,0.1972766 -0.329923,0.3299232 -0.03763,0.060674 -0.06299,0.129538 -0.109974,0.1832907 -0.03416,0.039079 -0.07856,0.068656 -0.109975,0.1099745 -0.0426,0.056024 -0.05747,0.1295245 -0.05293,0.1997569 0.0045,0.070232 0.027,0.1380548 0.05293,0.2034826 0.05655,0.1426913 0.130596,0.2784399 0.219949,0.4032396 z"
     id="path8"
     inkscape:path-effect="#path-effect8"
     inkscape:original-d="M 21.29838,7.0383632 C 21.261722,6.9894856 21.242315,6.9204821 21.188406,6.8917306 21.052026,6.8189945 20.895844,6.7918141 20.748508,6.745098 19.232467,6.2644022 20.042887,6.512693 18.292413,6.0852515 17.753609,5.9536832 15.948729,5.6477908 15.359761,5.0588235 15.3018,5.0008619 15.283706,4.9134975 15.249787,4.8388747 14.880406,4.0262374 15.973529,2.9828023 16.606138,2.6393862 c 1.022147,-0.5548797 2.235209,-0.6231884 3.372549,-0.6231884 0.281046,0 0.562773,-0.01956 0.843137,0 0.246523,0.017199 0.488048,0.078549 0.733163,0.1099744 0.06374,0.00817 1.217959,0.1240248 1.319693,0.1466326 0.02667,0.00593 0.02444,0.048878 0.03666,0.073316 0.181706,0.3634101 -0.01044,0.7713264 -0.18329,1.0997442 -0.150358,0.2856801 -0.327617,0.5567151 -0.476556,0.8431373 -0.223553,0.4299097 -0.373489,0.9035279 -0.623189,1.3196931 -0.09176,0.1529277 -0.212355,0.2123551 -0.329923,0.3299232 -0.05038,0.050382 -0.06546,0.1276533 -0.109974,0.1832907 -0.03239,0.040482 -0.08679,0.063605 -0.109975,0.1099745 -0.03828,0.076556 0,0.3330402 0,0.4032395 0,0.2273853 0.03305,0.2537222 0.219949,0.4032396 z" />
  <path
     style="fill:none;stroke:#ff9500;stroke-width:1.079"
     d="m 36.254902,14.00341 c -0.668512,-0.273464 -1.37299,-0.458853 -2.089514,-0.549872 -0.291496,-0.03703 -0.585415,-0.0586 -0.873587,-0.116024 -0.288172,-0.05743 -0.573694,-0.152927 -0.812688,-0.323874 -0.302248,-0.216191 -0.516983,-0.551411 -0.58653,-0.916453 -0.03214,-0.168706 -0.03429,-0.34149 -0.03666,-0.513214 -0.002,-0.147689 -0.004,-0.297898 0.03666,-0.439898 0.0565,-0.197381 0.190445,-0.362557 0.329923,-0.513214 0.535235,-0.578134 1.233828,-1.0435977 2.016198,-1.1364023 0.219966,-0.026092 0.444195,-0.022719 0.659847,-0.073316 0.182042,-0.042712 0.354223,-0.1231136 0.538074,-0.1572025 0.09193,-0.017044 0.186976,-0.022214 0.278817,-0.00471 0.09184,0.017499 0.180519,0.05872 0.246195,0.1252592 0.04839,0.049022 0.08298,0.1100785 0.110443,0.1732453 0.02746,0.063167 0.0483,0.1289787 0.07285,0.1933361 0.201233,0.5276219 0.635757,0.9259279 0.953111,1.3930099 0.308497,0.454047 0.509706,0.990719 0.513214,1.539642 0.001,0.161664 -0.01542,0.325614 -0.07332,0.476556 -0.04154,0.108296 -0.10415,0.208467 -0.183291,0.293265 -0.04794,0.01564 -0.09698,0.0279 -0.146632,0.03666 -0.15244,0.0269 -0.308814,0.02065 -0.46248,0.03932 -0.07683,0.0093 -0.153322,0.02504 -0.22527,0.05357 -0.07195,0.02853 -0.139417,0.07031 -0.192046,0.127058 -0.03337,0.03599 -0.06041,0.07749 -0.09423,0.113063 -0.01691,0.01778 -0.03556,0.03409 -0.05663,0.04668 -0.02107,0.01258 -0.04465,0.02137 -0.06909,0.02355 -0.02436,0.0022 -0.04896,-0.0022 -0.07332,0 -0.03964,0.0036 -0.07723,0.02564 -0.09973,0.05847 -0.02251,0.03283 -0.0295,0.07583 -0.01857,0.114109 0.01094,0.03827 0.03959,0.07109 0.07605,0.08707 0.03645,0.01599 0.08001,0.01484 0.115569,-0.003"
     id="path9"
     inkscape:path-effect="#path-effect9"
     inkscape:original-d="m 36.254902,14.00341 c -0.644961,-0.321075 -1.385015,-0.432455 -2.089514,-0.549872 -0.54984,-0.09164 -1.204757,-0.106539 -1.686275,-0.439898 -0.261469,-0.181017 -0.514961,-0.618249 -0.58653,-0.916453 -0.04002,-0.166772 -0.03666,-0.341707 -0.03666,-0.513214 0,-0.147141 -0.01616,-0.302565 0.03666,-0.439898 0.07301,-0.189815 0.204584,-0.353058 0.329923,-0.513214 0.428984,-0.548146 1.353888,-0.9850171 2.016198,-1.1364023 0.215739,-0.049312 0.439353,-0.054417 0.659847,-0.073316 0.125358,-0.010745 0.862765,-0.1034319 1.063086,-0.036658 0.129606,0.043202 0.116944,0.2471569 0.183291,0.3665814 0.271708,0.4890749 0.6294,0.9398139 0.953111,1.3930099 0.399446,0.559224 0.513214,0.885 0.513214,1.539642 0,0.278347 0.02705,0.225643 -0.07332,0.476556 -0.0048,0.012 -0.159193,0.281216 -0.183291,0.293265 -0.260006,0 -0.02147,-0.02592 -0.146632,0.03666 -0.271428,0.135714 -0.601852,0.09642 -0.879796,0.219949 -0.242787,0.107905 0.0267,0.0353 -0.219949,0.183291 -0.02096,0.01257 -0.05146,-0.01093 -0.07332,0 -0.02067,0.01034 -0.01459,0.256607 0.07332,0.256607" />
  <path
     style="fill:none;stroke:#ff9500;stroke-width:1.079"
     d="M 34.788576,34.348679 C 34.594609,34.113032 34.35729,33.913185 34.092072,33.762148 33.874562,33.63828 33.639299,33.547327 33.424435,33.418925 33.20957,33.290523 33.00987,33.115587 32.919011,32.882353 c -0.03231,-0.08294 -0.04989,-0.170732 -0.07332,-0.256607 -0.03768,-0.13809 -0.09059,-0.271529 -0.146633,-0.40324 -0.118272,-0.277977 -0.251543,-0.55139 -0.329923,-0.843137 -0.08952,-0.333204 -0.10502,-0.681444 -0.109974,-1.026428 -0.0088,-0.614247 0.01472,-1.232925 0.146632,-1.832907 0.06407,-0.291431 0.154099,-0.578661 0.290205,-0.844203 0.136105,-0.265542 0.319617,-0.509424 0.552932,-0.695439 0.444847,-0.354664 1.054408,-0.474729 1.612959,-0.366581 0.315918,0.06117 0.619176,0.191864 0.875317,0.386639 0.256142,0.194776 0.464247,0.453997 0.591008,0.749763 0.103887,0.242396 0.154333,0.509006 0.293265,0.733163 0.05207,0.08402 0.116699,0.162406 0.146633,0.256607 0.0214,0.06735 0.02376,0.139001 0.03356,0.208986 0.0098,0.06999 0.02879,0.142048 0.07642,0.194254 0.01165,0.01277 0.0248,0.02409 0.03666,0.03666 0.03526,0.03736 0.05842,0.08521 0.07018,0.135221 0.01176,0.05001 0.01248,0.102174 0.0066,0.153208 -0.01181,0.102066 -0.04943,0.199055 -0.07676,0.298101 -0.122214,0.442959 -0.03011,0.934182 0.219948,1.319693 0.06691,0.103147 0.144301,0.199103 0.213108,0.300991 0.06881,0.101889 0.129629,0.211351 0.158354,0.330894 0.02873,0.119544 0.02287,0.250809 -0.03597,0.358762 -0.02942,0.05398 -0.07177,0.101231 -0.123753,0.134045 -0.05198,0.03281 -0.113655,0.05081 -0.175079,0.04837 -0.01223,-4.87e-4 -0.02455,-0.0018 -0.03666,0 -0.01326,0.0019 -0.02585,0.0075 -0.03688,0.0151 -0.01103,0.0076 -0.02055,0.01726 -0.02892,0.02773 -0.01676,0.02092 -0.029,0.04505 -0.04417,0.06715 -0.04742,0.06911 -0.121656,0.115807 -0.199364,0.147209 -0.07771,0.0314 -0.160084,0.04924 -0.240534,0.07274 -0.506927,0.14809 -0.937657,0.537136 -1.136402,1.026428 -0.02409,-0.0071 -0.05121,-0.0029 -0.0721,0.01099 -0.02088,0.01392 -0.03514,0.03738 -0.03787,0.06233 -0.0013,0.01216 -7e-5,0.02443 0,0.03666 2.58e-4,0.04476 -0.01568,0.08862 -0.03986,0.12629 -0.02417,0.03767 -0.0563,0.06964 -0.09047,0.09856 -0.06833,0.05784 -0.146945,0.105991 -0.1996,0.178393 -0.04555,0.06264 -0.06803,0.138526 -0.09531,0.211014 -0.02728,0.07249 -0.06249,0.146005 -0.124636,0.192225 -0.02204,0.01639 -0.04698,0.02886 -0.07332,0.03666"
     id="path10"
     inkscape:path-effect="#path-effect10"
     inkscape:original-d="m 34.788576,34.348679 c -0.167428,-0.1465 -0.535726,-0.474473 -0.696504,-0.586531 -0.115885,-0.08077 -1.005292,-0.572219 -1.173061,-0.879795 -0.0426,-0.0781 -0.04518,-0.172214 -0.07332,-0.256607 -0.04523,-0.135685 -0.09452,-0.270049 -0.146633,-0.40324 -0.07811,-0.199626 -0.273229,-0.625808 -0.329923,-0.843137 -0.07565,-0.290012 -0.103399,-0.74367 -0.109974,-1.026428 -0.01884,-0.810096 -0.04024,-1.066729 0.146632,-1.832907 0.105893,-0.43416 0.420326,-1.285955 0.843137,-1.539642 0.406262,-0.243757 1.087434,-0.579027 1.612959,-0.366581 0.476987,0.192824 1.174311,0.629219 1.466325,1.136402 0.131334,0.228107 0.186364,0.492635 0.293265,0.733163 0.04001,0.09003 0.110045,0.165137 0.146633,0.256607 0.05174,0.129358 0.04767,0.278626 0.109974,0.40324 0.0077,0.01546 0.03247,0.01989 0.03666,0.03666 0.03955,0.158216 -0.0068,0.443967 0,0.58653 0.03054,0.641271 0.06976,0.493642 0.219948,1.319693 0.01824,0.100332 0.07394,1.135777 0.03666,1.173061 -0.0086,0.0086 -0.02688,-0.0073 -0.03666,0 -0.04147,0.0311 -0.06684,0.08122 -0.109974,0.109974 -0.136407,0.09094 -0.301288,0.132406 -0.439898,0.219949 -0.454632,0.287136 -0.787328,0.627486 -1.136402,1.026428 0.03137,0.170072 -0.07882,0.04216 -0.109975,0.07332 -0.0086,0.0086 0.0071,0.02672 0,0.03666 -0.0265,0.0371 -0.293278,0.344608 -0.329923,0.40324 -0.08115,0.129835 -0.14736,0.268432 -0.219949,0.403239 -0.0138,0.02562 -0.07332,0.139116 -0.07332,0.03666" />
  <path
     style="fill:none;stroke:#ff9500;stroke-width:1.079"
     d="m 19.905371,41.387042 c -0.571851,0.157546 -1.166555,0.231884 -1.759591,0.219949 -0.243918,-0.0049 -0.490905,-0.02502 -0.720882,-0.106445 -0.229976,-0.08143 -0.443555,-0.230227 -0.562153,-0.443428 -0.127958,-0.230029 -0.133587,-0.507658 -0.109974,-0.76982 0.09609,-1.066858 0.630047,-2.070807 1.393009,-2.822677 0.07386,-0.07279 0.149898,-0.143487 0.219949,-0.219949 0.188322,-0.205555 0.330398,-0.44938 0.513214,-0.659847 0.180328,-0.207603 0.402788,-0.382877 0.65898,-0.482794 0.256192,-0.09992 0.547542,-0.120527 0.807346,-0.03042 0.236286,0.08195 0.434365,0.249006 0.600469,0.435972 0.166105,0.186965 0.305321,0.396022 0.462617,0.590456 0.140425,0.17358 0.295479,0.335788 0.422517,0.519392 0.127037,0.183605 0.226533,0.394003 0.237329,0.617011 0.01131,0.233561 -0.07481,0.460463 -0.173944,0.672242 -0.09914,0.211779 -0.213758,0.419516 -0.265954,0.647451 -0.02835,0.123792 -0.03763,0.251074 -0.05837,0.376366 -0.02073,0.125293 -0.05414,0.251358 -0.124924,0.356797 -0.05552,0.0827 -0.132094,0.149564 -0.215129,0.20458 -0.08303,0.05502 -0.172843,0.09888 -0.262307,0.142668 -0.08946,0.04379 -0.179187,0.08786 -0.261972,0.143252 -0.08278,0.05539 -0.158935,0.122806 -0.213704,0.206004 -0.0097,0.01477 -0.0188,0.03007 -0.03036,0.04346 -0.01156,0.01339 -0.02597,0.02496 -0.04296,0.02986 -0.0119,0.0034 -0.02476,0.0034 -0.03666,0 -0.0067,-0.0053 -0.01494,-0.0086 -0.02343,-0.0094 -0.0085,-8.6e-4 -0.01721,7.39e-4 -0.02485,0.0046 -0.0076,0.0038 -0.01415,0.0098 -0.01855,0.01714 -0.0044,0.0073 -0.0067,0.01588 -0.0065,0.02441 2.86e-4,0.01293 0.006,0.02505 0.0088,0.03768 0.0014,0.0063 0.002,0.0129 7.78e-4,0.01925 -0.0012,0.0064 -0.0044,0.01248 -0.0096,0.01638 -0.005,0.0038 -0.01156,0.0052 -0.01787,0.0051 -0.0063,-1.41e-4 -0.01249,-0.0017 -0.01856,-0.0035 -0.0061,-0.0017 -0.01214,-0.0036 -0.01841,-0.0043 -0.0063,-7.09e-4 -0.01284,-1.92e-4 -0.01848,0.0027 -0.0047,0.0024 -0.0086,0.0063 -0.01127,0.01093 -0.0027,0.0046 -0.0042,0.0098 -0.0049,0.01504 -0.0014,0.01053 5.46e-4,0.02116 0.002,0.03167 0.0015,0.01051 0.0025,0.02143 -6.75e-4,0.03157 -0.0016,0.0051 -0.0042,0.0099 -0.0079,0.01363 -0.0037,0.0038 -0.0087,0.0064 -0.01392,0.0071 -0.0062,8e-4 -0.0124,-0.0012 -0.01855,-0.0023 -0.0031,-5.82e-4 -0.0062,-9.71e-4 -0.0093,-7.17e-4 -0.0031,2.53e-4 -0.0062,0.0012 -0.0088,0.003 -0.0027,0.002 -0.0046,0.0049 -0.0055,0.008 -9.93e-4,0.0032 -0.0011,0.0065 -7.11e-4,0.0098 8.34e-4,0.0066 0.0038,0.01264 0.0063,0.01879 0.01396,0.03474 0.01248,0.07538 -0.004,0.10901 -0.01646,0.03363 -0.04764,0.05973 -0.08364,0.07002 -0.036,0.01029 -0.07626,0.0046 -0.10801,-0.01526 -0.03175,-0.01986 -0.05447,-0.05357 -0.06097,-0.09045 z"
     id="path12"
     inkscape:path-effect="#path-effect12"
     inkscape:original-d="m 19.905371,41.387042 c -0.489513,0.41644 -1.168332,0.324288 -1.759591,0.219949 -0.474307,-0.0837 -0.939658,-0.152278 -1.283035,-0.549873 -0.0439,-0.05083 -0.105915,-0.692686 -0.109974,-0.76982 -0.05676,-1.078389 0.698002,-2.069753 1.393009,-2.822677 0.07033,-0.07619 0.152472,-0.141226 0.219949,-0.219949 0.279534,-0.326123 0.187547,-0.316087 0.513214,-0.659847 0.351517,-0.371045 0.930238,-0.714247 1.466326,-0.513214 0.437735,0.164151 0.784355,0.678015 1.063086,1.026428 0.269939,0.337424 0.586254,0.694851 0.659846,1.136403 0.08486,0.509173 -0.274556,0.878782 -0.439898,1.319693 -0.08977,0.239391 -0.05512,0.508856 -0.18329,0.733163 -0.121397,0.212444 -0.767901,0.57303 -0.953112,0.696504 -0.02876,0.01917 -0.04456,0.05415 -0.07332,0.07332 -0.01017,0.0068 -0.02444,0 -0.03666,0 -0.02444,0.01222 -0.054,0.01734 -0.07332,0.03666 -0.01728,0.01728 0.02186,0.06239 0,0.07332 -0.02186,0.01093 -0.05604,-0.01728 -0.07332,0 -0.02732,0.02732 -0.01522,0.07782 -0.03666,0.109974 -0.0068,0.01017 -0.02802,-0.0086 -0.03666,0 -0.0086,0.0086 0.0086,0.02802 0,0.03666 -0.03584,0.03584 -0.247228,0.07144 -0.256607,0.07332 z" />
  <path
     style="fill:none;stroke:#ff9500;stroke-width:1.079"
     d="M 3.1892583,33.945439 C 2.8007539,33.482673 2.4451981,32.992251 2.1261722,32.479113 2.0076787,32.288522 1.8940864,32.094557 1.7962489,31.892583 1.6003246,31.48812 1.4692876,31.055213 1.283035,30.646206 1.2150827,30.496984 1.1398841,30.351177 1.0630861,30.206309 0.93586801,29.966331 0.80321634,29.726479 0.72607625,29.46605 c -0.0771401,-0.260428 -0.0949863,-0.547679 0.007087,-0.799383 0.0269107,-0.06636 0.0621746,-0.129971 0.10997442,-0.183291 0.0836495,-0.09331 0.20174195,-0.150367 0.32337385,-0.180525 0.1216319,-0.03016 0.2478792,-0.03544 0.3731308,-0.03942 0.7305734,-0.02325 1.4799247,-0.004 2.1628304,0.256607 0.5782644,0.220677 1.0890073,0.607463 1.6862745,0.769821 0.2285162,0.06212 0.4670304,0.09046 0.6869229,0.178356 0.1099462,0.04395 0.2149062,0.103101 0.3017638,0.18357 0.086858,0.08047 0.1550554,0.183204 0.1843738,0.297921 0.01249,0.04887 0.018011,0.09977 0.036658,0.146632 0.026384,0.06631 0.077134,0.119926 0.1099744,0.183291 0.04106,0.07922 0.052403,0.169862 0.073316,0.256607 0.045314,0.187954 0.1372666,0.36209 0.1832907,0.549872 0.072977,0.297751 0.026662,0.610053 0.036658,0.916454 0.00382,0.117105 0.015937,0.233912 0.016395,0.351078 4.581e-4,0.117166 -0.01116,0.236004 -0.053053,0.345426 -0.068631,0.17926 -0.2146338,0.320743 -0.3802893,0.417711 -0.1656554,0.09697 -0.3512781,0.153887 -0.5361642,0.205478 -0.085689,0.02391 -0.1716682,0.04687 -0.256607,0.07332 -0.2001966,0.06235 -0.3993225,0.147317 -0.5498722,0.293265 -0.047017,0.04558 -0.088596,0.09646 -0.1347194,0.142941 -0.046123,0.04648 -0.097824,0.08915 -0.1585457,0.113666 -0.075212,0.03036 -0.1595029,0.03085 -0.2396727,0.01855 -0.08017,-0.01231 -0.1578931,-0.03679 -0.2368831,-0.05521 -0.2392479,-0.05578 -0.4882189,-0.05547 -0.7331629,-0.03666 -0.1844661,0.01417 -0.3681388,0.03866 -0.5498721,0.07332 z"
     id="path13"
     inkscape:path-effect="#path-effect13"
     inkscape:original-d="M 3.1892583,33.945439 C 2.7464338,33.529596 2.4284206,32.999652 2.1261722,32.479113 2.0135342,32.285126 1.8942544,32.094359 1.7962489,31.892583 1.5149396,31.313417 1.5271381,31.195438 1.283035,30.646206 1.2164525,30.496396 1.1251592,30.358043 1.0630861,30.206309 0.89797345,29.8027 0.71276329,29.095057 0.73316283,28.666667 c 0.003389,-0.07117 0.0595926,-0.132909 0.10997442,-0.183291 0.20362725,-0.203627 0.40654635,-0.191888 0.69650465,-0.219949 0.8780993,-0.08498 1.1188657,-0.03249 2.1628304,0.256607 0.4322995,0.119714 1.2814399,0.567404 1.6862745,0.769821 0.1751483,0.08757 0.9987839,0.427478 1.1730605,0.659847 0.030229,0.04031 0.016196,0.100593 0.036658,0.146632 0.028938,0.06511 0.08257,0.117521 0.1099744,0.183291 0.034215,0.08212 0.046782,0.171698 0.073316,0.256607 0.057628,0.184411 0.1428085,0.360955 0.1832907,0.549872 0.06383,0.297874 0.036658,0.613749 0.036658,0.916454 0,0.213083 0.040417,0.49097 -0.036658,0.696504 -0.070025,0.186733 -0.8147779,0.575026 -0.9164535,0.623189 -0.080395,0.03808 -0.1722137,0.04518 -0.256607,0.07332 -0.1452612,0.04842 -0.4125604,0.201724 -0.5498722,0.293265 -0.102787,0.06853 -0.1717311,0.216096 -0.2932651,0.256607 -0.1399937,0.04666 -0.3404032,-0.02758 -0.4765558,-0.03666 -0.9723133,-0.06482 0.40234,0.08951 -0.7331629,-0.03666 -0.3107797,-0.03453 -0.2911537,-0.08192 -0.5498721,0.07332 z" />
  <path
     style="fill:none;stroke:#1c3c55;stroke-width:1.079;stroke-opacity:1"
     d="m 5.7553282,12.793691 c 0.6826569,0.213836 1.3556388,0.458557 2.0161978,0.733163 0.5782958,0.240408 1.1482382,0.504144 1.7441904,0.696661 0.5959516,0.192517 1.2245906,0.313007 1.8483076,0.256451 0.251299,-0.02279 0.505325,-0.07401 0.753628,-0.0291 0.124151,0.02245 0.245529,0.06991 0.343162,0.149814 0.09763,0.07991 0.169924,0.194082 0.186245,0.319187 0.0063,0.04856 0.0043,0.09785 0,0.146632 -0.01524,0.171325 -0.05923,0.342699 -0.03666,0.513214 0.01527,0.11539 0.06048,0.224575 0.109974,0.329923 0.251381,0.535032 0.620714,1.004537 0.98977,1.466326 0.298672,0.373719 0.609702,0.754801 1.026428,0.98977 0.104989,0.0592 0.215629,0.108371 0.329923,0.146632 l 0.183291,0.109975 c 0.01871,0.02939 0.04393,0.05461 0.07332,0.07332 0.03293,0.02096 0.07106,0.03366 0.109975,0.03666 l 0.07332,0.07332 c -0.0035,0.01188 -0.0035,0.02478 0,0.03666 0.0033,0.01106 0.0095,0.02114 0.01736,0.02957 0.0079,0.0084 0.01736,0.01526 0.0275,0.02076 0.02028,0.011 0.04292,0.0167 0.06511,0.02299 0.327779,0.09277 0.608101,0.34298 0.733163,0.659847 0.01164,0.02948 0.02211,0.05972 0.03886,0.08662 0.01675,0.02691 0.04081,0.05071 0.07112,0.06001 0.0137,0.0042 0.02822,0.0053 0.04184,0.0098 0.0068,0.0022 0.01342,0.0053 0.01904,0.0097 0.0056,0.0044 0.01022,0.01034 0.01244,0.01716 0.0019,0.0058 0.002,0.01214 0.0016,0.01827 -4.41e-4,0.0061 -0.0014,0.01224 -0.0016,0.01839 -3.9e-4,0.01459 0.0038,0.02918 0.01138,0.04168 0.0075,0.0125 0.01835,0.02292 0.03076,0.0306 0.02482,0.01537 0.05535,0.01955 0.0844,0.01661 0.05809,-0.0059 0.110125,-0.03791 0.166734,-0.05223 0.06362,-0.01609 0.131919,-0.009 0.193342,0.01408 0.06142,0.0231 0.11627,0.06164 0.163445,0.107262 0.09435,0.09124 0.157828,0.208767 0.229743,0.318558 0.04829,0.07372 0.100905,0.144616 0.146633,0.219949 0.06262,0.103155 0.112023,0.21432 0.146632,0.329923"
     id="path14"
     inkscape:path-effect="#path-effect14"
     inkscape:original-d="m 5.7553282,12.793691 c 0.5517256,0.397353 1.420207,0.57062 2.0161978,0.733163 3.107186,0.847415 0.6380101,0.09787 3.592498,0.953112 0.434287,0.125715 0.906851,0.189108 1.283035,0.439898 0.04067,0.02711 0.0029,0.09784 0,0.146632 -0.01007,0.171211 -0.05152,0.342352 -0.03666,0.513214 0.01004,0.115488 0.06692,0.222291 0.109974,0.329923 0.224529,0.561324 0.607663,1.001152 0.98977,1.466326 0.292454,0.356031 0.673809,0.722266 1.026428,0.98977 0.09588,0.07274 0.222282,0.09281 0.329923,0.146632 0.0611,0.03666 0.122194,0.07332 0.183291,0.109975 0.02444,0.02444 0.04368,0.05553 0.07332,0.07332 0.03313,0.01988 0.07684,0.01678 0.109975,0.03666 0.02444,0.02444 0.04888,0.04888 0.07332,0.07332 0,0.01222 -0.0086,0.02802 0,0.03666 0.03115,0.03115 0.07682,0.0443 0.109974,0.07332 0.243548,0.213105 0.504697,0.431381 0.733163,0.659847 0.0432,0.0432 0.06677,0.10343 0.109975,0.146632 0.01932,0.01932 0.054,0.01734 0.07332,0.03666 0.0086,0.0086 -0.0086,0.02802 0,0.03666 0.01705,0.01705 0.245128,0.01259 0.293265,0.03666 0.196519,0.09826 0.439638,0.280764 0.58653,0.439897 0.05977,0.06475 0.09481,0.148687 0.146633,0.219949 0.03256,0.04477 0.360894,0.329923 0.146632,0.329923" />
  <path
     style="fill:none;stroke:#1c3c55;stroke-width:1.079;stroke-opacity:1"
     d="m 20.381927,19.648764 c -0.184708,-2.342879 -0.319162,-4.689719 -0.40324,-7.038363 -0.01574,-0.439823 -0.02971,-0.880592 0,-1.319693 0.02904,-0.429193 0.09966,-0.854552 0.136913,-1.28311 0.03725,-0.4285592 0.04042,-0.865549 -0.06359,-1.2829603 -0.09631,-0.3864951 -0.282199,-0.7471299 -0.366581,-1.1364024 -0.05207,-0.2402079 -0.06451,-0.4889589 -0.03666,-0.7331628"
     id="path15"
     inkscape:path-effect="#path-effect15"
     inkscape:original-d="m 20.381927,19.648764 c -0.601714,-2.294241 -0.432556,-4.693086 -0.40324,-7.038363 0.0055,-0.439864 -0.01353,-0.880004 0,-1.319693 0.02618,-0.850902 0.138992,-1.7122863 0.07332,-2.5660703 -0.0299,-0.3886771 -0.26458,-0.7624004 -0.366581,-1.1364024 -0.06415,-0.2352116 -0.03666,-0.4922884 -0.03666,-0.7331628" />
  <path
     style="fill:none;stroke:#1c3c55;stroke-width:1.079;stroke-opacity:1"
     d="m 21.408355,5.5353794 c 0.683781,-0.49848 1.55909,-0.7268847 2.399254,-0.6260651 0.840163,0.1008196 1.636582,0.5298318 2.183013,1.1759372 0.05053,0.059747 0.09898,0.1212281 0.146633,0.1832907 0.05817,0.075757 0.115454,0.1527065 0.183291,0.2199488 0.125656,0.1245548 0.283,0.2114936 0.439897,0.2932652 0.952456,0.4964011 1.98265,0.8703579 2.822677,1.5396419 0.334459,0.2664773 0.632662,0.5753626 0.95777,0.8531725 0.325107,0.2778099 0.685088,0.5282615 1.095086,0.6498113 0.331068,0.09815 0.681121,0.1083935 1.026428,0.1099745 0.183289,8.392e-4 0.366581,0 0.549872,0 h 0.256607 c 0.0061,0 0.01229,-3.62e-4 0.01841,-9.479e-4 0.0061,-5.859e-4 0.01249,-0.00119 0.01826,9.479e-4 0.0037,0.00138 0.007,0.00391 0.0093,0.00716 0.0023,0.00325 0.0035,0.0072 0.0035,0.011167 0,0.00396 -0.0012,0.00792 -0.0035,0.011167 -0.0023,0.00325 -0.0055,0.00579 -0.0093,0.00716 0.04902,0.01163 0.0979,0.02385 0.146633,0.036658 0.08604,0.02262 0.171604,0.04706 0.256607,0.07332"
     id="path16"
     inkscape:path-effect="#path-effect16"
     inkscape:original-d="m 21.408355,5.5353794 c 1.522957,0.1267762 3.112815,0.079647 4.582267,0.5498721 0.372882,0.1193222 0.06395,0.051004 0.146633,0.1832907 0.05058,0.08093 0.10962,0.1592792 0.183291,0.2199488 0.136037,0.112031 0.285481,0.2083364 0.439897,0.2932652 1.492719,0.8209954 0.965647,0.3245483 2.822677,1.5396419 0.06028,0.039444 1.681565,1.4150464 2.052856,1.5029838 0.334838,0.079304 0.683162,0.086026 1.026428,0.1099745 0.182846,0.012757 0.366582,0 0.549872,0 0.08554,0 0.171072,0 0.256607,0 0.01222,0 0.02802,-0.00864 0.03666,0 0.0086,0.00864 0,0.024439 0,0.036658 0.04888,0.012219 0.09723,0.026777 0.146633,0.036658 0.246869,0.04937 0.165095,-0.018196 0.256607,0.07332" />
  <path
     style="fill:none;stroke:#1c3c55;stroke-width:1.079;stroke-opacity:1"
     d="m 36.511509,14.516624 c -0.07095,-0.02305 -0.145356,-0.03545 -0.219949,-0.03666 -0.12586,-0.002 -0.251605,0.02798 -0.364976,0.08268 -0.113371,0.0547 -0.214438,0.133733 -0.29827,0.227632 -0.167665,0.187798 -0.264005,0.431521 -0.305088,0.679898 -0.08216,0.496756 0.04537,1.000897 0.08854,1.502548 0.09161,1.064446 -0.197871,2.122493 -0.256607,3.189258 -0.01411,0.256355 -0.01487,0.513509 0,0.769821 0.0283,0.487714 0.114239,0.975117 0.293265,1.429667 0.06848,0.173868 0.150295,0.342339 0.215735,0.517374 0.06544,0.175035 0.114656,0.358845 0.114188,0.545712 -6.56e-4,0.261819 -0.09796,0.512565 -0.146632,0.769821 -0.01159,0.06124 -0.02046,0.123108 -0.03666,0.183291 -0.04846,0.179966 -0.160028,0.336733 -0.219948,0.513214 -0.08352,0.245978 -0.06216,0.51449 -0.109975,0.769821 -0.0164,0.08757 -0.04098,0.173596 -0.07332,0.256607"
     id="path17"
     inkscape:path-effect="#path-effect17"
     inkscape:original-d="m 36.511509,14.516624 c -0.07332,-0.01222 -0.14682,-0.04995 -0.219949,-0.03666 -0.625715,0.113766 -0.824945,2.101944 -0.879795,2.492754 -0.149157,1.06274 -0.234249,2.11605 -0.256607,3.189258 -0.0053,0.256551 -0.01873,0.513898 0,0.769821 0.03411,0.466176 0.15538,0.984193 0.293265,1.429667 0.111747,0.361031 0.295787,0.687586 0.329923,1.063086 0.03407,0.374739 -0.03773,0.44311 -0.146632,0.769821 -0.0197,0.05911 -0.01537,0.124736 -0.03666,0.183291 -0.150979,0.415193 -0.08843,0.01346 -0.219948,0.513214 -0.193235,0.734291 0.02832,0.07833 -0.109975,0.769821 -0.03371,0.168565 -0.07332,0.138126 -0.07332,0.256607" />
  <path
     style="fill:none;stroke:#1c3c55;stroke-width:1.079;stroke-opacity:1"
     d="m 33.358909,33.945439 c -0.01409,0.07624 -0.03885,0.150503 -0.07332,0.219949 -0.09077,0.182849 -0.245896,0.326877 -0.415862,0.439942 -0.169967,0.113064 -0.356356,0.198617 -0.537249,0.293221 -0.634115,0.331632 -1.201568,0.77502 -1.796249,1.17306 -0.964566,0.645617 -2.004806,1.173974 -3.079284,1.612958 -0.720624,0.294415 -1.45796,0.549437 -2.16283,0.879796 -0.263445,0.123472 -0.524502,0.258248 -0.806479,0.329923 -0.442833,0.112563 -0.91532,0.06387 -1.356352,0.183291 -0.111925,0.03031 -0.220654,0.07117 -0.329923,0.109974 -0.07109,0.02525 -0.143024,0.04978 -0.217722,0.06038 -0.0747,0.01059 -0.153065,0.0065 -0.222176,-0.02372 -0.03177,-0.01391 -0.06179,-0.03334 -0.09595,-0.03931 -0.01708,-0.003 -0.03509,-0.0024 -0.0512,0.004 -0.01611,0.0064 -0.03013,0.01902 -0.03613,0.03528 -0.0043,0.01171 -0.0043,0.02495 0,0.03666"
     id="path18"
     inkscape:path-effect="#path-effect18"
     inkscape:original-d="m 33.358909,33.945439 c -0.308708,-0.01086 -0.03045,0.155646 -0.07332,0.219949 -0.148486,0.22273 -0.787079,0.622474 -0.953111,0.733163 -0.595017,0.396677 -1.186735,0.79904 -1.796249,1.17306 -0.951186,0.583682 -2.069717,1.151798 -3.079284,1.612958 -0.780218,0.356396 -1.393968,0.572251 -2.16283,0.879796 -0.269678,0.107871 -0.521668,0.272961 -0.806479,0.329923 -0.409568,0.08191 -0.925395,0.09094 -1.356352,0.183291 -0.07252,0.01554 -0.236342,0.109974 -0.329923,0.109974 -0.152991,0 -0.289095,0.01152 -0.439898,0.03666 -0.04073,0.0068 -0.152742,-0.01018 -0.18329,0 -0.01159,0.0039 0,0.02444 0,0.03666" />
  <path
     style="fill:none;stroke:#1c3c55;stroke-width:1.079;stroke-opacity:1"
     d="m 14.883205,38.710997 c 0.06134,-0.06045 0.102526,-0.14101 0.115622,-0.226129 0.0131,-0.08512 -0.002,-0.174332 -0.0423,-0.250426 -0.03342,-0.06306 -0.08342,-0.117052 -0.109975,-0.183291 -0.01877,-0.04682 -0.02492,-0.09757 -0.03666,-0.146633 -0.03035,-0.126888 -0.09885,-0.243041 -0.187917,-0.338382 -0.08906,-0.09534 -0.198199,-0.170537 -0.314614,-0.229439 -0.23283,-0.117805 -0.49188,-0.17083 -0.743846,-0.238658 -0.896849,-0.241426 -1.72733,-0.679442 -2.602728,-0.98977 -0.342902,-0.121559 -0.699303,-0.224469 -1.0630858,-0.219948 -0.036664,4.56e-4 -0.073363,0.002 -0.1099744,0 C 9.6326276,35.87983 9.4876142,35.808142 9.3587933,35.721353 9.2299724,35.634564 9.1124694,35.531533 8.9812447,35.448423 8.8426211,35.360627 8.690744,35.296336 8.541347,35.228474 8.3718905,35.151501 8.2039991,35.069036 8.050864,34.963252 7.8977289,34.857469 7.7590536,34.727163 7.6615516,34.568627 c -0.023115,-0.03758 -0.044072,-0.07693 -0.073316,-0.109974 -0.040642,-0.04592 -0.094898,-0.07705 -0.1466326,-0.109974 -0.080294,-0.05109 -0.1574599,-0.109006 -0.2183701,-0.182132 -0.06091,-0.07313 -0.1049504,-0.162824 -0.1115531,-0.257766 -0.00323,-0.04642 0.00232,-0.09411 -0.010714,-0.138785 -0.00652,-0.02234 -0.017906,-0.04368 -0.035217,-0.05922 -0.00866,-0.0078 -0.01873,-0.01402 -0.029689,-0.01792 -0.010959,-0.0039 -0.022807,-0.0054 -0.034355,-0.004 -0.019976,0.0025 -0.037907,0.01337 -0.057476,0.01807 -0.00978,0.0023 -0.020168,0.0031 -0.029859,3.86e-4 -0.00485,-0.0014 -0.00947,-0.0036 -0.013418,-0.0067 -0.00395,-0.0031 -0.00721,-0.0071 -0.00922,-0.01176 -0.00249,-0.0057 -0.00302,-0.01205 -0.00264,-0.01825 3.841e-4,-0.0062 0.00165,-0.01229 0.00264,-0.01841 0.00598,-0.03704 0.00164,-0.07569 -0.012398,-0.110476 -0.014041,-0.03479 -0.037746,-0.06562 -0.067759,-0.08813 -0.030013,-0.02251 -0.066249,-0.03663 -0.1035796,-0.04037 -0.03733,-0.0037 -0.075647,0.0029 -0.1095283,0.01903"
     id="path19"
     inkscape:path-effect="#path-effect19"
     inkscape:original-d="m 14.883205,38.710997 c -0.174839,-0.200501 0.117534,-0.299685 0.07332,-0.476555 -0.01616,-0.06465 -0.08632,-0.128101 -0.109975,-0.183291 -0.01985,-0.04631 -0.01681,-0.100324 -0.03666,-0.146633 -0.142999,-0.333665 -1.010314,-0.711146 -1.246377,-0.806479 -0.839499,-0.339028 -1.721406,-0.737963 -2.602728,-0.98977 -0.337872,-0.09654 -0.712859,-0.17617 -1.0630858,-0.219948 -0.036375,-0.0045 -0.074727,0.01007 -0.1099744,0 C 9.505236,35.80761 9.2345299,35.582515 8.9812447,35.448423 8.4092234,35.145588 8.9957887,35.5125 8.541347,35.228474 8.2523641,35.04786 7.8967917,34.764661 7.6615516,34.568627 7.6277056,34.540422 7.6193887,34.489806 7.5882353,34.458653 7.3487837,34.219201 7.7052839,34.67828 7.4416027,34.348679 7.3317448,34.211356 7.1989006,34.061418 7.1116795,33.908781 7.0321729,33.769644 7.129425,33.816552 7.001705,33.688832 c -0.018329,-0.01833 -0.091645,0.01833 -0.1099744,0 -0.00864,-0.0086 0.00678,-0.02649 0,-0.03666 -0.026171,-0.03926 -0.2921476,-0.219949 -0.2932651,-0.219949" />
  <path
     style="fill:none;stroke:#1c3c55;stroke-width:1.079;stroke-opacity:1"
     d="m 15.543052,38.307758 c 0.08528,-0.0081 0.171327,-0.0081 0.256607,0 0.09809,0.0093 0.19501,0.02927 0.293265,0.03666 0.152906,0.01151 0.306203,-0.0076 0.459039,-0.01997 0.152836,-0.0124 0.308822,-0.01788 0.457415,0.01997 0.03748,0.0095 0.07426,0.02181 0.109974,0.03666"
     id="path20"
     inkscape:path-effect="#path-effect20"
     inkscape:original-d="m 15.543052,38.307758 c 0.08554,0 0.171261,-0.0057 0.256607,0 0.0983,0.0066 0.194901,0.03119 0.293265,0.03666 0.150088,0.0083 0.792004,-0.04148 0.916454,0 0.126368,0.04212 0.02715,0.03666 0.109974,0.03666" />
  <path
     style="fill:none;stroke:#1c3c55;stroke-width:1.079;stroke-opacity:1"
     d="M 3.3358909,28.300085 C 3.0732556,26.775243 2.9382176,25.228444 2.9326513,23.681159 2.9290761,22.687343 2.9791662,21.690422 3.1526002,20.71185 3.2467296,20.180741 3.37923,19.650198 3.629156,19.172208 c 0.073989,-0.141507 0.1594561,-0.282004 0.1832907,-0.439898 0.016442,-0.108921 0.00241,-0.219795 0,-0.329923 -0.00348,-0.158933 0.017322,-0.318532 0,-0.476556 C 3.7880565,17.703325 3.6891406,17.495309 3.569816,17.305928 3.4504915,17.116546 3.3097683,16.9414 3.1892583,16.752771 3.079957,16.581686 2.9870465,16.398495 2.9326513,16.202899 2.8389246,15.865873 2.8652902,15.496754 3.0059673,15.176471"
     id="path21"
     inkscape:path-effect="#path-effect21"
     inkscape:original-d="M 3.3358909,28.300085 C 3.0512368,26.781528 2.9326513,25.226391 2.9326513,23.681159 c 0,-1.22153 0.010463,-1.788572 0.2199489,-2.969309 0.1218853,-0.68699 0.2316265,-0.927319 0.4765558,-1.539642 0.058996,-0.14749 0.1464973,-0.285366 0.1832907,-0.439898 0.025472,-0.106983 0,-0.219949 0,-0.329923 0,-0.158852 0.013761,-0.318301 0,-0.476556 -0.043957,-0.5055 -0.3897896,-0.758129 -0.6231884,-1.17306 -0.039241,-0.06976 -0.2304565,-0.453988 -0.256607,-0.549872 -0.053594,-0.196514 0.028998,-0.893473 0.073316,-1.026428" />
  <path
     style="fill:none;stroke:#1c3c55;stroke-width:1.079;stroke-opacity:1"
     d="M 5.6453538,9.4944587 C 5.7027081,9.3748931 5.7769937,9.2634646 5.8653026,9.1645354 6.1096532,8.8907983 6.4523873,8.7219302 6.8039778,8.6169381 7.1555684,8.5119461 7.5213279,8.4648216 7.8815004,8.3947144 8.8273884,8.2105983 9.734244,7.8680205 10.630861,7.514919 c 0.349051,-0.1374617 0.698746,-0.2772007 1.063086,-0.3665814 0.304478,-0.074695 0.616584,-0.1135588 0.92316,-0.1791133 0.306576,-0.065554 0.612305,-0.1600953 0.873089,-0.3341007 0.0594,-0.039632 0.116929,-0.083615 0.183291,-0.1099744 0.08079,-0.032089 0.169684,-0.036094 0.256607,-0.036658 0.296519,-0.00192 0.592256,0.031519 0.888763,0.034747 0.296508,0.00323 0.599381,-0.025375 0.870828,-0.1447218 0.05876,-0.025834 0.116014,-0.055894 0.17761,-0.073947 0.0616,-0.018053 0.129414,-0.023304 0.188971,6.31e-4 0.01238,0.00497 0.02449,0.011218 0.03771,0.013037 0.0066,9.095e-4 0.01345,6.616e-4 0.01979,-0.00141 0.0063,-0.00207 0.01215,-0.00606 0.01582,-0.011626 0.0034,-0.00522 0.0049,-0.011576 0.005,-0.017826 9.4e-5,-0.00625 -0.0011,-0.012449 -0.0024,-0.018549 -0.0014,-0.0061 -0.0029,-0.012169 -0.0037,-0.018373 -7.66e-4,-0.0062 -6.96e-4,-0.012609 0.0012,-0.018569 0.0022,-0.00686 0.0067,-0.01284 0.01224,-0.017402 0.0056,-0.00456 0.01214,-0.00777 0.01895,-0.010065 0.01363,-0.0046 0.02818,-0.00566 0.04213,-0.00919 0.03716,-0.00941 0.06911,-0.037385 0.08334,-0.072971 0.01423,-0.035586 0.01039,-0.077883 -0.01002,-0.1103201"
     id="path22"
     inkscape:path-effect="#path-effect22"
     inkscape:original-d="M 5.6453538,9.4944587 C 5.7186701,9.3844842 5.7566312,9.2397695 5.8653026,9.1645354 6.2147976,8.9225774 7.6877931,8.4601221 7.8815004,8.3947144 12.139249,6.9570332 7.0977071,8.6546461 10.630861,7.514919 c 0.356737,-0.1150764 0.705435,-0.2543773 1.063086,-0.3665814 0.586701,-0.1840631 1.223132,-0.283967 1.796249,-0.513214 0.06616,-0.026462 0.115697,-0.087443 0.183291,-0.1099744 0.08197,-0.027323 0.171159,-0.023841 0.256607,-0.036658 1.188861,-0.1783292 -0.454582,0.037637 1.759591,-0.1099744 0.124337,-0.00829 0.243663,-0.05283 0.366581,-0.073316 0.02411,-0.00402 0.05603,0.017281 0.07332,0 0.01728,-0.017281 -0.0077,-0.050132 0,-0.073316 0.03814,-0.1144218 0.02444,0.012219 0.07332,-0.036658 0.01778,-0.017785 0.05716,-0.1509849 0.07332,-0.1832907" />
  <path
     style="fill:none;stroke:#1c3c55;stroke-width:1.079;stroke-opacity:1"
     d="m 22.618073,20.381927 c 0.707567,-0.649133 1.369573,-1.347918 1.97954,-2.089514 0.760346,-0.924427 1.450162,-1.925767 2.382779,-2.676045 0.277288,-0.223074 0.576773,-0.424685 0.806479,-0.696504 0.03359,-0.03975 0.06635,-0.08159 0.109975,-0.109975 0.04734,-0.0308 0.104517,-0.04355 0.16093,-0.04622 0.05641,-0.0027 0.112777,0.0042 0.168993,0.0096 0.405461,0.03897 0.818551,0.0036 1.209719,-0.109974 0.562381,-0.163319 1.070307,-0.485161 1.502983,-0.879796 0.11495,-0.104844 0.22508,-0.214973 0.329924,-0.329923"
     id="path23"
     inkscape:path-effect="#path-effect23"
     inkscape:original-d="m 22.618073,20.381927 c 0.648432,-0.709153 1.346845,-1.364551 1.97954,-2.089514 0.790093,-0.905316 1.517178,-1.838366 2.382779,-2.676045 0.707591,-0.684765 0.222994,-0.210267 0.806479,-0.696504 0.03983,-0.03319 0.06079,-0.09358 0.109975,-0.109975 0.104973,-0.03499 0.21977,-0.02617 0.329923,-0.03666 0.403078,-0.03839 0.812679,-0.03057 1.209719,-0.109974 1.254839,-0.250968 0.825953,-0.338171 1.502983,-0.879796 0.173221,-0.138576 0.224737,-0.119549 0.329924,-0.329923" />
  <path
     style="fill:none;stroke:#1c3c55;stroke-width:1.079;stroke-opacity:1"
     d="m 22.508099,23.534527 c 0.0044,0.128914 0.04271,0.256517 0.109974,0.366581 0.108616,0.177726 0.284318,0.30141 0.439898,0.439898 0.213197,0.189775 0.393382,0.413042 0.58653,0.623188 0.147771,0.160775 0.305979,0.317701 0.40324,0.513214 0.124406,0.250079 0.137599,0.53958 0.219949,0.806479 0.10247,0.332111 0.31435,0.627 0.58653,0.843138 0.350787,0.27856 0.788322,0.42376 1.224262,0.526735 0.435939,0.102975 0.881955,0.169592 1.30515,0.316402 0.326004,0.113094 0.63388,0.272245 0.953111,0.40324 0.390321,0.160167 0.797218,0.277998 1.209719,0.366581 0.220335,0.04732 0.442681,0.08642 0.659847,0.146633 0.275808,0.07647 0.540987,0.186345 0.806479,0.293265 0.06104,0.02458 0.122137,0.04902 0.18329,0.07332 -0.001,0.01219 -0.001,0.02447 0,0.03666 0.0037,0.04514 0.02166,0.089 0.05061,0.123823 0.02895,0.03483 0.0688,0.06047 0.112493,0.07238 0.04369,0.01192 0.09104,0.01006 0.133665,-0.0053 0.04263,-0.01531 0.08034,-0.04399 0.106469,-0.08098"
     id="path24"
     inkscape:path-effect="#path-effect24"
     inkscape:original-d="m 22.508099,23.534527 c 0.03666,0.122194 0.03811,0.261176 0.109974,0.366581 0.116819,0.171335 0.29586,0.290716 0.439898,0.439898 0.198143,0.20522 0.399174,0.408076 0.58653,0.623188 0.142889,0.164058 0.29452,0.324767 0.40324,0.513214 0.238717,0.413777 0.07385,0.404706 0.219949,0.806479 0.110623,0.304215 0.320825,0.648969 0.58653,0.843138 0.692421,0.506 1.728426,0.585677 2.529412,0.843137 0.334943,0.10766 0.622644,0.293084 0.953111,0.40324 0.399725,0.133241 0.80362,0.254256 1.209719,0.366581 0.21716,0.06007 0.448878,0.06752 0.659847,0.146633 0.269329,0.100998 0.531639,0.201651 0.806479,0.293265 0.0611,0.02444 0.122194,0.04888 0.18329,0.07332 0,0.01222 -0.01123,0.03185 0,0.03666 0.06101,0.02615 0.308518,0.08629 0.40324,0.109974" />
  <path
     style="fill:none;stroke:#1c3c55;stroke-width:1.079;stroke-opacity:1"
     d="m 20.491901,25.770673 c -0.602875,1.122315 -0.825444,2.444641 -0.623188,3.702473 0.0481,0.29914 0.119397,0.594508 0.156921,0.895158 0.03752,0.30065 0.04025,0.610928 -0.04695,0.901091 -0.04466,0.148621 -0.112037,0.289205 -0.171303,0.432629 -0.05927,0.143424 -0.111059,0.292363 -0.121962,0.447166 -0.0078,0.110093 0.0054,0.22042 0.01385,0.330459 0.0085,0.110039 0.0122,0.222139 -0.01385,0.329388 -0.02982,0.12281 -0.09708,0.232949 -0.168038,0.337525 -0.07096,0.104575 -0.147164,0.206858 -0.198543,0.322321 -0.101117,0.227235 -0.09802,0.484733 -0.109975,0.733163 -0.0095,0.197059 -0.02961,0.394145 -0.07332,0.58653 -0.01972,0.08679 -0.04421,0.1725 -0.07332,0.256607"
     id="path25"
     inkscape:path-effect="#path-effect25"
     inkscape:original-d="m 20.491901,25.770673 c -0.536633,1.258234 -0.703386,2.365845 -0.623188,3.702473 7.21e-4,0.01202 0.126108,1.651042 0.109974,1.796249 -0.03387,0.304821 -0.255463,0.577382 -0.293265,0.879795 -0.02609,0.208756 0.05098,0.455945 0,0.659847 -0.05854,0.234165 -0.28061,0.430588 -0.366581,0.659846 -0.0912,0.243199 -0.07881,0.483863 -0.109975,0.733163 -0.02615,0.20924 -0.07332,0.368108 -0.07332,0.58653 0,0.135062 0.05976,0.256607 -0.07332,0.256607" />
  <path
     style="fill:none;stroke:#1c3c55;stroke-width:1.079;stroke-opacity:1"
     d="m 19.025575,24.341006 c -0.523662,-0.195379 -1.104653,-0.234112 -1.649616,-0.109974 -0.567723,0.129322 -1.081492,0.426245 -1.5763,0.733162 -1.405359,0.871709 -2.739386,1.857248 -3.995737,2.932652 -0.216871,0.185636 -0.432022,0.374519 -0.623189,0.58653 -0.284727,0.315773 -0.521613,0.687351 -0.879795,0.916453 -0.06003,0.03839 -0.122815,0.07229 -0.183291,0.109975 C 9.9161032,29.635382 9.7411923,29.802327 9.5311168,29.913043 9.207034,30.083844 8.8289503,30.106884 8.4680307,30.16965 8.1881081,30.21833 7.9087003,30.293044 7.6248934,30.279625 7.4611701,30.271884 7.2988966,30.234436 7.1483376,30.16965"
     id="path26"
     inkscape:path-effect="#path-effect26"
     inkscape:original-d="m 19.025575,24.341006 c -0.559161,-0.08947 -1.081172,-0.237874 -1.649616,-0.109974 -0.411988,0.0927 -1.241072,0.554849 -1.5763,0.733162 -1.575503,0.838034 -2.71912,1.72504 -3.995737,2.932652 -0.207236,0.196033 -0.421477,0.384818 -0.623189,0.58653 -0.373823,0.373823 -0.485335,0.5684 -0.879795,0.916453 -0.05343,0.04714 -0.12629,0.06723 -0.183291,0.109975 C 9.8076892,29.742272 9.91243,29.752491 9.5311168,29.913043 9.2728446,30.02179 8.6653099,30.125811 8.4680307,30.16965 8.1835142,30.232876 7.9201815,30.300717 7.6248934,30.279625 7.4626441,30.268036 7.246259,30.16965 7.1483376,30.16965" />
  <path
     style="fill:none;stroke:#95aabf;stroke-width:1.079;stroke-opacity:1"
     d="m 7.4782609,31.489344 c 0.078854,0.05018 0.1658865,0.08748 0.256607,0.109974 0.1550043,0.03843 0.3168929,0.03332 0.4765558,0.03666 0.3064763,0.0064 0.6112422,0.04477 0.9164535,0.07332 1.2296678,0.115009 2.4679088,0.07073 3.7024728,0.03666 2.617214,-0.07222 5.282084,-0.105464 7.771526,-0.916454 0.637332,-0.207625 1.258245,-0.464954 1.901605,-0.653073 0.643359,-0.188119 1.318625,-0.306511 1.984158,-0.226722 0.600935,0.07204 1.170644,0.302301 1.722932,0.549872 0.456115,0.20446 0.909414,0.423462 1.39301,0.549872 0.585655,0.153088 1.197768,0.165778 1.796248,0.256607 0.0855,0.01298 0.17098,0.02758 0.257361,0.03162 0.08638,0.004 0.174324,-0.0028 0.255853,-0.03162 0.05689,-0.02012 0.109489,-0.05048 0.162714,-0.07891 0.05323,-0.02844 0.108144,-0.05536 0.16721,-0.06772 0.09596,-0.02008 0.19523,-4.4e-4 0.293265,0 0.185179,8.32e-4 0.364801,-0.06695 0.549872,-0.07332 0.01222,-4.21e-4 0.02445,-5.73e-4 0.03666,0 0.02461,0.0012 0.04899,0.0052 0.07357,0.007 0.02458,0.0018 0.04979,0.0011 0.07306,-0.007 0.02585,-0.009 0.04791,-0.02653 0.07332,-0.03666 0.03437,-0.01369 0.0727,-0.01298 0.109486,-0.009 0.03678,0.0039 0.07352,0.01092 0.110463,0.009 0.0388,-0.002 0.07648,-0.01367 0.112562,-0.02807 0.03608,-0.0144 0.07103,-0.03158 0.107387,-0.04525 0.08152,-0.03066 0.169767,-0.04327 0.256607,-0.03666"
     id="path27"
     inkscape:path-effect="#path-effect27"
     inkscape:original-d="m 7.4782609,31.489344 c 0.085536,0.03666 0.1653541,0.09172 0.256607,0.109974 0.1562273,0.03124 0.3177288,0.02412 0.4765558,0.03666 0.3055099,0.02412 0.6102908,0.05981 0.9164535,0.07332 0.8370181,0.03693 3.0030628,0.05851 3.7024728,0.03666 2.60848,-0.08152 5.217874,-0.370802 7.771526,-0.916454 1.285461,-0.274671 2.558886,-0.808072 3.885763,-0.879795 0.59383,-0.0321 1.206733,0.332525 1.722932,0.549872 0.862725,0.363252 0.235236,0.121067 1.39301,0.549872 0.601497,0.222777 1.168962,0.256607 1.796248,0.256607 0.171072,0 0.342992,0.01702 0.513214,0 0.420473,-0.04205 -0.186082,-0.02755 0.329924,-0.146633 0.09525,-0.02198 0.195679,0.0057 0.293265,0 0.291356,-0.01714 0.296307,-0.03709 0.549872,-0.07332 0.0121,-0.0017 0.02444,0 0.03666,0 0.04888,0 0.09842,0.008 0.146633,0 0.02695,-0.0045 0.04681,-0.03003 0.07332,-0.03666 0.069,-0.01725 0.150945,0.01725 0.219949,0 0.07909,-0.01977 0.133486,-0.06251 0.219949,-0.07332 0.280818,-0.0351 0.09725,0.04302 0.256607,-0.03666" />
  <path
     style="fill:none;stroke:#95aabf;stroke-width:1.079;stroke-opacity:1"
     d="m 31.526002,26.540494 c -0.617184,-1.207199 -1.531447,-2.261141 -2.639386,-3.042625 -0.809238,-0.570796 -1.717179,-0.997201 -2.492754,-1.612959 -0.34364,-0.272829 -0.665083,-0.585111 -1.063086,-0.76982 -0.09929,-0.04608 -0.203344,-0.08421 -0.293265,-0.146633 -0.0502,-0.03485 -0.09529,-0.07683 -0.146633,-0.109974 -0.09192,-0.05934 -0.200657,-0.08837 -0.293265,-0.146633 -0.148709,-0.09356 -0.242601,-0.254084 -0.305781,-0.418023 -0.06318,-0.163939 -0.101465,-0.336988 -0.170775,-0.498431 -0.0647,-0.150696 -0.155504,-0.289093 -0.219949,-0.439897 -0.08934,-0.209064 -0.125742,-0.436235 -0.16231,-0.660628 -0.03657,-0.224394 -0.07488,-0.451481 -0.167613,-0.659065 -0.03742,-0.08376 -0.08336,-0.163526 -0.120207,-0.247543 -0.03684,-0.08402 -0.06473,-0.173946 -0.06308,-0.265671 6.6e-4,-0.03672 0.006,-0.07374 0,-0.109975 -0.0054,-0.03256 -0.01979,-0.06287 -0.03464,-0.09235 -0.01485,-0.02948 -0.03046,-0.05897 -0.03868,-0.09094 -0.01527,-0.05947 -0.0038,-0.122006 0,-0.183291 0.0106,-0.171406 -0.03987,-0.34151 -0.03666,-0.513214 0.003,-0.160874 0.0529,-0.316955 0.07332,-0.476556 0.01869,-0.146016 0.01265,-0.294663 0.03666,-0.439898 0.02274,-0.137558 0.07193,-0.269105 0.109975,-0.403239 0.151643,-0.534624 0.124064,-1.107929 0,-1.649617 -0.09513,-0.415377 -0.253603,-0.830113 -0.549872,-1.136402 -0.01202,-0.01242 -0.02424,-0.02464 -0.03666,-0.03666 -0.02691,-0.0061 -0.0523,-0.01879 -0.07332,-0.03666 -0.02735,-0.02324 -0.04674,-0.05444 -0.06286,-0.08651 -0.01611,-0.03207 -0.02942,-0.06556 -0.04712,-0.09678 -0.03659,-0.06456 -0.09087,-0.117436 -0.149194,-0.16332 -0.05832,-0.04588 -0.121232,-0.0856 -0.18073,-0.129945 -0.212253,-0.15821 -0.376757,-0.372178 -0.517286,-0.596528 C 21.740304,11.056355 21.621099,10.819239 21.481671,10.594203 21.32965,10.348842 21.154107,10.118711 20.968457,9.8976982 20.856729,9.7646874 20.741102,9.6346548 20.638534,9.4944587 20.388374,9.1525243 20.217738,8.7446408 20.198636,8.3213981 c -0.0061,-0.1352675 0.0027,-0.2736926 -0.03666,-0.4032395 -0.02252,-0.07405 -0.06045,-0.1436276 -0.07332,-0.2199489 -0.01222,-0.072437 -0.0011,-0.1464972 0,-0.2199488 0.0026,-0.1689405 -0.04953,-0.3382869 -0.146633,-0.4765559"
     id="path28"
     inkscape:path-effect="#path-effect28"
     inkscape:original-d="M 31.526002,26.540494 C 31.024775,25.237229 29.97068,24.3257 28.886616,23.497869 28.093174,22.891968 27.230335,22.422643 26.393862,21.88491 c -0.368476,-0.236877 -0.693527,-0.538846 -1.063086,-0.76982 -0.09268,-0.05793 -0.19886,-0.09156 -0.293265,-0.146633 -0.05277,-0.03079 -0.0908,-0.08516 -0.146633,-0.109974 -0.239283,-0.106349 -0.134942,0.05692 -0.293265,-0.146633 -0.2185,-0.280928 -0.33157,-0.597485 -0.476556,-0.916454 -0.06784,-0.149245 -0.160209,-0.287229 -0.219949,-0.439897 -0.163336,-0.417415 -0.212468,-0.889026 -0.329923,-1.319693 -0.0478,-0.175254 -0.139233,-0.336984 -0.183291,-0.513214 -0.0089,-0.03556 0.0089,-0.07441 0,-0.109975 -0.01127,-0.04509 -0.05838,-0.10861 -0.07332,-0.18329 -0.01198,-0.05991 0.0067,-0.122568 0,-0.183291 -0.03028,-0.272553 -0.06618,-0.203255 -0.03666,-0.513214 0.01524,-0.159997 0.05417,-0.31698 0.07332,-0.476556 0.01753,-0.146093 0.01145,-0.294933 0.03666,-0.439898 0.02387,-0.137262 0.08038,-0.267097 0.109975,-0.403239 0.113997,-0.524389 0.130678,-1.126904 0,-1.649617 -0.09993,-0.399719 -0.302422,-0.806468 -0.549872,-1.136402 -0.01037,-0.01383 -0.02444,-0.02444 -0.03666,-0.03666 -0.02444,-0.01222 -0.05582,-0.01567 -0.07332,-0.03666 -0.04561,-0.05474 -0.06623,-0.127049 -0.109974,-0.183291 -0.218777,-0.281284 -0.07362,-0.01366 -0.329924,-0.293265 C 22.046232,11.493355 21.790275,11.011726 21.481671,10.594203 21.310256,10.362288 21.14149,10.128408 20.968457,9.8976982 20.864255,9.7587622 20.738686,9.6363415 20.638534,9.4944587 20.402277,9.1597624 20.294061,8.7030969 20.198636,8.3213981 c -0.03149,-0.1259543 -0.0048,-0.2759397 -0.03666,-0.4032395 -0.01874,-0.074975 -0.06061,-0.1437182 -0.07332,-0.2199489 -0.01205,-0.072319 0.01438,-0.1480563 0,-0.2199488 -0.02943,-0.1471712 -0.08023,-0.3437468 -0.146633,-0.4765559" />
  <path
     style="fill:none;stroke:#95aabf;stroke-width:1.079;stroke-opacity:1"
     d="m 6.6717818,29.253197 c -0.03971,-0.04649 -0.076467,-0.09549 -0.1099745,-0.146633 -0.1635367,-0.249585 -0.2466485,-0.547571 -0.2581463,-0.84574 -0.011498,-0.29817 0.046643,-0.596605 0.1481719,-0.877192 0.2344353,-0.647887 0.6967526,-1.197471 1.2463768,-1.612959 0.520461,-0.393443 1.1158918,-0.673004 1.6862745,-0.989769 0.7461278,-0.414366 1.4587698,-0.89931 2.0651188,-1.499932 0.606349,-0.600622 1.104888,-1.321568 1.380747,-2.129224 0.274452,-0.803534 0.322096,-1.665684 0.32556,-2.514789 0.0035,-0.849105 -0.03457,-1.702375 0.07768,-2.544035 0.132705,-0.995034 0.481023,-1.968152 1.063086,-2.786019 0.222512,-0.312655 0.477586,-0.601272 0.696505,-0.916453 0.321795,-0.463294 0.561272,-0.97771 0.843137,-1.466326 0.07965,-0.138071 0.162847,-0.274335 0.256607,-0.403239 0.30047,-0.413097 0.702344,-0.7415601 1.026428,-1.1364028 0.219985,-0.2680152 0.403062,-0.5656738 0.549872,-0.8797954 0.04631,-0.099078 0.08923,-0.2001755 0.146633,-0.2932651 0.136591,-0.2215123 0.347339,-0.3860051 0.513214,-0.5865303 0.08438,-0.1020088 0.157117,-0.2133977 0.219949,-0.3299232 0.05717,-0.1060314 0.106241,-0.2164329 0.146632,-0.3299233"
     id="path29"
     inkscape:path-effect="#path-effect29"
     inkscape:original-d="m 6.6717818,29.253197 c -0.036658,-0.04888 -0.090654,-0.08867 -0.1099745,-0.146633 -0.09263,-0.277889 -0.170395,-1.600314 -0.1099744,-1.722932 0.3003289,-0.609491 0.7381859,-1.161939 1.2463768,-1.612959 0.4874705,-0.43263 1.1494894,-0.620097 1.6862745,-0.989769 2.0570448,-1.416644 2.3278658,-1.523157 3.4458658,-3.629156 0.754262,-1.420821 0.232317,-3.563259 0.403239,-5.058824 0.120773,-1.056763 0.476932,-1.939352 1.063086,-2.786019 0.218404,-0.315472 0.483668,-0.597199 0.696505,-0.916453 0.312748,-0.469123 0.554985,-0.981706 0.843137,-1.466326 0.08143,-0.136942 0.154225,-0.281169 0.256607,-0.403239 0.308542,-0.367878 0.744557,-0.7253412 1.026428,-1.1364028 0.195578,-0.2852178 0.373311,-0.5824299 0.549872,-0.8797954 0.0558,-0.093977 0.08106,-0.2058303 0.146633,-0.2932651 0.159241,-0.2123222 0.364381,-0.3632812 0.513214,-0.5865303 0.07332,-0.1099744 0.15576,-0.2143834 0.219949,-0.3299232 0.05095,-0.091711 0.07157,-0.2548633 0.146632,-0.3299233" />
  <path
     style="fill:none;stroke:#ff9500;stroke-width:1.079"
     d="m 19.575448,24.670929 c -0.01276,-0.08831 -0.03749,-0.174886 -0.07332,-0.256607 -0.0731,-0.166744 -0.191423,-0.311055 -0.328677,-0.430675 -0.137254,-0.11962 -0.293396,-0.215714 -0.453588,-0.302236 -0.320383,-0.173045 -0.664372,-0.31295 -0.940667,-0.550124 -0.364448,-0.312845 -0.576279,-0.76415 -0.879796,-1.136402 -0.04557,-0.05589 -0.09336,-0.110178 -0.133773,-0.169899 -0.04041,-0.05972 -0.07356,-0.125684 -0.08618,-0.196683 -0.01499,-0.08439 -3.65e-4,-0.170893 0,-0.256606 3.64e-4,-0.08568 -0.01354,-0.172006 0,-0.256607 0.01121,-0.07006 0.0412,-0.136517 0.08279,-0.194001 0.0416,-0.05748 0.09459,-0.106209 0.152903,-0.146635 0.116627,-0.08085 0.252709,-0.12817 0.387493,-0.172578 1.090999,-0.359461 2.225922,-0.591018 3.372549,-0.659847 0.183156,-0.01099 0.367254,-0.01783 0.549872,0 0.235778,0.02302 0.468305,0.08781 0.677767,0.198473 0.209461,0.110667 0.395416,0.267778 0.531952,0.461374 0.207451,0.294146 0.293922,0.674169 0.219948,1.026427 -0.06656,0.316958 -0.252085,0.593361 -0.403239,0.879796 -0.08527,0.16158 -0.161388,0.331834 -0.183291,0.513214 -0.03274,0.27111 0.0576,0.539807 0.100658,0.809471 0.02153,0.134832 0.03122,0.27314 0.0078,0.407652 -0.02345,0.134512 -0.0822,0.265721 -0.181749,0.359177 -0.0843,0.07914 -0.19221,0.127095 -0.293265,0.183291 -0.06227,0.03463 -0.122506,0.07279 -0.183291,0.109974 -0.201656,0.123362 -0.414064,0.237794 -0.646168,0.282636 -0.116052,0.02242 -0.23621,0.02689 -0.352527,0.0059 -0.116318,-0.021 -0.228723,-0.06803 -0.320998,-0.141894 -0.07537,-0.06033 -0.135783,-0.136868 -0.202791,-0.206363 -0.06701,-0.06949 -0.144192,-0.134023 -0.237107,-0.160219 -0.05955,-0.01679 -0.123739,-0.01679 -0.18329,0 z"
     id="path11"
     inkscape:path-effect="#path-effect11"
     inkscape:original-d="m 19.575448,24.670929 c -0.02444,-0.08554 -0.01197,-0.192189 -0.07332,-0.256607 -0.458356,-0.481273 -1.205346,-0.851713 -1.722932,-1.283035 -0.3805,-0.317083 -0.628959,-0.718341 -0.879796,-1.136402 -0.07332,-0.122194 -0.172521,-0.232204 -0.219949,-0.366582 -0.02847,-0.08066 0,-0.171071 0,-0.256606 0,-0.08554 -0.03584,-0.178945 0,-0.256607 0.06098,-0.132118 0.579301,-0.488135 0.623189,-0.513214 1.014195,-0.57954 2.233691,-0.630646 3.372549,-0.659847 0.18323,-0.0047 0.367491,-0.01824 0.549872,0 0.137092,0.01371 1.081183,0.578666 1.209719,0.659847 0.558653,0.352833 0.484109,0.465086 0.219948,1.026427 -0.137362,0.291896 -0.278052,0.582475 -0.403239,0.879796 -0.07049,0.167419 -0.156344,0.333569 -0.183291,0.513214 -0.0726,0.484022 0.0475,1.093025 -0.07332,1.5763 -0.03705,0.148186 -0.183719,0.134603 -0.293265,0.183291 -0.06511,0.02894 -0.114782,0.0904 -0.183291,0.109974 -0.288205,0.08234 -0.974265,0.215718 -1.319693,0.146633 -0.180581,-0.03612 -0.331779,-0.335691 -0.439898,-0.366582 -0.05875,-0.01678 -0.122194,0 -0.18329,0 z" />
</svg>
