<?xml version="1.0" encoding="UTF-8" standalone="no"?>
<!-- Created with Inkscape (http://www.inkscape.org/) -->

<svg
   width="188.97638"
   height="188.97638"
   viewBox="0 0 50 50"
   version="1.1"
   id="svg1"
   inkscape:version="1.3.2 (091e20e, 2023-11-25, custom)"
   sodipodi:docname="levreg.svg"
   xmlns:inkscape="http://www.inkscape.org/namespaces/inkscape"
   xmlns:sodipodi="http://sodipodi.sourceforge.net/DTD/sodipodi-0.dtd"
   xmlns="http://www.w3.org/2000/svg"
   xmlns:svg="http://www.w3.org/2000/svg">
  <sodipodi:namedview
     id="namedview1"
     pagecolor="#ffffff"
     bordercolor="#000000"
     borderopacity="0.25"
     inkscape:showpageshadow="2"
     inkscape:pageopacity="0.0"
     inkscape:pagecheckerboard="0"
     inkscape:deskcolor="#d1d1d1"
     inkscape:document-units="mm"
     inkscape:zoom="2.0899411"
     inkscape:cx="93.782548"
     inkscape:cy="110.29019"
     inkscape:window-width="2560"
     inkscape:window-height="1369"
     inkscape:window-x="-8"
     inkscape:window-y="-8"
     inkscape:window-maximized="1"
     inkscape:current-layer="layer1" />
  <defs
     id="defs1">
    <inkscape:path-effect
       effect="spiro"
       id="path-effect26"
       is_visible="true"
       lpeversion="1" />
    <inkscape:path-effect
       effect="spiro"
       id="path-effect25"
       is_visible="true"
       lpeversion="1" />
    <inkscape:path-effect
       effect="spiro"
       id="path-effect24"
       is_visible="true"
       lpeversion="1" />
    <inkscape:path-effect
       effect="spiro"
       id="path-effect23"
       is_visible="true"
       lpeversion="1" />
    <inkscape:path-effect
       effect="spiro"
       id="path-effect22"
       is_visible="true"
       lpeversion="1" />
    <inkscape:path-effect
       effect="spiro"
       id="path-effect21"
       is_visible="true"
       lpeversion="1" />
    <inkscape:path-effect
       effect="spiro"
       id="path-effect6"
       is_visible="true"
       lpeversion="1" />
    <inkscape:path-effect
       effect="spiro"
       id="path-effect5"
       is_visible="true"
       lpeversion="1" />
    <inkscape:path-effect
       effect="spiro"
       id="path-effect4"
       is_visible="true"
       lpeversion="1" />
    <inkscape:path-effect
       effect="spiro"
       id="path-effect3"
       is_visible="true"
       lpeversion="1" />
    <inkscape:path-effect
       effect="spiro"
       id="path-effect2"
       is_visible="true"
       lpeversion="1" />
    <inkscape:path-effect
       effect="spiro"
       id="path-effect1"
       is_visible="true"
       lpeversion="1" />
  </defs>
  <g
     inkscape:label="Layer 1"
     inkscape:groupmode="layer"
     id="layer1">
    <path
       style="fill:none;stroke:#95aabf;stroke-width:1;stroke-opacity:1;stroke-dasharray:none"
       d="M 4.5575447,4.6841431 C 4.7426171,5.2422443 4.953925,5.7916448 5.190537,6.3299231 5.3358832,6.660577 5.4918354,6.990155 5.5703324,7.342711 c 0.1388097,0.6234403 0.026718,1.2714216 -0.064296,1.9036101 -0.091014,0.6321886 -0.157557,1.2954059 0.064296,1.8943439 0.1971693,0.5323 0.6086745,0.971967 0.7595907,1.519181 0.1187174,0.430463 0.064939,0.88814 -0.00799,1.328678 -0.072928,0.440538 -0.1645182,0.885723 -0.1186104,1.32989 0.031146,0.30134 0.1247647,0.592109 0.2110144,0.882517 0.08625,0.290408 0.1662286,0.586928 0.168781,0.889862 0.0034,0.403149 -0.1304967,0.794843 -0.2910992,1.164637 -0.1606024,0.369795 -0.3500969,0.728747 -0.4684915,1.114135 -0.063296,0.206036 -0.1057809,0.41846 -0.1265984,0.632992 -0.069312,0.299432 -0.1538563,0.595337 -0.253197,0.886189 -0.1596665,0.467476 -0.3574102,0.921595 -0.506394,1.392584 -0.4123869,1.303698 -0.4380077,2.719717 -0.1265983,4.05115 0.118908,0.508392 0.2857555,1.005609 0.3797953,1.519183 0.1981726,1.082268 0.0668,2.193327 0,3.29156 -0.054825,0.90135 -0.063197,1.82367 0.2051436,2.685894 0.1341705,0.431112 0.3379832,0.843231 0.6224682,1.193841 0.284485,0.35061 0.6515222,0.638302 1.0713652,0.804408 0.072548,0.0287 0.1468945,0.05395 0.214936,0.09212 0.068042,0.03818 0.1305127,0.09102 0.1648594,0.161075 0.028436,0.058 0.035936,0.124435 0.032138,0.188917 -0.0038,0.06448 -0.018357,0.127773 -0.032138,0.190879 -0.2150767,0.984884 -0.2619966,2.035034 -0.7595907,2.911763 -0.2967522,0.522858 -0.7351061,0.947613 -1.1393863,1.392585 -0.7973026,0.877554 -1.480077,1.859041 -2.0255754,2.911763 l -0.1265983,0.379796 c -0.04211,-0.0034 -0.084489,-0.0034 -0.1265987,0 -0.1748401,0.01399 -0.3443306,0.08791 -0.4735327,0.206536 -0.129202,0.118623 -0.2173011,0.281198 -0.2461365,0.45421 -0.028835,0.173012 0.00177,0.355371 0.08552,0.509486 0.083746,0.154115 0.2200989,0.279014 0.3809518,0.34895"
       id="path1"
       inkscape:path-effect="#path-effect1"
       inkscape:original-d="m 4.5575447,4.6841431 c 0.2109975,0.5485934 0.4091988,1.1022814 0.6329923,1.64578 0.210343,0.5108331 0.3186737,0.4626925 0.3797954,1.0127879 0.1420233,1.2782095 -0.3450463,2.5327843 0,3.797954 0.1597565,0.585774 0.6628286,0.938608 0.7595907,1.519181 0.1428432,0.85706 -0.1265984,1.817407 -0.1265984,2.658568 0,0.590125 0.3797954,1.190715 0.3797954,1.772379 0,0.837943 -0.5297932,1.51278 -0.7595907,2.278772 -0.061831,0.206101 -0.084399,0.421995 -0.1265984,0.632992 -0.084399,0.295397 -0.1560465,0.594738 -0.253197,0.886189 -0.2516992,0.755098 -0.2995054,0.56503 -0.506394,1.392584 -0.2036603,0.814641 -0.2410385,3.192849 -0.1265983,4.05115 0.068987,0.517399 0.3150518,1.001235 0.3797953,1.519183 0.1350547,1.080437 -0.1272339,2.210073 0,3.29156 0.1796196,1.526765 0.7657042,3.550869 1.898977,4.684143 0.1075881,0.107588 0.2722073,0.145608 0.3797954,0.253196 0.089519,0.08952 0,0.253198 0,0.379796 0,1.145278 -0.1293794,1.921431 -0.7595907,2.911763 -0.7764362,1.220116 -0.1887255,0.336294 -1.1393863,1.392585 -0.6648776,0.738753 -1.5782457,2.017103 -2.0255754,2.911763 -0.042199,0.1266 -0.084399,0.253198 -0.1265983,0.379796 -0.0422,0 -0.096759,-0.02984 -0.1265987,0 -0.132484,0.132485 0.078534,1.519182 -0.253197,1.519182" />
    <path
       style="fill:none;stroke:#95aabf;stroke-width:1;stroke-dasharray:none;stroke-opacity:1"
       d="m 1.7723785,41.017901 c 1.0353588,-0.506596 2.1505011,-0.849716 3.2915602,-1.012785 1.5059615,-0.215218 3.0363106,-0.117363 4.5575447,-0.126601 1.0997926,-0.0067 2.2092606,-0.06889 3.2915596,0.126601 1.145012,0.20682 2.216562,0.694182 3.29156,1.139386 0.247038,0.102309 0.496922,0.203199 0.759591,0.253195 0.581663,0.110713 1.181297,-0.0348 1.772379,0 0.604072,0.03556 1.179726,0.257605 1.772378,0.379796 1.574622,0.324649 3.204236,-0.063 4.810742,0 0.931695,0.03654 1.879944,0.223524 2.785166,0 0.388823,-0.09601 0.755622,-0.265223 1.139386,-0.379796 0.985291,-0.29416 2.050753,-0.220119 3.038363,-0.506394 0.295336,-0.08561 0.582786,-0.203219 0.886191,-0.253195 0.291841,-0.04807 0.589932,-0.03416 0.885418,-0.0211 0.295485,0.01306 0.591185,0.0211 0.886959,0.0211 h 3.038364 c 0.428607,0 0.855912,-0.0405 1.279542,-0.105622 0.211816,-0.03256 0.425095,-0.06384 0.639345,-0.05905 0.21425,0.0048 0.432837,0.04875 0.61308,0.164669 0.08903,0.05726 0.166385,0.130526 0.246028,0.200251 0.07964,0.06973 0.163392,0.137107 0.260366,0.179542 0.09887,0.04327 0.207361,0.05881 0.314572,0.07122 0.107211,0.0124 0.215693,0.0223 0.318423,0.05539 0.17992,0.05795 0.330827,0.183156 0.506394,0.253195 0.217902,0.08693 0.459917,0.08403 0.694369,0.07567 0.234452,-0.0084 0.474649,-0.02019 0.698212,0.05092 0.180157,0.05731 0.339019,0.165299 0.506394,0.253198 0.699439,0.367317 1.579333,0.367317 2.278772,0"
       id="path2"
       inkscape:path-effect="#path-effect2"
       inkscape:original-d="m 1.7723785,41.017901 c 1.0997191,-0.293108 2.1567919,-0.844671 3.2915602,-1.012785 1.4880809,-0.220459 3.0560848,-0.126601 4.5575447,-0.126601 1.0377816,0 2.2781456,-0.177424 3.2915596,0.126601 1.103361,0.331007 2.191549,0.792012 3.29156,1.139386 0.254505,0.08037 0.49633,0.209319 0.759591,0.253195 0.570795,0.09513 1.204946,-0.113485 1.772379,0 0.563368,0.112673 1.175932,0.325573 1.772378,0.379796 1.550234,0.140931 3.279409,0 4.810742,0 0.928389,0 1.868139,0.144794 2.785166,0 0.395441,-0.06244 0.749689,-0.288102 1.139386,-0.379796 1.006038,-0.236714 2.021668,-0.326977 3.038363,-0.506394 0.302544,-0.05339 0.581668,-0.212592 0.886191,-0.253195 0.58561,-0.07808 1.181584,0 1.772377,0 1.012788,0 2.025576,0 3.038364,0 0.587227,0 2.308775,-0.133916 2.531967,0 0.18093,0.108556 0.313584,0.2941 0.506394,0.379793 0.196631,0.08739 0.428861,0.05855 0.632995,0.126601 0.179035,0.05968 0.324932,0.20135 0.506394,0.253195 0.415898,0.11883 0.962474,0.01908 1.392581,0.126598 0.202592,0.05065 0.303803,0.202549 0.506394,0.253198 0.578969,0.144743 1.627804,0 2.278772,0" />
    <path
       style="fill:none;stroke:#95aabf;stroke-width:1;stroke-dasharray:none;stroke-opacity:1"
       d="m 44.436061,38.73913 c 0.818838,0.120475 1.592218,0.529911 2.152174,1.139385 0.284029,0.309146 0.523414,0.674916 0.88619,0.886191 0.196712,0.114562 0.418649,0.176534 0.632992,0.253195 0.111323,0.03981 0.221692,0.08411 0.323121,0.144853 0.101429,0.06075 0.194121,0.138778 0.26027,0.236769 0.06615,0.09799 0.104402,0.217055 0.09438,0.334859 -0.005,0.0589 -0.02202,0.116937 -0.05111,0.168395 -0.0291,0.05146 -0.07038,0.09621 -0.120269,0.127912 -0.05653,0.03592 -0.122208,0.05437 -0.187338,0.07 -0.06513,0.01563 -0.131378,0.02911 -0.192458,0.0566 -0.08255,0.03715 -0.152158,0.09844 -0.212231,0.166159 -0.06007,0.06772 -0.111713,0.142392 -0.167565,0.213634 -0.415441,0.529917 -1.04007,0.845247 -1.64578,1.139386 -0.798083,0.387558 -1.599923,0.767377 -2.40537,1.139388"
       id="path3"
       inkscape:path-effect="#path-effect3"
       inkscape:original-d="m 44.436061,38.73913 c 1.061196,0.397949 1.192583,0.359719 2.152174,1.139385 0.324223,0.263433 0.551987,0.635538 0.88619,0.886191 0.181801,0.13635 0.438126,0.136276 0.632992,0.253195 0.02471,0.01482 0.566475,0.892625 0.506394,1.012788 -0.14804,0.296077 -0.120999,-0.02868 -0.379796,0.126601 -0.153522,0.09211 -0.246719,0.260024 -0.379796,0.379793 -0.983145,0.88483 -0.624044,0.62852 -1.64578,1.139386 -0.346025,0.173014 -2.155426,1.139388 -2.40537,1.139388" />
    <path
       style="fill:none;stroke:#95aabf;stroke-width:1;stroke-dasharray:none;stroke-opacity:1"
       d="M 3.544757,7.5959077 C 4.5901828,6.633825 5.2034292,5.2186412 5.190537,3.797954 c -0.00143,-0.157961 -0.0096,-0.3201478 0.041828,-0.469509 0.025715,-0.074681 0.066693,-0.1450789 0.1248268,-0.198547 0.058134,-0.053468 0.1341958,-0.089069 0.2131411,-0.091535 0.056145,-0.00175 0.1123577,0.013177 0.161597,0.04021 0.049239,0.027033 0.091583,0.065916 0.1249607,0.1110955 0.066756,0.090359 0.096734,0.2035113 0.1050426,0.3155474 0.016617,0.2240721 -0.047588,0.4507138 -0.011805,0.6725337 0.029465,0.1826563 0.1253904,0.3489406 0.2429097,0.4918418 0.1175192,0.1429013 0.2570125,0.2658024 0.3900827,0.3943476 0.5250885,0.5072331 0.9564684,1.111165 1.2659846,1.7723783"
       id="path4"
       inkscape:path-effect="#path-effect4"
       inkscape:original-d="M 3.544757,7.5959077 C 4.0252882,6.3119761 4.5779142,5.0231997 5.190537,3.797954 5.3995708,3.3798864 5.9296299,3.038363 5.5703324,3.038363 c -0.1035487,0 0.058434,0.5770039 0.3797953,1.1393863 0.1801053,0.3151841 0.4380992,0.5799286 0.6329924,0.8861894 0.3977862,0.6250924 0.7405417,1.2469354 1.2659846,1.7723783" />
    <path
       style="fill:none;stroke:#ff9500;stroke-width:1;stroke-dasharray:none;stroke-opacity:1"
       d="M 8.2289001,33.80179 C 7.994374,33.559149 7.8337982,33.245958 7.7736713,32.913901 7.7135444,32.581844 7.7541039,32.232233 7.8886568,31.922761 8.0232096,31.61329 8.2512239,31.345181 8.5350724,31.162678 8.8189208,30.980175 9.1574815,30.884 9.4948847,30.890024 c 0.04221,7.54e-4 0.084493,0.0031 0.1265987,0 0.084945,-0.0062 0.1675141,-0.0343 0.2418554,-0.07586 0.074341,-0.04156 0.1407362,-0.09632 0.2004322,-0.157067 0.119391,-0.121493 0.212022,-0.26616 0.317303,-0.400066 0.351632,-0.447241 0.836602,-0.766156 1.265985,-1.139386 0.131124,-0.113976 0.258093,-0.233918 0.402618,-0.330338 0.144525,-0.09642 0.30997,-0.169225 0.483571,-0.176056 0.125443,-0.0049 0.251154,0.02505 0.364451,0.07912 0.113298,0.05407 0.214475,0.131748 0.301855,0.221887 0.174761,0.180277 0.293018,0.406858 0.401206,0.633433 0.108188,0.226575 0.20999,0.458698 0.359325,0.66054 0.149334,0.201842 0.354068,0.374229 0.598738,0.430598 0.146941,0.03385 0.299795,0.02448 0.450559,0.02728 0.150765,0.0028 0.307421,0.01995 0.435631,0.09932 0.07637,0.04728 0.138429,0.11416 0.196845,0.182389 0.05842,0.06823 0.114635,0.139091 0.18295,0.197407 0.115971,0.099 0.265232,0.158113 0.417503,0.166056 0.152272,0.0079 0.306662,-0.03522 0.433128,-0.120397 0.126467,-0.08518 0.22438,-0.211825 0.275631,-0.355432 0.05125,-0.143607 0.05568,-0.3034 0.01312,-0.44982 -0.06442,-0.221659 -0.22965,-0.403835 -0.291511,-0.626222 -0.03093,-0.111193 -0.03362,-0.234354 0.01637,-0.338381 0.025,-0.05201 0.06299,-0.09818 0.111106,-0.130039 0.04812,-0.03186 0.106475,-0.0489 0.164032,-0.04474 0.0537,0.0039 0.10498,0.02577 0.149514,0.05603 0.04453,0.03026 0.08289,0.0687 0.119073,0.108567 0.07237,0.07974 0.140614,0.168843 0.237807,0.215199 0.09642,0.04599 0.20861,0.04339 0.314567,0.02983 0.105957,-0.01355 0.211855,-0.03714 0.318425,-0.02983 0.177775,0.01219 0.336897,0.108024 0.498029,0.184111 0.08057,0.03804 0.163969,0.07184 0.251596,0.08795 0.08763,0.01611 0.180248,0.01375 0.263163,-0.01886 0.09339,-0.03673 0.16897,-0.109505 0.226352,-0.19183 0.05738,-0.08233 0.0985,-0.17463 0.140764,-0.265644 0.04227,-0.09101 0.08657,-0.182206 0.149222,-0.260595 0.06265,-0.07839 0.145865,-0.143917 0.243253,-0.168118 0.07999,-0.01988 0.164449,-0.01094 0.245007,0.0065 0.08056,0.01745 0.159262,0.04326 0.240475,0.05736 0.08121,0.0141 0.166952,0.0159 0.243859,-0.01376 0.03845,-0.01483 0.07415,-0.03752 0.102115,-0.06779 0.02797,-0.03027 0.04799,-0.06827 0.05473,-0.108927 0.0069,-0.04171 -5.9e-5,-0.08432 0,-0.126598 9.5e-5,-0.06799 0.01877,-0.135593 0.05173,-0.19506 0.03295,-0.05947 0.07996,-0.110813 0.135059,-0.150648 0.110187,-0.07967 0.250461,-0.111696 0.386235,-0.104351 0.135774,0.0073 0.267503,0.05196 0.388682,0.113639 0.121178,0.06168 0.232856,0.140251 0.343182,0.219729 0.110325,0.07948 0.220097,0.160365 0.33847,0.227271 0.118372,0.06691 0.246349,0.119859 0.380967,0.13901 0.134617,0.01915 0.276609,0.0028 0.396252,-0.06184 0.05982,-0.0323 0.113501,-0.07639 0.155115,-0.130151 0.04161,-0.05376 0.07098,-0.117259 0.08288,-0.184196 0.01547,-0.08704 0.0013,-0.17712 -0.02541,-0.261398 -0.0267,-0.08428 -0.06563,-0.164054 -0.101193,-0.244996 -0.225851,-0.514111 -0.316771,-1.087858 -0.253197,-1.64578 0.09996,-0.877259 0.565735,-1.670578 0.759591,-2.531969 0.07688,-0.341616 0.110664,-0.692812 0.20714,-1.029419 0.09648,-0.336607 0.266207,-0.667874 0.552451,-0.869558 0.219993,-0.155005 0.488383,-0.220411 0.742174,-0.30993 0.126895,-0.04476 0.252171,-0.09656 0.365804,-0.168622 0.113634,-0.07206 0.215741,-0.165438 0.284605,-0.281039 0.04831,-0.0811 0.07943,-0.171424 0.126599,-0.253197 0.07785,-0.134956 0.197535,-0.242476 0.330809,-0.323172 0.133274,-0.0807 0.280295,-0.136047 0.428782,-0.183222 0.247208,-0.07854 0.502867,-0.135905 0.762107,-0.144532 0.259241,-0.0086 0.522906,0.03297 0.757075,0.144532 0.191242,0.09111 0.357893,0.225854 0.539361,0.335139 0.09073,0.05464 0.185768,0.103164 0.286673,0.135363 0.100904,0.0322 0.208101,0.04775 0.313352,0.03589 0.04257,-0.0048 0.0846,-0.01402 0.127309,-0.01743 0.0427,-0.0034 0.08704,-6.4e-4 0.125887,0.01743 0.03221,0.01498 0.05924,0.04 0.07906,0.06947 0.01983,0.02947 0.03268,0.06327 0.04028,0.09797 0.01522,0.06939 0.0098,0.141368 0.0072,0.212358 -0.007,0.194011 0.0079,0.390146 0.06176,0.576662 0.05387,0.186515 0.147996,0.363472 0.285554,0.500466 0.137559,0.136994 0.320137,0.231994 0.513521,0.249092 0.193384,0.0171 0.395918,-0.04813 0.531754,-0.186834 0.04184,-0.04272 0.07771,-0.09216 0.126597,-0.126598 0.04799,-0.0338 0.10664,-0.05122 0.165309,-0.05303 0.05867,-0.0018 0.117303,0.01158 0.171106,0.03505 0.107607,0.04692 0.19391,0.131951 0.269407,0.221848 0.0755,0.0899 0.143206,0.186836 0.227536,0.268504 0.08433,0.08167 0.189252,0.148595 0.306028,0.16062 0.08098,0.0083 0.163895,-0.01063 0.235402,-0.04953 0.07151,-0.0389 0.131726,-0.09721 0.176717,-0.165054 0.08998,-0.135686 0.117671,-0.304847 0.110113,-0.467483 -0.0076,-0.162636 -0.04779,-0.321696 -0.08374,-0.480489 -0.03595,-0.158792 -0.06797,-0.320675 -0.0587,-0.483222 0.01737,-0.304509 0.176647,-0.581036 0.342764,-0.836834 0.166116,-0.255798 0.346875,-0.512073 0.416829,-0.808946 0.04689,-0.198975 0.04166,-0.408359 0.09888,-0.604613 0.02861,-0.09813 0.07353,-0.193028 0.142393,-0.26856 0.06886,-0.07553 0.163322,-0.130459 0.265123,-0.139614 0.09326,-0.0084 0.187089,0.02174 0.266935,0.07065 0.07985,0.04891 0.147131,0.115781 0.209209,0.18588 0.06208,0.0701 0.119812,0.144112 0.185082,0.211249 0.06527,0.06714 0.13909,0.127883 0.224961,0.165217 0.137481,0.05977 0.299336,0.05414 0.437615,-0.0038 0.13828,-0.0579 0.253127,-0.165261 0.331497,-0.293057 0.07837,-0.127796 0.121559,-0.275235 0.137784,-0.424267 0.01623,-0.149031 0.0062,-0.299959 -0.0163,-0.448172 -0.04501,-0.296425 -0.139587,-0.584114 -0.175925,-0.881728 -0.01817,-0.148807 -0.02156,-0.300327 0.0033,-0.448157 0.0249,-0.147829 0.07893,-0.292178 0.168179,-0.412625 0.08926,-0.120462 0.210035,-0.213042 0.326439,-0.307536 0.116405,-0.09449 0.232294,-0.195208 0.306553,-0.325456 0.04677,-0.08204 0.07569,-0.17366 0.126598,-0.253197 0.05748,-0.08982 0.140754,-0.160489 0.229765,-0.21922 0.08901,-0.05873 0.184583,-0.106724 0.276629,-0.160575 0.31464,-0.184079 0.584356,-0.434149 0.861504,-0.670946 0.277148,-0.236796 0.570122,-0.465538 0.910876,-0.595039 0.162946,-0.06193 0.334118,-0.100004 0.506394,-0.126599 0.264191,-0.04078 0.542114,-0.05357 0.791556,0.04255 0.12472,0.04806 0.240082,0.123571 0.326426,0.2256 0.08634,0.102028 0.142451,0.231297 0.148002,0.364842 0.0018,0.04217 -0.0014,0.08442 0,0.126598 0.0047,0.137612 0.06035,0.272915 0.153904,0.373942 0.09355,0.101028 0.224186,0.166929 0.361035,0.182135 0.136849,0.0152 0.278762,-0.02041 0.392211,-0.09844 0.113448,-0.07803 0.197478,-0.197806 0.232235,-0.331038 1.75e-4,-0.135758 0.04528,-0.271084 0.126598,-0.379796 0.07159,-0.09571 0.16833,-0.169033 0.253198,-0.253197 0.256198,-0.254073 0.398931,-0.602694 0.478377,-0.954658 0.07945,-0.351964 0.10182,-0.713981 0.154615,-1.070917 0.201497,-1.362275 0.838175,-2.6155935 1.265984,-3.9245523 0.496675,-1.5196686 0.71119,-3.1140736 1.012788,-4.684143 0.04059,-0.2113149 0.08279,-0.4223205 0.1266,-0.6329924"
       id="path5"
       inkscape:path-effect="#path-effect5"
       inkscape:original-d="m 8.2289001,33.80179 c 0.4902919,-1.593447 0.3489814,-1.601761 1.2659846,-2.911766 0.024199,-0.03457 0.090413,0.02172 0.1265987,0 0.1063781,-0.06383 0.6374946,-0.449847 0.7595906,-0.632991 0.578199,-0.867299 0.349377,-0.615612 1.265985,-1.139386 0.164038,-0.09374 0.64071,-0.670047 0.886189,-0.506394 0.831416,0.554278 1.22342,1.544283 2.025575,2.025576 0.304964,0.182978 0.623579,-0.0047 0.88619,0.126598 0.142355,0.07118 0.229833,0.329808 0.379795,0.379796 0.539539,0.179845 1.033108,-0.228198 1.139386,-0.759593 0.06983,-0.349144 -0.112169,-0.802878 0,-1.139385 0.07424,-0.222729 0.392625,0.266028 0.506394,0.379796 0.149198,0.149198 0.424866,-0.03469 0.632992,0 0.363882,0.06065 0.634551,0.253195 1.012788,0.253195 0.166718,0 0.444276,-0.72853 0.759591,-0.886187 0.170132,-0.08507 0.674201,0.08539 0.886189,-0.1266 0.02984,-0.02984 -0.02984,-0.09676 0,-0.126598 0.160672,-0.160671 2.176865,0.114252 2.658568,-0.126598 0.155624,-0.07781 -0.0788,-0.339095 -0.126599,-0.506394 -0.157556,-0.551447 -0.253197,-1.073298 -0.253197,-1.64578 0,-0.947654 0.517983,-1.646071 0.759591,-2.531969 0.212124,-0.777789 0.238783,-1.247968 0.759591,-1.898977 0.334668,-0.418335 1.028694,-0.395702 1.392583,-0.759591 0.06672,-0.06672 0.05988,-0.186474 0.126599,-0.253197 0.215176,-0.215176 0.470902,-0.410164 0.759591,-0.506394 0.0177,-0.0059 1.399551,-0.05982 1.519182,0 0.388686,0.194343 0.696159,0.417749 1.139386,0.506394 0.08276,0.01655 0.193516,-0.05968 0.253196,0 0.09436,0.09436 0.06039,0.263932 0.126597,0.379795 0.253993,0.444487 0.735328,1.358473 1.392585,1.139386 0.05662,-0.01887 0.06692,-0.126598 0.126597,-0.126598 0.268984,0 0.868789,1.038892 1.139386,0.632992 0.344128,-0.51619 0.219289,-1.084006 0.379796,-1.64578 0.109181,-0.382127 0.572659,-1.271916 0.759593,-1.64578 0.168796,-0.337595 0.2395,-0.745894 0.506394,-1.012787 0.213214,-0.213217 0.660101,1.537337 0.886187,0.632992 0.468133,-1.872526 -0.600377,0.556893 0.88619,-2.911765 0.4602,-1.073803 0.314391,-0.155092 0.632992,-0.632992 0.05234,-0.07851 0.05987,-0.186474 0.126598,-0.253197 0.149198,-0.149198 0.350856,-0.237219 0.506394,-0.379795 0.903756,-0.828442 0.903713,-1.048818 1.77238,-1.265985 0.200522,-0.05013 0.290639,-0.180537 0.506394,-0.126599 0.411895,0.102975 0.971161,0.338169 1.265984,0.632993 0.02984,0.02984 -0.02984,0.09676 0,0.126598 0.0712,0.0712 1.001545,0.264438 1.139385,0.126599 0.310992,-0.04514 0.05258,-0.268761 0.126598,-0.379796 0.06621,-0.09931 0.181584,-0.15771 0.253198,-0.253197 0.152038,-0.202718 0.582801,-1.837359 0.632992,-2.025575 0.356447,-1.336673 0.886812,-2.597447 1.265984,-3.9245523 1.78172,-6.2360151 0.499795,-1.6061867 1.012788,-4.684143 0.05074,-0.3044185 0.1266,-0.3636757 0.1266,-0.6329924" />
    <path
       style="fill:none;stroke:#ff9500;stroke-width:1;stroke-dasharray:none;stroke-opacity:1"
       d="m 41.777493,5.443734 c 0.403178,0.088234 0.832991,0.050495 1.214624,-0.1066479 0.381633,-0.157143 0.713399,-0.4329956 0.93755,-0.7795414 0.05769,-0.08919 0.108373,-0.1828007 0.167238,-0.2712196 0.05886,-0.088419 0.12684,-0.172442 0.212558,-0.2351744 0.06171,-0.045165 0.1312,-0.078293 0.198116,-0.1153163 0.06692,-0.037023 0.132721,-0.07913 0.181678,-0.1378804 0.07508,-0.090095 0.103254,-0.2108199 0.10957,-0.3279253 0.0063,-0.1171053 -0.0068,-0.2344908 -0.0032,-0.3517109 0.0036,-0.11722 0.02589,-0.2383511 0.09454,-0.3334326 0.03433,-0.047541 0.08004,-0.087472 0.133662,-0.1111943 0.05362,-0.023722 0.115281,-0.030587 0.171843,-0.015123 0.0216,0.00591 0.04246,0.014972 0.06465,0.017979 0.0111,0.0015 0.02251,0.00144 0.03336,-0.00131 0.01085,-0.00275 0.02114,-0.00831 0.02859,-0.016671 0.0073,-0.00817 0.0116,-0.018718 0.01339,-0.029521 0.0018,-0.010803 0.0012,-0.021889 -5.47e-4,-0.032704 -0.0034,-0.02163 -0.0112,-0.042534 -0.01285,-0.064373 -0.0018,-0.023954 0.0039,-0.048048 0.01357,-0.070044 0.0097,-0.021995 0.02315,-0.042087 0.03747,-0.061376 0.02863,-0.038579 0.06155,-0.075821 0.07556,-0.1217771 0.01238,-0.040617 0.0087,-0.084213 0.0037,-0.1263779 -0.005,-0.042165 -0.01125,-0.085032 -0.0037,-0.126819 0.01156,-0.064055 0.05644,-0.1202137 0.114523,-0.1495875 0.05809,-0.029374 0.127889,-0.032675 0.189994,-0.013192 0.06211,0.019483 0.116406,0.060765 0.155616,0.1127201 0.03921,0.051955 0.06374,0.114184 0.07527,0.1782449 0.02306,0.1281219 -0.0049,0.2599581 -0.04376,0.3841993 -0.03887,0.1242412 -0.08893,0.2456587 -0.111852,0.3738047 -0.0379,0.2118931 0.0014,0.4335312 0.09036,0.6295626 0.08892,0.1960314 0.225537,0.3677602 0.381813,0.5157904 0.312553,0.2960602 0.700071,0.498725 1.047011,0.753624 0.460725,0.3384977 0.851123,0.7722723 1.139388,1.2659847"
       id="path6"
       inkscape:path-effect="#path-effect6"
       inkscape:original-d="m 41.777493,5.443734 c 0.875144,0.099077 1.551964,-0.2859807 2.152174,-0.8861893 0.261842,-0.261842 0.155202,-0.3379491 0.379796,-0.506394 0.121722,-0.091291 0.284745,-0.1343858 0.379794,-0.2531967 0.176773,-0.2209662 0.306115,-0.9391065 0.506394,-1.1393863 0.02984,-0.02984 0.09676,0.02984 0.1266,0 0.02984,-0.02984 -0.01333,-0.086564 0,-0.1265984 0.02984,-0.089519 0.09676,-0.1636783 0.126598,-0.253197 0.02669,-0.080068 -0.05968,-0.312876 0,-0.2531969 0.249695,0.2496946 0.231593,0.589785 0.379794,0.8861893 0.331501,0.6629998 0.992774,1.3725699 1.519182,1.898977 0.253664,0.2536621 0.919159,1.2659847 1.139388,1.2659847" />
    <path
       style="fill:none;stroke:#1c1f30;stroke-width:1;stroke-dasharray:none;stroke-opacity:1"
       d="m 18.863171,44.309463 c -0.319562,0.625067 -0.494211,1.323662 -0.506394,2.025574 -0.0037,0.210982 0.0071,0.4221 0,0.632994 -0.01772,0.525584 -0.1481,1.047091 -0.379795,1.519182"
       id="path21"
       inkscape:path-effect="#path-effect21"
       inkscape:original-d="m 18.863171,44.309463 c 0.0039,0.724054 -0.340695,1.362782 -0.506394,2.025574 -0.04394,0.175746 0.08068,0.471635 0,0.632994 -0.27806,0.55612 -0.379795,0.874543 -0.379795,1.519182" />
    <path
       style="fill:none;stroke:#1c1f30;stroke-width:1;stroke-dasharray:none;stroke-opacity:1"
       d="m 18.736573,46.081841 c 0.07066,0.05031 0.155161,0.08098 0.241644,0.0877 0.08648,0.0067 0.174703,-0.01053 0.252289,-0.04932 0.07759,-0.03879 0.144315,-0.09902 0.190829,-0.17224 0.04651,-0.07322 0.07268,-0.159217 0.07483,-0.245933 0.001,-0.0422 -0.0035,-0.08452 0,-0.126598 0.0065,-0.07896 0.04162,-0.154511 0.09428,-0.213701 0.05266,-0.05919 0.122238,-0.102316 0.19723,-0.127867 0.149985,-0.0511 0.316116,-0.03202 0.466845,0.01684 0.15073,0.04886 0.290424,0.125934 0.43399,0.192984 0.143565,0.06705 0.295119,0.125095 0.45343,0.131744 0.126738,0.0053 0.254952,-0.02246 0.379796,0 0.138911,0.025 0.263008,0.112997 0.342572,0.229576 0.07956,0.116579 0.116138,0.25971 0.114477,0.400842 -0.0017,0.141132 -0.04019,0.280329 -0.100206,0.408077 -0.06001,0.127748 -0.141129,0.244639 -0.230245,0.354089 -0.06123,0.0752 -0.126723,0.147636 -0.176877,0.230641 -0.05015,0.08301 -0.08461,0.179128 -0.07632,0.275753 0.0065,0.07597 0.0388,0.147239 0.07469,0.214516 0.03589,0.06728 0.07611,0.132877 0.100772,0.205029 0.01233,0.03607 0.02067,0.07371 0.02209,0.111806 0.0014,0.0381 -0.0042,0.07672 -0.01895,0.111887 -0.01472,0.03517 -0.03875,0.06677 -0.07022,0.08828 -0.03147,0.02152 -0.0705,0.0325 -0.10837,0.02807 -0.02172,-0.0025 -0.04261,-0.0099 -0.06426,-0.01298 -0.01083,-0.0015 -0.02189,-0.0019 -0.03266,-7.6e-5 -0.01077,0.0019 -0.02127,0.0061 -0.02968,0.01306 -0.0088,0.0073 -0.01498,0.01745 -0.01835,0.02835 -0.0034,0.01091 -0.004,0.02255 -0.0028,0.0339 0.0025,0.02269 0.01233,0.04384 0.02194,0.06455 0.0096,0.02071 0.0193,0.04194 0.0215,0.06467 0.0011,0.01136 2.7e-4,0.023 -0.0033,0.03384 -0.0036,0.01084 -0.01004,0.02084 -0.01901,0.0279 -0.0085,0.0067 -0.01911,0.01062 -0.02988,0.01221 -0.01077,0.0016 -0.02176,9.61e-4 -0.03252,-6.45e-4 -0.02153,-0.0032 -0.04247,-0.01032 -0.0642,-0.01157 -0.03363,-0.0019 -0.06784,0.01112 -0.09166,0.03494 -0.02382,0.02382 -0.03686,0.05803 -0.03494,0.09166"
       id="path22"
       inkscape:path-effect="#path-effect22"
       inkscape:original-d="m 18.736573,46.081841 c 0.402811,-0.100703 0.533853,-0.04119 0.75959,-0.379796 0.02341,-0.03511 -0.02984,-0.09676 0,-0.126598 0.0082,-0.0082 1.363953,0 1.64578,0 0.05213,0 0.346284,-0.03351 0.379796,0 0.173955,0.173956 0.254937,1.135906 0.126598,1.392584 -0.09551,0.191027 -0.17447,0.270211 -0.253197,0.506394 -0.05439,0.163177 0.113953,0.645639 0,0.75959 -0.02984,0.02984 -0.09676,-0.02984 -0.126598,0 -0.08411,0.08411 0.08411,0.16909 0,0.253198 -0.02984,0.02984 -0.09676,-0.02984 -0.126599,0 -0.168797,0.168796 0.210998,0.126598 -0.126598,0.126598" />
    <path
       style="fill:none;stroke:#1c1f30;stroke-width:1;stroke-dasharray:none;stroke-opacity:1"
       d="m 22.28133,46.461637 c 0.105526,0.0923 0.236878,0.154762 0.375078,0.178354 0.1382,0.02359 0.282833,0.0082 0.413005,-0.04383 0.130171,-0.05207 0.24549,-0.140702 0.329296,-0.253096 0.0838,-0.112393 0.135847,-0.24821 0.148605,-0.387827 0.0064,-0.06961 0.0032,-0.140307 0.01703,-0.208834 0.0069,-0.03426 0.01813,-0.06792 0.03607,-0.09792 0.01794,-0.03 0.04284,-0.05627 0.0735,-0.07305 0.03084,-0.01688 0.06626,-0.02364 0.101313,-0.02626 0.03506,-0.0026 0.0703,-0.0013 0.105404,-0.0033 0.0351,-0.002 0.07061,-0.0074 0.102328,-0.02259 0.01586,-0.0076 0.03064,-0.01759 0.04296,-0.03013 0.01232,-0.01254 0.02215,-0.02765 0.02779,-0.04429 0.0068,-0.02014 0.0074,-0.04188 0.0059,-0.06309 -0.0015,-0.02121 -0.0049,-0.04227 -0.0059,-0.06351 -0.0023,-0.04931 0.0089,-0.09907 0.03138,-0.143035 0.02246,-0.04396 0.05602,-0.08207 0.09625,-0.110677 0.08047,-0.05721 0.186469,-0.07439 0.282676,-0.05222 0.09621,0.02217 0.182056,0.08185 0.242184,0.160159 0.06013,0.07831 0.09524,0.174356 0.107106,0.27237 0.01523,0.125798 -0.0066,0.25325 0,0.379794 0.0095,0.181114 0.07674,0.35413 0.154458,0.517997 0.07771,0.163868 0.166994,0.32307 0.225337,0.494791 0.110444,0.325067 0.103501,0.685445 0,1.012788 -0.05713,0.180686 -0.142926,0.352277 -0.253197,0.506393"
       id="path23"
       inkscape:path-effect="#path-effect23"
       inkscape:original-d="m 22.28133,46.461637 c 0.2681,-0.72944 1.096876,-0.337285 1.265984,-0.506394 0.04508,-0.04507 0.122145,-0.37534 0.126599,-0.379796 0.0422,-0.0422 0.337596,-0.0844 0.379795,-0.126598 0.02984,-0.02984 -0.02984,-0.09676 0,-0.126598 0.113623,-0.113622 0.664903,0.03191 0.759591,0.126598 0.05852,0.05852 -0.03822,0.303358 0,0.379794 0.154756,0.309512 0.21794,0.689078 0.379795,1.012788 0.107276,0.214553 0,0.767606 0,1.012788 0,0.208348 -0.05074,0.506393 -0.253197,0.506393" />
    <path
       style="fill:none;stroke:#1c1f30;stroke-width:1;stroke-dasharray:none;stroke-opacity:1"
       d="m 26.965473,45.448849 v 1.64578 c 0,0.173282 -0.02316,0.345979 -0.02102,0.519247 0.0011,0.08664 0.01383,0.175943 0.05875,0.250029 0.02246,0.03704 0.05307,0.06961 0.09056,0.09132 0.03749,0.02171 0.08208,0.03209 0.124907,0.0256 0.02166,-0.0033 0.04254,-0.01073 0.06426,-0.01361 0.01086,-0.0014 0.02195,-0.0017 0.03272,2.68e-4 0.01077,0.002 0.02124,0.0063 0.02963,0.01334 0.0087,0.0073 0.0149,0.01731 0.01838,0.02811 0.0035,0.01079 0.0043,0.02234 0.0033,0.03363 -0.002,0.02259 -0.01123,0.04384 -0.02042,0.06458 -0.0092,0.02074 -0.0186,0.04185 -0.02109,0.0644 -0.0012,0.01127 -7.02e-4,0.02282 0.0024,0.03372 0.0032,0.0109 0.009,0.02112 0.01737,0.02876 0.0085,0.0078 0.01949,0.01268 0.03085,0.0148 0.01136,0.0021 0.02311,0.0015 0.03444,-7.5e-4 0.02265,-0.0046 0.04333,-0.01569 0.06415,-0.02572 0.02082,-0.01003 0.04282,-0.01923 0.06592,-0.01948 0.01155,-1.22e-4 0.02323,0.0021 0.03355,0.0073 0.01032,0.0052 0.01921,0.01349 0.02429,0.02387 0.0047,0.0097 0.006,0.02076 0.0054,0.03151 -6.33e-4,0.01076 -0.0031,0.02131 -0.0055,0.0318 -0.0024,0.01049 -0.0049,0.02106 -0.0055,0.03182 -5.82e-4,0.01076 7.83e-4,0.02183 0.0056,0.03147 0.0052,0.01035 0.0142,0.01855 0.02461,0.02361 0.01041,0.0051 0.02215,0.0071 0.03372,0.0068 0.02314,-6.11e-4 0.04503,-0.01017 0.06579,-0.02041 0.02077,-0.01023 0.0415,-0.02143 0.06424,-0.02575 0.01137,-0.0022 0.02317,-0.0025 0.03449,-1.14e-4 0.01132,0.0024 0.02214,0.0077 0.03034,0.01589 0.0079,0.0079 0.01313,0.01816 0.01581,0.02897 0.0027,0.01081 0.0029,0.02214 0.0016,0.0332 -0.0026,0.02212 -0.01108,0.04306 -0.01738,0.06443 -0.01586,0.05384 -0.01794,0.111617 -0.0064,0.166546 0.01152,0.05493 0.03658,0.106915 0.07203,0.150424 0.07091,0.08702 0.183661,0.13736 0.29589,0.135304 0.112229,-0.0021 0.221879,-0.05546 0.295213,-0.140442 0.07333,-0.08498 0.110023,-0.199812 0.102878,-0.311832 -0.0027,-0.04235 -0.01126,-0.08568 0,-0.126601 0.01043,-0.03791 0.03727,-0.06978 0.06924,-0.09267 0.03197,-0.02289 0.06898,-0.03767 0.106168,-0.05043 0.03719,-0.01276 0.0751,-0.02379 0.110847,-0.04017 0.03574,-0.01639 0.06969,-0.03865 0.09354,-0.06992 0.01775,-0.02327 0.02936,-0.0509 0.03567,-0.07948 0.0063,-0.02858 0.0074,-0.05814 0.0054,-0.08734 -0.004,-0.0584 -0.02015,-0.115176 -0.03117,-0.172665 -0.01103,-0.05749 -0.01679,-0.117769 -2.02e-4,-0.173906 0.0083,-0.02807 0.02224,-0.0547 0.04219,-0.07611 0.01995,-0.02142 0.04606,-0.03743 0.0747,-0.04349 0.0414,-0.0088 0.08442,0.0034 0.126598,0 0.04654,-0.0037 0.09049,-0.02668 0.123486,-0.05972 0.03299,-0.03303 0.05551,-0.07563 0.06857,-0.120451 0.02613,-0.08965 0.01609,-0.185695 -2.15e-4,-0.277637 -0.01631,-0.09194 -0.03816,-0.18293 -0.05054,-0.275482 -0.01238,-0.09255 -0.0147,-0.186123 -0.0147,-0.2795 v -0.88619 -0.379796 c 0,-0.04223 -0.0048,-0.08465 0,-0.126598 0.0041,-0.03571 0.01769,-0.0702 0.03851,-0.0995 0.02081,-0.0293 0.04878,-0.05339 0.08056,-0.07019 0.06354,-0.03361 0.141376,-0.03682 0.209183,-0.01296 0.06781,0.02386 0.125337,0.07353 0.163052,0.13473 0.03771,0.06119 0.05613,0.133344 0.05735,0.205216 0.0024,0.143746 -0.06186,0.281224 -0.145354,0.398258 -0.0835,0.117033 -0.18658,0.218617 -0.276692,0.330637 -0.05848,0.0727 -0.111758,0.150283 -0.150225,0.235285 -0.03847,0.085 -0.0618,0.177905 -0.05884,0.271159 0.003,0.09325 0.03338,0.186831 0.09296,0.258633 0.05958,0.0718 0.149416,0.119893 0.24271,0.121111 0.0423,5.52e-4 0.08509,-0.0081 0.126598,0 0.04955,0.0097 0.09271,0.04352 0.118877,0.0867 0.02616,0.04319 0.03622,0.09494 0.03392,0.145381 -0.0046,0.100883 -0.05556,0.192957 -0.103895,0.281628 -0.02417,0.04433 -0.04806,0.08902 -0.06595,0.136234 -0.01789,0.04722 -0.02971,0.09729 -0.02885,0.14778 8.62e-4,0.05049 0.01502,0.101515 0.04512,0.142054 0.0301,0.04054 0.07699,0.06958 0.127367,0.07301 0.02115,0.0014 0.04232,-0.0015 0.06345,-0.0033 0.02112,-0.0018 0.04277,-0.0025 0.06316,0.0033 0.02246,0.0064 0.04237,0.02063 0.05695,0.03887 0.01458,0.01824 0.02396,0.04036 0.02848,0.06328 0.009,0.04583 -0.0011,0.09343 -0.01713,0.137305 -0.01602,0.04387 -0.03787,0.08546 -0.05352,0.129469 -0.01565,0.04401 -0.02498,0.09189 -0.01478,0.137469 0.0069,0.03073 0.02265,0.05941 0.04492,0.08168 0.02227,0.02227 0.05095,0.03804 0.08168,0.04492"
       id="path24"
       inkscape:path-effect="#path-effect24"
       inkscape:original-d="m 26.965473,45.448849 c 0,0.548593 0,1.097188 0,1.64578 0,0.257659 -5.29e-4,0.759272 0.253196,0.88619 0.03775,0.01887 0.09676,-0.02984 0.1266,0 0.05968,0.05968 -0.05968,0.193516 0,0.253196 0.05968,0.05968 0.193516,-0.05968 0.253196,0 0.02984,0.02984 -0.02984,0.09676 0,0.126597 0.05968,0.05968 0.193519,-0.05968 0.253198,0 0.02984,0.02984 -0.02984,0.09676 0,0.126601 0.01114,0.01114 0.711542,0.04805 0.75959,0 0.02984,-0.02984 -0.01887,-0.08885 0,-0.126601 0.110535,-0.221069 0.301469,-0.01823 0.379796,-0.253195 0.160814,-0.482444 -0.280961,-0.02167 0.126598,-0.632992 0.02341,-0.03511 0.09676,0.02984 0.126598,0 0.161909,-0.161909 0.126597,-0.75492 0.126597,-1.012788 0,-0.295397 0,-0.590793 0,-0.88619 0,-0.126598 0,-0.253196 0,-0.379796 0,-0.0422 0.0422,-0.126598 0,-0.126598 -0.07764,0 0.126601,0.412245 0.126601,0.88619 0,0.15308 0.05066,0.81025 0.126598,0.886188 0.02984,0.02984 0.09676,-0.02984 0.126598,0 0.03957,0.03957 0.04893,0.935116 0.126597,1.012788 0.02984,0.02984 0.09676,-0.02984 0.126601,0 0.0844,0.0844 -0.0844,0.421994 0,0.506393 0.168796,0.168799 0.126598,-0.210997 0.126598,0.126601" />
    <path
       style="fill:none;stroke:#1c1f30;stroke-width:1;stroke-dasharray:none;stroke-opacity:1"
       d="M 31.649617,48.613811 V 44.056265"
       id="path25"
       inkscape:path-effect="#path-effect25"
       inkscape:original-d="m 31.649617,48.613811 c 0,-1.519182 0,-3.038364 0,-4.557546" />
    <path
       style="fill:none;stroke:#1c1f30;stroke-width:1;stroke-dasharray:none;stroke-opacity:1"
       d="m 31.649617,45.828643 c 0.06178,-0.272723 0.253883,-0.512855 0.506394,-0.632992 0.250915,-0.119377 0.541673,-0.120308 0.817769,-0.089 0.276095,0.03131 0.550167,0.09249 0.82801,0.089 0.05269,-6.62e-4 0.106813,-0.0035 0.156636,0.01372 0.02491,0.0086 0.04838,0.02229 0.06619,0.04171 0.0178,0.01942 0.02962,0.04483 0.03037,0.07117 6.14e-4,0.02163 -0.006,0.04272 -0.0095,0.06409 -0.0017,0.01068 -0.0026,0.02157 -0.0014,0.03233 0.0012,0.01075 0.0046,0.02141 0.01093,0.03018 0.0067,0.0092 0.01639,0.01608 0.02707,0.02007 0.01067,0.004 0.02227,0.0052 0.03364,0.0045 0.02274,-0.0015 0.04417,-0.01077 0.06491,-0.02023 0.02074,-0.0095 0.04171,-0.0194 0.06429,-0.02251 0.01129,-0.0016 0.02291,-0.0013 0.03394,0.0015 0.01103,0.0029 0.02147,0.0084 0.02935,0.01668 0.0077,0.008 0.01274,0.01834 0.01533,0.02913 0.0026,0.0108 0.0028,0.02208 0.0015,0.0331 -0.0025,0.02206 -0.01075,0.043 -0.01682,0.06436 -0.01859,0.06545 -0.01687,0.136516 0.0049,0.200987 0.02174,0.06447 0.06341,0.122068 0.11784,0.162891 0.05443,0.04082 0.12139,0.0647 0.18937,0.06752 0.06798,0.0028 0.136687,-0.01543 0.194312,-0.0516"
       id="path26"
       inkscape:path-effect="#path-effect26"
       inkscape:original-d="m 31.649617,45.828643 c 0.294989,-0.0063 0.26471,-0.512152 0.506394,-0.632992 0.01532,-0.0076 1.570791,-0.03749 1.645779,0 0.0844,0.0422 0.186473,0.05988 0.253196,0.1266 0.02984,0.02984 -0.03774,0.107725 0,0.126598 0.07549,0.03774 0.17771,-0.03775 0.253198,0 0.03774,0.01886 -0.02984,0.09676 0,0.126598 0.140761,0.140761 0.506394,0.114102 0.506394,0.379796" />
  </g>
</svg>
