<?xml version="1.0" encoding="UTF-8" standalone="no"?>
<svg
   width="60"
   height="50"
   viewBox="0 0 60 50"
   version="1.1"
   id="svg4"
   sodipodi:docname="main_ico_lowfee.svg"
   inkscape:version="1.3.2 (091e20e, 2023-11-25, custom)"
   xmlns:inkscape="http://www.inkscape.org/namespaces/inkscape"
   xmlns:sodipodi="http://sodipodi.sourceforge.net/DTD/sodipodi-0.dtd"
   xmlns:xlink="http://www.w3.org/1999/xlink"
   xmlns="http://www.w3.org/2000/svg"
   xmlns:svg="http://www.w3.org/2000/svg"
   xmlns:rdf="http://www.w3.org/1999/02/22-rdf-syntax-ns#"
   xmlns:cc="http://creativecommons.org/ns#"
   xmlns:dc="http://purl.org/dc/elements/1.1/">
  <sodipodi:namedview
     id="namedview4"
     pagecolor="#ffffff"
     bordercolor="#000000"
     borderopacity="0.25"
     inkscape:showpageshadow="2"
     inkscape:pageopacity="0.0"
     inkscape:pagecheckerboard="0"
     inkscape:deskcolor="#d1d1d1"
     showgrid="false"
     inkscape:zoom="16.588725"
     inkscape:cx="42.498745"
     inkscape:cy="26.915872"
     inkscape:window-width="2560"
     inkscape:window-height="1369"
     inkscape:window-x="-8"
     inkscape:window-y="-8"
     inkscape:window-maximized="1"
     inkscape:current-layer="svg4" />
  <title
     id="title1">low processing</title>
  <desc
     id="desc1">Created using Figma</desc>
  <g
     id="Canvas"
     transform="matrix(2,0,0,2,-10060,-3638)"
     style="display:none">
    <rect
       x="5030"
       y="1819"
       width="30"
       height="25"
       fill="#ffffff"
       id="rect1" />
    <clipPath
       id="clip-0"
       clip-rule="evenodd">
      <path
         d="M 4815,-244 H 6415 V 3494 H 4815 Z"
         fill="#ffffff"
         id="path1" />
    </clipPath>
    <g
       id="19/01/18 Bitcoin.org ver3 Desktop 1200px  "
       clip-path="url(#clip-0)">
      <path
         d="M 4815,-244 H 6415 V 3494 H 4815 Z"
         fill="#ffffff"
         id="path2" />
      <g
         id="//Content">
        <g
           id="Get started with">
          <g
             id="features">
            <g
               id="3">
              <g
                 id="g4">
                <g
                   id="icon/low processing">
                  <g
                     id="ion-android-arrow-forward - Ionicons">
                    <use
                       xlink:href="#path0_fill"
                       transform="rotate(90,1619.34,3440.34)"
                       fill="#f7931a"
                       id="use2" />
                  </g>
                  <g
                     id="ion-ios-pricetag - Ionicons">
                    <use
                       xlink:href="#path1_fill"
                       transform="translate(5030.3,1819)"
                       fill="#95aabf"
                       id="use3" />
                  </g>
                  <g
                     id="FEES">
                    <use
                       xlink:href="#path2_fill"
                       transform="rotate(-47.99999,4578.7891,-4736.8422)"
                       fill="#1c3c55"
                       id="use4" />
                  </g>
                </g>
              </g>
            </g>
          </g>
        </g>
      </g>
    </g>
  </g>
  <defs
     id="defs4">
    <inkscape:path-effect
       effect="spiro"
       id="path-effect17"
       is_visible="true"
       lpeversion="1" />
    <inkscape:path-effect
       effect="spiro"
       id="path-effect16"
       is_visible="true"
       lpeversion="1" />
    <inkscape:path-effect
       effect="spiro"
       id="path-effect15"
       is_visible="true"
       lpeversion="1" />
    <inkscape:path-effect
       effect="spiro"
       id="path-effect14"
       is_visible="true"
       lpeversion="1" />
    <inkscape:path-effect
       effect="spiro"
       id="path-effect13"
       is_visible="true"
       lpeversion="1" />
    <inkscape:path-effect
       effect="spiro"
       id="path-effect12"
       is_visible="true"
       lpeversion="1" />
    <inkscape:path-effect
       effect="spiro"
       id="path-effect11"
       is_visible="true"
       lpeversion="1" />
    <inkscape:path-effect
       effect="spiro"
       id="path-effect10"
       is_visible="true"
       lpeversion="1" />
    <inkscape:path-effect
       effect="spiro"
       id="path-effect9"
       is_visible="true"
       lpeversion="1" />
    <inkscape:path-effect
       effect="spiro"
       id="path-effect8"
       is_visible="true"
       lpeversion="1" />
    <inkscape:path-effect
       effect="spiro"
       id="path-effect7"
       is_visible="true"
       lpeversion="1" />
    <inkscape:path-effect
       effect="spiro"
       id="path-effect6"
       is_visible="true"
       lpeversion="1" />
    <inkscape:path-effect
       effect="spiro"
       id="path-effect5"
       is_visible="true"
       lpeversion="1" />
    <inkscape:path-effect
       effect="spiro"
       id="path-effect4"
       is_visible="true"
       lpeversion="1" />
    <path
       id="path0_fill"
       fill-rule="evenodd"
       d="M 0 4.875L 0 3.80859L 20.6016 3.80859L 17.5801 0.761719L 18.3418 0L 22.6836 4.3418L 18.3418 8.68359L 17.5547 7.92188L 20.6016 4.875L 0 4.875Z" />
    <path
       id="path1_fill"
       fill-rule="evenodd"
       d="M 22.626 8.74683L 22.626 0L 13.645 0L 0 14.9669L 8.97656 23.719L 22.626 8.74683ZM 8.93115 22.184L 1.48438 14.9233L 14.1162 1.0675L 21.5586 1.0675L 21.5586 8.33325L 8.93115 22.184ZM 17.2891 7.47253C 16.7397 7.47253 16.2402 7.24536 15.8105 6.8158C 15.3809 6.38635 15.1538 5.88647 15.1538 5.33752C 15.1538 4.7887 15.3809 4.2887 15.8105 3.85925C 16.2402 3.42969 16.7397 3.20251 17.2891 3.20251C 17.8379 3.20251 18.3374 3.42969 18.7671 3.85925C 19.1968 4.2887 19.4238 4.7887 19.4238 5.33752C 19.4238 5.88647 19.1968 6.38635 18.7671 6.8158C 18.3374 7.24536 17.8379 7.47253 17.2891 7.47253ZM 18.0122 6.06104C 17.7744 6.29871 17.5405 6.40503 17.2886 6.40503C 17.0371 6.40503 16.8027 6.29871 16.5654 6.06104C 16.3276 5.82324 16.2212 5.58923 16.2212 5.33752C 16.2212 5.08582 16.3276 4.85181 16.5654 4.61414C 16.8027 4.37634 17.0371 4.27002 17.2886 4.27002C 17.5405 4.27002 17.7744 4.37634 18.0122 4.61414C 18.25 4.85181 18.3564 5.08582 18.3564 5.33752C 18.3564 5.58923 18.25 5.82324 18.0122 6.06104Z" />
    <path
       id="path2_fill"
       fill-rule="evenodd"
       d="M 0 0.0559554L 2.46185 0.0559554L 2.45676 0.652305L 0.682998 0.652305L 0.682998 1.61564L 2.29875 1.61564L 2.29875 2.21199L 0.682998 2.21199L 0.682998 3.62386L 0 3.62386L 0 0.0559554ZM 2.97147 0.0559273L 5.58623 0.0559273L 5.58623 0.652277L 3.65447 0.652277L 3.65447 1.53406L 5.38745 1.53406L 5.38745 2.13041L 3.65447 2.13041L 3.65447 3.02748L 5.6474 3.02748L 5.6474 3.62383L 2.97147 3.62383L 2.97147 0.0559273ZM 6.34063 0.0559102L 8.95539 0.0559102L 8.95539 0.65226L 7.02363 0.65226L 7.02363 1.53404L 8.75661 1.53404L 8.75661 2.13039L 7.02363 2.13039L 7.02363 3.02746L 9.01656 3.02746L 9.01656 3.62381L 6.34063 3.62381L 6.34063 0.0559102ZM 11.3893 0.713581C 11.1973 0.652416 11.0283 0.621834 10.8822 0.621834C 10.7191 0.621834 10.59 0.652416 10.4948 0.713581C 10.3997 0.774745 10.3521 0.859694 10.3521 0.968431C 10.3521 1.06697 10.3852 1.14937 10.4515 1.21564C 10.5177 1.2819 10.601 1.33626 10.7012 1.37874C 10.8015 1.42121 10.9382 1.46794 11.1115 1.51891C 11.3528 1.59027 11.5507 1.66162 11.7053 1.73298C 11.86 1.80434 11.9916 1.90968 12.1004 2.049C 12.2091 2.18831 12.2635 2.3718 12.2635 2.59947C 12.2635 2.81695 12.2049 3.00638 12.0876 3.16779C 11.9704 3.32919 11.809 3.45237 11.6034 3.53732C 11.3978 3.62227 11.1625 3.66475 10.8975 3.66475C 10.6188 3.66475 10.347 3.61293 10.082 3.50929C 9.81691 3.40565 9.58584 3.26718 9.38876 3.09388L 9.67419 2.51282C 9.85429 2.67933 10.0565 2.81015 10.2807 2.90529C 10.505 3.00044 10.714 3.04801 10.9077 3.04801C 11.098 3.04801 11.2475 3.01148 11.3562 2.93842C 11.4649 2.86537 11.5193 2.76597 11.5193 2.64025C 11.5193 2.53831 11.4862 2.45421 11.4199 2.38795C 11.3537 2.32168 11.2696 2.26817 11.1676 2.22739C 11.0657 2.18661 10.9264 2.14074 10.7497 2.08977C 10.5084 2.01841 10.3113 1.94875 10.1584 1.88079C 10.0055 1.81283 9.87467 1.71005 9.76594 1.57243C 9.6572 1.43481 9.60283 1.25386 9.60283 1.02959C 9.60283 0.822316 9.65805 0.641374 9.76849 0.486764C 9.87892 0.332154 10.0352 0.212376 10.2374 0.127425C 10.4396 0.0424746 10.6732 -2.77556e-17 10.9382 0C 11.1693 1.38778e-17 11.3978 0.0339797 11.6238 0.10194C 11.8498 0.1699 12.0511 0.261646 12.2278 0.377178L 11.9526 0.973528C 11.7691 0.861393 11.5813 0.774745 11.3893 0.713581Z" />
  </defs>
  <path
     style="opacity:1;fill:none;fill-opacity:1;stroke:#95aabf;stroke-width:2;stroke-dasharray:none;stroke-opacity:1"
     d="m 2.1701487,30.382082 c 0.1778946,0.03715 0.3457996,0.121101 0.4822553,0.241127 0.1935961,0.170287 0.3178656,0.404191 0.4822552,0.602819 0.1088102,0.131473 0.2350722,0.24727 0.3616915,0.361692 0.6471684,0.584825 1.3298897,1.16359 1.7481753,1.929021 0.056266,0.102963 0.1078791,0.209523 0.1808457,0.301409 0.1413503,0.178001 0.3499841,0.286189 0.5341355,0.419428 0.092076,0.06662 0.1797543,0.141199 0.2479654,0.232101 0.068211,0.0909 0.1162834,0.199483 0.1221277,0.312982 0.00207,0.04014 -0.00111,0.08038 0,0.120564 0.00347,0.125655 0.049488,0.248225 0.120744,0.351782 0.071256,0.103557 0.1669466,0.188816 0.2722455,0.257471 0.2105977,0.13731 0.4560298,0.208469 0.6920849,0.294975 0.1859806,0.06816 0.3683158,0.14689 0.5425372,0.241128 0.3806924,0.205921 0.7280576,0.487962 1.1453562,0.602819 0.052656,0.01449 0.1061338,0.02621 0.1578663,0.04372 0.051732,0.01751 0.1021788,0.04119 0.1435433,0.07685 0.039253,0.03384 0.069,0.07725 0.1055324,0.114008 0.018266,0.01838 0.038384,0.03519 0.061197,0.04748 0.022813,0.01229 0.048492,0.01993 0.074398,0.01936 0.020498,-4.55e-4 0.040517,-0.006 0.060851,-0.0086 0.010167,-0.0013 0.020483,-0.0019 0.030671,-7.67e-4 0.010189,0.0011 0.020277,0.004 0.029041,0.0094 0.014054,0.0085 0.023997,0.02295 0.028887,0.03865 0.00489,0.0157 0.00501,0.03259 0.00237,0.04882 -0.0053,0.03245 -0.021189,0.06208 -0.031253,0.09338 -0.024969,0.07766 -0.012633,0.164348 0.023089,0.23769 0.035722,0.07334 0.09327,0.134318 0.1577569,0.184284 0.05729,0.04439 0.1202732,0.08077 0.1808462,0.120564 0.250259,0.164412 0.457165,0.385445 0.663101,0.602819 0.283569,0.299319 0.570208,0.595892 0.843946,0.904228 0.07559,0.08514 0.150829,0.171782 0.241128,0.241128 0.146149,0.112238 0.323832,0.173457 0.490352,0.252373 0.08326,0.03946 0.164699,0.08394 0.237119,0.140904 0.07242,0.05696 0.135824,0.126997 0.176757,0.209542 0.07383,0.148882 0.06922,0.324203 0.120564,0.482255 0.04186,0.128873 0.119576,0.242463 0.192721,0.356528 0.07315,0.114065 0.143902,0.233692 0.168971,0.366855 0.0298,0.158319 -0.0075,0.32133 0,0.482255 0.007,0.150052 0.05317,0.296419 0.119294,0.4313 0.06612,0.134881 0.151917,0.259143 0.241856,0.379457 0.179879,0.240629 0.381147,0.473861 0.482796,0.756573 0.05832,0.162202 0.08359,0.339945 0.180846,0.482255 0.06432,0.09412 0.15564,0.165703 0.241128,0.241128 0.278417,0.245646 0.505157,0.543555 0.723383,0.843947 0.05137,0.07071 0.103665,0.142986 0.174668,0.193954 0.0355,0.02548 0.07551,0.04526 0.1182,0.05459 0.04269,0.0093 0.08817,0.0079 0.129105,-0.0074 0.02081,-0.0078 0.04058,-0.01908 0.0625,-0.02268 0.01096,-0.0018 0.02241,-0.0016 0.03292,0.002 0.01051,0.0036 0.01999,0.0108 0.02515,0.02063 0.0048,0.0091 0.0056,0.01973 0.0047,0.02993 -8.53e-4,0.01021 -0.0033,0.02021 -0.0047,0.03035 -0.0048,0.03381 0.0015,0.06873 0.01533,0.09997 0.0138,0.03124 0.0348,0.05896 0.05909,0.08298 0.04858,0.04802 0.109495,0.08114 0.166708,0.118464 0.192067,0.125303 0.347162,0.301892 0.542537,0.421973 0.0275,0.0169 0.05585,0.03269 0.08609,0.04398 0.03024,0.01129 0.06253,0.01801 0.09476,0.01629 0.02018,-0.0011 0.0408,-0.0054 0.06028,0 0.01308,0.0036 0.0249,0.0116 0.03312,0.0224 0.0082,0.01079 0.01278,0.02432 0.01278,0.03789 0,0.01357 -0.0046,0.02709 -0.01278,0.03789 -0.0082,0.01079 -0.02004,0.01879 -0.03312,0.0224 0.0059,0.110004 0.04897,0.217686 0.120564,0.301409 0.03695,0.04321 0.08088,0.07984 0.120564,0.120564 0.11408,0.117065 0.191112,0.266356 0.241128,0.421973 0.04372,0.136026 0.06794,0.279301 0.06028,0.421974 -0.0097,0.179699 -0.06903,0.352346 -0.118154,0.525469 -0.04913,0.173123 -0.08864,0.354793 -0.05762,0.532058 0.01551,0.08863 0.04908,0.174899 0.103547,0.246516 0.05447,0.07162 0.13053,0.127949 0.217119,0.152414 0.08659,0.02446 0.183484,0.01542 0.260754,-0.03069 0.03863,-0.02305 0.07205,-0.05498 0.09607,-0.09303 0.02402,-0.03804 0.03851,-0.08218 0.04082,-0.127106 0.001,-0.02007 -3.26e-4,-0.04019 0,-0.06028 0.0014,-0.08336 0.03145,-0.163286 0.04597,-0.245383 0.0073,-0.04105 0.01062,-0.0832 0.0045,-0.124427 -0.0062,-0.04123 -0.02232,-0.08166 -0.05043,-0.112445 -0.01919,-0.02102 -0.04355,-0.03726 -0.06028,-0.06028 -0.02176,-0.02994 -0.02841,-0.06926 -0.02258,-0.105819 0.0058,-0.03655 0.02326,-0.07052 0.0456,-0.100031 0.04467,-0.05903 0.108025,-0.101068 0.15783,-0.155842 0.09126,-0.100362 0.130967,-0.235546 0.180846,-0.361691 0.226049,-0.571682 0.696462,-1.014096 0.964511,-1.56733 0.200625,-0.414075 0.285071,-0.88458 0.542537,-1.26592 0.191683,-0.283907 0.468744,-0.501582 0.663101,-0.783665 0.168939,-0.245192 0.269324,-0.530003 0.366213,-0.811556 0.09689,-0.281553 0.193835,-0.567095 0.35717,-0.816055 0.125729,-0.19164 0.287744,-0.356751 0.421973,-0.542537 0.179704,-0.248727 0.307475,-0.531454 0.482255,-0.783665 0.4058,-0.585577 1.044516,-0.979309 1.446766,-1.56733 0.221146,-0.323278 0.370421,-0.704216 0.663101,-0.96451 0.206313,-0.183484 0.468022,-0.291625 0.729805,-0.379381 0.261782,-0.08776 0.53082,-0.159194 0.777243,-0.28372 0.21946,-0.110901 0.416344,-0.261696 0.602819,-0.421973 0.308231,-0.264928 0.592783,-0.55886 0.923308,-0.79539 0.330524,-0.23653 0.719879,-0.416022 1.126277,-0.410249 0.06032,8.57e-4 0.1208,0.0058 0.180846,0 0.145922,-0.01403 0.278651,-0.08976 0.421973,-0.120563 0.13174,-0.02832 0.268884,-0.01788 0.401773,0.0044 0.132889,0.02231 0.263715,0.0563 0.397133,0.07519 0.133419,0.01888 0.271609,0.02219 0.400773,-0.0162 0.06458,-0.0192 0.126355,-0.04883 0.179783,-0.08987 0.05343,-0.04105 0.09836,-0.09369 0.127586,-0.154394 0.01954,-0.0406 0.0324,-0.08516 0.06028,-0.120564 0.02632,-0.03343 0.06448,-0.0562 0.10489,-0.06952 0.04041,-0.01333 0.08322,-0.0178 0.125732,-0.01957 0.08503,-0.0036 0.173685,0.0027 0.251633,-0.03146 0.04618,-0.02024 0.08531,-0.05343 0.122807,-0.08714 0.0375,-0.0337 0.07453,-0.06872 0.11832,-0.09371 0.04718,-0.02693 0.100316,-0.04117 0.152434,-0.05649 0.05212,-0.01532 0.104806,-0.03245 0.148976,-0.06407 0.04112,-0.02944 0.07289,-0.0701 0.100435,-0.112508 0.02754,-0.04241 0.05147,-0.08715 0.08041,-0.12862 0.0788,-0.112926 0.191767,-0.1975 0.30907,-0.269619 0.117303,-0.07212 0.241043,-0.133929 0.354031,-0.212636 0.255532,-0.178001 0.446196,-0.435984 0.592852,-0.710707 0.146656,-0.274723 0.253151,-0.568635 0.371658,-0.856623 0.215788,-0.524391 0.473166,-1.032558 0.783665,-1.507048 0.247516,-0.378243 0.529726,-0.736909 0.723383,-1.145356 0.185549,-0.391348 0.285485,-0.81981 0.482255,-1.205638 0.07361,-0.144341 0.16023,-0.281586 0.241128,-0.421973 0.431334,-0.748518 0.701777,-1.588963 1.205638,-2.290713 0.211919,-0.29515 0.466029,-0.56761 0.602819,-0.904228 0.04786,-0.117768 0.08028,-0.241122 0.120564,-0.361692 0.196769,-0.588995 0.577237,-1.102214 0.783665,-1.687893 0.06338,-0.179827 0.109978,-0.365526 0.180845,-0.542537 0.08354,-0.208663 0.199641,-0.402415 0.30141,-0.60282 0.412312,-0.811929 0.596176,-1.745176 1.145356,-2.471558 0.08766,-0.115941 0.185163,-0.227549 0.241128,-0.361691 0.05743,-0.137655 0.06744,-0.290621 0.116391,-0.431514 0.02448,-0.07045 0.05929,-0.138432 0.110668,-0.192487 0.05138,-0.05406 0.120582,-0.09334 0.194914,-0.09938 0.02486,-0.002 0.05041,-4.42e-4 0.0742,-0.0079 0.0119,-0.0037 0.02324,-0.0098 0.03189,-0.01882 0.0086,-0.009 0.0144,-0.02106 0.01447,-0.03353 6e-5,-0.01042 -0.0037,-0.02043 -0.0056,-0.03068 -9.39e-4,-0.0051 -0.0014,-0.01039 -6.67e-4,-0.01554 7.36e-4,-0.0052 0.0027,-0.01022 0.0063,-0.01406 0.0036,-0.0039 0.0085,-0.0063 0.01372,-0.0074 0.0052,-0.0011 0.01055,-8.46e-4 0.01576,1.7e-5 0.01042,0.0017 0.02033,0.0059 0.0308,0.0074 0.01509,0.0021 0.03067,-0.0018 0.0439,-0.0094 0.01324,-0.0075 0.02426,-0.01856 0.0333,-0.03082 0.01808,-0.02453 0.0284,-0.0538 0.04336,-0.08036 0.0287,-0.05095 0.07518,-0.09165 0.129471,-0.113366 0.05429,-0.02172 0.116021,-0.0243 0.171938,-0.0072 0.103461,-0.0551 0.204106,-0.115485 0.30141,-0.180845 0.176896,-0.118824 0.342396,-0.253819 0.517603,-0.375119 0.175207,-0.1213 0.362458,-0.229836 0.567471,-0.287982 0.141029,-0.04 0.29027,-0.0562 0.421974,-0.120564 0.127699,-0.06241 0.229796,-0.165635 0.340441,-0.254853 0.05532,-0.04461 0.11359,-0.08622 0.177617,-0.117063 0.06403,-0.03084 0.13426,-0.05067 0.205324,-0.05006 0.04415,3.84e-4 0.0883,0.0086 0.132234,0.0043 0.02197,-0.0022 0.04385,-0.0076 0.06324,-0.0181 0.01939,-0.01054 0.03621,-0.02649 0.04565,-0.04645 0.0088,-0.0185 0.01086,-0.03955 0.0096,-0.05998 -0.0013,-0.02042 -0.0057,-0.04049 -0.0096,-0.06059 -0.05681,-0.295879 0.01987,-0.602654 0.138866,-0.879443 0.118993,-0.276789 0.279756,-0.53383 0.403671,-0.808451 0.288392,-0.639136 0.367951,-1.350481 0.421974,-2.049585 0.106932,-1.383784 0.127998,-2.772548 0.180845,-4.1594512 0.05361,-1.4068649 0.139951,-2.8124417 0.180846,-4.2197335 0.03678,-1.2655639 0.03678,-2.5321963 0,-3.79776022 0.260714,-0.55964945 0.325575,-1.20826351 0.180846,-1.80845728 -0.0121,-0.050172 -0.02566,-0.1003414 -0.02938,-0.1518172 -0.0037,-0.051476 0.0031,-0.1051674 0.02938,-0.1495923 0.01165,-0.019707 0.02681,-0.037113 0.03921,-0.056364 0.01239,-0.019251 0.02217,-0.041331 0.02107,-0.064199 -6.22e-4,-0.012964 -0.0048,-0.025714 -0.01179,-0.036645 -0.007,-0.010931 -0.01678,-0.020031 -0.0281,-0.026396 -0.02262,-0.012729 -0.05101,-0.013961 -0.07524,-0.00464 -0.02423,0.00932 -0.04411,0.028686 -0.0555,0.052012 -0.01139,0.023327 -0.01447,0.050344 -0.01022,0.07595 0.0017,0.010165 0.0045,0.020154 0.0055,0.030412 9.75e-4,0.010258 -4.8e-5,0.021109 -0.0055,0.02987 -0.0057,0.00915 -0.01569,0.015072 -0.02621,0.017362 -0.01052,0.00229 -0.02152,0.00125 -0.03201,-0.00119 -0.02097,-0.00488 -0.04083,-0.015321 -0.06235,-0.01617 -0.01979,-7.811e-4 -0.03939,0.00689 -0.0549,0.01921 -0.01551,0.012317 -0.02713,0.029028 -0.03547,0.046987 -0.01669,0.035918 -0.02061,0.076218 -0.03019,0.1146485 -0.01597,0.064073 -0.04812,0.1236472 -0.09028,0.1744676 -0.04216,0.05082 -0.09418,0.093042 -0.150844,0.126942 -0.07715,0.0461515 -0.162513,0.0769581 -0.241128,0.12056378 -0.125223,0.069458 -0.230256,0.16954968 -0.333147,0.26914169 -0.102892,0.099592 -0.206494,0.20085003 -0.329954,0.27339548 -0.132076,0.077608 -0.281683,0.11931797 -0.421973,0.18084573 -0.33836,0.14839655 -0.619408,0.41057852 -0.964511,0.54253717 -0.155001,0.0592686 -0.319026,0.0906564 -0.482255,0.12056381 -0.705703,0.12930135 -1.416805,0.23649787 -2.109867,0.42197336 -0.179168,0.0479484 -0.358067,0.10130428 -0.542537,0.12056378 -0.180022,0.018795 -0.361598,0.00472 -0.542537,0 -0.603161,-0.015745 -1.209466,0.072534 -1.808457,0 -0.141062,-0.017082 -0.280934,-0.0430204 -0.421974,-0.0602819 -0.718768,-0.0879684 -1.447817,0.051007 -2.170149,0 -0.627047,-0.0442784 -1.240202,-0.23115406 -1.868731,-0.2411338 -0.382216,-0.006069 -0.766845,0.0534309 -1.145356,0 -0.121044,-0.0170866 -0.24033,-0.0456196 -0.361691,-0.0602819 -0.359521,-0.0434355 -0.724731,0.0359726 -1.085075,0 -0.243385,-0.0242968 -0.479587,-0.10081073 -0.723383,-0.12056382 -0.200367,-0.0162343 -0.401891,0.006197 -0.602819,0 -0.171852,-0.0053 -0.342361,-0.0315088 -0.513892,-0.0432656 -0.171531,-0.0117568 -0.346968,-0.008575 -0.5109,0.0432656 -0.197884,0.0625775 -0.366463,0.19153618 -0.542537,0.30140954 -0.12309,0.0768104 -0.252372,0.14573317 -0.361692,0.24112758 -0.227802,0.1987836 -0.348217,0.4949909 -0.411078,0.7907224 -0.06286,0.2957315 -0.07592,0.599977 -0.131459,0.8971711 -0.103199,0.5522548 -0.352273,1.0704673 -0.67485,1.5304455 -0.322576,0.4599783 -0.717741,0.8647772 -1.133607,1.2425222 -1.583469,1.4383197 -3.472019,2.4989158 -5.123962,3.8580422 -1.021304,0.8402713 -1.946268,1.7897513 -2.893532,2.7126863 -0.968443,0.94357 -1.967843,1.867543 -2.772968,2.953813 -0.527826,0.71214 -0.965855,1.485805 -1.446765,2.230431 -0.112469,0.174143 -0.228257,0.348569 -0.30141,0.542537 -0.07408,0.196421 -0.102506,0.408058 -0.180846,0.602819 -0.104312,0.259332 -0.291678,0.476082 -0.421973,0.723383 -0.174487,0.331177 -0.241775,0.706989 -0.297625,1.077131 -0.05585,0.370141 -0.103807,0.746299 -0.244912,1.093017 -0.147939,0.363509 -0.392828,0.679946 -0.663101,0.964511 -0.2348609,0.24728 -0.49073,0.474025 -0.7233832,0.723383 -0.2527909,0.270942 -0.4769229,0.567234 -0.7233829,0.843947 -0.264695,0.297187 -0.5543736,0.570943 -0.8439467,0.843946 -0.3004902,0.283296 -0.6033654,0.568563 -0.8439467,0.904229 -0.2183283,0.304618 -0.3863031,0.651559 -0.663101,0.904229 -0.1159517,0.105844 -0.2485338,0.192583 -0.3616914,0.301409 -0.1236632,0.11893 -0.2214361,0.261574 -0.3218997,0.400657 -0.1004636,0.139082 -0.2060846,0.27727 -0.3412013,0.383008 -0.1016445,0.07954 -0.220059,0.140924 -0.3014096,0.241128 -0.031787,0.03915 -0.05694,0.08316 -0.084227,0.12557 -0.027287,0.04241 -0.05733,0.08394 -0.096619,0.115557 -0.0283,0.02278 -0.060666,0.03983 -0.092304,0.05768 -0.031637,0.01785 -0.063126,0.03693 -0.088542,0.06289 -0.031637,0.03231 -0.052314,0.07369 -0.069273,0.11561 -0.016959,0.04192 -0.030775,0.08522 -0.051291,0.125518 -0.052191,0.102515 -0.1443046,0.179011 -0.2411276,0.241127 -0.1102049,0.0707 -0.2294309,0.126626 -0.3387104,0.19875 -0.1092795,0.07212 -0.2107702,0.163927 -0.2641087,0.283505 -0.045774,0.10262 -0.053269,0.219098 -0.099143,0.321674 -0.022937,0.05129 -0.056208,0.09926 -0.1024207,0.131213 -0.023106,0.01598 -0.049262,0.02774 -0.076815,0.03322 -0.027553,0.0055 -0.056504,0.0046 -0.083312,-0.0038 -0.021054,-0.0066 -0.040754,-0.0177 -0.062487,-0.02151 -0.010866,-0.0019 -0.022234,-0.0019 -0.032737,0.0015 -0.010504,0.0034 -0.02008,0.01033 -0.02534,0.02002 -0.00489,0.009 -0.00579,0.01971 -0.00492,0.02992 8.663e-4,0.01022 0.00338,0.02022 0.00492,0.03036 0.00428,0.0281 9.917e-4,0.05714 -0.0081,0.08407 -0.00909,0.02693 -0.023884,0.05177 -0.042128,0.07356 -0.036487,0.04359 -0.08595,0.07446 -0.137209,0.09903 -0.051259,0.02457 -0.105044,0.04353 -0.1564412,0.06781 -0.051397,0.02428 -0.1011549,0.05455 -0.1383784,0.0975 -0.047535,0.05486 -0.07184,0.127041 -0.1205638,0.180846 -0.036832,0.04067 -0.086952,0.06911 -0.140758,0.07987 -0.053806,0.01076 -0.1110093,0.0038 -0.1606515,-0.01959 z"
     id="path4"
     inkscape:path-effect="#path-effect4"
     inkscape:original-d="m 2.1701487,30.382082 c 0.1607517,0.08038 0.3384745,0.133292 0.4822553,0.241127 0.2058626,0.154397 0.3091574,0.412412 0.4822552,0.602819 0.1146927,0.126162 0.2411276,0.241128 0.3616915,0.361692 0.6074659,0.607466 1.2164152,1.252235 1.7481753,1.929021 0.072388,0.09213 0.1020307,0.214713 0.1808457,0.301409 0.2986053,0.328466 0.6762629,0.565571 0.9042286,0.964511 0.019939,0.03489 -0.024673,0.08884 0,0.120564 0.202226,0.260005 0.7796809,0.729718 1.0850744,0.904228 0.1718276,0.09819 0.3655276,0.152623 0.5425372,0.241128 1.2449471,0.622474 -0.1920091,-0.02128 1.1453562,0.602819 0.098058,0.04576 0.2046242,0.07217 0.3014096,0.120564 0.089863,0.04493 0.1512646,0.135914 0.2411276,0.180846 0.035945,0.01797 0.092147,-0.02842 0.1205638,0 0.042626,0.04263 -0.01462,0.122363 0,0.180845 0.037116,0.148462 0.091898,0.297447 0.1808457,0.421974 0.042111,0.05895 0.1251882,0.07418 0.1808462,0.120564 0.213596,0.177996 0.469841,0.409559 0.663101,0.602819 0.288809,0.288809 0.552494,0.612776 0.843946,0.904228 0.08038,0.08038 0.148007,0.175943 0.241128,0.241128 0.198271,0.13879 0.781969,0.3583 0.904228,0.602819 0.05254,0.105081 0.04502,0.35006 0.120564,0.482255 0.136677,0.239184 0.313808,0.43608 0.361692,0.723383 0.02579,0.154737 -0.03397,0.329398 0,0.482255 0.13031,0.586397 0.613403,1.029395 0.843946,1.56733 0.06112,0.142605 0.08694,0.350789 0.180846,0.482255 0.06607,0.0925 0.169149,0.153153 0.241128,0.241128 0.244174,0.298435 0.454039,0.574603 0.723383,0.843947 0.06482,0.06482 0.338118,0.213175 0.421973,0.241127 0.03813,0.01271 0.08462,-0.01797 0.120564,0 0.01797,0.009 -0.01115,0.04356 0,0.06028 0.07137,0.107055 0.150148,0.21043 0.241128,0.30141 0.01901,0.01901 0.48026,0.386386 0.542537,0.421973 0.05517,0.03153 0.1192,0.04487 0.180845,0.06028 0.01949,0.0049 0.0513,-0.01797 0.06028,0 0.01797,0.03594 0,0.08038 0,0.120564 0.04019,0.10047 0.06688,0.207457 0.120564,0.301409 0.0282,0.04935 0.08646,0.0751 0.120564,0.120564 0.07831,0.104412 0.185654,0.311026 0.241128,0.421973 0.04504,0.09008 0.02375,0.32698 0.06028,0.421974 0.08366,0.217511 0.375792,1.038893 0.542537,1.205638 0.01421,0.01421 0,-0.04019 0,-0.06028 0,-0.160752 0.07189,-0.338474 0,-0.482255 -0.01271,-0.02542 -0.05339,-0.03271 -0.06028,-0.06028 -0.06275,-0.250987 0.04611,-0.15959 0.180845,-0.361692 0.07477,-0.112155 0.117414,-0.242755 0.180846,-0.361691 0.757759,-1.420798 -0.319873,0.658935 0.964511,-1.56733 0.231745,-0.401691 0.313293,-0.864742 0.542537,-1.26592 0.179246,-0.313681 0.512043,-0.443783 0.663101,-0.783665 0.223854,-0.503671 0.416688,-1.167569 0.723383,-1.627611 0.127085,-0.190628 0.292909,-0.353243 0.421973,-0.542537 0.172787,-0.253422 0.301851,-0.535609 0.482255,-0.783665 0.416461,-0.572634 1.025167,-1.005198 1.446766,-1.56733 0.234093,-0.312123 0.38722,-0.688629 0.663101,-0.96451 0.363391,-0.363391 1.111692,-0.465423 1.507048,-0.663101 0.219383,-0.109692 0.398735,-0.285918 0.602819,-0.421973 0.11494,-0.07663 1.596027,-1.114927 2.049585,-1.205639 0.05911,-0.01182 0.121734,0.01182 0.180846,0 0.143445,-0.02869 0.278192,-0.09361 0.421973,-0.120563 0.204937,-0.03843 1.397889,-0.108074 1.507048,-0.180846 0.03739,-0.02492 0.02434,-0.09361 0.06028,-0.120564 0.07935,-0.05951 0.438932,-0.101309 0.482255,-0.120564 0.09181,-0.0408 0.153301,-0.132053 0.241127,-0.180846 0.09459,-0.05255 0.214843,-0.05564 0.30141,-0.120563 0.08038,-0.06028 0.109803,-0.170085 0.180846,-0.241128 0.19152,-0.19152 0.456435,-0.310034 0.663101,-0.482255 0.407897,-0.339915 0.739098,-1.129028 0.96451,-1.56733 0.258954,-0.503522 0.505475,-1.013893 0.783665,-1.507048 0.221859,-0.393295 0.521441,-0.741472 0.723383,-1.145356 0.193571,-0.387141 0.303146,-0.811597 0.482255,-1.205638 0.06704,-0.147482 0.165676,-0.278614 0.241128,-0.421973 0.402275,-0.764323 0.767083,-1.545169 1.205638,-2.290713 0.180777,-0.30732 0.442491,-0.583573 0.602819,-0.904228 0.05683,-0.113669 0.06895,-0.24556 0.120564,-0.361692 0.251459,-0.565783 0.547911,-1.11535 0.783665,-1.687893 0.07258,-0.17627 0.106871,-0.366848 0.180845,-0.542537 0.08718,-0.207053 0.209513,-0.397818 0.30141,-0.60282 0.375693,-0.838083 0.702218,-1.665852 1.145356,-2.471558 0.06983,-0.126963 0.171742,-0.234484 0.241128,-0.361691 0.132291,-0.242534 0.222637,-0.524047 0.421973,-0.723383 0.03177,-0.03177 0.08879,-0.02851 0.120564,-0.06028 0.01421,-0.01421 -0.01421,-0.04607 0,-0.06028 0.01421,-0.01421 0.04356,0.01115 0.06028,0 0.04729,-0.03153 0.07122,-0.09237 0.120564,-0.120564 0.09395,-0.05369 0.200939,-0.08038 0.301409,-0.120564 0.10047,-0.06028 0.20094,-0.120563 0.30141,-0.180845 0.273357,-0.164014 0.754607,-0.525407 1.085074,-0.663101 0.135034,-0.05626 0.28615,-0.06623 0.421974,-0.120564 0.955617,-0.382247 0.124092,-0.07952 0.723382,-0.421973 0.07193,-0.0411 0.182545,-0.0017 0.241128,-0.06028 0.02842,-0.02842 -0.01493,-0.08325 0,-0.120564 0.228651,-0.571629 0.412667,-1.077502 0.542537,-1.687894 0.14516,-0.682252 0.313186,-1.360596 0.421974,-2.049585 0.216834,-1.373286 0.14713,-2.777117 0.180845,-4.1594512 0.03423,-1.4034117 0.0645,-2.8235879 0.180846,-4.2197335 0.104755,-1.2570581 -0.07632,-2.5383938 0,-3.79776022 -0.113883,-0.62206256 0.130535,-1.20472423 0.180846,-1.80845728 0.0083,-0.1001228 -0.01421,-0.2019494 0,-0.3014095 0.0064,-0.04448 0.06028,-0.075632 0.06028,-0.1205638 0,-0.063543 -0.135915,0.01535 -0.180846,0.060282 -0.01421,0.014209 0.01421,0.046073 0,0.060282 -0.02842,0.028417 -0.09215,-0.028417 -0.120564,0 -0.06206,0.062056 -0.05851,0.1187894 -0.120564,0.1808457 -0.09098,0.090979 -0.142285,0.2190408 -0.241127,0.3014096 -0.06904,0.0575288 -0.168003,0.068332 -0.241128,0.12056378 -0.823741,0.58838614 1.067774,-0.49598768 -0.663101,0.54253717 -0.131223,0.0787339 -0.285098,0.11240813 -0.421973,0.18084573 -0.215538,0.10776889 -0.77336,0.46382785 -0.964511,0.54253717 -0.153218,0.0630899 -0.322601,0.0762155 -0.482255,0.12056381 -0.699052,0.19418099 -1.398163,0.28852891 -2.109867,0.42197336 -0.182084,0.0341408 -0.358413,0.10010558 -0.542537,0.12056378 -0.17974,0.019971 -0.361692,0 -0.542537,0 -0.596174,0 -1.213372,0.042506 -1.808457,0 -0.141725,-0.010123 -0.280203,-0.0508305 -0.421974,-0.0602819 -0.719498,-0.0479665 -1.4517,0.0598707 -2.170149,0 -0.624065,-0.0520123 -1.24427,-0.1965295 -1.868731,-0.2411338 -0.379519,-0.0271085 -0.766209,0.0315956 -1.145356,0 -0.121805,-0.0101504 -0.239966,-0.049216 -0.361691,-0.0602819 -0.358727,-0.0326115 -0.726348,0.0326115 -1.085075,0 -0.24537,-0.0223064 -0.48514,-0.0808566 -0.723383,-0.12056382 -0.198205,-0.0330343 -0.401879,0 -0.602819,0 -0.12059,0 -0.878323,-0.0732344 -1.024792,0 -0.169821,0.0849104 -0.356522,0.22700335 -0.542537,0.30140954 -0.123355,0.0493417 -0.293217,0.10417803 -0.361692,0.24112758 -0.258197,0.5163948 -0.324507,1.1428197 -0.542537,1.6878935 -0.416534,1.0413359 -1.028977,1.959597 -1.808457,2.7729677 -1.484762,1.5493168 -3.445244,2.5465435 -5.123962,3.8580422 -1.041823,0.8139243 -1.960653,1.7798073 -2.893532,2.7126863 -0.957974,0.957973 -1.930888,1.890134 -2.772968,2.953813 -0.574863,0.726143 -1.00985,1.42942 -1.446765,2.230431 -0.0796,0.145929 -0.241561,0.374959 -0.30141,0.542537 -0.07056,0.197565 -0.110287,0.405253 -0.180846,0.602819 -0.0974,0.272718 -0.297208,0.473853 -0.421973,0.723383 -0.334098,0.668196 -0.185677,1.599172 -0.542537,2.170148 -0.206782,0.330851 -0.42357,0.656542 -0.663101,0.964511 -0.2093577,0.269174 -0.4920856,0.472811 -0.7233832,0.723383 -0.2513126,0.272255 -0.4712659,0.572436 -0.7233829,0.843947 -0.2707108,0.291534 -0.5740995,0.551612 -0.8439467,0.843946 -0.261902,0.283728 -0.6084516,0.604508 -0.8439467,0.904229 -0.089925,0.11445 -0.4816345,0.722762 -0.663101,0.904229 -0.1109725,0.110972 -0.2450396,0.196422 -0.3616914,0.301409 -0.2621646,0.235948 -0.4165401,0.537104 -0.663101,0.783665 -0.090979,0.09098 -0.2104302,0.150148 -0.3014096,0.241128 -0.071043,0.07104 -0.1098028,0.170084 -0.1808457,0.241127 -0.05123,0.05123 -0.1344644,0.06491 -0.1808457,0.120564 -0.057529,0.06904 -0.070717,0.166357 -0.1205638,0.241128 -0.063052,0.09458 -0.1607518,0.160751 -0.2411276,0.241127 -0.1833961,0.183396 -0.4245268,0.303963 -0.6028191,0.482255 -0.079869,0.07987 -0.2881255,0.433212 -0.3616915,0.482256 -0.033438,0.02229 -0.084619,-0.01797 -0.1205638,0 -0.017973,0.009 0.014209,0.04607 0,0.06028 -0.1440559,0.144056 -0.3598391,0.238349 -0.4822553,0.421973 -0.021101,0.03165 -0.061328,0.161101 -0.1205638,0.180846 -0.097202,0.0324 -0.2009397,0.04019 -0.3014095,0.06028 z"
     transform="matrix(0.93206535,0,0,0.93206535,1.8930892,2.8050995)" />
  <path
     style="opacity:1;fill:none;fill-opacity:1;stroke:#95aabf;stroke-width:2;stroke-dasharray:none;stroke-opacity:1"
     d="m 36.470554,13.683993 c -0.59461,0.224531 -1.19805,0.425678 -1.808457,0.602819 -0.159193,0.0462 -0.320298,0.09102 -0.485716,0.101671 -0.165418,0.01065 -0.3374,-0.01516 -0.478794,-0.101671 -0.07409,-0.04533 -0.13754,-0.105722 -0.203494,-0.162246 -0.06595,-0.05653 -0.136506,-0.110439 -0.21848,-0.139163 -0.07828,-0.02743 -0.163647,-0.03067 -0.241127,-0.06028 -0.06296,-0.02406 -0.119144,-0.06544 -0.161137,-0.118168 -0.04199,-0.05272 -0.06973,-0.116625 -0.07999,-0.183242 -0.01075,-0.06978 -0.0026,-0.140905 0.0042,-0.211187 0.0068,-0.07028 0.01206,-0.142069 -0.0042,-0.210786 -0.01872,-0.07926 -0.06477,-0.149036 -0.11242,-0.215083 -0.04765,-0.06605 -0.09835,-0.131316 -0.128708,-0.206891 -0.02742,-0.06826 -0.03706,-0.142073 -0.05006,-0.214475 -0.013,-0.0724 -0.03028,-0.14591 -0.0705,-0.207498 -0.05113,-0.07829 -0.133749,-0.129304 -0.213162,-0.17867 -0.07941,-0.04937 -0.161195,-0.102548 -0.208812,-0.183021 -0.03964,-0.06699 -0.05152,-0.14613 -0.07023,-0.22169 -0.0094,-0.03778 -0.02068,-0.07531 -0.03811,-0.110113 -0.01743,-0.0348 -0.04128,-0.06693 -0.0725,-0.09017 -0.03612,-0.02689 -0.08006,-0.04061 -0.120563,-0.06028 -0.0925,-0.04492 -0.16695,-0.121229 -0.22403,-0.206759 -0.05708,-0.08553 -0.09815,-0.180561 -0.137662,-0.275496 -0.07773,-0.186768 -0.151466,-0.378842 -0.1682,-0.580446 -0.0084,-0.100801 -0.0021,-0.203344 0.02468,-0.300876 0.0268,-0.09753 0.07462,-0.1899826 0.143525,-0.2640341 0.03873,-0.041627 0.08377,-0.077218 0.120564,-0.1205638 0.04712,-0.055507 0.07921,-0.121852 0.113457,-0.1861083 0.03425,-0.064256 0.07218,-0.1284374 0.127671,-0.1755831 0.05528,-0.046968 0.124919,-0.07437 0.180845,-0.1205639 0.04575,-0.037784 0.08089,-0.087078 0.108739,-0.139469 0.02785,-0.052391 0.04879,-0.1081134 0.06986,-0.1635749 0.02108,-0.055461 0.04247,-0.1110453 0.07114,-0.1629902 0.02867,-0.051945 0.06504,-0.100463 0.11195,-0.1367849 0.04659,-0.036072 0.101779,-0.058886 0.155192,-0.083763 0.05341,-0.024878 0.10695,-0.05315 0.146217,-0.097082 0.03008,-0.033653 0.05029,-0.074892 0.06755,-0.1165984 0.01726,-0.041706 0.03201,-0.084578 0.05302,-0.1245292 0.06666,-0.1267884 0.189056,-0.212552 0.30141,-0.3014095 0.215091,-0.1701091 0.412437,-0.3710389 0.663101,-0.4822553 0.157083,-0.069696 0.329857,-0.101426 0.482255,-0.1808457 0.193141,-0.1006522 0.343695,-0.2728294 0.542537,-0.3616915 0.213201,-0.095279 0.457285,-0.084303 0.689652,-0.061099 0.232366,0.023204 0.470049,0.056514 0.696832,8.168e-4 0.11441,-0.028099 0.223275,-0.078388 0.339729,-0.096209 0.05823,-0.00891 0.118379,-0.00944 0.17544,0.00519 0.05706,0.014623 0.110967,0.045161 0.147932,0.091024 0.02285,0.028354 0.03867,0.061573 0.05591,0.093651 0.01724,0.032078 0.03663,0.063944 0.06466,0.087195 0.03472,0.028801 0.0794,0.041829 0.120564,0.060282 0.11807,0.05293 0.208299,0.1512797 0.301409,0.2411277 0.106822,0.1030799 0.22271,0.1986535 0.354599,0.2667847 0.131888,0.068131 0.281184,0.1078415 0.429066,0.094907 0.04028,-0.00352 0.0816,-0.010807 0.120564,0 0.03336,0.00925 0.06233,0.031514 0.08283,0.059411 0.02049,0.027897 0.03289,0.061173 0.03928,0.095195 0.01277,0.068044 0.0022,0.1379547 -0.0015,0.2070846 -0.01669,0.3055196 0.103819,0.6103254 0.301409,0.8439467 0.04736,0.055993 0.09904,0.108364 0.143684,0.1665421 0.04464,0.058178 0.08256,0.1233407 0.09744,0.1951493 0.01229,0.059325 0.0084,0.120847 0,0.1808458 -0.04007,0.285718 -0.180989,0.5554324 -0.180846,0.8439464 6e-5,0.120914 0.02504,0.243398 0,0.361692 -0.02245,0.106061 -0.0833,0.199604 -0.120564,0.301409 -0.04906,0.134039 -0.05624,0.279295 -0.06028,0.421974 -0.0077,0.272267 -0.0074,0.55267 -0.110621,0.804733 -0.05161,0.126031 -0.129619,0.242971 -0.235584,0.32852 -0.105965,0.08555 -0.241093,0.137968 -0.377178,0.132667 -0.02011,-7.83e-4 -0.04035,-0.0028 -0.06028,0 -0.02541,0.0036 -0.0495,0.01496 -0.06921,0.03139 -0.01971,0.01643 -0.03512,0.03776 -0.04574,0.06112 -0.02125,0.04672 -0.0232,0.100287 -0.01548,0.151027 0.01544,0.10148 0.06758,0.196381 0.07015,0.298996 0.0014,0.05657 -0.01279,0.113387 -0.04026,0.162857 -0.02747,0.04947 -0.06809,0.09149 -0.116358,0.12102 -0.04827,0.02953 -0.104059,0.04654 -0.16057,0.04942 -0.05651,0.0029 -0.113634,-0.0083 -0.165069,-0.03189 -0.02033,-0.0093 -0.04026,-0.02069 -0.06239,-0.02391 -0.01106,-0.0016 -0.02258,-0.0011 -0.03308,0.0028 -0.01049,0.0039 -0.01988,0.01122 -0.0251,0.02111 -0.0048,0.0091 -0.0058,0.01971 -0.0051,0.02995 7.5e-4,0.01023 0.0032,0.02025 0.0051,0.03033 0.01313,0.07003 -0.002,0.144944 -0.04122,0.20441 -0.03925,0.05947 -0.102189,0.10281 -0.171742,0.118266 -0.06955,0.01546 -0.144929,0.0028 -0.205667,-0.0344 -0.06074,-0.03725 -0.106152,-0.09871 -0.123912,-0.167715 z"
     id="path5"
     inkscape:path-effect="#path-effect5"
     inkscape:original-d="m 36.470554,13.683993 c -0.518126,0.453542 -1.161114,0.54397 -1.808457,0.602819 -0.38596,0.03509 -0.605382,0.05986 -0.96451,0 -0.22742,-0.0379 -0.247401,-0.23158 -0.421974,-0.301409 -0.07692,-0.03077 -0.170084,-0.01766 -0.241127,-0.06028 -0.01162,-0.007 -0.227276,-0.273706 -0.241128,-0.30141 -0.05019,-0.10039 0.0208,-0.317955 0,-0.421973 -0.05723,-0.286146 -0.153182,-0.246083 -0.241128,-0.421974 -0.07156,-0.143122 -0.02137,-0.297984 -0.120563,-0.421973 -0.131154,-0.163942 -0.301491,-0.201047 -0.421974,-0.361691 -0.08977,-0.119698 -0.09676,-0.309865 -0.180846,-0.421974 -0.02696,-0.03594 -0.08879,-0.02851 -0.120563,-0.06028 -0.07732,-0.07733 -0.341548,-0.381534 -0.361692,-0.482255 -0.03501,-0.17505 -0.0385,-0.991351 0,-1.1453561 0.01378,-0.055137 0.08646,-0.075096 0.120564,-0.1205638 0.08694,-0.1159197 0.145711,-0.2526433 0.241128,-0.3616914 0.04771,-0.054524 0.136365,-0.063375 0.180845,-0.1205639 0.143867,-0.184972 0.183772,-0.4503165 0.361692,-0.602819 0.08896,-0.076251 0.21856,-0.097996 0.301409,-0.1808458 0.06354,-0.063543 0.07072,-0.1663571 0.120564,-0.2411276 0.07881,-0.1182226 0.194479,-0.2078454 0.30141,-0.3014095 0.146656,-0.1283247 0.49606,-0.3987347 0.663101,-0.4822553 0.153558,-0.076779 0.328697,-0.1040668 0.482255,-0.1808457 0.194403,-0.097202 0.339026,-0.285375 0.542537,-0.3616915 0.403225,-0.1512092 0.97076,-0.060282 1.386484,-0.060282 0.173477,0 0.48585,-0.044313 0.663101,0 0.06155,0.015388 0.0958,0.1560837 0.120564,0.1808457 0.03177,0.031771 0.084,0.034166 0.120564,0.060282 0.104698,0.074785 0.190272,0.1762975 0.301409,0.2411277 0.248511,0.1449646 0.514281,0.2606726 0.783665,0.3616914 0.03763,0.014111 0.08713,-0.022292 0.120564,0 0.06745,0.044969 0.103976,0.2953418 0.120564,0.3616915 0.07245,0.2897993 0.174216,0.5736608 0.301409,0.8439467 0.0617,0.1311079 0.182278,0.2292804 0.241128,0.3616914 0.02448,0.055086 0,0.1205639 0,0.1808458 0,0.4940105 -0.107722,0.4417622 -0.180846,0.8439464 -0.02157,0.118619 0.02157,0.243073 0,0.361692 -0.01936,0.106464 -0.09432,0.196431 -0.120564,0.301409 -0.03312,0.132464 -0.01687,0.291745 -0.06028,0.421974 -0.06975,0.209261 -0.537017,1.079554 -0.723383,1.26592 -0.01421,0.01421 -0.04607,-0.01421 -0.06028,0 -0.136921,0.136921 0.03944,0.442819 -0.06028,0.542537 -0.116297,0.116296 -0.344966,0.232765 -0.482256,0.301409 -0.03594,0.01797 -0.09215,-0.02842 -0.120563,0 -0.01421,0.01421 0.01906,0.05393 0,0.06028 -0.301776,0.100592 -0.06885,-0.06891 -0.542538,0.120564 z"
     transform="matrix(0.93206535,0,0,0.93206535,1.8930892,2.8050995)" />
  <path
     style="opacity:1;fill:none;fill-opacity:1;stroke:#1c3c55;stroke-width:2;stroke-dasharray:none;stroke-opacity:1"
     d="m 16.215833,37.676193 c -0.183869,-0.235785 -0.385573,-0.457659 -0.602819,-0.663101 -0.0945,-0.08936 -0.192126,-0.175822 -0.278419,-0.273127 -0.08629,-0.0973 -0.161609,-0.206682 -0.203836,-0.329693 -0.03435,-0.100075 -0.04594,-0.206248 -0.06593,-0.31015 -0.01999,-0.103901 -0.05001,-0.209112 -0.11492,-0.292669 -0.06419,-0.08263 -0.157557,-0.137573 -0.253236,-0.17991 -0.09568,-0.04234 -0.196008,-0.07414 -0.289301,-0.121499 -0.17958,-0.09117 -0.3252,-0.235619 -0.482255,-0.361692 -0.09466,-0.07599 -0.195252,-0.146372 -0.307189,-0.193338 -0.111936,-0.04697 -0.236491,-0.06956 -0.355912,-0.04779 -0.02019,0.0037 -0.04021,0.0086 -0.06068,0.01015 -0.02046,0.0015 -0.04175,-5.42e-4 -0.05989,-0.01015 -0.0128,-0.0068 -0.02348,-0.01701 -0.03258,-0.02828 -0.0091,-0.01126 -0.01674,-0.02361 -0.0247,-0.03571 -0.008,-0.0121 -0.01632,-0.02405 -0.02661,-0.03422 -0.0103,-0.01018 -0.0227,-0.01858 -0.03668,-0.02236 -0.01964,-0.0053 -0.04042,-0.0012 -0.06048,0.0023 -0.01003,0.0017 -0.02013,0.0032 -0.03031,0.0033 -0.01017,4.3e-5 -0.02047,-0.0014 -0.02978,-0.0055 -0.01519,-0.0067 -0.0268,-0.01998 -0.03393,-0.03496 -0.0071,-0.01498 -0.01015,-0.03159 -0.01163,-0.04812 -0.0015,-0.01652 -0.0015,-0.03315 -0.003,-0.04968 -0.0015,-0.01652 -0.0045,-0.03314 -0.01173,-0.04809 -0.01131,-0.02356 -0.03216,-0.0414 -0.055,-0.05408 -0.02284,-0.01268 -0.04788,-0.02077 -0.07248,-0.02958 -0.0246,-0.0088 -0.04923,-0.01858 -0.07027,-0.03407 -0.02104,-0.01549 -0.03839,-0.03746 -0.04337,-0.06311 -0.0038,-0.01978 -1.75e-4,-0.04014 0,-0.06028 3.27e-4,-0.03751 -0.01168,-0.07457 -0.0311,-0.106656 -0.01942,-0.03209 -0.04604,-0.05941 -0.07559,-0.08252 -0.05909,-0.04622 -0.129204,-0.07568 -0.194715,-0.112232 -0.108727,-0.06067 -0.206977,-0.143127 -0.274764,-0.247564 -0.06779,-0.104436 -0.103466,-0.231851 -0.08693,-0.355255 0.0027,-0.02019 0.0068,-0.04023 0.0081,-0.06056 0.0014,-0.02033 -1.37e-4,-0.04126 -0.0081,-0.06001 -0.01124,-0.0264 -0.03409,-0.04586 -0.05701,-0.06312 -0.02292,-0.01726 -0.04722,-0.03386 -0.06356,-0.05744 -0.01655,-0.02389 -0.02357,-0.05317 -0.02638,-0.08209 -0.0028,-0.02892 -0.0017,-0.05809 -0.0038,-0.08708 -0.002,-0.02899 -0.0074,-0.05843 -0.02197,-0.08357 -0.0073,-0.01257 -0.01684,-0.02392 -0.02851,-0.03257 -0.01168,-0.0086 -0.02551,-0.01453 -0.03996,-0.0161 -0.02003,-0.0022 -0.0405,0.0038 -0.06028,0 -0.01107,-0.0021 -0.02145,-0.0074 -0.03014,-0.01456 -0.0087,-0.0072 -0.0157,-0.0163 -0.02091,-0.02629 -0.01044,-0.01999 -0.01363,-0.04306 -0.01337,-0.0656 2.52e-4,-0.02255 0.0038,-0.04491 0.006,-0.06735 0.0022,-0.02244 0.0031,-0.04532 -0.0018,-0.06732 -0.0056,-0.02487 -0.01839,-0.04767 -0.03417,-0.06768 -0.01578,-0.02002 -0.03451,-0.03749 -0.05334,-0.05466 -0.01884,-0.01717 -0.03793,-0.03418 -0.05459,-0.05347 -0.01667,-0.01928 -0.03095,-0.04105 -0.03874,-0.06532 -0.0076,-0.02354 -0.0088,-0.04892 -0.0047,-0.0733 0.0041,-0.02438 0.01333,-0.04776 0.02599,-0.06898 0.02533,-0.04245 0.06367,-0.07571 0.104557,-0.103483 0.04089,-0.02778 0.08483,-0.05077 0.126362,-0.07758 0.04153,-0.02681 0.08122,-0.05806 0.109471,-0.09863 0.0258,-0.03703 0.041,-0.0802 0.05707,-0.122377 0.01607,-0.04218 0.03381,-0.08476 0.0635,-0.11875 0.02993,-0.03427 0.07039,-0.05781 0.112353,-0.07539 0.04196,-0.01759 0.08596,-0.02977 0.128775,-0.04517 0.145945,-0.05251 0.277646,-0.143029 0.381231,-0.258473 0.103586,-0.115445 0.1791,-0.255457 0.221588,-0.404628 0.02322,-0.08153 0.03692,-0.166201 0.07012,-0.244202 0.01661,-0.039 0.03816,-0.07621 0.06663,-0.107611 0.02847,-0.0314 0.06412,-0.05686 0.10437,-0.07016 0.02199,-0.0073 0.0451,-0.01087 0.06689,-0.01874 0.01089,-0.0039 0.02146,-0.009 0.03083,-0.01578 0.0094,-0.0068 0.01751,-0.01549 0.02285,-0.02576 0.0094,-0.0181 0.0095,-0.0396 0.007,-0.05984 -0.0025,-0.02025 -0.0073,-0.04032 -0.007,-0.06072 5.67e-4,-0.03729 0.01844,-0.07248 0.04175,-0.101587 0.0233,-0.02911 0.05203,-0.05331 0.07882,-0.07926 0.160105,-0.155134 0.250077,-0.380063 0.241127,-0.602819"
     id="path6"
     inkscape:path-effect="#path-effect6"
     inkscape:original-d="m 16.215833,37.676193 c -0.143033,-0.272061 -0.412025,-0.434149 -0.602819,-0.663101 -0.164737,-0.197686 -0.334687,-0.392008 -0.482255,-0.60282 -0.121585,-0.173692 -0.01715,-0.439127 -0.180846,-0.602819 -0.102896,-0.102896 -0.416076,-0.238179 -0.542537,-0.301409 -0.189046,-0.09452 -0.309439,-0.275284 -0.482255,-0.361692 -0.18476,-0.09238 -0.463787,-0.191299 -0.663101,-0.241127 -0.03899,-0.0097 -0.08462,0.01797 -0.120564,0 -0.05083,-0.02542 -0.06973,-0.09515 -0.120564,-0.120564 -0.03594,-0.01797 -0.08462,0.01797 -0.120564,0 -0.05683,-0.02842 -0.02216,-0.130012 -0.06028,-0.180846 -0.325204,-0.433606 0.06694,0.127218 -0.241127,-0.180846 -0.01421,-0.01421 0.009,-0.04231 0,-0.06028 -0.06047,-0.120933 -0.225778,-0.187963 -0.30141,-0.30141 -0.117908,-0.176863 -0.297183,-0.409294 -0.361691,-0.602819 -0.01271,-0.03813 0.01271,-0.08244 0,-0.120564 -0.01797,-0.05392 -0.08904,-0.07328 -0.120564,-0.120564 -0.04054,-0.06081 -0.08365,-0.264497 -0.120564,-0.301409 -0.01421,-0.01421 -0.04607,0.01421 -0.06028,0 -0.04468,-0.04468 0.01454,-0.166306 -0.06028,-0.241128 -0.08125,-0.08125 -0.234562,-0.07998 -0.180845,-0.241127 0.05116,-0.153476 0.260061,-0.259365 0.361691,-0.421974 0.04763,-0.0762 0.05702,-0.177585 0.120564,-0.241127 0.06354,-0.06354 0.168003,-0.06833 0.241128,-0.120564 0.23,-0.164287 0.437459,-0.442622 0.602819,-0.663101 0.09066,-0.120885 0.13546,-0.316306 0.241127,-0.421974 0.03177,-0.03177 0.09564,-0.0229 0.120564,-0.06028 0.02229,-0.03344 -0.0097,-0.08158 0,-0.120563 0.07278,-0.291098 0.02865,0.003 0.120564,-0.180846 0.02901,-0.05802 0.241127,-0.569405 0.241127,-0.602819"
     transform="matrix(0.93206535,0,0,0.93206535,1.8930892,2.8050995)" />
  <path
     style="opacity:1;fill:none;fill-opacity:1;stroke:#1c3c55;stroke-width:2;stroke-dasharray:none;stroke-opacity:1"
     d="m 13.683993,34.481251 c -0.03708,-0.313153 0.04087,-0.638646 0.215791,-0.901026 0.17492,-0.26238 0.445393,-0.459526 0.74872,-0.545739 0.07391,-0.02101 0.150416,-0.03595 0.218873,-0.07084 0.03423,-0.01744 0.06622,-0.03992 0.09177,-0.06861 0.02555,-0.02869 0.04446,-0.06383 0.05105,-0.101678 0.0069,-0.03967 2.26e-4,-0.0803 0,-0.120564 -6.54e-4,-0.11667 0.05673,-0.232253 0.15007,-0.302256 0.09334,-0.07 0.220365,-0.09273 0.332185,-0.05944"
     id="path7"
     inkscape:path-effect="#path-effect7"
     inkscape:original-d="m 13.683993,34.481251 c 0.279896,-0.514929 0.708425,-0.934595 0.964511,-1.446765 0.03893,-0.07786 0.359171,-0.236087 0.361691,-0.241128 0.01797,-0.03594 -0.02229,-0.08713 0,-0.120564 0.01838,-0.02757 0.45683,-0.361691 0.482255,-0.361691"
     transform="matrix(0.93206535,0,0,0.93206535,1.8930892,2.8050995)" />
  <path
     style="opacity:1;fill:none;fill-opacity:1;stroke:#1c3c55;stroke-width:2;stroke-dasharray:none;stroke-opacity:1"
     d="m 16.698089,26.885731 c 0.120626,0.04959 0.226555,0.134329 0.301409,0.241128 0.07748,0.110543 0.12054,0.24092 0.180846,0.361691 0.05808,0.116305 0.134834,0.226566 0.241127,0.30141 0.05932,0.04177 0.126986,0.07196 0.180846,0.120563 0.07476,0.06747 0.116099,0.163996 0.180846,0.241128 0.06484,0.07725 0.151242,0.132869 0.237262,0.185521 0.08602,0.05265 0.174149,0.104386 0.244993,0.17617 0.04019,0.04072 0.07404,0.08715 0.111308,0.130559 0.03726,0.04341 0.0789,0.0845 0.12982,0.110569 0.05207,0.02665 0.111218,0.03624 0.169594,0.03997 0.05838,0.0037 0.117068,0.002 0.175284,0.0077 0.05822,0.0057 0.116988,0.01942 0.166084,0.05122 0.02455,0.0159 0.04639,0.03625 0.06269,0.06053 0.0163,0.02428 0.02695,0.05256 0.02917,0.08173 0.0015,0.02004 -8.98e-4,0.0402 0,0.06028 0.0016,0.03497 0.01334,0.0692 0.03216,0.09871 0.01882,0.02951 0.04454,0.05438 0.07374,0.07369 0.05839,0.03863 0.129204,0.05465 0.199086,0.05888 0.06988,0.0042 0.139889,-0.0026 0.209825,-0.0058 0.06994,-0.0032 0.141011,-0.0027 0.208574,0.01562 0.110457,0.03 0.205979,0.108577 0.260356,0.209293 0.05438,0.100716 0.06789,0.221976 0.04105,0.333244 -0.0049,0.02019 -0.01103,0.0402 -0.01287,0.06089 -0.0018,0.02069 0.001,0.0426 0.01287,0.05967 0.0081,0.01176 0.0199,0.02042 0.03116,0.02923 0.01126,0.0088 0.02254,0.01834 0.02912,0.03104 0.0047,0.0091 0.0067,0.01931 0.0071,0.02949 3.5e-4,0.01019 -9.33e-4,0.02036 -0.0026,0.03042 -0.0033,0.02012 -0.0081,0.0406 -0.0045,0.06065 0.0026,0.01433 0.0095,0.02766 0.01847,0.03911 0.009,0.01146 0.02006,0.02113 0.03174,0.02983 0.02336,0.0174 0.04951,0.03128 0.07035,0.05162 0.02313,0.02256 0.03857,0.05209 0.04844,0.08286 0.0099,0.03077 0.01447,0.06295 0.01843,0.09502 0.004,0.03207 0.0073,0.06432 0.01484,0.09574 0.0075,0.03143 0.01939,0.06227 0.03885,0.08806 0.022,0.02915 0.05266,0.05059 0.08446,0.06853 0.0318,0.01795 0.06527,0.03292 0.09638,0.05203 0.07875,0.04839 0.140704,0.12356 0.173157,0.210102 0.03245,0.08654 0.0352,0.183916 0.0077,0.272153 l 0.06028,0.120564 c 0.01861,-0.0094 0.04167,-0.0094 0.06028,0 0.01479,0.0075 0.02642,0.02035 0.03426,0.03495 0.0078,0.0146 0.01209,0.03089 0.01454,0.04728 0.0049,0.03277 0.0029,0.0666 0.01147,0.09862 0.0084,0.03167 0.02684,0.05996 0.04886,0.08424 0.02201,0.02428 0.04767,0.04492 0.07313,0.06556 0.02545,0.02064 0.05095,0.04152 0.07254,0.06618 0.02159,0.02466 0.03927,0.05349 0.0466,0.08543 0.009,0.03932 0.0019,0.08027 0,0.120564 -0.0044,0.09193 0.01927,0.18501 0.06701,0.263693 0.04774,0.07868 0.119377,0.142651 0.202941,0.181219 0.08356,0.03857 0.178717,0.05158 0.269567,0.03686 0.09085,-0.01472 0.177029,-0.0571 0.244142,-0.120082"
     id="path8"
     inkscape:path-effect="#path-effect8"
     inkscape:original-d="m 16.698089,26.885731 c 0.100469,0.08038 0.21043,0.150148 0.301409,0.241128 0.08835,0.08835 0.105558,0.261307 0.180846,0.361691 0.0772,0.102931 0.150148,0.21043 0.241127,0.30141 0.292394,0.292393 -0.0038,-0.110253 0.180846,0.120563 0.06276,0.07845 0.109803,0.170085 0.180846,0.241128 0.130587,0.130587 0.347957,0.227394 0.482255,0.361691 0.301832,0.301832 -0.314346,-0.09216 0.241128,0.241128 0.137942,0.08276 0.526842,0.165151 0.602819,0.241128 0.01421,0.01421 -0.01421,0.04607 0,0.06028 0.106447,0.106447 0.630029,0.05442 0.723383,0.241127 0.08363,0.167253 0.224705,0.350776 0.301409,0.542537 0.01493,0.03731 -0.01271,0.08244 0,0.120564 0.009,0.02696 0.0513,0.03332 0.06028,0.06028 0.01271,0.03813 -0.01271,0.08244 0,0.120564 0.01797,0.05392 0.102591,0.06665 0.120564,0.120564 0.03809,0.114269 0.03251,0.251623 0.120564,0.361691 0.04526,0.05657 0.134464,0.06491 0.180846,0.120564 0.113934,0.136721 0.129125,0.327095 0.180845,0.482255 0.02009,0.04019 0.04019,0.08038 0.06028,0.120564 0.02009,0 0.04914,-0.01672 0.06028,0 0.03525,0.05287 0.0266,0.126962 0.06028,0.180846 0.06819,0.109107 0.177292,0.189698 0.241128,0.301409 0.01994,0.03489 -0.02229,0.08713 0,0.120564 0.02482,0.03723 0.74033,0.340024 0.783664,0.361692"
     transform="matrix(0.93206535,0,0,0.93206535,1.8930892,2.8050995)" />
  <path
     style="opacity:1;fill:none;fill-opacity:1;stroke:#1c3c55;stroke-width:2;stroke-dasharray:none;stroke-opacity:1"
     d="m 21.038386,22.907125 c 0.712259,0.138448 1.394771,0.427999 1.989303,0.843947 0.157533,0.110214 0.309458,0.229483 0.477298,0.323257 0.167839,0.09377 0.355257,0.161916 0.547494,0.158998 0.0201,-3.05e-4 0.04023,-0.0014 0.06028,0 0.04631,0.0032 0.09134,0.01968 0.13006,0.04527 0.03872,0.0256 0.07122,0.06013 0.09637,0.09913 0.05032,0.07801 0.07075,0.172072 0.07534,0.264792 0.0092,0.185441 -0.04086,0.374114 -3.66e-4,0.555313 0.0266,0.11905 0.09052,0.225852 0.152826,0.330723 0.06231,0.104872 0.124965,0.2127 0.148583,0.332378 0.01189,0.06025 0.01353,0.12198 0.01896,0.183157 0.0054,0.06118 0.01496,0.123064 0.04133,0.178534 0.03418,0.07192 0.09448,0.128322 0.159582,0.174163 0.06511,0.04584 0.136054,0.08279 0.20211,0.127247 0.272391,0.183345 0.443154,0.479588 0.663101,0.723382 0.288968,0.320298 0.662645,0.549267 1.024792,0.783665 0.18247,0.118103 0.363338,0.238682 0.542537,0.361692"
     id="path9"
     inkscape:path-effect="#path-effect9"
     inkscape:original-d="m 21.038386,22.907125 c 0.660707,0.288077 1.323213,0.569675 1.989303,0.843947 0.362663,0.149332 0.679133,0.309425 1.024792,0.482255 0.01797,0.009 0.04607,-0.01421 0.06028,0 0.09012,0.09012 0.238412,0.813315 0.30141,0.964511 0.02345,0.05628 0.271301,0.482452 0.301409,0.663101 0.02574,0.154432 -0.044,0.231343 0.06028,0.361691 0.395024,0.49378 -0.02857,-0.08885 0.361692,0.30141 0.219602,0.219602 0.476767,0.474937 0.663101,0.723382 0.280463,0.373952 0.615654,0.56336 1.024792,0.783665 0.19137,0.103046 0.759887,0.361692 0.542537,0.361692"
     transform="matrix(0.93206535,0,0,0.93206535,1.8930892,2.8050995)" />
  <path
     style="opacity:1;fill:none;fill-opacity:1;stroke:#1c3c55;stroke-width:2;stroke-dasharray:none;stroke-opacity:1"
     d="m 27.006295,16.939216 c -0.203125,0.02799 -0.404555,0.06827 -0.602819,0.120564 -0.196981,0.05195 -0.395989,0.118507 -0.553145,0.248132 -0.07858,0.06481 -0.1454,0.145105 -0.187996,0.237629 -0.0426,0.09252 -0.06016,0.197584 -0.04252,0.297904 0.0036,0.02021 0.0085,0.04023 0.01008,0.06068 0.0016,0.02046 -4.39e-4,0.04177 -0.01008,0.05988 -0.0067,0.01262 -0.01682,0.02312 -0.02757,0.03254 -0.01075,0.0094 -0.02227,0.01797 -0.03271,0.02773 -0.03428,0.03207 -0.05552,0.07636 -0.06564,0.122196 -0.01012,0.04584 -0.0098,0.0934 -0.0057,0.140169 0.008,0.09355 0.03028,0.188263 0.01111,0.280173 -0.01846,0.08847 -0.07322,0.164145 -0.120564,0.241127 -0.09384,0.152573 -0.163025,0.321892 -0.188688,0.499163 -0.02566,0.177271 -0.0064,0.362762 0.06812,0.52563 0.04881,0.106628 0.119747,0.201316 0.180846,0.301409 0.09534,0.156192 0.166767,0.325683 0.25508,0.485955 0.08831,0.160271 0.19692,0.314641 0.347739,0.418274 0.09728,0.06684 0.208383,0.110066 0.315171,0.160339 0.106788,0.05027 0.212677,0.110191 0.287648,0.201352 0.01826,0.0222 0.03449,0.04604 0.05335,0.06772 0.01887,0.02168 0.04083,0.04144 0.06721,0.05285 0.02805,0.01213 0.05951,0.01412 0.08999,0.01193 0.03047,-0.0022 0.06052,-0.0084 0.09086,-0.01193 0.14201,-0.01667 0.28364,0.0241 0.421973,0.06028 0.256393,0.06705 0.51865,0.119857 0.783665,0.120564 0.08576,2.29e-4 0.172104,-0.005 0.256843,0.0082 0.08474,0.01319 0.16973,0.04712 0.225412,0.112343 0.0093,0.0109 0.01769,0.02255 0.02719,0.03327 0.0095,0.01073 0.02026,0.02062 0.03309,0.02701 0.01829,0.0091 0.03954,0.01044 0.0599,0.0087 0.02036,-0.0018 0.04036,-0.0064 0.06067,-0.0087 0.04573,-0.0051 0.09231,0.0022 0.135827,0.01714 0.04352,0.01494 0.08415,0.03736 0.122488,0.0628 0.07667,0.05087 0.144915,0.114047 0.22394,0.161186 0.157542,0.09398 0.345447,0.117694 0.525926,0.150533 0.09024,0.01642 0.180392,0.03571 0.266204,0.0681 0.08581,0.03239 0.167571,0.07844 0.232663,0.143059 0.09148,0.09081 0.146338,0.214059 0.241127,0.301409 0.10423,0.09605 0.245124,0.138769 0.3781,0.187833 0.06649,0.02453 0.132506,0.05149 0.192824,0.0887 0.06032,0.0372 0.115071,0.08524 0.152459,0.145445 0.05406,0.08705 0.06831,0.193141 0.06828,0.295614 -3.2e-5,0.102473 -0.01304,0.204856 -0.008,0.307205 0.0098,0.199985 0.08819,0.393139 0.08682,0.593362 -6.83e-4,0.100112 -0.02266,0.202387 -0.07862,0.285399 -0.02798,0.04151 -0.06426,0.07767 -0.107071,0.103619 -0.04281,0.02595 -0.09221,0.04146 -0.142258,0.04241 -0.0201,3.83e-4 -0.04024,-0.0015 -0.06028,0 -0.03678,0.0028 -0.07209,0.01741 -0.102427,0.0384 -0.03034,0.02099 -0.05596,0.04822 -0.07823,0.07762 -0.04455,0.05881 -0.07627,0.126517 -0.12075,0.185384 -0.1051,0.139088 -0.273772,0.217801 -0.44423,0.254349 -0.170458,0.03655 -0.346298,0.03602 -0.52028,0.04706 -0.241601,0.01532 -0.48715,0.05291 -0.723383,0 -0.04539,-0.01017 -0.09128,-0.02372 -0.137541,-0.01894 -0.02313,0.0024 -0.04607,0.0096 -0.06505,0.02301 -0.01898,0.01344 -0.03374,0.03346 -0.03853,0.05621 -0.0042,0.01973 -8.18e-4,0.04014 0,0.06028 0.003,0.07474 -0.03131,0.150074 -0.08972,0.196801 -0.05841,0.04673 -0.139446,0.0637 -0.211695,0.04433"
     id="path10"
     inkscape:path-effect="#path-effect10"
     inkscape:original-d="m 27.006295,16.939216 c -0.183285,0.09164 -0.419534,0.02892 -0.602819,0.120564 -0.314675,0.157337 -0.61432,0.487311 -0.783665,0.783665 -0.01994,0.03489 0.01797,0.08462 0,0.120564 -0.01271,0.02542 -0.05339,0.03271 -0.06028,0.06028 -0.04335,0.173399 -0.01705,0.369596 -0.06028,0.542538 -0.0218,0.08718 -0.08901,0.156986 -0.120564,0.241127 -0.113365,0.302307 -0.199484,0.709112 -0.120564,1.024793 0.09191,0.367623 0.0031,0.01708 0.180846,0.301409 0.201005,0.321609 0.292716,0.663038 0.602819,0.904229 0.184972,0.143867 0.412134,0.225488 0.602819,0.361691 0.04625,0.03304 0.06973,0.09515 0.120564,0.120564 0.04823,0.02411 0.13262,-0.02411 0.180846,0 0.149541,0.07477 0.234975,0.04158 0.421973,0.06028 0.279053,0.02791 0.521662,0.0769 0.783665,0.120564 0.120821,0.02014 0.384931,0.0719 0.482255,0.120564 0.02542,0.01271 0.03332,0.0513 0.06028,0.06028 0.03813,0.01271 0.08325,-0.01493 0.120564,0 0.183228,0.07329 0.281872,0.191031 0.482255,0.241127 0.09961,0.0249 0.945821,0.28272 1.024793,0.361692 0.09487,0.09487 0.13861,0.198891 0.241127,0.301409 0.206114,0.206113 0.509745,0.208335 0.723383,0.421974 0.127391,0.12739 0.06028,0.447948 0.06028,0.602819 0,0.292867 -0.02557,0.809232 -0.241127,1.024792 -0.01421,0.01421 -0.04231,-0.009 -0.06028,0 -0.118783,0.05939 -0.187983,0.233354 -0.30141,0.30141 -0.291011,0.174606 -0.62449,0.258907 -0.96451,0.301409 -0.239266,0.02991 -0.483731,-0.02663 -0.723383,0 -0.08234,0.0091 -0.182544,0.0017 -0.241128,0.06028 -0.01421,0.01421 0.01115,0.04356 0,0.06028 -0.05161,0.07742 -0.243827,0.241128 -0.30141,0.241128"
     transform="matrix(0.93206535,0,0,0.93206535,1.8930892,2.8050995)" />
  <path
     style="opacity:1;fill:none;fill-opacity:1;stroke:#f7931a;stroke-width:2;stroke-dasharray:none;stroke-opacity:1"
     d="m 50.817648,4.3402974 c -0.105234,0.1466297 -0.186964,0.3100902 -0.241127,0.4822552 -0.04392,0.1395944 -0.06982,0.2847137 -0.120564,0.4219734 -0.08828,0.2387952 -0.247692,0.4436851 -0.408647,0.6409423 -0.160955,0.1972573 -0.327836,0.3941784 -0.4353,0.6249778 -0.108506,0.2330372 -0.15167,0.4906554 -0.182759,0.7458284 -0.03109,0.255173 -0.0515,0.5130853 -0.11865,0.7612193 -0.03823,0.1412605 -0.09143,0.2785615 -0.120564,0.4219733 -0.05642,0.2777018 -0.02034,0.5653066 0.02692,0.844714 0.04726,0.2794074 0.10577,0.5600637 0.09364,0.8431799 -0.0043,0.100619 -0.01749,0.202228 0,0.301409 0.01886,0.106974 0.07215,0.204173 0.120564,0.30141 0.196783,0.395194 0.324445,0.826017 0.361691,1.26592 0.03228,0.381255 -0.0028,0.76797 0.06028,1.145356 0.06192,0.370515 0.216322,0.719184 0.301409,1.085074 0.101113,0.434806 0.102806,0.886668 0.180846,1.326202 0.176023,0.991393 0.734529,1.892596 0.843947,2.893532 0.05463,0.499753 -0.0054,1.004347 0,1.507048 0.009,0.826963 0.193975,1.667617 0,2.471558 -0.113478,0.470317 -0.353366,0.907559 -0.421973,1.386484 -0.01736,0.121162 -0.02373,0.244877 -0.06028,0.361691 -0.03233,0.103327 -0.08744,0.198333 -0.120564,0.30141 -0.04357,0.135597 -0.04767,0.280106 -0.06028,0.421973 -0.06742,0.758549 -0.385137,1.475109 -0.482255,2.230431 -0.04112,0.319771 -0.04216,0.644874 0,0.96451 0.03197,0.242383 0.08856,0.481004 0.120563,0.723383 0.06637,0.502746 0.02757,1.023657 0.180846,1.507048 0.09631,0.303752 0.267132,0.587422 0.30141,0.904228 0.02324,0.214766 -0.01832,0.431359 -0.07469,0.639895 -0.05636,0.208536 -0.127827,0.413484 -0.166438,0.626025 -0.04693,0.258327 -0.04431,0.524877 0,0.783665 0.06997,0.408634 0.241968,0.79534 0.30141,1.205638 0.07212,0.497808 -0.02469,1.004649 0,1.507048 0.0289,0.588103 0.223663,1.159621 0.241127,1.748175 0.006,0.20088 -0.0088,0.402045 0,0.602819 0.01789,0.406262 0.131945,0.801935 0.180846,1.205639 0.08949,0.738781 -0.04061,1.487357 0,2.23043 0.02645,0.484024 0.124306,0.978229 0,1.446766 -0.03491,0.131581 -0.0888,0.261394 -0.180846,0.361691 -0.03844,0.04189 -0.08292,0.07796 -0.120564,0.120564 -0.0727,0.08227 -0.117504,0.186871 -0.137945,0.294741 -0.02044,0.10787 -0.01742,0.219149 -0.0024,0.327905 0.03006,0.217513 0.107293,0.426196 0.140338,0.643274 0.04863,0.319452 1.5e-4,0.644671 -0.04378,0.964804 -0.04393,0.320132 -0.0831,0.648023 -0.0165,0.964217 0.03703,0.175818 0.106215,0.344485 0.131228,0.522411 0.01251,0.08896 0.01369,0.18032 -0.0059,0.267985 -0.01964,0.08767 -0.06097,0.171663 -0.12528,0.234397 -0.02037,0.01987 -0.04302,0.03766 -0.06028,0.06028 -0.01893,0.0248 -0.03065,0.05464 -0.03628,0.08532 -0.0056,0.03068 -0.0053,0.06223 -0.0018,0.09322 0.0071,0.06198 0.02695,0.121761 0.03807,0.183147 0.03054,0.168465 -0.0098,0.351704 -0.120564,0.482255 -0.01841,0.02169 -0.03859,0.04188 -0.06028,0.06028"
     id="path11"
     inkscape:path-effect="#path-effect11"
     inkscape:original-d="m 50.817648,4.3402974 c -0.08037,0.1607517 -0.174379,0.3153839 -0.241127,0.4822552 -0.05433,0.1358235 -0.0587,0.2894112 -0.120564,0.4219734 -0.214075,0.4587324 -0.642871,0.8063189 -0.843947,1.2659201 -0.214551,0.4904024 -0.228363,0.9957255 -0.301409,1.5070477 -0.04751,0.3325832 -0.09568,0.023838 -0.120564,0.4219733 -0.03632,0.581056 0.0638,1.1202102 0.120564,1.6878939 0.01,0.09997 -0.0197,0.20289 0,0.301409 0.02122,0.106108 0.08874,0.197985 0.120564,0.30141 0.09304,0.302394 0.322284,0.950662 0.361691,1.26592 0.04431,0.354464 0.0035,0.80454 0.06028,1.145356 0.06171,0.370279 0.222755,0.718021 0.301409,1.085074 0.09388,0.438118 0.09757,0.889004 0.180846,1.326202 0.189381,0.994251 0.765403,1.872458 0.843947,2.893532 0.03842,0.499496 -0.03333,1.007101 0,1.507048 0.05329,0.799427 0.1705,1.675892 0,2.471558 -0.676362,3.156356 -0.06778,-0.03027 -0.421973,1.386484 -0.02965,0.118577 -0.02812,0.243771 -0.06028,0.361691 -0.02847,0.104397 -0.09432,0.196431 -0.120564,0.30141 -0.143272,0.573087 0.211529,-0.302856 -0.06028,0.421973 -0.262345,0.699587 -0.44024,1.474147 -0.482255,2.230431 -0.01783,0.321008 -0.02291,0.643824 0,0.96451 0.09672,1.354064 0.01659,-0.316351 0.120563,0.723383 0.06778,0.677805 -0.03468,0.644945 0.180846,1.507048 0.07706,0.308227 0.249178,0.590838 0.30141,0.904228 0.07812,0.468709 -0.171055,0.775413 -0.241128,1.26592 -0.03694,0.258597 -0.0324,0.524461 0,0.783665 0.05138,0.411049 0.246661,0.795024 0.30141,1.205638 0.06557,0.491787 -0.04772,1.013904 0,1.507048 0.05666,0.585507 0.192276,1.161965 0.241127,1.748175 0.02009,0.241128 -0.03014,0.341598 0,0.602819 0.04658,0.403697 0.135969,0.801749 0.180846,1.205639 0.07857,0.707146 0,1.522229 0,2.23043 0,0.249033 0.06519,1.283792 0,1.446766 -0.05006,0.125154 -0.106075,0.249536 -0.180846,0.361691 -0.03153,0.04729 -0.106779,0.06543 -0.120564,0.120564 -0.0747,0.298815 0,0.918994 0,1.26592 0,0.704731 -0.06028,1.219998 -0.06028,1.929021 0,0.252067 0.07135,0.810752 0,1.024793 -0.009,0.02696 -0.04757,0.03486 -0.06028,0.06028 -0.04823,0.09645 0.04823,0.26524 0,0.361691 -0.07125,0.142499 -0.07644,0.394012 -0.120564,0.482255 -0.08038,0.160752 -0.06028,-0.180845 -0.06028,0.06028"
     transform="matrix(0.93206535,0,0,0.93206535,1.8930892,2.8050995)" />
  <path
     style="opacity:1;fill:none;fill-opacity:1;stroke:#f7931a;stroke-width:2;stroke-dasharray:none;stroke-opacity:1"
     d="m 42.679591,39.906623 c -0.148375,0.123156 -0.255726,0.294917 -0.30141,0.482255 -0.03841,0.157498 -0.03375,0.323694 0,0.482256 0.05093,0.23929 0.167126,0.462135 0.319877,0.653239 0.152751,0.191103 0.34139,0.351485 0.544488,0.487884 0.406196,0.272798 0.867325,0.450152 1.305784,0.667334 0.454128,0.224943 0.896202,0.502879 1.205638,0.904228 0.248706,0.32258 0.401869,0.71227 0.663101,1.024793 0.137128,0.164052 0.302542,0.304905 0.421974,0.482255 0.106093,0.157543 0.174072,0.341327 0.301409,0.482255 0.113041,0.125107 0.26468,0.207331 0.397735,0.3109 0.06653,0.05178 0.129167,0.109726 0.177687,0.178671 0.04852,0.06894 0.0825,0.149665 0.08768,0.233812 0.0025,0.04012 -0.0016,0.0804 0,0.120564 0.0033,0.0835 0.03103,0.16514 0.07426,0.23665 0.04323,0.07151 0.101564,0.133189 0.166867,0.185324 0.208134,0.166166 0.479663,0.23233 0.745139,0.253625 0.265476,0.02129 0.532827,0.0024 0.798528,0.02064 0.2657,0.01828 0.537859,0.07794 0.751527,0.236932 0.106834,0.07949 0.196839,0.183323 0.252013,0.304519 0.05517,0.121197 0.07427,0.260037 0.04492,0.389925 -0.01402,0.06203 -0.03858,0.121068 -0.06028,0.180845 -0.02979,0.08207 -0.05458,0.167956 -0.05091,0.255187 0.0018,0.04362 0.01094,0.08718 0.0293,0.126782 0.01836,0.03961 0.04619,0.07516 0.08189,0.100287 0.05751,0.04049 0.132904,0.0515 0.201759,0.03714 0.06885,-0.01436 0.131318,-0.05241 0.182057,-0.101125 0.101478,-0.09742 0.155844,-0.232298 0.219003,-0.357994 0.180876,-0.359969 0.454875,-0.671438 0.783665,-0.904228 0.246927,-0.17483 0.529108,-0.310599 0.723383,-0.542537 0.09312,-0.111175 0.162048,-0.240127 0.241127,-0.361692 0.219319,-0.337152 0.517763,-0.618833 0.723383,-0.96451 0.212242,-0.356809 0.323508,-0.777919 0.602819,-1.085075 0.07649,-0.08411 0.163977,-0.157621 0.241128,-0.241127 0.125853,-0.136221 0.223514,-0.298272 0.361691,-0.421974 0.119722,-0.10718 0.26597,-0.181597 0.418117,-0.23329 0.152147,-0.05169 0.31076,-0.08155 0.469311,-0.107674 0.317102,-0.05224 0.647059,-0.09386 0.921029,-0.261855 0.202525,-0.124188 0.361999,-0.312184 0.470301,-0.523631 0.108303,-0.211447 0.167176,-0.445824 0.1928,-0.682007 0.0045,-0.04158 0.008,-0.08337 0.0163,-0.124371 0.0083,-0.041 0.02148,-0.0815 0.04398,-0.116757 0.04268,-0.06687 0.114138,-0.108811 0.182541,-0.148981 0.0342,-0.02009 0.06841,-0.04042 0.09964,-0.06487 0.03123,-0.02445 0.05956,-0.05327 0.07951,-0.08755 0.02289,-0.03934 0.03392,-0.08423 0.04892,-0.127197 0.01501,-0.04297 0.03554,-0.08621 0.07164,-0.113931 0.02955,-0.02269 0.06655,-0.03274 0.100729,-0.04756 0.01709,-0.0074 0.03376,-0.01619 0.04807,-0.02811 0.01431,-0.01193 0.02622,-0.0272 0.03204,-0.04489 0.0063,-0.01921 0.0052,-0.04001 0.003,-0.06012 -0.0022,-0.0201 -0.0054,-0.04036 -0.003,-0.06045 0.0026,-0.02188 0.01182,-0.04266 0.02461,-0.0606 0.01279,-0.01794 0.02907,-0.03317 0.04657,-0.04655 0.035,-0.02677 0.07501,-0.04648 0.109668,-0.07369 0.07302,-0.05735 0.118499,-0.148302 0.120564,-0.241128"
     id="path12"
     inkscape:path-effect="#path-effect12"
     inkscape:original-d="m 42.679591,39.906623 c -0.271874,0.203906 -0.27366,0.121504 -0.30141,0.482255 -0.01233,0.160279 -0.04795,0.328821 0,0.482256 0.260336,0.833073 1.57592,1.392496 2.170149,1.808457 0.411541,0.288078 0.83651,0.563495 1.205638,0.904228 0.120826,0.111532 0.548284,0.871703 0.663101,1.024793 0.128161,0.170881 0.293812,0.311374 0.421974,0.482255 0.113739,0.151653 0.184291,0.333196 0.301409,0.482255 0.195181,0.248413 0.485035,0.456284 0.663101,0.723383 0.02229,0.03344 -0.0097,0.08158 0,0.120564 0.04129,0.165167 0.134705,0.288945 0.241128,0.421974 0.569175,0.711468 1.799249,0.85325 2.592122,1.205638 0.06571,0.02921 -0.05962,0.178857 -0.06028,0.180845 -0.03353,0.100595 0.01744,0.439415 0.06028,0.482256 0.10518,0.10518 0.535858,-0.368405 0.602819,-0.421974 0.366472,-0.293177 0.46375,-0.548767 0.783665,-0.904228 0.681244,-0.756938 -0.365704,0.455791 0.723383,-0.542537 0.106813,-0.09791 0.154187,-0.245772 0.241127,-0.361692 0.248568,-0.331424 0.522035,-0.602084 0.723383,-0.96451 0.191473,-0.344652 0.343727,-0.7828 0.602819,-1.085075 0.07397,-0.0863 0.167153,-0.154824 0.241128,-0.241127 0.201222,-0.234759 0.04171,-0.193416 0.361691,-0.421974 0.45516,-0.325114 1.247252,-0.111764 1.808457,-0.602819 0.113054,-0.09892 0.599413,-1.062339 0.663101,-1.205638 0.03365,-0.07571 0.02951,-0.164204 0.06028,-0.241128 0.05384,-0.134604 0.271411,-0.211128 0.361692,-0.301409 0.06354,-0.06354 0.07072,-0.166357 0.120564,-0.241128 0.02434,-0.0365 0.179584,-0.118041 0.180845,-0.120564 0.01797,-0.03595 -0.01271,-0.08244 0,-0.120563 0.02696,-0.08088 0.129695,-0.112645 0.180846,-0.180846 0.05392,-0.07189 0.08038,-0.160752 0.120564,-0.241128"
     transform="matrix(0.93206535,0,0,0.93206535,1.8930892,2.8050995)" />
  <path
     style="opacity:1;fill:none;fill-opacity:1;stroke:#95aabf;stroke-width:2;stroke-dasharray:none;stroke-opacity:1"
     d="M 19.531338,21.942615 Z"
     id="path13"
     inkscape:path-effect="#path-effect14"
     inkscape:original-d="m 19.531338,21.942615 c 0.241128,0.321503 0.241128,0.321503 0,0 z" />
  <path
     style="opacity:1;fill:none;fill-opacity:1;stroke:#1c3c55;stroke-width:2;stroke-dasharray:none;stroke-opacity:1"
     d="m 19.651902,21.400077 c -0.08163,0.335427 -0.249178,0.649572 -0.482255,0.904229 -0.02325,0.0254 -0.04754,0.05081 -0.062,0.08206 -0.0072,0.01562 -0.01186,0.03261 -0.01205,0.04982 -1.95e-4,0.01721 0.0042,0.03466 0.01377,0.04897 0.0091,0.01359 0.02252,0.02392 0.03726,0.031 0.01473,0.0071 0.03078,0.01107 0.04692,0.01369 0.03228,0.0052 0.06566,0.0052 0.09667,0.01559 0.04105,0.01373 0.07422,0.04451 0.101621,0.07802 0.0274,0.03351 0.05042,0.07052 0.07922,0.102829 0.05493,0.0616 0.130236,0.104167 0.210802,0.122071 0.08057,0.0179 0.166013,0.01145 0.243908,-0.01582 0.0779,-0.02727 0.148177,-0.07502 0.204256,-0.135571 0.05608,-0.06055 0.09807,-0.133691 0.124699,-0.211807 0.05268,-0.15451 0.04458,-0.32522 0,-0.482256 -0.03703,-0.130429 -0.09872,-0.25381 -0.180846,-0.361691"
     id="path14"
     inkscape:path-effect="#path-effect15"
     inkscape:original-d="m 19.651902,21.400077 c -0.160752,0.30141 -0.322426,0.602329 -0.482255,0.904229 -0.01075,0.02031 -0.08645,0.128506 -0.06028,0.180846 0.05814,0.116289 0.102028,0.02087 0.180846,0.06028 0.07625,0.03813 0.107743,0.136984 0.180845,0.180845 0.321996,0.193198 0.625764,-0.0043 0.783665,-0.241127 0.0472,-0.0708 0,-0.404372 0,-0.482256 0,-0.215984 0.007,-0.267745 -0.180846,-0.361691" />
  <path
     style="opacity:1;fill:none;fill-opacity:1;stroke:#1c3c55;stroke-width:2;stroke-dasharray:none;stroke-opacity:1"
     d="m 16.276115,26.343194 c -0.296337,0.08272 -0.598871,0.143226 -0.904228,0.180846 -0.02006,0.0025 -0.04065,0.0048 -0.06028,0 -0.02739,-0.0067 -0.05017,-0.02722 -0.06358,-0.05203 -0.01341,-0.0248 -0.01818,-0.05355 -0.01795,-0.08175 4.56e-4,-0.05639 0.01992,-0.111257 0.02125,-0.167637 7.15e-4,-0.03031 -0.0038,-0.06046 -0.0063,-0.09068 -0.0024,-0.03022 -0.0027,-0.06121 0.0063,-0.09017 0.01047,-0.03377 0.03341,-0.06314 0.06239,-0.08339 0.02898,-0.02025 0.06375,-0.03158 0.09898,-0.0346 0.07045,-0.006 0.140242,0.02044 0.200326,0.05772 0.05017,0.03113 0.09521,0.06976 0.143231,0.104113 0.04802,0.03435 0.100327,0.06493 0.158179,0.07673 0.02326,0.0047 0.04727,0.0064 0.06968,0.01425 0.01121,0.0039 0.02197,0.0094 0.03103,0.01705 0.0091,0.0077 0.01635,0.01764 0.01985,0.02898 0.003,0.0097 0.0032,0.01997 0.0025,0.03006 -6.77e-4,0.01009 -0.0022,0.02012 -0.0025,0.03022 -8.73e-4,0.02874 0.0084,0.05768 0.0257,0.08061 0.01735,0.02293 0.04269,0.03968 0.07058,0.04665 0.02789,0.007 0.05814,0.0041 0.08423,-0.0079 0.0261,-0.01207 0.04786,-0.03326 0.06061,-0.05903 z"
     id="path16"
     inkscape:path-effect="#path-effect17"
     inkscape:original-d="m 16.276115,26.343194 c -0.278073,0.177703 -0.600682,0.332619 -0.904228,0.180846 -0.01797,-0.009 -0.04607,0.01421 -0.06028,0 -0.08724,-0.08724 -0.06028,-0.192679 -0.06028,-0.30141 0,-0.06028 -0.04263,-0.13822 0,-0.180846 0.03091,-0.03091 0.299719,-0.06028 0.361691,-0.06028 0.220585,0 0.169482,0.04892 0.30141,0.180846 0.03177,0.03177 0.08879,0.02851 0.120564,0.06028 0.01421,0.01421 -0.01797,0.0513 0,0.06028 0.0741,0.03705 0.160751,0.04019 0.241127,0.06028 z" />
  <metadata
     id="metadata17">
    <rdf:RDF>
      <cc:Work
         rdf:about="">
        <dc:title>low processing</dc:title>
      </cc:Work>
    </rdf:RDF>
  </metadata>
</svg>
