<?xml version="1.0" encoding="UTF-8" standalone="no"?>
<svg
   width="60"
   height="50"
   viewBox="0 0 60 50"
   version="1.1"
   id="svg5"
   sodipodi:docname="main_ico_instant.svg"
   inkscape:version="1.3.2 (091e20e, 2023-11-25, custom)"
   xmlns:inkscape="http://www.inkscape.org/namespaces/inkscape"
   xmlns:sodipodi="http://sodipodi.sourceforge.net/DTD/sodipodi-0.dtd"
   xmlns="http://www.w3.org/2000/svg"
   xmlns:svg="http://www.w3.org/2000/svg"
   xmlns:rdf="http://www.w3.org/1999/02/22-rdf-syntax-ns#"
   xmlns:cc="http://creativecommons.org/ns#"
   xmlns:dc="http://purl.org/dc/elements/1.1/">
  <sodipodi:namedview
     id="namedview5"
     pagecolor="#ffffff"
     bordercolor="#000000"
     borderopacity="0.25"
     inkscape:showpageshadow="2"
     inkscape:pageopacity="0.0"
     inkscape:pagecheckerboard="0"
     inkscape:deskcolor="#d1d1d1"
     showgrid="false"
     inkscape:zoom="23.46"
     inkscape:cx="30.008525"
     inkscape:cy="25"
     inkscape:window-width="2560"
     inkscape:window-height="1369"
     inkscape:window-x="-8"
     inkscape:window-y="-8"
     inkscape:window-maximized="1"
     inkscape:current-layer="svg5" />
  <title
     id="title1">fastP2p</title>
  <desc
     id="desc1">Created using Figma</desc>
  <defs
     id="defs5">
    <inkscape:path-effect
       effect="spiro"
       id="path-effect10"
       is_visible="true"
       lpeversion="1" />
    <inkscape:path-effect
       effect="spiro"
       id="path-effect9"
       is_visible="true"
       lpeversion="1" />
    <inkscape:path-effect
       effect="spiro"
       id="path-effect8"
       is_visible="true"
       lpeversion="1" />
    <inkscape:path-effect
       effect="spiro"
       id="path-effect7"
       is_visible="true"
       lpeversion="1" />
    <inkscape:path-effect
       effect="spiro"
       id="path-effect6"
       is_visible="true"
       lpeversion="1" />
    <inkscape:path-effect
       effect="spiro"
       id="path-effect5"
       is_visible="true"
       lpeversion="1" />
    <path
       id="path0_fill"
       fill-rule="evenodd"
       d="M 0 4.875L 0 3.80859L 20.6016 3.80859L 17.5801 0.761719L 18.3418 0L 22.6836 4.3418L 18.3418 8.68359L 17.5547 7.92188L 20.6016 4.875L 0 4.875Z" />
    <path
       id="path1_fill"
       fill-rule="evenodd"
       d="M 0 4.875L 0 3.80859L 14.6016 3.80859L 11.5801 0.761719L 12.3418 0L 16.6836 4.3418L 12.3418 8.68359L 11.5547 7.92188L 14.6016 4.875L 0 4.875Z" />
    <path
       id="path2_fill"
       fill-rule="evenodd"
       d="M 22.6836 4.875L 2.08203 4.875L 5.12891 7.92188L 4.3418 8.68359L 0 4.3418L 4.3418 0L 5.10352 0.761719L 2.08203 3.80859L 22.6836 3.80859L 22.6836 4.875Z" />
  </defs>
  <path
     style="opacity:1;fill:none;fill-opacity:1;stroke:#f7931a;stroke-width:2;stroke-dasharray:none;stroke-opacity:1"
     d="m 7.1184996,10.187553 c 0.0992,-0.0088 0.1991806,-0.0088 0.2983802,0 0.1862053,0.01654 0.3684179,0.06391 0.5541347,0.08525 0.367319,0.04221 0.7389806,-0.01818 1.1082694,0 0.1714087,0.0084 0.3415934,0.03377 0.5128856,0.04431 0.1712921,0.01054 0.3460112,0.0058 0.5101325,-0.04431 0.197011,-0.06021 0.368662,-0.182616 0.529101,-0.3118386 0.160439,-0.1292227 0.314934,-0.2681727 0.493917,-0.3701736 0.271398,-0.1546671 0.585236,-0.2165364 0.89514,-0.2557544 0.3679,-0.046557 0.743043,-0.064244 1.10827,0 0.142725,0.025106 0.283126,0.06258 0.426257,0.085252 0.40761,0.064566 0.824947,0.00756 1.236147,0.042626 0.242406,0.020673 0.481647,0.073278 0.724638,0.085252 0.441103,0.021736 0.889125,-0.090466 1.321398,0 0.128322,0.026855 0.25327,0.071338 0.383631,0.085252 0.113115,0.012073 0.227251,7.943e-4 0.341006,0 0.329977,-0.0023 0.653417,0.083412 0.980392,0.1278772 0.803425,0.1092573 1.622217,-0.031211 2.429668,0.042626 0.458397,0.041918 0.907732,0.152441 1.364024,0.2131284 0.283115,0.03766 0.568403,0.05606 0.852515,0.08525 0.384,0.03946 0.765982,0.09864 1.150895,0.127877 0.453719,0.03446 0.909809,0.02715 1.364024,0 0.568264,-0.03397 1.135917,-0.09896 1.70503,-0.08525 0.298624,0.0072 0.598606,0.036 0.89514,0 0.171624,-0.02084 0.340038,-0.06319 0.511509,-0.08525 0.141646,-0.01822 0.284868,-0.02252 0.426258,-0.04263 0.27664,-0.039345 0.540686,-0.138245 0.809889,-0.2131284 0.937372,-0.2607463 1.930801,-0.2284479 2.898551,-0.1278773 0.539042,0.056018 1.077855,0.1326657 1.619778,0.1278773 0.227434,-0.00201 0.455312,-0.018364 0.682012,0 0.303,0.024545 0.597132,0.1104863 0.895141,0.170503 0.574313,0.1156624 1.16289,0.1349654 1.747655,0.1705034 0.795515,0.04835 1.590059,0.127392 2.387042,0.127877 0.341403,2.08e-4 0.682815,-0.01402 1.023018,-0.04263"
     id="path5"
     inkscape:path-effect="#path-effect5"
     inkscape:original-d="m 7.1184996,10.187553 c 0.09946,0 0.1992637,-0.0083 0.2983802,0 0.8228181,0.06857 -0.645158,0.02814 0.5541347,0.08525 0.369005,0.01757 0.7388463,0 1.1082694,0 0.341006,0 0.6866517,0.05606 1.0230181,0 0.540175,-0.09003 0.648037,-0.5043895 1.023018,-0.6820122 0.32227,-0.1526542 0.563224,-0.2280947 0.89514,-0.2557544 0.352731,-0.029394 0.756067,-0.037074 1.10827,0 0.144103,0.015169 0.282154,0.070083 0.426257,0.085252 0.409075,0.04306 0.825635,0.015258 1.236147,0.042626 0.571097,0.038073 0.112116,0.053013 0.724638,0.085252 0.43291,0.022785 0.891147,-0.053781 1.321398,0 0.129985,0.016248 0.253532,0.069946 0.383631,0.085252 0.11289,0.013281 0.227589,-0.00756 0.341006,0 0.327563,0.021838 0.652004,0.1105936 0.980392,0.1278772 0.807448,0.042497 1.622833,-0.0022 2.429668,0.042626 0.551585,0.030644 0.710311,0.1140812 1.364024,0.2131284 0.282366,0.04278 0.568673,0.05371 0.852515,0.08525 0.378325,0.04204 0.770562,0.115992 1.150895,0.127877 0.454453,0.0142 0.909349,0 1.364024,0 0.571297,0 1.135931,-0.06628 1.70503,-0.08525 0.298214,-0.0099 0.597307,0.01805 0.89514,0 0.172539,-0.01046 0.340239,-0.0619 0.511509,-0.08525 0.141485,-0.01929 0.285406,-0.01915 0.426258,-0.04263 0.285716,-0.047619 0.522036,-0.1852717 0.809889,-0.2131284 0.959734,-0.092878 1.93347,-0.1761313 2.898551,-0.1278773 0.540716,0.027036 1.078167,0.1053101 1.619778,0.1278773 0.22714,0.00946 0.455178,-0.015122 0.682012,0 0.440953,0.029397 0.375268,0.077668 0.895141,0.170503 0.622037,0.1110784 1.08777,0.1086384 1.747655,0.1705034 0.788839,0.07395 1.591448,0.286996 2.387042,0.127877 0.314239,-0.06285 0.677699,0.02644 1.023018,-0.04263"
     transform="translate(-0.72463768)" />
  <path
     style="opacity:1;fill:none;fill-opacity:1;stroke:#f7931a;stroke-width:2;stroke-dasharray:none;stroke-opacity:1"
     d="m 32.523444,2.685422 c 0.262149,0.33126 0.491007,0.688851 0.682012,1.0656436 0.06621,0.1306165 0.128315,0.2642529 0.213129,0.3836318 0.09917,0.139589 0.226794,0.256055 0.341006,0.3836317 0.208857,0.233296 0.373754,0.5048275 0.59676,0.7246377 0.22514,0.2219129 0.501325,0.383227 0.767264,0.5541346 0.828288,0.5323045 1.607771,1.1897747 2.557544,1.4492754 0.08686,0.023732 0.175571,0.044288 0.255755,0.085252 0.102322,0.052274 0.188564,0.1366946 0.29838,0.170503 0.05655,0.017409 0.116344,0.020344 0.174987,0.028207 0.05864,0.00786 0.11861,0.021644 0.166019,0.057045 0.01616,0.012065 0.03056,0.02647 0.04263,0.042626 0.01137,0.024418 0.02957,0.045616 0.05198,0.060558 0.02241,0.014942 0.04898,0.023586 0.07589,0.024694 0.03202,0.00132 0.06378,-0.00777 0.0958,-0.00644 0.01601,6.667e-4 0.03218,0.00407 0.046,0.01217 0.01382,0.0081 0.0251,0.021285 0.0287,0.036896 0.0032,0.013895 2.62e-4,0.028369 0,0.042626 -6.83e-4,0.037107 0.01716,0.072643 0.04171,0.1004818 0.02454,0.027839 0.05551,0.049111 0.08617,0.070021 0.217614,0.1484021 0.442163,0.2982514 0.596761,0.5115089 0.04175,0.057588 0.07821,0.119591 0.127877,0.170503 0.04253,0.043586 0.09353,0.077786 0.140686,0.1163103 0.04716,0.038524 0.09177,0.083182 0.115068,0.1394442 0.01722,0.041577 0.02207,0.087848 0.04263,0.1278772 0.01847,0.035965 0.04847,0.064588 0.07954,0.09046 0.03107,0.025872 0.06398,0.049927 0.09096,0.080043 0.05541,0.061849 0.08157,0.1442048 0.127877,0.2131288 0.06204,0.09233 0.158896,0.1586354 0.213129,0.2557544 0.02338,0.041876 0.03793,0.087973 0.05542,0.1326365 0.01748,0.044663 0.03867,0.089085 0.07246,0.123118 0.0215,0.021649 0.04737,0.038348 0.07112,0.057496 0.02375,0.019148 0.0461,0.041792 0.05676,0.070381 0.0076,0.0204 0.0088,0.04299 0.0044,0.06432 -0.0044,0.02133 -0.0142,0.04139 -0.02748,0.05865 -0.02655,0.03452 -0.06606,0.05717 -0.107278,0.07121 -0.08244,0.02809 -0.174193,0.02506 -0.253263,0.06158 -0.06937,0.03203 -0.122138,0.09153 -0.166192,0.153956 -0.04405,0.06243 -0.08176,0.129653 -0.132188,0.187049 -0.05667,0.06449 -0.127564,0.114503 -0.196466,0.165712 -0.0689,0.05121 -0.137502,0.105269 -0.187166,0.175294 -0.04798,0.06766 -0.0766,0.147935 -0.127877,0.213129 -0.05652,0.07186 -0.136561,0.120546 -0.213129,0.170503 -0.270854,0.176721 -0.519991,0.388963 -0.724638,0.639386 -0.134186,0.164201 -0.252324,0.347579 -0.426257,0.468884 -0.03758,0.02621 -0.07734,0.04917 -0.114737,0.07564 -0.03739,0.02646 -0.07279,0.05688 -0.09839,0.09486 -0.03557,0.05277 -0.0504,0.117255 -0.08525,0.170503 -0.0392,0.0599 -0.100732,0.101205 -0.162584,0.137243 -0.06185,0.03604 -0.126603,0.06912 -0.178422,0.118511 -0.05327,0.05077 -0.09012,0.116273 -0.12101,0.18307 -0.03089,0.0668 -0.05669,0.136056 -0.09212,0.200562 -0.03431,0.06248 -0.07751,0.12007 -0.127877,0.170503 -0.05157,0.01022 -0.09861,0.04158 -0.127878,0.08525 -0.01775,0.02648 -0.02891,0.05671 -0.04063,0.08636 -0.01172,0.02965 -0.02442,0.05948 -0.04462,0.08414 -0.03273,0.03996 -0.08156,0.06238 -0.127877,0.08525 -0.442293,0.218432 -0.795568,0.588021 -1.236147,0.809889 -0.290168,0.146123 -0.611763,0.224742 -0.895141,0.383632 -0.212251,0.11901 -0.399009,0.281399 -0.554134,0.468883 -0.04531,0.05476 -0.088,0.111677 -0.127877,0.170503 -0.0278,0.07864 -0.07157,0.151596 -0.127878,0.213128 -0.05792,0.06329 -0.1281,0.113826 -0.196436,0.165694 -0.06834,0.05187 -0.136153,0.106357 -0.187195,0.175312 -0.09042,0.122149 -0.119997,0.277492 -0.147679,0.426921 -0.02768,0.149429 -0.05851,0.304779 -0.150702,0.425594 -0.05538,0.07258 -0.131542,0.130562 -0.170503,0.213129 -0.0136,0.02883 -0.02257,0.06048 -0.04263,0.08525 -0.02025,0.025 -0.04991,0.04051 -0.07998,0.05194 -0.03007,0.01143 -0.06145,0.01952 -0.09052,0.03331 -0.07334,0.03478 -0.125104,0.102076 -0.172929,0.167664 -0.04783,0.06559 -0.09703,0.134091 -0.168077,0.173342 -0.04819,0.02662 -0.103358,0.03787 -0.158073,0.04396 -0.05472,0.0061 -0.109963,0.0074 -0.164365,0.01582 -0.0544,0.0084 -0.108865,0.02462 -0.153211,0.05724 -0.02217,0.01631 -0.04155,0.03665 -0.05552,0.06037 -0.01397,0.02371 -0.02243,0.05086 -0.02296,0.07838 -2.73e-4,0.01427 0.0016,0.02848 0.0025,0.04271 9.79e-4,0.01424 0.0011,0.02874 -0.0025,0.04254 -0.0068,0.02576 -0.02714,0.04751 -0.0524,0.05593 -0.02526,0.0084 -0.05462,0.0032 -0.07548,-0.0133"
     id="path6"
     inkscape:path-effect="#path-effect6"
     inkscape:original-d="m 32.523444,2.685422 c 0.261026,0.3339324 0.461172,0.7042694 0.682012,1.0656436 0.07628,0.1248235 0.12748,0.2650405 0.213129,0.3836318 0.100174,0.1387023 0.230489,0.2530209 0.341006,0.3836317 0.202123,0.2388724 0.36848,0.5106246 0.59676,0.7246377 0.230156,0.2157709 0.50621,0.3769912 0.767264,0.5541346 0.801915,0.5441567 1.670819,1.0551751 2.557544,1.4492754 0.08212,0.036497 0.173158,0.049853 0.255755,0.085252 0.105291,0.045125 0.191121,0.1302807 0.29838,0.170503 0.194553,0.072957 0.183241,0.00637 0.341006,0.085252 0.01797,0.00899 0.02842,0.028417 0.04263,0.042626 0.04263,0.028417 0.08079,0.065071 0.127877,0.085252 0.05385,0.023077 0.118104,0.016426 0.170503,0.042626 0.01271,0.00635 -0.0064,0.029917 0,0.042626 0.02001,0.040029 0.102692,0.1369227 0.127877,0.170503 0.158007,0.210675 0.39298,0.3586736 0.596761,0.5115089 0.184143,0.1381078 0.0069,0.025281 0.127877,0.170503 0.07718,0.09262 0.193725,0.1523719 0.255754,0.2557545 0.02312,0.038528 0.01651,0.091315 0.04263,0.1278772 0.04672,0.065405 0.121157,0.1070581 0.170503,0.170503 0.05087,0.065397 0.07915,0.1461253 0.127877,0.2131288 0.06527,0.089747 0.146546,0.1669764 0.213129,0.2557544 0.191816,0.2557545 -0.213129,-0.170503 0.127877,0.2557545 0.129907,0.1623839 0.05481,-0.091341 0.127878,0.1278769 0.02263,0.06788 -0.328687,0.222787 -0.383632,0.255755 -0.11468,0.06881 -0.203833,0.246458 -0.29838,0.341005 -0.120982,0.120982 -0.269963,0.213129 -0.383632,0.341006 -0.05504,0.06192 -0.07283,0.151207 -0.127877,0.213129 -0.06044,0.068 -0.14466,0.110593 -0.213129,0.170503 -0.242428,0.212125 -0.496857,0.411605 -0.724638,0.639386 -0.510263,0.510264 0.07612,0.01674 -0.426257,0.468884 -0.06762,0.06086 -0.153219,0.102034 -0.213129,0.170503 -0.04184,0.04782 -0.0439,0.122257 -0.08525,0.170503 -0.09247,0.107879 -0.248538,0.147874 -0.341006,0.255754 -0.0952,0.111069 -0.131984,0.261914 -0.213129,0.383632 -0.04263,0.05683 -0.08525,0.113668 -0.127877,0.170503 -0.04263,0.02842 -0.09508,0.04589 -0.127878,0.08525 -0.04068,0.04881 -0.04457,0.121688 -0.08525,0.170503 -0.0328,0.03936 -0.08787,0.05325 -0.127877,0.08525 -0.395551,0.31644 -0.775013,0.597058 -1.236147,0.809889 -0.300276,0.138589 -0.616482,0.197859 -0.895141,0.383632 -0.20266,0.135107 -0.393038,0.284773 -0.554134,0.468883 -0.04678,0.05346 -0.08525,0.113668 -0.127877,0.170503 -0.04263,0.07104 -0.07396,0.150224 -0.127878,0.213128 -0.104274,0.121654 -0.300284,0.190981 -0.383631,0.341006 -0.142876,0.257177 -0.168481,0.592716 -0.298381,0.852515 -0.04069,0.08137 -0.117622,0.139096 -0.170503,0.213129 -0.01847,0.02585 -0.02016,0.06279 -0.04263,0.08525 -0.04493,0.04493 -0.119669,0.04712 -0.170503,0.08525 -0.124968,0.09373 -0.208822,0.258391 -0.341006,0.341006 -0.02478,0.01548 -0.523662,0.210045 -0.554135,0.255755 -0.01576,0.02364 0.01271,0.05983 0,0.08525 -0.0285,0.057 -0.127877,-0.07228 -0.127877,0.04263"
     transform="translate(-0.72463768)" />
  <path
     style="opacity:1;fill:none;fill-opacity:1;stroke:#95aabf;stroke-width:2;stroke-dasharray:none;stroke-opacity:1"
     d="m 13.554987,26.427962 c 0.19826,0.02201 0.397385,0.03624 0.596761,0.04263 0.998902,0.03202 1.992034,-0.132354 2.983802,-0.255754 0.905078,-0.112613 1.822183,-0.19134 2.728048,-0.08525 0.903039,0.105759 1.779342,0.393491 2.685422,0.468883 0.255279,0.02124 0.511676,0.02549 0.767263,0.04263 0.812917,0.05451 1.615093,0.239189 2.429668,0.255755 0.269924,0.0055 0.540015,-0.0075 0.809889,0 0.270249,0.0075 0.539623,0.0357 0.809889,0.04263 0.498217,0.01277 0.995021,-0.0466 1.491901,-0.08525 0.7969,-0.06199 1.600452,-0.07111 2.387042,-0.213129 0.713561,-0.128834 1.40867,-0.36632 2.131287,-0.426257 0.822134,-0.06819 1.652946,0.09605 2.472293,0 0.213587,-0.02504 0.425057,-0.06766 0.639387,-0.08525 0.255039,-0.02092 0.511442,-0.0062 0.767263,0 0.866703,0.02099 1.733319,-0.05617 2.60017,-0.04262 0.696778,0.01089 1.391816,0.08038 2.088662,0.08525 0.270563,0.0019 0.541808,-0.006 0.809889,-0.04263 0.386677,-0.05281 0.763621,-0.164883 1.150895,-0.213128 0.578676,-0.07209 1.164507,-1.2e-4 1.747656,0 0.369572,7.6e-5 0.739816,-0.02874 1.108269,0 0.342702,0.02674 0.680174,0.10303 1.023018,0.127877 0.241425,0.0175 0.484867,0.0094 0.724638,0.04263 0.185241,0.02565 0.367365,0.07582 0.554135,0.08525 0.107262,0.0054 0.214714,-0.0027 0.322112,-0.0027 0.107399,-3.2e-5 0.216444,0.0084 0.317274,0.04536 0.163711,0.06004 0.290617,0.188798 0.426257,0.29838 0.400044,0.323192 0.902827,0.493559 1.40665,0.59676 0.644473,0.132011 1.31413,0.163507 1.960784,0.04263 0.340463,-0.06364 0.67666,-0.169383 1.023018,-0.170503 0.149844,-4.84e-4 0.298969,0.01872 0.448498,0.02843 0.14953,0.0097 0.301724,0.0097 0.446643,-0.02843 0.08693,-0.02286 0.169776,-0.05903 0.255754,-0.08525 0.356103,-0.108585 0.738227,-0.04084 1.10827,0 0.452543,0.04995 0.908995,0.05812 1.364023,0.04263 0.229571,-0.0078 0.461188,-0.022 0.682012,-0.08525 0.04321,-0.01238 0.08589,-0.0266 0.127878,-0.04263"
     id="path7"
     inkscape:path-effect="#path-effect7"
     inkscape:original-d="m 13.554987,26.427962 c 0.19892,0.01421 0.397334,0.04263 0.596761,0.04263 0.999049,0 1.990757,-0.180807 2.983802,-0.255754 0.896072,-0.06763 1.828452,-0.113364 2.728048,-0.08525 0.922231,0.02882 1.773721,0.358374 2.685422,0.468883 0.254287,0.03082 0.511999,0.02135 0.767263,0.04263 0.810023,0.0675 1.617534,0.214107 2.429668,0.255755 0.269608,0.01383 0.540019,-0.0071 0.809889,0 0.270243,0.0071 0.539552,0.04263 0.809889,0.04263 0.06105,0 1.406874,-0.08053 1.491901,-0.08525 0.856583,-0.04759 1.572842,-0.03035 2.387042,-0.213129 0.85166,-0.191189 1.320386,-0.393821 2.131287,-0.426257 0.820998,-0.03284 1.652946,0.05852 2.472293,0 0.214469,-0.01532 0.424765,-0.07224 0.639387,-0.08525 0.255286,-0.01547 0.511613,0.0073 0.767263,0 0.863946,-0.02468 1.73483,-0.08383 2.60017,-0.04262 1.178277,0.05611 1.110834,0.111679 2.088662,0.08525 0.270238,-0.0073 0.541404,-0.01104 0.809889,-0.04263 0.533514,-0.06277 0.643992,-0.170887 1.150895,-0.213128 0.58054,-0.04838 1.165104,0 1.747656,0 0.366198,0 0.742141,-0.01927 1.108269,0 1.108331,0.05833 -0.08619,0.01313 1.023018,0.127877 0.240679,0.0249 0.483875,0.01855 0.724638,0.04263 0.185957,0.01859 0.367952,0.06906 0.554135,0.08525 0.07969,0.0069 0.50059,-0.0314 0.639386,0.04263 0.153033,0.08162 0.278789,0.20709 0.426257,0.29838 0.439433,0.27203 0.892041,0.519569 1.40665,0.59676 0.579402,0.08691 1.36812,0.07555 1.960784,0.04263 0.347868,-0.01933 0.677637,-0.145833 1.023018,-0.170503 0.289287,-0.02066 0.608877,0.04771 0.895141,0 0.08864,-0.01477 0.167636,-0.06763 0.255754,-0.08525 0.218987,-0.0438 0.861311,-0.01544 1.10827,0 0.04754,0.003 1.249639,0.09982 1.364023,0.04263 0.194914,-0.09746 0.46138,-0.04113 0.682012,-0.08525 0.2449,-0.04898 -0.01223,-0.04263 0.127878,-0.04263"
     transform="translate(-0.72463768)" />
  <path
     style="opacity:1;fill:none;fill-opacity:1;stroke:#95aabf;stroke-width:2;stroke-dasharray:none;stroke-opacity:1"
     d="m 49.872123,18.158568 c 0.06038,0.02044 0.117923,0.04922 0.170503,0.08525 0.115139,0.07891 0.20419,0.190833 0.276483,0.310235 0.07229,0.119402 0.1293,0.247272 0.1924,0.371777 0.495377,0.977445 1.388943,1.7456 2.429667,2.088662 0.692731,0.190666 1.340182,0.543821 1.875533,1.023018 0.261512,0.234082 0.49582,0.496881 0.752177,0.736597 0.256358,0.239716 0.539906,0.45911 0.867602,0.584801 0.316511,0.121401 0.663029,0.151188 0.976691,0.279771 0.156831,0.06429 0.305729,0.154565 0.418302,0.281279 0.112574,0.126714 0.186394,0.292524 0.182159,0.461968 -3.55e-4,0.01421 -0.0012,0.02846 0,0.04262 0.0025,0.02832 0.01354,0.05546 0.02905,0.07929 0.01551,0.02382 0.0354,0.04453 0.05661,0.06346 0.04243,0.03786 0.09088,0.06948 0.127464,0.113008 0.03502,0.04167 0.05753,0.09238 0.07552,0.143748 0.01799,0.05137 0.03195,0.104172 0.05236,0.154632 0.04682,0.115786 0.125732,0.215138 0.200906,0.314874 0.07517,0.09974 0.148939,0.204276 0.182726,0.324512 0.01961,0.06978 0.0251,0.142799 0.04263,0.213129 0.03646,0.146304 0.123222,0.274777 0.216829,0.392979 0.09361,0.118203 0.196189,0.230413 0.272528,0.360437 0.07634,0.130025 0.125414,0.283102 0.09953,0.431643 -0.01294,0.07427 -0.04493,0.14582 -0.09554,0.201702 -0.0506,0.05588 -0.120226,0.09533 -0.194974,0.10514 -0.05641,0.0074 -0.113637,-0.0018 -0.170503,0 -0.07448,0.0024 -0.147114,0.02353 -0.217029,0.0493 -0.06991,0.02577 -0.13812,0.05631 -0.209229,0.07857 -0.138377,0.04333 -0.284571,0.05442 -0.426257,0.08525 -0.374898,0.08158 -0.704651,0.29739 -1.023018,0.511509 -0.228929,0.153967 -0.456999,0.309248 -0.682012,0.468883 -0.257307,0.182546 -0.510558,0.370745 -0.767263,0.554135 -0.59206,0.422968 -1.206401,0.822437 -1.875533,1.108269 -0.816233,0.348669 -1.720069,0.532469 -2.429668,1.065644 -0.107705,0.08093 -0.213039,0.171008 -0.341006,0.213129 -0.05567,0.01832 -0.114036,0.02695 -0.170503,0.04263 -0.221673,0.06156 -0.397758,0.225564 -0.59676,0.341006 -0.109955,0.06378 -0.227636,0.113006 -0.341006,0.170503 -0.173335,0.08791 -0.338517,0.196862 -0.468883,0.341006 -0.115087,0.127251 -0.203076,0.281587 -0.341006,0.383632 -0.127946,0.09466 -0.2873,0.135533 -0.426258,0.213129 -0.09745,0.05442 -0.184658,0.127091 -0.255754,0.213128 -0.08137,0.02092 -0.15638,0.06593 -0.213129,0.127878 -0.06158,0.06722 -0.101744,0.153267 -0.170503,0.213128 -0.05812,0.0506 -0.132329,0.07857 -0.206291,0.100203 -0.07396,0.02164 -0.149932,0.03815 -0.219966,0.0703 -0.11138,0.05113 -0.201127,0.138551 -0.29838,0.213129 -0.15219,0.116706 -0.32683,0.204027 -0.511509,0.255755"
     id="path8"
     inkscape:path-effect="#path-effect8"
     inkscape:original-d="m 49.872123,18.158568 c 0.05683,0.02842 0.125571,0.04032 0.170503,0.08525 0.195077,0.195077 0.29318,0.469319 0.468883,0.682012 0.689272,0.834382 1.511531,1.520291 2.429667,2.088662 0.560243,0.459574 1.263203,0.659447 1.875533,1.023018 0.602313,0.357623 1.047697,0.925341 1.619779,1.321398 0.513956,0.355816 1.102454,0.607657 1.577152,1.023018 0.01069,0.0094 -0.0064,0.02992 0,0.04262 0.08605,0.1721 0.08743,0.09864 0.213129,0.255755 0.06366,0.07957 0.07068,0.222123 0.127877,0.29838 0.307632,0.410176 -0.04126,-0.39249 0.383632,0.639386 0.02759,0.06699 0.02633,0.142535 0.04263,0.213129 0.01718,0.07445 0.362553,1.23521 0.29838,1.491901 -0.0034,0.01358 -0.07356,-0.01616 -0.170503,0 -0.146324,0.02439 -0.281859,0.0939 -0.426258,0.127877 -0.141047,0.03319 -0.288793,0.03943 -0.426257,0.08525 -0.216357,0.07212 -0.859665,0.410118 -1.023018,0.511509 -0.234399,0.145489 -0.454675,0.312589 -0.682012,0.468883 -0.255754,0.184712 -0.50022,0.386156 -0.767263,0.554135 -0.614673,0.386649 -1.235568,0.7651 -1.875533,1.108269 -0.77938,0.417929 -1.630842,0.686202 -2.429668,1.065644 -0.121078,0.05751 -0.221113,0.153182 -0.341006,0.213129 -0.0524,0.0262 -0.115649,0.02206 -0.170503,0.04263 -0.212966,0.07986 -0.399384,0.231353 -0.59676,0.341006 -0.111093,0.06172 -0.229913,0.108785 -0.341006,0.170503 -0.188037,0.104465 -0.310551,0.182674 -0.468883,0.341006 -0.120433,0.120433 -0.194764,0.286137 -0.341006,0.383632 -0.639386,0.426257 -0.159847,0.05328 -0.426258,0.213129 -0.118522,0.07111 -0.15331,0.131173 -0.255754,0.213128 -0.04984,0.07736 -0.146849,0.07817 -0.213129,0.127878 -0.168728,0.126546 -0.0027,0.04535 -0.170503,0.213128 -0.140904,0.140905 -0.257195,0.102878 -0.426257,0.170503 -0.114101,0.04564 -0.192525,0.160201 -0.29838,0.213129 -0.295478,0.147739 -0.198964,-0.05679 -0.511509,0.255755"
     transform="translate(-0.72463768)" />
  <path
     style="opacity:1;fill:none;fill-opacity:1;stroke:#1c3c55;stroke-width:2;stroke-dasharray:none;stroke-opacity:1"
     d="m 47.868713,39.98295 c -0.568167,-0.01732 -1.136863,-0.01732 -1.70503,0 -0.48519,0.01479 -0.971451,0.04236 -1.449275,0.127877 -0.634335,0.113524 -1.266321,0.338795 -1.747656,0.767263 -0.09969,0.08875 -0.192183,0.185512 -0.29457,0.271136 -0.102388,0.08562 -0.216564,0.160789 -0.344816,0.197748 -0.06965,0.02007 -0.142036,0.02849 -0.213129,0.04262 -0.186194,0.037 -0.364853,0.113398 -0.554135,0.127878 -0.05046,0.0039 -0.101182,0.0033 -0.151617,0.0074 -0.05044,0.0041 -0.101211,0.01321 -0.146763,0.03525 -0.04617,0.02234 -0.08507,0.057 -0.127877,0.08525 -0.0802,0.05293 -0.174232,0.08308 -0.269672,0.0943 -0.09544,0.01122 -0.192404,0.004 -0.28688,-0.01358 -0.188951,-0.03517 -0.367558,-0.110976 -0.551718,-0.16597 -0.563383,-0.168237 -1.164432,-0.138603 -1.747655,-0.213128 -0.41483,-0.05301 -0.821465,-0.158974 -1.236147,-0.213129 -0.719467,-0.09396 -1.450401,-0.03056 -2.173913,-0.08525 -0.651504,-0.04924 -1.2929,-0.194067 -1.918158,-0.383631 -0.706829,-0.214294 -1.400851,-0.487255 -2.131288,-0.596761 -0.366595,-0.05496 -0.73798,-0.06797 -1.108269,-0.08525 -0.412629,-0.01925 -0.825143,-0.04391 -1.236147,-0.08525 -0.48272,-0.04856 -0.96418,-0.120184 -1.449275,-0.127877 -0.583076,-0.0092 -1.169207,0.07389 -1.747656,0 -0.142759,-0.01824 -0.284466,-0.046 -0.428085,-0.05529 -0.143618,-0.0093 -0.291271,6.88e-4 -0.42443,0.05529 -0.08823,0.03618 -0.167828,0.09096 -0.255754,0.127877 -0.08289,0.0348 -0.171785,0.05314 -0.255755,0.08525 -0.118776,0.04541 -0.225441,0.117443 -0.341005,0.170503 -0.204347,0.09382 -0.431926,0.126409 -0.639387,0.213128 -0.264122,0.110403 -0.484858,0.303952 -0.682012,0.511509 -0.09694,0.102057 -0.189885,0.208703 -0.29838,0.298381 -0.327834,0.270976 -0.768667,0.363589 -1.193521,0.383631 -0.227127,0.01071 -0.454657,0.0033 -0.682012,0 -0.612199,-0.0089 -1.228388,0.01182 -1.832907,-0.08525 -0.156852,-0.02519 -0.312337,-0.05823 -0.468883,-0.08525 -0.970337,-0.167491 -1.968589,-0.101871 -2.941176,-0.25576 -0.411384,-0.06509 -0.819646,-0.169547 -1.236147,-0.170503 -0.164492,-3.78e-4 -0.328623,0.01546 -0.493094,0.01808 -0.164471,0.0026 -0.331344,-0.0084 -0.487298,-0.06071 -0.08532,-0.02862 -0.167156,-0.06948 -0.255755,-0.08525 -0.126145,-0.02245 -0.255733,0.0077 -0.383631,0 -0.122998,-0.0074 -0.240842,-0.04929 -0.360403,-0.07909 -0.119561,-0.0298 -0.248035,-0.04715 -0.364235,-0.0062 -0.08785,0.03099 -0.163181,0.09358 -0.253663,0.115743 -0.04524,0.01108 -0.09455,0.01114 -0.136848,-0.0084 -0.02115,-0.0098 -0.04021,-0.02432 -0.05425,-0.04291 -0.01404,-0.01858 -0.02292,-0.04122 -0.02412,-0.06447 -7.33e-4,-0.0142 0.0013,-0.02848 0,-0.04263 -0.0021,-0.02222 -0.01279,-0.04327 -0.02843,-0.05919 -0.01563,-0.01593 -0.036,-0.02685 -0.05757,-0.0326 -0.04313,-0.0115 -0.08933,-0.0026 -0.131032,0.01334 -0.0417,0.01591 -0.0805,0.03859 -0.121619,0.05595 -0.04112,0.01736 -0.08614,0.02945 -0.130234,0.02251 -0.03188,-0.005 -0.0621,-0.02013 -0.08525,-0.04262 -0.0972,-0.0264 -0.197672,-0.04076 -0.2983802,-0.04263 -0.1279705,-0.0024 -0.2565528,0.01527 -0.3836317,0 -0.1301558,-0.01564 -0.2540704,-0.06528 -0.3836317,-0.08525 -0.1407149,-0.02169 -0.2840991,-0.0079 -0.4262575,0 -0.5139857,0.02851 -1.0308876,-0.02139 -1.5345288,-0.127875 -0.2598798,-0.05495 -0.5166982,-0.124959 -0.7672635,-0.213129 -0.1800604,-0.06336 -0.3634795,-0.137197 -0.5541347,-0.127877 -0.064588,0.0032 -0.1283313,0.01589 -0.1927566,0.02146 -0.064425,0.0056 -0.1312414,0.0036 -0.1908751,-0.02146 -0.02931,-0.01229 -0.056156,-0.02984 -0.085252,-0.04263 -0.059417,-0.02612 -0.1261389,-0.03144 -0.1909075,-0.02722 -0.064769,0.0042 -0.1285469,0.01752 -0.1927242,0.02722 -0.3236489,0.0489 -0.653118,0.0056 -0.9803921,0 -0.3729008,-0.0064 -0.7466144,0.03677 -1.1082694,0.127878"
     id="path9"
     inkscape:path-effect="#path-effect9"
     inkscape:original-d="m 47.868713,39.98295 c -0.571774,-0.09348 -1.135022,-0.02591 -1.70503,0 -0.808222,0.03674 -0.293294,-0.09768 -1.449275,0.127877 -0.691395,0.134906 -1.176177,0.359064 -1.747656,0.767263 -0.544109,0.38865 0.225654,0.0652 -0.639386,0.468884 -0.06565,0.03064 -0.142404,0.02691 -0.213129,0.04262 -0.185052,0.04112 -0.36825,0.0907 -0.554135,0.127878 -0.09852,0.0197 -0.202147,0.01376 -0.29838,0.04263 -0.04907,0.01472 -0.07862,0.07118 -0.127877,0.08525 -0.269215,0.07692 -0.85788,-0.04731 -1.10827,-0.08525 -0.572846,-0.0868 -1.17498,-0.112068 -1.747655,-0.213128 -0.413844,-0.07303 -0.815272,-0.164567 -1.236147,-0.213129 -0.723241,-0.08345 -1.453491,0.01767 -2.173913,-0.08525 -0.641793,-0.09168 -1.290147,-0.218365 -1.918158,-0.383631 -0.714461,-0.188016 -1.40238,-0.461778 -2.131288,-0.596761 -0.775878,-0.143681 -0.328525,-0.05526 -1.108269,-0.08525 -0.412723,-0.01587 -0.824628,-0.04998 -1.236147,-0.08525 -0.728759,-0.06246 -0.77003,-0.10272 -1.449275,-0.127877 -0.580547,-0.0215 -1.166595,0 -1.747656,0 -0.284171,0 -0.57321,-0.05237 -0.852515,0 -0.09368,0.01756 -0.167772,0.09122 -0.255754,0.127877 -0.08295,0.03456 -0.172319,0.05188 -0.255755,0.08525 -0.117995,0.0472 -0.21928,0.133985 -0.341005,0.170503 -0.516838,0.155051 0.02246,-0.13726 -0.639387,0.213128 -0.311105,0.164703 -0.41814,0.269627 -0.682012,0.511509 -0.103686,0.09505 -0.181345,0.220358 -0.29838,0.298381 -0.199606,0.13307 -0.952877,0.36512 -1.193521,0.383631 -0.226667,0.01744 -0.454674,0 -0.682012,0 -0.617601,0 -1.219366,-0.0016 -1.832907,-0.08525 -0.1574,-0.02146 -0.311054,-0.06721 -0.468883,-0.08525 -0.977196,-0.111685 -1.962539,-0.161053 -2.941176,-0.25576 -0.414016,-0.04007 -0.821905,-0.132845 -1.236147,-0.170503 -0.284305,-0.02585 -0.697756,8.57e-4 -0.980392,-0.04263 -0.08882,-0.01366 -0.16668,-0.07337 -0.255755,-0.08525 -0.126755,-0.0169 -0.256003,0.008 -0.383631,0 -0.24334,-0.01521 -0.48546,-0.05535 -0.724638,-0.08525 -0.113719,-0.01422 -0.362127,0.05338 -0.468883,0 -0.01271,-0.0064 0.01348,-0.03813 0,-0.04263 -0.13994,-0.04665 -0.325551,0.03583 -0.468883,0 -0.03082,-0.0077 -0.05683,-0.02842 -0.08525,-0.04262 -0.09946,-0.01421 -0.198686,-0.03016 -0.2983802,-0.04263 -0.1257977,-0.01572 -0.2583669,0.01927 -0.3836317,0 -0.1294734,-0.01992 -0.2541583,-0.06533 -0.3836317,-0.08525 -0.1404336,-0.02161 -0.2844864,0.0095 -0.4262575,0 C 8.22364,40.502775 7.7159133,40.473227 7.2037511,40.409207 6.9293778,40.374911 6.6965881,40.274109 6.4364876,40.196078 6.2756243,40.147819 6.0506502,40.086901 5.8823529,40.068201 c -0.1270951,-0.01412 -0.2574943,0.02102 -0.3836317,0 -0.031339,-0.0052 -0.054097,-0.03639 -0.085252,-0.04263 -0.1138668,-0.02277 -0.2649384,0 -0.3836317,0 -0.2629713,0 -0.7255299,-0.05097 -0.9803921,0 -0.4045152,0.0809 -0.7056201,0.127878 -1.1082694,0.127878"
     transform="translate(-0.72463768)" />
  <path
     style="opacity:1;fill:none;fill-opacity:1;stroke:#1c3c55;stroke-width:2;stroke-dasharray:none;stroke-opacity:1"
     d="m 12.148338,31.202046 c -0.717278,0.213581 -1.366109,0.651165 -1.832907,1.236147 -0.265178,0.332315 -0.477583,0.715203 -0.8098897,0.980392 -0.095552,0.07625 -0.1994324,0.141337 -0.2983802,0.213129 -0.318711,0.231243 -0.5834832,0.530349 -0.8098891,0.852514 -0.095389,0.135735 -0.1846566,0.276364 -0.2557545,0.426258 -0.054537,0.114979 -0.098703,0.235939 -0.170503,0.341006 -0.1309611,0.191639 -0.3402693,0.312189 -0.511509,0.468883 -0.1388043,0.127014 -0.2565438,0.285447 -0.2983802,0.468883 -0.016122,0.07069 -0.020779,0.143996 -0.042626,0.213129 -0.03578,0.11322 -0.1158679,0.208179 -0.2086626,0.282261 -0.092795,0.07408 -0.1986682,0.129649 -0.3028464,0.186622 -0.4258821,0.232908 -0.8455361,0.500965 -1.3213981,0.596761 -0.1636885,0.03295 -0.3312052,0.04474 -0.4942565,0.08072 -0.1630512,0.03597 -0.3257352,0.0993 -0.4435099,0.217663 -0.1225851,0.123194 -0.1854715,0.294138 -0.2983802,0.426257 -0.085264,0.09977 -0.195864,0.173813 -0.2983803,0.255755 -0.1516662,0.121227 -0.2887034,0.263129 -0.3894415,0.429112 -0.1007382,0.165984 -0.1640992,0.357119 -0.1646932,0.55128 -1.563e-4,0.05108 0.00397,0.102229 6.093e-4,0.153202 -0.00336,0.05097 -0.014804,0.102738 -0.043235,0.145178 -0.025467,0.03801 -0.062926,0.06625 -0.1011419,0.09142 -0.038216,0.02516 -0.078203,0.04823 -0.1119868,0.07908 -0.046517,0.04249 -0.07938,0.09824 -0.1025786,0.156812 -0.023199,0.05858 -0.037266,0.120298 -0.050846,0.181821 -0.013579,0.06152 -0.026824,0.123365 -0.048489,0.182526 -0.021665,0.05916 -0.052226,0.115996 -0.096467,0.160853 -0.049956,0.05065 -0.1147496,0.08369 -0.1705029,0.127877 -0.1025777,0.0813 -0.1726303,0.200652 -0.2012605,0.328373 -0.02863,0.12772 -0.016923,0.263094 0.025754,0.386831 0.085355,0.247474 0.2882582,0.440029 0.5160002,0.569112 0.227742,0.129083 0.4817612,0.202883 0.7316686,0.280826 0.2499075,0.07794 0.501871,0.162859 0.7181186,0.310391 0.2718885,0.185493 0.47041,0.458094 0.6566137,0.729496 0.1862037,0.271402 0.3695014,0.551466 0.6221587,0.762405 0.085242,0.07117 0.177873,0.133975 0.2557544,0.213129 0.1304645,0.132596 0.2127697,0.303736 0.2983803,0.468883 0.054566,0.105261 0.111849,0.210085 0.1870855,0.301718 0.075236,0.09163 0.17005,0.170172 0.2817977,0.209791 0.035657,0.01264 0.073075,0.02139 0.1059812,0.04006 0.016453,0.0093 0.031673,0.02118 0.04336,0.03605 0.011687,0.01487 0.019718,0.03291 0.021161,0.05177 0.00109,0.01418 -0.00151,0.02849 0,0.04263 0.00166,0.01548 0.00825,0.03019 0.017421,0.04277 0.00917,0.01259 0.020854,0.02317 0.033341,0.03247 0.024975,0.01861 0.05341,0.03243 0.077115,0.05264 0.031743,0.02705 0.053284,0.06404 0.071464,0.101575 0.01818,0.03753 0.033733,0.07656 0.056413,0.111554 0.04232,0.06531 0.107149,0.112944 0.1751709,0.150743 0.068022,0.0378 0.1404537,0.06719 0.2084608,0.105012 0.2719479,0.151257 0.4553981,0.429534 0.5541347,0.724637 0.015328,0.04581 0.029174,0.09288 0.055288,0.13352 0.013057,0.02032 0.029178,0.03887 0.048681,0.05312 0.019503,0.01425 0.042499,0.02409 0.066534,0.02649 0.014149,0.0014 0.028409,2.59e-4 0.042626,0 0.059975,-0.0011 0.1201682,0.01408 0.1724538,0.04348 0.052286,0.0294 0.096527,0.07295 0.1267517,0.124761 0.030224,0.05181 0.046353,0.111759 0.046209,0.171743 -1.442e-4,0.05999 -0.016561,0.119852 -0.047035,0.17152"
     id="path10"
     inkscape:path-effect="#path-effect10"
     inkscape:original-d="m 12.148338,31.202046 c -0.575522,0.455375 -1.326044,0.687044 -1.832907,1.236147 -0.286469,0.310341 -0.47945,0.705025 -0.8098897,0.980392 -0.093897,0.07825 -0.2055786,0.133584 -0.2983802,0.213129 -0.2745239,0.235306 -0.6030717,0.553778 -0.8098891,0.852514 -0.094318,0.136237 -0.1679342,0.285745 -0.2557545,0.426258 -0.067355,0.107768 -0.086072,0.246021 -0.170503,0.341006 -0.8828017,0.993152 0.4033325,-0.628927 -0.511509,0.468883 -0.04223,0.05068 -0.2586713,0.389466 -0.2983802,0.468883 -0.017342,0.03468 -0.025284,0.178445 -0.042626,0.213129 -0.025569,0.05114 -0.5086773,0.466487 -0.511509,0.468883 -0.3614057,0.305805 -0.8771381,0.465128 -1.3213981,0.596761 -0.3891692,0.115309 -0.6033425,0.08339 -0.9377664,0.29838 -0.3188472,0.204973 -0.1365073,0.167261 -0.2983802,0.426257 -0.061021,0.09763 -0.2176448,0.186553 -0.2983803,0.255755 -0.2811492,0.240985 -0.4537225,0.628949 -0.5541347,0.980392 -0.027601,0.0966 0.013105,0.214784 -0.042626,0.29838 -0.050466,0.0757 -0.1642842,0.09375 -0.2131287,0.170503 -0.023529,0.03697 -0.2294972,0.613129 -0.2983803,0.682012 -0.023386,0.02339 -0.1971369,0.07461 -0.1705029,0.127877 0.3288626,0.657726 1.2701022,1.31534 1.7902813,1.875533 0.444471,0.478661 0.817572,1.030701 1.2787724,1.491901 0.078469,0.07847 0.1820283,0.130187 0.2557544,0.213129 0.083125,0.09351 0.2032959,0.350028 0.2983803,0.468883 0.1609429,0.201179 0.2752094,0.337203 0.4688832,0.511509 0.052806,0.04753 0.120268,0.07764 0.170503,0.127877 0.010047,0.01005 -0.00635,0.02992 0,0.04263 0.026959,0.05392 0.092839,0.07882 0.1278772,0.127877 0.048155,0.06742 0.069294,0.154546 0.1278772,0.213129 0.1086748,0.108675 0.2655643,0.157365 0.3836317,0.255755 0.2441227,0.203435 0.4177405,0.451849 0.5541347,0.724637 0.022924,0.04585 0.1302485,0.193002 0.170503,0.213129 0.012709,0.0064 0.032579,-0.01005 0.042626,0 0.1510973,0.151097 0.2103953,0.335539 0.2983802,0.511509"
     transform="translate(-0.72463768)" />
  <metadata
     id="metadata10">
    <rdf:RDF>
      <cc:Work
         rdf:about="">
        <dc:title>fastP2p</dc:title>
      </cc:Work>
    </rdf:RDF>
  </metadata>
</svg>
