<?xml version="1.0" encoding="UTF-8" standalone="no"?>
<svg
   width="56"
   height="44"
   viewBox="0 0 56 44"
   version="1.1"
   id="svg5"
   xmlns="http://www.w3.org/2000/svg"
   xmlns:svg="http://www.w3.org/2000/svg"
   xmlns:rdf="http://www.w3.org/1999/02/22-rdf-syntax-ns#"
   xmlns:cc="http://creativecommons.org/ns#"
   xmlns:dc="http://purl.org/dc/elements/1.1/">
  <title
     id="title1">Worldwide</title>
  <desc
     id="desc1">Created using Figma</desc>
  <defs
     id="defs5">
    <path
       id="path0_fill"
       fill-rule="evenodd"
       d="M 10 0C 12.7564 0 15.1122 0.977554 17.0673 2.93269C 19.0224 4.88783 20 7.24358 20 10C 20 12.7564 19.0224 15.1122 17.0673 17.0673C 15.1122 19.0224 12.7564 20 10 20C 7.24358 20 4.88783 19.0224 2.93269 17.0673C 0.977554 15.1122 0 12.7564 0 10C 0 7.24358 0.977554 4.88783 2.93269 2.93269C 4.88783 0.977554 7.24358 0 10 0ZM 7.38462 20L 7.90533 18.7235C 7.96844 18.5688 8 18.4044 8 18.2304C 8 18.0563 7.92111 17.8919 7.76331 17.7372C 7.25838 17.1957 6.89546 16.7895 6.67456 16.5188C 6.61144 16.4414 6.51677 16.219 6.39053 15.8515C 6.2643 15.4841 6.21696 15.2617 6.24852 15.1843C 6.40631 14.8362 6.53254 14.372 6.62722 13.7918C 6.72189 13.3276 6.51677 12.9022 6.01183 12.5154C 5.79093 12.3606 5.57002 12.1672 5.34911 11.9352C 5.1282 11.7031 4.88363 11.4517 4.61538 11.1809C 4.34714 10.9101 4.13412 10.6974 3.97633 10.5427C 3.40828 10.0398 3.0927 9.67236 3.02959 9.44027C 2.74556 8.43458 2.58777 7.89306 2.55621 7.8157C 2.27219 7.31285 2.09862 6.781 2.0355 6.22014C 1.97239 5.65927 1.98817 5.0694 2.08284 4.45051C 2.08284 4.17975 2.05128 3.69625 1.98817 3C 0.662715 4.85666 0 7.1001 0 9.73038C 0 12.5927 0.820505 15.0296 2.46154 17.041C 3.81855 18.7042 5.45956 19.6906 7.38462 20ZM 16.5263 17.208C 17.7544 15.8784 18.5789 14.321 19 12.5356L 18 12.4217C 17.2632 11.51 16.8596 10.6553 16.7895 9.85755C 16.7544 9.51567 16.7368 8.98386 16.7368 8.26211C 16.7368 7.54036 16.7018 6.98956 16.6316 6.60969C 16.5614 6.2678 16.3246 5.79298 15.9211 5.18518C 15.5175 4.57739 15.2807 4.17854 15.2105 3.9886C 15.1053 3.7227 14.9386 3.32384 14.7105 2.79202C 14.4825 2.26021 14.2982 1.86135 14.1579 1.59544C 14.193 1.59544 14.2544 1.61443 14.3421 1.65242C 14.4298 1.69041 14.4912 1.72839 14.5263 1.76638C 14.8772 1.69041 15.1228 1.65242 15.2632 1.65242C 14.1403 0.778723 12.807 0.227921 11.2632 0L 11.2632 0.45584L 11.4737 0.968661L 10.7368 1.7094L 10.2632 1.53846L 9.73684 0.968661L 9.21053 0.2849L 8.47368 0C 7.73684 0.113961 6.94737 0.360872 6.10526 0.740741L 6.10526 1.1396C 6.21053 1.06363 6.40351 0.987655 6.68421 0.911681C 6.96491 0.835707 7.17544 0.759735 7.31579 0.683761C 7.38597 0.645774 7.66666 0.816712 8.1579 1.19658C 8.12281 1.23457 7.92983 1.415 7.57895 1.73789C 7.22807 2.06078 7.03509 2.2792 7 2.39316C 7 2.43115 7.0614 2.51662 7.18421 2.64957C 7.30702 2.78253 7.36842 2.88699 7.36842 2.96296C 7.36842 3.07692 7.35965 3.23837 7.3421 3.44729C 7.32456 3.65622 7.31579 3.81766 7.31579 3.93162C 8.05264 3.1339 8.4386 2.73504 8.47368 2.73504C 8.78948 2.65907 9.17544 2.82051 9.63158 3.21937C 10.0877 3.61824 10.3509 3.95062 10.4211 4.21652C 10.4561 4.33048 10.386 4.49193 10.2105 4.70085C 10.0351 4.90978 9.75439 5.18518 9.36842 5.52707C 8.98245 5.86895 8.75439 6.07787 8.68421 6.15385C 8.61403 6.22982 8.45614 6.35328 8.21053 6.52422C 7.96491 6.69516 7.78947 6.8566 7.68421 7.00855C 7.57895 7.16049 7.5614 7.33143 7.63158 7.52137C 7.98246 8.28111 8.07018 8.73694 7.89474 8.88889C 7.82456 8.96486 7.73684 8.97436 7.63158 8.91738C 7.52632 8.8604 7.44737 8.79392 7.39474 8.71795C 7.3421 8.64198 7.27193 8.54701 7.18421 8.43305C 7.09649 8.31909 7.03509 8.24312 7 8.20513C 6.78947 7.93922 6.12281 7.80627 5 7.80627C 5 9.02185 5.26316 9.83855 5.78947 10.2564C 7.22808 11.396 8.05263 12.0228 8.26316 12.1368C 8.47369 12.2507 8.89473 12.2507 9.52632 12.1368C 10.1579 12.0228 10.5614 12.0418 10.7368 12.1937C 11.8947 13.0674 12.7193 13.6182 13.2105 13.8462C 13.5263 13.9601 13.8772 14.2165 14.2632 14.6154C 14.6491 15.0142 14.7544 15.3466 14.5789 15.6125C 14.1228 16.3723 13.8772 16.8091 13.8421 16.9231C 13.5614 17.5689 13.2105 18.0437 12.7895 18.3476C 12.3333 18.7274 11.9649 19.2782 11.6842 20C 13.579 19.5821 15.193 18.6515 16.5263 17.208Z" />
    <path
       id="path1_fill"
       fill-rule="evenodd"
       d="M 0 10.5C 0 16.299 4.70117 21 10.5 21C 16.2988 21 21 16.299 21 10.5C 21 4.70105 16.2988 0 10.5 0C 4.70117 0 0 4.70105 0 10.5ZM 20 10.5C 20 15.7467 15.7466 20 10.5 20C 5.25342 20 1 15.7467 1 10.5C 1 5.2533 5.25342 1 10.5 1C 15.7466 1 20 5.2533 20 10.5Z" />
    <path
       id="path2_fill"
       d="M 24.8785 8.1722C 24.6369 8.30581 24.3327 8.2182 24.1991 7.97653C 24.0655 7.73486 24.1531 7.43064 24.3947 7.29704C 25.6128 6.62363 26.2319 5.88509 26.2319 5.19043C 26.2319 4.61899 25.8159 4.01805 24.9748 3.44013C 22.8303 1.96659 18.4691 1 13.616 1C 9.3806 1 5.49914 1.7338 3.13301 2.92767C 1.72551 3.63784 1 4.43919 1 5.19043C 1 5.86502 1.58331 6.5812 2.73657 7.24047C 2.9763 7.37752 3.05955 7.68296 2.9225 7.92269C 2.78546 8.16243 2.48002 8.24567 2.24028 8.10863C 0.808186 7.28996 0 6.29769 0 5.19043C 0 3.97292 0.974267 2.89681 2.68254 2.03488C 5.20504 0.762105 9.23624 0 13.616 0C 18.6529 0 23.201 1.00802 25.5411 2.61594C 26.6275 3.36242 27.2319 4.23545 27.2319 5.19043C 27.2319 6.32678 26.3815 7.34136 24.8785 8.1722Z" />
    <path
       id="path3_fill"
       d="M 26.3694 8.61907C 26.1277 8.75267 25.8235 8.66506 25.6899 8.42339C 25.5563 8.18172 25.6439 7.8775 25.8856 7.7439C 27.1877 7.02403 27.8522 6.23135 27.8522 5.48015C 27.8522 4.86157 27.4046 4.2151 26.504 3.59628C 24.221 2.02757 19.5847 1 14.4261 1C 9.92467 1 5.79884 1.78 3.28173 3.05004C 1.77801 3.80877 1 4.6681 1 5.48015C 1 6.20977 1.62629 6.97871 2.85939 7.68362C 3.45005 8.02128 4.2252 8.3306 5.18303 8.60819C 5.44825 8.68506 5.60095 8.96238 5.52409 9.22761C 5.44722 9.49284 5.1699 9.64553 4.90467 9.56867C 3.87613 9.27058 3.02954 8.93275 2.3631 8.55178C 0.851161 7.68747 0 6.64243 0 5.48015C 0 4.20183 1.02676 3.06774 2.83126 2.15725C 5.50475 0.808305 9.78031 0 14.4261 0C 19.7685 0 24.5918 1.069 27.0704 2.77209C 28.2163 3.55947 28.8522 4.47802 28.8522 5.48015C 28.8522 6.67304 27.9564 7.74176 26.3694 8.61907Z" />
  </defs>
  <path
     style="display:inline;opacity:1;fill:#cad4df;fill-opacity:1;stroke:#cad4df;stroke-width:2;stroke-dasharray:none;stroke-opacity:1"
     d="m 14.004693,12.943731 c 0.03404,0.138769 0.05189,0.281506 0.05305,0.424385 7.21e-4,0.08843 -0.0049,0.176946 0,0.26524 0.0173,0.310826 0.163301,0.598939 0.321503,0.867052 0.158201,0.268113 0.333803,0.531691 0.42117,0.830487 0.03032,0.103707 0.04987,0.211274 0.09456,0.309647 0.02235,0.04919 0.05106,0.09589 0.0884,0.134929 0.03734,0.03904 0.08362,0.07026 0.135331,0.08591 0.01944,0.0059 0.03956,0.0096 0.05853,0.01684 0.01896,0.0073 0.03721,0.01874 0.04757,0.03621 0.0093,0.0156 0.01135,0.03455 0.0099,0.05263 -0.0015,0.01808 -0.0062,0.0357 -0.0099,0.05347 -0.02768,0.135597 0.0138,0.280104 0.09556,0.391759 0.08177,0.111655 0.200755,0.192355 0.32882,0.244818 0.2183,0.08943 0.460654,0.10053 0.685737,0.171171 0.112541,0.03532 0.221852,0.08647 0.310534,0.164244 0.08868,0.07777 0.155549,0.184197 0.170787,0.301162 0.008,0.06155 0.0018,0.123945 -0.0033,0.185805 -0.0051,0.06186 -0.0091,0.124709 0.0033,0.185531 0.0152,0.07457 0.05401,0.141787 0.08929,0.209221 0.03528,0.06743 0.06819,0.139077 0.06985,0.215164 5.82e-4,0.02662 -0.0027,0.05315 -0.0045,0.07972 -0.0018,0.02657 -0.002,0.0536 0.0045,0.07942 0.0079,0.03117 0.02526,0.05914 0.04493,0.08457 0.01967,0.02543 0.04184,0.04887 0.06116,0.07457 0.05534,0.0736 0.08558,0.163706 0.09916,0.25478 0.01358,0.09108 0.01131,0.183723 0.0069,0.275701 -0.0067,0.141511 -0.01832,0.283904 0,0.424385 0.03624,0.277883 0.185971,0.52693 0.26524,0.795721 0.06093,0.206597 0.07963,0.422816 0.106096,0.636577 0.04192,0.338581 0.105179,0.6784 0.243897,0.990092 0.138717,0.311691 0.359164,0.595757 0.657921,0.760495 0.05612,0.03095 0.116084,0.05863 0.159144,0.106096 0.02671,0.02944 0.04556,0.06517 0.06124,0.101694 0.01569,0.03653 0.02851,0.07426 0.04485,0.110498 0.07589,0.168273 0.224089,0.295007 0.386495,0.382755 0.162406,0.08775 0.340599,0.141215 0.515322,0.200774 0.0902,0.03075 0.180058,0.06336 0.265241,0.106096 0.228185,0.114469 0.415137,0.297357 0.636577,0.424385 0.204598,0.117367 0.433782,0.18437 0.647412,0.284356 0.106816,0.04999 0.210311,0.108647 0.301223,0.183773 0.09091,0.07513 0.169143,0.167397 0.218422,0.274544 0.08589,0.186749 0.07815,0.401848 0.05808,0.60642 -0.02007,0.204571 -0.05055,0.413236 -0.005,0.613686 0.04138,0.182226 0.142674,0.344228 0.241469,0.502842 0.0988,0.158613 0.198475,0.322005 0.235964,0.505071 0.03925,0.19166 0.0076,0.393234 0.05305,0.583529 0.03786,0.158653 0.126954,0.299831 0.220235,0.433633 0.09328,0.133801 0.193099,0.265151 0.257198,0.415136 0.03936,0.0921 0.06452,0.189634 0.101046,0.282891 0.03653,0.09326 0.08641,0.184496 0.164194,0.24759 0.07745,0.06282 0.175675,0.09257 0.270277,0.12412 0.0946,0.03155 0.191781,0.06857 0.260204,0.14112 0.06081,0.06447 0.09394,0.152164 0.159144,0.212193 0.03268,0.03009 0.07197,0.05183 0.109876,0.075 0.0379,0.02317 0.0755,0.04872 0.102317,0.08414 0.03484,0.04603 0.04854,0.105796 0.04548,0.163444 -0.0031,0.05765 -0.02186,0.113502 -0.04668,0.165622 -0.04965,0.104239 -0.124062,0.197133 -0.157939,0.307511 -0.02633,0.08578 -0.02633,0.179456 0,0.26524 -0.03009,0.01457 -0.05617,0.03731 -0.07472,0.06513 -0.01854,0.02782 -0.0295,0.06064 -0.03138,0.09402 -0.0018,0.03275 0.0049,0.0654 0.0139,0.09694 0.009,0.03153 0.0204,0.0624 0.02822,0.09425 0.0078,0.03185 0.01204,0.06516 0.0065,0.09748 -0.0056,0.03232 -0.02181,0.06372 -0.04859,0.08266 -0.01623,0.01148 -0.03538,0.01791 -0.05402,0.02481 -0.01864,0.0069 -0.03751,0.01471 -0.05207,0.02824 -0.01461,0.01357 -0.02382,0.03194 -0.03108,0.0505 -0.0073,0.01857 -0.01292,0.03783 -0.02197,0.05559 -0.02399,0.04705 -0.06973,0.07945 -0.117637,0.101687 -0.0479,0.02224 -0.09928,0.03615 -0.147603,0.05746 -0.11265,0.04969 -0.205362,0.138945 -0.270319,0.243537 -0.06496,0.104592 -0.103368,0.22405 -0.124443,0.345354 -0.04215,0.242609 -0.01676,0.491404 -0.02962,0.737311 -0.0046,0.08849 -0.01419,0.177776 0,0.26524 0.01964,0.121088 0.08395,0.231086 0.16273,0.325117 0.07878,0.09403 0.17228,0.174388 0.261655,0.258412 0.06024,0.05663 0.119434,0.115943 0.161567,0.187084 0.04213,0.07114 0.06613,0.156086 0.05063,0.237301 -0.0034,0.01789 -0.0087,0.03546 -0.01047,0.05359 -0.0018,0.01812 3.12e-4,0.03739 0.01047,0.05251 0.0056,0.0083 0.01343,0.01504 0.02204,0.02023 0.0086,0.0052 0.01802,0.0089 0.02756,0.01208 0.01908,0.0063 0.03912,0.01062 0.05649,0.02074 0.02056,0.01197 0.03605,0.03156 0.04561,0.05333 0.0096,0.02178 0.01349,0.04569 0.01434,0.06946 0.0017,0.04754 -0.0086,0.0949 -0.0069,0.142442 0.0028,0.08001 0.03931,0.155032 0.08237,0.222518 0.04306,0.06749 0.09357,0.130487 0.129817,0.201867 0.01197,0.02358 0.0225,0.04823 0.03904,0.06886 0.0083,0.01031 0.01805,0.01954 0.02942,0.02628 0.01138,0.0067 0.02441,0.01091 0.03763,0.01096 0.0089,2.9e-5 0.01777,-0.0018 0.02667,-0.0027 0.0089,-9.2e-4 0.01819,-8.66e-4 0.02638,0.0027 0.0091,0.004 0.01605,0.01217 0.01964,0.02145 0.0036,0.0093 0.004,0.01958 0.0024,0.02941 -0.0031,0.01965 -0.01384,0.03712 -0.02209,0.05523 -0.02208,0.0485 -0.02696,0.103921 -0.01816,0.156479 0.0088,0.05256 0.03079,0.102362 0.05988,0.147009 0.05818,0.08929 0.142976,0.157207 0.223527,0.226993 0.381489,0.330506 0.695072,0.734305 0.954866,1.167058 0.125303,0.208724 0.239222,0.426114 0.3119,0.658459 0.07268,0.232345 0.102939,0.481263 0.05944,0.720791 -0.04455,0.245266 -0.163315,0.469593 -0.251779,0.702645 -0.04423,0.116526 -0.08122,0.236573 -0.09697,0.360212 -0.01575,0.12364 -0.0097,0.251438 0.03046,0.369441 0.03376,0.09929 0.09142,0.192088 0.102233,0.296404 0.0054,0.05216 -0.0019,0.106841 -0.02853,0.152005 -0.01332,0.02258 -0.03137,0.0425 -0.05318,0.05706 -0.0218,0.01456 -0.0474,0.02365 -0.07358,0.02502 -0.01767,9.22e-4 -0.03543,-0.0016 -0.05305,0 -0.02093,0.0019 -0.04118,0.0098 -0.05835,0.02189 -0.01717,0.01212 -0.03127,0.02841 -0.04142,0.04681 -0.02031,0.0368 -0.02442,0.08116 -0.01661,0.12246 0.0078,0.04129 0.02688,0.07979 0.05042,0.114604 0.02354,0.03482 0.05158,0.06632 0.07924,0.09796 0.02766,0.03164 0.05515,0.06369 0.07743,0.09933 0.02227,0.03564 0.03928,0.07526 0.0441,0.11701 0.0048,0.04175 -0.0033,0.08582 -0.0275,0.120211 -0.01208,0.01719 -0.02802,0.03176 -0.04658,0.04162 -0.01856,0.0099 -0.03974,0.01492 -0.06072,0.01382 -0.0089,-4.7e-4 -0.01773,-0.002 -0.02663,-0.0027 -0.0089,-6.6e-4 -0.01805,-3.84e-4 -0.02642,0.0027 -0.007,0.0025 -0.01316,0.007 -0.01808,0.01252 -0.0049,0.0055 -0.0085,0.01217 -0.01088,0.01919 -0.0047,0.01405 -0.0041,0.02942 -9.13e-4,0.04388 0.0065,0.02891 0.02316,0.0547 0.02987,0.08355 0.006,0.02594 0.0037,0.05302 0.001,0.07952 -0.0027,0.0265 -0.0057,0.05341 -0.001,0.07962 0.0057,0.03188 0.02296,0.06124 0.04661,0.08337 0.02365,0.02213 0.05349,0.03718 0.08488,0.04516 0.06278,0.01596 0.129636,0.0039 0.190636,-0.01786 0.061,-0.0218 0.118153,-0.0531 0.178222,-0.07735 0.06007,-0.02425 0.125024,-0.04156 0.189277,-0.03332 0.05563,0.0071 0.106837,0.03282 0.159145,0.05305 0.199659,0.07722 0.420791,0.0761 0.633858,0.05537 0.213067,-0.02073 0.425274,-0.06001 0.639296,-0.05537 0.151438,0.0033 0.301483,0.02854 0.452497,0.04032 0.151015,0.01178 0.306282,0.0095 0.44932,-0.04032 0.158238,-0.05514 0.290632,-0.164295 0.424385,-0.26524 0.209712,-0.158272 0.435885,-0.303182 0.689625,-0.371337 0.197136,-0.05295 0.403641,-0.05877 0.607763,-0.05815 0.204123,6.17e-4 0.408219,0.0051 0.612342,0.0051 h 1.803635 c 0.04536,0 0.09095,0.003 0.134861,0.01434 0.04391,0.01136 0.08596,0.02955 0.130379,0.03871 0.07893,0.01628 0.160699,9.43e-4 0.239184,-0.01737 0.07849,-0.01831 0.15776,-0.03978 0.238249,-0.03568 0.0357,0.0018 0.07096,0.0087 0.106586,0.01162 0.03562,0.003 0.07249,0.0018 0.105606,-0.01162 0.02342,-0.0095 0.04413,-0.02489 0.06213,-0.04264 0.018,-0.01775 0.03345,-0.0379 0.04837,-0.0583 0.02985,-0.04081 0.05902,-0.08412 0.101687,-0.11125 0.03381,-0.0215 0.07353,-0.03115 0.111503,-0.04391 0.01899,-0.0064 0.03777,-0.01365 0.05517,-0.02358 0.0174,-0.0099 0.03343,-0.02263 0.04552,-0.0386 0.01196,-0.01581 0.01972,-0.03433 0.02713,-0.05271 0.0074,-0.01838 0.01471,-0.03703 0.02592,-0.05338 0.02111,-0.03082 0.05469,-0.05122 0.08981,-0.06394 0.03512,-0.01272 0.07227,-0.01859 0.108857,-0.02615 0.03658,-0.0076 0.0734,-0.01713 0.105451,-0.03631 0.01603,-0.0096 0.03073,-0.02157 0.04254,-0.03604 0.01181,-0.01447 0.02066,-0.0315 0.02468,-0.04974 0.0047,-0.02138 0.0028,-0.0439 0.0084,-0.06506 0.0028,-0.01058 0.0076,-0.02084 0.01529,-0.02865 0.0038,-0.0039 0.0084,-0.0072 0.01338,-0.0094 0.005,-0.0022 0.01052,-0.0033 0.01599,-0.003 0.0095,4.94e-4 0.01819,0.0051 0.02742,0.0072 0.0046,0.0011 0.0095,0.0015 0.01408,4.65e-4 0.0046,-0.001 0.009,-0.0036 0.01154,-0.0076 0.0025,-0.0039 0.0029,-0.0088 0.0023,-0.01342 -6.3e-4,-0.0046 -0.0023,-0.009 -0.0038,-0.01335 -0.0015,-0.0044 -0.0029,-0.0089 -0.003,-0.01351 -5.6e-5,-0.0023 2.17e-4,-0.0047 9.41e-4,-0.0069 7.24e-4,-0.0022 0.0019,-0.0043 0.0035,-0.0059 0.0016,-0.0016 0.0037,-0.0028 0.0059,-0.0035 0.0022,-7.25e-4 0.0045,-9.97e-4 0.0069,-9.42e-4 0.0046,1.11e-4 0.0091,0.0015 0.01351,0.003 0.0044,0.0015 0.0088,0.0031 0.01335,0.0038 0.0046,6.31e-4 0.0095,1.62e-4 0.01343,-0.0023 0.004,-0.0025 0.0066,-0.0069 0.0076,-0.01154 0.001,-0.0046 5.92e-4,-0.0095 -4.61e-4,-0.01409 -0.0021,-0.0092 -0.0067,-0.01796 -0.0072,-0.02742 -2.91e-4,-0.0055 8.2e-4,-0.01098 0.003,-0.016 0.0022,-0.005 0.0054,-0.0096 0.0093,-0.0134 0.0078,-0.0077 0.01806,-0.01252 0.02864,-0.01534 0.02117,-0.0056 0.04369,-0.0037 0.06511,-0.0083 0.02246,-0.0048 0.04299,-0.01687 0.05988,-0.03245 0.01689,-0.01558 0.03029,-0.03462 0.04141,-0.05472 0.02225,-0.0402 0.03571,-0.08477 0.05785,-0.125029 0.03048,-0.0554 0.07758,-0.101692 0.133986,-0.130279 0.0564,-0.02859 0.121919,-0.0392 0.184303,-0.02887 0.02698,0.0045 0.0533,0.01273 0.08048,0.01572 0.01359,0.0015 0.0274,0.0017 0.04088,-6.57e-4 0.01348,-0.0023 0.02663,-0.0072 0.03779,-0.01506 0.02045,-0.0145 0.03287,-0.03817 0.05305,-0.05305 0.01414,-0.01042 0.03154,-0.01597 0.04906,-0.01725 0.01752,-0.0013 0.03518,0.0016 0.05195,0.0068 0.03355,0.01042 0.0634,0.02991 0.09453,0.04621 0.03113,0.0163 0.06548,0.02979 0.100464,0.02658 0.01749,-0.0016 0.03478,-0.0076 0.04864,-0.01836 0.01386,-0.01079 0.02406,-0.02661 0.02669,-0.04398 0.0027,-0.01785 -0.0025,-0.03581 -0.0057,-0.05358 -0.0016,-0.0089 -0.0028,-0.01792 -0.0022,-0.02693 5.77e-4,-0.009 0.003,-0.01804 0.0079,-0.02559 0.0056,-0.0084 0.01408,-0.01462 0.02326,-0.01886 0.0092,-0.0042 0.01907,-0.0067 0.02891,-0.009 0.0098,-0.0023 0.01977,-0.0045 0.02917,-0.0082 0.0094,-0.0037 0.01833,-0.0092 0.02476,-0.01697 0.0058,-0.0071 0.0094,-0.01586 0.01097,-0.02488 0.0016,-0.009 0.0013,-0.0183 1.16e-4,-0.02738 -0.0024,-0.01817 -0.0086,-0.03567 -0.01108,-0.05383 -0.0039,-0.02836 0.0013,-0.05745 0.01153,-0.0842 0.01022,-0.02674 0.02528,-0.05137 0.04152,-0.07495 0.05275,-0.07663 0.11838,-0.143664 0.172147,-0.219593 0.05377,-0.07593 0.09632,-0.164858 0.09309,-0.25784 -0.0012,-0.03551 -0.0091,-0.07173 0,-0.106096 0.0049,-0.01848 0.01449,-0.0355 0.02649,-0.05037 0.012,-0.01488 0.02636,-0.0277 0.04145,-0.03942 0.03019,-0.02345 0.06367,-0.04284 0.09121,-0.06935 0.049,-0.04717 0.07526,-0.11294 0.09466,-0.178127 0.0194,-0.06519 0.0336,-0.132611 0.06448,-0.19321 0.0343,-0.06732 0.08766,-0.123056 0.144621,-0.172693 0.05696,-0.04964 0.118257,-0.09423 0.173667,-0.145595 0.148558,-0.137704 0.252688,-0.328307 0.265241,-0.530481 0.0033,-0.05296 4.23e-4,-0.106083 0,-0.159144 -6.89e-4,-0.08647 0.0053,-0.173746 0.02896,-0.25691 0.02371,-0.08317 0.06612,-0.162436 0.130185,-0.220523 0.02811,-0.02549 0.05993,-0.04656 0.08901,-0.07095 0.02908,-0.02438 0.05599,-0.05298 0.07014,-0.0882 0.01332,-0.03316 0.01443,-0.07 0.01149,-0.105616 -0.0029,-0.03562 -0.0097,-0.07088 -0.01149,-0.106577 -0.0043,-0.0867 0.02294,-0.176356 0.08214,-0.239856 0.0296,-0.03175 0.06675,-0.05662 0.107806,-0.07069 0.04106,-0.01408 0.08599,-0.01721 0.128348,-0.0077 0.0089,0.002 0.01769,0.0045 0.02676,0.0053 0.0091,7.63e-4 0.01861,-3.94e-4 0.02629,-0.0053 0.008,-0.0051 0.01322,-0.01385 0.01534,-0.02309 0.0021,-0.0092 0.0014,-0.01893 -6.31e-4,-0.02819 -0.004,-0.01852 -0.0131,-0.03593 -0.01471,-0.05482 -0.001,-0.01177 9.81e-4,-0.02373 0.0052,-0.03475 0.0043,-0.01102 0.01076,-0.02112 0.01863,-0.02993 0.01574,-0.01763 0.03665,-0.02992 0.05839,-0.03919 0.04347,-0.01855 0.09236,-0.02661 0.129939,-0.05527 0.02077,-0.01584 0.03683,-0.03719 0.04943,-0.06007 0.0126,-0.02288 0.02192,-0.04739 0.03111,-0.07184 0.0092,-0.02445 0.01832,-0.04902 0.03056,-0.07209 0.01224,-0.02307 0.02777,-0.04476 0.04804,-0.06124 0.03079,-0.02503 0.07009,-0.03638 0.106096,-0.05305 0.09358,-0.04333 0.16618,-0.124413 0.21361,-0.21598 0.04743,-0.09157 0.07152,-0.193479 0.08676,-0.295469 0.03047,-0.203979 0.02918,-0.419419 0.124019,-0.602561 0.03649,-0.07045 0.08687,-0.135216 0.106096,-0.212192 0.0089,-0.03574 0.01074,-0.07281 0.01614,-0.109246 0.0054,-0.03644 0.0149,-0.0734 0.03691,-0.102946 0.015,-0.02014 0.03506,-0.03582 0.05447,-0.05176 0.01941,-0.01594 0.03876,-0.03277 0.05163,-0.05434 0.01855,-0.03109 0.02181,-0.06915 0.01838,-0.105188 -0.0034,-0.03604 -0.01301,-0.0712 -0.01838,-0.107004 -0.01476,-0.09847 0.0027,-0.199012 0.02823,-0.295255 0.02554,-0.09624 0.05922,-0.190464 0.07787,-0.288274 0.02001,-0.104913 0.02231,-0.213841 0,-0.318288 C 38.638936,31.939 38.552389,31.798657 38.4422,31.68461 38.332012,31.570563 38.198742,31.48116 38.060332,31.403757 37.783514,31.248952 37.478297,31.136049 37.239751,30.92703 c -0.06419,-0.05624 -0.122862,-0.118939 -0.190933,-0.170415 -0.06807,-0.05148 -0.148155,-0.09199 -0.233451,-0.09483 -0.03538,-0.0012 -0.07094,0.0041 -0.106096,0 -0.03513,-0.0041 -0.06875,-0.01768 -0.09873,-0.03644 -0.02998,-0.01876 -0.05649,-0.04265 -0.08072,-0.06841 -0.04846,-0.05153 -0.0883,-0.110878 -0.13883,-0.160384 -0.08302,-0.08134 -0.191181,-0.132397 -0.301454,-0.169124 -0.110272,-0.03673 -0.22447,-0.06055 -0.335123,-0.09612 -0.161179,-0.0518 -0.319273,-0.132523 -0.424384,-0.26524 -0.0396,-0.05 -0.07068,-0.106098 -0.106097,-0.159145 -0.181374,-0.27164 -0.479761,-0.458059 -0.800492,-0.519838 -0.320731,-0.06178 -0.660375,-0.0023 -0.950094,0.148502 -0.391527,0.203825 -0.692988,0.57863 -0.795721,1.007913 -0.02163,0.09039 -0.03477,0.182624 -0.05603,0.273098 -0.02126,0.09047 -0.05122,0.180282 -0.103115,0.257383 -0.06833,0.101524 -0.173413,0.176746 -0.290127,0.213543 -0.116715,0.0368 -0.244286,0.03578 -0.361915,0.002 -0.117629,-0.03376 -0.225226,-0.0996 -0.312541,-0.185347 -0.08732,-0.08574 -0.15459,-0.191025 -0.200629,-0.304412 -0.09208,-0.226775 -0.09842,-0.481257 -0.05759,-0.722582 0.04084,-0.241324 0.126675,-0.472453 0.214885,-0.70076 0.132285,-0.342382 0.273208,-0.693998 0.26524,-1.060961 -0.0035,-0.160896 -0.03576,-0.319673 -0.05097,-0.479887 -0.01521,-0.160214 -0.01231,-0.327007 0.05097,-0.474979 0.04965,-0.116114 0.133629,-0.213975 0.221458,-0.304716 0.08783,-0.09074 0.181292,-0.176977 0.255975,-0.278812 0.0804,-0.109625 0.137849,-0.237069 0.159144,-0.371337 0.01113,-0.07018 0.01237,-0.142219 0,-0.212192 -0.02667,-0.150837 -0.113774,-0.282703 -0.189864,-0.415643 -0.03805,-0.06647 -0.07391,-0.134635 -0.09859,-0.207136 -0.02468,-0.0725 -0.03795,-0.149835 -0.02983,-0.225991 0.0033,-0.03114 0.01018,-0.06259 0.0049,-0.09346 -0.0026,-0.01544 -0.0084,-0.03055 -0.01831,-0.04269 -0.0099,-0.01214 -0.0241,-0.0211 -0.03965,-0.02299 -0.0088,-0.0011 -0.01773,8.7e-5 -0.02657,9.38e-4 -0.0088,8.5e-4 -0.0179,0.0014 -0.02648,-9.38e-4 -0.0073,-0.002 -0.01405,-0.006 -0.01949,-0.01129 -0.0054,-0.0053 -0.0096,-0.01184 -0.01238,-0.0189 -0.0056,-0.01412 -0.0056,-0.02997 -0.0024,-0.04481 0.0063,-0.0297 0.02436,-0.05547 0.03432,-0.08414 0.0166,-0.04779 0.0094,-0.101703 -0.01202,-0.147543 -0.02141,-0.04584 -0.05599,-0.08439 -0.09408,-0.117697 -0.03784,-0.03309 -0.08055,-0.0628 -0.106097,-0.106097 -0.01863,-0.03156 -0.02671,-0.06814 -0.03247,-0.104328 -0.0058,-0.03619 -0.0095,-0.07293 -0.02058,-0.107864 -0.01848,-0.05842 -0.05712,-0.109515 -0.105516,-0.147089 -0.04839,-0.03758 -0.106204,-0.06204 -0.165993,-0.07542 -0.119579,-0.02677 -0.244234,-0.01005 -0.365068,0.01032 -0.34085,0.05746 -0.689731,0.149561 -0.954865,0.371336 -0.03843,0.03214 -0.07489,0.0669 -0.106096,0.106097 -0.08113,0.101889 -0.123459,0.22944 -0.149235,0.357108 -0.02578,0.127669 -0.03655,0.258027 -0.06296,0.385565 -0.03262,0.157499 -0.09319,0.316181 -0.212192,0.424384 -0.117439,0.106781 -0.277818,0.152161 -0.434419,0.178045 -0.156602,0.02588 -0.317145,0.03603 -0.467398,0.0872 -0.233142,0.07939 -0.422053,0.250347 -0.636577,0.371336 -0.332204,0.187358 -0.720709,0.252077 -1.060962,0.424385 -0.246102,0.124628 -0.461071,0.302539 -0.698902,0.442305 -0.118915,0.06988 -0.244216,0.130437 -0.37701,0.167722 -0.132795,0.03729 -0.273645,0.05076 -0.409434,0.02655 -0.126125,-0.02248 -0.245082,-0.07689 -0.352262,-0.147069 -0.10718,-0.07018 -0.203264,-0.155994 -0.294823,-0.245605 -0.183118,-0.179222 -0.35314,-0.377596 -0.573021,-0.509144 -0.05485,-0.03282 -0.113133,-0.06172 -0.159144,-0.106096 -0.04272,-0.0412 -0.07278,-0.0939 -0.09591,-0.148552 -0.02313,-0.05465 -0.03985,-0.111761 -0.05967,-0.167702 -0.01982,-0.05594 -0.04306,-0.11133 -0.07772,-0.159507 -0.03466,-0.04818 -0.08173,-0.08905 -0.138046,-0.107768 -0.01924,-0.0064 -0.03932,-0.01016 -0.05828,-0.01732 -0.01897,-0.0072 -0.03733,-0.01838 -0.04781,-0.03573 -0.0094,-0.01554 -0.01153,-0.03452 -0.01005,-0.05262 0.0015,-0.01809 0.0063,-0.03571 0.01005,-0.05348 0.01911,-0.09165 0.0066,-0.190812 -0.04108,-0.271409 -0.04763,-0.0806 -0.131365,-0.140577 -0.22416,-0.152975 -0.02107,-0.0028 -0.0427,-0.0033 -0.0628,-0.01023 -0.01005,-0.0035 -0.01965,-0.0085 -0.02746,-0.01575 -0.0078,-0.0072 -0.01374,-0.01665 -0.01583,-0.02707 -0.0017,-0.0087 -8.04e-4,-0.0177 1.11e-4,-0.02653 9.15e-4,-0.0088 0.0018,-0.01784 -1.11e-4,-0.02652 -0.0023,-0.01031 -0.0084,-0.01956 -0.01629,-0.02654 -0.0079,-0.007 -0.01755,-0.01182 -0.02758,-0.01513 -0.02005,-0.0066 -0.04152,-0.0073 -0.06223,-0.01138 -0.06196,-0.01225 -0.114335,-0.05488 -0.152712,-0.10505 -0.03838,-0.05017 -0.06494,-0.108124 -0.09402,-0.164195 -0.02908,-0.05607 -0.06181,-0.111764 -0.109343,-0.153362 -0.02376,-0.0208 -0.05111,-0.0378 -0.08102,-0.04794 -0.02991,-0.01014 -0.06245,-0.01324 -0.09339,-0.0069 -0.0089,0.0018 -0.01771,0.0044 -0.02678,0.0053 -0.0091,8.38e-4 -0.01867,-2.58e-4 -0.02627,-0.0053 -0.0079,-0.0052 -0.01274,-0.01412 -0.01447,-0.02337 -0.0017,-0.0093 -5.77e-4,-0.01884 0.0017,-0.02798 0.0023,-0.0091 0.0056,-0.01798 0.0083,-0.02699 0.0027,-0.009 0.0048,-0.01835 0.0045,-0.02775 -5.68e-4,-0.01692 -0.0091,-0.03293 -0.02107,-0.04488 -0.01199,-0.01195 -0.02724,-0.02016 -0.04302,-0.02628 -0.03156,-0.01223 -0.0664,-0.01692 -0.09505,-0.03494 -0.01709,-0.01075 -0.03117,-0.02585 -0.04228,-0.04271 -0.0111,-0.01686 -0.01932,-0.03547 -0.02608,-0.05448 -0.01352,-0.03804 -0.0214,-0.07808 -0.03774,-0.115 -0.03061,-0.06919 -0.08846,-0.122292 -0.14783,-0.169199 -0.05937,-0.04691 -0.122587,-0.0905 -0.170458,-0.14909 -0.06163,-0.07543 -0.09336,-0.170059 -0.133996,-0.25858 -0.02032,-0.04426 -0.04326,-0.08764 -0.07315,-0.126094 -0.02989,-0.03845 -0.0671,-0.07197 -0.111142,-0.09276 -0.06379,-0.03011 -0.13738,-0.03188 -0.203615,-0.05616 -0.03312,-0.01214 -0.0648,-0.03042 -0.08732,-0.05756 -0.01126,-0.01357 -0.02009,-0.02926 -0.02508,-0.04617 -0.005,-0.01692 -0.006,-0.03507 -0.0023,-0.0523 0.0041,-0.01883 0.0138,-0.03612 0.01753,-0.05503 0.0019,-0.0095 0.0022,-0.01937 -5.06e-4,-0.02863 -0.0027,-0.0093 -0.0086,-0.0178 -0.01702,-0.02244 -0.0079,-0.0043 -0.01734,-0.005 -0.02632,-0.0042 -0.009,8.45e-4 -0.01777,0.0031 -0.02673,0.0042 -0.02921,0.0035 -0.05923,-0.0058 -0.08312,-0.02296 -0.02389,-0.01716 -0.04188,-0.04176 -0.05375,-0.06868 -0.02374,-0.05383 -0.02344,-0.114782 -0.02227,-0.173604 0.0038,-0.19454 0.01262,-0.389361 0,-0.583529 -0.02787,-0.428917 -0.171105,-0.865547 -0.477433,-1.167058 -0.02323,-0.02286 -0.0474,-0.04499 -0.0673,-0.07079 -0.0199,-0.02581 -0.03553,-0.05593 -0.0388,-0.08835 -0.0027,-0.0267 0.0031,-0.05342 0.0066,-0.08002 0.0035,-0.0266 0.0046,-0.05477 -0.0066,-0.07913 -0.01058,-0.0229 -0.03079,-0.0397 -0.05091,-0.05491 -0.02012,-0.01521 -0.04128,-0.03014 -0.05518,-0.05119 -0.01244,-0.01884 -0.0182,-0.04152 -0.01937,-0.06407 -0.0012,-0.02255 0.002,-0.0451 0.0063,-0.06727 0.0086,-0.04434 0.02156,-0.08955 0.01306,-0.133898 -0.0061,-0.03171 -0.02285,-0.06046 -0.04263,-0.08599 -0.01977,-0.02553 -0.04271,-0.04843 -0.06347,-0.07316 -0.06062,-0.07221 -0.101963,-0.159423 -0.126666,-0.250406 -0.0247,-0.09098 -0.03318,-0.1858 -0.03248,-0.280075 5.24e-4,-0.07077 0.0061,-0.141691 0,-0.212192 -0.0098,-0.112315 -0.0495,-0.220783 -0.106096,-0.318289 -0.05205,-0.08968 -0.117989,-0.170348 -0.179775,-0.253621 -0.06179,-0.08327 -0.120268,-0.170709 -0.154534,-0.268575 -0.03427,-0.09787 -0.04255,-0.208075 -0.0042,-0.304416 0.01917,-0.04817 0.04987,-0.09205 0.09021,-0.124607 0.04035,-0.03256 0.09045,-0.05346 0.142199,-0.05669 0.01765,-0.0011 0.03536,-1.92e-4 0.05305,0 0.202899,0.0022 0.393098,-0.08908 0.583529,-0.159144 0.609768,-0.224338 1.273873,-0.244937 1.92357,-0.238721 0.649696,0.0062 1.299214,0.02653 1.94894,0.02653 h 0.636576 c 0.106167,0 0.212859,-0.01249 0.318289,0 0.166327,0.0197 0.312312,0.120175 0.434756,0.234458 0.122443,0.114282 0.229352,0.245482 0.360965,0.349071 0.262055,0.206257 0.598046,0.286215 0.916261,0.385983 0.159108,0.04988 0.31717,0.106357 0.462597,0.187932 0.145427,0.08158 0.27855,0.189623 0.371729,0.327903 0.03565,0.05291 0.06538,0.110027 0.106096,0.159144 0.04876,0.05881 0.111688,0.10419 0.176529,0.144593 0.06484,0.0404 0.132405,0.07657 0.194807,0.120647 0.163742,0.115653 0.284972,0.280332 0.424385,0.424385 0.185119,0.19128 0.404221,0.347557 0.636577,0.477433 0.145948,0.08158 0.299267,0.15433 0.424385,0.26524 0.131255,0.11635 0.227296,0.27125 0.371336,0.371337 0.03652,0.02537 0.0756,0.04682 0.112747,0.07126 0.03715,0.02444 0.07278,0.05231 0.09945,0.08789 0.02351,0.03137 0.03941,0.06787 0.06269,0.0994 0.01164,0.01576 0.02522,0.03032 0.04149,0.04125 0.01626,0.01093 0.03537,0.01813 0.05496,0.01849 0.01685,3.1e-4 0.03368,-0.0045 0.04817,-0.01307 0.01449,-0.0086 0.02666,-0.02094 0.03559,-0.03523 0.01786,-0.02858 0.02237,-0.06422 0.01686,-0.09747 -0.0055,-0.03325 -0.0204,-0.06435 -0.03883,-0.09256 -0.01844,-0.02821 -0.04045,-0.05388 -0.06179,-0.07996 -0.261421,-0.319632 -0.424161,-0.706576 -0.583422,-1.08755 -0.159261,-0.380975 -0.322086,-0.767896 -0.583636,-1.087422 -0.182735,-0.22324 -0.408453,-0.406929 -0.636577,-0.583529 C 28.426035,18.032094 27.90961,17.674712 27.319753,17.505859 26.678272,17.322228 25.98092,17.370977 25.356974,17.134523 25.089607,17.0332 24.838024,16.877369 24.6565,16.65646 c -0.181524,-0.220908 -0.287563,-0.5111 -0.254392,-0.795091 0.0036,-0.03057 0.0087,-0.06167 0.0027,-0.09187 -0.003,-0.0151 -0.0088,-0.0298 -0.01822,-0.04196 -0.0094,-0.01216 -0.02262,-0.02166 -0.03756,-0.02532 -0.01725,-0.0042 -0.0353,-5.89e-4 -0.05305,0 -0.04769,0.0016 -0.09493,-0.02001 -0.127633,-0.05476 -0.0327,-0.03475 -0.05118,-0.08172 -0.05463,-0.129312 -0.0034,-0.04759 0.0076,-0.09565 0.02814,-0.138729 0.02052,-0.04307 0.05027,-0.08134 0.08435,-0.114739 0.06816,-0.06679 0.152588,-0.113936 0.232843,-0.165568 0.08026,-0.05163 0.159311,-0.110699 0.208263,-0.192617 0.04833,-0.08088 0.0631,-0.176734 0.09292,-0.266113 0.01491,-0.04469 0.03398,-0.08849 0.06205,-0.126325 0.02807,-0.03784 0.06575,-0.06958 0.110269,-0.08499 0.01918,-0.0066 0.03935,-0.0102 0.0584,-0.01722 0.0095,-0.0035 0.01878,-0.0079 0.02706,-0.01377 0.0083,-0.0059 0.01558,-0.01327 0.02064,-0.02207 0.009,-0.01566 0.01031,-0.03464 0.0085,-0.05261 -0.0018,-0.01797 -0.0064,-0.03555 -0.0085,-0.05349 -0.0063,-0.054 0.01092,-0.109132 0.04105,-0.154392 0.03013,-0.04526 0.07241,-0.08136 0.118092,-0.110848 0.127407,-0.08225 0.279373,-0.114765 0.424384,-0.159144 0.547439,-0.167538 1.030965,-0.519857 1.591443,-0.636577 0.151539,-0.03156 0.306769,-0.04535 0.456235,-0.08559 0.149466,-0.04025 0.296959,-0.110935 0.392534,-0.232694 0.101663,-0.129515 0.132907,-0.302325 0.126523,-0.466851 -0.0064,-0.164526 -0.04668,-0.325559 -0.07347,-0.488014 -0.03504,-0.212428 -0.04732,-0.429457 -0.106096,-0.636577 -0.06238,-0.219818 -0.175915,-0.423814 -0.223685,-0.647263 -0.02388,-0.111724 -0.03073,-0.228595 -0.0054,-0.34 0.02533,-0.111406 0.08478,-0.217153 0.176038,-0.285891 0.06336,-0.047722 0.13883,-0.075941 0.212192,-0.1060962 0.197867,-0.081332 0.389922,-0.1822744 0.551989,-0.3219178 0.162068,-0.1396434 0.293329,-0.320517 0.349828,-0.5268515 0.03307,-0.1207531 0.04003,-0.2468174 0.05305,-0.3713365 0.01578,-0.1508619 0.04069,-0.3008614 0.04918,-0.4523083 0.0085,-0.1514469 4.3e-5,-0.3060329 -0.04918,-0.4495091 C 29.072476,7.6496656 28.979073,7.5178088 28.86464,7.4104879 28.750208,7.3031671 28.615131,7.219538 28.473312,7.1524552 28.189676,7.0182895 27.880249,6.9493687 27.584991,6.8431942 c -0.06002,-0.021584 -0.119788,-0.044808 -0.18224,-0.057787 -0.06245,-0.01298 -0.128534,-0.015285 -0.189096,0.00474 -0.04912,0.016241 -0.09234,0.046284 -0.134131,0.076777 -0.04179,0.030493 -0.08349,0.062151 -0.13111,0.082368 -0.06721,0.028534 -0.142099,0.032585 -0.212192,0.053048 -0.104299,0.030449 -0.194559,0.096131 -0.277428,0.1664027 -0.08287,0.070272 -0.161296,0.1467441 -0.253053,0.2049339 -0.138943,0.088114 -0.301488,0.1300681 -0.451254,0.1981808 -0.07488,0.034056 -0.147306,0.075172 -0.208752,0.1298685 -0.06145,0.054696 -0.111682,0.123757 -0.135715,0.2024315 -0.0082,0.026887 -0.01332,0.054616 -0.0205,0.081796 -0.0072,0.02718 -0.01663,0.054177 -0.03255,0.077348 -0.01829,0.026615 -0.04438,0.047043 -0.07224,0.063371 -0.02786,0.016328 -0.05772,0.028905 -0.08691,0.042725 -0.237962,0.1126834 -0.433064,0.3132755 -0.539103,0.5542721 -0.106038,0.2409965 -0.122116,0.5203594 -0.04443,0.7719299 -0.0097,-0.00758 -0.02162,-0.012341 -0.03389,-0.013562 -0.01227,-0.00122 -0.02487,0.0011 -0.0359,0.00661 -0.01103,0.00551 -0.02045,0.014201 -0.02683,0.024749 -0.0064,0.010548 -0.0097,0.022921 -0.0095,0.035248 1.67e-4,0.00896 0.0022,0.01778 0.0031,0.026693 9.51e-4,0.00891 7.8e-4,0.018281 -0.0031,0.026355 -0.0042,0.0088 -0.01264,0.015191 -0.02192,0.018234 -0.0093,0.00304 -0.01937,0.00297 -0.02897,0.00116 -0.01919,-0.00362 -0.03648,-0.013843 -0.05521,-0.019393 -0.02194,-0.0065 -0.04545,-0.00642 -0.06801,-0.00254 -0.02256,0.00387 -0.04431,0.011419 -0.06565,0.019677 -0.04269,0.016516 -0.08581,0.03634 -0.131579,0.035914 -0.04203,-3.913e-4 -0.08254,-0.018265 -0.115882,-0.043845 -0.03335,-0.025581 -0.06025,-0.058566 -0.08492,-0.09259 -0.02467,-0.034024 -0.04749,-0.069463 -0.07439,-0.1017584 -0.0269,-0.032295 -0.05836,-0.061689 -0.09614,-0.080095 -0.05036,-0.024532 -0.108931,-0.028213 -0.159144,-0.053048 -0.0328,-0.016225 -0.06091,-0.041062 -0.0836,-0.069776 -0.02269,-0.028714 -0.04015,-0.06127 -0.05451,-0.094933 -0.02872,-0.067326 -0.04535,-0.1393094 -0.07408,-0.2066279 -0.07188,-0.168403 -0.213273,-0.2954174 -0.321363,-0.4432116 -0.05405,-0.073897 -0.100598,-0.1548414 -0.123368,-0.2435159 -0.02277,-0.088675 -0.02015,-0.1860294 0.02035,-0.2681379 0.02843,-0.057638 0.07359,-0.1049267 0.115418,-0.1537176 0.04183,-0.048791 0.08194,-0.1020401 0.09678,-0.1645709 0.0082,-0.034724 0.0082,-0.071373 0,-0.1060962 0.03402,-0.02337 0.06198,-0.055487 0.08043,-0.092403 0.01846,-0.036916 0.02738,-0.078552 0.02566,-0.1197896 -0.0011,-0.026823 -0.0066,-0.053266 -0.0091,-0.079999 -0.0025,-0.026733 -0.0017,-0.054566 0.0091,-0.079146 0.01317,-0.029983 0.03999,-0.052028 0.06885,-0.067513 0.02886,-0.015484 0.0603,-0.025454 0.0903,-0.038583 0.102476,-0.044847 0.186219,-0.1263088 0.246332,-0.2206428 0.06011,-0.094334 0.09794,-0.201301 0.125004,-0.309838 0.04118,-0.1651874 0.05842,-0.3355239 0.09742,-0.5012405 0.039,-0.1657165 0.102715,-0.3310546 0.220865,-0.4536249 0.0696,-0.072206 0.156965,-0.1284772 0.212192,-0.2121923 0.01765,-0.02675 0.03159,-0.055736 0.0475,-0.083555 0.01591,-0.02782 0.03414,-0.054884 0.0586,-0.075589 0.0245,-0.020736 0.05414,-0.034199 0.08264,-0.048957 0.0285,-0.014758 0.05696,-0.031681 0.0765,-0.05714 0.02414,-0.03144 0.0321,-0.072451 0.05305,-0.1060962 0.02357,-0.037848 0.0619,-0.063854 0.100502,-0.086164 0.0386,-0.02231 0.07917,-0.042474 0.11169,-0.072981 0.05334,-0.050045 0.08004,-0.1268975 0.06958,-0.1992889 -0.01046,-0.072391 -0.05768,-0.1384187 -0.122632,-0.1720477 -0.04024,-0.020832 -0.08562,-0.029454 -0.130599,-0.034943 -0.04498,-0.00549 -0.09044,-0.00813 -0.134641,-0.018105 -0.08157,-0.018416 -0.15535,-0.060952 -0.23333,-0.091161 -0.03899,-0.015105 -0.07945,-0.02722 -0.121062,-0.031338 -0.04161,-0.00412 -0.08456,3.66e-5 -0.123041,0.016403 -0.04086,0.01738 -0.07479,0.047494 -0.107388,0.07765 -0.03259,0.030156 -0.06525,0.061305 -0.104804,0.081494 -0.04295,0.021928 -0.09147,0.029643 -0.138253,0.041359 -0.04678,0.011716 -0.09459,0.029012 -0.126988,0.064737 -0.0216,0.02382 -0.03461,0.053946 -0.04887,0.082769 -0.01426,0.028823 -0.03095,0.057838 -0.05723,0.076375 -0.02299,0.016218 -0.0512,0.022909 -0.07876,0.028543 -0.02756,0.00563 -0.05584,0.010754 -0.08038,0.024505 -0.02835,0.015885 -0.04957,0.042221 -0.06554,0.070532 -0.01596,0.028312 -0.02728,0.058948 -0.04056,0.088612 -0.09347,0.2087903 -0.280249,0.3614656 -0.477433,0.4774327 -0.08892,0.052295 -0.181463,0.098956 -0.26524,0.1591442 -0.112215,0.080619 -0.206546,0.1839696 -0.318289,0.2652404 -0.187004,0.1360078 -0.419714,0.2081401 -0.583529,0.3713365 -0.05324,0.053034 -0.09834,0.1149896 -0.159144,0.1591443 -0.0641,0.046549 -0.141507,0.070327 -0.212192,0.1060961 -0.13592,0.06878 -0.244695,0.180584 -0.371337,0.2652404 -0.290313,0.1940649 -0.660151,0.23707 -0.954865,0.4243847 -0.107724,0.068468 -0.203971,0.155414 -0.318289,0.2121923 -0.180997,0.089896 -0.391298,0.096788 -0.583529,0.1591442 -0.188353,0.061098 -0.354838,0.1738092 -0.53048,0.2652404 -0.114385,0.059544 -0.233339,0.1103658 -0.345042,0.1747987 -0.111704,0.064433 -0.217407,0.1440661 -0.291535,0.249586 -0.03725,0.053029 -0.06603,0.1118595 -0.106027,0.1628486 -0.02,0.025495 -0.04287,0.049004 -0.06958,0.067345 -0.02671,0.018341 -0.05744,0.031399 -0.08963,0.035046 -0.03518,0.00398 -0.07084,-0.00326 -0.106096,0 -0.04959,0.00458 -0.09677,0.030951 -0.126648,0.070789 -0.02988,0.039838 -0.04199,0.092518 -0.0325,0.1414033 -0.05644,0.00354 -0.111869,0.02202 -0.159144,0.053048 -0.08384,0.05503 -0.137786,0.1449486 -0.212193,0.2121924 -0.09451,0.085415 -0.217784,0.1307366 -0.33894,0.170107 -0.121156,0.03937 -0.24583,0.075834 -0.350685,0.1481814 -0.08263,0.057015 -0.149312,0.1339309 -0.212192,0.2121924 -0.275919,0.343414 -0.502751,0.7352669 -0.848769,1.0079139 -0.03957,0.03118 -0.08173,0.062 -0.106097,0.106096 -0.01771,0.03205 -0.02463,0.06882 -0.03008,0.105024 -0.0054,0.03621 -0.0098,0.07302 -0.02297,0.107168 -0.02308,0.05965 -0.07094,0.105719 -0.106096,0.159144 -0.04631,0.07036 -0.07015,0.152898 -0.08978,0.234813 -0.01963,0.08192 -0.0359,0.165316 -0.06936,0.24262 -0.03967,0.09166 -0.10198,0.171302 -0.15654,0.254964 -0.05456,0.08366 -0.102878,0.175807 -0.1087,0.275517 -0.0046,0.07959 0.01816,0.158713 0.01528,0.238386 -0.0014,0.03984 -0.0096,0.08014 -0.02965,0.114615 -0.02001,0.03448 -0.05284,0.06263 -0.09172,0.07138 -0.01739,0.0039 -0.03566,0.0039 -0.05305,0 -0.01255,0.0036 -0.02416,0.01043 -0.03339,0.01966 -0.0092,0.0092 -0.01607,0.02084 -0.01966,0.03339 -0.0049,0.01709 -0.0038,0.03527 -0.0019,0.05295 0.0018,0.01768 0.0043,0.03553 0.0019,0.05315 -0.0026,0.01919 -0.0108,0.03736 -0.02211,0.05307 -0.01131,0.01571 -0.02561,0.02909 -0.04096,0.04088 -0.0307,0.02359 -0.06573,0.04114 -0.09608,0.06519 -0.06399,0.05072 -0.103912,0.130569 -0.106096,0.212192 z"
     id="path6"
     transform="matrix(0.95099005,0,0,0.95099005,0.05919758,0.45239895)" />
  <path
     style="display:inline;opacity:1;fill:#cad4df;fill-opacity:1;stroke:#cad4df;stroke-width:2;stroke-dasharray:none;stroke-opacity:1"
     d="m 48.538992,27.266713 c -0.745452,0.01495 -1.49226,-0.03839 -2.228019,-0.159145 -0.127647,-0.02095 -0.257446,-0.04476 -0.371337,-0.106096 -0.0909,-0.04895 -0.168427,-0.12039 -0.232774,-0.201134 -0.06435,-0.08074 -0.116049,-0.170826 -0.16264,-0.262964 -0.09318,-0.184276 -0.168163,-0.380253 -0.294211,-0.543815 -0.106976,-0.138813 -0.246366,-0.248474 -0.371336,-0.371337 -0.268739,-0.264209 -0.472834,-0.594624 -0.583529,-0.954865 -0.03782,-0.123072 -0.06487,-0.249364 -0.106096,-0.371337 -0.06635,-0.196315 -0.169166,-0.38082 -0.212192,-0.583529 -0.02597,-0.122353 -0.02946,-0.248501 -0.05305,-0.371336 -0.06021,-0.313573 -0.246659,-0.586811 -0.4398,-0.841074 -0.193141,-0.254263 -0.400628,-0.505327 -0.515065,-0.803417 -0.115708,-0.301401 -0.128628,-0.632804 -0.106096,-0.954865 0.0049,-0.07073 0.01151,-0.142226 0,-0.212192 -0.01552,-0.09437 -0.06279,-0.17997 -0.106096,-0.265241 -0.09997,-0.196847 -0.182996,-0.404448 -0.219402,-0.622205 -0.03641,-0.217756 -0.02426,-0.446989 0.06026,-0.650949 0.123012,-0.296843 0.391272,-0.517275 0.689626,-0.636577 0.447269,-0.178849 0.95301,-0.150554 1.409799,-0.303458 0.228395,-0.07645 0.44687,-0.202607 0.592251,-0.394631 0.07269,-0.09601 0.125875,-0.207555 0.148741,-0.32579 0.02287,-0.118234 0.01476,-0.243126 -0.02887,-0.355371 -0.06174,-0.158851 -0.188665,-0.282692 -0.319027,-0.392469 -0.130362,-0.109778 -0.269727,-0.212835 -0.370598,-0.350204 -0.08445,-0.115003 -0.138281,-0.249294 -0.212193,-0.371336 -0.143292,-0.2366 -0.357596,-0.420653 -0.53048,-0.636577 -0.406616,-0.507842 -0.570473,-1.172675 -0.954866,-1.697539 -0.194876,-0.26609 -0.446067,-0.495914 -0.583529,-0.795721 -0.03969,-0.08657 -0.0691,-0.177482 -0.106096,-0.26524 -0.128651,-0.305155 -0.346017,-0.564944 -0.583529,-0.795722 -0.585721,-0.569114 -1.301583,-0.983249 -2.015827,-1.37925 -0.608818,-0.3375491 -1.223015,-0.6666579 -1.856683,-0.9548651 -0.104501,-0.047529 -0.211487,-0.095209 -0.296312,-0.172568 -0.04241,-0.038679 -0.07875,-0.084666 -0.102399,-0.136969 -0.02365,-0.052303 -0.0342,-0.1111319 -0.02567,-0.1678957 0.0027,-0.017863 0.0072,-0.035457 0.0088,-0.05345 0.0016,-0.017993 2e-6,-0.036875 -0.0088,-0.052646 -0.0061,-0.01097 -0.01539,-0.019831 -0.02496,-0.027964 -0.0096,-0.00813 -0.01966,-0.015768 -0.02809,-0.025084 -0.01251,-0.013821 -0.021,-0.031032 -0.02561,-0.049091 -0.0046,-0.018059 -0.0054,-0.036959 -0.0037,-0.055521 0.0034,-0.037123 0.01673,-0.072502 0.02936,-0.1075804 0.127036,-0.3530726 0.196123,-0.7291503 0.371336,-1.0609615 0.04157,-0.078722 0.09017,-0.1559086 0.159145,-0.2121923 0.05663,-0.046214 0.12506,-0.076513 0.195798,-0.094931 0.07074,-0.018418 0.143982,-0.025357 0.217014,-0.028416 0.146064,-0.00612 0.294934,0.00273 0.435957,-0.035798 0.08128,-0.022207 0.157444,-0.059552 0.234961,-0.092578 0.07752,-0.033026 0.158324,-0.062207 0.242471,-0.066566 0.053,-0.00275 0.106256,0.00444 0.159145,0 0.101043,-0.00848 0.194767,-0.059266 0.271759,-0.1252486 0.07699,-0.065983 0.139444,-0.146932 0.201873,-0.2268334 0.06243,-0.079901 0.126106,-0.1600789 0.204903,-0.2238963 0.0788,-0.063817 0.174972,-0.1107932 0.27633,-0.1136468 0.101443,-0.00286 0.200747,0.039034 0.280242,0.1021163 0.0795,0.063082 0.140885,0.1462432 0.192683,0.2335116 0.103596,0.1745369 0.175688,0.3733041 0.322796,0.5131414 0.05457,0.051876 0.119197,0.09532 0.159145,0.1591443 0.02107,0.033659 0.03426,0.071511 0.04881,0.1084579 0.01455,0.036947 0.03102,0.073956 0.05729,0.1037344 0.04238,0.048041 0.104989,0.071878 0.159144,0.1060961 0.106081,0.067028 0.179318,0.1737881 0.26524,0.2652404 0.220398,0.2345847 0.529195,0.370222 0.843621,0.4390773 0.314427,0.068855 0.63848,0.076525 0.960014,0.091404 0.255457,0.011821 0.521151,0.031371 0.742673,0.1591442 0.127801,0.073715 0.234943,0.1811666 0.314579,0.3053649 0.07964,0.1241984 0.132211,0.2648309 0.160922,0.4095472 0.05742,0.2894327 0.01999,0.5901521 -0.05112,0.8765303 -0.0087,0.03523 -0.01804,0.07059 -0.02047,0.106815 -0.0024,0.03622 0.0024,0.07386 0.02047,0.105377 0.01247,0.02181 0.03065,0.03977 0.04962,0.05624 0.01897,0.01647 0.03901,0.0318 0.05647,0.04985 0.05548,0.05734 0.08042,0.136656 0.106096,0.212193 0.138806,0.408388 0.349892,0.795255 0.424385,1.220106 0.04163,0.237447 0.03923,0.480029 0.04753,0.720955 0.0083,0.240927 0.02821,0.48516 0.11161,0.711343 0.03295,0.08936 0.07552,0.175037 0.106096,0.26524 0.06355,0.187522 0.07334,0.388258 0.106096,0.583529 0.0773,0.460799 0.292225,0.904302 0.636577,1.220106 0.157131,0.144104 0.339827,0.261533 0.477433,0.424384 0.133356,0.157821 0.217498,0.350113 0.318288,0.530481 0.135752,0.242934 0.307148,0.470541 0.530481,0.636577 0.03048,0.02266 0.06192,0.04418 0.09024,0.0695 0.02831,0.02532 0.05366,0.05486 0.06891,0.08965 0.01469,0.03354 0.01942,0.07043 0.02464,0.106671 0.0052,0.03624 0.01134,0.07313 0.02841,0.105522 0.01759,0.03337 0.04572,0.05988 0.07472,0.084 0.029,0.02412 0.0596,0.04674 0.08443,0.07514 0.03408,0.03899 0.0557,0.08703 0.07757,0.133971 0.02187,0.04694 0.04513,0.09448 0.08158,0.131269 0.02837,0.02863 0.06356,0.0495 0.09947,0.06779 0.03591,0.01829 0.07302,0.03434 0.107616,0.05502 0.03459,0.02067 0.06702,0.04648 0.08903,0.08023 0.01101,0.01688 0.01928,0.03563 0.0234,0.05536 0.0041,0.01972 0.004,0.04043 -0.0012,0.05988 -0.005,0.01865 -0.01463,0.03596 -0.0181,0.05496 -0.0017,0.0095 -0.0019,0.01944 9.42e-4,0.02868 0.0028,0.0092 0.0087,0.01773 0.01715,0.02246 0.0079,0.0044 0.01732,0.0053 0.02633,0.0046 0.009,-7.55e-4 0.01781,-0.003 0.02672,-0.0046 0.03431,-0.0059 0.07022,-3.11e-4 0.101943,0.01403 0.03172,0.01434 0.05929,0.03722 0.08073,0.06464 0.04288,0.05485 0.06051,0.125982 0.06274,0.195568 0.0045,0.139172 -0.04787,0.276921 -0.03322,0.415392 0.0147,0.138973 0.09475,0.261415 0.175466,0.375496 0.08072,0.114081 0.166539,0.230541 0.19587,0.367177 0.02607,0.12143 0.0049,0.247239 0,0.371337 -0.01135,0.285463 0.06354,0.566268 0.106097,0.848769 0.06428,0.426661 0.05687,0.870607 0.212192,1.273154 0.03429,0.08886 0.07624,0.174793 0.106096,0.26524 0.08106,0.24558 0.06915,0.51191 0.03564,0.768342 -0.03351,0.256433 -0.08778,0.511442 -0.08869,0.770053 -5.61e-4,0.159798 0.0193,0.31888 0.02936,0.478362 0.01006,0.159483 0.01006,0.321642 -0.02936,0.476503 -0.0318,0.124917 -0.08887,0.243593 -0.106096,0.371337 -0.02368,0.175651 0.02975,0.355754 0,0.53048 -0.02013,0.118234 -0.07713,0.22655 -0.114159,0.340628 -0.01851,0.05704 -0.03212,0.116187 -0.03314,0.176147 -0.001,0.05996 0.01108,0.120995 0.0412,0.17285 0.0105,0.01807 0.02336,0.0356 0.0269,0.0562 0.0018,0.0103 9.98e-4,0.02123 -0.0035,0.03064 -0.0023,0.0047 -0.0055,0.009 -0.0095,0.01235 -0.004,0.0034 -0.0088,0.0058 -0.0139,0.0069 -0.0088,0.0019 -0.01785,-3.64e-4 -0.0267,-0.0019 -0.0044,-7.84e-4 -0.0089,-0.0014 -0.01339,-0.0013 -0.0045,1.34e-4 -0.009,0.0011 -0.01296,0.0032 -0.0042,0.0023 -0.0076,0.0059 -0.0099,0.01004 -0.0023,0.0042 -0.0035,0.0089 -0.0039,0.0136 -7.26e-4,0.0095 0.002,0.01888 0.0053,0.02777 0.0034,0.0089 0.0075,0.01754 0.0097,0.02677 0.0023,0.0092 0.0027,0.0193 -0.0013,0.02793 -0.0022,0.0047 -0.0056,0.0088 -0.0096,0.01212 -0.004,0.0033 -0.0087,0.0058 -0.01354,0.0076 -0.0097,0.0037 -0.02019,0.0048 -0.03052,0.006 -0.01033,0.0012 -0.0208,0.0025 -0.03039,0.0065 -0.0048,0.002 -0.0093,0.0047 -0.01319,0.0082 -0.0039,0.0035 -0.007,0.0078 -0.0089,0.01266 -0.0032,0.0083 -0.0023,0.01761 -0.0011,0.02645 0.0012,0.0088 0.0028,0.01786 0.0011,0.0266 -0.0021,0.01023 -0.0087,0.01917 -0.01705,0.02545 -0.0083,0.0063 -0.01829,0.01011 -0.0284,0.0127 -0.02023,0.0052 -0.04186,0.0058 -0.06065,0.01489 -0.02128,0.01031 -0.03635,0.03049 -0.04603,0.05206 -0.0097,0.02157 -0.01473,0.04487 -0.02128,0.06759 -0.0065,0.02272 -0.01494,0.04551 -0.03008,0.06366 -0.0076,0.0091 -0.0168,0.01688 -0.02739,0.02212 -0.01059,0.0052 -0.02259,0.0079 -0.03436,0.0068 -0.0099,-9.4e-4 -0.01931,-0.0044 -0.02845,-0.0083 -0.0091,-0.0039 -0.01815,-0.0081 -0.02771,-0.01078 -0.0096,-0.0026 -0.01987,-0.0036 -0.02935,-6.4e-4 -0.0047,0.0015 -0.0092,0.0039 -0.01285,0.0072 -0.0036,0.0034 -0.0064,0.0077 -0.0077,0.01248 -0.0012,0.0044 -0.0012,0.009 -5.67e-4,0.01346 5.87e-4,0.0045 0.0017,0.0089 0.0027,0.01329 9.45e-4,0.0044 0.0017,0.0089 0.0016,0.01343 -1.23e-4,0.0045 -0.0012,0.0091 -0.0037,0.01287 -0.0027,0.004 -0.0069,0.007 -0.01144,0.0085 -0.0046,0.0016 -0.0095,0.0018 -0.01435,0.0012 -0.0096,-0.0012 -0.0184,-0.0058 -0.02726,-0.0097 -0.0347,-0.0153 -0.07329,-0.0217 -0.111075,-0.01843 -0.03779,0.0033 -0.0747,0.01621 -0.106254,0.03725 -0.03156,0.02104 -0.0577,0.05013 -0.07525,0.08375 -0.01755,0.03362 -0.02648,0.0717 -0.02571,0.10962 z"
     id="path7"
     transform="matrix(0.95099005,0,0,0.95099005,0.05919758,0.45239895)" />
  <path
     style="display:inline;opacity:1;fill:none;fill-opacity:1;stroke:#95aabf;stroke-width:2;stroke-dasharray:none;stroke-opacity:1"
     d="m 12.201058,31.457511 c 0.09245,-0.615682 -0.08521,-1.267091 -0.477433,-1.750587 -0.04036,-0.04975 -0.08366,-0.09914 -0.106096,-0.159144 -0.0256,-0.06847 -0.02207,-0.145985 -0.05305,-0.212192 -0.02163,-0.04623 -0.05987,-0.08447 -0.106096,-0.106096 -0.04619,-0.06459 -0.08214,-0.136487 -0.106096,-0.212193 -0.0698,-0.220587 -0.03555,-0.45892 -0.05305,-0.689625 -0.03286,-0.433235 -0.248742,-0.838988 -0.265241,-1.273154 -0.0047,-0.123719 0.007,-0.247725 0,-0.371336 -0.01331,-0.235862 -0.09403,-0.462782 -0.189683,-0.678786 -0.09566,-0.216005 -0.207186,-0.42534 -0.287749,-0.647416 -0.0842,-0.232099 -0.135372,-0.47964 -0.265241,-0.689625 -0.08806,-0.142377 -0.211374,-0.265881 -0.26524,-0.424385 C 9.9857514,24.124294 9.9880255,23.99608 9.973035,23.871636 9.9360497,23.5646 9.7930719,23.277389 9.7608426,22.969818 c -0.00923,-0.08809 -0.00923,-0.177148 0,-0.26524 C 9.7457134,22.416272 9.6920411,22.130013 9.6017023,21.855809 9.5246228,21.621851 9.4212962,21.397443 9.3364619,21.166184 9.1996862,20.793332 9.1108699,20.390676 9.1773177,19.999126 c 0.046863,-0.276144 0.1682876,-0.532944 0.2652404,-0.795721 0.093962,-0.25467 0.1661446,-0.530996 0.1060961,-0.795722 -0.00806,-0.03555 -0.018499,-0.07077 -0.02167,-0.107093 -0.00317,-0.03632 0.00158,-0.07468 0.02167,-0.105099 0.013848,-0.02097 0.033996,-0.03684 0.053629,-0.05253 0.019633,-0.01569 0.039502,-0.03204 0.052467,-0.05357 0.014542,-0.02415 0.019198,-0.05275 0.024357,-0.08047 0.00516,-0.02771 0.011549,-0.0563 0.028691,-0.07868 0.00981,-0.0128 0.02273,-0.02295 0.036566,-0.03123 0.013836,-0.0083 0.028639,-0.0148 0.043378,-0.02135 0.014739,-0.0065 0.029507,-0.01316 0.043238,-0.02162 0.013731,-0.0085 0.026476,-0.01886 0.035961,-0.0319 0.011704,-0.01609 0.017934,-0.03539 0.02467,-0.05412 0.00674,-0.01872 0.014482,-0.03774 0.028378,-0.05198 0.0099,-0.01015 0.022512,-0.01737 0.035784,-0.02237 0.013273,-0.005 0.027249,-0.0078 0.041243,-0.01013 0.027988,-0.0046 0.057078,-0.0072 0.082117,-0.02055 0.02633,-0.014 0.04561,-0.03865 0.05928,-0.06515 0.01366,-0.02651 0.02239,-0.05522 0.03278,-0.08317 0.01039,-0.02795 0.02281,-0.05575 0.04252,-0.07813 0.0099,-0.01119 0.02149,-0.02091 0.0347,-0.02784 0.0132,-0.0069 0.028,-0.01101 0.04291,-0.01096 0.01824,6.5e-5 0.03586,0.0062 0.05385,0.0092 0.009,0.0015 0.0182,0.0022 0.02724,0.001 0.009,-0.0012 0.01795,-0.0045 0.025,-0.01024 0.0079,-0.0065 0.01308,-0.01578 0.01639,-0.02546 0.0033,-0.0097 0.0049,-0.01983 0.0068,-0.02987 0.0019,-0.01004 0.0042,-0.02013 0.0088,-0.02928 0.0046,-0.0091 0.01167,-0.01735 0.02102,-0.02149 0.0084,-0.0037 0.01808,-0.0039 0.02717,-0.0024 0.0091,0.0015 0.01783,0.0047 0.02665,0.0074 0.0088,0.0027 0.01791,0.005 0.02713,0.0048 0.0092,-2.12e-4 0.01869,-0.0032 0.02515,-0.0098 0.0065,-0.0066 0.0092,-0.01611 0.0093,-0.02533 5.7e-5,-0.0092 -0.0024,-0.01826 -0.0051,-0.02706 -0.0028,-0.0088 -0.0059,-0.01754 -0.0073,-0.02665 -0.0014,-0.0091 -9.83e-4,-0.01878 0.0031,-0.02705 0.0043,-0.0088 0.01262,-0.01541 0.02188,-0.01876 0.0093,-0.0034 0.01942,-0.0037 0.02914,-0.0021 0.01944,0.0031 0.03688,0.01335 0.05507,0.02087 0.04592,0.01898 0.09816,0.02064 0.146262,0.0082 0.0481,-0.01245 0.09212,-0.03853 0.128836,-0.07202 0.07342,-0.06697 0.116487,-0.160647 0.149287,-0.254455 0.0315,-0.0901 0.05589,-0.184057 0.106096,-0.26524 0.04654,-0.07527 0.113457,-0.136404 0.159144,-0.212193 0.04925,-0.0817 0.0715,-0.176337 0.106096,-0.26524 0.05766,-0.148185 0.14947,-0.280063 0.233868,-0.414823 0.0844,-0.13476 0.163371,-0.277273 0.190517,-0.433946 0.01842,-0.106309 0.01283,-0.218174 0.05305,-0.318289 0.03787,-0.09425 0.112418,-0.168166 0.185153,-0.239063 0.07273,-0.0709 0.147544,-0.144434 0.186183,-0.238369 0.02777,-0.06752 0.03504,-0.14144 0.05305,-0.212193 0.0549,-0.215682 0.205695,-0.39155 0.318289,-0.583529 0.196905,-0.335736 0.278569,-0.726823 0.318288,-1.114009 0.01675,-0.163323 0.02818,-0.332923 0.106097,-0.477433 0.03028,-0.05615 0.06976,-0.106708 0.106096,-0.159144 0.131932,-0.19037 0.223627,-0.408728 0.26524,-0.636577 0.01933,-0.105842 0.028,-0.213654 0.05305,-0.318289 0.04066,-0.169818 0.123174,-0.326259 0.206632,-0.479641 0.08346,-0.153382 0.169361,-0.307446 0.217753,-0.475224 0.05608,-0.1944209 0.06163,-0.4062287 0.159144,-0.5835289 0.01916,-0.034831 0.0416,-0.067748 0.06139,-0.1022216 0.01979,-0.034474 0.03707,-0.070959 0.0447,-0.1099707 0.01361,-0.069577 -0.0043,-0.1414261 0,-0.2121924 0.0044,-0.072968 0.03219,-0.1421298 0.05305,-0.2121923 0.06637,-0.2228785 0.06371,-0.459509 0.06534,-0.6920531 0.0016,-0.232544 0.0092,-0.4706005 0.0938,-0.6871969 0.06704,-0.1715394 0.180161,-0.3222264 0.311312,-0.4515301 0.131151,-0.1293037 0.280478,-0.2385762 0.431361,-0.3441911 0.208939,-0.1462532 0.422033,-0.2864856 0.636577,-0.4243847 0.328896,-0.2113991 0.673916,-0.4221308 1.060961,-0.4774327 0.299197,-0.04275 0.602569,0.010654 0.901817,0.053048 0.407539,0.057736 0.835321,0.09311 1.220106,-0.053048 0.147972,-0.056206 0.284743,-0.1376597 0.424385,-0.2121923 0.67838,-0.3620802 1.431227,-0.563822 2.121923,-0.9018173 1.071806,-0.524493 1.96389,-1.3614825 3.023741,-1.9097309 0.218657,-0.1131089 0.446299,-0.2151352 0.636577,-0.3713365 0.06852,-0.056248 0.132725,-0.1198546 0.212192,-0.1591443 0.115667,-0.057188 0.251952,-0.057139 0.371336,-0.1060961 0.09554,-0.039177 0.175671,-0.107771 0.265241,-0.1591443 0.151361,-0.086814 0.326043,-0.1225806 0.498239,-0.1507798 0.172197,-0.028199 0.347291,-0.050597 0.509674,-0.1144605 0.08871,-0.034888 0.173029,-0.081953 0.265241,-0.1060962 0.154813,-0.040533 0.317967,-0.013454 0.477432,0 0.476511,0.040204 0.95418,-0.044079 1.432299,-0.053048 0.584045,-0.010955 1.167643,0.090543 1.750586,0.053048 0.05305,-0.00341 0.106583,-0.00796 0.159144,0 0.05912,0.00895 0.114887,0.033461 0.166841,0.06306 0.05195,0.029599 0.100734,0.064407 0.151448,0.096084 0.345122,0.2155742 0.762239,0.277017 1.167058,0.3182885 0.859116,0.087588 1.742101,0.1097347 2.546307,0.4243846 0.214108,0.083771 0.420199,0.1875222 0.636577,0.2652404 0.229992,0.082608 0.469799,0.135152 0.700763,0.2150017 0.230963,0.07985 0.457772,0.1907404 0.625439,0.3685272 0.03436,0.036436 0.06629,0.075704 0.106096,0.1060962 0.03161,0.024137 0.06782,0.042239 0.106097,0.053048 0.119029,0.07114 0.22685,0.1609912 0.318288,0.2652404 0.07467,0.085136 0.138239,0.1794785 0.212192,0.2652404 0.148502,0.1722152 0.336013,0.3065145 0.530481,0.4243847 1.021557,0.6191834 2.240878,0.8100846 3.342029,1.2731539 0.263868,0.1109648 0.524061,0.2395923 0.742673,0.4243846 0.08662,0.073218 0.167037,0.1554527 0.265241,0.2121923 0.131039,0.075711 0.284694,0.1009197 0.424384,0.1591442 0.131744,0.054912 0.249191,0.1383537 0.371337,0.2121924 0.440302,0.2661682 0.947169,0.4103094 1.37925,0.689625 0.287284,0.1857128 0.540611,0.4347504 0.689625,0.7426731 0.09022,0.1864277 0.14027,0.3893075 0.212192,0.5835289 0.09948,0.2686453 0.24183,0.5219008 0.424385,0.7426731 0.167577,0.2026587 0.367752,0.3769569 0.530481,0.5835289 0.140431,0.178266 0.253563,0.381082 0.424384,0.530481 0.05322,0.04655 0.111506,0.08737 0.16158,0.137279 0.05007,0.04991 0.09249,0.111195 0.103661,0.181009 0.0084,0.05247 -0.0013,0.106028 0,0.159144 0.0019,0.07617 0.02639,0.150123 0.05773,0.21957 0.03134,0.06945 0.06965,0.135562 0.101413,0.204815 0.150927,0.329036 0.145651,0.705131 0.212192,1.060962 0.09985,0.533923 0.361991,1.022008 0.530481,1.538394 0.05069,0.155352 0.09313,0.314536 0.106096,0.477433 0.01416,0.177858 -0.0063,0.362208 0.05305,0.53048 0.0475,0.13474 0.142091,0.246852 0.212193,0.371337 0.10495,0.186369 0.154802,0.40036 0.26524,0.583529 0.07859,0.130339 0.185787,0.241525 0.26524,0.371336 0.06196,0.101222 0.106058,0.212147 0.159145,0.318289 0.184751,0.369392 0.477642,0.679748 0.636577,1.060961 0.173079,0.415137 0.173349,0.87811 0.212192,1.326202 0.05077,0.585718 0.171523,1.16408 0.212192,1.750587 0.03305,0.476694 0.013,0.95614 0.05305,1.432298 0.03732,0.443749 0.126636,0.882075 0.159145,1.326202 0.0207,0.282783 0.01832,0.567364 0.05305,0.848769 0.05909,0.478768 0.2253,0.954457 0.159144,1.432299 -0.0554,0.400189 -0.27061,0.765875 -0.318289,1.167057 -0.01486,0.125008 -0.01312,0.251361 -0.02193,0.37694 -0.0088,0.125578 -0.02889,0.25263 -0.08416,0.365733 -0.06353,0.129996 -0.169538,0.233775 -0.277533,0.330067 -0.107995,0.09629 -0.221272,0.18922 -0.305996,0.30651 -0.107228,0.148443 -0.162518,0.327144 -0.215049,0.502568 -0.05253,0.175425 -0.105585,0.354452 -0.209335,0.505346 -0.08808,0.128103 -0.210592,0.23129 -0.348825,0.302423 -0.138232,0.07113 -0.291846,0.110663 -0.446896,0.121962 -0.05786,0.0042 -0.116398,0.0046 -0.172904,0.01775 -0.02825,0.0066 -0.05591,0.01633 -0.08104,0.0308 -0.02514,0.01447 -0.04773,0.03376 -0.06434,0.05754 -0.02268,0.03246 -0.03338,0.07174 -0.05305,0.106096 -0.03747,0.06544 -0.103874,0.107849 -0.159144,0.159144 -0.140695,0.130576 -0.209387,0.319366 -0.318289,0.477433 -0.192172,0.27893 -0.506542,0.457695 -0.689625,0.742673 -0.101615,0.158169 -0.157314,0.340976 -0.205043,0.522814 -0.04773,0.181838 -0.08915,0.366707 -0.166293,0.538147 -0.127083,0.282414 -0.345305,0.515632 -0.477433,0.795722 -0.08345,0.176904 -0.13058,0.3683 -0.193523,0.553496 -0.06294,0.185195 -0.145164,0.369593 -0.28391,0.507465 -0.0533,0.05296 -0.114556,0.09867 -0.159144,0.159144 -0.04703,0.06379 -0.0728,0.140275 -0.106096,0.212193 -0.127361,0.275069 -0.363445,0.481186 -0.583529,0.689625 -0.448727,0.424983 -0.858561,0.896765 -1.167058,1.432298 -0.08337,0.144733 -0.159847,0.294805 -0.26524,0.424385 -0.06401,0.0787 -0.137866,0.148783 -0.205579,0.224326 -0.06771,0.07554 -0.13015,0.158113 -0.165758,0.253106 -0.02561,0.06833 -0.03662,0.14109 -0.05305,0.212193 -0.08215,0.355435 -0.31358,0.679195 -0.636577,0.848769 -0.238632,0.125282 -0.513625,0.163884 -0.783079,0.169848 -0.269454,0.006 -0.538961,-0.01866 -0.808363,-0.0107 -0.250489,0.0074 -0.500133,0.04306 -0.742673,0.106096 -0.117982,-0.0654 -0.242608,-0.118815 -0.371337,-0.159144 -0.412535,-0.129242 -0.859566,-0.121017 -1.282177,-0.02998 -0.422611,0.09104 -0.823931,0.261998 -1.211082,0.45436 -0.297703,0.147918 -0.589867,0.309519 -0.901818,0.424384 -0.321321,0.118315 -0.665597,0.188117 -0.954865,0.371337 -0.286042,0.181177 -0.495092,0.458651 -0.742673,0.689625 -0.321052,0.299517 -0.708517,0.521218 -1.11401,0.689625 -0.263874,0.109591 -0.536679,0.197719 -0.795721,0.318288 -0.229742,0.106931 -0.448807,0.239409 -0.689625,0.318289 -0.138623,0.04541 -0.28247,0.07236 -0.424385,0.106096 -0.179703,0.04272 -0.356735,0.09645 -0.530481,0.159144 -0.458477,0.165437 -0.898927,0.394604 -1.37925,0.477433 -0.674279,0.116275 -1.361269,-0.06593 -2.015827,-0.26524 -0.615936,-0.187553 -1.22789,-0.392012 -1.856682,-0.530481 -0.247268,-0.05445 -0.496822,-0.09862 -0.742674,-0.159144 -0.516758,-0.127214 -1.01534,-0.326214 -1.538394,-0.424385 -0.177338,-0.03328 -0.357441,-0.05497 -0.530481,-0.106096 -0.144939,-0.04282 -0.282999,-0.105745 -0.424384,-0.159144 C 22.148784,41.08152 21.604294,41.01213 21.113146,40.793971 20.574418,40.554678 20.128783,40.149756 19.6278,39.839105 19.350922,39.667418 19.056814,39.524401 18.783352,39.347324 18.50989,39.170247 18.25316,38.953691 18.089406,38.672048 c -0.05964,-0.102573 -0.106033,-0.212189 -0.159144,-0.318289 -0.254652,-0.508716 -0.660876,-0.929194 -1.11401,-1.273154 -0.523055,-0.397035 -1.123811,-0.710848 -1.538394,-1.220106 -0.159782,-0.19627 -0.287209,-0.416418 -0.431337,-0.624454 -0.144128,-0.208036 -0.309271,-0.407897 -0.523529,-0.542603 -0.120765,-0.07593 -0.254946,-0.129717 -0.371336,-0.212193 -0.12461,-0.0883 -0.229163,-0.209463 -0.371337,-0.26524 -0.104853,-0.04114 -0.221381,-0.0428 -0.328076,-0.07889 -0.05335,-0.01805 -0.10466,-0.04531 -0.14327,-0.0863 -0.01931,-0.0205 -0.03524,-0.04431 -0.04575,-0.07043 -0.01051,-0.02612 -0.01551,-0.05458 -0.01338,-0.08266 6.75e-4,-0.0089 0.0021,-0.01771 0.0026,-0.0266 5.2e-4,-0.0089 1.55e-4,-0.01797 -0.0026,-0.02645 -0.0032,-0.01 -0.0096,-0.01872 -0.01751,-0.02555 -0.0079,-0.0068 -0.01733,-0.01177 -0.02717,-0.01532 -0.01967,-0.0071 -0.04081,-0.0087 -0.06142,-0.01218 -0.07438,-0.01258 -0.143456,-0.0508 -0.19721,-0.103729 -0.05376,-0.05293 -0.09254,-0.12009 -0.116361,-0.191671 -0.04764,-0.143163 -0.03581,-0.299628 -0.0047,-0.447273 0.0093,-0.04425 0.02034,-0.08837 0.0235,-0.133475 0.0032,-0.04511 -0.002,-0.09196 -0.0235,-0.131765 -0.01525,-0.0283 -0.03791,-0.05173 -0.05868,-0.07627 -0.02077,-0.02454 -0.04035,-0.05152 -0.04741,-0.08288 -0.0077,-0.03418 3.32e-4,-0.07009 0.01324,-0.102658 0.0129,-0.03257 0.03061,-0.06307 0.04344,-0.09567 0.01283,-0.0326 0.0207,-0.06857 0.01277,-0.102693 -0.004,-0.01706 -0.01195,-0.03334 -0.02395,-0.04609 -0.01201,-0.01275 -0.02815,-0.02182 -0.0455,-0.02423 -0.01754,-0.0024 -0.03544,0.0018 -0.05305,0 -0.01288,-0.0014 -0.02535,-0.006 -0.03622,-0.01307 -0.01087,-0.0071 -0.02014,-0.01646 -0.02743,-0.02717 -0.01458,-0.02142 -0.02101,-0.04765 -0.0216,-0.07355 -0.0012,-0.05181 0.0196,-0.101193 0.0322,-0.151455 0.02475,-0.09869 0.01757,-0.205123 -0.02022,-0.29959 -0.03779,-0.09447 -0.105987,-0.176495 -0.191971,-0.230891 z"
     id="path5"
     transform="matrix(0.95099005,0,0,0.95099005,0.05919758,0.45239895)" />
  <path
     style="display:inline;opacity:1;fill:none;fill-opacity:1;stroke:#1c3c55;stroke-width:2;stroke-dasharray:none;stroke-opacity:1"
     d="M 10.609616,9.0712215 C 10.149059,9.1737815 9.6892912,9.2798818 9.2303658,9.38951 9.0469461,9.4333253 8.8629192,9.477831 8.6751971,9.4958026 8.487475,9.5137743 8.2945172,9.5043739 8.1163561,9.4425581 7.9667533,9.390651 7.832305,9.3037269 7.6919715,9.2303658 7.2337485,8.9908242 6.7155915,8.8970953 6.2066252,8.8059811 5.7140607,8.7178031 5.2204278,8.6290822 4.721279,8.5937888 4.5707112,8.5831426 4.4182583,8.5774742 4.2698505,8.605026 4.1214426,8.6325778 3.975876,8.6959837 3.8725098,8.8059811 c -0.06785,0.072203 -0.1151895,0.1618083 -0.147856,0.2553491 -0.032666,0.093541 -0.051259,0.1913599 -0.067088,0.2891679 -0.031659,0.1956159 -0.054877,0.3993087 -0.1563924,0.5694927 -0.032668,0.054766 -0.072795,0.1047622 -0.1060961,0.1591442 -0.097094,0.158558 -0.1319259,0.34656 -0.1591443,0.530481 -0.065087,0.439806 -0.096453,0.892195 0,1.326202 0.086347,0.388533 0.2713461,0.746595 0.4243847,1.114009 0.1275096,0.306124 0.2343785,0.624687 0.2652403,0.954866 0.010051,0.107531 0.012506,0.218186 0.053048,0.318288 0.030859,0.07619 0.082436,0.142347 0.1394902,0.201528 0.057055,0.05918 0.1200333,0.112326 0.1787983,0.169809 0.1344232,0.131491 0.2456627,0.284508 0.3713366,0.424385 0.3263223,0.363201 0.7466092,0.634304 1.0609615,1.007913 0.2101193,0.249728 0.3685233,0.541112 0.4774327,0.848769 0.2021193,0.570964 0.235865,1.195161 0.4774328,1.750587 0.1870763,0.430136 0.49374,0.8024 0.8560337,1.100322 0.3622938,0.297923 0.779406,0.524014 1.2128413,0.703313 0.1081542,0.04474 0.2178479,0.08686 0.3199603,0.144058 0.1021125,0.0572 0.1973572,0.130763 0.2635686,0.227278 0.054034,0.07876 0.086907,0.169897 0.1158091,0.260936 0.028902,0.09104 0.054612,0.183647 0.096383,0.269545 0.060368,0.124141 0.1532342,0.23108 0.2619655,0.316125 0.1087314,0.08505 0.2330974,0.148758 0.3625414,0.196712 0.258886,0.09591 0.535838,0.129226 0.807791,0.176788 0.93901,0.164222 1.839108,0.504128 2.705452,0.901817 0.23976,0.11006 0.481788,0.226035 0.742674,0.265241 0.04113,0.0062 0.08302,0.01053 0.121883,0.02535 0.01943,0.0074 0.03799,0.01746 0.05383,0.03092 0.01585,0.01347 0.02893,0.03045 0.03648,0.04982 0.0068,0.01753 0.009,0.03668 0.0078,0.05545 -0.0013,0.01877 -0.0059,0.0372 -0.01232,0.05489 -0.01283,0.03537 -0.03262,0.06774 -0.04849,0.101858 -0.06896,0.148316 -0.05946,0.32506 0,0.477433 0.05191,0.133019 0.13846,0.249056 0.212192,0.371336 0.142977,0.237121 0.238642,0.49965 0.371337,0.742674 0.253711,0.464661 0.634653,0.844663 1.007913,1.220105 0.123418,0.12414 0.246578,0.248544 0.371337,0.371337 0.214998,0.211609 0.436332,0.419685 0.689625,0.583529 0.60732,0.392849 1.350021,0.503426 2.068875,0.583529 0.231338,0.02578 0.463833,0.04953 0.689625,0.106096 0.39282,0.09841 0.753545,0.292885 1.114009,0.477433 0.39521,0.202337 0.797127,0.395498 1.220106,0.53048 0.674597,0.215279 1.389296,0.278439 2.068875,0.477433 0.3919,0.114756 0.77042,0.274216 1.167058,0.371337 0.438121,0.107278 0.893664,0.137299 1.326202,0.26524 0.268192,0.07933 0.524856,0.19558 0.795721,0.26524 0.141274,0.03633 0.286028,0.05988 0.424385,0.106097 0.165284,0.05521 0.318103,0.141618 0.477433,0.212192 0.411187,0.182133 0.861626,0.257018 1.309255,0.300336 0.447628,0.04332 0.898484,0.05681 1.343149,0.124048 0.49529,0.07489 0.984444,0.216486 1.485346,0.212193 0.230231,-0.002 0.462032,-0.03481 0.689625,0 0.144222,0.02206 0.282826,0.07077 0.424384,0.106096 0.29629,0.07394 0.604607,0.089 0.901818,0.159144 0.24037,0.05673 0.47161,0.1492 0.689625,0.265241 0.337953,0.17988 0.642727,0.414903 0.954865,0.636577 0.260606,0.185077 0.528956,0.362375 0.820981,0.492339 0.292024,0.129963 0.610287,0.211585 0.929606,0.197286 0.0551,-0.0025 0.110342,-0.0078 0.165279,-0.0029 0.05494,0.0049 0.110552,0.02076 0.153009,0.05596 0.01926,0.01597 0.03528,0.03543 0.05305,0.05305 0.0608,0.0603 0.141119,0.09788 0.223797,0.120208 0.08268,0.02233 0.168424,0.0304 0.253636,0.03894 0.874073,0.08757 1.742002,0.23303 2.599356,0.424385 0.525827,0.11736 1.052824,0.252664 1.591442,0.26524 0.141428,0.0033 0.282931,-0.0019 0.424385,0 0.515758,0.0069 1.025115,0.108162 1.538394,0.159144 0.827539,0.0822 1.661649,0.05305 2.49326,0.05305 h 0.583529 c 0.03564,0 0.07122,0.0024 0.106656,0.0062 0.01772,0.0019 0.03549,0.0038 0.05331,0.0035 0.01782,-2.65e-4 0.03583,-0.0028 0.05223,-0.0097 0.03017,-0.01281 0.0523,-0.03973 0.0677,-0.06867 0.0154,-0.02893 0.0252,-0.06047 0.0384,-0.09048 0.05162,-0.117313 0.154187,-0.206741 0.268815,-0.264076 0.114629,-0.05734 0.24145,-0.08553 0.367762,-0.10726 0.106008,-0.01824 0.212743,-0.03231 0.318289,-0.05305 0.563161,-0.110685 1.072712,-0.4072 1.538394,-0.742673 0.193712,-0.139548 0.38415,-0.288792 0.530481,-0.477432 0.129156,-0.166498 0.220125,-0.358711 0.327064,-0.540279 0.106939,-0.181568 0.23555,-0.358173 0.415609,-0.467635 0.101413,-0.06165 0.215554,-0.09972 0.318288,-0.159144 0.111063,-0.06424 0.206316,-0.151931 0.305902,-0.23283 0.09959,-0.0809 0.207126,-0.156947 0.330675,-0.191555 0.107395,-0.03008 0.220825,-0.0272 0.331766,-0.03863 0.05547,-0.0057 0.110883,-0.01514 0.163434,-0.03379 0.05255,-0.01865 0.10234,-0.04689 0.141377,-0.08672 0.02655,-0.02708 0.04765,-0.05894 0.07172,-0.08824 0.02408,-0.0293 0.05222,-0.05679 0.08742,-0.0709 0.03439,-0.01378 0.07246,-0.01369 0.109368,-0.01685 0.01846,-0.0016 0.03694,-0.004 0.05464,-0.0095 0.0177,-0.0055 0.03468,-0.01403 0.04818,-0.0267 0.01456,-0.01366 0.02455,-0.03152 0.03228,-0.04992 0.0077,-0.01841 0.01341,-0.03761 0.02077,-0.05617 0.02928,-0.07381 0.08459,-0.13531 0.149055,-0.181663 0.06447,-0.04635 0.138013,-0.07856 0.212682,-0.105566 0.149337,-0.05402 0.310012,-0.09095 0.433984,-0.190204 0.07887,-0.06314 0.138072,-0.148491 0.179875,-0.240462 0.0418,-0.09197 0.06692,-0.190692 0.08537,-0.290019 0.04016,-0.216223 0.05185,-0.444609 0.159144,-0.636577 0.0743,-0.13293 0.189886,-0.239001 0.26524,-0.371336 0.0492,-0.0864 0.07999,-0.181774 0.116336,-0.274321 0.03635,-0.09255 0.07978,-0.184692 0.148905,-0.25616 0.07092,-0.07333 0.165034,-0.120558 0.262071,-0.15203 0.09704,-0.03147 0.198066,-0.04838 0.297844,-0.06961 0.09978,-0.02123 0.199727,-0.0473 0.289724,-0.09533 0.09,-0.04803 0.17015,-0.120167 0.211322,-0.213503 0.03922,-0.08892 0.04038,-0.191968 0.01364,-0.285404 -0.02674,-0.09343 -0.07994,-0.177784 -0.144587,-0.250352 C 56.872542,26.798016 56.70031,26.699414 56.549254,26.577091 56.3638,26.426913 56.210406,26.24088 56.071822,26.04661 55.917606,25.830427 55.77891,25.601004 55.594389,25.410033 c -0.24417,-0.252704 -0.560026,-0.428999 -0.795721,-0.689625 -0.06393,-0.07069 -0.121501,-0.147126 -0.188423,-0.214993 -0.06692,-0.06787 -0.145,-0.127877 -0.235962,-0.156344 -0.05359,-0.01677 -0.111834,-0.0228 -0.159144,-0.05305 -0.04227,-0.02703 -0.0709,-0.07034 -0.106096,-0.106096 -0.08737,-0.08877 -0.212315,-0.128405 -0.33372,-0.156257 -0.121404,-0.02785 -0.247273,-0.04804 -0.355905,-0.108983 -0.05245,-0.02942 -0.09942,-0.06762 -0.150343,-0.0996 -0.05092,-0.03199 -0.107825,-0.05822 -0.167946,-0.05954 -0.03545,-7.77e-4 -0.07136,0.0071 -0.106096,0 -0.0327,-0.0067 -0.06152,-0.02631 -0.08538,-0.04966 -0.02386,-0.02335 -0.04349,-0.05058 -0.06452,-0.0765 -0.02103,-0.02592 -0.04399,-0.051 -0.07254,-0.06832 -0.01427,-0.0087 -0.02987,-0.01528 -0.04622,-0.01862 -0.01635,-0.0033 -0.03348,-0.0033 -0.04963,9.02e-4 -0.01899,0.005 -0.03622,0.01566 -0.05545,0.01963 -0.0096,0.002 -0.01978,0.0022 -0.0291,-8.69e-4 -0.0047,-0.0015 -0.0091,-0.0039 -0.01282,-0.0071 -0.0037,-0.0032 -0.0068,-0.0072 -0.0087,-0.01169 -0.0035,-0.0082 -0.003,-0.01755 -0.0018,-0.0264 0.0012,-0.0089 0.0029,-0.01778 0.0018,-0.02665 -9.91e-4,-0.0079 -0.0043,-0.01539 -0.0091,-0.02165 -0.0049,-0.0063 -0.01126,-0.01127 -0.01837,-0.01479 -0.01421,-0.007 -0.0309,-0.0079 -0.04647,-0.0049 -0.03113,0.006 -0.05716,0.02647 -0.08516,0.04136 -0.04159,0.02212 -0.0894,0.03238 -0.136409,0.02929 -0.047,-0.0031 -0.09306,-0.01954 -0.13139,-0.04692 -0.03833,-0.02738 -0.06883,-0.06561 -0.087,-0.10907 -0.01817,-0.04346 -0.02397,-0.09202 -0.01654,-0.138534"
     id="path8"
     transform="matrix(0.95099005,0,0,0.95099005,0.05919758,0.45239895)" />
  <path
     style="display:inline;opacity:1;fill:none;fill-opacity:1;stroke:#f7931a;stroke-width:2;stroke-dasharray:none;stroke-opacity:1"
     d="m 48.59204,9.7608465 c 1.080408,0.2214923 2.159096,0.4513765 3.235933,0.6896255 0.09397,0.02079 0.192026,0.04363 0.265241,0.106096 0.04613,0.03936 0.07934,0.09243 0.100762,0.149168 0.02142,0.05673 0.03154,0.117188 0.03642,0.177635 0.0098,0.120894 -8.23e-4,0.243692 0.02196,0.362822 0.03259,0.17042 0.132209,0.322348 0.255361,0.44457 0.123152,0.122223 0.269648,0.217921 0.41602,0.311087 0.146373,0.09317 0.294655,0.185381 0.423077,0.302054 0.128422,0.116673 0.237315,0.26075 0.284792,0.427635 0.03986,0.140095 0.03467,0.289966 0.0062,0.432814 -0.02846,0.142847 -0.07945,0.280085 -0.130861,0.416363 -0.05141,0.136278 -0.103648,0.272936 -0.134752,0.415231 -0.03111,0.142294 -0.04047,0.291652 -0.0058,0.433131 0.03778,0.154378 0.125352,0.291158 0.211664,0.424613 0.08631,0.133455 0.174189,0.269963 0.21272,0.424156 0.03887,0.155532 0.02505,0.319583 0.05305,0.477432 0.04209,0.237266 0.176796,0.451269 0.212193,0.689626 0.02601,0.175151 -0.0031,0.353436 0,0.53048 0.0041,0.232929 0.06377,0.460793 0.09918,0.69105 0.03541,0.230257 0.04502,0.473808 -0.04613,0.6882 -0.06201,0.145857 -0.168267,0.272101 -0.212193,0.424385 -0.02984,0.103439 -0.02914,0.213321 -0.05305,0.318288 -0.0321,0.140917 -0.108903,0.270246 -0.212192,0.371337 -0.03578,0.03501 -0.07485,0.06699 -0.106096,0.106096 -0.04963,0.06212 -0.07683,0.13868 -0.103965,0.213417 -0.02713,0.07474 -0.05607,0.150961 -0.108228,0.210968 -0.04934,0.05676 -0.117476,0.09653 -0.159144,0.159144 -0.02199,0.03305 -0.03548,0.07087 -0.0499,0.107857 -0.01441,0.03699 -0.03036,0.0742 -0.0562,0.104335 -0.03379,0.0394 -0.0817,0.06354 -0.129087,0.08473 -0.04739,0.02118 -0.09647,0.04096 -0.136153,0.07442 -0.04917,0.04146 -0.07982,0.100441 -0.106097,0.159144 -0.02736,0.06111 -0.05192,0.124632 -0.09359,0.177036 -0.02083,0.0262 -0.04593,0.04936 -0.07524,0.06552 -0.02932,0.01616 -0.06302,0.02508 -0.09641,0.02269 -0.0089,-6.38e-4 -0.01771,-0.0021 -0.02661,-0.0026 -0.0089,-5.52e-4 -0.01799,-2.02e-4 -0.02644,0.0026 -0.0099,0.0033 -0.01846,0.0098 -0.02506,0.01787 -0.0066,0.008 -0.01128,0.01751 -0.01466,0.02734 -0.0068,0.01966 -0.0084,0.04067 -0.01333,0.06088 -0.01503,0.06218 -0.0595,0.113341 -0.109268,0.153533 -0.04977,0.04019 -0.105887,0.07192 -0.155972,0.111708 -0.139192,0.110588 -0.222344,0.274722 -0.318289,0.424384 -0.150989,0.235522 -0.34193,0.444866 -0.477433,0.689625 -0.07662,0.138398 -0.134586,0.286537 -0.212192,0.424385 -0.221929,0.394204 -0.58918,0.680947 -0.901817,1.007914 -0.141583,0.148073 -0.27333,0.306064 -0.425826,0.442871 -0.152497,0.136807 -0.329501,0.253374 -0.52904,0.299802 -0.247769,0.05765 -0.509391,0.0024 -0.745634,-0.09191 -0.236243,-0.09435 -0.455278,-0.226772 -0.686664,-0.332476 -0.233129,-0.106501 -0.48786,-0.186743 -0.742673,-0.159144 -0.19696,0.02133 -0.385417,0.106263 -0.583529,0.106096 -0.0531,-4.5e-5 -0.106415,-0.0062 -0.159144,0 -0.08702,0.0103 -0.166292,0.05361 -0.241597,0.09841 -0.07531,0.04481 -0.150792,0.09266 -0.235836,0.11378 -0.05239,0.01301 -0.106721,0.01541 -0.160508,0.01998 -0.05379,0.0046 -0.108252,0.0116 -0.15778,0.03307 -0.08142,0.03529 -0.141391,0.105648 -0.212193,0.159145 -0.152748,0.115415 -0.349838,0.148782 -0.53048,0.212192 -0.367179,0.128889 -0.67272,0.385848 -1.007914,0.583529 -0.224918,0.132646 -0.464436,0.23915 -0.689625,0.371336 -0.44605,0.261831 -0.826972,0.618769 -1.220106,0.954866 -0.600813,0.513646 -1.238977,0.985247 -1.803634,1.538394 -0.241568,0.236644 -0.470516,0.488913 -0.742674,0.689625 -0.142455,0.105058 -0.29656,0.195849 -0.424384,0.318289 -0.07227,0.06923 -0.135446,0.147961 -0.212192,0.212192 -0.10964,0.09176 -0.242448,0.150316 -0.371337,0.212192 -0.730551,0.350717 -1.384326,0.83945 -2.068875,1.273154 -0.389575,0.24682 -0.790391,0.476571 -1.167058,0.742673 -0.30064,0.212391 -0.585783,0.447851 -0.901817,0.636577 -0.482924,0.288387 -1.024867,0.460118 -1.538394,0.689625 -0.643134,0.287431 -1.245472,0.667302 -1.909731,0.901818 -0.756753,0.267171 -1.570299,0.337277 -2.334116,0.583528 -0.229059,0.07385 -0.453912,0.163602 -0.689625,0.212193 -0.486085,0.100203 -0.99011,0.02049 -1.485346,0.05305 -0.48185,0.03168 -0.951305,0.169431 -1.432298,0.212192 -0.194638,0.0173 -0.391104,0.01905 -0.583529,0.05305 -0.308803,0.05456 -0.597313,0.190319 -0.901817,0.265241 -0.3972,0.09773 -0.811381,0.08988 -1.220106,0.106096 -0.7441,0.02952 -1.483566,0.140562 -2.22802,0.159144 -0.813527,0.02031 -1.629438,-0.0699 -2.440211,0 -0.623016,0.05371 -1.234629,0.20134 -1.856683,0.26524 -0.493854,0.05073 -0.992249,0.04847 -1.485346,0.106097 -0.696123,0.08135 -1.373848,0.281094 -2.068875,0.371336 -0.790237,0.102604 -1.591495,0.06236 -2.3871638,0.106096 -0.3007454,0.01653 -0.6039941,0.04497 -0.9018173,0 C 8.4684839,36.364057 8.2948118,36.311115 8.1163561,36.284886 7.8881637,36.251347 7.655402,36.261941 7.4267311,36.231838 7.0650035,36.184218 6.7238784,36.036401 6.3657695,35.966598 5.8045422,35.857203 5.2088957,35.940483 4.668231,35.754405 4.3000124,35.627677 3.9854402,35.385213 3.6603175,35.170876 3.5123609,35.073336 3.359405,34.979709 3.2359328,34.852588 3.0857073,34.697923 2.9863684,34.500755 2.9104941,34.298933 2.8346197,34.09711 2.779999,33.887846 2.705452,33.68553 2.6473656,33.527887 2.5768541,33.373301 2.5463078,33.208097 2.505879,32.989445 2.5375787,32.764808 2.5635943,32.543978 2.58961,32.323147 2.609302,32.095144 2.5463078,31.881896 2.481586,31.662799 2.3356285,31.478861 2.2065934,31.290334 2.1420759,31.196071 2.0808697,31.098868 2.0355205,30.994027 c -0.045349,-0.10484 -0.074569,-0.218024 -0.072742,-0.332237 0.00288,-0.180093 0.082101,-0.353935 0.074274,-0.53388 -0.00391,-0.08997 -0.03178,-0.181847 -0.09362,-0.247317 -0.03092,-0.03274 -0.069959,-0.05817 -0.113155,-0.07089 -0.043196,-0.01272 -0.090523,-0.01235 -0.1327395,0.0033 -0.00889,0.0033 -0.017684,0.0073 -0.027102,0.0084 -0.00471,5.7e-4 -0.00955,4.01e-4 -0.014103,-9.25e-4 -0.00455,-0.0013 -0.00881,-0.0039 -0.011843,-0.0075 -0.00245,-0.003 -0.00404,-0.0066 -0.0047,-0.01036 -6.531e-4,-0.0038 -3.762e-4,-0.0077 6.698e-4,-0.01139 0.00209,-0.0074 0.0072,-0.01368 0.01344,-0.01814 0.00624,-0.0045 0.013553,-0.0072 0.020996,-0.0091 0.00744,-0.0019 0.015069,-0.0028 0.022639,-0.0041 0.080961,-0.01323 0.1567531,-0.05605 0.2098764,-0.11856 0.053123,-0.06251 0.083152,-0.144217 0.083152,-0.226252 0,-0.08204 -0.030029,-0.163742 -0.083152,-0.226253 -0.053123,-0.06251 -0.1289157,-0.105327 -0.2098764,-0.11856 -0.08566,-0.06232 -0.144469,-0.160332 -0.1591442,-0.26524 -0.011493,-0.08216 0.00315,-0.166122 0.028507,-0.245109 0.025357,-0.07899 0.061239,-0.154101 0.093694,-0.230447 0.032456,-0.07635 0.061773,-0.154948 0.072938,-0.237151 0.011166,-0.0822 0.00306,-0.168971 -0.035995,-0.242158 -0.014688,-0.02752 -0.033861,-0.05366 -0.0394,-0.08436 -0.00277,-0.01535 -0.00183,-0.03168 0.00478,-0.0458 0.00331,-0.0071 0.00801,-0.0135 0.01393,-0.01858 0.00592,-0.0051 0.01306,-0.0088 0.020689,-0.0104 0.00868,-0.0018 0.017687,-9.87e-4 0.026519,-9.3e-5 0.00883,8.95e-4 0.01782,0.0018 0.026529,9.3e-5 0.010457,-0.0021 0.019969,-0.0079 0.027286,-0.01568 0.00732,-0.0078 0.012526,-0.01733 0.016059,-0.02738 0.00706,-0.02011 0.00754,-0.04183 0.0097,-0.06304 0.010258,-0.100786 0.060179,-0.194843 0.1281404,-0.269972 0.067962,-0.07513 0.1532732,-0.132691 0.2423401,-0.180963 0.1781336,-0.09654 0.37696,-0.160513 0.5313368,-0.291738 0.1353539,-0.115055 0.2257146,-0.272766 0.3182885,-0.424385 0.1164393,-0.190706 0.2423424,-0.378931 0.4080777,-0.528794 0.1657353,-0.149862 0.3765099,-0.259676 0.5998358,-0.266927 0.035349,-0.0011 0.070729,2.52e-4 0.1060962,0 0.301463,-0.0022 0.5904859,-0.124252 0.8478263,-0.281289 0.2573404,-0.157036 0.4909942,-0.349912 0.743616,-0.514432 0.244453,-0.1592 0.5135194,-0.297911 0.6896251,-0.530481 0.049732,-0.06568 0.090835,-0.137482 0.1393483,-0.204065 0.048513,-0.06658 0.1059628,-0.129046 0.1789401,-0.167271 0.028763,-0.01507 0.059501,-0.02613 0.088091,-0.04152 0.028591,-0.01539 0.055675,-0.03598 0.071053,-0.06457 0.017449,-0.03245 0.017449,-0.07365 0,-0.106096 0.02085,0.0066 0.044233,0.0047 0.06379,-0.005 0.019557,-0.0098 0.035065,-0.02738 0.042307,-0.04801 0.00591,-0.01682 0.00639,-0.03508 0.00511,-0.05286 -0.00129,-0.01778 -0.00428,-0.03543 -0.00511,-0.05323 -0.00258,-0.05535 0.016128,-0.110335 0.046042,-0.15697 0.029914,-0.04664 0.070585,-0.08553 0.1142651,-0.119609 0.087361,-0.06817 0.1888036,-0.119536 0.264078,-0.200854 0.051871,-0.05604 0.08893,-0.123813 0.1274027,-0.189772 0.038473,-0.06596 0.079814,-0.131926 0.1378377,-0.181564 0.04345,-0.03717 0.094685,-0.06382 0.1428605,-0.09462 0.048176,-0.0308 0.094871,-0.06745 0.1223799,-0.117576 0.015812,-0.02881 0.02463,-0.06093 0.038949,-0.09051 0.00716,-0.01479 0.015756,-0.02901 0.026839,-0.04115 0.011083,-0.01213 0.024768,-0.02214 0.040308,-0.02748 0.017031,-0.0059 0.036017,-0.0059 0.053048,0 l 0.053048,-0.05305"
     id="path9"
     transform="matrix(0.95099005,0,0,0.95099005,0.05919758,0.45239895)" />
  <metadata
     id="metadata10">
    <rdf:RDF>
      <cc:Work
         rdf:about="">
        <dc:title>Worldwide</dc:title>
      </cc:Work>
    </rdf:RDF>
  </metadata>
</svg>
