<?xml version="1.0" encoding="UTF-8" standalone="no"?>
<!-- Created with Inkscape (http://www.inkscape.org/) -->

<svg
   width="260"
   height="200"
   viewBox="0 0 68.791668 52.916666"
   version="1.1"
   id="svg1"
   inkscape:version="1.3.2 (091e20e, 2023-11-25, custom)"
   sodipodi:docname="maincurd.svg"
   xmlns:inkscape="http://www.inkscape.org/namespaces/inkscape"
   xmlns:sodipodi="http://sodipodi.sourceforge.net/DTD/sodipodi-0.dtd"
   xmlns="http://www.w3.org/2000/svg"
   xmlns:svg="http://www.w3.org/2000/svg">
  <sodipodi:namedview
     id="namedview1"
     pagecolor="#ffffff"
     bordercolor="#000000"
     borderopacity="0.25"
     inkscape:showpageshadow="2"
     inkscape:pageopacity="0.0"
     inkscape:pagecheckerboard="0"
     inkscape:deskcolor="#d1d1d1"
     inkscape:document-units="mm"
     inkscape:zoom="2.955623"
     inkscape:cx="78.156111"
     inkscape:cy="95.918864"
     inkscape:window-width="2560"
     inkscape:window-height="1369"
     inkscape:window-x="-8"
     inkscape:window-y="-8"
     inkscape:window-maximized="1"
     inkscape:current-layer="svg1" />
  <defs
     id="defs1">
    <inkscape:path-effect
       effect="spiro"
       id="path-effect3"
       is_visible="true"
       lpeversion="1" />
    <inkscape:path-effect
       effect="spiro"
       id="path-effect2"
       is_visible="true"
       lpeversion="1" />
    <inkscape:path-effect
       effect="spiro"
       id="path-effect7"
       is_visible="true"
       lpeversion="1" />
    <rect
       x="253.59567"
       y="45.934307"
       width="690.92859"
       height="109.09398"
       id="rect6" />
    <inkscape:path-effect
       effect="spiro"
       id="path-effect6"
       is_visible="true"
       lpeversion="1" />
    <rect
       x="177.03848"
       y="55.503956"
       width="836.38721"
       height="112.92184"
       id="rect5" />
    <inkscape:path-effect
       effect="spiro"
       id="path-effect5"
       is_visible="true"
       lpeversion="1" />
    <inkscape:path-effect
       effect="spiro"
       id="path-effect4"
       is_visible="true"
       lpeversion="1" />
    <rect
       x="238.28423"
       y="58.374851"
       width="768.44269"
       height="93.782547"
       id="rect1" />
    <inkscape:path-effect
       effect="spiro"
       id="path-effect1"
       is_visible="true"
       lpeversion="1" />
  </defs>
  <path
     style="fill:#090c14;stroke:#090c14;stroke-width:1;fill-opacity:1;stroke-opacity:1"
     d="m 65.259084,49.503803 c -0.467643,0.118172 -0.964655,0.118172 -1.432298,0 -0.13293,-0.03359 -0.263679,-0.07657 -0.398585,-0.101053 -0.134905,-0.02448 -0.276345,-0.02977 -0.407084,0.01153 -0.127447,0.04026 -0.237175,0.12205 -0.358074,0.179035 -0.286863,0.135212 -0.620032,0.124185 -0.934436,0.08268 -0.314404,-0.04151 -0.629575,-0.110832 -0.945455,-0.08268 -0.457669,0.04079 -0.871398,0.281561 -1.25326,0.537112 -0.256275,0.171506 -0.511521,0.355031 -0.80567,0.447593 -0.375035,0.118016 -0.783612,0.07863 -1.16374,0.179038 -0.338177,0.08933 -0.642364,0.286343 -0.984705,0.358074 -0.293849,0.06157 -0.601413,0.02759 -0.895186,0.08952 -0.277263,0.05845 -0.530758,0.199889 -0.80567,0.268555 -0.494202,0.123439 -1.019645,0.0041 -1.521817,0.08952 -0.335665,0.05709 -0.650402,0.203966 -0.984705,0.268558 -0.528606,0.102133 -1.072988,-0.0062 -1.611334,0 -0.299769,0.0034 -0.597893,0.04249 -0.897102,0.06112 -0.299209,0.01864 -0.603663,0.01633 -0.893272,-0.06112 -0.119015,-0.03183 -0.235583,-0.07633 -0.358074,-0.08952 -0.1485,-0.01599 -0.298975,0.01485 -0.447593,0 -0.188521,-0.01884 -0.360964,-0.109274 -0.537112,-0.179038 -0.732191,-0.289986 -1.550786,-0.227941 -2.327484,-0.358074 -0.850246,-0.142456 -1.65151,-0.516334 -2.506522,-0.626631 -0.445023,-0.05741 -0.896572,-0.04219 -1.342779,-0.08952 -0.239254,-0.02538 -0.476454,-0.0687 -0.716148,-0.08952 -0.903578,-0.07851 -1.799674,0.163593 -2.68556,0.358073 -0.545463,0.119746 -1.099751,0.223654 -1.611337,0.447593 -0.208349,0.0912 -0.40911,0.202125 -0.626628,0.268555 -0.375673,0.114731 -0.779974,0.09021 -1.167521,0.02617 -0.387547,-0.06404 -0.769081,-0.166415 -1.159963,-0.205206 -0.534814,-0.05307 -1.07408,0.01405 -1.611337,0 -0.662971,-0.01734 -1.315516,-0.157859 -1.96941,-0.268558 -0.76878,-0.130148 -1.548829,-0.219743 -2.327484,-0.179035 -0.388565,0.02031 -0.774998,0.07299 -1.163742,0.08952 -0.927123,0.03943 -1.872396,-0.125602 -2.775078,0.08952 -0.459178,0.109428 -0.890054,0.313957 -1.342779,0.447593 -0.776511,0.229212 -1.59874,0.245015 -2.408189,0.227705 -0.80945,-0.01731 -1.623234,-0.06576 -2.425818,0.04085 -0.239613,0.03183 -0.477775,0.07745 -0.719039,0.09225 -0.241264,0.0148 -0.488837,-0.0025 -0.713259,-0.09225 -0.123953,-0.04959 -0.238239,-0.120187 -0.358074,-0.179038 -0.424021,-0.208236 -0.907082,-0.265045 -1.34278,-0.447593 -0.184683,-0.07738 -0.3592,-0.176672 -0.537112,-0.268554 -0.500666,-0.258568 -1.048041,-0.462568 -1.611335,-0.447593 -0.08958,0.0024 -0.179537,0.01028 -0.268556,0 -0.127112,-0.01469 -0.246936,-0.06579 -0.362543,-0.120637 -0.115607,-0.05485 -0.230117,-0.1144 -0.353606,-0.147921 -0.260663,-0.07076 -0.536328,-0.0202 -0.805668,0 -0.02982,0.0022 -0.0599,0.0041 -0.08952,0 -0.04257,-0.0059 -0.08312,-0.02409 -0.116974,-0.05056 -0.03385,-0.02647 -0.06109,-0.06102 -0.08065,-0.09928 -0.03912,-0.07653 -0.04708,-0.166061 -0.03672,-0.251381 0.02072,-0.17064 0.109944,-0.325645 0.144823,-0.493962 0.05063,-0.244326 -0.01977,-0.505555 -0.164853,-0.708556 C 9.8951841,48.323688 9.6806561,48.176411 9.4479013,48.0865 8.9823916,47.906679 8.4651373,47.94955 7.9671584,47.981988 c -1.265533,0.08243 -2.5677399,0.07482 -3.7597826,-0.358076 -0.1887185,-0.06853 -0.3744981,-0.147672 -0.570079,-0.193057 -0.195581,-0.04538 -0.4052203,-0.05527 -0.5936633,0.01402 -0.184891,0.06798 -0.3366365,0.207894 -0.4499744,0.369018 -0.113338,0.161123 -0.19184,0.343738 -0.2661747,0.526168 -0.04678,0.114806 -0.092994,0.234151 -0.089519,0.358074 8.378e-4,0.02988 0.00457,0.05998 0,0.08952 -0.00431,0.02786 -0.01607,0.05448 -0.033373,0.07674 -0.017302,0.02226 -0.040077,0.04017 -0.065583,0.05218 -0.051011,0.02404 -0.1121483,0.0236 -0.1643718,0.0023 -0.052223,-0.02128 -0.095401,-0.06236 -0.1227572,-0.111675 -0.027356,-0.04931 -0.039334,-0.106429 -0.038139,-0.162807 0.00239,-0.112757 0.055644,-0.218715 0.1218369,-0.310029 0.066193,-0.09131 0.1460392,-0.172033 0.2128682,-0.262883 0.096434,-0.131096 0.1654107,-0.28542 0.1790372,-0.447593 0.015032,-0.178898 -0.036872,-0.36141 0,-0.537112 0.023449,-0.111737 0.081302,-0.212731 0.137381,-0.31218 0.056079,-0.09945 0.1120734,-0.201888 0.131175,-0.314449 0.020006,-0.11789 -0.00185,-0.238515 0,-0.358076 0.00242,-0.156593 0.045561,-0.309852 0.099642,-0.456831 0.054081,-0.146978 0.1193974,-0.289777 0.1689137,-0.438355 0.1352013,-0.405684 0.1490315,-0.842684 0.2685557,-1.25326 0.1075278,-0.369368 0.2976928,-0.708106 0.4665466,-1.053769 0.1688537,-0.345664 0.31978,-0.710465 0.3391211,-1.094679 0.013519,-0.268554 -0.037845,-0.539449 0,-0.805667 0.047995,-0.337611 0.2364301,-0.645217 0.268556,-0.984705 0.014101,-0.149011 -0.00255,-0.298958 -0.014395,-0.448165 -0.011845,-0.149207 -0.018711,-0.301051 0.014395,-0.447021 0.020888,-0.0921 0.057247,-0.179807 0.089519,-0.268558 C 4.4945285,38.307573 4.5399678,37.716741 4.4887794,37.140681 4.437591,36.564621 4.2923829,36.000744 4.1178572,35.449377 3.7531382,34.297145 3.2594348,33.189934 2.8645964,32.047672 2.6439221,31.409265 2.4529283,30.752777 2.4170031,30.078262 2.3867323,29.509913 2.4662245,28.929392 2.3274844,28.377406 2.2477791,28.060293 2.0988107,27.765518 1.9874662,27.458084 1.8761216,27.15065 1.8022138,26.81513 1.8798913,26.497515 c 0.011005,-0.045 0.025033,-0.08957 0.02925,-0.135697 0.00422,-0.04613 -0.00238,-0.09513 -0.02925,-0.132859 -0.024535,-0.03445 -0.06339,-0.05627 -0.089519,-0.08952 -0.019072,-0.02427 -0.030639,-0.05392 -0.035923,-0.08433 -0.00528,-0.03041 -0.00449,-0.06163 -5.786e-4,-0.09225 0.00782,-0.06124 0.027887,-0.120361 0.036502,-0.181492 0.017601,-0.12489 -0.015217,-0.25616 -0.089519,-0.358074 -0.043589,-0.26679 -0.073481,-0.535817 -0.089519,-0.805668 -0.028335,-0.476755 -0.013418,-0.95489 0,-1.432298 0.024361,-0.866785 0.043416,-1.739163 -0.089519,-2.59604 -0.027826,-0.179364 -0.062264,-0.35766 -0.089519,-0.537112 -0.054087,-0.356119 -0.079368,-0.722873 0,-1.074224 0.033599,-0.14874 0.085934,-0.295148 0.089519,-0.447593 0.00176,-0.07493 -0.00836,-0.149558 -0.013849,-0.224308 -0.00549,-0.07475 -0.00621,-0.151067 0.013849,-0.223285 0.023388,-0.08422 0.073635,-0.158173 0.1256645,-0.228409 0.052029,-0.07024 0.1072088,-0.139391 0.1428915,-0.219184 0.06232,-0.13936 0.059804,-0.297853 0.089519,-0.447593 0.036646,-0.184666 0.1226742,-0.356081 0.2224895,-0.51571 0.099815,-0.159629 0.2141053,-0.309807 0.3146223,-0.468995 C 2.7857651,15.618864 2.958775,14.927149 3.0029802,14.237876 3.0471853,13.548604 2.9681583,12.857414 2.8645964,12.174534 2.7417248,11.364327 2.5841884,10.559767 2.4170031,9.7575311 2.3165469,9.275494 2.2123051,8.7931289 2.0589286,8.3252327 1.9335539,7.9427599 1.7725725,7.5658518 1.5218167,7.2510093 1.4286906,7.1340826 1.3229074,7.0251984 1.2532609,6.8929347 1.1953848,6.7830239 1.1643978,6.6590762 1.1637422,6.5348603 1.1340664,6.3758824 1.0728555,6.2228552 0.98470497,6.0872671 0.90335432,5.9621383 0.80001531,5.8526493 0.71614908,5.7291924 0.52187571,5.4432085 0.43991435,5.0901319 0.44759316,4.7444876 0.45531836,4.3967551 0.54888395,4.0575958 0.62712382,3.7186916 0.7053637,3.3797874 0.76900687,3.0293373 0.71614908,2.6855589 0.70693591,2.625638 0.69419972,2.5661183 0.690152,2.5056285 c -0.004048,-0.06049 0.001027,-0.1229 0.0259971,-0.1781441 0.0311045,-0.068817 0.0897923,-0.1204126 0.14420289,-0.1727838 0.0272053,-0.026186 0.0538364,-0.053213 0.0761128,-0.083702 0.0222764,-0.030489 0.0401782,-0.0647 0.0482402,-0.101589 0.0127817,-0.058485 2.61e-4,-0.1191724 0,-0.1790372 C 0.98408112,1.6472811 1.0529511,1.5142465 1.1198327,1.3877458 1.1867144,1.2612451 1.2550629,1.1277865 1.2532609,0.98470497 1.2524991,0.92421774 1.2390753,0.8646756 1.2325834,0.80453293 c -0.00649,-0.0601427 -0.00552,-0.12337755 0.020677,-0.1779025 0.019163,-0.0398841 0.051273,-0.0730836 0.089472,-0.0954178 0.038199,-0.0223342 0.082279,-0.0339771 0.1264999,-0.035567 0.088441,-0.00318 0.1748708,0.0333762 0.2454118,0.0868163 0.1410821,0.10688005 0.2220938,0.27419247 0.3442844,0.4022431 0.140761,0.14751173 0.3353579,0.23908163 0.5371118,0.26855593 0.2069644,0.030236 0.417479,-0.00205 0.6266303,0 0.1953644,0.00191 0.3890757,0.033808 0.5838392,0.049239 0.1947635,0.01543 0.394951,0.013719 0.5799031,-0.049239 0.121709,-0.04143 0.2329582,-0.1080487 0.348335,-0.1647733 0.1153768,-0.056725 0.2392492,-0.10453993 0.367814,-0.10378263 0.081064,4.775e-4 0.1613363,0.0203162 0.2423583,0.0176596 0.040511,-0.00133 0.081307,-0.00847 0.1179814,-0.0257307 0.036674,-0.0172603 0.069068,-0.0452237 0.087254,-0.0814476 0.015433,-0.0307407 0.020048,-0.0656056 0.030136,-0.0984902 0.00504,-0.0164423 0.011555,-0.0325861 0.021182,-0.0468381 0.00963,-0.0142521 0.022544,-0.0265884 0.0382,-0.0337089 0.013786,-0.00627 0.029205,-0.008304 0.044345,-0.007918 0.01514,3.8546e-4 0.030116,0.003103 0.044986,0.005974 0.01487,0.002872 0.029759,0.005912 0.044868,0.006957 0.015109,0.001045 0.030558,3.346e-5 0.044838,-0.005013 0.020207,-0.007141 0.036875,-0.0219088 0.050716,-0.0382706 0.013842,-0.0163618 0.025358,-0.0345587 0.038803,-0.0512481 0.050759,-0.0630085 0.1277673,-0.10178881 0.2075194,-0.11543152 0.079752,-0.0136427 0.1621603,-0.003664 0.2400248,0.0183276 0.155729,0.0439831 0.2945002,0.13433954 0.4476423,0.18662262 0.2560532,0.0874172 0.5354418,0.0636201 0.8037937,0.0290906 0.2683519,-0.0345296 0.541564,-0.0786971 0.8075418,-0.0290906 0.3070056,0.0572585 0.5845478,0.23638806 0.8951862,0.26855589 0.11882,0.0123043 0.2386467,0.002557 0.3580747,0 0.4204716,-0.009004 0.8369406,0.0711466 1.2540986,0.12459618 0.417158,0.05345 0.847736,0.079402 1.252423,-0.035078 0.118618,-0.033555 0.235236,-0.0791853 0.358075,-0.0895186 0.08925,-0.007507 0.179081,0.003921 0.268556,0 0.14215,-0.006229 0.279858,-0.051 0.41155,-0.1048756 0.131692,-0.0538756 0.259608,-0.11728455 0.394117,-0.16368029 0.411892,-0.14207214 0.861218,-0.11732295 1.294137,-0.0681285 0.432919,0.0491945 0.869443,0.12120479 1.301904,0.0681285 0.256251,-0.0314499 0.505243,-0.10630702 0.760158,-0.14720121 0.254914,-0.0408942 0.525105,-0.0457408 0.761658,0.0576825 0.197549,0.0863704 0.356064,0.2409972 0.537112,0.35807454 0.314798,0.20356863 0.699009,0.29438563 0.984705,0.53711173 0.105685,0.089789 0.194294,0.1976058 0.291229,0.2967778 0.09693,0.099172 0.205507,0.1917646 0.335401,0.2403341 0.115358,0.043134 0.241653,0.049346 0.358075,0.089519 0.126286,0.043577 0.235801,0.125222 0.358075,0.1790372 0.206847,0.091037 0.440176,0.098495 0.665987,0.089413 0.225812,-0.00908 0.453258,-0.033151 0.676792,1.064e-4 0.250801,0.037314 0.487364,0.1462779 0.695513,0.2910794 0.208149,0.1448014 0.38953,0.3248619 0.557748,0.5145882 0.134398,0.1515815 0.261296,0.3101093 0.404467,0.4534334 0.143171,0.1433241 0.304572,0.272302 0.490719,0.3522342 0.173533,0.074516 0.363619,0.104427 0.537112,0.1790375 0.184161,0.079198 0.346226,0.2073171 0.537112,0.2685558 0.257992,0.082767 0.536949,0.034649 0.805668,0 1.125716,-0.1451497 2.267813,-0.038643 3.401707,-0.089519 1.476504,-0.066248 2.926154,-0.3983836 4.386413,-0.6266304 0.416939,-0.06517 0.835143,-0.1219127 1.25326,-0.1790372 0.640652,-0.087528 1.291739,-0.1789498 1.879894,-0.4475933 0.20705,-0.094571 0.406371,-0.2111103 0.626629,-0.2685557 0.204332,-0.053292 0.418558,-0.053503 0.626631,-0.089519 0.261249,-0.04522 0.508998,-0.1460886 0.756625,-0.2408363 0.247627,-0.094748 0.500966,-0.1848256 0.765192,-0.2067568 0.178502,-0.014816 0.358006,0.00186 0.537112,0 0.52186,-0.00541 1.052085,-0.1796127 1.432298,-0.5371117 0.06149,-0.057818 0.118759,-0.1199556 0.179036,-0.1790373 0.299028,-0.2930974 0.672469,-0.5086613 1.074224,-0.62663043 0.518013,-0.15210641 1.069219,-0.14212244 1.607303,-0.0980848 0.538084,0.0440376 1.075966,0.12089045 1.615367,0.0980848 0.419019,-0.0177159 0.84476,-0.0949556 1.253262,0 0.275971,0.064149 0.529712,0.20433653 0.805667,0.26855593 0.291694,0.067882 0.595961,0.048256 0.894224,0.021184 0.298263,-0.027072 0.599341,-0.061175 0.896148,-0.021184 0.337551,0.04548 0.654579,0.184737 0.984705,0.2685558 0.616533,0.1565372 1.27753,0.1148764 1.879891,-0.089519 0.178811,-0.060675 0.353385,-0.1354578 0.537112,-0.1790372 0.52442,-0.1243906 1.072553,0.014224 1.611336,0 0.726906,-0.01919 1.422497,-0.31619465 2.148449,-0.35807458 0.479391,-0.0276559 0.957068,0.0567072 1.433469,0.11689728 0.476401,0.06019 0.96693,0.095512 1.431127,-0.0273786 0.08996,-0.023817 0.179091,-0.0535981 0.271736,-0.0624205 0.04632,-0.004411 0.09339,-0.003476 0.13893,0.006089 0.04554,0.009565 0.08956,0.0279598 0.126446,0.0563311 0.03349,0.0257622 0.06032,0.058983 0.08952,0.0895186 0.163339,0.1707886 0.400225,0.2548734 0.635016,0.2817346 0.234791,0.026861 0.471948,0.00225 0.707766,-0.013179 1.344843,-0.088001 2.688451,0.1234575 4.028337,0.2685559 0.238372,0.025814 0.481514,0.049333 0.71615,0 0.238841,-0.050217 0.457634,-0.1737869 0.696924,-0.2218196 0.119645,-0.024016 0.245294,-0.028404 0.362537,0.00545 0.117243,0.033851 0.225442,0.1089392 0.283318,0.2163733 0.03417,0.063423 0.04992,0.1359067 0.05058,0.2079445 6.67e-4,0.072038 -0.01337,0.143717 -0.03599,0.2121177 -0.04522,0.1368013 -0.123651,0.259661 -0.193634,0.3856055 -0.169611,0.305242 -0.296931,0.6417026 -0.537112,0.8951862 -0.116244,0.1226829 -0.256549,0.2229582 -0.358074,0.3580747 -0.149061,0.1983797 -0.204953,0.4490253 -0.286833,0.683267 -0.08188,0.2342417 -0.202155,0.4530468 -0.339798,0.6595124 l -0.179036,0.2685558 c -9.86e-4,-0.011054 -0.0062,-0.021673 -0.01443,-0.029164 -0.0082,-0.00749 -0.01923,-0.01178 -0.03033,-0.01178 -0.0111,0 -0.02214,0.00429 -0.03033,0.01178 -0.0082,0.00749 -0.01344,0.01811 -0.01443,0.029164 -6.97e-4,0.00781 6.6e-4,0.015665 0.0026,0.023254 0.002,0.00759 0.0045,0.015013 0.0064,0.022638 0.0018,0.00762 0.0029,0.015554 0.0017,0.02331 -0.0011,0.00776 -0.0047,0.015369 -0.01074,0.020317 -0.006,0.00487 -0.01397,0.00679 -0.02169,0.00669 -0.0077,-9.77e-5 -0.01529,-0.00205 -0.02271,-0.0042 -0.0074,-0.00215 -0.01482,-0.00452 -0.02248,-0.00548 -0.0077,-9.623e-4 -0.01572,-4.34e-4 -0.02264,0.00298 -0.0075,0.0037 -0.01316,0.01062 -0.01616,0.018423 -0.003,0.0078 -0.0035,0.016428 -0.0023,0.024704 0.0024,0.016552 0.01107,0.031391 0.01846,0.046392 0.02627,0.053333 0.03742,0.1137225 0.03401,0.1730745 -0.0034,0.059352 -0.02118,0.1176013 -0.04967,0.1697837 -0.05697,0.1043647 -0.155413,0.1823324 -0.264704,0.229156 -0.109292,0.046824 -0.229174,0.064435 -0.348022,0.067913 -0.118849,0.00348 -0.237607,-0.00672 -0.356324,-0.013297 -0.08946,-0.00496 -0.179303,-0.00786 -0.268555,0 -0.216132,0.019038 -0.427491,0.1035995 -0.590891,0.2463432 -0.1634,0.1427437 -0.276641,0.3441253 -0.304295,0.5593244 -0.03052,0.2375101 0.04293,0.4808935 0.172263,0.6824283 0.12933,0.2015347 0.311468,0.3645091 0.507728,0.5017127 0.392518,0.2744073 0.850924,0.457266 1.1999,0.7852689 0.08552,0.080376 0.163388,0.1685766 0.248774,0.2490903 0.08538,0.080514 0.179706,0.1540942 0.288338,0.1985029 0.0874,0.035729 0.182017,0.051752 0.268555,0.089519 0.113245,0.049422 0.208458,0.134756 0.282015,0.2340348 0.07356,0.099279 0.126574,0.2123549 0.170031,0.3280208 0.08691,0.2313324 0.138562,0.4783504 0.264104,0.6912054 0.07587,0.12863 0.176383,0.240578 0.268555,0.358075 0.52383,0.667753 0.772609,1.505713 0.984705,2.327484 0.04695,0.181921 0.09297,0.366526 0.09207,0.554406 -8.92e-4,0.187881 -0.05361,0.382272 -0.181594,0.519818 -0.04331,0.04654 -0.09401,0.08545 -0.142186,0.126941 -0.04818,0.04149 -0.09464,0.08652 -0.126369,0.141615 -0.03822,0.06638 -0.0529,0.14359 -0.0613,0.219722 -0.0084,0.07613 -0.01117,0.153201 -0.02823,0.227871 -0.02694,0.117935 -0.08841,0.22504 -0.156192,0.325238 -0.06778,0.100199 -0.142856,0.195797 -0.201882,0.301392 -0.0951,0.170124 -0.145663,0.360748 -0.20283,0.547074 -0.05717,0.186326 -0.123861,0.374284 -0.244763,0.52715 -0.03369,0.04259 -0.07127,0.08202 -0.104314,0.125118 -0.03305,0.04309 -0.06184,0.09068 -0.07472,0.143438 -0.01066,0.04364 -0.01007,0.08922 -0.0071,0.13404 0.003,0.04482 0.0084,0.08961 0.0071,0.134516 -0.0036,0.123382 -0.05705,0.238986 -0.08952,0.358074 -0.0631,0.231412 -0.04689,0.476366 -0.02264,0.714998 0.02425,0.238631 0.05603,0.479775 0.02264,0.7173 -0.02119,0.150721 -0.06829,0.296878 -0.08952,0.447594 -0.04584,0.325499 0.0306,0.657421 0,0.984705 -0.0169,0.180781 -0.06621,0.357044 -0.08952,0.537111 -0.0614,0.474237 0.05902,0.95776 0,1.432298 -0.03225,0.259253 -0.117194,0.508527 -0.196136,0.757566 -0.07894,0.249038 -0.152898,0.503157 -0.16194,0.764251 -0.0093,0.268995 0.05045,0.541283 0,0.805668 -0.04079,0.213735 -0.151922,0.410733 -0.179036,0.62663 -0.01861,0.14818 0.0033,0.298287 0,0.447594 -0.0094,0.421977 -0.219367,0.814616 -0.471427,1.15317 -0.25206,0.338553 -0.551042,0.641883 -0.781835,0.995277 -0.226813,0.347299 -0.384187,0.737647 -0.626629,1.074222 -0.06298,0.08743 -0.131939,0.171649 -0.179038,0.268557 -0.08601,0.176975 -0.0923,0.382362 -0.07252,0.578136 0.01978,0.195774 0.06384,0.389029 0.07252,0.585608 0.01319,0.298754 -0.05546,0.60133 0,0.895186 0.04034,0.213711 0.144721,0.411868 0.179038,0.626628 0.04245,0.265659 -0.02502,0.537806 0,0.80567 0.02905,0.31099 0.17991,0.595685 0.268555,0.895186 0.066,0.222996 0.09746,0.454458 0.141608,0.682787 0.04415,0.228329 0.102384,0.457339 0.216466,0.659992 0.105634,0.187646 0.256218,0.347389 0.358076,0.537112 0.107596,0.200409 0.157495,0.42812 0.268555,0.626631 0.116558,0.208339 0.294309,0.374107 0.454861,0.550781 0.160552,0.176675 0.310772,0.377613 0.350806,0.61296 0.0226,0.132859 0.0086,0.268861 -0.0041,0.403029 -0.0127,0.134168 -0.0239,0.270816 0.0041,0.40264 0.01963,0.09239 0.05795,0.179537 0.08952,0.268555 0.182261,0.513999 0.136175,1.080627 0.03254,1.616045 -0.103641,0.535419 -0.262674,1.062623 -0.30109,1.606625 -0.03154,0.446639 0.01903,0.895435 0,1.342781 -0.01527,0.358955 -0.07494,0.722846 0,1.074222 0.0394,0.184748 0.114888,0.359434 0.179036,0.537112 0.08898,0.246451 0.157032,0.502943 0.168211,0.764726 0.01118,0.261783 -0.03711,0.530225 -0.168211,0.757091 -0.05384,0.09318 -0.120722,0.178109 -0.179036,0.268555 -0.171085,0.265359 -0.266407,0.579465 -0.268557,0.895188 -6.1e-4,0.08954 0.0061,0.179218 0,0.268555 -0.01261,0.184945 -0.07931,0.361257 -0.142642,0.535477 -0.06333,0.17422 -0.124703,0.353377 -0.125913,0.538747 -7.81e-4,0.119663 0.02355,0.240749 0,0.358074 -0.02042,0.101725 -0.07763,0.195656 -0.15865,0.260471 -0.08102,0.06481 -0.185217,0.100012 -0.288943,0.0976 z"
     id="path2"
     inkscape:path-effect="#path-effect3"
     inkscape:original-d="m 65.259084,49.503803 c -0.460761,-0.08318 -0.973254,0.09181 -1.432298,0 -0.245957,-0.04919 -0.534106,-0.157409 -0.805669,-0.08952 -0.129461,0.03236 -0.225021,0.168801 -0.358074,0.179035 -0.58955,0.04535 -1.287074,-0.0988 -1.879891,0 -0.159269,0.02655 -1.147017,0.461224 -1.25326,0.537112 -0.290222,0.207301 -0.423794,0.393041 -0.80567,0.447593 -0.39561,0.05652 -0.770395,0.05801 -1.16374,0.179038 -0.33382,0.102714 -0.638953,0.308682 -0.984705,0.358074 -0.774377,0.110625 -0.123206,-0.142076 -0.895186,0.08952 -0.563639,0.16909 -0.290314,0.182663 -0.80567,0.268555 -0.511048,0.08517 -1.001305,-0.04061 -1.521817,0.08952 -0.588118,0.147029 -0.427305,0.206624 -0.984705,0.268558 -0.521777,0.05797 -1.086792,0 -1.611334,0 -0.570976,0 -1.226513,0.09397 -1.790374,0 -0.121357,-0.02022 -0.235794,-0.07593 -0.358074,-0.08952 -0.148286,-0.01648 -0.300802,0.02669 -0.447593,0 -0.185677,-0.03376 -0.352883,-0.138099 -0.537112,-0.179038 -0.754245,-0.167611 -1.57222,-0.131495 -2.327484,-0.358074 -0.830964,-0.24929 -1.640538,-0.482301 -2.506522,-0.626631 -0.29831,-0.04972 -1.072002,-0.02183 -1.342779,-0.08952 -0.546796,-0.136697 0.04194,-0.08952 -0.716148,-0.08952 -1.274733,0 -1.43478,-0.01717 -2.68556,0.358073 -0.53394,0.160182 -1.093756,0.240562 -1.611337,0.447593 -0.234161,0.09367 -0.378105,0.21885 -0.626628,0.268555 -0.77614,0.155229 -1.567238,-0.134316 -2.327484,-0.179035 -0.536186,-0.03154 -1.075272,0.0335 -1.611337,0 -1.166479,-0.07291 -0.708234,-0.104056 -1.96941,-0.268558 -0.731377,-0.0954 -1.584176,-0.24098 -2.327484,-0.179035 -1.486293,0.123856 0.499602,0.08952 -1.163742,0.08952 -0.910041,0 -1.877731,-0.102769 -2.775078,0.08952 -0.469199,0.100544 -0.853697,0.371174 -1.342779,0.447593 -1.676804,0.262001 -3.168066,0.268557 -4.834007,0.268557 -0.477432,0 -0.962566,0.0854 -1.432298,0 -0.131294,-0.02387 -0.235417,-0.12647 -0.358074,-0.179038 -0.433657,-0.185854 -0.903056,-0.27659 -1.34278,-0.447593 -0.186559,-0.07255 -0.348603,-0.201231 -0.537112,-0.268554 -0.4301,-0.15361 -1.144254,-0.369748 -1.611335,-0.447593 -0.0883,-0.01471 -0.183631,0.02831 -0.268556,0 -0.241866,-0.08062 -0.465079,-0.224251 -0.716149,-0.268558 -0.264469,-0.04667 -0.537112,0 -0.805668,0 -0.02984,0 -0.06842,0.02111 -0.08952,0 -0.22454,-0.224538 -0.0025,-0.634209 -0.08952,-0.895186 C 9.9882583,48.584651 8.5261878,48.121744 7.9671584,47.981988 6.7244502,47.671309 5.4669157,47.749867 4.2073758,47.623912 3.814967,47.584672 3.4023667,47.306901 3.0436335,47.444876 c -0.4735868,0.182147 -0.5794741,0.485162 -0.7161491,0.895186 -0.038906,0.116719 -0.06539,0.237432 -0.089519,0.358074 -0.00585,0.02926 0.02984,0.08952 0,0.08952 -0.1534504,0 -0.1239644,-0.578366 -0.089519,-0.71615 0.1461077,-0.58443 0.048069,0.338217 0.1790372,-0.447593 0.029434,-0.176601 -0.049185,-0.364964 0,-0.537112 0.1031639,-0.361072 0.220328,-0.289034 0.268556,-0.626629 0.01688,-0.11816 -0.013181,-0.239448 0,-0.358076 0.068396,-0.615567 0.088601,-0.295336 0.268556,-0.895186 0.1200541,-0.40018 0.1259017,-0.860962 0.2685557,-1.25326 0.2554881,-0.702593 0.6801546,-1.39537 0.8056677,-2.148448 0.043566,-0.261395 -0.032899,-0.542478 0,-0.805667 0.051067,-0.408535 0.1486804,-0.625078 0.268556,-0.984705 0.085364,-0.25609 -0.037725,-0.631108 0,-0.895186 0.013346,-0.09341 0.071013,-0.176027 0.089519,-0.268558 C 4.421206,38.229529 4.2854512,36.008021 4.1178572,35.449377 3.7706972,34.29218 3.2046039,33.203697 2.8645964,32.047672 2.693054,31.464427 2.4870694,30.708856 2.4170031,30.078262 2.3530721,29.502883 2.4432466,28.956217 2.3274844,28.377406 2.2001261,27.740615 2.0194291,27.125435 1.8798913,26.497515 c -0.019419,-0.08739 0.021711,-0.18171 0,-0.268556 -0.010235,-0.04094 -0.081243,-0.04814 -0.089519,-0.08952 -0.023408,-0.117041 0.014804,-0.239638 0,-0.358075 -0.01526,-0.122081 -0.059679,-0.238716 -0.089519,-0.358074 -0.02984,-0.268556 -0.068795,-0.536255 -0.089519,-0.805668 -0.036496,-0.474443 0.039515,-0.958123 0,-1.432298 -0.072505,-0.870059 -0.089519,-1.722556 -0.089519,-2.59604 0,-1.0336 0.028308,0.52333 -0.089519,-0.537112 -0.039543,-0.355885 -0.032418,-0.71762 0,-1.074224 0.013775,-0.151527 0.074379,-0.296196 0.089519,-0.447593 0.014846,-0.148457 -0.042872,-0.304688 0,-0.447593 0.049997,-0.166655 0.2039366,-0.286045 0.268556,-0.447593 0.056508,-0.14127 0.033011,-0.306324 0.089519,-0.447593 0.600745,-1.501863 -0.072942,0.723444 0.5371118,-0.984705 C 2.86283,14.954557 3.0033743,13.492926 2.8645964,12.174534 2.778724,11.358748 2.6149998,10.549518 2.4170031,9.7575311 2.2953893,9.2710756 2.2544924,8.7945861 2.0589286,8.3252327 1.9049518,7.9556887 1.7277897,7.5942975 1.5218167,7.2510093 1.4450552,7.1230733 1.3199841,7.0263813 1.2532609,6.8929347 1.1982395,6.7828918 1.1935818,6.6542184 1.1637422,6.5348603 1.1040631,6.3856626 1.0627433,6.2277362 0.98470497,6.0872671 0.91224813,5.9568447 0.776744,5.8655312 0.71614908,5.7291924 0.61006592,5.4905055 0.51586436,5.0175723 0.44759316,4.7444876 0.35017635,4.3548202 0.58771668,3.0708563 0.71614908,2.6855589 c 0.0358074,-0.1074223 -0.0358075,-0.2506521 0,-0.3580745 0.0634351,-0.1903054 0.20512074,-0.167769 0.26855589,-0.3580745 0.0188722,-0.056617 -0.0144743,-0.12114 0,-0.1790372 C 1.0533626,1.515742 1.1977438,1.2622904 1.2532609,0.98470497 c 0.0016,-0.008004 -0.025239,-0.33283514 0,-0.35807454 0.2286262,-0.22862627 0.697825,0.29067288 0.8056677,0.35807454 0.1697436,0.10608973 0.3580745,0.17903723 0.5371118,0.26855593 0.087339,0.043669 0.6243406,0 0.6266303,0 0.3879141,0 0.7797268,0.054859 1.1637423,0 0.2523868,-0.036055 0.4724741,-0.193579 0.716149,-0.26855593 0.1454243,-0.0447459 0.3032488,-0.0414038 0.4475933,-0.0895187 0.2794164,-0.0931388 -0.02984,-0.0596791 0.089518,-0.17903724 0.0422,-0.0421995 0.1256586,0.0266893 0.1790372,0 0.037744,-0.0188722 0.051774,-0.0706465 0.089519,-0.0895187 0.215011,-0.10750547 0.7155683,0.0731897 0.8951865,0.0895187 0.5258144,0.0478013 1.0870496,-0.074898 1.6113355,0 1.4184101,0.20263 -0.5525611,-0.0531658 0.8951862,0.26855589 0.1165159,0.0258924 0.2396382,-0.0148045 0.3580747,0 0.8117526,0.10146908 1.6824236,0.18108518 2.5065216,0.0895186 0.122279,-0.013587 0.236279,-0.072119 0.358075,-0.0895186 0.08862,-0.0126598 0.182481,0.0245927 0.268556,0 0.916293,-0.26179817 -0.254083,-0.13608712 0.805667,-0.26855589 0.850572,-0.10632147 1.741405,0.0657412 2.596041,0 0.276753,-0.0212889 1.212874,-0.21309537 1.521816,-0.0895187 0.811328,0.32453106 0.02479,0.0165296 0.537112,0.35807454 0.303888,0.20259193 0.687748,0.32499953 0.984705,0.53711173 0.194211,0.1387225 0.407296,0.4274448 0.62663,0.5371119 0.110043,0.055021 0.242877,0.046319 0.358075,0.089519 0.12495,0.046856 0.22722,0.1528662 0.358075,0.1790372 0.427623,0.085525 0.969884,-0.1235641 1.342779,0.089519 0.384993,0.2199961 0.889818,0.5413457 1.253261,0.8056676 0.324667,0.2361216 0.550946,0.5991233 0.895186,0.8056676 0.161828,0.097097 0.362907,0.1064522 0.537112,0.1790375 0.184772,0.076988 0.340829,0.2292993 0.537112,0.2685558 0.263341,0.052668 0.537112,0 0.805668,0 1.1403,0 2.26774,0.029846 3.401707,-0.089519 1.527929,-0.1608344 2.828245,-0.3595161 4.386413,-0.6266304 0.415928,-0.071302 0.840635,-0.090617 1.25326,-0.1790372 0.603102,-0.1292358 1.295458,-0.2527816 1.879894,-0.4475933 0.215588,-0.071863 0.408122,-0.2061252 0.626629,-0.2685557 0.202879,-0.057965 0.421933,-0.038344 0.626631,-0.089519 0.500692,-0.1251728 1.008938,-0.3621131 1.521817,-0.4475931 0.176601,-0.029434 0.360511,0.029434 0.537112,0 0.349935,-0.058323 1.097846,-0.3937752 1.432298,-0.5371117 0.07757,-0.033246 0.113133,-0.1263137 0.179036,-0.1790373 0.308263,-0.2466108 0.683559,-0.5708209 1.074224,-0.62663043 0.723982,-0.10342603 2.935536,0 3.22267,0 0.417756,0 0.838734,-0.051816 1.253262,0 0.265695,0.0332117 0.517877,0.24641823 0.805667,0.26855593 0.561679,0.043206 1.230342,-0.1120062 1.790372,0 0.360876,0.072175 0.569928,0.2467254 0.984705,0.2685558 0.533519,0.02808 1.318871,0.0307 1.879891,-0.089519 0.184534,-0.039543 0.351435,-0.1452777 0.537112,-0.1790372 0.501245,-0.091135 1.107893,0.033563 1.611336,0 0.727253,-0.048483 1.429105,-0.27814758 2.148449,-0.35807458 0.933661,-0.10374016 1.937753,0.0349985 2.864596,0.0895187 0.178729,0.0105135 0.36726,-0.0566165 0.537112,0 0.04003,0.0133445 0.05177,0.0706464 0.08952,0.0895186 0.39324,0.19662 0.93009,0.2169697 1.342782,0.2685559 1.332733,0.1665916 2.685254,0.2685559 4.028337,0.2685559 0.203758,0 0.515292,0.033476 0.71615,0 0.413372,-0.068895 0.930664,-0.2060577 1.342779,0 0.08082,0.040409 -0.07222,0.5208191 -0.179038,0.8056677 C 67.741586,2.7197782 67.589062,3.1089044 67.318015,3.312189 67.04129,3.519733 67.178341,3.233463 66.959941,3.6702637 66.737442,4.1152608 66.64038,4.6036184 66.33331,5.0130431 c -0.05968,0.089519 -0.119357,0.1790372 -0.179036,0.2685558 -0.02984,0 -0.06842,-0.0211 -0.08952,0 -0.02109,0.021101 0.02111,0.068419 0,0.089519 -0.02109,0.0211 -0.06842,-0.021101 -0.08952,0 -0.02109,0.0211 0.02109,0.068419 0,0.089519 -0.04488,0.044881 -0.957144,0.6197398 -0.984705,0.6266304 -0.08684,0.021712 -0.182481,-0.024593 -0.268555,0 -0.334272,0.095506 -1.064982,0.3528801 -0.895186,0.8056676 0.341635,0.9110268 1.118465,1.4364121 1.879891,1.9694099 0.190926,0.1336479 0.33727,0.3276878 0.537112,0.4475932 0.08091,0.048548 0.193067,0.032902 0.268555,0.089519 0.196678,0.1475079 0.611854,1.065529 0.71615,1.253261 0.07246,0.130423 0.196099,0.227653 0.268555,0.358075 0.289594,0.521268 0.920454,1.813473 0.984705,2.327484 0.03203,0.256236 0.04989,0.830268 -0.08952,1.074224 -0.06281,0.109918 -0.211939,0.155323 -0.268555,0.268556 -0.06804,0.136089 -0.0414,0.303248 -0.08952,0.447593 -0.15694,0.470824 -0.161621,0.233722 -0.358074,0.62663 -0.172672,0.345343 -0.274725,0.728483 -0.447593,1.074224 -0.04812,0.09623 -0.145015,0.166489 -0.179038,0.268556 -0.02831,0.08493 0.01267,0.179937 0,0.268556 -0.01741,0.121795 -0.07212,0.236279 -0.08952,0.358074 -0.06675,0.467245 0.04698,0.962475 0,1.432298 -0.01513,0.151398 -0.07438,0.296196 -0.08952,0.447594 -0.03266,0.326606 0.02726,0.657603 0,0.984705 -0.01508,0.18088 -0.07444,0.356231 -0.08952,0.537111 -0.03831,0.459678 0.09044,0.980099 0,1.432298 -0.159409,0.797033 -0.296333,0.842654 -0.358076,1.521817 -0.02432,0.267453 0.03331,0.539186 0,0.805668 -0.02694,0.215558 -0.152093,0.411073 -0.179036,0.62663 -0.01852,0.148046 0.02926,0.301293 0,0.447594 -0.162885,0.814429 -0.735221,1.544065 -1.253262,2.148447 -0.271248,0.316458 -0.423656,0.719022 -0.626629,1.074222 -0.09094,0.159144 -0.142999,0.0163 -0.179038,0.268557 -0.0505,0.353521 0,0.803286 0,1.163744 0,0.298394 -0.03701,0.599093 0,0.895186 0.02694,0.215556 0.148315,0.411578 0.179038,0.626628 0.08057,0.563968 -0.161134,-0.05371 0,0.80567 0.05741,0.306197 0.197202,0.591933 0.268555,0.895186 0.124508,0.529161 0.167407,0.834334 0.358074,1.342779 0.216461,0.577228 0.08488,0.172852 0.358076,0.537112 0.136351,0.1818 0.151636,0.431763 0.268555,0.626631 0.23963,0.399383 0.593571,0.73955 0.805667,1.163741 0.09871,0.197418 -0.03618,0.58861 0,0.805669 0.0155,0.09308 0.07617,0.175141 0.08952,0.268555 0.13652,0.955643 -0.180594,2.255094 -0.268555,3.22267 -0.03975,0.437279 0,0.902565 0,1.342781 0,0.339924 -0.05614,0.737386 0,1.074222 0.03102,0.186155 0.148011,0.350959 0.179036,0.537112 0.06598,0.395848 0.07314,1.156144 0,1.521817 -0.02109,0.1055 -0.152943,0.164179 -0.179036,0.268555 -0.07325,0.29301 -0.192392,0.590523 -0.268557,0.895188 -0.02172,0.08684 0.01942,0.181169 0,0.268555 -0.0843,0.379333 -0.179726,0.71891 -0.268555,1.074224 -0.0029,0.01154 0.02674,0.331327 0,0.358074 -0.135104,0.135104 -0.298397,0.238718 -0.447593,0.358074 z" />
</svg>
