<?xml version="1.0" encoding="UTF-8" standalone="no"?>
<svg
   width="36px"
   height="32px"
   viewBox="0 0 36 32"
   version="1.1"
   id="svg3"
   sodipodi:docname="mediation.svg"
   inkscape:version="1.3.2 (091e20e, 2023-11-25, custom)"
   xmlns:inkscape="http://www.inkscape.org/namespaces/inkscape"
   xmlns:sodipodi="http://sodipodi.sourceforge.net/DTD/sodipodi-0.dtd"
   xmlns="http://www.w3.org/2000/svg"
   xmlns:svg="http://www.w3.org/2000/svg">
  <sodipodi:namedview
     id="namedview3"
     pagecolor="#ffffff"
     bordercolor="#000000"
     borderopacity="0.25"
     inkscape:showpageshadow="2"
     inkscape:pageopacity="0.0"
     inkscape:pagecheckerboard="0"
     inkscape:deskcolor="#d1d1d1"
     inkscape:zoom="36.65625"
     inkscape:cx="18.005115"
     inkscape:cy="16"
     inkscape:window-width="2560"
     inkscape:window-height="1369"
     inkscape:window-x="-8"
     inkscape:window-y="-8"
     inkscape:window-maximized="1"
     inkscape:current-layer="svg3" />
  <!-- Generator: Sketch 49 (51002) - http://www.bohemiancoding.com/sketch -->
  <title
     id="title1">Dispute mediation ICON</title>
  <desc
     id="desc1">Created with Sketch.</desc>
  <defs
     id="defs1">
    <inkscape:path-effect
       effect="spiro"
       id="path-effect11"
       is_visible="true"
       lpeversion="1" />
    <inkscape:path-effect
       effect="spiro"
       id="path-effect10"
       is_visible="true"
       lpeversion="1" />
    <inkscape:path-effect
       effect="spiro"
       id="path-effect9"
       is_visible="true"
       lpeversion="1" />
    <inkscape:path-effect
       effect="spiro"
       id="path-effect8"
       is_visible="true"
       lpeversion="1" />
    <inkscape:path-effect
       effect="spiro"
       id="path-effect7"
       is_visible="true"
       lpeversion="1" />
    <inkscape:path-effect
       effect="spiro"
       id="path-effect6"
       is_visible="true"
       lpeversion="1" />
    <inkscape:path-effect
       effect="spiro"
       id="path-effect5"
       is_visible="true"
       lpeversion="1" />
    <inkscape:path-effect
       effect="spiro"
       id="path-effect4"
       is_visible="true"
       lpeversion="1" />
  </defs>
  <path
     style="fill:none;stroke:#ff9500;stroke-width:1.079;stroke-opacity:1"
     d="m 1.0366581,19.341858 c 0.9261082,0.647686 1.8724462,1.266446 2.8371697,1.855073 1.1604019,0.708021 2.3747546,1.382745 3.7101449,1.636829 0.1857188,0.03534 0.3733672,0.06243 0.555756,0.11217 0.1823889,0.04974 0.3612118,0.123565 0.5081826,0.242476 0.060875,0.04925 0.116389,0.106243 0.1846984,0.144522 0.034155,0.01914 0.071462,0.03338 0.1103408,0.038 0.038879,0.0046 0.079434,-7.69e-4 0.114168,-0.01884 0.011691,-0.0061 0.022656,-0.01354 0.034612,-0.01908 0.011955,-0.0055 0.025329,-0.0091 0.038308,-0.0069 0.00649,0.0011 0.012767,0.0038 0.017855,0.008 0.00509,0.0042 0.00893,0.01 0.010415,0.01638 0.00148,0.0064 4.952e-4,0.01345 -0.00306,0.019 -0.00178,0.0028 -0.00417,0.0052 -0.00697,0.0069 -0.00281,0.0017 -0.00603,0.0028 -0.00932,0.003 -0.00464,3.01e-4 -0.0092,-0.001 -0.013787,-0.0018 -0.00229,-3.7e-4 -0.00463,-5.91e-4 -0.00694,-3.78e-4 -0.00231,2.13e-4 -0.00462,8.76e-4 -0.00655,0.0022 -0.00211,0.0014 -0.00372,0.0035 -0.00466,0.0059 -9.441e-4,0.0024 -0.00124,0.0049 -0.00103,0.0075 4.255e-4,0.0051 0.00283,0.0097 0.00569,0.01394 0.00887,0.01299 0.022578,0.02243 0.037663,0.02689 0.015085,0.0045 0.031449,0.0041 0.046551,-3.5e-4 0.015102,-0.0044 0.028947,-0.01271 0.040539,-0.02334 0.011592,-0.01063 0.020972,-0.02356 0.028271,-0.03749 0.014598,-0.02787 0.020816,-0.05933 0.024848,-0.09053 0.00403,-0.0312 0.00607,-0.06275 0.013093,-0.09342 0.020948,-0.09149 0.084881,-0.168274 0.1597489,-0.224872 0.074868,-0.0566 0.1609412,-0.09626 0.2467276,-0.134332 0.1715729,-0.07614 0.3384557,-0.162849 0.4937797,-0.268247 l 0.763853,-0.518329 c 0.250495,-0.169979 0.512612,-0.322174 0.763853,-0.491049 0.222003,-0.149222 0.428929,-0.320362 0.654732,-0.463768 0.138538,-0.08798 0.284681,-0.165906 0.409207,-0.272805 0.157087,-0.13485 0.27629,-0.316252 0.324938,-0.517484 0.04865,-0.201232 0.02396,-0.421639 -0.07941,-0.601015 -0.06938,-0.120399 -0.171475,-0.219757 -0.28568,-0.29892 -0.114206,-0.07916 -0.240622,-0.139065 -0.369051,-0.192129 -0.699292,-0.288934 -1.46116,-0.380818 -2.209719,-0.491048 -0.136155,-0.02005 -0.2722736,-0.0408 -0.4092071,-0.05456 -0.525139,-0.05276 -1.0544891,-0.0021 -1.5822677,0 -0.454798,0.0018 -0.9092523,-0.03251 -1.3640238,-0.02728 -0.6008532,0.0069 -1.1996195,0.08279 -1.8005116,0.08184 -0.3274827,-5.2e-4 -0.6554844,-0.02386 -0.9820971,0 -0.1092145,0.008 -0.2180279,0.02122 -0.3273658,0.02728 -0.2088701,0.01157 -0.4182843,-0.0031 -0.627451,0 -0.2579898,0.0039 -0.5166255,0.03528 -0.7638533,0.109122 -0.126977,0.03792 -0.2512549,0.08707 -0.3819267,0.109122 -0.081213,0.0137 -0.1638395,0.01674 -0.2455243,0.02728 -0.1721913,0.02221 -0.3399688,0.07814 -0.4910486,0.163683"
     id="path4"
     inkscape:path-effect="#path-effect4"
     inkscape:original-d="m 1.0366581,19.341858 c 0.9015524,0.676323 1.8466595,1.313594 2.8371697,1.855073 1.1872401,0.649025 2.4399031,1.173564 3.7101449,1.636829 0.3512021,0.128085 0.7113002,0.230569 1.0639386,0.354646 0.1385819,0.04876 0.2722865,0.110436 0.4092072,0.163683 0.026801,0.01042 0.056121,0.01442 0.081841,0.02728 0.00813,0.0041 -0.02085,-0.0064 -0.02728,0 -0.00643,0.0064 -0.00643,0.03371 0,0.02728 0.2494646,-0.249465 -0.2809108,0.165153 0.1909633,-0.218244 0.1720041,-0.139754 0.8319852,-0.581027 0.9002562,-0.627451 0.254617,-0.172777 0.509235,-0.345553 0.763853,-0.518329 0.254618,-0.163683 0.512744,-0.322033 0.763853,-0.491049 0.221872,-0.149336 0.434838,-0.311534 0.654732,-0.463768 0.134786,-0.09331 0.289076,-0.161255 0.409207,-0.272805 0.408391,-0.37922 0.505676,-0.663234 0.245524,-1.118499 -0.131042,-0.229324 -0.435595,-0.381481 -0.654731,-0.491049 -0.622957,-0.311478 -1.519181,-0.417062 -2.209719,-0.491048 -0.136826,-0.01466 -0.2718496,-0.04624 -0.4092071,-0.05456 -0.5246679,-0.0318 -1.0567636,0.01383 -1.5822677,0 -0.4556116,-0.01199 -0.9075686,-0.0372 -1.3640238,-0.02728 -0.6019402,0.01309 -1.2003165,0.06183 -1.8005116,0.08184 -0.3260211,0.01087 -0.6559633,-0.01553 -0.9820971,0 -0.1093763,0.0052 -0.217969,0.02252 -0.3273658,0.02728 -0.057267,0.0025 -0.5839911,-0.0027 -0.627451,0 -0.3617598,0.02261 -0.4743286,0.0264 -0.7638533,0.109122 -0.1957137,0.05592 -0.1588783,0.06976 -0.3819267,0.109122 -0.081092,0.01431 -0.1645896,0.01211 -0.2455243,0.02728 -0.1706961,0.03201 -0.3182422,0.163683 -0.4910486,0.163683" />
  <path
     style="fill:none;stroke:#1c3c55;stroke-width:1.079"
     d="M 2.4279625,18.3052 C 2.3371915,17.994569 2.282153,17.673512 2.2642796,17.350384 c -0.012058,-0.217985 -0.00726,-0.436535 0,-0.654732 0.031577,-0.949214 0.1097023,-1.897192 0.2455243,-2.837169 0.075305,-0.52116 0.1700625,-1.045636 0.3819267,-1.527707 C 3.1109634,11.831939 3.4491731,11.393947 3.8192668,10.994032 4.1905554,10.592826 4.5966702,10.224854 4.9650469,9.8209719 5.7149222,8.9988217 6.3031555,8.0294679 6.683717,6.9838022 6.7463169,6.811797 6.803718,6.6361569 6.8235369,6.4541905 6.8433557,6.2722241 6.8234418,6.0818872 6.7382779,5.9198636 6.6983518,5.8439045 6.6479464,5.774017 6.6018755,5.7016198 L 6.4109122,5.4015345 c -0.04657,-0.014095 -0.08841,-0.043375 -0.1176039,-0.0823 -0.029194,-0.038925 -0.045587,-0.08729 -0.046079,-0.1359437 -3.3e-4,-0.032657 0.00626,-0.064927 0.010374,-0.097326 0.00411,-0.032399 0.00563,-0.066007 -0.0045,-0.097055 -0.00507,-0.015524 -0.013068,-0.030208 -0.024232,-0.042125 -0.011164,-0.011917 -0.025571,-0.020977 -0.041448,-0.024797 -0.015876,-0.00382 -0.033195,-0.00219 -0.047601,0.00549 -0.014406,0.00769 -0.025596,0.021593 -0.028997,0.037564 -0.0019,0.00894 -0.00142,0.018245 0,0.02728 0.00416,0.026565 0.016168,0.051389 0.031183,0.073696 0.015015,0.022307 0.033049,0.042385 0.050658,0.062706 0.1802612,0.208029 0.3201986,0.4471546 0.4637681,0.6820119 0.4670972,0.7640983 0.9831029,1.4975482 1.4458653,2.2642796 0.1620489,0.268492 0.3175229,0.5409974 0.4637681,0.8184143 0.4538741,0.8609673 0.8255785,1.8134109 0.7365729,2.7826089 -0.028726,0.3128 -0.1049466,0.618961 -0.1636829,0.927537 -0.041374,0.217361 -0.074119,0.436254 -0.1091219,0.654731 -0.039072,0.243875 -0.0811,0.491018 -0.054561,0.736573 0.045331,0.419421 0.2866737,0.793381 0.5678569,1.107872 0.2811832,0.314491 0.6078136,0.5869 0.8780076,0.910882 0.091,0.109114 0.175436,0.223898 0.272805,0.327367 0.105793,0.112421 0.226195,0.210768 0.327366,0.327366 0.06341,0.07308 0.11925,0.153294 0.190963,0.218244 0.0937,0.08486 0.2102,0.139843 0.31259,0.213993 0.05119,0.03707 0.09926,0.07939 0.136697,0.130319 0.03744,0.05093 0.06394,0.111013 0.06904,0.174017 0.0022,0.0272 4.31e-4,0.05455 0,0.08184 -0.0021,0.134685 0.03036,0.272653 0.109122,0.381927 0.01823,0.02529 0.03881,0.04894 0.05507,0.07553 0.01626,0.02659 0.02821,0.05701 0.02677,0.08815 -4.25e-4,0.0092 -0.002,0.01823 -0.0027,0.02738 -6.79e-4,0.0091 -4.26e-4,0.01855 0.0027,0.02718 0.0044,0.01225 0.01413,0.02181 0.02436,0.02987 0.01022,0.0081 0.02134,0.01515 0.0302,0.02469 0.0096,0.01037 0.01626,0.02331 0.02035,0.03687 0.0041,0.01356 0.0057,0.02775 0.0062,0.0419 9.93e-4,0.02831 -0.0025,0.05677 6.99e-4,0.08491 0.0039,0.0346 0.01787,0.06727 0.03388,0.0982 0.01601,0.03092 0.03429,0.06074 0.04796,0.09277 0.01478,0.03463 0.02403,0.07161 0.02728,0.109122"
     id="path5"
     inkscape:path-effect="#path-effect5"
     inkscape:original-d="m 2.4279625,18.3052 c 0.00133,-0.326135 -0.1395321,-0.632806 -0.1636829,-0.954816 -0.016322,-0.217633 -0.00376,-0.43652 0,-0.654732 0.016498,-0.956869 0.1021257,-1.890739 0.2455243,-2.837169 C 2.5987745,13.271277 2.649983,12.877336 2.8917306,12.330776 3.159003,11.726508 3.3832067,11.493906 3.8192668,10.994032 4.7847515,9.8872573 3.987079,10.826882 4.9650469,9.8209719 5.6213519,9.1459152 6.4623966,7.957612 6.683717,6.9838022 6.7499475,6.692388 6.8458535,6.1888027 6.7382779,5.9198636 6.7064171,5.8402116 6.6476856,5.7741524 6.6018755,5.7016198 6.5382211,5.6015914 6.4745666,5.5015629 6.4109122,5.4015345 6.3563512,5.3287866 6.2964031,5.2597832 6.2472293,5.1832907 6.2243375,5.1476812 6.1788169,4.9990419 6.1108269,4.9650469 c -0.00813,-0.00407 -0.00407,0.019147 0,0.02728 0.023713,0.047426 0.054561,0.090935 0.081841,0.1364024 0.3678831,0.6131385 -0.085926,-0.1242056 0.4637681,0.6820119 0.7730979,1.1338769 0.8507185,1.2393045 1.4458653,2.2642796 0.15745,0.2711638 0.3315299,0.5341022 0.4637681,0.8184143 0.4919994,1.0577988 0.7856855,1.6775759 0.7365729,2.7826089 -0.020274,0.456175 -0.087978,0.533871 -0.1636829,0.927537 -0.041783,0.217273 -0.072748,0.436487 -0.1091219,0.654731 -0.041147,0.246883 -0.089443,0.483675 -0.054561,0.736573 0.1332499,0.966062 0.8017671,1.428332 1.4458645,2.018754 0.31528,0.289008 0.03145,0.03238 0.272805,0.327367 0.09772,0.119437 0.222069,0.214548 0.327366,0.327366 0.06596,0.07067 0.12485,0.147723 0.190963,0.218244 0.157866,0.168389 0.383244,0.329209 0.518329,0.518329 0.04547,0.06365 -0.02273,0.03637 0,0.08184 0.05405,0.108104 0.07298,0.255436 0.109122,0.381927 0.01934,0.0677 0.06597,0.100175 0.08184,0.163683 0.0044,0.01764 -0.0081,0.03829 0,0.05456 0.0115,0.023 0.04553,0.03048 0.05456,0.05456 0.01942,0.05179 0.01273,0.110319 0.02728,0.163683 0.01822,0.06681 0.06504,0.123777 0.08184,0.190964 0.01601,0.06404 -0.01994,0.0619 0.02728,0.109122" />
  <path
     style="fill:none;stroke:#95aabf;stroke-width:1.079;stroke-opacity:1"
     d="m 6.8201194,3.9283887 c 0.1449773,0.091193 0.301093,0.164659 0.4637681,0.2182439 0.4619983,0.1521814 0.9604624,0.1405172 1.4458653,0.1091219 0.6287437,-0.040666 1.2624812,-0.113337 1.8550722,-0.3273658 0.206903,-0.074728 0.407658,-0.1663523 0.600171,-0.2728047 0.114971,-0.063575 0.227551,-0.1328204 0.327365,-0.2182438 0.07906,-0.067662 0.151503,-0.1463684 0.245525,-0.1909634 0.08202,-0.0389 0.176072,-0.048891 0.266022,-0.036694 0.08995,0.012198 0.176061,0.045785 0.255291,0.090084 0.158458,0.088599 0.289205,0.2183674 0.433503,0.328536 0.289369,0.2209278 0.632441,0.3619642 0.982157,0.4631695 0.349716,0.1012053 0.709017,0.16478 1.063879,0.2461229 0.26035,0.059678 0.5283,0.1293989 0.791134,0.081841 0.121851,-0.022048 0.237614,-0.06866 0.354646,-0.1091219 0.196091,-0.067795 0.397602,-0.1188122 0.600171,-0.1636828 0.458602,-0.1015838 0.923864,-0.1720293 1.391304,-0.2182439 0.154939,-0.015318 0.310354,-0.028009 0.463768,-0.054561 0.06341,-0.010974 0.126681,-0.024339 0.190964,-0.02728 0.100077,-0.00458 0.20091,0.016631 0.291843,0.058674 0.09093,0.042043 0.171963,0.1046693 0.237673,0.1802911 0.13142,0.1512435 0.199031,0.3519658 0.207057,0.5521692 0.0011,0.027266 0.0011,0.054577 0,0.081841 -0.007,0.1668566 -0.05843,0.3291355 -0.126148,0.4817916 -0.06772,0.152656 -0.151798,0.2973973 -0.228499,0.4457446 -0.202639,0.3919259 -0.353464,0.8084089 -0.491048,1.2276215 -0.309826,0.9440283 -0.555728,1.9100996 -0.709293,2.8917306 -0.08251,0.5274015 -0.138404,1.0593105 -0.245524,1.5822685 -0.04869,0.23772 -0.107883,0.473139 -0.163683,0.709292 -0.188025,0.795745 -0.338379,1.615595 -0.245524,2.427963 0.01987,0.173817 0.05078,0.346159 0.08184,0.518329 0.06938,0.384547 0.139752,0.769613 0.245525,1.14578 0.126898,0.451294 0.303982,0.887064 0.436487,1.336743 0.233953,0.793961 0.326768,1.629291 0.272805,2.455243 0.358209,0.57913 0.592308,1.234608 0.682012,1.909633 0.04567,0.343672 0.05431,0.691061 0.08184,1.036659 0.0189,0.237294 0.04673,0.473849 0.08184,0.709292 0.04105,0.27531 0.09212,0.549415 0.163683,0.818414 0.09841,0.369944 0.236422,0.735799 0.245524,1.1185 0.0059,0.247356 -0.04257,0.492283 -0.08184,0.736573 -0.0428,0.266268 -0.07538,0.536314 -0.163683,0.791134 -0.03207,0.09256 -0.07129,0.182445 -0.109122,0.272804 -0.02225,0.05316 -0.04419,0.106995 -0.05456,0.163683 -0.01322,0.07222 -0.0074,0.147572 -0.02728,0.218244 -0.01999,0.07101 -0.06449,0.132226 -0.109122,0.190963 -0.03647,0.048 -0.07399,0.09614 -0.09792,0.151467 -0.01197,0.02766 -0.02041,0.05701 -0.02298,0.08704 -0.0026,0.03003 8.35e-4,0.06077 0.01178,0.08885 0.0054,0.01396 0.01277,0.02743 0.015,0.04225 0.0011,0.0074 8.93e-4,0.01512 -0.0015,0.02222 -0.0024,0.0071 -0.0071,0.01357 -0.01351,0.01737 -0.0041,0.0024 -0.0089,0.0037 -0.01364,0.0037 -0.0048,0 -0.0095,-0.0013 -0.01364,-0.0037 -0.02,0.01625 -0.03832,0.03456 -0.05456,0.05456 -0.07814,0.0962 -0.103476,0.223436 -0.129069,0.344707 -0.0128,0.06063 -0.02634,0.121371 -0.04818,0.179368 -0.02183,0.058 -0.05235,0.113514 -0.09556,0.157936 -0.05466,0.0562 -0.12647,0.09182 -0.190963,0.136403 -0.100763,0.06965 -0.183818,0.161348 -0.272805,0.245524 -0.357351,0.338028 -0.809845,0.55436 -1.254902,0.763853 -0.08105,0.03815 -0.162184,0.07628 -0.245524,0.109122 -0.624407,0.246042 -1.320431,0.179988 -1.991475,0.190964 -0.291106,0.0048 -0.581841,0.02475 -0.872975,0.02728 -0.427514,0.0037 -0.855721,-0.03021 -1.282183,0 -0.223375,0.01582 -0.448152,0.04996 -0.654731,0.136403 -0.0452,0.01891 -0.08952,0.04032 -0.136402,0.05456 -0.08752,0.02658 -0.180822,0.02722 -0.272061,0.02071 -0.09124,-0.0065 -0.182081,-0.01994 -0.273549,-0.02071 -0.239592,-0.002 -0.471173,0.08253 -0.709292,0.109121 -0.108672,0.01214 -0.2186945,0.01214 -0.3273662,0"
     id="path6"
     inkscape:path-effect="#path-effect6"
     inkscape:original-d="M 6.8201194,3.9283887 C 6.918551,3.9776046 7.2228217,4.1322641 7.2838875,4.1466326 7.6227773,4.2263713 8.424232,4.2698554 8.7297528,4.2557545 9.3062064,4.2291489 10.033648,4.108774 10.584825,3.9283887 10.793679,3.8600366 10.99078,3.7584043 11.184996,3.655584 c 0.115907,-0.061363 0.223843,-0.1377266 0.327365,-0.2182438 0.02682,-0.020862 0.149925,-0.2046206 0.245525,-0.1909634 0.342716,0.04896 0.641566,0.2476767 0.954816,0.3819267 0.657758,0.2818963 1.341126,0.5728581 2.046036,0.7092924 0.159436,0.030858 0.607265,0.1205507 0.791134,0.081841 0.121032,-0.02548 0.236431,-0.072748 0.354646,-0.1091219 0.200057,-0.054561 0.396519,-0.1246262 0.600171,-0.1636828 0.461037,-0.088418 0.92686,-0.1499433 1.391304,-0.2182439 0.153999,-0.022647 0.30942,-0.034429 0.463768,-0.054561 0.06376,-0.00832 0.133451,-0.056037 0.190964,-0.02728 0.12685,0.063425 0.684021,0.6728937 0.736573,0.7911339 0.01108,0.024929 0,0.054561 0,0.081841 0,0.3587946 -0.191846,0.6096877 -0.354647,0.9275362 -0.371047,0.724426 -0.261164,0.4558685 -0.491048,1.2276215 -0.283105,0.9504247 -0.520813,1.9179183 -0.709293,2.8917306 -0.116091,0.5217855 -0.146565,1.0577875 -0.245524,1.5822685 -0.04499,0.238437 -0.117369,0.471108 -0.163683,0.709292 -0.15541,0.799254 -0.30698,1.608549 -0.245524,2.427963 0.01308,0.174426 0.05524,0.345446 0.08184,0.518329 0.09873,0.641747 0.04909,0.491012 0.245525,1.14578 0.134689,0.448965 0.312199,0.884787 0.436487,1.336743 0.223531,0.812841 0.04423,1.640313 0.272805,2.455243 0.03107,0.704264 0.491289,1.261177 0.682012,1.909633 0.144434,0.491075 0.04708,0.480421 0.08184,1.036659 0.01485,0.237536 0.04408,0.474308 0.08184,0.709292 0.04415,0.274683 0.103331,0.546832 0.163683,0.818414 0.0871,0.391971 0.204591,0.722818 0.245524,1.1185 0.0318,0.307446 -0.01914,0.423079 -0.08184,0.736573 -0.01395,0.06975 -0.14014,0.710415 -0.163683,0.791134 -0.02742,0.09402 -0.07473,0.1811 -0.109122,0.272804 -0.02019,0.05385 -0.04061,0.107888 -0.05456,0.163683 -0.02019,0.08076 0.02151,0.132861 -0.02728,0.218244 -0.144471,0.252824 -0.03738,-0.09599 -0.109122,0.190963 -0.02925,0.11699 -0.05737,0.223856 -0.109121,0.327366 -0.0082,0.01647 0.01261,0.06923 0,0.08184 -0.0064,0.0064 -0.01819,0 -0.02728,0 -0.01819,0.01819 -0.04133,0.03251 -0.05456,0.05456 -0.12593,0.209882 -0.07269,0.501912 -0.272805,0.682011 -0.05814,0.05233 -0.130579,0.08667 -0.190963,0.136403 -0.09444,0.07777 -0.178485,0.167608 -0.272805,0.245524 -0.389854,0.322053 -0.791286,0.568647 -1.254902,0.763853 -0.08254,0.03476 -0.16056,0.0808 -0.245524,0.109122 -0.644176,0.214726 -1.322255,0.190964 -1.991475,0.190964 -0.647747,0 0.329607,-0.0036 -0.872975,0.02728 -0.426894,0.01095 -0.855481,-0.01641 -1.282183,0 -0.316156,0.01216 -0.335978,0.03015 -0.654731,0.136403 -0.04646,0.01548 -0.0881,0.04651 -0.136402,0.05456 -0.173986,0.029 -0.369492,-0.01258 -0.54561,0 -0.24837,0.01774 -0.464958,0.0684 -0.709292,0.109121 -0.104387,0.0174 -0.2212491,0 -0.3273662,0" />
  <path
     style="fill:none;stroke:#95aabf;stroke-width:1.079;stroke-opacity:1"
     d="m 27.062234,30.799659 c -0.0012,0.03776 -0.01056,0.07525 -0.02728,0.109122 -0.02566,0.05198 -0.06826,0.09468 -0.117884,0.124636 -0.04962,0.02996 -0.106066,0.04758 -0.163411,0.05604 -0.114688,0.01692 -0.231196,-0.002 -0.346156,-0.01699 -0.523918,-0.0682 -1.054685,-0.0536 -1.582268,-0.08184 -1.01952,-0.05458 -2.025981,-0.269532 -3.000852,-0.57289 -0.153887,-0.04789 -0.307238,-0.09802 -0.463768,-0.136402 -0.473657,-0.116129 -0.967648,-0.122613 -1.445865,-0.218244 -0.266048,-0.0532 -0.52592,-0.133748 -0.791134,-0.190963 -0.162262,-0.03501 -0.326338,-0.06123 -0.491049,-0.08184 -0.244397,-0.03058 -0.490339,-0.04879 -0.736573,-0.05456"
     id="path7"
     inkscape:path-effect="#path-effect7"
     inkscape:original-d="m 27.062234,30.799659 c -0.0091,0.03637 -7.69e-4,0.08261 -0.02728,0.109122 -0.08311,0.08311 -0.562679,0.159982 -0.627451,0.163683 -0.48841,0.02791 -1.11931,-0.02476 -1.582268,-0.08184 -1.004244,-0.123811 -2.0214,-0.315139 -3.000852,-0.57289 -0.155832,-0.04101 -0.307442,-0.09732 -0.463768,-0.136402 -0.474467,-0.118617 -0.966784,-0.119124 -1.445865,-0.218244 -0.298374,-0.06173 -0.497298,-0.137538 -0.791134,-0.190963 -0.163821,-0.02979 -0.328388,-0.04931 -0.491049,-0.08184 -0.234492,-0.0469 -0.512064,0.02028 -0.736573,-0.05456" />
  <path
     style="fill:none;stroke:#95aabf;stroke-width:1.079;stroke-opacity:1"
     d="m 18.796249,4.0920716 c 0.880817,-0.6592002 2.016626,-0.9680605 3.109974,-0.8456948 0.491434,0.055 0.973348,0.1940411 1.418585,0.4092072 0.2164,0.104578 0.425597,0.22754 0.654732,0.3000852 0.245448,0.07771 0.506732,0.094966 0.763853,0.081842 0.451304,-0.023035 0.892182,-0.1371781 1.336743,-0.2182439 0.163252,-0.029769 0.327272,-0.055111 0.491049,-0.081841 1.041487,-0.1699818 2.074834,-0.3965517 3.082694,-0.7092924 0.402221,-0.1248098 0.802229,-0.2641604 1.17306,-0.4637681 0.151185,-0.081379 0.297089,-0.1725682 0.436488,-0.2728048"
     id="path8"
     inkscape:path-effect="#path-effect8"
     inkscape:original-d="m 18.796249,4.0920716 c 1.128399,0.1009639 2.00781,-0.8048739 3.109974,-0.8456948 0.640811,-0.023734 0.862234,0.1310316 1.418585,0.4092072 0.284933,0.1424662 0.334185,0.2137842 0.654732,0.3000852 0.165355,0.044519 0.606088,0.081842 0.763853,0.081842 0.46956,0 0.881751,-0.1272454 1.336743,-0.2182439 0.162719,-0.032544 0.327475,-0.053914 0.491049,-0.081841 1.036324,-0.1769334 2.087468,-0.3596185 3.082694,-0.7092924 0.343118,-0.1205549 0.848768,-0.2920839 1.17306,-0.4637681 0.15544,-0.082292 0.268541,-0.2168223 0.436488,-0.2728048" />
  <path
     style="fill:none;stroke:#95aabf;stroke-width:1.079;stroke-opacity:1"
     d="M 17.15942,3.0008525 C 16.927237,2.9093855 16.724337,2.7451333 16.58653,2.5370844 16.467574,2.3574948 16.397106,2.1457908 16.386831,1.9306223 c -0.01027,-0.2151684 0.03993,-0.4331849 0.145138,-0.6211594 0.07305,-0.1305238 0.173559,-0.2475901 0.300086,-0.32736571 0.142101,-0.0895952 0.310954,-0.12881015 0.478459,-0.14154268 0.167505,-0.0127325 0.335743,-4.6214e-4 0.503638,0.00514 0.265305,0.008853 0.532534,0.001159 0.794371,0.0448194 0.261838,0.0436609 0.523431,0.14445795 0.706055,0.33710725 0.127616,0.1346223 0.210542,0.3088802 0.245524,0.4910486 0.01419,0.073909 0.02126,0.1507542 0.05456,0.2182438 0.02348,0.047588 0.05911,0.088448 0.08184,0.1364024 0.03622,0.076427 0.03622,0.1690971 0,0.2455243 0.01343,0.063173 0.01046,0.1297569 -0.0085,0.1914844 -0.01899,0.061727 -0.05397,0.1184631 -0.100585,0.1631618 -0.01859,0.017828 -0.03913,0.033931 -0.05456,0.054561 -0.02305,0.030832 -0.03311,0.071069 -0.02728,0.109122"
     id="path9"
     inkscape:path-effect="#path-effect9"
     inkscape:original-d="M 17.15942,3.0008525 C 16.901645,2.8829203 16.742236,2.8095696 16.58653,2.5370844 16.458179,2.3124704 16.411093,1.5326194 16.531969,1.3094629 16.602474,1.1793002 16.714306,1.0718106 16.832055,0.98209719 17.088749,0.78652048 17.520721,0.8456948 17.814152,0.8456948 c 0.483706,0 1.15565,-0.0121035 1.500426,0.3819267 0.07857,0.089798 0.206879,0.3879939 0.245524,0.4910486 0.02633,0.070212 0.02764,0.1482551 0.05456,0.2182438 0.01903,0.049489 0.06507,0.0861 0.08184,0.1364024 0.01218,0.036528 0.01348,0.2005988 0,0.2455243 -0.226361,0.6036275 0.0099,-0.062027 -0.109122,0.3546462 -0.05513,0.1929419 0.0037,-0.00369 -0.05456,0.054561 -0.004,0.00396 -0.02728,0.1019916 -0.02728,0.109122" />
  <path
     style="fill:none;stroke:#1c3c55;stroke-width:1.079"
     d="m 23.788576,18.468883 c 0.05001,-0.224965 0.123271,-0.444754 0.218244,-0.654731 0.07542,-0.166756 0.16434,-0.327019 0.245524,-0.491049 0.131917,-0.266534 0.243258,-0.54267 0.354647,-0.818414 0.447097,-1.106792 0.901347,-2.220279 1.554987,-3.219097 0.393762,-0.601702 0.856964,-1.157027 1.227621,-1.773231 0.662124,-1.100757 1.00728,-2.3568193 1.418585,-3.5737421 0.123396,-0.3650897 0.253313,-0.7279347 0.381927,-1.0912191 0.132757,-0.3749873 0.264771,-0.752942 0.327366,-1.14578 0.08697,-0.5458044 0.03605,-1.1117313 -0.136403,-1.6368287 -0.02,-0.060902 -0.04172,-0.1215349 -0.07183,-0.1781275 -0.03011,-0.056593 -0.06899,-0.1093032 -0.119137,-0.1492382 -0.01528,-0.012167 -0.03154,-0.023107 -0.04625,-0.035947 -0.01472,-0.01284 -0.02804,-0.027883 -0.03559,-0.045894 -0.0018,-0.00439 -0.0033,-0.009 -0.0036,-0.013753 -2.73e-4,-0.00476 7.71e-4,-0.0097 0.0036,-0.013528 0.0018,-0.00242 0.0043,-0.00431 0.007,-0.00554 0.0028,-0.00122 0.0058,-0.00178 0.0088,-0.00174 0.006,9.34e-5 0.01184,0.00259 0.01664,0.00622 0.0096,0.00725 0.01519,0.018481 0.02211,0.028338 0.0204,0.029056 0.05345,0.046907 0.08728,0.057682 0.03383,0.010775 0.06927,0.015453 0.103688,0.024159 0.114716,0.029017 0.21411,0.101929 0.296238,0.1871148 0.08213,0.085186 0.14948,0.1832222 0.222091,0.2766533 0.225075,0.2896121 0.501587,0.5359707 0.728508,0.8241389 0.11346,0.1440841 0.214625,0.2991328 0.286061,0.4680422 0.07144,0.1689093 0.11253,0.3524184 0.10393,0.5356109 -0.01504,0.3203732 -0.177839,0.6140337 -0.245524,0.9275362 -0.03671,0.1700097 -0.04514,0.3446574 -0.05456,0.5183291 -0.02622,0.4834695 -0.06026,0.975497 0.05456,1.4458653 0.152815,0.6260049 0.554681,1.1580059 0.818414,1.7459509 0.174308,0.388587 0.287909,0.801208 0.436488,1.200341 0.213323,0.573059 0.498422,1.117423 0.709292,1.691389 0.15512,0.42222 0.271057,0.862557 0.491049,1.254902 0.125901,0.224538 0.284045,0.429782 0.409207,0.654732 0.08735,0.156993 0.159282,0.324522 0.272805,0.463768 0.03682,0.04517 0.07791,0.08719 0.109122,0.136402 0.03865,0.06094 0.06081,0.130767 0.07887,0.200632 0.01806,0.06987 0.03249,0.140898 0.05753,0.208575 0.02764,0.07471 0.06772,0.144044 0.104708,0.214591 0.03699,0.07055 0.07138,0.143642 0.08626,0.221897 0.01878,0.0988 0.0057,0.201859 0.02728,0.300085 0.0167,0.07599 0.0534,0.145819 0.08184,0.218244 0.09526,0.242626 0.09526,0.521227 0,0.763853"
     id="path10"
     inkscape:path-effect="#path-effect10"
     inkscape:original-d="m 23.788576,18.468883 c 0.08301,-0.214365 0.128398,-0.442952 0.218244,-0.654731 0.07147,-0.168469 0.169275,-0.324687 0.245524,-0.491049 0.123879,-0.27028 0.231414,-0.547839 0.354647,-0.818414 0.257911,-0.566285 1.145766,-2.520011 1.554987,-3.219097 0.31173,-0.532538 0.891901,-1.240028 1.227621,-1.773231 0.683798,-1.086031 0.989297,-2.3778669 1.418585,-3.5737421 0.440044,-1.1001096 0.01531,0.00862 0.381927,-1.0912191 0.15723,-0.471692 0.277071,-0.626073 0.327366,-1.14578 0.05359,-0.5537811 0.117313,-1.1293968 -0.136403,-1.6368287 -0.002,-0.00397 -0.167913,-0.2966321 -0.190963,-0.3273657 -0.02315,-0.030864 -0.05869,-0.050977 -0.08184,-0.081841 -0.0055,-0.00727 0.0091,-0.027281 0,-0.027281 -0.04895,0 0.04167,0.027281 0.05456,0.027281 0.05279,0 0.149164,0.048401 0.190964,0.081841 0.178445,0.1427564 0.346323,0.3141982 0.518329,0.4637681 0.557966,0.4851876 1.186523,1.0115039 1.118499,1.827792 -0.02808,0.3369939 -0.174044,0.6058761 -0.245524,0.9275362 -0.006,0.026979 -0.05391,0.5069392 -0.05456,0.5183291 -0.02974,0.5205258 -0.07604,0.9452112 0.05456,1.4458653 0.165693,0.6351569 0.562602,1.1490559 0.818414,1.7459509 0.56929,1.328343 0.09954,0.267255 0.436488,1.200341 0.207761,0.575337 0.482271,1.123835 0.709292,1.691389 0.165591,0.413977 0.291105,0.855014 0.491049,1.254902 0.115099,0.230198 0.282,0.432119 0.409207,0.654732 0.08823,0.154405 0.173992,0.315549 0.272805,0.463768 0.0323,0.04845 0.07826,0.08703 0.109122,0.136402 0.07309,0.11694 0.08468,0.2836 0.136402,0.409207 0.05305,0.128833 0.127311,0.309184 0.190964,0.436488 0.02141,0.04283 0.0164,0.251118 0.02728,0.300085 0.01685,0.07585 0.063,0.142869 0.08184,0.218244 0.03341,0.133656 0,0.595248 0,0.763853" />
  <path
     style="fill:none;stroke:#ff9500;stroke-width:1.079;stroke-opacity:1"
     d="m 23.734015,19.287298 c 0.03054,-0.05816 0.06718,-0.113124 0.109122,-0.163683 0.135265,-0.163039 0.324068,-0.277108 0.526078,-0.340906 0.20201,-0.0638 0.417037,-0.07926 0.628469,-0.06604 0.422864,0.02643 0.829841,0.164449 1.246135,0.243265 0.887316,0.167993 1.800035,0.06505 2.700768,0 0.699346,-0.05051 1.400128,-0.0778 2.100596,-0.109122 0.200725,-0.009 0.404421,-0.01803 0.600171,0.02728 0.195982,0.04537 0.375042,0.143121 0.560165,0.221838 0.185123,0.07872 0.387376,0.139706 0.585615,0.105528 0.0493,-0.0085 0.0991,-0.02286 0.148511,-0.01507 0.02471,0.0039 0.04893,0.01363 0.06738,0.03052 0.0092,0.0084 0.01691,0.01862 0.02214,0.02998 0.0052,0.01136 0.008,0.02392 0.0075,0.03641 -3.39e-4,0.0091 -0.0023,0.01845 0,0.02728 0.002,0.0075 0.0071,0.01406 0.01347,0.01857 0.0064,0.0045 0.01394,0.0071 0.02163,0.0084 0.01539,0.0026 0.03113,1.37e-4 0.04674,2.91e-4 0.04209,4.16e-4 0.08353,0.02113 0.109121,0.05456 0.104268,0.006 0.207216,0.03406 0.300086,0.08184 0.195715,0.100689 0.335957,0.280317 0.491048,0.436488 0.198308,0.19969 0.429355,0.367086 0.682012,0.491048 0.0393,0.01928 0.08017,0.03828 0.109945,0.07038 0.01488,0.01605 0.02667,0.03531 0.03207,0.05653 0.0054,0.02121 0.0041,0.04444 -0.0056,0.06406 -0.01024,0.02069 -0.02865,0.03587 -0.04539,0.05177 -0.0084,0.0079 -0.01648,0.01627 -0.02307,0.02574 -0.0066,0.0095 -0.01165,0.0202 -0.01338,0.03161 -0.0027,0.01802 0.0029,0.03656 0,0.05456 -0.0016,0.0099 -0.0057,0.01921 -0.01128,0.02748 -0.0056,0.0083 -0.01266,0.01546 -0.02038,0.0218 -0.01542,0.01267 -0.03331,0.02191 -0.05018,0.03257 -0.0841,0.05312 -0.140813,0.140028 -0.186299,0.228495 -0.04549,0.08847 -0.08287,0.181881 -0.141067,0.262553 -0.06109,0.08468 -0.143615,0.152659 -0.234697,0.203711 -0.09108,0.05105 -0.190686,0.08564 -0.292168,0.110212 -0.202966,0.04914 -0.413302,0.05878 -0.618915,0.09528 -0.247365,0.04392 -0.487741,0.127061 -0.709292,0.245525 -0.234613,0.125448 -0.446223,0.288985 -0.664033,0.441757 -0.217809,0.152771 -0.446158,0.296976 -0.699991,0.376657 -0.143123,0.04493 -0.292061,0.06858 -0.436488,0.109122 -0.227818,0.06394 -0.446301,0.170218 -0.682012,0.190963 -0.117818,0.01037 -0.236377,-0.0011 -0.354646,0 -0.127664,0.0012 -0.254675,0.01697 -0.381927,0.02728 -0.290231,0.02352 -0.581925,0.01853 -0.872975,0.02728 -0.417391,0.01255 -0.83519,0.05339 -1.251798,0.0249 -0.416607,-0.02848 -0.839841,-0.132044 -1.176165,-0.37955 -0.150473,-0.110735 -0.279703,-0.247267 -0.409207,-0.381927 -0.151558,-0.157593 -0.304731,-0.313727 -0.463768,-0.463768 -0.112321,-0.105967 -0.227902,-0.209247 -0.327366,-0.327365 -0.15019,-0.178358 -0.260461,-0.386869 -0.354646,-0.600171 -0.04113,-0.09314 -0.07977,-0.188195 -0.136402,-0.272805 -0.076,-0.113554 -0.182872,-0.205933 -0.245524,-0.327365 -0.03177,-0.06157 -0.05116,-0.128844 -0.08184,-0.190964 -0.02349,-0.04757 -0.05336,-0.09164 -0.08184,-0.136402 -0.144762,-0.227522 -0.255489,-0.476658 -0.327366,-0.736573"
     id="path11"
     inkscape:path-effect="#path-effect11"
     inkscape:original-d="m 23.734015,19.287298 c 0.03637,-0.05456 0.05197,-0.131535 0.109122,-0.163683 0.407704,-0.229334 2.126791,-0.163683 2.400682,-0.163683 0.900256,0 1.801023,0.03033 2.700768,0 0.708444,-0.02388 1.39238,-0.125984 2.100596,-0.109122 0.200207,0.0048 0.401454,0.0024 0.600171,0.02728 0.395839,0.04948 0.772484,0.196713 1.14578,0.327366 0.08143,0.0285 0.166691,0.0468 0.245524,0.08184 0.0083,0.0037 -0.0064,0.02085 0,0.02728 0.02033,0.02033 0.05612,0.01442 0.08184,0.02728 0.03637,0.01819 0.07136,0.03946 0.109121,0.05456 0.08895,0.06655 0.203005,0.04544 0.300086,0.08184 0.190454,0.07142 0.345879,0.321206 0.491048,0.436488 0.219375,0.174209 0.456112,0.325388 0.682012,0.491048 0.0877,0.06431 0.162795,0.08539 0.136403,0.190963 -0.01497,0.05988 -0.05839,0.06222 -0.08184,0.109122 -0.0081,0.01627 0.01091,0.04001 0,0.05456 -0.02315,0.03087 -0.06044,0.04974 -0.08184,0.08184 -0.124587,0.18688 -0.143578,0.337892 -0.327366,0.491048 -0.309902,0.258252 -0.783044,0.298166 -1.14578,0.409207 -0.239236,0.07324 -0.480074,0.145242 -0.709292,0.245525 -0.495282,0.216685 -0.886355,0.579579 -1.364024,0.818414 -0.203311,0.101655 -0.260323,0.04306 -0.436488,0.109122 -0.209191,0.07845 -0.464694,0.159918 -0.682012,0.190963 -0.117027,0.01672 -0.236512,-0.0044 -0.354646,0 -0.127546,0.0047 -0.254618,0.01819 -0.381927,0.02728 -0.290991,0.0091 -0.581907,0.02109 -0.872975,0.02728 -0.695468,0.0148 -1.82574,0.04684 -2.427963,-0.354646 C 25.69207,22.620507 25.794974,22.673253 25.561808,22.424543 25.412283,22.26505 25.257533,22.1103 25.09804,21.960775 c -0.237277,-0.222447 -0.143738,-0.08865 -0.327366,-0.327365 -0.142999,-0.185899 -0.243827,-0.394364 -0.354646,-0.600171 -0.0482,-0.08952 -0.07731,-0.190074 -0.136402,-0.272805 -0.07756,-0.108586 -0.177015,-0.20992 -0.245524,-0.327365 -0.03489,-0.05982 -0.05087,-0.129021 -0.08184,-0.190964 -0.02371,-0.04743 -0.0599,-0.08813 -0.08184,-0.136402 -0.104525,-0.229956 -0.146591,-0.555798 -0.327366,-0.736573" />
</svg>
