<?xml version="1.0" encoding="UTF-8" standalone="no"?>
<svg
   width="18px"
   height="12px"
   viewBox="0 0 18 12"
   version="1.1"
   id="svg1"
   xmlns="http://www.w3.org/2000/svg"
   xmlns:svg="http://www.w3.org/2000/svg"
   xmlns:rdf="http://www.w3.org/1999/02/22-rdf-syntax-ns#"
   xmlns:cc="http://creativecommons.org/ns#"
   xmlns:dc="http://purl.org/dc/elements/1.1/">
  <!-- Generator: Sketch 49 (51002) - http://www.bohemiancoding.com/sketch -->
  <title
     id="title1">menu - material</title>
  <desc
     id="desc1">Created with Sketch.</desc>
  <defs
     id="defs1" />
  <path
     style="opacity:1;fill:none;fill-opacity:1;stroke:#4d5060;stroke-width:2;stroke-dasharray:none;stroke-opacity:1"
     d="m 0.70588235,1.5652174 c 0.0746888,-0.00834 0.14992655,-0.01176 0.22506394,-0.01023 0.0233893,4.762e-4 0.0469371,0.00142 0.0700474,-0.00221 0.02311,-0.00363 0.046096,-0.012249 0.062945,-0.028479 0.00347,-0.00335 0.00666,-0.00699 0.01023,-0.01023 0.010046,-0.00913 0.022933,-0.014834 0.036275,-0.017325 0.013342,-0.00249 0.027139,-0.00187 0.040482,6.137e-4 0.026687,0.00497 0.051373,0.01716 0.076695,0.026941 0.072314,0.027934 0.1508576,0.036415 0.2283776,0.03598 0.07752,-4.352e-4 0.1546925,-0.00951 0.2319804,-0.01552 0.1361687,-0.010589 0.2729101,-0.011676 0.4092072,-0.02046 0.017046,-0.0011 0.034227,-0.00231 0.051151,0 0.020551,0.00281 0.040085,0.010749 0.058487,0.02032 0.018402,0.00957 0.035882,0.020813 0.054045,0.030831 0.07042,0.03884 0.1499865,0.058607 0.2297863,0.068582 0.0798,0.00998 0.160427,0.010538 0.2408019,0.013259 0.1364696,0.00462 0.2735398,0.01548 0.4092072,0 0.065881,-0.00752 0.1310534,-0.021238 0.1943734,-0.040921 0.073981,-0.016533 0.1493577,-0.026812 0.2250639,-0.030691 0.078345,-0.00401 0.1568548,-0.00118 0.2352941,0 0.2386946,0.0036 0.4775262,-0.00804 0.7161126,0 0.078462,0.00264 0.1568385,0.00742 0.2352941,0.01023 0.1841403,0.0066 0.3686045,0.0024 0.5524296,-0.01023 0.095502,-0.00656 0.1908519,-0.015399 0.286445,-0.02046 0.1703211,-0.00902 0.3410559,-0.00603 0.511509,0 0.3720363,0.013156 0.7433918,0.040766 1.1150895,0.061381 0.081792,0.00454 0.1636206,0.00873 0.2455243,0.01023 0.1262398,0.00231 0.2528302,-0.0018 0.3785166,0.01023 0.2065845,0.019773 0.4072011,0.082795 0.6138108,0.1023018 0.1971207,0.018611 0.3954955,-0.00272 0.5933504,-0.01023 0.2692268,-0.010219 0.5388136,0.0052 0.8081841,0 0.064797,-0.00125 0.1296697,-0.00369 0.1943737,0 0.109824,0.00627 0.217894,0.030123 0.327366,0.040921 0.105593,0.010415 0.21271,0.00858 0.317135,-0.01023 0.04805,-0.00866 0.09539,-0.020866 0.143223,-0.030691 0.128073,-0.02631 0.258951,-0.035397 0.388746,-0.051151 0.19741,-0.023961 0.394878,-0.063529 0.593351,-0.051151 0.117022,0.0073 0.232059,0.032568 0.347826,0.051151 0.152863,0.024538 0.307397,0.037462 0.460358,0.061381 0.051,0.00798 0.101932,0.017185 0.153453,0.02046 0.04426,0.00281 0.08866,0.00123 0.132992,0 0.276323,-0.00765 0.55307,-0.00127 0.828644,0.02046 0.252237,0.019888 0.504019,0.052648 0.757034,0.051151 0.112586,-6.662e-4 0.225028,-0.00812 0.337596,-0.01023 0.167076,-0.00313 0.334264,0.00552 0.501278,0 0.133104,-0.0044 0.265828,-0.017781 0.398977,-0.02046 0.109106,-0.0022 0.218274,0.0028 0.327366,0 0.0377,-9.685e-4 0.07554,-0.00289 0.112532,-0.01023 0.05195,-0.010311 0.101397,-0.031151 0.153453,-0.040921 0.08065,-0.015137 0.163527,-0.00312 0.245524,0 0.174563,0.00665 0.353574,-0.026836 0.521739,0.02046 0.02711,0.00762 0.05385,0.01734 0.08184,0.02046 0.02894,0.00323 0.05813,-7.213e-4 0.08713,-0.0035 0.02899,-0.00278 0.05874,-0.00433 0.08679,0.0035 0.01039,0.0029 0.02039,0.00704 0.03069,0.01023 0.03307,0.010226 0.06923,0.010226 0.102302,0"
     id="path1"
     transform="translate(-0.11253197,-0.42966752)" />
  <path
     style="opacity:1;fill:none;fill-opacity:1;stroke:#4d5060;stroke-width:2;stroke-dasharray:none;stroke-opacity:1"
     d="m 0.28644501,5.943734 c 0.0186241,0.019105 0.0392304,0.036277 0.0613811,0.051151 0.0857235,0.057561 0.19139451,0.078617 0.29461913,0.08116 0.10322463,0.00254 0.20599235,-0.012087 0.30896143,-0.019779 0.23526253,-0.017573 0.47182583,0.00111 0.70588233,0.030691 0.2587139,0.032694 0.5167402,0.078774 0.7774936,0.081841 0.1776815,0.00209 0.3548978,-0.015833 0.5319693,-0.030691 0.1327415,-0.011138 0.265769,-0.020569 0.398977,-0.02046 0.249594,2.04e-4 0.4978082,0.033866 0.7468031,0.051151 0.1667998,0.011579 0.3341706,0.01581 0.5012787,0.01023 0.1194029,-0.00399 0.239292,-0.012961 0.3580563,0 0.1490157,0.016263 0.2921754,0.066611 0.4398977,0.092072 0.1349091,0.023253 0.272405,0.02556 0.4092072,0.030691 0.078432,0.00294 0.1571044,0.00682 0.2352941,0 0.068721,-0.006 0.1364217,-0.020213 0.2046036,-0.030691 0.074841,-0.011501 0.1503309,-0.018508 0.2250639,-0.03069 0.1569056,-0.025576 0.3091341,-0.073723 0.4603581,-0.1227621 0.2535913,-0.082235 0.5109614,-0.1682854 0.7774936,-0.1739131 0.1850623,-0.00391 0.3684042,0.031201 0.5524296,0.051151 0.3767271,0.04084 0.7570501,0.01814 1.1355499,0 0.1090915,-0.00523 0.2186139,-0.010066 0.3273657,0 0.2847906,0.026359 0.5535806,0.1537087 0.8388746,0.1739131 0.06133,0.00434 0.123007,0.00368 0.184143,0.01023 0.05856,0.00627 0.116174,0.019104 0.173913,0.030691 0.202212,0.040581 0.40764,0.066117 0.613811,0.071611 0.07159,0.00191 0.14323,0.0014 0.214834,0 0.218305,-0.00427 0.437035,-0.016856 0.654731,0 0.06834,0.00529 0.136417,0.013475 0.204604,0.02046 0.125765,0.012883 0.2521,0.021693 0.378517,0.02046 0.105767,-0.00103 0.211369,-0.00909 0.317135,-0.01023 0.232093,-0.0025 0.465274,0.028275 0.695652,0 0.06511,-0.00799 0.129546,-0.020661 0.194374,-0.030691 0.08799,-0.013614 0.176967,-0.022373 0.265984,-0.02046 0.04777,0.00103 0.09572,0.00512 0.143223,0 0.03792,-0.00408 0.07495,-0.013975 0.112532,-0.02046 0.07426,-0.012814 0.150152,-0.01225 0.225064,-0.02046 0.171955,-0.018845 0.338536,-0.083826 0.511509,-0.081841 0.03412,3.916e-4 0.06835,0.0034 0.102301,0 0.02065,-0.00207 0.04097,-0.00649 0.06138,-0.01023 0.06078,-0.011144 0.12249,-0.016299 0.184143,-0.02046 0.174217,-0.011758 0.350876,-0.015535 0.521739,0.02046 0.03734,0.00787 0.07448,0.017641 0.112532,0.02046 0.04287,0.00318 0.08583,-0.00255 0.12876,-0.00491 0.04293,-0.00236 0.08719,-0.00112 0.126994,0.015138 0.01412,0.00577 0.02743,0.01333 0.04092,0.02046 0.02989,0.015802 0.06105,0.029634 0.09387,0.037762 0.03282,0.00813 0.06747,0.010402 0.100499,0.00316 0.01742,-0.00382 0.0343,-0.010247 0.052,-0.012479 0.0088,-0.00112 0.0179,-0.00116 0.02662,7.139e-4 0.0087,0.00187 0.01711,0.00573 0.02368,0.011765 0.0036,0.00326 0.0065,0.00712 0.01023,0.01023 0.008,0.00674 0.01877,0.00945 0.02924,0.00975 0.01047,3.015e-4 0.02086,-0.00155 0.03116,-0.00348 0.02058,-0.00386 0.04143,-0.00627 0.06237,-0.00627 h 0.358056"
     id="path2"
     transform="matrix(0.98871972,0,0,1.004655,0.43034652,-0.2127046)" />
  <path
     style="opacity:1;fill:none;fill-opacity:1;stroke:#4d5060;stroke-width:2;stroke-dasharray:none;stroke-opacity:1"
     d="m 0.75703325,10.731458 c 0.24556145,-0.04755 0.49108585,-0.09529 0.73657285,-0.143223 0.064412,-0.01258 0.128976,-0.02519 0.1943734,-0.03069 0.1702023,-0.01432 0.3407068,0.01982 0.511509,0.02046 0.1127685,4.25e-4 0.2250264,-0.01375 0.3375959,-0.02046 0.098985,-0.0059 0.1988492,-0.006 0.2966752,0.01023 0.086521,0.01434 0.170398,0.04124 0.2557545,0.06138 0.1072534,0.02531 0.21717,0.03997 0.3273657,0.04092 0.051154,4.4e-4 0.1023383,-0.0021 0.1534527,0 0.2443991,0.0099 0.4734273,0.122919 0.7161125,0.153452 0.1930429,0.02429 0.3886032,-0.0043 0.5831202,0 0.1778486,0.0039 0.3541629,0.03539 0.5319693,0.04092 0.1808284,0.0056 0.3613487,-0.01561 0.5421995,-0.02046 0.2352721,-0.0063 0.4710116,0.01511 0.7058824,0 0.1605626,-0.01033 0.3199558,-0.03771 0.4808184,-0.04092 0.1913429,-0.0038 0.3850526,0.02643 0.57289,-0.01023 0.086928,-0.01697 0.1704131,-0.04792 0.2557545,-0.07161 0.074147,-0.02058 0.1496869,-0.03567 0.2250639,-0.05115 0.1390124,-0.02855 0.278123,-0.05857 0.4194374,-0.07161 0.2446949,-0.02258 0.4908728,0.0061 0.7365729,0.01023 0.242146,0.004 0.4846852,-0.01589 0.7263425,0 0.181521,0.01194 0.361119,0.044 0.5422,0.06138 0.251447,0.02413 0.504664,0.01986 0.757033,0.03069 0.139854,0.006 0.279506,0.01665 0.419437,0.02046 0.279559,0.0076 0.559473,-0.01208 0.838875,0 0.150257,0.0065 0.299972,0.02217 0.450128,0.03069 0.197561,0.01121 0.395725,0.01001 0.59335,0 0.122797,-0.0062 0.24542,-0.01584 0.368287,-0.02046 0.228334,-0.0086 0.456927,8.9e-5 0.685422,0 0.167102,-6.5e-5 0.334246,-0.0048 0.501278,0 0.126185,0.0036 0.252305,0.01274 0.378517,0.01023 0.0614,-0.0012 0.122947,-0.0052 0.184143,0 0.04806,0.0041 0.09545,0.01377 0.143223,0.02046 0.142161,0.01991 0.286718,0.0131 0.429667,0 0.0409,-0.0038 0.08247,-0.008 0.122762,0 0.01379,0.0027 0.02726,0.0069 0.04092,0.01023 0.09968,0.02452 0.204308,0.0068 0.306906,0.01023 0.04163,0.0014 0.08356,0.0064 0.122762,0.02046 0.01728,0.0062 0.0339,0.01416 0.05115,0.02046 0.07872,0.02876 0.167969,0.02154 0.245524,-0.01023 0.017,-0.007 0.03358,-0.01508 0.05115,-0.02046 0.03309,-0.01014 0.06921,-0.01014 0.102302,0"
     id="path3"
     transform="translate(-0.12276215,0.08184143)" />
  <metadata
     id="metadata3">
    <rdf:RDF>
      <cc:Work
         rdf:about="">
        <dc:title>menu - material</dc:title>
      </cc:Work>
    </rdf:RDF>
  </metadata>
</svg>
