<?xml version="1.0" encoding="UTF-8" standalone="no"?>
<svg
   width="44px"
   height="52px"
   viewBox="0 0 44 52"
   version="1.1"
   id="svg1"
   sodipodi:docname="micro-payments.svg"
   inkscape:version="1.3.2 (091e20e, 2023-11-25, custom)"
   xmlns:inkscape="http://www.inkscape.org/namespaces/inkscape"
   xmlns:sodipodi="http://sodipodi.sourceforge.net/DTD/sodipodi-0.dtd"
   xmlns="http://www.w3.org/2000/svg"
   xmlns:svg="http://www.w3.org/2000/svg">
  <sodipodi:namedview
     id="namedview1"
     pagecolor="#ffffff"
     bordercolor="#000000"
     borderopacity="0.25"
     inkscape:showpageshadow="2"
     inkscape:pageopacity="0.0"
     inkscape:pagecheckerboard="0"
     inkscape:deskcolor="#d1d1d1"
     inkscape:zoom="22.557692"
     inkscape:cx="21.988065"
     inkscape:cy="26"
     inkscape:window-width="2560"
     inkscape:window-height="1369"
     inkscape:window-x="-8"
     inkscape:window-y="-8"
     inkscape:window-maximized="1"
     inkscape:current-layer="svg1" />
  <!-- Generator: Sketch 49 (51002) - http://www.bohemiancoding.com/sketch -->
  <title
     id="title1">Micro payments ICON</title>
  <desc
     id="desc1">Created with Sketch.</desc>
  <defs
     id="defs1">
    <inkscape:path-effect
       effect="spiro"
       id="path-effect5"
       is_visible="true"
       lpeversion="1" />
    <inkscape:path-effect
       effect="spiro"
       id="path-effect4"
       is_visible="true"
       lpeversion="1" />
    <inkscape:path-effect
       effect="spiro"
       id="path-effect3"
       is_visible="true"
       lpeversion="1" />
    <inkscape:path-effect
       effect="spiro"
       id="path-effect2"
       is_visible="true"
       lpeversion="1" />
    <inkscape:path-effect
       effect="spiro"
       id="path-effect1"
       is_visible="true"
       lpeversion="1" />
  </defs>
  <path
     style="fill:none;stroke:#1c3c55;stroke-width:1.079;stroke-opacity:1"
     d="m 27.041773,20.037511 c -0.198981,-1.599249 0.08221,-3.255145 0.797954,-4.699063 0.18374,-0.370671 0.395315,-0.727687 0.562071,-1.106303 0.166755,-0.378617 0.28888,-0.785275 0.280214,-1.198897 -0.01065,-0.508159 -0.225578,-1.006377 -0.5763,-1.374254 -0.08653,-0.09076 -0.18087,-0.173895 -0.265985,-0.265985 -0.323358,-0.349856 -0.499324,-0.815449 -0.5763,-1.285592 -0.09809,-0.599089 -0.04673,-1.2119459 -0.08866,-1.8175619 -0.03078,-0.4445395 -0.111832,-0.8848224 -0.132993,-1.3299233 -0.02035,-0.4281226 0.01487,-0.8572445 0,-1.2855925 -0.01027,-0.2958807 -0.04433,-0.5938938 0,-0.8866155 0.03387,-0.223667 0.112999,-0.43963 0.132993,-0.6649617 0.01176,-0.1325532 0.0028,-0.2659327 0,-0.3989769 -0.0078,-0.3669302 0.03546,-0.7476605 0.221653,-1.0639387 0.112535,-0.1911623 0.272104,-0.3500071 0.398977,-0.5319693 0.08525,-0.1222642 0.155475,-0.2546061 0.243025,-0.3752332 0.08755,-0.1206271 0.196026,-0.2316057 0.333276,-0.2897284 0.124925,-0.052903 0.26402,-0.058349 0.39957,-0.063929 0.135551,-0.00558 0.274878,-0.012925 0.398383,-0.069063 0.09719,-0.044178 0.178625,-0.1159539 0.265985,-0.1773231 0.318828,-0.22397205 0.718641,-0.30822446 1.10827,-0.31031546 0.581259,-0.003119 1.154846,0.16554716 1.674039,0.42691016 0.519193,0.2613631 0.987773,0.6134031 1.429115,0.9916747 0.208573,0.1787663 0.4172,0.3710553 0.531969,0.6206308 0.05549,0.1206638 0.08942,0.2550902 0.177323,0.3546462 0.07653,0.086676 0.186482,0.1376937 0.265985,0.2216539 0.0734,0.077517 0.11647,0.1782723 0.177323,0.2659847 0.07772,0.1120173 0.183659,0.2016412 0.265985,0.3103154 0.17127,0.2260849 0.228418,0.5168196 0.265984,0.797954 0.05512,0.4124825 0.07859,0.8286852 0.132993,1.2412617 0.06258,0.474541 0.165945,0.9431882 0.221654,1.4185848 0.01349,0.1151359 0.02422,0.2308785 0.0487,0.3441892 0.02447,0.1133107 0.06333,0.2249899 0.128625,0.3207724 0.08494,0.1245988 0.211637,0.2170448 0.349803,0.2774668 0.138165,0.060422 0.287864,0.090457 0.437723,0.1072767 0.299717,0.033641 0.608026,0.016691 0.897043,0.1028951 0.203082,0.060573 0.387583,0.1695621 0.5763,0.2659846 0.501222,0.2560932 1.041398,0.4272118 1.551577,0.6649617 0.219526,0.1023019 0.436321,0.2190085 0.611495,0.3862542 0.175175,0.1672452 0.30648,0.3915082 0.319452,0.6333532 0.0016,0.02952 0.0014,0.05913 0,0.08866 -0.01289,0.268229 -0.130782,0.525451 -0.304155,0.730523 -0.173372,0.205072 -0.399782,0.360627 -0.641736,0.477121 -0.483909,0.232988 -1.024985,0.313623 -1.536633,0.476925 -1.197528,0.382214 -2.195544,1.201023 -3.236146,1.906224 -0.31903,0.216202 -0.644448,0.422958 -0.975278,0.620631 -0.29588,0.17679 -0.596178,0.346373 -0.886615,0.531969 -0.408837,0.261257 -0.806823,0.563823 -1.063939,0.975277 -0.04566,0.07307 -0.08654,0.149079 -0.132992,0.221654 -0.124608,0.19468 -0.287176,0.361528 -0.443308,0.531969 -0.367791,0.401498 -0.710498,0.834768 -1.1526,1.1526 -0.145599,0.104673 -0.306114,0.201245 -0.398977,0.354647 -0.03424,0.05656 -0.05785,0.118833 -0.08866,0.177323 -0.07374,0.139977 -0.18831,0.256231 -0.320166,0.343673 -0.131855,0.08744 -0.280719,0.147032 -0.433458,0.188296 -0.0452,0.01221 -0.09129,0.02304 -0.132992,0.04433 -0.0469,0.02394 -0.08643,0.06025 -0.121447,0.09957 -0.03502,0.03932 -0.06608,0.08199 -0.100207,0.122087 -0.168638,0.198166 -0.404482,0.325665 -0.64052,0.435186 -0.236037,0.109521 -0.480798,0.207229 -0.689403,0.362768 -0.07777,0.05799 -0.153192,0.125318 -0.247017,0.149973 -0.04691,0.01233 -0.09783,0.01294 -0.143067,-0.0046 -0.02262,-0.0088 -0.04358,-0.02199 -0.06063,-0.03924 -0.01705,-0.01725 -0.0301,-0.03856 -0.03693,-0.06183 -0.0084,-0.0285 -0.0072,-0.05887 -0.0045,-0.08845 0.0027,-0.02958 0.0069,-0.05926 0.0045,-0.08887 -0.0052,-0.06477 -0.04117,-0.122774 -0.05731,-0.185719 -0.0081,-0.03147 -0.01107,-0.06499 -0.0026,-0.09635 0.0043,-0.01568 0.01139,-0.03065 0.02152,-0.04335 0.01013,-0.0127 0.02331,-0.02307 0.03834,-0.02923 0.0192,-0.0079 0.04086,-0.0086 0.06119,-0.0045 0.02033,0.0041 0.03947,0.01297 0.05725,0.02367 0.03556,0.0214 0.06634,0.0504 0.103206,0.06947 0.03818,0.01975 0.08219,0.02806 0.124942,0.02359 0.04275,-0.0045 0.08409,-0.02171 0.117358,-0.04893 0.03327,-0.02722 0.05834,-0.06434 0.07118,-0.10536 0.01284,-0.04102 0.0134,-0.08581 0.0016,-0.12714 -0.01181,-0.04133 -0.03594,-0.07906 -0.06852,-0.107108 -0.03257,-0.02805 -0.07347,-0.04631 -0.116096,-0.05185 -0.04263,-0.0055 -0.08683,0.0017 -0.125494,0.02045 -0.03866,0.01879 -0.07164,0.04909 -0.09362,0.08603"
     id="path1"
     inkscape:path-effect="#path-effect1"
     inkscape:original-d="m 27.041773,20.037511 c 0.304324,-1.551206 0.266793,-3.194106 0.797954,-4.699063 0.277319,-0.785737 0.842285,-1.440225 0.842285,-2.3052 0,-0.553061 -0.237396,-0.950624 -0.5763,-1.374254 -0.07833,-0.09791 -0.187657,-0.168074 -0.265985,-0.265985 -0.292895,-0.366119 -0.499102,-0.822403 -0.5763,-1.285592 -0.09869,-0.5921194 -0.04592,-1.2191832 -0.08866,-1.8175619 -0.03174,-0.4443866 -0.104309,-0.8853288 -0.132993,-1.3299233 -0.02759,-0.4276418 0,-0.8570617 0,-1.2855925 0,-0.2955385 -0.01735,-0.591587 0,-0.8866155 0.06722,-1.1426746 0.003,0.3750933 0.132993,-0.6649617 0.01649,-0.1319653 -0.0074,-0.2661894 0,-0.3989769 0.01855,-0.33391 0.07935,-0.7556065 0.221653,-1.0639387 0.09109,-0.1973611 0.271843,-0.3624565 0.398977,-0.5319693 0.100055,-0.1334066 0.41348,-0.5998336 0.576301,-0.6649616 0.252389,-0.1009557 0.548768,-0.043998 0.797953,-0.1329923 0.100351,-0.035839 0.177324,-0.1182154 0.265985,-0.1773231 0.327154,-0.21810293 0.697963,-0.38922058 1.10827,-0.31031546 0.951773,0.18303336 2.356041,0.80140496 3.103154,1.41858486 0.249362,0.2059951 0.398664,0.3540214 0.531969,0.6206308 0.0635,0.126996 0.07462,0.2519399 0.177323,0.3546462 0.256134,0.2561334 0.0118,-0.1051552 0.265985,0.2216539 0.06542,0.084112 0.112353,0.1815243 0.177323,0.2659847 0.08307,0.1079843 0.195892,0.1934935 0.265985,0.3103154 0.06463,0.1077154 0.246442,0.7119661 0.265984,0.797954 0.164561,0.7240671 0.02875,0.407331 0.132993,1.2412617 0.05936,0.4749032 0.142972,0.9464976 0.221654,1.4185848 0.02455,0.1472889 0.07479,0.5009106 0.177323,0.6649616 0.275134,0.4402145 1.297171,0.4060811 1.684569,0.4876386 0.207035,0.043586 0.379113,0.1893007 0.5763,0.2659846 0.777896,0.3025151 0.50268,0.1235954 1.551577,0.6649617 0.388448,0.2004889 0.841911,0.5744274 0.930947,1.0196074 0.0058,0.02898 0.0209,0.06776 0,0.08866 -0.495519,0.495518 -2.180953,1.491762 -2.482524,1.684569 -1.057552,0.67614 -2.164737,1.254061 -3.236146,1.906224 -0.329153,0.200354 -0.647641,0.417808 -0.975278,0.620631 -0.293047,0.18141 -0.602606,0.336712 -0.886615,0.531969 -0.355598,0.244474 -0.791628,0.625164 -1.063939,0.975277 -0.0529,0.06801 -0.08129,0.152723 -0.132992,0.221654 -0.133443,0.177924 -0.298905,0.361312 -0.443308,0.531969 -0.358044,0.423143 -0.747281,0.774303 -1.1526,1.1526 -0.130082,0.121411 -0.281804,0.220735 -0.398977,0.354647 -0.04352,0.04973 -0.04565,0.127148 -0.08866,0.177323 -0.08845,0.10319 -0.628114,0.469214 -0.753624,0.531969 -0.0418,0.0209 -0.09411,0.01841 -0.132992,0.04433 -0.110827,0.07388 -0.123141,0.147769 -0.221654,0.221654 -0.367928,0.275946 -0.902427,0.675812 -1.329923,0.797954 -0.03344,0.0096 -0.479825,0.07558 -0.487639,0.04433 -0.01433,-0.05734 0.0097,-0.119019 0,-0.177323 -0.0052,-0.0313 -0.124349,-0.354646 0,-0.354646 0.07958,0 0.1921,0.162546 0.221654,0.08866 0.129559,-0.323898 -0.280769,-0.310316 -0.08866,-0.310316" />
  <path
     style="fill:none;stroke:#1c3c55;stroke-width:1.079;stroke-opacity:1"
     d="m 22.209719,30.056266 c -0.134045,0.01589 -0.271689,5.97e-4 -0.398977,-0.04433 -0.166628,-0.05881 -0.313651,-0.167644 -0.427643,-0.302661 -0.113992,-0.135018 -0.195737,-0.295576 -0.249208,-0.463995 -0.106941,-0.336836 -0.101594,-0.698374 -0.07677,-1.050906 0.104316,-1.481585 0.531807,-2.92015 0.753624,-4.388746 0.05806,-0.384408 0.102072,-0.771185 0.177323,-1.152601 0.04941,-0.250434 0.112373,-0.499195 0.132992,-0.753623 0.02149,-0.265225 -0.0034,-0.531882 0,-0.797954 0.0032,-0.251654 0.03182,-0.502259 0.04433,-0.753623 0.06952,-1.396319 -0.356314,-2.767565 -0.842285,-4.078431 -0.09261,-0.24982 -0.187665,-0.49896 -0.265985,-0.753623 -0.16454,-0.535011 -0.253864,-1.089645 -0.354646,-1.640239 -0.119497,-0.652838 -0.255702,-1.302519 -0.398977,-1.950554 -0.04256,-0.192505 -0.08575,-0.38489 -0.132992,-0.5763 -0.132646,-0.53746 -0.299427,-1.072203 -0.5763,-1.5515776 -0.06049,-0.1047275 -0.126187,-0.2067437 -0.177721,-0.3161551 -0.05153,-0.1094115 -0.08886,-0.2278675 -0.08826,-0.3488065 3.21e-4,-0.064678 0.01145,-0.1294457 0.0048,-0.1937779 -0.0033,-0.032166 -0.01127,-0.064169 -0.02651,-0.092696 -0.01523,-0.028528 -0.03811,-0.053472 -0.06692,-0.068172 -0.03655,-0.018651 -0.08066,-0.019586 -0.119799,-0.00726 -0.03914,0.012321 -0.07356,0.037051 -0.101848,0.066775 -0.05657,0.05945 -0.08905,0.1371686 -0.133,0.2064741 -0.06397,0.1008738 -0.152958,0.184398 -0.252,0.2511648 -0.09904,0.066767 -0.208163,0.1173583 -0.319606,0.1603424 -0.222886,0.085968 -0.457821,0.1430234 -0.669655,0.2534544 -0.262574,0.1368822 -0.476679,0.3487401 -0.709293,0.5319691 -0.439864,0.346479 -0.95884,0.600293 -1.329923,1.019608 -0.146962,0.166063 -0.266722,0.353971 -0.398977,0.531969 -0.156925,0.211201 -0.331671,0.408722 -0.487638,0.620631 -0.268484,0.364784 -0.478612,0.768361 -0.711248,1.156988 -0.232635,0.388628 -0.493184,0.76862 -0.84033,1.059551 -0.396886,0.332616 -0.885716,0.531811 -1.329923,0.797954 -0.454116,0.272079 -0.861427,0.614192 -1.285592,0.930946 -0.346029,0.258404 -0.7054639,0.501606 -1.0196082,0.797954 -0.2206173,0.20812 -0.4167239,0.440445 -0.6206309,0.664962 C 8.69222,18.0613 8.4632416,18.29429 8.2011935,18.485935 c -0.1193582,0.08729 -0.245637,0.166069 -0.3546462,0.265984 -0.1312597,0.12031 -0.2339852,0.26804 -0.3546462,0.398977 -0.099145,0.107588 -0.2102087,0.203622 -0.3103154,0.310316 -0.3147738,0.335485 -0.5097097,0.76255 -0.7536232,1.1526 -0.3480575,0.556591 -0.7996001,1.042439 -1.1526002,1.595908 -0.4305366,0.675039 -0.7106723,1.460221 -0.7092924,2.260869 2.803e-4,0.162606 0.012023,0.325478 0,0.487639 -0.0133,0.179392 -0.055467,0.355173 -0.088661,0.531969 -0.1831989,0.975754 -0.09303,1.980944 -0.1773231,2.970162 -0.060873,0.714369 -0.2125115,1.417622 -0.3103155,2.127877 -0.050758,0.368602 -0.087006,0.739042 -0.1329923,1.10827 -0.0955,0.766774 -0.2332902,1.53259 -0.2216539,2.3052 0.00357,0.236933 0.021212,0.473462 0.044331,0.709292 0.1564546,1.595941 0.5646024,3.162832 1.1526002,4.654732 0.1916716,0.486319 0.4030047,0.966232 0.6649616,1.418585 0.092849,0.160333 0.1922791,0.317653 0.2659847,0.487638 0.078906,0.181979 0.1274701,0.378027 0.1329923,0.5763 0.00206,0.07386 -0.00182,0.147787 0,0.221654 0.011278,0.45844 0.2413848,0.886502 0.5319693,1.241262 0.027579,0.03367 0.055809,0.06694 0.079854,0.103222 0.024045,0.03628 0.043946,0.07589 0.053138,0.118432 0.015651,0.07243 -5.479e-4,0.147552 0,0.221654 7.119e-4,0.09628 0.03021,0.191229 0.077745,0.274962 0.047535,0.08373 0.1126687,0.156637 0.1857413,0.219336 0.1461453,0.125398 0.3220094,0.209761 0.4901368,0.303656 0.4939833,0.275877 0.9322611,0.64178 1.4185848,0.930946 0.222282,0.132168 0.4547217,0.248389 0.6649617,0.398977 0.060068,0.04303 0.118154,0.08874 0.1773231,0.132992 0.8370557,0.626033 1.8642277,0.941159 2.8855607,1.163545 1.021334,0.222387 2.064157,0.364767 3.054764,0.698348 0.528028,0.17781 1.036408,0.408426 1.551577,0.620631 0.592471,0.244046 1.196116,0.464471 1.817561,0.620631 0.692078,0.173909 1.404668,0.267775 2.083547,0.487638 0.133369,0.04319 0.26517,0.09117 0.398977,0.132992 0.900891,0.281562 1.863821,0.276554 2.792839,0.443308 0.342369,0.06145 0.680038,0.146253 1.019608,0.221654 0.665117,0.147687 1.338802,0.259601 1.994885,0.443308 0.400744,0.112211 0.793903,0.25094 1.196931,0.354646 0.628826,0.161807 1.277373,0.23726 1.906223,0.398977 0.218211,0.05612 0.44231,0.123169 0.664962,0.08866 0.149101,-0.02311 0.289288,-0.09175 0.406809,-0.186377 0.117521,-0.09463 0.213104,-0.214585 0.289815,-0.34451 0.153422,-0.259849 0.231523,-0.5558 0.322983,-0.843367 0.160115,-0.503431 0.366151,-0.993126 0.487639,-1.507247 0.11067,-0.468339 0.149827,-0.951577 0.265985,-1.418585 0.210185,-0.845039 0.66477,-1.609084 0.930946,-2.438192 0.272156,-0.847734 0.345808,-1.758411 0.709292,-2.571185 0.08095,-0.181006 0.175615,-0.355479 0.265985,-0.53197 0.301693,-0.589197 0.555796,-1.2015 0.797954,-1.817561 0.230515,-0.586441 0.455942,-1.186785 0.842285,-1.68457 0.231068,-0.297721 0.51425,-0.551199 0.753623,-0.842285 0.200912,-0.244315 0.369941,-0.513891 0.5763,-0.753623 0.286973,-0.333382 0.639838,-0.602049 0.975277,-0.886615 0.442278,-0.375202 0.861003,-0.785312 1.185838,-1.265799 0.324836,-0.480488 0.553242,-1.03672 0.587393,-1.615702 0.01305,-0.221317 -0.0021,-0.443269 0,-0.664961 0.0023,-0.236596 0.02427,-0.473935 0,-0.709293 -0.04348,-0.421545 -0.233435,-0.818733 -0.265985,-1.241262 -0.01022,-0.132675 -0.0047,-0.265993 0,-0.398977 0.02044,-0.576095 0.02609,-1.153033 0,-1.7289 -0.02883,-0.636324 -0.09637,-1.270299 -0.132992,-1.906223 -0.03825,-0.664114 -0.04275,-1.329673 -0.04433,-1.994885 -0.0024,-0.995018 7.02e-4,-2.000304 -0.221654,-2.970162 -0.10254,-0.447252 -0.252181,-0.882653 -0.354646,-1.329923 -0.06274,-0.273878 -0.109298,-0.556438 -0.239632,-0.805353 -0.06517,-0.124457 -0.151486,-0.239274 -0.261636,-0.326471 -0.110149,-0.0872 -0.245091,-0.145725 -0.385347,-0.153769 -0.11813,-0.0068 -0.236827,0.02223 -0.343292,0.07386 -0.106466,0.05163 -0.201204,0.125309 -0.285026,0.208823 -0.167644,0.167026 -0.291731,0.371725 -0.435621,0.559603 -0.202287,0.264128 -0.443852,0.495093 -0.669803,0.739286 -0.22595,0.244193 -0.439651,0.506823 -0.571459,0.812291 -0.124179,0.287787 -0.172018,0.605341 -0.310315,0.886616 -0.21371,0.434653 -0.618668,0.738029 -0.930946,1.108269 -0.105835,0.125479 -0.201618,0.259507 -0.313352,0.379763 -0.111735,0.120256 -0.242108,0.227914 -0.395941,0.285199 -0.07481,0.02786 -0.155445,0.04406 -0.221654,0.08866 -0.02221,0.01496 -0.04229,0.03282 -0.06351,0.04916 -0.02122,0.01634 -0.04397,0.03135 -0.06948,0.0395 -0.02833,0.009 -0.05874,0.0092 -0.0884,0.0069 -0.02966,-0.0023 -0.05918,-0.0068 -0.08893,-0.0069 -0.07556,-2.89e-4 -0.147875,0.02801 -0.221654,0.04433 -0.188202,0.04164 -0.383614,0.0051 -0.5763,0 -0.378606,-0.01001 -0.748922,0.10202 -1.10827,0.221654 -1.18861,0.395712 -2.349628,0.890046 -3.413469,1.551578 -0.435078,0.270546 -0.852701,0.568254 -1.285593,0.842284 -0.374865,0.237298 -0.760886,0.456648 -1.1526,0.664962 -0.246743,0.131218 -0.498454,0.259875 -0.709292,0.443308 -0.268537,0.233632 -0.462328,0.549068 -0.753624,0.753623 -0.05632,0.03955 -0.115791,0.07456 -0.170792,0.115909 -0.055,0.04135 -0.106094,0.08993 -0.139523,0.150075 -0.01606,0.02889 -0.02781,0.06003 -0.04433,0.08866 -0.04397,0.0762 -0.119063,0.129857 -0.198242,0.16821 -0.07918,0.03835 -0.163993,0.06361 -0.245066,0.09777 -0.03465,0.0146 -0.06879,0.03093 -0.09969,0.05236 -0.0309,0.02143 -0.05861,0.04819 -0.07763,0.08063 -0.01673,0.02853 -0.02646,0.06084 -0.04433,0.08866 -0.02748,0.04278 -0.07237,0.07179 -0.11954,0.09077 -0.04717,0.01897 -0.09733,0.02907 -0.146445,0.04223 -0.05307,0.01422 -0.105601,0.03232 -0.152674,0.06065 -0.04707,0.02833 -0.08867,0.06757 -0.113311,0.116674 -0.01486,0.02962 -0.02365,0.06277 -0.04433,0.08866 -0.01947,0.02437 -0.04795,0.04011 -0.07745,0.05023 -0.0295,0.01011 -0.06046,0.01516 -0.09089,0.02195 -0.03044,0.0068 -0.06097,0.0156 -0.08731,0.03229 -0.01317,0.0083 -0.02519,0.01865 -0.03478,0.03095 -0.0096,0.0123 -0.01671,0.02663 -0.01988,0.0419 -0.0052,0.02496 2.85e-4,0.0509 -0.0021,0.07628 -0.0012,0.01269 -0.0044,0.02543 -0.01146,0.03607 -0.0035,0.0053 -0.0079,0.01006 -0.01318,0.01368 -0.0052,0.0036 -0.0113,0.0061 -0.01761,0.007 -0.0079,0.001 -0.01583,-4.67e-4 -0.02341,-0.0028 -0.0076,-0.0023 -0.01491,-0.0054 -0.02252,-0.0076 -0.0076,-0.0022 -0.01564,-0.0035 -0.02345,-0.0022 -0.0039,6.64e-4 -0.0077,0.002 -0.01107,0.0041 -0.0034,0.0021 -0.0063,0.005 -0.0082,0.0084 -0.0018,0.0033 -0.0028,0.007 -0.0031,0.01074 -3.37e-4,0.0037 -6.7e-5,0.0075 4.32e-4,0.01124 9.97e-4,0.0074 0.0029,0.01484 0.0027,0.02235 -2.49e-4,0.0098 -0.0042,0.01938 -0.01051,0.02687 -0.0063,0.0075 -0.01495,0.01291 -0.0243,0.01586 -0.0093,0.003 -0.01938,0.0035 -0.02908,0.0021 -0.0097,-0.0014 -0.01907,-0.0048 -0.02774,-0.0093 -0.01735,-0.0091 -0.03175,-0.02294 -0.04506,-0.03733 -0.01331,-0.0144 -0.02583,-0.02961 -0.04063,-0.04247 -0.02534,-0.02203 -0.0571,-0.03659 -0.09032,-0.0414 -0.03323,-0.0048 -0.06781,1.18e-4 -0.09837,0.01404 -0.03055,0.01392 -0.05697,0.03678 -0.07513,0.06502 -0.01816,0.02824 -0.02801,0.06176 -0.02801,0.09533 0,0.03358 0.0098,0.06709 0.02801,0.09533 0.01816,0.02824 0.04458,0.0511 0.07513,0.06502 0.03055,0.01392 0.06514,0.01886 0.09837,0.01404 0.03323,-0.0048 0.06499,-0.01938 0.09032,-0.0414"
     id="path2"
     inkscape:path-effect="#path-effect2"
     inkscape:original-d="m 22.209719,30.056266 c -0.08846,0 -0.310048,0.01792 -0.398977,-0.04433 -0.552736,-0.386915 -0.753624,-1.185101 -0.753624,-1.817562 0,-1.472026 0.480137,-2.966618 0.753624,-4.388746 0.07341,-0.381726 0.114865,-0.768931 0.177323,-1.152601 0.04099,-0.251775 0.111207,-0.499465 0.132992,-0.753623 0.02272,-0.265013 -0.0076,-0.532078 0,-0.797954 0.0072,-0.251539 0.05132,-0.502078 0.04433,-0.753623 -0.03746,-1.348571 -0.466126,-2.799491 -0.842285,-4.078431 -0.07517,-0.25557 -0.190817,-0.498053 -0.265985,-0.753623 -0.115478,-0.392626 -0.279557,-1.264798 -0.354646,-1.640239 -0.138289,-0.691446 -0.243086,-1.223062 -0.398977,-1.950554 -0.04131,-0.192773 -0.07217,-0.388768 -0.132992,-0.5763 -0.170207,-0.524805 -0.385569,-1.033879 -0.5763,-1.5515776 -0.08253,-0.2240092 -0.190492,-0.4384838 -0.265985,-0.6649616 -0.0019,-0.0056 -0.04952,-0.3155051 -0.08866,-0.3546462 -0.05262,-0.052622 -0.144266,0.137419 -0.354647,0.2659847 -1.342391,0.8203505 0.41773,-0.4237515 -1.241261,0.6649616 -0.247085,0.1621491 -0.474095,0.3530141 -0.709293,0.5319691 -0.444549,0.338244 -0.91419,0.646514 -1.329923,1.019608 -0.164964,0.148045 -0.263832,0.356281 -0.398977,0.531969 -0.160412,0.208536 -0.335373,0.406075 -0.487638,0.620631 -0.518056,0.729987 -0.957263,1.541181 -1.551578,2.216539 -0.330825,0.375938 -0.914914,0.542564 -1.329923,0.797954 -0.823834,0.506975 -0.514783,0.359977 -1.285592,0.930946 -0.7695477,0.570035 -0.377284,0.193414 -1.0196082,0.797954 -0.9196853,0.865586 0.321088,-0.276757 -0.6206309,0.664962 -0.2291614,0.229161 -0.4653949,0.451551 -0.7092924,0.664962 -0.1112077,0.09731 -0.246843,0.164919 -0.3546462,0.265984 -0.1298122,0.121699 -0.2329473,0.269165 -0.3546462,0.398977 -0.1000497,0.10672 -0.2180697,0.196782 -0.3103154,0.310316 -0.2879747,0.35443 -0.4826841,0.784897 -0.7536232,1.1526 -0.3976361,0.539649 -0.8341653,0.99442 -1.1526002,1.595908 -0.3619126,0.683612 -0.6168066,1.490154 -0.7092924,2.260869 -0.019367,0.161389 0.014081,0.325704 0,0.487639 -0.015573,0.179093 -0.070774,0.353092 -0.088661,0.531969 -0.098822,0.988217 -0.1343074,1.980799 -0.1773231,2.970162 -0.031585,0.726459 -0.1872136,1.413886 -0.3103155,2.127877 -0.1793459,1.040207 -0.014269,0.118912 -0.1329923,1.10827 -0.1558146,1.298454 -0.1354224,-0.06617 -0.2216539,2.3052 -0.00861,0.236736 0.026831,0.473048 0.044331,0.709292 0.1195899,1.614464 0.5670217,3.148959 1.1526002,4.654732 0.1878138,0.48295 0.4256409,0.959887 0.6649616,1.418585 0.085646,0.164155 0.1972201,0.315727 0.2659847,0.487638 0.073219,0.183048 0.1112208,0.380357 0.1329923,0.5763 0.00816,0.07343 -0.015481,0.14941 0,0.221654 0.092407,0.431235 0.3245285,0.856015 0.5319693,1.241262 0.04085,0.07586 0.099051,0.142457 0.1329923,0.221654 0.022429,0.05233 -0.033644,0.180094 0,0.221654 0.2301982,0.284362 0.4788024,0.556444 0.7536232,0.797954 0.2213095,0.194484 1.1634462,0.773938 1.4185848,0.930946 0.2201457,0.135474 0.4498845,0.255592 0.6649617,0.398977 0.061476,0.04098 0.1120247,0.09842 0.1773231,0.132992 1.8446897,0.976601 3.9753967,1.228045 5.9403247,1.861893 0.911251,0.293952 0.577041,0.263301 1.551577,0.620631 0.601069,0.220392 1.207077,0.427846 1.817561,0.620631 0.681884,0.215331 1.396973,0.296923 2.083547,0.487638 0.135072,0.03752 0.263406,0.09732 0.398977,0.132992 0.910159,0.239516 1.865702,0.300672 2.792839,0.443308 0.56378,0.08674 0.442078,0.0869 1.019608,0.221654 0.316648,0.07389 1.852393,0.406366 1.994885,0.443308 0.402804,0.104431 0.794608,0.248372 1.196931,0.354646 0.897942,0.237192 1.089854,0.253197 1.906223,0.398977 0.0087,0.0016 0.526203,0.144165 0.664962,0.08866 0.55348,-0.221393 0.815032,-0.862816 1.019607,-1.374254 0.28365,-0.709125 0.314871,-0.708196 0.487639,-1.507247 0.168521,-0.779409 0.07591,-0.71258 0.265985,-1.418585 0.226224,-0.840263 0.688094,-1.599249 0.930946,-2.438192 0.542521,-1.874166 -0.206763,0.06921 0.709292,-2.571185 0.06498,-0.187301 0.183947,-0.351487 0.265985,-0.53197 0.274063,-0.602939 0.54159,-1.206233 0.797954,-1.817561 0.215813,-0.514632 0.509224,-1.226612 0.842285,-1.68457 0.493151,-0.678083 0.34731,-0.39534 0.753623,-0.842285 0.211337,-0.232471 0.364004,-0.526163 0.5763,-0.753623 0.766639,-0.821399 0.01513,0.196629 0.975277,-0.886615 0.715261,-0.806962 1.56269,-1.758616 1.773231,-2.881501 0.04085,-0.217857 0,-0.443308 0,-0.664961 0,-0.236431 0.02277,-0.473961 0,-0.709293 -0.07725,-0.798261 -0.164502,-0.497055 -0.265985,-1.241262 -0.01797,-0.131772 0,-0.265984 0,-0.398977 0,-0.575067 0.01741,-1.154299 0,-1.7289 -0.02065,-0.681467 -0.09594,-1.202252 -0.132992,-1.906223 -0.03496,-0.664207 -0.03154,-1.329882 -0.04433,-1.994885 -0.01912,-0.994432 0.02143,-1.997837 -0.221654,-2.970162 -0.111275,-0.445101 -0.231321,-0.88801 -0.354646,-1.329923 -0.09207,-0.329914 -0.292906,-1.447514 -0.886615,-1.285593 -0.413907,0.112884 -0.790736,0.554702 -1.063939,0.842285 -0.451123,0.474867 -0.868187,1.012691 -1.241262,1.551577 -0.181059,0.26153 -0.18895,0.60343 -0.310315,0.886616 -0.146761,0.342441 -0.675742,0.853064 -0.930946,1.108269 -0.155201,0.155201 -0.530529,0.545786 -0.709293,0.664962 -0.06621,0.04414 -0.150479,0.05307 -0.221654,0.08866 -0.04765,0.02383 -0.08176,0.07402 -0.132992,0.08866 -0.05683,0.01624 -0.118577,-0.0065 -0.177323,0 -0.07489,0.0083 -0.146767,0.03601 -0.221654,0.04433 -0.189812,0.02109 -0.386048,-0.0173 -0.5763,0 -0.382045,0.03473 -0.743555,0.100083 -1.10827,0.221654 -1.189253,0.396418 -2.330727,0.916867 -3.413469,1.551578 -0.527386,0.309157 -0.759726,0.515884 -1.285593,0.842284 -0.376861,0.233914 -0.767487,0.444897 -1.1526,0.664962 -0.278651,0.159229 -0.468557,0.236963 -0.709292,0.443308 -0.268976,0.23055 -0.488801,0.518225 -0.753624,0.753623 -0.09373,0.08331 -0.236721,0.155594 -0.310315,0.265984 -0.01833,0.02749 -0.02097,0.0653 -0.04433,0.08866 -0.120727,0.120728 -0.305423,0.174062 -0.443308,0.265985 -0.06147,0.04098 -0.125078,0.08075 -0.177323,0.132992 -0.02336,0.02336 -0.02097,0.0653 -0.04433,0.08866 -0.07009,0.07009 -0.183507,0.07801 -0.265985,0.132992 -0.03468,0.02312 -0.261925,0.173263 -0.265985,0.177323 -0.02336,0.02336 -0.02097,0.0653 -0.04433,0.08866 -0.0835,0.0835 -0.233412,0.07478 -0.310316,0.177323 -0.04294,0.05726 -0.0019,0.09054 -0.04433,0.132992 -0.0209,0.0209 -0.06776,-0.0209 -0.08866,0 -0.01045,0.01045 0.01478,0.04433 0,0.04433 -0.06093,0 -0.139263,-0.09191 -0.177323,-0.04433 -0.05539,0.06923 0,0.177323 0,0.265985" />
  <path
     style="fill:none;stroke:#ff9500;stroke-width:1.079;stroke-opacity:1"
     d="m 28.992327,25.977835 c -0.274325,0.378336 -0.540394,0.762658 -0.797954,1.1526 -0.208271,0.31532 -0.411487,0.635218 -0.5763,0.975277 -0.05728,0.118191 -0.110287,0.240073 -0.133708,0.369309 -0.02342,0.129235 -0.01527,0.267646 0.04505,0.384314 0.01519,0.02939 0.03362,0.05736 0.04433,0.08866 0.01579,0.04615 0.01361,0.09742 -0.0015,0.143811 -0.01507,0.04639 -0.04249,0.08813 -0.07555,0.124006 -0.06611,0.07175 -0.153111,0.119928 -0.233301,0.17549 -0.07781,0.05391 -0.149997,0.115462 -0.221654,0.177323 -0.158213,0.136583 -0.315831,0.276594 -0.440705,0.444203 -0.124874,0.167609 -0.216177,0.366549 -0.224256,0.575405 -5.71e-4,0.01477 -7.28e-4,0.02957 0,0.04433 0.0032,0.06498 0.02377,0.12871 0.05683,0.184746 0.03306,0.05604 0.07842,0.104459 0.130572,0.143359 0.104306,0.0778 0.233609,0.11654 0.36298,0.130544 0.25874,0.02801 0.520218,-0.03733 0.779539,-0.01534 0.318417,0.027 0.613662,0.183583 0.930946,0.221654 0.02367,0.0028 0.04754,0.005 0.07059,0.01111 0.02305,0.0061 0.04555,0.01635 0.0624,0.03322 0.01179,0.0118 0.02043,0.02642 0.0272,0.04167 0.0068,0.01525 0.01177,0.0312 0.01713,0.04699 0.04881,0.143728 0.12962,0.27677 0.236383,0.384669 0.106763,0.107899 0.239474,0.190342 0.384248,0.235962 0.09204,0.029 0.188622,0.04331 0.278454,0.07856 0.04492,0.01762 0.08811,0.0406 0.125039,0.07165 0.03693,0.03105 0.06748,0.0705 0.08415,0.11578 0.0211,0.0573 0.01948,0.121551 0.04433,0.177323 0.0136,0.03051 0.03451,0.05705 0.05273,0.08505 0.01822,0.028 0.03421,0.05892 0.03593,0.09227 0.001,0.02011 -0.0032,0.04023 -0.01023,0.05911 -0.007,0.01887 -0.01675,0.03661 -0.02698,0.05395 -0.02047,0.03468 -0.04353,0.06912 -0.05145,0.1086 -0.0087,0.04357 0.0019,0.08859 0,0.132992 -0.0028,0.06351 -0.03099,0.122857 -0.06052,0.179146 -0.02953,0.05629 -0.06139,0.112906 -0.07247,0.1755 -0.01549,0.08751 0.01121,0.177822 0,0.265985 -0.0071,0.05612 -0.02939,0.109208 -0.05507,0.159607 -0.02568,0.0504 -0.05504,0.09898 -0.07792,0.150708 -0.04972,0.112421 -0.06754,0.236737 -0.06945,0.359646 -0.0019,0.122909 0.01128,0.245509 0.02501,0.367664 0.02745,0.244309 0.04444,0.489759 0.04444,0.735606 v 1.418585 c 0,0.275594 0.01707,0.550981 0.01575,0.826572 -6.61e-4,0.137795 -0.0093,0.276552 -0.04343,0.41005 -0.03415,0.133499 -0.09573,0.262666 -0.193975,0.359286 -0.0448,0.04405 -0.09713,0.0814 -0.132992,0.132992 -0.03777,0.05434 -0.05452,0.120633 -0.08866,0.177323 -0.04337,0.072 -0.112022,0.124401 -0.177323,0.177323 -0.384768,0.311825 -0.712018,0.704741 -1.1526,0.930946 -0.304231,0.156199 -0.645694,0.223475 -0.984251,0.271782 -0.338558,0.04831 -0.681185,0.07978 -1.010634,0.171526 -0.207403,0.05776 -0.408736,0.139207 -0.620631,0.177323 -0.148673,0.02674 -0.303129,0.03237 -0.443308,0.08866 -0.104741,0.04206 -0.199469,0.111712 -0.310315,0.132992 -0.0728,0.01398 -0.147767,0.006 -0.221654,0 -0.233177,-0.01904 -0.470754,-0.01819 -0.69752,0.03935 -0.226767,0.05754 -0.443346,0.175811 -0.588073,0.359627 -0.105918,0.134526 -0.169473,0.298426 -0.206376,0.465621 -0.0369,0.167194 -0.04844,0.338802 -0.05961,0.509656 -0.02352,0.359902 -0.04602,0.720989 -0.113214,1.075345 -0.0672,0.354355 -0.180782,0.703924 -0.374425,1.008202 -0.04778,0.07508 -0.100506,0.147585 -0.137867,0.228364 -0.03736,0.08078 -0.05871,0.172382 -0.03946,0.259274 0.01356,0.06118 0.04615,0.116104 0.07615,0.171116 0.03,0.05501 0.05839,0.113181 0.06222,0.175725 0.0019,0.03127 -0.0026,0.06323 -0.01559,0.09174 -0.013,0.02851 -0.03481,0.05337 -0.06268,0.06768 -0.02787,0.01431 -0.06184,0.0174 -0.091,0.0059 -0.01458,-0.0057 -0.02781,-0.01496 -0.03796,-0.02689 -0.01015,-0.01193 -0.01717,-0.02656 -0.01979,-0.042 -0.0025,-0.01461 -0.0011,-0.02955 0,-0.04433 0.0097,-0.134066 -0.01042,-0.268911 -0.04433,-0.398977 -0.106988,-0.410376 -0.346914,-0.771012 -0.53197,-1.1526 -0.112621,-0.232225 -0.205383,-0.473493 -0.310315,-0.709292 -0.230678,-0.518373 -0.519894,-1.009727 -0.737022,-1.533921 -0.217128,-0.524194 -0.361694,-1.096054 -0.282586,-1.657895 0.0055,-0.03885 0.01187,-0.07931 -3.58e-4,-0.116585 -0.0061,-0.01864 -0.01707,-0.03602 -0.03278,-0.04776 -0.01571,-0.01174 -0.0364,-0.01737 -0.05552,-0.01298 -0.01008,0.0023 -0.01948,0.0073 -0.02736,0.014 -0.0079,0.0067 -0.01425,0.0151 -0.01899,0.02429 -0.0095,0.01838 -0.01241,0.03957 -0.01181,0.06024 0.0012,0.04135 0.01577,0.0818 0.01382,0.123122 -0.0013,0.0285 -0.01057,0.05618 -0.02323,0.08175 -0.01266,0.02557 -0.02872,0.04928 -0.04463,0.07297 -0.01591,0.02369 -0.03178,0.04754 -0.044,0.07333 -0.01222,0.02578 -0.02076,0.05374 -0.02114,0.08227 -3e-4,0.02242 0.0044,0.04458 0.0068,0.06687 0.0024,0.0223 0.0024,0.04567 -0.0068,0.06612 -0.0087,0.01921 -0.0246,0.0341 -0.04105,0.04726 -0.01645,0.01316 -0.03398,0.02533 -0.04761,0.0414 -0.02005,0.02365 -0.03024,0.05421 -0.0354,0.08478 -0.0052,0.03057 -0.0057,0.06171 -0.0089,0.09254 -0.0094,0.08965 -0.0414,0.175676 -0.08242,0.255944 -0.04102,0.08027 -0.09108,0.1555 -0.139239,0.231695 -0.327078,0.51743 -0.570922,1.088274 -0.709292,1.684569 -0.07317,0.315323 -0.118788,0.642648 -0.265985,0.930946 -0.122757,0.240431 -0.309822,0.440799 -0.492893,0.639196 -0.183071,0.198396 -0.367278,0.402211 -0.482384,0.646397 -0.03702,0.07852 -0.06855,0.163486 -0.132992,0.221654 -0.03482,0.03143 -0.07779,0.05324 -0.123055,0.06554 -0.04526,0.0123 -0.09278,0.01528 -0.139533,0.01156 -0.09351,-0.0074 -0.18281,-0.04098 -0.269381,-0.07711 -0.207766,-0.0867 -0.408625,-0.190244 -0.620631,-0.265985 -0.142069,-0.05076 -0.288676,-0.08885 -0.42824,-0.146133 -0.139563,-0.05729 -0.27422,-0.136051 -0.369714,-0.252844 -0.04679,-0.05723 -0.08335,-0.122546 -0.132993,-0.177323 -0.05678,-0.06265 -0.128592,-0.109286 -0.194964,-0.161666 -0.06637,-0.05238 -0.129795,-0.113888 -0.159682,-0.19298 -0.02668,-0.07061 -0.02425,-0.148896 -0.04433,-0.221654 -0.02644,-0.09579 -0.09003,-0.176385 -0.132992,-0.265985 -0.04839,-0.100917 -0.0703,-0.21356 -0.07009,-0.325478 2.17e-4,-0.111919 0.02215,-0.223189 0.05794,-0.329231 0.07158,-0.212085 0.196806,-0.401316 0.322465,-0.586553 0.115481,-0.170233 0.233437,-0.341168 0.310315,-0.531969 0.04862,-0.12066 0.08004,-0.247475 0.122828,-0.370323 0.04279,-0.122848 0.09851,-0.244069 0.187487,-0.338969 0.02561,-0.02732 0.05376,-0.05222 0.07837,-0.08043 0.02461,-0.02822 0.04591,-0.06047 0.05462,-0.09689 0.0069,-0.02884 0.0056,-0.05897 0.0032,-0.08853 -0.0024,-0.02956 -0.0059,-0.05926 -0.0032,-0.08879 0.0034,-0.03759 0.01673,-0.07386 0.03559,-0.106547 0.01885,-0.03269 0.04313,-0.06198 0.06934,-0.08914 0.05241,-0.05431 0.11298,-0.100773 0.161057,-0.15896 0.08073,-0.0977 0.120957,-0.221537 0.164373,-0.34061 0.04342,-0.119074 0.09483,-0.240961 0.190274,-0.324351 0.06073,-0.05306 0.135422,-0.08697 0.209121,-0.119701 0.0737,-0.03273 0.148676,-0.06569 0.210635,-0.117298 0.03098,-0.02581 0.05843,-0.05622 0.07852,-0.09117 0.02009,-0.03496 0.03266,-0.07459 0.03358,-0.114902 9.21e-4,-0.04031 -0.01017,-0.08123 -0.0336,-0.114038 -0.02343,-0.03281 -0.0595,-0.05696 -0.09928,-0.06352 -0.04032,-0.0066 -0.08181,0.0046 -0.118407,0.02279 -0.03659,0.01818 -0.06936,0.04305 -0.103247,0.06587 -0.234327,0.157813 -0.519843,0.216298 -0.797954,0.265985 -0.265454,0.04743 -0.531762,0.0899 -0.797954,0.132992 -0.796379,0.128918 -1.592288,0.263436 -2.393862,0.354647 -0.545106,0.06203 -1.092383,0.10397 -1.640239,0.132992 -0.141536,0.0075 -0.285585,0.01391 -0.422991,-0.02086 -0.0687,-0.01738 -0.135209,-0.04517 -0.19311,-0.08603 -0.0579,-0.04086 -0.107003,-0.09513 -0.137522,-0.159093 -0.03568,-0.07477 -0.04488,-0.159905 -0.04004,-0.242607 0.0048,-0.0827 0.02309,-0.163941 0.04004,-0.245031 0.0913,-0.436695 0.149654,-0.889339 0.354646,-1.285593 0.0641,-0.123912 0.141672,-0.240339 0.221654,-0.354646 0.320286,-0.45774 0.681365,-0.885288 1.019608,-1.329923 0.051,-0.06704 0.103684,-0.136428 0.177323,-0.177323 0.0697,-0.03871 0.152722,-0.0486 0.221654,-0.08866 0.04614,-0.02681 0.08451,-0.06636 0.132992,-0.08866 0.05438,-0.02502 0.116734,-0.02609 0.176283,-0.02 0.05955,0.0061 0.118513,0.01889 0.178363,0.02 0.05919,0.0011 0.118851,-0.0093 0.177324,0 0.06404,0.01013 0.122524,0.04335 0.172711,0.0844 0.05019,0.04105 0.09319,0.09001 0.137604,0.137248 0.358635,0.381489 0.824546,0.661035 1.329923,0.797954 0.06016,0.01004 0.119516,0.02488 0.177323,0.04433 0.05822,0.01959 0.114821,0.04382 0.173415,0.06225 0.05859,0.01843 0.119984,0.03104 0.181232,0.02641 0.07227,-0.0055 0.14174,-0.03518 0.199108,-0.07948 0.05737,-0.0443 0.102986,-0.102734 0.137068,-0.166703 0.06816,-0.127939 0.09018,-0.274808 0.107131,-0.418778 0.03117,-0.264766 0.04879,-0.531397 0.04433,-0.797954 -0.0048,-0.289757 -0.03845,-0.587926 -0.177323,-0.842285 -0.03173,-0.05812 -0.06899,-0.114092 -0.08866,-0.177323 -0.0224,-0.07204 -0.02079,-0.149978 -0.04433,-0.221654 -0.02065,-0.06287 -0.05962,-0.117862 -0.08866,-0.177323 -0.0466,-0.09541 -0.06716,-0.201273 -0.08197,-0.306417 -0.0148,-0.105144 -0.0244,-0.211427 -0.05103,-0.314214 -0.04341,-0.167558 -0.130787,-0.320922 -0.177323,-0.487638 -0.04546,-0.162851 -0.05233,-0.339045 -0.132993,-0.487639 -0.03167,-0.05835 -0.07468,-0.112424 -0.08866,-0.177323 -0.01248,-0.05796 -3.13e-4,-0.118036 0,-0.177323 4.1e-4,-0.07766 -0.01966,-0.154118 -0.04621,-0.227102 -0.02655,-0.07298 -0.05966,-0.143432 -0.08678,-0.216206 -0.07914,-0.212342 -0.105845,-0.439983 -0.132992,-0.664961 -0.02854,-0.236556 -0.05823,-0.472972 -0.08866,-0.709293 -0.10239,-0.795308 -0.213276,-1.592034 -0.221654,-2.393862 -0.0054,-0.519971 0.03254,-1.041372 0.132992,-1.551577 0.04918,-0.249775 0.116339,-0.50335 0.265985,-0.709292 0.0629,-0.08657 0.140684,-0.165444 0.177323,-0.265985 0.02584,-0.0709 0.02926,-0.147711 0.04433,-0.221654 0.01598,-0.07842 0.04543,-0.154305 0.08866,-0.221654 0.04011,-0.06248 0.09139,-0.11683 0.140481,-0.172534 0.04909,-0.0557 0.09678,-0.113956 0.127876,-0.181377 0.03109,-0.06742 0.04437,-0.14568 0.02243,-0.216607 -0.01097,-0.03546 -0.03072,-0.06844 -0.05816,-0.09344 -0.02744,-0.025 -0.06268,-0.04176 -0.09963,-0.04534 -0.01472,-0.0014 -0.02956,-8.02e-4 -0.04433,0 -0.119027,0.0065 -0.237136,0.02432 -0.354647,0.04433 -0.22286,0.03795 -0.444328,0.08372 -0.664961,0.132992 -0.265931,0.05939 -0.530764,0.123886 -0.797954,0.177323 -1.150387,0.230075 -2.330376,0.252766 -3.5021314,0.310316 -0.092287,0.0045 -0.1862472,0.0091 -0.2757252,-0.01392 -0.044739,-0.01152 -0.087988,-0.03005 -0.125261,-0.05734 -0.037273,-0.0273 -0.068419,-0.06361 -0.086652,-0.106063 -0.018468,-0.043 -0.02345,-0.09112 -0.044331,-0.132993 -0.023827,-0.04779 -0.066804,-0.08427 -0.088662,-0.132992 -0.015385,-0.03429 -0.019339,-0.07281 -0.017267,-0.110336 0.00207,-0.03753 0.00992,-0.07446 0.017267,-0.111318 0.067439,-0.338427 0.094206,-0.684687 0.1773231,-1.019608 0.2281158,-0.919192 0.8557919,-1.676474 1.4185849,-2.438192 0.112537,-0.152315 0.223571,-0.30662 0.354646,-0.443308 0.07233,-0.07542 0.150459,-0.145161 0.221654,-0.221654 0.01425,-0.01531 0.02827,-0.03094 0.04433,-0.04433 0.05234,-0.04365 0.124158,-0.06042 0.19183,-0.05237 0.06767,0.0081 0.131209,0.03936 0.184484,0.08186 0.106551,0.085 0.17143,0.209977 0.244317,0.325152 0.266958,0.421844 0.668126,0.741292 1.086541,1.013593 0.418415,0.272302 0.862187,0.506352 1.26299,0.803969 0.420911,0.312548 0.788555,0.690852 1.196931,1.019608 0.0991,0.07978 0.200856,0.156807 0.310316,0.221654 0.02847,0.01687 0.05758,0.03296 0.08866,0.04433 0.06547,0.02395 0.138313,0.02586 0.205816,0.0084 0.0675,-0.01742 0.129608,-0.05375 0.180173,-0.101746 0.101129,-0.09599 0.153563,-0.235196 0.165816,-0.374089 0.01225,-0.138892 -0.01248,-0.2785 -0.04682,-0.413635 -0.03435,-0.135136 -0.07841,-0.267878 -0.106003,-0.404553 -0.06593,-0.326556 -0.03541,-0.667613 0.05224,-0.989021 0.08765,-0.321407 0.230934,-0.625069 0.391069,-0.917202 0.331901,-0.605486 0.745688,-1.185941 0.886616,-1.861893 0.02134,-0.102358 0.03616,-0.206076 0.04433,-0.310315 l 0.08866,-0.265985 c 0.03791,-0.0192 0.06946,-0.05074 0.08866,-0.08866 0.0171,-0.03377 0.02434,-0.07163 0.02904,-0.109187 0.0047,-0.03756 0.0071,-0.07552 0.01529,-0.112467 0.01732,-0.07781 0.05964,-0.147413 0.08866,-0.221654 0.02758,-0.07055 0.04318,-0.145912 0.04433,-0.221654 2.25e-4,-0.01477 -9.5e-5,-0.02955 0,-0.04433 0.0012,-0.186831 0.07147,-0.37244 0.194299,-0.513227 0.122826,-0.140787 0.297189,-0.235581 0.482129,-0.262116 0.184941,-0.02653 0.378923,0.01541 0.536379,0.115984 0.157455,0.100573 0.277076,0.258937 0.330762,0.437892 0.05369,0.178956 0.04099,0.377014 -0.0351,0.547651 -0.07609,0.170638 -0.214952,0.312435 -0.383958,0.392085 -0.169007,0.07965 -0.366756,0.09649 -0.546796,0.04656 -0.180041,-0.04993 -0.340875,-0.166206 -0.444723,-0.321521 0.08762,0.155825 0.161861,0.319166 0.221654,0.487638 0.06723,0.189434 0.11607,0.38485 0.177323,0.576301 0.178225,0.557058 0.460562,1.077694 0.620631,1.640238 0.0534,0.187655 0.09312,0.381247 0.08866,0.5763 -0.0032,0.141755 -0.02974,0.284001 -0.01083,0.424526 0.0095,0.07026 0.03067,0.139795 0.06931,0.199239 0.03864,0.05944 0.09564,0.10829 0.163177,0.129858 0.06414,0.02048 0.135092,0.01544 0.197991,-0.0086 0.0629,-0.02401 0.117959,-0.0662 0.162197,-0.116957 0.08848,-0.101507 0.13296,-0.233168 0.171782,-0.362104 0.02696,-0.08954 0.05229,-0.17984 0.08866,-0.265985 0.07206,-0.170689 0.185565,-0.320724 0.265985,-0.487638 0.162581,-0.337439 0.184077,-0.730467 0.354646,-1.063939 0.03663,-0.07162 0.07983,-0.139795 0.114772,-0.212256 0.03494,-0.07246 0.06175,-0.150611 0.06255,-0.231052 2.95e-4,-0.02957 -0.0029,-0.05923 0,-0.08866 0.0054,-0.05421 0.03146,-0.1046 0.06471,-0.147752 0.03325,-0.04315 0.07369,-0.08012 0.112609,-0.118233 0.115526,-0.11314 0.222046,-0.243361 0.265985,-0.398977 0.0046,-0.01622 0.0085,-0.0327 0.01497,-0.04825 0.0065,-0.01555 0.01585,-0.03034 0.02936,-0.04041 0.01338,-0.01 0.02982,-0.01465 0.04563,-0.01996 0.01581,-0.0053 0.03197,-0.01187 0.04303,-0.02437 0.0076,-0.0086 0.01231,-0.01964 0.01441,-0.03097 0.0021,-0.01133 0.0017,-0.02302 9.4e-5,-0.03443 -0.0032,-0.02283 -0.01136,-0.04475 -0.0145,-0.06759 -0.0066,-0.04791 0.01043,-0.0985 0.04462,-0.132699 0.0342,-0.0342 0.08479,-0.05121 0.132699,-0.04462"
     id="path3"
     inkscape:path-effect="#path-effect3"
     inkscape:original-d="m 28.992327,25.977835 c -0.317426,0.345697 -0.543104,0.761831 -0.797954,1.1526 -0.235553,0.361182 -0.422703,0.580314 -0.5763,0.975277 -0.08187,0.210513 -0.134782,0.523017 -0.08866,0.753623 0.0065,0.0324 0.03388,0.05731 0.04433,0.08866 0.06613,0.198398 -0.204929,0.358998 -0.310316,0.443307 -0.07389,0.05911 -0.151642,0.113676 -0.221654,0.177323 -0.279767,0.254334 -0.664961,0.612669 -0.664961,1.019608 0,0.01478 -0.01358,0.03851 0,0.04433 0.251198,0.107656 1.090572,0.378618 1.329923,0.443308 0.307941,0.08323 0.62148,0.144287 0.930946,0.221654 0.04533,0.01133 0.09561,0.01629 0.132992,0.04433 0.02643,0.01983 0.02369,0.06286 0.04433,0.08866 0.176702,0.220877 0.383518,0.462556 0.620631,0.620631 0.09123,0.06082 0.399875,0.178221 0.487639,0.265985 0.143977,0.143977 0.0143,0.08722 0.04433,0.177323 0.0209,0.06269 0.06776,0.11463 0.08866,0.177323 0.01452,0.04356 -0.08225,0.183185 -0.08866,0.221654 -0.0073,0.04373 0.0087,0.08952 0,0.132992 -0.02358,0.117905 -0.112467,0.231497 -0.132992,0.354646 -0.01458,0.08745 0.01739,0.179045 0,0.265985 -0.02205,0.110272 -0.116145,0.192382 -0.132992,0.310315 -0.05667,0.396681 0,1.04865 0,1.462916 0,0.472861 0,0.945723 0,1.418585 0,0.543843 0.08089,1.111838 -0.221654,1.595908 -0.03323,0.05316 -0.09655,0.08198 -0.132992,0.132992 -0.03841,0.05378 -0.04901,0.124456 -0.08866,0.177323 -0.05016,0.06687 -0.121788,0.114847 -0.177323,0.177323 -0.329178,0.370326 -0.672287,0.74797 -1.1526,0.930946 -0.639878,0.243763 -1.334061,0.283799 -1.994885,0.443308 -0.209149,0.05048 -0.4119,0.12514 -0.620631,0.177323 -0.146196,0.03655 -0.298736,0.04614 -0.443308,0.08866 -0.107965,0.03175 -0.201138,0.105698 -0.310315,0.132992 -0.07168,0.01792 -0.14834,-0.0092 -0.221654,0 -0.227196,0.0284 -1.124581,0.173562 -1.285593,0.398977 -0.125112,0.175158 -0.212589,0.748348 -0.265984,0.975277 -0.163043,0.69293 -0.320664,1.391794 -0.487639,2.083547 -0.04058,0.168131 -0.143403,0.318037 -0.177323,0.487638 -0.0073,0.03642 0.03901,0.443308 -0.08866,0.443308 -0.01478,0 0.0015,-0.02963 0,-0.04433 -0.01331,-0.133146 -0.01188,-0.269161 -0.04433,-0.398977 -0.122781,-0.491122 -0.299836,-0.672857 -0.53197,-1.1526 -0.112404,-0.232302 -0.210513,-0.471304 -0.310315,-0.709292 -0.450985,-1.075426 -0.81291,-2.054981 -1.019608,-3.191816 -0.01182,-0.06502 -0.04193,-0.224052 -0.08866,-0.177323 -0.088,0.08799 -0.01235,0.109709 -0.04433,0.221654 -0.0646,0.226094 -0.09956,0.109697 -0.132992,0.310315 -0.0073,0.04373 0.01646,0.09183 0,0.132992 -0.01552,0.03881 -0.06997,0.05128 -0.08866,0.08866 -0.02725,0.05449 -0.02294,0.120275 -0.04433,0.177323 -0.06269,0.167182 -0.141804,0.327938 -0.221654,0.487639 -0.260976,0.521951 -0.530491,1.122621 -0.709292,1.684569 -0.09785,0.307541 -0.112977,0.646789 -0.265985,0.930946 -0.252329,0.468613 -0.658745,0.863551 -0.975277,1.285593 -0.0517,0.06893 -0.07692,0.156233 -0.132992,0.221654 -0.228582,0.266678 -0.336041,0.09796 -0.531969,0 -0.201314,-0.100657 -0.419318,-0.165328 -0.620631,-0.265985 -0.251847,-0.125924 -0.583782,-0.211577 -0.797954,-0.398977 -0.0556,-0.04865 -0.08075,-0.125079 -0.132993,-0.177323 -0.145832,-0.145832 -0.269141,-0.16226 -0.354646,-0.354646 -0.0306,-0.06885 -0.01858,-0.150843 -0.04433,-0.221654 -0.03388,-0.09316 -0.104508,-0.171039 -0.132992,-0.265985 -0.07512,-0.250392 0.206607,-1.01903 0.310316,-1.241262 0.08681,-0.186028 0.218508,-0.348354 0.310315,-0.531969 0.114755,-0.229509 0.17489,-0.492612 0.310315,-0.709292 0.03916,-0.06265 0.10705,-0.108143 0.132993,-0.177323 0.02075,-0.05535 -0.01869,-0.121249 0,-0.177323 0.0124,-0.03721 0.246848,-0.327855 0.265984,-0.354647 0.141263,-0.197768 0.238571,-0.452157 0.354647,-0.664961 0.05784,-0.106039 0.398977,-0.515085 0.398977,-0.620631 0,-0.07958 -0.148199,0.05806 -0.221654,0.08866 -0.200778,0.08366 -0.59825,0.223191 -0.797954,0.265985 -0.263668,0.0565 -0.5325,0.08559 -0.797954,0.132992 -3.995854,0.713546 -0.252432,0.125208 -2.393862,0.354647 -0.553893,0.05935 -1.078552,0.170438 -1.640239,0.132992 -0.1308,-0.0087 -0.712496,-0.06035 -0.753623,-0.265985 -0.03188,-0.159389 0,-0.325092 0,-0.487638 0,-0.658847 -0.04939,-0.415356 0.354646,-1.285593 0.0587,-0.126442 0.150973,-0.234488 0.221654,-0.354646 0.332672,-0.565542 0.530131,-0.889394 1.019608,-1.329923 0.06213,-0.05592 0.107771,-0.130955 0.177323,-0.177323 0.06621,-0.04414 0.150479,-0.05307 0.221654,-0.08866 0.04765,-0.02383 0.08057,-0.07913 0.132992,-0.08866 0.116309,-0.02115 0.236431,0 0.354646,0 0.05911,0 0.123514,-0.02446 0.177324,0 0.115722,0.0526 0.204548,0.151142 0.310315,0.221653 0.430492,0.286995 0.85927,0.58073 1.329923,0.797954 0.03794,0.120559 0.120754,0.0217 0.177323,0.04433 0.06551,0.0262 0.255307,0.148265 0.354647,0.08866 0.109894,-0.06594 0.39859,-0.530809 0.443307,-0.664962 0.07775,-0.233238 0.06294,-0.556079 0.04433,-0.797954 -0.02118,-0.275369 -0.06819,-0.587645 -0.177323,-0.842285 -0.02603,-0.06074 -0.06776,-0.11463 -0.08866,-0.177323 -0.02383,-0.07148 -0.0205,-0.150172 -0.04433,-0.221654 -0.0209,-0.06269 -0.07051,-0.113781 -0.08866,-0.177323 -0.205914,-0.720699 -0.0095,-0.209116 -0.132992,-0.620631 -0.217338,-0.724458 0.03419,0.146885 -0.177323,-0.487638 -0.05328,-0.159837 -0.07383,-0.329883 -0.132993,-0.487639 -0.0232,-0.06188 -0.07263,-0.113211 -0.08866,-0.177323 -0.01434,-0.05734 0.0073,-0.118672 0,-0.177323 -0.01949,-0.15596 -0.09793,-0.291369 -0.132993,-0.443308 -0.05083,-0.220254 -0.09134,-0.442789 -0.132992,-0.664961 -0.04391,-0.23419 -0.05243,-0.473793 -0.08866,-0.709293 -0.123494,-0.802711 -0.221654,-1.581116 -0.221654,-2.393862 0,-0.551243 -0.01488,-1.00938 0.132992,-1.551577 0.06644,-0.243611 0.15306,-0.483442 0.265985,-0.709292 0.04765,-0.09531 0.133229,-0.168978 0.177323,-0.265985 0.03118,-0.06859 0.02268,-0.149484 0.04433,-0.221654 0.02287,-0.07622 0.06072,-0.147144 0.08866,-0.221654 0.02369,-0.06316 0.187533,-0.654751 0.132992,-0.709292 -0.01045,-0.01045 -0.02964,-0.0016 -0.04433,0 -0.118407,0.01316 -0.237273,0.02392 -0.354647,0.04433 -0.2227,0.03873 -0.443838,0.08609 -0.664961,0.132992 -0.266543,0.05654 -0.53138,0.120933 -0.797954,0.177323 -1.120801,0.237093 -2.35051,0.598221 -3.5021314,0.310316 -0.05919,-0.0148 -0.4073935,-0.09708 -0.4876386,-0.177323 -0.033042,-0.03304 -0.023433,-0.0912 -0.044331,-0.132993 -0.023827,-0.04765 -0.07574,-0.0813 -0.088662,-0.132992 -0.01792,-0.07168 0.00669,-0.148073 0,-0.221654 -0.041406,-0.455471 -0.039797,-0.585368 0.1773231,-1.019608 0.4197928,-0.839585 0.8596594,-1.681999 1.4185849,-2.438192 0.11248,-0.15218 0.230709,-0.300304 0.354646,-0.443308 0.06843,-0.07896 0.147769,-0.147769 0.221654,-0.221654 0.01478,-0.01478 0.02343,-0.04433 0.04433,-0.04433 0.226273,0 0.500557,0.270149 0.620631,0.354646 0.814151,0.572921 1.588709,1.17509 2.349531,1.817562 0.400438,0.338147 0.792353,0.686426 1.196931,1.019608 0.09812,0.08081 0.204549,0.151143 0.310316,0.221654 0.02749,0.01833 0.05562,0.04433 0.08866,0.04433 0.123085,0 0.365877,-1.138478 0.398977,-1.285593 0.149223,-0.663212 0.224605,-1.274415 0.443308,-1.906223 0.226669,-0.654821 0.630581,-1.221806 0.886616,-1.861893 0.03881,-0.09702 0.02084,-0.208502 0.04433,-0.310315 0.02955,-0.08866 0.05911,-0.177323 0.08866,-0.265985 0.02955,-0.02955 0.0722,-0.05025 0.08866,-0.08866 0.02968,-0.06926 0.02268,-0.149484 0.04433,-0.221654 0.02287,-0.07622 0.0658,-0.145434 0.08866,-0.221654 0.02165,-0.07217 0.03194,-0.147331 0.04433,-0.221654 0.0024,-0.01458 -0.0047,-0.05835 0,-0.04433 0.04879,0.146359 0.08866,0.295539 0.132992,0.443308 0.07389,0.162546 0.158961,0.320457 0.221654,0.487638 0.07057,0.188191 0.102678,0.389688 0.177323,0.576301 0.498311,1.245778 0.0904,-0.374645 0.620631,1.640238 0.04946,0.187961 0.05536,0.384814 0.08866,0.5763 0.01078,0.06196 0.08098,0.683288 0.221654,0.753623 0.0717,0.03585 0.494077,-0.411854 0.53197,-0.487638 0.0418,-0.08359 0.05272,-0.179716 0.08866,-0.265985 0.392938,-0.94305 -0.110465,0.340551 0.265985,-0.487638 0.153066,-0.336746 0.228619,-0.717365 0.354646,-1.063939 0.05524,-0.151918 0.137448,-0.283807 0.177323,-0.443308 0.0072,-0.02867 -0.0093,-0.06062 0,-0.08866 0.03414,-0.10241 0.131198,-0.173734 0.177323,-0.265985 0.08582,-0.171646 0.143974,-0.236296 0.265985,-0.398977 0.01982,-0.02643 0.02097,-0.0653 0.04433,-0.08866 0.02336,-0.02337 0.0653,-0.02097 0.08866,-0.04433 0.02217,-0.02217 -0.01773,-0.106394 0,-0.132992 0.02822,-0.04233 0.143417,-0.177324 0.177323,-0.177324" />
  <path
     style="fill:none;stroke:#ff9500;stroke-width:1.079;stroke-opacity:1"
     d="m 20.037511,29.12532 c -0.552552,-0.09708 -1.084502,-0.309859 -1.551577,-0.620631 -0.07895,-0.05253 -0.156625,-0.108301 -0.221654,-0.177323 -0.123575,-0.131164 -0.195322,-0.304439 -0.230706,-0.481138 -0.03538,-0.1767 -0.03673,-0.358268 -0.03528,-0.53847 0.0068,-0.852033 0.08155,-1.733456 0.487639,-2.482524 0.116526,-0.214944 0.268287,-0.423967 0.487638,-0.531969 0.161172,-0.07936 0.34562,-0.09737 0.525267,-0.09644 0.179646,9.34e-4 0.359405,0.01948 0.538672,0.0078 0.133404,-0.0087 0.269655,-0.03389 0.398977,0 0.07705,0.02019 0.147182,0.0604 0.221654,0.08866 0.125186,0.0475 0.263262,0.06052 0.39512,0.03725 0.131858,-0.02327 0.257138,-0.08276 0.358503,-0.170243"
     id="path4"
     inkscape:path-effect="#path-effect4"
     inkscape:original-d="m 20.037511,29.12532 c -0.544305,-0.144496 -1.084669,-0.297387 -1.551577,-0.620631 -0.0778,-0.05386 -0.167797,-0.09953 -0.221654,-0.177323 -0.203903,-0.294527 -0.240447,-0.679097 -0.265985,-1.019608 -0.08832,-1.177612 -0.13657,-1.546211 0.487639,-2.482524 0.243809,-0.365714 0.131894,-0.337927 0.487638,-0.531969 0.34854,-0.190112 0.690576,-0.119775 1.063939,-0.08866 0.06579,0.0055 0.312046,-0.02898 0.398977,0 0.275165,0.09172 -0.147335,-0.0036 0.221654,0.08866 0.200932,0.05023 0.480974,-0.132992 0.753623,-0.132992" />
  <path
     style="fill:none;stroke:#ff9500;stroke-width:1.079;stroke-opacity:1"
     d="m 19.062234,32.760443 c -0.123468,0.326507 -0.198425,0.67131 -0.221654,1.019608 -0.01476,0.22127 -0.0088,0.443373 0,0.664962 0.02336,0.59101 0.06998,1.196418 0.316873,1.733895 0.123447,0.268738 0.297199,0.51693 0.523213,0.707659 0.226015,0.190728 0.50587,0.321995 0.800152,0.351285 0.257769,0.02566 0.519594,-0.02688 0.758859,-0.126155 0.239265,-0.09927 0.457385,-0.244071 0.659726,-0.405815 0.180315,-0.144138 0.349233,-0.302251 0.53197,-0.443307 0.479999,-0.370515 1.049462,-0.617009 1.640238,-0.753624 0.549595,-0.127092 1.12732,-0.164198 1.640239,-0.398977 0.06426,-0.02941 0.127225,-0.06183 0.193074,-0.08749 0.06585,-0.02566 0.135237,-0.04457 0.205903,-0.0455 0.01478,-1.95e-4 0.02956,3.97e-4 0.04433,0 0.09594,-0.0026 0.188918,-0.04844 0.253381,-0.11955 0.06446,-0.07111 0.100724,-0.16598 0.105572,-0.261835 0.0048,-0.09585 -0.02086,-0.19227 -0.06803,-0.275859 -0.04716,-0.08359 -0.115236,-0.154559 -0.193656,-0.209893 -0.15684,-0.110669 -0.350426,-0.157569 -0.541528,-0.175624 -0.191103,-0.01806 -0.383747,-0.0096 -0.57535,-0.02118 -0.584199,-0.03538 -1.13928,-0.255128 -1.683451,-0.470578 -0.54417,-0.21545 -1.101108,-0.431978 -1.685688,-0.460368 -0.178114,-0.0087 -0.359263,7.8e-5 -0.531969,-0.04433 -0.181391,-0.04664 -0.346623,-0.150402 -0.53197,-0.177323 -0.124976,-0.01815 -0.251961,-2.37e-4 -0.377525,0.01326 -0.125564,0.0135 -0.254909,0.02226 -0.376098,-0.01326 -0.07641,-0.0224 -0.146755,-0.06164 -0.221654,-0.08866 -0.218605,-0.07885 -0.474652,-0.04471 -0.664961,0.08866 z"
     id="path5"
     inkscape:path-effect="#path-effect5"
     inkscape:original-d="m 19.062234,32.760443 c -0.04623,0.344631 -0.193811,0.671565 -0.221654,1.019608 -0.01768,0.220948 0,0.443308 0,0.664962 0,1.189753 0.02889,2.900262 1.640238,2.792839 0.446499,-0.02977 1.054508,-0.29792 1.418585,-0.53197 0.194164,-0.124819 0.340969,-0.3137 0.53197,-0.443307 0.488413,-0.331424 1.080478,-0.584394 1.640238,-0.753624 0.538612,-0.162836 1.100058,-0.241424 1.640239,-0.398977 0.134579,-0.03925 0.264703,-0.09271 0.398977,-0.132992 0.01415,-0.0042 0.04433,0.01478 0.04433,0 0,-0.312541 -0.800394,-0.945198 -1.019608,-1.063939 -0.92,-0.498333 -2.402285,-0.760325 -3.369139,-0.930946 -0.17523,-0.03092 -0.356209,-0.01658 -0.531969,-0.04433 -0.201135,-0.03176 -0.349204,-0.116401 -0.53197,-0.177323 -0.2251,-0.07503 -0.519448,0.04683 -0.753623,0 -0.230617,-0.04612 -0.04433,-0.02955 -0.221654,-0.08866 -0.202956,-0.06765 -0.479084,0.04219 -0.664961,0.08866 z" />
</svg>
