<?xml version="1.0" encoding="UTF-8" standalone="no"?>
<svg
   width="16"
   height="16"
   version="1.1"
   id="svg1"
   sodipodi:docname="mini_ico_anchor.svg"
   inkscape:version="1.3.2 (091e20e, 2023-11-25, custom)"
   xmlns:inkscape="http://www.inkscape.org/namespaces/inkscape"
   xmlns:sodipodi="http://sodipodi.sourceforge.net/DTD/sodipodi-0.dtd"
   xmlns="http://www.w3.org/2000/svg"
   xmlns:svg="http://www.w3.org/2000/svg">
  <defs
     id="defs1">
    <inkscape:path-effect
       effect="spiro"
       id="path-effect3"
       is_visible="true"
       lpeversion="1" />
    <inkscape:path-effect
       effect="spiro"
       id="path-effect2"
       is_visible="true"
       lpeversion="1" />
  </defs>
  <sodipodi:namedview
     id="namedview1"
     pagecolor="#ffffff"
     bordercolor="#000000"
     borderopacity="0.25"
     inkscape:showpageshadow="2"
     inkscape:pageopacity="0.0"
     inkscape:pagecheckerboard="0"
     inkscape:deskcolor="#d1d1d1"
     inkscape:zoom="73.3125"
     inkscape:cx="7.9931799"
     inkscape:cy="8"
     inkscape:window-width="2560"
     inkscape:window-height="1369"
     inkscape:window-x="-8"
     inkscape:window-y="-8"
     inkscape:window-maximized="1"
     inkscape:current-layer="svg1" />
  <path
     style="fill:none;stroke:#000000;stroke-width:1.9;stroke-dasharray:none;stroke-opacity:1"
     d="m 5.5242967,3.3418585 c -0.225183,-0.048458 -0.4529511,-0.084901 -0.682012,-0.1091219 -0.2675009,-0.028286 -0.538743,-0.039804 -0.804774,0 C 3.709711,3.2817819 3.3941264,3.4094989 3.1236147,3.601023 2.994325,3.692561 2.8746046,3.7991066 2.7781578,3.924777 2.681711,4.0504474 2.6089589,4.1958756 2.5780051,4.3512361 c -0.050731,0.2546266 0.012415,0.5178693 0.095482,0.7638534 0.077482,0.2294451 0.1732563,0.455515 0.2046036,0.6956522 0.013561,0.103882 0.014819,0.2089687 0.01364,0.3137255 C 2.887879,6.4667837 2.8582086,6.808574 2.8098897,7.1474851 2.7713039,7.418128 2.7198009,7.6903797 2.6052856,7.9386189 2.5626941,8.0309461 2.5117086,8.1192048 2.4688832,8.2114237 2.4251257,8.3056498 2.3900262,8.4037113 2.3461211,8.4978687 2.3031507,8.5900215 2.2518791,8.6781473 2.2097187,8.7706735 2.1708489,8.855978 2.1398645,8.9447159 2.1005968,9.029838 2.0332394,9.1758515 1.9422494,9.3096842 1.8687127,9.4526854 1.8100767,9.5667105 1.7623451,9.6868962 1.6913896,9.7936914 1.6408164,9.8698091 1.5790981,9.9380858 1.5292974,10.014711 c -0.049801,0.07662 -0.088054,0.165119 -0.083432,0.256389 0.0039,0.07702 0.039417,0.151647 0.095482,0.204603 0.018743,0.0177 0.039898,0.03335 0.054561,0.05456 0.02117,0.03062 0.026459,0.06946 0.026664,0.106684 2.048e-4,0.03722 -0.00404,0.07463 6.174e-4,0.11156 0.00581,0.04608 0.02534,0.09 0.02728,0.136402 0.00146,0.03487 -0.00712,0.06934 -0.016811,0.102873 -0.00969,0.03353 -0.020634,0.067 -0.02411,0.101731 -0.00362,0.03622 9.8e-4,0.07274 0,0.109122 -0.00212,0.07857 -0.030074,0.15404 -0.040921,0.231884 -0.013926,0.09995 6.816e-4,0.202022 0.026734,0.299513 0.026052,0.09749 0.063387,0.19153 0.096028,0.287017 0.037682,0.110234 0.069435,0.224516 0.068201,0.341006 -7.725e-4,0.07294 -0.014427,0.146739 0,0.218244 0.00459,0.02275 0.012001,0.04505 0.01364,0.0682 9.639e-4,0.01361 -8.93e-5,0.02728 0,0.04092 2.91e-4,0.04445 0.012909,0.08854 0.034608,0.127343 0.021699,0.0388 0.052322,0.07235 0.087907,0.099 0.071171,0.05329 0.1605755,0.07816 0.2493156,0.08366 0.1774804,0.011 0.3511375,-0.05071 0.5284251,-0.06448 0.2289663,-0.01777 0.455397,0.0446 0.6820119,0.08184 0.275076,0.04521 0.5547244,0.05358 0.8320546,0.08184 0.5608841,0.05715 1.1140301,0.195782 1.6777493,0.204604 0.3349193,0.0052 0.6813946,-0.03386 0.9957375,0.08184 0.031203,0.01149 0.062166,0.02452 0.094975,0.02992 0.016404,0.0027 0.033215,0.0034 0.049666,0.001 0.016451,-0.0024 0.03255,-0.008 0.046322,-0.01732 0.00486,-0.0033 0.0094,-0.007 0.014281,-0.01026 0.00488,-0.0032 0.010168,-0.0061 0.015912,-0.0072 0.00574,-0.0012 0.012015,-5.63e-4 0.016958,0.0026 0.00247,0.0016 0.00457,0.0038 0.00591,0.0064 0.00135,0.0026 0.00192,0.0056 0.0015,0.0085 -3.466e-4,0.0024 -0.00134,0.0046 -0.00174,0.007 -2.012e-4,0.0012 -2.522e-4,0.0024 1.8e-6,0.0036 2.539e-4,0.0012 8.297e-4,0.0023 0.00174,0.0031 8.872e-4,7.68e-4 0.00205,0.0012 0.00321,0.0013 0.00117,1.25e-4 0.00235,-1.8e-5 0.0035,-2.49e-4 0.0023,-4.62e-4 0.00459,-0.0013 0.00693,-0.0011 0.00165,1.64e-4 0.00323,8.59e-4 0.00458,0.0018 0.00135,9.74e-4 0.00248,0.0022 0.00347,0.0036 0.00199,0.0027 0.00345,0.0057 0.00559,0.0083 0.00311,0.0037 0.00754,0.0062 0.012231,0.0074 0.00469,0.0012 0.00963,0.0012 0.014417,5.16e-4 0.00958,-0.0014 0.018555,-0.0054 0.027913,-0.0079 0.02561,-0.0068 0.053022,-0.0015 0.077799,0.0078 0.024777,0.0094 0.047837,0.02277 0.072244,0.03308 0.064298,0.02716 0.1353777,0.03201 0.2046036,0.04092 0.4304999,0.0554 0.8193491,0.275496 1.2276215,0.422848 0.270559,0.09765 0.5521491,0.16399 0.8184143,0.272804 0.026675,0.0109 0.053458,0.0223 0.081841,0.02728 0.058651,0.01028 0.1180831,-0.0076 0.1773231,-0.01364 0.049802,-0.0051 0.1000129,-0.0017 0.1500427,0 0.3097054,0.01036 0.6178064,-0.04498 0.9275364,-0.05456 0.172702,-0.0053 0.345545,0 0.518329,0 h 0.08184 c 0.0046,0 0.0091,1.56e-4 0.01366,4.1e-4 0.0045,2.54e-4 0.0092,5.22e-4 0.01362,-4.1e-4 0.0045,-9.49e-4 0.0088,-0.0032 0.01226,-0.0063 0.0035,-0.0031 0.0062,-0.007 0.0081,-0.0112 0.0037,-0.0085 0.004,-0.01821 0.0022,-0.02731 -0.0037,-0.01819 -0.01508,-0.03372 -0.02252,-0.05071 -0.01019,-0.02329 -0.01281,-0.04932 -0.01144,-0.0747 0.0014,-0.02539 0.0066,-0.05039 0.01144,-0.07534 0.02925,-0.149692 0.04748,-0.301523 0.08184,-0.450127 0.06972,-0.30157 0.20419,-0.583481 0.313725,-0.872976 0.08296,-0.219253 0.151824,-0.443555 0.218244,-0.668371 0.02567,-0.0869 0.05101,-0.173963 0.08184,-0.259165 0.0506,-0.139833 0.115696,-0.273873 0.177323,-0.409207 0.06582,-0.144534 0.127772,-0.290788 0.190964,-0.436488 0.06417,-0.147948 0.130752,-0.297235 0.231884,-0.422847 0.0182,-0.0226 0.03751,-0.04444 0.05309,-0.06892 0.01558,-0.02448 0.02742,-0.05213 0.02875,-0.08112 0.0014,-0.02938 -0.0086,-0.05914 -0.02728,-0.08184 l -0.04091,-0.109116 -4e-6,-0.1909634"
     id="path2"
     inkscape:path-effect="#path-effect2"
     inkscape:original-d="M 5.5242967,3.3418585 C 5.303801,3.2532024 5.0765554,3.2491766 4.8422847,3.2327366 c -0.2504958,-0.017579 -0.5537706,-0.054566 -0.804774,0 -0.3039825,0.066083 -0.6456636,0.2006412 -0.913896,0.3682864 -0.2853815,0.1783634 -0.509862,0.3998867 -0.5456096,0.7502131 -0.024103,0.2362139 0.035583,0.5402315 0.095482,0.7638534 0.078674,0.2937165 0.1606178,0.4003193 0.2046036,0.6956522 0.01542,0.103532 0.011414,0.2090752 0.01364,0.3137255 0.00864,0.4061057 -0.00574,0.5500885 -0.081841,1.0230179 C 2.7803633,7.3309674 2.6875224,7.7354457 2.6052856,7.9386189 2.5671404,8.0328601 2.5116308,8.1191789 2.4688832,8.2114237 2.4252053,8.305676 2.389799,8.4036164 2.3461211,8.4978687 2.3033735,8.5901135 2.2523236,8.6783628 2.2097187,8.7706735 2.1704388,8.8557798 2.1415493,8.9455239 2.1005968,9.029838 2.0303637,9.1744355 1.9446231,9.310986 1.8687127,9.4526854 1.8082125,9.5656191 1.7557223,9.6828962 1.6913896,9.7936914 1.625536,9.9071059 1.4576448,10.117967 1.4458653,10.2711 c -0.00222,0.02883 0.065436,0.165974 0.095482,0.204603 0.015791,0.0203 0.040294,0.03316 0.054561,0.05456 0.010839,0.01626 0.02237,0.19042 0.027281,0.218244 0.00806,0.04566 0.022426,0.09029 0.02728,0.136402 0.025774,0.244858 -9.109e-4,0.01789 -0.040921,0.204604 -0.00762,0.03557 0.00242,0.07283 0,0.109122 -0.00522,0.0783 -0.034502,0.154864 -0.040921,0.231884 -0.019773,0.237274 0.050968,0.351566 0.1227621,0.58653 0.030413,0.09953 0.059937,0.233566 0.068201,0.341006 0.00555,0.0722 -0.0072,0.146211 0,0.218244 0.00231,0.02307 0.010361,0.04525 0.01364,0.0682 0.00193,0.0135 -0.011567,0.03369 0,0.04092 0.2707301,0.169206 0.5928415,0.204783 0.9002558,0.245524 0.2269836,0.03008 0.45437,0.05723 0.6820119,0.08184 0.2770755,0.02995 0.5553187,0.0489 0.8320546,0.08184 1.8960104,0.225716 -0.073743,0.03289 1.6777493,0.204604 0.5729311,0.05617 0.5042892,0.04755 0.9957375,0.08184 0.063662,0.0044 0.1272449,0.0101 0.1909633,0.01364 0.018159,10e-4 0.036917,-0.0044 0.054561,0 0.00441,0.0011 -0.00322,0.01043 0,0.01364 0.00321,0.0032 0.00957,-0.002 0.01364,0 0.00575,0.0029 0.00734,0.01238 0.01364,0.01364 0.017834,0.0036 0.036485,-0.002 0.054561,0 0.091706,0.01019 0.052028,0.01758 0.1500426,0.04092 0.067661,0.01611 0.1377278,0.02181 0.2046036,0.04092 0.4170668,0.119162 0.8223447,0.269743 1.2276215,0.422848 0.2699111,0.101966 0.539175,0.202995 0.8184143,0.272804 0.027898,0.007 0.053549,0.02214 0.081841,0.02728 0.062152,0.0113 0.1178032,-0.0097 0.1773231,-0.01364 0.049903,-0.0033 0.1000285,0 0.1500427,0 0.3132754,0 0.6142254,-0.03613 0.9275364,-0.05456 0.172478,-0.01015 0.345553,0 0.518329,0 0.02728,0 0.05456,0 0.08184,0 0.0091,0 0.02478,0.0087 0.02728,0 0.0087,-0.0306 0,-0.06366 0,-0.09548 0,-0.05001 -0.0038,-0.100176 0,-0.150043 0.01015,-0.131937 0.04673,-0.327239 0.08184,-0.450127 0.08198,-0.286923 0.218293,-0.599128 0.313725,-0.872976 0.07713,-0.221313 0.144131,-0.446031 0.218244,-0.668371 0.02865,-0.08595 0.0503,-0.17424 0.08184,-0.259165 0.05176,-0.139356 0.120722,-0.271746 0.177323,-0.409207 0.09111,-0.221262 0.09065,-0.252584 0.190964,-0.436488 0.07688,-0.140953 0.153823,-0.282337 0.231884,-0.422847 0.02077,-0.03738 0.06575,-0.101773 0.08184,-0.150043 0.0096,-0.02888 -0.02728,-0.05162 -0.02728,-0.08184 -0.0427,-0.09966 -0.04091,-0.06085 -0.04091,-0.109116 -0.01813,-0.072653 -4e-6,-0.1199704 -4e-6,-0.1909634" />
  <path
     style="fill:#000000;fill-opacity:1;stroke:none;stroke-width:1.9;stroke-dasharray:none;stroke-opacity:1"
     d="M 8.5251492,9.4390452 C 8.1858474,8.9912424 7.8969979,8.5052415 7.6658142,7.9931799 7.5114056,7.6511716 7.3753438,7.2865804 7.1065644,7.0247229 7.0186319,6.9390549 6.917609,6.8657559 6.8427898,6.7684255 6.8053803,6.7197602 6.7748471,6.6650513 6.759301,6.6056703 6.743755,6.5462893 6.7438329,6.4819613 6.7655584,6.4245524 6.7933298,6.3511675 6.853293,6.2949189 6.915601,6.2472293 7.1704495,6.052172 7.4862846,5.9594346 7.7885763,5.8516624 8.305568,5.667346 8.8018345,5.4291515 9.316283,5.2378517 9.450144,5.1880749 9.5857629,5.14124 9.71185,5.0741688 c 0.068271,-0.036316 0.1335985,-0.078492 0.2046035,-0.1091219 0.035677,-0.01539 0.072562,-0.027764 0.1091215,-0.040921 0.134292,-0.048331 0.264435,-0.1073391 0.395567,-0.1636829 0.193187,-0.083007 0.388809,-0.1603464 0.586531,-0.2318841 -0.0026,-0.00527 -0.0026,-0.011774 1.9e-5,-0.017041 0.0026,-0.00527 0.0078,-0.00917 0.01362,-0.010239 0.0045,-8.25e-4 0.0091,-2.7e-5 0.01364,0 0.0087,5.15e-5 0.01732,-0.00278 0.02451,-0.00766 0.0072,-0.00488 0.01295,-0.01176 0.01684,-0.019531 0.0078,-0.015542 0.0079,-0.034144 0.0031,-0.050844 -0.0048,-0.0167 -0.01421,-0.031732 -0.02482,-0.045495 -0.01061,-0.013762 -0.02253,-0.026476 -0.03325,-0.040151 -0.04805,-0.061255 -0.0702,-0.1393249 -0.07836,-0.2167451 -0.0082,-0.07742 -0.0034,-0.1555334 -0.0035,-0.2333828 -3.45e-4,-0.4713825 -0.175379,-0.9226978 -0.341008,-1.3640239 -0.05483,-0.1460883 -0.109401,-0.2946633 -0.122762,-0.4501279 -0.0048,-0.05628 -0.0042,-0.1132416 -0.01526,-0.1686441 -0.0055,-0.027701 -0.01396,-0.054961 -0.02701,-0.080011 -0.01305,-0.02505 -0.03081,-0.047878 -0.05322,-0.06507 -0.0073,-0.00558 -0.015,-0.010547 -0.02217,-0.016246 -0.0072,-0.0057 -0.01387,-0.01223 -0.0184,-0.020196 -0.0045,-0.00797 -0.0067,-0.017529 -0.0046,-0.026448 0.0011,-0.00446 0.0032,-0.00869 0.0063,-0.012062 0.0031,-0.00337 0.0072,-0.00587 0.01165,-0.00689 0.0045,-0.00102 0.0091,-5.73e-4 0.01364,0 0.06476,0.00818 0.124058,0.040899 0.176358,0.079964 0.0523,0.039066 0.09923,0.084889 0.151008,0.124639 0.110055,0.084484 0.239387,0.1396359 0.368287,0.1909634 0.625818,0.2491981 1.281118,0.4298288 1.950554,0.5046888 0.448235,0.050124 0.900294,0.052737 1.350383,0.081841 0.278924,0.018036 0.566183,0.04531 0.832055,-0.040921 0.03152,-0.010224 0.06276,-0.022052 0.09548,-0.02728 0.0045,-7.236e-4 0.0092,-0.00131 0.01364,0 0.0043,0.00128 0.008,0.00439 0.01025,0.0083 0.0022,0.00391 0.003,0.00857 0.0025,0.013042 -5.29e-4,0.00447 -0.0024,0.00875 -0.005,0.012384 -0.0027,0.00363 -0.0061,0.00664 -0.01,0.00899 -0.0077,0.0047 -0.01669,0.00675 -0.0256,0.00801 -0.0089,0.00126 -0.01796,0.00181 -0.02673,0.00384 -0.01639,0.00379 -0.03138,0.012725 -0.04347,0.024432 -0.01209,0.011707 -0.02136,0.026111 -0.02828,0.041449 -0.01383,0.030677 -0.01829,0.064592 -0.02373,0.097802 -0.04698,0.2868253 -0.176602,0.5527183 -0.310067,0.8109097 -0.133465,0.2581914 -0.273652,0.5167996 -0.344664,0.7986384 -0.03991,0.1583863 -0.05746,0.3224558 -0.109122,0.4774084 -0.06369,0.1910498 -0.176895,0.3614555 -0.256405,0.546482 -0.03975,0.092513 -0.07121,0.1894146 -0.08236,0.2894879 -0.01116,0.1000734 -0.0013,0.2037571 0.03868,0.2961699 0.01536,0.035496 0.0354,0.070576 0.03669,0.1092311 6.45e-4,0.019327 -0.0038,0.039219 -0.01499,0.054987 -0.0056,0.00788 -0.01283,0.014647 -0.02126,0.019386 -0.0084,0.00474 -0.01805,0.00742 -0.02772,0.00736 -0.01088,-6.72e-5 -0.02157,-0.00358 -0.03096,-0.00907 -0.0094,-0.00549 -0.01755,-0.0129 -0.02478,-0.021028 -0.01446,-0.016255 -0.02537,-0.035404 -0.03974,-0.051744 -0.02044,-0.023244 -0.04732,-0.040098 -0.07565,-0.05257 -0.02833,-0.012472 -0.05826,-0.020815 -0.08804,-0.029271 -0.284191,-0.080715 -0.565252,-0.1757462 -0.856134,-0.2273909 -0.290882,-0.051645 -0.596293,-0.058147 -0.876177,0.036428 -0.284597,0.096167 -0.525804,0.2906336 -0.736573,0.5046889 -0.299386,0.3040537 -0.549733,0.6539201 -0.763853,1.0230179 -0.112262,0.1935168 -0.216491,0.3949035 -0.368286,0.5592498 -0.08318,0.09006 -0.180512,0.1688643 -0.2455247,0.2728047 -0.01406,0.022479 -0.026484,0.045962 -0.040921,0.068201 C 9.8384861,8.4133817 9.7091229,8.4879735 9.5890878,8.5660699 9.385611,8.6984547 9.196238,8.8530907 9.029838,9.029838 c -0.028056,0.029801 -0.055531,0.060295 -0.086461,0.087101 -0.03093,0.026806 -0.06567,0.050009 -0.1045023,0.062942 -0.011686,0.00389 -0.023672,0.00683 -0.035342,0.01077 -0.01167,0.00394 -0.023138,0.00895 -0.032859,0.01651 -0.018043,0.014038 -0.02844,0.035407 -0.040921,0.054561 -0.029932,0.045935 -0.073609,0.080991 -0.1091219,0.1227621 -0.00836,0.00984 -0.016468,0.020227 -0.02728,0.027281 -0.010303,0.00672 -0.022415,0.00999 -0.034268,0.01328 -0.011853,0.00329 -0.02393,0.00684 -0.033933,0.014 -0.00804,0.00576 -0.014457,0.013748 -0.018342,0.02284 -0.00388,0.00909 -0.00522,0.019255 -0.00382,0.029042 0.0014,0.00979 0.00553,0.019169 0.011803,0.02681 0.00627,0.00764 0.014674,0.013516 0.024003,0.016791"
     id="path3"
     inkscape:path-effect="#path-effect3"
     inkscape:original-d="M 8.5251492,9.4390452 C 8.313183,8.9188156 7.9634512,8.4658976 7.6658142,7.9931799 7.4669874,7.6773962 7.3049486,7.3406682 7.1065644,7.0247229 7.0774277,6.9783201 6.7304922,6.5297509 6.7655584,6.4245524 6.7959409,6.3334048 6.8344766,6.3090384 6.915601,6.2472293 7.1779819,6.0473201 7.4804921,5.9543571 7.7885763,5.8516624 8.3106922,5.6776238 8.813049,5.4592746 9.316283,5.2378517 9.4468187,5.180416 9.5813958,5.1312425 9.71185,5.0741688 10.070842,4.91711 9.5899871,5.1173979 9.9164535,4.9650469 c 0.035203,-0.016428 0.073201,-0.02613 0.1091215,-0.040921 0.131632,-0.054201 0.259284,-0.1210942 0.395567,-0.1636829 0.186418,-0.058256 0.422775,-0.1227137 0.586531,-0.2318841 0.02702,0.00136 0.0065,-0.020091 0.01364,-0.02728 0.0032,-0.00322 0.01043,0.00321 0.01364,0 0.02027,-0.020268 -0.01228,-0.1521402 -0.01364,-0.1636829 -0.04201,-0.3571258 0.0353,0.061017 -0.08184,-0.4501279 C 10.83467,3.4301522 10.719349,2.9767576 10.598465,2.5234442 10.558393,2.3731727 10.517922,2.222999 10.475703,2.0733163 10.44603,1.9681098 10.412369,1.8640681 10.380222,1.7595908 c -0.0085,-0.027484 -0.02728,-0.053085 -0.02728,-0.081841 0,-0.00455 0.0097,-0.00234 0.01364,0 0.110344,0.066206 0.215504,0.1409959 0.327366,0.2046035 0.120209,0.068354 0.24138,0.1360338 0.368287,0.1909634 0.622753,0.2695501 1.281567,0.4091193 1.950554,0.5046888 0.744354,0.1063363 0.630423,0.081841 1.350383,0.081841 0.444525,0 0.448975,0.020866 0.832055,-0.040921 0.03268,-0.00527 0.06337,-0.019252 0.09548,-0.02728 0.0044,-0.0011 0.01637,-0.00364 0.01364,0 -0.01543,0.020576 -0.03999,0.033366 -0.05456,0.054561 -0.03578,0.052051 -0.06396,0.1089423 -0.09548,0.1636829 -0.300999,0.5227885 -0.50595,1.022689 -0.654731,1.6095481 -0.04012,0.1582344 -0.06816,0.3193924 -0.109122,0.4774084 -0.0979,0.3776008 -0.217134,0.7505639 -0.300085,1.1321398 -0.0019,0.00894 -0.0044,0.1795115 -0.02728,0.1909633 -0.03749,0.018747 -0.0606,-0.058589 -0.09548,-0.081841 C 13.916849,6.104271 13.861301,6.076985 13.803927,6.056267 13.313278,5.8790885 12.593461,5.7377416 12.071616,5.8653036 11.763122,5.9407136 11.52746,6.1294723 11.335043,6.3699925 11.07024,6.7009965 10.806381,7.0402241 10.57119,7.3930104 10.447208,7.5789829 10.341833,7.7762833 10.202904,7.9522602 10.127024,8.0483722 10.034387,8.1309443 9.9573793,8.2250649 9.9405913,8.2455839 9.9327353,8.2723389 9.9164583,8.2932659 9.8299828,8.4044418 9.6966537,8.4789927 9.5890878,8.5660699 9.4011176,8.7182363 9.224696,8.8869422 9.029838,9.029838 8.9705206,9.0733374 8.9018608,9.142089 8.8388747,9.1798806 c -0.1109106,0.066546 0.01461,-0.027927 -0.068201,0.02728 -0.015641,0.010427 -0.034527,0.046035 -0.040921,0.054561 -0.020741,0.027655 -0.08094,0.09458 -0.1091219,0.1227621 -0.00909,0.00909 -0.015778,0.021529 -0.02728,0.027281 -0.0219,0.01095 -0.058257,0.00491 -0.068201,0.02728 -0.013058,0.029379 0.00909,0.063654 0.01364,0.095482"
     transform="translate(-0.88661552,0.19096334)" />
</svg>
