<?xml version="1.0" encoding="UTF-8" standalone="no"?>
<svg
   width="79px"
   height="58px"
   viewBox="0 0 79 58"
   version="1.1"
   id="svg7"
   sodipodi:docname="multi-signature.svg"
   inkscape:version="1.3.2 (091e20e, 2023-11-25, custom)"
   xmlns:inkscape="http://www.inkscape.org/namespaces/inkscape"
   xmlns:sodipodi="http://sodipodi.sourceforge.net/DTD/sodipodi-0.dtd"
   xmlns="http://www.w3.org/2000/svg"
   xmlns:svg="http://www.w3.org/2000/svg">
  <sodipodi:namedview
     id="namedview7"
     pagecolor="#ffffff"
     bordercolor="#000000"
     borderopacity="0.25"
     inkscape:showpageshadow="2"
     inkscape:pageopacity="0.0"
     inkscape:pagecheckerboard="0"
     inkscape:deskcolor="#d1d1d1"
     inkscape:zoom="18.860759"
     inkscape:cx="39.5"
     inkscape:cy="28.975503"
     inkscape:window-width="2560"
     inkscape:window-height="1369"
     inkscape:window-x="-8"
     inkscape:window-y="-8"
     inkscape:window-maximized="1"
     inkscape:current-layer="svg7" />
  <!-- Generator: Sketch 49 (51002) - http://www.bohemiancoding.com/sketch -->
  <title
     id="title1">Multi-signature accounts icon</title>
  <desc
     id="desc1">Created with Sketch.</desc>
  <defs
     id="defs1">
    <inkscape:path-effect
       effect="spiro"
       id="path-effect14"
       is_visible="true"
       lpeversion="1" />
    <inkscape:path-effect
       effect="spiro"
       id="path-effect13"
       is_visible="true"
       lpeversion="1" />
    <inkscape:path-effect
       effect="spiro"
       id="path-effect12"
       is_visible="true"
       lpeversion="1" />
    <inkscape:path-effect
       effect="spiro"
       id="path-effect11"
       is_visible="true"
       lpeversion="1" />
    <inkscape:path-effect
       effect="spiro"
       id="path-effect10"
       is_visible="true"
       lpeversion="1" />
    <inkscape:path-effect
       effect="spiro"
       id="path-effect9"
       is_visible="true"
       lpeversion="1" />
    <inkscape:path-effect
       effect="spiro"
       id="path-effect8"
       is_visible="true"
       lpeversion="1" />
    <inkscape:path-effect
       effect="spiro"
       id="path-effect7"
       is_visible="true"
       lpeversion="1" />
  </defs>
  <path
     style="fill:none;stroke:#95aabf"
     d="M 4.6127517,25.767785 C 3.7885318,25.887298 2.9228746,25.69493 2.2268456,25.237584 1.5220134,24.774454 0.99703212,24.04171 0.79530201,23.222819 0.6539674,22.649094 0.66959569,22.036353 0.84832215,21.473154 0.98961299,21.027921 1.2276833,20.620952 1.4315436,20.200671 1.5843142,19.885717 1.7228235,19.555164 1.961745,19.299329 2.2507964,18.989816 2.6555264,18.822052 3.0221477,18.610067 3.4212456,18.379303 3.784221,18.089181 4.1885906,17.867785 4.4941352,17.700497 4.8200265,17.574243 5.142953,17.443624 6.0597882,17.072778 6.9606821,16.663012 7.8469799,16.224161 8.1620087,16.068174 8.4765002,15.907737 8.7635697,15.704843 9.0506391,15.501948 9.3111406,15.253949 9.490604,14.951678 c 0.1854411,-0.312339 0.2783485,-0.67216 0.3224364,-1.032716 0.044088,-0.360556 0.041496,-0.72492 0.048705,-1.08809 0.010177,-0.512739 0.04001,-1.024908 0.05302,-1.537583 0.010761,-0.424067 0.010008,-0.848398 0,-1.272484 -0.01335,-0.565665 -0.043136,-1.132468 0,-1.6966439 0.047376,-0.6196378 0.182574,-1.2347034 0.159061,-1.8557047 -0.0094,-0.247852 -0.04391,-0.4981702 0,-0.7422819 0.01986,-0.1103905 0.05569,-0.2178941 0.10604,-0.3181208 0.02768,-0.1398953 0.04541,-0.2817573 0.05302,-0.4241611 0.01509,-0.2824295 -0.0096,-0.565653 0,-0.8483221 0.01099,-0.3231963 0.06698,-0.6443646 0.15906,-0.9543624 0.06738,-0.2268475 0.15485,-0.4526568 0.159061,-0.6892618 6.29e-4,-0.035342 -6.21e-4,-0.070698 0,-0.1060403 0.0034,-0.1934742 0.06573,-0.3880278 0.18839,-0.5376845 0.122665,-0.1496568 0.30749,-0.2507248 0.500871,-0.2576175 0.03533,-0.00126 0.07069,5.109e-4 0.106041,0 0.17124,-0.00248 0.336528,-0.058044 0.501249,-0.1049052 0.164722,-0.046861 0.337807,-0.085704 0.506133,-0.054155 0.10179,0.019078 0.197227,0.062197 0.292578,0.1026115 0.09535,0.040414 0.192396,0.07672 0.290644,0.1094691 l 0.318121,0.1060402 c 0.04453,0.046282 0.09921,0.082739 0.15906,0.1060403 0.06019,0.023433 0.124576,0.033447 0.187969,0.045814 0.06339,0.012367 0.127399,0.027654 0.183172,0.060227 0.07462,0.043583 0.128574,0.1143972 0.192004,0.1730901 0.03172,0.029346 0.06645,0.056086 0.105837,0.073858 0.03939,0.017772 0.08386,0.026173 0.12632,0.018152 0.0089,-0.00168 0.0177,-0.00407 0.02673,-0.00484 0.009,-7.694e-4 0.01851,2.118e-4 0.02629,0.00484 0.0046,0.00272 0.0084,0.00664 0.01105,0.01126 0.0026,0.00462 0.004,0.00993 0.004,0.01525 0,0.00532 -0.0014,0.010628 -0.004,0.01525 -0.0026,0.00462 -0.0065,0.00854 -0.01105,0.01126 l 0.05302,0.05302"
     id="path10"
     inkscape:path-effect="#path-effect10"
     inkscape:original-d="M 4.6127517,25.767785 C 3.8077492,25.619067 2.9868418,25.563297 2.2268456,25.237584 1.2376115,24.813626 1.1013734,24.192045 0.79530201,23.222819 0.58774661,22.56556 0.73124724,22.117066 0.84832215,21.473154 0.94242181,20.955606 1.1717424,20.655323 1.4315436,20.200671 1.6346023,19.845318 1.6465626,19.614511 1.961745,19.299329 2.2012496,19.059824 2.7702158,18.764025 3.0221477,18.610067 3.4149282,18.370035 3.7853957,18.094582 4.1885906,17.867785 4.6633054,17.600758 4.6101187,17.678071 5.142953,17.443624 6.0475162,17.045616 6.9566685,16.649962 7.8469799,16.224161 8.6237032,15.852685 9.0326591,15.714919 9.490604,14.951678 9.8926505,14.2816 9.861745,13.588666 9.861745,12.830872 c 0,-0.519476 0.028398,-1.020516 0.05302,-1.537583 0.020175,-0.423681 0,-0.848323 0,-1.272484 0,-0.5655477 -0.021736,-1.1315137 0,-1.6966439 0.023848,-0.6200455 0.133268,-1.2366892 0.159061,-1.8557047 0.0103,-0.2472128 -0.02462,-0.4960825 0,-0.7422819 0.01112,-0.1112215 0.07069,-0.2120805 0.10604,-0.3181208 0.01767,-0.141387 0.04413,-0.2819512 0.05302,-0.4241611 0.01764,-0.2822234 -0.01881,-0.5661744 0,-0.8483221 0.02153,-0.3229328 0.119145,-0.6350366 0.15906,-0.9543624 0.02946,-0.235657 0.05865,-0.4884495 0.159061,-0.6892618 0.01581,-0.031615 -0.01581,-0.074425 0,-0.1060403 0.06997,-0.1399373 0.519364,-0.7386694 0.689261,-0.795302 0.03353,-0.011178 0.07205,0.00971 0.106041,0 0.363091,-0.1037403 0.598807,-0.2333468 1.007382,-0.1590604 0.154715,0.02813 0.430354,0.1564923 0.583222,0.2120806 0.10604,0.035347 0.21208,0.070693 0.318121,0.1060402 0.05302,0.035347 0.10049,0.080939 0.15906,0.1060403 0.118261,0.050683 0.25288,0.055357 0.371141,0.1060403 0.190786,0.081765 0.265957,0.1596314 0.424161,0.2651006 0.0147,0.0098 0.04052,-0.012497 0.05302,0 0.0125,0.012497 0,0.035347 0,0.05302 0.01767,0.017673 0.03535,0.035347 0.05302,0.05302" />
  <path
     style="fill:none;stroke:#1c1f30;stroke-opacity:1"
     d="M 13.308054,26.722148 C 11.421398,25.841066 9.2602742,25.55918 7.2107383,25.926846 6.7156812,26.015654 6.2127854,26.141715 5.7160496,26.062835 5.4676817,26.023395 5.2243066,25.930522 5.0299569,25.770927 4.8356072,25.611333 4.6937656,25.381461 4.6657718,25.131544 c -0.00985,-0.08794 -0.00584,-0.176806 0,-0.265101 0.00826,-0.124909 0.020277,-0.250317 0.05302,-0.371141 0.048754,-0.17991 0.1429509,-0.345906 0.2630738,-0.488438 0.120123,-0.142531 0.2657792,-0.262206 0.4223593,-0.363336 0.3131603,-0.202261 0.6671509,-0.330198 1.0112112,-0.473729 0.6859356,-0.28615 1.3417027,-0.639123 2.0147651,-0.954363 1.4506215,-0.679424 2.9771448,-1.181614 4.4536918,-1.802684 0.564839,-0.237585 1.126333,-0.494833 1.625656,-0.850032 0.499324,-0.355198 0.937211,-0.816116 1.184411,-1.376814 0.198026,-0.449162 0.26696,-0.94334 0.318121,-1.431544 0.04061,-0.387477 0.07135,-0.777275 0.05302,-1.166443 -0.03057,-0.648873 -0.196703,-1.28299 -0.371141,-1.908724 -0.261416,-0.937737 -0.543561,-1.869687 -0.795302,-2.810067 -0.325898,-1.217397 -0.601546,-2.4542023 -0.689262,-3.7114099 -0.04063,-0.5822793 -0.04075,-1.1673936 0,-1.7496644 0.05197,-0.7426243 0.17006,-1.4916632 0.05302,-2.2268456 -0.02478,-0.155687 -0.06009,-0.3142122 -0.03194,-0.4693271 0.01407,-0.077557 0.04464,-0.1531819 0.09553,-0.2133715 0.0509,-0.06019 0.123169,-0.1039041 0.201511,-0.1126035 0.05273,-0.00585 0.106009,0 0.15906,0 h 0.371141 c 0.885943,0 1.770706,0.05923 2.651007,0.1590604 1.063126,0.1205637 2.126692,0.2431367 3.181208,0.4241611 0.07545,0.012953 0.151153,0.026277 0.223969,0.049917 0.07282,0.02364 0.143134,0.058098 0.200192,0.1091434 0.06602,0.059059 0.111699,0.1380348 0.143302,0.2207838 0.0316,0.082749 0.05001,0.1698304 0.06878,0.2563974 0.146243,0.6745116 0.321624,1.3423406 0.477182,2.0147651 0.149497,0.6462263 0.281051,1.2994886 0.318121,1.961745 0.01976,0.3530418 0.01257,0.7070317 0,1.0604027 -0.03778,1.06219 -0.124039,2.1219991 -0.212081,3.1812081 -0.04869,0.585798 -0.09814,1.172995 -0.212081,1.749664 -0.04905,0.248251 -0.109965,0.49404 -0.15906,0.742282 -0.161952,0.818885 -0.19407,1.657395 -0.212081,2.491947 -0.01634,0.757199 -0.01464,1.546488 0.318121,2.226845 0.153224,0.313275 0.37139,0.590862 0.530202,0.901342 0.07201,0.140777 0.131654,0.288019 0.21208,0.424162 0.134939,0.228421 0.324496,0.41928 0.477181,0.636241 0.09597,0.136378 0.17702,0.282556 0.265101,0.424161 0.699473,1.124515 1.812091,1.919609 2.916107,2.651007 0.323889,0.214572 0.651499,0.427363 1.007383,0.583221 0.108813,0.04765 0.221133,0.09047 0.318121,0.159061 0.09249,0.0654 0.168651,0.152672 0.2651,0.21208 0.101104,0.06228 0.219353,0.0907 0.336786,0.108298 0.117433,0.0176 0.236483,0.02535 0.352476,0.05076 0.240815,0.05276 0.458236,0.179062 0.689262,0.2651 0.188981,0.07038 0.386736,0.113663 0.583221,0.159061 0.05905,0.01364 0.118413,0.02762 0.174067,0.05161 0.05565,0.02399 0.10795,0.05878 0.144054,0.107453 0.03862,0.05207 0.0567,0.118279 0.05343,0.183024 -0.0033,0.06475 -0.02731,0.127787 -0.06511,0.180459 -0.03779,0.05267 -0.08898,0.09514 -0.146079,0.125843 -0.0571,0.0307 -0.120014,0.04986 -0.184064,0.05988 -0.128099,0.02003 -0.258997,0.0039 -0.386766,-0.01814 -0.127769,-0.02204 -0.255233,-0.05006 -0.384833,-0.05388 -0.217401,-0.0064 -0.431686,0.05571 -0.631966,0.140516 -0.200279,0.08481 -0.390048,0.192442 -0.587497,0.283646 -0.838003,0.387085 -1.788108,0.465902 -2.709862,0.416372 -0.921755,-0.04953 -1.832478,-0.220808 -2.751211,-0.310332 -1.550945,-0.151129 -3.119886,-0.06886 -4.665772,-0.265101 -0.635504,-0.08067 -1.287031,-0.207517 -1.908725,-0.05302 -0.158439,0.03937 -0.314176,0.09696 -0.477181,0.10604 -0.09876,0.0055 -0.197595,-0.007 -0.296502,-0.0079 -0.09891,-8.54e-4 -0.201268,0.01108 -0.28672,0.06089 -0.05513,0.03214 -0.101283,0.07895 -0.15906,0.106041 -0.04066,0.01907 -0.08563,0.02758 -0.130462,0.03022 -0.04483,0.0026 -0.08978,-3.9e-4 -0.134589,-0.0034 -0.04481,-0.0031 -0.08975,-0.0061 -0.134589,-0.0036 -0.04484,0.0026 -0.08982,0.01093 -0.130562,0.02983 -0.05789,0.02686 -0.104235,0.07338 -0.15906,0.10604 -0.08911,0.05309 -0.200725,0.06688 -0.300081,0.03707 -0.09936,-0.02981 -0.184945,-0.102755 -0.23012,-0.196132 z"
     id="path7"
     inkscape:path-effect="#path-effect7"
     inkscape:original-d="m 13.308054,26.722148 c -2.0499,-0.131959 -4.0799709,-0.419187 -6.0973157,-0.795302 -0.286786,-0.05347 -2.3348624,-0.235025 -2.5449665,-0.795302 -0.031028,-0.08274 -0.00734,-0.177039 0,-0.265101 0.010378,-0.124538 -0.00825,-0.26222 0.05302,-0.371141 0.3335893,-0.593048 1.1210843,-1.037723 1.6966443,-1.325503 0.6646695,-0.332335 1.3413596,-0.640107 2.0147651,-0.954363 1.4566181,-0.679755 2.9780328,-1.170259 4.4536918,-1.802684 1.062269,-0.455259 2.30141,-1.117049 2.810067,-2.226846 0.185925,-0.405656 0.281705,-0.994556 0.318121,-1.431544 0.03232,-0.387871 0.063,-0.777355 0.05302,-1.166443 -0.01909,-0.744565 -0.175416,-1.18454 -0.371141,-1.908724 -0.253957,-0.939641 -0.54234,-1.870495 -0.795302,-2.810067 -0.327855,-1.2177469 -0.60327,-2.4501934 -0.689262,-3.7114099 -0.03967,-0.5818705 0,-1.1664429 0,-1.7496644 0,-0.483273 -0.06441,-1.5614307 0.05302,-2.2268456 0.0047,-0.026622 0.148964,-0.7372336 0.265101,-0.7953021 0.04742,-0.023711 0.10604,0 0.15906,0 0.123714,0 0.247427,0 0.371141,0 1.643117,0 1.015121,-0.052642 2.651007,0.1590604 1.06094,0.1372981 2.125149,0.2533281 3.181208,0.4241611 0.149064,0.024113 0.296767,0.077991 0.424161,0.1590604 0.197392,0.1256131 0.15778,0.2871307 0.21208,0.4771812 0.189167,0.662082 0.337759,1.3375667 0.477182,2.0147651 0.02217,0.1076861 0.311966,1.8817429 0.318121,1.961745 0.02711,0.3524264 0,0.7069351 0,1.0604027 0,1.0749548 -0.0966,2.1130391 -0.212081,3.1812081 -0.03827,0.353989 -0.145043,1.360846 -0.212081,1.749664 -0.04299,0.249365 -0.116305,0.492876 -0.15906,0.742282 -0.14477,0.844494 -0.212081,1.640443 -0.212081,2.491947 0,0.878691 -0.0264,1.384684 0.318121,2.226845 0.116752,0.285393 0.378792,0.632169 0.530202,0.901342 0.0775,0.137775 0.133653,0.286914 0.21208,0.424162 0.265381,0.464417 0.155692,0.186157 0.477181,0.636241 0.09691,0.135674 0.167482,0.288996 0.265101,0.424161 0.758378,1.050062 1.832652,1.957596 2.916107,2.651007 0.32681,0.209158 0.672228,0.387714 1.007383,0.583221 0.102407,0.05974 0.223275,0.08793 0.318121,0.159061 0.106386,0.07979 0.133986,0.168376 0.2651,0.21208 0.223693,0.07456 0.464688,0.0872 0.689262,0.159061 0.234451,0.07502 0.455732,0.187257 0.689262,0.2651 0.191167,0.06372 0.387071,0.112908 0.583221,0.159061 0.175734,0.04135 0.421729,0.05545 0.318121,0.15906 -0.199149,0.19915 -0.859857,0.375755 -1.113423,0.477181 -0.514215,0.205686 -0.602703,0.328221 -1.219463,0.424162 -1.807125,0.281108 -3.64288,0.181798 -5.461073,0.10604 -1.558818,-0.06495 -3.109368,-0.167826 -4.665772,-0.265101 -0.619613,-0.03873 -1.286793,-0.118487 -1.908725,-0.05302 -0.162045,0.01706 -0.315499,0.08583 -0.477181,0.10604 -0.484887,0.06061 -0.227044,-0.0657 -0.583222,0.05302 -0.06045,0.02015 -0.09724,0.09059 -0.15906,0.106041 -0.163131,0.04078 -0.36707,0.01224 -0.530202,0.05302 -0.0481,0.01202 -0.113412,0.08322 -0.15906,0.10604 -0.162361,0.08118 -0.43406,-0.101375 -0.530201,-0.15906 z" />
  <path
     style="fill:none;stroke:#95aabf"
     d="m 62.404698,3.3402685 c 0.456048,-0.2149763 0.93772,-0.3755334 1.431544,-0.4771813 1.225738,-0.2523038 2.509506,-0.1365196 3.711409,0.2120806 0.817269,0.2370409 1.608036,0.5830807 2.302179,1.0753023 0.694143,0.4922216 1.289924,1.1346491 1.674331,1.8938252 0.612676,1.2099924 0.654907,2.6400182 0.424161,3.9765097 -0.08319,0.481809 -0.199746,0.957152 -0.318121,1.431544 -0.410121,1.643576 -0.845188,3.293443 -0.954362,4.983893 -0.02052,0.317792 -0.02943,0.63727 0,0.954362 0.03899,0.420178 0.145763,0.834285 0.318121,1.219463 0.180969,0.404421 0.431792,0.77337 0.636241,1.166443 0.113544,0.218299 0.214387,0.446571 0.371141,0.636242 0.0956,0.115676 0.209827,0.214232 0.318121,0.31812 0.30685,0.294365 0.569689,0.635234 0.901342,0.901343 0.196265,0.157478 0.416481,0.288722 0.583222,0.477181 0.075,0.08477 0.137802,0.179693 0.21208,0.265101 0.172583,0.198443 0.401812,0.339794 0.583222,0.530201 0.251994,0.264492 0.406108,0.617495 0.689262,0.848322 0.107302,0.08747 0.232222,0.156535 0.31812,0.265101 0.05498,0.06949 0.09252,0.153572 0.159061,0.21208 0.04791,0.04212 0.107767,0.06811 0.15906,0.106041 0.103399,0.07646 0.165151,0.195584 0.22019,0.31181 0.05504,0.116225 0.109366,0.237324 0.203971,0.324431 0.03721,0.03426 0.07969,0.06227 0.118541,0.09464 0.03886,0.03238 0.0749,0.07042 0.09354,0.117437 0.01036,0.02614 0.01498,0.05413 0.02135,0.08152 0.0064,0.02739 0.01485,0.05499 0.03167,0.07754 0.01505,0.02018 0.03587,0.03512 0.05565,0.05068 0.01978,0.01556 0.03936,0.03273 0.05039,0.05536 0.01178,0.02418 0.01259,0.05226 0.0099,0.07902 -0.0027,0.02676 -0.0088,0.05317 -0.0099,0.08004 -0.0018,0.0452 0.01038,0.0897 0.02346,0.133009 0.01308,0.04331 0.02726,0.08691 0.02956,0.132092 0.0028,0.05415 -0.01212,0.108717 -0.0399,0.155284 -0.02778,0.04657 -0.06815,0.08519 -0.114668,0.113042 -0.09305,0.0557 -0.207755,0.06721 -0.314768,0.04966 -0.107013,-0.01756 -0.207704,-0.06217 -0.303662,-0.112688 -0.09596,-0.05052 -0.188677,-0.107413 -0.287408,-0.152273 -0.228388,-0.103772 -0.482399,-0.139968 -0.73322,-0.144214 -0.250822,-0.0042 -0.500994,0.02223 -0.751344,0.03817 -0.565527,0.03602 -1.134469,0.01824 -1.696644,-0.05302"
     id="path9"
     inkscape:path-effect="#path-effect9"
     inkscape:original-d="m 62.404698,3.3402685 c 0.647699,-0.1213789 0.62483,-0.3681659 1.431544,-0.4771813 1.140039,-0.1540594 2.618191,-0.091591 3.711409,0.2120806 1.477267,0.410352 3.175556,1.6499092 3.97651,2.9691275 0.610421,1.0053997 0.555531,2.8598668 0.424161,3.9765097 -0.05711,0.485474 -0.215698,0.953573 -0.318121,1.431544 -0.353843,1.65127 -0.954362,3.280416 -0.954362,4.983893 0,0.31812 -0.06045,0.642037 0,0.954362 0.07983,0.412437 0.200995,0.81603 0.318121,1.219463 0.129287,0.445324 0.391867,0.782427 0.636241,1.166443 0.126469,0.198737 0.235025,0.445679 0.371141,0.636242 0.08717,0.12203 0.212081,0.21208 0.318121,0.31812 0.299483,0.299483 0.59148,0.613613 0.901342,0.901343 0.26923,0.249999 0.304602,0.198561 0.583222,0.477181 0.08002,0.08002 0.132061,0.185081 0.21208,0.265101 0.424532,0.424531 0.26974,0.177534 0.583222,0.530201 0.238679,0.268514 0.438677,0.597737 0.689262,0.848322 0.0976,0.09761 0.220516,0.167496 0.31812,0.265101 0.06248,0.06248 0.09658,0.149596 0.159061,0.21208 0.04506,0.04506 0.117099,0.05808 0.15906,0.106041 0.166615,0.190417 0.265985,0.438521 0.424161,0.636241 0.06245,0.07807 0.160644,0.126352 0.212081,0.212081 0.02875,0.04792 0.02427,0.111136 0.05302,0.15906 0.02572,0.04286 0.08748,0.05963 0.10604,0.10604 0.01969,0.04923 0,0.106041 0,0.159061 0,0.04614 0.09318,0.22494 0.05302,0.265101 -0.108086,0.108086 -0.966516,0.05302 -1.060402,0.05302 -0.503225,0 -0.98441,-0.07825 -1.484564,-0.106041 -0.566213,-0.03146 -1.128285,-0.05302 -1.696644,-0.05302" />
  <path
     style="fill:none;stroke:#1c1f30;stroke-opacity:1"
     d="m 60.548993,26.616107 c -0.0637,0.04749 -0.135872,0.08357 -0.21208,0.106041 -0.187974,0.05542 -0.389065,0.02663 -0.583222,0 -1.549079,-0.212443 -3.117582,-0.258354 -4.665772,-0.477182 -0.668092,-0.09443 -1.336917,-0.222516 -1.961745,-0.477181 -0.440353,-0.179477 -0.863997,-0.428151 -1.16771,-0.794049 -0.151857,-0.182949 -0.271709,-0.393914 -0.339463,-0.621818 -0.06775,-0.227904 -0.08239,-0.472928 -0.03041,-0.704938 0.08226,-0.367126 0.323232,-0.679368 0.593723,-0.940869 0.27049,-0.261501 0.576234,-0.485367 0.83782,-0.755775 0.182716,-0.188878 0.34261,-0.399186 0.530202,-0.583222 0.187611,-0.184055 0.401457,-0.340369 0.583221,-0.530201 0.173785,-0.181498 0.315559,-0.390813 0.477181,-0.583222 0.427304,-0.508699 0.983707,-0.889033 1.484564,-1.325503 0.267502,-0.233114 0.526241,-0.487368 0.848322,-0.636242 0.113083,-0.05227 0.232252,-0.09062 0.344756,-0.144124 0.112503,-0.05351 0.22053,-0.124619 0.291486,-0.227017 0.01457,-0.02103 0.02752,-0.04328 0.04403,-0.06282 0.01652,-0.01954 0.0373,-0.03657 0.06201,-0.04322 0.01714,-0.0046 0.03523,-0.004 0.05291,-0.0025 0.01769,0.0015 0.03542,0.0038 0.05313,0.0025 0.03296,-0.0024 0.06438,-0.0175 0.08883,-0.03973 0.02445,-0.02223 0.04216,-0.05127 0.05354,-0.08229 0.02275,-0.06205 0.02056,-0.130121 0.01669,-0.196096 -0.08631,-1.47433 -0.845815,-2.82239 -1.696645,-4.02953 -0.844507,-1.198171 -1.79771,-2.318748 -2.602436,-3.5439915 -0.804725,-1.2252439 -1.466357,-2.5822297 -1.639174,-4.0378876 -0.02509,-0.2113601 -0.03976,-0.4238103 -0.05302,-0.6362416 -0.03133,-0.50207 -0.0507,-1.0273362 0.15906,-1.4845638 0.159085,-0.3467713 0.442383,-0.6282238 0.771186,-0.821736 0.328803,-0.1935123 0.701742,-0.3031953 1.078859,-0.3609978 0.754234,-0.1156051 1.524863,-0.029522 2.285525,-0.089749 0.336626,-0.026653 0.670565,-0.081922 1.007383,-0.1060403 0.564285,-0.040407 1.130957,0.00693 1.696644,0 0.424414,-0.0052 0.850014,-0.040912 1.272483,0 0.4494,0.04352 0.894829,0.1767117 1.272484,0.4241611 0.408839,0.2678822 0.721201,0.6554547 1.060402,1.0073826 0.364331,0.3780007 0.765674,0.7201137 1.113423,1.1134228 0.454081,0.5135726 0.811861,1.1107797 1.060403,1.7496644 0.115522,0.2969533 0.207599,0.6024918 0.318121,0.9013423 0.225453,0.6096257 0.526895,1.1894299 0.742282,1.8026846 0.374966,1.0676132 0.480188,2.2098272 0.530201,3.3402682 0.01407,0.318008 0.02399,0.63695 0,0.954363 -0.05054,0.668736 -0.253462,1.324755 -0.583222,1.908724 -0.152037,0.269242 -0.330428,0.523144 -0.477181,0.795302 -0.239788,0.444693 -0.39206,0.933544 -0.477181,1.431544 -0.06907,0.404119 -0.09463,0.814577 -0.15906,1.219463 -0.0084,0.05295 -0.01753,0.105958 -0.01997,0.159523 -0.0024,0.05357 0.002,0.10808 0.01997,0.158598 0.02991,0.08406 0.09447,0.150537 0.15906,0.212081 0.640898,0.610645 1.450634,1.005946 2.226846,1.431543 0.93036,0.510117 1.829348,1.075665 2.757047,1.590604 0.735554,0.408285 1.515826,0.80722 2.014765,1.484564 0.09896,0.134345 0.185133,0.277713 0.2651,0.424161 0.08723,0.159742 0.167378,0.323636 0.265101,0.477181 0.03422,0.05376 0.07052,0.106152 0.10604,0.159061 0.0806,0.120065 0.158442,0.245867 0.190812,0.386806 0.01618,0.07047 0.02053,0.144159 0.0075,0.215288 -0.01298,0.07113 -0.04378,0.139616 -0.09232,0.193208 -0.0404,0.0446 -0.09202,0.078 -0.146826,0.10285 -0.05481,0.02485 -0.112942,0.04151 -0.171295,0.05621 -0.34682,0.08738 -0.706378,0.108209 -1.060403,0.15906 -0.212828,0.03057 -0.423932,0.07205 -0.636241,0.106041 -0.630823,0.101 -1.270298,0.13562 -1.908725,0.15906 -0.531286,0.01951 -1.064214,0.03149 -1.590604,0.10604 -0.549721,0.07786 -1.089966,0.223658 -1.643624,0.265101 -0.58175,0.04355 -1.166287,0 -1.749665,0 h -1.908725 c -0.07501,0 -0.150374,0.0025 -0.224016,0.01675 -0.07364,0.01428 -0.144567,0.03963 -0.216261,0.0617 -0.07169,0.02207 -0.147932,0.04051 -0.221164,0.02426 -0.03662,-0.0081 -0.07178,-0.02553 -0.09735,-0.05296 -0.02557,-0.02744 -0.04072,-0.0655 -0.03651,-0.102767 0.001,-0.0089 0.0031,-0.01773 0.0039,-0.02668 7.81e-4,-0.009 1.82e-4,-0.01831 -0.0039,-0.02634 -0.0044,-0.0088 -0.01272,-0.01524 -0.02196,-0.01852 -0.0092,-0.0033 -0.01937,-0.0036 -0.02906,-0.002 -0.01938,0.0031 -0.03679,0.01325 -0.05502,0.02052 -0.05534,0.02208 -0.12086,0.01679 -0.171952,-0.01386 -0.05109,-0.03065 -0.08658,-0.08598 -0.09315,-0.145199 z"
     id="path8"
     inkscape:path-effect="#path-effect8"
     inkscape:original-d="m 60.548993,26.616107 c -0.07069,0.03535 -0.133736,0.09559 -0.21208,0.106041 -0.192702,0.02569 -0.388815,0 -0.583222,0 -1.576304,0 -3.119954,-0.168018 -4.665772,-0.477182 -0.09464,-0.01893 -1.702774,-0.373593 -1.961745,-0.477181 -0.730037,-0.292015 -1.734381,-1.235216 -1.537583,-2.120805 0.136275,-0.613241 1.055642,-1.30508 1.431543,-1.696644 0.181952,-0.189533 0.344421,-0.397441 0.530202,-0.583222 0.18578,-0.185781 0.402025,-0.339946 0.583221,-0.530201 0.173232,-0.181893 0.304177,-0.401112 0.477181,-0.583222 0.442726,-0.466026 0.987763,-0.916373 1.484564,-1.325503 0.272852,-0.224702 0.554219,-0.440173 0.848322,-0.636242 0.09669,-0.06446 0.512165,-0.282515 0.636242,-0.371141 0.04068,-0.02905 0.06133,-0.08369 0.10604,-0.10604 0.03161,-0.01581 0.07663,0.01961 0.10604,0 0.05312,-0.03541 0.153192,-0.271171 0.159061,-0.318121 0.181875,-1.455004 -0.905885,-2.922467 -1.696645,-4.02953 -1.743987,-2.441582 -3.847988,-4.4329028 -4.24161,-7.5818791 -0.0264,-0.2111723 -0.03284,-0.4243846 -0.05302,-0.6362416 -0.05014,-0.5264378 -0.151177,-1.0192087 0.15906,-1.4845638 0.766527,-1.1497905 2.937652,-1.1753547 4.13557,-1.2724832 0.336545,-0.027287 0.670253,-0.087311 1.007383,-0.1060403 0.564677,-0.031371 1.131096,0 1.696644,0 0.424161,0 0.852585,-0.059985 1.272483,0 0.222868,0.031838 1.046146,0.3007041 1.272484,0.4241611 0.428011,0.2334605 0.708403,0.6700497 1.060402,1.0073826 0.378895,0.3631073 0.773174,0.7113104 1.113423,1.1134228 0.423432,0.5004195 0.782613,1.1593608 1.060403,1.7496644 0.107917,0.2293245 0.233463,0.6715581 0.318121,0.9013423 0.22471,0.6099286 0.511005,1.1955839 0.742282,1.8026846 0.401876,1.0549252 0.530201,2.2192472 0.530201,3.3402682 0,0.318121 0.03513,0.638188 0,0.954363 -0.05291,0.476158 -0.387319,1.460948 -0.583222,1.908724 -0.660112,1.508829 0.290903,-0.91155 -0.477181,0.795302 -0.197553,0.439007 -0.343913,0.965107 -0.477181,1.431544 -0.121378,0.424823 -0.15906,0.781682 -0.15906,1.219463 0,0.10604 -0.03047,0.216553 0,0.318121 0.02539,0.08464 0.107698,0.140173 0.15906,0.212081 0.526478,0.737068 1.446357,1.041299 2.226846,1.431543 0.930995,0.465498 1.869633,1.044504 2.757047,1.590604 0.680684,0.418883 1.518433,0.822789 2.014765,1.484564 0.101495,0.135327 0.170407,0.282122 0.2651,0.424161 0.58481,0.877214 -0.02606,-0.202198 0.265101,0.477181 0.0251,0.05857 0.08367,0.0994 0.10604,0.159061 0.05656,0.150832 0.1939,0.619582 0.106041,0.795302 -0.07014,0.140275 -0.184994,0.119122 -0.318121,0.15906 -0.744976,0.223493 0.218415,0.0115 -1.060403,0.15906 -0.213589,0.02464 -0.422896,0.07937 -0.636241,0.106041 -0.62898,0.07862 -1.276204,0.116892 -1.908725,0.15906 -0.36919,0.02461 -1.169647,0.05342 -1.590604,0.10604 -0.548447,0.06856 -1.096921,0.196763 -1.643624,0.265101 -0.545296,0.06816 -1.193013,0 -1.749665,0 -0.636242,0 -1.272483,0 -1.908725,0 -0.09509,0 -0.761624,-0.01934 -0.795302,-0.05302 -0.0125,-0.0125 0.0125,-0.04052 0,-0.05302 -0.02499,-0.02499 -0.07442,0.01581 -0.10604,0 -0.09217,-0.04609 -0.176734,-0.10604 -0.265101,-0.159061 z" />
  <path
     style="fill:none;stroke:#95aabf"
     d="m 26.138926,19.56443 c 3.67638,-0.527414 7.465525,-0.254158 11.028188,0.795302 0.526709,0.155154 1.055551,0.330334 1.514875,0.631192 0.459325,0.300858 0.84788,0.743861 0.977071,1.277532 0.02121,0.0876 0.0353,0.176733 0.05302,0.265101 0.02463,0.12283 0.05644,0.245914 0.05302,0.371141 -0.0041,0.148804 -0.05762,0.291478 -0.115807,0.428496 -0.05818,0.137018 -0.122227,0.273448 -0.149294,0.419826 -0.02262,0.122319 -0.01867,0.247745 -0.01762,0.372134 0.001,0.124388 -0.0011,0.250563 -0.0354,0.370148 -0.03177,0.110913 -0.08992,0.212053 -0.144,0.313966 -0.05408,0.101914 -0.105268,0.207995 -0.121101,0.322276 -0.01843,0.133042 0.01221,0.267224 0.03205,0.400064 0.0099,0.06642 0.01718,0.133558 0.01422,0.200649 -0.003,0.06709 -0.01644,0.134416 -0.04626,0.194589 -0.01267,0.02556 -0.02819,0.04969 -0.0396,0.07583 -0.01141,0.02614 -0.01862,0.05518 -0.01342,0.08323 0.0055,0.02972 0.02427,0.05542 0.03194,0.08467 0.0038,0.01462 0.0047,0.03042 -3.22e-4,0.04467 -0.0025,0.0071 -0.0066,0.01375 -0.01197,0.01902 -0.0054,0.0053 -0.01225,0.0091 -0.01965,0.0107 -0.0087,0.0018 -0.01773,4.76e-4 -0.02655,-6.7e-4 -0.0088,-0.0011 -0.01799,-0.002 -0.02647,6.7e-4 -0.0098,0.0031 -0.01771,0.01098 -0.02201,0.02032 -0.0043,0.0093 -0.0052,0.02001 -0.0037,0.03018 0.003,0.02033 0.01492,0.03804 0.02569,0.05555 0.06943,0.112778 0.102451,0.247581 0.09302,0.379679 -0.0094,0.132097 -0.06129,0.260838 -0.146036,0.362603"
     id="path11"
     inkscape:path-effect="#path-effect11"
     inkscape:original-d="m 26.138926,19.56443 c 3.668613,-0.480402 7.520856,-0.52822 11.028188,0.795302 1.058525,0.399443 1.968938,0.862708 2.491946,1.908724 0.0403,0.0806 0.03535,0.176734 0.05302,0.265101 0.02451,0.122543 0.09254,0.252584 0.05302,0.371141 -0.09262,0.277875 -0.222468,0.549892 -0.265101,0.848322 -0.178248,1.247737 0.197554,-0.510586 -0.05302,0.742282 -0.04569,0.22844 -0.2167,0.418438 -0.265101,0.636242 -0.05556,0.250026 0.03183,0.540682 0,0.795302 -0.0069,0.05546 -0.03946,0.104841 -0.05302,0.15906 -0.01326,0.05302 0.02651,0.10604 0,0.15906 -0.0079,0.01581 -0.04512,-0.01581 -0.05302,0 -0.01581,0.03162 0.0069,0.07138 0,0.106041 -0.04994,0.249711 -0.05302,0.483381 -0.05302,0.742282" />
  <path
     style="fill:none;stroke:#95aabf"
     d="m 39.818121,21.950336 c 0.603066,-0.424472 1.242391,-0.797411 1.908725,-1.113423 1.471036,-0.697645 3.056765,-1.111479 4.612751,-1.590604 0.738038,-0.227259 1.472652,-0.470294 2.226846,-0.636242 0.923435,-0.203186 1.868113,-0.289046 2.810067,-0.371141 0.371423,-0.03237 0.742943,-0.06423 1.113423,-0.10604 0.479443,-0.0541 0.957008,-0.124853 1.431544,-0.212081"
     id="path12"
     inkscape:path-effect="#path-effect12"
     inkscape:original-d="m 39.818121,21.950336 c 0.700423,-0.261637 1.2415,-0.78992 1.908725,-1.113423 1.472033,-0.713713 3.049444,-1.136741 4.612751,-1.590604 0.714854,-0.207538 1.506212,-0.508535 2.226846,-0.636242 0.930328,-0.164868 1.872155,-0.25707 2.810067,-0.371141 0.370093,-0.04501 0.744147,-0.05475 1.113423,-0.10604 0.492489,-0.0684 0.934343,-0.212081 1.431544,-0.212081" />
  <path
     style="fill:none;stroke:#ff9500;stroke-opacity:1"
     d="m 34.038926,10.338926 c 0.456122,0.335098 0.898455,0.688964 1.325504,1.060403 0.962097,0.836814 1.859039,1.780493 2.438926,2.916107 0.111418,0.218194 0.211914,0.447025 0.240246,0.690376 0.01417,0.121676 0.0098,0.246125 -0.01998,0.364943 -0.0298,0.118817 -0.08558,0.231903 -0.167243,0.323205 -0.01667,0.01864 -0.03438,0.03635 -0.05302,0.05302 -0.02405,0.0176 -0.04244,0.04281 -0.05186,0.07108 -0.0094,0.02827 -0.0098,0.05947 -0.0012,0.08798 0.0088,0.02877 0.02636,0.05452 0.03272,0.08391 0.0032,0.0147 0.0034,0.03037 -0.0019,0.04446 -0.0026,0.007 -0.0066,0.01362 -0.01185,0.019 -0.0053,0.0054 -0.0118,0.0095 -0.019,0.0117 -0.0085,0.0026 -0.01759,0.0023 -0.02644,0.0015 -0.0088,-7.9e-4 -0.01771,-0.0021 -0.02658,-0.0015 -0.01645,0.0011 -0.03218,0.0088 -0.04396,0.02032 -0.01178,0.01154 -0.01968,0.02674 -0.02353,0.04277 -0.0077,0.03206 5.93e-4,0.06606 0.01447,0.09597 0.03141,0.06769 0.09162,0.12049 0.161294,0.147208 0.06968,0.02672 0.148011,0.02806 0.21998,0.0083 0.07197,-0.01972 0.137604,-0.05986 0.191466,-0.111502 0.05386,-0.05165 0.09624,-0.114561 0.128429,-0.181882 0.06439,-0.134642 0.08803,-0.284642 0.108158,-0.432523 0.02012,-0.147882 0.03791,-0.29793 0.09202,-0.437023 0.101885,-0.261938 0.322735,-0.459765 0.557463,-0.614344 0.234728,-0.154578 0.490741,-0.276675 0.71502,-0.446059 0.03621,-0.02735 0.07178,-0.05613 0.100883,-0.09093 0.02911,-0.03481 0.05164,-0.07625 0.05818,-0.121146 0.0077,-0.05256 -0.0068,-0.106378 0,-0.15906 0.0066,-0.05079 0.03326,-0.09815 0.07116,-0.132597 0.0379,-0.03445 0.08648,-0.05626 0.136932,-0.06508 0.100901,-0.01764 0.204946,0.01586 0.292985,0.06822 0.08804,0.05236 0.163598,0.122816 0.242828,0.187737 0.07923,0.06492 0.164943,0.125814 0.263476,0.153803 0.111001,0.03153 0.232873,0.01816 0.337571,-0.03036 0.104699,-0.04852 0.192271,-0.130862 0.253402,-0.228731 0.06113,-0.09787 0.09643,-0.210767 0.109313,-0.325437 0.01288,-0.114671 0.0038,-0.231168 -0.0194,-0.344204 -0.04639,-0.226074 -0.147803,-0.436431 -0.244973,-0.645762 -0.09717,-0.209331 -0.192032,-0.423773 -0.223838,-0.652356 -0.05579,-0.400928 0.08752,-0.802683 0.265101,-1.166443 0.108519,-0.222297 0.232722,-0.444019 0.265101,-0.6892619 0.03027,-0.2292485 -0.02231,-0.4600721 -0.05302,-0.6892617 -0.05706,-0.425835 -0.03712,-0.8673955 0.10604,-1.2724833 0.224976,-0.6365919 0.732241,-1.1326119 1.272483,-1.5375839 0.09061,-0.067918 0.182881,-0.134222 0.265101,-0.2120805 0.118831,-0.1125273 0.214312,-0.2469115 0.319074,-0.3726419 0.104763,-0.1257304 0.222657,-0.2457815 0.370187,-0.3166198 0.08584,-0.041215 0.179376,-0.064593 0.265101,-0.1060403 0.08005,-0.038705 0.152509,-0.093047 0.212081,-0.1590604 0.122644,-0.055471 0.24639,-0.1085055 0.371141,-0.1590604 0.133612,-0.054146 0.269823,-0.1062113 0.38808,-0.188669 0.05913,-0.041229 0.113416,-0.090003 0.157047,-0.1473817 0.04363,-0.057378 0.07643,-0.1235791 0.09111,-0.1941507 0.0042,-0.020143 0.007,-0.040742 0.01429,-0.059962 0.0037,-0.00961 0.0085,-0.018839 0.01492,-0.026877 0.0064,-0.00804 0.01448,-0.014867 0.02381,-0.019201 0.01622,-0.00753 0.03497,-0.00709 0.05271,-0.00486 0.01775,0.00223 0.03549,0.00609 0.05333,0.00486 0.02945,-0.00202 0.05669,-0.018006 0.07703,-0.039388 0.02034,-0.021381 0.0345,-0.047874 0.0464,-0.074882 0.0119,-0.027008 0.02182,-0.054907 0.03508,-0.081275 0.01326,-0.026368 0.03022,-0.051512 0.05357,-0.069556 0.03135,-0.024217 0.07144,-0.033731 0.10604,-0.05302 0.0578,-0.032224 0.09853,-0.093314 0.106041,-0.1590604"
     id="path13"
     inkscape:path-effect="#path-effect13"
     inkscape:original-d="m 34.038926,10.338926 c 0.441835,0.353468 0.87672,0.715801 1.325504,1.060403 1.334241,1.024507 2.131282,1.254829 2.438926,2.916107 0.03254,0.175745 0.132053,1.141426 0.05302,1.378524 -0.0079,0.02371 -0.03535,0.03535 -0.05302,0.05302 -0.01767,0.05302 -0.04383,0.103933 -0.05302,0.15906 -0.0087,0.0523 0.01677,0.108761 0,0.159061 -0.0056,0.01677 -0.04052,-0.0125 -0.05302,0 -0.01767,0.01767 -0.05302,0.123713 -0.05302,0.15906 0,0.238181 0.854037,-0.960077 0.901343,-1.007382 0.390925,-0.390926 0.881034,-0.668955 1.272483,-1.060403 0.06249,-0.06249 0.119541,-0.133043 0.15906,-0.212081 0.01601,-0.03201 -0.02451,-0.134551 0,-0.15906 0.09611,-0.09611 0.802376,0.442713 1.007383,0.21208 0.208253,-0.234285 0.180776,-1.945109 0.21208,-2.226845 0.04469,-0.402193 0.122943,-0.787356 0.265101,-1.166443 0.177409,-0.473092 0.169023,-0.160835 0.265101,-0.6892619 0.02597,-0.1428488 -0.05099,-0.6608536 -0.05302,-0.6892617 -0.0274,-0.3836406 -0.07079,-0.9188153 0.10604,-1.2724833 0.284066,-0.5681315 0.835399,-1.1004997 1.272483,-1.5375839 0.08002,-0.08002 0.185081,-0.1320609 0.265101,-0.2120805 0.222928,-0.2229282 0.426148,-0.5050827 0.689261,-0.6892617 0.07797,-0.054579 0.181904,-0.05982 0.265101,-0.1060403 0.07725,-0.042915 0.137146,-0.1122261 0.212081,-0.1590604 0.0943,-0.118639 0.255725,-0.089811 0.371141,-0.1590604 0.198551,-0.119131 0.476884,-0.3708439 0.636241,-0.5302014 0.02794,-0.027944 0.02014,-0.084119 0.05302,-0.1060402 0.02941,-0.019607 0.07251,0.011178 0.106041,0 0.107327,-0.035776 0.144673,-0.1976941 0.21208,-0.2651007 0.02794,-0.027944 0.0781,-0.025076 0.10604,-0.05302 0.08135,-0.081348 0.0046,-0.1590604 0.106041,-0.1590604" />
  <path
     style="fill:none;stroke:#1c1f30;stroke-opacity:1"
     d="m 40.931544,56.413423 c -1.410121,0.126079 -2.83149,0.126079 -4.241611,0 -0.947571,-0.08472 -1.892267,-0.226759 -2.810067,-0.477181 -0.604316,-0.164887 -1.195475,-0.376315 -1.802685,-0.530202 -0.340178,-0.08621 -0.687176,-0.154959 -1.010123,-0.292287 -0.322947,-0.137327 -0.626346,-0.353002 -0.792561,-0.662075 -0.09861,-0.183358 -0.144882,-0.39449 -0.132006,-0.602282 0.01288,-0.207792 0.08486,-0.411595 0.205353,-0.581377 0.12049,-0.169781 0.289106,-0.305009 0.481,-0.385756 0.191894,-0.08075 0.406466,-0.106762 0.612096,-0.07421 0.418969,-0.563601 0.880193,-1.095782 1.378523,-1.590604 0.310516,-0.30833 0.635199,-0.601974 0.954363,-0.901343 0.184409,-0.172972 0.371218,-0.353661 0.477181,-0.583221 0.01658,-0.03592 0.03118,-0.07305 0.05302,-0.10604 0.02944,-0.04448 0.07127,-0.07996 0.117776,-0.106086 0.0465,-0.02612 0.09764,-0.0432 0.14962,-0.05515 0.103963,-0.02389 0.211698,-0.02768 0.315825,-0.05084 0.226366,-0.05036 0.42716,-0.192872 0.567027,-0.377845 0.139867,-0.184973 0.2212,-0.410169 0.253823,-0.639764 0.06524,-0.459188 -0.05784,-0.922156 -0.184608,-1.368297 -0.500575,-1.76174 -1.079548,-3.509929 -1.908725,-5.142953 -0.853092,-1.680123 -1.97178,-3.24191 -2.544966,-5.036913 -0.17011,-0.53272 -0.29056,-1.084166 -0.314174,-1.642888 -0.02361,-0.558722 0.05172,-1.125838 0.261154,-1.64436 0.103663,-0.256652 0.238916,-0.499109 0.37114,-0.742282 0.140851,-0.259039 0.280596,-0.522523 0.477182,-0.742282 0.226869,-0.253612 0.519024,-0.437598 0.795302,-0.636241 0.266944,-0.191931 0.522161,-0.400217 0.795302,-0.583222 1.055355,-0.707088 2.323224,-1.004569 3.552349,-1.325503 1.020592,-0.266485 2.042177,-0.559188 3.093504,-0.644834 1.051326,-0.08565 2.151312,0.05084 3.056831,0.591814 0.797867,0.476664 1.389489,1.22912 2.120806,1.802684 0.347701,0.272698 0.725847,0.503989 1.082056,0.765476 0.356209,0.261486 0.695074,0.558623 0.932709,0.931168 0.119125,0.186755 0.210862,0.389408 0.318121,0.583222 0.08813,0.159247 0.186903,0.312829 0.2651,0.477181 0.255788,0.537608 0.276318,1.159743 0.198604,1.750006 -0.07772,0.590263 -0.247711,1.164207 -0.357664,1.749323 -0.09929,0.528358 -0.149558,1.065561 -0.265101,1.590604 -0.198376,0.901448 -0.585718,1.752098 -0.795302,2.651007 -0.126733,0.543561 -0.187541,1.100975 -0.318121,1.643624 -0.07725,0.321027 -0.178637,0.635693 -0.2651,0.954362 -0.106231,0.391526 -0.19022,0.791496 -0.205244,1.1969 -0.01502,0.405403 0.04106,0.818034 0.205244,1.189006 0.155775,0.351965 0.403602,0.656119 0.677152,0.926888 0.273549,0.270769 0.574637,0.511947 0.860432,0.769757 0.557282,0.502713 1.057126,1.069285 1.643624,1.537584 0.624796,0.498879 1.338075,0.878237 1.961745,1.378523 0.23478,0.188332 0.45594,0.393086 0.689261,0.583222 0.501898,0.409001 1.056452,0.747546 1.590604,1.113422 0.500438,0.342784 1.000897,0.7301 1.272484,1.272484 0.01657,0.0331 0.03229,0.06683 0.04271,0.102346 0.01042,0.03552 0.01545,0.07308 0.01031,0.109734 -0.0072,0.0516 -0.03403,0.09844 -0.06483,0.140463 -0.0308,0.04203 -0.06613,0.08076 -0.09424,0.124638 -0.04266,0.0666 -0.06741,0.143059 -0.10604,0.21208 -0.06804,0.121583 -0.178228,0.21675 -0.302909,0.278936 -0.124681,0.06219 -0.263437,0.09274 -0.402403,0.10279 -0.277932,0.0201 -0.554653,-0.03957 -0.832272,-0.06361 -0.958978,-0.08304 -1.902359,0.258655 -2.863087,0.318121 -0.652984,0.04042 -1.309427,-0.05004 -1.961745,0 -0.266741,0.02046 -0.531053,0.0643 -0.795302,0.10604 -0.702445,0.110945 -1.409667,0.207516 -2.120805,0.212081 -0.282795,0.0018 -0.565733,-0.01093 -0.848323,0 -0.337543,0.01306 -0.672764,0.05981 -1.007382,0.10604 -0.386843,0.05344 -0.779577,0.10629 -1.166443,0.05302 -0.0709,-0.0098 -0.141452,-0.02308 -0.2129,-0.02728 -0.07145,-0.0042 -0.144667,0.0011 -0.211261,0.02728 -0.04475,0.01763 -0.08532,0.0442 -0.127953,0.06648 -0.04263,0.02228 -0.08906,0.04062 -0.137148,0.03956 -0.0318,-6.95e-4 -0.06276,-0.0098 -0.09301,-0.01966 -0.03025,-0.0098 -0.06054,-0.02043 -0.09212,-0.02424 -0.03158,-0.0038 -0.06512,-2.36e-4 -0.09209,0.01663 -0.01348,0.0084 -0.02505,0.02012 -0.03254,0.03415 -0.0075,0.01403 -0.01077,0.03042 -0.0084,0.04614 0.0014,0.0091 0.0046,0.01783 0.0059,0.02694 6.28e-4,0.0046 7.52e-4,0.0092 -1.06e-4,0.01373 -8.58e-4,0.0045 -0.0027,0.0089 -0.0058,0.01235 -0.0031,0.0035 -0.0074,0.006 -0.01194,0.0073 -0.0045,0.0013 -0.0094,0.0015 -0.01405,9.52e-4 -0.0094,-0.0011 -0.01819,-0.0049 -0.02704,-0.0082 -0.04444,-0.01669 -0.09357,-0.02067 -0.140124,-0.01136 -0.04655,0.0093 -0.09037,0.03188 -0.124976,0.06438 z"
     id="path14"
     inkscape:path-effect="#path-effect14"
     inkscape:original-d="m 40.931544,56.413423 c -1.413871,0 -2.830967,0.09546 -4.241611,0 -0.94793,-0.06415 -1.881847,-0.274467 -2.810067,-0.477181 -0.611924,-0.133639 -1.209548,-0.328959 -1.802685,-0.530202 -0.249168,-0.08454 -1.571451,-0.491896 -1.802684,-0.954362 -0.183225,-0.366449 0.995464,-1.454326 1.166443,-1.643624 0.542963,-0.4583 0.909169,-1.069099 1.378523,-1.590604 0.682088,-0.757876 0.257567,-0.204547 0.954363,-0.901343 0.09257,-0.09257 0.373869,-0.428253 0.477181,-0.583221 0.02192,-0.03288 0.02508,-0.0781 0.05302,-0.10604 0.08723,-0.08723 0.36987,0.03175 0.583221,-0.212081 0.508551,-0.581201 0.748383,-1.638297 0.636242,-2.385906 -0.313689,-2.091258 -0.868922,-3.11407 -1.908725,-5.142953 -0.85147,-1.661404 -2.064256,-3.201475 -2.544966,-5.036913 -0.26193,-1.000093 -0.316053,-2.287724 -0.05302,-3.287248 0.0704,-0.267524 0.233892,-0.502098 0.37114,-0.742282 0.145937,-0.255388 0.27767,-0.526144 0.477182,-0.742282 0.230272,-0.249462 0.525877,-0.429682 0.795302,-0.636241 0.260893,-0.200019 0.5023,-0.434151 0.795302,-0.583222 1.001536,-0.509554 2.384945,-1.092022 3.552349,-1.325503 2.002333,-0.400467 4.159672,-0.716575 6.150335,-0.05302 0.439287,0.146428 1.725692,1.491383 2.120806,1.802684 0.692414,0.545539 1.489113,0.960732 2.014765,1.696644 0.128713,0.180199 0.211401,0.389187 0.318121,0.583222 0.08769,0.159435 0.19449,0.309482 0.2651,0.477181 0.485428,1.152892 0.02769,2.34146 -0.15906,3.499329 -0.159974,0.991837 -0.03519,0.605269 -0.265101,1.590604 -0.210313,0.901343 -0.558248,1.755468 -0.795302,2.651007 -0.144585,0.54621 -0.202731,1.095524 -0.318121,1.643624 -0.06802,0.323084 -0.204255,0.629851 -0.2651,0.954362 -0.08251,0.440068 -0.136692,1.975833 0,2.385906 0.249727,0.749181 0.986659,1.191631 1.537584,1.696645 0.549789,0.503973 1.069699,1.062612 1.643624,1.537584 0.611922,0.506418 1.330015,0.898409 1.961745,1.378523 0.239618,0.18211 0.44656,0.405241 0.689261,0.583222 1.53738,0.994775 0.299629,0.159223 1.590604,1.113422 0.66723,0.49317 0.866723,0.562402 1.272484,1.272484 0.03217,0.0563 0.07694,0.140316 0.05302,0.21208 -0.03218,0.09653 -0.110661,0.180402 -0.159061,0.265101 -0.03921,0.06862 -0.05015,0.156192 -0.10604,0.21208 -0.313001,0.313001 -1.221727,0.272999 -1.537584,0.318121 -0.969702,0.138529 -1.884553,0.290163 -2.863087,0.318121 -0.653648,0.01868 -1.309028,-0.03956 -1.961745,0 -0.266957,0.01618 -0.529618,0.07538 -0.795302,0.10604 -0.706396,0.08151 -1.416042,0.148011 -2.120805,0.212081 -0.280247,0.02548 -0.567524,-0.01872 -0.848323,0 -0.340268,0.02268 -0.673892,0.06435 -1.007382,0.10604 -0.390974,0.04887 -0.780108,-0.02425 -1.166443,0.05302 -0.135949,0.02719 -0.288212,-0.02719 -0.424161,0 -0.09633,0.01927 -0.186274,0.06663 -0.265101,0.10604 -0.08709,0.04355 -0.239834,0.01388 -0.318121,0.05302 -0.01581,0.0079 0.0125,0.04052 0,0.05302 -0.0125,0.0125 -0.03559,-0.0029 -0.05302,0 -0.08889,0.01481 -0.176733,0.03535 -0.2651,0.05302 z" />
</svg>
