<?xml version="1.0" encoding="UTF-8" standalone="no"?>
<svg
   width="16"
   height="16"
   version="1.1"
   id="svg1"
   xmlns="http://www.w3.org/2000/svg"
   xmlns:svg="http://www.w3.org/2000/svg">
  <defs
     id="defs1" />
  <path
     d="M17.119 11.157a6.915 6.915 0 1 1-13.83 0 6.915 6.915 0 1 1 13.83 0z"
     transform="matrix(.723 0 0 .723 .622 -.067)"
     fill="#329239"
     id="path1" />
  <path
     style="opacity:1;fill:#329239;fill-opacity:1;stroke:#329239;stroke-width:2;stroke-dasharray:none;stroke-opacity:1"
     d="m 6.4381927,12.412617 c -0.4343055,0.100649 -0.9131126,-0.01385 -1.254902,-0.300085 -0.086657,-0.07257 -0.165119,-0.155541 -0.2591645,-0.218244 -0.096886,-0.0646 -0.2072083,-0.105625 -0.3109141,-0.158584 -0.1037057,-0.05296 -0.2047742,-0.121916 -0.261976,-0.223343 -0.044083,-0.07817 -0.059321,-0.170872 -0.1091219,-0.245524 -0.029152,-0.0437 -0.069024,-0.07932 -0.1117343,-0.1099 -0.04271,-0.03058 -0.088519,-0.05652 -0.133097,-0.08431 -0.044578,-0.02779 -0.088285,-0.05772 -0.1252357,-0.09505 -0.03695,-0.03734 -0.06707,-0.08269 -0.080061,-0.133585 -0.012055,-0.04723 -0.00896,-0.09678 -0.00954,-0.145523 -5.769e-4,-0.04874 -0.00558,-0.09956 -0.031379,-0.140922 -0.013884,-0.02226 -0.033193,-0.0407 -0.053996,-0.05668 -0.020803,-0.01599 -0.043221,-0.02973 -0.065008,-0.04434 -0.021787,-0.01462 -0.043115,-0.03026 -0.061009,-0.04945 -0.017894,-0.01919 -0.032312,-0.04221 -0.038231,-0.06777 -0.00552,-0.02383 -0.00343,-0.04905 0.00379,-0.07242 0.00722,-0.02337 0.019413,-0.04497 0.033871,-0.0647 0.028916,-0.03945 0.066655,-0.07149 0.098741,-0.108405 C 3.7467966,10.004526 3.7897751,9.8841081 3.7783461,9.7664109 3.7699173,9.67961 3.7317518,9.5953196 3.6692242,9.5345269 3.6320254,9.4983602 3.587315,9.4710268 3.5464621,9.4390452 3.4345835,9.3514612 3.350917,9.2246579 3.3282182,9.084399 3.3147395,9.0011122 3.3225518,8.9160378 3.3298507,8.8319837 3.3371497,8.7479296 3.3438491,8.6626199 3.3282182,8.5797101 3.3167495,8.5188774 3.2935555,8.4610062 3.2736573,8.402387 3.2245886,8.2578324 3.1950257,8.1030052 3.2190963,7.9522592 c 0.018628,-0.116661 0.06846,-0.2259989 0.095482,-0.341006 0.023035,-0.098037 0.029273,-0.1993987 0.02728,-0.3000853 C 3.3385808,7.1456065 3.313259,6.9809081 3.2736573,6.8201194 3.2525216,6.7343052 3.2272229,6.648959 3.2190963,6.5609548 c -0.00964,-0.1043857 0.00516,-0.2092395 0.01364,-0.3137255 0.00958,-0.1179341 0.011111,-0.236351 0.01364,-0.3546462 0.00257,-0.1203686 0.00689,-0.2440885 0.054561,-0.3546462 0.039632,-0.09192 0.1067303,-0.1687699 0.1722594,-0.2444391 0.065529,-0.075669 0.1316685,-0.1536306 0.168747,-0.2466095 0.036376,-0.091219 0.042554,-0.1913571 0.067109,-0.2864418 0.012278,-0.047542 0.0294,-0.094308 0.056145,-0.1354862 0.026746,-0.041179 0.063669,-0.076663 0.1086292,-0.096401 0.055077,-0.02418 0.1173032,-0.023314 0.1773231,-0.02728 0.1071564,-0.00708 0.2130156,-0.030916 0.3137255,-0.068201 0.1260205,-0.046655 0.2434499,-0.1139463 0.3682864,-0.1636829 0.1405589,-0.056001 0.2889617,-0.089162 0.4364877,-0.1227621 0.042217,-0.00962 0.085108,-0.019546 0.1227621,-0.040921 0.042187,-0.023949 0.075237,-0.060768 0.1091219,-0.095482 C 5.471636,3.9384136 5.5486468,3.8729844 5.6334186,3.8192668 5.7740099,3.7301778 5.9339869,3.6746329 6.0971867,3.6419437 6.1524246,3.6308795 6.2086693,3.6222075 6.2608696,3.601023 6.3557366,3.5625231 6.4298949,3.4858883 6.5200341,3.4373402 6.6204845,3.3832386 6.7359572,3.3663089 6.8473998,3.3418585 6.9740836,3.3140642 7.0988354,3.275374 7.2156863,3.2190963 c 0.062076,-0.029897 0.1217473,-0.064663 0.184314,-0.09352 0.062567,-0.028857 0.1288656,-0.051924 0.1976127,-0.056523 0.045376,-0.00304 0.090925,0 0.1364023,0 H 8.170503 c 0.2502978,0 0.5003292,0.012891 0.7502131,0.02728 0.1776047,0.010227 0.3556996,0.0169 0.5319693,0.040921 0.253231,0.034509 0.5012814,0.1048297 0.7365726,0.2046036 0.0889,0.037699 0.178024,0.080986 0.245525,0.1500426 0.05871,0.060067 0.09888,0.1375228 0.163682,0.1909634 0.063,0.051954 0.143389,0.076488 0.218244,0.1091219 0.09428,0.041103 0.181803,0.096274 0.275064,0.1396441 0.09326,0.04337 0.195482,0.075164 0.297826,0.064959 0.03646,-0.00364 0.07295,-0.012565 0.109329,-0.00813 0.01819,0.00222 0.0362,0.00792 0.05117,0.018482 0.01497,0.010566 0.02669,0.026282 0.03046,0.044211 0.0038,0.017846 -3.91e-4,0.036328 0,0.054561 6.23e-4,0.02906 0.01276,0.056662 0.02728,0.081842 0.02595,0.04501 0.05996,0.084846 0.09548,0.1227621 0.112172,0.119726 0.243722,0.2243145 0.395567,0.286445 0.07731,0.031633 0.159152,0.052018 0.234365,0.088355 0.03761,0.018168 0.07353,0.040394 0.104232,0.068709 0.0307,0.028315 0.0561,0.062937 0.07061,0.102101 0.01151,0.031055 0.01602,0.064336 0.02728,0.095482 0.01178,0.03259 0.03077,0.062347 0.04092,0.095482 0.01076,0.035138 0.01112,0.072459 0.01364,0.1091219 0.0079,0.1149017 0.03778,0.2270611 0.05456,0.341006 0.01068,0.072537 0.01605,0.1457904 0.02728,0.2182438 0.02165,0.1396683 0.06487,0.2749771 0.109122,0.4092072 0.01625,0.04929 0.03273,0.098793 0.04092,0.1500426 0.01484,0.092857 0.0019,0.1878061 -0.01499,0.280303 -0.01694,0.092497 -0.03801,0.1849241 -0.03957,0.2789468 -0.0019,0.1138854 0.02493,0.2276658 0.01364,0.341006 -0.0046,0.046189 -0.01548,0.09151 -0.02728,0.1364023 -0.0202,0.076846 -0.04326,0.1532353 -0.05456,0.2318841 -0.01425,0.099178 -0.0095,0.1999731 -0.01364,0.3000853 -0.0041,0.1000887 -0.01706,0.1999707 -0.01364,0.3000852 0.0031,0.09136 0.01985,0.1816943 0.02728,0.2728048 0.0045,0.054584 0.0056,0.1095145 0.01364,0.1636828 0.02596,0.1743462 0.121341,0.3291128 0.190964,0.4910486 0.0621,0.1444279 0.104595,0.2983574 0.113304,0.4553269 0.0087,0.1569696 -0.01727,0.3171916 -0.08602,0.4585691 -0.05988,0.1231262 -0.15061,0.2293592 -0.253249,0.3199752 -0.102638,0.09062 -0.217338,0.166454 -0.333281,0.239275 -0.06889,0.04327 -0.139784,0.08681 -0.190963,0.150042 -0.02461,0.03041 -0.04406,0.06469 -0.0682,0.09548 -0.05904,0.07529 -0.143505,0.126428 -0.230076,0.167176 -0.08657,0.04075 -0.177286,0.07288 -0.260972,0.119269 -0.204079,0.113117 -0.353925,0.303444 -0.54561,0.436487 -0.110433,0.07665 -0.233245,0.13324 -0.354646,0.190964 -0.07174,0.03411 -0.143405,0.06883 -0.218244,0.09548 -0.147831,0.05264 -0.30647,0.07325 -0.450128,0.136403 -0.099124,0.04357 -0.1900412,0.107619 -0.2591641,0.190963 -0.026795,0.03231 -0.050468,0.0676 -0.081841,0.09548 -0.029255,0.026 -0.064209,0.04466 -0.095482,0.0682 -0.090544,0.06814 -0.1451575,0.172561 -0.2182438,0.259165 -0.1243173,0.147311 -0.3034561,0.242125 -0.4910486,0.286445 -0.1389958,0.03284 -0.2829172,0.0396 -0.4228474,0.0682 -0.1181397,0.02414 -0.2341404,0.06393 -0.3546462,0.0682 -0.1694246,0.006 -0.3352077,-0.05867 -0.5046888,-0.05456 -0.066532,0.0016 -0.1323225,0.01383 -0.1986309,0.01952 -0.066308,0.0057 -0.1348761,0.0045 -0.1969361,-0.01952 -0.028462,-0.01102 -0.054887,-0.0266 -0.081841,-0.04092 -0.081552,-0.04332 -0.1689971,-0.07554 -0.2591645,-0.09548 -0.036644,-0.0081 -0.073929,-0.01425 -0.1091219,-0.02728 -0.055859,-0.02069 -0.1039439,-0.05776 -0.1500427,-0.09548 -0.02239,-0.01832 -0.04464,-0.037 -0.069275,-0.05217 -0.024635,-0.01517 -0.051978,-0.02682 -0.080768,-0.02967 -0.013587,-0.0013 -0.027286,-7.26e-4 -0.040921,0 -0.018899,0.001 -0.037917,0.0022 -0.056698,-1.4e-4 -0.018781,-0.0023 -0.037546,-0.0085 -0.052049,-0.02065 -0.00725,-0.0061 -0.013338,-0.01362 -0.017348,-0.02219 -0.00401,-0.0086 -0.0059,-0.01819 -0.00499,-0.02761 9.152e-4,-0.0094 0.00469,-0.01861 0.011008,-0.02566 0.00631,-0.007 0.015182,-0.01186 0.024591,-0.01288 0.00452,-4.9e-4 0.00909,-1.25e-4 0.01364,0 0.042333,0.0012 0.084653,-0.01999 0.1091219,-0.05456 z"
     id="path2" />
</svg>
