<?xml version="1.0" encoding="UTF-8" standalone="no"?>
<svg
   width="41px"
   height="34px"
   viewBox="0 0 41 34"
   version="1.1"
   id="svg5"
   sodipodi:docname="open-source.svg"
   inkscape:version="1.3.2 (091e20e, 2023-11-25, custom)"
   xmlns:inkscape="http://www.inkscape.org/namespaces/inkscape"
   xmlns:sodipodi="http://sodipodi.sourceforge.net/DTD/sodipodi-0.dtd"
   xmlns="http://www.w3.org/2000/svg"
   xmlns:svg="http://www.w3.org/2000/svg">
  <sodipodi:namedview
     id="namedview5"
     pagecolor="#ffffff"
     bordercolor="#000000"
     borderopacity="0.25"
     inkscape:showpageshadow="2"
     inkscape:pageopacity="0.0"
     inkscape:pagecheckerboard="0"
     inkscape:deskcolor="#d1d1d1"
     inkscape:zoom="34.5"
     inkscape:cx="20.492754"
     inkscape:cy="17"
     inkscape:window-width="2560"
     inkscape:window-height="1369"
     inkscape:window-x="-8"
     inkscape:window-y="-8"
     inkscape:window-maximized="1"
     inkscape:current-layer="svg5" />
  <!-- Generator: Sketch 49 (51002) - http://www.bohemiancoding.com/sketch -->
  <title
     id="title1">Group 20</title>
  <desc
     id="desc1">Created with Sketch.</desc>
  <defs
     id="defs1">
    <inkscape:path-effect
       effect="spiro"
       id="path-effect1"
       is_visible="true"
       lpeversion="1" />
    <inkscape:path-effect
       effect="spiro"
       id="path-effect11"
       is_visible="true"
       lpeversion="1" />
    <inkscape:path-effect
       effect="spiro"
       id="path-effect10"
       is_visible="true"
       lpeversion="1" />
    <inkscape:path-effect
       effect="spiro"
       id="path-effect9"
       is_visible="true"
       lpeversion="1" />
    <inkscape:path-effect
       effect="spiro"
       id="path-effect8"
       is_visible="true"
       lpeversion="1" />
    <inkscape:path-effect
       effect="spiro"
       id="path-effect7"
       is_visible="true"
       lpeversion="1" />
    <inkscape:path-effect
       effect="spiro"
       id="path-effect6"
       is_visible="true"
       lpeversion="1" />
  </defs>
  <path
     style="fill:none;stroke:#1c1f30;stroke-width:1.179;stroke-opacity:1"
     d="m 22.202899,32.927536 c -0.269002,0.04145 -0.539918,0.07048 -0.811595,0.08696 -0.742987,0.04507 -1.48796,-0.0037 -2.231884,-0.02899 -1.178158,-0.03999 -2.357423,-0.02086 -3.536232,-0.02898 -0.532213,-0.0037 -1.066697,-0.01276 -1.594202,0.05797 -0.28304,0.03795 -0.564433,0.0989 -0.85,0.100718 -0.285568,0.0018 -0.58333,-0.06218 -0.802174,-0.245646 -0.06859,-0.0575 -0.128267,-0.12591 -0.173913,-0.202898 C 12.112181,32.513661 12.079605,32.332987 12,32.173913 11.898833,31.971752 11.725521,31.813199 11.534618,31.69212 11.343716,31.571041 11.133843,31.483722 10.927536,31.391304 10.701283,31.289951 10.474761,31.179637 10.289855,31.014493 10.03425,30.786205 9.8703341,30.463849 9.5942029,30.26087 9.4859583,30.181301 9.3639932,30.12289 9.2463768,30.057971 8.7932459,29.807864 8.4001426,29.458251 7.942029,29.217391 c -0.071985,-0.03785 -0.1459717,-0.07326 -0.2102282,-0.123117 -0.064256,-0.04985 -0.119086,-0.11653 -0.1375979,-0.195723 -0.012126,-0.05188 -0.00864,-0.105974 -0.00534,-0.159146 0.0033,-0.05317 0.00534,-0.10642 0.00534,-0.159695 v -0.666667 c 0,-0.342058 0.00437,-0.691142 0.115942,-1.014492 0.1724966,-0.499908 0.579678,-0.891899 0.7536232,-1.391305 0.1127289,-0.323651 0.1206467,-0.672632 0.1449276,-1.014492 0.046158,-0.649872 0.1597426,-1.307836 0.4637681,-1.884058 0.1464615,-0.27759 0.334299,-0.530868 0.5217391,-0.782609 0.3555514,-0.477522 0.7127121,-0.954262 1.0434781,-1.449275 0.294465,-0.440687 0.571743,-0.904964 0.695652,-1.42029 0.03083,-0.128206 0.05276,-0.261076 0.115942,-0.376812 0.07259,-0.13296 0.195074,-0.233191 0.328915,-0.304139 0.133842,-0.07095 0.279868,-0.115264 0.424709,-0.159629 0.312752,-0.0958 0.626895,-0.194253 0.951544,-0.234181 0.324648,-0.03993 0.664236,-0.01824 0.961499,0.118239 0.09046,0.04153 0.175891,0.0931 0.26087,0.144928 0.361941,0.220729 0.721181,0.449233 1.043478,0.724637 0.14128,0.120724 0.27618,0.250976 0.434782,0.347826 0.09226,0.05634 0.191279,0.100566 0.289856,0.144928 0.304521,0.137043 0.608769,0.277303 0.927536,0.376811 0.448475,0.139998 0.92855,0.197105 1.391304,0.115942 0.147909,-0.02594 0.293244,-0.06578 0.434783,-0.115942 0.526334,-0.18655 0.990275,-0.511134 1.478261,-0.782608 0.635937,-0.353781 1.316748,-0.619077 2,-0.869565 0.175231,-0.06424 0.350946,-0.12765 0.521739,-0.202899 0.435144,-0.191719 0.834819,-0.458719 1.275362,-0.637681 0.206824,-0.08402 0.421289,-0.148036 0.637681,-0.202899 0.143458,-0.03637 0.288835,-0.06891 0.436665,-0.07596 0.147829,-0.0071 0.299233,0.01243 0.4329,0.07596 0.135106,0.06422 0.246452,0.1706 0.337957,0.288939 0.0915,0.11834 0.165011,0.249322 0.241754,0.377728 0.202585,0.338965 0.430496,0.663896 0.695652,0.956522 0.498421,0.550057 1.116727,0.974373 1.710145,1.42029 0.520732,0.391298 1.029715,0.806104 1.449275,1.304347 0.23345,0.27723 0.437826,0.578928 0.608696,0.898551 0.04549,0.228173 0.113561,0.451838 0.202898,0.666667 0.119935,0.288408 0.278039,0.560461 0.463768,0.811594 0.223977,0.302849 0.487874,0.575487 0.698726,0.887616 0.210852,0.312129 0.36949,0.678552 0.344753,1.054413 -0.01338,0.203276 -0.07999,0.40026 -0.170894,0.582569 -0.0909,0.182309 -0.205902,0.351388 -0.32186,0.51888 -0.413652,0.597486 -0.845781,1.185223 -1.188406,1.826087 -0.08862,0.165761 -0.171801,0.336762 -0.213438,0.520056 -0.04164,0.183293 -0.03903,0.381648 0.03952,0.552408 0.06279,0.136476 0.169249,0.247034 0.258311,0.368012 0.04453,0.06049 0.08519,0.124454 0.113094,0.194193 0.0279,0.06974 0.04269,0.145751 0.03439,0.220404 -0.0044,0.03969 -0.01524,0.07845 -0.02898,0.115942 -0.06302,0.171932 -0.187948,0.317598 -0.338952,0.421184 -0.151004,0.103587 -0.327139,0.166828 -0.507028,0.201069 -0.359777,0.06848 -0.72991,0.02391 -1.096049,0.01543 -1.187976,-0.0275 -2.346303,0.326227 -3.507247,0.57971 -0.343151,0.07492 -0.693183,0.141621 -1.043478,0.115942 -0.147888,-0.01084 -0.29453,-0.03811 -0.442776,-0.04151 -0.148246,-0.0034 -0.30213,0.01917 -0.426789,0.09948 -0.07498,0.0483 -0.13586,0.11508 -0.202899,0.173913 -0.171574,0.150571 -0.384255,0.2496 -0.550724,0.405797 -0.08066,0.07569 -0.149398,0.164059 -0.202899,0.26087 -0.0034,0.02164 -0.01387,0.04211 -0.02936,0.0576 -0.01549,0.01549 -0.03596,0.02593 -0.0576,0.02936 -0.01585,0.0025 -0.03212,0.0014 -0.04794,0.0041 -0.0079,0.0014 -0.01572,0.0037 -0.02265,0.0078 -0.0069,0.0041 -0.01293,0.0099 -0.01638,0.01715 -0.0043,0.009 -0.0043,0.01996 0,0.02898 0.0057,0.01118 0.0058,0.02509 1.78e-4,0.03632 -0.0056,0.01123 -0.01679,0.01952 -0.02917,0.02165 -0.0096,0.0016 -0.01943,-2.36e-4 -0.0291,-0.0016 -0.0097,-0.0014 -0.01985,-0.0021 -0.02887,0.0016 -0.0064,0.0026 -0.01175,0.0073 -0.0163,0.01256 -0.0045,0.0052 -0.0084,0.011 -0.01269,0.01643 -0.01996,0.02531 -0.04956,0.04282 -0.08135,0.04812 -0.03179,0.0053 -0.06547,-0.0017 -0.09256,-0.01913"
     id="path6"
     inkscape:path-effect="#path-effect6"
     inkscape:original-d="m 22.202899,32.927536 c -0.167511,0.01861 -0.757891,0.08472 -0.811595,0.08696 -0.440199,0.01834 -1.991238,-0.02453 -2.231884,-0.02899 -1.112243,-0.0206 -2.425863,-0.04797 -3.536232,-0.02898 -0.531674,0.0091 -1.062727,0.04083 -1.594202,0.05797 -0.644382,0.02079 -1.091667,0.146536 -1.652174,-0.144928 -0.07903,-0.0411 -0.12152,-0.130858 -0.173913,-0.202898 C 12.101419,32.527132 12.108506,32.289653 12,32.173913 11.919911,32.088485 11.180802,31.539043 10.927536,31.391304 10.605888,31.203676 10.566113,31.256219 10.289855,31.014493 10.036047,30.792411 9.8723485,30.461753 9.5942029,30.26087 9.4853883,30.182281 9.3599637,30.129489 9.2463768,30.057971 8.8084944,29.782267 8.3695116,29.508857 7.942029,29.217391 c -0.1029673,-0.0702 -0.3174904,-0.15705 -0.3478261,-0.31884 -0.019586,-0.10446 0,-0.212561 0,-0.318841 0,-0.222222 0,-0.444444 0,-0.666667 0,-0.368282 -0.049108,-0.671695 0.115942,-1.014492 0.231607,-0.48103 0.5777709,-0.881333 0.7536232,-1.391305 0.1139443,-0.330438 0.1022635,-0.67318 0.1449276,-1.014492 0.081046,-0.648369 0.2526096,-1.263004 0.4637681,-1.884058 0.1456448,-0.428368 0.2164368,-0.413702 0.5217391,-0.782609 0.3760699,-0.454418 0.7529151,-0.934187 1.0434781,-1.449275 0.219115,-0.38843 0.526052,-0.996289 0.695652,-1.42029 0.07773,-0.194326 0.03315,-0.194661 0.115942,-0.376812 0.134323,-0.29551 0.457028,-0.389619 0.753624,-0.463768 0.467452,-0.116863 1.428042,-0.294627 1.913043,-0.115942 0.09334,0.03439 0.173708,0.09699 0.26087,0.144928 0.381281,0.209704 0.701708,0.453578 1.043478,0.724637 0.145415,0.11533 0.281307,0.243463 0.434782,0.347826 0.08933,0.06074 0.190567,0.102376 0.289856,0.144928 0.306735,0.131458 0.608058,0.280365 0.927536,0.376811 0.272483,0.08226 1.161246,0.132375 1.391304,0.115942 0.149611,-0.01069 0.292488,-0.06851 0.434783,-0.115942 0.540802,-0.180267 0.975585,-0.525426 1.478261,-0.782608 0.643332,-0.329147 1.33172,-0.595399 2,-0.869565 0.172637,-0.07083 0.351676,-0.126097 0.521739,-0.202899 0.432925,-0.195515 0.83383,-0.457054 1.275362,-0.637681 0.404502,-0.165478 0.227142,-0.0746 0.637681,-0.202899 0.309623,-0.09676 0.555706,-0.156929 0.869565,0 0.309422,0.154711 0.387242,0.377965 0.579711,0.666667 0.2044,0.306601 0.445599,0.691314 0.695652,0.956522 0.48931,0.518965 1.148591,0.982004 1.710145,1.42029 0.602082,0.469917 0.882422,0.711129 1.449275,1.304347 0.28576,0.299051 0.464285,0.523083 0.608696,0.898551 0.07814,0.312563 0.08041,0.372697 0.202898,0.666667 0.161705,0.388091 0.204455,0.446635 0.463768,0.811594 0.338079,0.475815 1.075666,1.298284 1.043479,1.942029 -0.01972,0.394363 -0.285887,0.785977 -0.492754,1.101449 -0.530775,0.809432 -0.795445,1.113846 -1.188406,1.826087 -0.147137,0.266686 -0.359787,0.762673 -0.173913,1.072464 0.13662,0.227699 0.455246,0.485919 0.405797,0.782609 -0.0065,0.03929 0.0053,0.09568 -0.02898,0.115942 -0.475451,0.280948 -1.563213,0.539469 -1.942029,0.637681 -1.154278,0.299257 -2.325023,0.445026 -3.507247,0.57971 -0.347717,0.03961 -0.694761,0.08639 -1.043478,0.115942 -0.02534,0.0021 -0.664415,0.0067 -0.869565,0.05797 -0.08642,0.02161 -0.130858,0.12152 -0.202899,0.173913 -0.180897,0.131562 -0.390583,0.245655 -0.550724,0.405797 -0.0783,0.0783 -0.11304,0.193475 -0.202899,0.26087 -0.154589,0.07729 0.02899,-0.02899 -0.08696,0.08696 -0.02161,0.0216 -0.06535,0.0074 -0.08696,0.02899 -0.0068,0.0068 0,0.01932 0,0.02898 -0.0097,0.01932 -0.01101,0.04599 -0.02899,0.05797 -0.01608,0.01072 -0.03964,-0.0061 -0.05797,0 -0.01296,0.0043 -0.01762,0.02141 -0.02899,0.02899 -0.05687,0.03791 -0.109631,0.02899 -0.173913,0.02899" />
  <path
     style="fill:none;stroke:#1c1f30;stroke-width:1.179;stroke-opacity:1"
     d="m 17.797101,16.724638 c -0.741697,-0.337661 -1.451246,-0.745895 -2.115942,-1.217392 -0.64275,-0.45593 -1.249045,-0.97688 -1.714107,-1.613054 -0.465062,-0.636173 -0.783608,-1.396378 -0.807632,-2.184047 -0.02314,-0.758588 0.222457,-1.495421 0.405797,-2.2318841 0.08565,-0.3440458 0.158212,-0.6917592 0.202899,-1.0434783 0.05981,-0.4707105 0.06942,-0.9461196 0.08696,-1.4202898 0.02041,-0.5518501 0.05169,-1.1036971 0.115942,-1.652174 0.02036,-0.1738074 0.04403,-0.347299 0.05797,-0.5217391 0.01941,-0.2429835 0.02033,-0.490163 0.08696,-0.7246377 0.04031,-0.1418453 0.103926,-0.2760027 0.173913,-0.4057971 0.03316,-0.061501 0.06827,-0.1228255 0.115942,-0.173913 0.07102,-0.076117 0.16743,-0.1259565 0.268555,-0.1506847 0.101125,-0.024728 0.206984,-0.025394 0.31036,-0.013097 0.206751,0.024594 0.404245,0.099792 0.609491,0.1347962 0.334025,0.056967 0.675697,0.00595 1.014493,0 0.43579,-0.00765 0.877494,0.05915 1.304347,-0.028986 0.200827,-0.041466 0.393928,-0.1165818 0.596052,-0.1511731 0.101062,-0.017296 0.204536,-0.024303 0.306257,-0.01144 0.101721,0.012863 0.201854,0.046196 0.286097,0.1046421 0.0957,0.066393 0.167522,0.1622266 0.26087,0.231884 0.116365,0.086833 0.261095,0.1287853 0.405448,0.1443761 0.144353,0.015591 0.290061,0.00648 0.435132,5.514e-4 0.52496,-0.021459 1.059592,-0.00215 1.565217,-0.1449275 0.25653,-0.07244 0.506124,-0.1893709 0.695652,-0.3768116 0.06368,-0.062979 0.122238,-0.134988 0.202899,-0.173913 0.02931,-0.014144 0.06094,-0.023553 0.08883,-0.040319 0.01395,-0.00838 0.02692,-0.018645 0.03705,-0.03138 0.01013,-0.012736 0.01732,-0.028062 0.01904,-0.044243 0.001,-0.00962 1.29e-4,-0.019316 0,-0.028985 -7.93e-4,-0.059312 0.02871,-0.1174381 0.07463,-0.1549881 0.04592,-0.03755 0.106917,-0.054885 0.16612,-0.051216 0.0592,0.00367 0.116362,0.027554 0.163297,0.063825 0.04694,0.036271 0.08391,0.084533 0.110681,0.137467 0.05354,0.1058689 0.0662,0.2274117 0.07009,0.3459826 0.0039,0.1185709 10e-7,0.2383757 0.02388,0.3545821 0.04164,0.2026181 0.170849,0.3856693 0.347826,0.4927536 0.128056,0.2265051 0.263416,0.4488813 0.405797,0.6666667 0.289766,0.4432234 0.611193,0.8721649 0.811594,1.3623188 0.30499,0.7459663 0.307675,1.5809637 0.221784,2.3822799 -0.08589,0.8013163 -0.255599,1.5947846 -0.279754,2.4003286 -0.01462,0.487744 0.02208,0.990782 -0.144927,1.449275 -0.07853,0.215592 -0.199489,0.412731 -0.318841,0.608696 C 24.270172,13.33237 24.077719,13.653419 23.942036,14 c -0.09755,0.249177 -0.16552,0.515811 -0.144928,0.782609 0.01912,0.247721 0.113324,0.483534 0.151161,0.729094 0.01892,0.12278 0.02351,0.249144 -0.0026,0.370598 -0.02611,0.121454 -0.08465,0.238122 -0.177547,0.320597 -0.07756,0.06886 -0.175391,0.111222 -0.275229,0.139319 -0.09984,0.0281 -0.202839,0.04294 -0.304481,0.06358 -0.138005,0.02802 -0.273819,0.06683 -0.405797,0.115943 -0.164623,0.02683 -0.328893,0.05582 -0.492754,0.08696 -0.166278,0.0316 -0.332818,0.06561 -0.492191,0.122595 -0.159374,0.05698 -0.312286,0.138011 -0.435345,0.254216 -0.142157,0.134239 -0.239091,0.309687 -0.374952,0.450294 -0.06793,0.0703 -0.146482,0.132151 -0.236903,0.169318 -0.09042,0.03717 -0.193682,0.04816 -0.286696,0.01807 -0.06177,-0.01998 -0.116435,-0.05678 -0.173913,-0.08696 -0.219634,-0.115329 -0.476225,-0.132511 -0.712892,-0.206863 -0.118334,-0.03718 -0.233738,-0.08996 -0.32728,-0.171415 -0.09354,-0.08145 -0.16386,-0.19406 -0.177219,-0.317374 -0.0047,-0.04383 -0.0025,-0.08921 -0.0176,-0.130644 -0.0075,-0.02072 -0.01955,-0.04019 -0.03673,-0.05401 -0.01717,-0.01382 -0.03981,-0.02153 -0.06161,-0.01825 -0.0049,7.36e-4 -0.0097,0.002 -0.01461,0.0024 -0.0049,4.47e-4 -0.01009,8e-6 -0.01438,-0.0024 -0.0025,-0.0015 -0.0047,-0.0036 -0.0061,-0.0061 -0.0015,-0.0025 -0.0023,-0.0055 -0.0023,-0.0084 0,-0.0029 7.85e-4,-0.0058 0.0023,-0.0084 0.0015,-0.0025 0.0036,-0.0047 0.0061,-0.0061 -0.02148,-0.0042 -0.04176,-0.0143 -0.05797,-0.02899 -0.01016,-0.0092 -0.01866,-0.02007 -0.02762,-0.03045 -0.009,-0.01038 -0.01859,-0.02045 -0.03035,-0.02752 -0.02117,-0.01272 -0.04725,-0.01448 -0.07181,-0.01189 -0.02456,0.0026 -0.04856,0.0092 -0.07311,0.01189 -0.03372,0.0037 -0.06775,1.03e-4 -0.101557,-0.0026 -0.03381,-0.0027 -0.0682,-0.0046 -0.101342,0.0026 -0.03179,0.0069 -0.06124,0.0219 -0.08931,0.03836 -0.02807,0.01646 -0.05525,0.03457 -0.08461,0.0486 -0.0626,0.02991 -0.134423,0.04017 -0.202898,0.02899 l -0.289856,0.08696 z"
     id="path7"
     inkscape:path-effect="#path-effect7"
     inkscape:original-d="m 17.797101,16.724638 c -1.098079,-0.329424 -0.641605,-0.129191 -2.115942,-1.217392 -1.258995,-0.929258 -2.345264,-2.179416 -2.521739,-3.797101 -0.09639,-0.883591 0.216565,-1.407372 0.405797,-2.2318841 0.07926,-0.3453615 0.151179,-0.6929327 0.202899,-1.0434783 0.0638,-0.4324527 0.06002,-0.9839541 0.08696,-1.4202898 0.03402,-0.5510302 0.07192,-1.1018532 0.115942,-1.652174 0.01395,-0.174426 0.04164,-0.3475197 0.05797,-0.5217391 0.02893,-0.3086026 0.0109,-0.4356245 0.08696,-0.7246377 0.07475,-0.2840438 0.07749,-0.1647433 0.173913,-0.4057971 0.03263,-0.081565 4.4e-5,-0.1534605 0.115942,-0.173913 0.269573,-0.047572 1.032789,-0.028986 1.188406,-0.028986 0.338164,0 0.676355,0.00423 1.014493,0 0.434856,-0.00544 0.869868,-0.010095 1.304347,-0.028986 0.06251,-0.00272 1.013628,-0.1162304 1.188406,-0.057971 0.08313,0.027709 0.09941,0.1713356 0.26087,0.231884 0.262418,0.098407 0.567127,0.1297358 0.84058,0.1449275 0.485536,0.026974 1.105571,0.04112 1.565217,-0.1449275 0.244451,-0.098945 0.470807,-0.2390032 0.695652,-0.3768116 0.07595,-0.046549 0.134467,-0.1168869 0.202899,-0.173913 0.04753,-0.039606 0.101181,-0.072196 0.144927,-0.1159421 0.0068,-0.00683 -0.0084,-0.033779 0,-0.028985 0.344014,0.1965792 0.399119,0.3757713 0.608696,0.6956522 0.11018,0.1681703 0.231884,0.3285024 0.347826,0.4927536 0.135266,0.2222223 0.265826,0.4473781 0.405797,0.6666667 0.329872,0.5167998 0.580326,0.7969968 0.811594,1.3623188 0.614719,1.502646 0.110929,3.2625107 -0.05797,4.7826085 -0.05379,0.484152 -0.03097,0.970649 -0.144927,1.449275 -0.07626,0.320297 -0.119361,0.295228 -0.318841,0.608696 -0.204333,0.321095 -0.400894,0.622973 -0.521739,0.985508 -0.130645,0.391935 -0.144928,0.337227 -0.144928,0.782609 0,0.264783 0.170427,1.220877 -0.02899,1.420289 -0.124627,0.124626 -0.43652,0.162805 -0.57971,0.202898 -0.135468,0.03793 -0.270532,0.07729 -0.405797,0.115943 -0.164252,0.02899 -0.331842,0.04307 -0.492754,0.08696 -0.131178,0.03578 -0.813893,0.309467 -0.927536,0.376811 -0.134616,0.07977 -0.73704,0.691517 -0.898551,0.637681 -0.06149,-0.0205 -0.11518,-0.05955 -0.173913,-0.08696 -0.421827,-0.196854 -0.857977,-0.391533 -1.217391,-0.695652 -0.09212,-0.07795 -0.08739,-0.174349 -0.115942,-0.202899 -0.0068,-0.0068 -0.02215,0.0068 -0.02899,0 -0.0068,-0.0068 0,-0.01932 0,-0.02899 -0.01932,-0.0097 -0.04069,-0.01602 -0.05797,-0.02899 -0.02186,-0.0164 -0.03353,-0.04575 -0.05797,-0.05797 -0.01796,-0.009 -0.124634,0 -0.144927,0 -0.06763,0 -0.136998,-0.01521 -0.202899,0 -0.06315,0.01457 -0.111965,0.0679 -0.173913,0.08696 -0.0653,0.02009 -0.136619,0.01242 -0.202898,0.02899 -0.19067,0.07627 -0.09391,0.04777 -0.289856,0.08696 z" />
  <path
     style="fill:none;stroke:#ff9500;stroke-width:1.179;stroke-opacity:1"
     d="m 26.985507,15.304348 c 1.328318,0.466416 2.697627,0.816026 4.086957,1.043478 0.446253,0.07306 0.898631,0.133692 1.349587,0.100261 C 32.873007,16.414655 33.326758,16.280854 33.681159,16 33.805027,15.901837 33.916036,15.786074 34,15.652174 c 0.0599,-0.09553 0.105913,-0.199911 0.173913,-0.289855 0.0984,-0.130153 0.237365,-0.223036 0.377293,-0.306955 0.139928,-0.08392 0.285047,-0.162493 0.405316,-0.272755 0.131438,-0.120502 0.227791,-0.273932 0.347826,-0.405797 0.01841,-0.02022 0.0374,-0.03996 0.05797,-0.05797 0.08177,-0.07159 0.187552,-0.113873 0.295732,-0.124311 0.108179,-0.01044 0.218434,0.01022 0.318074,0.05362 0.19928,0.0868 0.35069,0.259988 0.453718,0.451383 0.206056,0.382791 0.24052,0.843486 0.468708,1.213511 0.111849,0.181372 0.265322,0.332526 0.405797,0.492754 0.685033,0.781361 1.063264,1.781537 1.652174,2.637681 0.3459,0.502862 0.769752,0.965296 0.985507,1.536232 0.08322,0.220216 0.133662,0.45272 0.231884,0.666667 0.07444,0.162148 0.177033,0.316218 0.202899,0.492753 0.01823,0.124442 -0.0033,0.251085 0,0.376812 0.0033,0.126126 0.03144,0.254623 0,0.376812 -0.02606,0.101275 -0.09123,0.188496 -0.166172,0.261433 -0.07494,0.07294 -0.160442,0.134029 -0.239626,0.202335 -0.383179,0.330541 -0.598924,0.809583 -0.89855,1.217391 -0.109904,0.149585 -0.231576,0.290075 -0.347826,0.434783 -0.276231,0.343853 -0.52795,0.725809 -0.608696,1.15942 -0.02895,0.155478 -0.03539,0.315317 -0.07767,0.467713 -0.02114,0.0762 -0.05141,0.150437 -0.09582,0.215862 -0.04441,0.06543 -0.103495,0.121878 -0.17434,0.157005 -0.107386,0.05324 -0.23249,0.05434 -0.347826,0.08696 -0.09658,0.02732 -0.186652,0.07736 -0.26087,0.144928"
     id="path8"
     inkscape:path-effect="#path-effect8"
     inkscape:original-d="m 26.985507,15.304348 c 1.789754,0.805389 1.382071,0.735327 4.086957,1.043478 C 32.060022,16.460333 32.825498,16.466724 33.681159,16 33.819238,15.924685 33.90383,15.77663 34,15.652174 c 0.06889,-0.08916 0.09906,-0.205641 0.173913,-0.289855 0.213369,-0.24004 0.536959,-0.38012 0.782609,-0.57971 0.15674,-0.127352 0.238484,-0.241785 0.347826,-0.405797 0.01516,-0.02274 0.03732,-0.07587 0.05797,-0.05797 0.557373,0.483056 1.062916,1.029865 1.536232,1.594202 0.136735,0.163031 0.281082,0.320355 0.405797,0.492754 0.60822,0.840775 1.091466,1.76547 1.652174,2.637681 0.326099,0.507265 0.714917,0.995051 0.985507,1.536232 0.106409,0.212819 0.154384,0.445238 0.231884,0.666667 0.0065,0.01861 0.188103,0.374386 0.202899,0.492753 0.01558,0.124634 0,0.251208 0,0.376812 0,0.09236 0.02498,0.276879 0,0.376812 -0.02011,0.08042 -0.382539,0.435341 -0.405798,0.463768 -0.319743,0.390798 -0.591566,0.816977 -0.89855,1.217391 -0.112924,0.147292 -0.242865,0.281715 -0.347826,0.434783 -0.287266,0.418929 -0.414811,0.69625 -0.608696,1.15942 -0.07967,0.190333 -0.20978,0.598999 -0.347826,0.84058 -0.06639,0.116181 -0.245731,0.07419 -0.347826,0.08696 -0.09506,0.01188 -0.197466,0.08152 -0.26087,0.144928" />
  <path
     style="fill:none;stroke:#ff9500;stroke-width:1.179;stroke-opacity:1"
     d="m 28.289855,12.666667 c 0.480206,0.720422 1.309586,1.195932 2.173913,1.246376 0.896484,0.05232 1.765759,-0.326913 2.521739,-0.811594 0.840265,-0.538719 1.596016,-1.224329 2.144928,-2.057971 0.591925,-0.898966 0.927563,-1.9412483 1.188406,-2.985507 0.08977,-0.3593866 0.171695,-0.721386 0.289855,-1.0724638 0.09729,-0.2890684 0.218957,-0.5701389 0.29981,-0.8642287 0.08085,-0.2940898 0.119732,-0.607437 0.04802,-0.9038872 C 36.92481,5.0863036 36.872109,4.9611101 36.811594,4.8405797 36.356825,3.9347986 35.476618,3.3108328 34.550725,2.8985507 34.268446,2.7728573 33.978674,2.6631658 33.681159,2.5797101 33.050822,2.4028952 32.393244,2.3457245 31.73913,2.3188406 31.142584,2.2943227 30.531777,2.2919266 29.971014,2.0869565 29.815883,2.030253 29.666052,1.9584495 29.507246,1.9130435 29.3906,1.8796919 29.270353,1.8609482 29.151972,1.8344049 29.033591,1.8078617 28.915464,1.7728314 28.811594,1.7101449 28.682189,1.632048 28.581406,1.5151906 28.463768,1.4202899 28.31556,1.3007276 28.132431,1.2145804 27.942029,1.2173913 c -0.04838,7.142e-4 -0.09707,0.00709 -0.144928,0 -0.04548,-0.00674 -0.08822,-0.025357 -0.130367,-0.043717 -0.04215,-0.01836 -0.08498,-0.036829 -0.130502,-0.043241 -0.03834,-0.0054 -0.07728,-0.00206 -0.115942,0 -0.145281,0.00773 -0.29278,-0.00266 -0.434783,0.028986 -0.218476,0.048693 -0.406664,0.1953325 -0.538859,0.3759619 -0.132196,0.1806293 -0.213176,0.3937784 -0.272735,0.6095453 -0.01573,0.056972 -0.03012,0.1144887 -0.0518,0.1694725 -0.02168,0.054984 -0.05109,0.1078201 -0.09313,0.1493681 -0.01946,0.019238 -0.04159,0.036047 -0.05797,0.057971 -0.0186,0.0249 -0.02892,0.055877 -0.02898,0.086957"
     id="path9"
     inkscape:path-effect="#path-effect9"
     inkscape:original-d="m 28.289855,12.666667 c 0.861001,0.472564 1.068088,1.123507 2.173913,1.246376 1.105963,0.122885 1.63626,-0.19941 2.521739,-0.811594 0.708381,-0.489744 1.649858,-1.353126 2.144928,-2.057971 0.655204,-0.932833 0.908521,-1.9153587 1.188406,-2.985507 0.0937,-0.3582639 0.185696,-0.7170995 0.289855,-1.0724638 C 36.756761,6.4803424 37.098871,5.7630634 36.956522,5.2173913 36.922552,5.0871754 36.865252,4.9639933 36.811594,4.8405797 36.373565,3.8331127 35.534861,3.2922051 34.550725,2.8985507 34.26408,2.7838929 33.983525,2.6420535 33.681159,2.5797101 33.041458,2.447813 32.387463,2.3980812 31.73913,2.3188406 31.146177,2.2463684 30.550554,2.2525394 29.971014,2.0869565 29.812265,2.0415996 29.664428,1.9635661 29.507246,1.9130435 29.279203,1.8397437 29.03496,1.7994913 28.811594,1.7101449 28.672527,1.6545181 28.603271,1.4822909 28.463768,1.4202899 28.342395,1.3663462 28.07029,1.2494566 27.942029,1.2173913 c -0.04526,-0.011314 -0.09886,0.00768 -0.144928,0 -0.362491,-0.060415 0.177136,0.010378 -0.260869,-0.086957 -0.03773,-0.00838 -0.07749,0.00385 -0.115942,0 -0.162624,-0.016262 -0.282894,-0.053863 -0.434783,0.028986 -0.435746,0.2376798 -0.606651,0.5463436 -0.811594,0.9855072 -0.01442,0.030893 -0.106641,0.2614112 -0.144927,0.3188406 -0.01516,0.022738 -0.04575,0.033528 -0.05797,0.057971 -0.07163,0.1432699 0.06432,-0.00635 -0.02898,0.086957" />
  <path
     style="fill:none;stroke:#95aabf;stroke-width:1.179;stroke-opacity:1"
     d="m 11.536232,13.594203 c -0.130893,0.06754 -0.266619,0.125706 -0.405797,0.173913 -0.893025,0.309318 -1.868804,0.195168 -2.8115944,0.26087 -0.6675686,0.04652 -1.332017,0.185063 -2,0.144927 -0.067645,-0.0041 -0.1358646,-0.0099 -0.2028986,0 -0.00967,0.0014 -0.019322,0.0032 -0.029087,0.0037 -0.00976,5.21e-4 -0.019744,-2.43e-4 -0.028884,-0.0037 -0.015547,-0.0059 -0.027348,-0.01918 -0.035247,-0.03381 -0.0079,-0.01464 -0.012493,-0.03079 -0.016885,-0.04684 C 5.9970554,14.061175 5.9858917,14.029754 5.9710145,14 L 5.6811594,13.42029 C 5.5748789,13.207729 5.4668456,12.996038 5.3623188,12.782609 4.9584381,11.957942 4.6216169,11.086722 4.5217391,10.173913 4.450227,9.5203458 4.5016078,8.8603069 4.4927536,8.2028986 4.4846727,7.6029039 4.4266303,6.9982608 4.5217391,6.4057971 4.6095533,5.8587741 4.8248831,5.3418257 4.9855072,4.8115942 5.1004568,4.4321374 5.187721,4.0442968 5.2463768,3.6521739 5.4195005,3.4782445 5.5416986,3.2542146 5.5942029,3.0144928 c 0.00853,-0.038949 0.01532,-0.078485 0.028986,-0.1159421 0.031407,-0.086082 0.098255,-0.1564855 0.1771241,-0.2031347 0.07887,-0.046649 0.1692557,-0.071026 0.2601008,-0.083016 0.18169,-0.023979 0.3678863,-3.865e-4 0.5482824,-0.03269 C 6.8142474,2.5429018 6.9992227,2.4362348 7.1884058,2.3478261 7.3884127,2.2543592 7.5969142,2.1800366 7.7971014,2.0869565 8.3089724,1.8489541 8.7561544,1.4934993 9.1884058,1.1304348 9.4661796,0.89712194 9.740275,0.65904821 10,0.4057971 c 0.03483,-0.0339634 0.0707,-0.0690621 0.115942,-0.0869565 0.04856,-0.0192074 0.104097,-0.0163493 0.153295,0.001155 0.0492,0.0175045 0.09255,0.0487759 0.130276,0.0848819 0.07545,0.0722119 0.130403,0.16423986 0.209183,0.2328035 0.08211,0.0714608 0.185644,0.11348636 0.289855,0.14492754 0.246816,0.0744661 0.505873,0.0959822 0.761693,0.12791694 0.255819,0.0319347 0.514748,0.0760643 0.745553,0.19092364 0.06976,0.034716 0.136252,0.075572 0.202899,0.115942 0.182211,0.1103707 0.37078,0.2192665 0.57971,0.2608696 0.133174,0.026518 0.270076,0.024702 0.405797,0.028986 0.266677,0.00842 0.536519,0.041839 0.782609,0.1449275 0.05983,0.025061 0.117969,0.054133 0.173913,0.086957"
     id="path10"
     inkscape:path-effect="#path-effect10"
     inkscape:original-d="m 11.536232,13.594203 c -0.135266,0.05797 -0.261819,0.143456 -0.405797,0.173913 -0.758045,0.160356 -2.1358328,0.211077 -2.8115944,0.26087 -1.2780913,0.09417 -0.7716945,0.08351 -2,0.144927 -0.067549,0.0034 -0.1352657,0 -0.2028986,0 -0.019324,0 -0.0456,0.01484 -0.057971,0 C 6.0164784,14.124122 6,14.057971 5.9710145,14 5.8743961,13.806763 5.7777778,13.613527 5.6811594,13.42029 5.5748792,13.207729 5.4585069,12.999922 5.3623188,12.782609 4.9871027,11.934898 4.6616032,11.09302 4.5217391,10.173913 4.4219014,9.5178365 4.46838,8.8609873 4.4927536,8.2028986 4.5147433,7.6091783 4.4333032,6.9953701 4.5217391,6.4057971 4.6046204,5.8532553 4.8551421,5.3516784 4.9855072,4.8115942 5.0704831,4.4595514 5.112585,3.9866535 5.2463768,3.6521739 5.3842924,2.8299704 5.4264978,3.349903 5.5942029,3.0144928 5.6120184,2.9788617 5.6010909,2.9316969 5.6231884,2.8985507 5.7478292,2.7115896 6.4007367,2.6490298 6.6086957,2.5797101 6.8061378,2.5138961 6.9961545,2.4275401 7.1884058,2.3478261 7.3923191,2.2632767 7.604309,2.1944754 7.7971014,2.0869565 8.1703844,1.8787795 8.8180108,1.4432128 9.1884058,1.1304348 9.4654988,0.89644516 9.7270608,0.6446189 10,0.4057971 c 0.03636,-0.0318118 0.06819,-0.0943023 0.115942,-0.0869565 0.139356,0.0214394 0.381349,0.2507597 0.492754,0.31884058 0.09217,0.0563284 0.190297,0.10300861 0.289855,0.14492754 0.474402,0.19974831 1.013,0.19527898 1.507246,0.31884058 0.07557,0.018893 0.133226,0.081106 0.202899,0.115942 0.187943,0.093971 0.396678,0.1693537 0.57971,0.2608696 0.05032,0.025162 0.348033,0.024542 0.405797,0.028986 0.271946,0.020919 0.522969,0.067036 0.782609,0.1449275 0.04598,0.013793 0.173913,0.015826 0.173913,0.086957" />
  <path
     style="fill:none;stroke:#95aabf;stroke-width:1.179;stroke-opacity:1"
     d="m 12.724638,16.115942 c -1.291355,0.123735 -2.587154,0.201096 -3.8840583,0.231884 -0.368329,0.0087 -0.7400064,0.01346 -1.1014493,-0.05797 -0.1655512,-0.03272 -0.327621,-0.08118 -0.4927536,-0.115943 -0.337955,-0.07115 -0.6897667,-0.0853 -1.0144927,-0.202899 -0.2681645,-0.09712 -0.5077708,-0.261416 -0.7748378,-0.361509 -0.1335335,-0.05005 -0.2747489,-0.08383 -0.417343,-0.08216 -0.1425942,0.0017 -0.2870034,0.04053 -0.4020221,0.12483 -0.1046233,0.07668 -0.1804759,0.186986 -0.2370529,0.303713 -0.056577,0.116726 -0.095561,0.241001 -0.1397587,0.362954 -0.2830784,0.781087 -0.7786843,1.464474 -1.1594203,2.202898 -0.1195116,0.231789 -0.228488,0.471176 -0.2898551,0.724638 -0.045579,0.188253 -0.067027,0.389193 -0.173913,0.550724 C 2.588468,19.871474 2.5233622,19.933654 2.4637681,20 c -0.1756702,0.195574 -0.307078,0.435943 -0.3478261,0.695652 -0.019534,0.124502 -0.018203,0.251249 -0.028986,0.376812 -0.021756,0.253335 -0.092672,0.500422 -0.115942,0.753623 -0.023111,0.251479 0.00112,0.504523 0.011715,0.75684 0.010599,0.252316 0.00686,0.509746 -0.069686,0.750406 -0.018523,0.05824 -0.041212,0.115141 -0.057971,0.173913 -0.077422,0.271516 -0.024265,0.56529 -0.086957,0.84058 -0.013327,0.05852 -0.031884,0.116157 -0.037773,0.175888 -0.00294,0.02987 -0.00266,0.0602 0.00305,0.08966 0.00571,0.02946 0.016982,0.05807 0.034725,0.08227 0.016193,0.02209 0.037301,0.04 0.057971,0.05797 0.2275114,0.197788 0.4308341,0.437205 0.5217391,0.724638 0.058608,0.185314 0.068178,0.382877 0.1203326,0.57011 0.026077,0.09362 0.063212,0.185109 0.1195735,0.264276 0.056361,0.07917 0.1329864,0.145674 0.223862,0.180107 0.1186514,0.04496 0.2499819,0.03266 0.3768116,0.02898 0.4792792,-0.0139 0.9510303,0.104424 1.4202899,0.202899 0.5636655,0.118286 1.1346546,0.209054 1.7101449,0.231884 0.1931354,0.0077 0.3865747,0.0077 0.5797101,0"
     id="path11"
     inkscape:path-effect="#path-effect11"
     inkscape:original-d="m 12.724638,16.115942 c -1.29972,-0.01553 -2.584358,0.231884 -3.8840583,0.231884 -0.4426443,0 -0.6336646,0.014 -1.1014493,-0.05797 C 7.5723558,16.264197 7.4118368,16.207005 7.2463768,16.173913 6.3035882,15.985355 7.1399321,16.198027 6.2318841,15.971014 5.9294547,15.895407 4.9330618,15.578329 4.6376812,15.652174 4.4786158,15.69194 4.3253165,16.189947 4.2608696,16.318841 3.889508,17.061564 3.4532511,17.767878 3.1014493,18.521739 3.0239409,18.687828 2.8695136,19.053312 2.8115942,19.246377 2.7359988,19.498361 2.7809236,19.553589 2.6376812,19.797101 2.592517,19.873881 2.5180798,19.929395 2.4637681,20 2.3193417,20.187754 2.1660769,20.465032 2.115942,20.695652 c -0.026761,0.1231 -0.01336,0.25181 -0.028986,0.376812 -0.083212,0.6657 -0.044931,-0.06301 -0.115942,0.753623 -0.043596,0.501352 0.035901,1.006595 -0.057971,1.507246 -0.011261,0.06006 -0.041893,0.11496 -0.057971,0.173913 -0.073695,0.270213 -0.086957,0.562795 -0.086957,0.84058 0,0.05465 -0.030913,0.285999 0,0.347826 0.012221,0.02444 0.040666,0.03682 0.057971,0.05797 0.1847075,0.225754 0.4021818,0.455634 0.5217391,0.724638 0.097651,0.219713 0.223785,0.934498 0.4637681,1.014493 0.1754954,0.0585 0.1666177,0.0065 0.3768116,0.02898 0.4755149,0.05095 0.9470138,0.134197 1.4202899,0.202899 0.4429744,0.0643 1.2349244,0.200891 1.7101449,0.231884 0.1928271,0.01258 0.3864734,0 0.5797101,0" />
  <path
     style="fill:#000000;fill-opacity:1;stroke:#000000;stroke-width:1.179;stroke-opacity:1"
     d="m 16.985507,11.652174 c 0.0708,0.203822 0.081,0.428276 0.02899,0.637681 -0.01474,0.05936 -0.03435,0.11749 -0.05797,0.173913 -0.06361,0.151958 -0.156998,0.294016 -0.186506,0.456084 -0.01475,0.08103 -0.01243,0.166667 0.01792,0.243239 0.01517,0.03829 0.03727,0.07397 0.06589,0.103581 0.02862,0.02961 0.06382,0.05306 0.102696,0.06666 0.046,0.01609 0.0958,0.01814 0.144437,0.015 0.04863,-0.0031 0.09682,-0.01129 0.145418,-0.015 0.12589,-0.0096 0.251895,0.01064 0.376811,0.02899 0.154152,0.02265 0.308734,0.04249 0.463769,0.05797 0.548904,0.05482 1.103269,0.05482 1.652173,0 0.187607,0.05708 0.383612,0.08649 0.579711,0.08696 0.164402,3.98e-4 0.329494,-0.01936 0.492753,0 0.107299,0.01272 0.211953,0.04216 0.318841,0.05797 0.248856,0.03681 0.502061,-9.91e-4 0.753623,0 0.07857,3.1e-4 0.16047,0.0038 0.231884,-0.02899 0.04415,-0.02025 0.08178,-0.05375 0.108926,-0.09403 0.02714,-0.04028 0.04395,-0.08716 0.05087,-0.135236 0.01384,-0.09615 -0.01167,-0.194734 -0.05519,-0.281583 -0.08704,-0.173698 -0.241883,-0.304959 -0.336493,-0.474654 -0.116413,-0.2088 -0.132297,-0.456927 -0.144928,-0.695653 -0.0031,-0.05795 -0.0061,-0.116198 0,-0.173913 0.0096,-0.09122 0.04187,-0.179747 0.04272,-0.271472 4.26e-4,-0.04586 -0.0074,-0.09253 -0.0287,-0.133139 -0.02132,-0.04061 -0.05714,-0.07468 -0.100985,-0.08814 -0.0371,-0.01139 -0.07692,-0.0082 -0.115606,-0.005 -0.03869,0.0031 -0.07747,0.005 -0.116278,0.005 h -0.695652 c -0.299899,0 -0.601371,-0.01131 -0.898551,0.02898 -0.101435,0.01375 -0.201933,0.03436 -0.303754,0.04488 -0.101821,0.01052 -0.206096,0.01071 -0.304942,-0.01589 -0.03918,-0.01055 -0.07752,-0.02528 -0.117827,-0.02995 -0.02015,-0.0023 -0.04075,-0.0021 -0.06051,0.0025 -0.01976,0.0046 -0.0387,0.01363 -0.05354,0.02746 -0.01001,0.0093 -0.01809,0.0207 -0.02898,0.02898 -0.0099,0.0076 -0.02191,0.01222 -0.03421,0.01444 -0.01229,0.0022 -0.02493,0.0021 -0.03734,6.28e-4 -0.02482,-0.0029 -0.04877,-0.0108 -0.07339,-0.01507 -0.05833,-0.0101 -0.118243,6.83e-4 -0.175488,0.01576 -0.05724,0.01508 -0.113641,0.03453 -0.172338,0.04221 -0.04357,0.0057 -0.08769,0.0048 -0.131598,0.0066 -0.0439,0.0018 -0.08836,0.0064 -0.129271,0.02241 -0.02438,0.0096 -0.04701,0.02298 -0.07048,0.03459 -0.02346,0.01161 -0.04833,0.02157 -0.07445,0.02338 -0.01929,0.0013 -0.03872,-0.0018 -0.05797,0 -0.03254,0.0031 -0.06205,0.01995 -0.08925,0.03807 -0.0272,0.01812 -0.05379,0.03814 -0.08466,0.04889 -0.03218,0.0112 -0.06712,0.01162 -0.101092,0.0089 -0.03397,-0.0027 -0.06773,-0.0084 -0.101807,-0.0089 -0.05893,-9.48e-4 -0.116924,0.01344 -0.17403,0.02804 -0.05711,0.0146 -0.114854,0.0296 -0.173796,0.02993 -0.05818,3.26e-4 -0.117342,-0.01361 -0.173913,0 -0.0483,0.01162 -0.09127,0.04385 -0.115942,0.08696 z"
     id="path1"
     inkscape:path-effect="#path-effect1"
     inkscape:original-d="m 16.985507,11.652174 c 0.09924,0.185833 0.07568,0.435362 0.02899,0.637681 -0.01374,0.05954 -0.04793,0.113638 -0.05797,0.173913 -0.0086,0.05177 -0.01996,0.809698 0,0.869565 0.0035,0.01059 0.158213,-0.0066 0.289855,0 0.125818,0.0063 0.251505,0.01602 0.376811,0.02899 0.154966,0.01603 0.308261,0.04855 0.463769,0.05797 0.547837,0.0332 1.105115,-0.04376 1.652173,0 0.219697,0.03995 0.361499,0.07332 0.579711,0.08696 0.162318,0.01014 0.331057,-0.01797 0.492753,0 0.29117,0.03235 -0.0094,0.03062 0.318841,0.05797 0.245783,0.02048 0.506605,0 0.753623,0 0.05258,0 0.197796,0.0051 0.231884,-0.02899 0.08281,-0.08281 -0.19755,-0.848169 -0.231884,-0.985507 -0.05734,-0.229372 -0.08932,-0.47324 -0.144928,-0.695653 -0.01357,-0.05428 0.0092,-0.118625 0,-0.173913 -0.0051,-0.03057 -0.0781,-0.483894 -0.08696,-0.492753 -0.01491,-0.01491 -0.20317,0 -0.231884,0 -0.231884,0 -0.463768,0 -0.695652,0 -0.588821,0 0.0081,-0.0046 -0.898551,0.02898 -0.207927,0.0077 -0.402962,0.0033 -0.608696,0.02899 -0.123671,0.01546 -0.07729,-0.02577 -0.231884,0 -0.01348,0.0022 -0.01551,0.02674 -0.02898,0.02898 -0.04765,0.0079 -0.09686,-0.0048 -0.144928,0 -0.113906,0.01139 -0.23392,0.04658 -0.347826,0.05797 -0.08522,0.0085 -0.178321,0.0083 -0.260869,0.02899 -0.05218,0.01304 -0.100742,0.04324 -0.144928,0.05797 -0.01833,0.0061 -0.04003,-0.0072 -0.05797,0 -0.236148,0.09446 0.05465,0.02982 -0.173913,0.08696 -0.06017,0.01504 -0.144223,-0.0084 -0.202899,0 -0.115969,0.01657 -0.232601,0.03493 -0.347826,0.05797 -0.04291,0.0086 -0.13568,-0.02294 -0.173913,0 -0.04143,0.02485 -0.07729,0.05797 -0.115942,0.08696 z"
     transform="matrix(0.60476605,0,0,0.74099801,8.0194349,2.5835454)" />
</svg>
