<?xml version="1.0" encoding="UTF-8" standalone="no"?>
<svg
   width="100"
   height="100"
   viewBox="0 0 100 100"
   version="1.1"
   id="svg2"
   xmlns="http://www.w3.org/2000/svg"
   xmlns:svg="http://www.w3.org/2000/svg"
   xmlns:rdf="http://www.w3.org/1999/02/22-rdf-syntax-ns#"
   xmlns:cc="http://creativecommons.org/ns#"
   xmlns:dc="http://purl.org/dc/elements/1.1/">
  <title
     id="title1">Btn\</title>
  <desc
     id="desc1">Created using Figma</desc>
  <defs
     id="defs2">
    <path
       id="path0_fill"
       fill-rule="evenodd"
       d="M 25 50C 38.8071 50 50 38.8071 50 25C 50 11.1929 38.8071 0 25 0C 11.1929 0 0 11.1929 0 25C 0 38.8071 11.1929 50 25 50Z" />
    <path
       id="path1_fill"
       fill-rule="evenodd"
       d="M 0 0L 14.624 9.312L 0 18.624L 0 0Z" />
  </defs>
  <path
     style="display:inline;opacity:1;fill:#13161f;fill-opacity:1;stroke:#13161f;stroke-width:2;stroke-dasharray:none;stroke-opacity:1"
     d="m 36.231884,96.58994 c -1.26352,-0.472547 -2.490349,-1.043165 -3.665814,-1.70503 -0.268344,-0.151096 -0.53589,-0.308273 -0.767264,-0.511508 -0.107282,-0.09423 -0.209505,-0.2001 -0.341005,-0.255755 -0.08571,-0.03627 -0.179752,-0.04922 -0.272808,-0.0506 -0.09306,-0.0014 -0.185895,0.0082 -0.278422,0.01823 -0.185054,0.02 -0.370908,0.03237 -0.55704,0.03237 h -1.875533 c -0.09971,0 -0.199376,0.0038 -0.298896,0.01002 -0.09952,0.0062 -0.20078,0.01273 -0.297864,-0.01002 -0.09314,-0.02182 -0.177571,-0.07037 -0.259014,-0.120563 -0.08144,-0.05019 -0.162374,-0.1031 -0.252495,-0.135191 -0.136694,-0.04867 -0.286387,-0.04664 -0.426258,-0.08525 -0.240482,-0.06638 -0.434059,-0.24852 -0.576093,-0.453616 -0.142035,-0.205097 -0.241505,-0.436025 -0.361673,-0.654653 -0.419759,-0.763689 -1.084757,-1.36401 -1.790281,-1.875533 -0.280836,-0.203613 -0.569935,-0.395574 -0.852515,-0.596761 -0.565411,-0.402553 -1.10603,-0.842896 -1.70503,-1.19352 -0.60756,-0.355634 -1.280262,-0.623001 -1.790281,-1.10827 -0.557467,-0.530415 -0.873898,-1.27935 -1.449276,-1.790281 -0.250757,-0.22267 -0.542747,-0.3927 -0.818943,-0.582902 -0.276195,-0.190203 -0.543542,-0.408013 -0.715584,-0.695871 -0.08519,-0.142535 -0.146439,-0.301263 -0.255754,-0.426257 -0.07945,-0.09085 -0.181627,-0.160512 -0.255755,-0.255754 -0.06674,-0.08575 -0.107768,-0.188445 -0.14271,-0.291328 -0.03494,-0.102884 -0.06488,-0.208034 -0.113044,-0.305433 -0.09887,-0.199965 -0.267631,-0.354665 -0.426257,-0.511509 -0.518514,-0.512689 -0.963716,-1.095555 -1.364024,-1.70503 -0.303123,-0.46151 -0.582781,-0.941106 -0.937767,-1.364024 -0.220033,-0.26214 -0.467491,-0.500593 -0.682012,-0.767263 -0.197015,-0.244908 -0.364768,-0.511764 -0.549432,-0.766114 -0.184665,-0.25435 -0.389305,-0.499096 -0.644089,-0.683161 -0.124208,-0.08973 -0.259035,-0.164082 -0.382382,-0.254993 -0.123347,-0.09091 -0.237281,-0.201797 -0.29963,-0.341768 -0.03659,-0.08214 -0.05416,-0.171385 -0.08525,-0.255754 -0.09295,-0.252217 -0.299494,-0.444981 -0.426258,-0.682014 -0.167741,-0.313655 -0.185801,-0.682406 -0.214834,-1.036911 -0.01452,-0.177252 -0.03279,-0.354956 -0.07601,-0.527471 C 9.9813756,74.477937 9.9122325,74.309858 9.8039216,74.168798 9.6814152,74.009251 9.5141213,73.890333 9.3776641,73.74254 9.2541824,73.608801 9.1571482,73.452724 9.0366581,73.316283 8.7952767,73.042948 8.4707983,72.859673 8.1841432,72.634271 7.8604223,72.379724 7.5801005,72.064919 7.3924516,71.698344 7.2048028,71.331768 7.1128444,70.911957 7.1611253,70.502984 7.2061151,70.121889 7.3682102,69.765407 7.4595735,69.3927 7.5052551,69.206347 7.5333019,69.013918 7.5190317,68.822579 7.5047616,68.63124 7.4462329,68.440329 7.3316283,68.286445 7.2834504,68.221755 7.2258154,68.16412 7.1611253,68.115942 7.1144249,67.876538 7.0276021,67.64501 6.9053708,67.43393 6.6509346,66.994546 6.25515,66.658557 5.8794134,66.317063 5.5036768,65.975569 5.1303493,65.604674 4.9445865,65.13214 4.8688423,64.939466 4.8267955,64.735584 4.7740835,64.535379 4.6471334,64.053211 4.4551688,63.585365 4.1773231,63.171355 4.1202185,63.086265 4.0595317,63.00348 4.0068201,62.915601 3.7426354,62.475161 3.6955029,61.939299 3.4953112,61.466326 3.3926348,61.223742 3.2506667,61.000103 3.1300611,60.765916 3.0094556,60.531729 2.9086689,60.280274 2.8985507,60.01705 c -0.00437,-0.113626 0.00827,-0.227598 0,-0.341006 C 2.8803669,59.426738 2.7629488,59.196294 2.6366748,58.980564 2.5104009,58.764835 2.3712594,58.552142 2.3017903,58.31202 2.1985485,57.955162 2.2585637,57.572858 2.2165388,57.203751 2.1597162,56.704675 1.9195337,56.247976 1.6886469,55.801885 1.45776,55.355794 1.2275395,54.8916 1.1935209,54.390452 c -0.00963,-0.141815 -0.00324,-0.284153 0,-0.426258 0.012956,-0.568267 -0.024488,-1.137142 0,-1.705029 0.023397,-0.542579 0.103168,-1.080887 0.170503,-1.619779 0.070844,-0.566974 0.1273754,-1.148025 0,-1.70503 -0.046127,-0.20171 -0.1157962,-0.397206 -0.170503,-0.59676 -0.1818645,-0.663388 -0.19550796,-1.367065 -0.085252,-2.046036 0.088461,-0.544757 0.2549529,-1.074635 0.341006,-1.619778 0.089723,-0.568391 0.092132,-1.153355 0.2557544,-1.70503 0.1022905,-0.344886 0.2662011,-0.671146 0.341006,-1.023018 0.083042,-0.390616 0.052782,-0.795497 0.085252,-1.193521 0.04676,-0.573183 0.2236073,-1.130842 0.2557545,-1.70503 0.011343,-0.202593 0.00456,-0.406002 0.019978,-0.608326 0.015414,-0.202324 0.054316,-0.406543 0.1505251,-0.585195 0.1009601,-0.187474 0.2597663,-0.337293 0.4278471,-0.468015 0.1680809,-0.130722 0.3482101,-0.245973 0.5099193,-0.3845 0.3031831,-0.259719 0.5353903,-0.597734 0.6894188,-0.96604 0.1540285,-0.368306 0.2312897,-0.766395 0.2483476,-1.165247 0.00971,-0.227158 2.146e-4,-0.454647 0,-0.682012 -6.443e-4,-0.682714 0.08242,-1.363328 0.085252,-2.046036 0.00259,-0.625576 -0.062122,-1.253042 0,-1.875532 0.057594,-0.577119 0.2229547,-1.137185 0.3410059,-1.70503 0.1236713,-0.594878 0.1957494,-1.200303 0.341006,-1.790282 0.1986625,-0.806895 0.5325345,-1.576302 0.9377664,-2.30179 0.1426881,-0.255455 0.2944117,-0.506047 0.4262575,-0.767263 0.2759718,-0.546762 0.4617205,-1.133557 0.6820119,-1.70503 0.2885751,-0.748612 0.6372105,-1.472656 0.9377664,-2.216539 0.2629441,-0.650793 0.4889459,-1.316416 0.7672634,-1.960784 0.050443,-0.116787 0.1028261,-0.233286 0.170503,-0.341006 0.1323215,-0.210613 0.3203579,-0.382413 0.5286136,-0.518415 0.2082557,-0.136002 0.4369603,-0.237764 0.6689643,-0.327435 0.46401,-0.179341 0.953456,-0.316692 1.359967,-0.603426 0.181449,-0.127986 0.341946,-0.282895 0.511509,-0.426257 0.325578,-0.275268 0.684598,-0.507946 1.023018,-0.767263 0.384189,-0.294388 0.741034,-0.622484 1.10827,-0.937767 0.421047,-0.361481 0.858279,-0.707901 1.339122,-0.984918 0.480844,-0.277017 1.008403,-0.483871 1.559427,-0.549609 0.227707,-0.02717 0.459346,-0.0304 0.682012,-0.08525 0.385023,-0.09484 0.721556,-0.338566 1.108271,-0.426258 0.426055,-0.09661 0.874148,0.0058 1.278772,0.170503 0.748272,0.304634 1.398074,0.816308 2.14581,1.122255 0.373869,0.152973 0.775033,0.253428 1.178733,0.239138 0.4037,-0.01429 0.81084,-0.150577 1.108535,-0.423626 0.242355,-0.222291 0.399861,-0.519723 0.553059,-0.810721 0.153199,-0.290997 0.311628,-0.588113 0.55521,-0.809058 0.181217,-0.164376 0.401452,-0.278901 0.59676,-0.426257 0.417624,-0.315089 0.709086,-0.770124 1.10827,-1.1082694 0.200277,-0.1696527 0.428114,-0.3103841 0.59676,-0.511509 0.131765,-0.1571409 0.221738,-0.3446844 0.341006,-0.5115089 0.246059,-0.3441719 0.609871,-0.5911781 0.852515,-0.9377664 0.05252,-0.075013 0.09895,-0.1541632 0.152065,-0.2287547 0.05311,-0.074592 0.113716,-0.1452898 0.188941,-0.1975028 0.104544,-0.072563 0.231504,-0.1056641 0.341006,-0.170503 0.113634,-0.067286 0.20493,-0.1666992 0.284106,-0.2723934 0.07918,-0.1056941 0.147901,-0.2189179 0.227403,-0.324367 0.351747,-0.4665473 0.892524,-0.7551096 1.278772,-1.1935209 0.297285,-0.3374339 0.492877,-0.7519661 0.767264,-1.1082694 0.409352,-0.531562 0.978029,-0.9143839 1.544798,-1.2734116 0.566768,-0.3590278 1.149881,-0.7101371 1.609507,-1.1988817 0.0551,-0.058596 0.108512,-0.1192466 0.170502,-0.170503 0.113064,-0.093486 0.251927,-0.1528251 0.395401,-0.1834575 0.143474,-0.030632 0.29176,-0.033466 0.438038,-0.022255 0.292557,0.022422 0.578875,0.1002202 0.871591,0.1204605 0.515574,0.03565 1.026411,-0.1083655 1.512733,-0.2832324 0.486323,-0.174867 0.964236,-0.38299353 1.471069,-0.48403098 0.896193,-0.17865667 1.819446,-0.0123282 2.728048,0.0852515 2.318874,0.24903628 4.65886,0.0456454 6.990622,0 0.824623,-0.0161424 1.650722,-0.0125638 2.472293,-0.0852515 0.683152,-0.0604412 1.382226,-0.17235138 2.046037,0 0.341492,0.0886646 0.670224,0.25194778 1.023018,0.25575448 0.226566,0.00244 0.449013,-0.061708 0.675406,-0.070897 0.113196,-0.00459 0.228254,0.00493 0.335158,0.042428 0.106904,0.037498 0.205513,0.1046126 0.268209,0.1989723 0.03521,0.052986 0.0583,0.1128784 0.08525,0.170503 0.189462,0.4050764 0.572641,0.694797 0.988849,0.8583629 0.416208,0.163566 0.867145,0.2145719 1.312941,0.2499065 0.425873,0.033755 0.852668,0.054565 1.278773,0.085251 1.050986,0.075686 2.108171,0.2113665 3.154305,0.085252 0.399058,-0.048108 0.793228,-0.1340769 1.193521,-0.1705029 0.369164,-0.033593 0.742516,-0.024952 1.108268,-0.085252 0.286053,-0.04716 0.56465,-0.1360923 0.852515,-0.170503 0.338937,-0.040516 0.681698,-0.00451 1.023018,0 0.255762,0.00338 0.511715,-0.010974 0.767263,0 1.101233,0.047292 2.120346,0.5558272 3.154306,0.9377664 0.978124,0.3613136 1.992526,0.6142786 2.983802,0.9377664 0.729734,0.2381375 1.462929,0.5238109 2.046036,1.0230179 0.138457,0.1185349 0.268747,0.2492924 0.426257,0.341006 0.210205,0.1223962 0.455311,0.1675899 0.682013,0.2557544 0.296305,0.1152331 0.559358,0.3032323 0.852514,0.4262575 0.282831,0.1186925 0.593363,0.1769278 0.852515,0.341006 0.190887,0.1208573 0.347855,0.2996188 0.426258,0.5115089 0.0407,0.10999 0.05993,0.2264935 0.08525,0.341006 0.124601,0.5635622 0.401287,1.088221 0.767263,1.5345268 0.34439,0.4199815 0.765544,0.7721807 1.10827,1.1935213 0.373325,0.458958 0.647336,0.992245 1.023018,1.449275 0.194284,0.236352 0.414184,0.450353 0.61524,0.680972 0.201055,0.230619 0.3854,0.481904 0.493029,0.768303 0.03162,0.08413 0.05637,0.170652 0.08525,0.255755 0.151288,0.445769 0.413083,0.845343 0.596761,1.278772 0.129805,0.306304 0.219914,0.627915 0.341006,0.937767 0.250131,0.640041 0.630513,1.225198 0.852514,1.875532 0.18935,0.554687 0.258806,1.143344 0.426258,1.70503 0.05914,0.198359 0.13057,0.393663 0.170503,0.596761 0.06607,0.33602 0.04402,0.683055 0.08525,1.023018 0.01746,0.143983 0.04628,0.286552 0.08525,0.426257 0.264343,0.947686 1.025201,1.741624 1.960785,2.046036 0.183245,0.157092 0.354416,0.328264 0.511508,0.511509 0.236897,0.276337 0.441332,0.579467 0.682012,0.852515 0.599225,0.67981 1.419562,1.156939 2.301791,1.364024 0.07535,0.01769 0.151349,0.03353 0.224556,0.05866 0.07321,0.02513 0.144137,0.0601 0.201701,0.111841 0.06198,0.05571 0.106001,0.128517 0.143488,0.202953 0.03749,0.07444 0.06947,0.151791 0.112267,0.223304 0.124428,0.2079 0.329803,0.351236 0.511509,0.511509 0.700734,0.618078 1.077951,1.523846 1.705029,2.216539 0.171225,0.189141 0.36034,0.361496 0.530709,0.551408 0.170369,0.189912 0.323661,0.400997 0.407058,0.642113 0.06218,0.179781 0.08367,0.370571 0.110687,0.558875 0.02701,0.188303 0.06089,0.378798 0.145066,0.549394 0.110234,0.223417 0.298308,0.396719 0.452244,0.592603 0.07697,0.09794 0.146366,0.203253 0.191035,0.319534 0.04467,0.116282 0.06364,0.244584 0.03873,0.366635 -0.02012,0.09858 -0.06816,0.191643 -0.07294,0.292145 -0.0024,0.05025 0.0069,0.102224 0.03401,0.144575 0.01358,0.02117 0.03152,0.03967 0.05288,0.05296 0.02136,0.01329 0.04615,0.02126 0.0713,0.02183 0.01428,3.2e-4 0.02849,-0.0017 0.04273,-0.0028 0.01424,-0.0011 0.02881,-0.0012 0.04252,0.0028 0.01911,0.0056 0.03544,0.01916 0.04597,0.03607 0.01052,0.01691 0.01546,0.03696 0.01581,0.05687 6.88e-4,0.03983 -0.0162,0.07775 -0.035,0.112863 -0.0188,0.03512 -0.04011,0.06964 -0.04959,0.108324 -0.0047,0.01934 -0.0064,0.03962 -0.003,0.05925 0.0034,0.01963 0.01197,0.03859 0.02584,0.05288 0.01125,0.01158 0.02559,0.01979 0.04055,0.02585 0.01497,0.0061 0.03066,0.01009 0.04624,0.01434 0.01558,0.0042 0.03118,0.0088 0.04575,0.01572 0.01457,0.007 0.02819,0.01649 0.03796,0.02935 0.0089,0.01169 0.01431,0.02579 0.01685,0.04026 0.0025,0.01447 0.0023,0.02932 5.15e-4,0.0439 -0.0035,0.02916 -0.01282,0.05733 -0.01736,0.08635 -0.0083,0.0531 -2.26e-4,0.108065 0.0188,0.158328 0.01903,0.05026 0.04871,0.09603 0.08342,0.13707 0.0694,0.08208 0.158003,0.145202 0.238787,0.216111 0.389255,0.341673 0.585724,0.855115 0.682012,1.364024 0.03214,0.169847 0.05474,0.341363 0.08525,0.511509 0.0867,0.48347 0.237534,0.958431 0.255754,1.449275 0.01376,0.370623 -0.04864,0.739203 -0.08525,1.10827 -0.07862,0.79256 -0.03838,1.591518 0,2.387042 0.05631,1.167182 0.108563,2.336079 0.255754,3.495311 0.151268,1.19134 0.40315,2.381265 0.341006,3.580562 -0.02689,0.518981 -0.112874,1.034877 -0.255754,1.534527 -0.106438,0.158764 -0.192606,0.331101 -0.255755,0.511509 -0.180272,0.515015 -0.168328,1.074129 -0.170503,1.619779 -0.002,0.513302 -0.01797,1.031705 0.08525,1.534526 0.144731,0.705015 0.51678,1.345542 0.682012,2.046036 0.157234,0.666587 0.121613,1.362766 0.05318,2.044219 -0.06844,0.681452 -0.168911,1.363652 -0.138427,2.047853 0.02664,0.59787 0.15313,1.19568 0.08525,1.790281 -0.04369,0.382743 -0.167129,0.753295 -0.206072,1.13655 -0.01947,0.191628 -0.01741,0.387004 0.02622,0.574613 0.04362,0.187609 0.130484,0.367618 0.265105,0.505376 0.173275,0.177313 0.415251,0.276464 0.583801,0.458271 0.0843,0.0909 0.14911,0.204829 0.15952,0.328351 0.005,0.06176 -0.004,0.125035 -0.0282,0.181873 -0.0247,0.05684 -0.0658,0.106965 -0.11833,0.139774 -0.054,0.03369 -0.11843,0.04865 -0.1705,0.08525 -0.0531,0.03734 -0.08934,0.09463 -0.113925,0.154733 -0.02458,0.0601 -0.03874,0.123837 -0.05658,0.186273 -0.08202,0.287097 -0.241976,0.546553 -0.426998,0.780901 -0.185022,0.234348 -0.395991,0.446698 -0.59602,0.668374 -0.800118,0.886706 -1.423317,1.920419 -2.216539,2.813299 -0.147525,0.166059 -0.301374,0.327816 -0.426258,0.511509 -0.164578,0.242078 -0.275042,0.516622 -0.426257,0.767264 -0.189023,0.313308 -0.446473,0.591238 -0.767264,0.767263 -0.189852,0.104176 -0.397542,0.17085 -0.59676,0.255755 -1.017445,0.433625 -1.775496,1.329041 -2.30179,2.30179 -0.430202,0.795142 -0.735207,1.664642 -1.278773,2.387042 -0.131616,0.174917 -0.276358,0.339909 -0.402174,0.519043 -0.125815,0.179134 -0.233508,0.375282 -0.279838,0.589226 -0.03663,0.169131 -0.03426,0.34614 -0.08525,0.511509 -0.07937,0.257409 -0.277446,0.457482 -0.426258,0.682012 -0.09156,0.138141 -0.165327,0.287374 -0.255754,0.426257 -0.198706,0.305186 -0.473427,0.553994 -0.682012,0.852515 -0.244859,0.350437 -0.393722,0.767254 -0.426257,1.193521 -0.175499,0.18865 -0.295385,0.428422 -0.341006,0.682012 -0.02573,0.143014 -0.029,0.292279 -0.08525,0.426258 -0.07088,0.168809 -0.216347,0.292165 -0.341006,0.426257 -0.360494,0.387773 -0.568841,0.899012 -0.937766,1.278773 -0.154811,0.159358 -0.334533,0.291939 -0.511509,0.426257 -1.060917,0.805196 -2.051733,1.697926 -3.069054,2.557545 -0.217326,0.183637 -0.437119,0.366663 -0.682012,0.511509 -0.715708,0.423319 -1.578692,0.487053 -2.387041,0.682012 -0.227817,0.05495 -0.452965,0.120934 -0.682012,0.170503 -0.949078,0.205393 -1.935393,0.123548 -2.89855,0 -0.539562,-0.06921 -1.096904,-0.150062 -1.619779,0 -0.23347,0.06701 -0.451833,0.178195 -0.682012,0.255754 -0.196082,0.06607 -0.399707,0.107389 -0.59676,0.170503 -0.591729,0.189523 -1.107624,0.571558 -1.534527,1.023018 -0.41825,0.44231 -0.757963,0.951423 -1.108269,1.449275 -0.43185,0.613742 -0.882958,1.214305 -1.364024,1.790282 -0.482576,0.577785 -1.016047,1.145932 -1.70503,1.449275 -0.222256,0.09785 -0.456364,0.165997 -0.682012,0.255754 -0.698748,0.277944 -1.314866,0.762006 -2.046036,0.937767 -0.473377,0.113792 -0.968913,0.09122 -1.449275,0.170503 -0.258547,0.04267 -0.511246,0.114622 -0.767263,0.170503 -0.47586,0.103866 -0.962563,0.15203 -1.449276,0.170503 -0.909725,0.03453 -1.825478,-0.03374 -2.728048,0.08525 -0.602404,0.07942 -1.190894,0.241339 -1.790281,0.341006 -0.731592,0.12165 -1.475188,0.149912 -2.216539,0.170503 -0.399032,0.01108 -0.799679,0.02015 -1.193521,0.08525 -1.003332,0.165834 -1.913401,0.68546 -2.89855,0.937766 -0.751921,0.192574 -1.534143,0.226173 -2.301791,0.341006 -1.198011,0.179211 -2.369853,0.557639 -3.580562,0.596761 -0.739247,0.02389 -1.476928,-0.07966 -2.216539,-0.08525 -0.34353,-0.0026 -0.694433,0.015 -1.023018,-0.08525 -0.146446,-0.04468 -0.284829,-0.111842 -0.426257,-0.170503 -0.408385,-0.169387 -0.842723,-0.267998 -1.278773,-0.341006 -0.374879,-0.06277 -0.757835,-0.10855 -1.108269,-0.255755 -0.307826,-0.129306 -0.578112,-0.331763 -0.861774,-0.507866 -0.283663,-0.176104 -0.594934,-0.330292 -0.928507,-0.344649 -0.08789,-0.0038 -0.176108,0.0023 -0.263799,-0.0047 -0.08769,-0.007 -0.176942,-0.02826 -0.24771,-0.08051 -0.06392,-0.0472 -0.109388,-0.118746 -0.12497,-0.19666 -0.01558,-0.07792 -0.0011,-0.161447 0.03972,-0.229598 z"
     id="path2"
     transform="matrix(0.96059601,0,0,0.96059601,1.6575989,1.6222935)" />
  <path
     style="opacity:1;fill:#ffffff;fill-opacity:1;stroke:#ffffff;stroke-width:2;stroke-dasharray:none;stroke-opacity:1"
     d="m 38.363171,27.962489 c 0.926003,1.517715 1.486102,3.256967 1.619779,5.029838 0.04724,0.626571 0.04258,1.260342 0.170503,1.875533 0.17975,0.864443 0.612063,1.651629 0.937766,2.472293 0.600327,1.512623 0.835472,3.223624 0.341006,4.774084 -0.12838,0.402553 -0.303775,0.789135 -0.426257,1.193521 -0.148492,0.490261 -0.217452,1.000638 -0.333454,1.499586 -0.116002,0.498948 -0.285292,0.998177 -0.604313,1.398965 -0.20261,0.254541 -0.465207,0.469714 -0.59676,0.767263 -0.07564,0.171079 -0.10296,0.360522 -0.102005,0.547573 9.55e-4,0.187051 0.02931,0.372819 0.06101,0.557167 0.0634,0.368696 0.140041,0.75104 0.041,1.111799 -0.08119,0.295743 -0.275304,0.55295 -0.341006,0.852515 -0.04269,0.194628 -0.02851,0.398838 0.01991,0.592118 0.04842,0.193281 0.130204,0.376704 0.222533,0.553275 0.184656,0.353144 0.41499,0.688073 0.524823,1.071146 0.0944,0.329257 0.09468,0.677573 0.08128,1.019834 -0.0134,0.342261 -0.03968,0.686471 0.004,1.026201 0.05068,0.394446 0.193912,0.770029 0.326922,1.144815 0.13301,0.374786 0.258047,0.759462 0.269838,1.156976 0.01627,0.548519 -0.184108,1.080193 -0.422818,1.574314 -0.23871,0.494121 -0.520204,0.97145 -0.685451,1.494739 -0.237064,0.750713 -0.225737,1.568236 -0.511509,2.301791 -0.138844,0.356402 -0.344109,0.68264 -0.509391,1.027577 -0.165283,0.344938 -0.292398,0.722779 -0.257873,1.10371 0.02443,0.269493 0.128248,0.524772 0.236863,0.772614 0.108615,0.247842 0.224217,0.496056 0.274646,0.761913 0.05326,0.280803 0.03184,0.57174 0.08525,0.852515 0.0532,0.279632 0.178529,0.539309 0.291455,0.800598 0.112925,0.261289 0.215953,0.534562 0.220054,0.81918 0.0039,0.27178 -0.08288,0.540865 -0.06079,0.811774 0.01105,0.135454 0.05118,0.27164 0.135214,0.378452 0.04202,0.05341 0.09468,0.0988 0.155154,0.129792 0.06047,0.031 0.12881,0.04732 0.196681,0.04401 0.03798,-0.0019 0.07688,-0.0097 0.11344,8.23e-4 0.01828,0.0052 0.03559,0.01532 0.04699,0.03054 0.0057,0.0076 0.0099,0.01642 0.01172,0.02574 0.0019,0.0093 0.0014,0.01915 -0.0016,0.02815 -0.0031,0.0091 -0.0087,0.01712 -0.01424,0.02502 -0.0055,0.0079 -0.01102,0.01601 -0.01385,0.02521 -0.0014,0.0046 -0.0021,0.0095 -0.0018,0.01425 3.7e-4,0.0048 0.0019,0.0096 0.0046,0.01353 0.0027,0.004 0.0067,0.0071 0.0113,0.0086 0.0046,0.0014 0.0098,0.001 0.01398,-0.0013 0.0033,-0.0018 0.0058,-0.0048 0.0075,-0.0082 0.0017,-0.0034 0.0025,-0.0071 0.0027,-0.01083 3.84e-4,-0.0075 -0.0015,-0.01486 -0.0035,-0.02207 -0.002,-0.0072 -0.0041,-0.01442 -0.0052,-0.02182 -0.0012,-0.0074 -0.0013,-0.0149 -0.0013,-0.02238 v -0.255754 c 0,-0.265028 0.009,-0.531741 0.06634,-0.790496 0.05732,-0.258755 0.157793,-0.506165 0.274668,-0.744031 0.275207,-0.560108 0.630682,-1.076493 0.937767,-1.619778 0.635275,-1.12391 1.077455,-2.383278 1.960784,-3.324808 0.4682,-0.499049 1.048874,-0.894352 1.449275,-1.449276 0.267253,-0.37039 0.443097,-0.79703 0.646,-1.206228 0.202903,-0.409198 0.443435,-0.814266 0.803276,-1.095562 0.301482,-0.235675 0.667585,-0.369729 1.023018,-0.511509 1.886295,-0.752433 3.692342,-1.831893 5.711849,-2.046036 0.396503,-0.04204 0.797896,-0.04963 1.193521,0 0.399949,0.05017 0.790164,0.158155 1.186463,0.2318 0.396298,0.07364 0.807334,0.112469 1.200579,0.02396 0.522593,-0.117628 0.967649,-0.447544 1.449276,-0.682012 0.793544,-0.386317 1.696683,-0.5166 2.472293,-0.937767 0.485222,-0.263482 0.904153,-0.63218 1.364024,-0.937766 0.328903,-0.218557 0.678132,-0.404411 1.023018,-0.596761 0.84779,-0.472829 1.692624,-0.994808 2.642796,-1.19352 0.871007,-0.182156 1.791303,-0.08256 2.642796,-0.341006 0.561011,-0.170277 1.066231,-0.488846 1.619778,-0.682012 0.716586,-0.25006 1.492798,-0.282983 2.216539,-0.511509 0.317224,-0.100165 0.62174,-0.237127 0.937767,-0.341006 0.256262,-0.08423 0.520466,-0.146865 0.767263,-0.255755 0.303556,-0.133933 0.572227,-0.333962 0.852515,-0.511509 0.680412,-0.431003 1.437535,-0.733129 2.216539,-0.937766 0.880911,-0.231407 1.79775,-0.34223 2.642796,-0.682012 0.628101,-0.252551 1.212613,-0.630039 1.875533,-0.767264 0.258373,-0.05348 0.522937,-0.069 0.784119,-0.106427 0.261182,-0.03743 0.524164,-0.09882 0.750408,-0.234578 0.132402,-0.07945 0.248846,-0.182337 0.370079,-0.277966 0.121233,-0.09563 0.250371,-0.185704 0.397184,-0.233543 0.03068,-0.01 0.06204,-0.01812 0.09181,-0.03057 0.02977,-0.01245 0.05831,-0.02967 0.07869,-0.05468 0.02236,-0.02745 0.0336,-0.06327 0.03304,-0.09867 -5.56e-4,-0.0354 -0.01255,-0.07023 -0.03214,-0.09972 -0.01959,-0.02949 -0.04656,-0.05374 -0.07688,-0.07202 -0.03032,-0.01828 -0.06394,-0.03072 -0.09841,-0.03877 -0.06895,-0.01611 -0.140599,-0.01483 -0.2114,-0.01408 -0.0708,7.49e-4 -0.142619,7.54e-4 -0.210965,-0.01775 -0.08035,-0.02175 -0.151733,-0.06795 -0.219107,-0.116844 -0.06737,-0.04889 -0.132786,-0.1015 -0.207151,-0.13891 -0.09061,-0.04558 -0.191699,-0.06704 -0.292685,-0.07656 -0.100987,-0.0095 -0.202647,-0.0075 -0.304075,-0.0087 -0.782807,-0.009 -1.550751,-0.205335 -2.301791,-0.426257 -1.148093,-0.337718 -2.298901,-0.739429 -3.495311,-0.767264 -0.142054,-0.0033 -0.28417,-0.0013 -0.426257,0 -1.807945,0.0164 -3.682308,-0.102057 -5.285593,-0.937766 -0.350134,-0.182507 -0.682449,-0.396973 -1.023018,-0.596761 -0.658084,-0.386051 -1.347015,-0.717271 -2.046035,-1.023017 -2.183241,-0.954935 -4.46475,-1.662466 -6.734868,-2.387042 -1.173021,-0.374405 -2.34506,-0.754112 -3.495311,-1.193521 -0.238291,-0.09103 -0.479038,-0.186504 -0.682012,-0.341006 -0.272996,-0.207802 -0.458453,-0.507014 -0.682012,-0.767264 -0.368161,-0.428584 -0.840426,-0.751789 -1.278773,-1.108269 -0.706968,-0.574932 -1.34174,-1.250094 -2.131287,-1.70503 -1.140757,-0.657303 -2.517805,-0.804722 -3.665814,-1.449275 -0.255293,-0.143335 -0.498226,-0.310767 -0.767264,-0.426258 -0.199151,-0.08549 -0.412095,-0.142313 -0.59676,-0.255754 -0.189364,-0.116328 -0.339046,-0.286088 -0.511509,-0.426258 -0.356184,-0.289489 -0.799902,-0.445929 -1.193521,-0.682011 -0.485259,-0.291044 -0.887959,-0.699066 -1.278772,-1.10827 -0.23602,-0.247127 -0.471964,-0.498247 -0.751936,-0.694189 -0.279972,-0.195942 -0.611426,-0.335177 -0.953094,-0.328829 -0.05687,0.0011 -0.113948,0.0061 -0.170503,0 -0.127416,-0.01375 -0.241652,-0.08255 -0.347739,-0.154453 -0.106088,-0.0719 -0.211465,-0.149917 -0.334273,-0.186553 -0.08311,-0.02479 -0.170649,-0.02947 -0.25712,-0.03619 -0.08647,-0.0067 -0.174215,-0.01598 -0.254389,-0.04906 -0.08453,-0.03488 -0.156351,-0.0945 -0.222895,-0.157219 -0.06654,-0.06272 -0.129618,-0.129719 -0.203362,-0.183787 -0.19084,-0.13992 -0.435087,-0.181227 -0.670427,-0.205979 -0.23534,-0.02475 -0.477584,-0.03841 -0.693597,-0.135027 -0.174504,-0.07805 -0.326359,-0.208174 -0.511509,-0.255755 -0.105031,-0.02699 -0.217238,-0.02549 -0.321509,0.0043 -0.104271,0.02979 -0.200335,0.0878 -0.275252,0.166202 z"
     id="path14"
     transform="matrix(0.96059601,0,0,0.96059601,1.6575989,1.6222935)" />
  <metadata
     id="metadata15">
    <rdf:RDF>
      <cc:Work
         rdf:about="">
        <dc:title>Btn\</dc:title>
      </cc:Work>
    </rdf:RDF>
  </metadata>
</svg>
