<?xml version="1.0" encoding="UTF-8" standalone="no"?>
<!-- Created with Inkscape (http://www.inkscape.org/) -->

<svg
   width="50"
   height="50"
   viewBox="0 0 13.229166 13.229167"
   version="1.1"
   id="svg1"
   xml:space="preserve"
   inkscape:version="1.3.2 (091e20e, 2023-11-25, custom)"
   sodipodi:docname="sufler.svg"
   xmlns:inkscape="http://www.inkscape.org/namespaces/inkscape"
   xmlns:sodipodi="http://sodipodi.sourceforge.net/DTD/sodipodi-0.dtd"
   xmlns="http://www.w3.org/2000/svg"
   xmlns:svg="http://www.w3.org/2000/svg"><sodipodi:namedview
     id="namedview1"
     pagecolor="#ffffff"
     bordercolor="#000000"
     borderopacity="0.25"
     inkscape:showpageshadow="2"
     inkscape:pageopacity="0.0"
     inkscape:pagecheckerboard="0"
     inkscape:deskcolor="#d1d1d1"
     inkscape:document-units="mm"
     inkscape:zoom="5.911246"
     inkscape:cx="21.991979"
     inkscape:cy="44.068543"
     inkscape:window-width="2560"
     inkscape:window-height="1369"
     inkscape:window-x="-8"
     inkscape:window-y="-8"
     inkscape:window-maximized="1"
     inkscape:current-layer="layer1" /><defs
     id="defs1"><inkscape:path-effect
       effect="spiro"
       id="path-effect14"
       is_visible="true"
       lpeversion="1" /><inkscape:path-effect
       effect="spiro"
       id="path-effect13"
       is_visible="true"
       lpeversion="1" /><inkscape:path-effect
       effect="spiro"
       id="path-effect12"
       is_visible="true"
       lpeversion="1" /><inkscape:path-effect
       effect="spiro"
       id="path-effect11"
       is_visible="true"
       lpeversion="1" /><inkscape:path-effect
       effect="spiro"
       id="path-effect10"
       is_visible="true"
       lpeversion="1" /><inkscape:path-effect
       effect="spiro"
       id="path-effect9"
       is_visible="true"
       lpeversion="1" /><inkscape:path-effect
       effect="spiro"
       id="path-effect8"
       is_visible="true"
       lpeversion="1" /><inkscape:path-effect
       effect="spiro"
       id="path-effect5"
       is_visible="true"
       lpeversion="1" /><inkscape:path-effect
       effect="spiro"
       id="path-effect4"
       is_visible="true"
       lpeversion="1" /><inkscape:path-effect
       effect="spiro"
       id="path-effect3"
       is_visible="true"
       lpeversion="1" /><inkscape:path-effect
       effect="spiro"
       id="path-effect2"
       is_visible="true"
       lpeversion="1" /><inkscape:path-effect
       effect="spiro"
       id="path-effect1"
       is_visible="true"
       lpeversion="1" /></defs><g
     inkscape:label="Layer 1"
     inkscape:groupmode="layer"
     id="layer1"><path
       style="fill:#282a3f;fill-opacity:1;stroke:#282a3f;stroke-width:0.349999;stroke-dasharray:none;stroke-opacity:1"
       d="M 8.4147513,13.11448 C 8.2515657,13.242516 8.0474,13.317474 7.8401337,13.325446 c -0.2072663,0.008 -0.4165863,-0.05108 -0.5891244,-0.166206 -0.042199,-0.02816 -0.082271,-0.05957 -0.1259726,-0.08533 -0.043702,-0.02576 -0.091941,-0.04597 -0.1425834,-0.04895 -0.044778,-0.0026 -0.090184,0.0082 -0.1342779,0 -0.032956,-0.0061 -0.063014,-0.02261 -0.091532,-0.04023 -0.028519,-0.01762 -0.056401,-0.03678 -0.087505,-0.04929 -0.0492,-0.01978 -0.1034715,-0.0218 -0.1564793,-0.02326 -0.053008,-0.0015 -0.1071987,-0.0028 -0.156836,-0.0215 -0.031251,-0.01175 -0.059593,-0.02996 -0.089519,-0.04476 -0.1220533,-0.06036 -0.2648786,-0.06148 -0.4001478,-0.0459 -0.1352693,0.01557 -0.2693585,0.04655 -0.4055198,0.0459 -0.1828018,-8.72e-4 -0.3598595,-0.05853 -0.5394541,-0.09263 -0.089797,-0.01705 -0.1812555,-0.02828 -0.2725291,-0.02344 -0.091274,0.0048 -0.1826968,0.02629 -0.2622405,0.07131 -0.046831,0.02651 -0.088837,0.0607 -0.1342779,0.08952 -0.159868,0.101412 -0.3582772,0.132125 -0.5460539,0.107998 -0.1877766,-0.02413 -0.3659051,-0.09999 -0.5281698,-0.197518 -0.066756,-0.04012 -0.13392,-0.08504 -0.2109511,-0.09656 -0.038515,-0.0058 -0.078971,-0.0025 -0.1144178,0.01358 -0.035447,0.01613 -0.065373,0.04596 -0.077465,0.08298 -0.0054,0.01652 -0.00723,0.03404 -0.012751,0.05052 -0.00276,0.0082 -0.00647,0.01623 -0.01174,0.02314 -0.00527,0.0069 -0.012179,0.0127 -0.020269,0.01587 -0.011223,0.0044 -0.023903,0.0035 -0.035546,3.62e-4 -0.011643,-0.0031 -0.022606,-0.0083 -0.033918,-0.01248 -0.011312,-0.0042 -0.023326,-0.0073 -0.035318,-0.0061 -0.006,6.07e-4 -0.011918,0.0023 -0.017113,0.0054 -0.0052,0.0031 -0.00964,0.0075 -0.012383,0.01284 -0.00346,0.0068 -0.00408,0.01466 -0.00346,0.02224 6.159e-4,0.0076 0.00239,0.015 0.00346,0.02252 0.00369,0.02591 -0.00118,0.05285 -0.012972,0.07621 -0.011795,0.02336 -0.03038,0.04312 -0.052546,0.05704 -0.022166,0.01391 -0.047825,0.02203 -0.073903,0.02423 -0.026079,0.0022 -0.052548,-0.0015 -0.077339,-0.0098 -0.049581,-0.01678 -0.091584,-0.05214 -0.1221072,-0.09466 -0.030524,-0.04252 -0.050229,-0.09198 -0.063966,-0.142486 -0.00447,-0.01643 -0.00836,-0.0331 -0.014941,-0.04881 -0.00658,-0.01571 -0.016106,-0.03061 -0.029818,-0.04071 -0.013568,-0.01 -0.030209,-0.01462 -0.046189,-0.01997 -0.015979,-0.0053 -0.032319,-0.01204 -0.04333,-0.02479 -0.011064,-0.01282 -0.015261,-0.02997 -0.020026,-0.04622 -0.00238,-0.0081 -0.00501,-0.01622 -0.00888,-0.02375 -0.00387,-0.0075 -0.00906,-0.01451 -0.015857,-0.01955 -0.0062,-0.0046 -0.013581,-0.0074 -0.021168,-0.0088 -0.00759,-0.0014 -0.015385,-0.0014 -0.023053,-5.19e-4 -0.015336,0.0017 -0.030142,0.0065 -0.045298,0.0094 -0.038946,0.0074 -0.079499,0.0019 -0.1172516,-0.01024 -0.037752,-0.0121 -0.073115,-0.03055 -0.1079507,-0.04948 -0.034836,-0.01892 -0.069494,-0.03847 -0.1063871,-0.05298 -0.036893,-0.01451 -0.076429,-0.02391 -0.1160038,-0.02158 -0.037471,0.0022 -0.073537,0.01477 -0.1082256,0.02911 -0.034689,0.01434 -0.068732,0.03062 -0.1048339,0.0409 -0.036102,0.01028 -0.075032,0.01429 -0.1110506,0.0037 -0.018009,-0.0053 -0.035052,-0.01422 -0.048979,-0.0268 -0.013927,-0.01258 -0.024652,-0.02887 -0.029745,-0.04694 -0.0068,-0.02411 -0.00343,-0.04982 -0.00618,-0.07472 -0.00138,-0.01245 -0.00437,-0.02491 -0.010621,-0.03576 -0.00625,-0.01085 -0.016015,-0.02002 -0.027956,-0.0238 -0.00716,-0.0023 -0.014815,-0.0025 -0.022317,-0.0021 -0.007501,4.44e-4 -0.0149458,0.0016 -0.0224426,0.0021 -0.0306518,0.0021 -0.0616666,-0.0066 -0.087729,-0.02291 -0.0260624,-0.01627 -0.0472455,-0.03983 -0.0623203,-0.0666 -0.0301497,-0.05354 -0.0355381,-0.117947 -0.0289879,-0.179045 0.002782,-0.02595 0.007572,-0.05226 0.002785,-0.07791 -0.002393,-0.01282 -0.007262,-0.02534 -0.0153158,-0.03561 -0.008053,-0.01026 -0.0194453,-0.01815 -0.0322284,-0.02076 -0.0146556,-0.003 -0.0298332,9.74e-4 -0.0447593,0 -0.0146838,-9.58e-4 -0.0288652,-0.0068 -0.0406368,-0.01561 -0.0117716,-0.0088 -0.0211944,-0.02058 -0.0282054,-0.03352 -0.0140221,-0.02587 -0.0183663,-0.05581 -0.0206763,-0.08515 -0.0169993,-0.215903 0.0630692,-0.425889 0.10671363,-0.638018 0.0218222,-0.106064 0.0346399,-0.21521 0.0214972,-0.322696 -0.0131427,-0.107485 -0.0538877,-0.213795 -0.12821081,-0.292547 -0.0261155,-0.02767 -0.0559882,-0.05163 -0.0816478,-0.07973 -0.0256597,-0.0281 -0.0474727,-0.06161 -0.0526301,-0.09931 -0.00405,-0.0296 0.00241,-0.05974 0,-0.08952 -0.002722,-0.03364 -0.0166657,-0.06544 -0.0338844,-0.09447 -0.0172187,-0.02902 -0.0378239,-0.0559 -0.0556342,-0.08457 -0.0615363,-0.09904 -0.0879167,-0.217773 -0.0844142,-0.3343226 0.003502,-0.1165496 0.0358505,-0.231059 0.0844142,-0.3370667 0.0277918,-0.060666 0.0608472,-0.1187823 0.0895186,-0.1790372 C 0.55595064,9.131516 0.5978753,8.9861697 0.60219132,8.8382175 0.60650734,8.6902652 0.57186869,8.539587 0.49235268,8.4147443 0.46344124,8.3693524 0.42886385,8.32757 0.40283408,8.2804664 0.36169869,8.2060276 0.34332533,8.1199751 0.34512951,8.0349457 c 0.001804,-0.085029 0.023321,-0.1690435 0.0577046,-0.2468318 0.0260221,-0.058872 0.0592816,-0.1142808 0.0864113,-0.1726503 0.0271297,-0.058369 0.04831,-0.1210594 0.0478667,-0.1854241 -5.2513e-4,-0.076252 -0.0311128,-0.1487742 -0.0447593,-0.2237967 -0.0214075,-0.1176896 -7.5816e-4,-0.238456 0,-0.3580744 0.001544,-0.2435636 -0.0791558,-0.4788998 -0.13427794,-0.716149 -0.0955476,-0.4112426 -0.11417471,-0.8467957 0,-1.2532609 0.0293837,-0.1046068 0.067391,-0.2069369 0.0895186,-0.3133153 0.036666,-0.1762716 0.0286855,-0.3593671 0,-0.5371119 C 0.40651084,3.77377 0.32340244,3.5250877 0.31331521,3.26743 c -0.004258,-0.1087693 0.005607,-0.2214482 0.0560651,-0.3178995 0.0252292,-0.048226 0.060552,-0.091605 0.10490211,-0.1231529 0.0443501,-0.031548 0.0979233,-0.050874 0.15234798,-0.0513 0.0255602,-2.003e-4 0.051356,0.00367 0.0765459,-6.73e-4 0.0125949,-0.00217 0.0249779,-0.00646 0.0354259,-0.013822 0.0104481,-0.00736 0.0188633,-0.017956 0.0223062,-0.030264 0.004043,-0.014454 0.001084,-0.029789 0,-0.044759 -0.003441,-0.047532 0.0124265,-0.094363 0.0320924,-0.1377733 0.0196659,-0.04341 0.0434375,-0.085225 0.0574263,-0.1307825 0.0254597,-0.082915 0.0167084,-0.1729749 -0.006075,-0.2566652 -0.0227838,-0.08369 -0.0590266,-0.1629874 -0.0892028,-0.2443051 -0.0301761,-0.081318 -0.0545773,-0.166578 -0.0520365,-0.2532769 0.00127,-0.043349 0.0094,-0.086713 0.0262658,-0.126667 0.0168656,-0.039954 0.042641,-0.076431 0.0762895,-0.1037908 0.0166631,-0.013549 0.0351094,-0.024794 0.0516355,-0.03851 0.0165261,-0.013716 0.0314296,-0.030525 0.0378831,-0.051009 0.004512,-0.014321 0.004651,-0.029654 0.003559,-0.044629 -0.001092,-0.014975 -0.003374,-0.029877 -0.003559,-0.04489 -3.5194e-4,-0.028442 0.006935,-0.056783 0.0197551,-0.082175 0.0128199,-0.025392 0.0310769,-0.047874 0.0524052,-0.066694 0.0426565,-0.03764 0.0966823,-0.060217 0.15163627,-0.074927 0.095129,-0.025465 0.1944986,-0.029022 0.2927589,-0.0355684 0.09826,-0.006546 0.1979847,-0.0166176 0.2891122,-0.0539502 0.044225,-0.0181177 0.085688,-0.0423795 0.1295487,-0.0613617 0.04386,-0.0189822 0.091438,-0.0327642 0.1390072,-0.0281569 0.039456,0.003822 0.076593,0.0200397 0.1119566,0.0379519 0.035363,0.0179123 0.070006,0.0378432 0.1077226,0.0500436 0.037717,0.0122005 0.079643,0.016146 0.1165805,0.001758 0.018469,-0.007194 0.035308,-0.0189619 0.047446,-0.0346309 0.012138,-0.0156691 0.019391,-0.0353038 0.019128,-0.0551225 -9.94e-5,-0.007507 -0.00125,-0.0149579 -0.00179,-0.0224458 -5.478e-4,-0.007488 -4.744e-4,-0.0151566 0.00179,-0.0223135 0.00194,-0.006107 0.00545,-0.0116785 0.00996,-0.0162273 0.00451,-0.004549 0.010006,-0.008084 0.015929,-0.0105249 0.011847,-0.004881 0.025189,-0.005327 0.037795,-0.00303 0.025211,0.004594 0.047163,0.0194095 0.070595,0.0297822 0.063297,0.0280195 0.139885,0.0221326 0.1995433,-0.012975 0.059658,-0.0351076 0.1015767,-0.0979231 0.1137718,-0.16606222 0.00311,-0.0173569 0.00444,-0.0351845 0.010384,-0.0517854 0.00297,-0.0083 0.00711,-0.0162541 0.012851,-0.0229487 0.00574,-0.006695 0.013129,-0.0120952 0.021525,-0.0147846 0.00716,-0.002293 0.014813,-0.002572 0.022315,-0.002122 0.0075,4.5036e-4 0.014946,0.001609 0.022444,0.002122 0.033335,0.002281 0.066778,-0.00848 0.094913,-0.0265034 0.028135,-0.0180238 0.051293,-0.0429948 0.070714,-0.0701843 0.038843,-0.054379 0.063533,-0.11788848 0.1029284,-0.17186826 0.065535,-0.0897968 0.1695219,-0.14776515 0.2787813,-0.16827756 0.1092593,-0.0205124 0.2232649,-0.0055611 0.3283312,0.0307629 0.2101326,0.0726479 0.3810943,0.22485352 0.5566298,0.36131127 0.095584,0.0743051 0.1967911,0.14617809 0.3133151,0.17903727 0.086626,0.0244283 0.178085,0.026151 0.2679283,0.020759 0.089843,-0.005392 0.1792301,-0.0177141 0.2691835,-0.020759 0.2091472,-0.00708 0.4204723,0.0359377 0.6266304,0 0.1145228,-0.0199637 0.2232785,-0.0636803 0.3327274,-0.10285882 0.109449,-0.0391785 0.2224263,-0.0743939 0.3386624,-0.0761784 0.059725,-9.1696e-4 0.1197202,0.007025 0.1790374,0 0.093973,-0.0111291 0.1790782,-0.0587212 0.2685558,-0.0895186 0.086184,-0.0296638 0.1774142,-0.043861 0.2685558,-0.0447593 0.044764,-4.4122e-4 0.08957,0.002289 0.1342781,0 0.045058,-0.002307 0.089716,-0.009697 0.1347258,-0.012809 0.04501,-0.003112 0.091139,-0.001788 0.13383,0.012809 0.041,0.0140185 0.077159,0.0397578 0.1086974,0.0694708 0.031538,0.029713 0.058897,0.0635052 0.086878,0.0965899 0.027981,0.0330847 0.056884,0.065761 0.090875,0.0926342 0.033991,0.0268732 0.073581,0.0478789 0.1163836,0.0546202 0.044282,0.006974 0.089476,-0.001518 0.1342779,0 0.064156,0.002173 0.1258919,0.0248008 0.1840366,0.0520011 0.058145,0.0272003 0.1141097,0.0592714 0.174038,0.0822769 0.1424556,0.0546862 0.3051374,0.0546862 0.447593,0 0.087331,-0.0489664 0.176984,-0.0937927 0.268556,-0.13427795 0.099906,-0.04417 0.2042378,-0.0836511 0.3133151,-0.0895187 0.029804,-0.001603 0.059679,-6.7272e-4 0.089519,0 0.4975146,0.011216 0.9964806,-0.0498428 1.4770586,-0.17903727 0.07334,-0.0197169 0.146495,-0.0410609 0.22158,-0.0524686 0.07509,-0.0114077 0.152831,-0.012602 0.226012,0.007709 0.07753,0.0215188 0.147107,0.0664888 0.206053,0.12125665 0.05895,0.0547678 0.107978,0.119268 0.154042,0.18524016 0.09213,0.13194432 0.177614,0.27530551 0.311295,0.36489291 0.01795,0.012027 0.03669,0.023021 0.05311,0.037061 0.01642,0.01404 0.03064,0.031639 0.03641,0.052458 0.004,0.014445 0.0038,0.029714 0.0026,0.044659 -0.0011,0.014945 -0.0032,0.029881 -0.0026,0.04486 0.0013,0.035373 0.01704,0.069098 0.03898,0.096872 0.02194,0.027774 0.04987,0.050192 0.07854,0.070952 0.02867,0.020759 0.05841,0.04017 0.0853,0.063185 0.02689,0.023015 0.05113,0.050063 0.06573,0.082307 0.01273,0.028108 0.01767,0.059013 0.02246,0.089495 0.0048,0.030482 0.0097,0.061389 0.0223,0.089543 0.01208,0.026925 0.03091,0.050442 0.0526,0.070456 0.02168,0.020014 0.04622,0.036688 0.07132,0.05221 0.05019,0.031044 0.103871,0.058457 0.144638,0.1011313 0.04106,0.042979 0.0665,0.099488 0.07718,0.1579587 0.01068,0.058471 0.0072,0.1189073 -0.0045,0.1771977 -0.02325,0.1165809 -0.07793,0.2241277 -0.117482,0.3362333 -0.07758,0.2198942 -0.09646,0.4565353 -0.09147,0.6896591 0.005,0.2331239 0.03311,0.4650991 0.04671,0.6978797 0.01568,0.26859 0.01205,0.5386161 0.04476,0.8056678 0.01191,0.097252 0.02864,0.1940535 0.03401,0.2918854 0.0054,0.097832 -9.89e-4,0.1977389 -0.03401,0.2899858 -0.02397,0.066962 -0.06143,0.1284324 -0.08582,0.1952414 -0.0122,0.033404 -0.0211,0.06827 -0.02291,0.1037857 -0.0018,0.035516 0.0037,0.071791 0.01921,0.1038065 0.01159,0.023979 0.02876,0.045821 0.03409,0.071917 0.0027,0.013048 0.0021,0.027073 -0.0037,0.039078 -0.0029,0.006 -0.007,0.011423 -0.01227,0.015544 -0.0052,0.00412 -0.01154,0.00691 -0.01815,0.00774 -0.0075,9.335e-4 -0.01502,-6.334e-4 -0.02249,-0.00165 -0.0075,-0.00101 -0.01538,-0.00142 -0.02227,0.00165 -0.0038,0.00167 -0.007,0.00432 -0.0096,0.00752 -0.0026,0.0032 -0.0044,0.00695 -0.0056,0.010889 -0.0023,0.00787 -0.0019,0.016351 -6e-5,0.024357 0.0036,0.016013 0.01246,0.030573 0.01524,0.046752 0.0024,0.013871 1.22e-4,0.028309 -0.0051,0.041373 -0.0052,0.013064 -0.01334,0.02483 -0.02266,0.035383 -0.01863,0.021105 -0.04197,0.037492 -0.06175,0.057522 -0.03072,0.031108 -0.05227,0.070693 -0.06442,0.1126858 -0.01215,0.041993 -0.01512,0.086351 -0.01147,0.1299158 0.0073,0.087129 0.04038,0.169857 0.0759,0.2497509 0.07121,0.1601733 0.154872,0.3187361 0.179037,0.4923523 0.02074,0.1489805 -0.0031,0.3050013 0.04476,0.4475932 0.02561,0.076271 0.07094,0.1455149 0.08952,0.2237965 0.01398,0.058877 0.01217,0.1201511 0.01335,0.1806528 0.0012,0.060502 0.0058,0.1225742 0.03141,0.1774219 0.0316,0.067797 0.09169,0.1175448 0.134278,0.1790371 0.05065,0.07313 0.07549,0.1621031 0.0805,0.2509189 0.005,0.088816 -0.009,0.1777987 -0.03077,0.2640486 -0.04356,0.1724999 -0.118406,0.3378087 -0.139252,0.5144969 -0.01233,0.1044813 -0.0054,0.2101242 -0.0044,0.3153261 9.34e-4,0.1052018 -0.0045,0.2123695 -0.04032,0.3113043 -0.03407,0.094202 -0.0941,0.1767906 -0.134278,0.2685556 -0.07394,0.168883 -0.07571,0.369019 0,0.537112 0.0137,0.03042 0.02977,0.05971 0.04476,0.08952 0.06012,0.119517 0.10338,0.249436 0.109217,0.383094 0.0058,0.133659 -0.02799,0.271507 -0.109217,0.377814 -0.0513,0.06714 -0.119118,0.119457 -0.179037,0.179038 -0.03653,0.03632 -0.07048,0.07583 -0.09541,0.120909 -0.02494,0.04508 -0.04058,0.09616 -0.03887,0.147646 0.0025,0.07522 0.04126,0.145699 0.04364,0.220925 0.0012,0.03761 -0.0077,0.07688 -0.03194,0.105648 -0.01213,0.01438 -0.02797,0.0258 -0.04582,0.03174 -0.01785,0.0059 -0.03772,0.0062 -0.05539,-2.34e-4 -0.0077,-0.0028 -0.01505,-0.0069 -0.02315,-0.0082 -0.004,-6.45e-4 -0.0083,-5.62e-4 -0.01216,7.31e-4 -0.0039,0.0013 -0.0074,0.0039 -0.0095,0.0074 -0.0019,0.0033 -0.0024,0.0074 -0.002,0.01118 3.32e-4,0.0038 0.0014,0.0076 0.0025,0.01126 0.001,0.0037 0.0021,0.0075 0.0022,0.01129 1.85e-4,0.0038 -5.19e-4,0.0078 -0.0027,0.01103 -0.0022,0.0033 -0.0059,0.0055 -0.0098,0.0065 -0.0039,9.76e-4 -0.008,7.97e-4 -0.01191,4.6e-5 -0.0079,-0.0015 -0.01518,-0.0052 -0.02308,-0.0066 -0.0084,-0.0014 -0.01715,4e-6 -0.02495,0.0034 -0.0078,0.0034 -0.01468,0.0087 -0.02041,0.01503 -0.01147,0.01258 -0.01828,0.02863 -0.02446,0.04449 -0.0062,0.01586 -0.01207,0.03213 -0.02217,0.04584 -0.005,0.0069 -0.01114,0.01301 -0.01831,0.0176 -0.0072,0.0046 -0.01547,0.0075 -0.02397,0.0079 -0.0076,3.24e-4 -0.01502,-0.0014 -0.02252,-0.0023 -0.0075,-9.26e-4 -0.01544,-0.001 -0.02224,0.0023 -0.004,0.002 -0.0074,0.005 -0.01006,0.0086 -0.0026,0.0036 -0.0045,0.0077 -0.0058,0.01197 -0.0026,0.0085 -0.003,0.01755 -0.0036,0.02645 -6.49e-4,0.0089 -0.0017,0.01797 -0.0055,0.02602 -0.0019,0.004 -0.0045,0.0078 -0.0079,0.01069 -0.0034,0.0029 -0.0075,0.0051 -0.01188,0.0058 -0.0038,6.2e-4 -0.0078,1.77e-4 -0.01154,-6.39e-4 -0.0038,-8.17e-4 -0.0075,-0.002 -0.01126,-0.0029 -0.0038,-8.9e-4 -0.0077,-0.0015 -0.01153,-0.0011 -0.0039,3.97e-4 -0.0077,0.0019 -0.01043,0.0046 -0.0027,0.0028 -0.0042,0.0066 -0.0045,0.01046 -3.68e-4,0.0039 2.47e-4,0.0077 0.0011,0.01151 8.97e-4,0.0038 0.0021,0.0075 0.0029,0.01126 7.92e-4,0.0038 0.0012,0.0077 5.05e-4,0.01154 -7.59e-4,0.0042 -0.0029,0.0082 -0.0058,0.0113 -0.0029,0.0031 -0.0066,0.0055 -0.01065,0.007 -0.008,0.003 -0.01702,0.0026 -0.02531,4.35e-4 -0.0166,-0.0043 -0.03103,-0.01512 -0.04779,-0.01874 -0.01668,-0.0036 -0.03445,4.15e-4 -0.04924,0.0089 -0.01478,0.0085 -0.02678,0.02127 -0.03645,0.03534 -0.01934,0.02812 -0.02986,0.06148 -0.04859,0.09001 -0.03274,0.04988 -0.08895,0.08131 -0.147464,0.09294 -0.05852,0.01163 -0.119338,0.0051 -0.17738,-0.0087 -0.116085,-0.02761 -0.227224,-0.08418 -0.346547,-0.08422 -0.123518,-3.2e-5 -0.23802,0.06047 -0.358074,0.08952 -0.17491,0.04232 -0.357975,0.01716 -0.537112,0 -0.643099,-0.06159 -1.2963344,-0.01602 -1.9246502,0.134278 z"
       id="path14"
       inkscape:path-effect="#path-effect14"
       inkscape:original-d="m 8.4147513,13.11448 c -0.192252,0.01324 -0.9710419,0.108992 -1.163742,0.04476 -0.094949,-0.03165 -0.1704146,-0.11465 -0.268556,-0.134278 -0.04389,-0.0088 -0.090855,0.01086 -0.1342779,0 -0.038987,-0.0097 -0.1400508,-0.07977 -0.1790372,-0.08952 -0.1127998,-0.0282 -0.1907024,-0.02432 -0.3133153,-0.04476 -0.032908,-0.0055 -0.056805,-0.03822 -0.089519,-0.04476 -0.23969,-0.04794 -0.5564336,0 -0.8056676,0 -0.3278262,0 -0.7412212,-0.11876 -1.0742237,-0.04476 -0.052513,0.01167 -0.084331,0.06954 -0.1342779,0.08952 -0.1411663,0.05647 -0.9005062,-0.0678 -1.0742237,-0.08952 -0.071359,-0.0089 -0.3349389,-0.02263 -0.4028339,0 -0.031649,0.01055 -0.01492,0.0746 -0.044759,0.08952 -0.027024,0.01351 -0.1135872,-0.02069 -0.1342779,0 -0.01055,0.01055 0.013345,0.03809 0,0.04476 -0.092041,0.04602 -0.3364879,-0.02317 -0.4028338,-0.08952 -0.02359,-0.02359 -0.021169,-0.06593 -0.044759,-0.08952 -0.02359,-0.02359 -0.065928,-0.02117 -0.089519,-0.04476 -0.02359,-0.02359 -0.017001,-0.07101 -0.044759,-0.08952 -0.024828,-0.01655 -0.06057,0.0072 -0.089519,0 -0.1584157,-0.0396 -0.2731136,-0.114891 -0.4475932,-0.134278 -0.094492,-0.0105 -0.3108838,0.04597 -0.4028338,0 -0.096052,-0.04803 -0.00206,-0.04888 -0.044759,-0.134278 -0.00667,-0.01335 -0.0358075,0.01194 -0.0447593,0 -0.1984375,-0.264583 -0.0202872,-0.05689 -0.17903727,-0.268556 -0.0283083,-0.03774 -0.0113977,-0.100916 -0.0447593,-0.134278 -0.01055,-0.01055 -0.0342094,0.01055 -0.0447593,0 -0.0380381,-0.03804 -0.0654612,-0.08616 -0.0895186,-0.134277 -0.0844455,-0.168891 0.0739543,-1.031398 0,-1.253261 -0.0894204,-0.268262 0.0114517,0.112421 -0.13427795,-0.179038 -0.0133445,-0.02669 0.009436,-0.06121 0,-0.08952 -0.0198932,-0.05968 -0.0608625,-0.121725 -0.0895186,-0.179038 -0.0163597,-0.03272 -0.0109852,-0.6274486 0,-0.6713893 0.0161827,-0.064731 0.0684189,-0.115738 0.0895186,-0.1790372 0.0140391,-0.042117 0.0236709,-0.7675784 0,-0.8504272 -0.0147783,-0.051724 -0.06954,-0.084331 -0.0895186,-0.1342779 -0.0198086,-0.049521 -0.0128434,-0.4666651 0,-0.4923525 0.10502421,-0.2100482 0.0822193,0.00634 0.13427798,-0.3580744 0.0145357,-0.1017505 -0.005851,-0.1459806 -0.0447593,-0.2237967 -0.0433738,-0.086748 0.0117745,-0.2638793 0,-0.3580744 C 0.46186616,6.6042758 0.3827669,6.3789402 0.35807482,6.1320194 c -0.0311623,-0.3116231 -0.0343465,-0.9441426 0,-1.2532609 0.0831418,-0.7482768 0.004644,0.2808031 0.0895186,-0.3133153 0.0230603,-0.1614215 0.0202811,-0.3748627 0,-0.5371119 C 0.4262225,3.8573731 0.26695167,3.4065207 0.31331521,3.26743 0.33255016,3.2097252 0.5468744,2.8149555 0.62663043,2.7750775 0.65375728,2.761515 0.7421523,2.7490742 0.76090837,2.7303182 c 0.0105497,-0.010549 -0.004099,-0.030414 0,-0.044759 0.025923,-0.09073 0.0710129,-0.1760273 0.0895187,-0.2685558 0.0640698,-0.320349 -0.13564917,-0.6665905 -0.0447593,-0.984705 0.0115931,-0.040576 0.0706464,-0.051774 0.0895186,-0.089519 0.0133447,-0.026689 -0.0133446,-0.062829 0,-0.089519 C 0.91278704,1.2180594 1.0861169,1.051375 1.1189829,1.0294643 1.2673083,0.93058066 1.5365557,0.96048294 1.700854,0.93994564 c 0.093632,-0.011704 0.1754789,-0.0740058 0.2685559,-0.0895186 0.049643,-0.008274 0.3663648,0.036469 0.4028339,0 0.01055,-0.01055 -0.01055,-0.0342095 0,-0.0447593 0.03165,-0.0316496 0.091816,0.0141541 0.1342779,0 0.048493,-0.0161645 0.2993843,-0.16789249 0.3133151,-0.17903727 0.026051,-0.020841 0.021169,-0.0659284 0.04476,-0.0895186 0.010549,-0.01055 0.031414,0.006672 0.044759,0 0.1059264,-0.0529633 0.1695,-0.20251875 0.2685557,-0.26855592 0.1475476,-0.0983651 1.0101027,0.17258339 1.1637423,0.22379659 0.1210646,0.0403549 0.2121318,0.12844563 0.3133151,0.17903727 0.1010772,0.0505385 0.4204009,0 0.5371118,0 0.2035117,0 0.4258228,0.025101 0.6266304,0 0.182912,-0.022864 0.4906394,-0.11878715 0.6713898,-0.17903727 0.049969,-0.0166563 0.1292995,0.009948 0.1790374,0 0.1034225,-0.0206846 0.1721834,-0.0654255 0.2685558,-0.0895186 0.097812,-0.024453 0.1690566,-0.011593 0.2685558,-0.0447593 0.042462,-0.0141541 0.089519,0 0.1342781,0 0.089519,0 0.1884879,-0.0400339 0.2685558,0 0.1422776,0.0711388 0.2382713,0.25846103 0.402834,0.31331521 0.042462,0.0141541 0.090128,-0.007358 0.1342779,0 0.1258337,0.0209722 0.2381895,0.10430669 0.3580746,0.13427795 0.082908,0.0207272 0.4236447,0.005322 0.447593,0 0.1031055,-0.0687369 0.1450149,-0.11368781 0.268556,-0.13427795 0.2114955,-0.0352493 0.1205982,0.00684 0.3133151,-0.0895187 0.026689,-0.0133445 0.06057,0.007237 0.089519,0 0.5851336,-0.14628328 0.9140176,-0.17903727 1.4770586,-0.17903727 0.120631,0 0.321439,-0.10783601 0.447592,-0.0447593 0.325635,0.16281693 0.52415,0.37690866 0.67139,0.67138972 0.01887,0.037744 0.07065,0.051774 0.08952,0.089519 0.02442,0.048846 -0.02442,0.040672 0,0.089519 0.06306,0.126118 0.223018,0.1767012 0.268556,0.3133152 0.0646,0.1937908 -0.08557,-0.016451 0.04476,0.1790373 0.0652,0.097806 0.218225,0.1231351 0.268556,0.2237966 0.06567,0.1313402 -0.04476,0.5313038 -0.04476,0.6713897 0,0.4711491 0.104247,0.9405181 -0.04476,1.3875388 -0.06104,0.1831154 0.02206,0.6240798 0.04476,0.8056678 0.02121,0.1696641 0.01866,0.4139356 0,0.5818712 -0.0155,0.1395095 -0.05701,0.2728161 -0.08952,0.4028336 -0.01086,0.043423 0.03165,0.1026285 0,0.1342779 -0.01055,0.010549 -0.03809,-0.013346 -0.04476,0 -0.01335,0.026689 0.0094,0.061211 0,0.089519 -0.0091,0.027315 -0.08041,0.1069628 -0.08952,0.1342779 -0.02937,0.088111 -0.01379,0.4096133 0,0.4923525 0.02796,0.1677765 0.125522,0.331805 0.179037,0.4923523 0.04973,0.1491977 0.02302,0.2954496 0.04476,0.4475932 0.01136,0.079538 0.07003,0.14585 0.08952,0.2237965 0.0292,0.1168167 0.0061,0.2422028 0.04476,0.3580747 0.02762,0.082863 0.113848,0.015597 0.134278,0.1790371 0.03956,0.3164827 0.0073,0.73908 -0.08952,1.0294644 -0.03527,0.1058249 -0.0035,0.5441032 -0.04476,0.6266304 -0.05561,0.1112146 -0.134278,0.1186656 -0.134278,0.2685556 0,0.154633 -0.04904,0.389998 0,0.537112 0.01055,0.03165 0.03822,0.05681 0.04476,0.08952 0.01614,0.0807 0.0234,0.714117 0,0.760908 -0.03581,0.07161 -0.14323,0.107422 -0.179037,0.179038 -0.03343,0.06686 -0.111192,0.199298 -0.134278,0.268555 -0.0019,0.0057 -0.05,0.318555 -0.08952,0.358075 -0.01055,0.01055 -0.03421,-0.01055 -0.04476,0 -0.01055,0.01055 0.01055,0.03421 0,0.04476 -0.01055,0.01055 -0.03141,-0.0067 -0.04476,0 -0.05371,0.02686 -0.08057,0.107423 -0.134278,0.134278 -0.01335,0.0067 -0.03421,-0.01055 -0.04476,0 -0.02359,0.02359 -0.02117,0.06593 -0.04476,0.08952 -0.01055,0.01055 -0.03421,-0.01055 -0.04476,0 -0.01055,0.01055 0.01055,0.03421 0,0.04476 -0.0211,0.0211 -0.06842,-0.0211 -0.08952,0 -0.0516,0.0516 0.0026,0.08865 -0.134278,0.134278 -0.202565,0.06752 -0.463201,-0.05205 -0.671391,0 -0.120364,0.03009 -0.237709,0.05943 -0.358074,0.08952 -0.156434,0.03911 -0.375102,0 -0.537112,0 -0.6324239,0 -1.3375681,-0.100555 -1.9246502,0.134278 z"
       transform="matrix(1.0002692,0,0,0.97997161,-0.04657332,8.2979374e-5)" /><path
       style="fill:#f4a618;fill-opacity:1;stroke:#f4a618;stroke-width:0.35;stroke-opacity:1;stroke-dasharray:none"
       d="m 5.2368399,7.9223991 c -0.089674,0.2007727 -0.277798,0.3546922 -0.4923523,0.4028336 -0.016768,0.00376 -0.033787,0.00695 -0.049707,0.013421 -0.01592,0.00647 -0.030929,0.016628 -0.039812,0.031338 -0.00892,0.014775 -0.010872,0.032551 -0.015398,0.049207 -0.00226,0.00833 -0.00525,0.016553 -0.00998,0.023769 -0.00473,0.00722 -0.011338,0.013404 -0.019376,0.016544 -0.00714,0.00279 -0.01506,0.00306 -0.02267,0.00211 -0.00761,-9.51e-4 -0.015015,-0.00307 -0.02245,-0.00495 -0.00744,-0.00188 -0.015006,-0.00353 -0.022674,-0.0035 -0.00767,2.5e-5 -0.015517,0.00184 -0.021725,0.00634 -0.00645,0.00468 -0.010707,0.011999 -0.01261,0.01974 -0.0019,0.00774 -0.0016,0.015893 -1.735e-4,0.023736 0.00284,0.015687 0.010017,0.030343 0.012783,0.046043 0.00257,0.01457 0.00122,0.029735 -0.00326,0.043834 -0.00448,0.014099 -0.01205,0.027142 -0.021573,0.038465 -0.019045,0.022646 -0.045472,0.038099 -0.07315,0.048562 -0.055357,0.020925 -0.1168143,0.023424 -0.1705688,0.048176 -0.048309,0.022245 -0.087035,0.060972 -0.1210977,0.1018179 -0.034063,0.040846 -0.064724,0.084743 -0.1026991,0.1219786 -0.089664,0.087916 -0.2120805,0.1317017 -0.324173,0.1883067 -0.056046,0.028303 -0.1106714,0.060623 -0.1569525,0.1030527 -0.046281,0.04243 -0.084068,0.095702 -0.1007456,0.1562338 -0.00633,0.022975 -0.00957,0.046691 -0.015286,0.069826 -0.00572,0.023135 -0.014196,0.046161 -0.029473,0.064452 -0.013694,0.016395 -0.03204,0.028069 -0.049009,0.041046 -0.016969,0.012977 -0.033379,0.028336 -0.04051,0.048473 -0.00502,0.014172 -0.00502,0.029619 -0.00372,0.044597 0.0013,0.014978 0.00385,0.029889 0.00372,0.044922 -1.832e-4,0.022165 -0.00622,0.044033 -0.01557,0.064129 -0.00935,0.020096 -0.021968,0.038524 -0.035708,0.055918 -0.02748,0.034788 -0.05978,0.065986 -0.083,0.1037504 -0.017482,0.028433 -0.029378,0.059896 -0.044759,0.089519 -0.022459,0.04325 -0.052158,0.08224 -0.079367,0.122675 -0.027209,0.04043 -0.052355,0.08327 -0.064048,0.130582 -0.00585,0.02366 -0.00823,0.04828 -0.00564,0.07252 0.00259,0.02423 0.010243,0.04806 0.023416,0.06856 0.013173,0.0205 0.031975,0.03756 0.054233,0.04748 0.022259,0.0099 0.047965,0.01244 0.071403,0.0058 0.021781,-0.0062 0.04093,-0.02 0.055779,-0.0371 0.014849,-0.0171 0.025628,-0.0374 0.034058,-0.05842 0.016861,-0.04204 0.024789,-0.08747 0.04444,-0.128279 0.032324,-0.06712 0.093045,-0.115485 0.1527709,-0.160016 0.059726,-0.04453 0.1221473,-0.08946 0.1605445,-0.1532988 0.017201,-0.0286 0.028979,-0.060111 0.044759,-0.089519 0.035449,-0.066066 0.090752,-0.120312 0.1540402,-0.1605099 0.063289,-0.040198 0.134438,-0.066862 0.2071545,-0.085127 0.1454329,-0.036531 0.2970693,-0.040158 0.444473,-0.067679 0.1347308,-0.025155 0.2697141,-0.072751 0.3701442,-0.1660191 0.050215,-0.046634 0.090812,-0.1043143 0.1136353,-0.1689315 0.022823,-0.064617 0.027329,-0.1362484 0.00857,-0.2021612 -0.00428,-0.015035 -0.00976,-0.029869 -0.011402,-0.045414 -8.225e-4,-0.00777 -6.628e-4,-0.015698 0.00109,-0.023314 0.00175,-0.00762 0.00515,-0.014925 0.010311,-0.020791 0.00815,-0.00926 0.020185,-0.01436 0.032323,-0.016579 0.012138,-0.00222 0.024576,-0.00184 0.036915,-0.00184 0.012339,-2.2e-6 0.024869,-4.243e-4 0.036631,-0.00415 0.00588,-0.00186 0.011529,-0.00456 0.016466,-0.00826 0.00494,-0.0037 0.00915,-0.00843 0.011943,-0.013927 0.00275,-0.00541 0.00407,-0.011478 0.00428,-0.017542 2.033e-4,-0.00606 -6.948e-4,-0.012129 -0.00222,-0.018 -0.00305,-0.011743 -0.00856,-0.022671 -0.013115,-0.033917 -0.00455,-0.011246 -0.00822,-0.023231 -0.00727,-0.035327 4.74e-4,-0.00605 0.00213,-0.012048 0.00521,-0.017276 0.00308,-0.00523 0.00762,-0.00965 0.013118,-0.012217 0.00685,-0.00319 0.014726,-0.00336 0.022245,-0.0026 0.00752,7.624e-4 0.014958,0.0024 0.022514,0.0026 0.011337,3.077e-4 0.02266,-0.00266 0.032719,-0.0079 0.010058,-0.00524 0.018877,-0.012701 0.026247,-0.021321 0.01474,-0.01724 0.023555,-0.038722 0.030553,-0.060297 0.021865,-0.067411 0.028488,-0.1398825 0.058721,-0.2039781 0.015117,-0.032048 0.036387,-0.061812 0.065005,-0.082706 0.028619,-0.020894 0.065085,-0.032255 0.1000703,-0.026632 0.00754,0.00121 0.014957,0.00318 0.022559,0.00386 0.0076,6.79e-4 0.015595,-3.83e-5 0.0222,-0.00386 0.0039,-0.00226 0.0072,-0.00556 0.00945,-0.00946 0.00225,-0.00391 0.00346,-0.00841 0.00346,-0.012917 0,-0.00451 -0.00121,-0.00901 -0.00346,-0.012917 -0.00225,-0.00391 -0.00555,-0.0072 -0.00945,-0.00946 0.00926,-0.01942 0.025339,-0.035502 0.044759,-0.044759 0.015408,-0.00734 0.032463,-0.010386 0.048637,-0.01584 0.00809,-0.00273 0.016014,-0.00609 0.023148,-0.010775 0.00713,-0.00469 0.01347,-0.010751 0.017735,-0.018143 0.0039,-0.00677 0.00599,-0.014568 0.00599,-0.022379 0,-0.00781 -0.00209,-0.015613 -0.00599,-0.022379 0.025879,-0.033477 0.056041,-0.063639 0.089518,-0.089519 0.059166,-0.045739 0.1290932,-0.078616 0.1790372,-0.1342779 0.026309,-0.029321 0.046193,-0.064096 0.073781,-0.092218 0.013794,-0.014061 0.029591,-0.026433 0.047591,-0.034433 0.018,-0.008 0.038342,-0.011441 0.057666,-0.00763 0.014399,0.00284 0.027907,0.00964 0.039241,0.018965 0.011334,0.00932 0.020527,0.021124 0.027453,0.034064 0.013851,0.025879 0.018531,0.055775 0.019037,0.085123 5.067e-4,0.029349 -0.00293,0.058607 -0.0043,0.087929 -0.00137,0.029321 -5.868e-4,0.059192 0.00809,0.087235 0.012969,0.041932 0.042369,0.076409 0.070183,0.110363 0.027814,0.033954 0.055567,0.070378 0.064095,0.1134334 0.00872,0.044015 -0.00377,0.089567 0,0.1342779 0.00425,0.050319 0.028765,0.096604 0.056146,0.1390342 0.027381,0.04243 0.058349,0.083061 0.078132,0.1295219 0.026663,0.06262 0.031487,0.132582 0.026902,0.200488 -0.00459,0.067906 -0.018158,0.1348492 -0.026902,0.2023459 -0.04421,0.3412805 0.035596,0.6854541 0.044759,1.0294642 7.947e-4,0.02983 0.00106,0.05969 0,0.08952 -0.00297,0.08379 -0.016329,0.166976 -0.018731,0.250785 -0.0024,0.08381 0.00693,0.170308 0.04626,0.244353 0.019665,0.03702 0.04677,0.07039 0.080576,0.09518 0.033806,0.02479 0.074443,0.04076 0.1163005,0.04308 0.041857,0.0023 0.084775,-0.0094 0.1181625,-0.03478 0.033387,-0.02535 0.056542,-0.06451 0.060266,-0.106264 0.00133,-0.01487 2.732e-4,-0.02983 0,-0.04476 -0.00238,-0.129925 0.054957,-0.255147 0.1342779,-0.358075 0.032979,-0.04279 0.070526,-0.0837 0.089519,-0.134278 0.015888,-0.04231 0.017619,-0.08867 0.014351,-0.13375 -0.00327,-0.04508 -0.01133,-0.089711 -0.014351,-0.1348056 -0.00726,-0.10841 0.014798,-0.2169068 0.047078,-0.3206543 0.032279,-0.1037475 0.074764,-0.2040174 0.1099827,-0.3068044 0.035218,-0.102787 0.063334,-0.209337 0.065342,-0.3179715 0.00201,-0.1086345 -0.023831,-0.2202416 -0.088125,-0.3078306 -0.010064,-0.01371 -0.021036,-0.026813 -0.029742,-0.041423 -0.00871,-0.01461 -0.015141,-0.031089 -0.015017,-0.048096 8.93e-5,-0.01223 0.00355,-0.024186 0.00773,-0.03568 0.00418,-0.011494 0.00911,-0.022741 0.012339,-0.034538 0.00323,-0.011797 0.00469,-0.024367 0.00181,-0.036252 -0.00144,-0.00594 -0.00398,-0.01165 -0.00768,-0.01652 -0.0037,-0.00487 -0.00858,-0.00888 -0.014201,-0.011289 -0.00695,-0.00297 -0.014735,-0.00341 -0.022271,-0.00285 -0.00754,5.627e-4 -0.01497,0.00208 -0.022488,0.00285 -0.032874,0.00337 -0.066519,-0.00806 -0.092252,-0.028795 -0.025733,-0.020734 -0.043736,-0.050253 -0.052999,-0.081974 -0.00926,-0.031721 -0.010079,-0.065558 -0.00506,-0.098222 0.00502,-0.032663 0.01574,-0.064246 0.029129,-0.094459 0.026777,-0.060426 0.064155,-0.1156407 0.091764,-0.1756908 0.013804,-0.030025 0.02517,-0.061351 0.031088,-0.093863 0.00592,-0.032512 0.00627,-0.066309 -0.00167,-0.098386 -0.00572,-0.023103 -0.01567,-0.045167 -0.019158,-0.06871 -0.00174,-0.011772 -0.00182,-0.023913 0.00109,-0.035452 0.00291,-0.011538 0.00895,-0.022464 0.018069,-0.030116 0.012055,-0.01012 0.028578,-0.013768 0.044281,-0.012698 0.015703,0.00107 0.03079,0.00645 0.045238,0.012698 0.07192,0.031087 0.1324578,0.084234 0.1832167,0.14392 0.050759,0.059686 0.092681,0.1262317 0.1363646,0.1912747 0.043683,0.065043 0.089722,0.1292979 0.1471582,0.1825892 0.057436,0.053291 0.1274541,0.095447 0.2046505,0.1088465 0.07364,0.012782 0.1490623,-0.001 0.2237965,0 0.090999,0.00122 0.1800962,0.024335 0.2683174,0.046679 0.088221,0.022344 0.1777979,0.044205 0.2687944,0.04284 0.03823,-5.735e-4 0.077474,-0.00513 0.1139485,0.00633 0.018237,0.00573 0.035482,0.015633 0.047878,0.030187 0.012396,0.014554 0.019548,0.034026 0.017211,0.052999 -0.00167,0.013528 -0.00808,0.026334 -0.017491,0.036191 -0.00941,0.00986 -0.021738,0.016789 -0.034909,0.020296 -0.013171,0.00351 -0.027155,0.00364 -0.040524,9.873e-4 -0.013369,-0.00266 -0.026127,-0.00807 -0.037668,-0.015318 C 8.6639121,8.4871672 8.6459911,8.465622 8.6316159,8.4424601 8.6172408,8.4192982 8.6060821,8.3943229 8.5937888,8.369992 8.5030853,8.1904716 8.353032,8.0496813 8.2171264,7.90141 8.1491736,7.8272743 8.0838944,7.7500805 8.030946,7.6645811 7.9779976,7.5790817 7.9375006,7.4847137 7.9223991,7.3852872 7.9123525,7.319142 7.91337,7.2504608 7.8902482,7.1876793 c -0.011561,-0.031391 -0.029382,-0.061009 -0.054754,-0.08281 -0.025372,-0.021801 -0.058762,-0.035224 -0.092132,-0.032898 -0.031228,0.00218 -0.060999,0.01828 -0.080871,0.042468 -0.019872,0.024187 -0.029858,0.056004 -0.028613,0.087283 0.00124,0.031279 0.013473,0.061822 0.033193,0.086134 0.019719,0.024312 0.046713,0.042422 0.076292,0.05267 0.029263,0.010139 0.060498,0.012684 0.091163,0.01702 0.030664,0.00434 0.061906,0.010867 0.087875,0.027739 0.017744,0.011528 0.03221,0.027372 0.045997,0.043424 0.013787,0.016052 0.027218,0.032606 0.043522,0.046095 0.035795,0.029615 0.082948,0.042265 0.1292591,0.04596 0.046311,0.0037 0.092841,-7.44e-4 0.1392966,-0.0012 0.0973,-9.576e-4 0.1969503,0.015308 0.2904852,-0.011514 0.046767,-0.013411 0.09128,-0.038193 0.1220683,-0.075864 0.015394,-0.018836 0.02718,-0.04073 0.033531,-0.064213 0.00635,-0.023483 0.00718,-0.048551 0.00151,-0.072206 -0.00181,-0.00753 -0.00427,-0.014945 -0.00504,-0.022648 -3.851e-4,-0.00385 -3.393e-4,-0.00777 4.253e-4,-0.011562 7.646e-4,-0.00379 0.00227,-0.00747 0.00461,-0.01055 0.00238,-0.00313 0.0056,-0.00558 0.00915,-0.00726 0.00356,-0.00168 0.00745,-0.00259 0.011369,-0.00289 0.00784,-6.029e-4 0.01567,0.0012 0.023176,0.00355 0.00751,0.00235 0.014854,0.00525 0.022529,0.00696 0.00768,0.00171 0.015846,0.00217 0.023291,-3.602e-4 0.0082,-0.00279 0.014906,-0.00905 0.019517,-0.016375 0.00461,-0.00733 0.0073,-0.015704 0.0093,-0.024131 0.002,-0.00843 0.00335,-0.017 0.00554,-0.025378 0.00219,-0.00838 0.00529,-0.016649 0.010402,-0.023636 0.00627,-0.00857 0.015395,-0.014845 0.025353,-0.018534 0.00996,-0.00369 0.020727,-0.00488 0.031335,-0.00442 0.021217,9.258e-4 0.041538,0.00826 0.061929,0.0142 0.020391,0.00594 0.042015,0.010539 0.062741,0.00591 0.010363,-0.00232 0.020309,-0.007 0.02808,-0.01424 0.00777,-0.00724 0.013245,-0.017116 0.014359,-0.027677 7.89e-4,-0.00748 -5.72e-4,-0.014994 -0.00145,-0.022465 -8.754e-4,-0.00747 -0.00123,-0.015265 0.00145,-0.022294 0.00217,-0.00571 0.00629,-0.010601 0.011328,-0.014063 0.00504,-0.00346 0.010964,-0.00553 0.017017,-0.00638 0.012107,-0.00169 0.024394,0.00142 0.035821,0.00577 0.011427,0.00434 0.022385,0.00994 0.034067,0.013543 0.011682,0.0036 0.024485,0.00511 0.036044,0.00113 0.010137,-0.00349 0.018481,-0.010896 0.025381,-0.0191 0.0069,-0.0082 0.012626,-0.017332 0.019377,-0.025659 0.017858,-0.022027 0.042692,-0.037944 0.069588,-0.046928 0.026896,-0.00898 0.055788,-0.011227 0.08402,-0.00857 0.056463,0.00532 0.1092496,0.029603 0.1597073,0.055495 0.093831,0.048149 0.1841324,0.1031378 0.2794528,0.1482659 0.09532,0.045128 0.1970054,0.080547 0.3023124,0.08628 0.105308,0.00573 0.215048,-0.020583 0.296437,-0.087653 0.04069,-0.033535 0.07364,-0.076838 0.09301,-0.12588 0.01938,-0.049042 0.02489,-0.1038079 0.01349,-0.1552924 -0.01779,-0.080348 -0.07488,-0.1473001 -0.141375,-0.195788 -0.06649,-0.048488 -0.142785,-0.081346 -0.2167,-0.1175273 C 9.9364343,6.4480959 9.6921715,6.2685638 9.4164597,6.1524796 9.2786037,6.0944375 9.1326199,6.0525921 8.9832896,6.0440132 c -0.1493303,-0.00858 -0.3024422,0.017322 -0.4342601,0.088013 -0.048192,0.025844 -0.09312,0.05735 -0.1405779,0.084519 -0.047458,0.027169 -0.098394,0.050252 -0.1526531,0.057064 -0.027129,0.00341 -0.054899,0.00265 -0.081514,-0.00361 -0.026615,-0.00626 -0.052056,-0.018131 -0.073093,-0.035597 -0.021037,-0.017466 -0.037546,-0.040621 -0.0459,-0.066656 -0.00835,-0.026035 -0.00831,-0.054911 0.00139,-0.080475 0.00764,-0.020141 0.020977,-0.037797 0.03676,-0.052458 0.015783,-0.014661 0.033997,-0.026476 0.052759,-0.037061 0.029062,-0.016396 0.059598,-0.02999 0.089519,-0.04476 C 8.4373151,5.8534684 8.6119756,5.6979308 8.7280667,5.505396 8.7937793,5.3964131 8.840339,5.2772316 8.8919858,5.1609215 c 0.051647,-0.11631 0.109645,-0.2317658 0.1941553,-0.3269153 0.043394,-0.048857 0.093236,-0.091719 0.135991,-0.1411354 0.042755,-0.049417 0.078997,-0.1074309 0.087806,-0.1721799 0.00596,-0.043783 -8.743e-4,-0.088765 0.00723,-0.1322012 0.00405,-0.021718 0.012035,-0.043088 0.025969,-0.060232 0.013935,-0.017144 0.034286,-0.029713 0.056318,-0.031363 0.014909,-0.00112 0.030048,0.00267 0.044759,0 0.00865,-0.00157 0.016843,-0.00536 0.023914,-0.010585 0.00707,-0.00523 0.013043,-0.01187 0.017874,-0.019217 0.00966,-0.014695 0.014702,-0.031951 0.018041,-0.049219 0.00334,-0.017268 0.00511,-0.034826 0.00894,-0.051992 0.00383,-0.017166 0.00988,-0.034202 0.020755,-0.048024 0.013315,-0.016923 0.032689,-0.027704 0.050273,-0.040131 0.00879,-0.00621 0.017287,-0.012977 0.024335,-0.021116 0.00705,-0.00814 0.012625,-0.017751 0.014911,-0.028272 0.00321,-0.01478 -2.052e-4,-0.030073 -0.00272,-0.044988 -0.00125,-0.00746 -0.00229,-0.014992 -0.00214,-0.022553 1.482e-4,-0.00756 0.00152,-0.01519 0.00485,-0.021977 0.00379,-0.0077 0.00999,-0.014047 0.017105,-0.018844 0.00711,-0.0048 0.015129,-0.00812 0.023303,-0.010724 0.016348,-0.00522 0.033649,-0.00775 0.049111,-0.015191 0.022114,-0.010646 0.038712,-0.03074 0.048844,-0.053095 0.010132,-0.022354 0.014315,-0.046952 0.016453,-0.071402 0.00214,-0.02445 0.00233,-0.049053 0.00496,-0.073455 0.00263,-0.024402 0.00781,-0.048896 0.019266,-0.070604 0.012685,-0.024045 0.032365,-0.043488 0.050215,-0.063993 0.017849,-0.020505 0.034597,-0.04351 0.039303,-0.070285 0.00259,-0.014736 0.00138,-0.029845 1.19e-4,-0.044754 -0.00126,-0.014909 -0.00255,-0.030001 -1.19e-4,-0.044765 0.00368,-0.02231 0.0157,-0.04251 0.030374,-0.059713 0.014673,-0.017203 0.032049,-0.031849 0.048611,-0.047243 0.016561,-0.015394 0.032565,-0.031856 0.043613,-0.051584 0.01105,-0.019728 0.01679,-0.04323 0.01168,-0.065256 -0.0038,-0.016209 -0.0131,-0.030724 -0.0167,-0.046968 -0.0018,-0.00812 -0.0021,-0.016753 5.07e-4,-0.024653 0.0013,-0.00395 0.0033,-0.00768 0.0061,-0.010802 0.0027,-0.00312 0.0062,-0.00563 0.01012,-0.0071 0.0071,-0.00265 0.01489,-0.00174 0.02233,-5.946e-4 0.0074,0.00114 0.01513,0.00248 0.02243,5.946e-4 0.0063,-0.00163 0.01191,-0.00565 0.01594,-0.010788 0.004,-0.00514 0.0066,-0.011358 0.0078,-0.01776 0.0026,-0.012805 3.26e-4,-0.026029 -0.0019,-0.038903 -0.0022,-0.012875 -0.0043,-0.026136 -0.0016,-0.038897 0.0014,-0.00638 0.004,-0.012551 0.0082,-0.017594 0.0041,-0.00504 0.0099,-0.00891 0.01622,-0.010335 0.0074,-0.00165 0.01502,-2.72e-5 0.02248,0.0012 0.0037,6.131e-4 0.0075,0.00113 0.01127,0.00108 0.0038,-5.04e-5 0.0076,-6.835e-4 0.01102,-0.00228 0.0037,-0.0017 0.0068,-0.00448 0.0091,-0.0078 0.0023,-0.00332 0.0038,-0.00716 0.0046,-0.011125 0.0016,-0.00793 2.86e-4,-0.016184 -0.002,-0.023936 -0.0023,-0.00775 -0.0056,-0.015172 -0.0082,-0.022846 -0.0026,-0.00767 -0.0044,-0.015769 -0.0036,-0.023816 0.0011,-0.01084 0.0069,-0.020788 0.01454,-0.028577 0.0076,-0.00779 0.01696,-0.013656 0.0264,-0.019085 0.0094,-0.00543 0.01913,-0.010528 0.02783,-0.017084 0.0087,-0.00656 0.01648,-0.014747 0.02074,-0.024772 0.0059,-0.013876 0.0045,-0.029673 0.0023,-0.044586 -0.0022,-0.014913 -0.0052,-0.030142 -0.0023,-0.044933 0.0022,-0.01097 0.0077,-0.021257 0.01559,-0.029166 0.0079,-0.00791 0.0182,-0.013409 0.02917,-0.015593 0.0078,-0.032756 0.02321,-0.063663 0.04476,-0.089519 0.02528,-0.03032 0.05816,-0.053133 0.08984,-0.076669 0.03169,-0.023537 0.0632,-0.048849 0.08412,-0.082327 0.01046,-0.016739 0.01808,-0.035411 0.02088,-0.054947 0.0028,-0.019536 6.48e-4,-0.039956 -0.0075,-0.05793 -0.0082,-0.017974 -0.02249,-0.03333 -0.04048,-0.041448 -0.01799,-0.00812 -0.03957,-0.00858 -0.05734,5.9e-6 -0.0096,0.00464 -0.01788,0.011683 -0.02508,0.019551 -0.0072,0.00787 -0.0134,0.016583 -0.01968,0.025208 -0.09335,0.12834 -0.206304,0.2408814 -0.313315,0.3580746 C 9.9559775,2.7666034 9.8471815,2.8987687 9.7575311,3.0436335 9.6549334,3.2094198 9.5765773,3.3928366 9.4442157,3.5359861 c -0.04298,0.046483 -0.091069,0.088008 -0.1342779,0.1342779 -0.082927,0.088801 -0.1476601,0.1959356 -0.1790372,0.3133151 -0.010509,0.039311 -0.017532,0.080281 -0.037316,0.11584 -0.00989,0.017779 -0.023021,0.034011 -0.039669,0.045707 -0.016648,0.011696 -0.03698,0.018639 -0.057294,0.017491 -0.00754,-4.261e-4 -0.014972,-0.00194 -0.022493,-0.00258 -0.00752,-6.468e-4 -0.015325,-3.811e-4 -0.022267,0.00258 -0.00582,0.00249 -0.010776,0.0068 -0.014442,0.011954 -0.00367,0.00516 -0.00608,0.011144 -0.00749,0.017313 -0.00282,0.012338 -0.00171,0.025194 -5.696e-4,0.037799 0.00114,0.012606 0.00228,0.025456 -4.941e-4,0.037805 -0.00139,0.00617 -0.00377,0.01217 -0.0074,0.017351 -0.00363,0.00518 -0.00856,0.00952 -0.014359,0.012056 -0.00692,0.00302 -0.014735,0.00336 -0.022263,0.00273 -0.00753,-6.287e-4 -0.014961,-0.00217 -0.022496,-0.00273 -0.017139,-0.00127 -0.034495,0.00264 -0.049914,0.010231 -0.015419,0.00759 -0.028937,0.018772 -0.040103,0.031835 -0.022334,0.026127 -0.035037,0.0591 -0.044261,0.092211 -0.01564,0.056146 -0.02266,0.1152016 -0.047371,0.1679871 -0.012356,0.026393 -0.02925,0.051039 -0.051717,0.069599 -0.022467,0.018561 -0.050808,0.030724 -0.079949,0.030969 -0.014954,1.258e-4 -0.030071,-0.00281 -0.044759,0 -0.010489,0.00201 -0.020331,0.00693 -0.028608,0.013683 -0.00828,0.00675 -0.015015,0.015284 -0.020188,0.024627 -0.010345,0.018686 -0.014367,0.040221 -0.016184,0.061502 -0.00182,0.021281 -0.00158,0.042725 -0.00414,0.063929 -0.00256,0.021204 -0.00815,0.04256 -0.020398,0.060056 -0.01221,0.017439 -0.030126,0.029855 -0.04707,0.042744 -0.016944,0.012888 -0.03382,0.027314 -0.042449,0.046775 -0.00886,0.019987 -0.00792,0.043014 -0.00354,0.064433 0.00439,0.021419 0.012011,0.042083 0.016172,0.063548 0.00416,0.021464 0.0046,0.044575 -0.00488,0.064274 -0.00474,0.00985 -0.011966,0.018612 -0.021195,0.024472 -0.00923,0.00586 -0.020503,0.00868 -0.031315,0.00707 -0.00782,-0.00117 -0.015164,-0.00455 -0.022951,-0.00592 -0.00389,-6.88e-4 -0.00793,-8.632e-4 -0.011783,5.2e-6 -0.00386,8.684e-4 -0.00754,0.00284 -0.010024,0.00592 -0.00241,0.00299 -0.00358,0.00684 -0.00382,0.010671 -2.442e-4,0.00383 3.752e-4,0.00767 0.00121,0.011413 8.359e-4,0.00375 0.00189,0.00745 0.00254,0.011231 6.483e-4,0.00378 8.818e-4,0.00769 6.98e-5,0.011445 -9.473e-4,0.00438 -0.00331,0.00839 -0.00644,0.011588 -0.00314,0.0032 -0.00702,0.0056 -0.011164,0.00731 -0.00828,0.00341 -0.017413,0.00401 -0.026358,0.00447 -0.00895,4.544e-4 -0.018052,8.253e-4 -0.026497,0.00381 -0.00422,0.00149 -0.00824,0.00364 -0.011611,0.0066 -0.00337,0.00295 -0.00606,0.00673 -0.00745,0.010988 -0.00117,0.0036 -0.00138,0.00745 -0.00112,0.011218 2.637e-4,0.00377 9.924e-4,0.00749 0.00167,0.011213 6.809e-4,0.00372 0.00132,0.00746 0.00139,0.011245 7.55e-5,0.00378 -4.292e-4,0.00762 -0.00195,0.011084 -0.00163,0.00371 -0.00439,0.00688 -0.00772,0.00919 -0.00332,0.00231 -0.0072,0.00379 -0.011181,0.00451 -0.00797,0.00145 -0.016207,-6.98e-5 -0.02392,-0.00255 -0.00771,-0.00248 -0.015094,-0.0059 -0.022797,-0.00841 -0.0077,-0.00251 -0.015918,-0.0041 -0.023906,-0.00275 -0.00883,0.00149 -0.016823,0.00655 -0.022777,0.013235 -0.00595,0.00668 -0.00998,0.014913 -0.012657,0.023453 -0.00536,0.01708 -0.00554,0.035336 -0.00932,0.052831 -0.00759,0.035044 -0.029984,0.066144 -0.059334,0.086741 -0.02935,0.020598 -0.065242,0.031006 -0.1010817,0.032113 -0.071678,0.00221 -0.1400396,-0.031403 -0.1976595,-0.074096 -0.044333,-0.032847 -0.084522,-0.071723 -0.1160695,-0.1169901 -0.031547,-0.045267 -0.054303,-0.097075 -0.062968,-0.151566 -0.00822,-0.051713 -0.00373,-0.1044978 5.885e-4,-0.1566819 0.00432,-0.052184 0.00841,-0.10505 -5.885e-4,-0.1566332 -0.010589,-0.060692 -0.039009,-0.1176972 -0.044759,-0.1790372 -0.00723,-0.07708 0.021826,-0.1522452 0.037914,-0.2279727 0.00804,-0.037864 0.012892,-0.076866 0.00828,-0.1152991 -0.00461,-0.038433 -0.019303,-0.076481 -0.046197,-0.1043214 -0.01726,-0.017867 -0.038872,-0.030962 -0.061186,-0.041881 -0.022314,-0.010919 -0.045552,-0.019856 -0.067916,-0.030672 -0.022364,-0.010816 -0.04408,-0.023699 -0.061586,-0.041325 -0.017506,-0.017626 -0.030613,-0.040442 -0.033109,-0.065159 -0.0015,-0.014855 8.198e-4,-0.029852 0,-0.04476 -0.00112,-0.02041 -0.00821,-0.040307 -0.01924,-0.057514 -0.011035,-0.017207 -0.025934,-0.031777 -0.042716,-0.043448 -0.033564,-0.023342 -0.073887,-0.034907 -0.114042,-0.042584 -0.040155,-0.00768 -0.081031,-0.011872 -0.1205442,-0.022367 -0.039513,-0.010494 -0.078393,-0.027999 -0.1062919,-0.057883 -0.014644,-0.015686 -0.025798,-0.034259 -0.039159,-0.051052 -0.013361,-0.016792 -0.029801,-0.032317 -0.05036,-0.038467 -0.01437,-0.0043 -0.029717,-0.00371 -0.044651,-0.00231 -0.014933,0.0014 -0.029922,0.00357 -0.044868,0.00231 -0.030188,-0.00255 -0.057929,-0.019181 -0.078795,-0.041146 -0.020866,-0.021965 -0.03557,-0.049015 -0.048264,-0.076524 -0.012693,-0.027509 -0.023651,-0.055871 -0.038288,-0.082397 -0.014637,-0.026525 -0.033365,-0.0515 -0.058449,-0.068489 -0.029114,-0.019717 -0.065866,-0.027446 -0.1006441,-0.02226 -0.034778,0.00519 -0.067345,0.023014 -0.091321,0.048735 -0.023976,0.025721 -0.039381,0.059076 -0.044589,0.093851 -0.00521,0.034775 -3.55e-4,0.070844 0.012758,0.1034706 0.018167,0.045201 0.051522,0.083076 0.089901,0.1130797 0.038379,0.030004 0.081846,0.052751 0.1254799,0.074412 0.043634,0.021661 0.087868,0.0425 0.1286053,0.069214 0.040737,0.026714 0.078213,0.059796 0.1036072,0.1013683 0.011545,0.0189 0.020542,0.039444 0.034138,0.056926 0.0068,0.00874 0.014761,0.016683 0.024124,0.022596 0.00936,0.00591 0.020187,0.00974 0.031257,0.01 0.00753,1.762e-4 0.014991,-0.00128 0.022485,-0.00204 0.00749,-7.671e-4 0.015301,-8.064e-4 0.022274,0.00204 0.00598,0.00244 0.011018,0.00693 0.014597,0.012309 0.00358,0.00538 0.00575,0.011617 0.00683,0.017986 0.00216,0.012738 6.76e-5,0.025761 -0.00174,0.038555 -0.00181,0.012793 -0.00331,0.025998 -1.27e-5,0.038492 0.00165,0.00625 0.00451,0.012231 0.00878,0.017081 0.00427,0.00485 0.00998,0.00852 0.016303,0.00986 0.00739,0.00156 0.015026,-6.73e-5 0.022483,-0.00127 0.00373,-6.034e-4 0.00749,-0.0011 0.011268,-0.00104 0.00378,6.56e-5 0.00759,7.126e-4 0.011008,0.00231 0.00366,0.00171 0.0068,0.00448 0.00912,0.0078 0.00232,0.00331 0.00385,0.00715 0.00466,0.011112 0.00161,0.00793 3.675e-4,0.016187 -0.00191,0.02395 -0.00227,0.00776 -0.00555,0.015192 -0.00812,0.022862 -0.00257,0.00767 -0.00444,0.015742 -0.00375,0.023801 9.319e-4,0.010849 0.0065,0.020914 0.013915,0.028891 0.00741,0.00798 0.016598,0.014077 0.025957,0.019642 0.00936,0.00556 0.019012,0.01069 0.027823,0.017086 0.00881,0.0064 0.016852,0.014212 0.021823,0.0239 0.00692,0.013482 0.00732,0.02938 0.00566,0.044442 -0.00165,0.015062 -0.00521,0.029931 -0.00566,0.045077 -8.293e-4,0.027552 0.00875,0.054684 0.023217,0.078147 0.014466,0.023464 0.033657,0.043633 0.053541,0.062722 0.019884,0.01909 0.040649,0.037333 0.059027,0.057877 0.018378,0.020544 0.034463,0.043684 0.043253,0.069809 0.00959,0.02849 0.010098,0.059246 0.00788,0.089224 -0.00222,0.029978 -0.00707,0.059764 -0.00788,0.089813 -0.0028,0.1048684 0.043454,0.2043424 0.092887,0.2968716 0.049432,0.092529 0.1040454,0.185394 0.1204354,0.2890115 0.00819,0.051809 0.00631,0.105809 -0.010642,0.1554455 -0.016957,0.049636 -0.0497,0.094633 -0.094614,0.1217245 -0.022457,0.013546 -0.04774,0.022521 -0.073798,0.025492 -0.026058,0.00297 -0.052865,-1.202e-4 -0.077328,-0.00958 -0.024462,-0.00946 -0.046505,-0.025324 -0.062716,-0.045941 -0.01621,-0.020617 -0.026472,-0.045972 -0.028503,-0.07212 -0.00116,-0.01488 3e-4,-0.029837 0,-0.044759 -7.699e-4,-0.038292 -0.013199,-0.075778 -0.032033,-0.1091275 -0.018834,-0.033349 -0.04392,-0.062808 -0.07107,-0.089822 -0.054301,-0.054028 -0.1175827,-0.099326 -0.165452,-0.1591266 -0.030092,-0.037593 -0.053388,-0.080068 -0.080105,-0.12013 -0.026718,-0.040062 -0.057821,-0.078594 -0.098932,-0.1036668 -0.023334,-0.014231 -0.049218,-0.023708 -0.07346,-0.036328 -0.024242,-0.01262 -0.047622,-0.029256 -0.060818,-0.05319 -0.00818,-0.014834 -0.011975,-0.031606 -0.01751,-0.047615 -0.00277,-0.008 -0.006,-0.01589 -0.010386,-0.023136 -0.00438,-0.00725 -0.00996,-0.013862 -0.016863,-0.018768 -0.00848,-0.00603 -0.01876,-0.00929 -0.029131,-0.01015 -0.010372,-8.579e-4 -0.020847,6.165e-4 -0.030863,0.00344 -0.020031,0.00565 -0.038102,0.016537 -0.056776,0.025728 -0.018675,0.00919 -0.038976,0.016901 -0.059737,0.015426 -0.010381,-7.374e-4 -0.020696,-0.00386 -0.029276,-0.00975 -0.00858,-0.00589 -0.015327,-0.014647 -0.018013,-0.024701 -0.00193,-0.00724 -0.00175,-0.014865 -0.00117,-0.022334 5.843e-4,-0.00747 0.00156,-0.014944 0.00117,-0.022425 -6.949e-4,-0.013308 -0.0058,-0.026255 -0.013852,-0.036871 -0.00805,-0.010616 -0.018982,-0.018929 -0.031098,-0.024476 -0.024233,-0.011094 -0.052444,-0.010979 -0.078319,-0.00459 -0.05175,0.012779 -0.094882,0.048597 -0.1452871,0.065936 -0.059258,0.020384 -0.1278465,0.012859 -0.1803113,-0.021412 -0.026232,-0.017135 -0.048351,-0.040572 -0.063728,-0.067872 -0.015377,-0.0273 -0.023964,-0.058425 -0.024516,-0.089753 -2.629e-4,-0.014924 0.00126,-0.029887 0,-0.04476 -0.00336,-0.039626 -0.02681,-0.075825 -0.058095,-0.1003769 -0.031285,-0.024552 -0.069804,-0.038431 -0.1088108,-0.04618 -0.078013,-0.0155 -0.1602266,-0.00808 -0.2359281,-0.032479 -0.069883,-0.022528 -0.1286152,-0.070404 -0.195536,-0.1006154 -0.03346,-0.015106 -0.06951,-0.025826 -0.1062223,-0.025737 -0.036712,8.9e-5 -0.074229,0.011792 -0.1010754,0.036834 -0.015217,0.014194 -0.02664,0.032285 -0.033665,0.051872 -0.00703,0.019587 -0.00971,0.040635 -0.00862,0.061416 0.00218,0.04156 0.01928,0.081326 0.043088,0.1154602 0.047617,0.068269 0.1200172,0.1145955 0.1782315,0.1740863 0.087218,0.089131 0.1403133,0.2051747 0.208369,0.3096727 0.034028,0.052249 0.072371,0.1022661 0.1194062,0.1431993 0.047035,0.040933 0.103324,0.072583 0.1645774,0.08424 0.044171,0.00841 0.089757,0.00629 0.1342779,0 0.026014,-0.00368 0.05252,-0.00876 0.078328,-0.00384 0.012904,0.00246 0.025472,0.00751 0.035681,0.015772 0.010209,0.00827 0.017926,0.019905 0.020269,0.03283 0.00267,0.014714 -0.00162,0.029893 0,0.044759 0.00138,0.012722 0.00715,0.024796 0.015506,0.034485 0.00836,0.00969 0.019233,0.017053 0.031002,0.022079 0.023538,0.010051 0.049971,0.010779 0.075515,0.00918 0.025544,-0.0016 0.051082,-0.00536 0.076623,-0.00371 0.012771,8.248e-4 0.025515,0.00302 0.037535,0.00741 0.01202,0.00439 0.023316,0.011028 0.032376,0.020067 0.013759,0.013727 0.021797,0.032489 0.024849,0.051683 0.00305,0.019194 0.00139,0.038874 -0.00219,0.057975 -0.00718,0.038202 -0.022042,0.075273 -0.022654,0.1141388 -3.561e-4,0.022614 0.00415,0.044984 0.00649,0.06748 0.00233,0.022495 0.00235,0.04598 -0.00649,0.066798 -0.00795,0.01873 -0.022844,0.034189 -0.040663,0.044012 -0.017819,0.00982 -0.038424,0.014152 -0.058766,0.013684 -0.040684,-9.365e-4 -0.078932,-0.020469 -0.1110685,-0.045434 -0.032137,-0.024966 -0.059481,-0.055466 -0.08945,-0.082996 -0.029969,-0.027531 -0.063673,-0.052662 -0.1028863,-0.063543 -0.028891,-0.00802 -0.059405,-0.00791 -0.089313,-0.0058 -0.029909,0.00211 -0.059743,0.00615 -0.089724,0.0058 -0.084836,-9.874e-4 -0.1647666,-0.03672 -0.2463898,-0.059868 -0.040812,-0.011574 -0.082887,-0.020112 -0.1253035,-0.019457 -0.042416,6.548e-4 -0.085409,0.010966 -0.1206593,0.034567 -0.022678,0.015183 -0.041512,0.035331 -0.062334,0.052973 -0.020822,0.017642 -0.044851,0.033264 -0.071944,0.036546 -0.014825,0.0018 -0.029827,-1.996e-4 -0.044759,0 -0.047883,6.399e-4 -0.094009,0.024673 -0.1256744,0.060598 -0.031665,0.035924 -0.049464,0.082835 -0.054541,0.130453 -0.00508,0.047618 0.00203,0.095968 0.01578,0.1418389 0.013752,0.045871 0.034033,0.089509 0.055722,0.1322034 0.043379,0.085388 0.093428,0.1698431 0.1097608,0.2642152 0.00817,0.047186 0.00745,0.096464 -0.00698,0.1421263 -0.014429,0.045662 -0.043237,0.087486 -0.08359,0.1132701 -0.042011,0.026844 -0.094235,0.034965 -0.1437247,0.028938 C 4.4617546,6.8263276 4.4146858,6.8069858 4.3712533,6.7825082 4.2843884,6.733553 4.2095379,6.6635806 4.1178572,6.6243789 4.0278214,6.5858805 3.9276554,6.5789631 3.8297401,6.5778817 c -0.097915,-0.00108 -0.1958327,0.00174 -0.293754,0.00174 H 3.3121893 c -0.00764,0 -0.015236,-8.804e-4 -0.02274,-0.00229 -0.00375,-7.042e-4 -0.00754,-0.00138 -0.01136,-0.00127 -0.00382,1.101e-4 -0.00774,0.0011 -0.010659,0.00356 -0.00242,0.00204 -0.00399,0.005 -0.00453,0.00811 -5.382e-4,0.00312 -7.04e-5,0.00637 0.00114,0.00929 0.00241,0.00585 0.0076,0.010171 0.013246,0.013008 0.00565,0.00284 0.011839,0.00439 0.017882,0.00625 0.00604,0.00186 0.012109,0.00412 0.017025,0.00809 0.00614,0.00497 0.010044,0.012354 0.011718,0.020072 0.00167,0.00772 0.00125,0.015769 -1.73e-4,0.023538 -0.00284,0.015537 -0.0096,0.030233 -0.011545,0.045909 -0.00274,0.022136 0.00451,0.044761 0.017015,0.063232 0.012503,0.018471 0.029948,0.033128 0.048623,0.045325 0.03735,0.024394 0.080696,0.040141 0.1134,0.070481 0.020544,0.019059 0.035889,0.043029 0.049293,0.067639 0.013404,0.02461 0.025112,0.050159 0.039669,0.074105 0.014557,0.023946 0.032277,0.046528 0.055319,0.062478 0.023042,0.015949 0.051972,0.024738 0.079515,0.019575 0.024925,-0.00467 0.04664,-0.02006 0.071214,-0.026321 0.012287,-0.00313 0.025515,-0.00387 0.037498,2.803e-4 0.00599,0.00207 0.011595,0.00536 0.01611,0.00981 0.00452,0.00445 0.00792,0.010079 0.00946,0.016229 0.00182,0.00728 0.00102,0.014921 1.524e-4,0.022371 -8.654e-4,0.00745 -0.00177,0.015066 -1.524e-4,0.022388 0.00136,0.00614 0.00449,0.011841 0.00869,0.01653 0.0042,0.00469 0.00944,0.00839 0.015115,0.01111 0.011351,0.00544 0.024195,0.00693 0.036781,0.00712 0.012586,1.871e-4 0.025186,-8.532e-4 0.037754,-1.397e-4 0.012567,7.136e-4 0.025357,0.00332 0.035938,0.010136 0.00891,0.00574 0.015741,0.014112 0.022406,0.02235 0.00667,0.00824 0.013475,0.016624 0.022353,0.022409 0.00884,0.00576 0.019381,0.00864 0.02992,0.00909 0.010539,4.53e-4 0.021088,-0.00144 0.031137,-0.00465 0.020098,-0.00642 0.038111,-0.017917 0.056963,-0.02739 0.018852,-0.00947 0.039641,-0.017109 0.060617,-0.01484 0.010488,0.00113 0.020809,0.00484 0.029089,0.011373 0.00828,0.00654 0.014393,0.016005 0.016071,0.026419 0.00119,0.0074 1.708e-4,0.014959 -6.392e-4,0.022414 -8.099e-4,0.00746 -0.00139,0.015126 6.392e-4,0.022345 0.0017,0.00606 0.00522,0.011552 0.00981,0.015864 0.00458,0.00431 0.01021,0.00746 0.016193,0.00941 0.011965,0.00391 0.025064,0.00303 0.037251,-1.185e-4 0.024374,-0.0063 0.046145,-0.021325 0.071027,-0.025158 0.023698,-0.00365 0.047833,0.00329 0.069702,0.013121 0.021869,0.00983 0.042369,0.022595 0.064576,0.031638 0.054722,0.022283 0.1166298,0.020575 0.1744094,0.00822 0.05778,-0.012351 0.112827,-0.034764 0.1689199,-0.053328 0.056093,-0.018564 0.1146236,-0.033458 0.1736034,-0.029935 0.02949,0.00176 0.058852,0.00821 0.085675,0.02059 0.026823,0.01238 0.051055,0.030817 0.068782,0.054449 0.018758,0.025008 0.029805,0.055123 0.035955,0.085774 0.00615,0.03065 0.00762,0.062025 0.0088,0.093264 0.00507,0.1342141 0.00507,0.2686199 0,0.402834 z"
       id="path5"
       inkscape:path-effect="#path-effect5"
       inkscape:original-d="M 5.2368399,7.9223991 C 5.0603705,8.0419624 4.913336,8.1985966 4.7444876,8.3252327 c -0.026689,0.020016 -0.065929,0.021169 -0.089519,0.044759 -0.02359,0.02359 -0.016999,0.071013 -0.044759,0.089519 -0.024828,0.016552 -0.068419,-0.0211 -0.089519,0 -0.021101,0.021101 0.016552,0.064691 0,0.089519 -0.044625,0.066937 -0.2029862,0.1265815 -0.2685555,0.179037 -0.082381,0.065905 -0.1393976,0.1604973 -0.2237968,0.2237965 -0.1555749,0.1166812 -0.4752215,0.287619 -0.5818711,0.4475932 -0.02617,0.039257 -0.020484,0.093821 -0.044759,0.1342779 -0.021712,0.036186 -0.070646,0.051774 -0.089519,0.089519 -0.013346,0.026689 0.013346,0.062829 0,0.089519 -0.088919,0.1778381 -0.083074,0.018979 -0.1342779,0.2237967 -0.00809,0.032365 -0.034209,0.057869 -0.044759,0.089519 -0.01737,0.05211 -0.027789,0.419803 0,0.447593 0.02825,0.02825 0.1201828,-0.195606 0.1342779,-0.223797 0.1532388,-0.3064771 0.097721,-0.09772 0.3133154,-0.3133148 0.02359,-0.02359 0.018071,-0.069502 0.044759,-0.089519 C 3.7731893,9.7362861 4.2355129,9.6641739 4.4311723,9.5337343 4.5959093,9.4239097 4.8076749,9.1510891 4.9235248,8.9966225 c 0.017904,-0.023871 -0.021101,-0.068419 0,-0.089519 0.01492,-0.01492 0.1193581,-0.029839 0.1342779,-0.044759 0.03165,-0.03165 -0.020018,-0.094244 0,-0.1342779 0.00667,-0.013346 0.032345,0.00828 0.044759,0 0.035112,-0.023408 0.064199,-0.055759 0.089519,-0.089519 0.070364,-0.093818 0.1411637,-0.2306823 0.2237968,-0.3133154 0.010549,-0.010549 0.034209,0.010549 0.044759,0 0.010549,-0.010549 0,-0.029839 0,-0.044759 0.01492,-0.01492 0.027203,-0.033055 0.044759,-0.044759 0.027759,-0.018505 0.065928,-0.021169 0.089519,-0.044759 0.010549,-0.010549 0,-0.029839 0,-0.044759 0.029839,-0.029839 0.054406,-0.066111 0.089518,-0.089519 0.058105,-0.038736 0.1186506,-0.073891 0.1790372,-0.1342779 0.037667,-0.037667 0.1525926,-0.1475005 0.1790375,-0.1342782 0.1254887,0.062745 0.054809,0.2207564 0.089519,0.3133154 0.030546,0.081457 0.1037315,0.1423392 0.1342779,0.2237964 0.015716,0.041909 -0.014155,0.091816 0,0.1342779 0.2187948,0.656385 -0.017923,-0.340243 0.1342779,0.2685561 0.028161,0.1126445 0,0.289297 0,0.4028339 0,0.3457184 -0.022318,0.6940815 0.044759,1.0294642 0.00585,0.02926 -0.00724,0.06057 0,0.08952 0.022712,0.09085 0.3504723,0.544714 0.4028339,0.492353 0.010549,-0.01055 -0.00472,-0.0306 0,-0.04476 0.040311,-0.120934 0.082506,-0.241587 0.1342779,-0.358075 0.021849,-0.04916 0.077849,-0.08176 0.089519,-0.134278 0.01942,-0.08739 -0.00891,-0.179481 0,-0.2685556 0.036574,-0.3657388 0.2277692,-0.8792958 0.1342779,-1.2532608 -0.00809,-0.032366 -0.036668,-0.057153 -0.044759,-0.089519 -0.010856,-0.043423 0.03165,-0.1026284 0,-0.1342782 -0.010549,-0.010549 -0.034209,0.010549 -0.044759,0 -0.014372,-0.014375 0,-0.6234273 0,-0.6713897 0,-0.044759 -0.03165,-0.1026282 0,-0.1342779 0.0211,-0.021101 0.059679,0 0.089519,0 0.3321391,0 0.4677084,0.4229492 0.67139,0.6266304 0.017124,0.017124 0.2080977,0 0.2237965,0 0.1938072,0 0.3565263,-7.672e-4 0.5371118,0.089519 0.00193,9.79e-4 0.1809716,0.090486 0.1790372,0.089519 C 8.7457221,8.4235792 8.6565279,8.4201835 8.5937888,8.369992 8.0812218,7.9599387 8.157961,7.8564115 7.9223991,7.3852872 7.871779,7.2840471 7.7433616,7.1897639 7.7433616,7.0719719 c 0,-0.1445474 -0.1014214,0.065713 0,0.268556 0.046965,0.09393 0.08612,0.00759 0.1790375,0.044759 0.039181,0.015671 0.051774,0.070646 0.089519,0.089519 0.053774,0.026887 0.2055204,0.044759 0.2685557,0.044759 0.1246103,0 0.3838517,-0.096314 0.4475933,-0.2237965 0.00667,-0.013345 -0.013346,-0.038087 0,-0.044759 0.026689,-0.013345 0.064691,0.016552 0.089519,0 0.027759,-0.018505 0.021169,-0.065929 0.044759,-0.089519 0.065319,-0.065319 0.1821174,-0.00308 0.2237965,-0.044759 0.010549,-0.010549 -0.014153,-0.040041 0,-0.044759 0.042462,-0.014155 0.090855,0.010856 0.1342781,0 0.020471,-0.00512 0.024069,-0.040621 0.044759,-0.044759 0.087032,-0.017407 0.2219315,0.013054 0.3133151,0 C 9.7683139,7.0000954 10.503957,6.9521768 10.563199,6.8929347 10.595118,6.8610154 10.251189,6.6026516 10.205124,6.5796194 9.6944734,6.3242941 9.1172381,6.1951607 8.5490295,6.1320264 8.5224809,6.1290763 8.056677,6.0590853 8.056677,6.0872671 c 0,0.1849707 0.082249,-0.082249 0.089519,-0.089519 0.02359,-0.02359 0.060911,-0.027595 0.089519,-0.04476 C 8.4367716,5.8323548 8.5265905,5.6061339 8.7280667,5.505396 8.7660889,5.4863856 9.0506451,4.9049984 9.0861411,4.8340062 9.1405127,4.725263 9.2421693,4.6223438 9.3099378,4.5206909 9.34004,4.4755376 9.372049,4.3243018 9.3994564,4.2968944 c 0.010549,-0.010549 0.03421,0.010549 0.044759,0 0.04718,-0.047181 0.049485,-0.1256588 0.089519,-0.1790372 0.025321,-0.03376 0.070646,-0.051775 0.089519,-0.089519 0.013346,-0.026689 -0.00943,-0.06121 0,-0.089518 0.04657,-0.1397082 0.02984,0.01492 0.089519,-0.044759 0.050662,-0.050662 0.056192,-0.2019028 0.089519,-0.2685558 0.1024228,-0.204846 -0.018553,0.1899324 0.089518,-0.1342779 0.00944,-0.028308 -0.00943,-0.061211 0,-0.089519 0.026257,-0.078775 0.1111026,-0.1542716 0.1342776,-0.2237965 0.0094,-0.028308 -0.01335,-0.062829 0,-0.089519 0.0067,-0.013345 0.03421,0.010549 0.04476,0 0.01492,-0.01492 0.02984,-0.1193583 0.04476,-0.1342779 0.01055,-0.010549 0.03809,0.013346 0.04476,0 0.01334,-0.026689 -0.0094,-0.061211 0,-0.089519 0.01334,-0.040034 0.07065,-0.051775 0.08952,-0.089519 0.01335,-0.026689 -0.01335,-0.062829 0,-0.089519 0.0094,-0.018873 0.02984,-0.029839 0.04476,-0.044759 0.01492,-0.02984 0.03237,-0.058543 0.04476,-0.089519 0.06751,-0.1687613 0.114953,-0.3133152 0.08952,-0.3133152 -0.0211,0 -0.0272,0.033055 -0.04476,0.044759 C 10.21813,2.3934159 10.176884,2.471147 10.070852,2.6407985 9.979663,2.7866927 9.8588686,2.9085167 9.7575311,3.0436335 9.642772,3.1966455 9.5653406,3.3845799 9.4442157,3.5359861 9.4046729,3.5854145 9.3450499,3.6175957 9.3099378,3.670264 9.2428786,3.7708527 9.1976643,3.8834335 9.1309006,3.9835791 c -0.04138,0.06207 -0.081529,0.126288 -0.1342781,0.1790374 -0.010549,0.010549 -0.036483,-0.012414 -0.044759,0 -0.02617,0.039256 -0.018587,0.095021 -0.044759,0.1342779 -0.00828,0.012414 -0.034209,-0.010549 -0.044759,0 -0.081296,0.081296 -0.043691,0.088984 -0.1342779,0.1342779 -0.090489,0.045244 -0.1117227,0.2012413 -0.1790372,0.2685558 -0.010549,0.010549 -0.03421,-0.010549 -0.044759,0 -0.02969,0.02969 -0.054501,0.1771068 -0.089519,0.2237967 -0.025321,0.03376 -0.067807,0.053333 -0.089519,0.089519 -0.011679,0.019463 -0.037003,0.2160405 -0.044759,0.2237965 -0.010549,0.010549 -0.034209,-0.010549 -0.044759,0 -0.010549,0.010549 0.010549,0.03421 0,0.044759 -0.02359,0.02359 -0.065928,0.021169 -0.089519,0.044759 -0.010549,0.010549 0.010549,0.03421 0,0.04476 -0.059906,0.059906 -0.029613,-0.059906 -0.089519,0 -0.022381,0.022378 -0.022381,0.067139 -0.044759,0.089519 -0.044356,0.044355 -0.285962,0.080815 -0.3580747,0.044759 -0.015306,-0.00765 -0.167549,-0.2455794 -0.1790372,-0.2685561 -0.035686,-0.071371 0.010414,-0.240416 0,-0.3133151 -0.0087,-0.060898 -0.034646,-0.1183584 -0.044759,-0.1790372 -0.020569,-0.1234125 0.055474,-0.3366452 0,-0.4475932 C 7.3682811,4.1733639 7.3134642,4.1893333 7.2062498,4.1178572 c -0.012414,-0.00828 0.011462,-0.035208 0,-0.04476 -0.7038882,-0.5865735 0.0072,0.022225 -0.4028337,-0.2237964 -0.036186,-0.021712 -0.054406,-0.066111 -0.089519,-0.089519 -0.024828,-0.016552 -0.068419,0.021101 -0.089519,0 C 6.5932761,3.72868 6.6425717,3.370232 6.4005822,3.4912268 6.3541052,3.5144651 6.1643413,3.6776903 6.1767857,3.7150233 c 0.1152943,0.3458831 0.271059,0.240385 0.4475932,0.3580743 0.035112,0.023408 0.054407,0.066111 0.089519,0.089519 0.012414,0.00828 0.034209,-0.010549 0.044759,0 0.01492,0.01492 0.02984,0.119358 0.044759,0.1342779 0.010549,0.010549 0.034209,-0.010549 0.044759,0 0.021101,0.021101 -0.013346,0.062829 0,0.089519 0.018873,0.037744 0.076174,0.049485 0.089519,0.089519 0.00944,0.028308 -0.013346,0.062829 0,0.089519 0.051886,0.1037722 0.1392949,0.1493292 0.1790372,0.268556 0.015674,0.047024 0,0.1290545 0,0.1790372 0,0.072215 -0.085069,0.7609083 -0.1342779,0.7609083 -0.01492,0 0.00895,-0.032823 0,-0.044759 C 6.8857499,5.6002546 6.804403,5.5068766 6.7138975,5.3711181 6.6551719,5.2830298 6.6198979,5.2110997 6.5348601,5.1473213 6.4623859,5.0929656 6.4462162,5.1262525 6.4005822,5.0578027 c -0.018505,-0.027759 -0.016999,-0.071013 -0.044759,-0.089519 -0.038805,-0.025871 -0.1898968,0.0339 -0.2237965,0 -0.010549,-0.010549 0.010549,-0.03421 0,-0.044759 -0.042969,-0.042969 -0.2120466,0.028255 -0.2685561,0 -0.06826,-0.03413 -0.2201481,-0.1306295 -0.2685557,-0.1790372 -0.010549,-0.010549 0.010549,-0.03421 0,-0.04476 C 5.5626737,4.6674873 5.2607977,4.5435967 5.1920806,4.5206909 5.1389285,4.5029744 4.8666315,4.3537875 4.7892469,4.4311723 c -0.065296,0.065296 0.1440426,0.3445094 0.1790372,0.4028339 0.067193,0.1119889 0.3783343,0.4991058 0.4923526,0.5371119 0.037748,0.012583 0.098931,-0.017674 0.1342779,0 0.1005744,0.050287 0.033703,-0.00553 0.1342778,0.044759 0.013346,0.00667 -0.010549,0.034209 0,0.044759 0.050466,0.050466 0.2082136,0.029176 0.2685561,0.089519 0.052749,0.052749 -0.018092,0.151425 0,0.2237964 0.010131,0.04052 0.1147003,0.1342779 0,0.1342779 -0.1674709,0 -0.2461599,-0.095109 -0.4028339,-0.1342779 -0.057897,-0.014475 -0.1199582,0.00844 -0.1790372,0 -0.1430039,-0.020428 -0.3420163,-0.094871 -0.4923526,-0.044759 -0.3242103,0.1080702 0.070568,-0.012904 -0.1342779,0.089519 -0.013345,0.00667 -0.03421,-0.010549 -0.044759,0 C 4.5570399,6.0061588 4.723403,6.7349827 4.6549688,6.8034161 4.5602749,6.89811 4.2101015,6.6612767 4.1178572,6.6243789 3.9677255,6.5643262 3.7011617,6.5796194 3.5359861,6.5796194 c -0.074599,0 -0.1491978,0 -0.2237968,0 -0.01492,0 -0.044759,-0.01492 -0.044759,0 0,0.0211 0.038087,0.024744 0.044759,0.044759 0.00944,0.028308 -0.013346,0.062829 0,0.089519 0.026339,0.05268 0.1320157,0.1320157 0.1790375,0.1790372 0.063746,0.063746 0.1450025,0.1843995 0.2237965,0.2237965 0.040034,0.020018 0.1026284,-0.03165 0.1342779,0 0.010549,0.010549 -0.012414,0.036483 0,0.044759 0.039256,0.02617 0.092078,0.023659 0.1342779,0.044759 0.018873,0.00943 0.024744,0.038087 0.044759,0.044759 0.062752,0.020918 0.1610453,-0.020918 0.2237968,0 0.014155,0.00472 -0.010549,0.034209 0,0.044759 0.031649,0.03165 0.089519,0 0.1342779,0 0.1011219,0 -0.020018,-0.00667 0.1342779,0.044759 0.094903,0.031634 0.6325946,-0.038795 0.6713897,0 0.039971,0.039971 0.026889,0.1254244 0.044759,0.1790372 0.083217,0.2496495 0.1594877,0.083859 0,0.402834 z" /><path
       style="fill:#f4a618;fill-opacity:1;stroke:#f4a618;stroke-width:0.349999;stroke-dasharray:none;stroke-opacity:1"
       d="m 2.5960403,6.8481754 c -0.018253,0.032812 -0.026318,0.0712 -0.022811,0.1085831 0.00351,0.037383 0.01857,0.073602 0.042607,0.1024464 0.024037,0.028845 0.056946,0.050192 0.093084,0.060383 0.036138,0.010191 0.075351,0.00918 0.1109165,-0.00286 0.02998,-0.010147 0.05745,-0.028175 0.077612,-0.052571 0.020162,-0.024397 0.032786,-0.055206 0.034141,-0.086827 0.00136,-0.031621 -0.00884,-0.063845 -0.029203,-0.088072 -0.020365,-0.024228 -0.050921,-0.039948 -0.082551,-0.041085 -0.020107,-7.23e-4 -0.040004,0.0042 -0.059106,0.010517 -0.019103,0.00632 -0.037749,0.014061 -0.057179,0.019284 -0.01943,0.00522 -0.039989,0.00786 -0.059683,0.00375 -0.00985,-0.00206 -0.019384,-0.00582 -0.027715,-0.011455 -0.00833,-0.00564 -0.015432,-0.013187 -0.020113,-0.022092 -0.00619,-0.011772 -0.00796,-0.025601 -0.00615,-0.038777 0.00181,-0.013176 0.00707,-0.025727 0.014159,-0.036982 0.014174,-0.022509 0.035196,-0.039659 0.054764,-0.057677 0.019569,-0.018018 0.038595,-0.038235 0.046708,-0.063567 0.00406,-0.012667 0.00517,-0.026431 0.00199,-0.039346 -0.00318,-0.012914 -0.01085,-0.024889 -0.021956,-0.032207 -0.00665,-0.00438 -0.01449,-0.00706 -0.022455,-0.0072 -0.00796,-1.47e-4 -0.016025,0.0023 -0.022304,0.0072 -0.00631,0.00493 -0.010629,0.012139 -0.012799,0.019844 -0.00217,0.0077 -0.00229,0.015885 -0.00118,0.023813 0.00222,0.015855 0.00915,0.030598 0.013979,0.045862 0.00976,0.030867 0.010783,0.064441 0.00293,0.095847 -0.00785,0.031405 -0.024557,0.060547 -0.047691,0.083191 z"
       id="path8"
       inkscape:path-effect="#path-effect8"
       inkscape:original-d="m 2.5960403,6.8481754 c 0.1651836,-0.4139716 0.1179494,0.3744031 0.2237965,0.2685558 0.00552,-0.00552 0.00496,-0.2665722 0,-0.2685558 -0.069263,-0.027705 -0.1904348,0.066723 -0.2237965,0 -0.042199,-0.084399 0.074006,-0.1754788 0.089519,-0.268556 0.00246,-0.014716 -0.034209,-0.010549 -0.044759,0 -0.0211,0.0211 0.00585,0.060258 0,0.089519 -0.012064,0.060321 -0.02984,0.1193581 -0.044759,0.1790372 z" /><path
       style="fill:#f4a618;fill-opacity:1;stroke:#f4a618;stroke-width:0.349999;stroke-dasharray:none;stroke-opacity:1"
       d="m 6.4453415,2.3722438 c -0.034773,0.00534 -0.067693,0.022122 -0.092439,0.047128 -0.024746,0.025006 -0.041185,0.058099 -0.04616,0.092926 -0.00498,0.034827 0.00154,0.0712 0.018295,0.1021343 0.016755,0.030935 0.043658,0.056264 0.075546,0.071126 0.040798,0.019014 0.089471,0.020369 0.1312629,0.00365 0.041792,-0.016717 0.076104,-0.051265 0.092534,-0.093171 0.010546,-0.026899 0.013872,-0.056591 0.00954,-0.085157 -0.00433,-0.028566 -0.016315,-0.055935 -0.034364,-0.078497 C 6.5815047,2.4098254 6.557433,2.3921281 6.530515,2.3816301 6.503597,2.371132 6.4738996,2.3678593 6.4453415,2.3722438 Z"
       id="path9"
       inkscape:path-effect="#path-effect9"
       inkscape:original-d="m 6.4453415,2.3722438 c 0.017087,0.00524 -0.091935,0.2661395 -0.044759,0.3133151 0.06586,0.06586 0.330227,0.070127 0.2237967,-0.089519 C 6.5713866,2.516552 6.5050206,2.4468426 6.4453415,2.3722438 Z" /><path
       style="fill:#f4a618;fill-opacity:1;stroke:#f4a618;stroke-width:0.349999;stroke-dasharray:none;stroke-opacity:1"
       d="M 11.234588,7.1614905 Z"
       id="path10"
       inkscape:path-effect="#path-effect10"
       inkscape:original-d="m 11.234588,7.1614905 c 0.398886,0.032943 0.519372,-0.086562 0,0 z" /><path
       style="fill:#f4a618;fill-opacity:1;stroke:#f4a618;stroke-width:0.349999;stroke-dasharray:none;stroke-opacity:1"
       d="m 11.189829,7.1614905 c 0.02933,-0.026961 0.06737,-0.044299 0.106966,-0.048754 0.03959,-0.00446 0.08053,0.004 0.115126,0.023762 0.03459,0.019767 0.06266,0.050749 0.07892,0.087122 0.01626,0.036372 0.02064,0.077946 0.0123,0.1169073 -0.004,0.018764 -0.01085,0.036785 -0.01663,0.055081 -0.0058,0.018296 -0.01057,0.037197 -0.01027,0.056383 2.97e-4,0.019186 0.0061,0.038867 0.01928,0.05285 0.0066,0.00699 0.01488,0.012419 0.02407,0.015168 0.0092,0.00275 0.01926,0.00275 0.02831,-4.447e-4 0.01175,-0.00415 0.02123,-0.013465 0.02729,-0.024355 0.0061,-0.01089 0.009,-0.023286 0.01036,-0.035673 0.0028,-0.024774 -1.92e-4,-0.050415 0.0071,-0.07425 0.0063,-0.020652 0.02003,-0.03843 0.03616,-0.052801 0.01613,-0.014372 0.0347,-0.025669 0.05317,-0.036865 0.01847,-0.011195 0.03707,-0.022456 0.05325,-0.036766 0.01618,-0.014311 0.02998,-0.032001 0.03646,-0.052605 0.0046,-0.014594 0.0054,-0.030314 0.0027,-0.045377 -0.0027,-0.015063 -0.0088,-0.029459 -0.01735,-0.04213 -0.01715,-0.025344 -0.04389,-0.043334 -0.07288,-0.053116 -0.02899,-0.00978 -0.06017,-0.011778 -0.09068,-0.00945 -0.03051,0.00233 -0.06053,0.00886 -0.09033,0.015797 -0.105835,0.024626 -0.210445,0.054515 -0.313315,0.089519 z"
       id="path11"
       inkscape:path-effect="#path-effect11"
       inkscape:original-d="m 11.189829,7.1614905 c 0.0076,-0.00917 0.302929,0.1686512 0.313315,0.1790374 0.02317,0.023167 0.02159,0.15587 0.04476,0.1790372 0.06782,0.067817 0.03778,-0.1273024 0.04476,-0.1342779 0.03252,-0.032522 0.273122,-0.03791 0.179037,-0.1790374 C 11.694171,7.0899572 11.60884,7.1248188 11.503145,7.0719719 11.32985,6.9853249 11.751262,6.8807747 11.18983,7.1614909 Z" /><path
       style="fill:#f4a618;fill-opacity:1;stroke:#f4a618;stroke-width:0.349999;stroke-dasharray:none;stroke-opacity:1"
       d="m 6.6243789,11.682182 c 0.044173,0.07495 0.088934,0.14955 0.1342779,0.223796 0.022488,0.03682 0.045281,0.07378 0.074016,0.105963 0.028735,0.03219 0.06401,0.05967 0.1050213,0.07307 0.028957,0.0095 0.061296,0.01147 0.089519,0 0.024446,-0.0099 0.04443,-0.02962 0.056433,-0.05312 0.012003,-0.0235 0.01626,-0.05059 0.013949,-0.07688 -0.00462,-0.05257 -0.034415,-0.09994 -0.070382,-0.138561 C 6.9266243,11.708448 6.7696569,11.656126 6.6243789,11.682182 Z"
       id="path13"
       inkscape:path-effect="#path-effect13"
       inkscape:original-d="m 6.6243789,11.682182 c 0.044759,0.0746 0.095372,0.145984 0.1342779,0.223796 0.067184,0.134368 0.031567,0.179037 0.1790372,0.179037 0.029839,0 0.068419,0.0211 0.089519,0 0.013806,-0.01381 0.00852,-0.264293 0,-0.268555 -0.1697061,-0.08485 -0.022334,0.09402 -0.4028341,-0.134278 z" /></g></svg>
