<?xml version="1.0" encoding="UTF-8" standalone="no"?>
<svg
   width="36px"
   height="38px"
   viewBox="0 0 36 38"
   version="1.1"
   id="svg1"
   sodipodi:docname="transparency.svg"
   inkscape:version="1.3.2 (091e20e, 2023-11-25, custom)"
   xmlns:inkscape="http://www.inkscape.org/namespaces/inkscape"
   xmlns:sodipodi="http://sodipodi.sourceforge.net/DTD/sodipodi-0.dtd"
   xmlns="http://www.w3.org/2000/svg"
   xmlns:svg="http://www.w3.org/2000/svg">
  <sodipodi:namedview
     id="namedview1"
     pagecolor="#ffffff"
     bordercolor="#000000"
     borderopacity="0.25"
     inkscape:showpageshadow="2"
     inkscape:pageopacity="0.0"
     inkscape:pagecheckerboard="0"
     inkscape:deskcolor="#d1d1d1"
     inkscape:zoom="30.868421"
     inkscape:cx="18.011935"
     inkscape:cy="19"
     inkscape:window-width="2560"
     inkscape:window-height="1369"
     inkscape:window-x="-8"
     inkscape:window-y="-8"
     inkscape:window-maximized="1"
     inkscape:current-layer="svg1" />
  <!-- Generator: Sketch 49 (51002) - http://www.bohemiancoding.com/sketch -->
  <title
     id="title1">Flexible transparency/icon</title>
  <desc
     id="desc1">Created with Sketch.</desc>
  <defs
     id="defs1">
    <inkscape:path-effect
       effect="spiro"
       id="path-effect2"
       is_visible="true"
       lpeversion="1" />
    <inkscape:path-effect
       effect="spiro"
       id="path-effect1"
       is_visible="true"
       lpeversion="1" />
  </defs>
  <path
     style="fill:none;stroke:#1c3c55;stroke-opacity:1"
     d="m 34.177323,36.347826 c -0.07541,-0.183874 -0.17358,-0.358401 -0.29156,-0.518329 -0.118257,-0.160304 -0.255724,-0.305258 -0.388747,-0.453538 -0.506937,-0.565081 -0.952713,-1.182627 -1.4578,-1.749361 -0.51321,-0.575849 -1.084999,-1.096298 -1.619779,-1.652173 -0.275491,-0.286358 -0.541083,-0.582039 -0.809889,-0.874681 -0.702654,-0.764961 -1.427531,-1.509428 -2.170503,-2.235294 -0.530561,-0.518346 -1.072824,-1.029958 -1.522591,-1.619778 -0.26202,-0.343611 -0.491676,-0.712573 -0.777494,-1.036658 -0.173514,-0.196745 -0.369928,-0.380232 -0.485934,-0.615516 -0.0215,-0.04361 -0.04037,-0.0892 -0.0707,-0.127197 -0.01517,-0.019 -0.03319,-0.03595 -0.05421,-0.04815 -0.02102,-0.0122 -0.04516,-0.01953 -0.06946,-0.01903 -0.01088,2.25e-4 -0.02166,0.002 -0.0325,0.0028 -0.01085,8.25e-4 -0.02198,6.72e-4 -0.03229,-0.0028 -0.01498,-0.0051 -0.02732,-0.01741 -0.0324,-0.03239 0.02461,0.02504 0.05729,0.04203 0.09192,0.04781 0.03464,0.0058 0.07105,2.91e-4 0.102456,-0.01542 0.02755,-0.01378 0.0508,-0.03491 0.07129,-0.0579 0.0205,-0.02299 0.03857,-0.04802 0.05829,-0.07168 0.119637,-0.143498 0.29265,-0.228983 0.453538,-0.323955 0.327694,-0.193438 0.621083,-0.439512 0.939471,-0.647912 0.210755,-0.13795 0.431968,-0.25907 0.647912,-0.388747 0.222854,-0.133827 0.441172,-0.277585 0.634186,-0.451709 0.193013,-0.174124 0.360806,-0.380193 0.467263,-0.617344 0.04358,-0.09709 0.07685,-0.199121 0.129582,-0.29156 0.05791,-0.101518 0.138035,-0.189161 0.194374,-0.291561 0.06105,-0.11096 0.09215,-0.235364 0.129582,-0.356351 0.178041,-0.575444 0.509537,-1.09832 0.647911,-1.684569 0.04039,-0.17111 0.0638,-0.345718 0.09719,-0.518329 0.08011,-0.414122 0.217461,-0.815792 0.29156,-1.231032 0.04025,-0.225526 0.06163,-0.453994 0.09719,-0.680307 0.03583,-0.228065 0.086,-0.453596 0.129582,-0.680307 0.212983,-1.107848 0.268131,-2.246009 0.161978,-3.369139 -0.02559,-0.270713 -0.06047,-0.54046 -0.09719,-0.809889 -0.06525,-0.478807 -0.136539,-0.95799 -0.259164,-1.425405 C 29.180199,10.851712 28.913109,10.232985 28.637681,9.6214834 28.43708,9.1761112 28.230272,8.7307824 27.957374,8.3256607 27.886887,8.2210221 27.811508,8.1181724 27.763001,8.001705 27.723598,7.9070983 27.702892,7.8056865 27.665814,7.7101449 27.636051,7.6334537 27.595908,7.5609847 27.568627,7.483376 27.506704,7.3072174 27.514078,7.1144433 27.471441,6.9326513 27.44569,6.8228584 27.401907,6.718025 27.374254,6.6086957 27.347244,6.50191 27.335835,6.3916849 27.309463,6.28474 27.279166,6.1618813 27.229499,6.0447942 27.179881,5.9283887 26.828439,5.1038894 26.463624,4.2733828 25.916454,3.5635124 25.316734,2.7854663 24.511744,2.1765703 23.625745,1.7522772 22.739746,1.3279841 21.77387,1.0841513 20.797954,0.97186701 c -0.09714,-0.0111769 -0.194432,-0.0210755 -0.29156,-0.0323956 -0.562865,-0.0656014 -1.119921,-0.17888972 -1.68457,-0.22676897 -0.14945,-0.0126726 -0.300077,-0.0207308 -0.449238,-0.005014 -0.149161,0.0157168 -0.297626,0.0561164 -0.425442,0.13459629 -0.06638,0.0407597 -0.126529,0.0913028 -0.194373,0.12958227 -0.07169,0.040449 -0.150444,0.0663662 -0.226769,0.0971867 -0.40416,0.1632024 -0.73901,0.4632874 -1.133845,0.6479113 -0.489839,0.2290477 -1.046546,0.2694377 -1.554987,0.453538 -0.372641,0.1349287 -0.712844,0.3446008 -1.069054,0.5183291 -0.400258,0.195211 -0.82081,0.3450322 -1.231032,0.518329 C 12.237628,3.3336652 11.942293,3.4732026 11.630009,3.5635124 11.158147,3.6999708 10.661955,3.7201652 10.172208,3.7578858 9.8122766,3.785608 9.4510862,3.8236216 9.1031543,3.9198636 8.5188082,4.0815005 7.9848944,4.4063968 7.5481671,4.8269395 7.0930176,5.2652217 6.7447847,5.7998479 6.3819267,6.3171355 6.05268,6.7865072 5.7021646,7.2575138 5.5396419,7.8073316 5.4278132,8.1856504 5.4104417,8.5844921 5.3452685,8.973572 c -0.090028,0.537464 -0.2711512,1.05527 -0.3887468,1.587383 -0.1081352,0.489305 -0.1638636,0.995133 -0.3563512,1.4578 -0.1375044,0.330508 -0.3407217,0.628668 -0.5183291,0.939472 -0.1749485,0.306151 -0.3254839,0.625479 -0.4859335,0.939471 -0.2333062,0.456569 -0.4891809,0.905473 -0.6479113,1.39301 -0.1516809,0.465884 -0.2113424,0.957401 -0.3563512,1.425405 -0.1002423,0.323524 -0.2414771,0.636893 -0.2915601,0.971867 -0.014461,0.09672 -0.021162,0.194414 -0.032396,0.29156 -0.029235,0.252811 -0.089106,0.501258 -0.1619779,0.745098 -0.1858443,0.621866 -0.4566229,1.217255 -0.6155157,1.846547 -0.2481629,0.982845 -0.2087037,2.050285 0.1943734,2.980392 0.038432,0.08868 0.080111,0.176133 0.1295822,0.259165 0.1776205,0.298113 0.4502918,0.529646 0.7450981,0.712702 0.3930735,0.244074 0.8286622,0.409464 1.2552125,0.588723 0.4265504,0.179259 0.8524274,0.377277 1.2068506,0.674704 0.064618,0.05423 0.1266901,0.111629 0.1943734,0.161978 0.1442951,0.10734 0.3117611,0.180915 0.4535379,0.29156 0.066502,0.0519 0.1267691,0.111524 0.1943734,0.161978 0.1978921,0.147691 0.4489564,0.210095 0.6479114,0.356351 0.09253,0.06802 0.1715105,0.152571 0.2591645,0.226769 0.2335174,0.197671 0.522217,0.316986 0.8098892,0.421143 0.4367841,0.158146 0.883024,0.288504 1.3282182,0.421142 0.3113898,0.09277 0.6227182,0.186792 0.9394714,0.259165 1.0171881,0.232412 2.0701421,0.237724 3.1099751,0.323955 0.658066,0.05457 1.320321,0.141903 1.976129,0.06479 0.206314,-0.02426 0.410342,-0.06467 0.615516,-0.09719 0.215701,-0.03419 0.432761,-0.05969 0.647911,-0.09719 0.603719,-0.105239 1.188186,-0.304482 1.749361,-0.550725 0.407962,-0.179014 0.806353,-0.383691 1.231032,-0.518329 0.14002,-0.04439 0.282509,-0.08103 0.421142,-0.129582 0.319534,-0.111908 0.613367,-0.28513 0.907076,-0.453538 0.382468,-0.219302 0.769139,-0.432587 1.133845,-0.680307 0.196765,-0.13365 0.390553,-0.279077 0.615515,-0.356351 0.148807,-0.05112 0.30754,-0.07092 0.453538,-0.129582 0.07635,-0.03068 0.148525,-0.07173 0.226769,-0.09719 0.108634,-0.03535 0.225117,-0.03934 0.339136,-0.03222 0.114019,0.0071 0.227159,0.02499 0.341171,0.03222 0.129366,0.0082 0.259148,0.0027 0.388747,0 0.118766,-0.0024 0.237582,-0.0024 0.356348,5e-6"
     id="path1"
     inkscape:path-effect="#path-effect1"
     inkscape:original-d="m 34.177323,36.347826 c -0.08688,-0.173763 -0.175739,-0.3639 -0.29156,-0.518329 -0.119469,-0.159292 -0.26266,-0.299431 -0.388747,-0.453538 -0.812291,-0.9928 -0.281715,-0.442599 -1.4578,-1.749361 -0.604931,-0.672145 -0.987713,-0.995321 -1.619779,-1.652173 -0.275515,-0.28632 -0.537385,-0.585494 -0.809889,-0.874681 -0.712027,-0.75562 -1.446003,-1.491728 -2.170503,-2.235294 -0.516548,-0.530141 -1.058947,-1.040223 -1.522591,-1.619778 -0.268889,-0.336111 -0.511239,-0.697789 -0.777494,-1.036658 -0.421932,-0.537005 0.191497,0.15869 -0.485934,-0.615516 -0.06034,-0.06896 -0.118133,-0.143547 -0.194373,-0.194374 -0.01797,-0.01198 -0.04952,0.01527 -0.06479,0 -0.04319,-0.04319 0.05399,-0.03239 -0.0324,-0.03239 0.06479,0.0108 0.131461,0.05127 0.194377,0.03239 0.05851,-0.01755 0.08188,-0.09142 0.129582,-0.129582 0.145074,-0.116059 0.303971,-0.213748 0.453538,-0.323955 0.347888,-0.256339 0.548095,-0.400727 0.939471,-0.647912 0.212947,-0.134493 0.43939,-0.24749 0.647912,-0.388747 0.329266,-0.223051 0.902585,-0.715517 1.101449,-1.069053 0.05214,-0.0927 0.07793,-0.198591 0.129582,-0.29156 0.05673,-0.102105 0.142137,-0.187088 0.194374,-0.291561 0.05652,-0.113049 0.08172,-0.239368 0.129582,-0.356351 0.227591,-0.556334 0.496738,-1.098774 0.647911,-1.684569 0.04393,-0.170211 0.05802,-0.346962 0.09719,-0.518329 0.18154,-0.794239 0.151672,-0.431671 0.29156,-1.231032 0.03949,-0.225642 0.05953,-0.454352 0.09719,-0.680307 0.03795,-0.227705 0.09693,-0.451781 0.129582,-0.680307 0.154126,-1.078882 0.214403,-2.285689 0.161978,-3.369139 -0.01314,-0.271582 -0.06346,-0.540089 -0.09719,-0.809889 -0.07816,-0.625305 -0.08494,-0.828056 -0.259164,-1.425405 C 29.164148,10.861904 28.935853,10.217827 28.637681,9.6214834 28.420823,9.187767 28.189615,8.7514349 27.957374,8.3256607 27.897072,8.2151061 27.81691,8.1155139 27.763001,8.001705 27.719146,7.9091227 27.701785,7.806066 27.665814,7.7101449 27.636938,7.6331421 27.594634,7.5613948 27.568627,7.483376 27.437303,7.089404 27.560688,7.3565754 27.471441,6.9326513 27.448215,6.8223297 27.401597,6.7180694 27.374254,6.6086957 27.347545,6.5018599 27.339716,6.3906266 27.309463,6.28474 27.27474,6.1632096 27.221404,6.047767 27.179881,5.9283887 26.883804,5.0771678 26.539801,4.2388059 25.916454,3.5635124 24.66046,2.2028523 22.571877,1.3724304 20.797954,0.97186701 c -0.09538,-0.0215382 -0.194912,-0.0175267 -0.29156,-0.0323956 -0.564319,-0.0868183 -1.113961,-0.18872842 -1.68457,-0.22676897 -0.299154,-0.0199436 -0.59863,7.5897e-4 -0.87468,0.12958227 -0.07056,0.0329298 -0.125812,0.0926645 -0.194373,0.12958227 -0.07241,0.0389895 -0.154205,0.058486 -0.226769,0.0971867 C 17.140128,1.2748532 16.794193,1.536049 16.392157,1.716965 15.893481,1.9413693 15.350815,1.9927027 14.83717,2.170503 14.405943,2.3197736 14.219323,2.4700652 13.768116,2.6888321 13.369396,2.8821509 12.942184,3.027117 12.537084,3.2071611 12.214429,3.3505637 11.982663,3.4879436 11.630009,3.5635124 11.246574,3.6456769 10.593948,3.7110258 10.172208,3.7578858 9.8496919,3.7937209 9.4220744,3.8241876 9.1031543,3.9198636 8.5389102,4.0891368 7.9664107,4.4086958 7.5481671,4.8269395 7.0989335,5.2761731 6.7426464,5.798601 6.3819267,6.3171355 6.0532198,6.7896518 5.7060186,7.2458104 5.5396419,7.8073316 5.4260848,8.1905868 5.4108246,8.580236 5.3452685,8.973572 c -0.089519,0.5371153 -0.2707432,1.056367 -0.3887468,1.587383 -0.1078467,0.48531 -0.162318,0.995106 -0.3563512,1.4578 -0.067187,0.160216 -0.4278961,0.781214 -0.5183291,0.939472 -0.4068652,0.712014 -0.124946,0.189728 -0.4859335,0.939471 -0.2220648,0.461212 -0.4781899,0.908091 -0.6479113,1.39301 -0.1635282,0.467223 -0.2246687,0.951347 -0.3563512,1.425405 -0.2113123,0.760724 0.021997,-0.37195 -0.2915601,0.971867 -0.02222,0.09523 -0.01789,0.194857 -0.032396,0.29156 -0.031229,0.208195 -0.099075,0.548527 -0.1619779,0.745098 -0.1986752,0.62086 -0.4822108,1.20224 -0.6155157,1.846547 -0.2146305,1.037381 -0.2648295,2.004586 0.1943734,2.980392 0.041126,0.08739 0.071048,0.182338 0.1295822,0.259165 0.223564,0.293427 0.4572133,0.493361 0.7450981,0.712702 0.7352487,0.56019 1.6575541,0.824604 2.4620631,1.263427 0.074041,0.04039 0.1275241,0.110556 0.1943734,0.161978 0.6004852,0.461912 -0.1377417,-0.117787 0.4535379,0.29156 0.069343,0.04801 0.1234291,0.116371 0.1943734,0.161978 0.2059642,0.132406 0.4423143,0.219287 0.6479114,0.356351 0.6003454,0.400231 -0.3859157,-0.24238 0.2591645,0.226769 0.2460829,0.17897 0.5311201,0.299181 0.8098892,0.421143 0.4153619,0.18172 0.8992614,0.294978 1.3282182,0.421142 0.4719029,0.138795 0.4235001,0.146296 0.9394714,0.259165 1.0237167,0.223938 2.0669567,0.270467 3.1099747,0.323955 0.170063,0.0087 1.554336,0.09724 1.976129,0.06479 0.207102,-0.01593 0.410218,-0.0656 0.615516,-0.09719 0.215847,-0.03321 0.434851,-0.04925 0.647911,-0.09719 0.529683,-0.119179 1.231504,-0.358926 1.749361,-0.550725 0.417132,-0.154493 0.814207,-0.363949 1.231032,-0.518329 0.137732,-0.05101 0.285694,-0.07278 0.421142,-0.129582 0.311745,-0.130732 0.611569,-0.289368 0.907076,-0.453538 0.381286,-0.211825 0.771959,-0.43905 1.133845,-0.680307 0.18833,-0.125553 0.389448,-0.280995 0.615515,-0.356351 0.147668,-0.04922 0.304697,-0.07997 0.453538,-0.129582 0.07802,-0.02601 0.146986,-0.07724 0.226769,-0.09719 0.149881,-0.03747 0.510767,0 0.680307,0 0.12191,0 0.270537,0.02364 0.388747,0 0.188279,-0.03766 0.137641,-0.04374 0.356348,5e-6" />
  <path
     style="fill:none;stroke:#ff9500;stroke-opacity:1"
     d="m 18.141517,25.333333 c 1.222383,-0.55195 2.394927,-1.21422 3.498722,-1.976129 0.305802,-0.211084 0.606281,-0.429753 0.907076,-0.647912 0.648804,-0.470562 1.300016,-0.939475 1.911338,-1.4578 0.642611,-0.544855 1.260206,-1.175524 1.522592,-1.97613 0.196802,-0.600495 0.177389,-1.247209 0.161978,-1.878943 -0.01189,-0.487261 -0.02033,-0.976491 -0.09719,-1.4578 -0.08017,-0.502088 -0.233906,-0.989785 -0.323956,-1.490196 -0.147662,-0.820562 -0.121962,-1.660751 -0.129582,-2.494459 -0.0054,-0.593998 -0.02802,-1.187749 -0.0324,-1.781756 -0.0028,-0.3779395 0.0018,-0.7558993 0,-1.1338448 -0.0033,-0.694343 -0.03311,-1.410414 -0.323948,-2.0409207 C 25.185575,6.8878055 25.127516,6.7818006 25.074169,6.6734868 24.969519,6.4610115 24.883171,6.2400157 24.782609,6.0255754 24.64228,5.7263356 24.473581,5.4390826 24.26428,5.1832907 23.931927,4.7771145 23.494921,4.4532308 23.000853,4.2762148 22.709125,4.1716935 22.401461,4.1187324 22.093777,4.0818414 c -0.657467,-0.07883 -1.328308,-0.085789 -1.977758,0.043407 -0.64945,0.1291957 -1.278233,0.399327 -1.780128,0.8312735 -0.369018,0.3175877 -0.662192,0.7145234 -1.022994,1.0414149 -0.180401,0.1634458 -0.378788,0.3097206 -0.600094,0.4111255 -0.221305,0.101405 -0.466938,0.1566273 -0.709393,0.1348424 -0.164652,-0.014794 -0.323929,-0.064266 -0.485933,-0.097187 -0.170743,-0.034696 -0.344644,-0.05101 -0.51833,-0.064791 -0.603714,-0.0479 -1.209349,-0.065883 -1.814151,-0.097187 -0.652711,-0.033783 -1.324874,-0.080621 -1.943734,0.1295823 -0.215396,0.073162 -0.419386,0.1761087 -0.631453,0.2584209 -0.212068,0.082312 -0.43733,0.1444903 -0.66437,0.1303259 -0.043241,-0.0027 -0.087026,-0.00812 -0.1295822,0 -0.035764,0.00683 -0.06908,0.02298 -0.1005501,0.041293 -0.03147,0.018312 -0.061595,0.038952 -0.093823,0.055894 -0.1052906,0.055349 -0.2268062,0.068427 -0.3446103,0.084914 -0.1178041,0.016487 -0.2396831,0.039238 -0.3356966,0.109459 -0.059106,0.043228 -0.1047099,0.1018807 -0.1531806,0.15677 -0.048471,0.054889 -0.1025969,0.10807 -0.1707751,0.1347901 -0.031811,0.012467 -0.065842,0.0188 -0.097187,0.032395 -0.042789,0.018559 -0.078646,0.049755 -0.1136425,0.080586 -0.034997,0.030831 -0.070596,0.062247 -0.1131265,0.081392 -0.02666,0.012001 -0.055292,0.018822 -0.083254,0.027362 -0.027961,0.00854 -0.055912,0.019143 -0.078724,0.037429 -0.021149,0.016952 -0.036838,0.039667 -0.051235,0.062631 -0.014397,0.022964 -0.027944,0.046695 -0.045952,0.066951 -0.042182,0.047449 -0.1040868,0.071123 -0.1619778,0.097187 -0.2129393,0.09587 -0.4042717,0.2497604 -0.5183285,0.4535379 -0.040222,0.071861 -0.070448,0.148879 -0.097187,0.226769 -0.040004,0.116532 -0.072489,0.2356446 -0.097187,0.3563512"
     id="path2"
     inkscape:path-effect="#path-effect2"
     inkscape:original-d="m 18.141517,25.333333 c 1.151889,-0.680219 2.364585,-1.261468 3.498722,-1.976129 0.314362,-0.198092 0.606574,-0.429365 0.907076,-0.647912 0.631876,-0.459546 1.308044,-0.967623 1.911338,-1.4578 0.670807,-0.545031 1.320501,-1.100404 1.522592,-1.97613 0.142991,-0.619627 0.161978,-1.246817 0.161978,-1.878943 0,-0.49214 -0.01604,-0.970936 -0.09719,-1.4578 -0.08367,-0.502005 -0.233228,-0.991196 -0.323956,-1.490196 -0.14755,-0.811524 -0.129582,-1.675115 -0.129582,-2.494459 0,-0.595916 -0.01586,-1.186659 -0.0324,-1.781756 -0.01049,-0.3778025 0.01111,-0.7560599 0,-1.1338448 C 25.543227,8.4645928 25.452175,7.5375146 25.236147,6.9974425 25.191308,6.8853464 25.121727,6.7844562 25.074169,6.6734868 24.80866,6.0539669 25.092111,6.5672048 24.782609,6.0255754 24.631519,5.7611679 24.457944,5.4253707 24.26428,5.1832907 23.996551,4.8486302 23.38019,4.441144 23.000853,4.2762148 22.726282,4.1568364 22.38595,4.1143051 22.093777,4.0818414 20.736541,3.9310375 19.541835,4.308552 18.335891,4.9565217 17.614942,5.3438971 16.801407,6.3444053 16.00341,6.5439045 15.852925,6.5815259 15.661687,6.4755599 15.517477,6.4467178 15.39793,6.4228084 15.105319,6.3941773 14.999147,6.3819267 14.389507,6.3115835 13.798917,6.28474 13.184996,6.28474 c -0.675465,0 -1.276124,-0.00394 -1.943734,0.1295823 -0.447107,0.089421 -0.857649,0.2692447 -1.295823,0.3887468 -0.041672,0.011365 -0.08821,-0.012412 -0.1295822,0 -0.069384,0.020815 -0.1267631,0.071183 -0.1943734,0.097187 -0.2139882,0.082303 -0.4755512,0.091996 -0.6803069,0.1943734 -0.1077494,0.053875 -0.2115183,0.2166018 -0.3239557,0.2915601 -0.028413,0.018942 -0.066644,0.017124 -0.097187,0.032395 -0.1214416,0.060721 -0.094703,0.088608 -0.226769,0.1619779 -0.050834,0.028241 -0.1154563,0.0299 -0.1619778,0.064791 C 8.088093,7.6777495 8.074734,7.7393815 8.0341,7.7749358 7.986714,7.8163988 7.9245128,7.8371958 7.8721222,7.8721228 7.694477,7.9905533 7.4807161,8.1479693 7.3537937,8.3256607 7.277049,8.4331033 7.3019279,8.4466809 7.256607,8.5524297 7.1974355,8.6904965 7.1594203,8.7588349 7.1594203,8.9087809" />
</svg>
