<?xml version="1.0" encoding="UTF-8" standalone="no"?>
<svg
   width="57px"
   height="38px"
   viewBox="0 0 57 38"
   version="1.1"
   id="svg2"
   sodipodi:docname="trust.svg"
   inkscape:version="1.3.2 (091e20e, 2023-11-25, custom)"
   xmlns:inkscape="http://www.inkscape.org/namespaces/inkscape"
   xmlns:sodipodi="http://sodipodi.sourceforge.net/DTD/sodipodi-0.dtd"
   xmlns="http://www.w3.org/2000/svg"
   xmlns:svg="http://www.w3.org/2000/svg">
  <sodipodi:namedview
     id="namedview2"
     pagecolor="#ffffff"
     bordercolor="#000000"
     borderopacity="0.25"
     inkscape:showpageshadow="2"
     inkscape:pageopacity="0.0"
     inkscape:pagecheckerboard="0"
     inkscape:deskcolor="#d1d1d1"
     inkscape:zoom="25.368421"
     inkscape:cx="28.5"
     inkscape:cy="18.98029"
     inkscape:window-width="2560"
     inkscape:window-height="1369"
     inkscape:window-x="-8"
     inkscape:window-y="-8"
     inkscape:window-maximized="1"
     inkscape:current-layer="svg2" />
  <!-- Generator: Sketch 49 (51002) - http://www.bohemiancoding.com/sketch -->
  <title
     id="title1">Trust and integrity icon</title>
  <desc
     id="desc1">Created with Sketch.</desc>
  <defs
     id="defs1">
    <inkscape:path-effect
       effect="spiro"
       id="path-effect7"
       is_visible="true"
       lpeversion="1" />
    <inkscape:path-effect
       effect="spiro"
       id="path-effect6"
       is_visible="true"
       lpeversion="1" />
    <inkscape:path-effect
       effect="spiro"
       id="path-effect5"
       is_visible="true"
       lpeversion="1" />
    <inkscape:path-effect
       effect="spiro"
       id="path-effect4"
       is_visible="true"
       lpeversion="1" />
    <inkscape:path-effect
       effect="spiro"
       id="path-effect3"
       is_visible="true"
       lpeversion="1" />
  </defs>
  <path
     style="fill:none;stroke:#95aabf;stroke-width:1.079;stroke-opacity:1"
     d="m 18.842324,26.923237 c 0.0546,-0.553249 0.01442,-1.11573 -0.118258,-1.655602 -0.08858,-0.360427 -0.217678,-0.70965 -0.314778,-1.067876 -0.0971,-0.358225 -0.162265,-0.731572 -0.118832,-1.100174 0.02483,-0.210738 0.08495,-0.418597 0.07884,-0.630705 -0.0015,-0.05261 -0.0071,-0.105525 0,-0.157677 0.01294,-0.09499 0.06702,-0.180793 0.07884,-0.275933 0.0081,-0.06527 -0.0042,-0.131461 0,-0.197096 0.008,-0.126363 0.0754,-0.2403 0.111692,-0.361604 0.01814,-0.06065 0.02857,-0.124776 0.0193,-0.187403 -0.0093,-0.06263 -0.04001,-0.123808 -0.09158,-0.160536 -0.04507,-0.0321 -0.102894,-0.04335 -0.157978,-0.03804 -0.05508,0.0053 -0.107729,0.02615 -0.15596,0.05328 -0.09646,0.05427 -0.177647,0.133797 -0.277348,0.181853 -0.109665,0.05286 -0.233928,0.0641 -0.354772,0.07884 -0.300196,0.03663 -0.600267,0.100898 -0.873088,0.231386 -0.272822,0.130488 -0.518205,0.331599 -0.664257,0.596415 -0.03708,0.06724 -0.06815,0.138911 -0.118257,0.197096 -0.04857,0.0564 -0.113282,0.09793 -0.157676,0.157676 -0.03514,0.04729 -0.05569,0.103495 -0.07884,0.157676 -0.09483,0.221988 -0.238408,0.419208 -0.354772,0.630706 -0.25675,0.466658 -0.37704,0.994842 -0.473701,1.518623 -0.09666,0.523782 -0.173637,1.054943 -0.3541,1.556065 -0.149974,0.416459 -0.372712,0.819292 -0.394191,1.261411 -0.0015,0.03183 -0.0021,0.06436 -0.01304,0.09431 -0.0054,0.01497 -0.01351,0.02914 -0.02465,0.04053 -0.01114,0.01139 -0.02549,0.01989 -0.04115,0.02284 -0.01295,0.0024 -0.02628,0.0011 -0.03942,0 -0.17803,-0.0148 -0.355935,0.02011 -0.531882,0.05104 -0.175946,0.03093 -0.356367,0.05803 -0.532434,0.0278 -0.123143,-0.02115 -0.239672,-0.06964 -0.354771,-0.118257 -0.433904,-0.183273 -0.86492,-0.373419 -1.30083,-0.551868 -0.26687,-0.109249 -0.536423,-0.214516 -0.788382,-0.354771 C 10.018459,26.685215 9.6525597,26.352863 9.2634855,26.056017 8.9291157,25.800908 8.5695824,25.564819 8.3174274,25.228216 8.084472,24.917242 7.9586337,24.540508 7.7655602,24.20332 7.6982933,24.085844 7.6225683,23.972638 7.5684647,23.848548 7.4859826,23.65937 7.4565449,23.4507 7.4534436,23.244346 c -0.0031,-0.206354 0.019236,-0.41211 0.036183,-0.61779 0.019453,-0.236104 0.031828,-0.472761 0.039419,-0.709544 0.014934,-0.465847 0.0092,-0.94448 -0.1576763,-1.379668 C 7.3397435,20.454869 7.3023084,20.374193 7.253112,20.30083 7.1447084,20.139176 6.9813774,20.018221 6.8011051,19.944837 6.6208329,19.871454 6.4241147,19.843865 6.2294963,19.846498 5.8402596,19.851762 5.4637616,19.974206 5.0850622,20.064315 4.5924821,20.181522 4.0815744,20.245149 3.5788295,20.184982 3.0760846,20.124814 2.5801438,19.934048 2.2074689,19.591286 1.9829123,19.384753 1.8067344,19.126228 1.6950207,18.842324 1.4998856,18.346417 1.5051951,17.79365 1.5767635,17.26556 1.6850604,16.466456 1.9396878,15.687257 2.3257261,14.979253 2.455265,14.741675 2.5994493,14.512013 2.719917,14.26971 c 0.099018,-0.19916 0.1816744,-0.406197 0.2828789,-0.604254 0.1012046,-0.198058 0.2228155,-0.389127 0.3872456,-0.5389 0.096619,-0.08801 0.2093217,-0.163492 0.2759336,-0.275934 0.019957,-0.03369 0.035428,-0.07023 0.059389,-0.101199 0.01198,-0.01548 0.026111,-0.0295 0.042764,-0.03979 0.016653,-0.01029 0.035946,-0.01674 0.055523,-0.01668 0.028092,8.4e-5 0.055186,0.01375 0.07464,0.03402 0.019453,0.02027 0.03172,0.04665 0.03833,0.07395 0.013221,0.05461 0.00477,0.11178 0.00529,0.167961 0.00102,0.110767 0.037419,0.218927 0.089381,0.316756 0.051961,0.09783 0.1192448,0.186552 0.1865527,0.27453 0.4038961,0.527929 0.8238333,1.052695 1.1037345,1.655602 0.1286783,0.277173 0.2277966,0.570861 0.3998333,0.82342 0.086018,0.12628 0.1904349,0.241521 0.3163607,0.328057 0.1259257,0.08654 0.2742804,0.143452 0.4269595,0.149353 0.1230643,0.0048 0.2466984,-0.02375 0.3573857,-0.07774 0.1106873,-0.054 0.2085029,-0.133093 0.2881294,-0.227046 C 7.2694985,16.023902 7.3535133,15.780598 7.3808523,15.535808 7.4355301,15.046227 7.2769678,14.561158 7.2136929,14.072614 7.0655382,12.928716 7.4407043,11.789509 7.5684647,10.643154 7.6443878,9.961919 7.6328531,9.272436 7.7261411,8.593361 7.8028604,8.034895 7.9515447,7.483589 8.1991701,6.9771784 8.3024476,6.765969 8.4226799,6.5628998 8.5145228,6.346473 8.5876922,6.1740501 8.6431946,5.9925151 8.742893,5.8339477 8.7927422,5.754664 8.8537437,5.6815518 8.9282969,5.6248713 c 0.074553,-0.05668 0.163206,-0.096454 0.2563504,-0.1061991 0.080438,-0.00842 0.1629328,0.00585 0.2365145,0.039419 0.1281183,0.058448 0.2227746,0.1698215 0.3153527,0.2759336 0.3300885,0.378344 0.6879485,0.7314868 1.0248965,1.1037344 0.620529,0.6855368 1.170248,1.4368505 1.616182,2.246888 0.28205,0.5123441 0.523623,1.0495408 0.860715,1.5274718 0.337092,0.477931 0.787711,0.902375 1.346754,1.074188 0.467993,0.14383 0.968909,0.118257 1.458506,0.118257 h 0.315353 c 0.02645,0 0.05287,-0.0016 0.0792,-0.0043 0.01316,-0.0013 0.02636,-0.0026 0.03959,-0.0024 0.01323,1.81e-4 0.02657,0.0019 0.0389,0.0067 0.02289,0.0089 0.04061,0.02809 0.05265,0.04951 0.01205,0.02142 0.01907,0.04522 0.02619,0.06874 0.08411,0.277966 0.201027,0.558678 0.418454,0.751201 0.108713,0.09626 0.241571,0.167562 0.384627,0.19246 0.143056,0.0249 0.296215,0.0012 0.41891,-0.07644 0.0947,-0.05994 0.167514,-0.148204 0.236515,-0.236514 0.646381,-0.827266 1.114858,-1.828129 1.143153,-2.8775935 0.0085,-0.31534 -0.02246,-0.6314044 0,-0.9460581 0.01801,-0.2522463 0.07019,-0.5009828 0.09171,-0.7529537 C 19.310331,7.8249508 19.299404,7.56322 19.197097,7.3319501 19.122113,7.1624463 19.00044,7.0147058 18.942276,6.83872 c -0.02908,-0.087993 -0.04135,-0.183391 -0.02114,-0.2738334 0.01011,-0.045221 0.02833,-0.088795 0.05495,-0.1267204 0.02662,-0.037925 0.06175,-0.070099 0.102749,-0.091693 0.04158,-0.0219 0.0883,-0.032608 0.135065,-0.037178 0.04677,-0.00457 0.09389,-0.00321 0.140869,-0.00224 0.342047,0.00708 0.685855,-0.00638 1.024896,0.039419 0.483501,0.065318 0.941866,0.2488451 1.396173,0.4267327 0.454308,0.1778876 0.917032,0.3533144 1.402582,0.4010682 0.131469,0.01293 0.264106,0.016419 0.394191,0.039419 0.132046,0.023347 0.26065,0.066667 0.394191,0.078838 0.144038,0.013127 0.289351,-0.010423 0.43361,0 0.146631,0.010594 0.288389,0.055955 0.43361,0.078838 0.235445,0.0371 0.47986,0.015146 0.709543,0.078838 0.159173,0.044139 0.304388,0.1276849 0.443576,0.2166289 0.139188,0.088944 0.274944,0.1844781 0.423644,0.2564001 0.128089,0.061953 0.264178,0.1055907 0.394893,0.1617908 0.130715,0.0562 0.258543,0.1269514 0.35407,0.2324001 0.09167,0.1011901 0.148713,0.2289592 0.19213,0.3584104 0.04342,0.1294512 0.07475,0.2629089 0.123223,0.3905522 0.09227,0.2429513 0.24376,0.4579123 0.384675,0.676273 0.140915,0.2183607 0.274824,0.4483777 0.324868,0.7033947 0.02545,0.129667 0.02848,0.262504 0.03942,0.394191 0.01964,0.236534 0.06497,0.473575 0.03942,0.709544 -0.02648,0.244501 -0.127497,0.473666 -0.197095,0.709543 -0.03802,0.128852 -0.06691,0.261257 -0.07167,0.395516 -0.0048,0.13426 0.01535,0.270898 0.07167,0.392866 0.02464,0.05336 0.05597,0.10353 0.07884,0.157676 0.03252,0.07698 0.04717,0.160049 0.06609,0.241441 0.01892,0.08139 0.04312,0.163516 0.09159,0.231588 0.03724,0.05231 0.0878,0.09448 0.144071,0.125417 0.05627,0.03093 0.118175,0.05087 0.181282,0.06272 0.126214,0.02371 0.255933,0.01546 0.38419,0.009 0.367629,-0.01862 0.736298,-0.02208 1.103735,0 0.184095,0.01106 0.367762,0.02853 0.551867,0.03942 0.288746,0.01709 0.578529,0.01799 0.86722,0 0.01652,-0.001 0.03357,-0.0021 0.04918,0.0035 0.0078,0.0028 0.01511,0.0072 0.02058,0.0134 0.0055,0.0062 0.009,0.01427 0.0091,0.02255 5.9e-5,0.0068 -0.0021,0.01331 -0.0032,0.01998 -5.46e-4,0.0033 -8.21e-4,0.0067 -4.05e-4,0.01009 4.16e-4,0.0034 0.0016,0.0067 0.0036,0.0093 0.0022,0.0028 0.0054,0.0049 0.0088,0.0059 0.0034,0.0011 0.0071,0.0012 0.01068,7.65e-4 0.0071,-9.35e-4 0.01369,-0.0043 0.02013,-0.0075 0.0064,-0.0032 0.01309,-0.0064 0.02025,-0.0071 0.0036,-3.2e-4 0.0073,2.9e-5 0.01062,0.0013 0.0034,0.0013 0.0064,0.0035 0.0083,0.0066 0.0018,0.0028 0.0027,0.0062 0.0028,0.0095 1.59e-4,0.0033 -3.24e-4,0.0067 -9.6e-4,0.01 -0.0013,0.0066 -0.0032,0.01332 -0.0019,0.01989 0.0011,0.0054 0.0044,0.01029 0.0087,0.01369 0.0044,0.0034 0.0097,0.0054 0.01523,0.006 0.01097,0.0014 0.02196,-0.0023 0.03197,-0.007 0.01001,-0.0047 0.01956,-0.01051 0.03008,-0.01391 0.0053,-0.0017 0.01076,-0.0028 0.01629,-0.0027 0.0055,4.6e-5 0.0111,0.0013 0.01595,0.0039 0.0066,0.0036 0.01158,0.0098 0.01495,0.01651 0.0034,0.0067 0.0053,0.01412 0.0069,0.02147 0.0017,0.0074 0.0031,0.01479 0.0057,0.02188 0.0026,0.0071 0.0063,0.01391 0.01189,0.01897 0.0051,0.0046 0.01156,0.0076 0.01827,0.0091 0.0067,0.0015 0.01369,0.0015 0.02052,6.65e-4 0.01365,-0.0016 0.02667,-0.0065 0.04005,-0.0097 0.04714,-0.01118 0.09917,5.06e-4 0.137,0.03077 0.03783,0.03027 0.06065,0.07846 0.06009,0.126904"
     id="path3"
     inkscape:path-effect="#path-effect3"
     inkscape:original-d="m 18.842324,26.923237 c 0.02262,-0.560526 -0.03991,-1.094138 -0.118258,-1.655602 -0.102251,-0.732804 -0.372277,-1.432064 -0.43361,-2.16805 -0.0189,-0.226745 0.0516,-0.41283 0.07884,-0.630705 0.0065,-0.05215 -0.0074,-0.105646 0,-0.157677 0.07475,-0.523234 0.0056,0.383067 0.07884,-0.275933 0.0073,-0.0653 -0.0065,-0.131723 0,-0.197096 0.01769,-0.176869 0.109085,-0.57021 0.03942,-0.709543 -0.02439,-0.04878 -0.535072,0.181034 -0.591286,0.197095 -0.116481,0.03328 -0.238553,0.04466 -0.354772,0.07884 -0.49405,0.145309 -1.183435,0.429653 -1.537345,0.827801 -0.0509,0.05726 -0.07122,0.136618 -0.118257,0.197096 -0.04563,0.05867 -0.113079,0.09821 -0.157676,0.157676 -0.03526,0.04701 -0.05052,0.106188 -0.07884,0.157676 -0.116245,0.211355 -0.246899,0.414958 -0.354772,0.630706 -0.481298,0.962595 -0.588733,2.038728 -0.827801,3.074688 -0.102169,0.442734 -0.159157,0.869688 -0.394191,1.261411 -0.03023,0.05039 -0.03729,0.116125 -0.07884,0.157677 -0.0093,0.0093 -0.02695,-0.0042 -0.03942,0 -0.353241,0.117746 -0.687752,0.162518 -1.064316,0.07884 -0.121685,-0.02704 -0.237115,-0.07708 -0.354771,-0.118257 -0.453582,-0.158754 -0.867605,-0.34557 -1.30083,-0.551868 -0.114861,-0.0547 -0.70929,-0.309576 -0.788382,-0.354771 C 10.021639,26.680711 9.6594054,26.342717 9.2634855,26.056017 8.9204604,25.807619 8.5595258,25.591363 8.3174274,25.228216 8.1021978,24.905371 7.9513599,24.543952 7.7655602,24.20332 7.7007804,24.084557 7.617497,23.974631 7.5684647,23.848548 7.416309,23.45729 7.4447175,23.030737 7.4896266,22.626556 7.6126719,21.519148 7.4708028,22.848898 7.5290456,21.917012 7.5623758,21.383729 7.586291,21.053157 7.3713693,20.537344 7.3374678,20.455981 7.3059983,20.371345 7.253112,20.30083 7.0558322,20.03779 5.4512387,20.079573 5.0850622,20.064315 4.4397991,20.037429 2.7151184,20.04253 2.2074689,19.591286 2.0189133,19.423681 1.7742957,19.080148 1.6950207,18.842324 1.5658349,18.454766 1.5213987,17.653114 1.5767635,17.26556 1.6532735,16.72999 2.2332002,15.199002 2.3257261,14.979253 2.43072,14.729893 2.585143,14.504316 2.719917,14.26971 c 0.2200201,-0.382998 0.425115,-0.77564 0.6701245,-1.143154 0.072153,-0.10823 0.1839557,-0.183956 0.2759336,-0.275934 0.052559,-0.05256 0.089357,-0.186956 0.1576764,-0.157676 0.091978,0.03942 0.076848,0.184834 0.1182572,0.275934 0.090002,0.198005 0.1707316,0.40092 0.2759336,0.591286 0.3906352,0.706864 0.6246459,1.029101 1.1037345,1.655602 0.057563,0.07527 1.0987065,1.360092 1.1431535,1.30083 C 6.776708,16.100627 7.1333393,14.53063 7.2136929,14.072614 7.4107916,12.949152 7.5028035,11.781281 7.5684647,10.643154 7.614198,9.8504427 7.5802136,9.387855 7.7261411,8.593361 7.7624811,8.39551 8.1075223,7.2062981 8.1991701,6.9771784 8.2864655,6.75894 8.4094053,6.5567082 8.5145228,6.346473 8.6346863,6.106146 8.805094,5.5186722 9.1846473,5.5186722 c 0.079926,0 0.1671196,-2.351e-4 0.2365145,0.039419 0.1212735,0.069299 0.2180279,0.1757462 0.3153527,0.2759336 0.3498335,0.3601224 0.6942825,0.7258905 1.0248965,1.1037344 0.608322,0.6952252 1.12397,1.4675521 1.616182,2.246888 0.604024,0.9563708 1.149903,2.0728768 2.207469,2.6016598 0.438266,0.219133 0.996595,0.118257 1.458506,0.118257 0.105118,0 0.210236,0 0.315353,0 0.05256,0 0.110667,-0.02351 0.157677,0 0.04237,0.02119 0.04534,0.08476 0.07884,0.118258 0.127965,0.127965 1.090763,0.954705 1.221991,0.867219 0.09277,-0.06184 0.173462,-0.144562 0.236515,-0.236514 0.674752,-0.984013 1.03982,-1.689262 1.143153,-2.8775935 0.02732,-0.3141671 0,-0.6307054 0,-0.9460581 0,-0.4993084 0.01957,-0.9990003 0,-1.4979253 -0.01055,-0.2689847 -0.189606,-0.7000803 -0.118257,-0.9854772 0.0042,-0.016822 0.207794,-0.031848 0.275934,-0.039419 0.371057,-0.041228 0.640888,-0.047292 1.024896,0.039419 0.95014,0.2145478 1.840608,0.6361713 2.798755,0.8278009 0.129488,0.025898 0.2636,0.01983 0.394191,0.039419 0.132517,0.019877 0.260795,0.066134 0.394191,0.078838 0.143886,0.013703 0.289667,-0.013086 0.43361,0 0.146303,0.0133 0.288051,0.058989 0.43361,0.078838 0.07728,0.010539 0.577287,0.042768 0.709543,0.078838 0.321496,0.087681 0.576632,0.3277346 0.86722,0.473029 0.22818,0.1140899 0.582378,0.1720771 0.748963,0.3941909 0.100932,0.1345755 0.244108,0.5962958 0.315353,0.7489626 0.216179,0.4632423 0.583424,0.8751919 0.709543,1.3796677 0.03203,0.12811 0.02628,0.262794 0.03942,0.394191 0.01682,0.168172 0.06574,0.525318 0.03942,0.709544 -0.03421,0.239471 -0.166423,0.464166 -0.197095,0.709543 -0.02343,0.187477 -0.03391,0.61884 0,0.788382 0.01152,0.05762 0.06026,0.101929 0.07884,0.157676 0.05126,0.153764 0.08666,0.331 0.157677,0.473029 0.109399,0.218799 0.492017,0.197096 0.709543,0.197096 0.357686,0 0.745672,-0.04476 1.103735,0 0.188941,0.02362 0.359025,0.03942 0.551867,0.03942 0.154912,0 0.777513,-0.04485 0.86722,0 0.02628,0.01314 0.05806,0.01864 0.07884,0.03942 0.0093,0.0093 -0.01175,0.03354 0,0.03942 0.02351,0.01175 0.05533,-0.01175 0.07884,0 0.01175,0.0059 -0.0093,0.03013 0,0.03942 0.01971,0.01971 0.09855,-0.01971 0.118257,0 0.01971,0.01971 0.01971,0.05913 0.03942,0.07884 0.01858,0.01858 0.05533,-0.01175 0.07884,0 0.08279,0.04139 0.130884,0.157677 0.197095,0.157677" />
  <path
     style="fill:none;stroke:#95aabf;stroke-width:1.079;stroke-opacity:1"
     d="m 36.659751,16.043568 c -0.305336,-0.822001 -0.594484,-1.650016 -0.86722,-2.483402 -0.229611,-0.701613 -0.448356,-1.410287 -0.560052,-2.140017 -0.111696,-0.72973 -0.113424,-1.4855878 0.08702,-2.1960826 0.03725,-0.1320329 0.08133,-0.2620684 0.118257,-0.3941909 0.07729,-0.2764985 0.122949,-0.5609357 0.196324,-0.8384977 0.07337,-0.2775621 0.177172,-0.5527227 0.355544,-0.7776849 0.07528,-0.094946 0.162876,-0.1797068 0.236514,-0.2759336 0.08035,-0.1049945 0.142999,-0.2221932 0.213763,-0.3338715 0.07076,-0.1116783 0.151702,-0.2199596 0.259266,-0.2968339 0.12742,-0.091065 0.285579,-0.1324013 0.442089,-0.1381665 0.15651,-0.00577 0.312407,0.022163 0.46455,0.059329 0.390704,0.095441 0.766854,0.2533263 1.103735,0.473029 0.119062,0.077648 0.233172,0.1629026 0.354771,0.2365145 0.323692,0.1959525 0.7014,0.306197 1.079693,0.2978981 0.378292,-0.0083 0.755605,-0.137718 1.048938,-0.3767361 0.07959,-0.064849 0.152992,-0.1374042 0.236515,-0.1970955 0.100895,-0.072107 0.214959,-0.124291 0.315352,-0.1970954 0.128112,-0.092906 0.231173,-0.2178369 0.308972,-0.355647 0.0778,-0.1378101 0.131021,-0.2884468 0.16931,-0.441999 0.07658,-0.3071043 0.09427,-0.6256754 0.152424,-0.9367938 0.08438,-0.4514108 0.25358,-0.8851922 0.315352,-1.340249 0.07262,-0.5349821 -0.0055,-1.0829284 0.07884,-1.6161826 0.07606,-0.4806914 0.295273,-0.95102981 0.670124,-1.26141077 0.399475,-0.33076975 0.940203,-0.45234041 1.458506,-0.43360996 0.556925,0.02012619 1.098261,0.18845347 1.616183,0.39419088 0.639493,0.25402975 1.254398,0.56675585 1.852697,0.90663895 0.52457,0.297999 1.048767,0.6274571 1.419087,1.1037345 0.267713,0.3443127 0.442587,0.7496649 0.630705,1.1431535 0.0964,0.2016356 0.197134,0.4016194 0.315353,0.5912863 0.285679,0.4583325 0.671742,0.8539318 0.906639,1.340249 0.159134,0.3294615 0.244013,0.7087672 0.157676,1.0643153 -0.08376,0.3449325 -0.318751,0.633961 -0.5793,0.8750176 -0.260548,0.2410567 -0.552976,0.4472049 -0.800368,0.7017459 -0.115025,0.1183488 -0.219745,0.246605 -0.338487,0.3612248 -0.118741,0.1146199 -0.254105,0.2167008 -0.410475,0.2694806 -0.02803,0.00946 -0.05672,0.01734 -0.08343,0.030043 -0.02672,0.012704 -0.05179,0.030845 -0.067,0.05622 -0.0076,0.012688 -0.01258,0.027049 -0.01362,0.041803 -0.001,0.014754 0.0019,0.029886 0.0092,0.04275 0.0073,0.012864 0.01899,0.023333 0.03288,0.028418 0.01389,0.00509 0.0299,0.00456 0.04308,-0.00214 0.0083,-0.00424 0.01536,-0.010724 0.02157,-0.017731 0.0062,-0.00701 0.01173,-0.014601 0.01785,-0.021688 0.02267,-0.02625 0.05331,-0.044986 0.08615,-0.056145 0.03284,-0.011159 0.06785,-0.014994 0.102529,-0.01434 0.06935,0.00131 0.137015,0.020141 0.205515,0.031066 0.249472,0.039792 0.502003,-0.025631 0.748962,-0.078838 0.994248,-0.2142075 2.024914,-0.2348547 3.03527,-0.1182573 0.585305,0.067545 1.18962,0.1913055 1.655602,0.5518673 0.163969,0.1268736 0.309035,0.2840018 0.39419,0.473029 0.06918,0.1535596 0.09674,0.3239638 0.0934,0.4923528 -0.0033,0.168389 -0.03687,0.335129 -0.08548,0.496382 -0.09723,0.322506 -0.254106,0.623936 -0.362685,0.942801 -0.121459,0.35669 -0.181141,0.731022 -0.236515,1.103734 -0.09061,0.609859 -0.171815,1.224496 -0.354772,1.813278 -0.03334,0.1073 -0.07012,0.213824 -0.118257,0.315353 -0.118521,0.249991 -0.304377,0.464818 -0.52151,0.63627 -0.217134,0.171452 -0.465135,0.300886 -0.722422,0.402602 -0.514574,0.203433 -1.064998,0.297584 -1.594242,0.459053 -0.317963,0.09701 -0.628114,0.21828 -0.946058,0.315353 -0.64277,0.196248 -1.331268,0.299833 -1.892116,0.670125 -0.125119,0.08261 -0.241805,0.177357 -0.354772,0.275933 -0.02805,0.02448 -0.05607,0.04939 -0.07884,0.07884 -0.04613,0.05964 -0.06833,0.135465 -0.07172,0.210787 -0.0034,0.07532 0.01105,0.150484 0.0323,0.222823 0.0722,0.245679 0.222302,0.462699 0.399738,0.647327 0.177437,0.184628 0.382587,0.339941 0.585739,0.495827 0.451205,0.346226 0.900029,0.701227 1.401747,0.969066 0.501717,0.267838 1.065918,0.446435 1.633522,0.410602 0.194929,-0.01231 0.393189,-0.04938 0.583339,-0.0047 0.09508,0.02231 0.186771,0.06601 0.255496,0.135392 0.06873,0.06938 0.112519,0.166034 0.107224,0.263549 -0.0014,0.02636 -0.0063,0.0532 0,0.07884 0.0041,0.01663 0.01276,0.03196 0.02398,0.0449 0.01122,0.01294 0.02492,0.02358 0.0396,0.0324 0.02936,0.01765 0.06236,0.02808 0.0941,0.04095 0.152846,0.06198 0.276129,0.180629 0.378741,0.309755 0.102613,0.129126 0.188405,0.270954 0.291383,0.399789 0.134966,0.168855 0.300758,0.317516 0.394191,0.512448 0.08815,0.183902 0.104082,0.397097 0.06952,0.598082 -0.03456,0.200986 -0.11723,0.391059 -0.21819,0.56825 -0.201919,0.354382 -0.479295,0.666138 -0.639713,1.041137 -0.236852,0.553676 -0.194178,1.179964 -0.240624,1.78038 -0.02322,0.300207 -0.07065,0.601869 -0.185537,0.880195 -0.114885,0.278326 -0.302074,0.533552 -0.559316,0.690047 -0.21072,0.128193 -0.456562,0.18455 -0.699325,0.228165 -0.242763,0.04361 -0.489718,0.07705 -0.719762,0.166026 -0.231627,0.08958 -0.438366,0.232528 -0.66119,0.34219 -0.111412,0.05483 -0.227562,0.101547 -0.34896,0.127651 -0.121399,0.02611 -0.248526,0.03111 -0.369518,0.0032 -0.131909,-0.03045 -0.255678,-0.0994 -0.390915,-0.105565 -0.06762,-0.0031 -0.137772,0.01092 -0.192913,0.05018 -0.02757,0.01963 -0.05097,0.04539 -0.0665,0.07546 -0.01553,0.03007 -0.023,0.06449 -0.0198,0.09818 6.25e-4,0.0066 0.0017,0.01315 0.002,0.01977 3.55e-4,0.0066 2.2e-5,0.01335 -0.002,0.01966 -0.0024,0.0074 -0.0071,0.01399 -0.01291,0.01915 -0.0058,0.0052 -0.0128,0.009 -0.0201,0.01167 -0.0146,0.0054 -0.03037,0.0066 -0.04583,0.0086 -0.103972,0.01324 -0.201569,0.06445 -0.276758,0.137476 -0.07519,0.07302 -0.128509,0.167017 -0.15977,0.267058 -0.06252,0.200082 -0.03765,0.417481 0.01429,0.620566 0.05195,0.203085 0.13012,0.399078 0.174982,0.603845 0.04486,0.204766 0.05432,0.425451 -0.02868,0.617943 -0.08109,0.188067 -0.242173,0.33046 -0.414581,0.441005 -0.172408,0.110545 -0.360267,0.195568 -0.531477,0.307958 -0.0945,0.06204 -0.183448,0.132095 -0.275934,0.197096 -0.311425,0.218875 -0.664747,0.380166 -1.037111,0.459141 -0.372364,0.07897 -0.763689,0.07456 -1.130939,-0.02553 -0.359507,-0.09799 -0.690243,-0.285108 -0.985477,-0.512448 -0.118718,-0.09142 -0.232337,-0.189558 -0.354772,-0.275933 -0.396237,-0.279538 -0.868372,-0.42544 -1.310636,-0.624306 -0.221132,-0.09943 -0.437215,-0.213565 -0.628879,-0.362061 -0.191664,-0.148497 -0.358857,-0.333011 -0.465049,-0.550978 -0.113479,-0.232925 -0.153367,-0.493581 -0.197095,-0.748962 -0.009,-0.05243 -0.01819,-0.104998 -0.02054,-0.15814 -0.0023,-0.05314 0.0024,-0.107221 0.02054,-0.157213 0.01775,-0.04881 0.04785,-0.0924 0.08273,-0.130872 0.03489,-0.03848 0.07462,-0.0722 0.11436,-0.105643 0.166163,-0.139804 0.335826,-0.27773 0.475531,-0.443976 0.139706,-0.166245 0.249289,-0.365114 0.273432,-0.58092 0.0073,-0.06542 0.0067,-0.131616 0,-0.197095 -0.0069,-0.06675 -0.02007,-0.132845 -0.03942,-0.197096"
     id="path4"
     inkscape:path-effect="#path-effect4"
     inkscape:original-d="M 36.659751,16.043568 C 36.335078,15.233507 36.037416,14.39977 35.792531,13.560166 35.3528,12.052517 35.060029,10.780904 35.319502,9.2240664 c 0.02255,-0.1353159 0.08499,-0.2611044 0.118257,-0.3941909 0.137495,-0.5499794 0.237317,-1.130059 0.551868,-1.6161826 0.06581,-0.1017072 0.16167,-0.1806774 0.236514,-0.2759336 0.126306,-0.1607534 0.277243,-0.5328124 0.473029,-0.6307054 0.224063,-0.1120313 0.675591,-0.103159 0.906639,-0.078838 0.40746,0.04289 0.764293,0.260878 1.103735,0.473029 0.120523,0.075328 0.220746,0.1892116 0.354771,0.2365145 0.817083,0.2883823 1.403032,0.3876186 2.128631,-0.078838 0.08633,-0.055495 0.153006,-0.1374463 0.236515,-0.1970955 0.10087,-0.07205 0.224266,-0.1130161 0.315352,-0.1970954 0.436234,-0.4026775 0.514258,-1.24277 0.630706,-1.7344398 0.102679,-0.4335344 0.24179,-0.9111353 0.315352,-1.340249 0.09178,-0.5353575 -0.02006,-1.0821112 0.07884,-1.6161826 0.09597,-0.518239 0.276654,-0.91423116 0.670124,-1.26141077 0.449713,-0.39680566 0.858551,-0.48360624 1.458506,-0.43360996 0.641785,0.05348203 1.011582,0.15235049 1.616183,0.39419088 0.297884,0.11915384 1.579914,0.72170135 1.852697,0.90663895 0.496014,0.3362811 0.98131,0.6945079 1.419087,1.1037345 0.343934,0.3215034 0.437139,0.7421937 0.630705,1.1431535 0.09711,0.2011606 0.202388,0.3985813 0.315353,0.5912863 0.272769,0.4653118 0.639038,0.8719463 0.906639,1.340249 0.11699,0.2047319 0.181637,0.8366927 0.157676,1.0643153 -0.08543,0.8115914 -0.805947,1.1380358 -1.379668,1.5767635 -0.259265,0.1982616 -0.506937,0.4117305 -0.748962,0.6307054 -0.0032,0.00285 -0.128908,0.1470261 -0.07884,0.1970955 0.01314,0.01314 0.02114,-0.036095 0.03942,-0.039419 0.129922,-0.023622 0.262839,-0.025831 0.394191,-0.039419 0.249701,-0.025831 0.49851,-0.061762 0.748962,-0.078838 1.010179,-0.068876 2.022855,-0.1033688 3.03527,-0.1182573 0.738955,-0.010867 1.064398,0.1014264 1.655602,0.5518673 0.109613,0.083515 0.339452,0.3307089 0.39419,0.473029 0.229892,0.5977198 -0.212375,1.4128068 -0.354771,1.9315358 -0.0996,0.362841 -0.162723,0.734777 -0.236515,1.103734 -0.191507,0.957536 -0.06265,0.612329 -0.354772,1.813278 -0.02653,0.109085 -0.05707,0.221225 -0.118257,0.315353 -0.637249,0.980383 -1.793365,1.172874 -2.838174,1.497925 -0.317405,0.09875 -0.628653,0.216605 -0.946058,0.315353 -1.316397,0.409546 -0.401512,0.03775 -1.892116,0.670125 -0.305907,0.129778 -0.175706,0.06105 -0.354772,0.275933 -0.02379,0.02855 -0.06222,0.0456 -0.07884,0.07884 -0.06173,0.123454 -0.03942,0.313094 -0.03942,0.43361 0,0.603106 0.514705,0.874141 0.985477,1.143154 0.968986,0.553706 2.012684,0.941417 3.035269,1.379668 0.148368,0.06359 0.833041,0.303776 0.946059,0.394191 0.02052,0.01642 -0.01642,0.05832 0,0.07884 0.04104,0.0513 0.109063,0.07406 0.157676,0.118257 0.210089,0.19099 0.494733,0.514664 0.670124,0.709544 0.07382,0.08203 0.348794,0.330859 0.394191,0.512448 0.05475,0.219004 -0.723895,2.002283 -0.788382,2.207469 -0.292488,0.930645 0.159148,2.801202 -0.985477,3.350622 -0.581959,0.279341 -0.792398,0.233042 -1.419087,0.394191 -0.475304,0.122221 -0.917915,0.319112 -1.379668,0.473029 -0.100539,0.03351 -0.633559,0.08169 -0.670124,0.118257 -0.0093,0.0093 0.0093,0.03013 0,0.03942 -0.02078,0.02078 -0.07329,0.01057 -0.07884,0.03942 -0.132257,0.687738 -0.05788,1.592738 -0.275933,2.246888 -0.135303,0.405909 -0.617907,0.552073 -0.946058,0.748963 -0.09692,0.05815 -0.177126,0.142202 -0.275934,0.197096 -0.582337,0.32352 -1.49537,0.625804 -2.16805,0.433609 -0.205249,-0.05864 -0.788351,-0.381031 -0.985477,-0.512448 -0.124654,-0.0831 -0.226799,-0.198037 -0.354772,-0.275933 -0.636547,-0.387464 -2.125857,-0.812706 -2.404564,-1.537345 -0.09267,-0.240947 -0.150088,-0.495124 -0.197095,-0.748962 -0.01914,-0.103361 -0.03536,-0.216359 0,-0.315353 0.03452,-0.09665 0.131397,-0.157676 0.197095,-0.236515 0.219412,-0.263294 0.640747,-0.700249 0.748963,-1.024896 0.01595,-0.04785 0,-0.149685 0,-0.197095 0,-0.08103 0.01981,-0.137863 -0.03942,-0.197096" />
  <path
     style="fill:none;stroke:#95aabf;stroke-width:1.079;stroke-opacity:1"
     d="m 36.344398,15.767635 c 0.224073,-0.101888 0.426759,-0.250525 0.591287,-0.43361 0.07476,-0.0832 0.143252,-0.17476 0.236514,-0.236515 0.108093,-0.07158 0.240245,-0.09692 0.354772,-0.157676 0.158193,-0.08392 0.275509,-0.231264 0.43361,-0.315353 0.09701,-0.0516 0.206264,-0.07739 0.315793,-0.08619 0.109528,-0.0088 0.219745,-0.0011 0.328927,0.0113 0.218366,0.02473 0.438777,0.06805 0.65611,0.03547 0.09482,-0.01422 0.187105,-0.04274 0.275933,-0.07884 0.117019,-0.04756 0.231563,-0.109177 0.357285,-0.121396 0.06286,-0.0061 0.127927,8.78e-4 0.185216,0.02746 0.05729,0.02658 0.106138,0.07396 0.127624,0.133354 0.0051,0.01404 0.0086,0.02862 0.01418,0.04248 0.0056,0.01386 0.01339,0.02727 0.02524,0.03636 0.0081,0.0062 0.01783,0.01017 0.02786,0.01216 0.01003,0.002 0.02037,0.0021 0.03054,9.97e-4 0.02034,-0.0021 0.03992,-0.0086 0.05986,-0.01316 0.09422,-0.02134 0.195502,0.0038 0.276336,0.05675 0.08083,0.05291 0.142466,0.131576 0.186697,0.217466 0.08846,0.171781 0.10987,0.369213 0.167673,0.553584 0.02119,0.06759 0.04737,0.133638 0.07884,0.197096 0.17207,0.34699 0.49322,0.601508 0.670124,0.946058 0.02684,0.05228 0.0502,0.106357 0.07884,0.157676 0.0685,0.122735 0.166205,0.227516 0.275934,0.315353 0.05132,0.04108 0.105431,0.07872 0.154656,0.122283 0.04922,0.04356 0.09397,0.09386 0.121278,0.15365 0.02492,0.05456 0.0344,0.114978 0.03757,0.174871 0.0032,0.05989 3.15e-4,0.119944 0.0018,0.179901 0.0054,0.211026 0.06512,0.421182 0.03942,0.630706 -0.01884,0.153605 -0.08287,0.298134 -0.157677,0.433609 -0.114006,0.206462 -0.256552,0.402306 -0.315352,0.630706 -0.01001,0.03888 -0.01762,0.07878 -0.03467,0.115134 -0.0085,0.01817 -0.01943,0.03537 -0.03339,0.04979 -0.01397,0.01442 -0.03109,0.02601 -0.0502,0.03217 -0.01459,0.0047 -0.03007,0.0062 -0.04462,0.01104 -0.0073,0.0024 -0.01433,0.0057 -0.02041,0.01037 -0.0061,0.0047 -0.01113,0.01083 -0.01381,0.01801 -0.0023,0.0063 -0.0028,0.01309 -0.0023,0.01975 4.91e-4,0.0067 0.0019,0.01322 0.0032,0.01976 0.0013,0.0065 0.0026,0.01314 0.0028,0.01982 1.74e-4,0.0067 -7.86e-4,0.01349 -0.0037,0.0195 -0.0033,0.0068 -0.009,0.01223 -0.01538,0.01619 -0.0064,0.004 -0.01361,0.0065 -0.02088,0.0085 -0.01453,0.0041 -0.02999,0.0064 -0.04258,0.01469 -0.0117,0.0077 -0.0198,0.02008 -0.0244,0.03332 -0.0046,0.01324 -0.0059,0.02739 -0.0062,0.0414 -2.97e-4,0.01401 4.04e-4,0.02804 -2.86e-4,0.04203 -6.9e-4,0.014 -0.0028,0.02812 -0.0085,0.04092 -0.0076,0.01714 -0.02113,0.03095 -0.03551,0.04299 -0.01438,0.01204 -0.02992,0.02274 -0.04333,0.03585 -0.03031,0.02962 -0.04808,0.07 -0.05847,0.111084 -0.01039,0.04109 -0.01406,0.08352 -0.02037,0.125431 -0.03114,0.206759 -0.129212,0.402898 -0.275934,0.551867"
     id="path5"
     inkscape:path-effect="#path-effect5"
     inkscape:original-d="m 36.344398,15.767635 c 0.177614,-0.169961 0.404706,-0.275734 0.591287,-0.43361 0.08511,-0.07202 0.143746,-0.174669 0.236514,-0.236515 0.107677,-0.07178 0.243803,-0.09109 0.354772,-0.157676 0.04673,-0.02804 0.337653,-0.29936 0.43361,-0.315353 0.408811,-0.06813 0.866363,0.03725 1.30083,-0.03942 0.0942,-0.01662 0.182133,-0.06008 0.275933,-0.07884 0.128949,-0.02579 0.573803,-0.01837 0.670125,0.03942 0.02519,0.01512 0.01314,0.0657 0.03942,0.07884 0.03526,0.01763 0.0888,-0.02619 0.118257,0 0.08123,0.0722 0.551313,0.69548 0.630706,0.827801 0.0364,0.06068 0.04447,0.135241 0.07884,0.197096 0.186441,0.335594 0.459063,0.629466 0.670124,0.946058 0.0326,0.04889 0.04468,0.109859 0.07884,0.157676 0.08119,0.11366 0.177168,0.216586 0.275934,0.315353 0.09172,0.09172 0.236539,0.138053 0.275934,0.275933 0.08231,0.288099 0.01385,0.09914 0.03942,0.354772 0.02142,0.214209 0.06367,0.412419 0.03942,0.630706 -0.01687,0.15187 -0.105626,0.294807 -0.157677,0.433609 -0.08768,0.233802 -0.176769,0.422832 -0.315352,0.630706 -0.0351,0.05264 -0.07393,0.152771 -0.118257,0.197095 -0.02078,0.02078 -0.06254,0.01497 -0.07884,0.03942 -0.01458,0.02187 0.01458,0.05697 0,0.07884 -0.0163,0.02445 -0.05806,0.01864 -0.07884,0.03942 -0.120993,0.120993 0.02303,0.03278 -0.03942,0.157676 -0.01662,0.03324 -0.05822,0.04792 -0.07884,0.07884 -0.03069,0.04603 -0.05799,0.184385 -0.07884,0.236515 -0.05672,0.141786 -0.179514,0.455447 -0.275934,0.551867" />
  <path
     style="fill:none;stroke:#1c1f30;stroke-width:1.079;stroke-opacity:1"
     d="m 30.313278,36.383817 c -0.218647,0.06179 -0.443534,0.101478 -0.670124,0.118258 -0.651861,0.04827 -1.301783,-0.09273 -1.936648,-0.248298 -0.634864,-0.155564 -1.272958,-0.327612 -1.926423,-0.342989 -0.362973,-0.0085 -0.729184,0.03135 -1.087516,-0.02713 -0.179166,-0.02924 -0.355797,-0.08367 -0.511919,-0.17631 -0.156123,-0.09264 -0.291173,-0.225059 -0.371519,-0.387847 -0.04431,-0.08978 -0.0716,-0.187353 -0.118258,-0.275934 -0.08753,-0.166186 -0.2376,-0.290467 -0.394191,-0.39419 -0.181892,-0.120482 -0.377585,-0.219489 -0.556097,-0.344924 -0.178513,-0.125435 -0.342865,-0.282587 -0.42938,-0.482877 -0.09541,-0.220896 -0.08729,-0.473731 -0.03942,-0.709544 0.04264,-0.210062 0.115549,-0.416376 0.118257,-0.630705 0.0031,-0.241946 -0.08428,-0.477076 -0.200841,-0.689117 -0.116559,-0.21204 -0.262592,-0.406285 -0.390445,-0.611713 -0.214497,-0.344645 -0.377057,-0.719503 -0.591286,-1.064315 -0.133825,-0.215397 -0.293515,-0.423909 -0.512448,-0.551868 -0.08225,-0.04808 -0.173977,-0.0858 -0.236515,-0.157676 -0.04271,-0.04909 -0.06837,-0.110533 -0.08952,-0.172066 -0.02115,-0.06153 -0.03866,-0.12471 -0.06816,-0.182706 -0.043,-0.08453 -0.109719,-0.154695 -0.157676,-0.236514 -0.06551,-0.111767 -0.09411,-0.241887 -0.157677,-0.354772 -0.0827,-0.146872 -0.219251,-0.255717 -0.315353,-0.394191 -0.10064,-0.145013 -0.153503,-0.317252 -0.236514,-0.473029 -0.04152,-0.07792 -0.09098,-0.152545 -0.118257,-0.236515 -0.03882,-0.119492 -0.0299,-0.248782 -0.01543,-0.373584 0.01448,-0.124803 0.03411,-0.251135 0.01543,-0.375378 -0.01424,-0.09471 -0.05025,-0.184521 -0.07884,-0.275934 -0.05465,-0.174745 -0.0826,-0.358705 -0.07237,-0.54151 0.01023,-0.182805 0.05933,-0.364437 0.151206,-0.522805 0.156891,-0.270426 0.427127,-0.457173 0.709543,-0.591286 0.428245,-0.203364 0.897183,-0.304378 1.340249,-0.473029 0.302533,-0.115158 0.592808,-0.261897 0.86722,-0.43361 0.800733,-0.501057 1.468758,-1.226181 1.852697,-2.089212 0.171876,-0.386347 0.287041,-0.800087 0.315353,-1.221992 0.0176,-0.262287 0.0017,-0.52551 0,-0.788382 -0.0039,-0.596487 0.07055,-1.210008 0.354772,-1.734439 0.266369,-0.491486 0.709896,-0.879526 1.221991,-1.103735 0.259409,-0.113576 0.535956,-0.187003 0.788382,-0.315352 0.380478,-0.193459 0.690495,-0.503514 1.064316,-0.709544 0.368853,-0.203292 0.786144,-0.298142 1.197944,-0.386463 0.4118,-0.08832 0.829845,-0.174297 1.20662,-0.3625 0.148485,-0.07417 0.288945,-0.163487 0.436562,-0.239369 0.147617,-0.07588 0.304869,-0.138854 0.470077,-0.154822 0.104699,-0.01012 0.210172,-0.0012 0.315353,0 0.171459,0.0019 0.342446,-0.01704 0.512448,-0.03942 0.311169,-0.04097 0.626296,-0.0954 0.906639,-0.236514 0.135138,-0.06802 0.259672,-0.154984 0.388693,-0.233995 0.129022,-0.07901 0.264861,-0.151 0.412347,-0.184719 0.147487,-0.03372 0.308994,-0.02608 0.441195,0.04749 0.0661,0.03678 0.123685,0.08967 0.162821,0.15441 0.03914,0.06473 0.0593,0.141394 0.05345,0.216813 -0.001,0.01315 -0.0028,0.02653 0,0.03942 0.0036,0.01646 0.01491,0.03106 0.02998,0.03859 0.01506,0.0075 0.03355,0.0078 0.04886,8.29e-4 0.0072,0.05382 0.0204,0.106825 0.03942,0.157676 0.07292,0.194979 0.226737,0.349361 0.394191,0.473029 0.182028,0.134431 0.385519,0.240783 0.551867,0.394191 0.102793,0.0948 0.18924,0.205639 0.275934,0.315353 0.207948,0.263163 0.421257,0.524102 0.670124,0.748963 0.145617,0.13157 0.30261,0.250048 0.449021,0.380734 0.14641,0.130686 0.283539,0.275473 0.37878,0.447066 0.02852,0.05139 0.0531,0.104842 0.07884,0.157677 0.167889,0.344608 0.38498,0.6624 0.591287,0.985477 0.111645,0.174836 0.220747,0.352148 0.352629,0.512271 0.131883,0.160122 0.28856,0.303767 0.475171,0.394368 0.195797,0.09506 0.415116,0.12778 0.630706,0.157676 0.309536,0.04292 0.62376,0.08357 0.912273,0.203629 0.144256,0.06003 0.28113,0.139986 0.397413,0.244351 0.116282,0.104365 0.211589,0.233757 0.267077,0.379821 0.02517,0.06627 0.04243,0.136274 0.07884,0.197096 0.03377,0.05642 0.0826,0.102435 0.118257,0.157676 0.06792,0.105212 0.08303,0.234598 0.118257,0.354772 0.02497,0.08518 0.06142,0.168327 0.118257,0.236514 0.02119,0.02542 0.04501,0.04853 0.06655,0.07365 0.02154,0.02512 0.04104,0.05271 0.05171,0.08403 0.0128,0.03757 0.0122,0.07834 0.0086,0.117862 -0.0036,0.03953 -0.01009,0.07899 -0.0086,0.118652 0.0036,0.09595 0.0531,0.183425 0.07884,0.275934 0.02493,0.08962 0.02745,0.183685 0.03942,0.275933 0.04524,0.348591 0.225917,0.673543 0.236514,1.024897 0.004,0.131462 -0.01619,0.263668 0,0.39419 0.0083,0.06652 0.02583,0.131464 0.03942,0.197096 0.06691,0.32301 0.03684,0.658294 0.07884,0.985477 0.03664,0.285455 0.127757,0.561345 0.236514,0.827801 0.06455,0.158156 0.135476,0.313707 0.197096,0.473029 0.115215,0.297897 0.197973,0.611248 0.209646,0.930435 0.01167,0.319187 -0.05056,0.645296 -0.209646,0.922262 -0.03816,0.06645 -0.08165,0.12978 -0.118258,0.197095 -0.129675,0.238441 -0.169622,0.519982 -0.315352,0.748963 -0.09513,0.149471 -0.230149,0.268255 -0.354772,0.394191 -0.18967,0.191669 -0.358269,0.403586 -0.551867,0.591286 -0.308148,0.298761 -0.674852,0.531617 -0.985478,0.827801 -0.208883,0.199171 -0.393082,0.427468 -0.630705,0.591286 -0.05418,0.03735 -0.111342,0.07152 -0.157676,0.118258 -0.06689,0.06747 -0.106694,0.156349 -0.157677,0.236514 -0.141235,0.222077 -0.366788,0.375094 -0.591286,0.512448 -0.357824,0.218927 -0.730904,0.415557 -1.064315,0.670125 -0.326405,0.249219 -0.610879,0.551095 -0.946058,0.788382 -0.107361,0.07601 -0.220238,0.145649 -0.315353,0.236514 -0.113701,0.10862 -0.198149,0.24391 -0.274714,0.381257 -0.07657,0.137346 -0.146826,0.278821 -0.237734,0.407125 -0.103226,0.145689 -0.234709,0.274483 -0.394191,0.354772 -0.05252,0.02644 -0.107878,0.04758 -0.157676,0.07884 -0.08506,0.0534 -0.150237,0.134466 -0.19708,0.223306 -0.04684,0.08884 -0.07647,0.185674 -0.101717,0.282881 -0.02525,0.09721 -0.04645,0.195596 -0.07775,0.291028 -0.0313,0.09543 -0.07326,0.188599 -0.135907,0.2671 -0.105279,0.131926 -0.266185,0.215136 -0.43361,0.236515 -0.104409,0.01333 -0.210169,0.0039 -0.315352,0 -0.236975,-0.0089 -0.474229,0.01005 -0.709544,0.03942 -0.499228,0.06232 -1.012312,0.170916 -1.497925,0.03942 -0.117324,-0.03177 -0.233229,-0.0776 -0.354772,-0.07884 -0.07462,-7.61e-4 -0.148409,0.01544 -0.222965,0.01853 -0.03728,0.0015 -0.07493,-2.29e-4 -0.111211,-0.0089 -0.03628,-0.0087 -0.07125,-0.02458 -0.09943,-0.04902 -0.01404,-0.01218 -0.02624,-0.02631 -0.03942,-0.03942 -0.06092,-0.06064 -0.143657,-0.0989 -0.22932,-0.106037 -0.08566,-0.0071 -0.173588,0.0169 -0.243709,0.06662 z"
     id="path6"
     inkscape:path-effect="#path-effect6"
     inkscape:original-d="m 30.313278,36.383817 c -0.223375,0.03942 -0.444424,0.09569 -0.670124,0.118258 -1.145949,0.114595 -2.88157,-0.375835 -3.863071,-0.591287 -0.377907,-0.08295 -1.64102,-0.33467 -1.970954,-0.591286 -0.12777,-0.09938 -0.04576,-0.145435 -0.118258,-0.275934 -0.09157,-0.164832 -0.251868,-0.280332 -0.394191,-0.39419 -0.319542,-0.255635 -0.772864,-0.463322 -0.985477,-0.827801 -0.08788,-0.150651 -0.06206,-0.55104 -0.03942,-0.709544 0.04281,-0.2997 0.153742,-0.293604 0.118257,-0.630705 -0.04893,-0.464843 -0.388458,-0.895175 -0.591286,-1.30083 -0.183467,-0.366935 -0.341522,-0.731297 -0.591286,-1.064315 -0.06878,-0.09171 -0.384511,-0.438146 -0.512448,-0.551868 -0.07082,-0.06295 -0.177324,-0.08369 -0.236515,-0.157676 -0.06397,-0.07996 -0.113022,-0.272905 -0.157676,-0.354772 -0.04537,-0.08318 -0.113087,-0.15291 -0.157676,-0.236514 -0.0609,-0.114186 -0.09109,-0.243803 -0.157677,-0.354772 -0.08657,-0.144291 -0.217547,-0.257264 -0.315353,-0.394191 -0.107001,-0.149802 -0.160989,-0.306874 -0.236514,-0.473029 -0.03647,-0.08024 -0.09507,-0.151477 -0.118257,-0.236515 -0.06128,-0.224682 0.02896,-0.517236 0,-0.748962 -0.0611,-0.48883 -0.01339,0.116786 -0.07884,-0.275934 -0.03203,-0.192187 0.02471,-0.928996 0.07884,-1.064315 0.06059,-0.151475 0.573837,-0.507775 0.709543,-0.591286 0.452284,-0.278329 0.878211,-0.285717 1.340249,-0.473029 0.299517,-0.121426 0.580154,-0.285128 0.86722,-0.43361 0.772108,-0.399366 1.479748,-1.343313 1.852697,-2.089212 0.174601,-0.349202 0.276548,-0.833941 0.315353,-1.221992 0.02615,-0.261489 -0.0125,-0.525885 0,-0.788382 0.02275,-0.477749 0.160618,-1.29066 0.354772,-1.734439 0.231134,-0.528308 0.691472,-0.897422 1.221991,-1.103735 0.680224,-0.264531 0.115869,0.05453 0.788382,-0.315352 0.375862,-0.206725 0.686536,-0.51166 1.064316,-0.709544 0.746318,-0.390929 1.612322,-0.494314 2.404564,-0.748963 0.306428,-0.09849 0.620328,-0.251035 0.906639,-0.394191 0.09402,-0.04701 0.210397,0.0058 0.315353,0 0.171056,-0.0095 0.343223,-0.0127 0.512448,-0.03942 0.297933,-0.04704 0.574507,-0.194998 0.906639,-0.236514 0.232742,-0.02909 1.227338,-0.115584 1.458506,0 0.01175,0.0059 -0.0093,0.03013 0,0.03942 0.02078,0.02078 0.05256,0.02628 0.07884,0.03942 0.01314,0.05256 0.01311,0.110318 0.03942,0.157676 0.09968,0.17942 0.249058,0.327897 0.394191,0.473029 0.418739,0.418739 0.11621,0.07735 0.551867,0.394191 0.154618,0.11245 0.156844,0.17925 0.275934,0.315353 0.218169,0.249336 0.440939,0.509813 0.670124,0.748963 0.270002,0.28174 0.588224,0.519772 0.827801,0.8278 0.03608,0.04639 0.04769,0.107846 0.07884,0.157677 0.200268,0.320429 0.363395,0.681622 0.591287,0.985477 0.157214,0.209619 0.60629,0.768195 0.8278,0.906639 0.20022,0.125137 0.4242,0.08884 0.630706,0.157676 0.245729,0.08191 1.417169,0.57245 1.576763,0.827801 0.0375,0.06 0.04448,0.135241 0.07884,0.197096 0.03191,0.05743 0.08888,0.09891 0.118257,0.157676 0.05575,0.111494 0.06668,0.241291 0.118257,0.354772 0.03647,0.08024 0.07291,0.160932 0.118257,0.236514 0.0338,0.05634 0.09938,0.09475 0.118258,0.157677 0.02265,0.07551 -0.01199,0.158593 0,0.236514 0.01454,0.09455 0.05879,0.182399 0.07884,0.275934 0.01947,0.09085 0.01995,0.185084 0.03942,0.275933 0.07401,0.345374 0.192875,0.675779 0.236514,1.024897 0.0163,0.130382 -0.0119,0.263333 0,0.39419 0.0061,0.06672 0.03241,0.130464 0.03942,0.197096 0.0077,0.07305 0.05583,0.858926 0.07884,0.985477 0.01521,0.08363 0.202622,0.731772 0.236514,0.827801 0.05685,0.161078 0.169014,0.304537 0.197096,0.473029 0.06757,0.405424 0.159478,1.454 0,1.852697 -0.02846,0.07114 -0.08399,0.128567 -0.118258,0.197095 -0.119185,0.238372 -0.177999,0.520041 -0.315352,0.748963 -0.09629,0.160489 -0.230067,0.258149 -0.354772,0.394191 -0.269976,0.294519 -0.228514,0.305974 -0.551867,0.591286 -0.321454,0.283636 -0.670134,0.534982 -0.985478,0.827801 -0.210998,0.195927 -0.414069,0.40173 -0.630705,0.591286 -0.04944,0.04326 -0.114029,0.06915 -0.157676,0.118258 -0.06295,0.07082 -0.09702,0.163724 -0.157677,0.236514 -0.160782,0.192939 -0.392615,0.368963 -0.591286,0.512448 -0.341764,0.24683 -0.71586,0.437821 -1.064315,0.670125 -0.341215,0.227476 -0.641137,0.51734 -0.946058,0.788382 -0.09821,0.08729 -0.222441,0.143602 -0.315353,0.236514 -0.226957,0.226957 -0.306534,0.541285 -0.512448,0.788382 -0.08592,0.103108 -0.279087,0.278036 -0.394191,0.354772 -0.04889,0.0326 -0.116125,0.03729 -0.157676,0.07884 -0.281525,0.281524 -0.256822,0.766085 -0.512449,1.064315 -0.09629,0.112336 -0.308123,0.173771 -0.43361,0.236515 -0.06755,0.03378 -0.234851,0 -0.315352,0 -0.237631,0 -0.472243,0.02755 -0.709544,0.03942 -0.481151,0.02406 -1.013391,0.09326 -1.497925,0.03942 -0.120401,-0.01338 -0.234565,-0.06381 -0.354772,-0.07884 -0.137416,-0.01718 -0.304073,0.0038 -0.43361,-0.03942 -0.01763,-0.0059 -0.02139,-0.03491 -0.03942,-0.03942 -0.14415,-0.03604 -0.325767,-0.03942 -0.473029,-0.03942 z" />
  <path
     style="fill:none;stroke:#ff9500;stroke-width:1.079"
     d="m 24.715768,25.622407 c 0.469791,-0.209034 1.028134,-0.209034 1.497925,0 0.291904,0.129883 0.545766,0.334019 0.768031,0.563531 0.222265,0.229512 0.415373,0.485192 0.611637,0.737299 0.386626,0.496632 0.798967,1.004228 0.946058,1.616182 0.07133,0.296772 0.07591,0.611004 0,0.906639 -0.04901,0.190866 -0.130493,0.371954 -0.184186,0.561555 -0.05369,0.189601 -0.07841,0.395746 -0.01291,0.581599 0.03806,0.108002 0.105411,0.20453 0.188282,0.283558 0.08287,0.07903 0.18099,0.141019 0.284747,0.189471 0.06994,0.03266 0.145185,0.06113 0.197095,0.118257 0.0303,0.03334 0.05068,0.07463 0.06551,0.11717 0.01483,0.04254 0.02443,0.08669 0.03568,0.130314 0.01125,0.04363 0.0243,0.08716 0.04544,0.12695 0.02114,0.03979 0.05095,0.07593 0.08989,0.09859 0.03282,0.0191 0.07127,0.02798 0.109218,0.02667 0.03795,-0.0013 0.07533,-0.01266 0.108374,-0.03138 0.06608,-0.03743 0.113156,-0.103224 0.138291,-0.17489 0.02514,-0.07167 0.02989,-0.149074 0.02563,-0.224901 -0.0043,-0.07583 -0.01727,-0.150849 -0.02674,-0.226202 -0.08528,-0.678348 0.115978,-1.356403 0.315353,-2.010374 0.11635,-0.381642 0.232844,-0.763257 0.354772,-1.143153 0.173261,-0.539836 0.358825,-1.079247 0.630705,-1.576764 0.13835,-0.253168 0.298345,-0.494133 0.43361,-0.748963 0.195852,-0.36897 0.339419,-0.76845 0.394191,-1.182572 0.01219,-0.09214 0.02001,-0.185039 0.03942,-0.275934 0.04336,-0.203058 0.14419,-0.39138 0.275934,-0.551867 0.08405,-0.102394 0.18046,-0.193967 0.267429,-0.293897 0.08697,-0.09993 0.165603,-0.210515 0.2056,-0.336808 0.04441,-0.14023 0.03887,-0.292051 0.07884,-0.43361 0.03708,-0.131319 0.111593,-0.248247 0.178766,-0.367021 0.06717,-0.118773 0.12905,-0.245698 0.136587,-0.381942 0.0036,-0.06563 -0.0055,-0.131596 0,-0.197095 0.0063,-0.07485 0.03161,-0.146635 0.05727,-0.217231 0.02566,-0.0706 0.05213,-0.141788 0.06099,-0.216379 0.01353,-0.113815 -0.01461,-0.227867 -0.02685,-0.341827 -0.0061,-0.05698 -0.0082,-0.114818 7.75e-4,-0.171412 0.009,-0.05659 0.02968,-0.112146 0.0655,-0.156886 0.01503,-0.01877 0.03253,-0.03545 0.04759,-0.0542 0.01506,-0.01875 0.02786,-0.04025 0.03125,-0.06405 0.0037,-0.02608 -0.0041,-0.05283 0,-0.07884 0.0045,-0.02853 0.02311,-0.05319 0.0453,-0.07168 0.0222,-0.01849 0.04811,-0.03185 0.07296,-0.04658 0.110221,-0.06534 0.202467,-0.160666 0.264147,-0.272976 0.06168,-0.112309 0.09263,-0.2413 0.08863,-0.369369 -0.004,-0.12807 -0.04295,-0.254877 -0.11152,-0.363116 -0.06857,-0.108238 -0.16659,-0.197621 -0.280676,-0.255949"
     id="path7"
     inkscape:path-effect="#path-effect7"
     inkscape:original-d="m 24.715768,25.622407 c 0.486506,-0.07711 1.015138,-0.160929 1.497925,0 0.342322,0.114107 1.167663,1.034113 1.379668,1.30083 0.58692,0.738383 0.803738,0.847655 0.946058,1.616182 0.03674,0.19841 0.06634,0.68552 0,0.906639 -0.13285,0.442833 -0.433154,0.603591 -0.197095,1.143154 0.108209,0.247335 0.259702,0.330811 0.473029,0.473029 0.06375,0.0425 0.142919,0.06408 0.197095,0.118257 0.101796,0.101796 0.07296,0.391253 0.236515,0.473029 0.114106,0.05705 0.33966,-0.58537 0.354771,-0.630705 0.215298,-0.645894 0.173141,-1.346717 0.315353,-2.010374 0.06443,-0.300652 0.26042,-0.860099 0.354772,-1.143153 0.178229,-0.534688 0.364328,-1.077306 0.630705,-1.576764 0.135753,-0.254537 0.3046,-0.490942 0.43361,-0.748963 0.171465,-0.342929 0.306197,-0.808596 0.394191,-1.182572 0.02128,-0.09044 0.0085,-0.188319 0.03942,-0.275934 0.06845,-0.193943 0.161849,-0.38074 0.275934,-0.551867 0.146234,-0.219351 0.363962,-0.385306 0.473029,-0.630705 0.06521,-0.146731 0.0075,-0.291015 0.07884,-0.43361 0.08257,-0.165135 0.279754,-0.635046 0.315353,-0.748963 0.0196,-0.06271 -0.0073,-0.131799 0,-0.197095 0.01693,-0.152376 0.09676,-0.283127 0.118257,-0.43361 0.01003,-0.07021 0.02347,-0.630255 0.03942,-0.670125 0.0176,-0.04399 0.06124,-0.07427 0.07884,-0.118257 0.0098,-0.0244 -0.01352,-0.0563 0,-0.07884 0.02868,-0.0478 0.08958,-0.07045 0.118258,-0.118258 0.04818,-0.0803 -0.03942,-1.070672 -0.03942,-1.26141" />
</svg>
