<?xml version="1.0" encoding="UTF-8" standalone="no"?>
<!-- Created with Inkscape (http://www.inkscape.org/) -->

<svg
   version="1.1"
   id="svg1"
   width="980"
   height="980"
   viewBox="0 0 980 980"
   sodipodi:docname="u.svg"
   inkscape:version="1.3.2 (091e20e, 2023-11-25, custom)"
   xmlns:inkscape="http://www.inkscape.org/namespaces/inkscape"
   xmlns:sodipodi="http://sodipodi.sourceforge.net/DTD/sodipodi-0.dtd"
   xmlns="http://www.w3.org/2000/svg"
   xmlns:svg="http://www.w3.org/2000/svg">
  <defs
     id="defs1">
    <inkscape:path-effect
       effect="spiro"
       id="path-effect28"
       is_visible="true"
       lpeversion="1" />
    <inkscape:path-effect
       effect="spiro"
       id="path-effect27"
       is_visible="true"
       lpeversion="1" />
    <inkscape:path-effect
       effect="spiro"
       id="path-effect26"
       is_visible="true"
       lpeversion="1" />
    <inkscape:path-effect
       effect="spiro"
       id="path-effect25"
       is_visible="true"
       lpeversion="1" />
    <inkscape:path-effect
       effect="spiro"
       id="path-effect24"
       is_visible="true"
       lpeversion="1" />
    <inkscape:path-effect
       effect="spiro"
       id="path-effect23"
       is_visible="true"
       lpeversion="1" />
    <inkscape:path-effect
       effect="spiro"
       id="path-effect22"
       is_visible="true"
       lpeversion="1" />
    <inkscape:path-effect
       effect="spiro"
       id="path-effect21"
       is_visible="true"
       lpeversion="1" />
    <inkscape:path-effect
       effect="spiro"
       id="path-effect20"
       is_visible="true"
       lpeversion="1" />
    <inkscape:path-effect
       effect="spiro"
       id="path-effect19"
       is_visible="true"
       lpeversion="1" />
    <inkscape:path-effect
       effect="spiro"
       id="path-effect18"
       is_visible="true"
       lpeversion="1" />
    <inkscape:path-effect
       effect="spiro"
       id="path-effect17"
       is_visible="true"
       lpeversion="1" />
    <inkscape:path-effect
       effect="spiro"
       id="path-effect16"
       is_visible="true"
       lpeversion="1" />
    <inkscape:path-effect
       effect="spiro"
       id="path-effect15"
       is_visible="true"
       lpeversion="1" />
    <inkscape:path-effect
       effect="spiro"
       id="path-effect14"
       is_visible="true"
       lpeversion="1" />
    <inkscape:path-effect
       effect="spiro"
       id="path-effect13"
       is_visible="true"
       lpeversion="1" />
    <inkscape:path-effect
       effect="spiro"
       id="path-effect12"
       is_visible="true"
       lpeversion="1" />
    <inkscape:path-effect
       effect="spiro"
       id="path-effect11"
       is_visible="true"
       lpeversion="1" />
    <inkscape:path-effect
       effect="spiro"
       id="path-effect10"
       is_visible="true"
       lpeversion="1" />
    <inkscape:path-effect
       effect="spiro"
       id="path-effect9"
       is_visible="true"
       lpeversion="1" />
    <inkscape:path-effect
       effect="spiro"
       id="path-effect8"
       is_visible="true"
       lpeversion="1" />
    <inkscape:path-effect
       effect="spiro"
       id="path-effect7"
       is_visible="true"
       lpeversion="1" />
    <inkscape:path-effect
       effect="spiro"
       id="path-effect6"
       is_visible="true"
       lpeversion="1" />
    <inkscape:path-effect
       effect="spiro"
       id="path-effect5"
       is_visible="true"
       lpeversion="1" />
    <inkscape:path-effect
       effect="spiro"
       id="path-effect4"
       is_visible="true"
       lpeversion="1" />
    <inkscape:path-effect
       effect="spiro"
       id="path-effect3"
       is_visible="true"
       lpeversion="1" />
    <inkscape:path-effect
       effect="spiro"
       id="path-effect1"
       is_visible="true"
       lpeversion="1" />
  </defs>
  <sodipodi:namedview
     id="namedview1"
     pagecolor="#ffffff"
     bordercolor="#000000"
     borderopacity="0.25"
     inkscape:showpageshadow="2"
     inkscape:pageopacity="0.0"
     inkscape:pagecheckerboard="0"
     inkscape:deskcolor="#d1d1d1"
     inkscape:zoom="1.1969388"
     inkscape:cx="489.58227"
     inkscape:cy="490"
     inkscape:window-width="2560"
     inkscape:window-height="1369"
     inkscape:window-x="-8"
     inkscape:window-y="-8"
     inkscape:window-maximized="1"
     inkscape:current-layer="svg1" />
  <path
     style="fill:none;fill-opacity:0.501961;stroke:#ff9500;stroke-width:10.001;stroke-opacity:1;stroke-dasharray:none"
     d="m 277.37425,542.21654 c 6.09908,10.93707 12.79609,21.54067 20.05115,31.74765 5.64731,7.94508 11.62917,15.64561 17.54476,23.39301 3.72242,4.8751 7.50477,9.85315 12.53197,13.36744 1.39312,0.97386 2.87097,1.82664 4.21942,2.86146 1.34846,1.03482 2.58345,2.28079 3.29976,3.82225 0.37156,0.79957 0.59458,1.65826 0.83547,2.5064 1.84447,6.49405 4.83254,12.62091 8.35464,18.38022 2.34555,3.83543 4.94698,7.54971 6.68372,11.6965 1.98501,4.73959 2.84177,10.03575 5.84825,14.2029 1.15893,1.60634 2.60251,2.98882 3.78917,4.57478 0.59333,0.79299 1.12321,1.63968 1.49953,2.55578 0.37631,0.91611 0.59622,1.90531 0.55956,2.89502 -0.0207,0.55859 -0.12165,1.12536 0,1.67093 0.13254,0.5944 0.52106,1.10573 0.98308,1.50249 0.46201,0.39677 0.99894,0.6942 1.52331,1.0039 8.84863,5.22604 14.66114,14.30965 22.55754,20.88662 1.84246,1.5346 3.79905,2.93216 5.84826,4.17732 2.49032,0.42858 4.84666,1.60675 6.68371,3.34186 0.5727,0.54091 1.0951,1.13336 1.67093,1.67093 1.79322,1.67408 4.05274,2.76787 6.36057,3.5998 2.30784,0.83193 4.69564,1.42601 7.00687,2.24845 3.17233,1.12886 6.17495,2.67838 9.19011,4.17732 3.17702,1.5794 6.48361,3.13567 10.02557,3.34186 1.94741,0.11336 3.90664,-0.18805 5.84826,0 1.14709,0.1111 2.27743,0.39369 3.34185,0.83547 6.67591,0.71532 13.45788,0.43273 20.05115,-0.83547 1.11337,-0.21415 2.22617,-0.45685 3.35795,-0.5242 1.13177,-0.0673 2.29642,0.0489 3.32577,0.5242 0.91315,0.42164 1.67648,1.10272 2.5064,1.67093 2.15289,1.47399 4.77732,2.1832 7.38576,2.24341 2.60844,0.0602 5.20474,-0.50486 7.6526,-1.40794 2.49965,-0.92219 4.85565,-2.19136 7.3098,-3.22855 2.45416,-1.03718 5.06505,-1.85041 7.72856,-1.78424 0.55741,0.0138 1.11728,0.0661 1.67093,0 1.12598,-0.13441 2.1365,-0.7457 3.04945,-1.41832 0.91295,-0.67263 1.77912,-1.4274 2.7988,-1.92354 1.81909,-0.8851 3.92601,-0.86058 5.94776,-0.93161 1.01087,-0.0355 2.02612,-0.10019 3.01239,-0.3247 0.98627,-0.22451 1.9483,-0.61598 2.73636,-1.25008 0.86876,-0.69903 1.48575,-1.65484 2.22138,-2.49283 0.36782,-0.41899 0.77033,-0.81283 1.2362,-1.11912 0.46586,-0.3063 0.99929,-0.52298 1.55521,-0.56538 0.27779,-0.0212 0.55687,0.001 0.83546,0 1.30932,-0.005 2.60869,-0.54711 3.53285,-1.47462 0.92415,-0.92751 1.4618,-2.22884 1.4618,-3.53816 0,-1.30933 -0.53765,-2.61066 -1.4618,-3.53817 -0.92416,-0.92751 -2.22353,-1.46987 -3.53285,-1.47462"
     id="path1"
     inkscape:path-effect="#path-effect1"
     inkscape:original-d="m 277.37425,542.21654 c 4.22731,12.10638 12.92145,21.37717 20.05115,31.74765 5.56814,8.09911 10.75916,16.18331 17.54476,23.39301 17.75548,17.75548 -0.88724,-1.2717 12.53197,13.36744 2.266,2.472 5.37236,4.10753 7.51918,6.68371 0.56379,0.67654 0.44163,1.71871 0.83547,2.5064 3.00285,6.00571 5.45796,12.22476 8.35464,18.38022 1.91213,4.06328 5.00165,7.49132 6.68372,11.6965 1.89677,4.74194 3.35304,9.71151 5.84825,14.2029 1.75349,3.15627 4.50572,6.66925 5.84826,10.02558 0.20685,0.51714 -0.17614,1.14253 0,1.67093 0.37363,1.12089 1.7683,1.58378 2.50639,2.50639 8.07637,10.09547 11.18735,15.20152 22.55754,20.88662 1.49456,0.74727 4.71295,3.42045 5.84826,4.17732 1.07937,2.63753 4.72644,2.16749 6.68371,3.34186 0.67544,0.40526 1.01554,1.234 1.67093,1.67093 4.0405,2.69367 8.86203,4.20992 13.36744,5.84825 14.02761,5.10095 -7.27371,-2.4082 9.19011,4.17732 3.28651,1.31461 7.0958,1.87697 10.02557,3.34186 1.57293,0.78647 4.09469,-0.43839 5.84826,0 1.70894,0.42724 1.70646,0.83547 3.34185,0.83547 6.57904,-1.39627 13.36458,-0.83547 20.05115,-0.83547 2.22791,0 4.54154,-0.61205 6.68372,0 0.96547,0.27585 1.53767,1.40673 2.5064,1.67093 4.2416,1.1568 10.55962,1.28334 15.03836,0.83547 5.23903,-0.52391 10.16418,-3.38806 15.03836,-5.01279 0.5284,-0.17613 1.17276,0.24909 1.67093,0 2.31816,-1.15908 3.65301,-2.61011 5.84825,-3.34186 3.59148,-1.19716 7.73796,-1.31883 11.69651,-2.50639 2.45328,-0.73599 3.07764,-2.88723 5.01279,-4.17733 0.23171,-0.15447 0.63854,0.19692 0.83546,0 0.23766,-0.23766 0,-8.73236 0,-10.02557" />
  <path
     style="fill:none;fill-opacity:0.501961;stroke:#ff9500;stroke-width:10.001;stroke-dasharray:none;stroke-opacity:1"
     d="m 333.35038,450.31543 c 2.3293,-0.16683 4.70697,0.42758 6.68372,1.67093 2.65459,1.6697 4.45998,4.35965 6.4865,6.75296 1.01326,1.19666 2.10646,2.34126 3.38798,3.2448 1.28152,0.90354 2.76652,1.56032 4.32842,1.69874 2.31489,0.20515 4.55809,-0.72094 6.82638,-1.22657 1.13414,-0.25281 2.30687,-0.4019 3.45883,-0.24967 1.15197,0.15222 2.28819,0.62788 3.08222,1.47624 0.68731,0.73433 1.07868,1.69346 1.67093,2.5064 1.14298,1.5689 3.07188,2.53335 5.01279,2.50639"
     id="path3"
     inkscape:path-effect="#path-effect3"
     inkscape:original-d="m 333.35038,450.31543 c 2.22791,0.55698 4.77294,0.39708 6.68372,1.67093 4.58038,3.05359 8.0939,10.16926 14.2029,11.6965 2.00273,0.50069 12.64208,-0.72535 13.36743,0 0.51329,0.51329 0.55195,1.94691 1.67093,2.5064 1.54241,0.7712 3.61183,1.10544 5.01279,2.50639" />
  <path
     style="fill:none;fill-opacity:0.501961;stroke:#ff9500;stroke-width:10.001;stroke-dasharray:none;stroke-opacity:1"
     d="m 365.09804,425.25149 c 0.0209,3.06332 0.0209,6.12679 0,9.19011 -0.1216,17.77728 -0.84428,36.1644 5.84825,52.63427 4.24052,10.43563 11.37142,19.82615 13.36744,30.91219 0.25181,1.39859 0.41995,2.81835 0.83546,4.17733 0.73281,2.39674 2.19613,4.48959 3.56952,6.58605 1.3734,2.09647 2.70449,4.30883 3.1142,6.78138 0.0733,0.44222 0.11649,0.89044 0.2269,1.32488 0.11041,0.43445 0.29441,0.86177 0.60856,1.18152 0.35633,0.36268 0.84504,0.5557 1.3077,0.76653 0.23134,0.10541 0.46063,0.21816 0.66949,0.36308 0.20887,0.14492 0.39772,0.32374 0.52921,0.54131 0.15281,0.25286 0.22253,0.54828 0.25048,0.8424 0.028,0.29413 0.0163,0.59035 0.0183,0.8858 0.002,0.29544 0.0181,0.5939 0.0995,0.87791 0.0815,0.284 0.23342,0.55504 0.46716,0.73575 0.25004,0.19331 0.56847,0.26794 0.87083,0.35991 0.15119,0.046 0.30151,0.0978 0.44059,0.1728 0.13909,0.075 0.26729,0.17443 0.35951,0.30276 0.0839,0.11674 0.13587,0.25465 0.16118,0.39616 0.0253,0.14152 0.0246,0.28678 0.009,0.42973 -0.0305,0.2859 -0.11811,0.56235 -0.17055,0.84504 -0.13536,0.72965 -0.0311,1.4934 0.23858,2.18478 0.26966,0.69138 0.69973,1.31308 1.20751,1.85426 1.01556,1.08236 2.32092,1.83789 3.5667,2.64467 4.66495,3.02109 8.74458,6.98749 11.6965,11.69651 1.06829,1.70417 1.99888,3.51551 3.34186,5.01279 2.38658,2.66078 5.87375,4.11065 8.35465,6.68371 1.6653,1.72716 2.80251,3.88199 4.17732,5.84826 3.2784,4.6888 7.88031,8.26941 11.6965,12.53197 5.57721,6.22957 9.42335,13.85563 15.03837,20.05115 5.70628,6.29621 13.19871,11.07845 17.54475,18.38022 2.30369,3.87043 3.65896,8.35913 6.68372,11.6965 1.3233,1.46006 2.92923,2.65248 4.17732,4.17733 1.27282,1.55506 2.13353,3.40709 3.34186,5.01278 2.49491,3.31534 6.30008,5.37743 9.19011,8.35465 1.80475,1.8592 3.22725,4.04913 4.86581,6.05633 1.63857,2.00719 3.57307,3.88447 5.99523,4.80471 0.29333,0.11144 0.59247,0.20828 0.8798,0.33441 0.28732,0.12613 0.56495,0.28355 0.79113,0.50105 0.42472,0.40843 0.63379,0.99604 0.72196,1.57864 0.0882,0.5826 0.0694,1.17564 0.11351,1.76322 0.14474,1.92693 0.99441,3.7947 2.35858,5.1633 1.36416,1.3686 3.23267,2.22511 5.1606,2.35588 0.33743,0.0229 0.68265,0.0255 1.00156,0.13813 0.15946,0.0563 0.31076,0.14057 0.43169,0.25876 0.12093,0.1182 0.21024,0.27172 0.23768,0.43858 0.0227,0.13816 0.003,0.27927 -0.0124,0.41842 -0.0155,0.13916 -0.0265,0.28255 0.0124,0.41704 0.0452,0.15621 0.1559,0.28813 0.28936,0.38104 0.13346,0.0929 0.28889,0.14976 0.44636,0.19035 0.31495,0.0812 0.65216,0.10387 0.93521,0.26408 0.19977,0.11307 0.35953,0.28948 0.47285,0.48911 0.11332,0.19962 0.18209,0.42208 0.2246,0.64766 0.085,0.45116 0.0675,0.91597 0.13801,1.36962 0.0958,0.61651 0.35492,1.20298 0.71958,1.70922 0.36466,0.50625 0.83302,0.93368 1.3524,1.27937 1.03875,0.69139 2.26234,1.05116 3.48505,1.30023 1.2227,0.24907 2.46676,0.39761 3.67337,0.71563 1.20661,0.31801 2.39497,0.82189 3.30157,1.67927 0.43151,0.40808 0.78918,0.88637 1.17482,1.33804 0.38565,0.45167 0.80958,0.88507 1.33158,1.16835 0.77566,0.42094 1.70036,0.47608 2.50639,0.83547 1.0042,0.44774 1.73974,1.32386 2.45999,2.1546 0.36012,0.41537 0.72681,0.82773 1.14365,1.18616 0.41683,0.35843 0.88742,0.66329 1.40915,0.83656 0.42279,0.14041 0.86916,0.19168 1.30406,0.28822 0.43491,0.0965 0.87344,0.24675 1.20233,0.54725 0.23265,0.21257 0.39798,0.48976 0.52309,0.779 0.12511,0.28924 0.21282,0.59292 0.31238,0.89192 1.06001,3.18359 3.50744,5.82151 6.47612,7.38544 2.96867,1.56392 6.42123,2.0965 9.76398,1.80512 6.68551,-0.58275 12.68151,-4.2807 18.01395,-8.35509 0.7541,-0.57619 1.50414,-1.16418 2.32926,-1.63304 0.82513,-0.46886 1.73612,-0.81774 2.68352,-0.87335 0.55816,-0.0328 1.11648,0.0364 1.67397,0.0791 0.55748,0.0427 1.12587,0.0581 1.66789,-0.0791 0.49215,-0.1246 0.94655,-0.3718 1.35791,-0.66931 0.41136,-0.29752 0.78312,-0.64564 1.15308,-0.99329 0.73992,-0.69532 1.52073,-1.41765 2.5018,-1.67926 0.67601,-0.18026 1.39027,-0.12439 2.08598,-0.0504 0.69571,0.074 1.40109,0.1646 2.09134,0.0504 0.6187,-0.10237 1.20004,-0.36608 1.74416,-0.67786 0.54413,-0.31177 1.05821,-0.67335 1.5977,-0.99307 2.00357,-1.18738 4.3571,-1.77576 6.68372,-1.67093"
     id="path4"
     inkscape:path-effect="#path-effect4"
     inkscape:original-d="m 365.09804,425.25149 c 0,3.06337 -0.16535,6.13121 0,9.19011 0.6507,12.03794 1.64724,40.03123 5.84825,52.63427 3.56457,10.69372 9.62278,20.30233 13.36744,30.91219 0.47261,1.33907 0.35018,2.84281 0.83546,4.17733 1.69254,4.65449 4.48602,8.97204 6.68372,13.36743 0.39384,0.78769 0.28532,1.81872 0.83546,2.5064 0.62726,0.78407 1.94942,0.83546 2.5064,1.67092 0.63692,0.9554 0.2447,2.35726 0.83546,3.34186 0.32039,0.53398 1.32551,0.31733 1.67093,0.83547 0.30895,0.46343 -0.24909,1.17275 0,1.67093 1.24544,2.49087 3.17893,4.58788 5.01279,6.68371 3.61746,4.13424 8.1807,7.47755 11.6965,11.69651 1.28562,1.54275 1.92184,3.59277 3.34186,5.01279 13.20615,13.20615 -5.87226,-10.38858 8.35465,6.68371 1.53365,1.84039 2.64366,4.00787 4.17732,5.84826 3.62639,4.35166 8.11019,8.1487 11.6965,12.53197 5.26545,6.43554 9.67964,13.62068 15.03837,20.05115 5.45853,6.55023 11.95735,11.99461 17.54475,18.38022 2.87458,3.28523 4.02385,8.27667 6.68372,11.6965 1.20898,1.5544 2.93035,2.65324 4.17732,4.17733 1.27168,1.55426 1.99844,3.52009 3.34186,5.01278 1.87571,2.08412 6.84485,6.30255 9.19011,8.35465 3.56417,3.11865 6.83732,8.17856 10.86104,10.86104 0.51814,0.34542 1.2306,0.39514 1.67093,0.83546 0.81193,0.81193 0.24471,2.35726 0.83547,3.34186 1.42025,2.3671 5.24463,6.00282 7.51918,7.51918 0.51813,0.34543 1.2306,0.39514 1.67093,0.83547 0.19692,0.19692 -0.19692,0.63854 0,0.83546 0.44033,0.44033 1.2973,0.33729 1.67093,0.83547 0.52839,0.70452 0.28532,1.81871 0.83546,2.50639 2.86204,3.57755 8.69267,4.76407 12.53197,6.68372 1.00256,0.50128 1.50384,2.00511 2.5064,2.50639 0.78768,0.39384 1.77364,0.34697 2.50639,0.83547 1.71581,1.14387 3.11115,3.2265 5.01279,4.17732 0.50634,0.25317 2.1563,0.48537 2.50639,0.83547 1.11395,1.11395 -1.77229,0.80167 0.83547,1.67092 3.26866,1.08956 30.74899,1.71173 34.25405,0.83547 1.75955,-0.43989 3.28943,-1.93195 5.01278,-2.50639 1.00256,-0.33419 2.3393,0.33418 3.34186,0 1.93003,-0.64335 3.27421,-2.47258 5.01279,-3.34186 1.06078,-0.53039 3.06696,0.37012 4.17732,0 1.07177,-0.35726 2.27009,-1.31368 3.34186,-1.67093 2.68678,-0.8956 4.45279,0.56 6.68372,-1.67093" />
  <path
     style="fill:none;fill-opacity:0.501961;stroke:#ff9500;stroke-width:10.001;stroke-dasharray:none;stroke-opacity:1"
     d="m 655.83973,473.70844 v 21.72208 15.87383 c 0,2.5077 -0.26107,5.02511 0,7.51918 0.26797,2.5599 1.25567,4.97915 1.99671,7.44406 0.74104,2.46491 1.2369,5.12528 0.50968,7.5943 -0.52894,1.79584 -1.66154,3.34214 -2.50639,5.01279 -1.68768,3.33731 -2.20809,7.13318 -2.5064,10.86104 -0.20132,2.51578 -0.31437,5.04974 -0.83546,7.51918 -0.53084,2.51565 -1.48303,4.95501 -1.67093,7.51918 -0.14256,1.94539 0.1609,3.9043 0,5.84826 -0.32215,3.89214 -2.44862,7.35903 -4.17732,10.86104 -1.05574,2.13871 -1.98368,4.3566 -2.5064,6.68371 -0.86898,3.86858 -0.57454,7.99071 0.83547,11.69651"
     id="path5"
     inkscape:path-effect="#path-effect5"
     inkscape:original-d="m 655.83973,473.70844 c 0,7.24069 0,14.48139 0,21.72208 0,5.29128 0,10.58255 0,15.87383 0,2.50639 -0.54372,5.07247 0,7.51918 1.14863,5.16886 3.65062,9.31724 2.50639,15.03836 -1.42046,7.1023 -0.042,-2.38038 -2.50639,5.01279 -1.17495,3.52483 -1.60526,7.25648 -2.5064,10.86104 -2.308,9.23201 0.14832,-0.35103 -0.83546,7.51918 -0.32572,2.60579 -1.16437,4.9864 -1.67093,7.51918 -0.37232,1.86162 0.45954,4.01008 0,5.84826 -0.92002,3.68006 -2.90201,7.03511 -4.17732,10.86104 -0.71044,2.13131 -2.13661,4.46497 -2.5064,6.68371 -0.3945,2.36701 -0.98014,9.8809 0.83547,11.69651" />
  <path
     style="fill:none;fill-opacity:0.501961;stroke:#ff9500;stroke-width:10.001;stroke-dasharray:none;stroke-opacity:1"
     d="m 645.81415,604.87639 c -0.15484,-1.97914 0.13267,-3.99165 0.83547,-5.84826 1.50853,-3.98513 4.79616,-7.04082 6.68371,-10.86104 1.11523,-2.25711 1.71506,-4.72651 2.35845,-7.16051 0.6434,-2.43399 1.35241,-4.88757 2.65434,-7.04239 0.48788,-0.80748 1.05481,-1.56543 1.53394,-2.37813 0.47913,-0.8127 0.87383,-1.69639 0.97245,-2.63465 0.11668,-1.11008 -0.18578,-2.24123 0,-3.34186 0.17826,-1.05604 0.78648,-1.9808 1.3516,-2.89054 0.56512,-0.90974 1.1156,-1.88745 1.1548,-2.95771 0.0204,-0.55774 -0.10019,-1.12188 0,-1.67093 0.0633,-0.34708 0.21364,-0.67434 0.40735,-0.96922 0.19371,-0.29488 0.43041,-0.55917 0.67813,-0.8104 0.49543,-0.50245 1.04494,-0.96512 1.42091,-1.56224 0.47162,-0.74904 0.63112,-1.64516 0.83547,-2.5064 1.53102,-6.45257 5.92179,-11.77433 9.19011,-17.54475 0.9211,-1.62625 1.75805,-3.30016 2.50639,-5.01279"
     id="path6"
     inkscape:path-effect="#path-effect6"
     inkscape:original-d="m 645.81415,604.87639 c 0,-2.72015 -0.35226,-3.4728 0.83547,-5.84826 1.92922,-3.85844 4.59581,-7.1028 6.68371,-10.86104 2.4204,-4.35671 3.19022,-9.64648 5.01279,-14.2029 0.69382,-1.73453 1.96958,-3.22341 2.50639,-5.01278 0.3201,-1.06698 -0.18313,-2.24307 0,-3.34186 0.34868,-2.09205 1.92374,-3.80896 2.5064,-5.84825 0.15301,-0.53555 -0.24909,-1.17276 0,-1.67093 0.62272,-1.24544 1.81555,-2.13288 2.50639,-3.34186 0.43693,-0.76463 0.44163,-1.71871 0.83547,-2.5064 2.98216,-5.96432 7.60347,-11.19819 9.19011,-17.54475 0.44887,-1.79549 2.50639,-3.30159 2.50639,-5.01279" />
  <path
     style="fill:none;fill-opacity:0.501961;stroke:#ff9500;stroke-width:10.001;stroke-dasharray:none;stroke-opacity:1"
     d="m 650.82694,591.50895 c 3.74307,-8.68494 10.69782,-15.94207 19.21569,-20.05115 3.03202,-1.46267 6.24899,-2.53953 9.19011,-4.17732 1.41884,-0.79009 2.76434,-1.70588 4.17732,-2.5064 6.01782,-3.40938 13.25287,-4.61521 20.05115,-3.34185"
     id="path7"
     inkscape:path-effect="#path-effect7"
     inkscape:original-d="m 650.82694,591.50895 c 4.68256,-8.02529 11.46843,-14.88631 19.21569,-20.05115 1.75989,-1.17326 8.12156,-3.64305 9.19011,-4.17732 1.45241,-0.72621 2.7249,-1.78019 4.17732,-2.5064 5.20367,-2.60183 14.09689,-3.34185 20.05115,-3.34185" />
  <path
     style="fill:none;fill-opacity:0.501961;stroke:#ff9500;stroke-width:10.001;stroke-dasharray:none;stroke-opacity:1"
     d="m 643.30776,600.69906 c 0.0349,8.12143 -1.99557,16.24348 -5.84825,23.39301 -0.5913,1.09729 -1.22701,2.17712 -1.67093,3.34186 -1.11123,2.91563 -0.95063,6.15418 -1.67093,9.19011 -0.47051,1.98308 -1.31087,3.85498 -2.03196,5.76129 -0.72108,1.90632 -1.33216,3.89721 -1.3099,5.93522 0.006,0.55739 0.0596,1.11669 0,1.67092 -0.0953,0.88608 -0.47739,1.72126 -0.9707,2.46346 -0.49332,0.74219 -1.09755,1.40279 -1.68883,2.06958 -0.59128,0.66679 -1.17576,1.34806 -1.62134,2.11986 -0.44559,0.77179 -0.74881,1.64619 -0.73192,2.53722 0.005,0.27977 0.0419,0.55795 0.0588,0.83725 0.0169,0.27931 0.0137,0.56342 -0.0588,0.83367 -0.0922,0.34345 -0.293,0.64967 -0.5314,0.91354 -0.2384,0.26386 -0.51503,0.48979 -0.78645,0.71954 -0.27143,0.22976 -0.54052,0.46624 -0.75943,0.74648 -0.21891,0.28025 -0.38688,0.60921 -0.42911,0.9623 -0.0333,0.27837 0.0121,0.55922 0.043,0.83786 0.031,0.27865 0.0465,0.56741 -0.043,0.83307 -0.0638,0.18912 -0.17868,0.35809 -0.31521,0.50366 -0.13654,0.14557 -0.29469,0.26913 -0.45627,0.38629 -0.32315,0.23433 -0.67108,0.45359 -0.89945,0.78098 -0.25434,0.36461 -0.33068,0.82025 -0.40507,1.25854 -0.0744,0.43829 -0.16111,0.89414 -0.4304,1.24786 -0.15426,0.20263 -0.36112,0.36032 -0.58216,0.48682 -0.22103,0.12651 -0.45731,0.2237 -0.69179,0.3231 -0.23447,0.0994 -0.46893,0.20191 -0.68422,0.33794 -0.2153,0.13603 -0.41221,0.30775 -0.54822,0.52306 -0.22873,0.36211 -0.26604,0.81521 -0.22175,1.24121 0.0443,0.426 0.16283,0.84096 0.22175,1.26519 0.15108,1.08774 -0.099,2.20649 -0.57556,3.19588 -0.47656,0.98938 -1.17086,1.85963 -1.93083,2.65237 -0.48712,0.50812 -1.00406,0.98881 -1.45867,1.52621 -0.45462,0.5374 -0.8496,1.14021 -1.04773,1.81565 -0.31574,1.07639 -0.10812,2.22534 0,3.34186 0.45224,4.67015 -0.88587,9.29951 -1.66149,13.92695 -0.38782,2.31372 -0.63658,4.66707 -0.44901,7.00556 0.18757,2.33848 0.82924,4.6726 2.1105,6.63782 0.51959,0.79695 1.13875,1.52647 1.63967,2.33529 0.50092,0.80881 0.88664,1.72634 0.86673,2.6775 -0.006,0.28009 -0.0468,0.5582 -0.0657,0.83771 -0.019,0.27951 -0.0153,0.56504 0.0657,0.83322 0.11629,0.38495 0.3846,0.708 0.69046,0.96907 0.30586,0.26107 0.65227,0.46949 0.98046,0.70186 1.6245,1.1502 2.76041,2.85124 3.83078,4.52941 1.07036,1.67818 2.14231,3.40709 3.68841,4.6607 1.26766,1.02784 2.78867,1.68189 4.26718,2.37284 1.47851,0.69095 2.96622,1.45411 4.08746,2.63995 0.40857,0.43211 0.76137,0.9134 1.15174,1.36202 0.39038,0.44861 0.82675,0.87059 1.35466,1.14437 0.2778,0.14407 0.57573,0.2444 0.86511,0.36353 0.28938,0.11912 0.57527,0.26033 0.80582,0.47193 0.23221,0.21313 0.39869,0.48944 0.52465,0.77837 0.12596,0.28893 0.21403,0.59259 0.31081,0.89256 0.65462,2.02901 1.74807,3.94899 3.34308,5.36367 1.59502,1.41469 3.71913,2.28765 5.84703,2.15551 0.27876,-0.0173 0.56089,-0.0511 0.83547,0 0.29699,0.0553 0.56965,0.20872 0.79867,0.40572 0.22902,0.197 0.41742,0.43678 0.58949,0.68508 0.34414,0.49659 0.64025,1.04604 1.11823,1.4156 0.34102,0.26366 0.75787,0.41903 1.18367,0.48607 0.42581,0.067 0.86144,0.0488 1.28848,-0.01 0.85408,-0.1174 1.68237,-0.39487 2.54064,-0.47617 1.08297,-0.10258 2.17456,0.11184 3.21024,0.44456 1.03568,0.33272 2.0292,0.78281 3.04565,1.17033 1.01644,0.38753 2.06901,0.7151 3.15447,0.78658 1.08546,0.0715 2.21445,-0.13021 3.12161,-0.73054 0.42269,-0.27973 0.78695,-0.63751 1.18012,-0.95742 0.39316,-0.3199 0.83035,-0.60873 1.32627,-0.71351 0.41054,-0.0867 0.83602,-0.0423 1.25329,0.002 0.41727,0.0442 0.84308,0.0873 1.2531,-0.002 0.49505,-0.10765 0.9294,-0.40034 1.32135,-0.72134 0.39194,-0.321 0.75748,-0.67785 1.18505,-0.94959 0.97882,-0.62208 2.18378,-0.74242 3.33913,-0.84358 1.15536,-0.10116 2.35964,-0.21502 3.34459,-0.82735 0.42971,-0.26714 0.79904,-0.61891 1.19165,-0.93808 0.39261,-0.31918 0.82316,-0.61299 1.31474,-0.73285 0.54372,-0.13257 1.11286,-0.042 1.67093,0 3.04448,0.22906 6.06295,-1.04547 8.43392,-2.96895 2.37098,-1.92349 4.16956,-4.45601 5.76898,-7.05662 0.8507,-1.38321 1.65397,-2.79518 2.50639,-4.17733 1.6714,-2.71009 3.54533,-5.32038 5.84825,-7.51918 0.57009,-0.54432 1.1674,-1.06451 1.67093,-1.67093 0.84334,-1.01567 1.39387,-2.23562 1.97623,-3.42038 0.58237,-1.18477 1.22508,-2.37441 2.2011,-3.26334 1.39882,-1.27401 3.33033,-1.79037 5.21055,-2.00153 1.88021,-0.21115 3.78994,-0.16111 5.65049,-0.50486 2.70769,-0.50026 5.18999,-1.80983 7.59043,-3.15881 2.40045,-1.34898 4.80024,-2.76887 7.44793,-3.52491 1.10426,-0.31532 2.24015,-0.51134 3.34186,-0.83546 4.69285,-1.3806 8.39822,-4.95303 11.5894,-8.66049 3.19119,-3.70745 6.13688,-7.73342 10.13268,-10.5552 1.83559,-1.29627 3.8531,-2.30787 5.84825,-3.34186 2.32401,-1.20442 4.64128,-2.4539 6.70989,-4.05781 2.0686,-1.60391 3.89341,-3.5894 4.98661,-5.96776 0.88812,-1.93219 1.28977,-4.10415 2.5064,-5.84825 0.79901,-1.14541 1.92809,-2.07066 2.50639,-3.34186 0.36501,-0.80234 0.48709,-1.6967 0.83547,-2.5064 0.35402,-0.82282 0.92942,-1.53004 1.53794,-2.18736 0.60851,-0.65732 1.25924,-1.27885 1.80391,-1.98996 0.99772,-1.3026 1.60555,-2.86175 2.064,-4.43719 0.45845,-1.57544 0.78046,-3.18934 1.27786,-4.75292 1.24301,-3.90742 3.53625,-7.37729 5.52263,-10.9644 1.98639,-3.5871 3.72029,-7.49311 3.66748,-11.59314 -0.0216,-1.67565 -0.34143,-3.37215 0,-5.01279 0.17961,-0.86308 0.53659,-1.67704 0.83547,-2.5064 2.10829,-5.85028 1.28417,-12.37276 -0.50051,-18.32974 -1.78467,-5.95698 -4.48784,-11.61222 -6.18321,-17.59523 -1.49286,-5.26836 -2.19791,-10.76832 -4.17732,-15.87383 -3.057,-7.88495 -8.9191,-14.28366 -14.2029,-20.88662 -6.30386,-7.87769 -12.04989,-16.41128 -20.05115,-22.55754 -3.97192,-3.05108 -8.40491,-5.43524 -12.66703,-8.06574 -4.26213,-2.63051 -8.42711,-5.57246 -11.56144,-9.47902 -2.66311,-3.31924 -4.48805,-7.21569 -6.68372,-10.86104 -2.07257,-3.44098 -4.48139,-6.66617 -6.68372,-10.02558 -4.96261,-7.5699 -8.92353,-15.88373 -15.03836,-22.55754 -0.94575,-1.0322 -1.96084,-2.05258 -2.5064,-3.34186 -0.44817,-1.05912 -0.54763,-2.22842 -0.83546,-3.34186 -0.81842,-3.16596 -3.09207,-5.70814 -5.01279,-8.35464 -3.45211,-4.75655 -5.91412,-10.15885 -9.19011,-15.03837 -3.79521,-5.65289 -8.68099,-10.60475 -11.6965,-16.70929 -1.63712,-3.31414 -2.6784,-6.88341 -3.94405,-10.35642 -1.26566,-3.47301 -2.79966,-6.92366 -5.24606,-9.69473 -0.33605,-0.38064 -0.68881,-0.74785 -0.9931,-1.15433 -0.30429,-0.40648 -0.56128,-0.85786 -0.67783,-1.35206 -0.19244,-0.816 0.0107,-1.66809 0,-2.5064 -0.0154,-1.19866 -0.46837,-2.34779 -0.9959,-3.42424 -0.52752,-1.07645 -1.13915,-2.11968 -1.5105,-3.25947 -0.54181,-1.66302 -0.54587,-3.44452 -0.73008,-5.18385 -0.0921,-0.86966 -0.23139,-1.7387 -0.50397,-2.56966 -0.27259,-0.83097 -0.68316,-1.6258 -1.27234,-2.27207 -0.4829,-0.52969 -1.07466,-0.94915 -1.5755,-1.46191 -0.25042,-0.25638 -0.47875,-0.53752 -0.64815,-0.85335 -0.16939,-0.31583 -0.27847,-0.66824 -0.28275,-1.0266 -0.003,-0.28194 0.0574,-0.5602 0.0885,-0.84044 0.0311,-0.28025 0.0302,-0.57475 -0.0885,-0.83049 -0.10876,-0.23425 -0.30884,-0.41654 -0.53161,-0.5472 -0.22278,-0.13067 -0.46929,-0.21458 -0.71415,-0.2967 -0.24486,-0.0821 -0.49182,-0.16412 -0.71651,-0.29144 -0.2247,-0.12733 -0.42843,-0.30469 -0.54412,-0.53559 -0.1267,-0.25288 -0.13827,-0.5484 -0.11018,-0.82985 0.0281,-0.28144 0.0931,-0.55875 0.11018,-0.84108 0.0266,-0.43847 -0.0643,-0.88048 -0.23762,-1.2841 -0.17334,-0.40362 -0.42762,-0.76977 -0.72611,-1.09204 -0.59698,-0.64456 -1.3598,-1.10876 -2.12439,-1.54148 -0.76459,-0.43272 -1.54833,-0.84713 -2.21727,-1.41666 -0.66895,-0.56952 -1.22429,-1.31997 -1.37833,-2.1849 -0.081,-0.45469 -0.0489,-0.92345 -0.12521,-1.37894 -0.0381,-0.22775 -0.10424,-0.45309 -0.21961,-0.65313 -0.11537,-0.20003 -0.28259,-0.37412 -0.49064,-0.47432 -0.25953,-0.125 -0.57594,-0.125 -0.83547,0 -0.31314,-0.24069 -0.59477,-0.52233 -0.83546,-0.83547 -0.76073,-0.98975 -1.08159,-2.2414 -1.67093,-3.34185 -0.70668,-1.31956 -1.79131,-2.40254 -2.97304,-3.32131 -1.18174,-0.91876 -2.46964,-1.69002 -3.71068,-2.52695 -1.15494,-0.77887 -2.27076,-1.61573 -3.34185,-2.50639"
     id="path8"
     inkscape:path-effect="#path-effect8"
     inkscape:original-d="m 643.30776,600.69906 c 0.53298,8.12598 -3.0451,15.91792 -5.84825,23.39301 -0.43731,1.16614 -1.31306,2.14895 -1.67093,3.34186 -0.89469,2.98228 -0.9955,6.15066 -1.67093,9.19011 -0.87521,3.93845 -2.55781,7.77627 -3.34186,11.69651 -0.10923,0.54616 0.17613,1.14253 0,1.67092 -1.10043,3.3013 -4.15605,5.76314 -5.01279,9.19012 -0.13509,0.54034 0.17613,1.14253 0,1.67092 -0.44033,1.32099 -1.98925,2.04901 -2.50639,3.34186 -0.20686,0.51714 0.17613,1.14254 0,1.67093 -0.24909,0.74726 -1.31867,0.96641 -1.67093,1.67093 -0.39384,0.78769 -0.28532,1.81872 -0.83547,2.5064 -0.62726,0.78407 -1.98978,0.80991 -2.50639,1.67092 -0.42984,0.71641 0.2642,1.71381 0,2.5064 -0.97891,2.93671 -1.58444,2.16045 -2.50639,5.84825 -0.42267,1.69066 -2.05391,1.9844 -2.5064,3.34186 -0.35226,1.05679 0.21847,2.24954 0,3.34186 -1.72057,8.60287 -1.42191,19.03887 0,27.57033 0.70584,4.23504 0.85679,0.88879 2.5064,5.01279 0.20685,0.51714 -0.24909,1.17275 0,1.67093 0.35226,0.70452 1.16666,1.06581 1.67092,1.67093 2.62851,3.1542 4.23913,6.56606 7.51919,9.19011 17.35157,13.88125 -3.79293,-3.66405 8.35464,5.01279 0.96145,0.68674 1.58378,1.7683 2.5064,2.50639 0.48626,0.38901 1.2306,0.39514 1.67093,0.83546 0.44032,0.44033 0.39513,1.2306 0.83546,1.67093 0.93623,0.93624 8.98363,7.41595 9.19011,7.51918 0.24909,0.12455 0.63854,-0.19692 0.83547,0 0.9632,0.96321 -0.0484,1.65479 2.50639,2.5064 1.50392,0.50131 3.47028,-0.38563 5.01279,0 3.93082,0.9827 8.26848,2.88907 12.53197,1.67093 0.96547,-0.27585 1.55381,-1.35341 2.50639,-1.67093 0.79259,-0.2642 1.7138,0.2642 2.50639,0 0.95258,-0.31753 1.6083,-1.22188 2.5064,-1.67093 3.09219,-1.5461 2.87047,-0.24096 6.68372,-1.67093 0.94017,-0.35256 1.5741,-1.29801 2.50639,-1.67093 0.51714,-0.20686 1.13058,0.13509 1.67093,0 5.4607,-1.36517 10.87818,-5.75094 14.2029,-10.02557 0.99694,-1.2818 1.56255,-2.85595 2.50639,-4.17733 1.84558,-2.58381 3.83756,-5.06167 5.84825,-7.51918 0.49879,-0.60963 1.31867,-0.9664 1.67093,-1.67093 1.65982,-3.31963 0.86989,-4.20314 4.17733,-6.68372 3.30284,-2.47713 7.31819,-1.62068 10.86104,-2.50639 5.2526,-1.31315 10.12837,-4.63789 15.03836,-6.68372 1.05991,-0.44163 2.31484,-0.32195 3.34186,-0.83546 8.60416,-4.30208 14.36072,-13.3266 21.72208,-19.21569 6.57776,-5.26221 -2.15628,2.37567 5.84825,-3.34186 2.42341,-1.731 9.74334,-7.68177 11.6965,-10.02557 3.8013,-4.56156 -0.28041,-0.27464 2.5064,-5.84825 0.62272,-1.24544 1.81555,-2.13288 2.50639,-3.34186 0.43693,-0.76463 0.44162,-1.71871 0.83547,-2.5064 0.75984,-1.51968 2.49084,-2.75896 3.34185,-4.17732 1.57003,-2.6167 1.97178,-6.44993 3.34186,-9.19011 3.42528,-6.85055 7.89966,-14.8148 9.19011,-22.55754 0.2747,-1.6482 -0.27469,-3.3646 0,-5.01279 0.14478,-0.86868 0.69069,-1.63772 0.83547,-2.5064 2.09198,-12.55187 -3.18524,-24.26339 -6.68372,-35.92497 -1.58731,-5.29106 -2.43703,-10.65295 -4.17732,-15.87383 -2.6738,-8.02139 -8.84664,-14.70632 -14.2029,-20.88662 -5.54595,-6.39918 -13.40351,-17.11857 -20.05115,-22.55754 -7.61731,-6.23235 -17.21683,-10.53312 -24.22847,-17.54476 -3.22276,-3.22276 -4.58985,-7.02228 -6.68372,-10.86104 -1.92327,-3.52599 -4.5018,-6.65351 -6.68372,-10.02558 -4.95432,-7.65668 -10.23023,-14.86453 -15.03836,-22.55754 -0.73799,-1.18079 -1.88368,-2.09642 -2.5064,-3.34186 -0.5135,-1.02701 -0.38315,-2.28646 -0.83546,-3.34186 -1.23571,-2.88331 -3.4831,-5.60121 -5.01279,-8.35464 -2.95066,-5.31119 -5.9631,-9.87515 -9.19011,-15.03837 -3.57894,-5.7263 -8.31787,-10.79668 -11.6965,-16.70929 -3.68122,-6.44213 -5.87045,-13.41183 -9.19011,-20.05115 -0.44905,-0.8981 -1.35341,-1.55382 -1.67093,-2.50639 -0.2642,-0.7926 0.20263,-1.69588 0,-2.5064 -0.57709,-2.30836 -1.85272,-4.39586 -2.5064,-6.68371 -0.33063,-1.15721 -2.20492,-9.42263 -2.50639,-10.02558 -1.66452,-3.32903 -1.67185,-0.004 -2.5064,-3.34186 -0.13508,-0.54034 0.30896,-1.2075 0,-1.67093 -0.68237,-1.02357 -2.0786,-0.38756 -2.50639,-1.67093 -0.17613,-0.52839 0.17613,-1.14253 0,-1.67093 -0.51104,-1.53311 -5.49248,-5.73233 -6.68372,-7.51918 -0.4885,-0.73275 -0.21274,-1.88367 -0.83546,-2.50639 -0.19692,-0.19692 -0.55698,0 -0.83547,0 -0.27848,-0.27849 -0.617,-0.50777 -0.83546,-0.83547 -0.69084,-1.03626 -0.92367,-2.34551 -1.67093,-3.34185 -1.8687,-2.49161 -4.58058,-3.74512 -6.68372,-5.84826 -1.07038,-1.07039 0.93105,-2.50639 -3.34185,-2.50639" />
  <path
     style="fill:none;fill-opacity:0.501961;stroke:#ff9500;stroke-width:10.001;stroke-dasharray:none;stroke-opacity:1"
     d="m 694.2711,737.71526 c 3.4889,-3.15762 5.56039,-7.82634 5.56039,-12.53197 0,-4.70563 -2.07149,-9.37435 -5.56039,-12.53197 -0.29247,-0.2647 -0.59651,-0.5216 -0.83546,-0.83546 -0.38967,-0.51183 -0.58526,-1.15267 -0.63777,-1.79381 -0.0525,-0.64114 0.0308,-1.28617 0.15452,-1.91744 0.24743,-1.26256 0.65931,-2.53346 0.48325,-3.80793 -0.14602,-1.05699 -0.68481,-2.01348 -1.22264,-2.93504 -0.53783,-0.92157 -1.09477,-1.86306 -1.28376,-2.91322 -0.14841,-0.82464 -0.0611,-1.67073 0,-2.50639 0.19838,-2.71522 0.10498,-5.4982 -0.77501,-8.07451 -0.87998,-2.57632 -2.62376,-4.9402 -5.07324,-6.12839 -0.56101,-0.27214 -1.15645,-0.48317 -1.67093,-0.83546 -0.68869,-0.47158 -1.19538,-1.17585 -1.53322,-1.9391 -0.33783,-0.76325 -0.51673,-1.58714 -0.64612,-2.41173 -0.25879,-1.64917 -0.34558,-3.38349 -1.16252,-4.83929 -0.73448,-1.30885 -1.98354,-2.24543 -3.26451,-3.02751 -1.28097,-0.78209 -2.64037,-1.45763 -3.78223,-2.43164 -0.57093,-0.487 -1.08445,-1.04862 -1.46672,-1.69438 -0.38227,-0.64576 -0.63018,-1.37881 -0.65801,-2.12872 -0.0278,-0.7499 0.1727,-1.51578 0.6134,-2.12317 0.4407,-0.60739 1.12855,-1.0434 1.87435,-1.12654 0.27711,-0.0309 0.55702,-0.0145 0.83547,0 7.85617,0.40776 15.71415,-0.79738 23.39301,-2.5064 5.02058,-1.11739 10.02148,-2.45605 15.15037,-2.84254 5.12888,-0.38649 10.48532,0.24792 14.92635,2.84254 0.92928,0.54292 1.81145,1.16706 2.76662,1.663 0.95518,0.49593 2.0056,0.86461 3.08164,0.8434 0.42066,-0.008 0.83774,-0.0759 1.25729,-0.10759 0.41955,-0.0317 0.85012,-0.026 1.2491,0.10759 0.39997,0.1339 0.75147,0.39261 1.03085,0.70861 0.27937,0.316 0.48967,0.68809 0.65644,1.07551 0.33354,0.77483 0.49792,1.61316 0.8191,2.3932 0.56741,1.37805 1.59672,2.51205 2.67795,3.53769 1.08122,1.02564 2.24086,1.98108 3.17031,3.14603 1.43153,1.79425 2.25322,4.017 2.65042,6.27772 0.39719,2.26072 0.39012,4.57231 0.30605,6.86611 -0.0841,2.29381 -0.24396,4.58894 -0.14813,6.88229 0.0958,2.29334 0.45593,4.60281 1.36898,6.70874 0.43164,0.99556 0.9901,1.95911 1.15489,3.03163 0.0824,0.53626 0.0607,1.09597 -0.12522,1.60566 -0.18596,0.50969 -0.54579,0.96556 -1.02967,1.21097 -0.43687,0.22157 -0.96292,0.26047 -1.42763,0.10556 -0.46471,-0.1549 -0.86221,-0.50165 -1.07876,-0.94103"
     id="path9"
     inkscape:path-effect="#path-effect9"
     inkscape:original-d="m 694.2711,737.71526 c -0.82754,-4.12995 1.22336,-22.61721 0,-25.06394 -0.17613,-0.35226 -0.73994,-0.45338 -0.83546,-0.83546 -0.58665,-2.3466 0.39839,-5.12881 0,-7.51918 -0.63015,-3.78089 -1.28897,-1.58725 -2.5064,-5.84826 -0.22952,-0.80332 0.22952,-1.70307 0,-2.50639 -0.62274,-2.1796 -4.73137,-12.71372 -5.84825,-14.2029 -0.37363,-0.49817 -1.35054,-0.30149 -1.67093,-0.83546 -1.03482,-1.7247 -2.30364,-7.11367 -3.34186,-9.19012 -0.90112,-1.80225 -7.22919,-11.44102 -6.68372,-12.53196 0.12455,-0.24909 0.5653,0.0675 0.83547,0 9.06273,-2.26569 14.02295,-2.5064 23.39301,-2.5064 8.8403,0 21.51012,-1.07082 30.07672,0 8.06032,1.00754 -0.88785,0.26103 5.84826,2.5064 0.79259,0.26419 1.75913,-0.37364 2.50639,0 1.45242,0.7262 1.53208,2.87824 2.50639,4.17732 10.05858,13.41143 -1.88042,-2.59069 5.84826,6.68372 5.12266,6.14719 4.17732,19.07215 4.17732,26.73486 0,1.03062 0.73209,5.11617 0,5.84826 -0.7092,0.70919 -2.14471,-0.47378 -2.50639,-0.83547" />
  <path
     style="fill:none;fill-opacity:0.501961;stroke:#ff9500;stroke-width:10.001;stroke-dasharray:none;stroke-opacity:1"
     d="m 796.19778,643.30776 c -4.6099,-7.84243 -8.79537,-15.93434 -12.53197,-24.22848 -0.62603,-1.3896 -1.24168,-2.78913 -2.02867,-4.09433 -0.787,-1.30519 -1.75619,-2.52202 -2.98411,-3.42485 -1.44236,-1.06049 -3.22261,-1.65391 -5.01279,-1.67093"
     id="path10"
     inkscape:path-effect="#path-effect10"
     inkscape:original-d="m 796.19778,643.30776 c -3.51564,-8.45129 -7.34153,-16.73118 -12.53197,-24.22848 -1.71463,-2.47669 -2.88276,-5.38915 -5.01278,-7.51918 -1.88437,-1.88436 -5.01279,2.60743 -5.01279,-1.67093" />
  <path
     style="fill:none;fill-opacity:0.501961;stroke:#ff9500;stroke-width:10.001;stroke-dasharray:none;stroke-opacity:1"
     d="m 774.4757,583.98977 c 4.44427,-0.71441 9.04671,-0.42676 13.36744,0.83546 8.40611,2.45568 15.61654,8.72562 19.21568,16.7093"
     id="path11"
     inkscape:path-effect="#path-effect11"
     inkscape:original-d="m 774.4757,583.98977 c 4.03237,0 9.90593,-0.12607 13.36744,0.83546 4.52366,1.25658 19.21568,11.05869 19.21568,16.7093" />
  <path
     style="fill:none;fill-opacity:0.501961;stroke:#ff9500;stroke-width:10.001;stroke-dasharray:none;stroke-opacity:1"
     d="m 598.19267,408.5422 c -9.13693,-2.18977 -18.33124,-4.14008 -27.57033,-5.84825 -4.14755,-0.76682 -8.31816,-1.48643 -12.53197,-1.67093 -3.33906,-0.1462 -6.68362,0.0447 -10.02558,0 -6.98575,-0.0934 -13.91518,-1.21423 -20.88661,-1.67093 -2.36923,-0.15521 -4.76685,-0.23207 -7.10074,0.20416 -2.33389,0.43623 -4.62248,1.42485 -6.2667,3.1377 -0.27298,0.28437 -0.52834,0.58836 -0.83546,0.83546 -0.45063,0.36257 -1.00089,0.5904 -1.56853,0.70133 -0.56765,0.11093 -1.15318,0.10832 -1.72776,0.0421 -1.14917,-0.1324 -2.2536,-0.51425 -3.38743,-0.74346 -0.59949,-0.12119 -1.21901,-0.19955 -1.82157,-0.0947 -0.30128,0.0524 -0.59596,0.15114 -0.85975,0.30583 -0.26379,0.1547 -0.49615,0.36646 -0.66054,0.62432 -0.11161,0.17507 -0.19161,0.37001 -0.31645,0.53591 -0.0624,0.083 -0.13633,0.15842 -0.22435,0.21345 -0.088,0.055 -0.19089,0.0889 -0.29466,0.0861 -0.0869,-0.002 -0.17259,-0.0305 -0.24578,-0.0774 -0.0732,-0.047 -0.13396,-0.11244 -0.1782,-0.18731 -0.0885,-0.14974 -0.10895,-0.33335 -0.0799,-0.50484 0.0291,-0.17148 0.10465,-0.33216 0.19715,-0.47945 0.0925,-0.14729 0.20215,-0.2829 0.30671,-0.42189 0.98552,-1.31001 1.51462,-2.92152 1.72282,-4.54757 0.20821,-1.62604 0.11061,-3.27586 -0.0584,-4.90644 -0.33801,-3.26118 -0.95135,-6.62606 0.007,-9.76167 0.94266,-3.08589 3.30092,-5.53868 5.84825,-7.51919 7.30827,-5.68207 16.55525,-8.34687 25.74189,-9.48812 9.18663,-1.14125 18.48367,-0.88099 27.72784,-1.37292 3.10115,-0.16503 6.33775,-0.39267 9.19012,0.83547 1.14448,0.49278 2.18576,1.20603 3.34185,1.67093 2.13449,0.85835 4.54373,0.82637 6.68372,1.67093 1.58691,0.62628 2.94921,1.70429 4.25412,2.80325 1.30491,1.09895 2.5938,2.24484 4.10053,3.045 1.65477,0.87878 3.5538,1.33085 5.01278,2.50639 0.92083,0.74194 1.61234,1.73241 2.5064,2.5064 1.55605,1.34708 3.60041,1.94438 5.49394,2.75089 0.94676,0.40326 1.87542,0.87069 2.68268,1.50889 0.80726,0.6382 1.49188,1.4588 1.84895,2.42393 0.43832,1.18476 0.35837,2.49319 0.20423,3.747 -0.15413,1.25381 -0.37668,2.52077 -0.20423,3.77219 0.20586,1.49386 0.96041,2.85842 1.27833,4.3325 0.15897,0.73704 0.20567,1.51156 0.0156,2.24121 -0.19003,0.72965 -0.63674,1.41142 -1.29397,1.78093 -0.46019,0.25873 -0.99328,0.35354 -1.47883,0.56081 -0.24278,0.10364 -0.47609,0.23747 -0.6641,0.42276 -0.18801,0.18528 -0.32869,0.42569 -0.36346,0.68736 -0.0368,0.27667 0.0447,0.55997 0,0.83547 -0.0267,0.1648 -0.0987,0.32129 -0.20194,0.45253 -0.10319,0.13124 -0.23702,0.23742 -0.38565,0.31346 -0.29726,0.15208 -0.64742,0.18109 -0.9766,0.12513 -0.65837,-0.1119 -1.213,-0.53458 -1.77767,-0.89112 -1.61461,-1.01948 -3.52099,-1.57096 -5.43052,-1.57096 -1.90953,0 -3.81591,0.55148 -5.43052,1.57096"
     id="path12"
     inkscape:path-effect="#path-effect12"
     inkscape:original-d="m 598.19267,408.5422 c -8.18086,-5.1317 -18.30279,-4.81853 -27.57033,-5.84825 -2.96608,-0.32957 -9.71469,-1.53007 -12.53197,-1.67093 -3.33769,-0.16689 -6.68789,0.16688 -10.02558,0 -6.59006,-0.32951 -14.25975,-2.77541 -20.88661,-1.67093 -4.14321,0.69053 -9.39803,2.01872 -13.36744,3.34186 -0.37363,0.12454 -0.46183,0.71092 -0.83546,0.83546 -1.97809,0.65936 -4.63483,-0.40978 -6.68372,0 -1.12594,0.22519 -2.25255,0.47236 -3.34186,0.83547 -0.37363,0.12454 -0.55697,1.11395 -0.83546,0.83546 -0.39384,-0.39384 0.0916,-1.12153 0,-1.67093 -1.20652,-7.2391 -1.05097,-11.50365 1.67093,-19.21568 1.05678,-2.99424 3.73872,-5.14597 5.84825,-7.51919 15.53222,-17.47375 32.03217,-12.449 53.46973,-10.86104 3.31527,0.24558 5.9603,-0.37571 9.19012,0.83547 1.16613,0.4373 2.16033,1.27709 3.34185,1.67093 2.85994,0.95331 4.18274,0.42044 6.68372,1.67093 2.67756,1.33878 5.88214,4.40595 8.35465,5.84825 1.61367,0.94131 3.45839,1.47013 5.01278,2.50639 0.98309,0.6554 1.56118,1.79748 2.5064,2.5064 3.07897,2.30922 7.265,3.92314 10.02557,6.68371 0.55709,0.55709 0,7.18903 0,7.51919 0,1.17401 0.9641,7.39055 0,8.35464 -0.0453,0.0453 -2.46112,1.62566 -2.50639,1.67093 -0.19692,0.19692 0.24909,0.71092 0,0.83547 -0.99635,0.49817 -2.31797,-0.43881 -3.34186,0 -7.54407,3.23317 -0.71326,3.80541 -10.86104,0" />
  <path
     style="fill:none;fill-opacity:0.501961;stroke:#ff9500;stroke-width:10.001;stroke-dasharray:none;stroke-opacity:1"
     d="m 497.93691,360.92072 c -1.72158,9.79436 -5.43997,19.23335 -10.86104,27.57033 -0.41595,0.63968 -0.84347,1.27594 -1.16618,1.96737 -0.3227,0.69143 -0.53886,1.44769 -0.50475,2.20995 0.0255,0.56966 0.18894,1.12363 0.26374,1.68893 0.0374,0.28266 0.0525,0.56994 0.0169,0.85281 -0.0357,0.28288 -0.12372,0.56205 -0.28061,0.80012 -0.21734,0.32981 -0.55088,0.56155 -0.83546,0.83546 -0.47395,0.45617 -0.81652,1.03766 -1.044,1.65489 -0.22748,0.61723 -0.34355,1.27081 -0.4047,1.92577 -0.1223,1.30993 -0.0292,2.63714 -0.22223,3.93853 -0.35021,2.36123 -1.60956,4.47153 -2.50639,6.68371 -2.25068,5.55165 -2.17996,11.96497 0,17.54476 1.27157,3.25471 3.20689,6.19865 5.01278,9.19011 3.48134,5.76684 6.5224,11.79116 10.02558,17.54476 1.04482,1.716 2.13166,3.40913 3.34186,5.01279 2.55871,3.3906 5.70216,6.39355 9.43475,8.42109 3.73258,2.02754 8.08185,3.03748 12.28733,2.43995 0.27857,-0.0396 0.55681,-0.0861 0.83786,-0.0994 0.28105,-0.0133 0.56713,0.008 0.83307,0.0994 0.37888,0.13093 0.69677,0.39914 0.95896,0.70238 0.26219,0.30323 0.47636,0.64423 0.71197,0.96855 1.54593,2.128 3.97221,3.47004 6.47913,4.26607 2.50691,0.79603 5.13672,1.10737 7.72377,1.58218 5.86228,1.07592 11.59386,3.00905 17.54475,3.34186 3.89421,0.21779 7.80466,-0.25661 11.69651,0 4.48385,0.29565 8.87529,1.55729 13.36743,1.67093 6.67773,0.16893 13.15545,-2.20315 19.21569,-5.01279 2.7547,-1.27713 5.54019,-2.70995 7.51918,-5.01279 0.86514,-1.00672 1.55464,-2.15725 2.4504,-3.13683 0.44788,-0.48978 0.94881,-0.93671 1.5198,-1.27504 0.57099,-0.33832 1.2153,-0.56559 1.87805,-0.60092 0.55684,-0.0297 1.11838,0.0751 1.67093,0 0.65168,-0.0886 1.25047,-0.42503 1.74533,-0.85819 0.49486,-0.43317 0.89634,-0.96133 1.28126,-1.49459 0.38493,-0.53325 0.75885,-1.07788 1.21007,-1.55634 0.45121,-0.47847 0.98866,-0.89278 1.61159,-1.10367 0.42259,-0.14307 0.87093,-0.18864 1.30723,-0.28184 0.43631,-0.0932 0.87805,-0.2439 1.19917,-0.55362 0.226,-0.21798 0.37794,-0.5015 0.49781,-0.79171 0.11988,-0.2902 0.21136,-0.59175 0.33765,-0.87922 0.47951,-1.09148 1.42138,-1.90318 2.36937,-2.62608 0.94799,-0.72289 1.95173,-1.41572 2.64342,-2.38671 0.54985,-0.77187 0.87579,-1.69091 1.00784,-2.62934 0.13206,-0.93844 0.0752,-1.89694 -0.0942,-2.82936 -0.33887,-1.86483 -1.11698,-3.61547 -1.74906,-5.40234 -3.36363,-9.50882 -2.44841,-20.45596 2.5064,-29.24126 0.52528,-0.93137 1.09361,-1.83978 1.56317,-2.80044 0.46956,-0.96066 0.84131,-1.9834 0.94322,-3.04781 0.10625,-1.1097 -0.0831,-2.23018 0,-3.34186 0.0892,-1.19341 0.49007,-2.34277 0.97683,-3.43604 0.48676,-1.09327 1.06234,-2.14592 1.52957,-3.24768 1.86837,-4.40576 1.9146,-9.36828 1.44618,-14.13085 -0.46842,-4.76257 -1.42122,-9.48945 -1.44618,-14.27494 -0.0145,-2.78676 0.28599,-5.58256 0,-8.35465 -0.17798,-1.72514 -0.58223,-3.42815 -0.62885,-5.16182 -0.0233,-0.86683 0.0443,-1.74102 0.27125,-2.57795 0.22694,-0.83692 0.61764,-1.63709 1.19306,-2.28581 0.26141,-0.2947 0.55811,-0.55572 0.83547,-0.83546 1.6919,-1.70637 2.6152,-4.10336 2.69929,-6.50485 0.0841,-2.40149 -0.63653,-4.79668 -1.86383,-6.86258 -0.48122,-0.81004 -1.03846,-1.57319 -1.51384,-2.38668 -0.47538,-0.81348 -0.87219,-1.69163 -0.99255,-2.62611 -0.14249,-1.10628 0.10864,-2.23175 0,-3.34186 -0.11646,-1.18998 -0.63831,-2.29822 -1.17616,-3.36609 -0.53785,-1.06787 -1.10675,-2.14303 -1.33024,-3.31763 -0.20895,-1.09818 -0.10522,-2.22885 -5.9e-4,-3.34183 0.10463,-1.11297 0.20876,-2.24355 5.9e-4,-3.34188 -0.22264,-1.17469 -0.79032,-2.25039 -1.32775,-3.3184 -0.53742,-1.06801 -1.05956,-2.17566 -1.17864,-3.36532 -0.11108,-1.1098 0.13568,-2.2348 0,-3.34186 -0.14564,-1.18835 -0.71987,-2.27486 -1.27684,-3.33465 -0.55697,-1.0598 -1.11687,-2.15715 -1.22956,-3.34907 -0.0792,-0.83816 0.0677,-1.67863 0.16072,-2.51537 0.093,-0.83674 0.12854,-1.70677 -0.16072,-2.49741 -0.34629,-0.94651 -1.11313,-1.66696 -1.67092,-2.5064 -1.0175,-1.53128 -1.31368,-3.41127 -1.72311,-5.20361 -0.20471,-0.89617 -0.44512,-1.78955 -0.82721,-2.62563 -0.38209,-0.83609 -0.91301,-1.61733 -1.62701,-2.19633 -0.31112,-0.25229 -0.65378,-0.46399 -0.96117,-0.72081 -0.3074,-0.25683 -0.58472,-0.56958 -0.70976,-0.95012 -0.0876,-0.26656 -0.096,-0.55292 -0.0777,-0.83289 0.0184,-0.27997 0.0627,-0.55787 0.0777,-0.83804 0.0392,-0.73119 -0.12348,-1.46427 -0.40386,-2.1407 -0.28038,-0.67644 -0.67605,-1.29977 -1.11275,-1.88754 -0.87339,-1.17554 -1.92052,-2.22728 -2.66071,-3.49094 -0.62238,-1.06253 -1.01034,-2.24621 -1.59231,-3.3314 -0.29098,-0.54259 -0.63241,-1.06239 -1.05959,-1.50579 -0.42718,-0.44339 -0.94374,-0.80927 -1.52542,-1.01107 -0.3014,-0.10456 -0.61725,-0.16448 -0.91594,-0.27657 -0.29869,-0.11208 -0.58876,-0.28659 -0.75499,-0.55889 -0.11093,-0.18172 -0.15958,-0.39642 -0.16715,-0.60918 -0.008,-0.21277 0.0242,-0.42499 0.0644,-0.63405 0.0804,-0.41813 0.19551,-0.84758 0.10276,-1.26316 -0.0882,-0.39506 -0.35697,-0.72863 -0.66799,-0.98769 -0.31102,-0.25905 -0.66757,-0.45659 -1.00294,-0.68324 -1.78093,-1.2036 -2.88764,-3.16709 -3.76789,-5.12809 -0.88024,-1.961 -1.61567,-4.02124 -2.91583,-5.73295 -1.19252,-1.56999 -2.80042,-2.76626 -4.17732,-4.17733 -1.79409,-1.83861 -3.19088,-4.03721 -5.01279,-5.84825 -3.7998,-3.77713 -9.13218,-5.57034 -14.37883,-6.65563 -5.24665,-1.08529 -10.64275,-1.59492 -15.6979,-3.36994 -4.00387,-1.40588 -7.70352,-3.57626 -11.6965,-5.01279 -5.84984,-2.10456 -12.1637,-2.57464 -18.38022,-2.5064 -1.94965,0.0214 -3.90074,0.0938 -5.84825,0 -4.93162,-0.23745 -9.74269,-1.53287 -14.61517,-2.33048 -4.87247,-0.79761 -10.00306,-1.07385 -14.6261,0.65955 -4.44114,1.6652 -8.07578,5.05924 -12.53197,6.68372 -3.23947,1.18093 -6.76955,1.3719 -10.02557,2.5064 -3.43284,1.19611 -6.41251,3.38439 -9.42377,5.42091 -3.01125,2.03652 -6.20917,3.98904 -9.79192,4.60466 -1.94356,0.33396 -3.96044,0.26528 -5.84825,0.83547 -1.82714,0.55186 -3.44135,1.68283 -4.777,3.04629 -1.33564,1.36347 -2.41165,2.95783 -3.40849,4.58549 -1.99368,3.25533 -3.79562,6.79165 -6.85287,9.07751 -0.87995,0.65792 -1.84416,1.19481 -2.74166,1.82857 -0.89751,0.63376 -1.74388,1.38481 -2.27113,2.34875 -0.34889,0.63787 -0.54715,1.34907 -0.89307,1.98855 -0.17296,0.31974 -0.38435,0.62232 -0.65404,0.86608 -0.26969,0.24376 -0.6008,0.4269 -0.95928,0.48723 -0.27551,0.0464 -0.55742,0.0199 -0.83569,-0.005 -0.27828,-0.0249 -0.56094,-0.048 -0.83524,0.005 -0.29684,0.0574 -0.57212,0.20288 -0.80849,0.39141 -0.23636,0.18853 -0.43592,0.41939 -0.61613,0.66216 -0.36042,0.48554 -0.65205,1.0274 -1.08178,1.45282 -0.51694,0.51176 -1.20982,0.8242 -1.92481,0.95804 -0.71499,0.13384 -1.45319,0.0975 -2.17116,-0.0193 -1.43595,-0.23354 -2.81212,-0.78388 -4.25867,-0.93876 -1.42198,-0.15225 -2.85963,0.0843 -4.24278,0.44781 -1.38314,0.36347 -2.73035,0.85352 -4.11187,1.22312 -6.49766,1.73831 -13.36589,0.74062 -20.05115,0 -4.54673,-0.5037 -9.13249,-0.88324 -13.69247,-0.51838 -4.55998,0.36487 -9.12113,1.50437 -13.0424,3.86024 -2.25472,1.35462 -4.28432,3.09951 -6.68372,4.17732 -3.22111,1.44692 -6.94515,1.61554 -10.02557,3.34186 -1.89863,1.06403 -3.43949,2.66092 -4.85281,4.31606 -1.41331,1.65515 -2.73639,3.39959 -4.3373,4.87405 -1.021,0.94035 -2.14536,1.76167 -3.19024,2.67542 -1.04487,0.91375 -2.02306,1.93852 -2.65801,3.17284 -0.80691,1.56859 -1.01216,3.37645 -1.67093,5.01278 -0.63684,1.58188 -1.68056,2.9633 -2.76168,4.28205 -1.08112,1.31875 -2.21826,2.60497 -3.08658,4.0726 -1.93693,3.27377 -2.39364,7.17727 -3.34185,10.86104 -0.62879,2.44283 -1.54357,4.91483 -3.34186,6.68372 -0.56249,0.5533 -1.20681,1.03286 -1.67093,1.67093 -0.55511,0.76317 -0.81187,1.69542 -1.11148,2.5903 -0.29962,0.89487 -0.67755,1.80933 -1.39492,2.42248 -0.38354,0.32782 -0.84325,0.55056 -1.28864,0.78763 -0.44539,0.23706 -0.89057,0.49922 -1.21775,0.8833 -0.40573,0.47628 -0.59318,1.09408 -0.83546,1.67093 -0.84487,2.0116 -2.44382,3.64366 -4.28501,4.81427 -1.8412,1.17061 -3.9223,1.91199 -6.02361,2.49919 -4.20263,1.1744 -8.70741,1.83375 -12.24893,4.38305 -0.81704,0.58813 -1.58044,1.2759 -2.50639,1.67093 -1.05784,0.4513 -2.2464,0.48523 -3.34186,0.83546 -1.55319,0.49658 -2.82683,1.59252 -4.17732,2.50639 -2.48451,1.68125 -5.30541,2.78259 -8.06817,3.95161 -2.76275,1.16901 -5.53321,2.44463 -7.80566,4.40304 -0.59722,0.51469 -1.15624,1.07371 -1.67093,1.67093 -0.19178,1.01354 -0.80911,1.93954 -1.67093,2.50639 -0.69247,0.45547 -1.50865,0.67489 -2.27496,0.99071 -0.38316,0.15791 -0.75816,0.34235 -1.09165,0.58838 -0.33348,0.24603 -0.62535,0.55665 -0.81071,0.92731 -0.14113,0.28221 -0.21753,0.59156 -0.32661,0.88765 -0.10908,0.29608 -0.25948,0.58997 -0.50886,0.78328 -0.17846,0.13833 -0.39723,0.2164 -0.61866,0.2606 -0.22142,0.0442 -0.44774,0.0565 -0.67266,0.0763 -0.22492,0.0198 -0.45121,0.0477 -0.66468,0.12123 -0.21347,0.0736 -0.41525,0.19641 -0.55039,0.3773 -0.12825,0.17167 -0.18963,0.3866 -0.20305,0.60046 -0.0134,0.21386 0.0185,0.42807 0.0622,0.63785 0.0437,0.20978 0.0992,0.41721 0.13375,0.62868 0.0346,0.21147 0.048,0.42906 0.007,0.63941 -0.0576,0.2966 -0.22131,0.56504 -0.4277,0.7857 -0.20639,0.22067 -0.45478,0.39754 -0.70823,0.56203 -0.25345,0.16448 -0.51428,0.31852 -0.75492,0.50123 -0.24064,0.18272 -0.46262,0.39684 -0.61555,0.65743 -0.14779,0.25184 -0.22704,0.54346 -0.22704,0.83546 0,0.29201 0.0793,0.58363 0.22704,0.83547 -0.6222,0.48622 -1.18471,1.04873 -1.67093,1.67093 -1.8723,2.39594 -2.51412,5.51872 -2.83766,8.54219 -0.32355,3.02346 -0.39253,6.1131 -1.33966,9.00256 -0.54957,1.67659 -1.39085,3.2708 -1.67093,5.01279 -0.15745,0.9793 -0.13224,1.97743 -0.18569,2.96787 -0.0534,0.99043 -0.19311,1.99988 -0.64977,2.88038 -0.46296,0.89266 -1.22673,1.60426 -1.67093,2.5064 -0.43766,0.88886 -0.53644,1.90329 -0.57457,2.89332 -0.0381,0.99004 -0.0241,1.99288 -0.2609,2.95493 -0.35903,1.45857 -1.27135,2.72934 -1.67093,4.17732 -0.37221,1.34878 -0.28063,2.77818 -0.13956,4.17025 0.14106,1.39206 0.32861,2.79804 0.13956,4.1844 -0.15527,1.1386 -0.55993,2.22624 -0.83546,3.34186 -0.77121,3.12268 -0.51867,6.39769 -0.19596,9.59796 0.32271,3.20028 0.7099,6.44255 0.19596,9.61773 -0.44344,2.73959 -1.57305,5.38065 -3.34186,7.51918 -1.64094,1.98393 -3.77329,3.48858 -5.84825,5.01278 -4.86347,3.57256 -9.59936,7.41143 -15.03836,10.02558 -5.29338,2.54416 -11.23193,3.9212 -15.87383,7.51918 -1.41033,1.09316 -2.67692,2.37603 -4.17732,3.34186 -0.84577,0.54444 -1.76685,0.98916 -2.5064,1.67093 -1.21611,1.1211 -1.81014,2.7607 -2.1781,4.37328 -0.36797,1.61257 -0.55754,3.2779 -1.16376,4.81683 -0.45669,1.15934 -1.13813,2.21547 -1.67093,3.34186 -1.34295,2.83915 -1.70539,6.04956 -1.67093,9.19011 0.0214,1.9506 0.18802,3.90662 0,5.84825 -0.44356,4.58065 -2.82631,8.79433 -3.34185,13.36744 -0.34345,3.04659 0.15687,6.12823 0,9.19011 -0.0572,1.11545 -0.20077,2.24313 0,3.34185 0.27027,1.47906 1.13793,2.77142 1.67092,4.17733 0.91172,2.40493 0.82595,5.08999 1.67093,7.51918 0.94379,2.71327 2.97471,4.91029 4.17733,7.51918 0.73803,1.60103 1.15102,3.32825 1.67093,5.01279 2.36987,7.67859 7.01653,14.63375 8.35464,22.55754 0.42515,2.51759 0.50436,5.07906 0.75294,7.62017 0.24857,2.54111 0.67827,5.10239 1.75346,7.4182 0.7374,1.58827 1.76062,3.02313 2.71409,4.4919 0.95346,1.46876 1.85261,3.00488 2.29869,4.69821 0.29296,1.11207 0.38787,2.28253 0.83547,3.34186 0.24312,0.57539 0.58436,1.10285 0.90288,1.64019 0.31852,0.53733 0.61882,1.0951 0.76805,1.70166 0.16694,0.67855 0.13781,1.3889 0.0807,2.08535 -0.0571,0.69645 -0.14118,1.39581 -0.0807,2.09198 0.0765,0.88039 0.38142,1.72409 0.72053,2.54014 0.33911,0.81605 0.71651,1.62046 0.9504,2.47265 0.52204,1.90211 0.30487,3.94851 0.83546,5.84825 0.60679,2.17256 2.12481,3.94904 3.34186,5.84825 2.62848,4.10176 3.90476,8.9002 5.84825,13.36743 3.64346,8.37474 9.59481,15.5078 14.2029,23.39301 1.25797,2.1526 2.41874,4.36769 3.34186,6.68372 2.18839,5.49048 3.03053,11.51363 5.84825,16.70929 2.5808,4.75879 6.7757,8.60445 11.69651,10.86104 1.70206,0.78053 3.50963,1.38982 5.01278,2.5064 1.26667,0.94091 2.25561,2.19739 3.34186,3.34186 2.91489,3.0711 6.5763,5.36612 10.45397,7.06668 3.87768,1.70057 7.98104,2.82848 12.10358,3.79436 5.93325,1.39011 12.00342,2.47712 17.54475,5.01278 2.26527,1.03657 4.41834,2.30553 6.68372,3.34186 6.17244,2.82367 13.04233,3.86206 19.21569,6.68372 2.49775,1.14165 4.88211,2.57508 7.51918,3.34186 4.31287,1.25404 8.91998,0.62738 13.36743,0 2.66252,-0.37559 5.33672,-0.74872 8.02557,-0.73415 2.68884,0.0146 5.41231,0.43108 7.84826,1.56961 2.26317,1.05777 4.26271,2.7258 6.68372,3.34186 1.37826,0.35072 2.84284,0.34378 4.17732,0.83546 0.88025,0.32432 1.66754,0.85277 2.46454,1.34756 0.79699,0.4948 1.62994,0.96718 2.54825,1.15884 1.36668,0.28524 2.78327,-0.0761 4.17732,0 1.14976,0.0628 2.26052,0.42157 3.35094,0.79153 1.09042,0.36996 2.18785,0.75684 3.33278,0.8794 1.58312,0.16947 3.18842,-0.17844 4.66404,-0.77637 1.47562,-0.59794 2.83828,-1.43966 4.17994,-2.29693 1.34167,-0.85728 2.67565,-1.73721 4.11336,-2.42131 1.4377,-0.6841 2.99537,-1.17059 4.58742,-1.18911 0.55716,-0.006 1.11549,0.0442 1.67093,0 1.32811,-0.10565 2.54685,-0.74115 3.7379,-1.33818 1.19105,-0.59703 2.44903,-1.18031 3.78128,-1.16821 0.56304,0.005 1.11903,0.1174 1.67943,0.17207 0.5604,0.0547 1.14421,0.0481 1.66243,-0.17207 0.65207,-0.27706 1.1186,-0.85252 1.59588,-1.37613 0.23864,-0.2618 0.48802,-0.51689 0.77612,-0.72301 0.28811,-0.20612 0.61844,-0.36252 0.96985,-0.40726 0.42122,-0.0536 0.84364,0.0541 1.26296,0.121 0.20966,0.0334 0.42215,0.0568 0.6341,0.0445 0.21195,-0.0123 0.42433,-0.0614 0.60934,-0.16553 0.17247,-0.0971 0.31578,-0.23844 0.44627,-0.38724 0.13048,-0.14881 0.25058,-0.30695 0.38919,-0.44822 0.43922,-0.44764 1.03645,-0.7 1.62639,-0.91276 0.58994,-0.21276 1.19933,-0.40195 1.71547,-0.75817 0.50883,-0.35118 0.90073,-0.84802 1.22758,-1.37281 0.32685,-0.52478 0.5959,-1.08339 0.91025,-1.61576 0.31435,-0.53237 0.68044,-1.04511 1.16309,-1.43148 0.48265,-0.38636 1.09528,-0.63803 1.71187,-0.59274 0.14026,0.0103 0.27911,0.0356 0.41939,0.0457 0.14028,0.01 0.28456,0.004 0.41607,-0.0457 0.15096,-0.0572 0.2767,-0.17007 0.36832,-0.30299 0.0916,-0.13293 0.15121,-0.28547 0.19581,-0.44063 0.0892,-0.3103 0.12304,-0.64051 0.27134,-0.92731 0.13983,-0.27042 0.37547,-0.48472 0.64443,-0.62735 0.26896,-0.14262 0.57026,-0.21676 0.87307,-0.24818 0.60561,-0.0629 1.21549,0.0404 1.82436,0.0401 0.76809,-4.4e-4 1.55169,-0.17543 2.18841,-0.60503 0.31836,-0.21481 0.59652,-0.49168 0.80002,-0.81737 0.20351,-0.3257 0.33108,-0.7006 0.35343,-1.084 0.0162,-0.27815 -0.0222,-0.55772 0,-0.83546 0.046,-0.57553 0.36769,-1.12285 0.84809,-1.44312 0.48041,-0.32027 1.10933,-0.40667 1.6583,-0.22781"
     id="path13"
     inkscape:path-effect="#path-effect13"
     inkscape:original-d="m 497.93691,360.92072 c -4.54829,8.92866 -9.21965,17.72203 -10.86104,27.57033 -1.22231,7.33385 -0.30732,-1.27709 -1.67093,4.17732 -0.27017,1.08069 0.35227,2.28507 0,3.34186 -0.12454,0.37363 -0.71092,0.46183 -0.83546,0.83546 -0.7501,2.2503 -0.88434,5.15943 -1.67093,7.51919 -0.75307,2.25921 -1.84266,4.36065 -2.50639,6.68371 -0.58336,2.04175 -0.64697,15.60386 0,17.54476 0.76677,2.30031 3.73849,6.89639 5.01278,9.19011 3.36379,6.05481 5.99034,11.89542 10.02558,17.54476 1.16725,1.63414 1.92184,3.59277 3.34186,5.01279 5.32238,5.32238 14.77306,8.96585 21.72208,10.86104 0.53735,0.14655 1.14253,-0.17614 1.67093,0 0.74726,0.24908 1.01553,1.234 1.67093,1.67093 2.43165,1.6211 11.27612,5.36045 14.2029,5.84825 5.79819,0.96636 11.75136,2.61768 17.54475,3.34186 3.79491,0.47436 7.91893,-0.6296 11.69651,0 4.29955,0.71659 8.90094,2.56422 13.36743,1.67093 6.40457,-1.28092 13.18231,-1.9961 19.21569,-5.01279 2.51825,-1.25913 5.39999,-3.2468 7.51918,-5.01279 1.92481,-1.60401 3.38681,-4.02821 5.84825,-5.01279 0.51714,-0.20685 1.14254,0.17613 1.67093,0 2.37657,-0.79219 3.78376,-3.77409 5.84825,-5.01279 0.75516,-0.45309 1.80187,-0.30707 2.5064,-0.83546 0.49817,-0.37363 0.46183,-1.17275 0.83546,-1.67093 1.24594,-1.66125 4.37725,-3.10616 5.01279,-5.01279 1.18634,-3.55903 -0.83547,-7.37446 -0.83547,-10.86104 0,-9.70155 0.13633,-19.761 2.5064,-29.24126 1.12328,-4.49313 1.94282,-1.90324 2.50639,-5.84825 0.15754,-1.10276 -0.30602,-2.27077 0,-3.34186 1.14739,-4.01585 1.94996,-1.67575 2.5064,-6.68372 1.02433,-9.21901 0,-19.11197 0,-28.40579 0,-2.57174 -0.62598,-5.85076 0,-8.35465 0.83084,-3.32337 0.0315,-6.80994 0.83546,-10.02558 0.0955,-0.38208 0.71092,-0.46183 0.83547,-0.83546 0.78277,-2.34831 1.7524,-11.07509 0.83546,-13.36743 -1.47076,-3.6769 -1.95741,-1.16988 -2.50639,-5.01279 -0.15754,-1.10276 0.27017,-2.26117 0,-3.34186 -2.04284,-8.17133 -1.49942,1.37209 -2.5064,-6.68372 -0.27634,-2.2107 0.24603,-4.46943 0,-6.68371 -1.54592,-13.91333 0.31535,3.19237 -2.50639,-6.68372 -0.30603,-1.07109 0.15754,-2.2391 0,-3.34186 -0.15006,-1.05043 -2.48321,-6.59099 -2.5064,-6.68372 -0.40526,-1.62104 0.5284,-3.4276 0,-5.01278 -0.31752,-0.95258 -1.27539,-1.58348 -1.67092,-2.5064 -1.36057,-3.17466 -2.36258,-7.001 -4.17733,-10.02557 -0.40526,-0.67544 -1.31866,-0.96641 -1.67093,-1.67093 -0.24908,-0.49818 0.13509,-1.13059 0,-1.67093 -0.58044,-2.32178 -3.01981,-5.49354 -4.17732,-7.51918 -0.95705,-1.67485 -2.82207,-4.493 -4.17732,-5.84826 -0.44033,-0.44032 -1.39244,-0.27848 -1.67093,-0.83546 -0.37363,-0.74726 0.31028,-1.73069 0,-2.50639 -0.29254,-0.73135 -1.234,-1.01554 -1.67093,-1.67093 -2.35327,-3.52991 -3.97868,-7.47974 -6.68372,-10.86104 -1.1982,-1.49775 -3.11403,-2.58238 -4.17732,-4.17733 -2.02053,-3.03079 0.56749,-2.50008 -5.01279,-5.84825 -8.30136,-4.98082 -20.76611,-7.3654 -30.07673,-10.02557 -4.09547,-1.17014 -7.51928,-4.17735 -11.6965,-5.01279 -6.02697,-1.2054 -12.27261,-1.74294 -18.38022,-2.5064 -1.93437,-0.24179 -3.91076,0.21528 -5.84825,0 -9.57785,-1.0642 -19.54679,-4.57927 -29.24127,-1.67093 -4.44733,1.33421 -8.20355,4.95236 -12.53197,6.68372 -3.16014,1.26406 -6.89845,1.1662 -10.02557,2.5064 -5.89159,2.52496 -13.12895,8.50389 -19.21569,10.02557 -5.44029,1.36007 -1.32233,-1.42749 -5.84825,0.83547 -7.31231,3.65615 -10.45231,10.59455 -15.03836,16.70929 -1.36642,1.82188 -3.2835,2.79389 -5.01279,4.17732 -1.08731,0.86985 -1.34781,2.56947 -2.50639,3.34186 -0.46344,0.30895 -1.14254,-0.17613 -1.67093,0 -1.1209,0.37363 -1.44961,1.978 -2.5064,2.50639 -1.63213,0.81607 -6.85356,-0.15011 -8.35464,0 -2.82594,0.2826 -5.52628,1.41381 -8.35465,1.67093 -6.56322,0.59666 -13.45259,0 -20.05115,0 -6.97429,0 -20.88427,-0.1685 -26.73487,3.34186 -2.26651,1.35991 -3.99742,3.28189 -6.68372,4.17732 -3.37701,1.12567 -6.8424,1.57343 -10.02557,3.34186 -3.93568,2.18649 -6.40474,5.84766 -9.19011,9.19011 -1.69451,2.03341 -4.49318,3.58979 -5.84825,5.84826 -1.15859,1.93097 -0.4684,3.20898 -1.67093,5.01278 -1.77333,2.65999 -4.42494,5.50803 -5.84826,8.35465 -7.63639,15.2728 0.72425,0.0181 -3.34185,10.86104 -0.13682,0.36485 -2.97662,6.19672 -3.34186,6.68372 -0.47261,0.63014 -1.26567,0.99549 -1.67093,1.67093 -2.03851,3.39751 0.66268,1.8437 -2.5064,5.01278 -0.71,0.71001 -1.79638,0.96092 -2.50639,1.67093 -0.44033,0.44033 -0.39514,1.2306 -0.83546,1.67093 -5.56877,5.56877 -15.60474,8.2201 -22.55755,11.69651 -0.8981,0.44905 -1.58348,1.27539 -2.50639,1.67093 -1.0554,0.45231 -2.29259,0.36912 -3.34186,0.83546 -1.4839,0.65951 -2.75175,1.72881 -4.17732,2.50639 -5.12931,2.79781 -11.27219,4.67333 -15.87383,8.35465 -0.61508,0.49206 -1.11396,1.11395 -1.67093,1.67093 -0.55698,0.83546 -0.90856,1.85293 -1.67093,2.50639 -1.23292,1.05679 -2.92985,1.46683 -4.17732,2.5064 -0.47839,0.39865 -0.33729,1.2973 -0.83547,1.67093 -0.70452,0.52839 -1.978,0.13094 -2.50639,0.83546 -0.50128,0.66837 0.20263,1.69588 0,2.5064 -0.28656,1.14624 -1.978,1.4496 -2.5064,2.50639 -0.24908,0.49817 0,1.11395 0,1.67093 -0.55697,0.55697 -1.26567,0.99549 -1.67093,1.67093 -3.39303,5.65506 -2.95704,11.44334 -4.17732,17.54475 -0.34542,1.72712 -1.38137,3.27544 -1.67093,5.01279 -0.65339,3.92033 1.10063,1.33071 -0.83546,5.84825 -0.39554,0.92292 -1.35341,1.55382 -1.67093,2.5064 -1.58114,4.74342 1.0619,0.15615 -0.83547,5.84825 -0.47424,1.42275 -1.37681,2.70674 -1.67093,4.17732 -0.54616,2.73081 0.30754,5.5868 0,8.35465 -0.1268,1.14121 -0.70866,2.20065 -0.83546,3.34186 -0.69604,6.26437 1.03575,13.00118 0,19.21569 -0.45091,2.70547 -2.11525,5.06595 -3.34186,7.51918 -1.56309,3.12618 -3.32904,2.91345 -5.84825,5.01278 -4.56017,3.80015 -9.48116,7.64392 -15.03836,10.02558 -5.20079,2.22891 -11.32097,4.10453 -15.87383,7.51918 -5.24681,3.93511 2.63774,-0.74718 -4.17732,3.34186 -0.72685,0.43611 -2.05049,0.75911 -2.5064,1.67093 -1.60264,3.20529 -2.1756,5.69132 -3.34186,9.19011 -0.39384,1.18153 -1.31305,2.14895 -1.67093,3.34186 -0.89468,2.98228 -1.32709,6.09556 -1.67093,9.19011 -0.21527,1.93749 0.27569,3.91843 0,5.84825 -0.63719,4.46038 -3.04257,8.87816 -3.34185,13.36744 -0.20378,3.05658 0,6.12674 0,9.19011 0,1.11395 -0.24165,2.25443 0,3.34185 0.32533,1.464 1.23999,2.74087 1.67092,4.17733 0.79401,2.64669 0.70667,4.94782 1.67093,7.51918 1.73125,4.61665 1.89838,2.50549 4.17733,7.51918 0.72883,1.60344 0.9935,3.38696 1.67093,5.01279 3.11195,7.46868 6.37107,14.62327 8.35464,22.55754 1.2039,4.81558 1.05687,10.3274 2.5064,15.03837 1.5189,4.93644 3.03483,4.7397 5.01278,9.19011 0.46635,1.04927 0.4323,2.26673 0.83547,3.34186 0.4373,1.16614 1.40075,2.12608 1.67093,3.34185 0.30206,1.35929 -0.24909,2.80735 0,4.17733 0.31507,1.7329 1.27488,3.29658 1.67093,5.01279 0.44279,1.91878 0.17315,3.99376 0.83546,5.84825 0.75516,2.11444 2.33776,3.84004 3.34186,5.84825 2.16439,4.32877 3.68698,9.04488 5.84825,13.36743 4.10705,8.21409 9.7633,15.40173 14.2029,23.39301 1.20968,2.17742 2.46726,4.35144 3.34186,6.68372 2.12107,5.65618 2.09515,11.54878 5.84825,16.70929 2.75157,3.78341 7.63927,8.4267 11.69651,10.86104 1.60193,0.96116 3.48233,1.43508 5.01278,2.5064 1.2906,0.90341 2.06781,2.41527 3.34186,3.34186 6.21514,4.5201 15.10115,8.82747 22.55755,10.86104 15.06547,4.10876 -11.43491,-6.32708 17.54475,5.01278 2.31961,0.90768 4.38047,2.39346 6.68372,3.34186 6.23371,2.56682 12.89549,4.31364 19.21569,6.68372 2.60088,0.97533 4.67559,2.82484 7.51918,3.34186 4.38394,0.79708 8.91162,0 13.36743,0 5.14257,0 10.9998,-0.9923 15.87383,0.83546 2.33228,0.87461 4.32067,2.55418 6.68372,3.34186 1.34714,0.44905 2.8428,0.35018 4.17732,0.83546 1.75568,0.63843 3.21046,2.01485 5.01279,2.5064 1.34338,0.36637 2.7934,-0.15377 4.17732,0 2.45652,0.27294 4.43673,1.10918 6.68372,1.67093 6.67481,1.6687 11.84551,-4.40402 17.54476,-6.68372 0.51714,-0.20686 1.12477,0.10923 1.67093,0 2.5632,-0.51264 5.04733,-1.88843 7.51918,-2.50639 1.08069,-0.27018 2.28507,0.35226 3.34186,0 1.03791,-0.34597 2.29618,-2.24498 3.34185,-2.5064 0.81052,-0.20263 1.69588,0.20263 2.5064,0 0.38208,-0.0955 0.50777,-0.617 0.83546,-0.83546 1.03627,-0.69085 2.30559,-0.98009 3.34186,-1.67093 1.928,-1.28533 3.08479,-3.72746 5.01279,-5.01279 0.23172,-0.15448 0.63854,0.19692 0.83546,0 0.44033,-0.44033 0.39514,-1.2306 0.83547,-1.67093 1.64599,-1.64599 1.92052,-0.12479 3.34186,-0.83546 0.46604,-0.23302 3.11581,-2.28035 3.34186,-2.5064 0.19692,-0.19692 -0.19693,-0.63854 0,-0.83546 1.28184,-1.28185 2.50639,-0.0732 2.50639,-1.67093" />
  <path
     style="fill:none;fill-opacity:0.501961;stroke:#ff9500;stroke-width:10.001;stroke-dasharray:none;stroke-opacity:1"
     d="m 277.37425,544.72293 c -2.72252,-0.20798 -5.32319,-1.67431 -6.91024,-3.89617 -1.58704,-2.22186 -2.13064,-5.15752 -1.4444,-7.80033 0.0724,-0.27889 0.1581,-0.55661 0.18254,-0.84371 0.0244,-0.2871 -0.0182,-0.59057 -0.18254,-0.82722 -0.0902,-0.12991 -0.21363,-0.23455 -0.34905,-0.31628 -0.13543,-0.0817 -0.28302,-0.14145 -0.43278,-0.19238 -0.29951,-0.10185 -0.61358,-0.17134 -0.8891,-0.32681 -0.28135,-0.15876 -0.51023,-0.40249 -0.67342,-0.6813 -0.16318,-0.27881 -0.26264,-0.59193 -0.31599,-0.91054 -0.10671,-0.63724 -0.0323,-1.28869 0.0126,-1.93324 0.0449,-0.64454 0.0573,-1.30965 -0.16447,-1.91649 -0.11091,-0.30342 -0.28099,-0.58802 -0.51415,-0.81163 -0.23316,-0.22361 -0.53133,-0.38392 -0.85101,-0.43051 -0.27595,-0.0402 -0.55662,0.004 -0.83546,0 -0.47777,-0.006 -0.95265,-0.15739 -1.34649,-0.42794 -0.39384,-0.27055 -0.7051,-0.65966 -0.88255,-1.1033 -0.17746,-0.44363 -0.22041,-0.94006 -0.1218,-1.40759 0.0986,-0.46753 0.3384,-0.90432 0.67991,-1.2385"
     id="path14"
     inkscape:path-effect="#path-effect14"
     inkscape:original-d="m 277.37425,544.72293 c 1.58347,-2.80759 -7.42802,-8.91665 -8.35464,-11.6965 -0.17613,-0.5284 0.30895,-1.2075 0,-1.67093 -0.34542,-0.51813 -1.2306,-0.39514 -1.67093,-0.83547 -0.90509,-0.90508 -1.62188,-5.35694 -2.5064,-6.68371 -0.15447,-0.23172 -0.63854,0.19692 -0.83546,0 -0.34699,-0.34699 -1.67093,-3.4795 -1.67093,-4.17733" />
  <path
     style="fill:none;fill-opacity:0.501961;stroke:#ff9500;stroke-width:10.001;stroke-dasharray:none;stroke-opacity:1"
     d="m 243.1202,541.38107 c 1.06596,-0.39877 2.2759,-0.39877 3.34186,0 0.95164,0.35601 1.76775,1.00887 2.46197,1.75077 0.69422,0.7419 1.27965,1.57695 1.89353,2.38659 0.61388,0.80964 1.26516,1.60318 2.06258,2.23285 0.79741,0.62967 1.75766,1.09051 2.77203,1.14898 0.55645,0.0321 1.11642,-0.0564 1.67093,0 0.82006,0.0834 1.5785,0.47943 2.24818,0.96005 0.66968,0.48061 1.27093,1.05014 1.92915,1.54634 2.41111,1.81761 5.43892,2.55719 8.35464,3.34186 2.80799,0.75568 5.59439,1.5916 8.35465,2.50639"
     id="path15"
     inkscape:path-effect="#path-effect15"
     inkscape:original-d="m 243.1202,541.38107 c 1.11396,0 2.29884,-0.39113 3.34186,0 3.75042,1.40641 5.84702,5.84764 9.19011,7.51919 0.49818,0.24908 1.13059,-0.13509 1.67093,0 1.25049,0.31262 3.27888,2.05717 4.17733,2.50639 2.67385,1.33693 5.80861,2.06884 8.35464,3.34186 2.23972,1.11986 6.7955,0.94724 8.35465,2.50639" />
  <path
     style="fill:none;fill-opacity:0.501961;stroke:#ff9500;stroke-width:10.001;stroke-dasharray:none;stroke-opacity:1"
     d="m 485.40494,598.19267 c 3.46822,1.20471 7.24937,1.49557 10.86104,0.83546 6.93154,-1.26689 12.7336,-5.81051 18.38023,-10.02557 1.89049,-1.4112 3.81228,-2.81479 5.38274,-4.57522 1.57046,-1.76043 2.78397,-3.9342 2.9719,-6.28582 0.0642,-0.8034 0.01,-1.62237 0.19874,-2.40581 0.0946,-0.39173 0.25187,-0.77273 0.49797,-1.09184 0.24609,-0.31911 0.58544,-0.57365 0.97422,-0.67968 0.27188,-0.0742 0.56359,-0.0742 0.83547,0"
     id="path16"
     inkscape:path-effect="#path-effect16"
     inkscape:original-d="m 485.40494,598.19267 c 2.72244,0.45374 8.16739,1.64356 10.86104,0.83546 6.18449,-1.85534 13.32184,-5.68981 18.38023,-10.02557 2.51475,-2.15551 6.56131,-7.87216 8.35464,-10.86104 0.77159,-1.28599 0.83905,-2.9295 1.67093,-4.17733 0.15448,-0.23171 0.55698,0 0.83547,0" />
  <path
     style="fill:none;fill-opacity:0.501961;stroke:#ff9500;stroke-width:10.001;stroke-dasharray:none;stroke-opacity:1"
     d="m 502.11424,615.73743 25.8994,-10.86104"
     id="path17"
     inkscape:path-effect="#path-effect17"
     inkscape:original-d="m 502.11424,615.73743 c 9.2671,-1.13615 19.1257,-4.08734 25.8994,-10.86104" />
  <path
     style="fill:none;fill-opacity:0.501961;stroke:#ff9500;stroke-width:10.001;stroke-dasharray:none;stroke-opacity:1"
     d="m 394.3393,670.87809 c 7.16861,0.87672 14.60664,-0.61088 20.88662,-4.17732 4.48804,-2.54878 8.34773,-6.09817 11.6965,-10.02558 3.6693,-4.30333 6.76816,-9.09246 9.19011,-14.2029"
     id="path18"
     inkscape:path-effect="#path-effect18"
     inkscape:original-d="m 394.3393,670.87809 c 6.31048,-3.67298 14.23183,-1.95906 20.88662,-4.17732 1.94652,-0.64885 10.29577,-8.15793 11.6965,-10.02558 2.69684,-3.59579 6.38093,-11.39371 9.19011,-14.2029" />
  <path
     style="fill:none;fill-opacity:0.501961;stroke:#ff9500;stroke-width:10.001;stroke-dasharray:none;stroke-opacity:1"
     d="m 414.39045,688.42285 c 6.55624,-3.89322 13.58687,-6.98669 20.88662,-9.19011 0.79845,-0.24101 1.60565,-0.4736 2.34809,-0.85357 0.74245,-0.37998 1.42569,-0.92293 1.82923,-1.65283 0.427,-0.77233 0.50967,-1.68622 0.83547,-2.50639 0.44848,-1.12902 1.37737,-2.05792 2.50639,-2.5064"
     id="path19"
     inkscape:path-effect="#path-effect19"
     inkscape:original-d="m 414.39045,688.42285 c 7.75783,-1.124 14.48536,-4.92261 20.88662,-9.19011 1.35112,-0.90075 3.02908,-1.35816 4.17732,-2.5064 0.15394,-0.15394 0.68152,-2.35245 0.83547,-2.50639 0.83371,-0.83372 2.50639,-0.57478 2.50639,-2.5064" />
  <path
     style="fill:none;fill-opacity:0.501961;stroke:#ff9500;stroke-width:10.001;stroke-dasharray:none;stroke-opacity:1"
     d="m 335.02131,733.53794 c -0.18549,-1.3115 0.0372,-2.67782 0.62957,-3.86254 0.59236,-1.18472 1.55179,-2.18267 2.71229,-2.82118 0.54575,-0.30027 1.13255,-0.52218 1.67093,-0.83546 1.48663,-0.86507 2.49461,-2.35743 3.30448,-3.87483 0.80988,-1.51741 1.48399,-3.12509 2.54377,-4.47982 1.25859,-1.60886 3.04361,-2.79888 5.01279,-3.34186 1.20186,-0.70878 2.32491,-1.55107 3.34186,-2.50639 0.2871,-0.2697 0.56576,-0.54837 0.83546,-0.83547"
     id="path20"
     inkscape:path-effect="#path-effect20"
     inkscape:original-d="m 335.02131,733.53794 c 1.11396,-2.22791 1.96017,-4.61119 3.34186,-6.68372 0.34542,-0.51813 1.2306,-0.39514 1.67093,-0.83546 2.2853,-2.2853 3.52684,-6.03324 5.84825,-8.35465 0.28584,-0.28584 4.929,-3.25807 5.01279,-3.34186 4.39113,-6.58669 -0.67069,-0.50012 3.34186,-2.50639 2.2279,-1.11396 -2.50639,-0.83547 0.83546,-0.83547" />
  <path
     style="fill:none;fill-opacity:0.501961;stroke:#ff9500;stroke-width:10.001;stroke-dasharray:none;stroke-opacity:1"
     d="m 360.92072,739.38619 c 1.23511,-3.19572 3.65484,-5.91792 6.68371,-7.51918 0.54903,-0.29026 1.12242,-0.54841 1.60483,-0.93953 0.2412,-0.19556 0.45807,-0.42424 0.61999,-0.6892 0.16191,-0.26496 0.26755,-0.56747 0.28158,-0.87767 0.0126,-0.27872 -0.0478,-0.56059 0,-0.83546 0.0452,-0.25953 0.18627,-0.49658 0.37213,-0.68326 0.18587,-0.18668 0.41492,-0.32583 0.65472,-0.43486 0.47962,-0.21807 1.0063,-0.32122 1.47954,-0.55281 0.47258,-0.23126 0.88216,-0.58973 1.174,-1.0275 0.29185,-0.43777 0.46521,-0.95372 0.49693,-1.47889"
     id="path21"
     inkscape:path-effect="#path-effect21"
     inkscape:original-d="m 360.92072,739.38619 c 6.34053,-5.07243 2.44467,-1.16062 6.68371,-7.51918 2.08013,-3.12019 -1.3765,3.31796 2.5064,-2.5064 0.15447,-0.23171 -0.19692,-0.63854 0,-0.83546 0.71001,-0.71001 1.90393,-0.86765 2.50639,-1.67093 0.89528,-1.1937 -0.69224,-2.50639 1.67093,-2.50639" />
  <path
     style="fill:none;fill-opacity:0.501961;stroke:#ff9500;stroke-width:10.001;stroke-dasharray:none;stroke-opacity:1"
     d="m 516.31714,320.81841 c 13.88351,-1.37668 27.62504,-4.18107 40.93776,-8.35464 2.45833,-0.77069 4.94397,-1.59549 7.51918,-1.67093 1.39272,-0.0408 2.79099,0.1393 4.17733,0 2.56115,-0.25735 4.94641,-1.58988 7.51918,-1.67093 0.83861,-0.0264 1.67474,0.0818 2.51158,0.14244 0.83683,0.0606 1.69011,0.0722 2.50121,-0.14244 0.60623,-0.16042 1.17885,-0.44673 1.67093,-0.83546"
     id="path22"
     inkscape:path-effect="#path-effect22"
     inkscape:original-d="m 516.31714,320.81841 c 13.45475,-3.60194 27.21333,-6.06724 40.93776,-8.35464 2.5326,-0.4221 4.96735,-1.38739 7.51918,-1.67093 1.38393,-0.15377 2.79564,0.17271 4.17733,0 2.50064,-0.31258 5.02175,-1.31415 7.51918,-1.67093 1.65413,-0.23631 3.4276,0.52839 5.01279,0 3.09715,-1.03239 -1.01839,-0.83546 1.67093,-0.83546" />
  <path
     style="fill:none;fill-opacity:0.501961;stroke:#ff9500;stroke-width:10.001;stroke-dasharray:none;stroke-opacity:1"
     d="m 533.86189,294.08355 28.4058,-0.83547"
     id="path23"
     inkscape:path-effect="#path-effect23"
     inkscape:original-d="m 533.86189,294.08355 c 9.49049,-0.52927 18.89247,-0.83547 28.4058,-0.83547" />
  <path
     style="fill:none;fill-opacity:0.501961;stroke:#ff9500;stroke-width:10.001;stroke-dasharray:none;stroke-opacity:1"
     d="m 480.39216,264.00682 c 1.43961,1.26367 2.35923,3.1029 2.50639,5.01279 0.0642,0.8333 -0.0125,1.67071 0,2.50639 0.0213,1.42777 0.30603,2.85117 0.83547,4.17732 0.37487,0.50139 0.65928,1.0702 0.83546,1.67093 0.31509,1.07437 0.28001,2.21853 0.18157,3.33382 -0.0984,1.11529 -0.25764,2.23286 -0.18157,3.3499 0.0966,1.41827 0.5683,2.78109 0.83546,4.17732 0.57747,3.01793 0.19136,6.12339 0,9.19011 -0.53842,8.6287 0.48073,17.35471 -0.83546,25.89941 -0.21626,1.40393 -0.49511,2.79821 -0.83546,4.17732 -0.34565,0.81104 -0.62536,1.65018 -0.83547,2.5064 -0.66612,2.71457 -0.62375,5.55121 -0.43287,8.33978 0.19087,2.78858 0.5264,5.57598 0.43287,8.36951 -0.066,1.97197 -0.3467,3.93667 -0.83546,5.84825 -0.61659,1.08279 -1.17465,2.19891 -1.67093,3.34186 -3.76469,8.6702 -3.76469,18.90013 0,27.57033 v 20.05115"
     id="path24"
     inkscape:path-effect="#path-effect24"
     inkscape:original-d="m 480.39216,264.00682 c 0,1.12853 2.07396,3.71549 2.50639,5.01279 0.27849,0.83546 -0.13924,1.67093 0,2.50639 0.23345,1.4007 0.55698,2.78488 0.83547,4.17732 0.27848,0.55698 0.71333,1.06031 0.83546,1.67093 0.42239,2.11195 -0.26734,4.54496 0,6.68372 0.17613,1.40905 0.65933,2.76827 0.83546,4.17732 0.37157,2.97251 0,6.18088 0,9.19011 0,8.72851 -0.0556,17.32091 -0.83546,25.89941 -0.12856,1.41418 -0.55698,2.78488 -0.83546,4.17732 -0.27849,0.83547 -0.71093,1.63459 -0.83547,2.5064 -0.77463,5.42238 0.38964,11.2544 0,16.70929 -0.1403,1.9642 -0.55698,3.89883 -0.83546,5.84825 -0.55698,1.11395 -1.46618,2.11337 -1.67093,3.34186 -1.49026,8.94152 1.25509,18.58975 0,27.57033 3.19087,6.94167 0,13.00393 0,20.05115" />
  <path
     style="fill:none;fill-opacity:0.501961;stroke:#ff9500;stroke-width:10.001;stroke-dasharray:none;stroke-opacity:1"
     d="m 565.60955,489.58227 c -2.30806,5.58964 -1.99329,12.19972 0.83546,17.54475 0.35388,0.66867 0.74477,1.31844 1.06309,2.00475 0.31831,0.68631 0.56468,1.41728 0.60784,2.17258 0.0478,0.83589 -0.15364,1.68336 0,2.50639 0.17354,0.92965 0.7754,1.71181 1.33571,2.47366 0.28016,0.38092 0.55535,0.76801 0.7713,1.18868 0.21594,0.42066 0.37199,0.87839 0.39939,1.35045 0.0324,0.55752 -0.11412,1.12426 0,1.67093 0.0722,0.34583 0.24631,0.6641 0.46262,0.94342 0.2163,0.27932 0.47465,0.52294 0.73548,0.76122 0.26083,0.23827 0.52606,0.47324 0.75919,0.73868 0.23314,0.26544 0.43484,0.56425 0.5491,0.89854 0.13613,0.39826 0.14275,0.82927 0.11084,1.24894 -0.0319,0.41967 -0.10085,0.83668 -0.11084,1.25745 -0.033,1.38818 0.57444,2.71096 1.28689,3.90282 0.71246,1.19187 1.54855,2.32343 2.05497,3.61636 0.30662,0.78282 0.4871,1.61287 0.8305,2.38026 0.1717,0.38369 0.38498,0.75169 0.66231,1.06758 0.27734,0.3159 0.62115,0.57882 1.01358,0.72949 0.29953,0.115 0.62077,0.16297 0.92414,0.2674 0.15169,0.0522 0.29947,0.11901 0.43029,0.21186 0.13082,0.0929 0.24448,0.21285 0.3165,0.3562 0.0634,0.12611 0.0931,0.26723 0.10081,0.40816 0.008,0.14092 -0.006,0.28219 -0.0261,0.4219 -0.04,0.27943 -0.10514,0.56024 -0.0748,0.84087 0.0327,0.3022 0.17627,0.58507 0.37002,0.81927 0.19375,0.2342 0.43624,0.42345 0.68858,0.59291 0.50468,0.33892 1.06993,0.618 1.4478,1.09421 0.27609,0.34794 0.43056,0.77683 0.53836,1.20772 0.1078,0.43088 0.17364,0.87202 0.2971,1.29868 0.23924,0.82677 0.69009,1.57984 1.22279,2.25587 0.5327,0.67603 1.14819,1.28149 1.758,1.88887 0.60982,0.60738 1.21797,1.22124 1.73318,1.91069 0.51521,0.68945 0.93769,1.46127 1.13428,2.29921 0.10226,0.43587 0.14245,0.88443 0.24406,1.32045 0.10161,0.43602 0.2732,0.87102 0.59141,1.18595 0.22291,0.22061 0.50597,0.37061 0.7954,0.4914 0.28942,0.12078 0.58944,0.21557 0.87553,0.34406 0.88276,0.39645 1.59952,1.10147 2.14826,1.89854 0.54873,0.79707 0.94314,1.68846 1.32066,2.57948 0.37753,0.89101 0.74352,1.79174 1.24288,2.62064 0.49936,0.82889 1.14368,1.59099 1.97191,2.09145 0.53322,0.3222 1.12883,0.52844 1.67093,0.83547 1.22526,0.69394 2.10883,1.86136 2.83272,3.06917 0.72388,1.2078 1.32815,2.49336 2.18007,3.61454 1.26974,1.67106 3.02834,2.8978 4.81142,4.00473 1.78308,1.10694 3.63456,2.13261 5.21416,3.51446 1.66545,1.45696 2.97905,3.26667 4.50079,4.87314 1.52175,1.60647 3.35281,3.05843 5.52478,3.4815 0.99692,0.19419 2.03596,0.16487 3.00859,0.45733 0.48632,0.14622 0.95485,0.37615 1.32536,0.72344 0.37051,0.34728 0.63689,0.81954 0.67884,1.32563 0.023,0.27771 -0.0206,0.55756 0,0.83546 0.0279,0.37742 0.17764,0.74488 0.4214,1.03438 0.24377,0.28949 0.58037,0.49957 0.94753,0.59136 0.36715,0.0918 0.76302,0.0648 1.11434,-0.0759 0.35132,-0.14073 0.65633,-0.39451 0.85859,-0.71438 l 1.67093,0.83546 c -0.10429,0.26535 -0.10429,0.57011 0,0.83546 0.0873,0.22215 0.2444,0.41388 0.43562,0.55674 0.19121,0.14285 0.41562,0.23807 0.64793,0.29284 0.46464,0.10955 0.95117,0.0594 1.42284,-0.0141 0.27863,-0.0435 0.55681,-0.095 0.83842,-0.10982 0.28161,-0.0148 0.56941,0.008 0.83251,0.10982 0.37832,0.14596 0.6895,0.45714 0.83546,0.83546"
     id="path25"
     inkscape:path-effect="#path-effect25"
     inkscape:original-d="m 565.60955,489.58227 c 0.18692,5.85868 -0.59143,11.83718 0.83546,17.54475 0.36373,1.45493 1.37682,2.70675 1.67093,4.17733 0.16385,0.81924 -0.16385,1.68715 0,2.50639 0.35373,1.76862 2.06837,3.2607 2.5064,5.01279 0.13508,0.54035 -0.13509,1.13058 0,1.67093 1.27318,5.09275 0.28703,-2.20653 2.50639,3.34186 0.31028,0.77571 -0.16385,1.68715 0,2.50639 0.3041,1.52053 2.50141,6.25852 3.34186,7.51918 0.74647,1.11971 1.59591,3.26684 2.50639,4.17733 0.44033,0.44032 1.32551,0.31733 1.67093,0.83546 0.30896,0.46343 -0.17613,1.14254 0,1.67093 0.37363,1.12089 1.89851,1.49324 2.5064,2.50639 0.45309,0.75516 0.38237,1.75124 0.83546,2.5064 1.62056,2.70093 4.23009,5.6577 5.84825,8.35464 0.4531,0.75516 0.30707,1.80187 0.83547,2.5064 0.37363,0.49817 1.2306,0.39513 1.67093,0.83546 2.33922,2.33923 4.22374,6.73014 6.68371,9.19011 0.44033,0.44033 1.2306,0.39514 1.67093,0.83547 1.88951,1.88951 3.12328,4.7942 5.01279,6.68371 2.90876,2.90876 6.79244,5.09433 10.02558,7.51919 3.3172,2.4879 6.63759,6.09599 10.02557,8.35464 1.57723,1.05149 3.50793,1.50316 5.01279,2.5064 0.23171,0.15447 -0.19692,0.63854 0,0.83546 0.74609,0.74609 2.34113,0.50189 3.34186,0.83547 0.55697,0.27848 1.11395,0.55697 1.67093,0.83546 0,0.27849 -0.24909,0.71092 0,0.83546 1.59347,0.79674 0.91292,0.0387 2.50639,0.83547 0.49818,0.24909 1.27709,-0.39384 1.67093,0 1.11395,1.11395 -1.39244,0.83546 0.83546,0.83546" />
  <path
     style="fill:none;fill-opacity:0.501961;stroke:#ff9500;stroke-width:10.001;stroke-dasharray:none;stroke-opacity:1"
     d="m 565.60955,484.56948 1.67093,10.86104"
     id="path26"
     inkscape:path-effect="#path-effect26"
     inkscape:original-d="m 565.60955,484.56948 c 0.91164,3.66365 1.67093,7.12211 1.67093,10.86104" />
  <path
     style="fill:none;fill-opacity:0.501961;stroke:#ff9500;stroke-width:10.001;stroke-dasharray:none;stroke-opacity:1"
     d="m 512.13981,473.70844 c 0.89483,1.08394 2.05072,1.95086 3.34186,2.50639 0.9825,0.42274 2.03154,0.66438 3.04839,0.9961 1.01684,0.33172 2.02778,0.77009 2.79986,1.5103 0.7281,0.69805 1.19588,1.6166 1.67093,2.50639 0.82433,1.544 1.72349,3.07296 2.95113,4.32051 1.22764,1.24754 2.82513,2.20294 4.56805,2.36321 0.55507,0.051 1.11394,0.0215 1.67093,0 6.43657,-0.24857 12.86731,0.58036 19.21569,1.67093 3.0612,0.52588 6.12239,1.11425 9.22421,1.27607 3.10182,0.16182 6.27376,-0.11846 9.15601,-1.27607 0.53971,-0.21677 1.06838,-0.46381 1.62289,-0.63929 0.55451,-0.17548 1.14317,-0.27822 1.71897,-0.19618 0.47444,0.0676 0.92208,0.25746 1.35641,0.45998 0.43433,0.20253 0.86482,0.42072 1.32599,0.55105 0.46117,0.13032 0.96319,0.1679 1.4148,0.008 0.2258,-0.0802 0.43553,-0.2097 0.59894,-0.38495 0.16341,-0.17525 0.27911,-0.39698 0.31665,-0.63363 0.0437,-0.27548 -0.0178,-0.5571 0,-0.83546 0.0202,-0.31626 0.14452,-0.62235 0.33577,-0.87503 0.19125,-0.25269 0.44753,-0.45296 0.7308,-0.59504 0.56655,-0.28414 1.22399,-0.3338 1.85611,-0.28759 0.63212,0.0462 1.2543,0.18239 1.88452,0.24978 0.63021,0.0674 1.28428,0.0627 1.87651,-0.16305 0.65501,-0.24971 1.18014,-0.74696 1.68171,-1.23667 0.50158,-0.48972 1.01503,-0.99545 1.66015,-1.26972 0.53184,-0.22611 1.11804,-0.27949 1.69127,-0.35292 0.57323,-0.0734 1.16084,-0.17575 1.65059,-0.48255 0.33485,-0.20976 0.6067,-0.50485 0.86354,-0.80511 0.25684,-0.30026 0.50506,-0.61142 0.80739,-0.86582 0.55766,-0.46926 1.2735,-0.72016 1.99513,-0.82232 0.72163,-0.10215 1.45518,-0.0645 2.18219,-0.0131 1.11414,0.0788 2.24103,0.18888 3.34186,0 1.00393,-0.17226 1.94699,-0.58665 2.89525,-0.95861 0.94826,-0.37196 1.93441,-0.70855 2.953,-0.71232 0.41966,-0.002 0.83721,0.0536 1.25594,0.0816 0.41873,0.0279 0.84532,0.0279 1.25046,-0.0816 0.39801,-0.10752 0.76688,-0.321 1.05841,-0.61252 0.29152,-0.29153 0.505,-0.6604 0.61252,-1.05841 1.16022,0.005 2.32057,-0.28492 3.34186,-0.83547 0.83496,-0.4501 1.56845,-1.06474 2.36574,-1.57862 0.7973,-0.51389 1.69852,-0.93615 2.64704,-0.92777 0.28004,0.002 0.55825,0.0426 0.83763,0.062 0.27938,0.0194 0.56473,0.0174 0.8333,-0.062 0.34649,-0.1024 0.64521,-0.32841 0.89452,-0.58992 0.24931,-0.26151 0.45563,-0.56016 0.67546,-0.84689 0.21983,-0.28673 0.45763,-0.56586 0.75384,-0.77273 0.29622,-0.20688 0.65899,-0.33719 1.01804,-0.29685 0.298,0.0335 0.57151,0.17972 0.86464,0.24298 0.14657,0.0316 0.30027,0.042 0.44592,0.006 0.14564,-0.0356 0.28283,-0.12105 0.36037,-0.24939 0.0738,-0.12217 0.0884,-0.27201 0.0755,-0.41418 -0.0128,-0.14216 -0.051,-0.28067 -0.0755,-0.42129 -0.10352,-0.59303 0.0423,-1.2153 0.34665,-1.73467 0.30439,-0.51937 0.75945,-0.94025 1.26983,-1.25949 1.02074,-0.63849 2.23253,-0.8746 3.39631,-1.18316 0.3054,-0.081 0.61056,-0.16812 0.89876,-0.2976 0.2882,-0.12948 0.56049,-0.30332 0.77217,-0.53787 0.39069,-0.43289 0.54135,-1.03029 0.61056,-1.6093 0.0692,-0.579 0.0714,-1.16999 0.2249,-1.73255 0.26728,-0.97947 0.96417,-1.77751 1.67093,-2.5064 0.83878,-0.86504 1.72345,-1.68866 2.4936,-2.61533 0.77014,-0.92668 1.42977,-1.97199 1.73761,-3.13693 0.30784,-1.16494 0.23426,-2.46334 -0.38026,-3.49978 -0.30726,-0.51823 -0.74553,-0.96188 -1.27297,-1.25304 -0.52743,-0.29116 -1.14412,-0.42594 -1.74251,-0.35596 -0.14005,0.0164 -0.27889,0.0437 -0.41957,0.0532 -0.14069,0.01 -0.28551,4.7e-4 -0.4159,-0.0532 -0.14869,-0.0612 -0.27021,-0.17771 -0.35755,-0.31271 -0.0874,-0.135 -0.14278,-0.28823 -0.18528,-0.44331 -0.085,-0.31015 -0.12413,-0.641 -0.29263,-0.91491 -0.16781,-0.27281 -0.44883,-0.45976 -0.74578,-0.57979 -0.29695,-0.12002 -0.61377,-0.18065 -0.92515,-0.25567 -2.09301,-0.50424 -4.01194,-1.70502 -5.38054,-3.36692 -1.36861,-1.66189 -2.17912,-3.77547 -2.27264,-5.92634 -0.0935,-2.15086 0.5305,-4.32682 1.7497,-6.10122 1.21919,-1.77441 3.02666,-3.13721 5.06801,-3.82121"
     id="path27"
     inkscape:path-effect="#path-effect27"
     inkscape:original-d="m 512.13981,473.70844 c 1.11396,0.83546 2.11944,1.83962 3.34186,2.50639 1.86193,1.0156 3.95126,1.5579 5.84825,2.5064 1.1864,0.59319 1.14747,1.80845 1.67093,2.50639 1.65363,2.20483 4.88821,5.63133 7.51918,6.68372 0.51714,0.20685 1.12477,-0.10923 1.67093,0 6.34212,1.26842 12.65031,1.67093 19.21569,1.67093 5.99908,0 12.47576,0.73806 18.38022,0 1.13937,-0.14242 2.19932,-0.72121 3.34186,-0.83547 1.66264,-0.16626 3.36459,0.2747 5.01279,0 0.2747,-0.0458 -0.24909,-0.71092 0,-0.83546 0.7933,-0.39665 5.65189,-1.32699 6.68371,-1.67093 1.32099,-0.44033 2.04901,-1.98926 3.34186,-2.50639 3.52917,-1.41167 -0.2086,1.82738 3.34186,-0.83547 0.63015,-0.47261 0.96641,-1.31867 1.67093,-1.67093 0.99046,-0.49523 2.12168,0.19236 4.17732,-0.83546 0.99635,-0.49818 2.24307,0.18313 3.34186,0 2.0691,-0.34485 3.89331,-1.1822 5.84825,-1.67093 0.81052,-0.20263 1.75914,0.37363 2.5064,0 0.70452,-0.35227 0.9664,-1.31867 1.67093,-1.67093 0.43479,-1.95388 2.36438,-0.50964 3.34186,-0.83547 1.8229,-0.60763 3.46482,-1.73241 5.01278,-2.50639 0.49818,-0.24909 1.17276,0.24909 1.67093,0 1.24602,-0.62301 2.0674,-1.86916 3.34186,-2.50639 0.49818,-0.24909 1.27709,0.39384 1.67093,0 0.19692,-0.19692 -0.19692,-0.63855 0,-0.83547 0.43136,-0.43136 4.58733,-3.89368 5.01279,-4.17732 1.29645,-0.8643 0.54358,1.41923 1.67093,-0.83547 0.54944,-1.09887 0.43236,-2.13254 0.83546,-3.34185 0.28847,-0.86539 1.25651,-1.67756 1.67093,-2.5064 0.28192,-0.56383 1.35346,-10.34304 0.83547,-10.86104 -0.19692,-0.19692 -0.63855,0.19692 -0.83547,0 -0.41773,-0.41773 -0.41773,-1.2532 -0.83546,-1.67093 -0.41774,-0.41773 -1.2532,-0.41773 -1.67093,-0.83546 -0.10426,-0.10426 -0.83547,-17.78309 -0.83547,-19.21569" />
  <path
     style="fill:none;fill-opacity:0.501961;stroke:#ff9500;stroke-width:10.001;stroke-dasharray:none;stroke-opacity:1"
     d="m 633.28218,443.63171 c -0.1024,-5.01209 -0.1024,-10.02627 0,-15.03836 0.12529,-6.13242 0.4039,-12.26172 0.83547,-18.38022"
     id="path28"
     inkscape:path-effect="#path-effect28"
     inkscape:original-d="m 633.28218,443.63171 c 1.05479,-4.74867 -1.17942,-10.32067 0,-15.03836 0.86757,-3.47029 3.5274,-15.68829 0.83547,-18.38022" />
</svg>
