<?xml version="1.0" encoding="UTF-8" standalone="no"?>
<svg
   width="50px"
   height="50px"
   viewBox="0 0 50 50"
   version="1.1"
   id="svg1"
   sodipodi:docname="number-2.svg"
   inkscape:version="1.3.2 (091e20e, 2023-11-25, custom)"
   xmlns:inkscape="http://www.inkscape.org/namespaces/inkscape"
   xmlns:sodipodi="http://sodipodi.sourceforge.net/DTD/sodipodi-0.dtd"
   xmlns="http://www.w3.org/2000/svg"
   xmlns:svg="http://www.w3.org/2000/svg">
  <sodipodi:namedview
     id="namedview1"
     pagecolor="#ffffff"
     bordercolor="#000000"
     borderopacity="0.25"
     inkscape:showpageshadow="2"
     inkscape:pageopacity="0.0"
     inkscape:pagecheckerboard="0"
     inkscape:deskcolor="#d1d1d1"
     inkscape:zoom="23.46"
     inkscape:cx="24.978687"
     inkscape:cy="25"
     inkscape:window-width="2560"
     inkscape:window-height="1369"
     inkscape:window-x="-8"
     inkscape:window-y="-8"
     inkscape:window-maximized="1"
     inkscape:current-layer="svg1" />
  <!-- Generator: Sketch 49 (51002) - http://www.bohemiancoding.com/sketch -->
  <title
     id="title1">Number</title>
  <desc
     id="desc1">Created with Sketch.</desc>
  <defs
     id="defs1">
    <inkscape:path-effect
       effect="spiro"
       id="path-effect2"
       is_visible="true"
       lpeversion="1" />
    <inkscape:path-effect
       effect="spiro"
       id="path-effect1"
       is_visible="true"
       lpeversion="1" />
    <circle
       id="path-1"
       cx="25"
       cy="25"
       r="25" />
  </defs>
  <path
     style="fill:none;stroke:#dadada;stroke-width:1.3;stroke-dasharray:none;stroke-opacity:1"
     d="M 15.984655,46.504689 C 15.354602,45.870094 14.7294,45.230682 14.109122,44.58653 13.250161,43.694508 12.399196,42.791722 11.636829,41.815857 10.562393,40.44053 9.6540778,38.885503 9.3350384,37.16965 9.0383311,35.573903 9.2649081,33.933342 9.2497869,32.310315 9.2351324,30.737376 8.9906502,29.16666 8.5251492,27.664109 8.0724628,26.202921 7.4150676,24.814315 6.7348679,23.44416 5.8673445,21.696672 4.9590405,19.969782 4.0494459,18.243819 3.3916563,16.995658 2.733124,15.747849 2.0886616,14.492754 1.8761122,14.078813 1.6638483,13.660972 1.5345269,13.213981 1.394632,12.730444 1.3551045,12.224318 1.3213981,11.72208 1.2794372,11.096848 1.2453472,10.471039 1.1935209,9.8465473 c -0.011786,-0.1420117 -0.024418,-0.2858651 0,-0.4262574 C 1.2166626,9.2872337 1.2721893,9.1624277 1.3213981,9.0366581 1.4166887,8.7931112 1.4904947,8.5393554 1.6197783,8.3120205 1.8209742,7.9582334 2.1460021,7.686983 2.344416,7.3316283 2.4373938,7.1651073 2.5008567,6.982941 2.6001705,6.8201194 2.7055025,6.6474311 2.8481499,6.5012846 2.9838022,6.3512361 3.2604986,6.0451751 3.5148819,5.7147722 3.8363171,5.4560955 4.4620565,4.9525283 5.2768136,4.7680492 6.0528559,4.5609548 7.1221767,4.2755962 8.1728796,3.9210535 9.2497869,3.6658142 10.539146,3.3602213 11.857553,3.198935 13.171355,3.026428 c 1.275967,-0.1675391 2.551884,-0.3463183 3.836318,-0.4262575 1.149141,-0.071519 2.301522,-0.063694 3.452685,-0.085252 1.592126,-0.029815 3.182616,-0.1158659 4.774084,-0.170503 0.767689,-0.026356 1.538695,-0.045278 2.30179,0.042626 2.46615,0.2840862 4.650967,1.6460644 6.905371,2.685422 1.327241,0.611904 2.728538,1.13534 3.836317,2.0886615 0.293447,0.252532 0.568415,0.5409116 0.724638,0.8951407 0.06713,0.1522083 0.110956,0.3135528 0.170503,0.4688832 0.161718,0.4218442 0.435435,0.7903965 0.639386,1.1935209 0.170791,0.3375812 0.292075,0.6985632 0.383631,1.0656442 0.188889,0.757327 0.252565,1.540835 0.426258,2.30179 0.06213,0.272182 0.138213,0.540946 0.213129,0.809889 0.264259,0.948669 0.515538,1.904614 0.89514,2.813299 0.144611,0.346167 0.307414,0.684386 0.468883,1.023018 0.290021,0.60823 0.576016,1.218412 0.852515,1.832907 0.122599,0.272465 0.243456,0.546037 0.383632,0.80989 0.21841,0.411114 0.48231,0.796034 0.724638,1.19352 0.509644,0.83596 0.923036,1.726046 1.364024,2.600171 0.254925,0.505311 0.519516,1.006093 0.809889,1.491901 0.281014,0.470151 0.588666,0.931477 0.767263,1.449275 0.220753,0.640019 0.232252,1.329627 0.29838,2.00341 0.07677,0.782172 0.228858,1.580869 0.04263,2.344417 -0.128743,0.527854 -0.412607,1.004481 -0.724637,1.449275 -0.158473,0.225901 -0.325408,0.446301 -0.468884,0.682012 -0.165319,0.271597 -0.298239,0.561471 -0.426257,0.852515 -0.258617,0.587957 -0.499578,1.185264 -0.809889,1.747655 -0.568796,1.030856 -1.357932,1.921928 -2.173913,2.770674 -0.689473,0.717158 -1.402994,1.410961 -2.131288,2.088661 -0.287862,0.267864 -0.578737,0.533801 -0.89514,0.767264 -0.625348,0.461424 -1.338211,0.787401 -2.046036,1.108269 -1.38266,0.62678 -2.772146,1.248445 -4.219949,1.70503 -0.641608,0.20234 -1.295018,0.372148 -1.960784,0.468883 -0.298316,0.04335 -0.598916,0.072 -0.895141,0.127877 -0.301452,0.05686 -0.596823,0.141624 -0.895141,0.213129 -0.87024,0.208591 -1.763247,0.303891 -2.642796,0.468883 -0.652381,0.122379 -1.299525,0.283437 -1.960784,0.341006 -0.653029,0.05685 -1.31555,0.01233 -1.960784,0.127878 -0.615639,0.110253 -1.207753,0.364972 -1.832908,0.383631 -0.127828,0.0038 -0.255768,-0.0024 -0.383631,0 -0.313927,0.0058 -0.624587,0.06285 -0.937767,0.08525 -0.538681,0.03854 -1.07972,0 -1.619778,0 h -1.108269 -0.298381 c -0.01766,-0.02839 -0.0433,-0.05176 -0.07321,-0.06671 -0.02991,-0.01495 -0.06398,-0.02145 -0.09729,-0.01854 -0.04121,0.0036 -0.08053,0.02114 -0.121877,0.02221 -0.02068,5.39e-4 -0.04194,-0.0033 -0.05945,-0.01433 -0.0088,-0.0055 -0.01646,-0.01276 -0.0221,-0.02142 -0.0056,-0.0087 -0.0092,-0.01877 -0.0097,-0.02909 -3.66e-4,-0.0071 6.79e-4,-0.01425 0.0013,-0.02137 6.12e-4,-0.0071 7.75e-4,-0.01442 -0.0013,-0.02126 -0.0017,-0.0057 -0.0049,-0.01087 -0.0091,-0.01514 -0.0041,-0.0043 -0.0091,-0.0076 -0.01452,-0.01016 -0.01076,-0.005 -0.02282,-0.0066 -0.03469,-0.007 -0.01187,-4.3e-4 -0.02378,2.18e-4 -0.03563,-6.65e-4 -0.01185,-8.83e-4 -0.02384,-0.0034 -0.03396,-0.0096 -0.0086,-0.0053 -0.0154,-0.01297 -0.02187,-0.02071 -0.0065,-0.0077 -0.0128,-0.01573 -0.02076,-0.02192 -0.0087,-0.0068 -0.01924,-0.01118 -0.03008,-0.01343 -0.01085,-0.0023 -0.02205,-0.0024 -0.03308,-0.0013 -0.02205,0.0022 -0.04325,0.0093 -0.06472,0.01478 -0.1317,0.03355 -0.278533,9.16e-4 -0.383631,-0.08525 z"
     id="path1"
     inkscape:path-effect="#path-effect1"
     inkscape:original-d="M 15.984655,46.504689 C 15.261808,45.958978 14.718954,45.245149 14.109122,44.58653 12.922632,43.305121 12.708168,43.261315 11.636829,41.815857 10.554759,40.355921 9.5950543,38.989762 9.3350384,37.16965 9.1063219,35.568635 9.3093528,33.918595 9.2497869,32.310315 9.1912525,30.729887 8.9860375,29.178457 8.5251492,27.664109 8.0754343,26.186474 7.4137083,24.826085 6.7348679,23.44416 5.8753781,21.694485 4.9923688,19.950061 4.0494459,18.243819 3.3649352,17.005181 2.6933227,15.773213 2.0886616,14.492754 1.9291899,14.155049 1.64644,13.597683 1.5345269,13.213981 1.3934223,12.730194 1.3972018,12.214804 1.3213981,11.72208 1.1042075,10.310341 1.1935209,12.163064 1.1935209,9.8465473 c 0,-0.1420858 -0.02216,-0.2859103 0,-0.4262574 C 1.2145438,9.2871449 1.2765358,9.163768 1.3213981,9.0366581 1.3777806,8.8769078 1.5390241,8.4466108 1.6197783,8.3120205 1.8578345,7.9152601 2.0966107,7.7281169 2.344416,7.3316283 2.4454487,7.169976 2.4960365,6.9797915 2.6001705,6.8201194 2.7104849,6.6509707 2.8603254,6.5110297 2.9838022,6.3512361 3.3458381,5.8827191 3.3021117,5.7995133 3.8363171,5.4560955 4.3947113,5.0971278 5.5845457,4.7194598 6.0528559,4.5609548 7.103071,4.2054974 8.1722126,3.9223795 9.2497869,3.6658142 10.550487,3.3561237 11.840521,3.1896435 13.171355,3.026428 c 0.353664,-0.043374 3.015853,-0.3650288 3.836318,-0.4262575 1.852336,-0.1382341 1.465187,-0.062407 3.452685,-0.085252 1.593292,-0.018314 3.182126,-0.1146448 4.774084,-0.170503 0.898627,-0.031531 1.406043,-0.096369 2.30179,0.042626 2.47601,0.3842084 4.69638,1.5809266 6.905371,2.685422 1.281552,0.6407762 2.678667,1.2286928 3.836317,2.0886615 0.31764,0.2359609 0.556378,0.5417948 0.724638,0.8951407 0.0715,0.1501522 0.10121,0.3176992 0.170503,0.4688832 0.129623,0.2828153 0.525813,0.9262915 0.639386,1.1935209 0.147668,0.3474542 0.272002,0.7049932 0.383631,1.0656442 0.232324,0.750582 0.265385,1.537644 0.426258,2.30179 0.05751,0.273166 0.143794,0.539482 0.213129,0.809889 0.246013,0.959453 0.512975,1.896103 0.89514,2.813299 0.144276,0.346263 0.315858,0.680533 0.468883,1.023018 0.9239,2.067776 -0.06385,-0.04805 0.852515,1.832907 0.13083,0.268545 0.239034,0.548501 0.383632,0.80989 0.225295,0.407263 0.489039,0.79213 0.724638,1.19352 0.496514,0.845913 0.914729,1.729663 1.364024,2.600171 0.336499,0.651968 0.447896,0.840314 0.809889,1.491901 0.123703,0.222665 0.665492,1.171718 0.767263,1.449275 0.223543,0.609662 0.225495,1.365667 0.29838,2.00341 0.06607,0.578104 0.18066,1.792283 0.04263,2.344417 -0.04196,0.167821 -0.64141,1.31195 -0.724637,1.449275 -0.14299,0.235933 -0.329875,0.443712 -0.468884,0.682012 -0.160086,0.274434 -0.28994,0.565531 -0.426257,0.852515 -0.187837,0.395446 -0.601133,1.375525 -0.809889,1.747655 -0.572527,1.020591 -1.377312,1.920966 -2.173913,2.770674 -1.000995,1.067728 -1.145936,1.220613 -2.131288,2.088661 -0.294883,0.259779 -0.574871,0.539517 -0.89514,0.767264 -0.533818,0.379604 -1.460386,0.815444 -2.046036,1.108269 -1.35255,0.676275 -2.764727,1.28059 -4.219949,1.70503 -0.259682,0.07574 -1.660016,0.412926 -1.960784,0.468883 -0.296325,0.05513 -0.599055,0.07148 -0.895141,0.127877 -0.301304,0.05739 -0.594925,0.150293 -0.895141,0.213129 -0.875529,0.183251 -1.76395,0.3041 -2.642796,0.468883 -0.654812,0.122778 -1.296572,0.265096 -1.960784,0.341006 -0.649643,0.07425 -1.312911,0.03852 -1.960784,0.127878 -0.621209,0.08568 -1.209408,0.314354 -1.832908,0.383631 -0.127095,0.01412 -0.256003,-0.008 -0.383631,0 -0.312351,0.01952 -0.62427,0.06958 -0.937767,0.08525 -0.536458,0.02682 -1.082475,0 -1.619778,0 -0.369423,0 -0.738846,0 -1.108269,0 -0.09946,0 -0.200274,0.01635 -0.298381,0 -0.115377,0.07245 -0.110221,-0.06516 -0.170503,-0.08525 -0.162439,-0.05415 -0.0073,0.0946 -0.213128,-0.04263 -0.01182,-0.0079 0.01182,-0.03475 0,-0.04263 -0.03739,-0.02492 -0.08769,-0.02253 -0.127878,-0.04263 -0.01797,-0.009 -0.02356,-0.03627 -0.04263,-0.04263 -0.04044,-0.01348 -0.08975,0.01906 -0.127878,0 -0.128719,-0.06436 -0.196751,-0.0541 -0.383631,-0.08525 z" />
  <path
     style="fill:none;stroke:#13161f;stroke-width:2.4"
     d="m 24.211424,20.929241 c -0.530545,0.623843 -1.042361,1.263613 -1.534527,1.918159 -0.274987,0.365713 -0.543824,0.736015 -0.809889,1.108269 -0.841277,1.17704 -1.655665,2.374887 -2.387042,3.623189 -0.434115,0.74094 -0.839715,1.501406 -1.150895,2.30179 -0.04007,0.103078 -0.07884,0.207854 -0.09357,0.317463 -0.01473,0.109609 -0.0037,0.225769 0.05094,0.321923 0.03578,0.06297 0.08885,0.114964 0.148369,0.156234 0.05952,0.04127 0.12552,0.07231 0.192637,0.09952 0.520465,0.21105 1.101361,0.196133 1.662404,0.170503 1.610188,-0.07356 3.232436,-0.211438 4.774084,-0.682012 0.53639,-0.163728 1.066254,-0.368339 1.623823,-0.428654 0.278785,-0.03016 0.563449,-0.02327 0.835908,0.04303 0.27246,0.0663 0.532664,0.193798 0.7372,0.385619 0.233727,0.219196 0.386159,0.51277 0.489601,0.816044 0.103442,0.303274 0.16177,0.61967 0.235036,0.931611 0.169967,0.723657 0.426517,1.436861 0.852515,2.046036 0.173456,0.248041 0.37394,0.477166 0.596761,0.682012"
     id="path2"
     inkscape:path-effect="#path-effect2"
     inkscape:original-d="m 24.211424,20.929241 c -0.795348,0.448247 -1.06779,1.210525 -1.534527,1.918159 -0.251926,0.381951 -0.544541,0.735518 -0.809889,1.108269 -0.767773,1.078538 -1.765788,2.52564 -2.387042,3.623189 -0.422564,0.746529 -0.828338,1.506917 -1.150895,2.30179 -0.08032,0.197926 -0.110173,0.436746 -0.04263,0.639386 0.04493,0.134795 0.202031,0.226185 0.341006,0.255755 0.544846,0.115924 1.105405,0.163626 1.662404,0.170503 1.663553,0.02054 3.122474,-0.391451 4.774084,-0.682012 0.830302,-0.146072 2.359643,-0.586102 3.196931,0 0.489388,0.342572 0.58851,1.330199 0.724637,1.747655 0.11103,0.340491 0.773015,1.863654 0.852515,2.046036 0.129455,0.296984 0.225066,0.682012 0.596761,0.682012" />
</svg>
