<?xml version="1.0" encoding="UTF-8" standalone="no"?>
<svg
   width="50px"
   height="50px"
   viewBox="0 0 50 50"
   version="1.1"
   id="svg1"
   sodipodi:docname="number-1.svg"
   inkscape:version="1.3.2 (091e20e, 2023-11-25, custom)"
   xmlns:inkscape="http://www.inkscape.org/namespaces/inkscape"
   xmlns:sodipodi="http://sodipodi.sourceforge.net/DTD/sodipodi-0.dtd"
   xmlns="http://www.w3.org/2000/svg"
   xmlns:svg="http://www.w3.org/2000/svg">
  <sodipodi:namedview
     id="namedview1"
     pagecolor="#ffffff"
     bordercolor="#000000"
     borderopacity="0.25"
     inkscape:showpageshadow="2"
     inkscape:pageopacity="0.0"
     inkscape:pagecheckerboard="0"
     inkscape:deskcolor="#d1d1d1"
     inkscape:zoom="23.46"
     inkscape:cx="24.978687"
     inkscape:cy="25"
     inkscape:window-width="2560"
     inkscape:window-height="1369"
     inkscape:window-x="-8"
     inkscape:window-y="-8"
     inkscape:window-maximized="1"
     inkscape:current-layer="svg1" />
  <!-- Generator: Sketch 49 (51002) - http://www.bohemiancoding.com/sketch -->
  <title
     id="title1">Number</title>
  <desc
     id="desc1">Created with Sketch.</desc>
  <defs
     id="defs1">
    <inkscape:path-effect
       effect="spiro"
       id="path-effect2"
       is_visible="true"
       lpeversion="1" />
    <inkscape:path-effect
       effect="spiro"
       id="path-effect1"
       is_visible="true"
       lpeversion="1" />
    <circle
       id="path-1"
       cx="25"
       cy="25"
       r="25" />
  </defs>
  <path
     style="fill:none;stroke:#dadada;stroke-width:1.2;stroke-dasharray:none;stroke-opacity:1"
     d="M 17.604433,46.58994 C 15.345725,44.946968 13.328335,42.972807 11.636829,40.750213 11.089027,40.030415 10.571795,39.278687 10.211064,38.449188 9.8503337,37.619689 9.6511743,36.70344 9.7612958,35.805627 9.8676784,34.938296 10.253011,34.132923 10.485934,33.290708 10.883189,31.854291 10.830625,30.325211 10.571184,28.85763 10.502746,28.470496 10.420152,28.085668 10.31543,27.706735 10.157004,27.133478 9.9476094,26.573457 9.6760443,26.044331 8.9699814,24.668615 7.870088,23.544378 6.9053708,22.335891 6.2864282,21.560551 5.7187912,20.744139 5.0724638,19.991475 4.6958483,19.552897 4.2895054,19.131712 4.0068201,18.627451 3.894678,18.427409 3.8023997,18.214911 3.6658142,18.030691 3.5997062,17.941528 3.5239517,17.860033 3.4526854,17.774936 2.9491198,17.173645 2.6842917,16.413606 2.3017903,15.7289 2.0333208,15.24832 1.6972802,14.782 1.6197783,14.236999 c -0.016133,-0.113446 -0.020612,-0.228553 -0.042626,-0.341006 -0.022516,-0.115017 -0.063121,-0.225914 -0.085252,-0.341006 -0.04574,-0.237873 -0.011032,-0.482658 0,-0.724637 0.018154,-0.398205 -0.028105,-0.801228 0.042626,-1.193521 0.090748,-0.503311 0.3661024,-0.950191 0.5967604,-1.40665 C 2.415685,9.6673712 2.6417478,9.0674309 3.026428,8.5677749 3.6440594,7.7655416 4.5956696,7.3110796 5.4560955,6.7774936 5.6839376,6.6361992 5.9073429,6.4877054 6.1381074,6.3512361 7.5634167,5.5083382 9.2147974,5.1522139 10.826939,4.7740835 c 0.976958,-0.2291471 1.951933,-0.4710023 2.941177,-0.6393861 1.11553,-0.1898796 2.24464,-0.285561 3.367434,-0.4262575 1.479562,-0.1854029 2.94927,-0.4491292 4.433077,-0.5967604 1.189932,-0.1183921 2.385857,-0.1618124 3.580563,-0.2131288 1.065531,-0.045768 2.134909,-0.097785 3.196931,0 1.928504,0.1775656 3.775116,0.8426489 5.583973,1.5345269 0.826669,0.3161966 1.65341,0.6404521 2.429667,1.0656436 0.695097,0.3807368 1.343922,0.8392309 2.00341,1.2787724 0.601346,0.4007909 1.216122,0.7891576 1.747656,1.2787724 0.39951,0.3680035 0.746563,0.7883002 1.108269,1.1935209 0.941869,1.0551801 1.999281,2.0273601 2.728048,3.2395571 0.150762,0.25077 0.286407,0.510249 0.426258,0.767263 0.155012,0.284875 0.315279,0.566878 0.468883,0.852515 0.648207,1.205388 1.175794,2.471869 1.662404,3.751066 0.384587,1.010999 0.746505,2.040262 0.89514,3.111679 0.244541,1.762743 -0.09801,3.548844 -0.127877,5.328218 -0.0088,0.52566 0.0097,1.051509 0,1.577153 -0.0071,0.383838 -0.02924,0.767225 -0.04263,1.150895 -0.02281,0.653824 -0.02011,1.309578 0.04263,1.960784 0.03431,0.356126 0.08651,0.710268 0.127877,1.065644 0.06432,0.552558 0.10206,1.115558 0,1.662404 -0.09327,0.499752 -0.300105,0.969728 -0.468883,1.449275 -0.167223,0.475129 -0.297779,0.96224 -0.426257,1.449276 -0.03444,0.130551 -0.06909,0.262086 -0.127877,0.383631 -0.128697,0.266072 -0.36464,0.466069 -0.61805,0.618188 -0.25341,0.15212 -0.528838,0.26383 -0.7886,0.40483 -0.557969,0.302868 -1.034772,0.735672 -1.577153,1.065644 -0.315017,0.191649 -0.650183,0.347416 -0.980392,0.511509 -0.792723,0.393934 -1.560353,0.837803 -2.30179,1.321398 -0.967632,0.631128 -1.904007,1.336954 -2.983802,1.747656 -1.018258,0.387296 -2.117236,0.494109 -3.196931,0.639386 -0.613579,0.08256 -1.225494,0.178616 -1.832907,0.29838 -0.311776,0.06147 -0.622679,0.129243 -0.937767,0.170503 -0.367455,0.04812 -0.738544,0.05992 -1.108269,0.08525 -0.763649,0.05233 -1.526124,0.163295 -2.259165,0.383631 -0.430332,0.129348 -0.848773,0.295808 -1.278772,0.426258 -0.723528,0.219498 -1.480709,0.337491 -2.173913,0.639386 -0.390498,0.170065 -0.755269,0.396366 -1.150895,0.554135 -0.255046,0.101708 -0.522158,0.174622 -0.767264,0.29838 -0.257313,0.129922 -0.48358,0.312397 -0.719512,0.478004 -0.235932,0.165607 -0.489739,0.317951 -0.772389,0.374511 -0.321279,0.06429 -0.652744,1.15e-4 -0.980392,0 -0.156385,-5.5e-5 -0.313176,0.01455 -0.468883,0 -0.200326,-0.01871 -0.395563,-0.08541 -0.596761,-0.08525 -0.221245,1.71e-4 -0.434505,0.08108 -0.654652,0.103098 -0.110074,0.01101 -0.223331,0.0068 -0.328069,-0.02875 -0.104737,-0.0356 -0.200586,-0.105036 -0.253425,-0.202223 -0.03513,-0.06462 -0.0502,-0.139967 -0.04263,-0.213129 z"
     id="path1"
     inkscape:path-effect="#path-effect1"
     inkscape:original-d="m 17.604433,46.58994 c -2.25225,-1.646581 -4.39606,-3.507758 -5.967604,-5.839727 -1.036528,-1.538074 -2.0791469,-3.010256 -1.8755332,-4.944586 0.098968,-0.940192 0.4874672,-1.610705 0.7246382,-2.514919 0.380728,-1.451529 0.398943,-2.969182 0.08525,-4.433078 C 10.488844,28.473363 10.434586,28.081225 10.31543,27.706735 10.135416,27.140975 9.9284512,26.581713 9.6760443,26.044331 9.0206325,24.648938 7.8858962,23.494694 6.9053708,22.335891 6.2624325,21.576055 5.6938141,20.768163 5.0724638,19.991475 4.6646567,19.481716 4.3592419,19.165358 4.0068201,18.627451 3.8812637,18.435812 3.7906745,18.222783 3.6658142,18.030691 3.6053354,17.937646 3.5153498,17.866523 3.4526854,17.774936 3.0102557,17.128308 2.6756356,16.414283 2.3017903,15.7289 2.0413873,15.251495 1.7535635,14.77214 1.6197783,14.236999 c -0.027783,-0.111133 -0.021515,-0.228415 -0.042626,-0.341006 -0.021593,-0.11516 -0.071562,-0.224641 -0.085252,-0.341006 -0.028223,-0.239891 0,-0.483092 0,-0.724637 0,-0.392436 -0.0389,-0.806276 0.042626,-1.193521 0.1060542,-0.503758 0.3758195,-0.948987 0.5967604,-1.40665 C 2.3950074,9.6839017 2.638174,9.0473828 3.026428,8.5677749 3.6583419,7.7871754 4.6100337,7.275177 5.4560955,6.7774936 5.6871688,6.6415681 5.902755,6.4796102 6.1381074,6.3512361 7.5869376,5.5609652 9.2374194,5.16535 10.826939,4.7740835 c 0.927419,-0.2282877 1.987828,-0.487403 2.941177,-0.6393861 0.911461,-0.1453055 2.469557,-0.3027995 3.367434,-0.4262575 1.476597,-0.2030321 2.948377,-0.4524146 4.433077,-0.5967604 1.121269,-0.1090123 2.46194,-0.1741071 3.580563,-0.2131288 0.904071,-0.031537 2.258594,-0.078195 3.196931,0 1.858374,0.1548645 3.836539,0.8624369 5.583973,1.5345269 0.441086,0.1696484 1.957263,0.8155473 2.429667,1.0656436 0.746244,0.3950701 1.31138,0.8069337 2.00341,1.2787724 0.581178,0.3962573 1.223365,0.8021445 1.747656,1.2787724 0.05657,0.051427 1.012686,1.0905848 1.108269,1.1935209 1.054855,1.1359971 1.767451,1.8859881 2.728048,3.2395571 0.169326,0.238595 0.284744,0.511191 0.426258,0.767263 0.156867,0.283856 0.313109,0.568058 0.468883,0.852515 0.660617,1.206344 1.237793,2.440311 1.662404,3.751066 0.249107,0.768982 0.727864,2.182367 0.89514,3.111679 0.317187,1.762145 -0.03124,3.56458 -0.127877,5.328218 -0.0011,0.01993 10e-4,1.530606 0,1.577153 -0.0085,0.3838 -0.03463,0.767084 -0.04263,1.150895 -0.01121,0.538161 0.0014,1.445866 0.04263,1.960784 0.02853,0.356624 0.105088,0.708608 0.127877,1.065644 0.0353,0.553009 0.02307,1.10875 0,1.662404 -0.02131,0.511524 -0.315652,0.972558 -0.468883,1.449275 -0.152484,0.474395 -0.273773,0.974881 -0.426257,1.449276 -0.04125,0.128328 -0.03699,0.284088 -0.127877,0.383631 -0.251341,0.275278 -1.065395,0.795515 -1.40665,1.023018 -0.527914,0.351943 -1.031954,0.741121 -1.577153,1.065644 -0.316737,0.188534 -0.65857,0.331791 -0.980392,0.511509 -0.772423,0.431353 -1.542232,0.867773 -2.30179,1.321398 -0.94802,0.566179 -1.907168,1.435588 -2.983802,1.747656 -2.267567,0.657266 -1.546431,0.388223 -3.196931,0.639386 -0.611967,0.09313 -1.221938,0.19892 -1.832907,0.29838 -0.313586,0.05105 -0.622507,0.131096 -0.937767,0.170503 -0.367653,0.04596 -0.739593,0.04838 -1.108269,0.08525 -0.831358,0.08313 -1.432371,0.176933 -2.259165,0.383631 -0.435899,0.108975 -0.848087,0.298216 -1.278772,0.426258 -0.71466,0.212466 -1.495615,0.318087 -2.173913,0.639386 -0.383904,0.181849 -0.756749,0.391839 -1.150895,0.554135 -0.420826,0.173281 -0.359665,0.07194 -0.767264,0.29838 -0.479219,0.266233 -0.935015,0.741138 -1.491901,0.852515 -0.276487,0.0553 -0.693487,0 -0.980392,0 -0.156294,0 -0.313231,0.01415 -0.468883,0 -0.917318,-0.08339 0.557094,-0.0028 -0.596761,-0.08525 -0.137789,-0.0098 -1.171761,0.06528 -1.236146,-0.127877 -0.02291,-0.06873 -0.02842,-0.142086 -0.04263,-0.213129 z" />
  <path
     style="fill:none;stroke:#13161f;stroke-width:2.8;stroke-dasharray:none"
     d="m 22.975277,20.54561 c 0.897237,-1.228878 2.157615,-2.189166 3.580563,-2.728048 0.345528,-0.130854 0.701195,-0.237633 1.065643,-0.29838 0.214716,-0.03579 0.433922,-0.05599 0.639387,-0.127878 0.0556,-0.01945 0.111597,-0.04294 0.170503,-0.04263 0.06967,3.62e-4 0.136474,0.03523 0.184364,0.08583 0.04789,0.0506 0.07824,0.115762 0.09659,0.182973 0.0367,0.134424 0.02787,0.277629 0.06005,0.413206 0.03621,0.152566 0.122459,0.288114 0.213609,0.415705 0.09115,0.127591 0.189439,0.251869 0.255274,0.394184 0.08588,0.185656 0.112284,0.392796 0.127877,0.59676 0.04647,0.607795 0.0021,1.237924 -0.255755,1.790281 -0.181282,0.388365 -0.460986,0.72321 -0.767263,1.023018 -0.172387,0.168746 -0.354527,0.328345 -0.511509,0.511509 -0.159188,0.185737 -0.29045,0.393302 -0.426257,0.596761 -0.522792,0.783221 -1.119843,1.514687 -1.747656,2.216539 -0.518404,0.57954 -1.060997,1.143032 -1.491901,1.790281 -0.247169,0.371265 -0.455307,0.766793 -0.682012,1.150895 -0.390706,0.661967 -0.83632,1.289598 -1.278772,1.918159 -0.04454,0.06327 -0.08949,0.127367 -0.117448,0.199514 -0.02796,0.07215 -0.03765,0.154312 -0.01043,0.226743 0.01459,0.03882 0.03936,0.07357 0.07033,0.101159 0.03097,0.02758 0.06802,0.04807 0.107401,0.06106 0.07877,0.02599 0.165349,0.02173 0.245168,-8.14e-4 0.159637,-0.04509 0.289755,-0.157463 0.429618,-0.24666 0.361978,-0.23085 0.802331,-0.310398 1.231638,-0.314275 0.429307,-0.0039 0.855681,0.0627 1.283281,0.101146 1.733588,0.155858 3.470184,-0.150809 5.200341,-0.341006 0.680357,-0.07479 1.362684,-0.131652 2.046036,-0.170503 0.203342,0.07874 0.436044,0.07874 0.639386,0 0.128678,-0.04983 0.244738,-0.129327 0.375392,-0.173715 0.06533,-0.02219 0.134554,-0.03537 0.203352,-0.03016 0.0688,0.0052 0.13727,0.0298 0.18852,0.076 0.01765,0.01591 0.03309,0.03415 0.05076,0.05003 0.01767,0.01588 0.03826,0.02964 0.06161,0.03405 0.01167,0.0022 0.02389,0.002 0.03528,-0.0014 0.01139,-0.0034 0.02189,-0.01004 0.02926,-0.01937 0.0074,-0.0093 0.01142,-0.02136 0.01047,-0.0332 -9.53e-4,-0.01184 -0.0071,-0.02332 -0.01687,-0.03008 -0.0062,-0.0043 -0.01376,-0.0067 -0.02131,-0.0067 -0.0076,0 -0.0151,0.0024 -0.02132,0.0067"
     id="path2"
     inkscape:path-effect="#path-effect2"
     inkscape:original-d="m 22.975277,20.54561 c 0.74949,-1.432102 2.129078,-2.161062 3.580563,-2.728048 0.343592,-0.134216 0.707781,-0.208915 1.065643,-0.29838 0.21086,-0.05271 0.426699,-0.0831 0.639387,-0.127878 0.05733,-0.01207 0.133906,-0.08837 0.170503,-0.04263 0.158779,0.198474 0.219743,0.458633 0.341006,0.682012 0.148825,0.274151 0.347054,0.52272 0.468883,0.809889 0.07945,0.187279 0.102644,0.394895 0.127877,0.59676 0.08461,0.676859 0.06204,1.175877 -0.255755,1.790281 -0.119097,0.230256 -0.582481,0.820638 -0.767263,1.023018 -0.162585,0.17807 -0.355754,0.327436 -0.511509,0.511509 -0.157903,0.186613 -0.279585,0.401198 -0.426257,0.596761 -0.535978,0.714636 -1.147087,1.54924 -1.747656,2.216539 -1.12875,1.254166 -0.219569,-0.04188 -1.491901,1.790281 -0.254358,0.366275 -0.434653,0.779857 -0.682012,1.150895 -0.427187,0.64078 -0.933099,1.226812 -1.278772,1.918159 -0.08331,0.166629 -0.18032,0.400036 -0.127878,0.426257 0.166859,0.08343 0.768882,-0.07541 0.852515,-0.08525 0.385399,-0.04534 2.435798,-0.207195 2.514919,-0.213129 1.73384,-0.130038 3.467877,-0.194895 5.200341,-0.341006 0.682012,-0.05683 1.364024,-0.113669 2.046036,-0.170503 0.213129,0 0.426885,0.01635 0.639386,0 0.258519,-0.01989 0.509268,-0.102078 0.767264,-0.127877 0.116346,-0.01163 0.170503,0.01191 0.170503,0 0,-0.01421 -0.02842,0 -0.04263,0 -0.132736,0.411853 -0.266126,0.09044 -0.426253,0.170507 -0.04965,0.02483 -0.07822,0.06042 -0.127878,0.08525 -0.0682,0.0341 -0.187553,-0.0341 -0.255754,0 -0.03594,0.01797 -0.04713,0.07254 -0.08525,0.08525 -0.04617,0.01539 -0.250071,0.04263 -0.29838,0.04263 -0.241546,0 -0.01421,-0.02842 -0.08525,0.04263 -0.04803,0.04803 -0.127878,-0.0654 -0.127878,0.04263" />
</svg>
