<?xml version="1.0" encoding="UTF-8" standalone="no"?>
<svg
   width="50px"
   height="50px"
   viewBox="0 0 50 50"
   version="1.1"
   id="svg1"
   sodipodi:docname="number-1.svg"
   inkscape:version="1.3.2 (091e20e, 2023-11-25, custom)"
   xmlns:inkscape="http://www.inkscape.org/namespaces/inkscape"
   xmlns:sodipodi="http://sodipodi.sourceforge.net/DTD/sodipodi-0.dtd"
   xmlns="http://www.w3.org/2000/svg"
   xmlns:svg="http://www.w3.org/2000/svg">
  <sodipodi:namedview
     id="namedview1"
     pagecolor="#ffffff"
     bordercolor="#000000"
     borderopacity="0.25"
     inkscape:showpageshadow="2"
     inkscape:pageopacity="0.0"
     inkscape:pagecheckerboard="0"
     inkscape:deskcolor="#d1d1d1"
     inkscape:zoom="23.46"
     inkscape:cx="24.978687"
     inkscape:cy="25"
     inkscape:window-width="2560"
     inkscape:window-height="1369"
     inkscape:window-x="-8"
     inkscape:window-y="-8"
     inkscape:window-maximized="1"
     inkscape:current-layer="svg1" />
  <!-- Generator: Sketch 49 (51002) - http://www.bohemiancoding.com/sketch -->
  <title
     id="title1">Number</title>
  <desc
     id="desc1">Created with Sketch.</desc>
  <defs
     id="defs1">
    <inkscape:path-effect
       effect="spiro"
       id="path-effect2"
       is_visible="true"
       lpeversion="1" />
    <inkscape:path-effect
       effect="spiro"
       id="path-effect1"
       is_visible="true"
       lpeversion="1" />
    <circle
       id="path-1"
       cx="25"
       cy="25"
       r="25" />
  </defs>
  <path
     style="fill:none;stroke-width:1.1;stroke:#dadada;stroke-opacity:1;stroke-dasharray:none"
     d="M 17.604433,46.035806 C 14.791018,44.769586 12.359651,42.668404 10.699062,40.068201 9.8467313,38.733594 9.1984255,37.28155 8.5251492,35.848252 7.9861735,34.700859 7.4275702,33.55773 7.0332481,32.352941 6.4541417,30.583573 6.2393834,28.711742 5.6692242,26.939471 5.4557959,26.276055 5.1935053,25.629619 4.9445865,24.978687 4.8239203,24.663141 4.7061583,24.345955 4.5609548,24.040921 4.118366,23.111159 3.4342322,22.320174 2.8985507,21.44075 2.7754554,21.238665 2.6597033,21.031148 2.514919,20.84399 2.3913132,20.684209 2.247396,20.540416 2.1312873,20.375107 2.0247709,20.223455 1.9428794,20.055388 1.8329071,19.906223 1.7313158,19.768426 1.6074063,19.648954 1.4919011,19.522592 1.0621779,19.052476 0.73915648,18.45432 0.72463768,17.817562 c -0.001619,-0.07103 5.754e-4,-0.142086 0,-0.213129 -0.001728,-0.213383 -0.0283805,-0.427892 0,-0.639386 0.0411526,-0.306674 0.19561351,-0.58703 0.37607412,-0.83838 0.1804606,-0.251349 0.389404,-0.481753 0.5616923,-0.738773 0.1276313,-0.190401 0.2341698,-0.393959 0.341006,-0.59676 0.2073585,-0.393617 0.4170653,-0.78653 0.5967604,-1.193521 0.1002335,-0.227018 0.1910563,-0.458258 0.2983802,-0.682012 0.2751427,-0.57363 0.655355,-1.090925 1.0656437,-1.577153 C 5.0303953,10.074906 6.306793,9.0048125 7.6300085,8.0136402 8.3589785,7.4675955 9.1052185,6.9427699 9.8891731,6.4791134 10.639266,6.035484 11.423111,5.648486 12.233589,5.3282182 13.809666,4.705417 15.473772,4.3390769 17.13555,4.0068201 c 0.396347,-0.079246 0.793282,-0.1567389 1.193521,-0.2131287 1.157151,-0.1630313 2.336162,-0.148152 3.495311,0 1.478603,0.1889817 2.92081,0.5921966 4.347826,1.0230179 0.964187,0.2910916 1.924728,0.5954956 2.898551,0.8525149 1.246269,0.3289252 2.512812,0.5798456 3.751065,0.9377664 1.010343,0.2920428 1.998796,0.6544466 2.983803,1.0230179 0.274515,0.1027183 0.549589,0.2062721 0.809889,0.341006 0.382061,0.1977587 0.726678,0.4597185 1.065643,0.7246377 0.591221,0.4620712 1.172626,0.9379324 1.790282,1.3640238 0.506071,0.349114 1.035396,0.664051 1.534527,1.023018 0.683077,0.491258 1.306657,1.062866 2.00341,1.534527 0.513714,0.347754 1.079597,0.652726 1.449275,1.150895 0.288284,0.388484 0.432946,0.864051 0.682012,1.278772 0.12593,0.209686 0.277726,0.402428 0.426257,0.596761 0.153643,0.201022 0.304359,0.404543 0.468884,0.59676 0.312322,0.364891 0.682311,0.701761 0.852515,1.150895 0.04162,0.109815 0.07029,0.224527 0.08525,0.341006 0.123581,0.334434 0.265965,0.661919 0.426257,0.980392 0.24578,0.488323 0.533428,0.955122 0.767264,1.449276 0.320628,0.677568 0.540159,1.433017 0.426257,2.173913 -0.100229,0.651954 -0.447186,1.234484 -0.724637,1.832907 -0.388294,0.837497 -0.652025,1.738194 -1.150895,2.514919 -0.515038,0.801898 -1.271671,1.457215 -1.619779,2.344416 -0.113433,0.2891 -0.179427,0.594109 -0.255754,0.895141 -0.210798,0.831382 -0.505624,1.646174 -0.937767,2.387041 -0.232381,0.398394 -0.502901,0.772965 -0.767263,1.150896 -0.370512,0.529682 -0.729868,1.067423 -1.065644,1.619778 -0.231641,0.381053 -0.451954,0.768884 -0.682012,1.150895 -0.874849,1.452689 -1.895141,2.825423 -3.111679,4.00682 -0.266783,0.259077 -0.542654,0.508653 -0.809889,0.767264 -0.389882,0.377299 -0.761078,0.773529 -1.150895,1.150895 -0.413498,0.400291 -0.848752,0.779911 -1.321399,1.108269 -0.252449,0.175382 -0.515048,0.335792 -0.767263,0.511509 -0.531546,0.370326 -1.023519,0.812349 -1.619778,1.065644 -0.888702,0.377527 -1.894713,0.292039 -2.855925,0.383631 -0.514151,0.04899 -1.021892,0.150227 -1.534527,0.213129 -0.471279,0.05783 -0.949778,0.08384 -1.40665,0.213129 -0.393799,0.111441 -0.762509,0.297211 -1.150895,0.426257 -0.474402,0.157626 -0.973815,0.229228 -1.449275,0.383632 -0.316403,0.102751 -0.620305,0.241574 -0.937767,0.341006 -0.401904,0.125879 -0.820613,0.187165 -1.236146,0.255755 -0.508557,0.08394 -1.019172,0.179813 -1.534527,0.170503 -0.246097,-0.0044 -0.493174,-0.03329 -0.728167,-0.106521 -0.234993,-0.07322 -0.458055,-0.192157 -0.635857,-0.362363 -0.05201,-0.04979 -0.100039,-0.103785 -0.154489,-0.150896 -0.05445,-0.04711 -0.116585,-0.08772 -0.186517,-0.104858 -0.02861,-0.007 -0.05804,-0.01 -0.08705,-0.01509 -0.02901,-0.0051 -0.05811,-0.01253 -0.08346,-0.02754 -0.02226,-0.01319 -0.04077,-0.03171 -0.06055,-0.04839 -0.01978,-0.01668 -0.0419,-0.03203 -0.06732,-0.03686 -0.02798,-0.0053 -0.05689,0.0026 -0.08525,0 -0.02089,-0.0019 -0.04095,-0.0097 -0.05915,-0.0201 -0.0182,-0.01045 -0.03469,-0.0236 -0.0507,-0.03718 -0.03201,-0.02715 -0.0636,-0.05693 -0.103279,-0.0706 -0.0271,-0.0093 -0.05637,-0.01049 -0.08497,-0.0087 -0.0286,0.0018 -0.05695,0.0066 -0.08553,0.0087 -0.08315,0.0061 -0.16786,-0.01067 -0.242432,-0.04796 -0.07457,-0.03729 -0.138803,-0.095 -0.183826,-0.16517 z"
     id="path1"
     inkscape:path-effect="#path-effect1"
     inkscape:original-d="M 17.604433,46.035806 C 14.271985,46.046737 12.145309,42.620401 10.699062,40.068201 9.8349896,38.543367 9.2782001,37.438026 8.5251492,35.848252 8.0790457,34.906478 7.3782229,33.375545 7.0332481,32.352941 6.4343084,30.577513 6.196165,28.73107 5.6692242,26.939471 5.4088714,26.054272 5.2881903,25.818607 4.9445865,24.978687 4.8167093,24.666098 4.7064269,24.345719 4.5609548,24.040921 4.1111349,23.098441 3.485945,22.295142 2.8985507,21.44075 2.7645792,21.245882 2.6530942,21.0359 2.514919,20.84399 2.3969234,20.680107 2.2500638,20.538424 2.1312873,20.375107 2.0223242,20.225282 1.9440614,20.054429 1.8329071,19.906223 1.7302507,19.769348 1.5997917,19.65538 1.4919011,19.522592 1.0797409,19.015318 0.85212534,18.455 0.72463768,17.817562 c -0.0139327,-0.06966 0,-0.142086 0,-0.213129 0,-0.213129 -0.0350381,-0.429157 0,-0.639386 0.10026366,-0.601582 0.61932902,-1.099497 0.93776642,-1.577153 0.1270854,-0.190628 0.232817,-0.394807 0.341006,-0.59676 0.2100436,-0.392082 0.4086614,-0.790452 0.5967604,-1.193521 0.1049357,-0.224862 0.1795568,-0.464169 0.2983802,-0.682012 0.145975,-0.267621 0.920419,-1.391083 1.0656437,-1.577153 C 4.9956822,10.016855 6.2991337,9.0117964 7.6300085,8.0136402 8.4839186,7.3732077 8.9246744,6.9958091 9.8891731,6.4791134 10.656553,6.0680171 11.431719,5.6671529 12.233589,5.3282182 13.781596,4.673906 15.492512,4.3248275 17.13555,4.0068201 c 0.39677,-0.076794 0.791687,-0.1700751 1.193521,-0.2131287 0.755264,-0.080921 3.118655,-0.028974 3.495311,0 1.484729,0.1142099 2.93244,0.5961554 4.347826,1.0230179 1.272237,0.3836904 1.599969,0.4949344 2.898551,0.8525149 1.243987,0.3425474 2.506358,0.6006581 3.751065,0.9377664 1.022562,0.2769437 2.005959,0.6175708 2.983803,1.0230179 0.27058,0.1121918 0.547895,0.2100093 0.809889,0.341006 0.376253,0.1881268 0.733797,0.4708728 1.065643,0.7246377 0.365735,0.2796793 1.388839,1.0830141 1.790282,1.3640238 0.843065,0.590146 0.769198,0.455194 1.534527,1.023018 0.674915,0.500744 1.325778,1.036268 2.00341,1.534527 0.62797,0.461743 0.894992,0.572513 1.449275,1.150895 0.334214,0.348745 0.434701,0.876892 0.682012,1.278772 0.128118,0.208191 0.279585,0.401198 0.426257,0.596761 0.151786,0.202381 0.306171,0.403055 0.468884,0.59676 0.302686,0.360342 0.67233,0.700434 0.852515,1.150895 0.04351,0.108787 0.05683,0.227338 0.08525,0.341006 0.142086,0.326798 0.272767,0.658794 0.426257,0.980392 0.235444,0.49331 0.539514,0.952367 0.767264,1.449276 0.297992,0.650165 0.450813,1.461805 0.426257,2.173913 -0.02489,0.721715 -0.406719,1.216941 -0.724637,1.832907 -0.426408,0.826166 -0.682429,1.705751 -1.150895,2.514919 -0.493837,0.852991 -1.236999,1.387466 -1.619779,2.344416 -0.11525,0.288125 -0.163194,0.598946 -0.255754,0.895141 -0.254669,0.814939 -0.521676,1.635393 -0.937767,2.387041 -0.223302,0.403386 -0.512875,0.766356 -0.767263,1.150896 -0.356584,0.539022 -0.720843,1.073143 -1.065644,1.619778 -0.237906,0.377168 -0.437793,0.777783 -0.682012,1.150895 -0.915692,1.398974 -1.988446,2.773466 -3.111679,4.00682 -0.250394,0.274943 -0.542921,0.508385 -0.809889,0.767264 -0.389488,0.377685 -0.752803,0.782291 -1.150895,1.150895 -0.17888,0.165629 -1.17737,1.001276 -1.321399,1.108269 -0.246746,0.183297 -0.516594,0.333615 -0.767263,0.511509 -0.52494,0.372538 -1.029543,0.791606 -1.619778,1.065644 -0.916525,0.425529 -1.875379,0.348612 -2.855925,0.383631 -0.515139,0.0184 -1.025193,0.146694 -1.534527,0.213129 -0.469907,0.06129 -0.944332,0.09755 -1.40665,0.213129 -0.39973,0.09993 -0.754866,0.317008 -1.150895,0.426257 -0.481736,0.132893 -0.97307,0.232112 -1.449275,0.383632 -0.316957,0.10085 -0.62081,0.240156 -0.937767,0.341006 -0.407995,0.129817 -0.814758,0.195556 -1.236146,0.255755 -0.490709,0.0701 -1.037394,0.232644 -1.534527,0.170503 -0.466797,-0.05835 -0.957622,-0.231816 -1.364024,-0.468884 -0.122731,-0.07159 -0.213921,-0.192211 -0.341006,-0.255754 -0.0524,-0.0262 -0.116656,-0.01955 -0.170503,-0.04263 -0.04709,-0.02018 -0.08031,-0.06623 -0.127877,-0.08525 -0.02638,-0.01055 -0.05829,0.009 -0.08525,0 -0.07517,-0.02506 -0.12777,-0.09943 -0.213128,-0.127878 -0.03763,-0.01254 -0.137612,0 -0.170503,0 -0.219373,0 -0.218683,-0.04707 -0.426258,-0.213128 z" />
  <path
     style="fill:none;stroke:#13161f;stroke-width:2.8;stroke-dasharray:none;stroke-opacity:1"
     d="m 22.080136,22.932651 c 1.585477,-0.601661 2.984572,-1.684831 3.964195,-3.069053 0.159375,-0.225199 0.307846,-0.457998 0.468883,-0.682012 0.08979,-0.124902 0.183844,-0.247649 0.255754,-0.383632 0.0049,-0.0092 0.0097,-0.01861 0.0165,-0.02655 0.0068,-0.0079 0.01581,-0.01444 0.02613,-0.01608 0.007,-0.0011 0.01424,8.5e-5 0.02062,0.0031 0.0064,0.003 0.01186,0.0078 0.01591,0.01361 0.0081,0.01155 0.0103,0.02659 0.0079,0.0405 -0.0024,0.01391 -0.009,0.0268 -0.01716,0.03832 -0.0082,0.01151 -0.01788,0.02182 -0.02729,0.03234 -0.101188,0.113242 -0.167421,0.255201 -0.202022,0.403071 -0.0346,0.14787 -0.03852,0.301722 -0.02472,0.452958 0.0276,0.302472 0.124601,0.593785 0.184113,0.891627 0.145168,0.726526 0.06534,1.476 0.04263,2.216539 -0.027,0.880603 0.02775,1.762216 0,2.642796 -0.0221,0.701303 -0.09389,1.422979 0.127877,2.088662 0.03729,0.111949 0.08262,0.221163 0.11748,0.333894 0.03486,0.112731 0.05926,0.230285 0.05302,0.348118 -0.0015,0.02844 -0.0048,0.05717 0,0.08525 0.0078,0.0457 0.03619,0.08537 0.06874,0.118388 0.03254,0.03302 0.06985,0.06111 0.101764,0.09474 0.04855,0.05115 0.08355,0.114192 0.107024,0.180695 0.02347,0.0665 0.03572,0.136533 0.04228,0.206749 0.01313,0.140432 0.0039,0.282466 0.02119,0.422445 0.02443,0.197624 0.100757,0.384428 0.169824,0.571196 0.06907,0.186767 0.132271,0.380605 0.128557,0.579699 -0.0016,0.08587 -0.01568,0.170991 -0.0223,0.256625 -0.0066,0.08563 -0.0055,0.173614 0.0223,0.254884 0.02481,0.07255 0.07023,0.137938 0.08525,0.213129 0.01674,0.08381 -0.0061,0.17051 0,0.255754 0.0055,0.07755 0.03579,0.153147 0.08525,0.213129"
     id="path2"
     inkscape:path-effect="#path-effect2"
     inkscape:original-d="m 22.080136,22.932651 c 1.508125,-0.717709 2.894677,-1.778256 3.964195,-3.069053 0.176017,-0.212435 0.313752,-0.453879 0.468883,-0.682012 0.08642,-0.12709 0.167619,-0.257725 0.255754,-0.383632 0.01152,-0.01646 0.03364,-0.0606 0.04263,-0.04263 0.01906,0.03813 0.002,0.0853 0,0.127877 -0.04406,0.925367 -0.06392,0.725694 -0.04263,1.747656 0.05796,2.78202 0.04263,-0.7284 0.04263,2.216539 0,0.880932 -0.03261,1.762468 0,2.642796 0.02582,0.697046 0.05319,1.395147 0.127877,2.088662 0.02509,0.232986 0.116832,0.453907 0.170503,0.682012 0.0065,0.02766 -0.01271,0.05983 0,0.08525 0.04069,0.08137 0.125365,0.134137 0.170503,0.213129 0.141577,0.247759 0.100151,0.546067 0.170503,0.809889 0.102067,0.38275 0.24871,0.753534 0.298381,1.150895 0.02095,0.167585 -0.01863,0.343813 0,0.511509 0.02494,0.224506 0.04214,0.04068 0.08525,0.213129 0.01956,0.07822 -0.02548,0.179306 0,0.255754 0.02567,0.07702 0.08525,0.129331 0.08525,0.213129" />
</svg>
