<?xml version="1.0" encoding="UTF-8" standalone="no"?>
<svg
   width="50px"
   height="50px"
   viewBox="0 0 50 50"
   version="1.1"
   id="svg1"
   sodipodi:docname="number-4.svg"
   inkscape:version="1.3.2 (091e20e, 2023-11-25, custom)"
   xmlns:inkscape="http://www.inkscape.org/namespaces/inkscape"
   xmlns:sodipodi="http://sodipodi.sourceforge.net/DTD/sodipodi-0.dtd"
   xmlns="http://www.w3.org/2000/svg"
   xmlns:svg="http://www.w3.org/2000/svg">
  <sodipodi:namedview
     id="namedview1"
     pagecolor="#ffffff"
     bordercolor="#000000"
     borderopacity="0.25"
     inkscape:showpageshadow="2"
     inkscape:pageopacity="0.0"
     inkscape:pagecheckerboard="0"
     inkscape:deskcolor="#d1d1d1"
     inkscape:zoom="23.46"
     inkscape:cx="24.978687"
     inkscape:cy="25"
     inkscape:window-width="2560"
     inkscape:window-height="1369"
     inkscape:window-x="-8"
     inkscape:window-y="-8"
     inkscape:window-maximized="1"
     inkscape:current-layer="svg1" />
  <!-- Generator: Sketch 49 (51002) - http://www.bohemiancoding.com/sketch -->
  <title
     id="title1">Number</title>
  <desc
     id="desc1">Created with Sketch.</desc>
  <defs
     id="defs1">
    <inkscape:path-effect
       effect="spiro"
       id="path-effect2"
       is_visible="true"
       lpeversion="1" />
    <inkscape:path-effect
       effect="spiro"
       id="path-effect1"
       is_visible="true"
       lpeversion="1" />
    <circle
       id="path-1"
       cx="25"
       cy="25"
       r="25" />
  </defs>
  <path
     style="fill:none;stroke:#dadada;stroke-width:1.20000057;stroke-dasharray:none"
     d="M 15.515772,44.842285 C 13.912371,43.609099 12.533421,42.084996 11.466326,40.366581 11.110212,39.793106 10.78884,39.198838 10.443308,38.618926 9.5124826,37.056708 8.3894856,35.561294 7.9283887,33.802217 7.7030504,32.942555 7.6449128,32.048 7.6300085,31.15942 7.6128377,30.135713 7.6515031,29.108638 7.544757,28.090367 7.4607186,27.28871 7.2872256,26.49945 7.1611253,25.703325 7.0397723,24.937172 6.9622355,24.16411 6.8201194,23.401535 6.6893797,22.700005 6.5044495,22.00984 6.3512361,21.312873 6.2698228,20.942524 6.1972754,20.569877 6.0954817,20.204604 5.8813055,19.436061 5.5405044,18.709743 5.200341,17.988065 4.5742484,16.659771 3.9438276,15.330815 3.1969309,14.066496 3.1126514,13.923831 3.026914,13.782033 2.9411765,13.640239 2.7897096,13.389741 2.6379007,13.138619 2.514919,12.872975 2.4347238,12.699751 2.3662816,12.519465 2.2591645,12.361466 2.1846344,12.251533 2.0926693,12.154402 2.0161754,12.045827 1.9396815,11.937251 1.8776687,11.812252 1.8755328,11.679454 c -0.00115,-0.07124 0.014919,-0.143461 0,-0.213128 -0.013386,-0.06251 -0.050445,-0.116882 -0.085252,-0.170503 -0.082468,-0.127042 -0.157259,-0.261386 -0.1957902,-0.407865 -0.038531,-0.146479 -0.038313,-0.307188 0.025287,-0.44465 0.034814,-0.07525 0.087068,-0.140959 0.1278773,-0.213129 0.053308,-0.09427 0.086436,-0.19832 0.1278772,-0.2983802 C 2.0010225,9.6288026 2.204391,9.3611309 2.448227,9.1418173 2.692063,8.9225037 2.9757742,8.750332 3.2741529,8.6142269 3.8709105,8.3420168 4.520941,8.2135442 5.1577153,8.056266 6.5980763,7.7005083 7.994866,7.1890398 9.4202899,6.7774936 10.711908,6.4045796 12.025775,6.1140753 13.341858,5.8397272 14.599932,5.5774717 15.861975,5.329569 17.13555,5.1577153 c 2.709356,-0.3655952 5.451526,-0.3847611 8.184143,-0.4688832 1.662594,-0.051182 3.324409,-0.1266163 4.987212,-0.170503 1.571883,-0.041487 3.166377,-0.052276 4.688832,0.3410059 0.892764,0.2306199 1.743741,0.5960947 2.600171,0.9377664 0.366732,0.1463071 0.738604,0.2902788 1.065644,0.511509 0.184066,0.1245135 0.351544,0.2720009 0.511509,0.4262575 0.480031,0.4629012 0.895528,0.9887879 1.278772,1.5345268 0.890911,1.2686562 1.611772,2.6472813 2.429667,3.9641943 0.185152,0.298118 0.375338,0.593168 0.554135,0.895141 0.527888,0.891555 0.953826,1.838747 1.40665,2.770673 0.144442,0.297266 0.291755,0.593247 0.426257,0.895141 0.758965,1.703524 1.095477,3.558317 1.534527,5.370844 0.270477,1.116612 0.582627,2.227341 0.724638,3.367434 0.06514,0.522958 0.09411,1.052674 0.04263,1.577152 -0.03789,0.386023 -0.119036,0.766448 -0.170503,1.150896 -0.134431,1.004168 -0.06592,2.031245 -0.255754,3.026428 -0.197968,1.037826 -0.668935,2.000969 -1.150895,2.941176 -0.513957,1.002627 -1.047039,1.997387 -1.662404,2.941176 -0.144482,0.221592 -0.293955,0.440947 -0.468883,0.639387 -0.172785,0.196008 -0.368867,0.369881 -0.554135,0.554134 -0.199508,0.198414 -0.386918,0.409311 -0.596761,0.596761 -0.873502,0.780288 -2.05329,1.092375 -3.154305,1.491901 -0.968063,0.351282 -1.907007,0.787461 -2.89855,1.065644 -0.840058,0.235683 -1.708051,0.355126 -2.557545,0.554134 -0.928143,0.217433 -1.8313,0.529142 -2.728048,0.852515 -0.509603,0.183766 -1.02038,0.372678 -1.491901,0.639386 -0.566843,0.320625 -1.070981,0.750382 -1.662404,1.023018 -0.42914,0.197826 -0.894788,0.308284 -1.321398,0.511509 -0.482721,0.229954 -0.907708,0.575026 -1.40665,0.767264 -0.396819,0.152891 -0.825034,0.202991 -1.248958,0.2366 -0.423923,0.03361 -0.851379,0.05236 -1.265961,0.147031 -0.171354,0.03913 -0.339644,0.09106 -0.511509,0.127878 -0.405947,0.08697 -0.830411,0.08795 -1.236147,0 -0.171776,-0.03724 -0.339849,-0.09011 -0.511508,-0.127878 -0.335836,-0.0739 -0.681325,-0.08924 -1.023018,-0.127877 -0.504432,-0.05704 -1.002047,-0.165155 -1.491901,-0.29838 -0.309693,-0.08423 -0.618651,-0.178943 -0.937767,-0.213129 -0.08615,-0.0092 -0.173898,-0.01424 -0.255754,-0.04263 -0.06013,-0.02086 -0.11522,-0.05372 -0.170503,-0.08525 -0.07832,-0.04467 -0.158563,-0.08734 -0.24475,-0.113817 -0.08619,-0.02648 -0.179337,-0.03612 -0.266759,-0.01406 -0.02152,0.0054 -0.0427,0.01276 -0.06477,0.01504 -0.01104,0.0011 -0.02227,9.91e-4 -0.03313,-0.0013 -0.01086,-0.0023 -0.02134,-0.0068 -0.02998,-0.01374 -0.0079,-0.0063 -0.014,-0.01451 -0.02041,-0.02232 -0.0064,-0.0078 -0.01335,-0.01548 -0.02222,-0.02031 -0.01269,-0.0069 -0.02794,-0.0073 -0.04229,-0.0056 -0.01435,0.0017 -0.02851,0.0053 -0.04296,0.0056 -0.01944,4.28e-4 -0.03865,-0.0051 -0.0563,-0.01324 -0.01765,-0.0082 -0.03395,-0.01893 -0.05019,-0.02964 -0.01624,-0.01071 -0.03256,-0.02144 -0.05025,-0.02952 -0.01769,-0.0081 -0.03695,-0.01346 -0.05638,-0.01285 -0.02218,6.94e-4 -0.04334,0.0091 -0.06518,0.01301 -0.01092,0.002 -0.02216,0.0028 -0.03311,0.0011 -0.01096,-0.0018 -0.02166,-0.0063 -0.02959,-0.01408 -0.0083,-0.0081 -0.01309,-0.01921 -0.01558,-0.03053 -0.0025,-0.01132 -0.0028,-0.02298 -0.0034,-0.03456 -5.67e-4,-0.01158 -0.0014,-0.02326 -0.0047,-0.03435 -0.0033,-0.01109 -0.0095,-0.02169 -0.0189,-0.02844 -0.006,-0.0043 -0.01301,-0.0068 -0.02023,-0.008 -0.0072,-0.0012 -0.01462,-0.0011 -0.02189,-2.27e-4 -0.01455,0.0017 -0.02864,0.0061 -0.04313,0.0083 -0.0315,0.0047 -0.06456,-0.0021 -0.09169,-0.01881 -0.02713,-0.01668 -0.0481,-0.04312 -0.05817,-0.07333 -0.01007,-0.03021 -0.0092,-0.06395 0.0025,-0.09357 0.0117,-0.02962 0.03408,-0.05488 0.06207,-0.07006 z"
     id="path1"
     inkscape:path-effect="#path-effect1"
     inkscape:original-d="M 15.515772,44.842285 C 13.96561,43.562133 12.578344,42.045511 11.466326,40.366581 11.09358,39.803809 10.787434,39.19964 10.443308,38.618926 9.5341761,37.084766 8.4518242,35.529554 7.9283887,33.802217 7.6243832,32.798998 7.6600672,32.181414 7.6300085,31.15942 7.5999212,30.13645 7.6060516,29.111942 7.544757,28.090367 7.5109925,27.527624 7.2499216,26.255835 7.1611253,25.703325 6.9986022,24.69207 6.9951476,24.393361 6.8201194,23.401535 6.6240706,22.290592 6.6113861,22.396831 6.3512361,21.312873 6.2627569,20.94421 6.20246,20.56833 6.0954817,20.204604 5.8848806,19.48856 5.5146441,18.655959 5.200341,17.988065 4.4850543,16.468081 4.0227742,15.593055 3.1969309,14.066496 3.1180882,13.920757 3.026428,13.782325 2.9411765,13.640239 2.7990907,13.384484 2.6526002,13.131128 2.514919,12.872975 2.4252117,12.704774 2.3537426,12.526978 2.2591645,12.361466 c -0.152635,-0.267111 -0.3100788,-0.3878 -0.3836317,-0.682012 -0.01723,-0.06892 0.015411,-0.143777 0,-0.213128 -0.013784,-0.06203 -0.060221,-0.112098 -0.085252,-0.170503 -0.1046248,-0.244125 -0.2539142,-0.574478 -0.170503,-0.852515 0.023807,-0.07936 0.090826,-0.139026 0.1278773,-0.213129 0.048393,-0.09679 0.066283,-0.209411 0.1278772,-0.2983802 C 2.4277496,9.1341523 4.3122079,8.3715399 5.1577153,8.056266 6.3795647,7.6006611 8.3382582,7.0691717 9.4202899,6.7774936 10.580853,6.4646461 12.155564,6.0988031 13.341858,5.8397272 14.852103,5.5099036 15.584765,5.3495649 17.13555,5.1577153 c 2.718933,-0.3363629 5.45179,-0.3565948 8.184143,-0.4688832 1.664858,-0.068419 3.319589,-0.170503 4.987212,-0.170503 1.579103,0 3.136777,0.00625 4.688832,0.3410059 0.89295,0.192597 1.771391,0.5610484 2.600171,0.9377664 0.358699,0.163045 0.726973,0.3101371 1.065644,0.511509 0.190769,0.1134307 0.351933,0.2720007 0.511509,0.4262575 0.778878,0.7529163 0.705241,0.7220248 1.278772,1.5345268 0.897511,1.2714743 1.634721,2.6286853 2.429667,3.9641943 0.179493,0.301548 0.377752,0.591763 0.554135,0.895141 0.521133,0.896348 0.961355,1.835554 1.40665,2.770673 0.142086,0.29838 0.296073,0.591379 0.426257,0.895141 0.737964,1.721916 1.130335,3.551977 1.534527,5.370844 0.246278,1.108249 0.589843,2.235156 0.724638,3.367434 0.02611,0.219349 0.06688,1.31031 0.04263,1.577152 -0.03511,0.386227 -0.13398,0.7648 -0.170503,1.150896 -0.05988,0.633027 -0.09104,2.219332 -0.255754,3.026428 -0.213728,1.047268 -0.705569,1.980208 -1.150895,2.941176 -0.50849,1.097268 -0.944311,1.961958 -1.662404,2.941176 -0.156295,0.213129 -0.296883,0.438719 -0.468883,0.639387 -0.170001,0.198334 -0.369424,0.369423 -0.554135,0.554134 -0.19892,0.198921 -0.370936,0.429006 -0.596761,0.596761 -0.807487,0.599848 -2.218649,1.14103 -3.154305,1.491901 -0.963868,0.36145 -1.920962,0.74314 -2.89855,1.065644 -0.722598,0.238382 -1.825118,0.392752 -2.557545,0.554134 -0.942971,0.207774 -1.832297,0.498929 -2.728048,0.852515 -0.190116,0.07505 -1.194886,0.474378 -1.491901,0.639386 -0.566417,0.314676 -1.076131,0.740739 -1.662404,1.023018 -0.322759,0.155403 -0.997802,0.376677 -1.321398,0.511509 -0.495059,0.206275 -0.89676,0.591989 -1.40665,0.767264 -0.823468,0.283067 -1.664495,0.241894 -2.514919,0.383631 -0.173359,0.02889 -0.338862,0.09499 -0.511509,0.127878 -0.392591,0.07478 -0.844088,0.06818 -1.236147,0 -0.173151,-0.03011 -0.339171,-0.09341 -0.511508,-0.127878 -0.845469,-0.169093 -0.253625,-0.01796 -1.023018,-0.127877 -0.501521,-0.07165 -0.995922,-0.199184 -1.491901,-0.29838 -1.786007,-0.357201 0.622241,0.176873 -0.937767,-0.213129 -0.08385,-0.02096 -0.172972,-0.01779 -0.255754,-0.04263 -0.06086,-0.01826 -0.110221,-0.06516 -0.170503,-0.08525 -0.166732,-0.05558 -0.339172,-0.09341 -0.511509,-0.127877 -0.0418,-0.0084 -0.08652,0.01034 -0.127878,0 -0.01949,-0.0049 -0.02465,-0.03364 -0.04263,-0.04263 -0.02542,-0.01271 -0.05983,0.01271 -0.08525,0 -0.06961,-0.0348 -0.130639,-0.05776 -0.213129,-0.08525 -0.06394,-0.02131 -0.04262,0.04263 -0.127877,0 -0.03956,-0.01978 -0.01325,-0.0985 -0.04262,-0.127877 -0.02009,-0.02009 -0.07254,0.02542 -0.08525,0 -0.04019,-0.08038 -0.05683,-0.170503 -0.08525,-0.255754 z" />
  <path
     style="fill:none;stroke:#13161f;stroke-width:2.4;stroke-dasharray:none;stroke-opacity:1"
     d="m 23.657289,19.394714 c 1.335179,0.09368 2.687713,-0.0663 3.964194,-0.468883 0.933937,-0.294551 1.839789,-0.72022 2.81405,-0.819285 0.487131,-0.04953 0.988934,-0.01368 1.447194,0.158797 0.45826,0.172475 0.87055,0.48892 1.1096,0.916243 0.251041,0.448757 0.295772,1.00588 0.127878,1.491901 -0.114257,0.330753 -0.320881,0.625471 -0.573871,0.867232 -0.25299,0.241761 -0.551546,0.432317 -0.865525,0.586815 -0.627958,0.308995 -1.314824,0.475567 -1.970664,0.719866 -0.629156,0.23436 -1.236682,0.544884 -1.747656,0.980392 -0.113932,0.09711 -0.223319,0.200574 -0.348378,0.282856 -0.12506,0.08228 -0.269185,0.143228 -0.418885,0.143401 -0.04578,5.3e-5 -0.09137,-0.0056 -0.137091,-0.0078 -0.04572,-0.0023 -0.09229,-0.0011 -0.136127,0.01207 -0.04384,0.01319 -0.08507,0.03956 -0.10874,0.07874 -0.01184,0.01959 -0.01904,0.04212 -0.0197,0.065 -6.52e-4,0.02288 0.0054,0.04607 0.01802,0.06516 0.01114,0.01683 0.02689,0.03 0.04263,0.04263 0.307033,0.246322 0.69291,0.377533 1.081469,0.440509 0.388559,0.06298 0.784167,0.06207 1.177695,0.071 0.83171,0.01887 1.678337,0.0859 2.449813,0.397226 0.385739,0.155662 0.749189,0.372458 1.052337,0.657285 0.303147,0.284826 0.544714,0.639176 0.675174,1.03415 0.06344,0.192056 0.100634,0.395085 0.08525,0.596761 -0.0165,0.21636 -0.0937,0.426145 -0.210231,0.609191 -0.116527,0.183045 -0.271574,0.339956 -0.445354,0.469897 -0.347559,0.259882 -0.763388,0.410326 -1.177322,0.54069 -0.948859,0.298833 -1.933937,0.51525 -2.813299,0.980392 -0.433243,0.229166 -0.835231,0.516102 -1.278773,0.724638 -0.04686,0.02203 -0.09426,0.04323 -0.138629,0.06992 -0.04437,0.02669 -0.08594,0.05925 -0.117125,0.100582 -0.01867,0.02474 -0.0334,0.05232 -0.05274,0.07653 -0.0097,0.01211 -0.02052,0.02337 -0.03307,0.03247 -0.01254,0.0091 -0.02685,0.01599 -0.04207,0.01888 -0.02112,0.004 -0.04282,2.36e-4 -0.06412,-0.0027 -0.0213,-0.0029 -0.0436,-0.0048 -0.06376,0.0027 -0.01945,0.0072 -0.03544,0.02318 -0.04263,0.04263 l -0.08525,0.04263"
     id="path2"
     inkscape:path-effect="#path-effect2"
     inkscape:original-d="m 23.657289,19.394714 c 1.321398,-0.156294 2.633932,-0.438512 3.964194,-0.468883 1.791843,-0.04091 3.600262,-0.02248 5.370844,0.255755 1.108015,0.174116 0.432288,1.18749 0.127878,1.491901 -0.851734,0.851733 -2.435893,1.626628 -3.41006,2.173913 -0.582348,0.327161 -1.164693,0.654328 -1.747656,0.980392 -0.255345,0.14282 -0.511509,0.284172 -0.767263,0.426257 -0.127877,0.07104 -0.266603,0.125357 -0.383632,0.213129 -0.01608,0.01206 0.02309,0.03792 0.04263,0.04263 0.750669,0.180717 1.513741,0.310245 2.259164,0.511509 1.125123,0.303783 3.521205,0.930804 4.177324,2.088661 0.09906,0.174822 0.09297,0.39597 0.08525,0.596761 -0.03449,0.896783 -1.165555,1.344363 -1.832907,1.619778 -3.524007,1.454352 0.284238,-0.347124 -2.813299,0.980392 -0.479624,0.205553 -0.852622,0.448893 -1.278773,0.724638 -0.08602,0.05566 -0.173786,0.109027 -0.255754,0.170503 -0.04823,0.03617 -0.07396,0.100918 -0.127877,0.127877 -0.0341,0.01705 -0.09378,-0.01705 -0.127878,0 -0.01797,0.009 -0.02842,0.02842 -0.04263,0.04263 -0.02842,0.01421 -0.05683,0.02842 -0.08525,0.04263"
     transform="translate(-2.4296675,0.72463768)" />
</svg>
