<?xml version="1.0" encoding="UTF-8" standalone="no"?>
<svg
   width="2px"
   height="592px"
   viewBox="0 0 2 592"
   version="1.1"
   id="svg1"
   sodipodi:docname="start-path.svg"
   xmlns:inkscape="http://www.inkscape.org/namespaces/inkscape"
   xmlns:sodipodi="http://sodipodi.sourceforge.net/DTD/sodipodi-0.dtd"
   xmlns="http://www.w3.org/2000/svg"
   xmlns:svg="http://www.w3.org/2000/svg">
  <sodipodi:namedview
     id="namedview1"
     pagecolor="#ffffff"
     bordercolor="#000000"
     borderopacity="0.25"
     inkscape:showpageshadow="2"
     inkscape:pageopacity="0.0"
     inkscape:pagecheckerboard="0"
     inkscape:deskcolor="#d1d1d1" />
  <!-- Generator: Sketch 49 (51002) - http://www.bohemiancoding.com/sketch -->
  <title
     id="title1">Path 2</title>
  <desc
     id="desc1">Created with Sketch.</desc>
  <defs
     id="defs1">
    <inkscape:path-effect
       effect="spiro"
       id="path-effect59"
       is_visible="true"
       lpeversion="1" />
    <inkscape:path-effect
       effect="spiro"
       id="path-effect58"
       is_visible="true"
       lpeversion="1" />
    <inkscape:path-effect
       effect="spiro"
       id="path-effect57"
       is_visible="true"
       lpeversion="1" />
    <inkscape:path-effect
       effect="spiro"
       id="path-effect56"
       is_visible="true"
       lpeversion="1" />
    <inkscape:path-effect
       effect="spiro"
       id="path-effect55"
       is_visible="true"
       lpeversion="1" />
    <inkscape:path-effect
       effect="spiro"
       id="path-effect54"
       is_visible="true"
       lpeversion="1" />
    <inkscape:path-effect
       effect="spiro"
       id="path-effect53"
       is_visible="true"
       lpeversion="1" />
    <inkscape:path-effect
       effect="spiro"
       id="path-effect52"
       is_visible="true"
       lpeversion="1" />
    <inkscape:path-effect
       effect="spiro"
       id="path-effect51"
       is_visible="true"
       lpeversion="1" />
    <inkscape:path-effect
       effect="spiro"
       id="path-effect50"
       is_visible="true"
       lpeversion="1" />
    <inkscape:path-effect
       effect="spiro"
       id="path-effect49"
       is_visible="true"
       lpeversion="1" />
    <inkscape:path-effect
       effect="spiro"
       id="path-effect48"
       is_visible="true"
       lpeversion="1" />
    <inkscape:path-effect
       effect="spiro"
       id="path-effect47"
       is_visible="true"
       lpeversion="1" />
    <inkscape:path-effect
       effect="spiro"
       id="path-effect46"
       is_visible="true"
       lpeversion="1" />
    <inkscape:path-effect
       effect="spiro"
       id="path-effect45"
       is_visible="true"
       lpeversion="1" />
    <inkscape:path-effect
       effect="spiro"
       id="path-effect44"
       is_visible="true"
       lpeversion="1" />
    <inkscape:path-effect
       effect="spiro"
       id="path-effect43"
       is_visible="true"
       lpeversion="1" />
    <inkscape:path-effect
       effect="spiro"
       id="path-effect42"
       is_visible="true"
       lpeversion="1" />
    <inkscape:path-effect
       effect="spiro"
       id="path-effect41"
       is_visible="true"
       lpeversion="1" />
    <inkscape:path-effect
       effect="spiro"
       id="path-effect40"
       is_visible="true"
       lpeversion="1" />
    <inkscape:path-effect
       effect="spiro"
       id="path-effect39"
       is_visible="true"
       lpeversion="1" />
    <inkscape:path-effect
       effect="spiro"
       id="path-effect38"
       is_visible="true"
       lpeversion="1" />
    <inkscape:path-effect
       effect="spiro"
       id="path-effect37"
       is_visible="true"
       lpeversion="1" />
    <inkscape:path-effect
       effect="spiro"
       id="path-effect36"
       is_visible="true"
       lpeversion="1" />
    <inkscape:path-effect
       effect="spiro"
       id="path-effect35"
       is_visible="true"
       lpeversion="1" />
    <inkscape:path-effect
       effect="spiro"
       id="path-effect34"
       is_visible="true"
       lpeversion="1" />
    <inkscape:path-effect
       effect="spiro"
       id="path-effect33"
       is_visible="true"
       lpeversion="1" />
    <inkscape:path-effect
       effect="spiro"
       id="path-effect32"
       is_visible="true"
       lpeversion="1" />
    <inkscape:path-effect
       effect="spiro"
       id="path-effect31"
       is_visible="true"
       lpeversion="1" />
    <inkscape:path-effect
       effect="spiro"
       id="path-effect30"
       is_visible="true"
       lpeversion="1" />
    <inkscape:path-effect
       effect="spiro"
       id="path-effect29"
       is_visible="true"
       lpeversion="1" />
    <inkscape:path-effect
       effect="spiro"
       id="path-effect28"
       is_visible="true"
       lpeversion="1" />
    <inkscape:path-effect
       effect="spiro"
       id="path-effect27"
       is_visible="true"
       lpeversion="1" />
    <inkscape:path-effect
       effect="spiro"
       id="path-effect26"
       is_visible="true"
       lpeversion="1" />
    <inkscape:path-effect
       effect="spiro"
       id="path-effect25"
       is_visible="true"
       lpeversion="1" />
    <inkscape:path-effect
       effect="spiro"
       id="path-effect24"
       is_visible="true"
       lpeversion="1" />
    <inkscape:path-effect
       effect="spiro"
       id="path-effect23"
       is_visible="true"
       lpeversion="1" />
    <inkscape:path-effect
       effect="spiro"
       id="path-effect22"
       is_visible="true"
       lpeversion="1" />
    <inkscape:path-effect
       effect="spiro"
       id="path-effect21"
       is_visible="true"
       lpeversion="1" />
    <inkscape:path-effect
       effect="spiro"
       id="path-effect20"
       is_visible="true"
       lpeversion="1" />
    <inkscape:path-effect
       effect="spiro"
       id="path-effect19"
       is_visible="true"
       lpeversion="1" />
    <inkscape:path-effect
       effect="spiro"
       id="path-effect18"
       is_visible="true"
       lpeversion="1" />
    <inkscape:path-effect
       effect="spiro"
       id="path-effect17"
       is_visible="true"
       lpeversion="1" />
    <inkscape:path-effect
       effect="spiro"
       id="path-effect16"
       is_visible="true"
       lpeversion="1" />
    <inkscape:path-effect
       effect="spiro"
       id="path-effect15"
       is_visible="true"
       lpeversion="1" />
    <inkscape:path-effect
       effect="spiro"
       id="path-effect14"
       is_visible="true"
       lpeversion="1" />
    <inkscape:path-effect
       effect="spiro"
       id="path-effect13"
       is_visible="true"
       lpeversion="1" />
    <inkscape:path-effect
       effect="spiro"
       id="path-effect12"
       is_visible="true"
       lpeversion="1" />
    <inkscape:path-effect
       effect="spiro"
       id="path-effect11"
       is_visible="true"
       lpeversion="1" />
    <inkscape:path-effect
       effect="spiro"
       id="path-effect10"
       is_visible="true"
       lpeversion="1" />
    <inkscape:path-effect
       effect="spiro"
       id="path-effect9"
       is_visible="true"
       lpeversion="1" />
    <inkscape:path-effect
       effect="spiro"
       id="path-effect8"
       is_visible="true"
       lpeversion="1" />
    <inkscape:path-effect
       effect="spiro"
       id="path-effect7"
       is_visible="true"
       lpeversion="1" />
    <inkscape:path-effect
       effect="spiro"
       id="path-effect6"
       is_visible="true"
       lpeversion="1" />
    <inkscape:path-effect
       effect="spiro"
       id="path-effect5"
       is_visible="true"
       lpeversion="1" />
    <inkscape:path-effect
       effect="spiro"
       id="path-effect4"
       is_visible="true"
       lpeversion="1" />
    <inkscape:path-effect
       effect="spiro"
       id="path-effect3"
       is_visible="true"
       lpeversion="1" />
    <inkscape:path-effect
       effect="spiro"
       id="path-effect2"
       is_visible="true"
       lpeversion="1" />
    <inkscape:path-effect
       effect="spiro"
       id="path-effect1"
       is_visible="true"
       lpeversion="1" />
  </defs>
  <path
     style="fill:none;stroke:#979797;stroke-width:0.9;stroke-dasharray:none;stroke-opacity:1"
     d="m 0.78857626,5.1730605 c 0.0113792,-0.0096 0.0219437,-0.020164 0.0315431,-0.031543 0.0493642,-0.058517 0.0710682,-0.136201 0.0760636,-0.2125951 0.004995,-0.076394 -0.005324,-0.1528338 -0.0129775,-0.2290076 -0.0189566,-0.1886718 -0.0215931,-0.3793867 0,-0.567775 C 0.9305197,3.7193492 1.0965614,3.320849 1.3563512,2.9965899 1.3704415,2.6788005 1.338462,2.3590048 1.2617221,2.0502984 1.2432523,1.9759987 1.2222067,1.9023393 1.198636,1.829497"
     id="path1"
     inkscape:path-effect="#path-effect1"
     inkscape:original-d="m 0.78857626,5.1730605 c 0,-0.084115 -0.0105143,0.010514 0.0315431,-0.031543 0.005143,-0.00514 0.0607501,-0.4088957 0.0630861,-0.4416027 0.0134841,-0.1887774 -0.0234746,-0.3799781 0,-0.567775 C 0.93556947,3.7132278 1.1359642,3.3446167 1.3563512,2.9965899 1.4348292,2.6682325 1.3322977,2.3678887 1.2617221,2.0502984 1.2514842,2.0042278 1.198636,1.8672076 1.198636,1.829497" />
  <path
     style="fill:none;stroke:#979797;stroke-width:0.9;stroke-dasharray:none;stroke-opacity:1"
     d="m 0.7254902,9.084399 c -0.00359,0.2102666 -0.00359,0.4205944 0,0.630861 0.004978,0.291554 0.0198817,0.594698 0.15771526,0.851662 0.0359163,0.06696 0.0795928,0.129479 0.11641275,0.195945 0.03682,0.06647 0.0670899,0.13835 0.0728456,0.214115 0.00478,0.06297 -0.00751,0.126556 0,0.189258 0.00794,0.06626 0.037452,0.127642 0.063086,0.189259 0.066855,0.160701 0.109538,0.331433 0.1261722,0.504689"
     id="path2"
     inkscape:path-effect="#path-effect2"
     inkscape:original-d="m 0.7254902,9.084399 c 0,0.210287 -0.0161283,0.4211934 0,0.630861 0.009893,0.1286064 0.0877005,0.641618 0.15771526,0.851662 0.0437165,0.13115 0.16619654,0.27169 0.18925834,0.41006 0.00992,0.05953 -0.011918,0.129668 0,0.189258 0.014577,0.07288 0.046107,0.121343 0.063086,0.189259 0.043706,0.174823 -0.028002,0.350515 0.1261722,0.504689" />
  <path
     style="fill:none;stroke:#979797;stroke-width:0.9;stroke-dasharray:none;stroke-opacity:1"
     d="m 1.2617221,15.70844 c -0.092594,0.494561 -0.1872246,0.988741 -0.28388749,1.482523 -0.10696322,0.546399 -0.21642137,1.092343 -0.31543052,1.640239 -0.0172499,0.09546 -0.0342537,0.191269 -0.0630861,0.283888 -0.0296632,0.09529 -0.071715,0.186755 -0.0946292,0.283887 -0.0412495,0.174854 -0.0184294,0.357526 0,0.536232 0.0734736,0.712457 0.0734736,1.43247 0,2.144927"
     id="path3"
     inkscape:path-effect="#path-effect3"
     inkscape:original-d="m 1.2617221,15.70844 c -0.094629,0.494174 -0.185211,0.989141 -0.28388749,1.482523 -0.69770837,3.314115 -0.0435654,0.07701 -0.31543052,1.640239 -0.0166094,0.0955 -0.0324318,0.191925 -0.0630861,0.283888 -0.0976731,0.293019 -0.0583544,-0.187684 -0.0946292,0.283887 -0.0136733,0.177753 0.0118597,0.358337 0,0.536232 -0.0475851,0.713776 0,1.427826 0,2.144927" />
  <path
     style="fill:none;stroke:#979797;stroke-width:0.9;stroke-dasharray:none;stroke-opacity:1"
     d="M 1.2932651,27.473998 1.1670929,31.669224"
     id="path4"
     inkscape:path-effect="#path-effect4"
     inkscape:original-d="M 1.2932651,27.473998 C 1.127933,28.866161 1.1670929,30.269686 1.1670929,31.669224" />
  <path
     style="fill:none;stroke:#979797;stroke-width:0.9;stroke-dasharray:none;stroke-opacity:1"
     d="m 1.4509804,35.202046 c -0.3275566,0.495073 -0.55430281,1.05654 -0.6624041,1.640239 -0.0174364,0.09415 -0.0314717,0.193457 0,0.283887 0.017411,0.05003 0.047963,0.09451 0.0821071,0.135011 0.0341441,0.0405 0.0721272,0.07759 0.10715117,0.117334 0.11915319,0.135198 0.20251789,0.299959 0.25234439,0.473145 0.073341,0.254916 0.074972,0.526899 0.031543,0.788577 -0.058141,0.350321 -0.1952696,0.686727 -0.2208014,1.040921 -0.019709,0.273416 0.027614,0.552452 -0.031543,0.820119 -0.00936,0.04233 -0.0213224,0.08404 -0.0315431,0.126172 -0.0678241,0.279586 -0.0567769,0.577859 0.0315431,0.851662"
     id="path5"
     inkscape:path-effect="#path-effect5"
     inkscape:original-d="m 1.4509804,35.202046 c -0.3624968,0.487965 -0.63170463,1.026249 -0.6624041,1.640239 -0.004726,0.09451 -0.0314945,0.194653 0,0.283887 0.0349939,0.09915 0.13093519,0.16486 0.18925831,0.252345 0.0454244,0.06814 0.22960679,0.404932 0.25234439,0.473145 0.072639,0.217918 0.049243,0.567331 0.031543,0.788577 -0.034544,0.431797 -0.1508245,0.644385 -0.2208014,1.040921 -0.0485239,0.274969 -0.00658,0.545573 -0.031543,0.820119 -0.00392,0.04317 -0.0267557,0.08309 -0.0315431,0.126172 -0.0214581,0.193123 -0.0336097,0.656204 0.0315431,0.851662" />
  <path
     style="fill:none;stroke:#979797;stroke-width:0.9;stroke-dasharray:none;stroke-opacity:1"
     d="m 0.97783461,46.904518 c 0.0280927,0.336771 0.059638,0.673254 0.0946292,1.009378 0.058981,0.56657 0.1278433,1.133695 0.1261722,1.703325 -2.505e-4,0.08539 -0.00156,0.173636 0.031543,0.252344 0.032952,0.07835 0.096482,0.13891 0.1481691,0.206389 0.025844,0.03374 0.049136,0.06996 0.063569,0.109935 0.014432,0.03997 0.019605,0.08411 0.00906,0.125279 -0.00958,0.03743 -0.03222,0.07139 -0.063086,0.09463 -0.023159,0.121407 -0.065938,0.239049 -0.1261722,0.346974 -0.034465,0.06175 -0.075021,0.121312 -0.094629,0.189258 -0.023541,0.08158 -0.015073,0.169052 -0.031543,0.252345 -0.014861,0.07516 -0.049722,0.145362 -0.063086,0.220801 -0.012874,0.07268 -0.00531,0.147185 0,0.220801 0.00557,0.07715 0.0086,0.155095 -0.00353,0.231485 -0.012126,0.07639 -0.040339,0.15176 -0.091101,0.210118 -0.009766,0.01123 -0.0203145,0.02178 -0.0315431,0.03154"
     id="path6"
     inkscape:path-effect="#path-effect6"
     inkscape:original-d="m 0.97783461,46.904518 c 0.0315431,0.33646 0.0614724,0.673074 0.0946292,1.009378 0.3265886,3.312542 0.055648,0.08127 0.1261722,1.703325 0.00368,0.08469 0.00474,0.171925 0.031543,0.252344 0.026213,0.07864 0.2705279,0.34215 0.2208014,0.441603 -0.016954,0.03391 -0.042057,0.06309 -0.063086,0.09463 -0.042057,0.115658 -0.079314,0.233176 -0.1261722,0.346974 -0.026855,0.06522 -0.075252,0.121439 -0.094629,0.189258 -0.023288,0.08151 -0.014918,0.169221 -0.031543,0.252345 -0.015012,0.07506 -0.052261,0.145025 -0.063086,0.220801 -0.010409,0.07286 0.00611,0.147455 0,0.220801 -0.00207,0.02487 -0.0810661,0.414477 -0.0946292,0.441603 -0.0420574,0.08411 -0.0315431,-0.09463 -0.0315431,0.03154" />
  <path
     style="fill:none;stroke:#979797;stroke-width:0.9;stroke-dasharray:none;stroke-opacity:1"
     d="m 1.4509804,58.007673 c -0.048878,0.401617 -0.1120171,0.801498 -0.1892583,1.198636 -0.070686,0.363434 -0.153577,0.72591 -0.28388749,1.072464 -0.0613277,0.163098 -0.13316589,0.322539 -0.22080136,0.473145 -0.0355633,0.06112 -0.0740911,0.121596 -0.0946292,0.189259 -0.0283761,0.09348 -0.0203032,0.19465 0.002825,0.28957 0.0231279,0.09492 0.0607374,0.18558 0.0918045,0.278205 0.15917854,0.474584 0.14298205,0.994517 0.0315431,1.482523 -0.0454608,0.199079 -0.10778089,0.3977 -0.22080136,0.567775 -0.0446928,0.06725 -0.096801,0.129254 -0.14348672,0.195141 -0.0466857,0.06589 -0.08841,0.136801 -0.1088577,0.214919 -0.0188424,0.07199 -0.0188424,0.148816 0,0.220801"
     id="path7"
     inkscape:path-effect="#path-effect7"
     inkscape:original-d="m 1.4509804,58.007673 c -0.063086,0.399545 -0.1067598,0.802643 -0.1892583,1.198636 -0.075422,0.362027 -0.1691008,0.720929 -0.28388749,1.072464 -0.0540234,0.165446 -0.14597423,0.316008 -0.22080136,0.473145 -0.0303242,0.06368 -0.0775225,0.120832 -0.0946292,0.189259 -0.0498987,0.199594 0.0617944,0.381711 0.0946292,0.567775 0.0819229,0.464229 0.10583725,1.018184 0.0315431,1.482523 -0.0189918,0.118699 -0.16663783,0.466218 -0.22080136,0.567775 -0.0669426,0.125517 -0.20596207,0.270913 -0.25234442,0.41006 -0.0189479,0.05684 0,0.159768 0,0.220801" />
  <path
     style="fill:none;stroke:#979797;stroke-width:0.9;stroke-dasharray:none;stroke-opacity:1"
     d="m 0.97783461,70.719523 c 0.25367439,0.805645 0.39219959,1.647451 0.41005969,2.491901 0.00446,0.210655 0.00151,0.42231 0.031543,0.630861 0.010599,0.07361 0.025293,0.1467 0.031543,0.220801 0.016546,0.196173 -0.028098,0.397073 -0.1261722,0.567775"
     id="path8"
     inkscape:path-effect="#path-effect8"
     inkscape:original-d="m 0.97783461,70.719523 c 0.32962769,2.582083 0.0159068,0.471868 0.41005969,2.491901 0.042149,0.216012 0.00497,0.418242 0.031543,0.630861 0.025385,0.203076 0.056156,-0.02533 0.031543,0.220801 -0.018923,0.18923 -0.080074,0.383381 -0.1261722,0.567775" />
  <path
     style="fill:none;stroke:#979797;stroke-width:0.9;stroke-dasharray:none;stroke-opacity:1"
     d="m 1.4825234,82.926684 c 0.1963951,0.43961 0.2749873,0.931198 0.2254429,1.410128 -0.049545,0.47893 -0.2271034,0.944019 -0.5093303,1.334117 -0.076606,0.105886 -0.1606884,0.206274 -0.23530323,0.313572 -0.0746148,0.107298 -0.14020537,0.222792 -0.17475647,0.348833 -0.0376784,0.13745 -0.0371612,0.282251 -0.0312051,0.424647 0.005956,0.142396 0.0170544,0.28556 -3.3801e-4,0.427015 -0.0183806,0.149493 -0.0681458,0.293331 -0.0946292,0.441603 -0.0297346,0.166474 -0.0297346,0.338214 0,0.504688"
     id="path9"
     inkscape:path-effect="#path-effect9"
     inkscape:original-d="m 1.4825234,82.926684 c -0.028298,0.910242 0.072245,1.879352 -0.2838874,2.744245 -0.1394425,0.338646 -0.30216542,0.338722 -0.4100597,0.662405 -0.0856084,0.256825 -0.0112137,0.587381 -0.0315431,0.851662 -0.0113082,0.147006 -0.0705768,0.297289 -0.0946292,0.441603 -0.0257594,0.154556 0,0.349102 0,0.504688" />
  <path
     style="fill:none;stroke:#979797;stroke-width:0.9;stroke-dasharray:none;stroke-opacity:1"
     d="m 1.198636,94.849958 c 0.210086,1.036257 0.2950117,2.097828 0.2523444,3.154305 -0.014451,0.357822 -0.043461,0.714889 -0.063086,1.072464 -0.00648,0.118155 -0.012782,0.239865 -0.063086,0.346973 -0.02608,0.05553 -0.06312,0.105074 -0.094629,0.157715 -0.079526,0.132863 -0.1235031,0.286783 -0.1261722,0.441605"
     id="path10"
     inkscape:path-effect="#path-effect10"
     inkscape:original-d="m 1.198636,94.849958 c -0.1761038,1.01349 0.1577292,2.145076 0.2523444,3.154305 0.04969,0.53003 0.00245,0.613698 -0.063086,1.072464 -0.027064,0.189447 -0.00811,0.209535 -0.063086,0.346973 -0.023392,0.05848 -0.068523,0.105502 -0.094629,0.157715 -0.069362,0.138724 -0.05537,0.299999 -0.1261722,0.441605" />
  <path
     style="fill:none;stroke:#979797;stroke-width:0.9;stroke-dasharray:none;stroke-opacity:1"
     d="m 1.230179,103.7451 c -0.2169943,1.02397 -0.2598487,2.08462 -0.1261722,3.12276 0.022926,0.17805 0.051051,0.35778 0.031543,0.53623 -0.024472,0.22387 -0.1261704,0.43857 -0.28388749,0.59932"
     id="path11"
     inkscape:path-effect="#path-effect11"
     inkscape:original-d="m 1.230179,103.7451 c -0.1675652,1.03612 -0.1261722,2.07991 -0.1261722,3.12276 0,0.17017 0.06489,0.3695 0.031543,0.53623 -0.043404,0.21702 -0.21491548,0.3924 -0.28388749,0.59932" />
  <path
     style="fill:none;stroke:#979797;stroke-width:0.9;stroke-dasharray:none;stroke-opacity:1"
     d="m 1.4194373,114.53282 c 0.076793,0.98616 0.087338,1.97748 0.031543,2.96505 -0.011286,0.19976 -0.025243,0.40084 0,0.59932 0.018713,0.14714 0.058867,0.29581 0.031543,0.4416 -0.00989,0.0528 -0.028538,0.10411 -0.031543,0.15771 -0.00295,0.0526 0.0093,0.10587 0,0.15772 -0.00626,0.0349 -0.022035,0.0674 -0.03997,0.098 -0.017935,0.0306 -0.038209,0.0598 -0.054659,0.0913 -0.060558,0.11567 -0.065161,0.25132 -0.094629,0.37852 -0.02253,0.0973 -0.059906,0.19029 -0.094629,0.28388 -0.09074,0.24457 -0.1645261,0.49736 -0.18925829,0.75704 -0.006082,0.0639 -0.0094,0.12904 -0.0315431,0.18925 -0.0162441,0.0442 -0.0420697,0.0841 -0.0630861,0.12618 -0.0537493,0.10769 -0.0753274,0.22817 -0.0946292,0.34697 -0.0205136,0.12626 -0.0391619,0.25286 -0.0630861,0.37852 -0.038666,0.20309 -0.0911108,0.40359 -0.15771526,0.59931 -0.0519872,0.15276 -0.11306693,0.30462 -0.13022795,0.46508 -0.008581,0.0802 -0.00586,0.16222 0.0144766,0.24029 0.0203365,0.0781 0.0588234,0.1522 0.11575137,0.20938 0.010486,0.0105 0.0215721,0.0205 0.0315431,0.0315 0.0329803,0.0364 0.0526131,0.0837 0.0608179,0.13217 0.008205,0.0485 0.005484,0.0983 -0.002232,0.1468 -0.0154333,0.0971 -0.0506288,0.19081 -0.0585855,0.2888 -0.00721,0.0888 0.00834,0.17831 0.0354176,0.26318 0.0270774,0.0849 0.0655026,0.16562 0.10512854,0.24541 0.0792519,0.15957 0.16561731,0.32287 0.17488442,0.50079 0.008413,0.16152 -0.0477027,0.31836 -0.0946292,0.47314 -0.0373036,0.12304 -0.0694902,0.25011 -0.0630861,0.37852 0.009165,0.18378 0.0962301,0.35467 0.12617221,0.53623 0.0154671,0.0938 0.0154671,0.1901 0,0.28389"
     id="path12"
     inkscape:path-effect="#path-effect12"
     inkscape:original-d="m 1.4194373,114.53282 c -0.1746936,0.98276 -0.015355,1.9802 0.031543,2.96505 0.0095,0.19955 -0.00688,0.39966 0,0.59932 0.00254,0.0735 0.044754,0.3227 0.031543,0.4416 -0.00592,0.0533 -0.026208,0.10437 -0.031543,0.15771 -0.00523,0.0523 0.013833,0.107 0,0.15772 -0.018558,0.068 -0.072325,0.12235 -0.094629,0.18926 -0.041127,0.12338 -0.0589,0.25346 -0.094629,0.37852 -0.027403,0.0959 -0.069596,0.18733 -0.094629,0.28388 -0.065278,0.25179 -0.1261722,0.50469 -0.18925829,0.75704 -0.0155117,0.062 -0.0131653,0.128 -0.0315431,0.18925 -0.0135116,0.045 -0.0445634,0.083 -0.0630861,0.12618 -0.0457139,0.10666 -0.0719831,0.23374 -0.0946292,0.34697 -0.0250857,0.12543 -0.0320627,0.25442 -0.0630861,0.37852 -0.0520175,0.20807 -0.14402216,0.38022 -0.15771526,0.59931 -0.005542,0.0887 -0.0306718,0.82274 0,0.91475 0.004702,0.0141 0.0268409,0.0174 0.0315431,0.0315 0.0493361,0.148 -0.0245907,0.40793 0,0.56777 0.053873,0.35018 0.24655187,0.66499 0.31543052,1.00938 0.032944,0.16472 -0.0386271,0.33314 -0.0946292,0.47314 -0.0412631,0.10316 -0.0496026,0.27065 -0.0630861,0.37852 -0.036423,0.29139 0.006612,0.29711 0.12617221,0.53623 0.0323018,0.0646 0,0.2115 0,0.28389" />
  <path
     style="fill:none;stroke:#979797;stroke-width:0.9;stroke-dasharray:none;stroke-opacity:1"
     d="m 0.91474851,129.95737 c -0.30119761,0.3571 -0.47373415,0.82048 -0.47943084,1.28761 -0.005697,0.46713 0.15548819,0.93458 0.44788774,1.29892 0.0362552,0.0452 0.0746487,0.0891 0.10357142,0.13929 0.0289228,0.0502 0.0480929,0.10809 0.0418285,0.16568 -0.00313,0.0288 -0.012718,0.0571 -0.0291447,0.0809 -0.0164269,0.0239 -0.0398321,0.0431 -0.0670028,0.0532 -0.0271707,0.01 -0.058054,0.0105 -0.0849502,-2.7e-4 -0.0268962,-0.0107 -0.0493328,-0.0329 -0.0589314,-0.0602 -0.007105,-0.0202 -0.007105,-0.0429 0,-0.0631"
     id="path13"
     inkscape:path-effect="#path-effect13"
     inkscape:original-d="m 0.91474851,129.95737 c 0,0.68746 0.0105112,1.89965 -0.0315431,2.58653 -0.007948,0.12982 -0.0364666,0.2622 -0.0946292,0.37852 -0.009404,0.0188 0,-0.0421 0,-0.0631" />
  <path
     style="fill:none;stroke:#979797;stroke-width:0.9;stroke-dasharray:none;stroke-opacity:1"
     d="m 1.230179,139.01023 c 0.035168,0.6171 0.1303916,1.23076 0.2838875,1.8295 0.098262,0.38329 0.2214768,0.77658 0.1577153,1.16709 -0.057193,0.35028 -0.2585168,0.6569 -0.4100597,0.97784 -0.2362776,0.50039 -0.35598295,1.05539 -0.34697359,1.60869 l -0.0630861,0.15772 c 0.009855,0.0137 0.015284,0.0305 0.015284,0.0473 0,0.0168 -0.005429,0.0336 -0.015284,0.0473 -0.008713,0.0121 -0.0205383,0.0215 -0.0315431,0.0315 -0.042605,0.0388 -0.0744134,0.0894 -0.0909789,0.14462 -0.0165655,0.0552 -0.0178417,0.11493 -0.00365,0.17081"
     id="path14"
     inkscape:path-effect="#path-effect14"
     inkscape:original-d="m 1.230179,139.01023 c 0.094629,0.60983 0.1939137,1.21896 0.2838875,1.8295 0.057234,0.38837 0.1577153,0.77452 0.1577153,1.16709 0,0.48413 -0.2187341,0.59518 -0.4100597,0.97784 -0.2490388,0.49807 -0.2145453,1.07898 -0.34697359,1.60869 -0.0210287,0.0526 -0.0420574,0.10514 -0.0630861,0.15772 0,0.0315 0.00765,0.064 0,0.0946 -0.003606,0.0144 -0.0248932,0.0182 -0.0315431,0.0315 -0.0490655,0.0981 -0.0946292,0.20197 -0.0946292,0.31543" />
  <path
     style="fill:none;stroke:#979797;stroke-width:0.9;stroke-dasharray:none;stroke-opacity:1"
     d="m 0.91474851,149.10401 c 0.31187589,0.42336 0.51333559,0.92734 0.57923329,1.44904 0.065898,0.52169 -0.00391,1.05993 -0.2007167,1.54755 -0.1075225,0.26641 -0.2519296,0.51746 -0.34697354,0.78857 -0.10251457,0.29242 -0.14569786,0.6055 -0.12617221,0.91475"
     id="path15"
     inkscape:path-effect="#path-effect15"
     inkscape:original-d="m 0.91474851,149.10401 c -0.22372236,1.03864 0.60474779,1.97855 0.37851659,2.99659 -0.042326,0.19046 -0.2912929,0.61457 -0.34697354,0.78857 -0.0954745,0.29836 -0.0517909,0.61723 -0.12617221,0.91475" />
  <path
     style="fill:none;stroke:#979797;stroke-width:0.9;stroke-dasharray:none;stroke-opacity:1"
     d="m 1.1355499,157.24211 c -0.21059112,0.64969 -0.30712852,1.33618 -0.28388749,2.01876 0.009675,0.28416 0.0398135,0.57013 0,0.85166 -0.0239739,0.16952 -0.0730432,0.33485 -0.0946292,0.50469 -0.0398097,0.31323 0.0149304,0.63089 0,0.94629 -0.008606,0.18179 -0.0404904,0.36247 -0.0946292,0.53623"
     id="path16"
     inkscape:path-effect="#path-effect16"
     inkscape:original-d="m 1.1355499,157.24211 c 0,0.85858 0.00793,-0.7697 -0.28388749,2.01876 -0.0295478,0.28235 0.008108,0.56789 0,0.85166 -0.005147,0.18015 -0.0756139,0.33355 -0.0946292,0.50469 -0.0346204,0.31158 0.0346204,0.63471 0,0.94629 -0.0200386,0.18035 -0.0946292,0.35692 -0.0946292,0.53623" />
  <path
     style="fill:none;stroke:#979797;stroke-width:0.9;stroke-dasharray:none;stroke-opacity:1"
     d="m 1.1670929,166.35806 c -0.093202,0.51143 -0.071486,1.04347 0.063086,1.54561 0.073355,0.27371 0.179927,0.53971 0.2208014,0.82012 0.047085,0.32302 0.00513,0.65144 0,0.97783 -0.00578,0.36817 0.035416,0.7375 0,1.10401 -0.020456,0.21169 -0.066286,0.42008 -0.094629,0.63086 -0.011297,0.084 -0.019812,0.16839 -0.031543,0.25234 -0.045754,0.32745 -0.1408105,0.64822 -0.2838875,0.94629 -0.040698,0.0848 -0.0852241,0.16769 -0.12617219,0.25235 -0.11172966,0.23101 -0.1965964,0.475 -0.25234442,0.72549"
     id="path17"
     inkscape:path-effect="#path-effect17"
     inkscape:original-d="m 1.1670929,166.35806 c 0.021029,0.5152 0.00165,1.03365 0.063086,1.54561 0.033731,0.28109 0.1620554,0.54317 0.2208014,0.82012 0.038715,0.18251 0,0.78331 0,0.97783 0,0.36492 0.022777,0.73958 0,1.10401 -0.010419,0.1667 -0.073423,0.48948 -0.094629,0.63086 -0.012575,0.0838 -0.012281,0.16979 -0.031543,0.25234 -0.056094,0.24041 -0.1638217,0.67186 -0.2838875,0.94629 -0.037694,0.0862 -0.0903653,0.16539 -0.12617219,0.25235 -0.0984142,0.239 -0.1502742,0.48732 -0.25234442,0.72549" />
  <path
     style="fill:none;stroke:#979797;stroke-width:0.9;stroke-dasharray:none;stroke-opacity:1"
     d="m 0.50468883,177.3035 c 0.31750338,0.73256 0.46955665,1.53627 0.44160273,2.33418 -0.0118359,0.33784 -0.0547466,0.68253 0.0315431,1.00938 0.0569154,0.21559 0.16814004,0.4142 0.22080134,0.63086 0.074868,0.30803 0.027053,0.63045 0,0.94629 -0.042217,0.49288 -0.032707,0.98878 -0.063086,1.48253 -0.031358,0.50965 -0.1052994,1.01668 -0.22080134,1.51406"
     id="path18"
     inkscape:path-effect="#path-effect18"
     inkscape:original-d="m 0.50468883,177.3035 c 0.28935631,1.23634 0.3599864,1.27317 0.44160273,2.33418 0.0252087,0.32771 -0.0462603,0.6852 0.0315431,1.00938 0.30699604,1.27915 0.0510247,-0.27462 0.22080134,0.63086 0.060298,0.32159 0.013497,0.62237 0,0.94629 -0.020572,0.49373 -0.02307,0.989 -0.063086,1.48253 -0.041313,0.50952 -0.22080134,1.00135 -0.22080134,1.51406" />
  <path
     style="fill:none;stroke:#979797;stroke-width:0.9;stroke-dasharray:none;stroke-opacity:1"
     d="m 0.97783461,188.8798 0.0630861,2.01875"
     id="path19"
     inkscape:path-effect="#path-effect19"
     inkscape:original-d="m 0.97783461,188.8798 c 0.29875819,0.71247 0.0630861,1.33349 0.0630861,2.01875" />
  <path
     style="fill:none;stroke:#979797;stroke-width:0.9;stroke-dasharray:none;stroke-opacity:1"
     d="m 1.3248082,194.36829 c -0.1579497,0.46835 -0.2536803,0.95764 -0.2838875,1.45098 -0.022502,0.3675 -0.00882,0.73651 -0.031543,1.104 -0.0319238,0.51625 -0.13560277,1.02846 -0.12617224,1.54561 0.004993,0.27378 0.0416064,0.54947 0,0.82012 -0.0213224,0.1387 -0.0628589,0.27337 -0.0946292,0.41006 -0.0650057,0.27968 -0.0889567,0.56696 -0.12617221,0.85167 -0.0179256,0.13714 -0.0389615,0.27387 -0.0630861,0.41005"
     id="path20"
     inkscape:path-effect="#path-effect20"
     inkscape:original-d="m 1.3248082,194.36829 c -0.094629,0.48366 -0.2235027,0.96186 -0.2838875,1.45098 -0.0451084,0.36538 -0.016217,0.73617 -0.031543,1.104 -0.0215359,0.51687 -0.0939713,1.0304 -0.12617224,1.54561 -0.016881,0.2701 0.0245566,0.55 0,0.82012 -0.0380917,0.41901 -0.0105865,0.0319 -0.0946292,0.41006 -0.0622765,0.28025 -0.0825899,0.56838 -0.12617221,0.85167 -0.0222244,0.14445 -0.0630861,0.26601 -0.0630861,0.41005" />
  <path
     style="fill:none;stroke:#979797;stroke-width:0.9;stroke-dasharray:none;stroke-opacity:1"
     d="m 0.7254902,204.96675 v 1.1671 1.89258 0.31543 c 0,0.0211 -7.3588e-4,0.0421 -0.00193,0.0632 -0.001194,0.021 -0.002458,0.0424 0.00193,0.063 0.004843,0.0228 0.0169092,0.0439 0.0340241,0.0597 0.017115,0.0158 0.039198,0.026 0.0622721,0.029 0.0230741,0.003 0.0470299,-0.001 0.0675531,-0.0124 0.0205232,-0.011 0.0375164,-0.0284 0.0479193,-0.0492 0.0104029,-0.0208 0.0141662,-0.0449 0.0106121,-0.0679 -0.003554,-0.023 -0.0144087,-0.0448 -0.0306091,-0.0615 -0.0162003,-0.0167 -0.0376695,-0.0282 -0.0605411,-0.0324 -0.0228716,-0.004 -0.0470371,-0.001 -0.0681445,0.009"
     id="path21"
     inkscape:path-effect="#path-effect21"
     inkscape:original-d="m 0.7254902,204.96675 c 0,0.38903 0,0.77806 0,1.1671 0,0.63086 0,1.26172 0,1.89258 0,0.10514 0,0.21029 0,0.31543 0,0.0421 -0.0420574,0.12617 0,0.12617 0.0470216,0 0.0420574,-0.0841 0.0630861,-0.12617" />
  <path
     style="fill:none;stroke:#979797;stroke-width:0.9;stroke-dasharray:none;stroke-opacity:1"
     d="M 0.78857635,208.94126 C 0.80758334,-969677.58 399267.13,-1933591.7 1085080.5,-2619405 c 685813.3,-685813.4 1649727.5,-1085079.6 2619614,-1085079.6 969886.5,0 1933800.6,399266.3 2619614,1085079.6 C 7010121.8,-1933591.6 7409388.1,-969677.48 7409388.1,209.03916 7409388.1,970095.56 7010121.8,1934009.7 6324308.4,2619823 5638495.1,3305636.4 4674581,3704902.7 3704694.4,3704902.7 c -969886.5,0 -1933800.6,-399266.3 -2619614,-1085079.7 C 399267.1,1934009.7 0.79433558,970095.56 0.78857635,209.03586 v -0.0316 c 0,0 0,0 0,0 0,0 0,0 0,0 0,0 0,0 0,0 0,0 0,0 0,0 0,0 0,0 0,0 0,0 0,0 0,0 0,0 0,0 0,0 0,0 0,0 0,0 0,0 -2e-8,0 -1e-8,0 1e-8,0 1e-8,0 1e-8,0 0,0 10e-9,0 -1e-8,0 -10e-9,0 0,0 0,0 -2.115e-5,0 9.74e-6,1e-5 -7.47e-6,0 -1.722e-5,-10e-6 9.62e-6,1e-5 -2.69e-6,0 -1.23e-5,-2e-5 1.623e-5,1e-5 6.7e-7,0 -1.555e-5,-2e-5 2.818e-5,0 6.75e-6,0 -4.55e-6,1e-5 -2.42e-6,-10e-6 8.8e-7,0 3.31e-6,1e-5 -1.244e-5,0 -6.3e-6,0 6.13e-6,-10e-6 5.64e-6,1e-5 -4.9e-7,1e-5 -6.12e-6,-1e-5 5.87e-6,-2e-5 8.47e-6,-1e-5 1.88e-6,1e-5 -1.314e-5,1e-5 -1.309e-5,0 4e-8,-10e-6 1.402e-5,-10e-6 1.489e-5,0 8.6e-7,1e-5 -1.136e-5,1e-5 -1.561e-5,0 -4.25e-6,0 2.39e-6,-10e-6 9.83e-6,-10e-6 -3.0315e-4,9e-5 -6.321e-4,-2.2e-4 -5.9251e-4,-5.4e-4 3.959e-5,-3.1e-4 3.9267e-4,-5.3e-4 7.007e-4,-4.6e-4 3.0802e-4,7e-5 5.2959e-4,3.8e-4 5.2518e-4,7e-4 -4.4e-6,3.1e-4 -2.1217e-4,6.1e-4 -4.9299e-4,7.5e-4 -2.8082e-4,1.5e-4 -6.2246e-4,1.5e-4 -9.1974e-4,4e-5 -2.9728e-4,-1e-4 -5.5213e-4,-3.1e-4 -7.4711e-4,-5.6e-4 -3.8996e-4,-5e-4 -5.4366e-4,-0.001 -6.9536e-4,-0.002 -8.5845e-4,-2e-5 -0.001745,-1e-5 -0.002533,3.3e-4 -3.9389e-4,1.7e-4 -7.5573e-4,4.3e-4 -0.001021,7.6e-4 -2.6508e-4,3.4e-4 -4.2889e-4,7.6e-4 -4.2698e-4,0.001 1.92e-6,4.3e-4 1.7688e-4,8.6e-4 4.9549e-4,0.001 3.186e-4,2.9e-4 7.8031e-4,4.2e-4 0.001196,3.1e-4 4.1613e-4,-1e-4 7.6738e-4,-4.5e-4 8.53e-4,-8.7e-4 8.561e-5,-4.2e-4 -1.1263e-4,-8.9e-4 -4.8503e-4,-0.001 -3.6947e-4,-2.2e-4 -8.8837e-4,-1.5e-4 -0.001174,1.7e-4 -2.8607e-4,3.2e-4 -2.922e-4,8.5e-4 -8.8e-7,0.001 2.9132e-4,3.1e-4 8.43e-4,3.4e-4 0.001155,5e-5 3.1158e-4,-3e-4 3.0859e-4,-8.6e-4 -1.482e-5,-0.001 -3.2341e-4,-2.8e-4 -8.9562e-4,-2e-4 -0.001113,1.7e-4 -2.1768e-4,3.7e-4 -4.88e-6,9.2e-4 4.072e-4,0.001 4.1208e-4,1.1e-4 8.8674e-4,-2.6e-4 8.6661e-4,-6.8e-4 -2.013e-5,-4.3e-4 -5.3901e-4,-7.5e-4 -9.2832e-4,-5.8e-4 0.17665042,0.0338 0.35661334,-0.15408 0.31260434,-0.32846 -0.044009,-0.17438 -0.29538558,-0.25313 -0.42943268,-0.13322 -0.13404709,0.1199 -0.0810884,0.38089 0.089743,0.43712 0.17083147,0.0562 0.36905373,-0.12534 0.32630903,-0.30003 -0.042745,-0.1747 -0.30490029,-0.2432 -0.42658133,-0.11077 -0.12168104,0.13244 -0.0293448,0.38911 0.1489768,0.41249 0.17832154,0.0234 0.33358913,-0.20272 0.24688673,-0.36029 -0.0867025,-0.15756 -0.3619748,-0.14639 -0.43491476,0.018 -0.0661127,0.1756 0.13161728,0.38558 0.31068074,0.32954 0.17906342,-0.056 0.22129412,-0.34215 0.0657963,-0.44715 -0.15549774,-0.105 -0.40535791,0.0418 -0.38903557,0.22869 0.0163223,0.18692 0.28832515,0.28799 0.42259116,0.15693 0.1342656,-0.13106 0.03951,-0.4056 -0.14702718,-0.42581 -0.18653695,-0.0202 -0.33786628,0.22785 -0.23448785,0.38443 0.10337843,0.15658 0.39100453,0.11481 0.44554783,-0.0647 0.054543,-0.17952 -0.16125661,-0.37424 -0.33424925,-0.30159 v 0.22081"
     id="path22"
     inkscape:path-effect="#path-effect22"
     inkscape:original-d="m 0.78857635,208.94126 c 0,0.0315 0,0.063 0,0.0946 0,0.0105 0,-0.0211 0,-0.0316 0,-0.27385 0.00476,-0.10536 -0.0315431,-0.50469 0,0.0736 0,0.1472 0,0.22081" />
  <path
     style="fill:none;stroke:#979797;stroke-width:0.9;stroke-dasharray:none;stroke-opacity:1"
     d="m 0.82011935,207.58483 -0.0946292,1.54561"
     id="path23"
     inkscape:path-effect="#path-effect23"
     inkscape:original-d="m 0.82011935,207.58483 c -0.11801973,0.51353 -0.0946292,1.02644 -0.0946292,1.54561" />
  <path
     style="fill:none;stroke:#979797;stroke-width:0.9;stroke-dasharray:none;stroke-opacity:1"
     d="m 1.1670929,213.67263 c -0.2359244,0.55794 -0.36510698,1.1608 -0.3785166,1.76642 -0.00419,0.18921 0,0.37851 0,0.56777 v 1.35635"
     id="path24"
     inkscape:path-effect="#path-effect24"
     inkscape:original-d="m 1.1670929,213.67263 c -0.17068816,0.65837 -0.30576908,1.08259 -0.3785166,1.76642 -0.0200209,0.18819 0,0.37851 0,0.56777 0,0.45212 0,0.90423 0,1.35635" />
  <path
     style="fill:none;stroke:#979797;stroke-width:0.9;stroke-dasharray:none;stroke-opacity:1"
     d="m 1.2932651,223.29327 c -0.37305492,1.35189 -0.40588116,2.79624 -0.094629,4.16368 0.032267,0.14176 0.068291,0.28355 0.078139,0.4286 0.00985,0.14505 -0.00812,0.29565 -0.078139,0.42306 -0.025403,0.0462 -0.057365,0.0888 -0.094629,0.12617"
     id="path25"
     inkscape:path-effect="#path-effect25"
     inkscape:original-d="m 1.2932651,223.29327 c -0.00523,1.38963 -0.2013731,2.77601 -0.094629,4.16368 0.012484,0.16229 0.029991,0.70171 0,0.85166 -0.00923,0.0461 -0.045843,0.12617 -0.094629,0.12617" />
  <path
     style="fill:none;stroke:#979797;stroke-width:0.9;stroke-dasharray:none;stroke-opacity:1"
     d="m 1.3878943,234.04945 c 0.189265,0.8857 0.076478,1.8331 -0.3154305,2.64961 -0.12749717,0.26563 -0.28634387,0.52692 -0.31543055,0.82012 -0.0103884,0.10472 -0.003681,0.21026 0,0.31543 0.0121783,0.34793 -0.008978,0.69701 -0.0630861,1.04092"
     id="path26"
     inkscape:path-effect="#path-effect26"
     inkscape:original-d="m 1.3878943,234.04945 c -0.059871,1.37704 0.018978,1.38364 -0.3154305,2.64961 -0.034929,0.13223 -0.2761346,0.64329 -0.31543055,0.82012 -0.0400547,0.18025 0.0171663,0.1781 0,0.31543 -0.0436629,0.34931 -0.0630861,0.68712 -0.0630861,1.04092" />
  <path
     style="fill:none;stroke:#979797;stroke-width:0.9;stroke-dasharray:none;stroke-opacity:1"
     d="m 0.63086104,245.53112 c 0.38791546,1.32746 0.70396126,2.67593 0.94629156,4.03751 0.04266,0.23969 0.083189,0.48286 0.063086,0.72549 -0.00525,0.0633 -0.014611,0.12629 -0.017976,0.18974 -0.00337,0.0634 -5.718e-4,0.128 0.017976,0.18877 0.00484,0.0158 0.010761,0.0315 0.012484,0.048 8.616e-4,0.008 6.455e-4,0.0166 -0.00129,0.0247 -0.00193,0.008 -0.00563,0.0158 -0.011197,0.0219 -0.00796,0.009 -0.019705,0.014 -0.031543,0.014 -0.011838,0 -0.023584,-0.005 -0.031543,-0.014 0.032187,-0.0905 0.043077,-0.18849 0.031543,-0.28385 -0.00644,-0.0533 -0.019712,-0.1054 -0.031543,-0.15772 -0.030526,-0.135 -0.051623,-0.27213 -0.063086,-0.41006"
     id="path27"
     inkscape:path-effect="#path-effect27"
     inkscape:original-d="m 0.63086104,245.53112 c -0.008723,1.40834 0.68803616,2.6758 0.94629156,4.03751 0.045231,0.23849 0.049238,0.48314 0.063086,0.72549 0.0072,0.12596 0,0.25234 0,0.37851 0,0.0316 0.017497,0.0684 0,0.0946 -0.011665,0.0175 -0.042057,0 -0.063086,0 0.010514,-0.0946 0.031543,-0.18865 0.031543,-0.28385 0,-0.0536 -0.025622,-0.10443 -0.031543,-0.15772 -0.00731,-0.0658 0.014063,-0.41006 -0.063086,-0.41006" />
  <path
     style="fill:none;stroke:#979797;stroke-width:0.9;stroke-dasharray:none;stroke-opacity:1"
     d="m 1.0724638,255.40409 c -0.049014,0.99855 -0.0910731,1.99745 -0.12617224,2.99659 -0.008125,0.23128 -0.0158696,0.46307 0,0.69395 0.006531,0.095 0.0170576,0.18976 0.0315431,0.28389"
     id="path28"
     inkscape:path-effect="#path-effect28"
     inkscape:original-d="m 1.0724638,255.40409 c -0.31953097,0.93673 -0.1834937,2.02213 -0.12617224,2.99659 0.0133276,0.22657 -0.0320681,0.46947 0,0.69395 0.0442936,0.31005 0.0315431,-0.0783 0.0315431,0.28389" />
  <path
     style="fill:none;stroke:#979797;stroke-width:0.9;stroke-dasharray:none;stroke-opacity:1"
     d="m 1.0724638,265.5925 c 0.024547,0.60152 -0.017855,1.20575 -0.12617224,1.79795 -0.0267803,0.14641 -0.0576652,0.29287 -0.0630861,0.44161 -0.004213,0.11561 0.007023,0.2315 0,0.34697 -0.0084,0.13812 -0.042742,0.27319 -0.0630861,0.41006 -0.0479882,0.32284 -0.0177086,0.65173 -0.0315431,0.97783 -0.004925,0.11608 -0.0154552,0.23192 -0.0315431,0.34698"
     id="path29"
     inkscape:path-effect="#path-effect29"
     inkscape:original-d="m 1.0724638,265.5925 c -0.049752,0.5982 -0.071849,1.2004 -0.12617224,1.79795 -0.0134622,0.14809 -0.0489884,0.29358 -0.0630861,0.44161 -0.00896,0.0941 0.0174205,0.24245 0,0.34697 -0.0539829,0.3239 -0.0281884,-0.1483 -0.0630861,0.41006 -0.0201516,0.32242 -0.0175296,0.65552 -0.0315431,0.97783 -0.0139028,0.31977 0.0260397,0.11665 -0.0315431,0.34698" />
  <path
     style="fill:none;stroke:#979797;stroke-width:0.9;stroke-dasharray:none;stroke-opacity:1"
     d="m 0.69394715,273.38363 c 0.0314498,0.52887 0.0946875,1.05585 0.18925831,1.57715 0.0464858,0.25624 0.10081106,0.5121 0.18925834,0.75704 0.055764,0.15443 0.1249207,0.30404 0.173659,0.46083 0.048738,0.15679 0.076686,0.32395 0.047142,0.48546 -0.038391,0.20988 -0.1697465,0.39216 -0.2208013,0.59932 -0.020317,0.0824 -0.027562,0.16753 -0.031543,0.25234 -0.018761,0.39971 0.033296,0.80377 -0.031543,1.19864 -0.0103644,0.0631 -0.0236931,0.12578 -0.0315431,0.18926 -0.0168341,0.13613 -0.008335,0.27487 -0.0315431,0.41006 -0.0384464,0.22395 -0.16058603,0.42298 -0.25234441,0.63086 -0.11826422,0.26793 -0.18784049,0.55879 -0.18925832,0.85166 -5.0919e-4,0.10518 0.007686,0.21053 0,0.31543 -0.00468,0.0639 -0.0152537,0.12732 -0.031543,0.18926"
     id="path30"
     inkscape:path-effect="#path-effect30"
     inkscape:original-d="m 0.69394715,273.38363 c 0.20366008,0.50642 0.10221082,1.05487 0.18925831,1.57715 0.0416578,0.24995 0.0949672,0.52131 0.18925834,0.75704 0.1547204,0.3868 0.2590458,0.5256 0.2208013,0.94629 -0.021189,0.23308 -0.162127,0.37929 -0.2208013,0.59932 -0.021842,0.0819 -0.022182,0.16809 -0.031543,0.25234 -0.0444749,0.40028 0.00467,0.80028 -0.031543,1.19864 -0.00579,0.0637 -0.0262318,0.12552 -0.0315431,0.18926 -0.0224406,0.26928 0.0353682,0.12011 -0.0315431,0.41006 -0.0511956,0.22184 -0.17641384,0.41825 -0.25234441,0.63086 -0.0792486,0.22189 -0.16361165,0.62084 -0.18925832,0.85166 -0.0111296,0.10017 0.0198575,0.21614 0,0.31543 -0.0194677,0.0973 -0.031543,0.0979 -0.031543,0.18926" />
  <path
     style="fill:none;stroke:#979797;stroke-width:0.9;stroke-dasharray:none;stroke-opacity:1"
     d="m 1.1040068,285.05456 c -0.051846,0.0625 -0.08514,0.14017 -0.094629,0.2208 -0.00615,0.0523 -0.00251,0.10514 0,0.15772 0.018042,0.3782 -0.0231323,0.75763 0,1.13555 0.015475,0.25282 0.059674,0.50376 0.063086,0.75703 0.00127,0.0946 -0.00315,0.18931 0,0.28389 0.00829,0.24848 0.068998,0.49324 0.1577152,0.72549 0.023759,0.0622 0.049661,0.12405 0.063086,0.18926 0.025518,0.12396 0.00462,0.25203 0,0.37851 -0.0073,0.19986 0.026316,0.40107 0,0.59932 -0.039964,0.30107 -0.2130971,0.56571 -0.31543049,0.85166 -0.0818699,0.22877 -0.11896305,0.47334 -0.22080136,0.69395 -0.0394231,0.0854 -0.088175,0.16631 -0.12617221,0.25235 -0.065492,0.14831 -0.0980417,0.31105 -0.0946291,0.47314"
     id="path31"
     inkscape:path-effect="#path-effect31"
     inkscape:original-d="m 1.1040068,285.05456 c -0.031543,0.0736 -0.075208,0.14312 -0.094629,0.2208 -0.0127506,0.051 0.00476,0.10536 0,0.15772 -0.035198,0.38718 -0.0269545,0.74471 0,1.13555 0.017422,0.25262 0.04904,0.5042 0.063086,0.75703 0.00525,0.0945 -0.012239,0.19005 0,0.28389 0.032009,0.2454 0.093949,0.48637 0.1577152,0.72549 0.017134,0.0643 0.050045,0.12405 0.063086,0.18926 0.021371,0.10685 0,0.27147 0,0.37851 0,0.19978 0.035737,0.40277 0,0.59932 -0.053418,0.2938 -0.2217145,0.57052 -0.31543049,0.85166 -0.0770132,0.23104 -0.14401335,0.46359 -0.22080136,0.69395 -0.0307828,0.0924 -0.0985723,0.15575 -0.12617221,0.25235 -0.0454238,0.15898 -0.0413847,0.31341 -0.0946291,0.47314" />
  <path
     style="fill:none;stroke:#979797;stroke-width:0.9;stroke-dasharray:none;stroke-opacity:1"
     d="m 1.0724638,299.78517 c 0.098551,0.31627 0.1518319,0.64661 0.1577152,0.97783 0.00692,0.38966 -0.051287,0.77754 -0.063086,1.16709 -0.012419,0.40999 0.026598,0.82087 0,1.23018 -0.015064,0.23181 -0.051118,0.46196 -0.063086,0.69395 -0.017881,0.34661 0.018141,0.69433 0,1.04092 -0.014347,0.27411 -0.062157,0.55277 0,0.82012 0.019645,0.0845 0.050097,0.16657 0.063086,0.25235 0.00948,0.0626 0.00948,0.12664 0,0.18925"
     id="path32"
     inkscape:path-effect="#path-effect32"
     inkscape:original-d="m 1.0724638,299.78517 c 0.052572,0.32594 0.1255013,0.64925 0.1577152,0.97783 0.063938,0.65217 -0.030152,0.55781 -0.063086,1.16709 -0.00149,0.0275 0.00141,1.18352 0,1.23018 -0.03166,1.04478 -0.016641,-0.003 -0.063086,0.69395 -0.022925,0.34387 0,0.69616 0,1.04092 0,0.27061 -0.02244,0.55084 0,0.82012 0.022343,0.26811 0.024339,0.0586 0.063086,0.25235 0.011317,0.0566 0,0.13168 0,0.18925" />
  <path
     style="fill:none;stroke:#979797;stroke-width:0.9;stroke-dasharray:none;stroke-opacity:1"
     d="m 1.0409207,309.12191 c -0.11410386,0.2358 -0.17897476,0.49528 -0.18925829,0.75703 -0.00787,0.20032 0.0158034,0.40034 0.0295885,0.60034 0.0137851,0.20001 0.0174194,0.40341 -0.0295885,0.5983 -0.0156114,0.0647 -0.0367416,0.12811 -0.0630861,0.18926 -0.0430409,0.14442 -0.0747138,0.29223 -0.0946292,0.4416 -0.0237907,0.17844 -0.0308422,0.35912 -0.0630861,0.53623 -0.0347389,0.19081 -0.0984345,0.37582 -0.12617221,0.56778 -0.0287942,0.19927 -0.0180096,0.40418 0.0315431,0.59932"
     id="path33"
     inkscape:path-effect="#path-effect33"
     inkscape:original-d="m 1.0409207,309.12191 c -0.0630861,0.25234 -0.15944334,0.49864 -0.18925829,0.75703 -0.0457975,0.39692 0.0495575,0.80218 0,1.19864 -0.008248,0.066 -0.0500447,0.12405 -0.0630861,0.18926 -0.10283038,0.92547 0.0424931,-0.1526 -0.0946292,0.4416 -0.0120077,0.052 -0.0573879,0.49919 -0.0630861,0.53623 -0.0294654,0.19153 -0.0917204,0.37829 -0.12617221,0.56778 -0.0365621,0.20109 0.0315431,0.40291 0.0315431,0.59932" />
  <path
     style="fill:none;stroke:#979797;stroke-width:0.9;stroke-dasharray:none;stroke-opacity:1"
     d="m 1.0724638,316.72379 c 0.038511,0.36672 0.059571,0.73528 0.063086,1.104 0.00391,0.41007 -0.013865,0.82033 0,1.23018 0.020699,0.61185 0.1117529,1.21903 0.1577152,1.8295 0.030809,0.4092 0.04134,0.81993 0.031543,1.23018"
     id="path34"
     inkscape:path-effect="#path-effect34"
     inkscape:original-d="m 1.0724638,316.72379 c 0.021029,0.368 0.050598,0.73561 0.063086,1.104 0.013892,0.40983 -0.017071,0.82048 0,1.23018 0.025516,0.61239 0.1577152,1.21719 0.1577152,1.8295 0,0.20301 -0.048216,1.07066 0.031543,1.23018" />
  <path
     style="fill:none;stroke:#979797;stroke-width:0.9;stroke-dasharray:none;stroke-opacity:1"
     d="m 1.230179,326.91219 c 0.038945,0.462 0.028351,0.92815 -0.031543,1.3879 -0.045339,0.34803 -0.1187822,0.69212 -0.1577153,1.04092 -0.0611632,0.54796 -0.037755,1.1101 -0.18925829,1.64024 -0.0456857,0.15986 -0.10681973,0.31486 -0.15771526,0.47314 -0.0493977,0.15362 -0.0893607,0.31186 -0.0946292,0.47315 -0.00206,0.0631 0.001199,0.12618 0,0.18926 -0.003267,0.1718 -0.0396842,0.34187 -0.0946292,0.50468 -0.0212676,0.063 -0.0453341,0.12516 -0.0630861,0.18926 -0.0571676,0.20642 -0.0459299,0.43117 0.0315431,0.63086"
     id="path35"
     inkscape:path-effect="#path-effect35"
     inkscape:original-d="m 1.230179,326.91219 c 0.1292185,0.51688 0.076993,0.25602 -0.031543,1.3879 -0.033497,0.34933 -0.1134084,0.69279 -0.1577153,1.04092 -0.0689929,0.54208 -0.067523,1.1046 -0.18925829,1.64024 -0.0303299,0.13345 -0.11997144,0.3316 -0.15771526,0.47314 -0.0176264,0.0661 -0.0862962,0.37315 -0.0946292,0.47315 -0.005239,0.0629 0.007371,0.1266 0,0.18926 -0.0199987,0.16998 -0.0495937,0.33955 -0.0946292,0.50468 -0.0174969,0.0642 -0.0511905,0.12384 -0.0630861,0.18926 -0.0365612,0.20109 -0.008227,0.43201 0.0315431,0.63086" />
  <path
     style="fill:none;stroke:#979797;stroke-width:0.9;stroke-dasharray:none;stroke-opacity:1"
     d="m 1.0724638,338.04689 c 0.03228,0.69893 0.1167061,1.39544 0.2523444,2.08184 0.052594,0.26615 0.1129663,0.53136 0.1419413,0.80111 0.028975,0.26975 0.025777,0.54632 -0.047312,0.80759 -0.047519,0.16986 -0.1240177,0.33154 -0.1577152,0.50468 -0.0182,0.0935 -0.023615,0.18895 -0.031543,0.28389 -0.025783,0.30874 -0.078623,0.61521 -0.1577152,0.91475"
     id="path36"
     inkscape:path-effect="#path-effect36"
     inkscape:original-d="m 1.0724638,338.04689 c 0.2167718,0.69526 0.2064999,1.35979 0.2523444,2.08184 0.020532,0.32338 0.1055439,1.25942 0.094629,1.6087 -0.00612,0.19593 -0.1142376,0.31991 -0.1577152,0.50468 -0.021807,0.0927 -0.018078,0.18964 -0.031543,0.28389 -0.043972,0.3078 -0.1577152,0.60081 -0.1577152,0.91475" />
  <path
     style="fill:none;stroke:#979797;stroke-width:0.9;stroke-dasharray:none;stroke-opacity:1"
     d="m 1.3248082,348.64535 c 0.040435,1.03762 -0.1211812,2.08274 -0.47314579,3.05968 -0.0485369,0.13472 -0.10091284,0.26911 -0.12617221,0.41006 -0.0149551,0.0834 -0.0202255,0.16832 -0.0315431,0.25234 -0.0170779,0.12679 -0.0479003,0.25149 -0.0630861,0.37852 -0.0437436,0.36592 0.0434167,0.73806 0,1.10401 -0.0252765,0.21305 -0.0942671,0.4187 -0.12617221,0.63086 -0.0141603,0.0942 -0.0209606,0.18926 -0.031543,0.28389 -0.0142221,0.12718 -0.0352914,0.25359 -0.0630861,0.37851"
     id="path37"
     inkscape:path-effect="#path-effect37"
     inkscape:original-d="m 1.3248082,348.64535 c -0.33997253,0.99222 -0.2219958,2.05508 -0.47314579,3.05968 -0.0346852,0.13874 -0.093048,0.27094 -0.12617221,0.41006 -0.0196343,0.0825 -0.0189683,0.16851 -0.0315431,0.25234 -0.0189746,0.1265 -0.0524635,0.25105 -0.0630861,0.37852 -0.0314016,0.37682 0.0538262,0.72722 0,1.10401 -0.19288306,1.35018 0.0462563,-0.34624 -0.12617221,0.63086 -0.0165464,0.0938 -0.0149967,0.19012 -0.031543,0.28389 -0.0732865,0.41529 -0.0630861,0.10639 -0.0630861,0.37851" />
  <path
     style="fill:none;stroke:#979797;stroke-width:0.9;stroke-dasharray:none;stroke-opacity:1"
     d="m 0.63086104,361.32566 c -0.0490497,0.49494 -0.0169502,0.99783 0.0946292,1.48252 0.0799681,0.34737 0.20005649,0.68409 0.29562656,1.0275 0.09557,0.3434 0.1669918,0.69851 0.1459761,1.05435 -0.01,0.1693 -0.040799,0.33657 -0.063086,0.50469 -0.058202,0.43904 -0.058202,0.88576 0,1.3248"
     id="path38"
     inkscape:path-effect="#path-effect38"
     inkscape:original-d="m 0.63086104,361.32566 c 0.0315431,0.49418 0.0181848,0.99328 0.0946292,1.48252 0.39590116,2.53377 0.32516796,0.74285 0.44160266,2.08185 0.015994,0.18393 -0.050388,0.32691 -0.063086,0.50469 -0.031086,0.43519 0,0.88856 0,1.3248" />
  <path
     style="fill:none;stroke:#979797;stroke-width:0.9;stroke-dasharray:none;stroke-opacity:1"
     d="m 1.198636,370.28389 c -0.061918,0.71425 -0.1144955,1.42931 -0.1577153,2.14493 -0.025373,0.42012 -0.0475279,0.84114 -0.031543,1.26172 0.0124,0.32627 0.047624,0.65482 0,0.97783 -0.0347039,0.23538 -0.11261254,0.46181 -0.18222754,0.68932 -0.069615,0.22751 -0.1317167,0.46066 -0.13320301,0.69858 -3.2844e-4,0.0526 0.002313,0.10518 0,0.15771 -0.004286,0.0973 -0.0257432,0.1939 -0.0630861,0.28389"
     id="path39"
     inkscape:path-effect="#path-effect39"
     inkscape:original-d="m 1.198636,370.28389 c -0.052572,0.71497 -0.1179485,1.42912 -0.1577153,2.14493 -0.023337,0.42005 -0.023895,0.84108 -0.031543,1.26172 -0.0058,0.31896 0.029018,0.65863 0,0.97783 -0.0434799,0.47828 -0.23269981,0.91909 -0.31543055,1.3879 -0.009136,0.0518 0.005231,0.1054 0,0.15771 -0.0108464,0.10847 -0.0630861,0.18209 -0.0630861,0.28389" />
  <path
     style="fill:none;stroke:#979797;stroke-width:0.9;stroke-dasharray:none;stroke-opacity:1"
     d="m 0.88320546,379.05286 c 0.17222804,0.7553 0.26750784,1.52813 0.28388744,2.30264 0.011561,0.54666 -0.016055,1.09369 0,1.64024 0.010507,0.35769 0.039657,0.71682 0,1.07246 -0.015328,0.13746 -0.040865,0.27354 -0.063086,0.41006 -0.079749,0.48994 -0.11686748,0.98623 -0.12617219,1.48253 -0.0106434,0.5677 0.01499,1.13571 0,1.70332 -0.0108964,0.4126 -0.043436,0.82581 -0.1261722,1.23018 -0.0235758,0.11523 -0.0512572,0.22995 -0.0630861,0.34697 -0.020105,0.19889 0.006015,0.39951 0,0.59932 -0.0103985,0.34544 -0.11619048,0.68 -0.22080136,1.00938 -0.0231778,0.073 -0.046374,0.14607 -0.0630861,0.2208 -0.0828844,0.3706 -0.002525,0.7558 0,1.13555 0.002663,0.40064 -0.0814493,0.80636 0,1.19864 0.0576683,0.27775 0.19672277,0.53746 0.22080137,0.82011 0.0142891,0.16773 -0.0127527,0.33683 0,0.50469 0.008401,0.11058 0.0350484,0.2219 0.0946292,0.31543 0.0295186,0.0463 0.0665203,0.0874 0.097747,0.13265 0.0312268,0.0452 0.0571345,0.0964 0.0599682,0.15124 0.002214,0.0429 -0.009739,0.085 -0.016217,0.12744 -0.003239,0.0212 -0.005117,0.0428 -0.003156,0.0641 0.001961,0.0214 0.007898,0.0426 0.0193732,0.0608 0.006423,0.0102 0.0144784,0.0192 0.0209584,0.0293 0.00648,0.0101 0.0114397,0.0218 0.0105847,0.0338 -8.124e-4,0.0114 -0.00673,0.0217 -0.009413,0.0328 -0.00134,0.006 -0.001855,0.0114 -4.8337e-4,0.017 6.8602e-4,0.003 0.001844,0.005 0.00351,0.008 0.00167,0.002 0.00385,0.004 0.00639,0.006 0.00475,0.002 0.010368,0.002 0.01566,0.002 0.00529,-6.7e-4 0.010552,-0.002 0.015883,-0.002 0.00635,2e-4 0.012583,0.002 0.017765,0.006 0.00518,0.004 0.00932,0.009 0.012169,0.0144 0.00569,0.0114 0.0061,0.0248 0.00331,0.0372 -0.00558,0.0248 -0.022786,0.0452 -0.033244,0.0684 -0.012715,0.0282 -0.015175,0.0603 -0.010768,0.0908 0.00441,0.0306 0.01539,0.0599 0.028609,0.0878 0.026439,0.0559 0.062375,0.10818 0.076788,0.16829 0.00994,0.0414 0.00911,0.0846 0.010139,0.12717 0.00103,0.0426 0.00422,0.0862 0.021404,0.12518 0.018404,0.0418 0.05286,0.0762 0.094629,0.0946"
     id="path40"
     inkscape:path-effect="#path-effect40"
     inkscape:original-d="m 0.88320546,379.05286 c 0.13414544,0.91666 0.22929444,1.41095 0.28388744,2.30264 0.033111,0.54082 0,1.09785 0,1.64024 0,0.35367 0.030619,0.72034 0,1.07246 -0.01198,0.13778 -0.046928,0.27271 -0.063086,0.41006 -0.057134,0.48564 -0.10802152,0.99246 -0.12617219,1.48253 -0.0210005,0.56701 0.0195542,1.13625 0,1.70332 -0.0141118,0.40924 -0.0732537,0.82447 -0.1261722,1.23018 -0.0152043,0.11657 -0.0519409,0.22995 -0.0630861,0.34697 -0.003415,0.0359 0.003073,0.54707 0,0.59932 -0.0199322,0.33885 -0.13371842,0.68282 -0.22080136,1.00938 -0.0197229,0.074 -0.0546331,0.14472 -0.0630861,0.2208 -0.0392531,0.35328 0,0.77506 0,1.13555 0,0.39282 -0.0390475,0.80816 0,1.19864 0.0280099,0.28009 0.19565564,0.54351 0.22080137,0.82011 0.0122942,0.13524 -0.0261997,0.36496 0,0.50469 0.0202299,0.1079 0.0528331,0.21393 0.0946292,0.31543 0.0412169,0.1001 0.14240614,0.17673 0.15771526,0.28389 0.0118956,0.0833 -0.0164963,0.16986 0,0.25235 0.004611,0.0231 0.0241083,0.0408 0.0315431,0.0631 0.00665,0.0199 -0.0148696,0.0482 0,0.0631 0.00743,0.007 0.024108,-0.007 0.031543,0 0.017793,0.0178 -0.0084,0.10096 0,0.12617 0.036787,0.11036 0.06529,0.22962 0.094629,0.34697 0.023815,0.0953 -0.026166,0.15136 0.031543,0.25235 0.022132,0.0387 0.063086,0.0631 0.094629,0.0946" />
  <path
     style="fill:none;stroke:#979797;stroke-width:0.9;stroke-dasharray:none;stroke-opacity:1"
     d="m 0.91474851,401.44842 c 0.0929068,0.29497 0.13575769,0.60564 0.12617219,0.91475 -0.00789,0.25441 -0.0508863,0.50629 -0.0946291,0.75704 -0.10014953,0.57409 -0.20513795,1.15231 -0.18925831,1.73486 0.0120911,0.44356 0.0941669,0.88224 0.12617221,1.32481 0.0409667,0.56649 -3.087e-4,1.13536 0,1.70333 2.0576e-4,0.37858 0.0188932,0.75744 0,1.13555 -0.00632,0.12647 -0.0168417,0.25274 -0.0315431,0.37851"
     id="path41"
     inkscape:path-effect="#path-effect41"
     inkscape:original-d="m 0.91474851,401.44842 c 0.0794118,0.31765 0.12617219,0.48231 0.12617219,0.91475 0,0.25431 -0.0617371,0.50486 -0.0946291,0.75704 -0.0743392,0.56993 -0.18925831,1.15734 -0.18925831,1.73486 0,0.44531 0.10284991,0.88169 0.12617221,1.32481 0.0296555,0.56346 0,1.13951 0,1.70333 0,0.37498 0.0220443,0.76079 0,1.13555 -0.0367596,0.62491 -0.0315431,0.003 -0.0315431,0.37851" />
  <path
     style="fill:none;stroke:#979797;stroke-width:0.9;stroke-dasharray:none;stroke-opacity:1"
     d="m 0.7885763,415.73743 c -0.0117134,0.35768 -0.001172,0.71609 0.0315431,1.07246 0.048316,0.52632 0.1449603,1.04877 0.15771526,1.57715 0.0132179,0.54755 -0.063537,1.10084 0.0315431,1.64024 0.03366,0.19096 0.088521,0.37757 0.1261722,0.56778 0.090572,0.45756 0.079723,0.93492 -0.031543,1.38789"
     id="path42"
     inkscape:path-effect="#path-effect42"
     inkscape:original-d="m 0.7885763,415.73743 c 0.0105144,0.35748 0.003687,0.7159 0.0315431,1.07246 0.13129207,1.68054 0.12530504,0.28074 0.15771526,1.57715 0.0135031,0.54013 -0.0411464,1.10234 0.0315431,1.64024 0.025963,0.19213 0.095301,0.37637 0.1261722,0.56778 0.072761,0.45112 0.04279,0.94189 -0.031543,1.38789" />
  <path
     style="fill:none;stroke:#979797;stroke-width:0.9;stroke-dasharray:none;stroke-opacity:1"
     d="m 1.1355499,428.13385 c -0.011617,0.0523 -0.022134,0.10493 -0.031543,0.15771 -0.089309,0.50104 -0.078352,1.01737 -0.18925829,1.51407 -0.0594953,0.26646 -0.1533923,0.52401 -0.22080136,0.78857 -0.0865356,0.33963 -0.12905908,0.69045 -0.12617221,1.04092"
     id="path43"
     inkscape:path-effect="#path-effect43"
     inkscape:original-d="m 1.1355499,428.13385 c -0.010514,0.0526 -0.024523,0.10456 -0.031543,0.15771 -0.066597,0.50424 -0.1138099,1.01108 -0.18925829,1.51407 -0.0509488,0.33966 -0.14255353,0.4495 -0.22080136,0.78857 -0.0788364,0.34163 -0.12617221,0.69182 -0.12617221,1.04092" />
  <path
     style="fill:none;stroke:#979797;stroke-width:0.9;stroke-dasharray:none;stroke-opacity:1"
     d="m 0.88320546,435.10486 c 0.0666564,0.34631 0.12974694,0.69331 0.18925834,1.04092 0.070015,0.40896 0.1350827,0.81882 0.1892583,1.23018 0.071734,0.54468 0.1243485,1.09187 0.1577152,1.64024"
     id="path44"
     inkscape:path-effect="#path-effect44"
     inkscape:original-d="m 0.88320546,435.10486 c 0.0630861,0.34697 0.13128104,0.69306 0.18925834,1.04092 0.068207,0.40924 0.1395468,0.81828 0.1892583,1.23018 0.026462,0.21926 -0.024129,1.45839 0.1577152,1.64024" />
  <path
     style="fill:none;stroke:#979797;stroke-width:0.9;stroke-dasharray:none;stroke-opacity:1"
     d="m 1.0409207,441.31884 c 0.1190961,0.3322 0.1303058,0.70212 0.031543,1.04092 -0.0831422,0.28521 -0.23979275,0.54304 -0.3469736,0.82012 -0.22120816,0.57185 -0.22120816,1.22611 0,1.79796"
     id="path45"
     inkscape:path-effect="#path-effect45"
     inkscape:original-d="m 1.0409207,441.31884 c 0.081655,0.31689 0.1185269,0.71784 0.031543,1.04092 -0.31262947,1.1612 -0.055195,-0.0135 -0.3469736,0.82012 -0.16312724,0.46608 -0.11889824,1.32236 0,1.79796" />
  <path
     style="fill:none;stroke:#979797;stroke-width:0.9;stroke-dasharray:none;stroke-opacity:1"
     d="m 0.97783461,449.36232 c -0.0865142,0.6269 -0.0865142,1.26568 0,1.89258 0.0101638,0.0736 0.0215138,0.14713 0.0315431,0.2208 0.014258,0.10473 0.02585,0.20989 0.031543,0.31543 0.014728,0.27304 -0.010085,0.54687 0,0.82012 0.014016,0.37976 0.095312,0.75553 0.094629,1.13555 -1.702e-4,0.0947 -0.00543,0.18939 0,0.28389 0.00735,0.12786 0.034192,0.25375 0.063086,0.37852 0.029342,0.12671 0.060892,0.2529 0.094629,0.37851"
     id="path46"
     inkscape:path-effect="#path-effect46"
     inkscape:original-d="m 0.97783461,449.36232 c 0.0266966,0.62938 -0.03494,1.26366 0,1.89258 0.004124,0.0742 0.0210287,0.1472 0.0315431,0.2208 0.010514,0.10515 0.026517,0.20989 0.031543,0.31543 0.01299,0.2728 -0.011863,0.54728 0,0.82012 0.016536,0.38033 0.07565,0.75597 0.094629,1.13555 0.00473,0.0945 -0.01045,0.18984 0,0.28389 0.014126,0.12713 0.042057,0.25235 0.063086,0.37852 0.021904,0.13142 0.094629,0.24049 0.094629,0.37851" />
  <path
     style="fill:none;stroke:#979797;stroke-width:0.9;stroke-dasharray:none;stroke-opacity:1"
     d="m 1.1355499,457.91049 c -0.1265274,0.86588 -0.14776157,1.7471 -0.063086,2.61807 0.046963,0.48306 0.1263656,0.96978 0.063086,1.45098 -0.013991,0.10639 -0.034929,0.21188 -0.063086,0.31543 -0.028226,0.1038 -0.063709,0.20571 -0.0863977,0.31086 -0.0226885,0.10515 -0.0322779,0.21515 -0.008232,0.32 0.003624,0.0158 0.008014,0.0315 0.009291,0.0477 0.001277,0.0162 -8.0462e-4,0.0331 -0.009291,0.0469 -0.007814,0.0127 -0.0202819,0.0217 -0.0315431,0.0315 -0.0494312,0.043 -0.0790174,0.10797 -0.0790174,0.17349 0,0.0655 0.0295862,0.13048 0.0790174,0.17349"
     id="path47"
     inkscape:path-effect="#path-effect47"
     inkscape:original-d="m 1.1355499,457.91049 c -0.0044,0.17611 -0.063086,2.4941 -0.063086,2.61807 0,0.47834 0.1135429,0.97164 0.063086,1.45098 -0.011225,0.10664 -0.044452,0.20984 -0.063086,0.31543 -0.036496,0.20681 -0.071439,0.42215 -0.0946292,0.63086 -0.003483,0.0313 0.00765,0.064 0,0.0946 -0.003606,0.0144 -0.0268409,0.0174 -0.0315431,0.0315 -0.0322871,0.0969 0,0.2409 0,0.34698" />
  <path
     style="fill:none;stroke:#979797;stroke-width:0.9;stroke-dasharray:none;stroke-opacity:1"
     d="m 1.3563512,466.90026 c -0.053177,0.3228 -0.074343,0.65087 -0.063086,0.97783 0.022158,0.64357 0.1693419,1.28028 0.1577153,1.92413 -0.00571,0.31613 -0.049716,0.63039 -0.063086,0.94629 -0.015667,0.37016 0.00985,0.74855 -0.094629,1.10401 -0.01521,0.0517 -0.033162,0.10291 -0.042361,0.15605 -0.0092,0.0531 -0.0092,0.10929 0.010818,0.15938 0.00872,0.0218 0.021192,0.0425 0.025105,0.0657 0.00196,0.0116 0.00164,0.0237 -0.00239,0.0348 -0.00403,0.011 -0.012032,0.0209 -0.022718,0.0257 -0.00986,0.005 -0.021681,0.005 -0.031543,0 l 0.031543,-0.28389"
     id="path48"
     inkscape:path-effect="#path-effect48"
     inkscape:original-d="m 1.3563512,466.90026 c -0.021029,0.32594 -0.063086,0.65121 -0.063086,0.97783 0,2.01032 0.035248,0.61781 0.1577153,1.92413 0.031027,0.33095 -0.025146,0.6238 -0.063086,0.94629 -0.043147,0.36675 -0.057881,0.73652 -0.094629,1.10401 -0.010514,0.10514 -0.023439,0.21007 -0.031543,0.31543 -0.00323,0.0419 0.029739,0.0964 0,0.12617 -0.00743,0.007 -0.021029,0 -0.031543,0 -0.00358,0.009 0.1304869,-0.28389 0.031543,-0.28389" />
  <path
     style="fill:none;stroke:#979797;stroke-width:0.9;stroke-dasharray:none;stroke-opacity:1"
     d="m 1.0409207,475.66923 c 0.022634,0.3364 0.012052,0.67504 -0.031543,1.00937 -0.0400114,0.30685 -0.1076365,0.60938 -0.15771529,0.91475 -0.1036094,0.63179 -0.1328109,1.27895 -0.31543052,1.89258 -0.0466122,0.15662 -0.10328006,0.31135 -0.12617221,0.47315 -0.0265711,0.1878 -0.00681,0.37972 -0.0315431,0.56778 -0.006996,0.0532 -0.0175413,0.10592 -0.0315431,0.15771"
     id="path49"
     inkscape:path-effect="#path-effect49"
     inkscape:original-d="m 1.0409207,475.66923 c -0.010514,0.33645 0.00141,0.67437 -0.031543,1.00937 -0.0302881,0.30793 -0.10684778,0.60955 -0.15771529,0.91475 -0.1051421,0.63085 -0.17654746,1.26761 -0.31543052,1.89258 -0.0354088,0.15934 -0.0928815,0.31335 -0.12617221,0.47315 -0.0420196,0.20169 -0.007041,0.37175 -0.0315431,0.56778 -0.0381929,0.30554 -0.0315431,-0.0594 -0.0315431,0.15771" />
  <path
     style="fill:none;stroke:#979797;stroke-width:0.9;stroke-dasharray:none;stroke-opacity:1"
     d="m 0.53623189,483.68116 c 0.006147,0.48415 0.0271885,0.96812 0.0630861,1.45098 0.0242187,0.32577 0.0552099,0.65127 0.0630861,0.97784 0.0182682,0.75745 -0.08779,1.51853 0,2.2711 0.0196458,0.16841 0.0489533,0.33572 0.0630861,0.50468 0.0315646,0.37737 -0.0129541,0.75709 0,1.13555 0.00652,0.1905 0.0276311,0.3805 0.0630861,0.56778"
     id="path50"
     inkscape:path-effect="#path-effect50"
     inkscape:original-d="m 0.53623189,483.68116 c 0.0210287,0.48366 0.037971,0.96752 0.0630861,1.45098 0.0169446,0.32618 0.050533,0.65145 0.0630861,0.97784 0.0290115,0.7543 -0.0502083,1.51797 0,2.2711 0.0112776,0.16916 0.0500831,0.33564 0.0630861,0.50468 0.0288455,0.37499 -0.0139121,0.75993 0,1.13555 0.007015,0.18941 0.0630861,0.38146 0.0630861,0.56778" />
  <path
     style="fill:none;stroke:#979797;stroke-width:0.9;stroke-dasharray:none;stroke-opacity:1"
     d="m 1.0724638,493.04945 c 0.2247567,0.5002 0.2810468,1.07436 0.1577152,1.60869 -0.039666,0.17185 -0.097145,0.33905 -0.1577152,0.50469 -0.14205225,0.38847 -0.30434979,0.78552 -0.2838875,1.19864 0.0110406,0.2229 0.0753772,0.44006 0.0946292,0.6624 0.008173,0.0944 0.008173,0.1895 0,0.28389 0.0389601,0.13483 0.0705656,0.27179 0.0946292,0.41006 0.1001551,0.57549 0.0675266,1.17368 -0.0946292,1.73487"
     id="path51"
     inkscape:path-effect="#path-effect51"
     inkscape:original-d="m 1.0724638,493.04945 c -0.0891498,0.52521 0.2225501,1.0738 0.1577152,1.60869 -0.021209,0.17497 -0.1062109,0.33613 -0.1577152,0.50469 -0.16345437,0.53494 -0.22389891,0.65874 -0.2838875,1.19864 -0.0304226,0.2738 0.0627166,0.4071 0.0946292,0.6624 0.0117373,0.0939 0,0.18926 0,0.28389 0.0315431,0.13669 0.0772297,0.27086 0.0946292,0.41006 0.0721323,0.57706 -0.0946292,1.15843 -0.0946292,1.73487" />
  <path
     style="fill:none;stroke:#979797;stroke-width:0.9;stroke-dasharray:none;stroke-opacity:1"
     d="m 0.82011935,502.92242 c -0.1360457,0.88681 -0.1360457,1.79435 0,2.68116 0.0419471,0.27343 0.0967501,0.54506 0.12617221,0.82012 0.0548354,0.51264 0.0208763,1.03016 0.0315431,1.54561 0.009141,0.44174 0.0245088,0.88365 0,1.32481 l -0.0315431,0.56777 c -0.005284,0.0951 -0.0247715,0.18887 -0.0315431,0.28389 -0.005982,0.0839 0.005423,0.16837 0,0.25235 -0.006939,0.10745 -0.0411226,0.21096 -0.072128,0.31406 -0.0310055,0.10311 -0.0593357,0.20926 -0.0540442,0.3168 0.002596,0.0528 0.0131871,0.10656 0,0.15771 -0.011775,0.0457 -0.0413132,0.0843 -0.0630861,0.12617 -0.0449654,0.0864 -0.0564438,0.18972 -0.0315431,0.28389 -0.0249856,0.0617 -0.0460703,0.12493 -0.0630861,0.18926 -0.0679895,0.25705 -0.0695917,0.53196 0,0.78858 0.029706,0.10954 0.072139,0.21562 0.12617221,0.31543"
     id="path52"
     inkscape:path-effect="#path-effect52"
     inkscape:original-d="m 0.82011935,502.92242 c 0.0395342,0.89264 -0.0488976,1.78878 0,2.68116 0.0151329,0.27618 0.095628,0.54522 0.12617221,0.82012 0.0567017,0.51032 0.0315431,1.03319 0.0315431,1.54561 0,0.44089 0.015189,0.88433 0,1.32481 -0.0105144,0.18926 -0.0210287,0.37852 -0.0315431,0.56777 -0.0105144,0.0946 -0.025952,0.18884 -0.0315431,0.28389 -0.004939,0.084 0.006451,0.16848 0,0.25235 -0.0162004,0.2106 -0.0915224,0.42296 -0.12617221,0.63086 -0.00701,0.042 0.0105144,0.12091 0,0.15771 -0.0129178,0.0452 -0.0482166,0.0816 -0.0630861,0.12617 -0.0697111,0.20914 -0.008072,0.0961 -0.0315431,0.28389 0.0326188,0.0814 -0.0500447,0.12405 -0.0630861,0.18926 -0.0249719,0.12486 -0.018857,0.63772 0,0.78858 0.018083,0.14466 0.12617221,0.16347 0.12617221,0.31543" />
  <path
     style="fill:none;stroke:#979797;stroke-width:0.9;stroke-dasharray:none;stroke-opacity:1"
     d="m 1.0409207,515.66582 c -0.032464,0.45134 -0.032464,0.90501 0,1.35635 0.044075,0.61277 0.1477266,1.2195 0.2208014,1.82949 0.066443,0.55463 0.1076266,1.11497 0.063086,1.67179 -0.028628,0.35789 -0.092588,0.71343 -0.094629,1.07246 -0.00145,0.25481 0.027004,0.51867 -0.063086,0.75703 -0.015529,0.0411 -0.03445,0.0809 -0.04805,0.12267 -0.0136,0.0418 -0.021804,0.0863 -0.015036,0.12968 0.00249,0.016 0.00699,0.0317 0.0086,0.0478 0.00161,0.0161 7.03e-5,0.0332 -0.0086,0.0468 -0.00799,0.0126 -0.021072,0.0209 -0.031543,0.0315 -0.015467,0.0157 -0.025144,0.0365 -0.029537,0.058 -0.00439,0.0216 -0.00373,0.0439 -4.826e-4,0.0657 0.00649,0.0436 0.023089,0.0851 0.03002,0.12857 0.013446,0.0844 -0.010094,0.16966 -0.031543,0.25235 -0.13058041,0.5034 -0.19071535,1.0266 -0.15771524,1.54561 0.0100313,0.15777 0.0286134,0.31508 0.0315431,0.47314 0.005853,0.31574 -0.0508047,0.63108 -0.0315431,0.94629 0.0187234,0.3064 0.10896588,0.60811 0.0946292,0.91475 -0.007406,0.1584 -0.0423729,0.32034 0,0.47315 0.008884,0.032 0.0210522,0.063 0.0315431,0.0946 0.05042,0.15162 0.06139,0.31617 0.031543,0.47314 0.033499,0.0341 0.055909,0.0789 0.063086,0.12618 0.00554,0.0365 0.0022,0.0737 -8.595e-4,0.11044 -0.00306,0.0368 -0.00582,0.0741 8.595e-4,0.11036 0.00727,0.0395 0.025382,0.0761 0.044254,0.11156 0.018871,0.0355 0.038856,0.0708 0.050375,0.10924 0.016671,0.0557 0.014758,0.11515 0.00952,0.17305 -0.00524,0.0579 -0.013667,0.11593 -0.00952,0.17392 0.0062,0.0867 0.040058,0.16856 0.063086,0.25235 0.056303,0.20485 0.047595,0.42381 0,0.63086 -0.014931,0.065 -0.033755,0.12941 -0.063086,0.18926 -0.043119,0.088 -0.1089076,0.16473 -0.1892583,0.2208"
     id="path53"
     inkscape:path-effect="#path-effect53"
     inkscape:original-d="m 1.0409207,515.66582 c 0,0.45211 -0.021764,0.90475 0,1.35635 0.07381,1.53155 0.089122,0.80897 0.2208014,1.82949 0.070983,0.55012 0.082172,1.1183 0.063086,1.67179 -0.012368,0.35866 -0.064826,0.71482 -0.094629,1.07246 -0.00905,0.10865 -0.038351,0.60863 -0.063086,0.75703 -0.014254,0.0855 -0.047576,0.16704 -0.063086,0.25235 -0.00564,0.031 0.00765,0.064 0,0.0946 -0.00361,0.0144 -0.026841,0.0174 -0.031543,0.0315 -0.025173,0.0755 0.019342,0.17498 0,0.25234 -0.024541,0.0982 -0.017514,0.15414 -0.031543,0.25235 -0.0731036,0.51172 -0.12083312,1.02926 -0.15771524,1.54561 -0.0230209,0.32229 0.008452,0.17296 0.0315431,0.47314 0.0242622,0.31541 -0.0315431,0.63248 -0.0315431,0.94629 0,0.30591 0.0643431,0.61189 0.0946292,0.91475 0.015395,0.15395 -0.030245,0.32192 0,0.47315 0.008081,0.0404 0.0315431,0.0425 0.0315431,0.0946 0,0.16345 0.00905,0.31568 0.031543,0.47314 -0.0536096,0.0854 0.048217,0.0816 0.063086,0.12618 0.022068,0.0662 -0.019186,0.15365 0,0.2208 0.021998,0.077 0.075208,0.14311 0.094629,0.2208 0.026186,0.10474 -0.010651,0.24046 0,0.34697 0.049133,0.49134 0.00772,-0.0798 0.063086,0.25235 0.03324,0.19944 0,0.4296 0,0.63086 0,0.0778 -0.038943,0.11683 -0.063086,0.18926 -0.058488,0.17546 0.1361508,0.2208 -0.1892583,0.2208" />
  <path
     style="fill:none;stroke:#979797;stroke-width:0.9;stroke-dasharray:none;stroke-opacity:1"
     d="m 0.88320546,534.46547 c 0.18185614,0.80541 0.20342714,1.64668 0.0630861,2.46036 -0.0743897,0.4313 -0.19388039,0.85643 -0.22080136,1.29327 -0.007766,0.12601 -0.007766,0.2525 0,0.37851"
     id="path54"
     inkscape:path-effect="#path-effect54"
     inkscape:original-d="m 0.88320546,534.46547 c 0.10119864,0.81085 0.14462684,1.64495 0.0630861,2.46036 -0.16390098,1.63901 -0.0702428,0.0888 -0.22080136,1.29327 -0.0156497,0.1252 0,0.25234 0,0.37851" />
  <path
     style="fill:none;stroke:#979797;stroke-width:0.9;stroke-dasharray:none;stroke-opacity:1"
     d="m 0.82011935,542.50895 c -0.003867,0.82723 -0.0992629,1.65399 -0.28388746,2.46036 -0.0409823,0.17899 -0.0863405,0.35698 -0.12617221,0.53623 -0.0945916,0.42569 -0.15790403,0.85833 -0.18925832,1.29327"
     id="path55"
     inkscape:path-effect="#path-effect55"
     inkscape:original-d="m 0.82011935,542.50895 c -0.10583412,0.81796 -0.13422718,1.64792 -0.28388746,2.46036 -0.033266,0.18059 -0.0942608,0.3554 -0.12617221,0.53623 -0.0756708,0.4288 -0.026155,0.88551 -0.18925832,1.29327" />
  <path
     style="fill:none;stroke:#979797;stroke-width:0.9;stroke-dasharray:none;stroke-opacity:1"
     d="m 0.75703325,549.70077 c 0.15756133,1.26886 0.28378485,2.54162 0.37851665,3.81671 0.010934,0.14717 0.021448,0.29437 0.031543,0.4416"
     id="path56"
     inkscape:path-effect="#path-effect56"
     inkscape:original-d="m 0.75703325,549.70077 c 0.21542924,1.26315 0.20944235,2.54865 0.37851665,3.81671 0.026762,0.20071 0.1210993,0.4416 0.031543,0.4416" />
  <path
     style="fill:none;stroke:#979797;stroke-width:0.9;stroke-dasharray:none;stroke-opacity:1"
     d="m 0.97783461,558.94288 c -0.0677971,0.31128 -0.11004268,0.62812 -0.1261722,0.94629 -0.0260988,0.51482 0.0160415,1.03233 -0.0315431,1.54561 -0.0469077,0.50598 -0.18079351,1.00644 -0.15771526,1.51407 0.0134441,0.29571 0.0794976,0.59807 0,0.88321 -0.0322942,0.11583 -0.0883191,0.22688 -0.0946292,0.34697 -0.00276,0.0525 0.004172,0.10528 0,0.15771 -0.009533,0.1198 -0.0758409,0.22828 -0.0946292,0.34698 -0.0148182,0.0936 5.4492e-4,0.18911 0,0.28389 -6.2025e-4,0.10788 -0.0221651,0.21561 -0.0630861,0.31543"
     id="path57"
     inkscape:path-effect="#path-effect57"
     inkscape:original-d="m 0.97783461,558.94288 c -0.0420574,0.31543 -0.10607179,0.62871 -0.1261722,0.94629 -0.0325495,0.51429 -0.0112177,1.0307 -0.0315431,1.54561 -0.0822504,2.08368 -0.0207225,-0.22117 -0.15771526,1.51407 -0.0370576,0.4694 0.0239784,0.47557 0,0.88321 -0.0238393,0.40526 -0.0228515,-0.0119 -0.0946292,0.34697 -0.0103102,0.0516 0.005231,0.1054 0,0.15771 -0.0152526,0.15253 -0.0509709,0.19417 -0.0946292,0.34698 -0.02482,0.0869 0.0195402,0.19595 0,0.28389 -0.0763858,0.34373 -0.0630861,0.0503 -0.0630861,0.31543" />
  <path
     style="fill:none;stroke:#979797;stroke-width:0.9;stroke-dasharray:none;stroke-opacity:1"
     d="m 1.1040068,570.2353 c -0.063571,1.09292 -0.11614586,2.18649 -0.15771524,3.28047 -0.015177,0.39941 -0.0288884,0.79895 -0.0315431,1.19864 -0.002027,0.30525 0.002351,0.61138 -0.0315431,0.91475 -0.008257,0.0739 -0.0187775,0.14755 -0.0315431,0.2208"
     id="path58"
     inkscape:path-effect="#path-effect58"
     inkscape:original-d="m 1.1040068,570.2353 c -0.025989,1.09451 -0.12455605,2.18622 -0.15771524,3.28047 -0.0246041,0.81194 0.0323677,0.55953 -0.0315431,1.19864 -0.0305693,0.30569 -0.0315431,0.60592 -0.0315431,0.91475 0,0.0494 0.02866,0.2208 -0.0315431,0.2208" />
  <path
     style="fill:none;stroke:#979797;stroke-width:0.9;stroke-dasharray:none;stroke-opacity:1"
     d="m 0.82011935,582.15857 c 0.0342716,0.23264 0.0763606,0.46413 0.12617221,0.69395 0.0861578,0.39751 0.19581634,0.79266 0.22080134,1.19863 0.012275,0.19946 0.00394,0.39952 0,0.59932 -0.00352,0.17872 -0.00352,0.35751 0,0.53623 -0.1016632,0.35873 -0.1548675,0.73116 -0.1577152,1.10401 -0.00209,0.27349 0.022734,0.54757 0,0.82012 -0.00925,0.11087 -0.0263417,0.22105 -0.0325663,0.33212 -0.006225,0.11108 -0.001262,0.2243 0.0325663,0.33028 0.030421,0.0953 0.083941,0.18442 0.094629,0.28389 0.00562,0.0523 -9.665e-4,0.10512 0,0.15772 0.00137,0.0744 0.017813,0.14763 0.031543,0.2208 0.070213,0.37417 0.070213,0.76138 0,1.13555"
     id="path59"
     inkscape:path-effect="#path-effect59"
     inkscape:original-d="m 0.82011935,582.15857 c 0.0420574,0.23131 0.0828445,0.46287 0.12617221,0.69395 0.0732504,0.39066 0.16397914,0.80088 0.22080134,1.19863 0.026205,0.18344 0,0.41944 0,0.59932 0,0.17874 0.014844,0.35811 0,0.53623 0.1323422,0.39741 -0.1187999,0.73431 -0.1577152,1.10401 -0.0279471,0.2655 0,0.55242 0,0.82012 0,0.21385 -0.0301778,0.45116 0,0.6624 0.053148,0.37204 0.00516,-0.16345 0.094629,0.28389 0.01031,0.0515 -0.00437,0.10532 0,0.15772 0.00617,0.0741 0.024145,0.14682 0.031543,0.2208 0.03706,0.3706 0,0.76139 0,1.13555" />
</svg>
