<?xml version="1.0" encoding="UTF-8" standalone="no"?>
<!-- Created with Inkscape (http://www.inkscape.org/) -->

<svg
   width="40"
   height="40"
   viewBox="0 0 10.583333 10.583333"
   version="1.1"
   id="svg1"
   xml:space="preserve"
   inkscape:version="1.3.2 (091e20e, 2023-11-25, custom)"
   sodipodi:docname="ALL.svg"
   xmlns:inkscape="http://www.inkscape.org/namespaces/inkscape"
   xmlns:sodipodi="http://sodipodi.sourceforge.net/DTD/sodipodi-0.dtd"
   xmlns="http://www.w3.org/2000/svg"
   xmlns:svg="http://www.w3.org/2000/svg"><sodipodi:namedview
     id="namedview1"
     pagecolor="#ffffff"
     bordercolor="#000000"
     borderopacity="0.25"
     inkscape:showpageshadow="2"
     inkscape:pageopacity="0.0"
     inkscape:pagecheckerboard="0"
     inkscape:deskcolor="#d1d1d1"
     inkscape:document-units="mm"
     inkscape:zoom="16.719529"
     inkscape:cx="9.5098375"
     inkscape:cy="13.726464"
     inkscape:window-width="2560"
     inkscape:window-height="1369"
     inkscape:window-x="-8"
     inkscape:window-y="-8"
     inkscape:window-maximized="1"
     inkscape:current-layer="layer1" /><defs
     id="defs1"><inkscape:path-effect
       effect="spiro"
       id="path-effect16"
       is_visible="true"
       lpeversion="1" /><inkscape:path-effect
       effect="spiro"
       id="path-effect15"
       is_visible="true"
       lpeversion="1" /><inkscape:path-effect
       effect="spiro"
       id="path-effect14"
       is_visible="true"
       lpeversion="1" /><inkscape:path-effect
       effect="spiro"
       id="path-effect13"
       is_visible="true"
       lpeversion="1" /><inkscape:path-effect
       effect="spiro"
       id="path-effect12"
       is_visible="true"
       lpeversion="1" /><inkscape:path-effect
       effect="spiro"
       id="path-effect11"
       is_visible="true"
       lpeversion="1" /><inkscape:path-effect
       effect="spiro"
       id="path-effect10"
       is_visible="true"
       lpeversion="1" /><inkscape:path-effect
       effect="spiro"
       id="path-effect9"
       is_visible="true"
       lpeversion="1" /><inkscape:path-effect
       effect="spiro"
       id="path-effect8"
       is_visible="true"
       lpeversion="1" /><inkscape:path-effect
       effect="spiro"
       id="path-effect7"
       is_visible="true"
       lpeversion="1" /><inkscape:path-effect
       effect="spiro"
       id="path-effect6"
       is_visible="true"
       lpeversion="1" /><inkscape:path-effect
       effect="spiro"
       id="path-effect5"
       is_visible="true"
       lpeversion="1" /><inkscape:path-effect
       effect="spiro"
       id="path-effect4"
       is_visible="true"
       lpeversion="1" /><inkscape:path-effect
       effect="spiro"
       id="path-effect3"
       is_visible="true"
       lpeversion="1" /><inkscape:path-effect
       effect="spiro"
       id="path-effect2"
       is_visible="true"
       lpeversion="1" /><inkscape:path-effect
       effect="spiro"
       id="path-effect1"
       is_visible="true"
       lpeversion="1" /></defs><g
     inkscape:label="Layer 1"
     inkscape:groupmode="layer"
     id="layer1"><path
       style="display:inline;opacity:1;fill:#52d493;fill-opacity:1;stroke:#164441;stroke-width:0.506;stroke-dasharray:none;stroke-opacity:0.956863"
       d="m 6.7413681,6.8521418 c -0.048301,0.047456 -0.090902,0.100708 -0.1265983,0.1582481 -0.045187,0.072839 -0.079421,0.1530737 -0.094949,0.2373722 -0.0046,0.024968 -0.00757,0.050279 -0.013959,0.07485 -0.00639,0.024571 -0.016499,0.048731 -0.033515,0.067574 -0.010006,0.01108 -0.02219,0.020098 -0.031649,0.031649 -0.015003,0.018321 -0.022111,0.041625 -0.03165,0.063299 -0.020692,0.047018 -0.053532,0.087483 -0.086223,0.1271071 -0.032691,0.039624 -0.065991,0.079604 -0.08785,0.1260905 -0.032737,0.069619 -0.03764,0.149021 -0.063299,0.2215473 -0.031513,0.089073 -0.093207,0.1648107 -0.1265987,0.2531969 -0.015952,0.042225 -0.025404,0.087224 -0.047474,0.1265984 -0.02362,0.042139 -0.060799,0.075699 -0.1026718,0.099786 -0.041873,0.024087 -0.0884,0.039146 -0.1355347,0.049722 -0.09427,0.02115 -0.1925453,0.025102 -0.2840122,0.056215 -0.042683,0.014519 -0.083334,0.034792 -0.1265984,0.047474 -0.058468,0.017139 -0.1200157,0.019953 -0.180249,0.029132 -0.060233,0.00918 -0.1217881,0.025989 -0.1678969,0.065817 -0.016942,0.014634 -0.031315,0.031981 -0.047474,0.047474 -0.053149,0.050957 -0.123724,0.080037 -0.1950209,0.098428 C 4.6868471,8.8521124 4.6134068,8.8609105 4.54172,8.8777174 4.4353352,8.9026592 4.3330585,8.9453753 4.2410485,9.0043158 4.1584057,9.0572558 4.0845494,9.1227824 4.0036765,9.1783886 3.9140879,9.2399875 3.816547,9.2889723 3.7188298,9.3366367 3.5492707,9.4193441 3.3739116,9.4999021 3.1861726,9.5184723 3.0923031,9.5277574 2.9961547,9.5209978 2.9064959,9.4916892 2.8168371,9.4623806 2.7338789,9.4098423 2.6743924,9.3366367 2.6309815,9.2832142 2.6009497,9.2203987 2.5636189,9.1625638 2.488463,9.046128 2.3846848,8.9512694 2.2787723,8.8618924 2.1729395,8.7725827 2.0636429,8.6872191 1.9622762,8.5928707 1.9458883,8.5776174 1.9296932,8.5621136 1.9148018,8.5453962 1.8233925,8.4427783 1.7875232,8.3021905 1.7723785,8.1656009 c -0.00882,-0.079526 -0.011313,-0.1621018 0.015825,-0.237372 0.02002,-0.055529 0.055192,-0.1042897 0.079124,-0.1582481 0.027069,-0.06103 0.039293,-0.1275992 0.063299,-0.1898978 0.010216,-0.026512 0.02255,-0.052209 0.03165,-0.079124 0.030677,-0.090736 0.022977,-0.1893327 0.015825,-0.2848467 -0.0071,-0.094876 -0.01329,-0.1906374 0,-0.2848465 0.013647,-0.096737 0.047451,-0.1892603 0.076734,-0.2824628 0.029283,-0.093202 0.054427,-0.1896423 0.049864,-0.2872302 C 2.1002788,6.2670376 2.067955,6.1755048 2.0236283,6.0918891 1.9793015,6.0082735 1.9230832,5.9316495 1.8673274,5.8551791 1.8351393,5.8110324 1.802395,5.7655155 1.7882033,5.7127557 1.7771427,5.6716364 1.7779972,5.6283657 1.7723786,5.5861571 1.7608264,5.499373 1.7222559,5.4188201 1.6978152,5.3347511 1.6855948,5.2927166 1.6768507,5.2493153 1.677058,5.2055409 c 2.073e-4,-0.043774 0.00973,-0.088105 0.032021,-0.1257775 0.00969,-0.016371 0.021643,-0.031296 0.03165,-0.047474 0.01621,-0.026207 0.027369,-0.055771 0.047474,-0.079124 0.022085,-0.025653 0.053092,-0.041662 0.079124,-0.063299 0.040325,-0.033516 0.067873,-0.079838 0.090496,-0.1271412 C 1.980447,4.715422 1.9990259,4.6660602 2.0255755,4.6208439 2.0801714,4.5278621 2.1660629,4.4567996 2.2584995,4.4012857 2.3509362,4.3457718 2.4508842,4.3041469 2.5477942,4.2568733 2.8855281,4.0921236 3.1868388,3.8585 3.5289323,3.7030051 c 0.039865,-0.01812 0.080469,-0.035231 0.1230907,-0.045276 0.042622,-0.010045 0.087621,-0.012806 0.130106,-0.0022 0.059032,0.014739 0.1090761,0.054062 0.1507295,0.098413 0.041653,0.044351 0.07676,0.094495 0.1182922,0.1389592 0.068837,0.073698 0.1542237,0.13064 0.2215476,0.2057226 0.079307,0.088447 0.1301141,0.1980147 0.1898975,0.3006714 0.1100618,0.1889919 0.2564584,0.3607338 0.4430948,0.4747443 0.056413,0.034461 0.1159887,0.063387 0.1740728,0.094949 0.054068,0.02938 0.1068811,0.061068 0.1582481,0.094949 0.1095562,0.055257 0.220368,0.1080244 0.3323209,0.1582481 0.032311,0.014495 0.064835,0.02884 0.094949,0.047474 0.066779,0.041321 0.1195231,0.1013763 0.1714758,0.1602648 0.051953,0.058889 0.1053161,0.1165274 0.1608451,0.1720564 l 0.094949,0.094949 c 0.00537,0.00537 0.010176,0.011273 0.014594,0.017453 0.00221,0.00309 0.00446,0.00618 0.00721,0.0088 0.00275,0.00262 0.0061,0.00476 0.00985,0.00539 0.00261,4.394e-4 0.00528,1.246e-4 0.00792,-1.433e-4 0.00264,-2.679e-4 0.00533,-4.842e-4 0.00791,1.433e-4 0.00222,5.404e-4 0.00427,0.0017 0.00593,0.00326 0.00167,0.00156 0.00296,0.0035 0.00383,0.00561 0.00175,0.00422 0.00181,0.00899 8.857e-4,0.013456 -0.00185,0.00894 -0.00736,0.016636 -0.010647,0.025148 -0.00344,0.00889 -0.00439,0.018662 -0.00326,0.028128 0.00113,0.00947 0.00432,0.01863 0.00886,0.027013 0.00908,0.016767 0.023299,0.030184 0.03843,0.041785 0.015131,0.011601 0.031394,0.021689 0.046243,0.033649 0.014849,0.01196 0.028472,0.026123 0.036323,0.043498 0.010424,0.023069 0.00977,0.04946 0.015602,0.074093 0.00292,0.012317 0.0076,0.024446 0.015564,0.034285 0.00796,0.00984 0.019516,0.017207 0.032133,0.01822 0.00526,4.223e-4 0.010553,-2.453e-4 0.015825,0 0.013304,6.19e-4 0.025914,0.00715 0.035458,0.016439 0.00954,0.00929 0.016234,0.021181 0.021051,0.033598 0.00963,0.024834 0.012191,0.052048 0.022614,0.076561 0.010362,0.02437 0.027968,0.044855 0.045793,0.06444 0.017825,0.019584 0.036351,0.038979 0.049156,0.062159 0.021842,0.039536 0.02545,0.087163 0.047474,0.1265984 0.014061,0.025177 0.03491,0.045727 0.05372,0.067586 0.01881,0.021859 0.036272,0.046428 0.041229,0.074837 0.00273,0.015638 0.00152,0.031672 0,0.047474 -0.00195,0.020352 -0.00432,0.041434 0.00222,0.060806 0.00327,0.00969 0.00883,0.018746 0.016763,0.025198 0.00793,0.00645 0.018334,0.010108 0.02849,0.00895 0.00267,-3.053e-4 0.00529,-9.299e-4 0.00797,-0.00116 0.00267,-2.351e-4 0.00547,-5.35e-5 0.00786,0.00116 0.00273,0.00139 0.00468,0.00402 0.00585,0.00686 0.00117,0.00284 0.00165,0.0059 0.00212,0.00893 4.67e-4,0.00303 9.372e-4,0.0061 0.00209,0.00894 0.00115,0.00284 0.00306,0.00549 0.00577,0.00692 0.00238,0.00126 0.00518,0.00148 0.00786,0.00126 0.00268,-2.227e-4 0.00531,-8.669e-4 0.00797,-0.00126 0.013533,-0.002 0.02791,0.00295 0.037336,0.012867 0.00943,0.00991 0.013648,0.024523 0.010965,0.037938 -0.00268,0.013415 -0.012199,0.025275 -0.024714,0.030802 -0.012514,0.00553 -0.027691,0.00457 -0.039413,-0.00248 z"
       id="path8"
       inkscape:path-effect="#path-effect8"
       inkscape:original-d="m 6.7413681,6.8521418 c -0.073925,0.073926 -0.082155,0.069362 -0.1265983,0.1582481 -0.028902,0.057803 -0.074123,0.1790599 -0.094949,0.2373722 -0.01683,0.047127 -0.021728,0.099512 -0.047474,0.1424234 -0.00768,0.012793 -0.023373,0.019235 -0.031649,0.031649 -0.013086,0.019629 -0.017939,0.044103 -0.03165,0.063299 C 6.2973595,7.641497 6.2932693,7.5984234 6.2349744,7.7383311 6.2048236,7.810693 6.1987908,7.8875696 6.1716753,7.9598784 6.0036445,8.4079603 6.1639891,8.004979 6.0450766,8.2130753 6.024373,8.2493069 6.0284634,8.3088135 5.9976022,8.3396737 5.848805,8.4884711 5.6682356,8.495087 5.4753835,8.5453962 5.4317741,8.5567733 5.3921202,8.5804893 5.3487851,8.5928707 5.2578629,8.6188475 5.0935244,8.641377 5.0006392,8.6878196 4.9806235,8.6978288 4.9710686,8.7218662 4.953165,8.735294 4.8779974,8.7916696 4.6330986,8.8419606 4.54172,8.8777174 4.1241138,9.0704587 4.4878614,8.9117608 4.2410485,9.0043158 4.1748495,9.029139 4.0592472,9.139489 4.0036765,9.1783886 3.9416399,9.2218141 3.7848024,9.3112629 3.7188298,9.3366367 c -0.1865193,0.071738 -0.8424148,0.067341 -1.0444374,0 C 2.5971249,9.3108808 2.6047717,9.2201779 2.5636189,9.1625638 2.4646599,9.0240211 2.4116211,8.9705869 2.2787723,8.8618924 2.1584779,8.7634698 2.0589854,8.705698 1.9622762,8.5928707 1.9477117,8.5758789 1.926316,8.5645867 1.9148018,8.5453962 1.8755021,8.4798968 1.7882069,8.2394667 1.7723785,8.1656009 c -0.00869,-0.040535 0.00961,-0.2177058 0.015825,-0.237372 0.017759,-0.056238 0.056794,-0.1036635 0.079124,-0.1582481 0.025264,-0.061756 0.041092,-0.1269783 0.063299,-0.1898978 0.00945,-0.026787 0.027975,-0.050956 0.03165,-0.079124 0.012299,-0.094297 0.012431,-0.1898121 0.015825,-0.2848467 0.00339,-0.094888 -0.02135,-0.1923291 0,-0.2848465 0.04576,-0.1982961 0.1564589,-0.3606666 0.126598,-0.569693 C 2.0773457,6.1700965 1.9626071,6.0171546 1.8673274,5.8551791 1.8397917,5.8083685 1.7988541,5.7660097 1.7882033,5.7127557 1.7798629,5.6710537 1.7802158,5.6279568 1.7723786,5.5861571 1.7472485,5.4521298 1.6748474,5.2166914 1.7090794,5.0797634 c 0.00461,-0.018452 0.02157,-0.031346 0.03165,-0.047474 0.016301,-0.026083 0.02704,-0.056135 0.047474,-0.079124 0.02244,-0.025244 0.058024,-0.036925 0.079124,-0.063299 C 1.918968,4.8253149 1.9705763,4.6850096 2.0255755,4.6208439 2.1623102,4.46132 2.3759026,4.3714677 2.5477942,4.2568733 2.8788047,4.0361996 3.1392391,3.814346 3.5289323,3.7030051 c 0.041205,-0.011774 0.2274168,-0.068958 0.2531967,-0.047474 0.091617,0.076347 0.1752574,0.1623605 0.2690217,0.237372 0.1446628,0.1157301 0.1114851,0.062641 0.2215476,0.2057226 0.071454,0.09289 0.1267327,0.202415 0.1898975,0.3006714 0.1157904,0.1801183 0.2665764,0.3511815 0.4430948,0.4747443 0.054147,0.037903 0.1166865,0.062157 0.1740728,0.094949 0.053411,0.03052 0.1032267,0.067438 0.1582481,0.094949 0.2758919,0.1149548 0.1015505,0.033987 0.3323209,0.1582481 0.031156,0.016777 0.067318,0.025368 0.094949,0.047474 0.1191784,0.095343 0.2244659,0.2244662 0.3323209,0.3323212 0.03165,0.03165 0.063299,0.063299 0.094949,0.094949 0.010549,0.010549 0.019235,0.023373 0.03165,0.031649 0.00439,0.00293 0.014158,-0.005 0.015825,0 0.005,0.015012 -0.00556,0.032657 0,0.047474 0.03099,0.08264 0.078255,0.098105 0.1265984,0.1740728 0.039667,0.062334 0.015253,0.078553 0.063299,0.1265987 0.00373,0.00373 0.012094,-0.00373 0.015825,0 0.035188,0.035188 0.05152,0.085193 0.079124,0.1265983 0.02926,0.04389 0.069332,0.080487 0.094949,0.1265986 0.1166183,0.2099125 -0.02359,-0.015531 0.047474,0.1265984 0.024821,0.049643 0.074368,0.090972 0.094949,0.1424234 0.00588,0.014692 -0.00708,0.03332 0,0.047474 0.00705,0.014092 0.039748,0.087222 0.047474,0.094949 0.00373,0.00373 0.011107,-0.00235 0.015825,0 0.065859,0.03293 -0.016917,-0.00108 0.015825,0.03165 0.00373,0.00373 0.012094,-0.00373 0.015825,0 0.019018,0.019018 -0.0093,0.05303 -0.015826,0.079124 z" /><path
       style="display:inline;opacity:1;fill:#ffffff;fill-opacity:1;stroke:#194a44;stroke-width:0.506;stroke-dasharray:none;stroke-opacity:1"
       d="M 3.8929026,3.5131073 C 3.9965853,3.2539006 4.1050644,2.996637 4.2093988,2.7376919 4.2394326,2.6631517 4.2691576,2.5883936 4.3043477,2.5161445 4.346164,2.430291 4.396207,2.347416 4.4625958,2.2787723 c 0.015559,-0.016087 0.031963,-0.03134 0.047474,-0.047474 0.044796,-0.046596 0.081919,-0.1004103 0.1107737,-0.1582481 0.01379,-0.027641 0.026116,-0.056807 0.047474,-0.079124 0.028066,-0.029325 0.06829,-0.043281 0.1074747,-0.053874 0.039184,-0.010593 0.079872,-0.019212 0.1140726,-0.041075 0.024408,-0.015603 0.044275,-0.037204 0.066198,-0.05614 0.021923,-0.018936 0.04741,-0.035826 0.076225,-0.038809 0.010503,-0.00109 0.021095,-2.812e-4 0.03165,0 0.1014356,0.0027 0.197725,-0.042927 0.2848464,-0.094949 0.030471,-0.018195 0.060882,-0.037525 0.094949,-0.047474 0.020889,-0.0061 0.04279,-0.00855 0.063299,-0.015825 0.025708,-0.00912 0.048132,-0.02541 0.070486,-0.041043 0.022354,-0.015632 0.045576,-0.031069 0.071937,-0.038081 0.03878,-0.010316 0.079699,-0.00136 0.119199,0.00571 0.01975,0.00354 0.039689,0.00661 0.059753,0.00652 0.020064,-8.9e-5 0.04038,-0.00345 0.05842,-0.012233 0.00812,-0.00395 0.015936,-0.00905 0.024849,-0.010526 0.00446,-7.399e-4 0.00915,-5.129e-4 0.013321,0.00122 0.00417,0.00173 0.00777,0.00506 0.0093,0.00931 9.028e-4,0.00251 0.00107,0.00523 9.205e-4,0.00789 -1.501e-4,0.00266 -6.075e-4,0.00529 -9.205e-4,0.00794 -0.00186,0.015718 0.0015,0.031918 0.00891,0.045905 0.00741,0.013988 0.018764,0.025763 0.032145,0.034216 0.026762,0.016906 0.060743,0.020049 0.0916,0.012986 0.030856,-0.00706 0.058875,-0.023572 0.083554,-0.043395 0.024679,-0.019823 0.046399,-0.043014 0.068641,-0.065537 0.00524,-0.00531 0.010517,-0.010583 0.015825,-0.015825 0.010289,-0.00578 0.020855,-0.011059 0.031649,-0.015825 0.085644,-0.037811 0.1830432,-0.042082 0.2690231,-0.079124 0.060769,-0.02618 0.113534,-0.067758 0.1634802,-0.1111587 0.049946,-0.0434 0.098108,-0.08929 0.153016,-0.1262134 C 7.0094447,1.112731 7.2085506,1.0888369 7.3743602,0.99696314 7.4696973,0.94413766 7.5544256,0.86872456 7.6592069,0.83871505 c 0.067402,-0.0193041 0.1393165,-0.0183712 0.2084992,-0.006993 0.069183,0.0113783 0.1362328,0.0329008 0.2029456,0.0544673 0.073116,0.0236367 0.1463556,0.0474597 0.2215476,0.0632992 0.1068165,0.0225013 0.2192725,0.029489 0.3164961,0.0791241 0.1037823,0.052983 0.1782651,0.1484636 0.2690217,0.2215473 0.049671,0.039998 0.1055852,0.074541 0.1424231,0.1265984 0.036099,0.051013 0.050421,0.1144085 0.055668,0.1766816 0.00525,0.062273 0.00224,0.1250282 0.00763,0.187289 0.01682,0.1942111 0.1143219,0.3751422 0.1265986,0.5696932 0.00465,0.073717 0,0.1476842 0,0.2215474 v 0.4589195 c 0,0.047478 0.00199,0.094987 0,0.1424232 -0.00614,0.1460805 -0.062029,0.2848147 -0.094949,0.4272697 -0.041288,0.1786685 -0.046987,0.3661177 -0.1107736,0.5380433 -0.061373,0.1654196 -0.172918,0.3067048 -0.2848464,0.4430948 -0.016745,0.020404 -0.033595,0.040847 -0.047474,0.063299 -0.044027,0.071221 -0.055229,0.157124 -0.079124,0.237372 -0.038182,0.1282266 -0.1106377,0.2469605 -0.1265983,0.3797956 -0.00448,0.037251 -0.00438,0.074891 -0.0072,0.1123031 -0.00282,0.037412 -0.00874,0.075173 -0.02445,0.1092442 -0.027026,0.058612 -0.080476,0.1012578 -0.1107736,0.1582481 -0.026718,0.050257 -0.034174,0.1093463 -0.063299,0.158248 -0.024932,0.041862 -0.063907,0.073218 -0.094949,0.1107737 -0.036535,0.044202 -0.061663,0.096457 -0.088748,0.1470038 -0.027085,0.050547 -0.057292,0.1008947 -0.101149,0.1378426 -0.014433,0.012159 -0.030171,0.022708 -0.044487,0.035004 -0.014316,0.012296 -0.027405,0.026689 -0.034637,0.04412 -0.00228,0.0055 -0.00395,0.011241 -0.00623,0.016746 -0.00227,0.00551 -0.00522,0.010865 -0.0096,0.014903 -0.0062,0.00572 -0.014658,0.00826 -0.022929,0.00991 -0.00827,0.00165 -0.016783,0.00262 -0.024545,0.00592 -0.00789,0.00335 -0.014662,0.009 -0.020234,0.015518 -0.00557,0.00652 -0.010019,0.013917 -0.014158,0.021429 -0.00828,0.015024 -0.015789,0.031125 -0.028907,0.042177 -0.010323,0.0087 -0.023353,0.013548 -0.036458,0.016778 -0.013106,0.00323 -0.026544,0.005 -0.039601,0.00842 -0.013056,0.00342 -0.025977,0.00868 -0.035902,0.017832 -0.00496,0.00457 -0.00911,0.010092 -0.011761,0.016296 -0.00266,0.0062 -0.00379,0.013106 -0.00288,0.019793 3.64e-4,0.00267 0.00105,0.00529 0.0013,0.00797 2.492e-4,0.00268 2.96e-5,0.00551 -0.0013,0.00785 -7.874e-4,0.00139 -0.00195,0.00257 -0.00333,0.00338 -0.00138,8.064e-4 -0.00298,0.00124 -0.00458,0.00124 -0.0016,0 -0.0032,-4.321e-4 -0.00458,-0.00124 -0.00138,-8.064e-4 -0.00254,-0.00199 -0.00333,-0.00338 -0.012365,0.0085 -0.023152,0.019285 -0.03165,0.03165 -0.010801,0.015717 -0.018063,0.034092 -0.03165,0.047474 -0.010877,0.010713 -0.025112,0.017448 -0.039718,0.021892 -0.014606,0.00444 -0.029754,0.00677 -0.0447,0.00988 -0.014946,0.00311 -0.029911,0.00708 -0.043256,0.014498 -0.013345,0.00741 -0.025063,0.018618 -0.030574,0.032855 -0.00218,0.00562 -0.00335,0.011588 -0.00544,0.017244 -0.00209,0.00566 -0.00529,0.011192 -0.010388,0.014405 -0.00459,0.00289 -0.010279,0.0036 -0.01569,0.00316 -0.00541,-4.408e-4 -0.010669,-0.00194 -0.01596,-0.00316 -0.020782,-0.00478 -0.042271,-0.00525 -0.063572,-0.00625 -0.021301,-0.00101 -0.042863,-0.00263 -0.063026,-0.00957 -0.028254,-0.00972 -0.051881,-0.029168 -0.07636,-0.046302 -0.01224,-0.00857 -0.024894,-0.016665 -0.038549,-0.022726 -0.013656,-0.00606 -0.028398,-0.010051 -0.043338,-0.010096 -0.00795,-2.37e-5 -0.01586,0.00106 -0.023793,0.00161 -0.00793,5.486e-4 -0.016026,5.423e-4 -0.023681,-0.00161 -0.011039,-0.00311 -0.020458,-0.010515 -0.027981,-0.019171 -0.00752,-0.00866 -0.013382,-0.018599 -0.019494,-0.028303 -0.022304,-0.035407 -0.049469,-0.069159 -0.085875,-0.089791 -0.018203,-0.010316 -0.03855,-0.017132 -0.059429,-0.018489 -0.020879,-0.00136 -0.042282,0.0029 -0.060418,0.01333 -0.00534,0.00307 -0.010584,0.00674 -0.016666,0.00773 -0.00304,4.957e-4 -0.00625,2.693e-4 -0.00905,-0.00103 -0.0014,-6.472e-4 -0.00268,-0.00156 -0.00371,-0.0027 -0.00103,-0.00114 -0.00182,-0.00252 -0.00222,-0.004 -6.983e-4,-0.00257 -2.489e-4,-0.00529 1.534e-4,-0.00792 4.023e-4,-0.00263 7.424e-4,-0.00539 -1.534e-4,-0.0079 -5.784e-4,-0.00162 -0.00167,-0.00305 -0.00307,-0.00404 -0.00141,-9.903e-4 -0.00312,-0.00153 -0.00484,-0.00153 -0.00172,0 -0.00343,5.436e-4 -0.00484,0.00153 -0.00141,9.903e-4 -0.00249,0.00242 -0.00307,0.00404 -0.00442,-0.010951 -0.00971,-0.021546 -0.015825,-0.03165 -0.037001,-0.061177 -0.1005515,-0.1001968 -0.1582463,-0.1424218 -0.036374,-0.026621 -0.071956,-0.056179 -0.094949,-0.094949 -0.014528,-0.024497 -0.023512,-0.051831 -0.03165,-0.079124 -0.011373,-0.038145 -0.021383,-0.0769 -0.037796,-0.1131625 -0.016413,-0.036263 -0.039905,-0.070411 -0.072977,-0.09256 -0.019705,-0.013197 -0.042269,-0.021803 -0.061467,-0.035728 -0.0096,-0.00696 -0.018351,-0.01531 -0.024592,-0.025393 -0.00624,-0.010083 -0.00986,-0.022009 -0.00889,-0.033828 4.386e-4,-0.00536 0.0018,-0.010606 0.00236,-0.015954 5.662e-4,-0.00535 2.713e-4,-0.011008 -0.00236,-0.015696 -0.00148,-0.00264 -0.00366,-0.00486 -0.00613,-0.00662 -0.00247,-0.00175 -0.00524,-0.00306 -0.00808,-0.0041 -0.00569,-0.00208 -0.01172,-0.00311 -0.017441,-0.00511 -0.016357,-0.00571 -0.029092,-0.018925 -0.038552,-0.033441 -0.00946,-0.014516 -0.016223,-0.0306 -0.024747,-0.045683 -0.018911,-0.033462 -0.046699,-0.061893 -0.079856,-0.081336 -0.033156,-0.019443 -0.071608,-0.029821 -0.1100423,-0.029437 -0.015843,1.584e-4 -0.03177,0.0021 -0.047474,0 -0.017215,-0.0023 -0.03358,-0.00945 -0.047864,-0.019331 -0.014284,-0.00988 -0.026567,-0.022439 -0.037356,-0.036049 -0.021579,-0.02722 -0.03729,-0.058581 -0.057203,-0.087042 -0.036062,-0.051543 -0.085593,-0.092866 -0.1404134,-0.1237196 -0.05482,-0.030854 -0.114901,-0.051549 -0.1760827,-0.066178 -0.016284,-0.00389 -0.032959,-0.00748 -0.047474,-0.015825 -0.015746,-0.00905 -0.027973,-0.023187 -0.038202,-0.038196 -0.010229,-0.015009 -0.018764,-0.031122 -0.02907,-0.046078 -0.010306,-0.014956 -0.022695,-0.028976 -0.038579,-0.037785 -0.00794,-0.0044 -0.016698,-0.00744 -0.025729,-0.00839 -0.00903,-9.506e-4 -0.018341,2.236e-4 -0.026668,0.00385 -0.00267,0.00116 -0.00528,0.00258 -0.00816,0.00299 -0.00144,2.028e-4 -0.00293,1.382e-4 -0.00431,-3.413e-4 -0.00137,-4.794e-4 -0.00262,-0.00139 -0.00335,-0.00265 -6.856e-4,-0.00116 -9.059e-4,-0.00256 -8.494e-4,-0.00391 5.66e-5,-0.00135 3.745e-4,-0.00267 7.031e-4,-0.00399 3.285e-4,-0.00131 6.707e-4,-0.00263 7.775e-4,-0.00397 1.068e-4,-0.00135 -3.42e-5,-0.00274 -6.312e-4,-0.00396 -6.473e-4,-0.00131 -0.00181,-0.00234 -0.00314,-0.00295 -0.00133,-6.055e-4 -0.00283,-8.038e-4 -0.00429,-6.994e-4 -0.00292,2.088e-4 -0.00562,0.00157 -0.0082,0.00297 -0.00258,0.00139 -0.00519,0.00287 -0.00809,0.00334 -0.00145,2.335e-4 -0.00295,2.028e-4 -0.00435,-2.203e-4 -0.0014,-4.232e-4 -0.0027,-0.00125 -0.00357,-0.00243 -8.021e-4,-0.00109 -0.00121,-0.00243 -0.00134,-0.00378 -1.223e-4,-0.00135 3.09e-5,-0.0027 2.733e-4,-0.00404 4.846e-4,-0.00266 0.00133,-0.00532 0.00106,-0.00801 -3.125e-4,-0.00314 -0.00216,-0.006 -0.00462,-0.00799 -0.00245,-0.00199 -0.00547,-0.00318 -0.00854,-0.00393 -0.00614,-0.00151 -0.012699,-0.00139 -0.018498,-0.0039 -0.00446,-0.00193 -0.00817,-0.00531 -0.011071,-0.0092 -0.0029,-0.0039 -0.00502,-0.00831 -0.00691,-0.012776 -0.00378,-0.00894 -0.00688,-0.018554 -0.013666,-0.025497 -0.00416,-0.00426 -0.00946,-0.00722 -0.014938,-0.00956 -0.00547,-0.00233 -0.011177,-0.00408 -0.016712,-0.00627 -0.021179,-0.00836 -0.039461,-0.022956 -0.054785,-0.039798 -0.015324,-0.016842 -0.027906,-0.03596 -0.040163,-0.05515 -0.034706,-0.054333 -0.067646,-0.1103255 -0.1107736,-0.158248 -0.037618,-0.0418 -0.083092,-0.077648 -0.1107737,-0.1265984 -0.00761,-0.013455 -0.013736,-0.02769 -0.020873,-0.041401 -0.00714,-0.013711 -0.015414,-0.027056 -0.026601,-0.037723 -0.00957,-0.00913 -0.020991,-0.016033 -0.032169,-0.023099 -0.011178,-0.00707 -0.02235,-0.014485 -0.03113,-0.024375 -0.010257,-0.011554 -0.016735,-0.025883 -0.023243,-0.039895 -0.00651,-0.014012 -0.013392,-0.02822 -0.024231,-0.039229 -0.013381,-0.013591 -0.031575,-0.021115 -0.047474,-0.03165 -0.018761,-0.01243 -0.034396,-0.029159 -0.047474,-0.047474 -0.015693,-0.021977 -0.027913,-0.046361 -0.044639,-0.067562 -0.00836,-0.010601 -0.017877,-0.020398 -0.028958,-0.028113 -0.011081,-0.00772 -0.023794,-0.013306 -0.037177,-0.015098 -0.013335,-0.00179 -0.027141,1.807e-4 -0.040153,-0.00324 -0.00651,-0.00171 -0.012782,-0.00485 -0.0173,-0.00984 -0.00226,-0.00249 -0.00405,-0.00542 -0.00511,-0.00862 -0.00105,-0.00319 -0.00136,-0.00665 -7.411e-4,-0.00996 5.111e-4,-0.00274 0.00164,-0.00534 0.00207,-0.00809 2.145e-4,-0.00138 2.504e-4,-0.00279 -5.62e-5,-0.00415 -3.066e-4,-0.00136 -9.726e-4,-0.00266 -0.00201,-0.00359 -0.00102,-9.12e-4 -0.00235,-0.00143 -0.0037,-0.00162 -0.00135,-1.929e-4 -0.00273,-7.65e-5 -0.00408,1.637e-4 -0.00269,4.805e-4 -0.00532,0.00146 -0.00805,0.00146 -0.0033,4.9e-6 -0.00651,-0.00145 -0.00894,-0.00369 -0.00243,-0.00224 -0.0041,-0.0052 -0.00514,-0.00833 -0.00207,-0.00627 -0.00163,-0.013031 -0.00175,-0.019627 -6.595e-4,-0.035331 -0.018235,-0.068738 -0.042212,-0.094697 -0.023977,-0.025959 -0.054069,-0.045395 -0.084386,-0.063549 -0.026354,-0.015781 -0.053332,-0.030948 -0.076605,-0.050997 -0.023273,-0.020049 -0.042919,-0.04571 -0.049994,-0.075602 -0.00141,-0.00595 -0.00232,-0.012049 -0.0045,-0.017759 -0.00109,-0.00285 -0.0025,-0.0056 -0.00438,-0.00802 -0.00187,-0.00242 -0.00422,-0.0045 -0.00695,-0.00587 -0.00489,-0.00246 -0.010938,-0.00246 -0.015825,0 -0.00645,-0.00389 -0.01193,-0.00938 -0.015825,-0.015825 -0.00306,-0.00506 -0.00512,-0.010651 -0.00736,-0.016126 -0.00224,-0.00547 -0.00472,-0.010942 -0.00846,-0.015524 -0.00584,-0.00715 -0.014379,-0.011649 -0.023199,-0.014366 -0.00882,-0.00272 -0.018039,-0.00382 -0.027142,-0.00534 -0.0091,-0.00152 -0.018271,-0.0035 -0.026439,-0.0078 -0.00817,-0.0043 -0.015322,-0.011192 -0.01817,-0.019971 -0.00184,-0.00567 -0.0018,-0.01177 -0.00121,-0.017696 5.899e-4,-0.00593 0.00172,-0.011801 0.002,-0.01775 2.872e-4,-0.00595 -3.162e-4,-0.012093 -0.003,-0.017412 -0.00134,-0.00266 -0.00319,-0.00508 -0.00552,-0.00693 -0.00233,-0.00186 -0.00514,-0.00313 -0.0081,-0.00351 -0.00263,-3.316e-4 -0.00529,4.98e-5 -0.00793,3.232e-4 -0.00264,2.734e-4 -0.00535,4.321e-4 -0.0079,-3.232e-4 -0.00193,-5.723e-4 -0.00369,-0.00166 -0.00511,-0.00308 -0.00142,-0.00142 -0.00251,-0.00316 -0.00323,-0.00504 -0.00143,-0.00375 -0.00136,-0.00798 -3.032e-4,-0.011852 0.00212,-0.00775 0.00777,-0.013987 0.013397,-0.019724 0.00563,-0.00574 0.011407,-0.011393 0.016016,-0.017977 0.00461,-0.00658 0.00789,-0.013988 0.010875,-0.02145 2e-7,-5e-7 4e-7,-1e-6 6e-7,-1.5e-6 z"
       id="path10"
       inkscape:path-effect="#path-effect10"
       inkscape:original-d="M 3.8929026,3.5131073 C 4.0026978,3.2563996 4.105702,2.9969343 4.2093988,2.7376919 4.2381849,2.6657268 4.2609814,2.581194 4.3043477,2.5161445 4.362333,2.4291665 4.417832,2.3683001 4.4625958,2.2787723 c 0.00951,-0.019016 0.036907,-0.028981 0.047474,-0.047474 0.1168088,-0.2044152 -0.024762,-1.238e-4 0.1107737,-0.1582481 0.020016,-0.023353 0.025725,-0.057375 0.047474,-0.079124 0.02005,-0.020049 0.1978554,-0.084014 0.2215473,-0.094949 0.1989794,-0.091837 0.016793,-7.25e-4 0.1424233,-0.094949 0.00844,-0.00633 0.02164,0.00334 0.03165,0 0.094949,-0.03165 0.1909326,-0.060349 0.2848464,-0.094949 0.033204,-0.012233 0.061816,-0.03505 0.094949,-0.047474 0.078303,-0.029364 -0.016759,0.037548 0.063299,-0.015825 0.046684,-0.031123 0.084363,-0.058011 0.1424234,-0.079124 0.083828,-0.030483 0.1528873,-0.00939 0.2373719,0 0.015729,0.00175 0.032462,-0.005 0.047474,0 0.005,0.00167 -0.00472,0.013466 0,0.015825 0.036256,0.018128 0.233449,0.00131 0.2848464,-0.015825 0.00708,-0.00236 0.010549,-0.01055 0.015825,-0.015825 0.010549,-0.00527 0.02027,-0.012721 0.031649,-0.015825 C 6.4137963,1.4948687 6.3998818,1.5192388 6.5356453,1.4558826 6.661034,1.3973679 6.7344212,1.2871807 6.8521415,1.2185105 7.0161512,1.1228383 7.2039037,1.0821914 7.3743602,0.99696314 c 0.09715,-0.0485752 0.1827686,-0.12112876 0.2848467,-0.15824809 0.083965,-0.0305328 0.3553407,0.0334484 0.4114448,0.0474744 0.074511,0.0186277 0.1472012,0.0440243 0.2215476,0.0632992 0.050721,0.0131501 0.243051,0.0515821 0.3164961,0.0791241 0.1087718,0.040789 0.1805083,0.146311 0.2690217,0.2215473 0.028674,0.024373 0.1111576,0.087516 0.1424231,0.1265984 0.051083,0.063854 0.045502,0.2809186 0.063299,0.3639706 0.040948,0.1910909 0.097385,0.3749373 0.1265986,0.5696932 0.010483,0.069893 0,0.1509348 0,0.2215474 0,0.1529731 0,0.3059463 0,0.4589195 0,0.047474 0.00849,0.095715 0,0.1424232 -0.026019,0.1431046 -0.070909,0.2830328 -0.094949,0.4272697 -0.029261,0.1755676 -0.040204,0.3733814 -0.1107736,0.5380433 -0.054742,0.12773 -0.2015789,0.3181932 -0.2848464,0.4430948 -0.014632,0.021945 -0.035679,0.039709 -0.047474,0.063299 -0.036701,0.073401 -0.050507,0.1610588 -0.079124,0.237372 -0.049052,0.1308058 -0.092747,0.2443909 -0.1265983,0.3797956 -0.017984,0.071938 -0.00235,0.1531805 -0.03165,0.2215473 -0.024728,0.057701 -0.082362,0.1014246 -0.1107736,0.1582481 -0.025408,0.050815 -0.031785,0.1109768 -0.063299,0.158248 -0.026976,0.040465 -0.066682,0.0712 -0.094949,0.1107737 -0.065994,0.092391 -0.121539,0.1937017 -0.1898975,0.2848464 -0.022381,0.02984 -0.056744,0.049285 -0.079124,0.079124 -0.00708,0.00943 -0.00639,0.024572 -0.015825,0.031649 -0.013346,0.010009 -0.033171,0.00724 -0.047474,0.015825 -0.057273,0.034364 -0.00785,0.032919 -0.063299,0.079124 -0.035185,0.02932 -0.093264,0.04579 -0.1265987,0.079124 -0.00373,0.00373 0.00373,0.012094 0,0.015825 -0.00373,0.00373 -0.010549,0 -0.015825,0 -0.010549,0.010549 -0.023373,0.019235 -0.03165,0.03165 -0.00956,0.014343 -0.00904,0.03617 -0.03165,0.047474 -0.022325,0.011163 -0.1484601,0.069336 -0.1582481,0.079124 -0.00834,0.00834 -0.00748,0.02331 -0.015825,0.031649 -0.00746,0.00746 -0.021164,0.00116 -0.03165,0 -0.042268,-0.0047 -0.08516,-0.00626 -0.1265984,-0.015825 -0.1304258,-0.030098 -0.030139,-0.031083 -0.1582481,-0.079124 -0.014817,-0.00556 -0.032782,0.00588 -0.047474,0 -0.079124,-0.03165 0,-0.023738 -0.047475,-0.047474 -0.066152,-0.033076 -0.1346708,-0.071265 -0.2057225,-0.094949 -0.010009,-0.00334 -0.024191,0.00746 -0.03165,0 -0.00373,-0.00373 0.00373,-0.012094 0,-0.015825 -0.00373,-0.00373 -0.010549,0 -0.015825,0 -0.00528,-0.010549 -0.00928,-0.021836 -0.015825,-0.03165 C 6.6731641,6.3067413 6.5974536,6.265133 6.5514703,6.2191494 6.5198206,6.1875 6.4828475,6.1603992 6.4565214,6.1242008 6.439813,6.101227 6.4375746,6.070484 6.4248717,6.0450766 6.3931164,5.981566 6.3585036,5.894861 6.3140981,5.8393541 c -0.027961,-0.034951 -0.068093,-0.059141 -0.094949,-0.094949 -0.00633,-0.00844 0.00585,-0.022871 0,-0.03165 -0.00654,-0.00981 -0.02331,-0.00748 -0.03165,-0.015825 -0.073916,-0.073916 0.083747,0.018907 -0.063299,-0.079124 -0.060974,-0.040649 -0.1218573,-0.083558 -0.1898978,-0.1107736 -0.014692,-0.00588 -0.034815,0.0095 -0.047474,0 C 5.8338722,5.4673161 5.7993777,5.4012583 5.7444049,5.3646098 5.6447933,5.2982021 5.5336855,5.2276004 5.4279088,5.1747123 c -0.01492,-0.00746 -0.033171,-0.00724 -0.047474,-0.015825 -0.054874,-0.032924 -0.099924,-0.097436 -0.1582481,-0.1265984 -0.00472,-0.00235 -0.012094,0.00373 -0.015825,0 -0.00373,-0.00373 0.00472,-0.013465 0,-0.015825 -0.00944,-0.00472 -0.022214,0.00472 -0.031649,0 -0.00472,-0.00235 0.00373,-0.012094 0,-0.015825 -0.00834,-0.00834 -0.02331,-0.00749 -0.03165,-0.015825 -0.013449,-0.013449 -0.018201,-0.034026 -0.03165,-0.047474 -0.00834,-0.00834 -0.022214,-0.00875 -0.03165,-0.015825 C 5.043956,4.8946601 5.0142888,4.8602518 4.9848145,4.8265669 4.9419261,4.7775518 4.9143806,4.7187437 4.8740409,4.6683189 4.8396024,4.6252706 4.7952067,4.5864356 4.7632672,4.5417205 4.7453893,4.5166909 4.7360469,4.4857442 4.7157928,4.4625963 4.6984255,4.4427473 4.6698614,4.4349709 4.6524936,4.4151219 4.6322397,4.3919735 4.6250362,4.3593511 4.6050191,4.335998 4.5926419,4.321557 4.5721555,4.3165246 4.5575447,4.3043482 4.5403521,4.2900211 4.525895,4.2726988 4.5100702,4.2568738 4.4731458,4.2199493 4.439712,4.1791675 4.3992966,4.1461002 c -0.018259,-0.014938 -0.044427,-0.017494 -0.063299,-0.03165 -0.00422,-0.00316 0.00373,-0.012094 0,-0.015825 -0.00373,-0.00373 -0.012094,0.00373 -0.015825,0 -0.00834,-0.00834 -0.00875,-0.022214 -0.015825,-0.03165 C 4.2646306,4.0140199 4.2202528,3.9597324 4.1777496,3.9087284 4.1399983,3.863427 4.0865192,3.8292873 4.051151,3.7821298 c -0.00708,-0.00943 -0.00749,-0.02331 -0.015825,-0.031649 -0.00373,-0.00373 -0.010549,0 -0.015825,0 -0.00528,-0.00528 -0.011687,-0.00962 -0.015825,-0.015825 -0.00654,-0.00981 -0.00749,-0.02331 -0.015825,-0.03165 -0.012761,-0.012761 -0.083719,-0.036244 -0.094949,-0.047474 -0.019643,-0.019643 -0.0041,-0.05157 -0.015825,-0.063299 -0.00373,-0.00373 -0.016859,0.00517 -0.015825,0 0.00557,-0.027855 0.021101,-0.05275 0.03165,-0.079124 z" /><path
       style="opacity:1;fill:#ffffff;fill-opacity:1;stroke:#b9cfd0;stroke-width:0.506;stroke-dasharray:none;stroke-opacity:1"
       d="m 7.1053388,6.2824489 c 0.061049,0.0025 0.1227442,-0.014331 0.1740728,-0.047475 0.045617,-0.029456 0.082211,-0.070644 0.1183354,-0.1111859 0.036124,-0.040542 0.073031,-0.081516 0.1190368,-0.1103613 0.012039,-0.00755 0.024813,-0.014358 0.034667,-0.024596 0.00493,-0.00512 0.00906,-0.011087 0.011508,-0.017759 0.00244,-0.00667 0.00312,-0.014078 0.0013,-0.020944 -7.164e-4,-0.0027 -0.00181,-0.0053 -0.00217,-0.00807 -1.811e-4,-0.00138 -1.739e-4,-0.0028 1.577e-4,-0.00416 3.316e-4,-0.00135 0.001,-0.00264 0.00201,-0.0036 0.001,-9.457e-4 0.00231,-0.00154 0.00366,-0.00181 0.00135,-2.708e-4 0.00275,-2.348e-4 0.00411,-4.03e-5 0.00273,3.89e-4 0.00533,0.0014 0.00805,0.00185 0.00334,5.5e-4 0.00681,2.299e-4 0.010028,-8.067e-4 0.00322,-0.00104 0.0062,-0.00278 0.00877,-0.00499 0.00513,-0.00442 0.00852,-0.010606 0.010429,-0.017102 0.00381,-0.012993 0.00196,-0.026869 0.00242,-0.040402 9.009e-4,-0.026246 0.010968,-0.052089 0.028059,-0.072029 0.017091,-0.019939 0.04109,-0.033841 0.06689,-0.038745 -0.00138,-0.017084 0.00447,-0.034638 0.015825,-0.047474 0.00496,-0.00561 0.010855,-0.010286 0.016517,-0.015181 0.00566,-0.00489 0.011185,-0.01011 0.015132,-0.016469 0.00716,-0.011533 0.00847,-0.025657 0.00917,-0.039213 6.935e-4,-0.013556 0.00104,-0.027552 0.00666,-0.039911 0.00395,-0.0087 0.010285,-0.016049 0.016373,-0.023411 0.00609,-0.00736 0.012117,-0.015047 0.015276,-0.024063 0.00266,-0.00759 0.00315,-0.015789 0.00255,-0.023805 -5.993e-4,-0.00802 -0.00226,-0.015907 -0.00381,-0.023794 -0.00155,-0.00789 -0.003,-0.015835 -0.00317,-0.023871 -1.727e-4,-0.00804 9.828e-4,-0.01622 0.00443,-0.02348 0.00484,-0.010187 0.013746,-0.017781 0.022678,-0.024667 0.00893,-0.00689 0.018324,-0.013571 0.024796,-0.022807 0.00482,-0.00687 0.00779,-0.014876 0.010001,-0.022975 0.00221,-0.0081 0.00369,-0.01638 0.00582,-0.024499 0.00973,-0.037044 0.032464,-0.069242 0.05673,-0.098873 0.024267,-0.029632 0.050685,-0.057874 0.069869,-0.091024 0.010624,-0.018359 0.018928,-0.038066 0.03074,-0.055685 0.00591,-0.00881 0.0127,-0.017087 0.020758,-0.023983 0.00806,-0.0069 0.017421,-0.012391 0.027626,-0.015281 0.00817,-0.00231 0.016717,-0.00293 0.025023,-0.00469 0.00831,-0.00176 0.016701,-0.00489 0.022451,-0.011134 0.00571,-0.0062 0.00813,-0.014715 0.00972,-0.022998 0.00159,-0.00828 0.00257,-0.016821 0.00611,-0.024476 0.00316,-0.00685 0.00824,-0.012652 0.01386,-0.017682 0.00562,-0.00503 0.011818,-0.00936 0.01779,-0.013968 0.041963,-0.032358 0.072457,-0.078327 0.090239,-0.1282451 0.017782,-0.049918 0.023275,-0.1036818 0.020534,-0.1566013 -8.2e-4,-0.015834 -0.00236,-0.031796 0,-0.047475 0.00268,-0.017807 0.010309,-0.034563 0.019845,-0.049838 0.00954,-0.015275 0.020989,-0.029244 0.032094,-0.04342 0.011104,-0.014176 0.02195,-0.028697 0.030079,-0.044766 0.00813,-0.016069 0.013478,-0.033875 0.012931,-0.051874 -4.945e-4,-0.016288 -0.00574,-0.032024 -0.00822,-0.048131 -0.00124,-0.00805 -0.00178,-0.016276 -6.772e-4,-0.024349 0.0011,-0.00807 0.00392,-0.016019 0.0089,-0.02247 0.00456,-0.00591 0.010737,-0.010359 0.015825,-0.015825 0.00753,-0.00809 0.012527,-0.018288 0.015637,-0.028892 0.00311,-0.010603 0.00441,-0.021651 0.00525,-0.032669 0.00168,-0.022036 0.0017,-0.044879 0.010761,-0.065038 0.00781,-0.017378 0.021686,-0.031236 0.03165,-0.047474 0.014141,-0.023046 0.02002,-0.050384 0.021156,-0.077399 0.00114,-0.027015 -0.00222,-0.05399 -0.00533,-0.080849 -0.00593,-0.051236 -0.010892,-0.1037685 0.00134,-0.1538735 0.00612,-0.025053 0.016606,-0.049235 0.032353,-0.069659 0.015746,-0.020423 0.036911,-0.036967 0.061251,-0.045489 0.00944,-0.0033 0.019344,-0.00543 0.028282,-0.00991 0.00447,-0.00224 0.00868,-0.00508 0.012104,-0.00873 0.00342,-0.00364 0.00604,-0.00812 0.00709,-0.013011 0.00111,-0.00518 4.445e-4,-0.010547 0,-0.015825 -0.00145,-0.017183 -3.362e-4,-0.035109 0.00733,-0.050557 0.00383,-0.00772 0.00929,-0.014704 0.016209,-0.01985 0.00692,-0.00515 0.015322,-0.0084 0.023938,-0.00872 0.00528,-1.934e-4 0.01059,6.936e-4 0.015825,0 0.00641,-8.497e-4 0.012393,-0.00409 0.017027,-0.0086 0.00463,-0.00451 0.00797,-0.010251 0.01017,-0.016335 0.0044,-0.012168 0.00432,-0.025422 0.00445,-0.03836 0.00113,-0.1082576 0.021374,-0.2166799 0.063299,-0.3164961 0.028541,-0.06795 0.067337,-0.1329707 0.079124,-0.2057226 0.00761,-0.04698 0.00353,-0.094961 0,-0.142423 -0.010568,-0.1421624 -0.015982,-0.2847154 -0.015825,-0.42727 1.805e-4,-0.1635473 0.00769,-0.3272024 0,-0.490569 -0.00299,-0.063462 -0.00827,-0.1268165 -0.015825,-0.1898977"
       id="path11"
       inkscape:path-effect="#path-effect11"
       inkscape:original-d="m 7.1053388,6.2824489 c 0.071121,0.01143 0.1121857,-0.020952 0.1740728,-0.047475 0.1496287,-0.064126 0.1444313,-0.097626 0.2373722,-0.2215472 0.015825,-0.021101 0.035679,-0.039709 0.047474,-0.063299 0.00235,-0.00472 -0.00373,-0.012094 0,-0.015825 0.00373,-0.00373 0.012094,0.00373 0.015825,0 0.016682,-0.016682 0.017494,-0.044427 0.03165,-0.063299 0.028758,-0.038345 0.06619,-0.072429 0.094949,-0.1107736 0.038874,-0.00564 0.00657,-0.033595 0.015825,-0.047474 0.00828,-0.012414 0.024977,-0.018304 0.031649,-0.03165 0.012028,-0.024056 0.0038,-0.055067 0.015825,-0.079124 0.00851,-0.01701 0.025635,-0.029432 0.031649,-0.047474 0.010009,-0.030025 -0.00768,-0.064244 0,-0.094949 0.00543,-0.021712 0.03596,-0.028284 0.047474,-0.047474 0.00858,-0.014303 0.00837,-0.032555 0.015825,-0.047474 0.031662,-0.063324 0.083632,-0.1326081 0.1265986,-0.1898975 0.013205,-0.017608 0.069307,-0.085132 0.079124,-0.094949 0.00292,-0.00292 0.044558,-0.012909 0.047474,-0.015825 0.00638,-0.00638 0.010353,-0.039269 0.015825,-0.047474 0.00828,-0.012414 0.023974,-0.018857 0.03165,-0.03165 0.046887,-0.078144 0.091157,-0.1965735 0.1107736,-0.2848464 0.00343,-0.015449 -0.0031,-0.031957 0,-0.047475 C 8.28972,4.5857662 8.3504,4.5253638 8.371323,4.4625964 c 0.010009,-0.030025 -0.00768,-0.064244 0,-0.094949 0.0018,-0.00724 0.012488,-0.00915 0.015825,-0.015825 C 8.404065,4.3179894 8.406396,4.2582974 8.418798,4.225224 8.425478,4.207415 8.443769,4.195558 8.450448,4.17775 8.472332,4.119391 8.452668,4.0739532 8.466273,4.019502 8.471473,3.998706 8.545439,3.7702094 8.561222,3.7504803 c 0.01188,-0.014851 0.034026,-0.018201 0.047474,-0.03165 0.00373,-0.00373 -0.00235,-0.011107 0,-0.015825 0.013756,-0.027511 0.02826,-0.055106 0.047474,-0.079124 0.00329,-0.00412 0.012094,0.00373 0.015825,0 C 8.688677,3.6072023 8.699018,3.5837143 8.703644,3.5605823 8.724006,3.458772 8.732854,3.3463532 8.766943,3.2440862 8.789737,3.1757072 8.833904,3.1113431 8.846067,3.0383636 c 0.0077,-0.046191 -0.0077,-0.096232 0,-0.142423 0.024627,-0.1477579 0.013787,-0.2792079 -0.015825,-0.42727 -0.019307,-0.096537 0,-0.3721966 0,-0.490569 0,-0.051573 0.019471,-0.1546028 -0.015825,-0.1898977" /><path
       style="opacity:1;fill:none;fill-opacity:1;stroke:#1b8761;stroke-width:0.506;stroke-dasharray:none;stroke-opacity:1"
       d="m 6.440697,6.8046673 c -0.037791,0.069537 -0.1111751,0.1184593 -0.1898978,0.1265986 -0.010696,0.00111 -0.021769,0.00158 -0.031474,0.00622 -0.00485,0.00232 -0.00928,0.00569 -0.012308,0.010134 -0.00303,0.00444 -0.00458,0.01 -0.00369,0.0153 4.546e-4,0.00273 0.00152,0.00533 0.00194,0.00807 2.081e-4,0.00137 2.491e-4,0.00278 -3.61e-5,0.00413 -2.852e-4,0.00135 -9.117e-4,0.00266 -0.0019,0.00362 -9.878e-4,9.593e-4 -0.0023,0.00155 -0.00365,0.0018 -0.00135,2.546e-4 -0.00275,1.92e-4 -0.00411,-2.3e-5 -0.00272,-4.298e-4 -0.00533,-0.00146 -0.00806,-0.00178 -0.00516,-6.007e-4 -0.010405,0.00144 -0.014356,0.00481 -0.00395,0.00337 -0.00671,0.00796 -0.00862,0.012786 -0.00383,0.00965 -0.00453,0.020358 -0.00867,0.029879 -0.00537,0.012345 -0.016092,0.021615 -0.027599,0.028605 -0.011507,0.00699 -0.024054,0.012114 -0.0357,0.018869 -0.00873,0.00506 -0.017057,0.011156 -0.023151,0.019202 -0.00609,0.00805 -0.00979,0.018261 -0.0085,0.028272 3.437e-4,0.00267 0.00103,0.00529 0.00129,0.00798 2.565e-4,0.00268 4.62e-5,0.00551 -0.00129,0.00785 -7.78e-4,0.00137 -0.00191,0.00251 -0.00321,0.0034 -0.0013,8.837e-4 -0.00276,0.00151 -0.00427,0.00195 -0.00302,8.825e-4 -0.00619,0.00102 -0.00932,0.0013 -0.00313,2.773e-4 -0.00632,7.155e-4 -0.00913,0.00212 -0.00141,7.035e-4 -0.0027,0.00165 -0.00372,0.00285 -0.00102,0.0012 -0.00175,0.00265 -0.002,0.00421 -2.164e-4,0.00135 -6.66e-5,0.00274 2.128e-4,0.00407 2.794e-4,0.00134 6.869e-4,0.00265 9.931e-4,0.00398 3.063e-4,0.00133 5.116e-4,0.00271 3.77e-4,0.00407 -1.345e-4,0.00136 -6.334e-4,0.00272 -0.00158,0.0037 -9.534e-4,9.884e-4 -0.0023,0.00154 -0.00366,0.00171 -0.00136,1.723e-4 -0.00275,-5.9e-6 -0.00409,-3.029e-4 -0.00268,-5.939e-4 -0.00534,-0.00167 -0.00807,-0.00141 -0.00156,1.507e-4 -0.00307,7.448e-4 -0.00436,0.00163 -0.0013,8.85e-4 -0.00239,0.00205 -0.00325,0.00336 -0.00173,0.00262 -0.00256,0.00573 -0.00307,0.00883 -5.053e-4,0.0031 -7.151e-4,0.00624 -0.00135,0.00932 -6.353e-4,0.00307 -0.00174,0.00613 -0.00379,0.00851 -0.00198,0.0023 -0.00474,0.00382 -0.00761,0.00483 -0.00287,0.00101 -0.00587,0.00154 -0.00885,0.00216 -0.00297,6.202e-4 -0.00596,0.00135 -0.00868,0.0027 -0.00272,0.00136 -0.00517,0.00341 -0.00652,0.00614 -0.00119,0.00241 -0.00144,0.00519 -0.00125,0.00787 1.905e-4,0.00268 7.997e-4,0.00531 0.00125,0.00796 0.00245,0.014333 2.415e-4,0.029309 -0.00549,0.042674 -0.00573,0.013365 -0.014887,0.025139 -0.025894,0.034641 -0.022015,0.019003 -0.050711,0.028642 -0.079392,0.033458 -0.00607,0.00102 -0.012231,0.00186 -0.017956,0.00412 -0.00286,0.00113 -0.0056,0.00261 -0.00798,0.00456 -0.00238,0.00195 -0.0044,0.00437 -0.00571,0.00715 -0.00227,0.00483 -0.00228,0.010421 -0.00167,0.015729 6.025e-4,0.00531 0.00177,0.01058 0.00167,0.015921 -1.19e-4,0.00677 -0.00228,0.013413 -0.00558,0.01933 -0.0033,0.00592 -0.00771,0.011153 -0.012494,0.015948 -0.00957,0.00959 -0.020766,0.017577 -0.029397,0.028021 -0.016099,0.01948 -0.021678,0.045373 -0.025946,0.070282 -0.00427,0.024909 -0.00804,0.05077 -0.021528,0.072141 -0.00707,0.011209 -0.016531,0.020672 -0.025416,0.030507 -0.00889,0.00984 -0.017415,0.020378 -0.022058,0.032793 -0.00374,0.010013 -0.0048,0.020876 -0.00435,0.031557 4.437e-4,0.010681 0.00234,0.021243 0.00435,0.031742 0.00624,0.032569 0.013573,0.066258 0.0058,0.098495 -0.00389,0.016119 -0.011709,0.031543 -0.023827,0.04286 -0.012118,0.011317 -0.028746,0.018195 -0.045275,0.016894 -0.00265,-2.086e-4 -0.00528,-6.195e-4 -0.00793,-7.725e-4 -0.00265,-1.531e-4 -0.00536,-4.05e-5 -0.00789,7.725e-4 -0.00421,0.00135 -0.00766,0.0046 -0.00986,0.00844 -0.0022,0.00384 -0.00326,0.00824 -0.00375,0.012638 -9.797e-4,0.0088 1.937e-4,0.017882 -0.00221,0.026399 -0.00185,0.00653 -0.00574,0.01237 -0.010565,0.017144 -0.00483,0.00477 -0.010566,0.00854 -0.016543,0.011752 -0.011955,0.00643 -0.025045,0.010828 -0.036191,0.018578 -0.015754,0.010954 -0.026403,0.027749 -0.035265,0.044768 -0.00886,0.017019 -0.016462,0.034874 -0.028034,0.050181 -0.018985,0.025112 -0.048144,0.041881 -0.079124,0.047474 -0.013335,0.00241 -0.02694,0.00285 -0.040394,0.00446 -0.013454,0.00162 -0.027034,0.00452 -0.03873,0.011362 -0.00827,0.00484 -0.015303,0.011472 -0.022709,0.017547 -0.00741,0.00607 -0.015481,0.011744 -0.024765,0.014102 -0.0077,0.00196 -0.015789,0.00152 -0.023701,8.026e-4 -0.00791,-7.169e-4 -0.01588,-0.0017 -0.023773,-8.026e-4 -0.00891,0.00101 -0.017407,0.00441 -0.025211,0.00882 -0.0078,0.00441 -0.014984,0.00983 -0.022152,0.015205 -0.00717,0.00538 -0.014382,0.010758 -0.022236,0.015076 -0.00785,0.00432 -0.016423,0.00757 -0.025349,0.00838 -0.013491,0.00122 -0.026769,-0.00313 -0.040091,-0.00559 -0.00666,-0.00123 -0.013467,-0.00199 -0.020209,-0.00133 -0.00674,6.57e-4 -0.013449,0.0028 -0.018824,0.00692 -0.00593,0.00455 -0.00994,0.01122 -0.015825,0.015825 -0.00431,0.00338 -0.00952,0.00552 -0.014886,0.0066 -0.00537,0.00108 -0.010914,0.00111 -0.01636,5.291e-4 -0.010893,-0.00116 -0.021369,-0.0047 -0.032052,-0.00713 -0.026838,-0.00609 -0.055031,-0.00501 -0.081869,0.00107 -0.026838,0.00609 -0.052391,0.017087 -0.076379,0.030575 -0.017707,0.00996 -0.034643,0.021291 -0.052753,0.030495 -0.01811,0.0092 -0.037717,0.016306 -0.058021,0.016979 -0.015849,5.251e-4 -0.031877,-0.00286 -0.047474,0 -0.015249,0.0028 -0.028794,0.011358 -0.041192,0.020668 -0.012398,0.00931 -0.024197,0.019616 -0.037932,0.026806 -0.02246,0.011757 -0.048383,0.014355 -0.073375,0.01861 -0.012496,0.00213 -0.024971,0.00473 -0.036844,0.00918 -0.011872,0.00444 -0.023176,0.010792 -0.032205,0.019689 -0.00535,0.00527 -0.00982,0.011342 -0.014699,0.017042 -0.00488,0.0057 -0.010302,0.011127 -0.016951,0.014607 -0.00677,0.00354 -0.014471,0.00489 -0.022088,0.00547 -0.00762,5.759e-4 -0.015281,4.285e-4 -0.022879,0.00121 -0.0076,7.823e-4 -0.015259,0.00256 -0.021716,0.00664 -0.00323,0.00204 -0.00612,0.00465 -0.00832,0.00777 -0.0022,0.00312 -0.00369,0.00677 -0.00412,0.010561 -5.917e-4,0.00525 8.442e-4,0.010607 0,0.015825 -9.669e-4,0.00598 -0.00494,0.011218 -0.010021,0.014511 -0.00508,0.00329 -0.011169,0.00478 -0.017214,0.0051 -0.012089,6.396e-4 -0.023975,-0.00314 -0.036064,-0.00378 -0.013829,-7.358e-4 -0.027666,0.00268 -0.040293,0.00837 -0.012627,0.00569 -0.024137,0.013591 -0.03505,0.022116 -0.021827,0.01705 -0.041949,0.036997 -0.067081,0.048638 -0.01294,0.00599 -0.02683,0.00959 -0.040439,0.013857 -0.013609,0.00426 -0.027211,0.00932 -0.038685,0.017793 -0.00778,0.00574 -0.014381,0.012906 -0.021807,0.019094 -0.00743,0.00619 -0.016056,0.011525 -0.025667,0.012556 -0.00527,5.658e-4 -0.010583,-1.909e-4 -0.01586,-7.101e-4 -0.00528,-5.192e-4 -0.010704,-7.882e-4 -0.01579,7.101e-4 -0.0055,0.00162 -0.010241,0.00522 -0.014071,0.00948 -0.00383,0.00426 -0.00683,0.00918 -0.0098,0.014086 -0.00297,0.0049 -0.00594,0.00984 -0.00971,0.014151 -0.00378,0.00431 -0.00844,0.008 -0.013893,0.00976 -0.00505,0.00163 -0.010491,0.00153 -0.015778,0.00106 -0.00529,-4.705e-4 -0.01057,-0.0013 -0.015872,-0.00106 -0.00865,3.85e-4 -0.017018,0.00362 -0.024308,0.00829 -0.00729,0.00468 -0.013577,0.010764 -0.019344,0.017225 -0.011535,0.012923 -0.021394,0.027689 -0.035472,0.037781 -0.014555,0.010435 -0.032362,0.014981 -0.049388,0.020535 -0.00851,0.00278 -0.016965,0.00587 -0.024836,0.010139 -0.00787,0.00427 -0.015177,0.00977 -0.020725,0.0168 -0.00479,0.00607 -0.00817,0.013129 -0.01283,0.019294 -0.00233,0.00308 -0.00499,0.00595 -0.00815,0.00818 -0.00315,0.00223 -0.00683,0.00381 -0.010672,0.00418 -0.00264,2.508e-4 -0.00529,-6.61e-5 -0.00792,-2.871e-4 -0.00264,-2.21e-4 -0.00533,-3.423e-4 -0.0079,2.871e-4 -0.00307,7.505e-4 -0.00582,0.00256 -0.00795,0.00489 -0.00213,0.00233 -0.00366,0.00516 -0.00472,0.00814 -0.00212,0.00595 -0.00239,0.01236 -0.00315,0.018628 -0.00334,0.027682 -0.016591,0.053727 -0.0354,0.07431 -0.018809,0.020583 -0.042972,0.035876 -0.068852,0.046251 -0.05176,0.020751 -0.1090048,0.022028 -0.1647696,0.021862 -0.047476,-1.407e-4 -0.09496,-0.00112 -0.1424231,0 -0.046514,0.0011 -0.093193,0.00421 -0.1394673,-6.271e-4 -0.046275,-0.00484 -0.092846,-0.018259 -0.1295544,-0.046847 -0.030533,-0.023778 -0.053094,-0.057619 -0.063299,-0.094949 -0.00492,0.00395 -0.011109,0.00628 -0.017409,0.00656 -0.0063,2.795e-4 -0.012675,-0.0015 -0.017922,-0.005 -0.00525,-0.0035 -0.00934,-0.0087 -0.011504,-0.014622 -0.00217,-0.00592 -0.00239,-0.012537 -6.379e-4,-0.018594 7.816e-4,-0.0027 0.00195,-0.00531 0.00233,-0.00809 1.903e-4,-0.00139 1.777e-4,-0.00283 -1.806e-4,-0.00418 -3.584e-4,-0.00136 -0.00108,-0.00264 -0.00215,-0.00355 -0.00104,-8.837e-4 -0.00237,-0.00139 -0.00372,-0.00158 -0.00135,-1.905e-4 -0.00273,-8.42e-5 -0.00407,1.436e-4 -0.00269,4.556e-4 -0.00531,0.0014 -0.00804,0.00143 -0.00388,5.23e-5 -0.00762,-0.00177 -0.010513,-0.00436 -0.00289,-0.00259 -0.00504,-0.00591 -0.00694,-0.00929 -0.0019,-0.00339 -0.00361,-0.00689 -0.0058,-0.010099 -0.00219,-0.00321 -0.00493,-0.00614 -0.0084,-0.0079 -0.00477,-0.00241 -0.01041,-0.00236 -0.015716,-0.00168 -0.00531,6.773e-4 -0.01059,0.00192 -0.015934,0.00168 -0.00674,-3.038e-4 -0.013212,-0.00298 -0.018797,-0.00676 -0.00559,-0.00378 -0.010359,-0.00863 -0.014845,-0.013665 -0.00449,-0.00503 -0.00873,-0.010292 -0.013481,-0.01508 -0.00475,-0.00479 -0.010058,-0.00913 -0.016176,-0.01197 -0.0097,-0.0045 -0.020813,-0.00493 -0.031465,-0.00396 -0.010651,9.761e-4 -0.02116,0.00328 -0.031834,0.00396 -0.018503,0.00118 -0.037301,-0.00263 -0.053884,-0.010919 -0.016583,-0.00829 -0.030909,-0.021044 -0.041065,-0.036555"
       id="path12"
       inkscape:path-effect="#path-effect12"
       inkscape:original-d="m 6.440697,6.8046673 c -0.084483,0.014364 -0.1264452,0.084297 -0.1898978,0.1265986 -0.014457,0.00964 -0.038404,0.013507 -0.047475,0.03165 -0.00235,0.00472 0.00373,0.012094 0,0.015825 -0.00373,0.00373 -0.012094,-0.00373 -0.015825,0 -0.038436,0.038435 0.0047,0.023238 -0.03165,0.047475 -0.044301,0.029534 -0.024186,-0.00143 -0.063299,0.047474 -0.01188,0.014851 -0.023143,0.030463 -0.03165,0.047474 -0.00235,0.00472 0.00373,0.012094 0,0.015825 -0.00834,0.00834 -0.02331,0.00748 -0.031649,0.015825 -0.00373,0.00373 0.00373,0.012094 0,0.015825 -0.00373,0.00373 -0.012094,-0.00373 -0.015825,0 -0.00834,0.00834 -0.00749,0.02331 -0.015825,0.03165 -0.00834,0.00834 -0.02331,0.00749 -0.031649,0.015825 -0.00373,0.00373 0.00293,0.011435 0,0.015825 -0.025305,0.037957 -0.074205,0.083347 -0.1107736,0.1107736 -0.00944,0.00708 -0.025106,0.00601 -0.03165,0.015825 -0.00585,0.00878 0.00334,0.02164 0,0.03165 -0.00839,0.025164 -0.035452,0.039255 -0.047474,0.063299 -0.02137,0.04274 -0.023426,0.1023424 -0.047474,0.142423 -0.013571,0.022617 -0.035679,0.039709 -0.047474,0.0633 -0.00844,0.01688 0.00844,0.046419 0,0.063299 -0.022333,0.044669 -0.03469,0.1153337 -0.063299,0.1582481 -0.00293,0.00439 -0.012094,-0.00373 -0.015825,0 -0.011795,0.011795 -8.996e-4,0.040015 -0.015825,0.047474 -0.036883,0.018441 -0.024426,-0.010835 -0.063299,0.047474 -0.01691,0.025366 -0.030327,0.078463 -0.063299,0.094949 -0.021479,0.010739 -0.05592,0.03974 -0.079124,0.047474 -0.1086361,0.036212 0.07371,-0.060592 -0.079124,0.015825 -0.040204,0.0201 0.016206,0.018912 -0.047474,0.031649 -0.015518,0.0031 -0.032462,-0.005 -0.047474,0 -0.037167,0.012388 -0.056224,0.03973 -0.094949,0.047474 -0.025863,0.00517 -0.054103,-0.00834 -0.079124,0 -0.00708,0.00235 -0.00875,0.013465 -0.015825,0.015825 -0.020018,0.00667 -0.042486,-0.00347 -0.063299,0 -0.050457,0.00841 -0.1097249,0.019518 -0.1582481,0.03165 -0.037323,0.00933 -0.073451,0.038144 -0.1107739,0.047474 -0.015351,0.00384 -0.03332,-0.00708 -0.047474,0 -0.025627,0.012814 -0.053235,0.038845 -0.079124,0.047474 -0.043554,0.014518 -0.097876,0.020746 -0.1424233,0.047474 -0.012793,0.00768 -0.019714,0.022699 -0.03165,0.031649 -0.025929,0.019447 -0.056171,0.0087 -0.079124,0.03165 -0.00373,0.00373 0.00373,0.012094 0,0.015825 -0.0092,0.0092 -0.05,0.00918 -0.063299,0.015825 -0.048557,0.024278 -0.098751,0.050009 -0.1424234,0.079124 -0.029636,0.019756 -0.049488,0.011893 -0.079124,0.03165 -0.028955,0.019304 -0.00159,0.020174 -0.047474,0.03165 -0.010234,0.00257 -0.02164,-0.00334 -0.03165,0 -0.018746,0.00625 -0.02968,0.038577 -0.047474,0.047474 -0.00944,0.00472 -0.02164,-0.00334 -0.03165,0 -0.033149,0.011049 -0.047914,0.042493 -0.079124,0.063299 -0.028432,0.018955 -0.070293,0.031037 -0.094949,0.047474 -0.012414,0.00828 -0.019235,0.023373 -0.03165,0.03165 -0.00439,0.00293 -0.012094,-0.00373 -0.015825,0 -0.032742,0.032742 0.050034,-0.00127 -0.015825,0.031649 -0.092438,0.046219 -0.1869673,0.1013963 -0.2690217,0.1424234 -0.031798,0.015899 -0.1064985,0 -0.1424231,0 -0.1100238,0 -0.1737606,1.561e-4 -0.2690217,-0.047474 -0.016005,-0.008 -0.050299,-0.075448 -0.063299,-0.094949 0.013541,-0.073418 -0.034026,-0.018201 -0.047474,-0.031649 -0.00373,-0.00373 0.00373,-0.012094 0,-0.015825 -0.00373,-0.00373 -0.011107,0.00235 -0.015825,0 -0.013346,-0.00667 -0.018304,-0.024977 -0.03165,-0.031649 -0.00943,-0.00472 -0.022214,0.00472 -0.03165,0 -0.023601,-0.0118 -0.039159,-0.035404 -0.063299,-0.047474 -0.01688,-0.00844 -0.046419,0.00844 -0.063299,0 -0.021062,-0.01053 -0.088437,-0.047474 -0.094949,-0.047474" /><path
       style="opacity:1;fill:none;fill-opacity:1;stroke:#ffffff;stroke-width:0.206;stroke-dasharray:none;stroke-opacity:1"
       d="m 2.310422,5.4595587 c -0.027163,0.098437 -0.021521,0.2056295 0.015825,0.3006715 0.010393,0.026449 0.023167,0.052002 0.03165,0.079124 0.015991,0.051124 0.015991,0.1071246 0,0.1582481"
       id="path13"
       inkscape:path-effect="#path-effect14"
       inkscape:original-d="m 2.310422,5.4595587 c 0.043557,0.094705 -0.00368,0.203132 0.015825,0.3006715 0.016465,0.082324 0.01055,0.015825 0.03165,0.079124 0.015239,0.045717 0,0.1093584 0,0.1582481" /><path
       style="opacity:1;fill:none;fill-opacity:1;stroke:#ffffff;stroke-width:0.206;stroke-dasharray:none;stroke-opacity:1"
       d="m 2.5003197,6.424872 v 0.3164961 c -0.017119,0.00978 -0.029203,0.027909 -0.03165,0.047474 -0.00131,0.010479 -5.6e-6,0.021089 0,0.03165 1.18e-5,0.022252 -0.00588,0.044481 -0.016925,0.063801 -0.01104,0.01932 -0.027197,0.035686 -0.046374,0.046973"
       id="path14"
       inkscape:path-effect="#path-effect15"
       inkscape:original-d="m 2.5003197,6.424872 c -0.023023,0.099736 0.024822,0.2172073 0,0.3164961 0.00954,0.028642 -0.025635,0.029432 -0.03165,0.047474 -0.00334,0.010009 0.00334,0.02164 0,0.03165 -0.013437,0.040311 -0.063299,0.053434 -0.063299,0.1107736" /><path
       style="opacity:1;fill:none;fill-opacity:1;stroke:#ffffff;stroke-width:0.206;stroke-dasharray:none;stroke-opacity:1"
       d="m 2.5477941,5.3171354 c 0.010705,-0.060243 0.039246,-0.117203 0.081094,-0.1618408 0.041848,-0.044638 0.09685,-0.076791 0.156278,-0.091356 0.00982,-0.00241 0.019887,-0.00439 0.028847,-0.00907 0.00448,-0.00234 0.00865,-0.00535 0.011968,-0.00916 0.00332,-0.00381 0.00577,-0.00844 0.00666,-0.013415 9.275e-4,-0.0052 1.36e-4,-0.01054 0,-0.015825 -5.028e-4,-0.019533 0.00859,-0.039088 0.023846,-0.051295 0.015258,-0.012206 0.036331,-0.016783 0.055278,-0.012004"
       id="path15"
       inkscape:path-effect="#path-effect16"
       inkscape:original-d="m 2.5477941,5.3171354 c 0.076802,-0.078214 0.1880975,-0.1546476 0.2373722,-0.2531967 0.010597,-0.021196 0.037752,-0.021929 0.047474,-0.03165 0.00373,-0.00373 -0.00373,-0.012094 0,-0.015825 0.02568,-0.02568 0.079124,-0.01751 0.079124,-0.063299 0.036925,0.00527 0.073474,0.015825 0.1107741,0.015825 0.00527,0 -0.00472,-0.013466 0,-0.015825 0.02168,-0.01084 0.057281,-0.0049 0.079124,-0.015825 0.019828,-0.00991 0.01514,-0.031307 0.047474,-0.047475 0.00955,-0.00478 0.040159,0.00732 0.047474,0 0.00817,-0.00817 0.015825,-0.028132 0.015825,-0.047474" /></g></svg>
