<?xml version="1.0" encoding="UTF-8" standalone="no"?>
<svg
   width="1600px"
   height="412px"
   viewBox="0 0 1600 412"
   version="1.1"
   id="svg3"
   sodipodi:docname="hero-bg.svg"
   inkscape:version="1.3.2 (091e20e, 2023-11-25, custom)"
   xmlns:inkscape="http://www.inkscape.org/namespaces/inkscape"
   xmlns:sodipodi="http://sodipodi.sourceforge.net/DTD/sodipodi-0.dtd"
   xmlns="http://www.w3.org/2000/svg"
   xmlns:svg="http://www.w3.org/2000/svg">
  <sodipodi:namedview
     id="namedview3"
     pagecolor="#ffffff"
     bordercolor="#000000"
     borderopacity="0.25"
     inkscape:showpageshadow="2"
     inkscape:pageopacity="0.0"
     inkscape:pagecheckerboard="0"
     inkscape:deskcolor="#d1d1d1"
     inkscape:zoom="0.90375"
     inkscape:cx="770.12448"
     inkscape:cy="303.73444"
     inkscape:window-width="2560"
     inkscape:window-height="1369"
     inkscape:window-x="-8"
     inkscape:window-y="-8"
     inkscape:window-maximized="1"
     inkscape:current-layer="svg3" />
  <!-- Generator: Sketch 49.2 (51160) - http://www.bohemiancoding.com/sketch -->
  <title
     id="title1">hero bg@1x</title>
  <desc
     id="desc1">Created with Sketch.</desc>
  <defs
     id="defs1">
    <inkscape:path-effect
       effect="spiro"
       id="path-effect14"
       is_visible="true"
       lpeversion="1" />
    <inkscape:path-effect
       effect="spiro"
       id="path-effect13"
       is_visible="true"
       lpeversion="1" />
    <inkscape:path-effect
       effect="spiro"
       id="path-effect12"
       is_visible="true"
       lpeversion="1" />
    <inkscape:path-effect
       effect="spiro"
       id="path-effect11"
       is_visible="true"
       lpeversion="1" />
    <inkscape:path-effect
       effect="spiro"
       id="path-effect10"
       is_visible="true"
       lpeversion="1" />
    <inkscape:path-effect
       effect="spiro"
       id="path-effect9"
       is_visible="true"
       lpeversion="1" />
    <inkscape:path-effect
       effect="spiro"
       id="path-effect8"
       is_visible="true"
       lpeversion="1" />
    <inkscape:path-effect
       effect="spiro"
       id="path-effect7"
       is_visible="true"
       lpeversion="1" />
    <inkscape:path-effect
       effect="spiro"
       id="path-effect6"
       is_visible="true"
       lpeversion="1" />
    <inkscape:path-effect
       effect="spiro"
       id="path-effect5"
       is_visible="true"
       lpeversion="1" />
    <inkscape:path-effect
       effect="spiro"
       id="path-effect4"
       is_visible="true"
       lpeversion="1" />
    <inkscape:path-effect
       effect="spiro"
       id="path-effect3"
       is_visible="true"
       lpeversion="1" />
    <polygon
       id="path-1"
       points="0.249644284 16.2844988 32 8.08027151 90 3.09797846 114 1.05784271 155 16.0365944 209 11.0365944 225 19.0802715 296 19.0802715 322 24.0979785 357 23.0743692 417 12.0259702 460 22.0495795 491 22.0495795 528 9.02360927 556 11.0259702 617 11.0365944 648 11.0365944 702 23.0625646 733 11.0365944 779 8.01416556 828 8.02597019 860 13.0743692 906 8.08027151 928 15.1097831 970 17.0908957 1051 2.04957946 1076 8.08027151 1105 13.0861738 1157 9.05784271 1211 13.0861738 1271 6.04957946 1371 11.0365944 1417 18.0448576 1463 7.00826324 1507 0 1546 12.0259702 1571 16.5548915 1600.02487 15.0350922 1600.02487 183 0.249644284 183" />
  </defs>
  <path
     style="fill:#13161f;fill-opacity:1;stroke:none;stroke-opacity:1"
     d="m 1.1065007,371.78423 c 6.4094541,2.13084 13.5075583,2.13084 19.9170123,0 2.009787,-0.66816 3.947767,-1.53699 5.951418,-2.22333 2.00365,-0.68634 4.104326,-1.19222 6.22009,-1.09617 1.965629,0.0892 3.88847,0.70064 5.620995,1.63339 1.732525,0.93275 3.281584,2.18085 4.673827,3.57129 2.784486,2.78088 4.943285,6.11292 7.409189,9.17983 3.076301,3.82608 6.731875,7.312 11.182589,9.38412 2.225357,1.03606 4.63349,1.70418 7.084287,1.84284 2.450796,0.13866 4.94415,-0.26108 7.18264,-1.26845 2.226861,-1.00214 4.172834,-2.59369 5.67318,-4.52038 1.500347,-1.9267 2.560024,-4.18237 3.178825,-6.54463 0.472846,-1.80508 0.698877,-3.69064 1.458124,-5.39518 0.379623,-0.85227 0.895483,-1.65427 1.585091,-2.28269 0.689608,-0.62843 1.561472,-1.07599 2.489289,-1.17414 0.456153,-0.0482 0.92597,-0.014 1.365016,-0.14684 0.219523,-0.0664 0.42956,-0.17631 0.588752,-0.34141 0.159192,-0.16511 0.263766,-0.38895 0.259233,-0.61825 -0.0038,-0.19319 -0.0821,-0.37629 -0.119659,-0.56583 -0.01878,-0.0948 -0.02734,-0.19277 -0.01106,-0.288 0.01628,-0.0952 0.05902,-0.18791 0.130715,-0.25267 0.07075,-0.0639 0.165507,-0.097 0.260436,-0.10585 0.09493,-0.009 0.190611,0.005 0.283709,0.0255 0.0931,0.0206 0.184657,0.0479 0.278159,0.0665 0.0935,0.0186 0.189998,0.0285 0.284197,0.0138 0.107018,-0.0167 0.208225,-0.0654 0.291245,-0.13492 0.08302,-0.0696 0.148045,-0.15963 0.192338,-0.25848 0.08858,-0.19769 0.09306,-0.42547 0.04759,-0.63728 -0.09095,-0.42362 -0.365787,-0.78186 -0.531176,-1.18232 -0.301489,-0.73 -0.222589,-1.57062 0.03447,-2.31742 0.257062,-0.7468 0.679565,-1.42318 1.072027,-2.10858 1.170433,-2.04405 2.113552,-4.28568 2.213002,-6.63901 0.04691,-1.11007 -0.09487,-2.21812 -0.177354,-3.32612 -0.08248,-1.108 -0.103834,-2.23798 0.177354,-3.31288 0.342435,-1.30902 1.134968,-2.4881 2.187422,-3.33848 1.052457,-0.85038 2.356437,-1.37449 3.699487,-1.53885 1.34305,-0.16436 2.72196,0.0259 3.98899,0.50073 1.26702,0.47483 2.42263,1.23009 3.40211,2.1636 0.75558,0.72012 1.41,1.54618 2.213,2.213 1.27604,1.05964 2.86066,1.66452 4.426,2.213 2.85968,1.00201 5.77433,1.88182 8.49989,3.20587 2.72557,1.32405 5.29,3.13856 6.99112,5.64614 0.74758,1.10198 1.32349,2.32854 2.213,3.3195 0.86754,0.9665 2.00628,1.6695 3.22702,2.11281 1.22075,0.44332 2.52301,0.63446 3.82131,0.66855 2.59661,0.0682 5.16448,-0.47956 7.7459,-0.76809 2.58142,-0.28852 5.29248,-0.29812 7.65717,0.77671 1.18234,0.53742 2.254,1.34739 3.01064,2.40297 0.75663,1.05559 1.18383,2.36341 1.09398,3.65905 -0.0257,0.36981 -0.0916,0.74729 0,1.1065 0.0643,0.25241 0.20573,0.48283 0.39277,0.66413 0.18703,0.1813 0.41859,0.31422 0.66558,0.39695 0.49399,0.16547 1.03696,0.12964 1.54096,-0.002 1.008,-0.26374 1.90418,-0.89529 2.93319,-1.05885 0.75629,-0.12021 1.539,0.0249 2.24473,0.32219 0.70574,0.29726 1.34088,0.74128 1.93064,1.22975 1.17953,0.97694 2.21754,2.15562 3.57014,2.87407 0.88089,0.4679 1.8571,0.71907 2.81326,1.00306 0.95616,0.28399 1.91962,0.6137 2.71924,1.20994 0.74319,0.55416 1.30829,1.31206 1.80812,2.09282 0.49983,0.78077 0.94705,1.59769 1.51138,2.33318 1.49683,1.95082 3.73898,3.21622 6.07144,3.9946 2.33246,0.77837 4.78418,1.11572 7.20657,1.5379 9.19107,1.60184 18.15681,4.47168 27.42976,5.49834 4.63648,0.51333 9.35078,0.55835 13.94454,-0.25268 4.59376,-0.81104 9.07225,-2.50112 12.84424,-5.24566 0.8761,-0.63746 1.71243,-1.32983 2.61052,-1.9359 0.8981,-0.60608 1.86885,-1.12901 2.92198,-1.3836 1.79985,-0.43511 3.68177,-0.0596 5.5325,0 2.71788,0.0876 5.4216,-0.5156 7.98312,-1.42839 2.56151,-0.9128 5.00073,-2.13216 7.44522,-3.3234 2.44448,-1.19124 4.91171,-2.36147 7.5086,-3.16812 2.5969,-0.80665 5.34359,-1.2428 8.04508,-0.93209 4.79352,0.55133 8.97396,3.35145 13.27801,5.5325 10.52394,5.33293 22.50538,7.17899 33.19502,12.17151 2.64789,1.23668 5.22464,2.66946 8.02412,3.50825 1.39974,0.4194 2.85239,0.68675 4.31361,0.68913 1.46122,0.002 2.93295,-0.26576 4.25978,-0.87788 2.1481,-0.991 3.792,-2.80862 5.25942,-4.66418 1.46742,-1.85556 2.84685,-3.82273 4.69909,-5.29433 1.94507,-1.54535 4.30443,-2.45881 6.62649,-3.34167 2.32206,-0.88287 4.68544,-1.7788 6.65152,-3.29733 1.56363,-1.20768 2.81512,-2.76311 4.16059,-4.20987 1.34547,-1.44677 2.84686,-2.82777 4.69141,-3.53563 2.10458,-0.80765 4.48264,-0.65698 6.63901,0 3.16175,0.9633 5.90249,2.93437 8.852,4.426 4.68585,2.36974 9.87362,3.51698 14.90302,5.02627 5.0294,1.5093 10.09495,3.4912 13.866,7.14524 0.74931,0.72606 1.44032,1.51187 2.213,2.213 1.78411,1.6189 3.97177,2.75173 6.26042,3.50406 2.28864,0.75234 4.68304,1.1365 7.07981,1.38022 4.79353,0.48743 9.68891,0.43285 14.32229,1.75472 2.60589,0.74344 5.08889,1.91319 7.7439,2.45569 1.3275,0.27125 2.69863,0.38196 4.04037,0.19335 1.34174,-0.1886 2.65564,-0.68754 3.70674,-1.54254 0.80983,-0.65875 1.44367,-1.50737 2.213,-2.213 1.84792,-1.69491 4.387,-2.47032 6.88749,-2.65767 2.50048,-0.18736 5.00561,0.16108 7.49702,0.44467 10.65098,1.21237 21.44145,1.24629 32.08852,0 10.72846,-1.25582 21.30467,-3.80508 32.08852,-4.426 9.20705,-0.53013 18.44022,0 27.66252,0 h 11.065 c 0.37622,0 0.75097,0.0401 1.12166,0.10436 0.18534,0.0321 0.37232,0.063 0.56037,0.0581 0.18804,-0.005 0.38076,-0.0492 0.53097,-0.16246 0.15604,-0.11763 0.25346,-0.30194 0.29173,-0.49356 0.0383,-0.19163 0.0215,-0.39068 -0.0188,-0.58189 -0.0806,-0.38243 -0.25424,-0.74719 -0.27296,-1.13756 -0.0141,-0.29418 0.0631,-0.59057 0.20923,-0.84626 0.14615,-0.25569 0.35987,-0.4708 0.6087,-0.62834 0.49768,-0.31507 1.12196,-0.39247 1.70253,-0.29299 0.58056,0.0995 1.12201,0.36411 1.61355,0.68868 0.49154,0.32456 0.93947,0.70979 1.3985,1.07891 4.98142,4.00569 11.24945,6.08982 17.52746,7.29259 6.27802,1.20278 12.68419,1.60103 18.98706,2.66592 4.26673,0.72088 8.49295,1.74806 12.80742,2.0797 4.31446,0.33164 8.80604,-0.0774 12.6421,-2.0797 3.15763,-1.64819 5.68047,-4.26453 8.18984,-6.79241 2.50938,-2.52787 5.14139,-5.06484 8.40767,-6.4856 4.31131,-1.87532 9.25619,-1.59525 13.86884,-0.68542 4.61264,0.90982 9.11726,2.41315 13.79367,2.89842 4.05755,0.42105 8.14916,0.0656 12.22596,-0.0784 4.07679,-0.144 8.23381,-0.0647 12.11706,1.1849 3.0032,0.96636 5.77722,2.61331 8.85201,3.31951 3.25904,0.74852 6.68996,0.40063 9.9585,1.1065 3.56322,0.76951 6.72696,2.73906 9.95851,4.426 3.63289,1.89644 7.49931,3.48414 11.57302,3.93052 4.07371,0.44639 8.39929,-0.34624 11.66349,-2.82402 1.42298,-1.08015 2.60736,-2.44365 3.99276,-3.5716 0.6927,-0.56398 1.43904,-1.07031 2.25657,-1.43023 0.81753,-0.35992 1.7103,-0.57022 2.60268,-0.53067 0.84285,0.0374 1.6725,0.29483 2.51497,0.24961 0.42123,-0.0226 0.84551,-0.12486 1.20097,-0.35201 0.35546,-0.22715 0.636,-0.58881 0.71006,-1.0041 0.0649,-0.36384 -0.0284,-0.73801 0,-1.1065 0.0424,-0.54988 0.3582,-1.0527 0.77338,-1.41573 0.41518,-0.36303 0.92409,-0.60134 1.43962,-0.79728 1.42317,-0.54093 2.93661,-0.79067 4.426,-1.1065 4.9186,-1.04301 9.85367,-2.95737 13.27801,-6.639 1.5548,-1.67162 2.74455,-3.65003 4.24592,-5.3698 0.75069,-0.85988 1.58335,-1.65733 2.53874,-2.28195 0.9554,-0.62462 2.03951,-1.07297 3.17385,-1.20026 1.36615,-0.15331 2.75877,0.16548 4.00063,0.75509 1.24185,0.58962 2.34368,1.44094 3.34945,2.37812 2.01152,1.87436 3.68904,4.12293 5.92793,5.7188 2.18507,1.5575 4.8206,2.41664 7.48809,2.70796 2.66749,0.29133 5.3722,0.0339 8.00292,-0.49496 3.69289,-0.74236 7.30315,-2.0206 11.065,-2.213 5.28747,-0.27043 10.44041,1.62392 15.24601,3.8458 4.80559,2.22189 9.49536,4.82003 14.62951,6.11271 5.02708,1.26573 10.28891,1.2279 15.46163,0.88629 5.17271,-0.34162 10.33725,-0.97934 15.52039,-0.88629 6.69284,0.12016 13.29649,1.45566 19.94533,2.23112 6.64885,0.77545 13.53057,0.96887 19.8887,-1.12462 2.99462,-0.98601 5.81787,-2.46276 8.852,-3.31951 3.74745,-1.05817 7.70397,-1.13783 11.59109,-0.90677 3.88712,0.23105 7.75401,0.76482 11.6454,0.90677 2.9292,0.10685 5.8854,-0.0115 8.7428,-0.66486 2.8573,-0.65335 5.6223,-1.86171 7.8547,-3.76114 0.5123,-0.43588 0.9955,-0.90675 1.5307,-1.31418 0.5352,-0.40744 1.132,-0.75391 1.7888,-0.89882 0.5535,-0.12212 1.1304,-0.0968 1.6907,-0.0113 0.5603,0.0855 1.1097,0.23008 1.6644,0.34651 0.5547,0.11644 1.1204,0.20511 1.6865,0.17635 0.566,-0.0288 1.1366,-0.18148 1.5974,-0.51152 0.4248,-0.30425 0.7342,-0.73983 1.1065,-1.1065 0.7709,-0.7593 1.8118,-1.21235 2.8812,-1.37734 1.0694,-0.16499 2.1677,-0.055 3.219,0.20111 2.1026,0.51229 4.0207,1.59146 6.0714,2.28273 4.2226,1.42338 8.8139,1.14867 13.2412,0.64299 4.4272,-0.50568 8.8971,-1.22648 13.3148,-0.64299 5.2403,0.69214 10.0472,3.16805 14.8113,5.45793 4.764,2.28987 9.7785,4.47077 15.0642,4.50058 1.6665,0.009 3.3257,-0.19695 4.9889,-0.30232 1.6631,-0.10537 3.3542,-0.10725 4.9696,0.30232 1.131,0.28675 2.2025,0.76956 3.3195,1.1065 2.5076,0.75639 5.1895,0.75934 7.7876,0.42777 2.5981,-0.33156 5.1418,-0.98791 7.7034,-1.53427 4.3875,-0.93582 9.0615,-1.53187 13.278,0 2.5081,0.91121 4.6894,2.51911 6.9568,3.92628 2.2674,1.40717 4.7597,2.65757 7.4277,2.71272 1.1078,0.0229 2.2234,-0.16203 3.3195,0 1.1563,0.17093 2.2176,0.71648 3.3195,1.1065 2.8377,1.00441 5.9954,0.96425 8.8824,0.11163 2.8869,-0.85262 5.5092,-2.48942 7.7151,-4.53763 1.1468,-1.06485 2.1865,-2.23995 3.3195,-3.3195 2.6277,-2.50369 5.8015,-4.49841 9.3147,-5.40978 3.5133,-0.91137 7.3769,-0.68039 10.6024,0.98377 2.366,1.22071 4.306,3.14326 6.639,4.42601 2.2348,1.22876 4.7693,1.83305 7.3073,2.08307 2.538,0.25002 5.0958,0.15851 7.6446,0.0718 2.5488,-0.0867 5.1076,-0.16807 7.6435,0.10204 2.536,0.2701 5.0651,0.90511 7.2801,2.1691 1.1554,0.65931 2.2096,1.47975 3.3195,2.213 6.7307,4.44643 15.4607,5.46645 23.2365,3.3195 2.5903,-0.71519 5.0966,-1.76081 7.7455,-2.213 4.3707,-0.74612 8.8471,0.16413 13.278,0 4.7318,-0.17527 9.4574,-1.62906 13.278,-4.426 0.8757,-0.64106 1.7019,-1.34923 2.5967,-1.9633 0.8948,-0.61407 1.8727,-1.13795 2.9358,-1.3562 1.4492,-0.29753 2.9466,-0.0107 4.426,0 3.5426,0.0256 6.9004,-1.53101 9.9585,-3.31951 4.0128,-2.34689 7.7443,-5.14227 11.6741,-7.6257 3.9298,-2.48343 8.1234,-4.67818 12.6689,-5.6523 5.7897,-1.24074 11.8206,-0.44018 17.7041,-1.1065 6.8593,-0.77683 13.3151,-3.51554 19.917,-5.53251 2.9013,-0.8864 5.869,-1.64024 8.899,-1.79125 3.0299,-0.15101 6.1461,0.33054 8.805,1.79125 1.8885,1.0375 3.5205,2.54819 5.5325,3.3195 2.4431,0.93658 5.1638,0.68118 7.7455,1.10651 3.1197,0.51397 5.9745,2.00923 8.852,3.3195 7.3035,3.32567 15.2116,5.57941 23.2365,5.5325 1.4757,-0.009 2.9533,-0.0947 4.426,0 4.2105,0.27061 8.1664,1.99282 12.1715,3.3195 14.858,4.92166 30.9869,4.4856 46.473,2.213 11.8229,-1.73502 23.5027,-4.50652 35.4081,-5.5325 2.578,-0.22216 5.1833,-0.36132 7.7455,0 2.8105,0.39634 5.4972,1.38373 8.2175,2.19362 2.7203,0.80989 5.5604,1.45083 8.38,1.12588 2.7283,-0.31443 5.3187,-1.54169 7.4068,-3.3257 2.088,-1.78401 3.6842,-4.10788 4.7647,-6.6328 1.0367,-2.42257 1.6065,-5.01379 2.3776,-7.5335 0.7711,-2.5197 1.7817,-5.03401 3.5369,-6.9994 0.8776,-0.98269 1.9368,-1.81421 3.1379,-2.35575 1.2011,-0.54153 2.5471,-0.78543 3.8536,-0.61527 1.3065,0.17016 2.5672,0.76678 3.4685,1.72777 0.9013,0.961 1.4209,2.29028 1.3295,3.60464 -0.026,0.37001 -0.097,0.74851 0,1.1065 0.083,0.30661 0.2875,0.57298 0.5439,0.76054 0.2564,0.18756 0.5623,0.3 0.8747,0.35742 0.6249,0.11483 1.2662,0.0164 1.9009,-0.0115 0.7371,-0.0324 1.4759,0.0311 2.213,0 1.4785,-0.0624 2.9316,-0.50958 4.2223,-1.23344 1.2907,-0.72386 2.4207,-1.71999 3.3526,-2.86951 1.8637,-2.29902 2.9141,-5.16558 3.4901,-8.06856 0.7944,-4.00336 0.7384,-8.15743 0,-12.1715 -0.7611,-4.13788 -2.2307,-8.10753 -3.3195,-12.17151 -2.6432,-9.86612 -3.0496,-20.31294 -6.639,-29.87552 -1.3605,-3.62444 -3.1921,-7.19574 -3.3195,-11.06501 -0.055,-1.66991 0.2134,-3.33107 0.3609,-4.99535 0.1475,-1.66428 0.1687,-3.37851 -0.3609,-4.96315 -0.5235,-1.56638 -1.553,-2.91204 -2.213,-4.42601 -1.1975,-2.7471 -1.1117,-5.85524 -1.1065,-8.852 0.016,-9.22927 -0.9287,-18.43495 -1.1065,-27.66252 -0.2062,-10.7029 0.6199,-21.3947 1.1065,-32.08852 0.369,-8.11031 0.5427,-16.24247 0,-24.34302 -0.4965,-7.41041 -1.591,-14.77298 -2.0134,-22.18797 -0.4225,-7.41499 -0.1542,-14.96837 2.0134,-22.07205 1.2312,-4.03508 3.0785,-7.95965 3.3195,-12.17151 0.084,-1.47323 -0.032,-2.9507 0,-4.426 0.096,-4.49193 1.5493,-8.83434 2.213,-13.27801 1.3094,-8.76709 -0.4756,-17.70445 0,-26.556018 0.1893,-3.524234 0.7367,-7.020877 0.9626,-10.542955 0.2259,-3.522079 0.1199,-7.121359 -0.9626,-10.480558 -1.1152,-3.460604 -3.22,-6.528503 -4.426,-9.958506 -0.6615,-1.881313 -1.0674,-3.900161 -2.213,-5.532504 -0.3849,-0.548419 -0.8449,-1.039477 -1.258,-1.567006 -0.413,-0.527529 -0.7848,-1.104464 -0.955,-1.752496 -0.1411,-0.537402 -0.1378,-1.10199 -0.1002,-1.656332 0.038,-0.554342 0.1088,-1.107617 0.1002,-1.66317 -0.016,-1.021286 -0.3033,-2.027287 -0.7501,-2.94583 -0.4467,-0.918543 -1.0497,-1.753961 -1.7136,-2.530169 -1.3278,-1.552415 -2.9055,-2.882319 -4.1753,-4.482507 -0.9023,-1.13701 -1.6375,-2.395929 -2.4782,-3.579174 -0.8408,-1.183246 -1.8108,-2.311044 -3.0543,-3.05983 -1.3341,-0.803366 -2.9227,-1.125253 -4.4796,-1.086557 -1.5568,0.0387 -3.0884,0.422896 -4.5536,0.950461 -2.9305,1.05513 -5.652,2.688739 -8.6708,3.455598 -3.9554,1.004802 -8.1156,0.452734 -12.1715,0 -11.3959,-1.272059 -22.9626,-1.706546 -34.3016,0 -5.8905,0.886541 -11.7487,2.351296 -17.704,2.213001 -7.9737,-0.185168 -15.5798,-3.226355 -22.8731,-6.454845 -7.2933,-3.228489 -14.6084,-6.728832 -22.4934,-7.929664 -4.0284,-0.613507 -8.1268,-0.611579 -12.1715,-1.106501 -4.8903,-0.598389 -9.6614,-1.917533 -14.3845,-3.3195018 -11.9734,-3.5540795 -24.0248,-7.7099759 -36.5145,-7.7455048 -2.5825,-0.00735 -5.1681,0.1628029 -7.7455,0 -0.738,-0.046614 -1.4834,-0.120164 -2.213,0 -1.2053,0.198516 -2.2794,0.9205889 -3.0913,1.8332397 -0.812,0.9126508 -1.3872,2.0096418 -1.8912,3.1224016 -0.5039,1.1127598 -0.9463,2.2558873 -1.5342,3.3266753 -0.588,1.070787 -1.3363,2.07971 -2.3353,2.78269 -1.0905,0.767325 -2.4247,1.129224 -3.7533,1.241767 -1.3286,0.112544 -2.6647,-0.01035 -3.9922,-0.135266 -15.5776,-1.465812 -31.7736,-3.147454 -46.4731,2.213001 -3.2935,1.201052 -6.4988,2.753192 -9.9585,3.319502 -2.9195,0.477889 -5.9029,0.233054 -8.852,0 -4.6991,-0.371345 -9.4212,-0.709764 -14.1222,-0.362354 -4.7009,0.34741 -9.4117,1.407211 -13.5403,3.681857 -3.4965,1.926356 -6.4866,4.6687 -9.9585,6.639004 -6.9042,3.918165 -15.2524,4.509936 -23.1391,3.604072 -7.8867,-0.905864 -15.541,-3.196844 -23.3339,-4.710573 -9.4614,-1.837832 -19.136,-2.526873 -28.7691,-2.213001 -4.7976,0.156318 -9.6171,0.55934 -14.3845,0 -5.0827,-0.596329 -9.9658,-2.269663 -14.8544,-3.783296 -4.8886,-1.513634 -9.9036,-2.888087 -15.0211,-2.855709 -2.5859,0.01636 -5.1895,0.391862 -7.7455,0 -3.1253,-0.47914 -5.9492,-2.065989 -8.852,-3.319502 -7.0328,-3.036978 -14.7608,-4.173853 -22.4188,-4.368258 -7.658,-0.194406 -15.3053,0.52305 -22.9477,1.048756 -6.2647,0.430938 -12.5738,0.732351 -18.8105,0 -4.4571,-0.523382 -8.8365,-1.570333 -13.278,-2.213001 -8.7841,-1.2710301 -17.7314,-0.948433 -26.5561,0 -4.2175,0.453278 -8.5587,1.096656 -12.1715,3.319502 -1.1329,0.697039 -2.1732,1.538237 -3.3195,2.213001 -3.4185,2.012276 -7.57239,2.416821 -11.52414,2.071872 -3.95174,-0.34495 -7.8058,-1.38329 -11.71235,-2.071872 -16.37701,-2.886666 -33.16835,0.419675 -49.79253,0 -13.32479,-0.336383 -26.50732,-3.069659 -39.83402,-3.319502 -6.63913,-0.124468 -13.28695,0.368461 -19.91701,0 -11.15137,-0.61973 -22.05251,-3.6634015 -33.19502,-4.4260025 -9.93874,-0.6802144 -19.92434,0.4640659 -29.87552,0 -10.37828,-0.4839834 -20.61026,-2.7116451 -30.98202,-3.319502 -5.15693,-0.3022316 -10.32921,-0.2027118 -15.49101,0 -9.95892,0.3911022 -19.9091,1.1659903 -29.87552,1.1065006 -14.0255,-0.083718 -28.03942,-1.8197048 -42.04703,-1.1065006 -6.27444,0.3194662 -12.52799,1.1299481 -18.81051,1.1065006 -2.95164,-0.011016 -5.90755,-0.2061271 -8.852,0 -4.47865,0.3135296 -8.83795,1.547778 -13.27801,2.2130014 -11.32331,1.6964935 -22.85675,-0.3358236 -34.30152,0 -9.99546,0.2932964 -20.1627,2.3782895 -29.87552,0 -5.66917,-1.3881576 -10.9041,-4.2474007 -16.59751,-5.5325034 -9.02401,-2.0368762 -18.4115,0.017168 -27.66252,0 -7.46912,-0.013861 -14.86503,-1.3843253 -22.31473,-1.9228602 -7.44969,-0.53853504 -15.20306,-0.184704 -21.9453,3.0293609 -3.22085,1.535398 -6.10768,3.6749411 -9.10585,5.6094472 -2.99816,1.934506 -6.19615,3.699679 -9.70466,4.349059 -1.68938,0.312682 -3.41615,0.359586 -5.11926,0.585794 -1.70312,0.226208 -3.42537,0.651135 -4.83925,1.627207 -0.76373,0.527241 -1.41396,1.199 -2.10393,1.819646 -0.68998,0.620646 -1.44257,1.203651 -2.32207,1.499856 -0.70537,0.237559 -1.46321,0.279809 -2.20643,0.239633 -0.74321,-0.04018 -1.47951,-0.160343 -2.21957,-0.239633 -4.40624,-0.472083 -8.87584,0.508674 -13.27801,0 -5.70001,-0.65864 -10.89786,-3.764301 -16.59751,-4.426002 -4.03268,-0.468174 -8.11174,0 -12.17151,0 h -30.98202 c -7.74726,0 -15.50751,0.531514 -23.23651,0 -6.30014,-0.433253 -12.50873,-1.804296 -18.81051,-2.213002 -11.05584,-0.717033 -22.22309,1.537052 -33.19502,0 -3.72585,-0.521952 -7.37578,-1.475474 -11.06501,-2.213001 -11.62053,-2.3231009 -23.56082,-2.4908071 -35.40802,-2.2130015 -14.021,0.328779 -28.07967,1.2685715 -42.04703,0 -6.85784,-0.6228571 -13.66515,-1.7763733 -20.53839,-2.1965666 -6.87324,-0.4201934 -13.9038,-0.081508 -20.40214,2.1965666 -1.10121,0.3860448 -2.18645,0.8273972 -3.3195,1.1065007 -2.51391,0.6192498 -5.1472,0.4416558 -7.73075,0.2728618 -2.58355,-0.168794 -5.1712,-0.2728618 -7.76026,-0.2728618 h -34.30152 c -9.96604,0 -19.98799,1.2485068 -29.87552,0 -4.453274,-0.5623187 -8.808934,-1.794364 -13.278005,-2.2130014 -6.983778,-0.654201 -14.043674,0.6949576 -21.023514,0 C 62.480022,7.3561982 58.661184,6.3311734 54.771178,5.7764991 50.881172,5.2218248 46.79502,5.1627456 43.153527,6.6390041 41.678409,7.2370161 40.312753,8.0724923 38.877501,8.7607089 37.442248,9.4489256 35.892776,9.9972284 34.301521,9.9585062 33.744774,9.9449581 33.192389,9.8596434 32.636858,9.8204508 32.081327,9.7812581 31.512759,9.7897883 30.982019,9.9585062 30.276113,10.182908 29.677472,10.683412 29.2516,11.289458 c -0.425872,0.606046 -0.689153,1.31372 -0.85918,2.034656 -0.340054,1.441873 -0.32283,2.955493 -0.729903,4.379897 -0.375019,1.312242 -1.105608,2.51135 -2.044092,3.502242 -0.938484,0.990891 -2.080942,1.777704 -3.308468,2.374192 -2.455053,1.192977 -5.20714,1.621527 -7.925448,1.869071 -2.965581,0.270062 -5.9728466,0.346208 -8.8520055,1.106501 -1.868208,0.493333 -3.6482372,1.266365 -5.45731846,1.945191 -1.80908134,0.678825 -3.67825414,1.270091 -5.60768854,1.374311 -2.2144519,0.119616 -4.4586353,-0.405087 -6.6390045,0 -1.584715,0.294421 -3.063911,1.080942 -4.247275,2.175316 -1.183363,1.094375 -2.074707,2.488974 -2.644052,3.996903 -1.13869,3.015858 -0.979057,6.40196 -0.124944,9.510417 1.708225,6.216916 5.998421,11.425086 8.122772,17.512384 1.6561318,4.745623 1.9370572,9.871672 1.6491902,14.889724 -0.287867,5.018052 -1.1262972,9.986766 -1.6491902,14.985795 -0.807335,7.718382 -0.860061,15.523832 0,23.236512 0.780854,7.00239 2.3105352,14.08136 1.1065008,21.02352 -0.5199238,2.99775 -1.5397118,5.88493 -2.2130018,8.852 -1.561179,6.87983 -1.228306,14.07652 0,21.02351 1.561377,8.83076 4.5620596,17.67479 3.3195025,26.55602 -0.7326335,5.23653 -2.9241405,10.21828 -3.3195025,15.49101 -0.208965,2.78685 0.09056,5.5837 0.152362,8.37769 0.0618,2.79399 -0.131003,5.66284 -1.258862,8.21982 -0.666223,1.5104 -1.643974,2.87637 -2.213002,4.426 -0.901572,2.45525 -0.709081,5.16033 -1.1065,7.74551 -0.471776,3.06886 -1.770071,5.93825 -2.985901,8.79522 -1.215829,2.85696 -2.376761,5.80852 -2.546603,8.90879 -0.12117,2.2118 0.267682,4.44011 0,6.639 -0.184015,1.5116 -0.673324,2.96616 -1.106501,4.42601 -0.607648,2.04784 -1.112856,4.15699 -1.062284,6.29248 0.05057,2.1355 0.70748,4.32098 2.168785,5.87902 0.714898,0.76222 1.606008,1.36235 2.213002,2.21301 0.492924,0.6908 0.77298,1.51688 0.904711,2.35523 0.131731,0.83834 0.120902,1.69266 0.07323,2.53995 -0.09535,1.69458 -0.332642,3.42992 0.128561,5.06332 0.29357,1.03971 0.857495,1.98218 1.473623,2.86963 0.616129,0.88745 1.291562,1.73557 1.845879,2.66288 1.072384,1.79399 1.664012,3.84384 1.956269,5.91337 0.292258,2.06954 0.294955,4.16841 0.256733,6.25813 -0.189023,10.33458 -1.364864,20.64894 -1.106501,30.98202 0.06291,2.51622 0.217388,5.06574 1.012571,7.45384 0.795182,2.38809 2.305368,4.62793 4.5199325,5.82417 0.7403151,0.3999 1.550308,0.68071 2.2266865,1.18121 0.3381893,0.25024 0.6406976,0.55656 0.8461079,0.92372 0.2054102,0.36715 0.3090666,0.79851 0.2467076,1.21457 -0.059382,0.3962 -0.2624463,0.75729 -0.3469777,1.1489 -0.042266,0.19581 -0.053982,0.40179 -0.00207,0.59526 0.051915,0.19347 0.1728796,0.37349 0.3490444,0.46884 0.165099,0.0894 0.3623085,0.0982 0.5490052,0.0786 0.1866968,-0.0197 0.3702081,-0.0657 0.5574955,-0.0786 0.3306345,-0.0228 0.6655792,0.0604 0.9551525,0.22161 0.2895734,0.1612 0.5341428,0.39858 0.7174454,0.67469 0.3666053,0.55223 0.4817736,1.24226 0.4368656,1.90357 -0.089816,1.32262 -0.7698333,2.53413 -1.0029628,3.83914 -0.2583198,1.44602 0.063137,2.98733 0.8779421,4.20954 0.8148048,1.22221 2.11392152,2.11175 3.5480607,2.42946 z"
     id="path14"
     inkscape:path-effect="#path-effect14"
     inkscape:original-d="m 1.1065007,371.78423 c 6.4299284,-1.03449 13.5351383,1.27638 19.9170123,0 4.337596,-0.86752 7.161176,-4.98961 12.171508,-3.3195 5.745467,1.91516 15.385288,12.64547 17.704011,14.38451 6.521022,4.89077 16.990959,9.95851 25.449516,9.95851 8.892057,0 5.436185,-4.23337 8.852005,-11.06501 1.556111,-3.11222 3.072077,-6.39158 5.532504,-8.85201 0.583177,-0.58317 1.629824,-0.52332 2.213001,-1.1065 0.260805,-0.2608 -0.260805,-0.84569 0,-1.1065 0.260805,-0.2608 0.845696,0.26081 1.106501,0 0.521609,-0.52161 -0.144669,-1.48966 0,-2.213 0.298241,-1.49121 0.669519,-2.9694 1.1065,-4.426 0.670299,-2.23433 1.75552,-4.3516 2.213002,-6.63901 0.434005,-2.17002 -0.989684,-4.65963 0,-6.639 1.927046,-3.85409 11.024649,-2.66367 13.278009,-2.213 1.02296,0.20459 1.34499,1.63433 2.213,2.213 1.37245,0.91496 2.95067,1.47533 4.426,2.213 4.72885,2.36443 11.71955,5.08055 15.49101,8.85201 0.94035,0.94034 1.19139,2.46815 2.213,3.3195 5.2422,4.36849 24.03992,6.33591 26.55602,8.852 0.26081,0.26081 -0.2608,0.8457 0,1.1065 1.30402,1.30403 3.71343,-0.30317 5.5325,0 2.93318,0.48887 5.08581,3.09616 7.74551,4.42601 1.77654,0.88827 3.94352,1.02126 5.5325,2.213 1.47534,1.1065 1.91931,3.22583 3.3195,4.426 1.8534,1.58862 13.18149,5.51919 13.27801,5.5325 11.95287,1.64868 41.56713,2.97681 54.21854,0 2.09348,-0.49258 3.6089,-2.3577 5.5325,-3.3195 1.08066,-0.54033 4.81304,0.20556 5.5325,0 10.56483,-3.01852 19.29642,-11.50782 30.98202,-8.852 4.67561,1.06263 8.81521,3.77926 13.27801,5.5325 2.87139,1.12805 29.13893,10.98848 33.19502,12.17151 0.35029,0.10217 15.85555,3.81414 16.59751,3.3195 3.82632,-2.55088 6.19203,-7.32197 9.95851,-9.95851 4.0539,-2.83773 9.16067,-3.89411 13.27801,-6.639 6.66962,-4.44642 -0.54409,-7.7455 8.852,-7.7455 2.213,0 4.51115,-0.60796 6.63901,0 3.17201,0.90629 5.83739,3.08617 8.852,4.426 15.87429,7.05524 9.32506,2.44953 28.76902,12.17151 0.93308,0.46654 1.34499,1.63432 2.213,2.213 6.96916,4.6461 19.6962,5.80044 27.66252,6.639 1.60989,0.16946 12.85324,2.42539 15.49101,1.1065 0.93308,-0.46654 1.27992,-1.74646 2.213,-2.213 2.69798,-1.34899 13.82607,-2.18508 14.38451,-2.213 7.08095,-0.35405 26.03441,1.51353 32.08852,0 10.40404,-2.60101 21.38589,-3.35574 32.08852,-4.426 7.67648,-0.76765 23.37171,0 27.66252,0 3.68833,0 7.37667,0 11.065,0 0.73767,0 1.55322,0.32989 2.213,0 0.65979,-0.3299 -0.5216,-1.6914 0,-2.21301 1.30403,-1.30402 3.68834,0 5.53251,0 13.60421,0 23.62263,5.35427 36.51452,9.95851 0.43153,0.15412 24.31181,0.56885 25.44952,0 5.41269,-2.70634 11.18437,-11.92472 16.59751,-13.27801 8.01997,-2.00499 19.63856,1.67807 27.66251,2.213 8.2621,0.55081 16.20049,-0.70295 24.34302,1.1065 17.59156,3.90924 -9.47856,-2.17966 8.85201,3.31951 1.65211,0.49563 7.72436,0.21284 9.9585,1.1065 6.53875,2.6155 2.48966,2.18535 9.95851,4.426 6.51529,1.95459 16.70214,1.9233 23.23651,1.1065 4.16833,-0.52104 5.66967,-3.94133 8.85201,-5.5325 1.2392,-0.61961 3.25622,-0.52161 4.426,-1.1065 0.3299,-0.16495 -0.20459,-0.79962 0,-1.1065 0.57867,-0.86801 1.27992,-1.74646 2.213,-2.21301 1.36019,-0.68009 2.9694,-0.66951 4.426,-1.1065 7.77161,-2.33148 6.28362,-1.74292 13.27801,-6.639 1.79019,-1.25313 8.44561,-8.34771 9.95851,-8.85201 0.34584,-0.11527 8.71617,7.3314 13.27801,8.85201 3.80868,1.26956 11.29209,2.81285 15.49101,2.213 3.31047,-0.47292 7.69216,-3.17667 11.065,-2.213 9.95177,2.84336 19.5696,8.24085 29.87552,9.95851 10.04823,1.6747 20.9338,-1.67471 30.98202,0 8.28494,1.38082 30.54707,2.4332 39.83403,1.1065 3.77035,-0.53863 5.52214,-2.20955 8.852,-3.31951 5.08056,-1.69352 17.04467,1.03198 23.23649,0 5.1102,-0.85168 11.9411,-2.09776 16.5975,-4.426 1.1895,-0.59472 2.0579,-1.79246 3.3195,-2.213 2.0995,-0.69981 4.4921,0.53673 6.639,0 0.5061,-0.12651 0.64,-0.87323 1.1065,-1.1065 3.1041,-1.55202 8.7193,1.1065 12.1716,1.1065 8.5083,0 18.1831,-1.39549 26.556,0 10.3213,1.72022 19.7822,7.71555 29.8755,9.95851 3.1618,0.70262 6.759,-0.53326 9.9585,0 1.1505,0.19174 2.1758,0.87776 3.3195,1.1065 5.0329,1.00658 10.6193,-0.49755 15.491,-1.1065 4.3918,-0.54898 8.8673,-0.36756 13.278,0 5.7496,0.47913 9.2457,4.92605 14.3845,6.639 1.0497,0.34991 2.2281,-0.18191 3.3195,0 1.1505,0.19175 2.1758,0.87776 3.3195,1.1065 5.5803,1.11607 12.1201,-1.44101 16.5975,-4.426 1.3021,-0.86801 2.0175,-2.45149 3.3195,-3.3195 4.1898,-2.79315 14.2472,-6.31596 19.9171,-4.42601 2.5232,0.84107 4.1157,3.58494 6.639,4.42601 8.9357,2.97859 20.7254,0.50455 29.8755,4.426 1.2223,0.52385 2.1042,1.6729 3.3195,2.213 6.7243,2.98859 15.8296,4.55398 23.2365,3.3195 7.0772,-1.17954 -0.8305,-1.3554 7.7455,-2.213 4.2163,-0.42162 9.0568,0.70354 13.278,0 3.0517,-0.50862 10.4099,-3.15127 13.278,-4.426 1.9653,-0.87346 3.4922,-2.63941 5.5325,-3.3195 1.3996,-0.46654 2.9655,0.20864 4.426,0 1.0229,-0.14613 9.2743,-2.90897 9.9585,-3.31951 7.6953,-4.61716 15.6932,-10.39473 24.343,-13.278 5.7375,-1.91249 11.7245,-0.10991 17.7041,-1.1065 6.7171,-1.11953 13.2658,-4.32321 19.917,-5.53251 3.3494,-0.60899 14.6762,-1.00924 17.704,0 2.0403,0.6801 3.4922,2.63941 5.5325,3.3195 2.4742,0.82474 5.2255,0.43451 7.7455,1.10651 3.0449,0.81197 5.8287,2.4303 8.852,3.3195 7.1009,2.0885 15.791,4.70523 23.2365,5.5325 1.4663,0.16292 2.9707,-0.24254 4.426,0 3.9176,0.65293 8.0583,2.6867 12.1715,3.3195 14.4065,2.21639 31.9782,3.82354 46.473,2.213 11.801,-1.31122 23.5553,-5.5325 35.4081,-5.5325 2.5818,0 5.2138,-0.50634 7.7455,0 7.4425,1.48851 7.7067,4.50494 16.5975,3.3195 6.7272,-0.89696 7.9522,-5.73921 12.1715,-9.9585 2.6089,-2.60893 14.0265,-14.01024 17.704,-12.17151 0.3299,0.16495 -0.2608,0.84569 0,1.1065 0.8247,0.82474 2.213,0.73767 3.3195,1.1065 0.6998,0.23327 1.5532,-0.32989 2.213,0 13.3265,6.66325 11.065,-1.06629 11.065,-12.17151 0,-3.73104 0.7277,-8.53318 0,-12.1715 -0.8279,-4.13973 -2.3016,-8.09988 -3.3195,-12.17151 -2.476,-9.90394 -4.1708,-20.00286 -6.639,-29.87552 -0.6675,-2.67018 -2.9683,-7.90383 -3.3195,-11.06501 -0.2956,-2.66061 0.7056,-7.13601 0,-9.9585 -0.4001,-1.60023 -1.8895,-2.80856 -2.213,-4.42601 -0.5647,-2.82365 -1.1065,-5.94165 -1.1065,-8.852 0,-9.35269 -0.079,-18.41751 -1.1065,-27.66252 -1.1665,-10.49878 0.4556,-21.67425 1.1065,-32.08852 0.5026,-8.04105 0,-16.28599 0,-24.34302 0,-14.54785 -1.4456,-29.80449 0,-44.26002 0.4184,-4.18448 2.5672,-8.03399 3.3195,-12.17151 0.2639,-1.45154 -0.1468,-2.95799 0,-4.426 0.4465,-4.46479 1.8404,-8.80646 2.213,-13.27801 0.7255,-8.70559 0,-17.816206 0,-26.556018 0,-6.695129 0.9495,-14.377108 0,-21.023513 -0.6402,-4.48111 -1.8257,-6.491387 -4.426,-9.958506 -1.4502,-1.933662 -1.0972,-3.300968 -2.213,-5.532504 -0.5947,-1.189452 -1.7925,-2.057897 -2.213,-3.319502 -0.3499,-1.049719 0.3499,-2.269783 0,-3.319502 -1.3222,-3.96648 -4.4479,-6.671894 -6.639,-9.958506 -1.9685,-2.952724 -1.5401,-5.308187 -5.5325,-6.639004 -5.6811,-1.893688 -12.4076,2.260225 -17.704,3.319502 -3.4506,0.690123 -8.9512,0 -12.1715,0 -11.3604,0 -22.9889,-0.665448 -34.3016,0 -0.8806,0.0518 -15.1983,3.048206 -17.704,2.213001 -15.353,-5.11768 -29.4803,-10.57182 -45.3665,-14.384509 -4.4858,-1.076601 -8.0176,-0.275714 -12.1715,-1.106501 -4.8253,-0.965058 -9.6211,-2.084554 -14.3845,-3.3195018 -20.5271,-5.3218369 -12.5454,-4.9798341 -36.5145,-7.7455048 -2.5648,-0.2959405 -5.1637,0 -7.7455,0 -0.7377,0 -1.637,-0.460817 -2.213,0 -4.6472,3.717746 -2.6648,8.8151016 -8.852,11.0650066 -2.4511,0.891282 -5.1576,0.783013 -7.7455,1.106501 -15.3275,1.91593 -31.418,-1.132562 -46.4731,2.213001 -3.9834,0.885201 -5.3112,2.655602 -9.9585,3.319502 -2.921,0.417288 -5.9059,-0.163673 -8.852,0 -8.4254,0.468077 -19.534,0.609986 -27.6625,3.319503 -3.6477,1.215904 -6.0481,6.150208 -9.9585,6.639004 -13.0158,1.626968 -33.535,-0.243968 -46.473,-1.106501 -9.5967,-0.63978 -19.1659,-1.679491 -28.7691,-2.213001 -4.7874,-0.26597 -9.6093,0.434104 -14.3845,0 -10.086,-0.916912 -19.8627,-5.728755 -29.8755,-6.639005 -2.5712,-0.233748 -5.2138,0.50634 -7.7455,0 -3.0901,-0.618023 -5.7845,-2.597726 -8.852,-3.319502 -13.2994,-3.12927 -31.6207,-3.319502 -45.3665,-3.319502 -6.1,0 -12.7713,0.635704 -18.8105,0 -4.4624,-0.469726 -8.8217,-1.688728 -13.278,-2.213001 -6.3056,-0.741825 -20.8189,-0.81959 -26.5561,0 -4.163,0.594726 -8.3061,1.662934 -12.1715,3.319502 -1.2223,0.523853 -2.0579,1.792466 -3.3195,2.213001 -3.3518,1.117281 -23.14441,0 -23.23649,0 -16.49587,0 -33.32408,0.914914 -49.79253,0 -13.28218,-0.737898 -26.56995,-2.372068 -39.83402,-3.319502 -6.60551,-0.471822 -13.30919,0.440522 -19.91701,0 -11.12247,-0.741497 -22.1155,-3.5027091 -33.19502,-4.4260025 -9.6419,-0.8034914 -20.50149,0.3605396 -29.87552,0 -9.9204,-0.3815535 -21.52784,-0.9559559 -30.98202,-3.319502 -4.53039,-1.132597 -10.9753,0 -15.49101,0 -10.08844,0 -20.08318,-0.5255561 -29.87552,1.1065006 -9.82474,1.6374559 -33.5392,-0.7661876 -42.04703,-1.1065006 -6.57158,-0.2628633 -12.43532,0.3096021 -18.81051,1.1065006 -2.92788,0.3659854 -5.93099,-0.4172875 -8.852,0 -4.39256,0.6275075 -8.75859,1.8021449 -13.27801,2.2130014 -11.24257,1.0220519 -22.97788,0 -34.30152,0 -9.78698,0 -20.16468,1.0789823 -29.87552,0 -6.51375,-0.7237501 -10.29839,-3.9577237 -16.59751,-5.5325034 -5.32479,-1.3311973 -21.28658,0 -27.66252,0 -14.6957,0 -29.65858,-0.9794212 -44.26003,1.1065007 -11.28731,1.6124732 -11.2253,4.2695967 -18.81051,9.9585062 -2.85413,2.140597 -6.70531,0.586401 -9.95851,2.213001 -1.64947,0.824737 -2.69925,2.671972 -4.426,3.319502 -1.3814,0.518025 -2.95067,0 -4.426,0 -4.426,0 -8.90347,0.673006 -13.27801,0 -5.51475,-0.848423 -10.96373,-3.621177 -16.59751,-4.426002 -3.75436,-0.536337 -8.44325,0 -12.17151,0 -10.32734,0 -20.65468,0 -30.98202,0 -7.61585,0 -15.65194,0.689506 -23.23651,0 -6.28749,-0.57159 -12.5157,-1.728785 -18.81051,-2.213002 -10.87625,-0.836634 -22.39106,1.543424 -33.19502,0 -9.82253,-1.403217 1.82443,-1.221505 -11.06501,-2.213001 -11.76855,-0.905273 -23.61184,-1.426589 -35.40802,-2.2130015 -13.86946,-0.9246302 -28.14787,0 -42.04703,0 -12.86587,0 -28.30665,-1.4037641 -40.94053,0 -1.15922,0.1288023 -2.16487,0.9415533 -3.3195,1.1065007 -5.11177,0.7302528 -10.32734,0 -15.49101,0 -11.43384,0 -22.86768,0 -34.30152,0 -9.69933,0 -20.23165,1.0715408 -29.87552,0 -4.449972,-0.4944416 -8.931464,-1.7300523 -13.278005,-2.2130014 -5.224108,-0.5804564 -16.096073,1.64248 -21.023514,0 C 61.297706,6.0480597 48.907292,5.4882512 43.153527,6.6390041 40.118173,7.246075 37.231019,9.3726068 34.301521,9.9585062 c -1.085013,0.2170028 -2.370685,-0.5692899 -3.319502,0 -2.680224,1.6081348 -2.227191,5.5608838 -3.319502,7.7455048 -0.733308,1.466618 -11.532889,7.163799 -13.278008,7.745505 -1.689755,0.563252 -8.1585517,0.759774 -8.8520055,1.106501 -3.4214145,1.710707 -7.0736211,2.321655 -11.065007,3.319502 -1.4943326,0.373583 -5.4607815,-0.883667 -6.6390045,0 -9.204391,6.903293 -0.521854,24.239065 1.106501,33.19502 1.5352185,8.443702 0,21.114487 0,29.875519 0,7.670712 -0.587909,15.593692 0,23.236512 0.515462,6.70101 2.2428771,14.20526 1.1065008,21.02352 -0.5000158,3.00009 -1.9103628,5.82562 -2.2130018,8.852 -0.63598,6.35981 -0.448738,14.74118 0,21.02351 0.638467,8.93854 4.3309624,17.45288 3.3195025,26.55602 -0.5847019,5.26232 -2.7926755,10.22274 -3.3195025,15.49101 -1.090556,10.90557 2.3754933,0.34821 -1.1065,16.59751 -0.345613,1.61286 -1.778996,2.83465 -2.213002,4.426 -0.686222,2.51615 -0.639959,5.17953 -1.1065,7.74551 -1.098136,6.03974 -4.652868,12.42619 -5.532504,17.70401 -0.363815,2.18289 0.312966,4.44824 0,6.639 -0.215065,1.50546 -0.891435,2.92055 -1.106501,4.42601 -0.283046,1.98132 0.526229,10.72082 1.106501,12.1715 0.387442,0.96861 1.74646,1.27992 2.213002,2.21301 1.31103,2.62206 0.232761,7.33729 1.1065,9.9585 0.680096,2.04029 2.520771,3.53568 3.319502,5.53251 1.358571,3.39642 1.485631,8.53465 2.213002,12.1715 1.67591,8.37956 -3.334122,24.29916 -1.106501,30.98202 1.503878,4.51164 3.445664,9.10433 5.5325035,13.27801 0.6639004,1.3278 2.6556016,1.9917 3.319502,3.3195 0.3298948,0.65979 -0.5216094,1.69139 0,2.213 0.2608048,0.26081 0.845696,-0.2608 1.1065007,0 2.0000828,2.00009 0.68828,4.12968 1.1065007,6.63901 0.2758911,1.65534 4.31312592,6.4885 4.4260028,6.639 z"
     transform="matrix(1.00405,0,0,1.0245968,0.0984242,-8.8812829)" />
  <path
     style="fill:none;stroke:#3a425f;stroke-opacity:1"
     d="m 1254.7718,400.55325 c 1.8887,-0.96489 3.4611,-2.53727 4.426,-4.426 0.9045,-1.77061 1.2765,-3.77861 2.213,-5.53251 0.8033,-1.50447 1.9911,-2.76417 3.1998,-3.96737 1.2088,-1.20321 2.4621,-2.38025 3.4392,-3.77813 1.2334,-1.76456 1.9941,-3.83596 3.3195,-5.5325 1.7122,-2.19163 4.2182,-3.58194 6.5486,-5.09987 1.1652,-0.75896 2.3068,-1.56736 3.3002,-2.54052 0.9933,-0.97316 1.8382,-2.12117 2.3227,-3.42462 0.5303,-1.42687 0.613,-2.98599 1.1065,-4.426 0.7077,-2.06479 2.2361,-3.77779 4.0307,-5.02021 1.7945,-1.24243 3.8515,-2.05205 5.9278,-2.7253 16.6158,-5.38784 34.5946,-2.51187 52.0055,-1.1065 3.6844,0.29739 7.4062,0.52519 11.065,0 8.2304,-1.18138 15.4159,-6.02849 23.2366,-8.852 5.0527,-1.82419 10.371,-2.80033 15.491,-4.42601 1.691,-0.53691 3.3689,-1.14877 4.9111,-2.02598 1.5421,-0.87721 2.9516,-2.03375 3.9409,-3.50652 0.7438,-1.10729 1.2538,-2.39254 2.213,-3.3195 0.9583,-0.92606 2.2661,-1.39673 3.3195,-2.213 1.0585,-0.82025 1.8224,-1.96 2.4726,-3.13066 0.6502,-1.17066 1.2079,-2.39594 1.9534,-3.50835 2.1391,-3.19183 5.6094,-5.17801 8.8359,-7.2645 1.6132,-1.04325 3.2018,-2.1445 4.5801,-3.48284 1.3782,-1.33835 2.5465,-2.93051 3.1815,-4.74367 0.2785,-0.79507 0.4524,-1.62493 0.7552,-2.41106 0.3028,-0.78613 0.7567,-1.54783 1.4578,-2.01494 0.5747,-0.38291 1.2669,-0.53808 1.9016,-0.81019 0.3174,-0.13606 0.6248,-0.30434 0.881,-0.5358 0.2562,-0.23147 0.4596,-0.53049 0.5369,-0.86701 0.083,-0.36089 0.018,-0.73666 0,-1.1065 -0.045,-0.91789 0.2087,-1.84094 0.6727,-2.63413 0.4641,-0.7932 1.1334,-1.4583 1.9026,-1.96116 1.5384,-1.00571 3.428,-1.34977 5.2659,-1.35156 1.838,-0.002 3.6591,0.31449 5.485,0.52475 1.8258,0.21027 3.6956,0.31242 5.4843,-0.11041 2.0156,-0.47647 3.8137,-1.5903 5.559,-2.70537 1.7454,-1.11507 3.5127,-2.26458 5.506,-2.82713 2.698,-0.76145 5.5654,-0.38535 8.3583,-0.14227 1.3964,0.12154 2.8017,0.20824 4.1991,0.0984 1.3974,-0.10984 2.7933,-0.42218 4.0401,-1.06263 0.7351,-0.3776 1.4213,-0.86939 2.213,-1.1065 0.7263,-0.21751 1.504,-0.20731 2.2541,-0.0966 0.75,0.11069 1.4815,0.31881 2.2193,0.49343 0.7378,0.17462 1.491,0.31669 2.2488,0.29142 0.7577,-0.0253 1.5266,-0.22898 2.1298,-0.68824 0.4155,-0.31635 0.7358,-0.73868 1.1065,-1.1065 1.0168,-1.0088 2.4404,-1.59523 3.8728,-1.59523 1.4323,0 2.8559,0.58643 3.8727,1.59523"
     id="path3"
     inkscape:path-effect="#path-effect3"
     inkscape:original-d="m 1254.7718,400.55325 c 1.4753,-1.47533 3.2686,-2.68998 4.426,-4.426 1.1017,-1.65265 1.1112,-3.87986 2.213,-5.53251 1.8862,-2.82936 4.5987,-5.02512 6.639,-7.7455 1.2904,-1.72052 1.9033,-3.91397 3.3195,-5.5325 3.5039,-4.00443 8.871,-6.6644 12.1715,-11.06501 1.1324,-1.50988 0.3314,-3.39253 1.1065,-4.426 2.1053,-2.80709 6.3928,-6.98144 9.9585,-7.74551 14.2321,-3.04972 36.6701,-1.1065 52.0055,-1.1065 3.3965,0 7.6891,0.56266 11.065,0 8.1758,-1.36262 15.438,-6.04453 23.2366,-8.852 5.0528,-1.81903 10.5338,-2.36051 15.491,-4.42601 3.2119,-1.33829 6.3916,-3.07207 8.852,-5.5325 0.9403,-0.94035 1.2726,-2.37916 2.213,-3.3195 0.9403,-0.94035 2.3791,-1.27266 3.3195,-2.213 1.8807,-1.88069 2.5453,-4.75832 4.426,-6.63901 5.1315,-5.13154 12.4628,-9.28903 16.5975,-15.49101 0.915,-1.37244 1.0466,-3.25965 2.213,-4.426 1.3477,-1.3477 2.4722,-0.51831 3.3195,-2.213 0.1649,-0.3299 -0.2608,-0.8457 0,-1.1065 1.6537,-1.65371 15.2692,-4.01479 18.8105,-5.53251 1.9304,-0.82731 9.3932,-5.11455 11.065,-5.5325 5.2928,-1.3232 11.157,0.25363 16.5975,-1.1065 0.8001,-0.20003 1.4306,-0.8457 2.213,-1.1065 2.6556,-0.8852 6.1964,0.8852 8.852,0 0.4949,-0.16495 0.64,-0.87323 1.1065,-1.1065 1.6393,-0.81966 5.8723,0 7.7455,0" />
  <path
     style="fill:none;stroke:#3a425f;stroke-opacity:1"
     d="m 1471.6459,399.44675 c 0.069,-3.78096 0.8223,-7.54844 2.213,-11.06501 1.4955,-3.78159 3.7007,-7.23205 5.677,-10.78612 1.9762,-3.55408 3.7573,-7.31123 4.2815,-11.34389 0.571,-4.3926 0,-8.84846 0,-13.27801 V 324.2047 c 0,-2.23221 -0.1575,-4.46065 -0.4121,-6.6783 -0.1272,-1.10883 -0.2495,-2.22187 -0.2318,-3.33784 0.018,-1.11596 0.1833,-2.24522 0.6439,-3.26187 0.4936,-1.08955 1.3088,-2.00775 2.2243,-2.7776 0.9155,-0.76984 1.9352,-1.40398 2.9403,-2.05242 1.0051,-0.64845 2.0053,-1.31867 2.8668,-2.14849 0.8615,-0.82982 1.5846,-1.83394 1.9271,-2.97999 0.2079,-0.69559 0.2744,-1.43566 0.5705,-2.09852 0.1481,-0.33143 0.3556,-0.6418 0.6375,-0.87058 0.2818,-0.22878 0.6426,-0.3708 1.005,-0.3504 0.1884,0.0106 0.3718,0.0637 0.559,0.0874 0.094,0.0119 0.1886,0.0163 0.2822,0.004 0.094,-0.0119 0.186,-0.0408 0.2653,-0.0918 0.082,-0.053 0.1491,-0.12913 0.1957,-0.21535 0.047,-0.0862 0.074,-0.18233 0.085,-0.27975 0.022,-0.19486 -0.021,-0.39141 -0.08,-0.57835 -0.059,-0.18694 -0.1351,-0.3686 -0.184,-0.55847 -0.049,-0.18987 -0.07,-0.39234 -0.017,-0.58109 0.058,-0.20765 0.2032,-0.38411 0.379,-0.50913 0.1757,-0.12502 0.3812,-0.20236 0.5898,-0.25725 0.4172,-0.10977 0.8633,-0.1377 1.2442,-0.34012 0.2804,-0.14902 0.5089,-0.38686 0.6691,-0.66105 0.1602,-0.2742 0.2544,-0.5838 0.2999,-0.89809 0.091,-0.62858 -0.01,-1.26688 -0.084,-1.89749 -0.076,-0.63061 -0.1266,-1.28231 0.056,-1.89061 0.091,-0.30415 0.2419,-0.5933 0.4585,-0.82555 0.2166,-0.23225 0.5013,-0.40536 0.813,-0.46621 0.3629,-0.0708 0.737,0.0107 1.1065,0 0.5687,-0.0165 1.1275,-0.26226 1.5239,-0.67033 0.3964,-0.40807 0.626,-0.97374 0.626,-1.54267 0,-0.56893 -0.2296,-1.1346 -0.626,-1.54267 -0.3964,-0.40807 -0.9552,-0.65387 -1.5239,-0.67033"
     id="path4"
     inkscape:original-d="m 1471.6459,399.44675 c -0.4295,-3.90646 0.6896,-7.51033 2.213,-11.06501 3.0621,-7.14476 8.4169,-14.42206 9.9585,-22.13001 0.801,-4.00468 0,-9.20032 0,-13.27801 0,-9.58967 0,-19.17934 0,-28.76902 0,-2.14918 -0.8403,-12.01753 0,-13.27801 2.536,-3.80396 7.2176,-6.30387 9.9585,-9.9585 0.6933,-0.92437 0.6418,-2.53387 2.213,-3.3195 0.3299,-0.16495 0.8457,0.2608 1.1065,0 0.5216,-0.52161 -0.3299,-1.55322 0,-2.21301 2.3025,-4.60499 -0.076,1.18289 2.213,-1.1065 1.4202,-1.42013 0.7929,-5.21886 2.213,-6.639 0.2608,-0.2608 0.8457,0.2608 1.1065,0 0.4312,-0.43114 0,-3.75077 0,-4.426"
     inkscape:path-effect="#path-effect4" />
  <path
     style="fill:none;stroke:#3a425f;stroke-opacity:1"
     d="m 1551.314,397.23375 c -0.144,-1.5239 -0.7586,-3.00006 -1.7385,-4.17597 -0.9799,-1.17591 -2.3211,-2.04656 -3.794,-2.46304 -0.4072,-0.11513 -0.8252,-0.19688 -1.2187,-0.3524 -0.3935,-0.15553 -0.7696,-0.39559 -0.9943,-0.7541 -0.2015,-0.32146 -0.2654,-0.71414 -0.2465,-1.09307 0.019,-0.37892 0.1154,-0.74921 0.214,-1.11556 0.099,-0.36635 0.2005,-0.73463 0.2306,-1.11283 0.03,-0.3782 -0.016,-0.77174 -0.1981,-1.10454 -0.1259,-0.23009 -0.3114,-0.42209 -0.5082,-0.59547 -0.1969,-0.17338 -0.4073,-0.33124 -0.5983,-0.51103 -0.701,-0.65993 -1.1066,-1.59236 -1.2513,-2.54421 -0.1447,-0.95184 -0.045,-1.92618 0.1488,-2.86929 0.3872,-1.88622 1.1505,-3.72655 1.1025,-5.65151 -0.035,-1.42157 -0.517,-2.79985 -1.1565,-4.06996 -0.6394,-1.2701 -1.4377,-2.45243 -2.163,-3.67554 -1.4429,-2.43318 -2.5961,-5.02533 -3.9256,-7.52231 -1.3295,-2.49698 -2.8606,-4.92962 -4.9264,-6.8622 -1.1465,-1.07252 -2.4657,-2.00201 -3.3195,-3.3195 -0.6793,-1.04834 -1.0178,-2.27361 -1.4318,-3.45223 -0.414,-1.17862 -0.942,-2.37053 -1.8877,-3.18678 -1.0432,-0.90042 -2.4463,-1.22351 -3.7292,-1.72648 -0.6415,-0.25148 -1.2699,-0.5581 -1.7991,-0.99941 -0.5291,-0.44132 -0.9558,-1.02876 -1.1108,-1.70011 -0.1666,-0.72133 -0.013,-1.4728 0,-2.213 0.027,-1.5894 -0.5985,-3.11538 -1.3196,-4.53202 -0.7212,-1.41665 -1.555,-2.79387 -1.9999,-4.31999 -0.8311,-2.85115 -0.2265,-5.89082 0,-8.852 0.312,-4.0796 -0.1135,-8.20232 -1.1065,-12.17151 -0.5489,-2.19396 -1.2695,-4.34342 -1.7722,-6.54841 -0.5027,-2.205 -0.785,-4.49438 -0.4408,-6.7296 0.057,-0.36976 0.131,-0.73785 0.1536,-1.11128 0.023,-0.37343 -0.01,-0.75703 -0.1536,-1.10172 -0.1322,-0.31325 -0.3548,-0.58302 -0.6156,-0.80121 -0.2607,-0.21818 -0.5593,-0.38717 -0.8665,-0.53282 -0.6144,-0.29131 -1.275,-0.49677 -1.8374,-0.87897 -0.6882,-0.46772 -1.1957,-1.19465 -1.3975,-2.00193 -0.2018,-0.80728 -0.096,-1.6875 0.291,-2.42407"
     id="path5"
     inkscape:path-effect="#path-effect5"
     inkscape:original-d="m 1551.314,397.23375 c -12.9923,-9.74421 0.9848,2.05077 -5.5325,-6.63901 -0.4949,-0.65979 -1.6299,-0.52332 -2.213,-1.1065 -0.3682,-0.36814 0.074,-4.2027 0,-4.426 -0.165,-0.49484 -0.8733,-0.63996 -1.1065,-1.1065 -1.3993,-2.79861 0.8549,-8.07263 0,-11.06501 -0.7717,-2.70087 -2.0633,-5.2331 -3.3195,-7.7455 -2.3447,-4.68926 -5.7212,-10.21 -8.852,-14.38451 -0.9389,-1.25186 -2.4515,-2.01749 -3.3195,-3.3195 -0.9895,-1.48414 -1.6468,-5.38446 -3.3195,-6.63901 -6.4704,-4.85278 -0.2592,4.0805 -6.6391,-4.426 -0.4426,-0.59013 0.274,-1.52809 0,-2.213 -1.3643,-3.41098 -2.2304,-5.58474 -3.3195,-8.85201 -0.8819,-2.64587 0.6777,-6.14159 0,-8.852 -1.029,-4.11626 -1.1065,-7.80246 -1.1065,-12.17151 0,-5.27532 0.1008,-8.65057 -2.213,-13.27801 -0.3299,-0.65979 0.3299,-1.55321 0,-2.213 -0.7624,-1.52487 -2.595,-1.48854 -3.3195,-2.213 -1.3264,-1.3264 1.8063,-4.426 -1.1065,-4.426" />
  <path
     style="fill:none;stroke:#3a425f;stroke-opacity:1"
     d="m 870.81604,393.91425 c -2.19574,-1.06654 -3.86747,-3.1562 -4.426,-5.53251 -0.39558,-1.68303 -0.25157,-3.45777 0.16995,-5.13449 0.42151,-1.67673 1.11226,-3.27198 1.81749,-4.85051 0.70522,-1.57852 1.4303,-3.15527 1.92594,-4.8116 0.49564,-1.65633 0.75713,-3.40889 0.51262,-5.12041 -0.30759,-2.15301 -1.38658,-4.1053 -2.39212,-6.03376 -1.00553,-1.92847 -1.97565,-3.96366 -2.03388,-6.13775 -0.051,-1.90313 0.60192,-3.74527 0.93703,-5.61936 0.16756,-0.93704 0.25593,-1.89709 0.13579,-2.84139 -0.12014,-0.94429 -0.45939,-1.87636 -1.07282,-2.60425 -0.33629,-0.39904 -0.74648,-0.72873 -1.1065,-1.1065 -1.18705,-1.24559 -1.776,-2.97394 -1.89657,-4.69034 -0.12058,-1.71641 0.19259,-3.43462 0.6122,-5.10331 0.41962,-1.66869 0.94734,-3.31192 1.26913,-5.0022 0.32179,-1.69028 0.4323,-3.45184 0.0152,-5.12117 -0.34147,-1.36677 -1.02193,-2.62057 -1.68718,-3.86238 -0.66526,-1.24181 -1.32903,-2.50738 -1.63232,-3.88312 -0.29791,-1.35132 -0.23587,-2.75507 -0.42011,-4.12652 -0.0921,-0.68572 -0.24761,-1.368 -0.53219,-1.99866 -0.28457,-0.63065 -0.70376,-1.20981 -1.2607,-1.62033 -0.66511,-0.49025 -1.48487,-0.71593 -2.213,-1.1065 -0.93261,-0.50025 -1.71276,-1.28039 -2.21301,-2.213"
     id="path6"
     inkscape:path-effect="#path-effect6"
     inkscape:original-d="m 870.81604,393.91425 c -1.47533,-1.84417 -3.11597,-3.56746 -4.426,-5.53251 -2.78899,-4.18349 4.426,-15.03639 4.426,-19.91701 0,-4.32943 -2.8138,-7.87232 -4.426,-12.17151 -1.21532,-3.24085 1.09618,-7.77648 0,-11.065 -0.16495,-0.49485 -0.97999,-0.60047 -1.1065,-1.1065 -1.5346,-6.1384 0.89175,-13.67476 0,-19.91702 -0.42341,-2.96384 -2.47868,-5.22304 -3.3195,-7.7455 -0.87685,-2.63056 -1.0928,-5.50509 -2.213,-7.74551 -2.3025,-4.60499 0.0764,1.18289 -2.213,-1.1065 -2.5429,-2.54289 0.28684,-2.213 -2.21301,-2.213" />
  <path
     style="fill:none;stroke:#3a425f;stroke-opacity:1"
     d="m 1171.7842,398.34025 c -5.5156,-2.61781 -11.0483,-5.19972 -16.5975,-7.74551 -2.2499,-1.03219 -4.5074,-2.06096 -6.639,-3.3195 -1.8527,-1.09386 -3.6071,-2.35949 -5.5325,-3.3195 -4.048,-2.01831 -8.6946,-2.59495 -13.211,-2.34698 -4.5164,0.24798 -8.9487,1.28273 -13.345,2.34698 -3.3056,0.80022 -6.6095,1.62009 -9.9585,2.213 -9.8909,1.75109 -20.17,1.48174 -29.8755,-1.1065 -9.4744,-2.52661 -18.2557,-7.19093 -27.6625,-9.95851 -6.6156,-1.94637 -13.5231,-2.94962 -19.9171,-5.5325 -6.888,-2.78244 -12.9734,-7.31796 -19.917,-9.95851 -4.2192,-1.6045 -8.6733,-2.47764 -13.03916,-3.62466 -4.36585,-1.14702 -8.73277,-2.60973 -12.41033,-5.22734 -2.59225,-1.84511 -4.83164,-4.25439 -7.7455,-5.5325 -2.79032,-1.22392 -5.94653,-1.29536 -8.85201,-2.21301 -1.57943,-0.49884 -3.07927,-1.24876 -4.426,-2.213 -2.92822,-1.99654 -6.418,-3.1598 -9.9585,-3.3195 -1.10554,-0.0499 -2.21286,-0.004 -3.31951,0 -4.97786,0.0187 -10.06311,-0.84869 -14.38451,-3.3195 -1.86847,-1.06832 -3.57547,-2.42368 -5.5325,-3.3195 -2.21201,-1.01254 -4.66716,-1.39899 -7.09896,-1.46646 -2.4318,-0.0675 -4.86002,0.17282 -7.28555,0.35996 -2.31178,0.17836 -4.70364,0.29836 -6.88336,-0.49218 -1.08987,-0.39526 -2.10843,-1.02217 -2.87542,-1.89152 -0.76699,-0.86935 -1.26991,-1.99005 -1.30622,-3.14881 -0.02,-0.63707 0.0977,-1.27917 0.003,-1.9094 -0.0476,-0.31511 -0.15068,-0.62646 -0.3366,-0.8853 -0.18591,-0.25884 -0.46004,-0.46173 -0.77243,-0.5248 -0.18127,-0.0366 -0.36844,-0.026 -0.5528,-0.0115 -0.18435,0.0145 -0.37002,0.0329 -0.5537,0.0115 -0.31811,-0.0371 -0.61647,-0.19514 -0.84508,-0.41943 -0.22862,-0.22429 -0.38971,-0.51205 -0.48748,-0.81702 -0.19554,-0.60995 -0.14185,-1.26958 -0.056,-1.90433 0.0858,-0.63476 0.20192,-1.2758 0.12471,-1.91166 -0.0386,-0.31793 -0.12667,-0.63233 -0.28325,-0.91171 -0.15659,-0.27937 -0.38403,-0.52272 -0.66586,-0.67485 -0.3795,-0.20485 -0.82574,-0.23315 -1.24296,-0.3423 -0.20861,-0.0546 -0.41423,-0.13141 -0.59023,-0.25598 -0.17601,-0.12458 -0.32125,-0.30069 -0.37981,-0.50822 -0.0504,-0.17845 -0.0348,-0.36819 -0.0142,-0.55245 0.0207,-0.18427 0.046,-0.37138 0.0142,-0.55405 -0.0282,-0.16193 -0.10144,-0.31501 -0.20516,-0.44253 -0.10371,-0.12752 -0.23736,-0.22969 -0.385,-0.30193 -0.29528,-0.1445 -0.6401,-0.16708 -0.96364,-0.1088 -0.64707,0.11657 -1.1935,0.52942 -1.7657,0.85326 -1.39564,0.78988 -3.03476,1.07624 -4.63796,1.0379 -1.60321,-0.0383 -3.18282,-0.38637 -4.73277,-0.79794 -1.54995,-0.41156 -3.08482,-0.88875 -4.65904,-1.1946 -1.57423,-0.30585 -3.20271,-0.43747 -4.78074,-0.15187 -2.92174,0.52879 -5.42189,2.42729 -8.28724,3.2057 -1.43268,0.38921 -2.98937,0.48324 -4.38261,-0.0295 -0.69662,-0.25639 -1.34196,-0.6638 -1.84464,-1.20999 -0.50267,-0.5462 -0.85859,-1.23332 -0.97652,-1.96619 -0.0589,-0.3657 -0.0589,-0.7408 0,-1.1065"
     id="path7"
     inkscape:path-effect="#path-effect7"
     inkscape:original-d="m 1171.7842,398.34025 c -9.6928,1.28254 -10.2135,-3.4895 -16.5975,-7.74551 -2.0586,-1.37244 -4.4761,-2.11791 -6.639,-3.3195 -0.6284,-0.34914 -4.2245,-3.05791 -5.5325,-3.3195 -8.721,-1.74419 -17.7663,-0.97663 -26.556,0 -3.3797,0.37552 -6.5788,1.83748 -9.9585,2.213 -9.3603,1.04004 -20.7569,0.10932 -29.8755,-1.1065 -7.1652,-0.95536 -21.199,-6.72672 -27.6625,-9.95851 -5.83,-2.91499 -14.3671,-3.6021 -19.9171,-5.5325 -7.6634,-2.66554 -12.9397,-6.85751 -19.917,-9.95851 -8.2752,-3.67786 -17.38234,-4.81843 -25.44949,-8.852 -2.73571,-1.36786 -5.16549,-3.9845 -7.7455,-5.5325 -2.0702,-1.24213 -7.06713,-1.61805 -8.85201,-2.21301 -1.56482,-0.52161 -2.84609,-1.73902 -4.426,-2.213 -25.44966,-4.24161 5.60018,1.86673 -9.9585,-3.3195 -1.04972,-0.34991 -2.22413,0.15648 -3.31951,0 -2.89375,-0.41339 -11.6579,-1.9562 -14.38451,-3.3195 -2.531,-1.2655 -2.18877,-2.65076 -5.5325,-3.3195 -3.57153,-0.71431 -11.70257,-0.21253 -14.38451,-1.1065 -4.00469,-1.3349 -7.59526,-3.79763 -11.065,-5.53251 -2.32491,-1.16245 0.0215,-2.1915 -1.10651,-3.3195 -0.2608,-0.2608 -0.84569,0.26081 -1.1065,0 -1.53517,-1.53517 -1.34393,-4.90088 -2.213,-6.639 -2.30249,-4.60499 0.0764,1.18289 -2.213,-1.1065 -0.2608,-0.26081 0.26081,-0.8457 0,-1.1065 -0.78241,-0.78242 -2.24604,0.26836 -3.3195,0 -6.03739,-1.50935 -12.41387,-1.10651 -18.81051,-1.10651 -1.50632,0 -15.32865,0.16237 -15.49101,0 -0.26081,-0.2608 0,-0.73766 0,-1.1065" />
  <path
     style="fill:none;stroke:#3a425f;stroke-opacity:1"
     d="m 743.56846,396.12725 c 1.70453,-9.36134 5.95398,-18.24657 12.17151,-25.44952 1.55901,-1.8061 3.31052,-3.55694 5.53251,-4.426 1.09285,-0.42743 2.25911,-0.62459 3.40123,-0.89398 1.14213,-0.26939 2.29145,-0.62512 3.23777,-1.31902 0.84262,-0.61786 1.47862,-1.46973 2.213,-2.213 1.80971,-1.83162 4.18643,-2.9765 6.53665,-4.02835 2.35021,-1.05184 4.76297,-2.06918 6.74136,-3.71716 1.44651,-1.20493 2.61231,-2.70848 3.97171,-4.01089 0.67971,-0.65121 1.41172,-1.25462 2.22671,-1.72564 0.81499,-0.47102 1.71708,-0.80757 2.65359,-0.90247 0.36758,-0.0372 0.73892,-0.0372 1.1065,0 0.83686,-0.0934 1.63613,-0.49308 2.213,-1.1065 0.36377,-0.38682 0.63667,-0.84879 0.9654,-1.2658 0.32873,-0.417 0.73664,-0.80269 1.2476,-0.9472 0.35671,-0.10088 0.73578,-0.0764 1.10452,-0.0384 0.36874,0.0381 0.74125,0.0889 1.10848,0.0384 0.66712,-0.0919 1.24308,-0.50671 1.74761,-0.95272 0.50454,-0.44601 0.97801,-0.94281 1.57189,-1.26029 0.50215,-0.26844 1.06964,-0.39583 1.63673,-0.4471 0.56708,-0.0513 1.13786,-0.0292 1.70709,-0.0151 0.56922,0.0141 1.14153,0.0201 1.70487,-0.0628 0.56333,-0.0829 1.12127,-0.25866 1.59032,-0.58148 0.43114,-0.29673 0.77109,-0.70496 1.10558,-1.10751 0.33448,-0.40256 0.67524,-0.81028 1.10742,-1.10549 0.63281,-0.43226 1.41069,-0.58946 2.17051,-0.6894 0.75981,-0.0999 1.53549,-0.15461 2.25549,-0.4171 1.02186,-0.37253 1.84651,-1.13011 2.68405,-1.82402 0.41877,-0.34695 0.8493,-0.68329 1.32096,-0.95399 0.47166,-0.27071 0.98772,-0.4752 1.52749,-0.54149 0.81648,-0.10028 1.63971,0.1179 2.46197,0.0938 0.41114,-0.012 0.82756,-0.0876 1.18952,-0.28295 0.36196,-0.19534 0.66525,-0.52085 0.77452,-0.91738 0.099,-0.35908 0.0351,-0.74015 -0.022,-1.10821 -0.0571,-0.36805 -0.10522,-0.75473 0.022,-1.10479 0.11744,-0.32319 0.37543,-0.58036 0.66916,-0.75917 0.29372,-0.17881 0.62389,-0.28752 0.95214,-0.38998 0.32825,-0.10246 0.66044,-0.20121 0.96394,-0.36286 0.30351,-0.16165 0.58054,-0.39339 0.73426,-0.70099 0.17093,-0.34205 0.17093,-0.76446 0,-1.10651 0.61767,-0.84588 1.36712,-1.59533 2.213,-2.213 1.29889,-0.94845 2.80009,-1.57333 4.20782,-2.35112 1.40773,-0.7778 2.7755,-1.76513 3.53768,-3.18138 0.61634,-1.14526 0.78854,-2.48272 1.36007,-3.65099 0.28576,-0.58414 0.67954,-1.12957 1.21426,-1.49964 0.26736,-0.18503 0.56804,-0.32407 0.88551,-0.39431 0.31747,-0.0702 0.65181,-0.0706 0.96617,0.0124 0.40039,0.10576 0.75891,0.34197 1.16345,0.43051 0.20228,0.0443 0.41748,0.0496 0.61304,-0.0185 0.0978,-0.034 0.18965,-0.0863 0.26595,-0.15625 0.0763,-0.07 0.13672,-0.15792 0.17056,-0.25576 0.0609,-0.17608 0.0333,-0.369 0.004,-0.55295 -0.0296,-0.18396 -0.0598,-0.37589 -0.004,-0.55355 0.0327,-0.10344 0.0939,-0.19686 0.17093,-0.27321 0.0771,-0.0763 0.16971,-0.13602 0.2684,-0.18106 0.19738,-0.0901 0.41579,-0.12161 0.63127,-0.14695 0.21548,-0.0253 0.43382,-0.046 0.63897,-0.1166 0.10257,-0.0353 0.20134,-0.0832 0.28862,-0.14764 0.0873,-0.0644 0.16289,-0.14579 0.21481,-0.24104 0.09,-0.16515 0.10413,-0.36184 0.0869,-0.54914 -0.0172,-0.18729 -0.0635,-0.37075 -0.0869,-0.55737 -0.0692,-0.55119 0.0702,-1.12603 0.3841,-1.58436 0.31389,-0.45833 0.7995,-0.79603 1.33843,-0.93076 0.53893,-0.13473 1.12633,-0.0653 1.61898,0.19141 0.49265,0.25669 0.88613,0.69832 1.08449,1.21721"
     id="path8"
     inkscape:path-effect="#path-effect8"
     inkscape:original-d="m 743.56846,396.12725 c 7.37262,-6.51695 5.56179,-18.8398 12.17151,-25.44952 0.10662,-0.10662 4.64439,-3.98194 5.53251,-4.426 1.56095,-0.78048 5.24464,-1.28343 6.639,-2.213 0.86801,-0.57868 1.37843,-1.58707 2.213,-2.213 4.04236,-3.03177 9.09759,-4.95856 13.27801,-7.74551 3.02788,-2.01859 5.46659,-4.94629 8.85201,-6.639 0.32989,-0.16495 0.73766,0 1.1065,0 0.73766,-0.36884 1.52677,-0.64902 2.213,-1.1065 0.86801,-0.57868 1.22331,-1.88311 2.213,-2.213 0.69981,-0.23328 1.52809,0.27396 2.213,0 1.23473,-0.4939 2.0579,-1.79247 3.3195,-2.21301 2.1284,-0.70946 4.53833,-0.31874 6.63901,-1.1065 0.97679,-0.3663 1.37842,-1.58707 2.213,-2.213 3.13454,-2.35091 1.15414,-0.28853 4.426,-1.1065 2.32541,-0.58135 3.26068,-2.56223 5.5325,-3.3195 0.98552,-0.32851 3.96966,-0.19381 4.42601,-1.1065 0.32989,-0.65979 -0.4426,-1.62287 0,-2.213 0.79791,-1.06388 2.37915,-1.27266 3.3195,-2.213 0.2608,-0.26081 0,-0.73767 0,-1.10651 0.73767,-0.73766 1.41158,-1.54514 2.213,-2.213 1.45196,-1.20997 6.11493,-3.90193 7.7455,-5.5325 0.45363,-0.45363 2.77808,-4.9832 4.42601,-5.5325 0.69981,-0.23327 1.55321,0.32989 2.213,0 0.32989,-0.16495 -0.16495,-0.77661 0,-1.1065 2.30249,-4.605 -0.0764,1.18288 2.213,-1.1065 0.26081,-0.26081 -0.2608,-0.8457 0,-1.10651 0.90756,-0.90755 3.03599,0.28351 4.426,-1.1065" />
  <path
     style="fill:none;stroke:#3a425f;stroke-opacity:1"
     d="m 371.78423,390.59474 c 4.37717,0.45708 8.86827,-0.22362 12.9134,-1.95725 4.04514,-1.73363 7.63537,-4.51635 10.32312,-8.00125 1.46651,-1.90146 2.66541,-4.00165 4.18479,-5.86114 1.51938,-1.85949 3.44471,-3.51259 5.77371,-4.09737 1.61446,-0.40537 3.30852,-0.28919 4.96942,-0.17867 1.66089,0.11052 3.32452,0.17867 4.98909,0.17867 h 27.66252 60.85753 c 4.76832,0 9.50519,0.65967 14.15694,1.70759 2.32587,0.52396 4.68742,1.0266 7.06994,0.93819 1.19126,-0.0442 2.3834,-0.24279 3.49682,-0.66865 1.11342,-0.42586 2.14765,-1.08545 2.93882,-1.97713 0.34779,-0.39198 0.65787,-0.83568 1.1065,-1.1065 0.48532,-0.29297 1.081,-0.34812 1.64546,-0.29571 0.56447,0.0524 1.11464,0.20381 1.67404,0.29571 1.89657,0.31157 3.90167,-0.0894 5.53251,-1.1065 5.30153,-1.83881 11.09881,-2.2253 16.59751,-1.1065 1.29721,0.26394 2.58348,0.61055 3.90297,0.71708 1.31949,0.10653 2.70181,-0.0454 3.84253,-0.71708 0.67708,-0.39868 1.24108,-0.96283 1.75998,-1.55285 0.51891,-0.59002 1.00179,-1.2132 1.55953,-1.76665 1.53561,-1.52378 3.55472,-2.44291 5.5325,-3.3195 6.50146,-2.88159 13.12866,-5.68193 18.81051,-9.95851 1.88706,-1.42034 3.65489,-2.9932 5.5325,-4.426 3.87384,-2.95612 8.40812,-5.36107 13.27801,-5.53251 1.84429,-0.0649 3.6971,0.19213 5.53251,0 2.56713,-0.26873 4.95656,-1.39817 7.25568,-2.57135 2.29913,-1.17319 4.60472,-2.42147 7.12882,-2.96115 3.61773,-0.77351 7.36565,-0.0316 11.06501,0 4.57024,0.039 9.08106,-1.01103 13.64505,-1.25309 2.282,-0.12103 4.59004,-0.0372 6.81595,0.47995 2.22591,0.5172 4.37342,1.48339 6.09502,2.98614 0.39326,0.34327 0.76323,0.71324 1.1065,1.1065 1.07678,0.45108 2.18743,0.82129 3.3195,1.1065 4.31594,1.08733 8.83109,0.9209 13.27801,1.1065 10.00149,0.41743 20.21584,2.62578 29.87552,0 3.04326,-0.82725 5.93697,-2.11602 8.852,-3.3195 3.90652,-1.61283 7.95101,-3.097 12.17151,-3.3195 0.73698,-0.0388 1.47602,-0.0388 2.213,0 2.24399,-0.13089 4.47386,-0.50253 6.63901,-1.1065 2.24727,-0.62688 4.41731,-1.50076 6.639,-2.213 5.69599,-1.82605 11.73357,-2.57707 17.70401,-2.213 2.59295,0.15811 5.17027,0.52394 7.76409,0.66712 2.59382,0.14318 5.2324,0.058 7.72692,-0.66712 2.2608,-0.65715 4.33556,-1.81835 6.47962,-2.79101 2.14405,-0.97266 4.44811,-1.77361 6.79839,-1.635 0.55625,0.0328 1.10836,0.11811 1.66452,0.1525 0.55615,0.0344 1.12394,0.0163 1.65498,-0.1525 0.88675,-0.28184 1.58828,-0.95214 2.2423,-1.61395 0.65402,-0.66182 1.32181,-1.35499 2.1837,-1.70555 0.6913,-0.28118 1.45883,-0.31903 2.20312,-0.26439 0.7443,0.0546 1.47959,0.19761 2.22289,0.26439 3.24636,0.29166 6.59789,-0.96517 8.852,-3.3195 l 2.213,-1.1065 c -0.10312,-0.35917 -0.10312,-0.74733 0,-1.1065 0.11227,-0.39105 0.34436,-0.74332 0.64262,-1.02003 0.29825,-0.27671 0.66096,-0.47955 1.04509,-0.61359 0.76827,-0.26807 1.60474,-0.26212 2.41472,-0.18442 0.80998,0.0777 1.61553,0.22408 2.42922,0.2264 0.8137,0.002 1.65532,-0.15251 2.32036,-0.62136 0.4274,-0.30131 0.75959,-0.7152 1.1065,-1.1065 2.27901,-2.57065 5.44358,-4.34105 8.82673,-4.93808 3.38315,-0.59703 6.96254,-0.0167 9.98378,1.61857"
     id="path9"
     inkscape:path-effect="#path-effect9"
     inkscape:original-d="m 371.78423,390.59474 c 8.52039,0.4819 16.55221,-5.184 23.23652,-9.9585 3.06565,-2.18975 6.36065,-8.51937 9.9585,-9.95851 3.08208,-1.23283 6.63901,0 9.95851,0 9.22084,0 18.44168,0 27.66252,0 20.28584,0 40.57169,0 60.85753,0 6.02007,0 23.54835,1.37139 27.66252,0 0.49484,-0.16495 0.63996,-0.87323 1.1065,-1.1065 0.98969,-0.49484 2.22412,0.15648 3.3195,0 1.86179,-0.26597 3.65736,-0.96226 5.53251,-1.1065 20.0799,0 -1.68795,0.41729 16.59751,-1.1065 2.57292,-0.21441 5.29616,0.81645 7.7455,0 1.48453,-0.49484 2.04615,-2.40996 3.31951,-3.3195 1.75005,-1.25004 3.64445,-2.28966 5.5325,-3.3195 6.12237,-3.33948 13.20513,-5.75448 18.81051,-9.95851 5.81606,-4.36204 -2.04931,-0.0935 5.5325,-4.426 1.23269,-0.7044 11.28445,-5.24771 13.27801,-5.53251 1.82564,-0.2608 3.71808,0.3299 5.53251,0 5.24047,-0.95281 9.80566,-3.24308 14.3845,-5.5325 1.76159,-0.88079 10.85812,0 11.06501,0 8.73917,0 17.9744,0.30597 26.55602,2.213 0.50919,0.11315 0.73767,0.73767 1.1065,1.1065 1.1065,0.36884 2.1758,0.87776 3.3195,1.1065 4.31326,0.86265 8.8469,1.1065 13.27801,1.1065 8.37113,0 22.80266,1.41458 29.87552,0 3.12527,-0.62505 5.76963,-2.43882 8.852,-3.3195 3.70536,-1.05867 8.34354,-2.55391 12.17151,-3.3195 0.72334,-0.14467 1.47534,0 2.213,0 2.213,-0.36883 4.46247,-0.56237 6.63901,-1.1065 2.26306,-0.56577 4.35159,-1.75552 6.639,-2.213 5.83177,-1.16636 11.77729,-1.71911 17.70401,-2.213 5.00455,-0.41705 10.54046,0.82509 15.49101,0 4.9286,-0.82144 8.92553,-2.24977 13.27801,-4.42601 0.98968,-0.49484 2.26978,0.34991 3.3195,0 1.46266,-0.48755 3.01558,-2.61429 4.426,-3.3195 1.18027,-0.59013 3.24574,0.59013 4.42601,0 2.88005,-1.44002 5.71928,-2.53632 8.852,-3.3195 0.73767,-0.36884 1.47534,-0.73767 2.213,-1.1065 0,-0.36884 -0.30688,-0.90191 0,-1.1065 2.59995,-1.7333 6.17076,-1.31925 8.85201,-2.213 0.49484,-0.16495 0.63996,-0.87323 1.1065,-1.1065 4.57086,-2.28543 13.39307,-3.31951 18.81051,-3.31951" />
  <path
     style="fill:none;stroke:#3a425f;stroke-opacity:1"
     d="m 338.58921,295.43568 c 2.21277,-0.0397 4.42624,-0.0397 6.63901,0 3.80368,0.0683 7.77572,0.30165 11.065,2.21301 2.02165,1.17475 3.65908,2.92151 5.025,4.81924 1.36591,1.89772 2.48423,3.95919 3.67912,5.969 1.19489,2.00981 2.48211,3.98852 4.12976,5.64754 1.64766,1.65902 3.68992,2.99333 5.97663,3.48123 2.17232,0.46349 4.42266,0.14693 6.63901,0 7.89954,-0.5237 15.77813,1.1402 23.42345,3.19594 7.64532,2.05574 15.21461,4.52017 23.04958,5.65606 6.97625,1.0114 14.08717,0.95677 21.02351,2.21301 11.15072,2.0195 21.39026,7.32816 32.08852,11.065 6.7855,2.37014 13.84237,4.12301 21.02351,4.42601 3.35174,0.14142 6.79843,-0.0196 9.95851,1.1065 1.55585,0.55441 2.98618,1.40372 4.426,2.213 5.75251,3.23332 11.80427,5.89586 17.70401,8.852 5.25431,2.63274 10.40926,5.50812 15.91695,7.5586 5.50768,2.05049 11.46397,3.25743 17.27807,2.39991 0.99055,-0.1461 1.9866,-0.35197 2.98417,-0.26613 0.49879,0.0429 0.99494,0.16053 1.44227,0.38532 0.44733,0.22479 0.84459,0.56039 1.10607,0.98731 0.30679,0.50089 0.41301,1.0949 0.524,1.6717 0.11099,0.5768 0.24038,1.17034 0.5825,1.6478 0.23158,0.32319 0.55222,0.57743 0.90711,0.7567 0.35488,0.17927 0.74358,0.2856 1.13708,0.34253 0.78699,0.11387 1.58705,0.0333 2.38181,0.007 4.11397,-0.13457 8.13662,1.20062 11.90912,2.84714 3.7725,1.64653 7.41319,3.62487 11.3274,4.89837 10.24248,3.33243 21.32803,1.58111 32.08852,1.1065 1.13882,-0.0502 2.28363,-0.0855 3.41539,0.0507 1.13176,0.13617 2.25746,0.45088 3.22361,1.05584 0.56643,0.35467 1.06792,0.80192 1.59367,1.21451 0.52575,0.41258 1.08854,0.79722 1.72583,0.99849 0.88551,0.27966 1.84113,0.18464 2.76203,0.0651 0.92089,-0.11953 1.86257,-0.26016 2.77048,-0.0651 0.80992,0.17399 1.53882,0.60434 2.23935,1.0465 0.70053,0.44215 1.39966,0.90788 2.18665,1.1665 1.26028,0.41416 2.62452,0.26244 3.95047,0.22112 0.66297,-0.0207 1.33097,-0.0121 1.98278,0.11081 0.65181,0.12291 1.29035,0.3652 1.81225,0.77457 0.54769,0.4296 0.94346,1.02145 1.44646,1.5026 0.2515,0.24057 0.53311,0.45511 0.85283,0.59261 0.31973,0.13749 0.6807,0.1943 1.02022,0.11779 0.19164,-0.0432 0.37316,-0.12742 0.56717,-0.15824 0.097,-0.0154 0.19731,-0.017 0.29258,0.007 0.0953,0.0239 0.18542,0.0747 0.24675,0.15138 0.0592,0.0741 0.0889,0.16865 0.0966,0.26318 0.008,0.0945 -0.005,0.1896 -0.0246,0.28249 -0.0383,0.18578 -0.10117,0.3734 -0.072,0.56083 0.0169,0.1083 0.0647,0.21106 0.13337,0.29647 0.0687,0.0854 0.15789,0.1536 0.2565,0.20144 0.19722,0.0957 0.42752,0.10851 0.6429,0.0677 0.43075,-0.0817 0.79319,-0.35963 1.18023,-0.56558 0.57014,-0.30339 1.21939,-0.45654 1.86501,-0.43994 0.64563,0.0166 1.28615,0.20291 1.83995,0.53519 0.5538,0.33228 1.01961,0.80977 1.33807,1.37163 0.31847,0.56186 0.48886,1.20679 0.48947,1.85263"
     id="path10"
     inkscape:path-effect="#path-effect10"
     inkscape:original-d="m 338.58921,295.43568 c 2.213,0 4.43365,-0.18378 6.63901,0 0.66685,0.0556 9.52737,1.44419 11.065,2.21301 7.0617,3.53085 7.81375,17.9176 18.81051,19.91701 2.17731,0.39587 4.44542,-0.29248 6.63901,0 15.74799,2.09973 30.71689,6.42798 46.47303,8.852 6.96461,1.07148 14.05303,1.18034 21.02351,2.21301 11.53133,1.70834 21.02348,7.99138 32.08852,11.065 3.13213,0.87004 18.23645,3.93417 21.02351,4.42601 3.28911,0.58043 6.7183,0.29644 9.95851,1.1065 1.60022,0.40005 2.95067,1.47533 4.426,2.213 5.90134,2.95067 11.63959,6.25296 17.70401,8.852 10.59546,4.54091 22.19082,6.65725 33.19502,9.95851 1.80138,0.54041 3.85037,0.26543 5.53251,1.1065 1.04322,0.52161 0.10636,2.71942 1.1065,3.3195 1.30402,0.78242 2.99682,0.5868 4.426,1.1065 7.69329,2.79756 15.252,5.74938 23.23652,7.74551 10.53414,2.63353 21.4541,-0.0751 32.08852,1.1065 2.2298,0.24775 4.5106,0.39703 6.639,1.1065 6.32501,2.10834 -6.68914,0.21127 3.3195,2.213 1.80836,0.36167 3.78297,-0.58318 5.53251,0 1.32928,0.44309 3.08302,1.87726 4.426,2.213 2.33247,0.58312 5.49096,0.20469 7.7455,1.1065 1.23474,0.4939 2.13005,1.61828 3.31951,2.213 0.32989,0.16495 0.84569,-0.2608 1.1065,0 0.2608,0.26081 -0.3299,0.94156 0,1.1065 0.65979,0.3299 1.51319,-0.23327 2.213,0 1.55517,0.5184 4.34059,2.1276 5.5325,3.31951" />
  <path
     style="fill:none;stroke:#3a425f;stroke-opacity:1"
     d="m 265.56017,385.06224 c 4.4435,0.45728 8.97148,0.08 13.278,-1.1065 8.08726,-2.22804 15.19835,-7.24184 21.02352,-13.27801 2.34899,-2.43408 4.52888,-5.06397 6.15545,-8.0299 1.62658,-2.96593 2.68595,-6.29145 2.69655,-9.67411 0.002,-0.73784 -0.0448,-1.47652 0,-2.213 0.10948,-1.79874 0.76722,-3.53038 1.66462,-5.09311 0.89741,-1.56272 2.0317,-2.97452 3.17109,-4.37068 1.13938,-1.39616 2.293,-2.7897 3.2355,-4.32565 0.9425,-1.53595 1.67337,-3.23175 1.8873,-5.02107 0.0878,-0.73418 0.0878,-1.47882 0,-2.213 1.32642,-0.30006 2.53237,-1.10403 3.3195,-2.21301 0.8196,-1.15473 1.16774,-2.56731 1.54255,-3.93284 0.3748,-1.36553 0.81984,-2.76906 1.77695,-3.81266 0.56542,-0.61651 1.28552,-1.07635 2.04786,-1.42077 0.76235,-0.34441 1.56942,-0.57833 2.37815,-0.79223 2.80386,-0.74159 5.72771,-1.28098 8.20408,-2.79067 1.23819,-0.75485 2.34677,-1.75531 3.09384,-2.9982 0.74707,-1.24289 1.1132,-2.73944 0.87358,-4.16964 -0.0947,-0.56503 -0.28053,-1.11327 -0.34923,-1.68204 -0.0343,-0.28439 -0.0389,-0.5742 0.0124,-0.85603 0.0513,-0.28183 0.1601,-0.55601 0.33685,-0.78143 0.25795,-0.32898 0.64225,-0.53461 1.03288,-0.68351 0.39064,-0.1489 0.79919,-0.25081 1.18013,-0.42299 1.00039,-0.45216 1.75863,-1.4056 1.97393,-2.48211 0.2153,-1.07652 -0.1179,-2.24824 -0.86743,-3.05039"
     id="path11"
     inkscape:path-effect="#path-effect11"
     inkscape:original-d="m 265.56017,385.06224 c 4.09087,0 9.2459,0.50634 13.278,-1.1065 5.56368,-2.22547 17.26192,-8.97905 21.02352,-13.27801 3.64197,-4.16225 6.94908,-12.62955 8.852,-17.70401 0.25902,-0.6907 -0.27396,-1.52809 0,-2.213 2.56794,-6.41985 7.3894,-12.38773 9.95851,-18.81051 0.27396,-0.68491 -0.3299,-1.55321 0,-2.213 -1.52008,-5.60347 2.58183,-1.1065 3.3195,-2.21301 0.53558,-0.80336 2.78278,-7.20878 3.3195,-7.7455 0.85136,-0.85136 3.05259,-1.29739 4.42601,-2.213 1.26592,-0.84395 11.56174,-8.73897 12.1715,-9.95851 0.49485,-0.98968 -0.49484,-2.32982 0,-3.3195 0.36884,-0.73767 1.75552,-0.42028 2.21301,-1.1065 0.19558,-0.29338 1.1065,-4.61396 1.1065,-5.5325" />
  <path
     style="fill:none;stroke:#3a425f;stroke-opacity:1"
     d="m 219.08714,389.48824 c -2.49209,-2.31492 -5.07667,-4.53028 -7.74551,-6.639 -1.85327,-1.46432 -3.74833,-2.87823 -5.5325,-4.426 -2.96416,-2.57142 -5.62449,-5.51357 -8.85201,-7.74551 -2.04155,-1.41181 -4.28881,-2.52092 -6.639,-3.3195 -3.85553,-1.31008 -8.00596,-1.79942 -11.64074,-3.63511 -1.81739,-0.91785 -3.49324,-2.18558 -4.65302,-3.85897 -1.15978,-1.6734 -1.76611,-3.77925 -1.41025,-5.78393 0.066,-0.37186 0.16402,-0.73898 0.19632,-1.11527 0.0323,-0.37628 -0.006,-0.77136 -0.19632,-1.09773 -0.152,-0.26104 -0.39329,-0.46298 -0.66237,-0.60025 -0.26908,-0.13728 -0.56572,-0.21324 -0.86416,-0.25995 -0.59688,-0.0934 -1.2137,-0.0747 -1.79297,-0.2463 -0.76545,-0.22676 -1.40144,-0.76924 -1.91464,-1.38076 -0.5132,-0.61152 -0.92529,-1.30051 -1.40487,-1.93874 -2.16503,-2.88127 -5.6414,-4.58838 -9.19999,-5.1589 -3.55859,-0.57052 -7.21017,-0.0984 -10.71702,0.73289 -1.66342,0.39431 -3.31845,0.87088 -5.02236,1.00917 -1.70392,0.13829 -3.4948,-0.0899 -4.93614,-1.00917 -0.56414,-0.35979 -1.05991,-0.81502 -1.58416,-1.2308 -0.52425,-0.41578 -1.09167,-0.7995 -1.73535,-0.9822 -0.71342,-0.20249 -1.47224,-0.14533 -2.20946,-0.0648 -0.73722,0.0805 -1.48432,0.18244 -2.21654,0.0648 -1.07139,-0.17206 -2.01191,-0.79725 -2.86762,-1.46452 -0.85571,-0.66727 -1.67921,-1.40117 -2.66488,-1.85498 -0.89122,-0.41032 -1.876,-0.57237 -2.85285,-0.66398 -0.97685,-0.0916 -1.96122,-0.11723 -2.92974,-0.2741 -0.96852,-0.15687 -1.93485,-0.45451 -2.72609,-1.03466 -0.39562,-0.29007 -0.74319,-0.64929 -0.99969,-1.06747 -0.2565,-0.41817 -0.42023,-0.89613 -0.45014,-1.38579 -0.0226,-0.37004 0.0303,-0.73988 0.0624,-1.10922 0.0321,-0.36934 0.0424,-0.74816 -0.0624,-1.10378 -0.0977,-0.33178 -0.29339,-0.63015 -0.53806,-0.87462 -0.24467,-0.24448 -0.5374,-0.43706 -0.8459,-0.59345 -0.61701,-0.31279 -1.29518,-0.48325 -1.93554,-0.74493 -1.16223,-0.47493 -2.18506,-1.24557 -3.08064,-2.1255 -0.89559,-0.87993 -1.67293,-1.8712 -2.44791,-2.859 -0.77499,-0.98779 -1.55325,-1.97843 -2.45038,-2.85678 -0.89714,-0.87835 -1.92218,-1.6464 -3.086078,-2.11723 -0.38559,-0.15598 -0.784234,-0.27859 -1.167178,-0.44096 -0.382944,-0.16237 -0.754725,-0.36843 -1.045824,-0.66554 -0.414364,-0.42291 -0.63548,-0.99926 -0.769396,-1.57599 -0.133916,-0.57673 -0.191556,-1.1696 -0.337105,-1.74351 -0.352532,-1.39006 -1.216957,-2.61884 -2.306163,-3.55167 -1.089206,-0.93282 -2.395458,-1.58528 -3.748631,-2.0601 -2.706348,-0.94964 -5.613007,-1.21416 -8.329715,-2.13374 -1.56731,-0.53052 -3.061199,-1.27746 -4.426002,-2.213 -0.703776,0.27261 -1.509226,0.27261 -2.213002,0 -0.519625,-0.20128 -0.975086,-0.54078 -1.385849,-0.91734 -0.410763,-0.37656 -0.782976,-0.79301 -1.183877,-1.18006 -0.4009,-0.38704 -0.836164,-0.74823 -1.338648,-0.98913 -0.502484,-0.2409 -1.080351,-0.35474 -1.624129,-0.23297 -0.393584,0.0881 -0.75401,0.29431 -1.149525,0.37334 -0.197758,0.0395 -0.405573,0.0459 -0.598932,-0.0114 -0.19336,-0.0573 -0.371102,-0.18325 -0.464545,-0.36196 -0.0869,-0.1662 -0.09552,-0.36267 -0.07649,-0.54925 0.01903,-0.18658 0.06368,-0.37014 0.07649,-0.55725 0.02594,-0.3787 -0.08237,-0.76185 -0.283692,-1.08365 -0.201325,-0.3218 -0.492729,-0.58318 -0.823616,-0.76919 -0.661774,-0.37203 -1.457087,-0.43866 -2.212194,-0.36016 -0.371275,0.0386 -0.738972,0.11004 -1.111341,0.13604 -0.37237,0.026 -0.755847,0.004 -1.10166,-0.13604 -0.488124,-0.19836 -0.853382,-0.61162 -1.172407,-1.03094 -0.319025,-0.41933 -0.618553,-0.86664 -1.040594,-1.18207 -0.415523,-0.31055 -0.924869,-0.47258 -1.435954,-0.56143 -0.511086,-0.0889 -1.031284,-0.10963 -1.54678,-0.16765 -0.515496,-0.058 -1.034561,-0.15596 -1.498998,-0.38705 -0.464436,-0.23108 -0.872976,-0.60954 -1.050772,-1.09687 -0.129029,-0.35366 -0.129029,-0.75284 0,-1.1065"
     id="path12"
     inkscape:path-effect="#path-effect12"
     inkscape:original-d="m 219.08714,389.48824 c -2.58184,-2.213 -5.16367,-4.426 -7.74551,-6.639 -1.84417,-1.47533 -3.72962,-2.90049 -5.5325,-4.426 -2.99305,-2.53258 -5.66156,-5.46662 -8.85201,-7.74551 -2.01335,-1.4381 -4.5516,-1.99116 -6.639,-3.3195 -0.81327,-0.51754 -17.09208,-12.4621 -17.70401,-13.27801 -0.4426,-0.59013 0.52161,-1.69139 0,-2.213 -0.82474,-0.82474 -2.34904,-0.45952 -3.3195,-1.1065 -1.30202,-0.86801 -2.01749,-2.45149 -3.31951,-3.3195 -3.11669,-2.0778 -16.08856,-3.78793 -19.91701,-4.42601 -3.18565,-0.53094 -6.83498,0.78088 -9.9585,0 -0.52641,-0.1316 -2.7931,-2.0814 -3.31951,-2.213 -1.43128,-0.35782 -3.19845,0.81837 -4.426,0 -8.83227,-5.88818 5.25517,1.30379 -5.5325,-3.3195 -1.65307,-0.70846 -9.94891,-4.40681 -9.95851,-4.426 -0.32989,-0.65979 0.4426,-1.62287 0,-2.213 -0.79791,-1.06388 -2.25562,-1.4151 -3.3195,-2.213 -3.96414,-2.97311 -7.11389,-6.99517 -11.065008,-9.95851 -0.65979,-0.49484 -1.71816,-0.44671 -2.213002,-1.1065 -0.699812,-0.93308 -0.406688,-2.38642 -1.106501,-3.3195 -1.111102,-1.48147 -12.011444,-6.55898 -14.384509,-7.74551 -1.475334,-0.73767 -2.950668,-1.47533 -4.426002,-2.213 -0.737667,0 -1.513189,0.23327 -2.213002,0 -1.702015,-0.56734 -3.830488,-2.75216 -5.532503,-3.3195 -0.699813,-0.23327 -1.553212,0.32989 -2.213002,0 -0.329894,-0.16495 0.260805,-0.8457 0,-1.1065 -0.940344,-0.94035 -2.057897,-1.79247 -3.319502,-2.213 -0.699812,-0.23327 -1.513188,0.23327 -2.213001,0 -0.989684,-0.3299 -1.344991,-1.63433 -2.213001,-2.21301 -1.667197,-1.11146 -4.111854,-0.79235 -5.532504,-2.213 -0.260805,-0.2608 0,-0.73766 0,-1.1065" />
  <path
     style="fill:none;stroke:#3a425f;stroke-opacity:1"
     d="m 80.77455,404.97925 c -4.392368,-4.86449 -7.153945,-11.17667 -7.745504,-17.70401 -0.466379,-5.1461 0.377592,-10.33764 0,-15.49101 -0.471552,-6.43573 -2.821118,-12.56028 -4.426003,-18.81051 -1.117407,-4.35174 -1.878821,-8.79754 -2.213002,-13.27801 -0.188303,-2.52464 -0.25244,-5.11411 -1.176256,-7.47119 -0.461908,-1.17854 -1.142586,-2.28518 -2.074843,-3.14145 -0.932258,-0.85628 -2.126695,-1.45086 -3.387905,-1.55887 -0.735353,-0.063 -1.475895,0.0372 -2.213001,0 -1.783772,-0.0901 -3.45882,-0.99346 -4.743889,-2.23384 -1.285069,-1.24038 -2.217081,-2.80065 -3.001616,-4.40516 -2.338302,-4.78224 -3.4811,-10.32097 -2.213001,-15.49101 0.363768,-1.48309 0.917418,-2.91164 1.381019,-4.36661 0.463601,-1.45497 0.840216,-2.95837 0.831982,-4.48539 -0.0084,-1.55427 -0.424561,-3.10456 -1.195706,-4.45407 -0.771146,-1.3495 -1.895488,-2.49513 -3.230297,-3.29144"
     id="path13"
     inkscape:path-effect="#path-effect13"
     inkscape:original-d="m 80.77455,404.97925 c -5.949996,-4.74156 -7.179195,-10.34199 -7.745504,-17.70401 -0.368834,-4.79483 0.491778,-10.81912 0,-15.49101 -1.847767,-17.55378 -1.35164,-6.51306 -4.426003,-18.81051 -1.468985,-5.87594 0.788108,-6.52551 -2.213002,-13.27801 -0.483528,-1.08794 -6.351106,-12.02756 -6.639004,-12.17151 -0.659789,-0.32989 -1.513189,0.23328 -2.213001,0 -2.488253,-0.82941 -6.496816,-4.14162 -7.745505,-6.639 -1.809142,-3.61828 -3.725813,-10.95258 -2.213001,-15.49101 0.863317,-2.58995 3.322434,-5.52371 2.213001,-8.852 -0.8162,-2.44861 -4.426003,-6.60788 -4.426003,-7.74551" />
</svg>
