<?xml version="1.0" encoding="UTF-8" standalone="no"?>
<!-- Created with Inkscape (http://www.inkscape.org/) -->

<svg
   width="141.42"
   height="48.18"
   viewBox="0 0 37.417373 12.747625"
   version="1.1"
   id="svg1"
   xmlns="http://www.w3.org/2000/svg"
   xmlns:svg="http://www.w3.org/2000/svg">
  <defs
     id="defs1"><filter id="lf" x="0" y="0" width="100%" height="100%"><feComponentTransfer><feFuncR type="linear" slope="1.4"/><feFuncG type="linear" slope="1.4"/><feFuncB type="linear" slope="1.4"/></feComponentTransfer></filter>
    <rect
       x="7.6557182"
       y="11.005095"
       width="138.28141"
       height="29.426667"
       id="rect2" />
    <rect
       x="31.579838"
       y="10.526613"
       width="164.59795"
       height="27.99122"
       id="rect1" />
  </defs>
  <g
     id="layer1">
    <path
       style="fill:#ff9500;fill-opacity:1;stroke:#ff9500;stroke-width:0.343958;stroke-opacity:1"
       d="M 1.8989769,11.457161 C 1.5948275,10.970954 1.4588459,10.3817 1.5191816,9.8113809 1.5872587,9.167887 1.8948279,8.5594755 1.8989769,7.9124039 1.9007416,7.6371798 1.847123,7.3645057 1.8356779,7.089514 c -0.021111,-0.5072261 0.1009499,-1.0216546 0,-1.5191816 C 1.7745297,5.2689664 1.6335685,4.9873767 1.5824808,4.6841431 1.5402413,4.4334288 1.5607865,4.1753728 1.5191816,3.9245524 1.4764416,3.6668884 1.3691452,3.4230867 1.3292839,3.1649617 1.2840272,2.8718982 1.3270461,2.5689548 1.2659846,2.2787723 1.2053723,1.9907247 1.0463156,1.7338567 0.94948847,1.4558823 0.91951414,1.369831 0.89528553,1.2798633 0.89960682,1.1888435 c 0.002161,-0.04551 0.0115894,-0.09091 0.0302455,-0.1324763 0.0186561,-0.041566 0.0467312,-0.0792187 0.0829354,-0.10687873 0.036036,-0.0275316 0.079495,-0.0446897 0.1242598,-0.0519466 0.044765,-0.007257 0.090816,-0.00482 0.1352215,0.004386 0.08881,0.0184125 0.1698294,0.0630627 0.2469126,0.11085931 0.4597141,0.2850527 0.8267938,0.6970291 1.2659847,1.0127877 0.044675,0.032119 0.090529,0.063625 0.1271668,0.1046749 0.018319,0.020525 0.034213,0.043387 0.045461,0.068494 0.011249,0.025106 0.017771,0.052521 0.017269,0.080028 -3.862e-4,0.021175 -0.00486,0.042685 0,0.063299 0.00285,0.012075 0.00887,0.023335 0.017007,0.032695 0.00814,0.00936 0.018371,0.016836 0.029582,0.022147 0.022423,0.010622 0.048345,0.01243 0.072812,0.00831 0.048933,-0.00825 0.090801,-0.038371 0.1337958,-0.063149 C 3.3511896,2.2712286 3.4959043,2.239077 3.6080562,2.1521739 3.7153006,2.0690735 3.7811101,1.9451497 3.8612532,1.8356777 4.0072262,1.636285 4.2044217,1.4813053 4.3990725,1.3290666 4.5937234,1.1768279 4.7910303,1.0220358 4.93734,0.82289001 5.0158771,0.71599121 5.0787964,0.59744444 5.1663618,0.49780643 c 0.043783,-0.049819 0.093825,-0.0947685 0.1513798,-0.12772842 0.057554,-0.0329599 0.1229677,-0.0536026 0.1892916,-0.0535818 0.055229,1.731e-5 0.1098479,0.0142806 0.1603761,0.0365769 0.050528,0.0222964 0.097217,0.0524919 0.141652,0.0852904 0.08887,0.0655969 0.1702844,0.14249547 0.2676651,0.19462887 0.1359112,0.072761 0.2928165,0.0922104 0.4430945,0.12659846 0.2010894,0.0460153 0.3944709,0.12031815 0.5925692,0.17786306 0.1980983,0.0575449 0.4051386,0.0985395 0.6101163,0.0753339 0.042379,-0.0048 0.08448,-0.012323 0.1270532,-0.01488 0.042573,-0.002557 0.08616,3.759e-5 0.1261438,0.01488 0.044286,0.016439 0.082216,0.047123 0.1265983,0.063299 0.040036,0.014592 0.083618,0.01671 0.1261432,0.013983 0.042525,-0.00273 0.084616,-0.010123 0.1270538,-0.013983 0.1412951,-0.012853 0.2835381,0.013754 0.4196546,0.053777 0.1361164,0.040023 0.2679323,0.093429 0.4032353,0.1361211 0.4962277,0.1565747 1.0272094,0.1654284 1.5463144,0.1295443 0.519105,-0.035884 1.035206,-0.1150413 1.555348,-0.1295443 0.362891,-0.010118 0.731528,0.01227 1.076087,0.1265985 0.06334,0.021016 0.125699,0.045086 0.189898,0.063299 0.347084,0.098468 0.715849,0.019799 1.076087,0 0.400466,-0.02201 0.802734,0.029936 1.202685,0 0.727946,-0.054487 1.422194,-0.3778886 2.152174,-0.3797954 0.606433,-0.00158 1.187811,0.2184082 1.772378,0.3797954 0.49464,0.1365604 1.017094,0.2325481 1.519182,0.1265985 0.326692,-0.068938 0.629737,-0.220375 0.949488,-0.3164962 0.26966,-0.081063 0.549544,-0.1222973 0.82289,-0.1898977 0.273594,-0.067662 0.54243,-0.16208109 0.82289,-0.18989766 0.317502,-0.0314905 0.636623,0.0236655 0.950183,0.0826507 0.313561,0.0589852 0.63009,0.12231264 0.948794,0.10724694 0.137953,-0.00652 0.27483,-0.027713 0.412647,-0.036662 0.137817,-0.00895 0.278652,-0.00526 0.410243,0.036662 0.06362,0.020269 0.124603,0.049319 0.189899,0.063299 0.103519,0.022164 0.210757,0.00519 0.316495,0 0.34047,-0.01672 0.673924,0.089576 1.012788,0.1265984 0.31492,0.034406 0.632816,0.00877 0.949489,0 0.95037,-0.02633 1.898113,0.099593 2.848464,0.1265985 0.551515,0.015672 1.10817,-0.00254 1.64578,-0.1265985 0.125381,-0.028932 0.249727,-0.063614 0.37712,-0.081741 0.127393,-0.018127 0.259417,-0.019173 0.382472,0.018442 0.109651,0.033518 0.207619,0.096105 0.308459,0.1506768 0.10084,0.054572 0.209874,0.1025849 0.324533,0.1025201 0.09513,-5.38e-5 0.187031,-0.033279 0.273993,-0.071833 0.08696,-0.038554 0.171963,-0.083103 0.26374,-0.1081176 0.04589,-0.012507 0.09337,-0.020017 0.140924,-0.018947 0.04755,0.00107 0.09522,0.010895 0.137989,0.031715 0.04276,0.020819 0.08045,0.052923 0.105119,0.093591 0.02466,0.040668 0.03574,0.090009 0.02772,0.1368908 -0.0076,0.044647 -0.0321,0.085445 -0.06462,0.116969 -0.03252,0.031524 -0.0728,0.054238 -0.115011,0.07066 -0.08443,0.032843 -0.176204,0.041219 -0.263461,0.065568 -0.207197,0.057818 -0.381247,0.2048333 -0.506394,0.3797954 -0.0615,0.085975 -0.113496,0.1801456 -0.189897,0.2531969 -0.08932,0.085405 -0.205393,0.1357851 -0.316497,0.1898977 -0.197416,0.09615 -0.389011,0.2109809 -0.541994,0.3685056 -0.152983,0.1575247 -0.265423,0.3619432 -0.280897,0.5809829 -0.0045,0.063166 -9.24e-4,0.1265811 0,0.1898976 0.0037,0.2534703 -0.03444,0.5084438 0,0.7595909 0.04062,0.2962515 0.183346,0.5749636 0.387687,0.7932757 0.20434,0.2183121 0.468309,0.3772932 0.751701,0.472709 0.04521,0.015221 0.09104,0.028919 0.134747,0.048021 0.04371,0.019102 0.08562,0.043973 0.118449,0.078578 0.02077,0.021894 0.03752,0.047242 0.05676,0.070492 0.01924,0.02325 0.0418,0.044935 0.06983,0.056107 0.03229,0.012867 0.06831,0.01055 0.102848,0.014499 0.01727,0.00197 0.03456,0.00563 0.05013,0.013343 0.01558,0.00771 0.02941,0.019779 0.03692,0.035456 0.0046,0.00963 0.0067,0.020333 0.0072,0.031003 4.94e-4,0.01067 -5.82e-4,0.021354 -0.0021,0.031929 -0.003,0.021151 -0.0077,0.042463 -0.0051,0.063666 0.0028,0.022825 0.0141,0.044023 0.02909,0.061465 0.01499,0.017443 0.03357,0.031433 0.05278,0.044076 0.03842,0.025286 0.08128,0.046941 0.108029,0.084357 0.01577,0.022051 0.02486,0.048426 0.02869,0.075262 0.0038,0.026836 0.0026,0.054191 -0.001,0.081058 -0.0072,0.053734 -0.02371,0.1061046 -0.02766,0.1601762 -0.0079,0.1079359 0.03436,0.2122149 0.0633,0.3164962 0.07654,0.2757613 0.06151,0.5680007 0.03439,0.8528998 -0.02711,0.2848991 -0.06572,0.5717128 -0.03439,0.8561793 0.0225,0.204293 0.08075,0.4033264 0.104097,0.6075236 0.01168,0.1020987 0.01454,0.2057373 -2.77e-4,0.307428 -0.01481,0.1016907 -0.04777,0.201604 -0.10382,0.2877339 -0.02619,0.040241 -0.05721,0.077231 -0.08238,0.1181175 -0.02517,0.04089 -0.04464,0.08707 -0.04422,0.135079 1.87e-4,0.02131 0.0043,0.04238 0.0063,0.0636 0.002,0.02122 0.0018,0.04326 -0.0063,0.063 -0.0057,0.01399 -0.01511,0.02623 -0.02594,0.03675 -0.01083,0.01053 -0.02309,0.01945 -0.03543,0.02817 -0.02467,0.01743 -0.05076,0.03516 -0.06522,0.06168 -0.01031,0.0189 -0.0138,0.04093 -0.01324,0.06245 5.59e-4,0.02152 0.005,0.04274 0.0097,0.06375 0.0047,0.02101 0.0097,0.04204 0.01148,0.0635 0.0018,0.02145 1.91e-4,0.04355 -0.0079,0.0635 -0.01135,0.02792 -0.03437,0.04932 -0.05812,0.06788 -0.02374,0.01857 -0.0492,0.03556 -0.06849,0.05872 -0.03196,0.03836 -0.04372,0.08994 -0.04547,0.139841 -0.0017,0.0499 0.0055,0.09966 0.0066,0.149576 0.0012,0.04991 -0.0042,0.101689 -0.02895,0.145058 -0.01237,0.02168 -0.02954,0.04086 -0.05074,0.05404 -0.0212,0.01318 -0.04652,0.02014 -0.07139,0.01788 -0.0107,-9.7e-4 -0.0212,-0.0036 -0.03189,-0.0047 -0.01069,-0.0011 -0.02196,-4.44e-4 -0.03141,0.0047 -0.0057,0.0031 -0.0105,0.0077 -0.0138,0.01322 -0.0033,0.0055 -0.0051,0.01198 -0.0051,0.01843 0,0.0064 0.0018,0.01289 0.0051,0.01843 0.0033,0.0055 0.0081,0.01016 0.0138,0.01322 -0.007,0.0307 -0.02275,0.05933 -0.04501,0.08159 -0.02226,0.02225 -0.05089,0.03805 -0.08159,0.04501 -0.04133,0.0094 -0.08432,0.0028 -0.1266,0 -0.141233,-0.0094 -0.281917,0.0235 -0.417029,0.06569 -0.135111,0.04219 -0.267578,0.09399 -0.40586,0.12421 -0.289872,0.06336 -0.590929,0.02934 -0.88619,0 -1.198532,-0.119079 -2.407205,-0.156106 -3.608057,-0.0633 -1.24551,0.09626 -2.487915,0.331979 -3.734653,0.253197 -0.426387,-0.02694 -0.850415,-0.09074 -1.265985,-0.189898 -0.403262,-0.09623 -0.798193,-0.22558 -1.202685,-0.316496 -0.808101,-0.181632 -1.641678,-0.207351 -2.46867,-0.253197 -0.55362,-0.03069 -1.126578,-0.06799 -1.64578,0.126598 -0.208872,0.07828 -0.403384,0.192446 -0.614984,0.263024 -0.105801,0.03529 -0.216075,0.05952 -0.327591,0.06132 -0.111515,0.0018 -0.22455,-0.01952 -0.32341,-0.07114 -0.09371,-0.04894 -0.171432,-0.122878 -0.253197,-0.189897 -0.309249,-0.253477 -0.687073,-0.413905 -1.076087,-0.506394 -0.149733,-0.0356 -0.303338,-0.06213 -0.443094,-0.126599 -0.08574,-0.03955 -0.16501,-0.09287 -0.253197,-0.126598 -0.159639,-0.06106 -0.335739,-0.05379 -0.506394,-0.0633 -0.676163,-0.03767 -1.304069,-0.347086 -1.962276,-0.506393 -0.870054,-0.210581 -1.790394,-0.1549019 -2.658568,0.0633 -0.317706,0.07985 -0.629946,0.181046 -0.9494885,0.253197 -0.525064,0.118557 -1.0679707,0.158296 -1.5824808,0.316496 -0.2551752,0.07846 -0.5013475,0.185515 -0.7595907,0.253197 -0.2484853,0.06513 -0.5049237,0.09297 -0.7595909,0.126598 -0.5338096,0.07049 -1.0650822,0.167434 -1.5824809,0.316497 -0.2710949,0.0781 -0.5413979,0.171063 -0.8228899,0.189897 -0.1168594,0.0078 -0.2341851,0.0027 -0.3512545,0.0062 -0.1170693,0.0035 -0.2354208,0.01588 -0.345037,0.05713 -0.044237,0.01665 -0.086739,0.0379 -0.1265986,0.0633 -0.074885,0.0471 -0.1649569,0.06962 -0.2531967,0.0633 -0.06486,-0.0046 -0.1277135,-0.02427 -0.1921699,-0.03285 -0.032228,-0.0043 -0.065032,-0.0058 -0.097226,-0.0013 -0.032193,0.0045 -0.063848,0.01535 -0.0904,0.03411 -0.024436,0.01727 -0.043794,0.04061 -0.063299,0.0633 -0.028433,0.03308 -0.058016,0.06555 -0.092652,0.09206 -0.034635,0.02651 -0.074807,0.04699 -0.1179718,0.05326 -0.043164,0.0063 -0.089488,-0.0027 -0.1237778,-0.02971 -0.017145,-0.01348 -0.031025,-0.03123 -0.03924,-0.05144 -0.00821,-0.0202 -0.010649,-0.04283 -0.00615,-0.06418 0.00228,-0.0108 0.00627,-0.02124 0.00769,-0.03219 7.076e-4,-0.0055 7.54e-4,-0.01107 -3.962e-4,-0.01647 -0.00115,-0.0054 -0.00354,-0.0106 -0.00729,-0.01464 -0.00382,-0.0041 -0.00893,-0.0069 -0.014346,-0.0084 -0.00542,-0.0015 -0.011128,-0.0016 -0.016703,-0.001 -0.01115,0.0013 -0.021643,0.0057 -0.03225,0.0094 -0.03804,0.01315 -0.07942,0.01651 -0.1190821,0.0097 -0.039662,-0.0068 -0.077521,-0.02388 -0.1089498,-0.04903 -0.031429,-0.02514 -0.05636,-0.05834 -0.071747,-0.09553 -0.015387,-0.03719 -0.021196,-0.0783 -0.016717,-0.118298 z"
       id="path1" />
    <path
       style="font-size:17.3333px;line-height:1.25;font-family:Titilliumweb_semibold;-inkscape-font-specification:Titilliumweb_semibold;text-align:center;text-anchor:middle;white-space:pre;fill:#ffffff;stroke-width:1.3"
       d="m 38.594272,21.977838 q -0.173333,-0.08667 -0.814665,-0.156 -0.121333,-0.01733 -0.329333,-0.01733 -0.329333,0 -0.745332,0.173333 l -0.502666,0.208 v 2.287995 q 0.01733,2.287996 0.138667,2.374662 0.121333,0.08667 0.935998,0.08667 0.831998,0 1.126664,-0.173333 0.312,-0.173333 0.641333,-0.814665 0.329332,-0.658666 0.329332,-1.074665 0,-0.052 -0.01733,-0.208 0,-0.155999 0,-0.242666 -0.03467,-0.849331 -0.26,-1.57733 -0.225332,-0.727999 -0.502665,-0.866665 z m -4.991991,-4.905324 q 0.06933,-0.415999 0.173333,-0.415999 0.121334,0 1.091998,0.329333 0.987998,0.311999 1.057332,0.381332 0.03467,0.03467 0.138666,0.987998 0.121333,0.953332 0.138666,0.987999 0.06933,0.08667 0.485333,0.03467 0.08667,-0.01733 0.363999,-0.01733 0.502666,0 0.987998,0.052 2.409329,0.259999 3.033328,1.975996 0.242666,0.658665 0.346666,0.814665 0.329332,0.537332 0.329332,2.513328 0,0.641332 -0.06933,0.970665 -0.121333,0.693332 -0.693332,1.698664 -0.571999,1.022664 -0.970665,1.31733 -0.415999,0.294666 -1.143997,0.415999 -0.710666,0.121334 -2.235996,0.156 -0.571999,0.01733 -1.265331,0.01733 -0.693332,0 -0.935998,-0.155999 -0.277333,-0.190667 -0.450666,-0.554666 -0.121333,-0.242666 -0.156,-0.918665 -0.01733,-0.658665 -0.052,-3.899992 -0.01733,-4.870657 -0.173333,-5.875989 -0.03467,-0.207999 -0.03467,-0.415999 0,-0.190666 0.03467,-0.398666 z m 12.254657,2.513329 q 0.052,-0.052 0.103999,-0.052 0.242667,0 0.242667,0.693332 0,0.225333 -0.052,0.433332 -0.121333,0.398666 -0.121333,1.230665 0,0.779998 0.242666,1.490663 0.207999,0.606666 0.207999,1.005332 0,0.346666 -0.01733,0.589332 -0.03467,0.623999 -0.03467,0.658665 0,0.329333 0.138667,0.415999 0.121333,0.121334 0.658665,0.208 0.537332,0.08667 1.005332,0.08667 0.207999,0 0.381332,-0.03467 0.329333,-0.08667 0.433333,-0.190666 0.121333,-0.121333 0.121333,-0.416 0,-0.259999 -0.01733,-0.433332 -0.03467,-0.346666 -0.173333,-1.230664 -0.138666,-0.883999 -0.138666,-1.403998 0,-0.589332 0.121333,-1.715996 0.121333,-1.126665 0.208,-1.265331 0.01733,-0.052 0.104,-0.052 0.103999,0 1.039998,0.311999 l 1.074664,0.364 -0.01733,0.346666 q 0,0.052 -0.03467,0.554665 -0.01733,0.485333 -0.052,0.814665 -0.052,0.519999 -0.052,0.831999 0,0.363999 0.06933,0.589332 0.259999,0.987998 0.259999,3.41466 0,0.987998 -0.08667,0.987998 -0.03467,0 -0.052,-0.06933 l -0.08667,-0.208 -0.294666,0.225333 q -0.346666,0.242666 -0.381332,0.242666 -0.052,0 -0.381333,0.225333 -0.693332,0.467999 -2.062663,0.467999 -0.433332,0 -0.675998,-0.01733 -1.265331,-0.06933 -1.577331,-0.156 -0.693332,-0.190666 -1.213331,-0.883998 -0.779998,-1.074665 -0.779998,-1.993329 0,-0.277333 0.052,-0.589333 0.03467,-0.415999 0.03467,-0.519999 0,-0.311999 -0.121333,-0.693332 -0.346666,-1.057331 -0.346666,-2.027996 0,-0.363999 0.01733,-0.571999 0.06933,-0.970664 0.121333,-1.126664 0.06933,-0.156 0.381332,-0.156 0.329333,0 0.519999,-0.190666 0.156,-0.156 0.485333,-0.156 h 0.190666 0.208 q 0.311999,0 0.346666,-0.03467 z m 7.609314,-1.802663 -0.06933,-0.866665 h 2.426662 v 0.658665 q 0,0.658665 -0.155999,0.901332 l -0.173333,0.277332 -0.970665,-0.03467 -0.987998,-0.03467 z m 0.103999,2.270662 q 0.08667,0 1.039998,0.138666 0.970665,0.121333 1.057332,0.121333 0.06933,0 0.06933,0.710666 v 0.259999 0.519999 q 0,0.710665 0.03467,1.819997 0.03467,0.831998 0.03467,1.109331 0,0.571999 -0.052,0.901331 -0.06933,0.519999 -0.06933,0.849332 0,0.381333 0.052,0.918665 0.06933,0.901331 0.06933,1.074664 0,0.121334 -0.01733,0.138667 h -0.03467 q -0.190666,0 -1.143998,-0.190666 -0.641332,-0.138667 -1.005331,-0.138667 -0.104,0 -0.104,0.01733 0,0.08667 -0.052,0.03467 -0.155999,-0.156 -0.155999,-1.94133 0,-0.710665 0.052,-1.109331 0.06933,-0.433332 0.06933,-1.039998 0,-0.485332 -0.01733,-0.727998 -0.08667,-1.369331 -0.08667,-1.94133 v -0.658665 l 0.01733,-0.866665 z m 13.346645,1.923996 q -0.173333,-0.08667 -0.814665,-0.156 -0.121333,-0.01733 -0.329333,-0.01733 -0.329333,0 -0.745332,0.173333 l -0.502665,0.208 v 2.287995 q 0.01733,2.287996 0.138666,2.374662 0.121333,0.08667 0.935998,0.08667 0.831999,0 1.126665,-0.173333 0.311999,-0.173333 0.641332,-0.814665 0.329332,-0.658666 0.329332,-1.074665 0,-0.052 -0.01733,-0.208 0,-0.155999 0,-0.242666 -0.03467,-0.849331 -0.259999,-1.57733 -0.225333,-0.727999 -0.502666,-0.866665 z m -4.99199,-4.905324 q 0.06933,-0.415999 0.173333,-0.415999 0.121333,0 1.091998,0.329333 0.987998,0.311999 1.057331,0.381332 0.03467,0.03467 0.138666,0.987998 0.121333,0.953332 0.138667,0.987999 0.06933,0.08667 0.485332,0.03467 0.08667,-0.01733 0.363999,-0.01733 0.502666,0 0.987998,0.052 2.409329,0.259999 3.033328,1.975996 0.242666,0.658665 0.346666,0.814665 0.329332,0.537332 0.329332,2.513328 0,0.641332 -0.06933,0.970665 -0.121333,0.693332 -0.693332,1.698664 -0.571999,1.022664 -0.970664,1.31733 -0.416,0.294666 -1.143998,0.415999 -0.710666,0.121334 -2.235996,0.156 -0.571999,0.01733 -1.265331,0.01733 -0.693332,0 -0.935998,-0.155999 -0.277333,-0.190667 -0.450666,-0.554666 -0.121333,-0.242666 -0.155999,-0.918665 -0.01733,-0.658665 -0.052,-3.899992 -0.01733,-4.870657 -0.173333,-5.875989 -0.03467,-0.207999 -0.03467,-0.415999 0,-0.190666 0.03467,-0.398666 z m 14.69865,4.853324 q -0.190666,-0.173333 -0.554666,-0.173333 -0.589332,0 -1.126664,0.450666 -0.26,0.225333 -0.363999,0.675999 l -0.08667,0.485332 0.294666,0.052 q 0.08667,0.01733 0.554666,0.01733 1.83733,0 1.941329,-0.104 0.01733,-0.01733 0.01733,-0.03467 0,-0.156 -0.277333,-0.710665 -0.26,-0.554666 -0.398666,-0.658666 z m -1.78533,-2.374662 q 0.606666,-0.190666 1.282664,-0.190666 0.745332,0 1.282664,0.225333 1.109332,0.519999 1.629331,1.542663 0.329332,0.675999 0.381332,0.970665 0.06933,0.363999 0.173333,0.537332 0.104,0.225333 0.190667,0.745332 0.103999,0.519999 0.103999,0.883999 0,0.173333 -0.01733,0.225332 -0.052,0.26 -0.329333,0.606666 -0.259999,0.329333 -0.502665,0.415999 -0.398666,0.156 -1.559997,0.208 -1.143998,0.052 -2.079996,0.06933 -0.935998,0 -0.935998,0.052 0,0.433332 0.467999,0.727998 0.294666,0.190667 1.36933,0.277333 0.571999,0.06933 0.883999,0.06933 0.277332,0 0.693332,-0.155999 0.450665,-0.173333 0.762665,-0.173333 0.259999,0 0.623999,0.155999 l 0.363999,0.173333 -0.03467,0.519999 q -0.121333,1.473331 -0.259999,1.577331 -0.208,0.242666 -2.374662,0.242666 -1.091998,0 -1.819997,-0.104 -0.693332,-0.08667 -1.403997,-0.485332 -0.693332,-0.398666 -1.005331,-0.866665 -0.797332,-1.247998 -0.797332,-2.721328 0,-0.398666 0.01733,-0.606666 0.104,-1.317331 0.381333,-2.235995 0.502665,-1.681331 1.47333,-2.253329 0.363999,-0.190667 1.039998,-0.433333 z m 7.314655,-2.703995 q 0.156,-0.277332 0.277333,-0.277332 0.06933,0 0.121333,0.08667 0.052,0.08667 0.987998,0.08667 h 0.935998 v 0.727998 q 0,1.369331 0.363999,1.698664 0.173333,0.155999 0.346666,0.155999 0.156,0 0.433333,-0.138666 0.207999,-0.104 0.519999,-0.104 0.554665,0 0.901331,0.242666 0.554666,0.381333 0.554666,1.386664 0,0.467999 -0.08667,0.571999 -0.06933,0.104 -0.433332,0.104 -0.242666,0 -0.589332,0.190666 -0.312,0.156 -0.814665,0.156 h -0.329333 -0.329333 q -0.450665,0 -0.606665,0.190666 -0.104,0.121333 -0.104,0.346666 0,0.01733 0.06933,0.710665 0.052,0.312 0.138667,2.027996 0.03467,1.161332 0.103999,1.369331 0.08667,0.190666 0.571999,0.190666 h 0.329333 0.831998 v 2.409329 h -0.918664 q -0.883999,0 -1.334665,-0.06933 -0.623998,-0.104 -1.091997,-0.623999 -0.468,-0.502666 -0.727999,-1.334664 -0.08667,-0.329333 -0.208,-1.78533 -0.103999,-1.47333 -0.121333,-2.877328 -0.03467,-0.762665 -0.121333,-0.831998 -0.121333,-0.06933 -0.121333,-1.230664 v -1.161331 h 0.26 q 0.190666,0 0.225332,-0.03467 0.03467,-0.052 0,-0.259999 -0.103999,-0.485333 -0.138666,-0.589333 -0.06933,-0.259999 -0.06933,-0.589332 0,-0.467999 0.173333,-0.745332 z m 10.295976,2.617329 q 0.606665,-0.208 1.195997,-0.208 0.364,0 1.265331,0.08667 1.143998,0.103999 1.143998,0.277332 0,0.121333 -0.311999,1.126665 l -0.329333,1.022664 -1.057331,-0.06933 q -0.693332,-0.03467 -0.762666,-0.03467 -0.346666,0 -0.606665,0.155999 -0.745332,0.467999 -1.005332,1.819997 l -0.155999,0.779998 0.207999,0.433333 q 0.26,0.537332 0.416,1.005331 0.173333,0.502666 0.329332,0.641332 0.173333,0.138667 0.745332,0.138667 0.450666,0 0.762665,-0.01733 l 1.230665,-0.03467 0.08667,0.485332 q 0.08667,0.433333 0.190666,0.987998 0.01733,0.121333 0.052,0.277333 0.03467,0.156 0.052,0.26 0.03467,0.103999 0.03467,0.155999 0,0.121333 -0.381333,0.173333 -0.381332,0.06933 -1.507997,0.104 -0.329333,0.01733 -0.779998,0.01733 -0.554666,0 -1.230665,-0.207999 -0.745331,-0.242666 -1.074664,-0.554666 -0.312,-0.311999 -0.554666,-1.039998 -0.08667,-0.277333 -0.363999,-0.883998 -0.26,-0.623999 -0.433333,-1.109331 -0.155999,-0.502666 -0.155999,-0.849332 0,-0.363999 0.225333,-1.369331 0.242666,-1.005331 0.398666,-1.282664 0.138666,-0.277333 0.207999,-0.658665 0.01733,-0.08667 0.03467,-0.156 0.03467,-0.08667 0.052,-0.121333 0.03467,-0.03467 0.052,-0.01733 0.052,0.052 0.415999,-0.312 0.710665,-0.710665 1.611997,-1.022664 z m 7.730653,0.121333 q 0.052,-0.052 0.104,-0.052 0.24267,0 0.24267,0.693332 0,0.225333 -0.052,0.433332 -0.12133,0.398666 -0.12133,1.230665 0,0.779998 0.24266,1.490663 0.208,0.606666 0.208,1.005332 0,0.346666 -0.0173,0.589332 -0.0347,0.623999 -0.0347,0.658665 0,0.329333 0.13867,0.415999 0.12133,0.121334 0.65867,0.208 0.53733,0.08667 1.00533,0.08667 0.208,0 0.38133,-0.03467 0.32933,-0.08667 0.43333,-0.190666 0.12134,-0.121333 0.12134,-0.416 0,-0.259999 -0.0173,-0.433332 -0.0347,-0.346666 -0.17333,-1.230664 -0.13867,-0.883999 -0.13867,-1.403998 0,-0.589332 0.12134,-1.715996 0.12133,-1.126665 0.208,-1.265331 0.0173,-0.052 0.104,-0.052 0.10399,0 1.03999,0.311999 l 1.07467,0.364 -0.0173,0.346666 q 0,0.052 -0.0347,0.554665 -0.0173,0.485333 -0.052,0.814665 -0.052,0.519999 -0.052,0.831999 0,0.363999 0.0693,0.589332 0.26,0.987998 0.26,3.41466 0,0.987998 -0.0867,0.987998 -0.0347,0 -0.052,-0.06933 l -0.0867,-0.208 -0.29467,0.225333 q -0.34666,0.242666 -0.38133,0.242666 -0.052,0 -0.38133,0.225333 -0.69334,0.467999 -2.06267,0.467999 -0.43333,0 -0.67599,-0.01733 -1.26534,-0.06933 -1.57734,-0.156 -0.693327,-0.190666 -1.213326,-0.883998 -0.779999,-1.074665 -0.779999,-1.993329 0,-0.277333 0.052,-0.589333 0.03467,-0.415999 0.03467,-0.519999 0,-0.311999 -0.121333,-0.693332 -0.346666,-1.057331 -0.346666,-2.027996 0,-0.363999 0.01733,-0.571999 0.06933,-0.970664 0.121333,-1.126664 0.06933,-0.156 0.381333,-0.156 0.329332,0 0.519999,-0.190666 0.155999,-0.156 0.485332,-0.156 h 0.190666 0.208 q 0.312001,0 0.346661,-0.03467 z m 7.60932,-1.802663 -0.0693,-0.866665 h 2.42666 v 0.658665 q 0,0.658665 -0.156,0.901332 l -0.17333,0.277332 -0.97067,-0.03467 -0.988,-0.03467 z m 0.104,2.270662 q 0.0867,0 1.04,0.138666 0.97066,0.121333 1.05733,0.121333 0.0693,0 0.0693,0.710666 v 0.259999 0.519999 q 0,0.710665 0.0347,1.819997 0.0347,0.831998 0.0347,1.109331 0,0.571999 -0.052,0.901331 -0.0693,0.519999 -0.0693,0.849332 0,0.381333 0.052,0.918665 0.0693,0.901331 0.0693,1.074664 0,0.121334 -0.0173,0.138667 h -0.0347 q -0.19067,0 -1.144,-0.190666 -0.64133,-0.138667 -1.00533,-0.138667 -0.104,0 -0.104,0.01733 0,0.08667 -0.052,0.03467 -0.156,-0.156 -0.156,-1.94133 0,-0.710665 0.052,-1.109331 0.0693,-0.433332 0.0693,-1.039998 0,-0.485332 -0.0173,-0.727998 -0.0867,-1.369331 -0.0867,-1.94133 v -0.658665 l 0.0173,-0.866665 z m 7.15865,-0.433333 q 1.04,0 1.092,-0.052 0.052,-0.052 0.29467,-0.052 0.468,0 0.884,0.138667 1.52533,0.537332 1.81999,1.594663 0.12133,0.433333 0.312,0.987999 0.29467,0.849331 0.48533,3.449326 0.0693,1.039998 0.0693,1.178665 0,0.311999 -0.0693,0.589332 -0.104,0.415999 -0.104,0.849331 0,0.606666 -0.34666,0.953332 -0.32933,0.346666 -0.91867,0.346666 -0.69333,0 -1.00533,-0.502666 -0.104,-0.138666 -0.104,-0.918665 0,-0.866665 0.12133,-1.161331 0.0347,-0.104 0.0347,-0.346666 0,-0.710665 -0.17333,-2.027996 -0.156,-1.334664 -0.32933,-1.871996 l -0.22534,-0.727999 q -0.38133,0 -1.16133,-0.01733 -0.76266,-0.01733 -1.144,-0.01733 l -0.19066,0.242666 q -0.17334,0.225333 -0.17334,0.519999 0,0.207999 0.0173,0.363999 0.0693,0.658666 0.156,1.074665 0.29466,1.542663 0.29466,2.027996 0,0.294666 -0.0867,0.849331 -0.13867,0.970665 -0.26,1.091998 -0.12134,0.121333 -1.16133,0.26 -0.64134,0.104 -0.884,0.156 l -0.26,0.052 0.052,-0.658665 q 0.0173,-0.242666 0.0693,-0.571999 0.052,-0.311999 0.0693,-0.537332 0.0347,-0.242666 0.0347,-0.467999 0,-0.364 -0.0693,-0.762665 -0.29467,-1.819997 -0.29467,-3.275994 v -0.450666 l 0.0347,-1.195998 0.364,-0.103999 q 0.416,-0.104 0.676,-0.364 0.39866,-0.398666 0.76266,-0.519999 0.364,-0.121333 1.092,-0.121333 z"
       id="text2"
       transform="matrix(0.26458333,0,0,0.26458333,-1.1393862,0.06329923)"
       aria-label="bui betcuin" />
  </g>
</svg>
