<?xml version="1.0" encoding="UTF-8" standalone="no"?>
<!-- Created with Inkscape (http://www.inkscape.org/) -->

<svg
   width="184"
   height="48.18"
   viewBox="0 0 48.683332 12.747625"
   version="1.1"
   id="svg1"
   xmlns="http://www.w3.org/2000/svg"
   xmlns:svg="http://www.w3.org/2000/svg">
  <defs
     id="defs1">
    <rect
       x="31.579838"
       y="10.526613"
       width="164.59794"
       height="27.99122"
       id="rect1" />
  </defs>
  <g
     id="layer1">
    <path
       style="fill:#ff9500;stroke:#ff9500;stroke-width:0.343958;fill-opacity:1;stroke-opacity:1"
       d="M 3.038363,11.457161 V 9.4315856 c 0,-0.5698509 0.043264,-1.140873 0,-1.7090792 C 2.9713769,6.8427445 2.6308765,6.0039849 2.5319693,5.1272378 2.5152289,4.978845 2.5053273,4.8289081 2.46867,4.6841431 2.4175116,4.4821111 2.316064,4.2969934 2.2155873,4.114405 2.1151106,3.9318166 2.0135937,3.7467486 1.9622762,3.544757 1.8989759,3.2955998 1.9145437,3.0298425 1.8356777,2.7851663 1.7946555,2.6578979 1.7284564,2.5376757 1.7090793,2.4053708 c -0.01381,-0.094297 -0.00309,-0.1902204 0.00574,-0.2851134 0.00883,-0.094893 0.015622,-0.1917013 -0.00574,-0.2845797 -0.019567,-0.085088 -0.062519,-0.1658915 -0.063299,-0.2531969 -6.181e-4,-0.06916 0.026516,-0.1375587 0.071621,-0.1899899 0.045105,-0.052431 0.107435,-0.089052 0.1743254,-0.1066346 0.06689,-0.017583 0.1381006,-0.016542 0.2054378,-7.567e-4 0.067337,0.015785 0.1308716,0.046031 0.1878943,0.08517 0.1140455,0.078279 0.2007005,0.1901876 0.2759067,0.3062819 0.075206,0.1160944 0.1410941,0.2384477 0.2242013,0.3490238 0.1481012,0.1970524 0.3479674,0.3517718 0.5666313,0.4655687 0.2186639,0.1137969 0.456142,0.187978 0.6969163,0.2408113 0.4815487,0.1056665 0.9789905,0.1277898 1.4583193,0.2431085 0.3326637,0.080033 0.6552573,0.2051572 0.9494885,0.3797953 0.1081132,0.06417 0.2135524,0.1360128 0.296681,0.2303305 0.083129,0.094318 0.1428851,0.2136895 0.1464135,0.3393627 0.00179,0.063916 -0.010777,0.1272411 -0.017485,0.1908297 -0.00671,0.063589 -0.00717,0.1299666 0.017485,0.1889656 0.019867,0.047551 0.055582,0.08794 0.099112,0.1155237 0.043531,0.027584 0.094603,0.042552 0.1460658,0.045256 0.1029262,0.00541 0.2041838,-0.037821 0.2844299,-0.1025021 C 7.5094708,4.2979447 7.5709487,4.2130309 7.6250965,4.1253322 7.6792443,4.0376335 7.7271397,3.945996 7.7858058,3.8612532 7.9364593,3.6436351 8.1541464,3.4784627 8.3907737,3.359881 8.627401,3.2412992 8.8835311,3.1667817 9.1407955,3.1045792 9.6553243,2.9801741 10.198203,2.8953708 10.634271,2.5952685 10.831879,2.4592748 10.99994,2.283141 11.140665,2.0888746 c 0.116584,-0.16094 0.215314,-0.3349368 0.342019,-0.4880355 0.126705,-0.1530988 0.287871,-0.2874766 0.480871,-0.3348545 0.11424,-0.028044 0.23421,-0.02427 0.350615,-0.00733 0.116405,0.016944 0.23049,0.046764 0.345676,0.070625 0.746524,0.1546463 1.518505,0.056616 2.278773,0 2.399881,-0.1787143 4.809586,0.062674 7.216112,0.063299 0.719295,1.868e-4 1.440624,-0.021328 2.152174,-0.1265985 0.192714,-0.028511 0.385427,-0.063373 0.569693,-0.1265984 0.196011,-0.067256 0.383043,-0.16667358 0.587779,-0.19871882 0.102368,-0.0160226 0.208825,-0.0144114 0.307619,0.0168234 0.09879,0.0312348 0.189488,0.0937724 0.243988,0.18189541 0.02483,0.040148 0.04177,0.084587 0.0633,0.1265984 0.04825,0.094177 0.118778,0.1748392 0.189897,0.253197 0.130402,0.1436753 0.266189,0.2840134 0.422605,0.3988241 0.156415,0.1148107 0.335246,0.2037972 0.526883,0.2341682 0.167057,0.026476 0.337436,0.0079 0.506394,0 0.316198,-0.014786 0.633049,0.00809 0.949489,0 0.520204,-0.013307 1.040743,-0.1118363 1.519182,-0.3164962 0.185015,-0.079143 0.368985,-0.1753915 0.569693,-0.1898977 0.105281,-0.00761 0.211231,0.00781 0.316497,0 0.137843,-0.010228 0.269916,-0.059981 0.393858,-0.1211673 0.123941,-0.061186 0.241778,-0.1341654 0.365731,-0.1953288 0.408643,-0.2016409 0.873872,-0.2688943 1.329286,-0.253197 0.232409,0.00801 0.466661,0.036723 0.69629,0 0.248831,-0.039794 0.47851,-0.15419714 0.717676,-0.23357001 0.119583,-0.0396864 0.242855,-0.070858 0.368598,-0.0788448 0.125743,-0.007987 0.254505,0.007973 0.369609,0.0592179 0.165673,0.0737589 0.293185,0.21620039 0.381433,0.37463109 0.08825,0.1584307 0.141216,0.3336359 0.193015,0.5074314 0.0518,0.1737955 0.103674,0.3492085 0.190026,0.5086805 0.08635,0.159472 0.211046,0.3039456 0.374912,0.3816355 0.107067,0.050761 0.227158,0.07115 0.345601,0.067792 0.118443,-0.00336 0.235438,-0.029883 0.34722,-0.069186 0.223564,-0.078606 0.425581,-0.2069856 0.636462,-0.3151024 0.696255,-0.3569643 1.504382,-0.4916519 2.278774,-0.3797954 0.35962,0.00809 0.719895,-0.013106 1.076087,-0.063299 0.464323,-0.06543 0.92377,-0.1802135 1.392581,-0.1898977 0.253246,-0.00523 0.50711,0.020337 0.759592,0 0.318585,-0.025662 0.629883,-0.1240488 0.949489,-0.1265984 0.126681,-0.00101 0.253786,0.013088 0.379794,0 0.08494,-0.00882 0.168048,-0.029875 0.251882,-0.046126 0.08383,-0.016251 0.169775,-0.027743 0.254512,-0.017173 0.15132,0.018876 0.28441,0.1055319 0.411453,0.1898766 0.127043,0.084345 0.260122,0.1710125 0.411438,0.1899188 0.08383,0.010474 0.168715,-6.18e-4 0.253196,0 0.158881,0.00116 0.316698,0.044492 0.456235,0.1204779 0.139538,0.075986 0.26083,0.1841803 0.356082,0.3113481 0.190503,0.2543357 0.273132,0.5798255 0.26377,0.897458 -0.0076,0.2569926 -0.07183,0.5083876 -0.126598,0.7595907 -0.140638,0.6450574 -0.219677,1.3208526 -0.0633,1.9622761 0.04123,0.1691175 0.09856,0.3345957 0.126598,0.506394 0.05107,0.3129275 0.0031,0.6324362 0,0.9494885 -0.0035,0.3591471 0.05083,0.7205385 0,1.0760869 -0.02413,0.1687633 -0.0719,0.3361313 -0.0633,0.5063937 0.0074,0.1463461 0.05636,0.2876679 0.117711,0.4207369 0.06135,0.1330689 0.135408,0.2599663 0.197275,0.3927982 0.06187,0.1328318 0.111894,0.2736693 0.120974,0.4199203 0.0091,0.146251 -0.02624,0.299273 -0.119463,0.412325 -0.05701,0.06913 -0.132899,0.120764 -0.189899,0.189897 -0.07839,0.09508 -0.116511,0.217498 -0.189897,0.316497 -0.05348,0.07215 -0.123957,0.129569 -0.192824,0.18722 -0.06887,0.05765 -0.13784,0.117393 -0.186972,0.192575 -0.08736,0.13368 -0.102607,0.299936 -0.12705,0.457749 -0.01222,0.07891 -0.02747,0.15788 -0.05631,0.232337 -0.02884,0.07446 -0.07205,0.144682 -0.133134,0.196103 -0.05076,0.04273 -0.112614,0.07133 -0.177143,0.08674 -0.06453,0.01542 -0.131721,0.01794 -0.197795,0.01196 -0.132149,-0.01196 -0.258636,-0.05716 -0.384654,-0.09871 -1.241268,-0.409195 -2.56219,-0.489389 -3.861253,-0.632992 -1.265056,-0.139844 -2.52573,-0.342779 -3.797953,-0.379795 -0.569485,-0.01657 -1.139355,1.94e-4 -1.709081,0 -1.203009,-4.1e-4 -2.407473,-0.0764 -3.608054,0 -0.507139,0.03227 -1.012219,0.09167 -1.519182,0.126598 -1.452895,0.100099 -2.911309,-0.0012 -4.367647,0 -0.759667,6.51e-4 -1.519669,0.02923 -2.278773,0 -1.203859,-0.04636 -2.408459,-0.237903 -3.608057,-0.126598 -0.466541,0.04329 -0.927615,0.132112 -1.392583,0.189897 -0.485895,0.06039 -0.977171,0.08705 -1.455882,0.189898 -0.190219,0.04087 -0.377941,0.09367 -0.569693,0.126598 -0.624977,0.107337 -1.267986,3.02e-4 -1.898977,0.0633 -0.705166,0.0704 -1.380762,0.351622 -2.088874,0.379795 -0.253048,0.01007 -0.50665,-0.01248 -0.759591,0 -0.105587,0.0052 -0.212072,0.01647 -0.316497,0 -0.159601,-0.02517 -0.301197,-0.112624 -0.443094,-0.189898 -0.85988,-0.468271 -1.874525,-0.60695 -2.8484653,-0.506393 -0.5703361,0.05889 -1.1512193,0.195751 -1.7090792,0.0633 -0.1837581,-0.04363 -0.3610579,-0.115985 -0.5482705,-0.140924 -0.093606,-0.01247 -0.1896354,-0.01276 -0.2816351,0.0085 -0.092,0.0213 -0.1799751,0.06505 -0.2461815,0.132387 -0.020942,0.0213 -0.039748,0.04493 -0.063299,0.0633 -0.030064,0.02346 -0.066873,0.03738 -0.1045155,0.04346 -0.037643,0.0061 -0.07619,0.0046 -0.1139748,-5.25e-4 -0.075569,-0.01026 -0.14876,-0.03496 -0.2246042,-0.04294 -0.1076261,-0.01133 -0.2159355,0.01144 -0.3199669,0.04126 -0.1040314,0.02982 -0.2063859,0.06691 -0.3130255,0.08534 -0.2000744,0.03458 -0.404679,0.002 -0.6070147,-0.01485 -0.2023356,-0.0169 -0.4157226,-0.01589 -0.5956708,0.07815 -0.079004,0.04129 -0.1512187,0.100262 -0.2385663,0.118062 -0.043674,0.0089 -0.090754,0.0065 -0.1304807,-0.01376 -0.019863,-0.0101 -0.037617,-0.02456 -0.050775,-0.04255 -0.013158,-0.01799 -0.021617,-0.03953 -0.023273,-0.06176 -0.00157,-0.02107 0.00287,-0.04237 0,-0.0633 -0.00345,-0.02517 -0.01754,-0.04818 -0.036435,-0.06517 -0.018894,-0.01699 -0.042348,-0.02831 -0.066652,-0.03572 -0.048608,-0.01482 -0.1005228,-0.0146 -0.1501104,-0.02571 -0.061453,-0.01377 -0.1188125,-0.04532 -0.1633435,-0.08985 -0.044531,-0.04453 -0.076084,-0.10189 -0.089853,-0.163343 z"
       id="path1" />
    <path
       style="font-size:17.3333px;line-height:1.25;font-family:Titilliumweb_semibold;-inkscape-font-specification:Titilliumweb_semibold;text-align:center;text-anchor:middle;white-space:pre;fill:#ffffff;stroke-width:1.3"
       d="m 46.781727,18.985994 q 0.606666,-0.208 1.195998,-0.208 0.363999,0 1.265331,0.08667 1.143998,0.104 1.143998,0.277333 0,0.121333 -0.312,1.126664 l -0.329332,1.022665 -1.057332,-0.06933 q -0.693332,-0.03467 -0.762665,-0.03467 -0.346666,0 -0.606665,0.156 -0.745332,0.467999 -1.005332,1.819996 l -0.155999,0.779999 0.207999,0.433332 q 0.26,0.537332 0.415999,1.005332 0.173333,0.502665 0.329333,0.641332 0.173333,0.138666 0.745332,0.138666 0.450666,0 0.762665,-0.01733 l 1.230664,-0.03467 0.08667,0.485333 q 0.08667,0.433332 0.190666,0.987998 0.01733,0.121333 0.052,0.277332 0.03467,0.156 0.052,0.26 0.03467,0.104 0.03467,0.156 0,0.121333 -0.381333,0.173333 -0.381333,0.06933 -1.507997,0.103999 -0.329333,0.01733 -0.779999,0.01733 -0.554665,0 -1.230664,-0.208 -0.745332,-0.242666 -1.074664,-0.554666 -0.312,-0.311999 -0.554666,-1.039997 -0.08667,-0.277333 -0.363999,-0.883999 -0.26,-0.623999 -0.433333,-1.109331 -0.156,-0.502666 -0.156,-0.849332 0,-0.363999 0.225333,-1.36933 0.242667,-1.005332 0.398666,-1.282664 0.138667,-0.277333 0.208,-0.658666 0.01733,-0.08667 0.03467,-0.156 0.03467,-0.08667 0.052,-0.121333 0.03467,-0.03467 0.052,-0.01733 0.052,0.052 0.415999,-0.311999 0.710666,-0.710666 1.611997,-1.022665 z m 5.563995,-1.455997 -0.06933,-1.195998 0.797332,0.052 q 0.831998,0.06933 1.213331,0.121333 l 0.415999,0.052 v 0.710665 q 0,1.074665 0.329333,1.663997 h 0.01733 q 0.121333,0 0.658665,-0.121333 0.468,-0.121333 0.987999,-0.121333 1.178664,0 2.149329,0.623999 0.450665,0.294666 0.658665,0.779998 0.225333,0.467999 0.346666,1.525331 0.190666,1.31733 0.329333,1.975996 0.190666,0.901331 0.190666,2.218662 0,0.831998 -0.06933,1.386664 l -0.08667,0.606665 -1.161331,-0.03467 -1.178664,-0.01733 0.01733,-0.502666 q 0,-0.554666 0.08667,-1.334664 0.01733,-0.190666 0.01733,-0.537332 0,-0.502666 -0.052,-0.762666 -0.363999,-1.854663 -0.467999,-2.651994 -0.08667,-0.641333 -0.208,-0.745332 -0.103999,-0.121333 -0.641332,-0.121333 -0.381332,0 -1.091998,0.363999 -0.502665,0.259999 -0.623998,0.363999 -0.104,0.104 -0.104,0.294666 0,0.277333 -0.156,0.935998 -0.08667,0.467999 -0.08667,0.658666 0,0.207999 0.052,0.381332 0.06933,0.294666 0.138666,2.218663 l 0.052,1.837329 H 52.519055 L 52.397722,27.73931 q -0.052,-0.259999 -0.052,-0.641332 0,-0.155999 0.03467,-0.883998 0.03467,-0.346666 0.03467,-0.814665 0,-0.398666 -0.103999,-0.797332 -0.121333,-0.433332 -0.121333,-1.126664 0,-0.589333 0.08667,-0.901332 0.121333,-0.485332 0.121333,-2.911994 0,-1.282665 -0.052,-2.131996 z m 12.115966,1.57733 q 0.052,-0.052 0.104,-0.052 0.242666,0 0.242666,0.693332 0,0.225333 -0.052,0.433333 -0.121333,0.398666 -0.121333,1.230664 0,0.779998 0.242667,1.490664 0.207999,0.606665 0.207999,1.005331 0,0.346666 -0.01733,0.589332 -0.03467,0.623999 -0.03467,0.658666 0,0.329332 0.138667,0.415999 0.121333,0.121333 0.658665,0.207999 0.537332,0.08667 1.005331,0.08667 0.208,0 0.381333,-0.03467 0.329333,-0.08667 0.433333,-0.190666 0.121333,-0.121333 0.121333,-0.415999 0,-0.26 -0.01733,-0.433333 -0.03467,-0.346666 -0.173333,-1.230664 -0.138666,-0.883998 -0.138666,-1.403997 0,-0.589332 0.121333,-1.715997 0.121333,-1.126664 0.208,-1.265331 0.01733,-0.052 0.103999,-0.052 0.104,0 1.039998,0.312 l 1.074665,0.363999 -0.01733,0.346666 q 0,0.052 -0.03467,0.554666 -0.01733,0.485332 -0.052,0.814665 -0.052,0.519999 -0.052,0.831998 0,0.363999 0.06933,0.589332 0.26,0.987998 0.26,3.41466 0,0.987998 -0.08667,0.987998 -0.03467,0 -0.052,-0.06933 l -0.08667,-0.207999 -0.294666,0.225332 q -0.346666,0.242667 -0.381333,0.242667 -0.052,0 -0.381332,0.225333 -0.693332,0.467999 -2.062663,0.467999 -0.433332,0 -0.675999,-0.01733 -1.26533,-0.06933 -1.57733,-0.155999 -0.693332,-0.190667 -1.213331,-0.883999 -0.779998,-1.074664 -0.779998,-1.993329 0,-0.277333 0.052,-0.589332 0.03467,-0.415999 0.03467,-0.519999 0,-0.312 -0.121333,-0.693332 -0.346666,-1.057331 -0.346666,-2.027996 0,-0.364 0.01733,-0.571999 0.06933,-0.970665 0.121334,-1.126665 0.06933,-0.155999 0.381332,-0.155999 0.329333,0 0.519999,-0.190667 0.156,-0.155999 0.485332,-0.155999 h 0.190667 0.207999 q 0.312,0 0.346666,-0.03467 z m 9.758644,0 q 0.052,-0.052 0.104,-0.052 0.242666,0 0.242666,0.693332 0,0.225333 -0.052,0.433333 -0.121334,0.398666 -0.121334,1.230664 0,0.779998 0.242667,1.490664 0.207999,0.606665 0.207999,1.005331 0,0.346666 -0.01733,0.589332 -0.03467,0.623999 -0.03467,0.658666 0,0.329332 0.138667,0.415999 0.121333,0.121333 0.658665,0.207999 0.537332,0.08667 1.005332,0.08667 0.207999,0 0.381332,-0.03467 0.329333,-0.08667 0.433333,-0.190666 0.121333,-0.121333 0.121333,-0.415999 0,-0.26 -0.01733,-0.433333 -0.03467,-0.346666 -0.173333,-1.230664 -0.138666,-0.883998 -0.138666,-1.403997 0,-0.589332 0.121333,-1.715997 0.121333,-1.126664 0.208,-1.265331 0.01733,-0.052 0.104,-0.052 0.103999,0 1.039997,0.312 l 1.074665,0.363999 -0.01733,0.346666 q 0,0.052 -0.03467,0.554666 -0.01733,0.485332 -0.052,0.814665 -0.052,0.519999 -0.052,0.831998 0,0.363999 0.06933,0.589332 0.259999,0.987998 0.259999,3.41466 0,0.987998 -0.08667,0.987998 -0.03467,0 -0.052,-0.06933 l -0.08667,-0.207999 -0.294666,0.225332 q -0.346666,0.242667 -0.381333,0.242667 -0.052,0 -0.381332,0.225333 -0.693332,0.467999 -2.062663,0.467999 -0.433332,0 -0.675998,-0.01733 -1.265331,-0.06933 -1.577331,-0.155999 -0.693332,-0.190667 -1.213331,-0.883999 -0.779998,-1.074664 -0.779998,-1.993329 0,-0.277333 0.052,-0.589332 0.03467,-0.415999 0.03467,-0.519999 0,-0.312 -0.121333,-0.693332 -0.346666,-1.057331 -0.346666,-2.027996 0,-0.364 0.01733,-0.571999 0.06933,-0.970665 0.121333,-1.126665 0.06933,-0.155999 0.381332,-0.155999 0.329333,0 0.519999,-0.190667 0.156,-0.155999 0.485333,-0.155999 h 0.190666 0.207999 q 0.312,0 0.346666,-0.03467 z m 13.381304,-0.918665 q 0.329333,-0.138666 0.641332,-0.138666 0.814665,0 1.195998,0.675998 0.190666,0.346666 0.190666,0.641333 0,0.311999 -0.242666,0.883998 -0.537332,1.143998 -1.213331,1.47333 -0.381332,0.190667 -0.883998,0.658666 -0.312,0.294666 -0.467999,0.537332 -0.156,0.242666 -0.346666,0.762665 -0.312,0.797332 -0.606666,1.230664 -0.277333,0.416 -0.450666,0.710666 l -0.155999,0.294666 0.658665,-0.052 q 0.658666,-0.06933 1.039998,-0.190666 0.415999,-0.121333 0.571999,-0.121333 0.225333,0 0.641332,0.155999 0.935998,0.346666 0.935998,1.195998 0,0.450666 -0.121333,0.485332 -0.138666,0.06933 -0.08667,0.398666 0.01733,0.08667 0.01733,0.208 0,0.138666 -0.225333,0.190666 -0.052,0.01733 -0.208,0.01733 -0.259999,0 -0.467999,-0.052 -0.138666,-0.03467 -0.433332,-0.03467 -0.467999,0 -1.091998,0.08667 -0.901332,0.121333 -1.455997,0.121333 -0.052,0 -0.156,-0.01733 -0.104,0 -0.138666,0 -0.121333,-0.01733 -0.415999,-0.01733 -0.433333,0 -0.641333,0.052 -0.121333,0.03467 -0.346666,0.03467 -0.606665,0 -1.091997,-0.502665 -0.502666,-0.537333 -0.502666,-1.074665 0,-0.156 0.052,-0.346666 0.06933,-0.242666 0.502666,-0.814665 0.450665,-0.589332 0.831998,-0.918665 0.173333,-0.173333 0.173333,-0.277333 0,-0.08667 0.311999,-0.467999 0.329333,-0.381332 0.571999,-1.074664 0.571999,-1.473331 1.039998,-1.88933 0.346666,-0.294666 0.312,-0.329333 h -0.03467 q -0.08667,0 -0.502666,0.06933 -0.311999,0.052 -0.502665,0.052 -0.06933,0 -0.190667,0 -0.121333,-0.01733 -0.173333,-0.01733 -0.207999,0 -0.467999,0.052 -0.104,0.03467 -0.381332,0.03467 -0.554666,0 -0.779999,-0.138667 -0.01733,-0.01733 -0.01733,-0.06933 0,-0.173333 0.329333,-1.057331 0.415999,-1.074665 0.450665,-1.091998 0.03467,-0.03467 0.935998,-0.121333 0.918665,-0.104 1.421331,-0.121333 h 0.138666 q 0.468,0 0.641333,0.103999 0.173333,0.104 0.311999,0.01733 0.08667,-0.06933 0.346666,-0.06933 0.225333,0 0.537332,-0.138667 z m 10.486632,0.918665 q 0.052,-0.052 0.103999,-0.052 0.242667,0 0.242667,0.693332 0,0.225333 -0.052,0.433333 -0.121333,0.398666 -0.121333,1.230664 0,0.779998 0.242666,1.490664 0.207999,0.606665 0.207999,1.005331 0,0.346666 -0.01733,0.589332 -0.03467,0.623999 -0.03467,0.658666 0,0.329332 0.138666,0.415999 0.121333,0.121333 0.658665,0.207999 0.537333,0.08667 1.005332,0.08667 0.208,0 0.38133,-0.03467 0.32933,-0.08667 0.43333,-0.190666 0.12134,-0.121333 0.12134,-0.415999 0,-0.26 -0.0173,-0.433333 -0.0347,-0.346666 -0.17333,-1.230664 -0.13866,-0.883998 -0.13866,-1.403997 0,-0.589332 0.12133,-1.715997 0.12133,-1.126664 0.208,-1.265331 0.0173,-0.052 0.104,-0.052 0.104,0 1.04,0.312 l 1.07466,0.363999 -0.0173,0.346666 q 0,0.052 -0.0347,0.554666 -0.0173,0.485332 -0.052,0.814665 -0.052,0.519999 -0.052,0.831998 0,0.363999 0.0693,0.589332 0.26,0.987998 0.26,3.41466 0,0.987998 -0.0867,0.987998 -0.0347,0 -0.052,-0.06933 l -0.0867,-0.207999 -0.29467,0.225332 q -0.34666,0.242667 -0.38133,0.242667 -0.052,0 -0.38133,0.225333 -0.69333,0.467999 -2.06266,0.467999 -0.43334,0 -0.676002,-0.01733 -1.265331,-0.06933 -1.577331,-0.155999 -0.693332,-0.190667 -1.213331,-0.883999 -0.779998,-1.074664 -0.779998,-1.993329 0,-0.277333 0.052,-0.589332 0.03467,-0.415999 0.03467,-0.519999 0,-0.312 -0.121333,-0.693332 -0.346666,-1.057331 -0.346666,-2.027996 0,-0.364 0.01733,-0.571999 0.06933,-0.970665 0.121333,-1.126665 0.06933,-0.155999 0.381332,-0.155999 0.329333,0 0.519999,-0.190667 0.156,-0.155999 0.485333,-0.155999 h 0.190666 0.208 q 0.311999,0 0.346666,-0.03467 z m 11.387972,-0.346666 q 0.52,-0.138666 0.69333,-0.138666 0.17333,0 0.22533,0.138666 0.0693,0.138666 0.156,0.554666 0,0.052 0,0.08667 0.0173,0.03467 0.0173,0.08667 0.0173,0.052 0.0347,0.103999 0.19067,1.005332 0.24267,1.143998 0.0173,0.06933 -0.0693,0.121333 -0.0867,0.052 -0.34667,0.121333 -0.52,0.138667 -1.144,0.571999 -0.832,0.537333 -1.05733,0.623999 -0.34667,0.156 -0.34667,0.294666 0,0.06933 0.0173,0.121333 0.0867,0.450666 0.17333,3.310661 l 0.0693,2.253328 h -2.44399 l -0.0173,-1.542663 q -0.0347,-2.391996 -0.104,-3.46666 -0.0173,-0.242666 -0.0173,-0.779999 0,-0.554665 0.052,-0.953331 0.052,-0.363999 0.052,-0.623999 0,-0.311999 -0.0693,-0.571999 -0.052,-0.225333 -0.052,-0.346666 0,-0.190666 0.19067,-0.311999 0.20799,-0.121333 0.90133,-0.363999 0.91866,-0.329333 1.03999,-0.329333 0.13867,0 0.208,0.277333 0.0693,0.259999 0.19067,0.259999 0.104,0 0.468,-0.259999 0.29467,-0.225333 0.936,-0.381333 z m 13.24263,0.173333 q 0.208,-0.138666 0.50267,-0.138666 0.17333,0 0.29466,0.01733 0.364,0.03467 0.50267,0.104 0.156,0.052 0.38133,0.277333 0.34667,0.329332 0.624,0.849331 0.27733,0.502666 0.34666,0.901332 0.208,1.126664 0.74534,2.565328 0.17333,0.450666 0.208,0.450666 0.0347,0 0.0347,-0.190666 0,-0.329333 0.17334,-0.710666 0.156,-0.346666 0.55466,-1.438663 0.39867,-1.109332 0.55467,-1.83733 0.12133,-0.571999 0.17333,-0.623999 h 0.0173 q 0.13867,0 1.092,0.398666 0.884,0.381332 0.988,0.537332 0.0693,0.104 0.0693,0.225333 0,0.208 -0.27733,0.953332 -0.60667,1.663996 -0.78,2.253328 -0.17333,0.589333 -0.208,1.178665 -0.0347,0.450666 -0.24266,1.334664 -0.208,0.883998 -0.208,0.901332 -0.0693,0.398665 -0.26,0.762665 -0.17334,0.381332 -0.38134,0.502665 -0.22533,0.156 -1.50799,0.346666 -0.0173,0 -0.0693,0 -0.052,0.01733 -0.0867,0.01733 -0.312,0 -0.624,-0.156 -0.29467,-0.156 -0.43333,-0.381333 -0.43334,-0.797331 -0.43334,-1.247997 0,-0.398666 -0.38133,-1.750663 -0.38133,-1.351998 -0.50266,-1.351998 -0.104,0 -0.45067,0.849332 -0.104,0.311999 -0.19067,0.987998 -0.12133,1.265331 -0.26,1.750663 -0.12133,0.502666 -0.38133,0.779999 -0.22533,0.259999 -0.50266,0.346666 -0.27734,0.08667 -0.91867,0.138666 -0.17333,0.01733 -0.45067,0.01733 -0.65866,0 -0.97066,-0.277332 -0.312,-0.277333 -0.60667,-1.074665 -0.22533,-0.658665 -0.26,-1.317331 0,-0.537332 -0.12133,-0.779998 -0.27733,-0.554666 -0.39866,-1.62933 -0.052,-0.658666 -0.364,-1.351998 -0.50267,-1.213331 -0.58934,-1.958663 l -0.0693,-0.502665 h 2.40933 l 0.0693,0.415999 q 0.0693,0.433332 0.12134,0.519999 0.19066,0.242666 0.416,0.970665 0.24266,0.710665 0.29466,1.178664 0.17333,1.265331 0.32933,1.265331 0.12134,0 0.468,-0.935998 0.364,-0.935998 0.45067,-1.455997 0.0867,-0.433333 0.32933,-1.247998 0.26,-0.814665 0.39867,-1.074665 0.0867,-0.155999 0.38133,-0.363999 z m 13.8493,2.513329 q -0.19067,-0.173333 -0.55467,-0.173333 -0.58933,0 -1.12666,0.450665 -0.26,0.225333 -0.364,0.675999 l -0.0867,0.485332 0.29467,0.052 q 0.0867,0.01733 0.55466,0.01733 1.83733,0 1.94133,-0.104 0.0173,-0.01733 0.0173,-0.03467 0,-0.156 -0.27734,-0.710665 -0.26,-0.554666 -0.39866,-0.658665 z m -1.78533,-2.374663 q 0.60666,-0.190666 1.28266,-0.190666 0.74533,0 1.28267,0.225333 1.10933,0.519999 1.62933,1.542664 0.32933,0.675998 0.38133,0.970665 0.0693,0.363999 0.17333,0.537332 0.104,0.225333 0.19067,0.745332 0.104,0.519999 0.104,0.883998 0,0.173333 -0.0173,0.225333 -0.052,0.259999 -0.32933,0.606665 -0.26,0.329333 -0.50266,0.416 -0.39867,0.155999 -1.56,0.207999 -1.144,0.052 -2.08,0.06933 -0.936,0 -0.936,0.052 0,0.433333 0.468,0.727999 0.29467,0.190666 1.36933,0.277333 0.572,0.06933 0.884,0.06933 0.27734,0 0.69333,-0.156 0.45067,-0.173333 0.76267,-0.173333 0.26,0 0.624,0.156 l 0.364,0.173333 -0.0347,0.519999 q -0.12133,1.47333 -0.26,1.57733 -0.208,0.242666 -2.37466,0.242666 -1.092,0 -1.82,-0.104 -0.69333,-0.08667 -1.40399,-0.485332 -0.69334,-0.398666 -1.00534,-0.866665 -0.79733,-1.247997 -0.79733,-2.721328 0,-0.398666 0.0173,-0.606665 0.104,-1.317331 0.38133,-2.235996 0.50266,-1.68133 1.47333,-2.253329 0.364,-0.190666 1.04,-0.433333 z m 9.23864,9.169316 q -0.0173,0 -1.07466,-0.363999 -1.05733,-0.346666 -1.07467,-0.346666 -0.0347,0 -0.0867,0.138666 l -0.0173,0.01733 q -0.0173,0 -0.0173,-0.103999 0,-0.052 0.0347,-0.467999 0.0173,-0.138667 0.0173,-0.537333 0,-0.623999 -0.052,-1.143998 -0.0693,-0.710665 -0.104,-3.397326 -0.0173,-0.606666 -0.0173,-1.421331 0,-1.005331 0.19067,-1.403997 0.17333,-0.329333 0.17333,-0.745332 0,-0.450666 -0.12134,-1.52533 l -0.0693,-0.519999 0.26,0.052 q 0.22533,0.052 1.17867,0.121333 0.67599,0.03467 0.81466,0.08667 0.13867,0.03467 0.208,0.208 0.052,0.121333 0.0867,1.438664 v 0.519999 q 0,0.710665 -0.13867,0.970664 -0.156,0.294666 -0.156,2.426662 0.0347,2.547995 0.0867,2.998661 0.052,0.519999 0.052,1.230664 0,1.767997 -0.17334,1.767997 z m 4.48935,0 q -0.0173,0 -1.07467,-0.363999 -1.05733,-0.346666 -1.07466,-0.346666 -0.0347,0 -0.0867,0.138666 l -0.0173,0.01733 q -0.0173,0 -0.0173,-0.103999 0,-0.052 0.0347,-0.467999 0.0173,-0.138667 0.0173,-0.537333 0,-0.623999 -0.052,-1.143998 -0.0693,-0.710665 -0.104,-3.397326 -0.0173,-0.606666 -0.0173,-1.421331 0,-1.005331 0.19067,-1.403997 0.17333,-0.329333 0.17333,-0.745332 0,-0.450666 -0.12133,-1.52533 l -0.0693,-0.519999 0.26,0.052 q 0.22534,0.052 1.17867,0.121333 0.676,0.03467 0.81466,0.08667 0.13867,0.03467 0.208,0.208 0.052,0.121333 0.0867,1.438664 v 0.519999 q 0,0.710665 -0.13867,0.970664 -0.156,0.294666 -0.156,2.426662 0.0347,2.547995 0.0867,2.998661 0.052,0.519999 0.052,1.230664 0,1.767997 -0.17333,1.767997 z m 6.84666,-6.794653 q -0.19067,-0.173333 -0.55467,-0.173333 -0.58933,0 -1.12666,0.450665 -0.26,0.225333 -0.364,0.675999 l -0.0867,0.485332 0.29467,0.052 q 0.0867,0.01733 0.55466,0.01733 1.83733,0 1.94133,-0.104 0.0173,-0.01733 0.0173,-0.03467 0,-0.156 -0.27734,-0.710665 -0.25999,-0.554666 -0.39866,-0.658665 z m -1.78533,-2.374663 q 0.60666,-0.190666 1.28266,-0.190666 0.74533,0 1.28267,0.225333 1.10933,0.519999 1.62933,1.542664 0.32933,0.675998 0.38133,0.970665 0.0693,0.363999 0.17333,0.537332 0.104,0.225333 0.19067,0.745332 0.104,0.519999 0.104,0.883998 0,0.173333 -0.0173,0.225333 -0.052,0.259999 -0.32934,0.606665 -0.26,0.329333 -0.50266,0.416 -0.39867,0.155999 -1.56,0.207999 -1.144,0.052 -2.08,0.06933 -0.93599,0 -0.93599,0.052 0,0.433333 0.468,0.727999 0.29466,0.190666 1.36933,0.277333 0.57199,0.06933 0.88399,0.06933 0.27734,0 0.69334,-0.156 0.45066,-0.173333 0.76266,-0.173333 0.26,0 0.624,0.156 l 0.364,0.173333 -0.0347,0.519999 q -0.12133,1.47333 -0.26,1.57733 -0.208,0.242666 -2.37466,0.242666 -1.092,0 -1.82,-0.104 -0.69333,-0.08667 -1.40399,-0.485332 -0.69333,-0.398666 -1.00533,-0.866665 -0.79734,-1.247997 -0.79734,-2.721328 0,-0.398666 0.0173,-0.606665 0.104,-1.317331 0.38133,-2.235996 0.50267,-1.68133 1.47333,-2.253329 0.364,-0.190666 1.04,-0.433333 z m 6.98532,-1.542663 -0.0693,-1.195998 0.79734,0.052 q 0.83199,0.06933 1.21333,0.121333 l 0.416,0.052 v 0.710665 q 0,1.074665 0.32933,1.663997 h 0.0173 q 0.12133,0 0.65867,-0.121333 0.468,-0.121333 0.988,-0.121333 1.17866,0 2.14932,0.623999 0.45067,0.294666 0.65867,0.779998 0.22533,0.467999 0.34667,1.525331 0.19066,1.31733 0.32933,1.975996 0.19066,0.901331 0.19066,2.218662 0,0.831998 -0.0693,1.386664 l -0.0867,0.606665 -1.16134,-0.03467 -1.17866,-0.01733 0.0173,-0.502666 q 0,-0.554666 0.0867,-1.334664 0.0173,-0.190666 0.0173,-0.537332 0,-0.502666 -0.052,-0.762666 -0.364,-1.854663 -0.468,-2.651994 -0.0867,-0.641333 -0.208,-0.745332 -0.104,-0.121333 -0.64133,-0.121333 -0.38133,0 -1.092,0.363999 -0.50266,0.259999 -0.62399,0.363999 -0.104,0.104 -0.104,0.294666 0,0.277333 -0.156,0.935998 -0.0867,0.467999 -0.0867,0.658666 0,0.207999 0.052,0.381332 0.0693,0.294666 0.13867,2.218663 l 0.052,1.837329 h -2.288 l -0.12133,-0.415999 q -0.052,-0.259999 -0.052,-0.641332 0,-0.155999 0.0347,-0.883998 0.0347,-0.346666 0.0347,-0.814665 0,-0.398666 -0.104,-0.797332 -0.12133,-0.433332 -0.12133,-1.126664 0,-0.589333 0.0867,-0.901332 0.12134,-0.485332 0.12134,-2.911994 0,-1.282665 -0.052,-2.131996 z m 10.27863,-1.161331 q 0.156,-0.277333 0.27734,-0.277333 0.0693,0 0.12133,0.08667 0.052,0.08667 0.988,0.08667 h 0.93599 v 0.727999 q 0,1.36933 0.364,1.698663 0.17334,0.156 0.34667,0.156 0.156,0 0.43333,-0.138667 0.208,-0.104 0.52,-0.104 0.55467,0 0.90133,0.242667 0.55467,0.381332 0.55467,1.386664 0,0.467999 -0.0867,0.571998 -0.0693,0.104 -0.43333,0.104 -0.24267,0 -0.58933,0.190667 -0.312,0.155999 -0.81467,0.155999 h -0.32933 -0.32933 q -0.45067,0 -0.60667,0.190667 -0.104,0.121333 -0.104,0.346666 0,0.01733 0.0693,0.710665 0.052,0.311999 0.13867,2.027996 0.0347,1.161331 0.104,1.369331 0.0867,0.190666 0.572,0.190666 h 0.32933 0.832 v 2.409328 h -0.91866 q -0.884,0 -1.33467,-0.06933 -0.624,-0.104 -1.092,-0.623999 -0.46799,-0.502665 -0.72799,-1.334664 -0.0867,-0.329332 -0.208,-1.785329 -0.104,-1.473331 -0.12134,-2.877328 -0.0347,-0.762665 -0.12133,-0.831999 -0.12133,-0.06933 -0.12133,-1.230664 v -1.161331 h 0.26 q 0.19066,0 0.22533,-0.03467 0.0347,-0.052 0,-0.259999 -0.104,-0.485332 -0.13867,-0.589332 -0.0693,-0.26 -0.0693,-0.589332 0,-0.467999 0.17333,-0.745332 z m 7.71331,0 q 0.156,-0.277333 0.27734,-0.277333 0.0693,0 0.12133,0.08667 0.052,0.08667 0.988,0.08667 h 0.93599 v 0.727999 q 0,1.36933 0.364,1.698663 0.17334,0.156 0.34667,0.156 0.156,0 0.43333,-0.138667 0.208,-0.104 0.52,-0.104 0.55467,0 0.90133,0.242667 0.55467,0.381332 0.55467,1.386664 0,0.467999 -0.0867,0.571998 -0.0693,0.104 -0.43333,0.104 -0.24267,0 -0.58933,0.190667 -0.312,0.155999 -0.81467,0.155999 h -0.32933 -0.32933 q -0.45067,0 -0.60667,0.190667 -0.104,0.121333 -0.104,0.346666 0,0.01733 0.0693,0.710665 0.052,0.311999 0.13866,2.027996 0.0347,1.161331 0.104,1.369331 0.0867,0.190666 0.572,0.190666 h 0.32933 0.832 v 2.409328 h -0.91866 q -0.884,0 -1.33467,-0.06933 -0.624,-0.104 -1.092,-0.623999 -0.46799,-0.502665 -0.72799,-1.334664 -0.0867,-0.329332 -0.208,-1.785329 -0.104,-1.473331 -0.12134,-2.877328 -0.0347,-0.762665 -0.12133,-0.831999 -0.12133,-0.06933 -0.12133,-1.230664 v -1.161331 h 0.26 q 0.19066,0 0.22533,-0.03467 0.0347,-0.052 0,-0.259999 -0.104,-0.485332 -0.13867,-0.589332 -0.0693,-0.26 -0.0693,-0.589332 0,-0.467999 0.17333,-0.745332 z"
       id="text1"
       transform="matrix(0.26458333,0,0,0.26458333,-4.3043479,0.63299233)"
       aria-label="chuuz ur wellehtt" />
  </g>
</svg>
