<?xml version="1.0" encoding="UTF-8" standalone="no"?>
<!-- Created with Inkscape (http://www.inkscape.org/) -->

<svg
   width="170"
   height="35"
   viewBox="0 0 44.979166 9.2604166"
   version="1.1"
   id="svg1"
   inkscape:version="1.3.2 (091e20e, 2023-11-25, custom)"
   sodipodi:docname="dunnetiun.svg"
   xmlns:inkscape="http://www.inkscape.org/namespaces/inkscape"
   xmlns:sodipodi="http://sodipodi.sourceforge.net/DTD/sodipodi-0.dtd"
   xmlns="http://www.w3.org/2000/svg"
   xmlns:svg="http://www.w3.org/2000/svg">
  <sodipodi:namedview
     id="namedview1"
     pagecolor="#ffffff"
     bordercolor="#000000"
     borderopacity="0.25"
     inkscape:showpageshadow="2"
     inkscape:pageopacity="0.0"
     inkscape:pagecheckerboard="0"
     inkscape:deskcolor="#d1d1d1"
     inkscape:document-units="mm"
     inkscape:zoom="4.1798822"
     inkscape:cx="87.323036"
     inkscape:cy="28.350082"
     inkscape:window-width="2560"
     inkscape:window-height="1369"
     inkscape:window-x="-8"
     inkscape:window-y="-8"
     inkscape:window-maximized="1"
     inkscape:current-layer="layer1" />
  <defs
     id="defs1">
    <inkscape:path-effect
       effect="spiro"
       id="path-effect1"
       is_visible="true"
       lpeversion="1" />
  </defs>
  <g
     inkscape:label="Layer 1"
     inkscape:groupmode="layer"
     id="layer1">
    <path
       style="fill:#ff9500;stroke:#ff9500;stroke-width:0.323585"
       d="M 1.3292839,8.4820971 C 1.2553527,8.3584979 1.2156213,8.214675 1.2156213,8.0706522 c 0,-0.1440229 0.039731,-0.2878458 0.1136626,-0.411445 C 1.4273444,7.4952682 1.5798057,7.3723538 1.7052094,7.2282504 1.7679112,7.1561986 1.8245509,7.0776735 1.8618521,6.989744 1.8991533,6.9018146 1.9163282,6.8036437 1.8989769,6.7097187 1.8868243,6.6439351 1.8582405,6.5820794 1.8229084,6.5252745 1.7875763,6.4684695 1.7454709,6.4162362 1.7038538,6.3638608 1.6622367,6.3114855 1.620852,6.2586006 1.5871671,6.2008037 1.5534822,6.1430067 1.5275342,6.0798004 1.5191816,6.0134272 c -0.01055,-0.083837 0.00722,-0.169008 0,-0.253197 C 1.5134248,5.6931291 1.4915376,5.6274673 1.4558823,5.5703324 1.4246231,5.4672094 1.4033912,5.3610495 1.3925831,5.2538362 1.3712634,5.0423499 1.3899545,4.8245596 1.3292839,4.6208439 1.277716,4.4476927 1.1706849,4.2923855 1.1393862,4.1144502 1.1202672,4.0057574 1.1305844,3.8938632 1.1506681,3.7853445 1.1707518,3.6768258 1.2004891,3.5702724 1.2205697,3.4617531 1.2406504,3.3532338 1.2509613,3.2413385 1.2318331,3.1326473 1.2127048,3.0239561 1.1617433,2.9180547 1.0760869,2.8484655 1.0525532,2.8293461 1.02673,2.8131571 1.0035196,2.7936465 c -0.0232104,-0.019511 -0.044179,-0.043103 -0.0540311,-0.07178 -0.006918,-0.020135 -0.008028,-0.041845 -0.006795,-0.063099 0.001233,-0.021255 0.004734,-0.042309 0.006795,-0.063499 C 0.95934059,2.4939862 0.93597081,2.3917868 0.89833131,2.2972434 0.86069181,2.2027001 0.80905285,2.1145062 0.75959077,2.0255754 0.64449913,1.8186454 0.53813406,1.5981375 0.52504342,1.3617169 0.5184981,1.2435065 0.53626428,1.1228677 0.58580057,1.0153378 0.63533686,0.90780792 0.71777783,0.81406971 0.82289001,0.75959077 0.93346687,0.70227952 1.063816,0.69061533 1.186918,0.70952874 c 0.123102,0.0189134 0.24003,0.0667651 0.3510274,0.12325755 0.2219948,0.11298495 0.4320507,0.26431121 0.6775277,0.30659991 0.1360927,0.023445 0.2757855,0.011662 0.4124733,-0.00802 0.1366878,-0.01968 0.2725547,-0.04722 0.4104166,-0.055281 0.1896657,-0.01109 0.3802862,0.014868 0.5696932,0 C 3.8487801,1.0571901 4.0790973,0.97317971 4.3043477,0.88618924 4.794987,0.696707 5.2979846,0.48558203 5.8235294,0.50639387 c 0.4270807,0.0169126 0.8385767,0.18736208 1.2659846,0.18989767 0.1483701,8.802e-4 0.2960155,-0.0185726 0.4440556,-0.0285026 0.14804,-0.00993 0.298863,-0.0100712 0.4421338,0.0285026 0.1098401,0.029573 0.2122521,0.0810727 0.3164961,0.12659847 0.7669716,0.33495449 1.636984,0.34668039 2.4686695,0.25319689 0.147624,-0.016593 0.298996,-0.036103 0.443095,0 0.08776,0.021987 0.169017,0.063771 0.250648,0.1027675 0.08163,0.038997 0.165972,0.075949 0.255746,0.08713 0.104817,0.013054 0.21132,-0.00975 0.316496,0 0.10002,0.00927 0.194834,0.047538 0.286912,0.087683 0.09208,0.040145 0.184198,0.082947 0.282781,0.1022151 0.166056,0.032455 0.337245,-0.00405 0.506394,0 0.149313,0.00357 0.295775,0.038723 0.443095,0.063299 0.60484,0.1008994 1.222933,0.023612 1.835677,0 0.696407,-0.026836 1.396477,0.015995 2.088875,-0.063299 0.465613,-0.053323 0.924782,-0.1616111 1.392583,-0.1898977 0.443323,-0.026806 0.892714,0.018313 1.329284,-0.063299 0.191263,-0.035754 0.37762,-0.095489 0.569693,-0.1265985 0.33414,-0.054121 0.677026,-0.020373 1.012788,-0.063299 0.472802,-0.0604458 0.918107,-0.27101591 1.392583,-0.31649616 0.252199,-0.0241742 0.506238,-9.9911e-4 0.759591,0 0.401344,0.001583 0.804778,-0.052436 1.202685,0 0.299641,0.0394865 0.588364,0.13847812 0.886189,0.1898977 0.604216,0.10431796 1.222608,0.0101407 1.835679,0 0.845202,-0.0139803 1.697035,0.13209926 2.531967,0 0.380749,-0.0602405 0.754088,-0.17797304 1.139389,-0.1898977 0.253303,-0.007839 0.507987,0.0303368 0.759589,0 0.300367,-0.0362167 0.584386,-0.16878597 0.886191,-0.18989767 0.105278,-0.007364 0.210963,-9.879e-4 0.316494,0 0.46638,0.004366 0.927163,-0.0963862 1.392584,-0.12659847 0.400164,-0.0259762 0.801678,3.0748e-4 1.202685,0 0.633472,-4.8573e-4 1.269087,-0.0672613 1.898978,0 0.317554,0.0339092 0.631099,0.10170193 0.949486,0.12659847 0.547251,0.0427927 1.09846,-0.0418539 1.645783,0 0.583344,0.0446084 1.146076,0.23145058 1.724185,0.32128651 0.289055,0.044918 0.583783,0.0654562 0.874296,0.0312199 0.290513,-0.0342363 0.577538,-0.12507487 0.819676,-0.28920726 0.0545,-0.0369447 0.106596,-0.0774639 0.162445,-0.11234007 0.05585,-0.0348762 0.116194,-0.0642815 0.180929,-0.0763173 0.06473,-0.0120358 0.134497,-0.005486 0.191392,0.0276571 0.02845,0.0165716 0.05328,0.0396163 0.0708,0.0674867 0.01752,0.0278703 0.02759,0.0605918 0.02742,0.0935136 -1.65e-4,0.0335896 -0.01073,0.0662856 -0.02373,0.0972569 -0.013,0.0309713 -0.02856,0.0609056 -0.03957,0.0926408 -0.02458,0.0708702 -0.02545,0.14740527 -0.02748,0.22238982 -0.002,0.0749845 -0.0059,0.15190424 -0.03582,0.22070484 -0.02704,0.062246 -0.07361,0.1137093 -0.120998,0.1622924 -0.04739,0.048583 -0.09695,0.096208 -0.132198,0.1542038 -0.03621,0.059587 -0.05589,0.1281605 -0.06446,0.1973602 -0.0086,0.0692 -0.0064,0.1392952 -0.0013,0.2088353 0.01022,0.1390802 0.03189,0.2803889 0.0024,0.4166945 -0.01842,0.08518 -0.05651,0.1663131 -0.0633,0.2531969 -0.0041,0.052866 0.0035,0.1058306 0.0084,0.1586347 0.0049,0.052804 0.0068,0.107047 -0.0084,0.1578615 -0.01352,0.045326 -0.03988,0.085503 -0.0633,0.1265983 -0.118864,0.2085871 -0.16605,0.4534359 -0.157707,0.6933686 0.0083,0.2399327 0.07019,0.4756558 0.157707,0.6992147 0.04426,0.1130549 0.09515,0.2236071 0.133564,0.338779 0.03841,0.1151719 0.06428,0.2363644 0.05634,0.3575125 -0.01018,0.1551045 -0.07478,0.3011348 -0.104058,0.4537916 -0.01464,0.076328 -0.02034,0.155349 -0.0057,0.2316829 0.01461,0.076334 0.05082,0.1500835 0.109787,0.2007149 0.03498,0.030037 0.07669,0.051132 0.113483,0.078924 0.01839,0.013896 0.03564,0.029575 0.04936,0.0481 0.01372,0.018524 0.02384,0.040044 0.02705,0.062873 0.003,0.021001 3.2e-5,0.042319 -0.0022,0.063412 -0.0022,0.021094 -0.0036,0.042785 0.0022,0.063186 0.0043,0.014991 0.0124,0.02886 0.02342,0.039879 0.01102,0.011019 0.02489,0.019164 0.03988,0.02342 0.02171,0.041889 0.04281,0.084095 0.0633,0.1265984 0.115574,0.2398043 0.212331,0.4928166 0.239083,0.7576709 0.02675,0.2648543 -0.0219,0.5442909 -0.175783,0.7615107 -0.03592,0.050707 -0.0771,0.097532 -0.112782,0.1484075 -0.03568,0.050876 -0.06619,0.1069151 -0.07711,0.1680887 -0.01115,0.062453 -0.0014,0.1264711 0,0.1898975 0.0014,0.067097 -0.0071,0.1359373 -0.03781,0.1956362 -0.01533,0.029849 -0.03612,0.057073 -0.06203,0.078399 -0.02591,0.021326 -0.05701,0.03663 -0.09005,0.042461 -0.02088,0.00368 -0.0424,0.00359 -0.0633,0 -0.0529,-0.00908 -0.09972,-0.039909 -0.139584,-0.075849 -0.03986,-0.03594 -0.07433,-0.077478 -0.113612,-0.114049 C 43.804647,8.5556084 43.638946,8.4959883 43.486573,8.4187979 43.275618,8.3119307 43.081274,8.1661649 42.853581,8.1023017 42.69023,8.0564853 42.51766,8.0553976 42.348374,8.0665833 c -0.169285,0.011186 -0.337933,0.034303 -0.507581,0.035718 -0.190089,0.00159 -0.381125,-0.024055 -0.569692,0 -0.279921,0.035709 -0.540901,0.1793272 -0.822892,0.1898978 -0.126664,0.00475 -0.254281,-0.017691 -0.379793,0 -0.132461,0.018671 -0.254134,0.080733 -0.379796,0.1265984 -0.361025,0.1317708 -0.755078,0.1297309 -1.139386,0.1265983 -0.759582,-0.00619 -1.519239,-0.010431 -2.278774,0 -1.012921,0.01391 -2.025388,0.053907 -3.038361,0.063299 -0.506376,0.0047 -1.012787,0.00174 -1.519182,0 -1.772601,-0.0061 -3.545562,0.00266 -5.317136,0.063299 -2.278962,0.078002 -4.563012,0.2417341 -6.836317,0.063299 -0.253297,-0.019882 -0.506249,-0.044002 -0.759591,-0.063299 -0.800419,-0.060969 -1.60602,-0.073666 -2.405371,0 -0.570839,0.052607 -1.137275,0.1491048 -1.709079,0.1898975 -0.526497,0.03756 -1.055374,0.027717 -1.582481,0 -0.632782,-0.033274 -1.265985,-0.09229 -1.898977,-0.063299 -0.316835,0.014511 -0.636434,0.050911 -0.949488,0 C 10.127706,8.7779763 10.002878,8.7431233 9.8746811,8.7352937 9.7583448,8.7281885 9.6419897,8.7435088 9.525818,8.75293 9.4096463,8.7623511 9.290917,8.7656615 9.1783896,8.7352937 9.1139513,8.7179037 9.0528213,8.6897834 8.988492,8.6719947 8.8043799,8.621083 8.6092826,8.6576683 8.4187989,8.6719947 7.8873704,8.7119637 7.3610054,8.5754562 6.836317,8.4820971 6.1017456,8.351393 5.3539671,8.3041978 4.6208439,8.1656009 4.5049279,8.143687 4.3889604,8.119436 4.271176,8.1128341 4.1533916,8.1062321 4.0325059,8.1180323 3.9245524,8.1656009 3.8813703,8.1846287 3.840795,8.2091159 3.797954,8.2288999 3.6237158,8.3093631 3.4236188,8.3075521 3.2322373,8.2931861 3.0408558,8.27882 2.8465668,8.2536035 2.6585677,8.2921989 2.5277204,8.3190612 2.4052652,8.3758772 2.2787723,8.4187973 1.9749682,8.5218805 1.6440831,8.5439397 1.3292839,8.4820971 Z"
       id="path1"
       inkscape:path-effect="#path-effect1"
       inkscape:original-d="m 1.3292839,8.4820971 c 0.059116,-0.2541662 -0.082194,-0.576307 0,-0.8228899 C 1.4577961,7.2736704 1.9699363,7.1354743 1.8989769,6.7097187 1.8482327,6.4052531 1.5962344,6.2831119 1.5191816,6.0134272 c -0.023186,-0.081152 0.011936,-0.1696464 0,-0.253197 C 1.5097455,5.6941775 1.4769821,5.6336316 1.4558823,5.5703324 1.4347826,5.4648337 1.4068023,5.3604805 1.3925831,5.2538362 1.3645578,5.0436465 1.3641446,4.8300086 1.3292839,4.6208439 1.2996466,4.4430206 1.1831096,4.2893437 1.1393862,4.1144502 1.0381326,3.7094355 1.2017607,3.2673782 1.0760869,2.8484655 1.0589383,2.7913033 0.97617779,2.7752455 0.94948847,2.7218669 c -0.0188722,-0.037744 0.011593,-0.086023 0,-0.1265984 C 0.90041639,2.4235162 0.7852897,2.2054678 0.75959077,2.0255754 0.7365203,1.864082 0.71551429,0.86696649 0.82289001,0.75959077 0.88328184,0.69919897 1.9629896,1.1078257 2.2154731,1.1393862 2.4952722,1.174361 2.7707994,1.1095324 3.038363,1.0760869 c 0.3797957,-0.047474 0.2278775,0.03798 0.5696932,0 C 3.9463167,1.0385025 3.9577959,0.98245368 4.3043477,0.88618924 4.8009275,0.74825044 5.3272322,0.63046816 5.8235294,0.50639387 6.2698677,0.39480926 6.6637891,0.65371905 7.089514,0.69629154 c 0.2823351,0.0282335 0.6094574,-0.0614959 0.8861894,0 0.1109196,0.0246488 0.206263,0.0990402 0.3164961,0.12659847 0.7912941,0.19782359 1.6642562,0.17275556 2.4686695,0.25319689 0.146966,0.014697 0.296881,-0.020888 0.443095,0 0.947454,0.1353506 -0.47835,-0.028934 0.506394,0.1898977 0.102986,0.022886 0.213339,-0.022105 0.316496,0 0.195727,0.041941 0.372569,0.1551112 0.569693,0.1898977 0.16623,0.029335 0.33797,-0.011228 0.506394,0 0.148867,0.00992 0.294227,0.053375 0.443095,0.063299 0.599052,0.039937 1.239114,0 1.835677,0 0.693821,0 1.396736,-0.024847 2.088875,-0.063299 0.465469,-0.025859 0.92736,-0.1588828 1.392583,-0.1898977 0.441929,-0.029462 0.888322,-0.023212 1.329284,-0.063299 0.180806,-0.016437 0.388887,-0.1101616 0.569693,-0.1265985 0.98899,-0.0899081 -0.162717,0.1326182 1.012788,-0.063299 0.466987,-0.0778312 0.924863,-0.24967905 1.392583,-0.31649616 0.23904,-0.0341485 0.519695,0 0.759591,0 0.392989,0 0.813011,-0.0432971 1.202685,0 0.301189,0.0334655 0.585,0.15643225 0.886189,0.1898977 0.594347,0.0660384 1.238319,0 1.835679,0 0.836226,0 1.699504,0.0693722 2.531967,0 0.385067,-0.0320887 0.755775,-0.15153634 1.139389,-0.1898977 0.251939,-0.0251942 0.507137,0.0194194 0.759589,0 0.489826,-0.0376789 0.338784,-0.10568157 0.886191,-0.18989767 0.104269,-0.016042 0.211201,0.006581 0.316494,0 0.471178,-0.0294485 0.928952,-0.0686446 1.392584,-0.12659847 0.386837,-0.0483548 0.81338,0 1.202685,0 0.629012,0 1.271066,-0.0369359 1.898978,0 0.898843,0.0528731 0.245811,0.0484123 0.949486,0.12659847 0.53458,0.0593976 1.10802,0 1.645783,0 1.143894,0 2.275938,0.003182 3.418157,0.0632992 0.183862,0.009677 0.4631,-0.056631 0.632992,0 0.06935,0.0231156 -0.06218,0.18822281 -0.0633,0.18989767 -0.107315,0.16097216 -0.02175,0.27691496 -0.0633,0.44309466 -0.03888,0.1555155 -0.152231,0.1902888 -0.253196,0.3164962 -0.167481,0.2093487 -0.02897,0.5825577 -0.0633,0.82289 -0.0123,0.086122 -0.051,0.1670748 -0.0633,0.2531969 -0.01492,0.1044385 0.02559,0.2141474 0,0.3164962 -0.01146,0.045772 -0.05405,0.080334 -0.0633,0.1265983 -0.04709,0.2354678 -0.03436,1.1177313 0,1.3925833 0.02984,0.2387164 0.146862,0.4595979 0.189899,0.6962915 0.04497,0.2473212 -0.09519,0.6482255 0,0.8861894 0.03325,0.083116 0.161589,0.1049726 0.189897,0.1898975 0.01333,0.040034 -0.01334,0.086565 0,0.1265984 0.0094,0.028308 0.0422,0.0422 0.0633,0.063299 0.02111,0.042199 0.05186,0.080826 0.0633,0.1265984 0.10672,0.426879 0.119147,1.072398 0.0633,1.5191816 -0.04608,0.3686162 -0.0484,0.033506 -0.189897,0.3164962 -0.0633,0.1265984 0.03165,0.094949 0,0.1898975 -0.0072,0.021614 -0.180827,0.307426 -0.189897,0.3164962 -0.01492,0.01492 -0.0422,0 -0.0633,0 -0.226116,0 -0.115065,-0.051767 -0.253196,-0.1898975 -0.01029,-0.010298 -0.405061,-0.2341798 -0.443095,-0.253197 -0.138284,-0.069143 -0.507354,-0.2885766 -0.632992,-0.3164962 -0.30299,-0.067331 -0.701265,0 -1.012788,0 -0.189896,0 -0.380738,-0.018897 -0.569692,0 -0.294688,0.029469 -0.523309,0.1471004 -0.822892,0.1898978 -0.125325,0.017904 -0.253971,-0.013981 -0.379793,0 -0.132631,0.014737 -0.247693,0.1077262 -0.379796,0.1265984 -0.369938,0.052848 -0.764225,0.09774 -1.139386,0.1265983 -0.754526,0.058041 -1.522484,-0.032882 -2.278774,0 -1.015884,0.044169 -2.021652,0.063299 -3.038361,0.063299 -0.499595,0 -1.022104,-0.045189 -1.519182,0 -1.751018,0.1591837 -3.553249,0.063299 -5.317136,0.063299 -2.285596,0 -4.550612,0.063299 -6.836317,0.063299 -1.604655,0 0.178558,0.04094 -0.759591,-0.063299 -0.745112,-0.08279 -1.644689,0 -2.405371,0 -0.58445,0 -1.142494,0.095467 -1.709079,0.1898975 -0.476736,0.079456 -1.088468,0 -1.582481,0 -0.640139,0 -1.260294,-0.027817 -1.898977,-0.063299 -0.314665,-0.017481 -0.635527,0.026165 -0.949488,0 -0.127902,-0.010657 -0.251894,-0.052641 -0.3797959,-0.063299 -0.2312953,-0.019275 -0.4659866,0.028788 -0.6962915,0 -0.066208,-0.00828 -0.1238451,-0.053863 -0.1898976,-0.063299 -0.1879891,-0.026856 -0.3804515,0.015769 -0.5696931,0 C 7.8918511,8.6280825 7.3612141,8.5345867 6.836317,8.4820971 6.0957171,8.408037 5.3662241,8.2277161 4.6208439,8.1656009 c -0.2022065,-0.016851 -0.5008385,-0.048863 -0.6962915,0 -0.045772,0.011443 -0.080334,0.054046 -0.1265984,0.063299 -0.2787788,0.055756 -0.822017,0.01796 -1.1393863,0.063299 -0.1490983,0.021299 -0.2642348,0.068818 -0.3797954,0.1265984 -0.068299,0.034149 -0.8721329,0.063299 -0.9494884,0.0633 z" />
  </g>
</svg>
