<?xml version="1.0" encoding="UTF-8" standalone="no"?>
<!-- Created with Inkscape (http://www.inkscape.org/) -->

<svg
   width="275.5"
   height="47"
   viewBox="0 0 72.892707 12.435417"
   version="1.1"
   id="svg1"
   inkscape:version="1.3.2 (091e20e, 2023-11-25, custom)"
   sodipodi:docname="findmerch.svg"
   xmlns:inkscape="http://www.inkscape.org/namespaces/inkscape"
   xmlns:sodipodi="http://sodipodi.sourceforge.net/DTD/sodipodi-0.dtd"
   xmlns="http://www.w3.org/2000/svg"
   xmlns:svg="http://www.w3.org/2000/svg">
  <sodipodi:namedview
     id="namedview1"
     pagecolor="#ffffff"
     bordercolor="#000000"
     borderopacity="0.25"
     inkscape:showpageshadow="2"
     inkscape:pageopacity="0.0"
     inkscape:pagecheckerboard="0"
     inkscape:deskcolor="#d1d1d1"
     inkscape:document-units="mm"
     inkscape:zoom="2.955623"
     inkscape:cx="123.83176"
     inkscape:cy="35.017998"
     inkscape:window-width="2560"
     inkscape:window-height="1369"
     inkscape:window-x="-8"
     inkscape:window-y="-8"
     inkscape:window-maximized="1"
     inkscape:current-layer="layer1" />
  <defs
     id="defs1">
    <rect
       x="3.7217196"
       y="5.7517484"
       width="265.59544"
       height="33.833814"
       id="rect1" />
    <inkscape:path-effect
       effect="spiro"
       id="path-effect1"
       is_visible="true"
       lpeversion="1" />
  </defs>
  <g
     inkscape:label="Layer 1"
     inkscape:groupmode="layer"
     id="layer1">
    <path
       style="fill:#ff9500;stroke:#ff9500;stroke-width:0.343958;fill-opacity:1;stroke-opacity:1"
       d="M 0.8056677,11.368866 C 1.2176525,10.941002 1.5270528,10.415022 1.700854,9.8470497 1.7638539,9.64117 1.8093854,9.4216484 1.7626251,9.2114843 1.739245,9.1064023 1.6922501,9.0055335 1.6199699,8.9257561 1.5476897,8.8459787 1.4493073,8.78834 1.3427795,8.772826 c -0.048633,-0.00708 -0.098358,-0.00553 -0.1466038,-0.014893 -0.024123,-0.00468 -0.047889,-0.012158 -0.069256,-0.024293 -0.021368,-0.012135 -0.0403,-0.029116 -0.052696,-0.050333 -0.017465,-0.029895 -0.020882,-0.065612 -0.029866,-0.09905 -0.00449,-0.016719 -0.010537,-0.033221 -0.020184,-0.047595 -0.00965,-0.014374 -0.023166,-0.026568 -0.0394687,-0.032392 -0.0141602,-0.00506 -0.0296117,-0.00512 -0.0445936,-0.00383 -0.0149819,0.00129 -0.0298883,0.00385 -0.0449251,0.00383 -0.0226925,-3.23e-5 -0.0452607,-0.00606 -0.0653115,-0.016687 -0.0200508,-0.010626 -0.037594,-0.025785 -0.0516242,-0.04362 C 0.75019005,8.4082917 0.73665581,8.3626077 0.73485289,8.3172585 0.73124705,8.22656 0.77150655,8.1407736 0.8056677,8.056677 0.95579617,7.6870966 1.0001984,7.284915 1.0742236,6.8929347 1.141361,6.5374269 1.2341495,6.1735857 1.1637422,5.818711 1.1016613,5.5058041 0.91885066,5.2329622 0.77548403,4.9479872 0.70380071,4.8054997 0.64100827,4.6571637 0.60874182,4.5009585 0.57647538,4.3447533 0.57589013,4.1795554 0.62663043,4.0283383 0.66913786,3.9016569 0.7455158,3.789582 0.8056677,3.670264 0.95799259,3.3681105 1.0032823,3.0062065 0.89518632,2.6855589 0.82248382,2.4698999 0.68480222,2.2789525 0.62663043,2.0589286 0.56909455,1.8413099 0.59340323,1.6114135 0.62023753,1.3879225 0.64707182,1.1644316 0.6758262,0.93580342 0.62663043,0.71614905 0.61311855,0.65581978 0.59377125,0.59651667 0.58753534,0.53500809 c -0.003118,-0.0307543 -0.002896,-0.0620101 0.003003,-0.092354 0.005899,-0.0303438 0.0176152,-0.0597976 0.0360922,-0.0845796 0.0294044,-0.0394381 0.0745904,-0.0651117 0.12205577,-0.0780354 0.0474654,-0.0129237 0.0973719,-0.0140131 0.14650012,-0.0114833 C 1.0703837,0.27757773 1.2410421,0.33157265 1.399349,0.40716671 1.5576558,0.48276076 1.7047157,0.57972876 1.8492842,0.67910423 2.1384211,0.87785519 2.4314688,1.0927832 2.7750775,1.1637422 2.998014,1.209781 3.2307387,1.1916316 3.4519109,1.1377513 3.6730832,1.083871 3.8841726,0.99514716 4.0907421,0.89949533 4.5038812,0.70819168 4.9172679,0.48366252 5.3711181,0.44759316 5.8294577,0.41116701 6.2775818,0.57112952 6.7138975,0.71614905 7.3211061,0.91796875 7.9638556,1.097033 8.5937888,0.98470497 c 0.2767706,-0.049353 0.5420749,-0.1539342 0.8204224,-0.19343568 0.1391737,-0.0197507 0.2819189,-0.0228744 0.4195586,0.005669 0.1376397,0.0285435 0.2702832,0.0900733 0.3713542,0.18776664 0.101694,0.0982947 0.166882,0.22747463 0.228439,0.35480933 0.06156,0.1273348 0.122888,0.2577236 0.219154,0.3613397 0.05778,0.06219 0.126538,0.112919 0.191398,0.1676832 0.06486,0.054764 0.127182,0.1152513 0.166677,0.1903914 0.04832,0.091929 0.05884,0.1983259 0.08717,0.2982407 0.01417,0.049957 0.03318,0.099104 0.06263,0.141871 0.02945,0.042767 0.07005,0.079004 0.118759,0.097 0.03256,0.012029 0.06764,0.01565 0.100669,0.026328 0.01651,0.00534 0.03259,0.012511 0.0465,0.022887 0.01391,0.010376 0.02561,0.024119 0.03187,0.040304 0.0055,0.014087 0.0066,0.029514 0.0058,0.044597 -8.24e-4,0.015083 -0.0036,0.029981 -0.0058,0.044922 -0.02008,0.1349467 0.0051,0.2754009 0.06574,0.3976176 0.06064,0.1222168 0.155904,0.2261947 0.269232,0.3021594 0.226657,0.1519292 0.51793,0.1877806 0.786231,0.13808 0.268302,-0.049701 0.51629,-0.1785062 0.741106,-0.3331454 0.224816,-0.1546393 0.429924,-0.3357895 0.644216,-0.5047116 0.169257,-0.1334224 0.345267,-0.2598626 0.537111,-0.3580744 0.497616,-0.2547477 1.070546,-0.3059452 1.611336,-0.4475932 0.08657,-0.022674 0.173198,-0.048012 0.252401,-0.08966 0.0792,-0.041648 0.151251,-0.1009419 0.195192,-0.1788959 0.03283,-0.058243 0.04942,-0.1255419 0.08952,-0.1790373 0.04068,-0.05427 0.102118,-0.089385 0.165279,-0.1141048 0.06316,-0.02472 0.129518,-0.040513 0.192796,-0.064932 0.12543,-0.048403 0.235169,-0.12913 0.348111,-0.2020656 0.112942,-0.072936 0.234528,-0.1401824 0.368038,-0.15600893 0.05935,-0.007035 0.119385,-0.003662 0.179037,0 0.302308,0.0185579 0.614231,0.043086 0.900601,-0.0555403 0.143185,-0.0493132 0.277472,-0.13021971 0.376452,-0.24483489 0.09898,-0.11461518 0.160493,-0.26442615 0.155246,-0.41577391 -0.001,-0.0298765 -0.0046,-0.059978 0,-0.0895186 0.0075,-0.0480786 0.03695,-0.09162076 0.07691,-0.11937898 0.03996,-0.02775822 0.08965,-0.04016234 0.138256,-0.0380835 0.04861,0.0020788 0.09609,0.01814832 0.138001,0.04286421 0.04191,0.02471589 0.07843,0.05788608 0.11006,0.09485954 0.06325,0.0739469 0.106832,0.16222001 0.155708,0.24636384 0.04888,0.0841438 0.105708,0.16708172 0.186735,0.22096806 0.07668,0.0509976 0.169432,0.0724426 0.261063,0.0816602 0.09163,0.009218 0.183956,0.007858 0.276049,0.007858 h 5.102562 4.296896 c 0.358869,0 0.717583,-0.0128535 1.075846,-0.0337095 0.358263,-0.0208559 0.722003,-0.0429059 1.072599,0.0337095 0.184599,0.0403403 0.361916,0.10825104 0.537112,0.17903727 0.287159,0.11602397 0.572116,0.24088497 0.87157,0.31993697 0.299453,0.079052 0.61774,0.1108251 0.918802,0.038138 0.431823,-0.1042582 0.79063,-0.41185631 1.218371,-0.5317688 0.213871,-0.0599562 0.44947,-0.0693699 0.652983,0.0196133 0.101756,0.0444916 0.193598,0.1133519 0.259914,0.20243621 0.06632,0.0890843 0.106262,0.19866243 0.1067,0.30971933 2.36e-4,0.059805 -0.01067,0.1201903 0,0.1790372 0.012,0.066223 0.0502,0.1244156 0.08952,0.1790373 0.123977,0.1722264 0.269899,0.3315928 0.447596,0.4475932 0.219054,0.1429983 0.478244,0.2146469 0.737946,0.2460823 0.259701,0.031435 0.52228,0.024634 0.783868,0.022473 0.657909,-0.00543 1.320405,0.01849 1.969411,-0.089519 0.271448,-0.045175 0.538492,-0.1131467 0.805669,-0.1790372 0.704139,-0.1736533 1.426212,-0.334475 2.148446,-0.268556 0.179953,0.016425 0.358562,0.046877 0.538922,0.057974 0.18036,0.011097 0.364899,0.00216 0.535302,-0.057974 0.10727,-0.037853 0.206936,-0.094073 0.309517,-0.1432352 0.102581,-0.049162 0.209198,-0.089349 0.317114,-0.1253207 0.268556,-0.089519 0.537111,-0.1790372 0.805667,-0.2685558 0.268556,-0.089519 0.537111,-0.1790373 0.805667,-0.26855592 0.0288,-0.009599 0.05891,-0.0165791 0.0892,-0.0145063 0.03028,0.002073 0.05961,0.0117422 0.08984,0.0145063 0.03872,0.003541 0.07799,-0.005653 0.112998,-0.0225699 0.03501,-0.0169168 0.066,-0.0413203 0.09364,-0.0686724 0.05528,-0.0547043 0.09764,-0.12115462 0.151439,-0.17731356 0.08752,-0.0913635 0.203623,-0.15284786 0.326074,-0.18467113 0.122452,-0.0318233 0.251169,-0.0349697 0.376836,-0.0203099 0.251334,0.0293197 0.488429,0.12773356 0.729388,0.204981 0.951646,0.30508214 1.994747,0.27985306 2.954115,0 0.412351,-0.12028509 0.824171,-0.28815671 1.25326,-0.26855589 0.260484,0.0118989 0.512548,0.0929009 0.770636,0.13010197 0.129044,0.0186005 0.260583,0.0261897 0.389759,0.008535 0.129177,-0.0176543 0.256327,-0.061479 0.361422,-0.13863734 0.06057,-0.0444652 0.112809,-0.0990847 0.168893,-0.14908354 0.05608,-0.0499988 0.117705,-0.0963201 0.189184,-0.11947236 0.087,-0.0281803 0.183236,-0.0195275 0.268982,0.0122716 0.08575,0.0317991 0.161897,0.0855193 0.230046,0.1465038 0.136299,0.12196907 0.245103,0.27520464 0.396158,0.3783364 0.18158,0.12397235 0.407289,0.16384991 0.626628,0.17903727 0.268018,0.0185579 0.537054,0.004846 0.80567,0 1.253851,-0.0226201 2.507098,0.14813477 3.759782,0.0895187 0.119364,-0.005585 0.239315,-0.0132356 0.358074,0 0.227075,0.0253074 0.438599,0.12551687 0.639247,0.23480457 0.200648,0.1092878 0.397288,0.2299672 0.614015,0.3023072 0.429411,0.1433307 0.898136,0.085031 1.342779,0 0.385964,-0.073809 0.770969,-0.1669229 1.163741,-0.1790372 0.225735,-0.00696 0.451443,0.012974 0.677284,0.013359 0.225842,3.846e-4 0.455531,-0.019699 0.665497,-0.1028776 0.06211,-0.024605 0.122086,-0.054594 0.179036,-0.089519 0.168887,-0.070851 0.354375,-0.1017662 0.537112,-0.089519 0.204071,0.013677 0.401602,0.079925 0.605401,0.09718 0.1019,0.00863 0.20592,0.00471 0.304135,-0.023779 0.09822,-0.028492 0.190602,-0.082842 0.254207,-0.1629199 0.02685,-0.033807 0.04829,-0.0716674 0.07543,-0.10524462 0.02714,-0.0335772 0.06166,-0.0635865 0.103607,-0.0737927 0.02218,-0.005397 0.04543,-0.004992 0.06807,-0.002081 0.02264,0.002911 0.04489,0.008276 0.06728,0.0127448 0.02239,0.004468 0.04512,0.008057 0.06794,0.007343 0.02282,-7.1407e-4 0.04588,-0.005939 0.06526,-0.0180075 0.01798,-0.0111994 0.03197,-0.0276722 0.04539,-0.0440643 0.01342,-0.0163922 0.02684,-0.0332102 0.04413,-0.0454544 0.01873,-0.0132625 0.04127,-0.0205175 0.06406,-0.0232074 0.02279,-0.00269 0.04591,-9.832e-4 0.06859,0.002472 0.04538,0.006911 0.09001,0.020817 0.135905,0.0207352 0.06916,-1.2332e-4 0.137446,-0.034268 0.179038,-0.0895186 0.08656,-0.0379014 0.176569,-0.0679057 0.268555,-0.0895186 0.350438,-0.0823386 0.716604,-0.0411619 1.074224,0 0.151736,0.0174647 0.304273,0.03488 0.456843,0.0277142 0.152569,-0.007166 0.306516,-0.040094 0.438343,-0.11723281 0.04211,-0.0246408 0.08184,-0.0536835 0.126325,-0.0737163 0.02224,-0.0100164 0.04566,-0.0177282 0.06983,-0.0210395 0.02417,-0.003311 0.04914,-0.002127 0.0724,0.005237 0.02882,0.009125 0.05434,0.0276486 0.07323,0.0512437 0.0189,0.0235951 0.03129,0.0521061 0.03727,0.0817377 0.01196,0.0592633 -0.0015,0.12129318 -0.0259,0.17662764 -0.02436,0.0553345 -0.05915,0.10530509 -0.09215,0.15596279 -0.033,0.0506577 -0.06475,0.10310676 -0.08198,0.16105861 -0.01958,0.0658741 -0.01951,0.13623214 -0.0106,0.20437484 0.0089,0.068143 0.02643,0.1348128 0.04134,0.2018985 0.01491,0.067086 0.02731,0.1353319 0.02573,0.2040372 -0.0016,0.068705 -0.01794,0.1384491 -0.05647,0.1953571 -0.04742,0.07005 -0.123771,0.114993 -0.179038,0.1790373 -0.04562,0.052864 -0.07581,0.1177566 -0.09457,0.185016 -0.01876,0.067259 -0.02651,0.1371013 -0.03101,0.2067816 -0.009,0.1393607 -0.0059,0.2825706 -0.05345,0.41387 -0.04373,0.1206963 -0.127228,0.2223385 -0.212407,0.3183826 -0.08518,0.096044 -0.174662,0.1906457 -0.234355,0.3042969 -0.02985,0.056826 -0.0519,0.118197 -0.06024,0.1818403 -0.0083,0.063643 -0.0026,0.1296662 0.02109,0.1893206 0.02369,0.059654 0.06591,0.1125754 0.121308,0.1449949 0.0554,0.03242 0.124037,0.043184 0.185567,0.024907 0.04953,-0.014714 0.09283,-0.046954 0.143118,-0.058835 0.02514,-0.00594 0.05224,-0.00643 0.07623,0.00315 0.012,0.00479 0.02306,0.012072 0.03177,0.021618 0.0087,0.00955 0.01499,0.021384 0.01743,0.034069 0.0028,0.014753 4.96e-4,0.029942 -0.0014,0.044847 -0.0019,0.014906 -0.0033,0.030385 0.0014,0.044671 0.004,0.01228 0.01235,0.022928 0.02271,0.030641 0.01036,0.00771 0.02266,0.012594 0.03531,0.015181 0.02531,0.00517 0.05148,0.00138 0.07705,-0.0023 0.02557,-0.00368 0.05183,-0.0072 0.07702,-0.00151 0.0126,0.00285 0.02478,0.00805 0.03489,0.01608 0.01012,0.00803 0.01808,0.018988 0.02157,0.031423 0.0041,0.014477 0.002,0.029878 -1.31e-4,0.044769 -0.0021,0.014891 -0.0041,0.030322 1.31e-4,0.04475 0.0049,0.016721 0.01809,0.030371 0.03388,0.037748 0.01579,0.00738 0.03392,0.00885 0.05115,0.00622 0.03445,-0.00526 0.0643,-0.025755 0.09401,-0.043972 0.09436,-0.057852 0.200982,-0.097619 0.311322,-0.1063197 0.11034,-0.0087 0.224405,0.014856 0.317651,0.074486 0.09325,0.059629 0.163899,0.1565566 0.183484,0.2654925 0.0098,0.054468 0.0069,0.1113093 -0.0094,0.1641752 -0.01637,0.052866 -0.04631,0.1016208 -0.08686,0.1392781 -0.01555,0.014441 -0.03257,0.027219 -0.04846,0.041279 -0.0159,0.01406 -0.03084,0.029636 -0.04106,0.04824 -0.01094,0.019928 -0.01604,0.042688 -0.01726,0.065388 -0.0012,0.0227 0.0013,0.045444 0.0049,0.067897 0.0071,0.044906 0.01842,0.090204 0.0124,0.1352706 -0.0043,0.032493 -0.01766,0.063428 -0.03614,0.090504 -0.01848,0.027077 -0.04201,0.050438 -0.0676,0.070929 -0.05118,0.040982 -0.110353,0.070618 -0.164813,0.1071232 -0.10972,0.073546 -0.199191,0.1744622 -0.271316,0.2851216 -0.07212,0.1106594 -0.12765,0.2312496 -0.178434,0.3531858 -0.101568,0.2438724 -0.188234,0.5003358 -0.355919,0.7044719 -0.160997,0.1959948 -0.38785,0.332039 -0.537112,0.5371118 -0.102487,0.1408079 -0.16392,0.3083739 -0.268555,0.447593 -0.110153,0.1465606 -0.263185,0.2550194 -0.421041,0.3482654 -0.157857,0.093246 -0.323418,0.1739866 -0.474145,0.2783651 -0.191694,0.132748 -0.355686,0.3011248 -0.537112,0.4475933 -0.08905,0.071894 -0.183912,0.1393685 -0.291549,0.1782708 -0.107638,0.038902 -0.230318,0.046851 -0.335082,7.664e-4 -0.07677,-0.033772 -0.138723,-0.093537 -0.209605,-0.1383737 -0.03544,-0.022419 -0.07367,-0.041298 -0.11464,-0.050237 -0.04097,-0.00894 -0.08501,-0.00742 -0.123348,0.00957 -0.02948,0.013062 -0.05479,0.034976 -0.07291,0.061642 -0.01812,0.026666 -0.02912,0.057962 -0.03283,0.089988 -0.0074,0.064052 0.01442,0.1293805 0.05196,0.1818052 0.03754,0.052425 0.08983,0.092871 0.145984,0.1245653 0.05615,0.031695 0.116468,0.055208 0.176355,0.079111 0.186319,0.074367 0.372181,0.1543462 0.53711,0.2685558 0.133866,0.0927 0.251679,0.2063944 0.378977,0.3079248 0.127299,0.1015304 0.268023,0.1926147 0.426692,0.2291867 0.108451,0.025 0.221158,0.02358 0.331258,0.03984 0.05505,0.0081 0.109765,0.02079 0.160855,0.04285 0.05109,0.02206 0.09859,0.05384 0.134516,0.09634 0.01378,0.0163 0.02577,0.03405 0.0397,0.05022 0.01393,0.01617 0.03017,0.03097 0.04982,0.0393 0.02776,0.01176 0.05929,0.0095 0.08914,0.0053 0.02985,-0.0042 0.06016,-0.01023 0.08989,-0.0053 0.03832,0.0064 0.07294,0.03199 0.09032,0.06674 0.01738,0.03475 0.01707,0.0778 -8e-4,0.112299 l 0.179036,0.08952 c 0.0671,0.03355 0.132918,0.07043 0.191522,0.117269 0.0586,0.04684 0.110296,0.101654 0.166554,0.151287 0.06359,0.0561 0.135239,0.106429 0.179036,0.179038 0.04207,0.06975 0.05418,0.156005 0.03753,0.235745 -0.01666,0.07974 -0.06108,0.152667 -0.121134,0.207705 -0.06006,0.05504 -0.135205,0.09254 -0.214245,0.112247 -0.07904,0.01971 -0.161895,0.02201 -0.242696,0.01165 -0.161601,-0.0207 -0.31259,-0.09062 -0.456015,-0.167909 -0.143425,-0.07728 -0.283175,-0.163228 -0.435734,-0.220406 -0.31091,-0.116527 -0.653098,-0.106257 -0.984705,-0.08952 -0.417775,0.02109 -0.837939,0.04989 -1.25326,0 -0.541446,-0.06504 -1.066027,-0.262897 -1.611336,-0.268556 -0.149245,-0.0015 -0.298776,0.0114 -0.447593,0 -0.245976,-0.01884 -0.481371,-0.10328 -0.716148,-0.179037 -0.694328,-0.224042 -1.419156,-0.37856 -2.148448,-0.358075 -0.209047,0.0059 -0.419129,0.02604 -0.626631,0 -0.24437,-0.03066 -0.476034,-0.124243 -0.716148,-0.179037 -0.423274,-0.09659 -0.864016,-0.07104 -1.296565,-0.03373 -0.432549,0.03732 -0.868463,0.08586 -1.299477,0.03373 -0.301408,-0.03646 -0.594944,-0.121617 -0.895228,-0.166401 -0.300284,-0.044784 -0.61781,-0.04666 -0.895143,0.07688 -0.104691,0.04664 -0.200971,0.109966 -0.30211,0.163873 -0.10114,0.05391 -0.21005,0.09909 -0.324522,0.104683 -0.05988,0.0029 -0.119663,-0.0051 -0.179424,-0.0098 -0.05976,-0.0047 -0.120829,-0.0061 -0.17865,0.0098 -0.05235,0.01433 -0.100094,0.04225 -0.143648,0.07464 -0.04356,0.03239 -0.08344,0.06938 -0.124906,0.104403 -0.231437,0.195459 -0.511578,0.328132 -0.80313,0.410377 -0.291553,0.08225 -0.595002,0.115538 -0.897726,0.126735 -1.105776,0.0409 -2.225326,-0.207705 -3.312189,0 -0.848278,0.16211 -1.64338,0.597641 -2.506522,0.62663 -0.208797,0.007 -0.417964,-0.01016 -0.626631,0 -0.485744,0.02366 -0.951729,0.193985 -1.432298,0.268556 -0.738337,0.114569 -1.490793,0.001 -2.237965,0 -0.62727,-8.68e-4 -1.257446,0.07766 -1.879891,0 -0.360325,-0.04495 -0.713021,-0.141797 -1.074224,-0.179037 -0.225733,-0.02327 -0.453225,-0.02309 -0.679543,-0.03974 -0.226318,-0.01665 -0.454225,-0.05092 -0.663236,-0.139298 -0.122941,-0.05199 -0.237446,-0.121889 -0.358074,-0.179037 -0.393313,-0.186333 -0.836954,-0.23118 -1.253263,-0.358074 -0.452076,-0.137796 -0.875993,-0.37362 -1.342778,-0.447594 -0.431588,-0.06839 -0.872096,0.0062 -1.300183,0.09385 -0.428088,0.08768 -0.859125,0.189185 -1.295859,0.174702 -0.119474,-0.004 -0.239691,-0.01659 -0.358074,0 -0.187292,0.02624 -0.356372,0.123361 -0.537112,0.179038 -0.258191,0.07954 -0.534128,0.07292 -0.803999,0.06033 -0.269871,-0.01259 -0.543755,-0.03009 -0.807334,0.02919 -0.09222,0.02074 -0.182339,0.05078 -0.268558,0.08952 -0.101203,0.08928 -0.225932,0.15164 -0.358074,0.179037 -0.234357,0.04859 -0.477122,-0.01222 -0.71615,0 -0.246557,0.0126 -0.481537,0.102182 -0.716148,0.179037 -1.239031,0.405888 -2.602523,0.470948 -3.849301,0.08952 -0.08916,-0.02728 -0.178603,-0.05696 -0.271512,-0.06484 -0.09291,-0.0079 -0.19146,0.0083 -0.2656,0.06484 -0.03361,0.02563 -0.0609,0.05842 -0.08952,0.08952 -0.203689,0.221308 -0.484834,0.363258 -0.778672,0.427488 -0.293839,0.06423 -0.600295,0.05415 -0.89671,0.0031 -0.592831,-0.102068 -1.145635,-0.363075 -1.726325,-0.520128 -0.350945,-0.09492 -0.711704,-0.151645 -1.074224,-0.179038 -0.477197,-0.03606 -0.958583,-0.02162 -1.432298,-0.08952 -0.301287,-0.04319 -0.596736,-0.119317 -0.895186,-0.179037 -0.999699,-0.20004 -2.025535,-0.214813 -3.043634,-0.268556 -0.835755,-0.04412 -1.677502,-0.11471 -2.506522,0 -0.690616,0.09556 -1.362843,0.31873 -2.058928,0.358074 -0.626284,0.0354 -1.2576242,-0.07917 -1.8798914,0 -0.2093809,0.02664 -0.4160557,0.07509 -0.6266304,0.08952 -0.2978976,0.02042 -0.597872,-0.02764 -0.8951865,0 -0.29269,0.02721 -0.5731245,0.126764 -0.850144,0.22509 -0.2770196,0.09833 -0.5578615,0.197055 -0.8507101,0.222503 -0.267644,0.02326 -0.5370149,0 -0.8056676,0 H 2.9541189 c -0.032743,0 -0.065663,0.0011 -0.097734,0.0077 -0.032071,0.0066 -0.062787,0.01839 -0.093528,0.02966 -0.030742,0.01127 -0.062891,0.02201 -0.095514,0.01921 -0.016312,-0.0014 -0.032543,-0.0064 -0.045758,-0.01609 -0.013215,-0.0097 -0.023187,-0.02424 -0.02554,-0.04044 -0.00219,-0.01507 0.00213,-0.03021 0.00482,-0.0452 0.00134,-0.0075 0.00229,-0.01512 0.0018,-0.02272 -4.904e-4,-0.0076 -0.00248,-0.01521 -0.00662,-0.0216 -0.00439,-0.0068 -0.011076,-0.01193 -0.01853,-0.01503 -0.00745,-0.0031 -0.015649,-0.0042 -0.023716,-0.0039 -0.016133,7.06e-4 -0.031422,0.0071 -0.046107,0.01381 -0.014685,0.0067 -0.029432,0.01394 -0.045375,0.01651 -0.00797,0.0013 -0.016194,0.0014 -0.024073,-4.04e-4 -0.00788,-0.0018 -0.015407,-0.0054 -0.021235,-0.01102 -0.00573,-0.0055 -0.00968,-0.01271 -0.011812,-0.02036 -0.00213,-0.0076 -0.0025,-0.01572 -0.00169,-0.02362 0.00162,-0.0158 0.0078,-0.03071 0.0135,-0.04553 0.08577,-0.223169 0.069399,-0.483345 -0.043669,-0.694003 -0.1130677,-0.210658 -0.3208461,-0.368098 -0.5542366,-0.419963 -0.2333904,-0.05186 -0.4882939,0.0028 -0.6799398,0.145701 -0.19164595,0.142944 -0.31666841,0.371699 -0.33349,0.61019 z"
       id="path1"
       inkscape:path-effect="#path-effect1"
       inkscape:original-d="M 0.8056677,11.368866 C 1.3272087,10.923682 1.6435313,10.534922 1.700854,9.8470497 1.7322593,9.4701862 1.7187396,8.9984021 1.3427795,8.772826 1.2618657,8.7242776 1.1497123,8.739924 1.0742236,8.6833074 1.020845,8.6432733 1.0318854,8.5514504 0.98470497,8.5042702 c -0.0210997,-0.021101 -0.076174,0.026689 -0.0895187,0 C 0.8271417,8.3681807 0.84257009,8.2042864 0.8056677,8.056677 0.69077836,7.5971195 0.97421678,7.3262976 1.0742236,6.8929347 1.1628625,6.508833 1.0400176,6.1898849 1.1637422,5.818711 1.3872493,5.1481897 0.79542478,4.6191188 0.62663043,4.0283383 0.54361489,3.737784 0.70183266,3.9298514 0.8056677,3.670264 0.8501228,3.5591263 0.92385585,2.8289067 0.89518632,2.6855589 0.82960037,2.3576292 0.77556433,2.3567963 0.62663043,2.0589286 c -0.0974256,-0.1948511 0,-1.06911678 0,-1.34277955 0,-0.11935817 -0.084399,-0.27367555 0,-0.35807451 C 0.64732561,0.33737936 0.82169298,0.23180922 0.89518632,0.26855589 1.5185211,0.58022331 2.1091208,1.0305509 2.7750775,1.1637422 3.7352139,1.3557695 4.4335824,0.56478511 5.3711181,0.44759316 c 0.5385945,-0.0673243 0.7620063,0.15240127 1.3427794,0.26855589 0.6207001,0.12414001 1.2507703,0.19865361 1.8798913,0.26855592 0.4433594,0.0492621 1.208133,-0.13440074 1.6113352,0 0.142168,0.0473893 0.352757,0.59421593 0.447593,0.71614903 0.103632,0.1332411 0.261276,0.2197899 0.358075,0.3580746 0.11479,0.1639854 0.152209,0.3742269 0.268556,0.5371117 0.03878,0.054295 0.131856,0.042338 0.179037,0.089519 0.0211,0.0211 -0.02669,0.076174 0,0.089519 0.120268,0.060134 2.284795,0.044345 2.506522,0 0.540671,-0.1081342 0.195972,-0.1533909 0.537111,-0.3580744 0.474573,-0.2847437 1.104647,-0.2575849 1.611336,-0.4475932 0.162914,-0.061093 0.324561,-0.1455243 0.447593,-0.2685559 0.04718,-0.047181 0.03614,-0.1390033 0.08952,-0.1790373 0.106758,-0.080068 0.238717,-0.1193581 0.358075,-0.1790372 0.206318,-0.103159 0.519269,-0.2924479 0.716149,-0.35807453 0.05662,-0.0188722 0.120517,0.0117041 0.179037,0 0.41401,-0.0828019 1.13063,-0.41448037 1.432299,-0.71614908 0.0211,-0.0210997 -0.0211,-0.0684189 0,-0.0895186 0.206269,-0.20626934 0.664426,0.37697238 0.805667,0.44759317 0.197638,0.0988191 0.333301,0.0895186 0.537112,0.0895186 1.700854,0 3.401708,0 5.102562,0 1.432299,0 2.864598,0 4.296896,0 0.611732,0 1.531268,-0.11221424 2.148445,0 0.18568,0.0337596 0.353084,0.13721252 0.537112,0.17903727 0.593477,0.13488077 1.190043,0.25801967 1.790372,0.35807457 0.52746,0.08791 1.895851,-0.1368459 2.237968,0 0.05541,0.022164 -0.01447,0.12114 0,0.1790372 0.01619,0.064731 0.04949,0.1256587 0.08952,0.1790373 0.126601,0.1687979 0.278797,0.3209947 0.447596,0.4475932 0.38127,0.2859532 1.055148,0.2865046 1.521814,0.2685558 0.656665,-0.025256 1.315318,-0.026219 1.969411,-0.089519 0.273827,-0.026499 0.534746,-0.1312277 0.805669,-0.1790372 0.69237,-0.1221833 1.447472,-0.2247451 2.148446,-0.268556 0.357378,-0.022336 0.719748,0.050639 1.074224,0 0.215535,-0.030791 0.419481,-0.1995065 0.626631,-0.2685559 0.263927,-0.087976 0.54174,-0.18058 0.805667,-0.2685558 0.266367,-0.088789 0.540737,-0.1802458 0.805667,-0.26855592 0.05662,-0.0188722 0.125658,0.0266893 0.179038,0 0.424162,-0.2120813 -0.604814,0.0524071 0.358074,-0.26855592 0.366622,-0.1222071 1.057143,0 1.432298,0 0.972585,0 1.983161,0.0647304 2.954115,0 0.44686,-0.0297907 0.82804,-0.22130914 1.25326,-0.26855589 0.498218,-0.0553575 1.025475,0.070906 1.521817,0 0.21571,-0.0308156 0.350271,-0.2685559 0.358077,-0.2685559 0.347985,0 0.579845,0.38995361 0.895186,0.53711179 0.196855,0.0918656 0.413612,0.13643395 0.626628,0.17903727 0.263343,0.0526681 0.537112,0 0.80567,0 1.259842,0 2.506207,-0.0244427 3.759782,0.0895187 0.118866,0.0108061 0.242279,-0.0289486 0.358074,0 0.441674,0.11041857 0.783174,0.43637887 1.253262,0.53711177 0.284877,0.061045 1.0521,0.024223 1.342779,0 0.402754,-0.033563 0.776232,-0.1236788 1.163741,-0.1790372 0.439822,-0.062832 0.903049,-0.034552 1.342781,-0.089519 0.06621,-0.00828 0.119356,-0.059679 0.179036,-0.089519 0.179038,-0.02984 0.356351,-0.073086 0.537112,-0.089519 0.767781,-0.069798 0.171175,0.131052 1.163743,-0.0895186 0.120267,-0.0267262 0.137404,-0.13740331 0.179036,-0.17903727 0.0633,-0.0632992 0.183631,0.0283083 0.268557,0 0.04003,-0.0133445 0.05177,-0.0706465 0.08952,-0.0895187 0.08007,-0.0400339 0.181708,0.0217114 0.268555,0 0.06473,-0.0161827 0.119359,-0.0596791 0.179038,-0.0895186 0.08952,-0.0298395 0.177012,-0.0666327 0.268555,-0.0895186 0.310364,-0.0775908 0.759066,0 1.074224,0 0.309526,0 0.602631,0.007999 0.895186,-0.0895186 0.08952,-0.0298395 0.201832,-0.15624188 0.268555,-0.0895186 0.114509,0.11450859 -0.07144,0.51817621 -0.08952,0.62663043 -0.0333,0.19982478 0.08972,0.62622818 0,0.80566768 -0.03775,0.075489 -0.141292,0.1035486 -0.179038,0.1790373 -0.04366,0.087327 -0.167735,0.754812 -0.179038,0.8056676 -0.01095,0.049262 -0.258027,1.0847512 -0.179036,1.1637423 0.0633,0.063299 0.188487,-0.040034 0.268555,0 0.02669,0.013345 -0.02109,0.068419 0,0.089518 0.06672,0.066724 0.201832,0.022797 0.268557,0.089519 0.02109,0.0211 -0.02669,0.076174 0,0.089519 0.05338,0.026689 0.123627,-0.022164 0.179036,0 0.172683,0.069073 0.764484,0.4404397 0.71615,0.5371118 -0.01886,0.037744 -0.07928,0.048579 -0.08952,0.089519 -0.02172,0.086846 0.04003,0.1884879 0,0.2685558 -0.05662,0.1132332 -0.189471,0.1696992 -0.268555,0.2685561 -0.322659,0.4033236 -0.478125,0.9333507 -0.805669,1.3427793 -0.153956,0.1924439 -0.400614,0.3323662 -0.537112,0.5371118 -0.04097,0.061448 -0.240318,0.4193562 -0.268555,0.447593 -0.273251,0.2732496 -0.577321,0.4279642 -0.895186,0.6266305 -1.005988,0.6287418 0.07574,-0.012049 -0.537112,0.4475933 -0.12541,0.094056 -0.47607,0.2166773 -0.626631,0.1790372 -0.04285,-0.010713 -0.408895,-0.2564347 -0.447593,-0.1790372 -0.0953,0.1905931 0.144121,0.4437851 0.268557,0.5371118 0.155192,0.116395 0.370512,0.1685967 0.53711,0.2685558 0.272436,0.1634613 0.52171,0.3951326 0.805669,0.5371115 0.166704,0.08335 0.455978,0.09371 0.626629,0.179038 0.03775,0.01887 0.04949,0.07617 0.08952,0.08952 0.05662,0.01887 0.129381,-0.0331 0.179038,0 0.05552,0.03701 0.05968,0.119359 0.08952,0.179038 0.05968,0.02984 0.119356,0.05968 0.179036,0.08952 0.133448,0.06672 0.224628,0.201833 0.358076,0.268556 0.08175,0.04088 0.282261,-0.02741 0.179036,0.179038 -0.168177,0.336355 -1.185458,0.179037 -1.432298,0.179037 -0.40168,0 -0.603266,-0.03503 -0.984705,-0.08952 -0.408784,-0.0584 -0.842153,0.04111 -1.25326,0 -0.539496,-0.05395 -1.073613,-0.214783 -1.611336,-0.268556 -0.148458,-0.01485 -0.299307,0.01648 -0.447593,0 -0.244557,-0.02717 -0.474864,-0.13078 -0.716148,-0.179037 -0.711255,-0.142251 -1.43283,-0.268622 -2.148448,-0.358075 -0.203163,-0.02539 -0.424482,0.03369 -0.626631,0 -0.242716,-0.04045 -0.471591,-0.151864 -0.716148,-0.179037 -0.852517,-0.09472 -1.740003,0.0535 -2.596042,0 -0.569939,-0.03562 -1.211905,-0.18593 -1.790371,-0.08952 -1.496074,0.249346 0.64817,-0.09567 -0.626632,0.268556 -0.114765,0.03279 -0.243308,-0.03279 -0.358074,0 -0.103449,0.02956 -0.172325,0.130923 -0.268554,0.179038 -0.516491,0.258244 -1.134076,0.466264 -1.700856,0.537112 -1.083244,0.135405 -2.22318,-0.07779 -3.312189,0 -0.850058,0.06072 -1.667999,0.506841 -2.506522,0.62663 -0.206777,0.02954 -0.420595,-0.03434 -0.626631,0 -0.487418,0.08124 -0.947087,0.187687 -1.432298,0.268556 -0.664483,0.110747 -1.558007,0 -2.237965,0 -0.604597,0 -1.27453,0.06054 -1.879891,0 -0.361212,-0.03612 -0.713013,-0.142916 -1.074224,-0.179037 -0.431017,-0.0431 -0.929235,-0.02396 -1.342779,-0.179038 -0.12495,-0.04686 -0.231476,-0.136838 -0.358074,-0.179037 -0.409546,-0.136515 -0.849175,-0.184894 -1.253263,-0.358074 -0.418533,-0.179372 -0.890621,-0.365383 -1.342778,-0.447594 -0.846069,-0.15383 -1.775315,0.165965 -2.596042,0.268556 -0.118435,0.0148 -0.241033,-0.02341 -0.358074,0 -0.185057,0.03701 -0.352054,0.142026 -0.537112,0.179038 -0.523862,0.104772 -1.085662,0.01442 -1.611333,0.08952 -0.09341,0.01335 -0.179039,0.05968 -0.268558,0.08952 -0.119359,0.05968 -0.226443,0.157098 -0.358074,0.179037 -0.235468,0.03924 -0.478136,-0.01831 -0.71615,0 -0.721262,0.05548 -0.190907,0.07399 -0.716148,0.179037 -1.211514,0.242303 -2.588873,0.08952 -3.849301,0.08952 -0.158764,0 -0.390218,-0.03672 -0.537112,0 -0.04094,0.01023 -0.04858,0.07928 -0.08952,0.08952 -0.53919,0.134797 -2.940872,-0.04763 -3.401707,-0.08952 -0.361523,-0.03287 -0.714395,-0.13106 -1.074224,-0.179038 -2.968596,-0.395812 0.976051,0.129423 -1.432298,-0.08952 -0.286941,-0.02609 -0.608246,-0.152952 -0.895186,-0.179037 -1.009501,-0.09177 -2.032888,-0.17667 -3.043634,-0.268556 -0.464792,-0.04225 -2.085077,-0.08429 -2.506522,0 -0.691673,0.138334 -1.355585,0.299462 -2.058928,0.358074 -0.621344,0.05178 -1.2595353,-0.06203 -1.8798914,0 -0.2099503,0.02099 -0.4159972,0.07713 -0.6266304,0.08952 -0.2978806,0.01752 -0.5986161,-0.03295 -0.8951865,0 -0.5817571,0.06464 -1.132024,0.352788 -1.7008541,0.447593 -0.2649019,0.04415 -0.5371115,0 -0.8056676,0 -0.716149,0 -1.432298,0 -2.1484471,0 -0.1193583,0 -0.2736757,0.0844 -0.3580746,0 -0.0211,-0.0211 0.0211,-0.06842 0,-0.08952 -0.042199,-0.0422 -0.1368377,0.0422 -0.1790372,0 -0.0211,-0.0211 0.023872,-0.07162 0,-0.08952 -0.467746,-0.35081 -1.059771,-0.358075 -1.6113354,-0.358075 z" />
    <path
       style="font-size:17.3333px;line-height:1.25;font-family:Titilliumweb_semibold;-inkscape-font-specification:Titilliumweb_semibold;text-align:center;text-anchor:middle;white-space:pre;fill:#ffffff;stroke-width:1.3"
       d="m 24.182469,10.77861 q 0.26,-0.052 0.693332,-0.052 0.416,0 0.831999,0.052 h 0.06933 q 0.06933,0 0.242666,-0.01733 0.190666,-0.03467 0.277333,-0.03467 0.121333,0 0.156,0.03467 0.08667,0.06933 0.225332,0.693332 0.156,0.623998 0.156,0.970664 0,0.294667 0.08667,0.381333 0.103999,0.104 -0.138667,0.277333 -0.346666,0.259999 -0.762665,0.259999 -0.277333,0 -0.623999,-0.103999 -0.450665,-0.121334 -0.589332,-0.121334 -0.207999,0 -0.311999,0.156 -0.08667,0.138667 -0.190667,0.502666 -0.103999,0.363999 -0.103999,0.502666 0,0.242666 0.398666,0.259999 0.08667,0.01733 0.225332,0.01733 0.08667,0 0.658666,-0.103999 0.259999,-0.052 0.381332,-0.052 0.190667,0 0.519999,0.190666 0.762666,0.415999 0.762666,1.126664 0,0.468 -0.346666,0.831999 -0.190667,0.190666 -0.364,0.277333 -0.155999,0.06933 -0.554665,0.138666 -0.346666,0.052 -0.693332,0.052 -0.519999,0 -1.005332,-0.121333 h -0.03467 l -0.03467,-0.01733 q -0.104,0 -0.138666,1.178665 0,0.138666 0,0.225333 0,0.06933 -0.01733,0.225333 0,0.138666 0,0.259999 -0.03467,1.143998 -0.03467,1.299998 0,0.675998 0.138666,1.31733 0.173333,0.693332 0.173333,1.351998 0,0.398666 -0.08667,0.537332 -0.03467,0.052 -0.104,0.052 -0.156,0 -1.039998,-0.277333 -1.074665,-0.329333 -1.126665,-0.519999 -0.01733,-0.052 -0.052,-0.190666 -0.03467,-0.138667 -0.08667,-0.363999 -0.052,-0.208 -0.08667,-0.381333 -0.173333,-0.675999 -0.173333,-1.109331 0,-0.26 0.01733,-0.415999 0.01733,-0.104 0.104,-2.010663 l 0.06933,-1.265331 -0.225333,-0.052 q -0.208,-0.06933 -0.381333,-0.06933 -0.190666,0 -0.259999,-0.208 -0.052,-0.207999 -0.052,-0.987998 0,-0.745332 0.06933,-0.883998 0.06933,-0.156 0.450666,-0.156 0.173333,0 0.242666,-0.104 0.08667,-0.121333 0.242666,-0.589332 0.208,-0.675998 0.277333,-1.109331 0.104,-0.797332 0.606666,-1.230664 0.519999,-0.450666 1.542663,-0.623999 z m 4.922654,1.750663 -0.06933,-0.866665 h 2.426662 v 0.658666 q 0,0.658665 -0.156,0.901331 l -0.173333,0.277333 -0.970664,-0.03467 -0.987998,-0.03467 z m 0.104,2.270663 q 0.08667,0 1.039998,0.138666 0.970665,0.121333 1.057331,0.121333 0.06933,0 0.06933,0.710665 v 0.26 0.519999 q 0,0.710665 0.03467,1.819996 0.03467,0.831999 0.03467,1.109331 0,0.571999 -0.052,0.901332 -0.06933,0.519999 -0.06933,0.849332 0,0.381332 0.052,0.918665 0.06933,0.901331 0.06933,1.074664 0,0.121333 -0.01733,0.138667 h -0.03467 q -0.190666,0 -1.143998,-0.190667 -0.641332,-0.138666 -1.005331,-0.138666 -0.104,0 -0.104,0.01733 0,0.08667 -0.052,0.03467 -0.156,-0.156 -0.156,-1.94133 0,-0.710665 0.052,-1.109331 0.06933,-0.433332 0.06933,-1.039998 0,-0.485332 -0.01733,-0.727999 -0.08667,-1.36933 -0.08667,-1.941329 v -0.658665 l 0.01733,-0.866665 z m 7.158658,-0.433333 q 1.039998,0 1.091998,-0.052 0.052,-0.052 0.294666,-0.052 0.467999,0 0.883999,0.138667 1.52533,0.537332 1.819996,1.594663 0.121333,0.433333 0.311999,0.987998 0.294666,0.849332 0.485333,3.449327 0.06933,1.039998 0.06933,1.178664 0,0.312 -0.06933,0.589332 -0.104,0.416 -0.104,0.849332 0,0.606666 -0.346666,0.953332 -0.329333,0.346666 -0.918665,0.346666 -0.693332,0 -1.005331,-0.502666 -0.104,-0.138666 -0.104,-0.918665 0,-0.866665 0.121333,-1.161331 0.03467,-0.104 0.03467,-0.346666 0,-0.710665 -0.173333,-2.027996 -0.156,-1.334664 -0.329333,-1.871996 l -0.225333,-0.727999 q -0.381333,0 -1.161331,-0.01733 -0.762665,-0.01733 -1.143998,-0.01733 l -0.190666,0.242667 q -0.173333,0.225332 -0.173333,0.519999 0,0.207999 0.01733,0.363999 0.06933,0.658665 0.156,1.074664 0.294666,1.542664 0.294666,2.027997 0,0.294666 -0.08667,0.849331 -0.138666,0.970665 -0.259999,1.091998 -0.121333,0.121333 -1.161331,0.26 -0.641332,0.103999 -0.883998,0.155999 l -0.26,0.052 0.052,-0.658665 q 0.01733,-0.242666 0.06933,-0.571999 0.052,-0.312 0.06933,-0.537332 0.03467,-0.242667 0.03467,-0.467999 0,-0.364 -0.06933,-0.762666 -0.294666,-1.819996 -0.294666,-3.275993 v -0.450666 l 0.03467,-1.195998 0.364,-0.104 q 0.415999,-0.103999 0.675998,-0.363999 0.398666,-0.398666 0.762665,-0.519999 0.364,-0.121333 1.091998,-0.121333 z m 9.879975,0 q 1.039998,0 1.091998,-0.052 0.052,-0.052 0.294666,-0.052 0.467999,0 0.883998,0.138667 1.52533,0.537332 1.819996,1.594663 0.121333,0.433333 0.312,0.987998 0.294666,0.849332 0.485332,3.449327 0.06933,1.039998 0.06933,1.178664 0,0.312 -0.06933,0.589332 -0.104,0.416 -0.104,0.849332 0,0.606666 -0.346666,0.953332 -0.329332,0.346666 -0.918665,0.346666 -0.693332,0 -1.005331,-0.502666 -0.104,-0.138666 -0.104,-0.918665 0,-0.866665 0.121333,-1.161331 0.03467,-0.104 0.03467,-0.346666 0,-0.710665 -0.173333,-2.027996 -0.156,-1.334664 -0.329333,-1.871996 l -0.225333,-0.727999 q -0.381332,0 -1.161331,-0.01733 -0.762665,-0.01733 -1.143997,-0.01733 l -0.190667,0.242667 q -0.173333,0.225332 -0.173333,0.519999 0,0.207999 0.01733,0.363999 0.06933,0.658665 0.155999,1.074664 0.294666,1.542664 0.294666,2.027997 0,0.294666 -0.08667,0.849331 -0.138667,0.970665 -0.26,1.091998 -0.121333,0.121333 -1.161331,0.26 -0.641332,0.103999 -0.883998,0.155999 l -0.26,0.052 0.052,-0.658665 q 0.01733,-0.242666 0.06933,-0.571999 0.052,-0.312 0.06933,-0.537332 0.03467,-0.242667 0.03467,-0.467999 0,-0.364 -0.06933,-0.762666 -0.294666,-1.819996 -0.294666,-3.275993 v -0.450666 l 0.03467,-1.195998 0.363999,-0.104 q 0.415999,-0.103999 0.675999,-0.363999 0.398666,-0.398666 0.762665,-0.519999 0.363999,-0.121333 1.091998,-0.121333 z m 11.127971,1.161331 -0.052,-1.802663 h 0.519999 q 0.935998,0 0.935998,0.277333 0,0.173333 0.121333,0.173333 0.104,0 0.364,0.190666 0.173333,0.156 0.415999,0.156 0.138666,0 0.953331,-0.08667 1.039998,-0.08667 1.438664,-0.08667 0.675999,0.03467 1.213331,0.537332 l 0.277333,0.26 0.433333,-0.312 q 0.727998,-0.467999 1.386664,-0.467999 0.190666,0 0.294666,0.01733 0.138666,0.01733 0.658665,0.06933 0.519999,0.052 0.710665,0.06933 0.987998,0.08667 1.542664,0.381332 0.554666,0.277333 0.953331,0.918665 0.398666,0.623999 0.502666,0.953332 0.121333,0.329332 0.121333,0.953331 0,0.173333 -0.03467,1.039998 v 0.173333 q 0,0.502666 0.08667,0.849332 0.06933,0.277333 0.06933,0.554665 0,0.312 -0.06933,0.814666 -0.121333,0.901331 -0.156,1.542663 -0.06933,0.623999 -0.103999,0.693332 h -0.052 q -0.26,0 -1.178665,-0.190666 -0.918665,-0.173333 -1.039998,-0.242666 -0.06933,-0.01733 -0.06933,-0.277333 0,-0.312 0.173333,-1.317331 0.121333,-0.589332 0.121333,-0.866665 0,-0.104 -0.03467,-0.242666 -0.08667,-0.208 -0.121333,-1.455997 -0.01733,-1.265331 -0.173333,-1.542664 -0.156,-0.346666 -0.502666,-0.346666 -0.01733,0 -0.08667,0.01733 -0.052,0 -0.08667,0 -0.190666,0 -0.797332,-0.08667 -0.156,-0.01733 -0.398666,-0.01733 -0.641332,0 -0.814665,0.294666 -0.01733,0.01733 -0.01733,0.121333 0,0.363999 0.104,1.022664 0.138666,1.005332 0.138666,2.859995 0,2.183996 -0.156,2.235996 -0.121333,0.03467 -0.121333,0.381332 v 0.346666 h -0.866665 q -0.918665,0 -1.091998,-0.08667 -0.173333,-0.06933 -0.259999,-0.502666 -0.06933,-0.225333 -0.06933,-0.467999 0,-0.104 0.01733,-0.121333 0.138666,-0.190667 0.138666,-2.894661 0,-2.131996 -0.571999,-2.825328 l -0.311999,-0.398666 -0.831998,0.03467 q -0.935998,0.03467 -1.074665,0.242666 -0.138666,0.190666 -0.190666,1.57733 -0.03467,0.762665 -0.03467,1.195998 0,0.675998 0.06933,1.854663 0.06933,0.710665 0.06933,1.317331 0,0.225332 -0.01733,0.242666 -0.03467,0.01733 -0.06933,0.01733 -0.294666,0 -1.213331,-0.138666 -0.901331,-0.138667 -1.005331,-0.208 -0.242666,-0.156 -0.242666,-2.998661 0,-0.502665 0.03467,-1.195997 0.06933,-1.109332 0.06933,-2.287996 0,-0.641332 -0.01733,-0.918665 z m 19.447951,1.143998 q -0.190667,-0.173333 -0.554666,-0.173333 -0.589332,0 -1.126664,0.450666 -0.26,0.225333 -0.364,0.675998 l -0.08667,0.485333 0.294666,0.052 q 0.08667,0.01733 0.554665,0.01733 1.83733,0 1.94133,-0.104 0.01733,-0.01733 0.01733,-0.03467 0,-0.156 -0.277333,-0.710666 -0.259999,-0.554665 -0.398665,-0.658665 z m -1.78533,-2.374662 q 0.606665,-0.190666 1.282664,-0.190666 0.745332,0 1.282664,0.225332 1.109331,0.519999 1.62933,1.542664 0.329333,0.675999 0.381333,0.970665 0.06933,0.363999 0.173333,0.537332 0.104,0.225333 0.190666,0.745332 0.104,0.519999 0.104,0.883998 0,0.173333 -0.01733,0.225333 -0.052,0.26 -0.329333,0.606666 -0.26,0.329332 -0.502666,0.415999 -0.398666,0.156 -1.559997,0.208 -1.143998,0.052 -2.079996,0.06933 -0.935998,0 -0.935998,0.052 0,0.433332 0.467999,0.727998 0.294666,0.190666 1.369331,0.277333 0.571999,0.06933 0.883998,0.06933 0.277333,0 0.693332,-0.156 0.450666,-0.173333 0.762665,-0.173333 0.26,0 0.623999,0.156 l 0.363999,0.173333 -0.03467,0.519999 q -0.121333,1.473331 -0.26,1.57733 -0.207999,0.242667 -2.374662,0.242667 -1.091998,0 -1.819996,-0.104 -0.693332,-0.08667 -1.403997,-0.485333 -0.693332,-0.398665 -1.005332,-0.866665 -0.797332,-1.247997 -0.797332,-2.721328 0,-0.398665 0.01733,-0.606665 0.103999,-1.317331 0.381332,-2.235996 0.502666,-1.68133 1.473331,-2.253329 0.363999,-0.190666 1.039998,-0.433332 z m 10.781311,-0.312 q 0.519999,-0.138666 0.693332,-0.138666 0.173333,0 0.225332,0.138666 0.06933,0.138667 0.156,0.554666 0,0.052 0,0.08667 0.01733,0.03467 0.01733,0.08667 0.01733,0.052 0.03467,0.104 0.190666,1.005331 0.242666,1.143998 0.01733,0.06933 -0.06933,0.121333 -0.08667,0.052 -0.346666,0.121333 -0.519999,0.138666 -1.143998,0.571999 -0.831998,0.537332 -1.057331,0.623998 -0.346666,0.156 -0.346666,0.294667 0,0.06933 0.01733,0.121333 0.08667,0.450665 0.173333,3.31066 l 0.06933,2.253329 h -2.443995 l -0.01733,-1.542664 q -0.03467,-2.391995 -0.104,-3.46666 -0.01733,-0.242666 -0.01733,-0.779998 0,-0.554666 0.052,-0.953332 0.052,-0.363999 0.052,-0.623998 0,-0.312 -0.06933,-0.571999 -0.052,-0.225333 -0.052,-0.346666 0,-0.190667 0.190666,-0.312 0.207999,-0.121333 0.901331,-0.363999 0.918665,-0.329333 1.039998,-0.329333 0.138667,0 0.208,0.277333 0.06933,0.26 0.190666,0.26 0.104,0 0.467999,-0.26 0.294666,-0.225333 0.935999,-0.381333 z m 3.449318,-2.859994 q 0.121333,-0.190666 0.485332,-0.190666 0.311999,0 0.554666,0.01733 0.866665,0.01733 0.987998,0.173333 0.104,0.138666 0.207999,0.953331 0.104,0.797332 0.104,1.369331 v 0.104 q -0.03467,0.745332 -0.156,1.265331 -0.08667,0.467999 -0.08667,0.693332 0,0.08667 0.01733,0.104 0.052,0.08667 0.156,1.074664 l 0.104,0.953332 0.415999,-0.190667 q 0.259999,-0.121333 0.381333,-0.242666 0.138666,-0.138666 0.311999,-0.467999 0.623999,-1.213331 1.039998,-1.351997 0.277333,-0.08667 0.485332,-0.329333 0.121333,-0.156 0.173333,-0.156 0.052,-0.01733 0.121333,0.104 0.121333,0.156 0.26,0.156 0.156,0 0.207999,0.06933 0.06933,0.08667 0.433333,0.156 0.415999,0.06933 0.415999,0.121333 0,0.06933 0.173333,0.121333 0.138667,0.03467 0.138667,0.156 0,0.225333 -0.554666,0.883998 -0.450666,0.537332 -0.745332,1.161331 -0.259999,0.537332 -0.519999,0.918665 l -0.208,0.329333 0.381333,0.641332 q 0.363999,0.641332 0.675999,0.987998 0.294666,0.329332 0.485332,0.710665 0.06933,0.138666 0.190666,0.346666 0.138667,0.208 0.225333,0.363999 0.08667,0.173333 0.138667,0.346666 0,0.01733 0,0.052 l 0.01733,0.03467 q 0,0.121333 -0.173333,0.242666 -0.173333,0.138666 -0.779998,0.537332 -0.901332,0.606666 -1.074665,0.606666 -0.03467,0 -0.190666,-0.415999 -0.190667,-0.693332 -0.779999,-1.386664 -0.259999,-0.294667 -0.450666,-0.675999 -0.103999,-0.208 -0.467999,-0.710665 -0.259999,-0.329333 -0.589332,-0.329333 h -0.346666 l -0.052,0.779998 q -0.01733,0.156 -0.01733,0.467999 0,0.485333 0.052,0.658666 0.104,0.485332 0.104,0.537332 0,0.208 -0.173333,0.277333 -0.173333,0.06933 -0.762666,0.138666 -0.883998,0.104 -1.161331,0.104 -0.06933,0 -0.121333,-0.01733 -0.052,0 -0.103999,-0.01733 -0.03467,-0.01733 -0.052,-0.03467 -0.01733,-0.01733 -0.03467,-0.06933 -0.01733,-0.052 -0.01733,-0.08667 0,-0.01733 -0.01733,-0.121333 -0.01733,-0.08667 -0.01733,-0.121333 -0.06933,-0.485332 -0.06933,-2.166662 0,-1.299998 0.052,-1.906663 0.104,-1.195998 0.104,-1.73333 0,-0.571999 -0.06933,-0.866665 -0.08667,-0.433333 -0.08667,-0.693332 0,-0.26 0.052,-0.589332 0.08667,-0.693332 0.08667,-1.646664 0,-0.849332 -0.06933,-1.178664 -0.03467,-0.242667 -0.03467,-0.346666 0,-0.381333 0.242666,-0.675999 z m 11.873313,3.085327 q 0.60666,-0.207999 1.19599,-0.207999 0.364,0 1.26534,0.08667 1.14399,0.104 1.14399,0.277333 0,0.121333 -0.312,1.126665 l -0.32933,1.022664 -1.05733,-0.06933 q -0.69333,-0.03467 -0.76267,-0.03467 -0.34666,0 -0.60666,0.156 -0.74533,0.467999 -1.00533,1.819997 l -0.156,0.779998 0.208,0.433333 q 0.26,0.537332 0.416,1.005331 0.17333,0.502666 0.32933,0.641332 0.17333,0.138666 0.74533,0.138666 0.45067,0 0.76267,-0.01733 l 1.23066,-0.03467 0.0867,0.485333 q 0.0867,0.433332 0.19066,0.987998 0.0173,0.121333 0.052,0.277333 0.0347,0.155999 0.052,0.259999 0.0347,0.104 0.0347,0.156 0,0.121333 -0.38133,0.173333 -0.38133,0.06933 -1.508,0.104 -0.32933,0.01733 -0.78,0.01733 -0.55466,0 -1.23066,-0.208 -0.745334,-0.242666 -1.074667,-0.554665 -0.311999,-0.312 -0.554665,-1.039998 -0.08667,-0.277333 -0.363999,-0.883998 -0.26,-0.623999 -0.433333,-1.109332 -0.156,-0.502665 -0.156,-0.849331 0,-0.364 0.225333,-1.369331 0.242666,-1.005331 0.398666,-1.282664 0.138667,-0.277333 0.208,-0.658665 0.01733,-0.08667 0.03467,-0.156 0.03467,-0.08667 0.052,-0.121333 0.03467,-0.03467 0.052,-0.01733 0.052,0.052 0.415999,-0.311999 0.71067,-0.710665 1.612,-1.022665 z m 5.56399,-1.455997 -0.0693,-1.195997 0.79733,0.052 q 0.832,0.06933 1.21333,0.121333 l 0.416,0.052 v 0.710666 q 0,1.074664 0.32933,1.663996 h 0.0173 q 0.12133,0 0.65866,-0.121333 0.468,-0.121333 0.988,-0.121333 1.17867,0 2.14933,0.623999 0.45067,0.294666 0.65867,0.779999 0.22533,0.467999 0.34666,1.52533 0.19067,1.317331 0.32933,1.975996 0.19067,0.901332 0.19067,2.218662 0,0.831999 -0.0693,1.386664 l -0.0867,0.606666 -1.16133,-0.03467 -1.17866,-0.01733 0.0173,-0.502666 q 0,-0.554665 0.0867,-1.334664 0.0173,-0.190666 0.0173,-0.537332 0,-0.502666 -0.052,-0.762665 -0.364,-1.854663 -0.468,-2.651995 -0.0867,-0.641332 -0.208,-0.745332 -0.104,-0.121333 -0.64133,-0.121333 -0.38133,0 -1.092,0.363999 -0.50267,0.26 -0.624,0.363999 -0.104,0.104 -0.104,0.294667 0,0.277332 -0.156,0.935998 -0.0867,0.467999 -0.0867,0.658665 0,0.208 0.052,0.381333 0.0693,0.294666 0.13866,2.218662 l 0.052,1.83733 h -2.28799 l -0.12134,-0.415999 q -0.052,-0.26 -0.052,-0.641332 0,-0.156 0.0347,-0.883999 0.0347,-0.346666 0.0347,-0.814665 0,-0.398666 -0.104,-0.797332 -0.12134,-0.433332 -0.12134,-1.126664 0,-0.589332 0.0867,-0.901332 0.12133,-0.485332 0.12133,-2.911994 0,-1.282664 -0.052,-2.131996 z m 14.55996,3.917326 q -0.19066,-0.173333 -0.55466,-0.173333 -0.58933,0 -1.12667,0.450666 -0.26,0.225333 -0.364,0.675998 l -0.0867,0.485333 0.29466,0.052 q 0.0867,0.01733 0.55467,0.01733 1.83733,0 1.94133,-0.104 0.0173,-0.01733 0.0173,-0.03467 0,-0.156 -0.27733,-0.710666 -0.26,-0.554665 -0.39867,-0.658665 z m -1.78533,-2.374662 q 0.60667,-0.190666 1.28267,-0.190666 0.74533,0 1.28266,0.225332 1.10933,0.519999 1.62933,1.542664 0.32933,0.675999 0.38133,0.970665 0.0693,0.363999 0.17334,0.537332 0.104,0.225333 0.19066,0.745332 0.104,0.519999 0.104,0.883998 0,0.173333 -0.0173,0.225333 -0.052,0.26 -0.32933,0.606666 -0.26,0.329332 -0.50267,0.415999 -0.39866,0.156 -1.55999,0.208 -1.144,0.052 -2.08,0.06933 -0.936,0 -0.936,0.052 0,0.433332 0.468,0.727998 0.29467,0.190666 1.36933,0.277333 0.572,0.06933 0.884,0.06933 0.27733,0 0.69333,-0.156 0.45067,-0.173333 0.76267,-0.173333 0.26,0 0.624,0.156 l 0.36399,0.173333 -0.0347,0.519999 q -0.12134,1.473331 -0.26,1.57733 -0.208,0.242667 -2.37466,0.242667 -1.092,0 -1.82,-0.104 -0.69333,-0.08667 -1.404,-0.485333 -0.69333,-0.398665 -1.00533,-0.866665 -0.79733,-1.247997 -0.79733,-2.721328 0,-0.398665 0.0173,-0.606665 0.104,-1.317331 0.38134,-2.235996 0.50266,-1.68133 1.47333,-2.253329 0.36399,-0.190666 1.03999,-0.433332 z m 10.00132,0.06933 q 1.03999,0 1.09199,-0.052 0.052,-0.052 0.29467,-0.052 0.468,0 0.884,0.138667 1.52533,0.537332 1.81999,1.594663 0.12134,0.433333 0.312,0.987998 0.29467,0.849332 0.48534,3.449327 0.0693,1.039998 0.0693,1.178664 0,0.312 -0.0693,0.589332 -0.104,0.416 -0.104,0.849332 0,0.606666 -0.34667,0.953332 -0.32933,0.346666 -0.91866,0.346666 -0.69334,0 -1.00534,-0.502666 -0.104,-0.138666 -0.104,-0.918665 0,-0.866665 0.12134,-1.161331 0.0347,-0.104 0.0347,-0.346666 0,-0.710665 -0.17333,-2.027996 -0.156,-1.334664 -0.32933,-1.871996 l -0.22533,-0.727999 q -0.38134,0 -1.16134,-0.01733 -0.76266,-0.01733 -1.14399,-0.01733 l -0.19067,0.242667 q -0.17333,0.225332 -0.17333,0.519999 0,0.207999 0.0173,0.363999 0.0693,0.658665 0.156,1.074664 0.29467,1.542664 0.29467,2.027997 0,0.294666 -0.0867,0.849331 -0.13867,0.970665 -0.26,1.091998 -0.12133,0.121333 -1.16133,0.26 -0.64133,0.103999 -0.884,0.155999 l -0.26,0.052 0.052,-0.658665 q 0.0173,-0.242666 0.0693,-0.571999 0.052,-0.312 0.0693,-0.537332 0.0347,-0.242667 0.0347,-0.467999 0,-0.364 -0.0693,-0.762666 -0.29466,-1.819996 -0.29466,-3.275993 v -0.450666 l 0.0347,-1.195998 0.364,-0.104 q 0.416,-0.103999 0.676,-0.363999 0.39867,-0.398666 0.76267,-0.519999 0.36399,-0.121333 1.09199,-0.121333 z m 7.19331,-2.773328 q 0.156,-0.277333 0.27733,-0.277333 0.0693,0 0.12133,0.08667 0.052,0.08667 0.988,0.08667 h 0.936 v 0.727999 q 0,1.369331 0.364,1.698663 0.17333,0.156 0.34667,0.156 0.156,0 0.43333,-0.138666 0.208,-0.104 0.52,-0.104 0.55466,0 0.90133,0.242666 0.55467,0.381333 0.55467,1.386664 0,0.467999 -0.0867,0.571999 -0.0693,0.104 -0.43333,0.104 -0.24267,0 -0.58934,0.190666 -0.312,0.156 -0.81466,0.156 h -0.32933 -0.32934 q -0.45066,0 -0.60666,0.190666 -0.104,0.121333 -0.104,0.346666 0,0.01733 0.0693,0.710665 0.052,0.312 0.13867,2.027996 0.0347,1.161331 0.104,1.369331 0.0867,0.190666 0.572,0.190666 h 0.32933 0.832 v 2.409329 h -0.91867 q -0.884,0 -1.33466,-0.06933 -0.624,-0.104 -1.092,-0.623999 -0.468,-0.502666 -0.728,-1.334664 -0.0867,-0.329333 -0.208,-1.78533 -0.104,-1.473331 -0.12133,-2.877328 -0.0347,-0.762665 -0.12133,-0.831998 -0.12134,-0.06933 -0.12134,-1.230664 v -1.161332 h 0.26 q 0.19067,0 0.22534,-0.03467 0.0347,-0.052 0,-0.26 -0.104,-0.485332 -0.13867,-0.589332 -0.0693,-0.259999 -0.0693,-0.589332 0,-0.467999 0.17333,-0.745332 z m 13.17331,1.819997 q 0.32933,-0.138667 0.64133,-0.138667 0.81466,0 1.196,0.675999 0.19066,0.346666 0.19066,0.641332 0,0.311999 -0.24266,0.883998 -0.53734,1.143998 -1.21333,1.473331 -0.38134,0.190666 -0.884,0.658665 -0.312,0.294666 -0.468,0.537332 -0.156,0.242667 -0.34667,0.762666 -0.312,0.797331 -0.60666,1.230664 -0.27734,0.415999 -0.45067,0.710665 l -0.156,0.294666 0.65867,-0.052 q 0.65866,-0.06933 1.03999,-0.190666 0.416,-0.121333 0.572,-0.121333 0.22534,0 0.64134,0.156 0.93599,0.346666 0.93599,1.195997 0,0.450666 -0.12133,0.485333 -0.13867,0.06933 -0.0867,0.398666 0.0173,0.08667 0.0173,0.207999 0,0.138667 -0.22534,0.190666 -0.052,0.01733 -0.208,0.01733 -0.26,0 -0.46799,-0.052 -0.13867,-0.03467 -0.43334,-0.03467 -0.468,0 -1.092,0.08667 -0.90133,0.121333 -1.45599,0.121333 -0.052,0 -0.156,-0.01733 -0.104,0 -0.13867,0 -0.12133,-0.01733 -0.416,-0.01733 -0.43333,0 -0.64133,0.052 -0.12133,0.03467 -0.34667,0.03467 -0.60666,0 -1.09199,-0.502666 -0.50267,-0.537332 -0.50267,-1.074665 0,-0.155999 0.052,-0.346666 0.0693,-0.242666 0.50267,-0.814665 0.45066,-0.589332 0.83199,-0.918664 0.17334,-0.173333 0.17334,-0.277333 0,-0.08667 0.312,-0.467999 0.32933,-0.381333 0.572,-1.074665 0.572,-1.47333 1.03999,-1.88933 0.34667,-0.294666 0.312,-0.329332 h -0.0347 q -0.0867,0 -0.50267,0.06933 -0.312,0.052 -0.50266,0.052 -0.0693,0 -0.19067,0 -0.12133,-0.01733 -0.17333,-0.01733 -0.208,0 -0.468,0.052 -0.104,0.03467 -0.38134,0.03467 -0.55466,0 -0.77999,-0.138666 -0.0173,-0.01733 -0.0173,-0.06933 0,-0.173333 0.32934,-1.057331 0.41599,-1.074664 0.45066,-1.091998 0.0347,-0.03467 0.936,-0.121333 0.91866,-0.104 1.42133,-0.121333 h 0.13867 q 0.468,0 0.64133,0.104 0.17333,0.104 0.312,0.01733 0.0867,-0.06933 0.34666,-0.06933 0.22534,0 0.53734,-0.138666 z m 12.93062,3.25866 q -0.19067,-0.173333 -0.55467,-0.173333 -0.58933,0 -1.12666,0.450666 -0.26,0.225333 -0.364,0.675998 l -0.0867,0.485333 0.29467,0.052 q 0.0867,0.01733 0.55466,0.01733 1.83733,0 1.94133,-0.104 0.0173,-0.01733 0.0173,-0.03467 0,-0.156 -0.27733,-0.710666 -0.26,-0.554665 -0.39866,-0.658665 z m -1.78533,-2.374662 q 0.60666,-0.190666 1.28266,-0.190666 0.74533,0 1.28266,0.225332 1.10933,0.519999 1.62933,1.542664 0.32934,0.675999 0.38134,0.970665 0.0693,0.363999 0.17333,0.537332 0.104,0.225333 0.19067,0.745332 0.104,0.519999 0.104,0.883998 0,0.173333 -0.0173,0.225333 -0.052,0.26 -0.32933,0.606666 -0.26,0.329332 -0.50267,0.415999 -0.39866,0.156 -1.55999,0.208 -1.144,0.052 -2.08,0.06933 -0.936,0 -0.936,0.052 0,0.433332 0.468,0.727998 0.29467,0.190666 1.36933,0.277333 0.572,0.06933 0.884,0.06933 0.27733,0 0.69333,-0.156 0.45067,-0.173333 0.76267,-0.173333 0.26,0 0.624,0.156 l 0.364,0.173333 -0.0347,0.519999 q -0.12133,1.473331 -0.26,1.57733 -0.208,0.242667 -2.37466,0.242667 -1.092,0 -1.82,-0.104 -0.69333,-0.08667 -1.404,-0.485333 -0.69333,-0.398665 -1.00533,-0.866665 -0.79733,-1.247997 -0.79733,-2.721328 0,-0.398665 0.0173,-0.606665 0.104,-1.317331 0.38134,-2.235996 0.50266,-1.68133 1.47333,-2.253329 0.364,-0.190666 1.04,-0.433332 z m 10.00132,0.06933 q 1.03999,0 1.09199,-0.052 0.052,-0.052 0.29467,-0.052 0.468,0 0.884,0.138667 1.52533,0.537332 1.81999,1.594663 0.12134,0.433333 0.312,0.987998 0.29467,0.849332 0.48534,3.449327 0.0693,1.039998 0.0693,1.178664 0,0.312 -0.0693,0.589332 -0.104,0.416 -0.104,0.849332 0,0.606666 -0.34667,0.953332 -0.32933,0.346666 -0.91866,0.346666 -0.69334,0 -1.00534,-0.502666 -0.104,-0.138666 -0.104,-0.918665 0,-0.866665 0.12134,-1.161331 0.0347,-0.104 0.0347,-0.346666 0,-0.710665 -0.17333,-2.027996 -0.156,-1.334664 -0.32933,-1.871996 l -0.22533,-0.727999 q -0.38134,0 -1.16134,-0.01733 -0.76266,-0.01733 -1.14399,-0.01733 l -0.19067,0.242667 q -0.17333,0.225332 -0.17333,0.519999 0,0.207999 0.0173,0.363999 0.0693,0.658665 0.156,1.074664 0.29467,1.542664 0.29467,2.027997 0,0.294666 -0.0867,0.849331 -0.13867,0.970665 -0.26,1.091998 -0.12133,0.121333 -1.16133,0.26 -0.64133,0.103999 -0.884,0.155999 l -0.26,0.052 0.052,-0.658665 q 0.0173,-0.242666 0.0693,-0.571999 0.052,-0.312 0.0693,-0.537332 0.0347,-0.242667 0.0347,-0.467999 0,-0.364 -0.0693,-0.762666 -0.29467,-1.819996 -0.29467,-3.275993 v -0.450666 l 0.0347,-1.195998 0.364,-0.104 q 0.416,-0.103999 0.676,-0.363999 0.39867,-0.398666 0.76266,-0.519999 0.364,-0.121333 1.092,-0.121333 z m 15.70396,1.68133 q -0.34666,-0.138666 -0.81466,-0.138666 -0.69334,0 -1.092,0.311999 l -0.27733,0.225333 0.0347,0.849332 q 0.0173,0.207999 0.052,0.814665 0.0347,0.589332 0.052,0.814665 0.0173,0.173333 0.0173,0.467999 0,0.485332 -0.0693,0.762665 -0.0693,0.312 -0.0693,0.363999 0,0.156 0.104,0.208 0.12133,0.052 0.468,0.104 0.208,0.03467 0.26,0.03467 0.17333,0 0.416,-0.155999 0.0693,-0.052 0.17333,-0.104 0.104,-0.06933 0.22533,-0.138666 0.12134,-0.08667 0.156,-0.104 0.0693,-0.052 0.29467,-0.208 0.22533,-0.156 0.32933,-0.225333 0.26,-0.190666 0.312,-0.311999 0.0693,-0.138667 0.12133,-0.571999 0.0347,-0.277333 0.0347,-0.415999 0,-0.571999 -0.468,-2.391996 -0.0173,-0.08667 -0.26,-0.190666 z m -1.47333,-2.478662 q 0.81467,-0.08667 0.95333,-0.08667 0.208,0 0.86667,0.190666 1.28266,0.398666 1.78533,0.935998 0.50266,0.502666 0.50266,1.143998 0,0.138666 0.24267,1.178664 0.208,0.831999 0.208,1.438664 0,0.08667 -0.0173,0.294666 0,0.208 0,0.329333 -0.0173,0.745332 -0.0693,1.005331 -0.052,0.26 -0.22533,0.589333 -0.572,1.057331 -1.456,1.542663 -0.27733,0.156 -0.64133,0.398666 -0.364,0.26 -0.76266,0.450666 -0.53734,0.259999 -1.36934,0.259999 h -0.83199 l 0.0693,0.987999 0.052,0.987998 -1.16133,0.01733 h -0.624 q -0.55467,0 -0.58933,-0.138666 -0.0693,-0.190667 -0.0693,-1.854664 0,-2.495995 0.104,-3.119993 0.104,-0.468 0.104,-0.762666 0,-0.311999 -0.104,-1.663996 -0.0867,-1.213331 -0.12133,-2.183996 l -0.0173,-0.762665 0.312,-0.08667 q 0.64133,-0.207999 1.69866,-0.797332 0.38133,-0.225333 1.16133,-0.294666 z m 10.27864,0.415999 q 0.52,-0.138666 0.69333,-0.138666 0.17334,0 0.22534,0.138666 0.0693,0.138667 0.156,0.554666 0,0.052 0,0.08667 0.0173,0.03467 0.0173,0.08667 0.0173,0.052 0.0347,0.104 0.19066,1.005331 0.24266,1.143998 0.0173,0.06933 -0.0693,0.121333 -0.0867,0.052 -0.34667,0.121333 -0.52,0.138666 -1.14399,0.571999 -0.832,0.537332 -1.05734,0.623998 -0.34666,0.156 -0.34666,0.294667 0,0.06933 0.0173,0.121333 0.0867,0.450665 0.17334,3.31066 l 0.0693,2.253329 h -2.444 l -0.0173,-1.542664 q -0.0347,-2.391995 -0.104,-3.46666 -0.0173,-0.242666 -0.0173,-0.779998 0,-0.554666 0.052,-0.953332 0.052,-0.363999 0.052,-0.623998 0,-0.312 -0.0693,-0.571999 -0.052,-0.225333 -0.052,-0.346666 0,-0.190667 0.19067,-0.312 0.208,-0.121333 0.90133,-0.363999 0.91867,-0.329333 1.04,-0.329333 0.13867,0 0.208,0.277333 0.0693,0.26 0.19067,0.26 0.10399,0 0.46799,-0.26 0.29467,-0.225333 0.936,-0.381333 z m 5.49465,0.346666 q 0.052,-0.052 0.104,-0.052 0.24267,0 0.24267,0.693332 0,0.225332 -0.052,0.433332 -0.12134,0.398666 -0.12134,1.230664 0,0.779999 0.24267,1.490664 0.208,0.606666 0.208,1.005331 0,0.346666 -0.0173,0.589333 -0.0347,0.623998 -0.0347,0.658665 0,0.329333 0.13867,0.415999 0.12133,0.121333 0.65866,0.208 0.53733,0.08667 1.00533,0.08667 0.208,0 0.38133,-0.03467 0.32934,-0.08667 0.43334,-0.190667 0.12133,-0.121333 0.12133,-0.415999 0,-0.259999 -0.0173,-0.433332 -0.0347,-0.346666 -0.17334,-1.230665 -0.13866,-0.883998 -0.13866,-1.403997 0,-0.589332 0.12133,-1.715996 0.12133,-1.126665 0.208,-1.265331 0.0173,-0.052 0.104,-0.052 0.104,0 1.04,0.311999 l 1.07466,0.363999 -0.0173,0.346666 q 0,0.052 -0.0347,0.554666 -0.0173,0.485332 -0.052,0.814665 -0.052,0.519999 -0.052,0.831998 0,0.364 0.0693,0.589333 0.26,0.987998 0.26,3.41466 0,0.987998 -0.0867,0.987998 -0.0347,0 -0.052,-0.06933 l -0.0867,-0.208 -0.29466,0.225333 q -0.34667,0.242666 -0.38134,0.242666 -0.052,0 -0.38133,0.225333 -0.69333,0.467999 -2.06266,0.467999 -0.43333,0 -0.676,-0.01733 -1.26533,-0.06933 -1.57733,-0.156 -0.69333,-0.190666 -1.21333,-0.883998 -0.78,-1.074665 -0.78,-1.99333 0,-0.277332 0.052,-0.589332 0.0347,-0.415999 0.0347,-0.519999 0,-0.311999 -0.12134,-0.693332 -0.34666,-1.057331 -0.34666,-2.027996 0,-0.363999 0.0173,-0.571999 0.0693,-0.970665 0.12133,-1.126664 0.0693,-0.156 0.38134,-0.156 0.32933,0 0.52,-0.190666 0.156,-0.156 0.48533,-0.156 h 0.19066 0.208 q 0.312,0 0.34667,-0.03467 z m 12.87863,2.287996 q -0.208,-0.104 -1.196,-0.104 -0.53733,0 -0.64133,0.052 -0.53733,0.242666 -0.884,1.230664 -0.22533,0.606666 -0.22533,1.819997 0,0.849332 0.0173,1.057331 0.0347,0.208 0.208,0.467999 l 0.24267,0.381333 0.71066,-0.052 q 0.84934,-0.06933 1.36933,-0.242666 l 0.624,-0.225333 -0.0173,-0.883998 q -0.0173,-0.277333 -0.0347,-1.143998 -0.0173,-0.866665 -0.0173,-1.022665 -0.0173,-1.265331 -0.156,-1.334664 z m 1.33466,-5.113323 q 0.86667,-0.26 1.10934,-0.26 0.13866,0 0.19066,0.121333 0.12133,0.312 0.12133,3.033328 0,1.507997 -0.0693,1.923996 -0.24266,1.213331 -0.24266,1.715997 0,0.329332 0.0867,0.727998 0.156,0.658666 0.156,2.253329 0,1.143998 -0.104,1.57733 l -0.104,0.502666 h -0.53733 q -0.50267,0 -0.84933,0.156 -0.65867,0.277333 -1.69867,0.450666 -1.02266,0.190666 -1.83732,0.190666 -0.58934,0 -0.832,-0.08667 -0.43334,-0.138666 -0.936,-0.693332 -0.50267,-0.537332 -0.81467,-1.178664 -0.13866,-0.294666 -0.17333,-0.363999 -0.0347,-0.06933 -0.104,-0.26 -0.052,-0.190666 -0.0693,-0.329332 0,-0.156 0,-0.398666 0,-0.450666 0.052,-1.507997 0.0867,-1.819997 0.78,-3.085328 0.24266,-0.415999 0.74533,-0.901331 0.52,-0.485333 0.90133,-0.658666 0.76266,-0.329332 1.75066,-0.329332 0.48533,0 1.28267,0.121333 l 0.27733,0.052 -0.0693,-0.485333 q -0.0347,-0.311999 -0.0347,-0.710665 0,-0.363999 0.0173,-0.519999 l 0.052,-0.779999 z m 5.47732,2.825327 q 0.052,-0.052 0.104,-0.052 0.24267,0 0.24267,0.693332 0,0.225332 -0.052,0.433332 -0.12133,0.398666 -0.12133,1.230664 0,0.779999 0.24266,1.490664 0.208,0.606666 0.208,1.005331 0,0.346666 -0.0173,0.589333 -0.0347,0.623998 -0.0347,0.658665 0,0.329333 0.13867,0.415999 0.12133,0.121333 0.65866,0.208 0.53734,0.08667 1.00533,0.08667 0.208,0 0.38134,-0.03467 0.32933,-0.08667 0.43333,-0.190667 0.12133,-0.121333 0.12133,-0.415999 0,-0.259999 -0.0173,-0.433332 -0.0347,-0.346666 -0.17333,-1.230665 -0.13867,-0.883998 -0.13867,-1.403997 0,-0.589332 0.12133,-1.715996 0.12134,-1.126665 0.208,-1.265331 0.0173,-0.052 0.104,-0.052 0.104,0 1.04,0.311999 l 1.07467,0.363999 -0.0173,0.346666 q 0,0.052 -0.0347,0.554666 -0.0173,0.485332 -0.052,0.814665 -0.052,0.519999 -0.052,0.831998 0,0.364 0.0693,0.589333 0.26,0.987998 0.26,3.41466 0,0.987998 -0.0867,0.987998 -0.0347,0 -0.052,-0.06933 l -0.0867,-0.208 -0.29467,0.225333 q -0.34667,0.242666 -0.38133,0.242666 -0.052,0 -0.38134,0.225333 -0.69333,0.467999 -2.06266,0.467999 -0.43333,0 -0.676,-0.01733 -1.26533,-0.06933 -1.57733,-0.156 -0.69333,-0.190666 -1.21333,-0.883998 -0.78,-1.074665 -0.78,-1.99333 0,-0.277332 0.052,-0.589332 0.0347,-0.415999 0.0347,-0.519999 0,-0.311999 -0.12133,-0.693332 -0.34667,-1.057331 -0.34667,-2.027996 0,-0.363999 0.0173,-0.571999 0.0693,-0.970665 0.12134,-1.126664 0.0693,-0.156 0.38133,-0.156 0.32933,0 0.52,-0.190666 0.156,-0.156 0.48533,-0.156 h 0.19067 0.208 q 0.312,0 0.34666,-0.03467 z m 10.50399,-0.121333 q 0.60666,-0.207999 1.19599,-0.207999 0.364,0 1.26533,0.08667 1.144,0.104 1.144,0.277333 0,0.121333 -0.312,1.126665 l -0.32933,1.022664 -1.05733,-0.06933 q -0.69333,-0.03467 -0.76267,-0.03467 -0.34666,0 -0.60666,0.156 -0.74533,0.467999 -1.00533,1.819997 l -0.156,0.779998 0.208,0.433333 q 0.26,0.537332 0.416,1.005331 0.17333,0.502666 0.32933,0.641332 0.17333,0.138666 0.74533,0.138666 0.45067,0 0.76267,-0.01733 l 1.23066,-0.03467 0.0867,0.485333 q 0.0867,0.433332 0.19066,0.987998 0.0173,0.121333 0.052,0.277333 0.0347,0.155999 0.052,0.259999 0.0347,0.104 0.0347,0.156 0,0.121333 -0.38133,0.173333 -0.38134,0.06933 -1.508,0.104 -0.32933,0.01733 -0.78,0.01733 -0.55466,0 -1.23066,-0.208 -0.74533,-0.242666 -1.07467,-0.554665 -0.312,-0.312 -0.55466,-1.039998 -0.0867,-0.277333 -0.364,-0.883998 -0.26,-0.623999 -0.43333,-1.109332 -0.156,-0.502665 -0.156,-0.849331 0,-0.364 0.22533,-1.369331 0.24266,-1.005331 0.39866,-1.282664 0.13867,-0.277333 0.208,-0.658665 0.0173,-0.08667 0.0347,-0.156 0.0347,-0.08667 0.052,-0.121333 0.0347,-0.03467 0.052,-0.01733 0.052,0.052 0.416,-0.311999 0.71066,-0.710665 1.612,-1.022665 z m 5.89332,-2.617328 q 0.156,-0.277333 0.27733,-0.277333 0.0693,0 0.12133,0.08667 0.052,0.08667 0.988,0.08667 h 0.936 v 0.727999 q 0,1.369331 0.364,1.698663 0.17333,0.156 0.34666,0.156 0.156,0 0.43334,-0.138666 0.208,-0.104 0.52,-0.104 0.55466,0 0.90133,0.242666 0.55466,0.381333 0.55466,1.386664 0,0.467999 -0.0867,0.571999 -0.0693,0.104 -0.43334,0.104 -0.24266,0 -0.58933,0.190666 -0.312,0.156 -0.81466,0.156 h -0.32934 -0.32933 q -0.45066,0 -0.60666,0.190666 -0.104,0.121333 -0.104,0.346666 0,0.01733 0.0693,0.710665 0.052,0.312 0.13867,2.027996 0.0347,1.161331 0.104,1.369331 0.0867,0.190666 0.57199,0.190666 h 0.32934 0.832 v 2.409329 h -0.91867 q -0.884,0 -1.33466,-0.06933 -0.624,-0.104 -1.092,-0.623999 -0.468,-0.502666 -0.728,-1.334664 -0.0867,-0.329333 -0.208,-1.78533 -0.104,-1.473331 -0.12133,-2.877328 -0.0347,-0.762665 -0.12134,-0.831998 -0.12133,-0.06933 -0.12133,-1.230664 v -1.161332 h 0.26 q 0.19067,0 0.22533,-0.03467 0.0347,-0.052 0,-0.26 -0.104,-0.485332 -0.13866,-0.589332 -0.0693,-0.259999 -0.0693,-0.589332 0,-0.467999 0.17334,-0.745332 z m 13.1733,1.819997 q 0.32934,-0.138667 0.64134,-0.138667 0.81466,0 1.19599,0.675999 0.19067,0.346666 0.19067,0.641332 0,0.311999 -0.24267,0.883998 -0.53733,1.143998 -1.21333,1.473331 -0.38133,0.190666 -0.88399,0.658665 -0.312,0.294666 -0.468,0.537332 -0.156,0.242667 -0.34667,0.762666 -0.312,0.797331 -0.60667,1.230664 -0.27733,0.415999 -0.45066,0.710665 l -0.156,0.294666 0.65866,-0.052 q 0.65867,-0.06933 1.04,-0.190666 0.416,-0.121333 0.572,-0.121333 0.22533,0 0.64133,0.156 0.936,0.346666 0.936,1.195997 0,0.450666 -0.12133,0.485333 -0.13867,0.06933 -0.0867,0.398666 0.0173,0.08667 0.0173,0.207999 0,0.138667 -0.22534,0.190666 -0.052,0.01733 -0.208,0.01733 -0.26,0 -0.468,-0.052 -0.13866,-0.03467 -0.43333,-0.03467 -0.468,0 -1.092,0.08667 -0.90133,0.121333 -1.45599,0.121333 -0.052,0 -0.156,-0.01733 -0.104,0 -0.13867,0 -0.12133,-0.01733 -0.416,-0.01733 -0.43333,0 -0.64133,0.052 -0.12133,0.03467 -0.34667,0.03467 -0.60666,0 -1.09199,-0.502666 -0.50267,-0.537332 -0.50267,-1.074665 0,-0.155999 0.052,-0.346666 0.0693,-0.242666 0.50266,-0.814665 0.45067,-0.589332 0.832,-0.918664 0.17334,-0.173333 0.17334,-0.277333 0,-0.08667 0.312,-0.467999 0.32933,-0.381333 0.57199,-1.074665 0.572,-1.47333 1.04,-1.88933 0.34667,-0.294666 0.312,-0.329332 h -0.0347 q -0.0867,0 -0.50267,0.06933 -0.312,0.052 -0.50267,0.052 -0.0693,0 -0.19066,0 -0.12134,-0.01733 -0.17334,-0.01733 -0.20799,0 -0.46799,0.052 -0.104,0.03467 -0.38134,0.03467 -0.55466,0 -0.78,-0.138666 -0.0173,-0.01733 -0.0173,-0.06933 0,-0.173333 0.32933,-1.057331 0.416,-1.074664 0.45067,-1.091998 0.0347,-0.03467 0.936,-0.121333 0.91866,-0.104 1.42133,-0.121333 h 0.13866 q 0.468,0 0.64134,0.104 0.17333,0.104 0.312,0.01733 0.0867,-0.06933 0.34666,-0.06933 0.22534,0 0.53733,-0.138666 z"
       id="text1"
       transform="matrix(0.26458333,0,0,0.26458333,-0.2685559,1.6113354)"
       aria-label="finn merkchentz en pruductz" />
  </g>
</svg>
