<?xml version="1.0" encoding="UTF-8" standalone="no"?>
<!-- Created with Inkscape (http://www.inkscape.org/) -->

<svg
   width="240"
   height="47"
   viewBox="0 0 63.499999 12.435417"
   version="1.1"
   id="svg1"
   xmlns="http://www.w3.org/2000/svg"
   xmlns:svg="http://www.w3.org/2000/svg">
  <defs
     id="defs1"><filter id="lf" x="0" y="0" width="100%" height="100%"><feComponentTransfer><feFuncR type="linear" slope="1.4"/><feFuncG type="linear" slope="1.4"/><feFuncB type="linear" slope="1.4"/></feComponentTransfer></filter>
    <rect
       x="13.871864"
       y="9.1351298"
       width="214.50638"
       height="28.758742"
       id="rect2" />
    <rect
       x="3.7217195"
       y="5.7517486"
       width="265.59543"
       height="33.833813"
       id="rect1" />
  </defs>
  <g
     id="layer1">
    <path
       style="fill:#ff9500;fill-opacity:1;stroke:#ff9500;stroke-width:0.343958;stroke-opacity:1"
       d="M 1.700854,11.547903 C 1.5560314,10.347366 1.6792435,9.115245 2.0589286,7.9671584 2.1459862,7.7039147 2.2463681,7.4448532 2.3200095,7.1775459 2.3936509,6.9102385 2.4403724,6.632102 2.4170031,6.3558229 2.3859988,5.9892801 2.2272009,5.6335275 1.9694099,5.3711181 1.9016292,5.3021231 1.827416,5.239549 1.7617221,5.1685643 1.6960282,5.0975796 1.6381882,5.0164412 1.6113354,4.9235248 1.5892296,4.8470339 1.5890867,4.7652722 1.6031232,4.6868981 1.6171597,4.608524 1.6450041,4.5331959 1.6780577,4.4607597 1.7441648,4.3158875 1.8317967,4.1801442 1.8798913,4.0283383 1.9623923,3.7679319 1.9212204,3.4850979 1.8573603,3.2195046 1.7935002,2.9539112 1.7071986,2.6900922 1.700854,2.4170031 1.6955852,2.1902171 1.745895,1.9644448 1.7352518,1.7378474 1.7299301,1.6245487 1.7088696,1.5106932 1.6601123,1.4082841 1.611355,1.3058749 1.5333203,1.2153119 1.4322981,1.1637422 1.372691,1.133314 1.3053744,1.1162125 1.2532609,1.0742236 c -0.032329,-0.026048 -0.05729,-0.060863 -0.072959,-0.0993094 -0.015669,-0.0384469 -0.02215,-0.0804333 -0.02029,-0.12190888 0.00372,-0.0829511 0.040577,-0.16218441 0.093249,-0.22637488 0.075994,-0.0926133 0.1842326,-0.15595294 0.2995935,-0.18826664 0.115361,-0.0323137 0.237658,-0.0348545 0.356437,-0.0192387 0.2375582,0.0312316 0.4591787,0.13253136 0.6867489,0.20750531 0.8282877,0.27288288 1.7241067,0.19508069 2.5960403,0.17903727 0.3878584,-0.007137 0.7758209,-0.001433 1.1637423,0 0.9585514,0.00354 1.9265349,-0.018128 2.8645963,0.17903727 0.4468933,0.0939297 0.8828368,0.23682743 1.3320478,0.31896313 0.44921,0.082136 0.922646,0.1008943 1.353511,-0.050407 0.178515,-0.062687 0.349537,-0.1542803 0.537112,-0.1790373 0.130368,-0.017207 0.263059,-0.00109 0.391677,0.026278 0.128619,0.027369 0.254627,0.065914 0.383016,0.094343 0.128388,0.028429 0.260616,0.046727 0.39137,0.032754 0.130753,-0.013973 0.260755,-0.062453 0.355754,-0.1533756 0.0305,-0.029193 0.05715,-0.062416 0.08952,-0.0895186 0.04764,-0.0398892 0.106496,-0.065208 0.167377,-0.0776484 0.06088,-0.0124404 0.123833,-0.012385 0.185558,-0.005226 0.12345,0.0143173 0.241777,0.0564549 0.363214,0.0828748 0.278807,0.0606577 0.567979,0.0375692 0.852876,0.0218708 0.284897,-0.0156985 0.577339,-0.0227264 0.847978,0.067648 0.181704,0.060676 0.346182,0.1629377 0.519607,0.2443118 0.173425,0.081374 0.365281,0.1429167 0.554617,0.1137627 0.03003,-0.00462 0.05976,-0.011504 0.09005,-0.013778 0.03029,-0.00227 0.06174,3.337e-4 0.08899,0.013778 0.0191,0.00943 0.03537,0.023803 0.04964,0.039618 0.01427,0.015814 0.02672,0.033158 0.03988,0.049902 0.13153,0.1673023 0.333254,0.270468 0.542265,0.3105243 0.209012,0.040056 0.425546,0.021306 0.633861,-0.022225 0.416631,-0.087063 0.815542,-0.2724606 1.240877,-0.2882989 0.149141,-0.00555 0.298687,0.010037 0.447593,0 0.24621,-0.016596 0.481603,-0.1023364 0.716149,-0.1790372 0.809645,-0.2647689 1.654854,-0.43055787 2.506522,-0.44759318 0.390181,-0.007805 0.78765,0.0146775 1.163742,-0.0895186 0.326128,-0.0903537 0.618235,-0.27118395 0.917892,-0.42843889 0.299657,-0.15725493 0.62367,-0.29527315 0.961999,-0.28771018 0.297029,0.0066398 0.580499,0.12548696 0.839992,0.27017232 0.259493,0.14468536 0.50366,0.31707477 0.771344,0.44597675 0.434859,0.20940468 0.9226,0.29961968 1.342779,0.53711178 0.281147,0.1589091 0.523847,0.3793983 0.805667,0.5371118 0.323612,0.1811015 0.688923,0.2739145 1.053781,0.3402542 0.364859,0.06634 0.734572,0.1082367 1.094668,0.1968576 0.358745,0.088288 0.707615,0.2228325 1.074224,0.2685558 0.533712,0.066564 1.076688,-0.058602 1.611333,0 0.239372,0.026237 0.475345,0.089187 0.716151,0.089519 0.240819,3.32e-4 0.47691,-0.061965 0.716147,-0.089519 0.504259,-0.058079 1.014225,0 1.521818,0 h 3.93882 c 0.56721,0 1.136346,0.055308 1.700853,0 0.641825,-0.062883 1.249132,-0.3133029 1.879893,-0.4475931 0.619327,-0.1318559 1.257697,-0.1509698 1.879891,-0.2685559 0.445421,-0.084178 0.891272,-0.219373 1.342779,-0.1790373 0.201081,0.017964 0.398336,0.070654 0.599978,0.08049 0.100821,0.00492 0.202865,-0.00108 0.300377,-0.027166 0.09751,-0.026086 0.190558,-0.07295 0.263386,-0.1428433 0.03046,-0.029233 0.05726,-0.062289 0.08952,-0.089519 0.08265,-0.069754 0.194393,-0.095442 0.302454,-0.099822 0.108061,-0.00438 0.216027,0.010209 0.324177,0.010304 0.210876,1.845e-4 0.419098,-0.05501 0.612869,-0.1382044 0.193772,-0.083194 0.37438,-0.1939852 0.550875,-0.3093887 0.145758,-0.0953056 0.289991,-0.19446014 0.447593,-0.26855588 0.261185,-0.12279476 0.552267,-0.1729401 0.840848,-0.17711449 0.288581,-0.004174 0.575996,0.0362581 0.860004,0.0875958 0.328335,0.0593502 0.654181,0.13342339 0.984705,0.17903727 0.474583,0.0654947 0.958609,0.071675 1.432298,0 0.357159,-0.0540427 0.718485,-0.15222887 1.074225,-0.0895186 0.121201,0.0213654 0.238341,0.0610517 0.358073,0.0895186 0.349562,0.0831101 0.714399,0.0692717 1.072607,0.0412011 0.358208,-0.0280706 0.717684,-0.0699093 1.075842,-0.0412011 0.246609,0.0197671 0.492284,0.0737198 0.716148,0.17903731 0.31364,0.147553 0.571611,0.388517 0.835763,0.6129402 0.264152,0.2244233 0.550512,0.4411358 0.887176,0.5235955 0.168331,0.04123 0.34714,0.04685 0.514396,0.00145 0.167255,-0.045399 0.322114,-0.1438372 0.422579,-0.2850541 0.100466,-0.1412169 0.142628,-0.3258809 0.09955,-0.4937494 -0.02154,-0.083934 -0.06374,-0.1627213 -0.123078,-0.2258721 -0.05934,-0.063151 -0.135822,-0.1103728 -0.219384,-0.1333118 -0.115945,-0.031829 -0.238997,-0.016645 -0.358074,0 -0.05788,0.00809 -0.117017,0.016881 -0.168757,0.044062 -0.02587,0.013591 -0.04958,0.031791 -0.06758,0.054812 -0.018,0.023021 -0.0301,0.051017 -0.03222,0.080162 -0.0022,0.029836 0.0059,0.0602 0,0.089519 -0.0052,0.025548 -0.02099,0.048294 -0.04156,0.064313 -0.02056,0.016019 -0.04562,0.025632 -0.07126,0.03033 -0.05128,0.0094 -0.103833,-2.068e-4 -0.155735,-0.00512 -0.215935,-0.02046 -0.438798,0.044277 -0.610167,0.1772403 -0.171369,0.132963 -0.289444,0.3327557 -0.323273,0.5470036 -0.03383,0.2142479 0.01694,0.4407007 0.13901,0.6199954 0.122066,0.1792946 0.314141,0.3095479 0.525875,0.3566147 -0.07066,0.2055281 -0.130454,0.414794 -0.179038,0.6266305 -0.08071,0.3519343 -0.130528,0.7154883 -0.08952,1.0742236 0.0553,0.483788 0.273855,0.9453883 0.268557,1.4322981 -0.0016,0.1494675 -0.02444,0.3001291 0,0.4475932 0.03299,0.199033 0.148557,0.373259 0.26296,0.5394355 0.114403,0.1661765 0.233158,0.337247 0.274149,0.5347879 0.04863,0.2343584 -0.01806,0.4774806 0,0.7161493 0.01941,0.2566111 0.135677,0.4957655 0.268558,0.716149 0.08538,0.1416111 0.178603,0.2787516 0.254624,0.4256024 0.07602,0.1468507 0.134992,0.3054692 0.145687,0.4704843 0.01069,0.165015 -0.03076,0.337555 -0.136826,0.464421 -0.05303,0.06343 -0.121511,0.114409 -0.198791,0.143801 -0.07728,0.02939 -0.163317,0.03673 -0.243732,0.01751 -0.01498,-0.0036 -0.02985,-0.0081 -0.04519,-0.0094 -0.01535,-0.0013 -0.03157,7.75e-4 -0.04433,0.0094 -0.01043,0.0071 -0.01785,0.01812 -0.02157,0.03016 -0.0037,0.01204 -0.0039,0.025 -0.0017,0.0374 0.0044,0.02481 0.0178,0.04693 0.03038,0.06877 0.01257,0.02184 0.02482,0.04492 0.02648,0.07007 8.3e-4,0.01257 -0.0011,0.02547 -0.0068,0.03674 -0.0056,0.01127 -0.01511,0.02079 -0.02683,0.02542 -0.01402,0.0055 -0.02975,0.0038 -0.04464,0.0015 -0.0149,-0.0023 -0.03024,-0.0051 -0.04488,-0.0015 -0.01264,0.0031 -0.02387,0.01101 -0.03203,0.02117 -0.0082,0.01015 -0.01336,0.02249 -0.01609,0.03522 -0.0055,0.02547 -0.0013,0.05191 0.003,0.07762 0.0042,0.02571 0.0085,0.05211 0.0032,0.07762 -0.0026,0.01276 -0.0077,0.02513 -0.01579,0.03537 -0.0081,0.01024 -0.01918,0.01825 -0.03178,0.02156 -0.01457,0.0038 -0.02994,0.0013 -0.04483,-9.72e-4 -0.01489,-0.0022 -0.03051,-0.0041 -0.04469,9.72e-4 -0.01167,0.0042 -0.02145,0.01291 -0.02782,0.02354 -0.0064,0.01063 -0.0094,0.02305 -0.0098,0.03543 -7.36e-4,0.02477 0.0089,0.04861 0.01991,0.07083 0.01098,0.02221 0.02358,0.04399 0.02946,0.06806 0.0029,0.01203 0.0041,0.02459 0.0025,0.03687 -0.0017,0.01227 -0.0063,0.02427 -0.0142,0.03384 -0.01083,0.01316 -0.02771,0.02113 -0.04476,0.02113 -0.01705,0 -0.03393,-0.008 -0.04476,-0.02113 -0.04501,0.05033 -0.07627,0.112834 -0.08952,0.179038 -0.01836,0.0917 -0.0025,0.186317 -0.0016,0.279831 4.11e-4,0.04676 -0.003,0.09395 -0.01624,0.138814 -0.01319,0.04486 -0.03663,0.08747 -0.07164,0.118467 -0.03936,0.03485 -0.09182,0.0533 -0.144345,0.0556 -0.05252,0.0023 -0.105033,-0.0109 -0.15257,-0.03335 -0.09508,-0.0449 -0.168678,-0.124218 -0.240197,-0.201292 -0.182951,-0.197159 -0.370343,-0.393374 -0.591857,-0.545933 -0.221514,-0.152559 -0.481959,-0.260188 -0.750925,-0.259734 -0.119619,2.02e-4 -0.240405,0.02152 -0.358073,0 -0.09294,-0.017 -0.178844,-0.05987 -0.268555,-0.08952 -0.164069,-0.05423 -0.339951,-0.06398 -0.51247,-0.05413 -0.172518,0.0098 -0.343354,0.03834 -0.514112,0.06482 -0.341516,0.05296 -0.686748,0.07883 -1.032347,0.07883 h -1.879891 c -0.358233,0 -0.717637,-0.03429 -1.074225,0 -0.454944,0.04374 -0.887,0.234608 -1.342779,0.268555 -0.208373,0.01552 -0.417692,-0.0021 -0.626631,0 -0.496835,0.0051 -0.993685,0.124646 -1.432298,0.358075 -0.117931,0.06276 -0.232337,0.133905 -0.358074,0.179037 -0.1982,0.07114 -0.414404,0.07396 -0.624294,0.0569 -0.209889,-0.01706 -0.418418,-0.05314 -0.628966,-0.0569 -0.331048,-0.0059 -0.657505,0.06806 -0.982992,0.128771 -0.325488,0.06071 -0.660471,0.108454 -0.986418,0.05027 -0.335469,-0.05989 -0.646169,-0.229579 -0.984705,-0.268556 -0.267061,-0.03075 -0.537717,0.02165 -0.805669,0 -0.333055,-0.02691 -0.650775,-0.167199 -0.984705,-0.179037 -0.11932,-0.0042 -0.238953,0.0081 -0.358074,0 -0.311855,-0.02117 -0.595739,-0.178928 -0.895186,-0.268557 -0.345278,-0.103347 -0.711664,-0.115604 -1.0715,-0.09521 -0.359835,0.02039 -0.717248,0.07256 -1.076948,0.09521 -1.073129,0.0676 -2.155047,-0.127898 -3.22267,0 -0.360485,0.04318 -0.715529,0.122901 -1.074225,0.179038 -1.152942,0.180438 -2.329976,0.115482 -3.491224,0 -0.447385,-0.04449 -0.903555,-0.09598 -1.342782,0 -0.274177,0.05991 -0.534011,0.175959 -0.809312,0.230473 -0.137651,0.02726 -0.279576,0.03885 -0.418548,0.01942 -0.138973,-0.01943 -0.275212,-0.0711 -0.383473,-0.160374 -0.05838,-0.04815 -0.107725,-0.106234 -0.163446,-0.157437 -0.05572,-0.0512 -0.120365,-0.09659 -0.194631,-0.11112 -0.05874,-0.0115 -0.119253,-0.003 -0.179036,0 -0.299676,0.01484 -0.586858,-0.110827 -0.856699,-0.242023 -0.26984,-0.131195 -0.544905,-0.273297 -0.844156,-0.295088 -0.148869,-0.01084 -0.298588,0.0088 -0.447593,0 -0.165891,-0.0098 -0.327426,-0.05443 -0.490667,-0.08553 -0.163241,-0.03111 -0.333905,-0.0484 -0.494038,-0.004 -0.091,0.02524 -0.176196,0.06982 -0.268555,0.08952 -0.117175,0.025 -0.238573,0.0086 -0.358074,0 -0.461163,-0.03329 -0.933211,0.054 -1.34278,0.268556 -0.332143,0.173994 -0.625278,0.430319 -0.984705,0.537112 -0.315899,0.09386 -0.653474,0.06714 -0.982022,0.04148 -0.328548,-0.02566 -0.65784,-0.04148 -0.987388,-0.04148 h -4.923525 c -0.956186,0 -1.91876,-0.05079 -2.864596,0.08952 -0.138108,0.02049 -0.276611,0.04582 -0.416166,0.04157 -0.139555,-0.0043 -0.282871,-0.04096 -0.389502,-0.13109 -0.03225,-0.02726 -0.06053,-0.05882 -0.08952,-0.08952 -0.385079,-0.407676 -0.927217,-0.673832 -1.487843,-0.687419 -0.280313,-0.0068 -0.562571,0.04863 -0.81723,0.165979 -0.254658,0.117349 -0.481108,0.296897 -0.649042,0.52144 -0.01276,0.01707 -0.02523,0.03443 -0.0396,0.05017 -0.01437,0.01574 -0.03081,0.02992 -0.04992,0.03935 -0.02745,0.01355 -0.05912,0.01663 -0.08963,0.01404 -0.03051,-0.0026 -0.06027,-0.01054 -0.08993,-0.01813 -0.02966,-0.0076 -0.05966,-0.01486 -0.09026,-0.01605 -0.0306,-0.0012 -0.06216,0.0041 -0.08826,0.02013 -0.01805,0.01107 -0.03276,0.02676 -0.04656,0.04282 -0.0138,0.01606 -0.02701,0.03278 -0.04296,0.0467 -0.02362,0.02061 -0.05274,0.03445 -0.08319,0.04191 -0.03045,0.0075 -0.06222,0.0087 -0.09343,0.0058 -0.062427,-0.0058 -0.1220465,-0.02766 -0.1814543,-0.04769 -0.8990899,-0.30321 -1.9091057,-0.208766 -2.7750778,0.179037 -0.1339041,0.05997 -0.2678425,0.127554 -0.413444,0.14562 -0.072801,0.009 -0.1479328,0.0051 -0.2174817,-0.0182 -0.069549,-0.02333 -0.1332574,-0.06691 -0.1747419,-0.127418 -0.01229,-0.01792 -0.022625,-0.03724 -0.036388,-0.05406 -0.00688,-0.0084 -0.014626,-0.01618 -0.023511,-0.02244 -0.00888,-0.0063 -0.018947,-0.01098 -0.02962,-0.01302 -0.015897,-0.003 -0.032384,-6.4e-5 -0.047799,0.0049 -0.015415,0.0049 -0.030156,0.0118 -0.045542,0.01682 -0.015386,0.005 -0.031816,0.0082 -0.047763,0.0054 -0.00797,-0.0014 -0.015733,-0.0043 -0.02241,-0.0088 -0.00668,-0.0046 -0.012238,-0.01087 -0.015523,-0.01827 -0.00307,-0.0069 -0.0041,-0.0146 -0.00396,-0.02216 1.418e-4,-0.0076 0.00142,-0.01505 0.00278,-0.02249 0.00137,-0.0074 0.00284,-0.01488 0.00338,-0.02243 5.395e-4,-0.0075 1.249e-4,-0.01525 -0.0022,-0.02244 -0.00394,-0.01218 -0.013303,-0.02225 -0.024635,-0.0282 -0.011332,-0.006 -0.024485,-0.008 -0.037247,-0.007 -0.025524,0.002 -0.048634,0.01525 -0.07039,0.02873 -0.021757,0.01349 -0.043918,0.02782 -0.069119,0.03232 -0.0126,0.0023 -0.025819,0.0019 -0.037912,-0.0023 -0.012093,-0.0042 -0.022978,-0.01241 -0.029253,-0.02356 -0.00745,-0.01324 -0.00792,-0.0293 -0.00614,-0.04439 0.00178,-0.01509 0.00563,-0.02995 0.00614,-0.04513 8.911e-4,-0.02639 -0.00863,-0.0527 -0.024858,-0.07353 -0.016232,-0.02082 -0.038902,-0.03624 -0.063672,-0.04538 -0.04954,-0.01827 -0.1052853,-0.01145 -0.1551499,0.0059 -0.049865,0.01737 -0.095566,0.04463 -0.1428574,0.06812 -0.047291,0.02349 -0.097788,0.04359 -0.1505746,0.04486 -0.047573,0.0011 -0.094255,-0.01311 -0.1381445,-0.0315 -0.04389,-0.01839 -0.085958,-0.04104 -0.1304113,-0.05802 -0.098774,-0.03774 -0.2066347,-0.0464 -0.3122306,-0.04092 -0.1055959,0.0055 -0.209925,0.02463 -0.3143998,0.04092 C 3.4326593,11.86173 2.5383782,11.800055 1.7008416,11.5479 Z"
       id="path2"
       transform="matrix(0.99146467,0,0,1.0001187,0.00917354,-7.3647479e-4)" />
    <path
       style="font-size:17.3333px;line-height:1.25;font-family:Titilliumweb_semibold;-inkscape-font-specification:Titilliumweb_semibold;text-align:center;text-anchor:middle;white-space:pre;fill:#ffffff;stroke-width:1.3"
       d="m 27.932548,14.161423 q 0.259999,-0.052 0.693332,-0.052 0.415999,0 0.831998,0.052 h 0.06933 q 0.06933,0 0.242667,-0.01733 0.190666,-0.03467 0.277332,-0.03467 0.121333,0 0.156,0.03467 0.08667,0.06933 0.225333,0.693332 0.156,0.623999 0.156,0.970665 0,0.294666 0.08667,0.381333 0.104,0.103999 -0.138666,0.277332 -0.346666,0.26 -0.762665,0.26 -0.277333,0 -0.623999,-0.104 -0.450666,-0.121333 -0.589332,-0.121333 -0.208,0 -0.312,0.156 -0.08667,0.138666 -0.190666,0.502665 -0.104,0.364 -0.104,0.502666 0,0.242666 0.398666,0.26 0.08667,0.01733 0.225333,0.01733 0.08667,0 0.658665,-0.104 0.26,-0.052 0.381333,-0.052 0.190666,0 0.519999,0.190666 0.762665,0.416 0.762665,1.126665 0,0.467999 -0.346666,0.831998 -0.190666,0.190667 -0.363999,0.277333 -0.156,0.06933 -0.554666,0.138666 -0.346666,0.052 -0.693332,0.052 -0.519999,0 -1.005331,-0.121333 h -0.03467 l -0.03467,-0.01733 q -0.104,0 -0.138667,1.178664 0,0.138667 0,0.225333 0,0.06933 -0.01733,0.225333 0,0.138667 0,0.26 -0.03467,1.143997 -0.03467,1.299997 0,0.675999 0.138667,1.317331 0.173333,0.693332 0.173333,1.351997 0,0.398666 -0.08667,0.537333 -0.03467,0.052 -0.104,0.052 -0.155999,0 -1.039998,-0.277332 -1.074664,-0.329333 -1.126664,-0.519999 -0.01733,-0.052 -0.052,-0.190667 -0.03467,-0.138666 -0.08667,-0.363999 -0.052,-0.208 -0.08667,-0.381333 -0.173333,-0.675998 -0.173333,-1.109331 0,-0.259999 0.01733,-0.415999 0.01733,-0.104 0.104,-2.010663 l 0.06933,-1.265331 -0.225333,-0.052 q -0.207999,-0.06933 -0.381332,-0.06933 -0.190666,0 -0.26,-0.207999 -0.052,-0.208 -0.052,-0.987998 0,-0.745332 0.06933,-0.883999 0.06933,-0.155999 0.450665,-0.155999 0.173333,0 0.242667,-0.104 0.08667,-0.121333 0.242666,-0.589332 0.207999,-0.675999 0.277333,-1.109331 0.103999,-0.797332 0.606665,-1.230665 0.519999,-0.450665 1.542664,-0.623998 z m 4.922654,1.750663 -0.06933,-0.866665 h 2.426662 v 0.658665 q 0,0.658666 -0.156,0.901332 l -0.173333,0.277333 -0.970665,-0.03467 -0.987998,-0.03467 z m 0.104,2.270662 q 0.08667,0 1.039998,0.138666 0.970664,0.121334 1.057331,0.121334 0.06933,0 0.06933,0.710665 v 0.259999 0.519999 q 0,0.710666 0.03467,1.819997 0.03467,0.831998 0.03467,1.109331 0,0.571999 -0.052,0.901332 -0.06933,0.519999 -0.06933,0.849331 0,0.381333 0.052,0.918665 0.06933,0.901332 0.06933,1.074665 0,0.121333 -0.01733,0.138666 h -0.03467 q -0.190666,0 -1.143997,-0.190666 -0.641332,-0.138667 -1.005332,-0.138667 -0.104,0 -0.104,0.01733 0,0.08667 -0.052,0.03467 -0.156,-0.155999 -0.156,-1.941329 0,-0.710666 0.052,-1.109331 0.06933,-0.433333 0.06933,-1.039998 0,-0.485333 -0.01733,-0.727999 -0.08667,-1.369331 -0.08667,-1.94133 v -0.658665 l 0.01733,-0.866665 z m 9.42932,1.819996 q -0.208,-0.103999 -1.195998,-0.103999 -0.537332,0 -0.641332,0.052 -0.537332,0.242666 -0.883998,1.230664 -0.225333,0.606665 -0.225333,1.819996 0,0.849332 0.01733,1.057332 0.03467,0.207999 0.208,0.467999 l 0.242666,0.381332 0.710665,-0.052 q 0.849332,-0.06933 1.369331,-0.242666 l 0.623999,-0.225333 -0.01733,-0.883998 q -0.01733,-0.277333 -0.03467,-1.143998 -0.01733,-0.866665 -0.01733,-1.022664 -0.01733,-1.265331 -0.156,-1.334665 z m 1.334664,-5.113323 q 0.866665,-0.259999 1.109331,-0.259999 0.138667,0 0.190667,0.121333 0.121333,0.311999 0.121333,3.033327 0,1.507997 -0.06933,1.923996 -0.242666,1.213331 -0.242666,1.715997 0,0.329333 0.08667,0.727999 0.155999,0.658665 0.155999,2.253329 0,1.143997 -0.103999,1.57733 l -0.104,0.502666 h -0.537332 q -0.502666,0 -0.849332,0.155999 -0.658665,0.277333 -1.698663,0.450666 -1.022665,0.190666 -1.83733,0.190666 -0.589332,0 -0.831999,-0.08667 -0.433332,-0.138667 -0.935998,-0.693332 -0.502665,-0.537332 -0.814665,-1.178665 -0.138666,-0.294666 -0.173333,-0.363999 -0.03467,-0.06933 -0.104,-0.259999 -0.052,-0.190667 -0.06933,-0.329333 0,-0.156 0,-0.398666 0,-0.450666 0.052,-1.507997 0.08667,-1.819996 0.779999,-3.085327 0.242666,-0.415999 0.745331,-0.901332 0.519999,-0.485332 0.901332,-0.658665 0.762665,-0.329333 1.750663,-0.329333 0.485333,0 1.282664,0.121333 l 0.277333,0.052 -0.06933,-0.485332 q -0.03467,-0.312 -0.03467,-0.710666 0,-0.363999 0.01733,-0.519999 l 0.052,-0.779998 z m 6.326654,2.859995 q 1.039998,0 1.091998,-0.052 0.052,-0.052 0.294666,-0.052 0.467999,0 0.883998,0.138666 1.525331,0.537332 1.819997,1.594664 0.121333,0.433332 0.311999,0.987998 0.294666,0.849331 0.485332,3.449326 0.06933,1.039998 0.06933,1.178665 0,0.311999 -0.06933,0.589332 -0.103999,0.415999 -0.103999,0.849332 0,0.606665 -0.346666,0.953331 -0.329333,0.346666 -0.918665,0.346666 -0.693332,0 -1.005332,-0.502666 -0.103999,-0.138666 -0.103999,-0.918664 0,-0.866665 0.121333,-1.161332 0.03467,-0.103999 0.03467,-0.346666 0,-0.710665 -0.173333,-2.027996 -0.155999,-1.334664 -0.329332,-1.871996 L 51.88717,20.176077 q -0.381333,0 -1.161331,-0.01733 -0.762666,-0.01733 -1.143998,-0.01733 l -0.190666,0.242666 q -0.173333,0.225333 -0.173333,0.519999 0,0.208 0.01733,0.363999 0.06933,0.658666 0.156,1.074665 0.294666,1.542664 0.294666,2.027996 0,0.294666 -0.08667,0.849332 -0.138666,0.970664 -0.259999,1.091998 -0.121333,0.121333 -1.161331,0.259999 -0.641333,0.104 -0.883999,0.156 l -0.259999,0.052 0.052,-0.658666 q 0.01733,-0.242666 0.06933,-0.571999 0.052,-0.311999 0.06933,-0.537332 0.03467,-0.242666 0.03467,-0.467999 0,-0.363999 -0.06933,-0.762665 -0.294666,-1.819997 -0.294666,-3.275994 v -0.450666 l 0.03467,-1.195997 0.363999,-0.104 q 0.415999,-0.104 0.675999,-0.363999 0.398666,-0.398666 0.762665,-0.519999 0.363999,-0.121333 1.091998,-0.121333 z m 11.127971,1.161331 -0.052,-1.802664 h 0.519999 q 0.935999,0 0.935999,0.277333 0,0.173333 0.121333,0.173333 0.104,0 0.363999,0.190667 0.173333,0.155999 0.415999,0.155999 0.138667,0 0.953332,-0.08667 1.039998,-0.08667 1.438664,-0.08667 0.675998,0.03467 1.213331,0.537333 l 0.277332,0.259999 0.433333,-0.311999 q 0.727998,-0.467999 1.386664,-0.467999 0.190666,0 0.294666,0.01733 0.138666,0.01733 0.658665,0.06933 0.519999,0.052 0.710666,0.06933 0.987998,0.08667 1.542663,0.381333 0.554666,0.277333 0.953332,0.918665 0.398666,0.623999 0.502665,0.953331 0.121333,0.329333 0.121333,0.953332 0,0.173333 -0.03467,1.039998 v 0.173333 q 0,0.502665 0.08667,0.849331 0.06933,0.277333 0.06933,0.554666 0,0.311999 -0.06933,0.814665 -0.121333,0.901332 -0.155999,1.542664 -0.06933,0.623998 -0.104,0.693332 h -0.052 q -0.26,0 -1.178664,-0.190667 -0.918665,-0.173333 -1.039998,-0.242666 -0.06933,-0.01733 -0.06933,-0.277333 0,-0.311999 0.173333,-1.31733 0.121334,-0.589333 0.121334,-0.866665 0,-0.104 -0.03467,-0.242667 -0.08667,-0.207999 -0.121333,-1.455997 -0.01733,-1.265331 -0.173333,-1.542663 -0.156,-0.346666 -0.502666,-0.346666 -0.01733,0 -0.08667,0.01733 -0.052,0 -0.08667,0 -0.190666,0 -0.797332,-0.08667 -0.155999,-0.01733 -0.398666,-0.01733 -0.641332,0 -0.814665,0.294666 -0.01733,0.01733 -0.01733,0.121333 0,0.364 0.104,1.022665 0.138666,1.005331 0.138666,2.859994 0,2.183996 -0.155999,2.235996 -0.121334,0.03467 -0.121334,0.381333 v 0.346666 h -0.866664 q -0.918665,0 -1.091998,-0.08667 -0.173333,-0.06933 -0.26,-0.502666 -0.06933,-0.225332 -0.06933,-0.467999 0,-0.103999 0.01733,-0.121333 0.138667,-0.190666 0.138667,-2.894661 0,-2.131996 -0.571999,-2.825328 l -0.312,-0.398666 -0.831998,0.03467 q -0.935998,0.03467 -1.074665,0.242666 -0.138666,0.190667 -0.190666,1.577331 -0.03467,0.762665 -0.03467,1.195997 0,0.675999 0.06933,1.854663 0.06933,0.710666 0.06933,1.317331 0,0.225333 -0.01733,0.242666 -0.03467,0.01733 -0.06933,0.01733 -0.294666,0 -1.213331,-0.138667 -0.901331,-0.138666 -1.005331,-0.207999 -0.242666,-0.156 -0.242666,-2.998661 0,-0.502666 0.03467,-1.195998 0.06933,-1.109331 0.06933,-2.287995 0,-0.641333 -0.01733,-0.918665 z m 19.447951,1.143997 q -0.190666,-0.173333 -0.554666,-0.173333 -0.589332,0 -1.126664,0.450666 -0.26,0.225333 -0.364,0.675999 l -0.08667,0.485332 0.294666,0.052 q 0.08667,0.01733 0.554666,0.01733 1.837329,0 1.941329,-0.103999 0.01733,-0.01733 0.01733,-0.03467 0,-0.156 -0.277333,-0.710665 -0.26,-0.554666 -0.398666,-0.658666 z m -1.78533,-2.374662 q 0.606665,-0.190666 1.282664,-0.190666 0.745332,0 1.282664,0.225333 1.109332,0.519999 1.62933,1.542664 0.329333,0.675998 0.381333,0.970664 0.06933,0.364 0.173333,0.537333 0.104,0.225333 0.190666,0.745332 0.104,0.519999 0.104,0.883998 0,0.173333 -0.01733,0.225333 -0.052,0.259999 -0.329333,0.606665 -0.259999,0.329333 -0.502666,0.415999 -0.398665,0.156 -1.559996,0.208 -1.143998,0.052 -2.079996,0.06933 -0.935999,0 -0.935999,0.052 0,0.433333 0.467999,0.727999 0.294667,0.190666 1.369331,0.277332 0.571999,0.06933 0.883998,0.06933 0.277333,0 0.693332,-0.156 0.450666,-0.173333 0.762666,-0.173333 0.259999,0 0.623998,0.156 l 0.364,0.173333 -0.03467,0.519999 q -0.121333,1.47333 -0.259999,1.57733 -0.208,0.242666 -2.374662,0.242666 -1.091998,0 -1.819997,-0.104 -0.693332,-0.08667 -1.403997,-0.485332 -0.693332,-0.398666 -1.005332,-0.866665 -0.797331,-1.247998 -0.797331,-2.721328 0,-0.398666 0.01733,-0.606666 0.104,-1.31733 0.381333,-2.235995 0.502665,-1.68133 1.47333,-2.253329 0.363999,-0.190666 1.039998,-0.433333 z m 10.781311,-0.311999 q 0.519999,-0.138666 0.693332,-0.138666 0.173333,0 0.225333,0.138666 0.06933,0.138666 0.155999,0.554666 0,0.052 0,0.08667 0.01733,0.03467 0.01733,0.08667 0.01733,0.052 0.03467,0.103999 0.190667,1.005332 0.242666,1.143998 0.01733,0.06933 -0.06933,0.121333 -0.08667,0.052 -0.346666,0.121333 -0.519999,0.138667 -1.143997,0.571999 -0.831999,0.537332 -1.057332,0.623999 -0.346666,0.156 -0.346666,0.294666 0,0.06933 0.01733,0.121333 0.08667,0.450666 0.173333,3.31066 l 0.06933,2.253329 h -2.443995 l -0.01733,-1.542663 q -0.03467,-2.391996 -0.104,-3.46666 -0.01733,-0.242666 -0.01733,-0.779999 0,-0.554665 0.052,-0.953331 0.052,-0.363999 0.052,-0.623999 0,-0.311999 -0.06933,-0.571999 -0.052,-0.225333 -0.052,-0.346666 0,-0.190666 0.190666,-0.311999 0.208,-0.121333 0.901332,-0.364 0.918665,-0.329332 1.039998,-0.329332 0.138666,0 0.207999,0.277333 0.06933,0.259999 0.190667,0.259999 0.103999,0 0.467999,-0.259999 0.294666,-0.225333 0.935998,-0.381333 z m 3.449314,-2.859994 q 0.121333,-0.190667 0.485333,-0.190667 0.311999,0 0.554665,0.01733 0.866665,0.01733 0.987998,0.173333 0.104,0.138666 0.208,0.953331 0.104,0.797332 0.104,1.369331 v 0.103999 q -0.03467,0.745332 -0.156,1.265331 -0.08667,0.467999 -0.08667,0.693332 0,0.08667 0.01733,0.104 0.052,0.08667 0.155999,1.074665 l 0.104,0.953331 0.415999,-0.190666 q 0.26,-0.121333 0.381333,-0.242666 0.138666,-0.138667 0.311999,-0.467999 0.623999,-1.213331 1.039998,-1.351998 0.277333,-0.08667 0.485333,-0.329332 0.121333,-0.156 0.173333,-0.156 0.052,-0.01733 0.121333,0.104 0.121333,0.155999 0.259999,0.155999 0.156,0 0.208,0.06933 0.06933,0.08667 0.433332,0.155999 0.416,0.06933 0.416,0.121333 0,0.06933 0.173333,0.121333 0.138669,0.03467 0.138669,0.156 0,0.225333 -0.554669,0.883998 -0.450665,0.537333 -0.745331,1.161331 -0.26,0.537333 -0.519999,0.918665 l -0.208,0.329333 0.381333,0.641332 q 0.363999,0.641332 0.675998,0.987998 0.294666,0.329333 0.485333,0.710665 0.06933,0.138667 0.190666,0.346666 0.138666,0.208 0.225333,0.364 0.08667,0.173333 0.138666,0.346666 0,0.01733 0,0.052 l 0.0173,0.03467 q 0,0.121333 -0.173329,0.242666 -0.173333,0.138667 -0.779999,0.537333 -0.901332,0.606665 -1.074665,0.606665 -0.03467,0 -0.190666,-0.415999 -0.190666,-0.693332 -0.779998,-1.386664 -0.26,-0.294666 -0.450666,-0.675999 -0.104,-0.207999 -0.467999,-0.710665 -0.26,-0.329333 -0.589332,-0.329333 H 95.23772 l -0.052,0.779999 q -0.01733,0.156 -0.01733,0.467999 0,0.485332 0.052,0.658665 0.104,0.485333 0.104,0.537333 0,0.207999 -0.173333,0.277332 -0.173333,0.06933 -0.762665,0.138667 -0.883998,0.104 -1.161331,0.104 -0.06933,0 -0.121333,-0.01733 -0.052,0 -0.104,-0.01733 -0.03467,-0.01733 -0.052,-0.03467 -0.01733,-0.01733 -0.03467,-0.06933 -0.01733,-0.052 -0.01733,-0.08667 0,-0.01733 -0.01733,-0.121333 -0.01733,-0.08667 -0.01733,-0.121333 -0.06933,-0.485333 -0.06933,-2.166663 0,-1.299997 0.052,-1.906663 0.104,-1.195998 0.104,-1.73333 0,-0.571999 -0.06933,-0.866665 -0.08667,-0.433332 -0.08667,-0.693332 0,-0.259999 0.052,-0.589332 0.08667,-0.693332 0.08667,-1.646663 0,-0.849332 -0.06933,-1.178665 -0.03467,-0.242666 -0.03467,-0.346666 0,-0.381332 0.242666,-0.675998 z m 11.873323,3.085327 q 0.60666,-0.208 1.19599,-0.208 0.364,0 1.26533,0.08667 1.144,0.104 1.144,0.277333 0,0.121333 -0.312,1.126664 l -0.32933,1.022665 -1.05733,-0.06933 q -0.69333,-0.03467 -0.76267,-0.03467 -0.34666,0 -0.60666,0.156 -0.74533,0.467999 -1.00533,1.819996 l -0.156,0.779999 0.208,0.433332 q 0.26,0.537332 0.416,1.005331 0.17333,0.502666 0.32933,0.641333 0.17333,0.138666 0.74533,0.138666 0.45067,0 0.76267,-0.01733 l 1.23066,-0.03467 0.0867,0.485332 q 0.0867,0.433333 0.19066,0.987998 0.0173,0.121334 0.052,0.277333 0.0347,0.156 0.052,0.26 0.0347,0.104 0.0347,0.155999 0,0.121334 -0.38133,0.173333 -0.38134,0.06933 -1.508,0.104 -0.32933,0.01733 -0.78,0.01733 -0.55467,0 -1.23066,-0.208 -0.74534,-0.242666 -1.07467,-0.554666 -0.312,-0.311999 -0.55466,-1.039998 -0.0867,-0.277332 -0.364,-0.883998 -0.26,-0.623999 -0.43334,-1.109331 -0.156,-0.502666 -0.156,-0.849332 0,-0.363999 0.22534,-1.36933 0.24266,-1.005332 0.39866,-1.282665 0.13867,-0.277332 0.208,-0.658665 0.0173,-0.08667 0.0347,-0.156 0.0347,-0.08667 0.052,-0.121333 0.0347,-0.03467 0.052,-0.01733 0.052,0.052 0.416,-0.311999 0.71066,-0.710666 1.612,-1.022665 z m 5.56398,-1.455997 -0.0693,-1.195998 0.79733,0.052 q 0.832,0.06933 1.21333,0.121333 l 0.416,0.052 v 0.710665 q 0,1.074665 0.32934,1.663997 h 0.0173 q 0.12133,0 0.65866,-0.121333 0.468,-0.121333 0.988,-0.121333 1.17867,0 2.14933,0.623999 0.45067,0.294666 0.65867,0.779998 0.22533,0.467999 0.34666,1.52533 0.19067,1.317331 0.32934,1.975997 0.19066,0.901331 0.19066,2.218662 0,0.831998 -0.0693,1.386664 l -0.0867,0.606665 -1.16133,-0.03467 -1.17866,-0.01733 0.0173,-0.502665 q 0,-0.554666 0.0867,-1.334664 0.0173,-0.190667 0.0173,-0.537333 0,-0.502665 -0.052,-0.762665 -0.364,-1.854663 -0.468,-2.651995 -0.0867,-0.641332 -0.208,-0.745331 -0.104,-0.121334 -0.64133,-0.121334 -0.38133,0 -1.092,0.364 -0.50266,0.259999 -0.624,0.363999 -0.104,0.104 -0.104,0.294666 0,0.277333 -0.156,0.935998 -0.0867,0.467999 -0.0867,0.658666 0,0.207999 0.052,0.381332 0.0693,0.294666 0.13866,2.218663 l 0.052,1.837329 h -2.28799 l -0.12134,-0.415999 q -0.052,-0.259999 -0.052,-0.641332 0,-0.156 0.0347,-0.883998 0.0347,-0.346666 0.0347,-0.814665 0,-0.398666 -0.104,-0.797332 -0.12134,-0.433333 -0.12134,-1.126665 0,-0.589332 0.0867,-0.901331 0.12133,-0.485333 0.12133,-2.911994 0,-1.282665 -0.052,-2.131996 z m 14.55997,3.917325 q -0.19066,-0.173333 -0.55466,-0.173333 -0.58934,0 -1.12667,0.450666 -0.26,0.225333 -0.364,0.675999 l -0.0867,0.485332 0.29466,0.052 q 0.0867,0.01733 0.55467,0.01733 1.83733,0 1.94133,-0.103999 0.0173,-0.01733 0.0173,-0.03467 0,-0.156 -0.27733,-0.710665 -0.26,-0.554666 -0.39867,-0.658666 z M 123.283,17.680082 q 0.60667,-0.190666 1.28267,-0.190666 0.74533,0 1.28266,0.225333 1.10933,0.519999 1.62933,1.542664 0.32933,0.675998 0.38133,0.970664 0.0693,0.364 0.17334,0.537333 0.104,0.225333 0.19066,0.745332 0.104,0.519999 0.104,0.883998 0,0.173333 -0.0173,0.225333 -0.052,0.259999 -0.32933,0.606665 -0.26,0.329333 -0.50267,0.415999 -0.39867,0.156 -1.56,0.208 -1.14399,0.052 -2.07999,0.06933 -0.936,0 -0.936,0.052 0,0.433333 0.468,0.727999 0.29466,0.190666 1.36933,0.277332 0.572,0.06933 0.884,0.06933 0.27733,0 0.69333,-0.156 0.45066,-0.173333 0.76266,-0.173333 0.26,0 0.624,0.156 l 0.364,0.173333 -0.0347,0.519999 q -0.12134,1.47333 -0.26,1.57733 -0.208,0.242666 -2.37467,0.242666 -1.09199,0 -1.81999,-0.104 -0.69333,-0.08667 -1.404,-0.485332 -0.69333,-0.398666 -1.00533,-0.866665 -0.79733,-1.247998 -0.79733,-2.721328 0,-0.398666 0.0173,-0.606666 0.104,-1.31733 0.38133,-2.235995 0.50267,-1.68133 1.47333,-2.253329 0.364,-0.190666 1.04,-0.433333 z m 10.00131,0.06933 q 1.04,0 1.092,-0.052 0.052,-0.052 0.29467,-0.052 0.468,0 0.884,0.138666 1.52533,0.537332 1.81999,1.594664 0.12134,0.433332 0.312,0.987998 0.29467,0.849331 0.48533,3.449326 0.0693,1.039998 0.0693,1.178665 0,0.311999 -0.0693,0.589332 -0.104,0.415999 -0.104,0.849332 0,0.606665 -0.34666,0.953331 -0.32933,0.346666 -0.91867,0.346666 -0.69333,0 -1.00533,-0.502666 -0.104,-0.138666 -0.104,-0.918664 0,-0.866665 0.12134,-1.161332 0.0347,-0.103999 0.0347,-0.346666 0,-0.710665 -0.17333,-2.027996 -0.156,-1.334664 -0.32933,-1.871996 l -0.22534,-0.727999 q -0.38133,0 -1.16133,-0.01733 -0.76266,-0.01733 -1.144,-0.01733 l -0.19066,0.242666 q -0.17333,0.225333 -0.17333,0.519999 0,0.208 0.0173,0.363999 0.0693,0.658666 0.156,1.074665 0.29466,1.542664 0.29466,2.027996 0,0.294666 -0.0867,0.849332 -0.13867,0.970664 -0.26,1.091998 -0.12133,0.121333 -1.16133,0.259999 -0.64133,0.104 -0.884,0.156 l -0.26,0.052 0.052,-0.658666 q 0.0173,-0.242666 0.0693,-0.571999 0.052,-0.311999 0.0693,-0.537332 0.0347,-0.242666 0.0347,-0.467999 0,-0.363999 -0.0693,-0.762665 -0.29467,-1.819997 -0.29467,-3.275994 v -0.450666 l 0.0347,-1.195997 0.364,-0.104 q 0.416,-0.104 0.676,-0.363999 0.39866,-0.398666 0.76266,-0.519999 0.364,-0.121333 1.092,-0.121333 z m 7.19332,-2.773328 q 0.156,-0.277333 0.27733,-0.277333 0.0693,0 0.12133,0.08667 0.052,0.08667 0.988,0.08667 h 0.936 v 0.727998 q 0,1.369331 0.364,1.698664 0.17333,0.155999 0.34666,0.155999 0.156,0 0.43334,-0.138666 0.208,-0.104 0.52,-0.104 0.55466,0 0.90133,0.242666 0.55466,0.381333 0.55466,1.386664 0,0.468 -0.0867,0.571999 -0.0693,0.104 -0.43334,0.104 -0.24266,0 -0.58933,0.190666 -0.312,0.156 -0.81466,0.156 h -0.32934 -0.32933 q -0.45066,0 -0.60666,0.190666 -0.104,0.121333 -0.104,0.346666 0,0.01733 0.0693,0.710666 0.052,0.311999 0.13867,2.027996 0.0347,1.161331 0.104,1.36933 0.0867,0.190667 0.57199,0.190667 h 0.32934 0.832 v 2.409328 h -0.91867 q -0.884,0 -1.33466,-0.06933 -0.624,-0.104 -1.092,-0.623999 -0.468,-0.502665 -0.728,-1.334664 -0.0867,-0.329332 -0.208,-1.78533 -0.104,-1.47333 -0.12133,-2.877327 -0.0347,-0.762665 -0.12134,-0.831999 -0.12133,-0.06933 -0.12133,-1.230664 V 17.19475 h 0.26 q 0.19067,0 0.22533,-0.03467 0.0347,-0.052 0,-0.259999 -0.104,-0.485333 -0.13866,-0.589332 -0.0693,-0.26 -0.0693,-0.589333 0,-0.467999 0.17334,-0.745331 z m 13.1733,1.819996 q 0.32933,-0.138666 0.64133,-0.138666 0.81466,0 1.196,0.675998 0.19066,0.346666 0.19066,0.641332 0,0.312 -0.24266,0.883999 -0.53734,1.143997 -1.21333,1.47333 -0.38134,0.190666 -0.884,0.658666 -0.312,0.294666 -0.468,0.537332 -0.156,0.242666 -0.34667,0.762665 -0.312,0.797332 -0.60666,1.230664 -0.27734,0.416 -0.45067,0.710666 l -0.156,0.294666 0.65867,-0.052 q 0.65866,-0.06933 1.03999,-0.190666 0.416,-0.121334 0.572,-0.121334 0.22534,0 0.64134,0.156 0.93599,0.346666 0.93599,1.195998 0,0.450666 -0.12133,0.485332 -0.13867,0.06933 -0.0867,0.398666 0.0173,0.08667 0.0173,0.208 0,0.138666 -0.22534,0.190666 -0.052,0.01733 -0.208,0.01733 -0.25999,0 -0.46799,-0.052 -0.13867,-0.03467 -0.43334,-0.03467 -0.468,0 -1.09199,0.08667 -0.90134,0.121333 -1.456,0.121333 -0.052,0 -0.156,-0.01733 -0.104,0 -0.13867,0 -0.12133,-0.01733 -0.416,-0.01733 -0.43333,0 -0.64133,0.052 -0.12133,0.03467 -0.34667,0.03467 -0.60666,0 -1.09199,-0.502665 -0.50267,-0.537333 -0.50267,-1.074665 0,-0.156 0.052,-0.346666 0.0693,-0.242666 0.50267,-0.814665 0.45066,-0.589332 0.832,-0.918665 0.17333,-0.173333 0.17333,-0.277333 0,-0.08667 0.312,-0.467999 0.32933,-0.381332 0.572,-1.074664 0.572,-1.473331 1.03999,-1.88933 0.34667,-0.294666 0.312,-0.329333 h -0.0347 q -0.0867,0 -0.50267,0.06933 -0.312,0.052 -0.50266,0.052 -0.0693,0 -0.19067,0 -0.12133,-0.01733 -0.17333,-0.01733 -0.208,0 -0.468,0.052 -0.104,0.03467 -0.38133,0.03467 -0.55467,0 -0.78,-0.138667 -0.0173,-0.01733 -0.0173,-0.06933 0,-0.173333 0.32934,-1.057331 0.416,-1.074665 0.45066,-1.091998 0.0347,-0.03467 0.936,-0.121333 0.91866,-0.104 1.42133,-0.121333 h 0.13867 q 0.468,0 0.64133,0.103999 0.17333,0.104 0.312,0.01733 0.0867,-0.06933 0.34666,-0.06933 0.22534,0 0.53734,-0.138666 z m 10.55597,0.08667 q 0.48533,-0.104 1.248,-0.104 1.12666,0 2.25333,0.190666 1.14399,0.190666 1.43866,0.467999 0.0693,0.052 0.0693,0.121333 0,0.121333 -0.728,0.849332 -0.71066,0.710665 -0.71066,0.849332 0,0.052 0.0173,0.06933 0.0347,0.03467 0.0347,0.06933 0,0.03467 -0.104,0.03467 -0.0867,0 -0.90133,-0.138667 -0.81467,-0.138666 -1.33467,-0.138666 -0.39866,0 -0.65866,0.06933 -0.58933,0.138666 -0.58933,0.329333 0,0.138666 0.0693,0.294666 0.104,0.277333 0.29466,0.363999 0.208,0.08667 0.74534,0.104 0.39866,0.01733 1.14399,0.207999 0.74534,0.190667 1.02267,0.364 1.17866,0.693332 1.47333,1.161331 0.29467,0.467999 0.312,1.663997 v 0.329332 q 0,0.502666 -0.27733,0.987998 -0.468,0.779999 -0.84934,1.091998 -0.38133,0.312 -0.93599,0.398666 -0.468,0.06933 -0.832,0.242666 -0.468,0.190667 -1.248,0.190667 -0.95333,0 -1.872,-0.26 l -0.51999,-0.156 0.0347,-0.658665 q 0.0693,-0.658665 0.104,-0.693332 0.052,-0.052 0.052,-0.450666 0,-0.398666 0.12133,-0.450665 h 0.0693 q 0.32933,0 1.00533,0.103999 0.65866,0.08667 0.91866,0.08667 0.104,0 0.104,-0.01733 0.0867,-0.26 0.22534,-0.26 0.0867,0 0.208,0.052 0.208,0.06933 0.29466,0.06933 0.052,0 0.364,-0.06933 0.39867,-0.121333 0.50267,-0.208 0.12133,-0.103999 0.12133,-0.363999 0,-0.294666 -0.27733,-0.519999 -0.364,-0.294666 -1.95867,-0.502666 -0.76266,-0.103999 -1.09199,-0.207999 -0.312,-0.121333 -0.624,-0.398666 -1.05733,-0.953332 -1.05733,-2.547995 0,-1.247998 0.64133,-1.802663 0.69333,-0.589333 1.68133,-0.814665 z m 7.05464,-0.970665 -0.0693,-0.866665 h 2.42667 v 0.658665 q 0,0.658666 -0.156,0.901332 l -0.17334,0.277333 -0.97066,-0.03467 -0.988,-0.03467 z m 0.104,2.270662 q 0.0867,0 1.03999,0.138666 0.97067,0.121334 1.05734,0.121334 0.0693,0 0.0693,0.710665 v 0.259999 0.519999 q 0,0.710666 0.0347,1.819997 0.0347,0.831998 0.0347,1.109331 0,0.571999 -0.052,0.901332 -0.0693,0.519999 -0.0693,0.849331 0,0.381333 0.052,0.918665 0.0693,0.901332 0.0693,1.074665 0,0.121333 -0.0173,0.138666 h -0.0347 q -0.19066,0 -1.144,-0.190666 -0.64133,-0.138667 -1.00533,-0.138667 -0.104,0 -0.104,0.01733 0,0.08667 -0.052,0.03467 -0.156,-0.155999 -0.156,-1.941329 0,-0.710666 0.052,-1.109331 0.0693,-0.433333 0.0693,-1.039998 0,-0.485333 -0.0173,-0.727999 -0.0867,-1.369331 -0.0867,-1.94133 v -0.658665 l 0.0173,-0.866665 z m 7.93866,-0.814665 q 0.52,-0.138666 0.69334,-0.138666 0.17333,0 0.22533,0.138666 0.0693,0.138666 0.156,0.554666 0,0.052 0,0.08667 0.0173,0.03467 0.0173,0.08667 0.0173,0.052 0.0347,0.103999 0.19066,1.005332 0.24266,1.143998 0.0173,0.06933 -0.0693,0.121333 -0.0867,0.052 -0.34666,0.121333 -0.52,0.138667 -1.144,0.571999 -0.832,0.537332 -1.05733,0.623999 -0.34667,0.156 -0.34667,0.294666 0,0.06933 0.0173,0.121333 0.0867,0.450666 0.17334,3.31066 l 0.0693,2.253329 h -2.444 l -0.0173,-1.542663 q -0.0347,-2.391996 -0.104,-3.46666 -0.0173,-0.242666 -0.0173,-0.779999 0,-0.554665 0.052,-0.953331 0.052,-0.363999 0.052,-0.623999 0,-0.311999 -0.0693,-0.571999 -0.052,-0.225333 -0.052,-0.346666 0,-0.190666 0.19067,-0.311999 0.208,-0.121333 0.90133,-0.364 0.91867,-0.329332 1.04,-0.329332 0.13867,0 0.208,0.277333 0.0693,0.259999 0.19067,0.259999 0.104,0 0.468,-0.259999 0.29466,-0.225333 0.93599,-0.381333 z m 4.29864,0.745332 q 0.884,-0.727999 0.91866,-0.727999 0.104,0 0.312,0.693332 0.208,0.675999 0.416,1.473331 0.208,0.797331 0.29467,0.953331 0.12133,0.208 0.312,1.213331 0.34666,1.750663 0.624,2.114663 0.0867,0.121333 0.12133,0.121333 0.052,0 0.104,-0.450666 0.052,-0.519999 0.38133,-1.490664 0.32933,-0.970665 0.38133,-1.247997 0.27734,-1.230665 0.53734,-1.646664 0.12133,-0.190666 0.24266,-0.623999 0.0693,-0.311999 0.24267,-0.381332 0.17333,-0.08667 1.196,-0.294666 0.76266,-0.138667 0.86666,-0.138667 0.0173,0 0.0347,0 l 0.0173,0.01733 q 0.0867,0.052 0.0867,0.381332 0,1.074665 -0.45067,1.94133 -0.27733,0.554665 -0.27733,0.693332 0,0.155999 -0.24267,0.918665 -0.60666,1.819996 -0.676,2.582661 -0.104,1.299998 -0.32933,1.923997 -0.22533,0.623998 -0.65866,0.814665 -0.29467,0.121333 -0.65867,0.121333 -0.0867,0 -0.74533,-0.03467 -1.07467,-0.104 -1.21333,-0.173333 -0.24267,-0.121333 -0.45067,-0.415999 -0.19066,-0.294666 -0.24266,-0.589332 -0.0693,-0.364 -0.312,-0.745332 -0.624,-0.901332 -0.84934,-2.478662 -0.13866,-0.883998 -0.31199,-1.334664 -0.43334,-1.230664 -0.69334,-2.495995 l -0.0173,-0.156 0.052,0.052 q 0.0347,0.03467 0.0693,0.03467 0.17334,0 0.91867,-0.623999 z m 9.04798,-2.201329 -0.0693,-0.866665 h 2.42666 v 0.658665 q 0,0.658666 -0.156,0.901332 l -0.17333,0.277333 -0.97067,-0.03467 -0.988,-0.03467 z m 0.104,2.270662 q 0.0867,0 1.04,0.138666 0.97066,0.121334 1.05733,0.121334 0.0693,0 0.0693,0.710665 v 0.259999 0.519999 q 0,0.710666 0.0347,1.819997 0.0347,0.831998 0.0347,1.109331 0,0.571999 -0.052,0.901332 -0.0693,0.519999 -0.0693,0.849331 0,0.381333 0.052,0.918665 0.0693,0.901332 0.0693,1.074665 0,0.121333 -0.0173,0.138666 h -0.0347 q -0.19066,0 -1.14399,-0.190666 -0.64134,-0.138667 -1.00533,-0.138667 -0.104,0 -0.104,0.01733 0,0.08667 -0.052,0.03467 -0.156,-0.155999 -0.156,-1.941329 0,-0.710666 0.052,-1.109331 0.0693,-0.433333 0.0693,-1.039998 0,-0.485333 -0.0173,-0.727999 -0.0867,-1.369331 -0.0867,-1.94133 v -0.658665 l 0.0173,-0.866665 z m 6.37865,-1.299997 q 0.48534,-0.104 1.248,-0.104 1.12667,0 2.25333,0.190666 1.144,0.190666 1.43866,0.467999 0.0693,0.052 0.0693,0.121333 0,0.121333 -0.728,0.849332 -0.71067,0.710665 -0.71067,0.849332 0,0.052 0.0173,0.06933 0.0347,0.03467 0.0347,0.06933 0,0.03467 -0.104,0.03467 -0.0867,0 -0.90133,-0.138667 -0.81466,-0.138666 -1.33466,-0.138666 -0.39867,0 -0.65867,0.06933 -0.58933,0.138666 -0.58933,0.329333 0,0.138666 0.0693,0.294666 0.104,0.277333 0.29467,0.363999 0.208,0.08667 0.74533,0.104 0.39867,0.01733 1.144,0.207999 0.74533,0.190667 1.02266,0.364 1.17867,0.693332 1.47333,1.161331 0.29467,0.467999 0.312,1.663997 v 0.329332 q 0,0.502666 -0.27733,0.987998 -0.468,0.779999 -0.84933,1.091998 -0.38133,0.312 -0.936,0.398666 -0.468,0.06933 -0.832,0.242666 -0.468,0.190667 -1.24799,0.190667 -0.95334,0 -1.872,-0.26 l -0.52,-0.156 0.0347,-0.658665 q 0.0693,-0.658665 0.104,-0.693332 0.052,-0.052 0.052,-0.450666 0,-0.398666 0.12133,-0.450665 h 0.0693 q 0.32934,0 1.00533,0.103999 0.65867,0.08667 0.91867,0.08667 0.104,0 0.104,-0.01733 0.0867,-0.26 0.22533,-0.26 0.0867,0 0.208,0.052 0.208,0.06933 0.29467,0.06933 0.052,0 0.364,-0.06933 0.39866,-0.121333 0.50266,-0.208 0.12134,-0.103999 0.12134,-0.363999 0,-0.294666 -0.27734,-0.519999 -0.364,-0.294666 -1.95866,-0.502666 -0.76267,-0.103999 -1.092,-0.207999 -0.312,-0.121333 -0.624,-0.398666 -1.05733,-0.953332 -1.05733,-2.547995 0,-1.247998 0.64133,-1.802663 0.69334,-0.589333 1.68133,-0.814665 z m 7.05466,-0.970665 -0.0693,-0.866665 h 2.42667 v 0.658665 q 0,0.658666 -0.156,0.901332 l -0.17334,0.277333 -0.97066,-0.03467 -0.988,-0.03467 z m 0.104,2.270662 q 0.0867,0 1.03999,0.138666 0.97067,0.121334 1.05734,0.121334 0.0693,0 0.0693,0.710665 v 0.259999 0.519999 q 0,0.710666 0.0347,1.819997 0.0347,0.831998 0.0347,1.109331 0,0.571999 -0.052,0.901332 -0.0693,0.519999 -0.0693,0.849331 0,0.381333 0.052,0.918665 0.0693,0.901332 0.0693,1.074665 0,0.121333 -0.0173,0.138666 h -0.0347 q -0.19066,0 -1.144,-0.190666 -0.64133,-0.138667 -1.00533,-0.138667 -0.104,0 -0.104,0.01733 0,0.08667 -0.052,0.03467 -0.156,-0.155999 -0.156,-1.941329 0,-0.710666 0.052,-1.109331 0.0693,-0.433333 0.0693,-1.039998 0,-0.485333 -0.0173,-0.727999 -0.0867,-1.369331 -0.0867,-1.94133 v -0.658665 l 0.0173,-0.866665 z m 6.37867,-1.299997 q 0.48533,-0.104 1.24799,-0.104 1.12667,0 2.25333,0.190666 1.144,0.190666 1.43867,0.467999 0.0693,0.052 0.0693,0.121333 0,0.121333 -0.728,0.849332 -0.71066,0.710665 -0.71066,0.849332 0,0.052 0.0173,0.06933 0.0347,0.03467 0.0347,0.06933 0,0.03467 -0.104,0.03467 -0.0867,0 -0.90134,-0.138667 -0.81466,-0.138666 -1.33466,-0.138666 -0.39867,0 -0.65866,0.06933 -0.58934,0.138666 -0.58934,0.329333 0,0.138666 0.0693,0.294666 0.104,0.277333 0.29466,0.363999 0.208,0.08667 0.74533,0.104 0.39867,0.01733 1.144,0.207999 0.74533,0.190667 1.02267,0.364 1.17866,0.693332 1.47333,1.161331 0.29466,0.467999 0.312,1.663997 v 0.329332 q 0,0.502666 -0.27734,0.987998 -0.468,0.779999 -0.84933,1.091998 -0.38133,0.312 -0.936,0.398666 -0.468,0.06933 -0.83199,0.242666 -0.468,0.190667 -1.248,0.190667 -0.95333,0 -1.872,-0.26 l -0.52,-0.156 0.0347,-0.658665 q 0.0693,-0.658665 0.104,-0.693332 0.052,-0.052 0.052,-0.450666 0,-0.398666 0.12133,-0.450665 h 0.0693 q 0.32933,0 1.00533,0.103999 0.65866,0.08667 0.91866,0.08667 0.104,0 0.104,-0.01733 0.0867,-0.26 0.22533,-0.26 0.0867,0 0.208,0.052 0.208,0.06933 0.29467,0.06933 0.052,0 0.364,-0.06933 0.39867,-0.121333 0.50266,-0.208 0.12134,-0.103999 0.12134,-0.363999 0,-0.294666 -0.27733,-0.519999 -0.364,-0.294666 -1.95867,-0.502666 -0.76266,-0.103999 -1.092,-0.207999 -0.31199,-0.121333 -0.62399,-0.398666 -1.05734,-0.953332 -1.05734,-2.547995 0,-1.247998 0.64134,-1.802663 0.69333,-0.589333 1.68133,-0.814665 z"
       id="text2"
       transform="matrix(0.26458333,0,0,0.26458333,0.17903727,0.35807453)"
       aria-label="fidn merkchentz sirvisis" />
  </g>
</svg>
