<?xml version="1.0" encoding="UTF-8" standalone="no"?>
<!-- Created with Inkscape (http://www.inkscape.org/) -->

<svg
   width="181.5"
   height="54.5"
   viewBox="0 0 48.021874 14.419792"
   version="1.1"
   id="svg1"
   inkscape:version="1.3.2 (091e20e, 2023-11-25, custom)"
   sodipodi:docname="lodmur.svg"
   xmlns:inkscape="http://www.inkscape.org/namespaces/inkscape"
   xmlns:sodipodi="http://sodipodi.sourceforge.net/DTD/sodipodi-0.dtd"
   xmlns="http://www.w3.org/2000/svg"
   xmlns:svg="http://www.w3.org/2000/svg">
  <sodipodi:namedview
     id="namedview1"
     pagecolor="#ffffff"
     bordercolor="#000000"
     borderopacity="0.25"
     inkscape:showpageshadow="2"
     inkscape:pageopacity="0.0"
     inkscape:pagecheckerboard="0"
     inkscape:deskcolor="#d1d1d1"
     inkscape:document-units="mm"
     inkscape:zoom="2.955623"
     inkscape:cx="75.111068"
     inkscape:cy="27.912897"
     inkscape:window-width="2560"
     inkscape:window-height="1369"
     inkscape:window-x="-8"
     inkscape:window-y="-8"
     inkscape:window-maximized="1"
     inkscape:current-layer="layer1" />
  <defs
     id="defs1"><filter id="lf" x="0" y="0" width="100%" height="100%"><feComponentTransfer><feFuncR type="linear" slope="1.4"/><feFuncG type="linear" slope="1.4"/><feFuncB type="linear" slope="1.4"/></feComponentTransfer></filter>
    <rect
       x="9.1351298"
       y="7.7817773"
       width="165.78569"
       height="41.615592"
       id="rect1" />
    <inkscape:path-effect
       effect="spiro"
       id="path-effect1"
       is_visible="true"
       lpeversion="1" />
  </defs>
  <g
     inkscape:label="Layer 1"
     inkscape:groupmode="layer"
     id="layer1" filter="url(#lf)">
    <path
       style="fill:#13161f;stroke:#13161f;stroke-width:0.20611;fill-opacity:1;stroke-opacity:1"
       d="M 1.3427795,13.427795 C 1.6206786,12.848038 1.7157868,12.182281 1.6113354,11.547903 1.532433,11.068695 1.3422535,10.610126 1.0742236,10.205124 0.90361306,9.9473262 0.69705404,9.7004683 0.62663043,9.3994564 c -0.0614224,-0.2625382 -0.0118041,-0.5362985 0,-0.8056676 0.026212,-0.5981594 -0.13517965,-1.207099 0,-1.7903727 C 0.66927116,6.6194297 0.74048974,6.4435642 0.8056677,6.2663043 0.94871655,5.8772646 1.0643336,5.4746642 1.0971144,5.0614569 1.1298953,4.6482495 1.0764557,4.2220697 0.89518632,3.8493012 0.86600549,3.7892927 0.83363663,3.7308468 0.8056677,3.670264 0.63797726,3.307034 0.6405783,2.8709413 0.8056677,2.5065217 0.85891127,2.3889914 0.92777433,2.279142 0.98300945,2.1625344 1.0382446,2.0459269 1.080193,1.9192625 1.0742236,1.7903726 1.0689091,1.6756223 1.0259701,1.5652742 1.0190079,1.4506121 c -0.00348,-0.057331 0.00242,-0.1162015 0.02566,-0.1687277 0.023237,-0.052526 0.065205,-0.098218 0.119075,-0.1181422 0.028366,-0.010491 0.059055,-0.013645 0.089277,-0.012505 0.030222,0.00114 0.060126,0.00647 0.08976,0.012505 0.2900173,0.059095 0.5635628,0.1878173 0.8056677,0.3580745 0.1210116,0.0851 0.2345297,0.1804958 0.3558086,0.2652143 0.1212789,0.084718 0.2520392,0.1593785 0.3951577,0.1968336 0.1431185,0.037455 0.3003804,0.035138 0.433691,-0.029003 0.066655,-0.032071 0.1263672,-0.079292 0.1704615,-0.1386823 0.044094,-0.05939 0.072205,-0.1310415 0.077179,-0.2048433 0.00201,-0.029782 3.126e-4,-0.059671 0,-0.089519 C 3.5782504,1.2835216 3.6663435,1.0476821 3.8132421,0.86003455 3.9601407,0.67238705 4.1636178,0.53216807 4.3864134,0.44759316 4.669557,0.34010966 4.9810069,0.32110078 5.2815996,0.35807456 5.8098253,0.42304785 6.3010248,0.65303493 6.7903438,0.86234511 7.2796628,1.0716553 7.7931819,1.2661216 8.3252331,1.2532609 c 0.2696378,-0.00652 0.5441577,-0.066026 0.8056679,0 0.091522,0.023107 0.1785509,0.061071 0.2685558,0.089519 0.2151237,0.067994 0.4443084,0.080618 0.6696452,0.069449 0.225337,-0.011169 0.448793,-0.045519 0.673134,-0.069449 0.416341,-0.044411 0.837905,-0.052836 1.253261,0 0.797993,0.101509 1.548852,0.4245678 2.327484,0.6266304 0.191641,0.049733 0.386378,0.092336 0.584176,0.1010277 0.197799,0.00869 0.399923,-0.017793 0.579566,-0.1010277 0.121245,-0.056177 0.231092,-0.1374264 0.358075,-0.1790373 0.118502,-0.038832 0.245304,-0.041002 0.369217,-0.055005 0.123914,-0.014003 0.252223,-0.042909 0.346932,-0.1240322 0.03206,-0.027463 0.05924,-0.060099 0.08952,-0.089519 0.09011,-0.087564 0.206901,-0.1451614 0.329131,-0.1742774 0.12223,-0.029116 0.249891,-0.030688 0.37466,-0.015831 0.249537,0.029714 0.486228,0.1233863 0.728508,0.1901088 0.668726,0.1841631 1.38427,0.1610813 2.058928,0 0.330958,-0.07902 0.653544,-0.1903923 0.984705,-0.2685558 0.732834,-0.1729696 1.506674,-0.179376 2.237966,0 0.239061,0.058638 0.473649,0.1368178 0.716149,0.1790372 0.678227,0.1180801 1.384805,-0.050097 2.058929,0.089519 0.292564,0.060592 0.572292,0.178115 0.867948,0.2211582 0.147828,0.021522 0.299848,0.023934 0.44553,-0.00913 0.145681,-0.033063 0.285046,-0.1031936 0.387375,-0.2120291 0.041,-0.043603 0.07559,-0.092731 0.113248,-0.1392468 0.03766,-0.046516 0.07918,-0.091094 0.130296,-0.1222183 0.05112,-0.031125 0.11319,-0.047799 0.171677,-0.035102 0.02924,0.00635 0.05706,0.020033 0.07894,0.040444 0.02188,0.020412 0.03762,0.047639 0.04295,0.077086 0.0053,0.029428 3.38e-4,0.059615 0,0.089519 -7.72e-4,0.068234 0.02292,0.1349491 0.05697,0.1940889 0.03404,0.05914 0.07823,0.1116976 0.122073,0.1639856 0.205236,0.2447569 0.410169,0.4929788 0.658076,0.6943984 0.247908,0.2014195 0.545263,0.355349 0.863742,0.3798254 0.214237,0.016465 0.428877,-0.025894 0.635631,-0.084386 0.206754,-0.058492 0.408869,-0.1332946 0.617628,-0.1841703 0.46788,-0.1140249 0.955641,-0.1050475 1.434922,-0.1519755 0.479282,-0.046928 0.974805,-0.1609157 1.340155,-0.4746549 0.04126,-0.03543 0.08059,-0.073206 0.124018,-0.1059417 0.04343,-0.032736 0.09161,-0.060598 0.14454,-0.073096 0.08742,-0.020643 0.178752,0.00209 0.268554,0 0.142724,-0.00332 0.2757,-0.068773 0.403116,-0.1331646 0.127416,-0.064391 0.259871,-0.1305266 0.402551,-0.1353913 0.123063,-0.0042 0.242389,0.037691 0.36359,0.059422 0.0606,0.010866 0.122669,0.016713 0.18377,0.00916 0.0611,-0.00755 0.121474,-0.029191 0.168791,-0.068581 0.03245,-0.027016 0.05793,-0.061505 0.08952,-0.089519 0.04658,-0.041299 0.105495,-0.067336 0.166491,-0.079769 0.061,-0.012432 0.12412,-0.011724 0.18587,-0.00384 0.123498,0.015762 0.241621,0.059611 0.363786,0.083612 0.361639,0.071048 0.734824,-0.03538 1.074225,-0.1790372 0.209326,-0.088601 0.412682,-0.1917888 0.626631,-0.26855591 0.259497,-0.0931099 0.53192,-0.14631532 0.805667,-0.17903727 0.563879,-0.0674025 1.13441,-0.0489916 1.700855,-0.0895187 0.269572,-0.0192869 0.538035,-0.0519131 0.805667,-0.0895186 0.313324,-0.0440257 0.626408,-0.0949647 0.942482,-0.10937595 0.316074,-0.0144112 0.637457,0.008683 0.937409,0.10937595 0.07266,0.0243917 0.144317,0.0524996 0.219105,0.0692684 0.07479,0.0167689 0.151843,0.0202502 0.228488,0.0202502 h 2.417003 c 0.04526,0 0.09042,0.003622 0.135303,0.009464 0.02244,0.002921 0.04499,0.005728 0.06762,0.005312 0.02263,-4.1541e-4 0.04559,-0.004267 0.06563,-0.0147758 0.0188,-0.009858 0.03419,-0.0251285 0.04804,-0.041218 0.01385,-0.0160895 0.0265,-0.0332578 0.04148,-0.0483006 0.04349,-0.0436739 0.105937,-0.0670273 0.167548,-0.0652991 0.06161,0.001728 0.121747,0.0278688 0.166951,0.0697671 0.0452,0.0418982 0.07555,0.0989314 0.0878,0.15933749 0.01225,0.0604061 0.0067,0.12393596 -0.01307,0.1823026 -0.03961,0.11673328 -0.13447,0.20916538 -0.243942,0.26583658 -0.109471,0.056671 -0.232965,0.080807 -0.355666,0.092648 -0.1227,0.011841 -0.246312,0.012054 -0.368976,0.024263 -0.122664,0.012209 -0.246079,0.037108 -0.355036,0.094762 -0.108956,0.057654 -0.202787,0.1513258 -0.240641,0.2686404 -0.01893,0.058657 -0.02339,0.1222936 -0.01006,0.1824693 0.01333,0.060176 0.0448,0.1166304 0.09088,0.1575698 0.05349,0.047532 0.12364,0.072371 0.193916,0.085867 0.07028,0.013496 0.142106,0.016717 0.21291,0.027089 0.0708,0.010372 0.142162,0.028615 0.20148,0.068642 0.02966,0.020014 0.05594,0.045393 0.0752,0.075546 0.01926,0.030153 0.03134,0.065174 0.03264,0.1009304 0.0011,0.030175 -0.0053,0.060043 -0.0088,0.090036 -0.0035,0.029994 -0.0038,0.061552 0.0088,0.089001 0.0089,0.019369 0.02365,0.035468 0.03971,0.049469 0.01606,0.014 0.0336,0.026219 0.04981,0.04005 0.04906,0.041869 0.08503,0.098189 0.105712,0.1592788 0.02069,0.06109 0.02639,0.1268007 0.02007,0.1909876 -0.01264,0.1283739 -0.07217,0.2479938 -0.145846,0.3538764 -0.07368,0.1058825 -0.161919,0.2007218 -0.241522,0.302226 -0.0796,0.1015042 -0.151667,0.2120716 -0.18601,0.3364106 -0.03138,0.1136161 -0.02982,0.2346074 -0.0082,0.3504699 0.02166,0.1158625 0.06288,0.2272148 0.110003,0.3352576 0.09424,0.2160857 0.213946,0.4251342 0.256226,0.6570523 0.04826,0.2647418 -0.0085,0.5366957 0,0.8056676 0.0057,0.1818453 0.04132,0.3616763 0.08952,0.5371118 0.06528,0.2376364 0.154256,0.4709572 0.179036,0.716149 0.03004,0.2972503 -0.03583,0.5985779 0,0.8951862 0.04436,0.3672795 0.241935,0.7052335 0.268557,1.0742237 0.01523,0.211099 -0.02647,0.4218725 -0.07328,0.6282807 -0.0468,0.206408 -0.09918,0.413435 -0.105762,0.62498 -0.0056,0.179118 0.02183,0.359242 0,0.537112 -0.01115,0.09081 -0.03502,0.179797 -0.04412,0.270838 -0.0091,0.09104 -0.0021,0.187328 0.04412,0.266274 0.04289,0.07322 0.114555,0.123876 0.179038,0.179037 0.0951,0.08135 0.178484,0.177203 0.240215,0.286061 0.06173,0.108858 0.101441,0.230951 0.109045,0.355863 0.0076,0.124911 -0.01759,0.252526 -0.07781,0.362227 -0.06022,0.109701 -0.156097,0.20059 -0.271451,0.24911 -0.05166,0.02173 -0.106774,0.03505 -0.156935,0.06005 -0.02508,0.0125 -0.0489,0.02797 -0.06871,0.04779 -0.01981,0.01982 -0.03551,0.04417 -0.04291,0.07119 -0.012,0.04382 -0.0016,0.0902 0.0066,0.134887 0.0041,0.02234 0.0077,0.04491 0.0076,0.06763 -9.9e-5,0.02272 -0.004,0.04573 -0.01418,0.06604 -0.0091,0.0181 -0.02295,0.03362 -0.03939,0.04543 -0.01644,0.01181 -0.03538,0.01995 -0.05506,0.02469 -0.03935,0.0095 -0.0809,0.0054 -0.120168,-0.0044 -0.07853,-0.01967 -0.152105,-0.06202 -0.232978,-0.06567 -0.0682,-0.0031 -0.135046,0.02211 -0.193558,0.05728 -0.05851,0.03517 -0.110334,0.08022 -0.164516,0.121754 -0.232695,0.178374 -0.517722,0.293868 -0.810799,0.302253 -0.293077,0.0084 -0.592474,-0.09568 -0.800537,-0.302253 -0.02995,-0.02974 -0.058,-0.06145 -0.08952,-0.08952 -0.076,-0.06768 -0.170856,-0.112513 -0.26989,-0.135963 -0.09903,-0.02345 -0.202243,-0.02609 -0.303479,-0.01566 -0.202472,0.02086 -0.395532,0.09275 -0.590374,0.151626 -0.117828,0.03561 -0.23713,0.06663 -0.358074,0.08952 -0.529456,0.100183 -1.074144,0.04225 -1.611336,0 -0.658331,-0.05178 -1.330721,-0.07828 -1.96941,0.08952 -0.165359,0.04344 -0.328584,0.09992 -0.498691,0.117082 -0.08505,0.0086 -0.171598,0.0071 -0.255187,-0.01079 -0.08359,-0.0179 -0.164255,-0.05267 -0.230828,-0.106294 -0.05936,-0.04782 -0.106142,-0.109199 -0.16074,-0.162388 -0.0273,-0.02659 -0.05675,-0.05128 -0.08972,-0.0704 -0.03297,-0.01913 -0.06963,-0.0326 -0.107615,-0.03577 -0.04525,-0.0038 -0.09026,0.007 -0.135225,0.01334 -0.02248,0.0032 -0.04523,0.0052 -0.06789,0.0037 -0.02266,-0.0015 -0.0453,-0.0066 -0.06544,-0.01706 -0.03775,-0.01966 -0.06332,-0.05599 -0.08952,-0.08952 -0.15366,-0.196628 -0.375475,-0.334582 -0.614121,-0.407536 -0.238646,-0.07295 -0.493565,-0.08336 -0.741284,-0.05321 -0.49544,0.0603 -0.955758,0.276677 -1.419672,0.460742 -0.31739,0.125929 -0.644551,0.238736 -0.984705,0.268556 -0.119057,0.01044 -0.239034,0.0106 -0.358077,0 -0.138958,-0.01237 -0.277014,-0.03937 -0.416514,-0.03797 -0.06975,6.98e-4 -0.139778,0.0086 -0.206594,0.02864 -0.06681,0.02003 -0.130447,0.05249 -0.182559,0.09885 -0.03153,0.02806 -0.05854,0.06085 -0.08952,0.08952 -0.08519,0.07883 -0.198135,0.123559 -0.313048,0.139846 -0.114912,0.01629 -0.23218,0.0056 -0.346289,-0.01557 -0.228219,-0.04239 -0.451335,-0.12698 -0.683442,-0.124281 -0.216679,0.0025 -0.424462,0.08103 -0.637775,0.119157 -0.106657,0.01906 -0.216203,0.02801 -0.323376,0.0121 -0.107173,-0.01591 -0.2123,-0.05798 -0.292108,-0.13126 -0.03109,-0.02855 -0.05802,-0.06143 -0.08952,-0.08952 -0.0731,-0.06519 -0.170606,-0.102352 -0.268556,-0.102352 -0.09795,0 -0.195452,0.03716 -0.268556,0.102352 -0.0816,-0.07055 -0.172051,-0.130847 -0.268557,-0.179037 -0.274528,-0.137085 -0.588406,-0.172409 -0.895186,-0.179038 -0.537378,-0.01161 -1.076961,0.05793 -1.611334,0 -0.512459,-0.05556 -1.008013,-0.22725 -1.521817,-0.268555 -0.271524,-0.02183 -0.550502,-0.0058 -0.805668,0.08952 -0.148444,0.05547 -0.285957,0.136618 -0.432213,0.197627 -0.146256,0.06101 -0.307558,0.101895 -0.462973,0.07093 -0.06131,-0.01222 -0.120298,-0.03536 -0.182245,-0.04378 -0.03097,-0.0042 -0.06272,-0.0047 -0.09329,0.0019 -0.03057,0.0065 -0.05999,0.02027 -0.08254,0.04192 -0.01539,0.01477 -0.02723,0.03277 -0.04062,0.04938 -0.01339,0.01661 -0.02904,0.03234 -0.0489,0.04014 -0.01413,0.0056 -0.02966,0.0068 -0.0448,0.0057 -0.01514,-0.0011 -0.03003,-0.0043 -0.0449,-0.0074 -0.01486,-0.0031 -0.02983,-0.006 -0.045,-0.0065 -0.01517,-4.84e-4 -0.03067,0.0016 -0.04434,0.0082 -0.01543,0.0074 -0.02781,0.02031 -0.03676,0.03492 -0.009,0.01461 -0.0147,0.03096 -0.01929,0.04747 -0.0092,0.03302 -0.01437,0.06819 -0.03346,0.09665 -0.01103,0.01643 -0.02633,0.02983 -0.0436,0.03949 -0.01728,0.0097 -0.03649,0.01563 -0.05608,0.01847 -0.03917,0.0057 -0.07917,-9.97e-4 -0.1173,-0.01161 -0.03813,-0.01062 -0.07509,-0.02514 -0.113261,-0.03561 -0.03817,-0.01047 -0.07825,-0.01686 -0.117353,-0.01073 -0.03321,0.0052 -0.06444,0.01925 -0.0936,0.03598 -0.02916,0.01673 -0.05663,0.03622 -0.08544,0.05354 -0.136154,0.08184 -0.297903,0.112496 -0.456727,0.115826 -0.158824,0.0033 -0.316996,-0.01867 -0.474196,-0.04157 -0.314399,-0.0458 -0.63125,-0.07425 -0.948968,-0.07425 h -3.759783 c -0.775831,0 -1.551687,-0.0073 -2.327484,0 -0.419341,0.004 -0.840789,0.01383 -1.253261,0.08952 -0.260411,0.04779 -0.517485,0.121809 -0.781929,0.134721 -0.132222,0.0065 -0.266004,-0.0027 -0.393688,-0.03763 -0.127683,-0.03495 -0.249291,-0.09643 -0.3462,-0.186613 -0.03089,-0.02875 -0.05914,-0.06023 -0.08952,-0.08952 -0.186877,-0.180169 -0.452128,-0.269672 -0.711599,-0.262016 -0.259471,0.0077 -0.511874,0.107822 -0.7206989,0.262016 -0.106099,0.07834 -0.2014979,0.170064 -0.3026322,0.254718 -0.1011343,0.08465 -0.2098274,0.163253 -0.3332668,0.209699 -0.1234394,0.04645 -0.26393,0.05832 -0.3866474,0.01 -0.061359,-0.02416 -0.1172258,-0.06317 -0.1586372,-0.114491 -0.041411,-0.05132 -0.067943,-0.11507 -0.072077,-0.180884 -0.00187,-0.02979 7.534e-4,-0.05968 0,-0.08952 -0.0018,-0.07127 -0.023172,-0.141617 -0.059039,-0.203226 -0.035867,-0.06161 -0.08599,-0.114534 -0.1440353,-0.15592 -0.1160916,-0.08277 -0.2613488,-0.118057 -0.4039258,-0.118658 -0.2851539,-0.0012 -0.5523051,0.126835 -0.8252938,0.209245 -0.4308247,0.130057 -0.8870012,0.147701 -1.3370236,0.145555 -0.4500224,-0.0021 -0.9020677,-0.02301 -1.3485353,0.03348 -0.2558353,0.03237 -0.5084261,0.09001 -0.7654732,0.110663 -0.257047,0.02065 -0.5243913,0.002 -0.7563435,-0.110663 -0.090487,-0.04396 -0.173702,-0.101284 -0.2601788,-0.152686 -0.086477,-0.0514 -0.1780169,-0.09754 -0.276933,-0.11587 -0.1176472,-0.0218 -0.2384657,-0.0032 -0.3580745,0 -0.2490222,0.0066 -0.4995136,-0.05606 -0.7161491,-0.179037 z"
       id="path1"
       inkscape:path-effect="#path-effect1"
       inkscape:original-d="M 1.3427795,13.427795 C 1.6636666,12.913922 1.7226315,12.141483 1.6113354,11.547903 1.5830614,11.397109 1.1579071,10.372491 1.0742236,10.205124 0.99696417,10.050605 0.68410399,9.6006138 0.62663043,9.3994564 c -0.0625472,-0.2189152 0,-0.5768242 0,-0.8056676 0,-0.5637554 -0.093232,-1.2309808 0,-1.7903727 C 0.6576561,6.6172619 0.77897838,6.4531295 0.8056677,6.2663043 0.8909165,5.6695628 1.0155233,4.4509864 0.89518632,3.8493012 0.88210082,3.7838737 0.81875319,3.7356915 0.8056677,3.670264 c -0.0571251,-0.2856254 -0.0586878,-0.8703032 0,-1.1637423 0.046759,-0.2337948 0.20886,-0.4773653 0.2685559,-0.7161491 0.027265,-0.10906 0.038512,-0.575624 0.089519,-0.6266304 0.042199,-0.042199 0.1236266,-0.022164 0.1790373,0 0.421472,0.1685888 0.3309013,0.2285928 0.8056677,0.3580745 0.056704,0.015465 1.3563757,0.1654412 1.4322982,0.089519 0.0211,-0.0211 -0.011083,-0.061813 0,-0.089519 0.155307,-0.3882678 0.347676,-0.98262519 0.8056676,-1.07422354 0.02809,-0.005618 0.8663678,-0.0967233 0.8951862,-0.0895186 1.0080262,0.25200654 1.992022,0.77834054 3.0436335,0.89518634 0.2669136,0.029657 0.5380395,-0.022302 0.8056679,0 0.094035,0.00784 0.1760273,0.071013 0.2685558,0.089519 0.4115848,0.082317 0.9289862,0 1.3427792,0 0.243762,0 1.004584,-0.099471 1.253261,0 0.766888,0.3067553 1.485885,0.5705238 2.327484,0.6266304 0.249604,0.01664 0.877007,0.071684 1.163742,0 0.129462,-0.032366 0.231477,-0.1368378 0.358075,-0.1790373 0.230626,-0.076875 0.498337,-0.1064333 0.716149,-0.1790372 0.04003,-0.013344 0.04858,-0.079284 0.08952,-0.089519 0.389906,-0.097476 1.056873,0 1.432299,0 0.686309,0 1.373026,0.023652 2.058928,0 0.646202,-0.022283 0.412334,-0.1050213 0.984705,-0.2685558 0.211002,-0.060286 2.066823,-0.034229 2.237966,0 0.241285,0.048257 0.474864,0.1307803 0.716149,0.1790372 0.679857,0.1359715 1.367663,0.089519 2.058929,0.089519 0.54922,0 1.154422,0.060715 1.700853,0 0.05669,-0.0063 0.450662,-0.2654861 0.537112,-0.1790372 0.02109,0.0211 -0.01109,0.061813 0,0.089519 0.04956,0.123902 0.112829,0.2422105 0.179038,0.3580745 0.419942,0.7348987 0.602515,1.1355105 1.521818,1.0742238 1.692312,-0.112821 0.12248,0.014139 1.253259,-0.2685561 0.907799,-0.2269498 1.882162,-0.3289914 2.775077,-0.6266304 0.102069,-0.034022 0.166489,-0.1450149 0.268558,-0.1790373 0.08492,-0.028308 0.180255,0.014717 0.268554,0 0.292487,-0.048747 0.502709,-0.2252758 0.805667,-0.2685559 0.216575,-0.030939 0.508842,0.069103 0.716151,0 0.04003,-0.013345 0.04948,-0.076174 0.08952,-0.089519 0.207306,-0.069103 0.499575,0.030939 0.716147,0 0.359365,-0.051338 0.722051,-0.090993 1.074225,-0.1790372 0.652229,-0.1630572 0.08316,-0.177977 0.626631,-0.26855591 0.284355,-0.0473928 0.555458,-0.0539328 0.805667,-0.17903727 0.04745,-0.0237281 1.548431,-0.0895187 1.700855,-0.0895187 0.953162,0 -0.323601,0.023408 0.805667,-0.0895186 0.290909,-0.0290911 1.6021,-0.0694481 1.879891,0 0.51821,0.12955259 -0.235313,0.0895186 0.447593,0.0895186 0.805667,0 1.611336,0 2.417003,0 0.08952,0 0.188489,0.040034 0.268555,0 0.0034,-0.001677 -0.03245,-0.21148921 0.08952,-0.0895186 0.0892,0.0892005 -1.074222,1.31272998 -1.074222,1.43229818 0,0.1917786 0.632402,0.2743291 0.716148,0.3580745 0.0422,0.042199 -0.01887,0.1224207 0,0.1790372 0.01333,0.040034 0.07065,0.051774 0.08952,0.089519 0.105019,0.21004 -0.367845,1.1035371 -0.447593,1.3427794 -0.179139,0.5374162 0.23572,0.9757193 0.358074,1.3427798 0.07868,0.2360398 -0.04094,0.5600207 0,0.8056676 0.02894,0.1736204 0.06058,0.3634912 0.08952,0.5371118 0.04045,0.2427153 0.15676,0.4710965 0.179036,0.716149 0.02702,0.29717 -0.0422,0.5997898 0,0.8951862 0.05213,0.3649213 0.182467,0.7298592 0.268557,1.0742237 0.107024,0.4281014 -0.04829,0.8610107 -0.179038,1.2532607 -0.04297,0.128896 0,0.414866 0,0.537112 0,0.118968 -0.06295,0.442686 0,0.537112 0.04682,0.07022 0.132223,0.108813 0.179038,0.179037 0.03631,0.05446 0.05238,1.148502 0,1.253261 -0.05995,0.119897 -0.213558,0.12404 -0.268557,0.179037 -0.0633,0.0633 0.04003,0.188488 0,0.268556 -0.02532,0.05066 -0.387887,-0.02985 -0.447593,0 -0.201338,0.10067 -0.08524,0.179037 -0.358074,0.179037 -0.49407,0 -1.129586,0.09635 -1.611336,0 -0.04138,-0.0083 -0.04948,-0.07617 -0.08952,-0.08952 -0.259747,-0.08658 -0.901986,-0.04363 -1.163743,0 -0.121357,0.02023 -0.235993,0.07426 -0.358074,0.08952 -0.525494,0.06569 -1.089255,-0.08701 -1.611336,0 -0.665827,0.110971 -1.275742,0.08952 -1.96941,0.08952 -0.247087,0 -0.72743,0.06432 -0.984706,0 -0.585819,-0.146455 -0.03279,-0.105912 -0.358073,-0.268556 -0.07162,-0.03581 -0.19694,0.03581 -0.268555,0 -0.03775,-0.01887 -0.04949,-0.07617 -0.08952,-0.08952 -0.218916,-0.07297 -2.628876,-0.02924 -2.775077,0 -0.344498,0.0689 -0.679371,0.115889 -0.984705,0.268556 -0.07005,0.03502 -0.294677,-0.01057 -0.358077,0 -0.03166,0.0053 -0.787177,0.0849 -0.805667,0.08952 -0.04094,0.01023 -0.04948,0.07617 -0.08952,0.08952 -0.271036,0.09035 -1.009081,0 -1.342779,0 -0.350821,0 -0.917143,0.112038 -1.253259,0 -0.04003,-0.01335 -0.04948,-0.07617 -0.08952,-0.08952 -0.160856,-0.05362 -0.372202,0.04123 -0.537112,0 -0.162023,0.05396 -0.166489,-0.145015 -0.268557,-0.179037 -0.230931,-0.07698 -0.546693,-0.140316 -0.895186,-0.179038 -0.342651,-0.03807 -1.361797,0.124769 -1.611334,0 -0.440913,-0.220456 -1.001151,-0.342936 -1.521817,-0.268555 -0.228742,0.03268 -0.56918,0.04222 -0.805668,0.08952 -0.305801,0.06116 -0.602666,0.195426 -0.895186,0.268556 -0.115795,0.02895 -0.244842,-0.03774 -0.358075,0 -0.04003,0.01335 -0.05177,0.07065 -0.08952,0.08952 -0.05338,0.02669 -0.136838,-0.0422 -0.179038,0 -0.119358,0.119358 0.189898,0.0859 -0.08952,0.179037 -0.1311,0.0437 -0.313404,-0.03355 -0.447594,0 -0.06473,0.01618 -0.114306,0.07334 -0.179037,0.08952 -0.43644,0.10911 -1.390726,0 -1.879891,0 -1.253261,0 -2.506522,0 -3.759783,0 -0.391852,0 -2.127558,-0.09996 -2.327484,0 -0.246775,0.123387 -0.952525,0.189764 -1.253261,0.08952 -0.374802,-0.124934 -1.375842,-0.01653 -1.521817,-0.08952 -0.03774,-0.01887 -0.05177,-0.07065 -0.08952,-0.08952 -0.10538,-0.05269 -1.262257,-0.03401 -1.4322979,0 -0.218525,0.04371 -1.107984,0.324314 -1.2532609,0.179037 -0.021101,-0.0211 0.0211,-0.06842 0,-0.08952 -0.1583578,-0.158366 -1.2203807,-0.23324 -1.4322937,-0.268559 -0.7388455,-0.123141 -1.9840757,0.0037 -2.6855589,0.179037 -0.1532927,0.03832 -1.3469313,0.0583 -1.5218167,0 -0.2020247,-0.06734 -0.3545319,-0.207696 -0.5371118,-0.268556 -0.1074224,-0.03581 -0.2506522,0.03581 -0.3580745,0 -0.6827639,-0.227588 0.8154372,0.07623 -0.7161491,-0.179037 z" />
    <path
       style="font-size:17.3333px;line-height:1.25;font-family:Titilliumweb_semibold;-inkscape-font-specification:Titilliumweb_semibold;text-align:center;text-anchor:middle;white-space:pre;fill:#ffffff;stroke-width:0.779"
       d="m 34.39414,25.495882 q -0.01733,0 -1.074665,-0.363999 -1.057331,-0.346666 -1.074664,-0.346666 -0.03467,0 -0.08667,0.138666 l -0.01733,0.01733 q -0.01733,0 -0.01733,-0.104 0,-0.052 0.03467,-0.467999 0.01733,-0.138667 0.01733,-0.537333 0,-0.623998 -0.052,-1.143997 -0.06933,-0.710666 -0.104,-3.397327 -0.01733,-0.606666 -0.01733,-1.421331 0,-1.005331 0.190666,-1.403997 0.173333,-0.329333 0.173333,-0.745332 0,-0.450666 -0.121333,-1.52533 l -0.06933,-0.519999 0.259999,0.052 q 0.225333,0.052 1.178665,0.121333 0.675998,0.03467 0.814665,0.08667 0.138666,0.03467 0.207999,0.208 0.052,0.121333 0.08667,1.438664 v 0.519999 q 0,0.710665 -0.138667,0.970665 -0.155999,0.294666 -0.155999,2.426662 0.03467,2.547995 0.08667,2.99866 0.052,0.519999 0.052,1.230665 0,1.767996 -0.173333,1.767996 z m 6.344001,-7.349319 q -0.363999,-0.138666 -0.433332,-0.138666 -0.08667,0 -0.433333,0.190666 -0.901332,0.485332 -0.935998,2.651995 0,0.623999 0.104,0.918665 0.103999,0.277333 0.554665,0.987998 l 0.346666,0.519999 0.901332,-0.06933 q 0.918665,-0.06933 1.005331,-0.156 0.104,-0.138666 0.346666,-0.779999 0.26,-0.745331 0.26,-1.663996 0,-1.386664 -0.467999,-1.750664 -0.571999,-0.450665 -1.247998,-0.710665 z m -1.143998,-2.443995 q 0.433333,-0.121333 0.727999,-0.121333 0.502666,0 1.126664,0.259999 2.253329,0.901332 2.877328,2.166663 0.467999,0.935998 0.467999,2.877328 l -0.01733,1.351997 -0.363999,0.953331 q -0.658666,1.750664 -1.525331,2.114663 -0.329333,0.138666 -1.195997,0.242666 -0.849332,0.121333 -1.542664,0.121333 -0.06933,0 -0.190666,-0.01733 -0.104,0 -0.156,0 -0.623999,-0.052 -1.109331,-0.277333 -0.312,-0.156 -0.571999,-0.415999 -0.26,-0.26 -0.26,-0.415999 0,-0.08667 -0.277333,-0.485333 -0.797331,-1.161331 -0.970664,-2.149329 -0.06933,-0.346666 -0.06933,-0.883998 0,-1.178664 0.346666,-2.426662 0.346666,-1.265331 0.831998,-1.78533 0.277333,-0.294666 0.831998,-0.623999 0.554666,-0.329332 1.039998,-0.485332 z m 12.410655,2.946661 q -0.208,-0.104 -1.195998,-0.104 -0.537332,0 -0.641332,0.052 -0.537332,0.242666 -0.883998,1.230664 -0.225333,0.606666 -0.225333,1.819997 0,0.849331 0.01733,1.057331 0.03467,0.208 0.208,0.467999 l 0.242666,0.381333 0.710666,-0.052 q 0.849331,-0.06933 1.36933,-0.242666 l 0.623999,-0.225333 -0.01733,-0.883999 q -0.01733,-0.277332 -0.03467,-1.143997 -0.01733,-0.866665 -0.01733,-1.022665 -0.01733,-1.265331 -0.156,-1.334664 z m 1.334664,-5.113324 q 0.866665,-0.259999 1.109331,-0.259999 0.138667,0 0.190667,0.121333 0.121333,0.311999 0.121333,3.033328 0,1.507997 -0.06933,1.923996 -0.242667,1.213331 -0.242667,1.715996 0,0.329333 0.08667,0.727999 0.156,0.658665 0.156,2.253329 0,1.143998 -0.104,1.57733 l -0.104,0.502666 h -0.537332 q -0.502666,0 -0.849332,0.156 -0.658665,0.277332 -1.698663,0.450665 -1.022665,0.190667 -1.83733,0.190667 -0.589332,0 -0.831999,-0.08667 -0.433332,-0.138666 -0.935998,-0.693332 -0.502665,-0.537332 -0.814665,-1.178664 -0.138666,-0.294666 -0.173333,-0.363999 -0.03467,-0.06933 -0.104,-0.26 -0.052,-0.190666 -0.06933,-0.329333 0,-0.155999 0,-0.398666 0,-0.450665 0.052,-1.507997 0.08667,-1.819996 0.779999,-3.085327 0.242666,-0.415999 0.745331,-0.901331 0.519999,-0.485333 0.901332,-0.658666 0.762665,-0.329333 1.750663,-0.329333 0.485333,0 1.282664,0.121334 l 0.277333,0.052 -0.06933,-0.485332 q -0.03467,-0.311999 -0.03467,-0.710665 0,-0.364 0.01733,-0.519999 l 0.052,-0.779999 z m 7.574652,4.021326 -0.052,-1.802663 h 0.519999 q 0.935998,0 0.935998,0.277333 0,0.173333 0.121333,0.173333 0.104,0 0.364,0.190666 0.173333,0.156 0.415999,0.156 0.138666,0 0.953331,-0.08667 1.039998,-0.08667 1.438664,-0.08667 0.675999,0.03467 1.213331,0.537332 l 0.277333,0.259999 0.433332,-0.311999 q 0.727999,-0.467999 1.386664,-0.467999 0.190667,0 0.294667,0.01733 0.138666,0.01733 0.658665,0.06933 0.519999,0.052 0.710665,0.06933 0.987998,0.08667 1.542664,0.381332 0.554665,0.277333 0.953331,0.918665 0.398666,0.623999 0.502666,0.953332 0.121333,0.329332 0.121333,0.953331 0,0.173333 -0.03467,1.039998 v 0.173333 q 0,0.502666 0.08667,0.849332 0.06933,0.277333 0.06933,0.554665 0,0.312 -0.06933,0.814665 -0.121333,0.901332 -0.156,1.542664 -0.06933,0.623999 -0.103999,0.693332 h -0.052 q -0.26,0 -1.178665,-0.190666 -0.918665,-0.173333 -1.039998,-0.242666 -0.06933,-0.01733 -0.06933,-0.277333 0,-0.312 0.173333,-1.317331 0.121333,-0.589332 0.121333,-0.866665 0,-0.104 -0.03467,-0.242666 -0.08667,-0.208 -0.121334,-1.455997 -0.01733,-1.265331 -0.173333,-1.542664 -0.155999,-0.346666 -0.502665,-0.346666 -0.01733,0 -0.08667,0.01733 -0.052,0 -0.08667,0 -0.190666,0 -0.797332,-0.08667 -0.156,-0.01733 -0.398666,-0.01733 -0.641332,0 -0.814665,0.294667 -0.01733,0.01733 -0.01733,0.121333 0,0.363999 0.104,1.022664 0.138666,1.005332 0.138666,2.859995 0,2.183996 -0.156,2.235995 -0.121333,0.03467 -0.121333,0.381333 v 0.346666 h -0.866665 q -0.918665,0 -1.091998,-0.08667 -0.173333,-0.06933 -0.259999,-0.502666 -0.06933,-0.225333 -0.06933,-0.467999 0,-0.104 0.01733,-0.121333 0.138666,-0.190667 0.138666,-2.894661 0,-2.131996 -0.571999,-2.825328 l -0.311999,-0.398666 -0.831998,0.03467 q -0.935999,0.03467 -1.074665,0.242667 -0.138666,0.190666 -0.190666,1.57733 -0.03467,0.762665 -0.03467,1.195998 0,0.675998 0.06933,1.854663 0.06933,0.710665 0.06933,1.31733 0,0.225333 -0.01733,0.242667 -0.03467,0.01733 -0.06933,0.01733 -0.294666,0 -1.213331,-0.138666 -0.901332,-0.138667 -1.005331,-0.208 -0.242666,-0.156 -0.242666,-2.998661 0,-0.502666 0.03467,-1.195998 0.06933,-1.109331 0.06933,-2.287995 0,-0.641332 -0.01733,-0.918665 z m 17.003955,-1.195998 q 0.052,-0.052 0.104,-0.052 0.242666,0 0.242666,0.693332 0,0.225333 -0.052,0.433333 -0.121333,0.398666 -0.121333,1.230664 0,0.779999 0.242666,1.490664 0.208,0.606665 0.208,1.005331 0,0.346666 -0.01733,0.589333 -0.03467,0.623998 -0.03467,0.658665 0,0.329333 0.138667,0.415999 0.121333,0.121333 0.658665,0.208 0.537332,0.08667 1.005331,0.08667 0.208,0 0.381333,-0.03467 0.329333,-0.08667 0.433332,-0.190667 0.121333,-0.121333 0.121333,-0.415999 0,-0.259999 -0.01733,-0.433332 -0.03467,-0.346666 -0.173333,-1.230665 -0.138666,-0.883998 -0.138666,-1.403997 0,-0.589332 0.121333,-1.715997 0.121333,-1.126664 0.207999,-1.26533 0.01733,-0.052 0.104,-0.052 0.104,0 1.039998,0.311999 l 1.074665,0.363999 -0.01733,0.346666 q 0,0.052 -0.03467,0.554666 -0.01733,0.485332 -0.052,0.814665 -0.052,0.519999 -0.052,0.831998 0,0.364 0.06933,0.589333 0.26,0.987998 0.26,3.41466 0,0.987998 -0.08667,0.987998 -0.03467,0 -0.052,-0.06933 l -0.08667,-0.207999 -0.294666,0.225333 q -0.346666,0.242666 -0.381333,0.242666 -0.052,0 -0.381332,0.225333 -0.693332,0.467999 -2.062663,0.467999 -0.433332,0 -0.675999,-0.01733 -1.265331,-0.06933 -1.57733,-0.156 -0.693332,-0.190666 -1.213331,-0.883998 -0.779998,-1.074665 -0.779998,-1.99333 0,-0.277333 0.052,-0.589332 0.03467,-0.415999 0.03467,-0.519999 0,-0.311999 -0.121333,-0.693332 -0.346666,-1.057331 -0.346666,-2.027996 0,-0.363999 0.01733,-0.571999 0.06933,-0.970665 0.121333,-1.126664 0.06933,-0.156 0.381333,-0.156 0.329333,0 0.519999,-0.190666 0.156,-0.156 0.485332,-0.156 h 0.190667 0.207999 q 0.312,0 0.346666,-0.03467 z M 89.30604,16.014567 q 0.519999,-0.138666 0.693332,-0.138666 0.173333,0 0.225333,0.138666 0.06933,0.138667 0.155999,0.554666 0,0.052 0,0.08667 0.01733,0.03467 0.01733,0.08667 0.01733,0.052 0.03467,0.104 0.190666,1.005331 0.242666,1.143997 0.01733,0.06933 -0.06933,0.121334 -0.08667,0.052 -0.346666,0.121333 -0.519999,0.138666 -1.143998,0.571999 -0.831998,0.537332 -1.057331,0.623998 -0.346666,0.156 -0.346666,0.294666 0,0.06933 0.01733,0.121334 0.08667,0.450665 0.173333,3.31066 l 0.06933,2.253329 H 85.52738 l -0.01733,-1.542664 q -0.03467,-2.391995 -0.104,-3.46666 -0.01733,-0.242666 -0.01733,-0.779998 0,-0.554666 0.052,-0.953332 0.052,-0.363999 0.052,-0.623999 0,-0.311999 -0.06933,-0.571999 -0.052,-0.225332 -0.052,-0.346665 0,-0.190667 0.190666,-0.312 0.208,-0.121333 0.901332,-0.363999 0.918664,-0.329333 1.039998,-0.329333 0.138666,0 0.207999,0.277333 0.06933,0.259999 0.190666,0.259999 0.104,0 0.468,-0.259999 0.294666,-0.225333 0.935998,-0.381333 z m 12.27197,2.686662 q -0.19067,-0.173333 -0.55467,-0.173333 -0.58933,0 -1.126663,0.450666 -0.26,0.225332 -0.363999,0.675998 l -0.08667,0.485333 0.294666,0.052 q 0.08667,0.01733 0.554663,0.01733 1.83733,0 1.94133,-0.104 0.0173,-0.01733 0.0173,-0.03467 0,-0.155999 -0.27734,-0.710665 -0.26,-0.554665 -0.39866,-0.658665 z m -1.785333,-2.374662 q 0.606663,-0.190667 1.282663,-0.190667 0.74533,0 1.28267,0.225333 1.10933,0.519999 1.62933,1.542664 0.32933,0.675999 0.38133,0.970665 0.0693,0.363999 0.17333,0.537332 0.104,0.225333 0.19067,0.745332 0.104,0.519999 0.104,0.883998 0,0.173333 -0.0173,0.225333 -0.052,0.26 -0.32933,0.606666 -0.26,0.329332 -0.50266,0.415999 -0.39867,0.155999 -1.56,0.207999 -1.144,0.052 -2.08,0.06933 -0.935996,0 -0.935996,0.052 0,0.433333 0.468,0.727999 0.294666,0.190666 1.369326,0.277333 0.572,0.06933 0.884,0.06933 0.27734,0 0.69333,-0.156 0.45067,-0.173333 0.76267,-0.173333 0.26,0 0.624,0.156 l 0.364,0.173333 -0.0347,0.519999 q -0.12133,1.473331 -0.26,1.57733 -0.208,0.242667 -2.37466,0.242667 -1.092,0 -1.82,-0.104 -0.693329,-0.08667 -1.403994,-0.485333 -0.693332,-0.398666 -1.005332,-0.866665 -0.797331,-1.247997 -0.797331,-2.721328 0,-0.398666 0.01733,-0.606665 0.104,-1.317331 0.381333,-2.235996 0.502665,-1.68133 1.47333,-2.253329 0.363999,-0.190666 1.039998,-0.433332 z m 7.955983,0.433332 q 0.884,-0.727998 0.91866,-0.727998 0.104,0 0.312,0.693332 0.208,0.675998 0.416,1.47333 0.208,0.797332 0.29467,0.953332 0.12133,0.207999 0.312,1.213331 0.34666,1.750663 0.624,2.114662 0.0867,0.121333 0.12133,0.121333 0.052,0 0.104,-0.450666 0.052,-0.519999 0.38133,-1.490663 0.32934,-0.970665 0.38134,-1.247998 0.27733,-1.230664 0.53733,-1.646663 0.12133,-0.190667 0.24266,-0.623999 0.0693,-0.312 0.24267,-0.381333 0.17333,-0.08667 1.196,-0.294666 0.76266,-0.138666 0.86666,-0.138666 0.0173,0 0.0347,0 l 0.0173,0.01733 q 0.0867,0.052 0.0867,0.381333 0,1.074664 -0.45067,1.941329 -0.27733,0.554666 -0.27733,0.693332 0,0.156 -0.24267,0.918665 -0.60666,1.819997 -0.67599,2.582662 -0.104,1.299997 -0.32934,1.923996 -0.22533,0.623999 -0.65866,0.814665 -0.29467,0.121333 -0.65867,0.121333 -0.0867,0 -0.74533,-0.03467 -1.07466,-0.104 -1.21333,-0.173333 -0.24267,-0.121334 -0.45067,-0.416 -0.19066,-0.294666 -0.24266,-0.589332 -0.0693,-0.363999 -0.312,-0.745332 -0.624,-0.901331 -0.84933,-2.478662 -0.13867,-0.883998 -0.312,-1.334664 -0.43334,-1.230664 -0.69333,-2.495995 l -0.0173,-0.155999 0.052,0.052 q 0.0347,0.03467 0.0693,0.03467 0.17333,0 0.91866,-0.623999 z m 13.6413,1.94133 q -0.19067,-0.173333 -0.55467,-0.173333 -0.58933,0 -1.12666,0.450666 -0.26,0.225332 -0.364,0.675998 l -0.0867,0.485333 0.29467,0.052 q 0.0867,0.01733 0.55466,0.01733 1.83733,0 1.94133,-0.104 0.0173,-0.01733 0.0173,-0.03467 0,-0.155999 -0.27734,-0.710665 -0.26,-0.554665 -0.39866,-0.658665 z m -1.78533,-2.374662 q 0.60666,-0.190667 1.28266,-0.190667 0.74533,0 1.28267,0.225333 1.10933,0.519999 1.62933,1.542664 0.32933,0.675999 0.38133,0.970665 0.0693,0.363999 0.17333,0.537332 0.104,0.225333 0.19067,0.745332 0.104,0.519999 0.104,0.883998 0,0.173333 -0.0173,0.225333 -0.052,0.26 -0.32933,0.606666 -0.26,0.329332 -0.50266,0.415999 -0.39867,0.155999 -1.56,0.207999 -1.144,0.052 -2.08,0.06933 -0.93599,0 -0.93599,0.052 0,0.433333 0.46799,0.727999 0.29467,0.190666 1.36933,0.277333 0.572,0.06933 0.884,0.06933 0.27734,0 0.69334,-0.156 0.45066,-0.173333 0.76266,-0.173333 0.26,0 0.624,0.156 l 0.364,0.173333 -0.0347,0.519999 q -0.12133,1.473331 -0.26,1.57733 -0.208,0.242667 -2.37466,0.242667 -1.092,0 -1.82,-0.104 -0.69333,-0.08667 -1.40399,-0.485333 -0.69334,-0.398666 -1.00533,-0.866665 -0.79734,-1.247997 -0.79734,-2.721328 0,-0.398666 0.0173,-0.606665 0.104,-1.317331 0.38133,-2.235996 0.50266,-1.68133 1.47333,-2.253329 0.364,-0.190666 1.04,-0.433332 z m 10.00132,0.06933 q 1.04,0 1.092,-0.052 0.052,-0.052 0.29466,-0.052 0.468,0 0.884,0.138667 1.52533,0.537332 1.82,1.594663 0.12133,0.433333 0.312,0.987998 0.29466,0.849332 0.48533,3.449327 0.0693,1.039998 0.0693,1.178664 0,0.312 -0.0693,0.589332 -0.104,0.416 -0.104,0.849332 0,0.606666 -0.34667,0.953332 -0.32933,0.346666 -0.91866,0.346666 -0.69333,0 -1.00533,-0.502666 -0.104,-0.138667 -0.104,-0.918665 0,-0.866665 0.12133,-1.161331 0.0347,-0.104 0.0347,-0.346666 0,-0.710665 -0.17334,-2.027996 -0.156,-1.334664 -0.32933,-1.871997 l -0.22533,-0.727998 q -0.38134,0 -1.16133,-0.01733 -0.76267,-0.01733 -1.144,-0.01733 l -0.19067,0.242666 q -0.17333,0.225333 -0.17333,0.519999 0,0.208 0.0173,0.364 0.0693,0.658665 0.156,1.074664 0.29467,1.542664 0.29467,2.027996 0,0.294666 -0.0867,0.849332 -0.13866,0.970665 -0.26,1.091998 -0.12133,0.121333 -1.16133,0.259999 -0.64133,0.104 -0.884,0.156 l -0.26,0.052 0.052,-0.658665 q 0.0173,-0.242667 0.0693,-0.571999 0.052,-0.312 0.0693,-0.537333 0.0347,-0.242666 0.0347,-0.467999 0,-0.363999 -0.0693,-0.762665 -0.29466,-1.819996 -0.29466,-3.275993 v -0.450666 l 0.0347,-1.195998 0.364,-0.104 q 0.416,-0.103999 0.676,-0.363999 0.39867,-0.398666 0.76267,-0.519999 0.364,-0.121333 1.09199,-0.121333 z m 7.19331,-2.773328 q 0.156,-0.277333 0.27733,-0.277333 0.0693,0 0.12134,0.08667 0.052,0.08667 0.98799,0.08667 h 0.936 v 0.727999 q 0,1.36933 0.364,1.698663 0.17334,0.156 0.34667,0.156 0.156,0 0.43333,-0.138667 0.208,-0.103999 0.52,-0.103999 0.55467,0 0.90133,0.242666 0.55467,0.381332 0.55467,1.386664 0,0.467999 -0.0867,0.571999 -0.0693,0.103999 -0.43333,0.103999 -0.24267,0 -0.58933,0.190667 -0.312,0.155999 -0.81467,0.155999 h -0.32933 -0.32933 q -0.45067,0 -0.60667,0.190667 -0.104,0.121333 -0.104,0.346666 0,0.01733 0.0693,0.710665 0.052,0.311999 0.13867,2.027996 0.0347,1.161331 0.104,1.369331 0.0867,0.190666 0.572,0.190666 h 0.32933 0.832 v 2.409329 h -0.91867 q -0.88399,0 -1.33466,-0.06933 -0.624,-0.104 -1.092,-0.623999 -0.468,-0.502666 -0.728,-1.334664 -0.0867,-0.329333 -0.208,-1.78533 -0.104,-1.473331 -0.12133,-2.877328 -0.0347,-0.762665 -0.12133,-0.831998 -0.12134,-0.06933 -0.12134,-1.230665 v -1.161331 h 0.26 q 0.19067,0 0.22534,-0.03467 0.0347,-0.052 0,-0.26 -0.104,-0.485332 -0.13867,-0.589332 -0.0693,-0.259999 -0.0693,-0.589332 0,-0.467999 0.17333,-0.745332 z m 13.1733,1.819996 q 0.32933,-0.138666 0.64133,-0.138666 0.81467,0 1.196,0.675999 0.19067,0.346666 0.19067,0.641332 0,0.311999 -0.24267,0.883998 -0.53733,1.143998 -1.21333,1.473331 -0.38133,0.190666 -0.884,0.658665 -0.312,0.294666 -0.468,0.537332 -0.156,0.242666 -0.34666,0.762665 -0.312,0.797332 -0.60667,1.230665 -0.27733,0.415999 -0.45067,0.710665 l -0.156,0.294666 0.65867,-0.052 q 0.65867,-0.06933 1.04,-0.190666 0.416,-0.121333 0.572,-0.121333 0.22533,0 0.64133,0.155999 0.936,0.346666 0.936,1.195998 0,0.450666 -0.12134,0.485333 -0.13866,0.06933 -0.0867,0.398665 0.0173,0.08667 0.0173,0.208 0,0.138666 -0.22533,0.190666 -0.052,0.01733 -0.208,0.01733 -0.26,0 -0.468,-0.052 -0.13867,-0.03467 -0.43333,-0.03467 -0.468,0 -1.092,0.08667 -0.90133,0.121333 -1.456,0.121333 -0.052,0 -0.156,-0.01733 -0.104,0 -0.13866,0 -0.12134,-0.01733 -0.416,-0.01733 -0.43334,0 -0.64134,0.052 -0.12133,0.03467 -0.34666,0.03467 -0.60667,0 -1.092,-0.502666 -0.50267,-0.537332 -0.50267,-1.074665 0,-0.155999 0.052,-0.346666 0.0693,-0.242666 0.50267,-0.814665 0.45067,-0.589332 0.832,-0.918665 0.17333,-0.173333 0.17333,-0.277332 0,-0.08667 0.312,-0.467999 0.32933,-0.381333 0.572,-1.074665 0.572,-1.473331 1.04,-1.88933 0.34666,-0.294666 0.312,-0.329332 h -0.0347 q -0.0867,0 -0.50266,0.06933 -0.312,0.052 -0.50267,0.052 -0.0693,0 -0.19067,0 -0.12133,-0.01733 -0.17333,-0.01733 -0.208,0 -0.468,0.052 -0.104,0.03467 -0.38133,0.03467 -0.55467,0 -0.78,-0.138667 -0.0173,-0.01733 -0.0173,-0.06933 0,-0.173333 0.32933,-1.057331 0.416,-1.074665 0.45067,-1.091998 0.0347,-0.03467 0.93599,-0.121333 0.91867,-0.104 1.42133,-0.121333 h 0.13867 q 0.468,0 0.64133,0.104 0.17334,0.104 0.312,0.01733 0.0867,-0.06933 0.34667,-0.06933 0.22533,0 0.53733,-0.138667 z"
       id="text1"
       transform="matrix(0.26458333,0,0,0.26458333,1.0742236,2.0589286)"
       aria-label="lod mur eventz" />
  </g>
</svg>
