<?xml version="1.0" encoding="UTF-8" standalone="no"?>
<!-- Created with Inkscape (http://www.inkscape.org/) -->

<svg
   width="174"
   height="54"
   viewBox="0 0 46.037499 14.2875"
   version="1.1"
   id="svg1"
   inkscape:version="1.3.2 (091e20e, 2023-11-25, custom)"
   sodipodi:docname="ludmurpust_light.svg"
   xmlns:inkscape="http://www.inkscape.org/namespaces/inkscape"
   xmlns:sodipodi="http://sodipodi.sourceforge.net/DTD/sodipodi-0.dtd"
   xmlns="http://www.w3.org/2000/svg"
   xmlns:svg="http://www.w3.org/2000/svg">
  <sodipodi:namedview
     id="namedview1"
     pagecolor="#ffffff"
     bordercolor="#000000"
     borderopacity="0.25"
     inkscape:showpageshadow="2"
     inkscape:pageopacity="0.0"
     inkscape:pagecheckerboard="0"
     inkscape:deskcolor="#d1d1d1"
     inkscape:document-units="mm"
     inkscape:zoom="5.911246"
     inkscape:cx="92.027975"
     inkscape:cy="41.700176"
     inkscape:window-width="2560"
     inkscape:window-height="1369"
     inkscape:window-x="-8"
     inkscape:window-y="-8"
     inkscape:window-maximized="1"
     inkscape:current-layer="layer1" />
  <defs
     id="defs1">
    <rect
       x="20.807796"
       y="10.319313"
       width="143.96288"
       height="36.709688"
       id="rect1" />
    <inkscape:path-effect
       effect="spiro"
       id="path-effect1"
       is_visible="true"
       lpeversion="1" />
  </defs>
  <g
     inkscape:label="Layer 1"
     inkscape:groupmode="layer"
     id="layer1">
    <path
       style="fill:#3a425d;stroke:#3a435d;stroke-width:0.311944;fill-opacity:1;stroke-opacity:1"
       d="m 0.89518632,13.606832 c 0.0725483,-1.326538 0.0725483,-2.657041 0,-3.9835791 C 0.87945453,9.3355988 0.85939003,9.0435541 0.76090837,8.772826 0.71730009,8.6529459 0.65861799,8.538241 0.62663043,8.4147513 c -0.0527373,-0.2035952 -0.0299696,-0.4184621 0,-0.6266304 C 0.65669987,7.5792591 0.69368535,7.3713066 0.71614903,7.1614905 0.73844363,6.9532537 0.74636992,6.7437818 0.76090833,6.5348601 0.79373172,6.0631772 0.8614968,5.5893044 1.0294643,5.1473213 1.0547217,5.0808599 1.0822437,5.0151132 1.1020101,4.9468171 1.1217765,4.8785211 1.1336988,4.8070326 1.126866,4.7362628 1.1200331,4.665493 1.0932525,4.5952317 1.0437195,4.5442264 1.018953,4.5187238 0.98874975,4.4983342 0.95537499,4.4860913 c -0.0333748,-0.012243 -0.0699169,-0.016209 -0.10494797,-0.01016 -0.007492,0.00129 -0.0149296,0.00304 -0.022513,0.00359 -0.007583,5.462e-4 -0.0154497,-1.774e-4 -0.0222463,-0.00359 -0.007504,-0.00376 -0.0132191,-0.010645 -0.0163321,-0.018441 -0.003113,-0.0078 -0.003744,-0.016446 -0.002653,-0.024769 0.002183,-0.016647 0.0108844,-0.031604 0.0189847,-0.04631 C 0.9345169,4.1524941 0.94756074,3.8709814 0.91361872,3.6060891 0.8796767,3.3411969 0.80234881,3.08366 0.76090837,2.8198368 0.69415882,2.3948877 0.72680517,1.9402181 0.93994564,1.5665761 0.98983548,1.4791176 1.0499326,1.3948427 1.0732899,1.2969018 c 0.011679,-0.048971 0.013572,-0.1009895 -3.797e-4,-0.1493615 -0.013951,-0.048372 -0.044682,-0.092774 -0.0882052,-0.118076 -0.0288944,-0.016797 -0.0625627,-0.025 -0.0895187,-0.0447593 -0.0254251,-0.0186368 -0.0431095,-0.04659 -0.0528567,-0.0765694 -0.009747,-0.0299793 -0.0119776,-0.061975 -0.0105295,-0.0934658 0.002896,-0.0629816 0.0201554,-0.12500977 0.0186268,-0.18803941 C 0.84896761,0.5664518 0.83033593,0.50776284 0.8048976,0.45320564 0.77945927,0.39864844 0.74723559,0.34758884 0.71671669,0.29570248 0.68619779,0.24381612 0.65713168,0.19055536 0.63874476,0.13323592 0.62035785,0.07591648 0.61305158,0.01388548 0.62663043,-0.04475932 c 0.0122996,-0.0531201 0.0413112,-0.10243397 0.0447246,-0.15685248 0.001707,-0.0272093 -0.003579,-0.055606 -0.0193415,-0.0778501 -0.007881,-0.011122 -0.018305,-0.0205247 -0.0304855,-0.0266443 -0.0121805,-0.00612 -0.0261279,-0.008876 -0.039657,-0.007209 -0.0130536,0.001609 -0.0254902,0.0073 -0.0356415,0.0156632 -0.0101513,0.008363 -0.0180441,0.0193312 -0.0233258,0.0313765 -0.0105633,0.0240906 -0.0105524,0.0518056 -0.004564,0.0774196 0.0119773,0.0512279 0.0460176,0.09448771 0.063531,0.14409658 0.0150413,0.04260641 0.0174407,0.08872772 0.0147468,0.13383082 -0.002694,0.0451031 -0.010311,0.08975987 -0.0147468,0.13472508 -0.0183863,0.18637916 0.0196007,0.37835893 0.11011085,0.54231979 0.0905101,0.16396086 0.2335046,0.29891323 0.40364072,0.37720083 0.1701361,0.078288 0.3666309,0.099011 0.5487104,0.055167 0.1820795,-0.043844 0.3483337,-0.1524682 0.4593547,-0.30329778 0.042685,-0.0579901 0.077514,-0.12200888 0.1260449,-0.17520231 0.024266,-0.0265967 0.051999,-0.0503862 0.083709,-0.067436 0.03171,-0.0170498 0.06758,-0.027168 0.1035616,-0.0259176 0.015027,5.2218e-4 0.029917,0.002996 0.044912,0.0041 0.014995,0.001104 0.030386,7.8427e-4 0.044607,-0.0041 0.02066,-0.007095 0.037664,-0.0240994 0.044759,-0.0447593 0.088339,-0.0211121 0.1781451,-0.0360799 0.2685558,-0.0447593 0.4840955,-0.0464732 0.9654769,0.0874662 1.4322983,0.22379656 0.2645538,0.0772602 0.5310144,0.15615759 0.8056676,0.17903727 0.193394,0.0161105 0.3878519,0.004163 0.5818711,0 0.5372767,-0.0115286 1.073995,0.0367334 1.6113355,0.0447593 0.4793423,0.00716 0.9649139,-0.0171225 1.4322981,0.0895186 0.1776701,0.040538 0.3551879,0.1001813 0.5371118,0.089519 0.1281152,-0.00751 0.2518098,-0.049848 0.368987,-0.1021871 0.1171773,-0.052339 0.229572,-0.11496392 0.347162,-0.16636886 0.1600517,-0.0699673 0.3284597,-0.11861216 0.4923527,-0.17903727 0.294493,-0.10857584 0.573898,-0.2549964 0.86832,-0.36376379 0.294423,-0.10876738 0.612365,-0.17966732 0.922052,-0.12858868 0.252405,0.0416308 0.48392,0.16126644 0.716149,0.2685559 0.567888,0.26236344 1.169594,0.45987683 1.790373,0.5371119 0.578019,0.071915 1.163166,0.03895 1.745613,0.044759 0.3283,0.00327 0.656933,0.018901 0.984705,0 0.722929,-0.041687 1.427065,-0.25028955 2.148447,-0.31331531 0.208625,-0.0182272 0.41822,-0.0242271 0.626631,-0.0447593 0.224706,-0.0221376 0.447391,-0.0611032 0.67139,-0.0895186 1.066996,-0.13535387 2.147545,-0.0301028 3.22267,0 0.850139,0.0238033 1.70081,4.4645e-4 2.551282,0 1.029866,-5.4062e-4 2.061425,0.0324663 3.088392,-0.0447593 0.551768,-0.0414917 1.107207,-0.11469817 1.656095,-0.0447593 0.64325,0.0819625 1.245819,0.35655712 1.879892,0.49235251 0.834279,0.1786721 1.698351,0.1129457 2.551281,0.1342779 0.477716,0.011948 0.957207,0.051416 1.432298,0 0.40745,-0.044096 0.804599,-0.1543467 1.208501,-0.22379658 0.605109,-0.10404713 1.225279,-0.1159164 1.835131,-0.0447593 0.299722,0.0349713 0.596726,0.0898055 0.895186,0.13427798 0.533478,0.079492 1.072034,0.1258796 1.611336,0.1342779 0.119348,0.00186 0.238726,0.00186 0.358074,0 0.04511,-0.051443 0.110817,-0.084297 0.179038,-0.089519 0.04467,-0.00342 0.08971,0.00451 0.134279,0 0.06693,-0.00677 0.1278,-0.040921 0.184025,-0.0778621 0.05622,-0.0369412 0.110938,-0.0778739 0.174049,-0.1011752 0.08482,-0.0313185 0.177934,-0.028362 0.268266,-0.0243344 0.09033,0.004028 0.183139,0.008394 0.268846,-0.0204249 0.03172,-0.0106673 0.06195,-0.0257802 0.08952,-0.0447593 0.04375,-0.0177353 0.08863,-0.032695 0.134276,-0.0447593 0.126673,-0.0334814 0.258013,-0.0444197 0.387561,-0.0640242 0.129549,-0.0196046 0.260222,-0.0489109 0.373349,-0.11501305 0.134033,-0.0783182 0.237633,-0.20492385 0.379542,-0.26785537 0.07095,-0.0314658 0.152193,-0.0454278 0.226903,-0.0243808 0.03736,0.0105235 0.07247,0.0297785 0.100067,0.0570633 0.0276,0.0272848 0.04745,0.0627127 0.05439,0.10089499 0.0056,0.0309897 0.0028,0.0632279 -0.0061,0.093435 -0.0089,0.0302071 -0.0238,0.0584536 -0.04188,0.0842474 -0.03616,0.0515875 -0.08456,0.0930783 -0.131013,0.13563285 -0.08635,0.0791031 -0.16871,0.16521956 -0.223798,0.26855598 -0.06671,0.1251388 -0.08977,0.2681895 -0.134279,0.4028338 -0.04002,0.1210715 -0.09765,0.2359319 -0.134276,0.3580746 -0.06893,0.229873 -0.06067,0.475381 -0.03882,0.7143684 0.02184,0.2389875 0.05668,0.4786116 0.03882,0.7179296 -0.009,0.1199721 -0.03109,0.2385476 -0.04476,0.3580747 -0.06619,0.578866 0.06721,1.1668652 0,1.7456131 -0.02264,0.1949597 -0.06788,0.386798 -0.08952,0.5818711 -0.02965,0.2672427 -0.01471,0.5371878 0,0.8056679 0.02369,0.4325322 0.04662,0.8673554 0,1.2980202 -0.02749,0.2539962 -0.07911,0.5056404 -0.08952,0.7609083 -0.0091,0.2236714 0.01351,0.4479403 0,0.6713897 -0.02281,0.377345 -0.147932,0.7422315 -0.179038,1.1189835 -0.02211,0.267759 0.0036,0.537021 0,0.805667 -0.002,0.149269 -0.01309,0.298887 0,0.447594 0.03085,0.350389 0.194105,0.678975 0.223798,1.029464 0.01144,0.135015 0.0032,0.273861 0.04476,0.402834 0.01918,0.05955 0.04853,0.115328 0.06983,0.174154 0.0213,0.05883 0.03446,0.123126 0.01969,0.18392 -0.01286,0.05293 -0.0462,0.09921 -0.08686,0.135458 -0.04066,0.03624 -0.08854,0.06335 -0.136938,0.08834 -0.07155,0.03695 -0.14564,0.0701 -0.223795,0.08952 -0.175967,0.04372 -0.363141,0.01521 -0.534693,-0.04349 -0.171553,-0.0587 -0.331376,-0.146463 -0.494772,-0.225062 -0.537186,-0.258406 -1.116567,-0.419003 -1.700855,-0.537112 -0.238064,-0.04812 -0.477451,-0.0894 -0.716148,-0.134278 -0.53539,-0.100654 -1.068769,-0.219611 -1.611336,-0.268556 -0.312546,-0.0282 -0.627867,-0.03297 -0.939946,0 -0.655672,0.06927 -1.281467,0.302609 -1.92465,0.447593 -0.747277,0.168448 -1.516727,0.217135 -2.282725,0.223796 -0.328224,0.0029 -0.656469,0 -0.984705,0 h -1.790372 c -0.969942,0 -1.941053,0.05639 -2.909355,0 -0.388422,-0.02262 -0.775185,-0.06939 -1.163744,-0.08952 -0.536499,-0.02779 -1.074137,-0.0047 -1.611335,0 -0.954943,0.0083 -1.910524,-0.04161 -2.864596,0 -0.941124,0.04105 -1.877852,0.171068 -2.819837,0.179037 -0.388588,0.0033 -0.779619,-0.01407 -1.163742,0.04476 -0.150425,0.02304 -0.298794,0.05763 -0.447594,0.08952 -0.647286,0.138718 -1.307434,0.226771 -1.96941,0.223797 -0.582532,-0.0026 -1.167982,-0.07545 -1.745613,0 -0.104614,0.01366 -0.208568,0.03216 -0.313315,0.04476 -0.370777,0.0446 -0.74583,0.01489 -1.118983,0 -0.372797,-0.01487 -0.746186,-0.01487 -1.118983,0 -0.295034,-0.0558 -0.594945,-0.08579 -0.895186,-0.08952 -0.223802,-0.0028 -0.447752,0.009 -0.67139,0 -0.314539,-0.01265 -0.626012,-0.06628 -0.939946,-0.08952 -0.476304,-0.03526 -0.9546904,-3.85e-4 -1.4322976,0 -0.7624102,6.15e-4 -1.521804,-0.08665 -2.2827252,-0.134278 -0.7249615,-0.04538 -1.4759012,-0.05063 -2.1484471,0.223796 -0.1315351,0.05367 -0.2616573,0.118425 -0.4028339,0.134278 -0.074212,0.0083 -0.1491707,0.0028 -0.2237965,0 -0.3731712,-0.01403 -0.7455746,0.04031 -1.1189829,0.04476 C 2.042287,13.972042 1.442556,13.84902 0.89518632,13.606832 Z"
       id="path1"
       inkscape:path-effect="#path-effect1"
       inkscape:original-d="m 0.89518632,13.606832 c 0.0637496,-1.321939 0.19539578,-2.664658 0,-3.9835791 C 0.85312868,9.339364 0.82544025,9.0524641 0.76090837,8.772826 0.75120372,8.7307726 0.63963933,8.4928047 0.62663043,8.4147513 c -0.0311843,-0.1871056 -0.0206745,-0.4405603 0,-0.6266304 0.060107,-0.5409631 0.0393709,0.025289 0.0895186,-0.6266304 0.0356397,-0.4633161 -0.0727843,0.03945 0.0447593,-0.6266304 C 0.84210357,6.0747541 0.99053159,5.6145136 1.0294643,5.1473213 1.0478316,4.926912 1.0163433,4.6418481 0.85042702,4.4759316 c -0.01055,-0.010549 -0.038087,0.013346 -0.0447593,0 -0.0133445,-0.026689 0.003701,-0.05991 0,-0.089519 C 0.74029368,3.8634209 0.66774337,3.3477718 0.76090837,2.8198368 0.8348564,2.4007981 0.87973013,1.9880846 0.93994564,1.5665761 0.953607,1.4709464 1.0616476,1.1064069 0.98470497,1.0294643 0.94478357,0.9895429 0.91381407,1.0964715 0.89518632,0.98470497 0.82470023,0.56178836 0.96335587,0.92777409 0.85042702,0.62663043 0.77956187,0.43765671 0.66954248,0.1483449 0.62663043,-0.04475932 c -0.0166941,-0.07512345 0.009677,-0.37742855 -0.0447593,-0.26855589 -0.0264155,0.0528307 0,0.20838763 0,0.26855589 0,0.0442164241 -0.0165661,0.25198969 0,0.2685559 0.3440494,0.34404941 1.02183277,0.67138974 1.52181667,0.67138974 0.2469913,0 0.2522452,-0.20748583 0.3133153,-0.26855589 0.0211,-0.0210997 0.06121,0.009436 0.089519,0 0.020017,-0.006672 0.02984,-0.0298395 0.044759,-0.0447593 0.089519,-0.0149198 0.1778024,-0.0447593 0.2685558,-0.0447593 0.4263046,0 1.0730685,0.15644098 1.4322983,0.22379656 0.2857561,0.0535793 0.5387628,0.090069 0.8056676,0.17903727 0.099022,0.0330073 0.5807102,0 0.5818711,0 1.0188247,0 0.5366679,-0.0133308 1.6113355,0.0447593 0.1068219,0.005774 1.2442598,0.0649919 1.4322981,0.0895186 0.2885887,0.037642 0.3166729,0.1095585 0.5371118,0.089519 0.6088399,-0.055349 0.1260692,0.010956 0.716149,-0.26855592 0.1578207,-0.0747573 0.3297277,-0.11540167 0.4923527,-0.17903727 0.448327,-0.17543232 1.277049,-0.60235034 1.790372,-0.49235247 0.24929,0.0534193 0.477433,0.17903725 0.716149,0.2685559 0.583243,0.21871601 1.170474,0.44174269 1.790373,0.53711186 0.571642,0.087945 1.169861,0.044759 1.745613,0.044759 0.328235,0 0.656924,0.017252 0.984705,0 0.72354,-0.038081 1.433746,-0.21802169 2.148447,-0.31331527 0.207572,-0.0276763 0.418333,-0.0232114 0.626631,-0.0447593 0.224578,-0.0232323 0.446278,-0.0722023 0.67139,-0.0895186 1.076345,-0.0827958 2.147497,-0.0383991 3.22267,0 0.847777,0.0302777 1.703016,0 2.551282,0 1.029936,0 2.060096,0.006655 3.088392,-0.0447593 0.550859,-0.027543 1.102624,-0.0755077 1.656095,-0.0447593 0.661853,0.0367697 1.240436,0.34702188 1.879892,0.49235247 0.838628,0.1905976 1.69818,0.1342779 2.551281,0.1342779 0.477433,0 0.957234,0.047506 1.432298,0 0.407649,-0.040765 0.801519,-0.17683699 1.208501,-0.22379654 0.601551,-0.0694098 1.230675,-0.0689377 1.835131,-0.0447593 0.571106,0.0228441 0.380093,0.0376979 0.895186,0.13427794 0.525111,0.098458 1.078328,0.1342779 1.611336,0.1342779 0.119359,0 0.241036,0.023408 0.358074,0 0.124354,0.087066 0.114308,-0.073336 0.179038,-0.089519 0.04342,-0.010856 0.09039,0.00878 0.134279,0 0.130855,-0.026171 0.231476,-0.13683774 0.358074,-0.17903724 0.171101,-0.0570332 0.366432,-0.00209 0.537112,-0.0447593 0.03237,-0.008091 0.05968,-0.0298396 0.08952,-0.0447593 0.04476,-0.0149199 0.08801,-0.0355065 0.134276,-0.0447593 0.249105,-0.0498211 0.505905,-0.12236979 0.76091,-0.17903727 0.179041,-0.0397872 0.560242,-0.20116654 0.760907,-0.13427794 0.04599,0.0153278 -0.113006,0.22527511 -0.179035,0.31331521 -0.06992,0.0932217 -0.168961,0.16573783 -0.223798,0.26855594 -0.06661,0.1248894 -0.08717,0.2693617 -0.134279,0.4028338 -0.04243,0.1202073 -0.110783,0.2327833 -0.134276,0.3580746 -0.06922,0.3691805 0.02976,1.0156245 0,1.432298 -0.0086,0.1199814 -0.03904,0.2379237 -0.04476,0.3580747 -0.02759,0.5794711 0.04133,1.1670273 0,1.7456131 -0.0726,1.0163445 -0.0145,-0.3182321 -0.08952,0.5818711 -0.02199,0.2638314 0,0.5402398 0,0.8056679 0,0.4307922 0.02048,0.8680535 0,1.2980202 -0.01775,0.3730633 -0.06386,0.4017182 -0.08952,0.7609083 -0.01577,0.2208646 0.02445,0.4512492 0,0.6713897 -0.04143,0.3729051 -0.146227,0.7416775 -0.179038,1.1189835 -0.02326,0.267546 0,0.537112 0,0.805667 0,0.05537 -0.02975,0.358335 0,0.447594 0.132236,0.396707 0.176432,0.603172 0.223798,1.029464 0.04216,0.379476 -0.06545,-0.03801 0.04476,0.402834 0.02169,0.08673 0.13699,0.263129 0.08952,0.358074 -0.04476,0.08952 -0.179039,0.134278 -0.223798,0.223797 -0.05355,0.107104 0.06462,0.11836 -0.223795,0.08952 -0.4556,-0.04556 -0.462259,-0.09524 -1.029465,-0.268555 -0.568597,-0.173739 -1.126101,-0.384972 -1.700855,-0.537112 -0.234789,-0.06215 -0.477989,-0.08665 -0.716148,-0.134278 -0.538292,-0.107659 -1.060482,-0.242325 -1.611336,-0.268556 -0.31296,-0.0149 -0.629262,-0.04052 -0.939946,0 -0.596402,0.07779 -1.33604,0.368526 -1.92465,0.447593 -0.757751,0.101787 -1.519955,0.171552 -2.282725,0.223796 -0.327469,0.02243 -0.656471,0 -0.984705,0 -0.06615,0 -1.724226,0 -1.790372,0 -0.96524,0 -1.94519,0.04703 -2.909355,0 -0.388599,-0.01895 -0.775396,-0.06598 -1.163744,-0.08952 -0.532603,-0.03228 -1.077801,0 -1.611335,0 -0.953786,0 -1.911076,-0.02073 -2.864596,0 -0.960159,0.02087 -1.870731,0.129084 -2.819837,0.179037 -0.376935,0.01984 -0.789907,0.0054 -1.163742,0.04476 -0.151317,0.01593 -0.29697,0.068 -0.447594,0.08952 -0.649901,0.09284 -1.312275,0.19094 -1.96941,0.223797 -0.579618,0.02898 -1.166827,-0.04134 -1.745613,0 -0.105231,0.0075 -0.207979,0.03891 -0.313315,0.04476 -0.368703,0.02048 -0.749016,0 -1.118983,0 -0.371237,0 -0.74827,0.01854 -1.118983,0 -0.302818,0.01559 -0.595967,-0.06957 -0.895186,-0.08952 -0.223301,-0.01488 -0.447903,0.01176 -0.67139,0 -0.314298,-0.01654 -0.625569,-0.07455 -0.939946,-0.08952 -0.476208,-0.02268 -0.9563082,0.02645 -1.4322976,0 -0.7607969,-0.04227 -1.5193224,-0.134278 -2.2827252,-0.134278 -0.7205366,0 -1.4386605,0.122398 -2.1484471,0.223796 -0.5279133,0.07542 0.2319382,0.0073 -0.4028339,0.134278 -0.07315,0.01463 -0.1495679,-0.0074 -0.2237965,0 -0.3907952,0.03908 -0.7262577,0.04476 -1.1189829,0.04476 -0.6648625,0 -1.2227529,0.06021 -1.74561348,-0.358075 z" />
    <path
       d="m 56.350056,26.670359 q -0.016,0 -0.992,-0.336 -0.976,-0.32 -0.992,-0.32 -0.032,0 -0.08,0.128 l -0.016,0.016 q -0.016,0 -0.016,-0.096 0,-0.048 0.032,-0.432 0.016,-0.128 0.016,-0.496 0,-0.576 -0.048,-1.056 -0.064,-0.656 -0.096,-3.136 -0.016,-0.56 -0.016,-1.312 0,-0.928 0.176,-1.296 0.16,-0.304 0.16,-0.688 0,-0.416 -0.112,-1.408 l -0.064,-0.48 0.24,0.048 q 0.208,0.048 1.088,0.112 0.624,0.032 0.752,0.08 0.128,0.032 0.192,0.192 0.048,0.112 0.08,1.328 v 0.48 q 0,0.656 -0.128,0.896 -0.144,0.272 -0.144,2.24 0.032,2.352 0.08,2.768 0.048,0.48 0.048,1.136 0,1.632 -0.16,1.632 z m 2.784013,-8.432 q 0.048,-0.048 0.096,-0.048 0.224,0 0.224,0.64 0,0.208 -0.048,0.4 -0.112,0.368 -0.112,1.136 0,0.72 0.224,1.376 0.192,0.56 0.192,0.928 0,0.32 -0.016,0.544 -0.032,0.576 -0.032,0.608 0,0.304 0.128,0.384 0.112,0.112 0.608,0.192 0.496,0.08 0.928,0.08 0.192,0 0.352,-0.032 0.304,-0.08 0.4,-0.176 0.112,-0.112 0.112,-0.384 0,-0.24 -0.016,-0.4 -0.032,-0.32 -0.16,-1.136 -0.128,-0.816 -0.128,-1.296 0,-0.544 0.112,-1.584 0.112,-1.04 0.192,-1.168 0.016,-0.048 0.096,-0.048 0.096,0 0.96,0.288 l 0.992,0.336 -0.016,0.32 q 0,0.048 -0.032,0.512 -0.016,0.448 -0.048,0.752 -0.048,0.48 -0.048,0.768 0,0.336 0.064,0.544 0.24,0.912 0.24,3.152 0,0.912 -0.08,0.912 -0.032,0 -0.048,-0.064 l -0.08,-0.192 -0.272,0.208 q -0.32,0.224 -0.352,0.224 -0.048,0 -0.352,0.208 -0.64,0.432 -1.904,0.432 -0.4,0 -0.624,-0.016 -1.168,-0.064 -1.456,-0.144 -0.64,-0.176 -1.12,-0.816 -0.72,-0.992 -0.72,-1.84 0,-0.256 0.048,-0.544 0.032,-0.384 0.032,-0.48 0,-0.288 -0.112,-0.64 -0.32,-0.976 -0.32,-1.872 0,-0.336 0.016,-0.528 0.064,-0.896 0.112,-1.04 0.064,-0.144 0.352,-0.144 0.304,0 0.48,-0.176 0.144,-0.144 0.448,-0.144 h 0.176 0.192 q 0.288,0 0.32,-0.032 z m 10.607996,2.112 q -0.192,-0.096 -1.104,-0.096 -0.496,0 -0.592,0.048 -0.496,0.224 -0.816,1.136 -0.208,0.56 -0.208,1.68 0,0.784 0.016,0.976 0.032,0.192 0.192,0.432 l 0.224,0.352 0.656,-0.048 q 0.784,-0.064 1.264,-0.224 l 0.576,-0.208 -0.016,-0.816 q -0.016,-0.256 -0.032,-1.056 -0.016,-0.8 -0.016,-0.944 -0.016,-1.168 -0.144,-1.232 z m 1.232,-4.72 q 0.8,-0.24 1.024,-0.24 0.128,0 0.176,0.112 0.112,0.288 0.112,2.8 0,1.392 -0.064,1.776 -0.224,1.12 -0.224,1.584 0,0.304 0.08,0.672 0.144,0.608 0.144,2.08 0,1.056 -0.096,1.456 l -0.096,0.464 h -0.496 q -0.464,0 -0.784,0.144 -0.608,0.256 -1.568,0.416 -0.944,0.176 -1.696,0.176 -0.544,0 -0.768,-0.08 -0.4,-0.128 -0.864,-0.64 -0.464,-0.496 -0.752,-1.088 -0.128,-0.272 -0.16,-0.336 -0.032,-0.064 -0.096,-0.24 -0.048,-0.176 -0.064,-0.304 0,-0.144 0,-0.368 0,-0.416 0.048,-1.392 0.08,-1.68 0.72,-2.848 0.224,-0.384 0.688,-0.832 0.48,-0.448 0.832,-0.608 0.704,-0.304 1.616,-0.304 0.448,0 1.184,0.112 l 0.256,0.048 -0.064,-0.448 q -0.032,-0.288 -0.032,-0.656 0,-0.336 0.016,-0.48 l 0.048,-0.72 z m 4.432,3.712 -0.048,-1.664 h 0.48 q 0.864,0 0.864,0.256 0,0.16 0.112,0.16 0.096,0 0.336,0.176 0.16,0.144 0.384,0.144 0.128,0 0.88,-0.08 0.96,-0.08 1.328,-0.08 0.624,0.032 1.12,0.496 l 0.256,0.24 0.4,-0.288 q 0.672,-0.432 1.28,-0.432 0.176,0 0.272,0.016 0.128,0.016 0.608,0.064 0.48,0.048 0.656,0.064 0.912,0.08 1.424,0.352 0.512,0.256 0.88,0.848 0.368,0.576 0.464,0.88 0.112,0.304 0.112,0.88 0,0.16 -0.032,0.96 v 0.16 q 0,0.464 0.08,0.784 0.064,0.256 0.064,0.512 0,0.288 -0.064,0.752 -0.112,0.832 -0.144,1.424 -0.064,0.576 -0.096,0.64 h -0.048 q -0.24,0 -1.088,-0.176 -0.848,-0.16 -0.96,-0.224 -0.064,-0.016 -0.064,-0.256 0,-0.288 0.16,-1.216 0.112,-0.544 0.112,-0.8 0,-0.096 -0.032,-0.224 -0.08,-0.192 -0.112,-1.344 -0.016,-1.168 -0.16,-1.424 -0.144,-0.32 -0.464,-0.32 -0.016,0 -0.08,0.016 -0.048,0 -0.08,0 -0.176,0 -0.736,-0.08 -0.144,-0.016 -0.368,-0.016 -0.592,0 -0.752,0.272 -0.016,0.016 -0.016,0.112 0,0.336 0.096,0.944 0.128,0.928 0.128,2.64 0,2.016 -0.144,2.064 -0.112,0.032 -0.112,0.352 v 0.32 h -0.8 q -0.848,0 -1.008,-0.08 -0.16,-0.064 -0.24,-0.464 -0.064,-0.208 -0.064,-0.432 0,-0.096 0.016,-0.112 0.128,-0.176 0.128,-2.672 0,-1.968 -0.528,-2.608 l -0.288,-0.368 -0.768,0.032 q -0.864,0.032 -0.992,0.224 -0.128,0.176 -0.176,1.456 -0.032,0.704 -0.032,1.104 0,0.624 0.064,1.712 0.064,0.656 0.064,1.216 0,0.208 -0.016,0.224 -0.032,0.016 -0.064,0.016 -0.272,0 -1.12,-0.128 -0.832,-0.128 -0.928,-0.192 -0.224,-0.144 -0.224,-2.768 0,-0.464 0.032,-1.104 0.064,-1.024 0.064,-2.112 0,-0.592 -0.016,-0.848 z m 14.415986,-1.104 q 0.048,-0.048 0.096,-0.048 0.224,0 0.224,0.64 0,0.208 -0.048,0.4 -0.112,0.368 -0.112,1.136 0,0.72 0.224,1.376 0.192,0.56 0.192,0.928 0,0.32 -0.016,0.544 -0.032,0.576 -0.032,0.608 0,0.304 0.128,0.384 0.112,0.112 0.608,0.192 0.496,0.08 0.928,0.08 0.192,0 0.352,-0.032 0.304,-0.08 0.4,-0.176 0.112,-0.112 0.112,-0.384 0,-0.24 -0.016,-0.4 -0.032,-0.32 -0.16,-1.136 -0.128,-0.816 -0.128,-1.296 0,-0.544 0.112,-1.584 0.112,-1.04 0.192,-1.168 0.016,-0.048 0.096,-0.048 0.096,0 0.96,0.288 l 0.992,0.336 -0.016,0.32 q 0,0.048 -0.032,0.512 -0.016,0.448 -0.048,0.752 -0.048,0.48 -0.048,0.768 0,0.336 0.064,0.544 0.24,0.912 0.24,3.152 0,0.912 -0.08,0.912 -0.032,0 -0.048,-0.064 l -0.08,-0.192 -0.272,0.208 q -0.32,0.224 -0.352,0.224 -0.048,0 -0.352,0.208 -0.64,0.432 -1.904,0.432 -0.4,0 -0.624,-0.016 -1.168,-0.064 -1.456,-0.144 -0.64,-0.176 -1.12,-0.816 -0.72,-0.992 -0.72,-1.84 0,-0.256 0.048,-0.544 0.032,-0.384 0.032,-0.48 0,-0.288 -0.112,-0.64 -0.32,-0.976 -0.32,-1.872 0,-0.336 0.016,-0.528 0.064,-0.896 0.112,-1.04 0.064,-0.144 0.352,-0.144 0.304,0 0.48,-0.176 0.144,-0.144 0.448,-0.144 h 0.176 0.192 q 0.288,0 0.32,-0.032 z m 9.231997,-0.32 q 0.48,-0.128 0.64,-0.128 0.16,0 0.208,0.128 0.064,0.128 0.144002,0.512 0,0.048 0,0.08 0.016,0.032 0.016,0.08 0.016,0.048 0.032,0.096 0.176,0.928 0.224,1.056 0.016,0.064 -0.064,0.112 -0.08,0.048 -0.320002,0.112 -0.48,0.128 -1.056,0.528 -0.768,0.496 -0.976,0.576 -0.32,0.144 -0.32,0.272 0,0.064 0.016,0.112 0.08,0.416 0.16,3.056 l 0.064,2.08 h -2.256 l -0.016,-1.424 q -0.032,-2.208 -0.096,-3.2 -0.016,-0.224 -0.016,-0.72 0,-0.512 0.048,-0.88 0.048,-0.336 0.048,-0.576 0,-0.288 -0.064,-0.528 -0.048,-0.208 -0.048,-0.32 0,-0.176 0.176,-0.288 0.192,-0.112 0.832,-0.336 0.848,-0.304 0.96,-0.304 0.128,0 0.192,0.256 0.064,0.24 0.176,0.24 0.096,0 0.432,-0.24 0.272,-0.208 0.864,-0.352 z m 8.671992,1.904 q -0.32,-0.128 -0.752,-0.128 -0.64,0 -1.008,0.288 l -0.256,0.208 0.032,0.784 q 0.016,0.192 0.048,0.752 0.032,0.544 0.048,0.752 0.016,0.16 0.016,0.432 0,0.448 -0.064,0.704 -0.064,0.288 -0.064,0.336 0,0.144 0.096,0.192 0.112,0.048 0.432,0.096 0.192,0.032 0.24,0.032 0.16,0 0.384,-0.144 0.064,-0.048 0.16,-0.096 0.096,-0.064 0.208,-0.128 0.112,-0.08 0.144,-0.096 0.064,-0.048 0.272,-0.192 0.208,-0.144 0.304,-0.208 0.24,-0.176 0.288,-0.288 0.064,-0.128 0.112,-0.528 0.032,-0.256 0.032,-0.384 0,-0.528 -0.432,-2.208 -0.016,-0.08 -0.24,-0.176 z m -1.36,-2.288 q 0.752,-0.08 0.88,-0.08 0.192,0 0.8,0.176 1.184,0.368 1.648,0.864 0.464,0.464 0.464,1.056 0,0.128 0.224,1.088 0.192,0.768 0.192,1.328 0,0.08 -0.016,0.272 0,0.192 0,0.304 -0.016,0.688 -0.064,0.928 -0.048,0.24 -0.208,0.544 -0.528,0.976 -1.344,1.424 -0.256,0.144 -0.592,0.368 -0.336,0.24 -0.704,0.416 -0.496,0.24 -1.264,0.24 h -0.768 l 0.064,0.912 0.048,0.912 -1.072,0.016 h -0.576 q -0.512,0 -0.544,-0.128 -0.064,-0.176 -0.064,-1.712 0,-2.304 0.096,-2.88 0.096,-0.432 0.096,-0.704 0,-0.288 -0.096,-1.536 -0.08,-1.12 -0.112,-2.016 l -0.016,-0.704 0.288,-0.08 q 0.592,-0.192 1.568,-0.736 0.352,-0.208 1.072,-0.272 z m 6.70399,0.704 q 0.048,-0.048 0.096,-0.048 0.224,0 0.224,0.64 0,0.208 -0.048,0.4 -0.112,0.368 -0.112,1.136 0,0.72 0.224,1.376 0.192,0.56 0.192,0.928 0,0.32 -0.016,0.544 -0.032,0.576 -0.032,0.608 0,0.304 0.128,0.384 0.112,0.112 0.608,0.192 0.496,0.08 0.928,0.08 0.192,0 0.352,-0.032 0.304,-0.08 0.4,-0.176 0.112,-0.112 0.112,-0.384 0,-0.24 -0.016,-0.4 -0.032,-0.32 -0.16,-1.136 -0.128,-0.816 -0.128,-1.296 0,-0.544 0.112,-1.584 0.112,-1.04 0.192,-1.168 0.016,-0.048 0.096,-0.048 0.096,0 0.96,0.288 l 0.992,0.336 -0.016,0.32 q 0,0.048 -0.032,0.512 -0.016,0.448 -0.048,0.752 -0.048,0.48 -0.048,0.768 0,0.336 0.064,0.544 0.24,0.912 0.24,3.152 0,0.912 -0.08,0.912 -0.032,0 -0.048,-0.064 l -0.08,-0.192 -0.272,0.208 q -0.32,0.224 -0.352,0.224 -0.048,0 -0.352,0.208 -0.64,0.432 -1.904,0.432 -0.4,0 -0.624,-0.016 -1.168,-0.064 -1.456,-0.144 -0.64,-0.176 -1.12,-0.816 -0.72,-0.992 -0.72,-1.84 0,-0.256 0.048,-0.544 0.032,-0.384 0.032,-0.48 0,-0.288 -0.112,-0.64 -0.32,-0.976 -0.32,-1.872 0,-0.336 0.016,-0.528 0.064,-0.896 0.112,-1.04 0.064,-0.144 0.352,-0.144 0.304,0 0.48,-0.176 0.144,-0.144 0.448,-0.144 h 0.176 0.192 q 0.288,0 0.32,-0.032 z m 7.792,-0.768 q 0.448,-0.096 1.152,-0.096 1.04,0 2.08,0.176 1.056,0.176 1.328,0.432 0.064,0.048 0.064,0.112 0,0.112 -0.672,0.784 -0.656,0.656 -0.656,0.784 0,0.048 0.016,0.064 0.032,0.032 0.032,0.064 0,0.032 -0.096,0.032 -0.08,0 -0.832,-0.128 -0.752,-0.128 -1.232,-0.128 -0.368,0 -0.608,0.064 -0.544,0.128 -0.544,0.304 0,0.128 0.064,0.272 0.096,0.256 0.272,0.336 0.192,0.08 0.688,0.096 0.368,0.016 1.056,0.192 0.688,0.176 0.944,0.336 1.088,0.64 1.36,1.072 0.272,0.432 0.288,1.536 v 0.304 q 0,0.464 -0.256,0.912 -0.432,0.72 -0.784,1.008 -0.352,0.288 -0.864,0.368 -0.432,0.064 -0.768,0.224 -0.432,0.176 -1.152,0.176 -0.88,0 -1.728,-0.24 l -0.48,-0.144 0.032,-0.608 q 0.064,-0.608 0.096,-0.64 0.048,-0.048 0.048,-0.416 0,-0.368 0.112,-0.416 h 0.064 q 0.304,0 0.928,0.096 0.608,0.08 0.848,0.08 0.096,0 0.096,-0.016 0.08,-0.24 0.208,-0.24 0.08,0 0.192,0.048 0.192,0.064 0.272,0.064 0.048,0 0.336,-0.064 0.368,-0.112 0.464,-0.192 0.112,-0.096 0.112,-0.336 0,-0.272 -0.256,-0.48 -0.336,-0.272 -1.808,-0.464 -0.704,-0.096 -1.008,-0.192 -0.288,-0.112 -0.576,-0.368 -0.976,-0.88 -0.976,-2.352 0,-1.152 0.592,-1.664 0.64,-0.544 1.552,-0.752 z m 5.51999,-1.76 q 0.144,-0.256 0.256,-0.256 0.064,0 0.112,0.08 0.048,0.08 0.912,0.08 h 0.864 v 0.672 q 0,1.264 0.336,1.568 0.16,0.144 0.32,0.144 0.144,0 0.4,-0.128 0.192,-0.096 0.48,-0.096 0.512,0 0.832,0.224 0.512,0.352 0.512,1.28 0,0.432 -0.08,0.528 -0.064,0.096 -0.4,0.096 -0.224,0 -0.544,0.176 -0.288,0.144 -0.752,0.144 h -0.304 -0.304 q -0.416,0 -0.56,0.176 -0.096,0.112 -0.096,0.32 0,0.016 0.064,0.656 0.048,0.288 0.128,1.872 0.032,1.072 0.096,1.264 0.08,0.176 0.528,0.176 h 0.304 0.768 v 2.224 h -0.848 q -0.816,0 -1.232,-0.064 -0.576,-0.096 -1.008,-0.576 -0.432,-0.464 -0.672,-1.232 -0.08,-0.304 -0.192,-1.648 -0.096,-1.36 -0.112,-2.656 -0.032,-0.704 -0.112,-0.768 -0.112,-0.064 -0.112,-1.136 v -1.072 h 0.24 q 0.176,0 0.208,-0.032 0.032,-0.048 0,-0.24 -0.096,-0.448 -0.128,-0.544 -0.064,-0.24 -0.064,-0.544 0,-0.432 0.16,-0.688 z"
       id="text1"
       style="font-size:16px;line-height:1.25;font-family:Titilliumweb_semibold;-inkscape-font-specification:Titilliumweb_semibold;text-align:center;letter-spacing:-1.28px;word-spacing:0px;text-anchor:middle;white-space:pre;fill:#ffffff;stroke-width:1.179"
       transform="matrix(0.30281739,0,0,0.29924823,-3.9947211,0.80927422)"
       aria-label="lud mur pust" />
  </g>
</svg>
