<?xml version="1.0" encoding="UTF-8" standalone="no"?>
<!-- Created with Inkscape (http://www.inkscape.org/) -->

<svg
   width="112.91"
   height="47"
   viewBox="0 0 29.874104 12.435417"
   version="1.1"
   id="svg1"
   sodipodi:docname="ridmur.svg"
   inkscape:version="1.3.2 (091e20e, 2023-11-25, custom)"
   xmlns:inkscape="http://www.inkscape.org/namespaces/inkscape"
   xmlns:sodipodi="http://sodipodi.sourceforge.net/DTD/sodipodi-0.dtd"
   xmlns="http://www.w3.org/2000/svg"
   xmlns:svg="http://www.w3.org/2000/svg">
  <sodipodi:namedview
     id="namedview1"
     pagecolor="#ffffff"
     bordercolor="#000000"
     borderopacity="0.25"
     inkscape:showpageshadow="2"
     inkscape:pageopacity="0.0"
     inkscape:pagecheckerboard="0"
     inkscape:deskcolor="#d1d1d1"
     inkscape:zoom="9.055676"
     inkscape:cx="60.293677"
     inkscape:cy="21.809526"
     inkscape:window-width="2560"
     inkscape:window-height="1369"
     inkscape:window-x="-8"
     inkscape:window-y="-8"
     inkscape:window-maximized="1"
     inkscape:current-layer="svg1" />
  <defs
     id="defs1"><filter id="lf" x="0" y="0" width="100%" height="100%"><feComponentTransfer><feFuncR type="linear" slope="1.4"/><feFuncG type="linear" slope="1.4"/><feFuncB type="linear" slope="1.4"/></feComponentTransfer></filter>
    <rect
       x="12.180173"
       y="13.195188"
       width="97.103047"
       height="24.698684"
       id="rect1" />
  </defs>
  <g
     id="layer1">
    <path
       style="fill:#ff9500;fill-opacity:1;stroke:#ff9500;stroke-width:0.343958;stroke-opacity:1"
       d="M 2.4170031,10.742236 C 2.4118879,10.471696 2.3818807,10.201632 2.3274841,9.9365682 2.1669143,9.1541424 1.7939203,8.4078079 1.7903726,7.6090837 1.7887696,7.2481903 1.8633949,6.8919848 1.9122511,6.5344101 1.9611072,6.1768354 1.9833699,5.8063805 1.8798913,5.4606367 1.833788,5.3065958 1.763723,5.1610353 1.700854,5.0130434 1.5988747,4.7729869 1.5149811,4.5236448 1.4761299,4.265735 1.4372788,4.0078252 1.4446341,3.7403648 1.5218167,3.4912268 1.6009669,3.2357374 1.7496537,3.0086963 1.8798913,2.7750775 1.9641709,2.6238976 2.0416109,2.4679034 2.0932158,2.3026903 2.1448206,2.1374772 2.1700409,1.9621053 2.1484472,1.7903726 2.1183283,1.5508392 1.9998496,1.3312541 1.94934,1.0951775 1.9240852,0.97713914 1.9162588,0.85331373 1.9456306,0.73623194 1.9750025,0.61915016 2.0446344,0.50918666 2.1484472,0.44759316 c 0.084067,-0.0498783 0.1860066,-0.0654809 0.2829694,-0.0530961 0.096963,0.0123848 0.1892013,0.0514797 0.2716917,0.10392491 0.1649809,0.1048904 0.290384,0.25995852 0.4300438,0.39676436 C 3.4596108,1.2149739 3.8673393,1.4373098 4.2750589,1.6437174 4.6827786,1.8501251 5.0998419,2.0470088 5.4606367,2.3274844 5.7276721,2.535073 5.9589918,2.7848542 6.1767857,3.0436335 6.3131638,3.2056757 6.4477026,3.3744272 6.6243789,3.4912268 6.870122,3.6536859 7.1834624,3.7004375 7.4723925,3.6429741 7.7613226,3.5855107 8.0256262,3.429179 8.2357142,3.2226707 8.295914,3.1634967 8.3520597,3.1001608 8.4147513,3.0436335 8.6136619,2.8642813 8.8720259,2.7604368 9.1355253,2.7124714 9.3990247,2.664506 9.6692318,2.6693153 9.9365682,2.6855589 c 0.8544668,0.051918 1.6972298,0.2185023 2.5454898,0.3336767 0.848259,0.1151744 1.715016,0.1785126 2.557072,0.024398 0.541501,-0.099106 1.065458,-0.2869182 1.611335,-0.3580746 0.461167,-0.060114 0.928485,-0.035756 1.393529,-0.030955 0.465045,0.0048 0.937094,-0.011155 1.381549,-0.1480823 0.243705,-0.075081 0.475088,-0.1853747 0.716149,-0.2685559 0.288533,-0.099562 0.59056,-0.1598823 0.895186,-0.1790372 0.542066,-0.034085 1.082715,0.061488 1.624003,0.1062532 0.541289,0.044765 1.106719,0.034408 1.598668,-0.1957722 0.24212,-0.1132867 0.46123,-0.2776261 0.71615,-0.3580745 0.09046,-0.028547 0.183989,-0.04601 0.275722,-0.070142 0.09173,-0.024132 0.182946,-0.055567 0.261389,-0.1088955 0.06212,-0.042232 0.114478,-0.096971 0.170083,-0.1474756 0.0556,-0.050504 0.116514,-0.097983 0.187992,-0.1210803 0.05648,-0.01825 0.117671,-0.020338 0.175953,-0.00911 0.05828,0.01123 0.113686,0.035518 0.163295,0.068103 0.09922,0.06517 0.173887,0.1617213 0.235348,0.2632789 0.06146,0.1015577 0.111544,0.2096739 0.173297,0.3110537 0.06175,0.1013798 0.137032,0.1975516 0.236811,0.2618599 0.04558,0.029374 0.09536,0.051525 0.142753,0.077867 0.04739,0.026342 0.09333,0.05775 0.125804,0.1011705 0.02848,0.038072 0.04527,0.083633 0.05733,0.1296223 0.01206,0.045989 0.01976,0.093045 0.03219,0.1389336 0.04231,0.1561374 0.138262,0.2933846 0.251931,0.4084867 0.11367,0.115102 0.245383,0.2104672 0.374698,0.3076623 0.203781,0.153165 0.407792,0.3174242 0.537112,0.5371119 0.146676,0.2491729 0.183994,0.5488341 0.174184,0.837806 -0.0098,0.288972 -0.06329,0.5747005 -0.08466,0.8630481 -0.05965,0.8048622 0.131179,1.6206657 0,2.4170031 -0.06002,0.3643387 -0.1861,0.714299 -0.268557,1.0742234 -0.05455,0.2381241 -0.09004,0.4820143 -0.08247,0.7261899 0.0076,0.2441755 0.05943,0.4892922 0.171987,0.7061082 0.01534,0.02954 0.03206,0.0594 0.03635,0.0924 0.0021,0.0165 0.001,0.03362 -0.0049,0.04918 -0.0059,0.01555 -0.01685,0.02944 -0.03143,0.03746 -0.01341,0.0074 -0.02921,0.0095 -0.04449,0.0086 -0.01528,-9.16e-4 -0.03022,-0.0047 -0.04503,-0.0086 -0.273971,-0.07163 -0.538435,-0.174867 -0.805667,-0.268556 C 26.135233,9.8537847 24.81348,9.6235202 23.543402,9.2204189 22.95929,9.0350316 22.380029,8.8117436 21.770562,8.7476686 c -0.304733,-0.032038 -0.615755,-0.023198 -0.913247,0.0502 -0.297492,0.073398 -0.581378,0.213218 -0.805139,0.4225503 -0.171133,0.1600978 -0.303449,0.3562744 -0.450974,0.5383574 -0.147524,0.1820829 -0.317672,0.3555947 -0.533731,0.4463477 -0.167503,0.07036 -0.353505,0.08666 -0.534894,0.07639 -0.181389,-0.01027 -0.360198,-0.04608 -0.53933,-0.07639 -1.238722,-0.2096351 -2.505324,-0.158182 -3.759782,-0.08952 -0.925578,0.05066 -1.850663,0.110344 -2.775078,0.179038 -0.192559,0.104241 -0.408067,0.165815 -0.626631,0.179037 -0.298438,0.01805 -0.600862,-0.05258 -0.8951858,0 -0.1211517,0.02164 -0.2377344,0.06374 -0.3580746,0.08952 -0.2485402,0.05324 -0.5060377,0.03791 -0.7598023,0.02342 -0.2537645,-0.01449 -0.5078364,-0.02342 -0.7620143,-0.02342 H 4.7444896 c -0.5074662,0 -1.0163714,-0.04524 -1.5218169,0 -0.2747777,0.0246 -0.5463347,0.08494 -0.8056676,0.179037 z"
       id="path1"
       transform="matrix(1.0613018,0,0,1.1598121,-0.96447584,-0.58197464)" />
    <path
       style="font-size:17.3333px;line-height:1.25;font-family:Titilliumweb_semibold;-inkscape-font-specification:Titilliumweb_semibold;text-align:center;white-space:pre;fill:#ffffff;stroke-width:1.3"
       d="m 36.898177,21.42863 q 0.519999,-0.138667 0.693332,-0.138667 0.173333,0 0.225333,0.138667 0.06933,0.138666 0.156,0.554665 0,0.052 0,0.08667 0.01733,0.03467 0.01733,0.08667 0.01733,0.052 0.03467,0.104 0.190667,1.005332 0.242667,1.143998 0.01733,0.06933 -0.06933,0.121333 -0.08667,0.052 -0.346666,0.121333 -0.519999,0.138667 -1.143997,0.571999 -0.831999,0.537332 -1.057332,0.623999 -0.346666,0.156 -0.346666,0.294666 0,0.06933 0.01733,0.121333 0.08667,0.450666 0.173333,3.31066 l 0.06933,2.253329 h -2.443995 l -0.01733,-1.542663 q -0.03467,-2.391996 -0.103999,-3.46666 -0.01733,-0.242667 -0.01733,-0.779999 0,-0.554665 0.052,-0.953331 0.052,-0.364 0.052,-0.623999 0,-0.312 -0.06933,-0.571999 -0.052,-0.225333 -0.052,-0.346666 0,-0.190666 0.190666,-0.311999 0.208,-0.121333 0.901332,-0.364 0.918665,-0.329332 1.039998,-0.329332 0.138666,0 0.207999,0.277332 0.06933,0.26 0.190667,0.26 0.103999,0 0.467999,-0.26 0.294666,-0.225332 0.935998,-0.381332 z m 3.345314,-1.455997 -0.06933,-0.866665 h 2.426662 v 0.658665 q 0,0.658665 -0.155999,0.901332 l -0.173333,0.277332 -0.970665,-0.03467 -0.987998,-0.03467 z m 0.104,2.270662 q 0.08667,0 1.039998,0.138666 0.970665,0.121333 1.057332,0.121333 0.06933,0 0.06933,0.710666 v 0.259999 0.519999 q 0,0.710665 0.03467,1.819997 0.03467,0.831998 0.03467,1.109331 0,0.571999 -0.052,0.901331 -0.06933,0.519999 -0.06933,0.849332 0,0.381333 0.052,0.918665 0.06933,0.901332 0.06933,1.074665 0,0.121333 -0.01733,0.138666 h -0.03467 q -0.190666,0 -1.143998,-0.190666 -0.641332,-0.138667 -1.005331,-0.138667 -0.104,0 -0.104,0.01733 0,0.08667 -0.052,0.03467 -0.156,-0.156 -0.156,-1.941329 0,-0.710666 0.052,-1.109332 0.06933,-0.433332 0.06933,-1.039998 0,-0.485332 -0.01733,-0.727998 -0.08667,-1.369331 -0.08667,-1.94133 V 23.10996 l 0.01733,-0.866665 z m 9.42932,1.819996 q -0.208,-0.103999 -1.195998,-0.103999 -0.537332,0 -0.641332,0.052 -0.537332,0.242667 -0.883998,1.230665 -0.225333,0.606665 -0.225333,1.819996 0,0.849332 0.01733,1.057331 0.03467,0.208 0.208,0.468 l 0.242666,0.381332 0.710665,-0.052 q 0.849332,-0.06933 1.369331,-0.242666 l 0.623999,-0.225333 -0.01733,-0.883998 q -0.01733,-0.277333 -0.03467,-1.143998 -0.01733,-0.866665 -0.01733,-1.022665 -0.01733,-1.26533 -0.155999,-1.334664 z m 1.334664,-5.113323 q 0.866665,-0.26 1.109331,-0.26 0.138666,0 0.190666,0.121334 0.121333,0.311999 0.121333,3.033327 0,1.507997 -0.06933,1.923996 -0.242666,1.213331 -0.242666,1.715997 0,0.329333 0.08667,0.727999 0.156,0.658665 0.156,2.253328 0,1.143998 -0.104,1.577331 l -0.103999,0.502665 H 51.71814 q -0.502665,0 -0.849331,0.156 -0.658666,0.277333 -1.698664,0.450666 -1.022664,0.190666 -1.83733,0.190666 -0.589332,0 -0.831998,-0.08667 -0.433332,-0.138667 -0.935998,-0.693332 -0.502666,-0.537333 -0.814665,-1.178665 -0.138667,-0.294666 -0.173333,-0.363999 -0.03467,-0.06933 -0.104,-0.259999 -0.052,-0.190667 -0.06933,-0.329333 0,-0.156 0,-0.398666 0,-0.450666 0.052,-1.507997 0.08667,-1.819997 0.779998,-3.085327 0.242666,-0.416 0.745332,-0.901332 0.519999,-0.485332 0.901332,-0.658665 0.762665,-0.329333 1.750663,-0.329333 0.485332,0 1.282664,0.121333 l 0.277333,0.052 -0.06933,-0.485332 q -0.03467,-0.312 -0.03467,-0.710666 0,-0.363999 0.01733,-0.519999 l 0.052,-0.779998 z m 7.574651,4.021325 -0.052,-1.802663 h 0.519999 q 0.935998,0 0.935998,0.277333 0,0.173333 0.121333,0.173333 0.104,0 0.363999,0.190666 0.173333,0.156 0.416,0.156 0.138666,0 0.953331,-0.08667 1.039998,-0.08667 1.438664,-0.08667 0.675999,0.03467 1.213331,0.537332 l 0.277333,0.26 0.433332,-0.311999 q 0.727999,-0.468 1.386664,-0.468 0.190666,0 0.294666,0.01733 0.138667,0.01733 0.658666,0.06933 0.519999,0.052 0.710665,0.06933 0.987998,0.08667 1.542664,0.381333 0.554665,0.277333 0.953331,0.918665 0.398666,0.623998 0.502666,0.953331 0.121333,0.329333 0.121333,0.953332 0,0.173333 -0.03467,1.039998 v 0.173333 q 0,0.502665 0.08667,0.849331 0.06933,0.277333 0.06933,0.554666 0,0.311999 -0.06933,0.814665 -0.121333,0.901331 -0.156,1.542664 -0.06933,0.623998 -0.104,0.693332 h -0.052 q -0.259999,0 -1.178664,-0.190667 -0.918665,-0.173333 -1.039998,-0.242666 -0.06933,-0.01733 -0.06933,-0.277333 0,-0.311999 0.173333,-1.317331 0.121333,-0.589332 0.121333,-0.866665 0,-0.103999 -0.03467,-0.242666 -0.08667,-0.207999 -0.121333,-1.455997 -0.01733,-1.265331 -0.173333,-1.542664 -0.156,-0.346666 -0.502666,-0.346666 -0.01733,0 -0.08667,0.01733 -0.052,0 -0.08667,0 -0.190666,0 -0.797331,-0.08667 -0.156,-0.01733 -0.398666,-0.01733 -0.641332,0 -0.814665,0.294666 -0.01733,0.01733 -0.01733,0.121333 0,0.363999 0.104,1.022665 0.138667,1.005331 0.138667,2.859994 0,2.183996 -0.156,2.235996 -0.121333,0.03467 -0.121333,0.381333 v 0.346666 h -0.866665 q -0.918665,0 -1.091998,-0.08667 -0.173333,-0.06933 -0.26,-0.502666 -0.06933,-0.225333 -0.06933,-0.467999 0,-0.104 0.01733,-0.121333 0.138666,-0.190666 0.138666,-2.894661 0,-2.131996 -0.571999,-2.825328 l -0.311999,-0.398666 -0.831999,0.03467 q -0.935998,0.03467 -1.074664,0.242666 -0.138667,0.190666 -0.190667,1.57733 -0.03467,0.762666 -0.03467,1.195998 0,0.675999 0.06933,1.854663 0.06933,0.710665 0.06933,1.317331 0,0.225333 -0.01733,0.242666 -0.03467,0.01733 -0.06933,0.01733 -0.294666,0 -1.213331,-0.138666 -0.901332,-0.138666 -1.005332,-0.208 -0.242666,-0.155999 -0.242666,-2.99866 0,-0.502666 0.03467,-1.195998 0.06933,-1.109331 0.06933,-2.287996 0,-0.641332 -0.01733,-0.918665 z m 17.003955,-1.195997 q 0.052,-0.052 0.104,-0.052 0.242666,0 0.242666,0.693332 0,0.225333 -0.052,0.433332 -0.121333,0.398666 -0.121333,1.230665 0,0.779998 0.242666,1.490663 0.208,0.606666 0.208,1.005332 0,0.346666 -0.01733,0.589332 -0.03467,0.623999 -0.03467,0.658665 0,0.329333 0.138666,0.416 0.121333,0.121333 0.658666,0.207999 0.537332,0.08667 1.005331,0.08667 0.208,0 0.381333,-0.03467 0.329332,-0.08667 0.433332,-0.190666 0.121333,-0.121333 0.121333,-0.415999 0,-0.26 -0.01733,-0.433333 -0.03467,-0.346666 -0.173333,-1.230664 -0.138667,-0.883998 -0.138667,-1.403997 0,-0.589333 0.121334,-1.715997 0.121333,-1.126665 0.207999,-1.265331 0.01733,-0.052 0.104,-0.052 0.104,0 1.039998,0.312 l 1.074665,0.363999 -0.01733,0.346666 q 0,0.052 -0.03467,0.554665 -0.01733,0.485333 -0.052,0.814665 -0.052,0.519999 -0.052,0.831999 0,0.363999 0.06933,0.589332 0.26,0.987998 0.26,3.41466 0,0.987998 -0.08667,0.987998 -0.03467,0 -0.052,-0.06933 l -0.08667,-0.208 -0.294666,0.225333 q -0.346666,0.242666 -0.381333,0.242666 -0.052,0 -0.381333,0.225333 -0.693332,0.467999 -2.062662,0.467999 -0.433333,0 -0.675999,-0.01733 -1.265331,-0.06933 -1.57733,-0.156 -0.693332,-0.190666 -1.213331,-0.883998 -0.779999,-1.074664 -0.779999,-1.993329 0,-0.277333 0.052,-0.589332 0.03467,-0.416 0.03467,-0.519999 0,-0.312 -0.121333,-0.693332 -0.346666,-1.057332 -0.346666,-2.027997 0,-0.363999 0.01733,-0.571998 0.06933,-0.970665 0.121333,-1.126665 0.06933,-0.156 0.381333,-0.156 0.329332,0 0.519999,-0.190666 0.155999,-0.156 0.485332,-0.156 h 0.190666 0.208 q 0.311999,0 0.346666,-0.03467 z M 87.078055,21.42863 q 0.519999,-0.138667 0.693332,-0.138667 0.173333,0 0.225333,0.138667 0.06933,0.138666 0.156,0.554665 0,0.052 0,0.08667 0.01733,0.03467 0.01733,0.08667 0.01733,0.052 0.03467,0.104 0.190666,1.005332 0.242666,1.143998 0.01733,0.06933 -0.06933,0.121333 -0.08667,0.052 -0.346666,0.121333 -0.519999,0.138667 -1.143998,0.571999 -0.831998,0.537332 -1.057331,0.623999 -0.346666,0.156 -0.346666,0.294666 0,0.06933 0.01733,0.121333 0.08667,0.450666 0.173333,3.31066 l 0.06933,2.253329 h -2.443995 l -0.01733,-1.542663 q -0.03467,-2.391996 -0.104,-3.46666 -0.01733,-0.242667 -0.01733,-0.779999 0,-0.554665 0.052,-0.953331 0.052,-0.364 0.052,-0.623999 0,-0.312 -0.06933,-0.571999 -0.052,-0.225333 -0.052,-0.346666 0,-0.190666 0.190666,-0.311999 0.208,-0.121333 0.901332,-0.364 0.918665,-0.329332 1.039998,-0.329332 0.138666,0 0.208,0.277332 0.06933,0.26 0.190666,0.26 0.104,0 0.467999,-0.26 0.294666,-0.225332 0.935998,-0.381332 z"
       id="text1"
       transform="matrix(0.26458333,0,0,0.26458333,-1.1637422,-0.08951864)"
       aria-label="rid mur" />
  </g>
</svg>
