<?xml version="1.0" encoding="UTF-8" standalone="no"?>
<!-- Created with Inkscape (http://www.inkscape.org/) -->

<svg
   width="134"
   height="54"
   viewBox="0 0 35.454166 14.2875"
   version="1.1"
   id="svg1"
   inkscape:version="1.3.2 (091e20e, 2023-11-25, custom)"
   sodipodi:docname="riidblug.svg"
   xmlns:inkscape="http://www.inkscape.org/namespaces/inkscape"
   xmlns:sodipodi="http://sodipodi.sourceforge.net/DTD/sodipodi-0.dtd"
   xmlns="http://www.w3.org/2000/svg"
   xmlns:svg="http://www.w3.org/2000/svg">
  <sodipodi:namedview
     id="namedview1"
     pagecolor="#ffffff"
     bordercolor="#000000"
     borderopacity="0.25"
     inkscape:showpageshadow="2"
     inkscape:pageopacity="0.0"
     inkscape:pagecheckerboard="0"
     inkscape:deskcolor="#d1d1d1"
     inkscape:document-units="mm"
     inkscape:zoom="2.955623"
     inkscape:cx="87.291241"
     inkscape:cy="63.100064"
     inkscape:window-width="2560"
     inkscape:window-height="1369"
     inkscape:window-x="-8"
     inkscape:window-y="-8"
     inkscape:window-maximized="1"
     inkscape:current-layer="layer1" />
  <defs
     id="defs1">
    <rect
       x="9.1351298"
       y="10.488482"
       width="118.08001"
       height="32.142124"
       id="rect1" />
    <inkscape:path-effect
       effect="spiro"
       id="path-effect1"
       is_visible="true"
       lpeversion="1" />
  </defs>
  <g
     inkscape:label="Layer 1"
     inkscape:groupmode="layer"
     id="layer1">
    <path
       style="fill:#ff9500;stroke:#ff9500;stroke-width:0.349999;fill-opacity:1;stroke-opacity:1"
       d="M 2.4170031,13.517313 C 1.9899373,13.736811 1.4651954,13.756372 1.0229732,13.569278 0.58075107,13.382184 0.2293793,12.99196 0.08951863,12.532609 -0.06599177,12.021859 0.04425521,11.442726 0.35807454,11.010792 0.51986568,10.788106 0.72998741,10.60433 0.89518632,10.384161 1.1024817,10.107887 1.2348819,9.7767021 1.2799517,9.434259 1.3250216,9.0918159 1.2831516,8.73885 1.1637422,8.4147513 1.1310786,8.3260965 1.0925296,8.2388858 1.0742236,8.1461956 c -0.034772,-0.1760653 0.0058,-0.3577394 0,-0.5371119 C 1.0641995,7.2989698 0.91705383,7.0111249 0.75994351,6.7435666 0.60283319,6.4760082 0.42967335,6.2101315 0.35807454,5.9082296 c -0.0967453,-0.4079338 0.002172,-0.8340175 0,-1.2532608 C 0.35667346,4.38451 0.31297309,4.116242 0.29152502,3.8466314 0.27007696,3.5770208 0.27179244,3.299964 0.35807454,3.0436335 c 0.0301312,-0.089515 0.0704297,-0.176055 0.0895186,-0.268556 0.0272888,-0.132236 0.009837,-0.2690541 -0.00578,-0.4031703 -0.0156171,-0.1341162 -0.0290588,-0.2720469 0.00578,-0.4024973 0.0207866,-0.077833 0.0580574,-0.1500681 0.0937312,-0.2223002 0.0356738,-0.072232 0.070344,-0.1461335 0.0853061,-0.225293 C 0.65154301,1.3900125 0.6198402,1.253585 0.57118511,1.1285824 0.52253002,1.0035797 0.45702126,0.88558486 0.41007192,0.75993161 0.36312258,0.63427835 0.33512617,0.49652651 0.3653981,0.36584908 c 0.015136,-0.0653387 0.045045,-0.12777619 0.0900007,-0.17754796 0.0449557,-0.0497718 0.10532354,-0.0863576 0.17123157,-0.09878249 0.0718643,-0.01354772 0.14739953,0.0019977 0.21254524,0.03522496 0.0651457,0.0332273 0.12055355,0.083297 0.16756445,0.13931481 0.094022,0.11203556 0.1559911,0.24769623 0.2465208,0.36257203 0.1440319,0.18276639 0.3540861,0.30407294 0.5736035,0.38127967 0.2195173,0.077207 0.4507395,0.1140541 0.6796573,0.1558321 0.3134701,0.057209 0.6263449,0.1244631 0.9444132,0.1436715 0.3180683,0.019208 0.6453662,-0.01187 0.9354781,-0.1436715 0.1215325,-0.055214 0.2350075,-0.1273346 0.3580746,-0.17903723 0.3195079,-0.13423085 0.680488,-0.12217015 1.0245709,-0.0808159 0.3440829,0.0413542 0.6890174,0.10985658 1.0343576,0.0808159 0.1809579,-0.0152173 0.3584455,-0.0570274 0.5371118,-0.0895187 0.9717582,-0.1767188 1.9694299,-0.0770621 2.9541151,0 1.518714,0.11885553 3.044938,0.18258823 4.56545,0.0895187 1.07427,-0.0657554 2.153108,-0.20958349 3.222671,-0.0895187 0.59987,0.067339 1.188929,0.21712633 1.790372,0.26855593 0.83276,0.07121 1.670723,0 2.506522,0 h 5.102562 c 0.389812,0 0.779253,0.020697 1.167621,0.05422 0.388368,0.033523 0.789763,0.068172 1.159863,-0.05422 0.08965,-0.029646 0.176484,-0.068594 0.268558,-0.089519 0.143921,-0.032708 0.294744,-0.019899 0.439206,0.010329 0.144462,0.030228 0.284752,0.077486 0.427687,0.1142634 0.142935,0.036777 0.290688,0.063179 0.437723,0.050389 0.147036,-0.01279 0.294423,-0.068131 0.396236,-0.1749818 0.02918,-0.030623 0.05475,-0.065432 0.08952,-0.0895187 0.03141,-0.0217606 0.06898,-0.0336037 0.106948,-0.0379708 0.03796,-0.004367 0.07644,-0.001527 0.114229,0.004162 0.07558,0.0113787 0.149989,0.0341606 0.226416,0.0338088 0.123494,-5.6842e-4 0.237932,-0.0609354 0.358074,-0.0895187 0.116516,-0.0277204 0.238001,-0.025323 0.357484,-0.0170699 0.119483,0.008253 0.23901,0.0222108 0.358667,0.0170699 0.244011,-0.0104836 0.47662,-0.0994271 0.712271,-0.16361234 0.117826,-0.0320926 0.237904,-0.058233 0.359826,-0.0651392 0.121923,-0.006906 0.246199,0.005937 0.360201,0.0497143 0.118714,0.045587 0.224256,0.12457981 0.302249,0.22502028 0.07799,0.10044049 0.128321,0.22198789 0.14515,0.34803569 0.01683,0.1260477 2.29e-4,0.2562824 -0.04675,0.3744516 -0.04698,0.1181692 -0.124152,0.2240643 -0.221611,0.3057533 -0.100353,0.084115 -0.220099,0.1418002 -0.325079,0.2200651 -0.05249,0.039132 -0.101522,0.083741 -0.139861,0.1368132 -0.03834,0.053072 -0.0657,0.1150824 -0.07217,0.1802335 -0.0059,0.059442 0.0055,0.1195607 0,0.1790372 -0.0063,0.067168 -0.03397,0.1306571 -0.06815,0.1888142 -0.03418,0.058157 -0.07503,0.1121149 -0.110884,0.1692604 -0.198813,0.3169229 -0.231519,0.715402 -0.170356,1.0844899 0.06116,0.3690879 0.208328,0.717449 0.349391,1.0639572 0.07127,0.1750633 0.141631,0.3518363 0.179038,0.5371118 0.0652,0.3229286 0.02771,0.6564278 0,0.9847051 -0.06283,0.7443913 -0.07392,1.4945938 0,2.2379657 0.04442,0.4467387 0.08952,0.8938382 0.08952,1.3427803 v 1.25326 c 0,0.0572 -0.0018,0.114711 -0.01328,0.17076 -0.01143,0.05605 -0.03187,0.109768 -0.05141,0.163529 -0.01955,0.05376 -0.03817,0.109932 -0.03337,0.166934 0.0024,0.0285 0.01109,0.05687 0.02782,0.08007 0.01673,0.0232 0.04199,0.04084 0.07024,0.04534 0.02954,0.0047 0.06,-0.0048 0.08952,0 0.01545,0.0025 0.03018,0.009 0.04277,0.01832 0.01259,0.0093 0.02305,0.0214 0.03086,0.03497 0.01562,0.02714 0.02038,0.05971 0.01681,0.09081 -0.0036,0.03111 -0.01509,0.06089 -0.03016,0.08834 -0.01506,0.02745 -0.03365,0.05279 -0.05235,0.07791 -0.03739,0.05024 -0.07663,0.10261 -0.0871,0.164353 -0.0052,0.03087 -0.0027,0.06356 0.01071,0.09186 0.01339,0.0283 0.03827,0.05173 0.06846,0.06006 0.02893,0.008 0.05958,0.002 0.08952,0 0.110258,-0.0074 0.22103,0.04285 0.294841,0.125094 0.07381,0.08224 0.111534,0.193814 0.111861,0.304319 3.27e-4,0.110505 -0.0352,0.219582 -0.09275,0.313921 -0.05755,0.09434 -0.13647,0.174483 -0.224433,0.241371 -0.190684,0.144999 -0.423687,0.228537 -0.660963,0.261483 -0.237276,0.03295 -0.479272,0.01705 -0.715489,-0.02279 -0.472432,-0.07968 -0.925326,-0.253856 -1.398625,-0.328212 -0.871728,-0.13695 -1.761353,0.07178 -2.596038,0.358074 -0.20579,0.07059 -0.411539,0.146374 -0.626632,0.179038 -0.384076,0.05832 -0.77599,-0.02374 -1.163743,0 -0.317941,0.01947 -0.626856,0.109579 -0.941218,0.160979 -0.314362,0.0514 -0.64917,0.06141 -0.938673,-0.07146 -0.121412,-0.05572 -0.231845,-0.135312 -0.358074,-0.179037 -0.171818,-0.05952 -0.360001,-0.04834 -0.537112,-0.08952 -0.248833,-0.05785 -0.466044,-0.21648 -0.716149,-0.268556 -0.26361,-0.05489 -0.536748,0.01359 -0.805668,0 -0.181456,-0.0092 -0.358621,-0.05558 -0.537111,-0.08952 -0.529355,-0.100653 -1.072501,-0.09182 -1.611336,-0.08952 -0.477429,0.002 -0.954865,0 -1.432298,0 h -2.685559 c -0.328299,0 -0.657073,-0.02091 -0.984705,0 -0.29941,0.01911 -0.595206,0.08467 -0.895186,0.08952 -0.328957,0.0053 -0.661647,-0.06225 -0.984705,0 -0.120838,0.02328 -0.237614,0.06436 -0.358075,0.08952 -0.248784,0.05196 -0.506097,0.03699 -0.759855,0.02285 -0.253758,-0.01414 -0.507809,-0.02285 -0.761961,-0.02285 H 8.9518702 c -0.4182853,0 -0.8364667,0.01135 -1.2543461,0.02977 -0.4178793,0.01842 -0.8394269,0.03806 -1.2521756,-0.02977 -0.3886262,-0.06387 -0.7709395,-0.207591 -1.1637423,-0.179037 -0.074976,0.0054 -0.1494152,0.01719 -0.2244543,0.02169 -0.075039,0.0045 -0.1516404,0.0015 -0.2231387,-0.02169 -0.063584,-0.02065 -0.1208988,-0.05652 -0.1790374,-0.08952 -0.3392462,-0.19258 -0.7288865,-0.295463 -1.1189828,-0.295463 -0.3900964,0 -0.7797367,0.102883 -1.1189829,0.295463 z"
       id="path1"
       inkscape:path-effect="#path-effect1"
       inkscape:original-d="M 2.4170031,13.517313 C 2.0239966,13.181454 0.16481727,12.9844 0.08951863,12.532609 0.03869616,12.227674 0.19366083,11.257412 0.35807454,11.010792 0.50715261,10.787175 0.74717846,10.606173 0.89518632,10.384161 1.2176309,9.9004944 1.2347725,8.9829935 1.1637422,8.4147513 1.1520382,8.3211193 1.0897364,8.2392725 1.0742236,8.1461956 1.04479,7.9695944 1.1234089,7.7812325 1.0742236,7.6090837 0.90563871,7.0190367 0.46084294,6.5248403 0.35807454,5.9082296 c -0.0646796,-0.3880776 0,-0.8612348 0,-1.2532608 0,-0.5056815 -0.0832182,-1.112026 0,-1.6113353 0.0155128,-0.093077 0.0778146,-0.1749237 0.0895186,-0.268556 0.0333103,-0.266482 -0.0379795,-0.5398108 0,-0.8056676 0.16879795,-1.18158565 0.00618,0.4166933 0.17903727,-0.4475932 0.0501012,-0.2505058 -0.0857886,-1.34650947 0,-1.43229807 0.16792858,-0.16792858 0.57880239,0.50124073 0.62663049,0.5371118 0.3664383,0.27482873 0.8070449,0.44786857 1.2532608,0.53711177 0.3193661,0.063873 1.6026598,0.09241 1.8798913,0 0.4646417,-0.1548805 -0.6401184,-0.079218 0.3580746,-0.17903723 0.675395,-0.0675395 1.3800733,0 2.0589285,0 0.4534009,0 -0.1908389,0.0144743 0.5371118,-0.0895187 0.5598668,-0.079981 2.3442782,-0.0406558 2.9541151,0 1.502911,0.10019405 3.056777,0.18381073 4.56545,0.0895187 1.050664,-0.0656665 2.16425,-0.19536069 3.222671,-0.0895187 0.608188,0.0608188 1.173517,0.23608983 1.790372,0.26855593 0.830397,0.043705 1.67462,0 2.506522,0 1.700854,0 3.401708,0 5.102562,0 0.586306,0 1.755106,0.1144757 2.327484,0 0.09253,-0.018506 0.175144,-0.076174 0.268558,-0.089519 0.543872,-0.0776962 1.169744,0.1327775 1.700852,0 0.04094,-0.010235 0.04949,-0.076174 0.08952,-0.0895187 0.141542,-0.0471805 0.299895,0.0210998 0.447593,0 0.121796,-0.0173993 0.235993,-0.0742585 0.358074,-0.0895187 0.236874,-0.0296091 0.479833,0.0337596 0.716151,0 0.296801,-0.0424003 1.148045,-0.32116249 1.432298,-0.17903727 0.244361,0.12218162 0.261162,1.00688727 0.179035,1.25326087 -0.07098,0.2129373 -0.435874,0.3346389 -0.537112,0.5371118 -0.02669,0.053379 0.01447,0.12114 0,0.1790372 -0.03236,0.1294622 -0.146672,0.2286124 -0.179035,0.3580746 -0.140161,0.5606399 0.06717,1.6450353 0.179035,2.1484471 0.04094,0.1842278 0.142029,0.3520549 0.179038,0.5371118 0.0595,0.2974764 0,0.6857455 0,0.9847051 0,0.7179352 -0.117586,1.5324399 0,2.2379657 0.07592,0.4555376 0.08952,0.8699217 0.08952,1.3427803 0,0.417753 0,0.835507 0,1.25326 0,0.09702 -0.06327,0.563358 0,0.626631 0.02109,0.0211 0.06842,-0.0211 0.08952,0 0.104439,0.104438 -0.104439,0.522192 0,0.62663 0.02109,0.0211 0.07617,-0.02669 0.08952,0 0.04142,0.08283 0.150421,0.923802 0.08952,0.984705 -0.08543,0.08543 -2.519484,-0.132117 -2.775077,-0.08952 -0.853336,0.142223 -1.727472,0.200153 -2.596038,0.358074 -0.208325,0.03788 -0.417124,0.149108 -0.626632,0.179038 -0.379674,0.05424 -0.782523,-0.04236 -1.163743,0 -0.536284,0.05959 -1.347213,0.222688 -1.879891,0.08952 -0.129462,-0.03237 -0.234172,-0.129476 -0.358074,-0.179037 -0.525735,-0.210294 -0.01078,-0.0018 -0.537112,-0.08952 -0.25148,-0.04191 -0.463762,-0.2325 -0.716149,-0.268556 -0.265857,-0.03798 -0.537707,0.01787 -0.805668,0 -0.181104,-0.01207 -0.356505,-0.07146 -0.537111,-0.08952 -0.552507,-0.05525 -1.071643,0.01842 -1.611336,-0.08952 -0.436549,-0.08731 -0.984628,0 -1.432298,0 -0.895186,0 -1.790373,0 -2.685559,0 -0.31534,0 -0.672185,-0.04465 -0.984705,0 -0.323953,0.04628 -0.565855,0.08952 -0.895186,0.08952 -0.328235,0 -0.658478,-0.03625 -0.984705,0 -0.122279,0.01359 -0.235654,0.07728 -0.358075,0.08952 -0.489934,0.04899 -1.02714,0 -1.521816,0 -1.193582,0 -2.387164,0 -3.5807458,0 -0.8123706,0 -1.6993777,0.100893 -2.5065217,0 -0.396839,-0.0496 -0.7771747,-0.114609 -1.1637423,-0.179037 -0.1471676,-0.02453 -0.30285,0.03619 -0.447593,0 -0.064731,-0.01618 -0.1136097,-0.07643 -0.1790374,-0.08952 -0.5106324,-0.102126 -1.6677203,0 -2.2379657,0 z"
       transform="translate(0.08951863,-0.17903727)" />
    <path
       d="m 48.686819,18.088281 q 0.48,-0.128 0.64,-0.128 0.16,0 0.208,0.128 0.064,0.128 0.144,0.512 0,0.048 0,0.08 0.016,0.032 0.016,0.08 0.016,0.048 0.032,0.096 0.176,0.928 0.224,1.056 0.016,0.064 -0.064,0.112 -0.08,0.048 -0.32,0.112 -0.48,0.128 -1.056,0.528 -0.768,0.496 -0.976,0.576 -0.32,0.144 -0.32,0.272 0,0.064 0.016,0.112 0.08,0.416 0.16,3.056 l 0.064,2.08 h -2.256 l -0.016,-1.424 q -0.032,-2.208 -0.096,-3.2 -0.016,-0.224 -0.016,-0.72 0,-0.512 0.048,-0.88 0.048,-0.336 0.048,-0.576 0,-0.288 -0.064,-0.528 -0.048,-0.208 -0.048,-0.32 0,-0.176 0.176,-0.288 0.192,-0.112 0.832,-0.336 0.848,-0.304 0.96,-0.304 0.128,0 0.192,0.256 0.064,0.24 0.176,0.24 0.096,0 0.432,-0.24 0.272,-0.208 0.864,-0.352 z m 1.80799,-1.344 -0.064,-0.8 h 2.24 v 0.608 q 0,0.608 -0.144,0.832 l -0.16,0.256 -0.896,-0.032 -0.912,-0.032 z m 0.096,2.096 q 0.08,0 0.96,0.128 0.896,0.112 0.976,0.112 0.064,0 0.064,0.656 v 0.24 0.48 q 0,0.656 0.032,1.68 0.032,0.768 0.032,1.024 0,0.528 -0.048,0.832 -0.064,0.48 -0.064,0.784 0,0.352 0.048,0.848 0.064,0.832 0.064,0.992 0,0.112 -0.016,0.128 h -0.032 q -0.176,0 -1.056,-0.176 -0.592,-0.128 -0.928,-0.128 -0.096,0 -0.096,0.016 0,0.08 -0.048,0.032 -0.144,-0.144 -0.144,-1.792 0,-0.656 0.048,-1.024 0.064,-0.4 0.064,-0.96 0,-0.448 -0.016,-0.672 -0.08,-1.264 -0.08,-1.792 v -0.608 l 0.016,-0.8 z m 2.560004,-2.096 -0.064,-0.8 h 2.24 v 0.608 q 0,0.608 -0.144,0.832 l -0.16,0.256 -0.896,-0.032 -0.912,-0.032 z m 0.096,2.096 q 0.08,0 0.96,0.128 0.896,0.112 0.976,0.112 0.064,0 0.064,0.656 v 0.24 0.48 q 0,0.656 0.032,1.68 0.032,0.768 0.032,1.024 0,0.528 -0.048,0.832 -0.064,0.48 -0.064,0.784 0,0.352 0.048,0.848 0.064,0.832 0.064,0.992 0,0.112 -0.016,0.128 h -0.032 q -0.176,0 -1.056,-0.176 -0.592,-0.128 -0.928,-0.128 -0.096,0 -0.096,0.016 0,0.08 -0.048,0.032 -0.144,-0.144 -0.144,-1.792 0,-0.656 0.048,-1.024 0.064,-0.4 0.064,-0.96 0,-0.448 -0.016,-0.672 -0.08,-1.264 -0.08,-1.792 v -0.608 l 0.016,-0.8 z m 7.424004,1.68 q -0.192,-0.096 -1.104,-0.096 -0.496,0 -0.592,0.048 -0.496,0.224 -0.816,1.136 -0.208,0.56 -0.208,1.68 0,0.784 0.016,0.976 0.032,0.192 0.192,0.432 l 0.224,0.352 0.656,-0.048 q 0.784,-0.064 1.264,-0.224 l 0.576,-0.208 -0.016,-0.816 q -0.016,-0.256 -0.032,-1.056 -0.016,-0.8 -0.016,-0.944 -0.016,-1.168 -0.144,-1.232 z m 1.232,-4.72 q 0.8,-0.24 1.024,-0.24 0.128,0 0.176,0.112 0.112,0.288 0.112,2.8 0,1.392 -0.064,1.776 -0.224,1.12 -0.224,1.584 0,0.304 0.08,0.672 0.144,0.608 0.144,2.08 0,1.056 -0.096,1.456 l -0.096,0.464 h -0.496 q -0.464,0 -0.784,0.144 -0.608,0.256 -1.568,0.416 -0.944,0.176 -1.696,0.176 -0.544,0 -0.768,-0.08 -0.4,-0.128 -0.864,-0.64 -0.464,-0.496 -0.752,-1.088 -0.128,-0.272 -0.16,-0.336 -0.032,-0.064 -0.096,-0.24 -0.048,-0.176 -0.064,-0.304 0,-0.144 0,-0.368 0,-0.416 0.048,-1.392 0.08,-1.68 0.72,-2.848 0.224,-0.384 0.688,-0.832 0.48,-0.448 0.832,-0.608 0.704,-0.304 1.616,-0.304 0.448,0 1.184,0.112 l 0.256,0.048 -0.064,-0.448 q -0.032,-0.288 -0.032,-0.656 0,-0.336 0.016,-0.48 l 0.048,-0.72 z m 4.432,3.712 -0.048,-1.664 h 0.48 q 0.864,0 0.864,0.256 0,0.16 0.112,0.16 0.096,0 0.336,0.176 0.16,0.144 0.384,0.144 0.128,0 0.88,-0.08 0.96,-0.08 1.328,-0.08 0.624,0.032 1.12,0.496 l 0.256,0.24 0.4,-0.288 q 0.672,-0.432 1.28,-0.432 0.176,0 0.272,0.016 0.128,0.016 0.608,0.064 0.48,0.048 0.656,0.064 0.912,0.08 1.424,0.352 0.512,0.256 0.88,0.848 0.368,0.576 0.464,0.88 0.112,0.304 0.112,0.88 0,0.16 -0.032,0.96 v 0.16 q 0,0.464 0.08,0.784 0.064,0.256 0.064,0.512 0,0.288 -0.064,0.752 -0.112,0.832 -0.144,1.424 -0.064,0.576 -0.096,0.64 h -0.048 q -0.24,0 -1.088,-0.176 -0.848,-0.16 -0.96,-0.224 -0.064,-0.016 -0.064,-0.256 0,-0.288 0.16,-1.216 0.112,-0.544 0.112,-0.8 0,-0.096 -0.032,-0.224 -0.08,-0.192 -0.112,-1.344 -0.016,-1.168 -0.16,-1.424 -0.144,-0.32 -0.464,-0.32 -0.016,0 -0.08,0.016 -0.048,0 -0.08,0 -0.176,0 -0.736,-0.08 -0.144,-0.016 -0.368,-0.016 -0.592,0 -0.752,0.272 -0.016,0.016 -0.016,0.112 0,0.336 0.096,0.944 0.128,0.928 0.128,2.64 0,2.016 -0.144,2.064 -0.112,0.032 -0.112,0.352 v 0.32 h -0.8 q -0.848,0 -1.008,-0.08 -0.16,-0.064 -0.24,-0.464 -0.064,-0.208 -0.064,-0.432 0,-0.096 0.016,-0.112 0.128,-0.176 0.128,-2.672 0,-1.968 -0.528,-2.608 l -0.288,-0.368 -0.768,0.032 q -0.864,0.032 -0.992,0.224 -0.128,0.176 -0.176,1.456 -0.032,0.704 -0.032,1.104 0,0.624 0.064,1.712 0.064,0.656 0.064,1.216 0,0.208 -0.016,0.224 -0.032,0.016 -0.064,0.016 -0.272,0 -1.12,-0.128 -0.832,-0.128 -0.928,-0.192 -0.224,-0.144 -0.224,-2.768 0,-0.464 0.032,-1.104 0.064,-1.024 0.064,-2.112 0,-0.592 -0.016,-0.848 z m 14.415988,-1.104 q 0.048,-0.048 0.096,-0.048 0.224,0 0.224,0.64 0,0.208 -0.048,0.4 -0.112,0.368 -0.112,1.136 0,0.72 0.224,1.376 0.192,0.56 0.192,0.928 0,0.32 -0.016,0.544 -0.032,0.576 -0.032,0.608 0,0.304 0.128,0.384 0.112,0.112 0.608,0.192 0.496,0.08 0.928,0.08 0.192,0 0.352,-0.032 0.304,-0.08 0.4,-0.176 0.112,-0.112 0.112,-0.384 0,-0.24 -0.016,-0.4 -0.032,-0.32 -0.16,-1.136 -0.128,-0.816 -0.128,-1.296 0,-0.544 0.112,-1.584 0.112,-1.04 0.192,-1.168 0.016,-0.048 0.096,-0.048 0.096,0 0.96,0.288 l 0.992,0.336 -0.016,0.32 q 0,0.048 -0.032,0.512 -0.016,0.448 -0.048,0.752 -0.048,0.48 -0.048,0.768 0,0.336 0.064,0.544 0.24,0.912 0.24,3.152 0,0.912 -0.08,0.912 -0.032,0 -0.048,-0.064 l -0.08,-0.192 -0.272,0.208 q -0.32,0.224 -0.352,0.224 -0.048,0 -0.352,0.208 -0.64,0.432 -1.904,0.432 -0.4,0 -0.624,-0.016 -1.168,-0.064 -1.456,-0.144 -0.64,-0.176 -1.12,-0.816 -0.72,-0.992 -0.72,-1.84 0,-0.256 0.048,-0.544 0.032,-0.384 0.032,-0.48 0,-0.288 -0.112,-0.64 -0.32,-0.976 -0.32,-1.872 0,-0.336 0.016,-0.528 0.064,-0.896 0.112,-1.04 0.064,-0.144 0.352,-0.144 0.304,0 0.48,-0.176 0.144,-0.144 0.448,-0.144 h 0.176 0.192 q 0.288,0 0.32,-0.032 z m 9.231997,-0.32 q 0.48,-0.128 0.64,-0.128 0.16,0 0.208,0.128 0.064,0.128 0.144,0.512 0,0.048 0,0.08 0.016,0.032 0.016,0.08 0.016,0.048 0.032,0.096 0.176,0.928 0.224,1.056 0.016,0.064 -0.064,0.112 -0.08,0.048 -0.32,0.112 -0.48,0.128 -1.056,0.528 -0.768,0.496 -0.976,0.576 -0.32,0.144 -0.32,0.272 0,0.064 0.016,0.112 0.08,0.416 0.16,3.056 l 0.064,2.08 h -2.256 l -0.016,-1.424 q -0.032,-2.208 -0.096,-3.2 -0.016,-0.224 -0.016,-0.72 0,-0.512 0.048,-0.88 0.048,-0.336 0.048,-0.576 0,-0.288 -0.064,-0.528 -0.048,-0.208 -0.048,-0.32 0,-0.176 0.176,-0.288 0.192,-0.112 0.832,-0.336 0.848,-0.304 0.96,-0.304 0.128,0 0.192,0.256 0.064,0.24 0.176,0.24 0.096,0 0.432,-0.24 0.272,-0.208 0.864,-0.352 z"
       id="text1"
       style="font-size:16px;line-height:1.25;font-family:Titilliumweb_semibold;-inkscape-font-specification:Titilliumweb_semibold;text-align:center;letter-spacing:-1.28px;word-spacing:0px;text-anchor:middle;white-space:pre;fill:#ffffff;stroke-width:1.32283"
       transform="matrix(0.33240833,0,0,0.32498726,-4.309104,-0.22375312)"
       aria-label="riid mur" />
  </g>
</svg>
