<?xml version="1.0" encoding="UTF-8" standalone="no"?>
<!-- Created with Inkscape (http://www.inkscape.org/) -->

<svg
   width="192.5"
   height="47"
   viewBox="0 0 50.932291 12.435417"
   version="1.1"
   id="svg1"
   xmlns="http://www.w3.org/2000/svg"
   xmlns:svg="http://www.w3.org/2000/svg">
  <defs
     id="defs1"><filter id="lf" x="0" y="0" width="100%" height="100%"><feComponentTransfer><feFuncR type="linear" slope="1.4"/><feFuncG type="linear" slope="1.4"/><feFuncB type="linear" slope="1.4"/></feComponentTransfer></filter>
    <rect
       x="12.180173"
       y="10.826821"
       width="170.52242"
       height="25.375361"
       id="rect3" />
    <rect
       x="13.871864"
       y="9.1351299"
       width="214.50638"
       height="28.758741"
       id="rect2" />
    <rect
       x="3.7217195"
       y="5.7517486"
       width="265.59543"
       height="33.833813"
       id="rect1" />
  </defs>
  <g
     id="layer1">
    <path
       style="fill:#ff7e00;fill-opacity:1;stroke:#ff7e00;stroke-width:0.343958;stroke-opacity:1"
       d="m 1.0742236,11.726941 c 0.072822,-0.322832 0.072822,-0.661873 0,-0.984705 C 1.0471488,10.622208 1.010202,10.504534 0.984705,10.384161 0.88818559,9.9284872 0.95900463,9.4563548 1.0187554,8.9944192 1.0785062,8.5324837 1.1254816,8.0530843 0.984705,7.6090837 0.90483914,7.3571917 0.76625491,7.1236516 0.71835649,6.8637788 0.69440728,6.7338424 0.6943409,6.5973221 0.73634513,6.4720517 0.77834936,6.3467813 0.86549673,6.2337631 0.984705,6.1767857 c 0.0613464,-0.029321 0.1287572,-0.043201 0.1929002,-0.065757 0.032072,-0.011278 0.063524,-0.02483 0.092148,-0.043172 0.028624,-0.018342 0.054429,-0.041649 0.073026,-0.070108 0.025015,-0.038279 0.036032,-0.084456 0.037664,-0.1301542 0.00163,-0.045699 -0.00566,-0.091247 -0.014844,-0.1360436 -0.00918,-0.044797 -0.020277,-0.089266 -0.026412,-0.1345806 -0.00614,-0.045314 -0.0072,-0.091898 0.00359,-0.1363334 0.012816,-0.052767 0.041783,-0.1002777 0.074915,-0.1432993 0.033132,-0.043022 0.07074,-0.08243 0.1041227,-0.1252568 C 1.658477,5.0167579 1.7184247,4.7870475 1.700854,4.5654502 1.6888701,4.4143122 1.6430263,4.2682303 1.6118572,4.1198565 1.580688,3.9714827 1.5646115,3.8144971 1.6113354,3.670264 c 0.031198,-0.096305 0.089365,-0.1834201 0.109871,-0.2825537 0.010253,-0.049567 0.01049,-0.1022436 -0.00713,-0.1496939 -0.00881,-0.023725 -0.022046,-0.045906 -0.03951,-0.064224 -0.017463,-0.018317 -0.039202,-0.0327 -0.063232,-0.040641 -0.02882,-0.00952 -0.060699,-0.00952 -0.089519,0 -0.03004,-0.029639 -0.05988,-0.059479 -0.089519,-0.089519 C 1.1742696,2.7821145 0.92567401,2.4956774 0.8056677,2.1484472 0.70905221,1.8688968 0.70248024,1.5596422 0.78302236,1.2750443 0.86356449,0.9904464 1.0303124,0.73147476 1.2532609,0.53711181 1.3180949,0.48059052 1.3874727,0.42944296 1.4520778,0.37266013 1.5166829,0.3158773 1.5770602,0.25265382 1.6190752,0.17760151 c 0.042015,-0.0750523 0.06465,-0.16319497 0.050571,-0.24804711 -0.00704,-0.04242607 -0.023242,-0.0835036 -0.048494,-0.11831505 -0.025253,-0.0348114 -0.059661,-0.0631973 -0.099335,-0.0797952 -0.014343,-0.006 -0.029498,-0.0104977 -0.04503,-0.0111923 -0.015532,-6.9459e-4 -0.031519,0.002618 -0.044489,0.0111923 -0.014429,0.009539 -0.024195,0.0249031 -0.030213,0.0411189 -0.00602,0.0162158 -0.00866,0.0334503 -0.011567,0.0505 -0.00291,0.0170497 -0.0062,0.0342433 -0.013375,0.0499795 -0.00718,0.0157362 -0.018706,0.03008955 -0.034363,0.03743886 -0.013697,0.006429 -0.029426,0.0070533 -0.044492,0.0056594 -0.015066,-0.0013939 -0.029928,-0.0046811 -0.045027,-0.0056594 -0.044537,-0.0028856 -0.089477,0.01530987 -0.121404,0.04649564 -0.031927,0.03118576 -0.050971,0.07456298 -0.055092,0.11900275 -0.00412,0.04443977 0.00624,0.08971597 0.026786,0.12933356 0.020551,0.0396176 0.051018,0.073687 0.086413,0.10087359 0.070789,0.0543733 0.1591543,0.080668 0.2469496,0.0967765 0.087795,0.0161086 0.1772958,0.0231797 0.2639411,0.0446297 0.2209982,0.0547107 0.409824,0.19906883 0.6266304,0.26855589 0.1575915,0.0505085 0.3257601,0.0599535 0.491041,0.0516807 0.1652809,-0.008273 0.3291454,-0.0337957 0.4936639,-0.0516807 0.8030987,-0.0873058 1.6133181,0.007786 2.4170031,0.0895187 1.5803994,0.16072255 3.1658979,0.26997595 4.7444878,0.44759315 0.38757,0.043608 0.784455,0.090846 1.163742,0 0.09188,-0.022007 0.181848,-0.051996 0.268556,-0.089519 0.117891,-0.035346 0.23742,-0.065228 0.358075,-0.089519 1.172993,-0.23615136 2.385902,0.06349 3.580745,0 0.38858,-0.020648 0.774736,-0.0797672 1.163742,-0.0895186 0.840964,-0.0210809 1.669127,0.1883426 2.506522,0.2685559 1.426803,0.1366723 2.867251,-0.1027931 4.296894,0 0.836587,0.060152 1.669805,0.2373581 2.506522,0.1790372 0.947434,-0.066038 1.845917,-0.430032 2.775079,-0.62663037 1.114842,-0.23588594 2.270735,-0.22886082 3.401708,-0.0895187 0.268236,0.0330481 0.535879,0.0734865 0.805667,0.0895187 0.536362,0.0318734 1.075045,-0.0330531 1.611336,0 0.818571,0.0504509 1.605806,0.32691527 2.417003,0.44759317 1.7154,0.255192 3.480855,-0.1923086 5.19208,0.089519 0.387632,0.063841 0.771138,0.1649863 1.163741,0.1790372 0.178942,0.0064 0.358136,-0.0054 0.537112,0 0.468987,0.014144 0.925297,0.1455715 1.386819,0.2301072 0.461523,0.084536 0.951287,0.1198266 1.388258,-0.05107 0.149845,-0.058603 0.291326,-0.1407275 0.447595,-0.1790373 0.131684,-0.032283 0.268787,-0.032173 0.404338,-0.03514 0.135551,-0.00297 0.273348,-0.00962 0.401329,-0.054379 0.07616,-0.026637 0.147012,-0.066166 0.219457,-0.1016838 0.07244,-0.035517 0.148057,-0.067506 0.228136,-0.077353 0.08967,-0.011026 0.180037,0.0062 0.269671,0.017537 0.08963,0.011338 0.18366,0.016277 0.267441,-0.017537 0.08228,-0.033208 0.145417,-0.09986 0.212227,-0.1582477 0.03341,-0.029194 0.06855,-0.05686 0.107859,-0.077435 0.03931,-0.0205745 0.08315,-0.0338759 0.127507,-0.0328734 0.03032,6.8522e-4 0.06006,0.007966 0.09019,0.0114163 0.03013,0.003451 0.06203,0.002733 0.08885,-0.0114163 0.01877,-0.009902 0.03371,-0.0256831 0.0473,-0.0419773 0.01359,-0.0162941 0.02631,-0.0334987 0.04222,-0.0475414 0.03137,-0.0276903 0.07423,-0.0413217 0.115999,-0.0389451 0.04177,0.002377 0.08214,0.0202866 0.113416,0.0480833 0.03127,0.0277966 0.05355,0.0651253 0.0653,0.10528199 0.01175,0.040157 0.01318,0.083032 0.0063,0.1243069 -0.01371,0.08255 -0.0596,0.1568173 -0.115541,0.2190477 -0.05595,0.062231 -0.122142,0.1141865 -0.185497,0.1688555 -0.472532,0.4077511 -0.794822,0.9860267 -0.892388,1.6024907 -0.09757,0.6164641 0.0305,1.2662345 0.355276,1.7992174 0.065,0.1066764 0.137541,0.2087755 0.198437,0.3178485 0.0609,0.109073 0.110414,0.2267305 0.124453,0.3508599 0.01404,0.1241295 -0.01026,0.2558401 -0.08511,0.3558552 -0.03742,0.050008 -0.08701,0.091259 -0.144133,0.11652 -0.05712,0.025261 -0.121779,0.034163 -0.183171,0.022659 -0.01503,-0.00282 -0.02988,-0.00683 -0.04512,-0.00812 -0.01524,-0.00129 -0.03123,3.477e-4 -0.0444,0.00812 -0.01391,0.00822 -0.02344,0.022736 -0.02768,0.038326 -0.0042,0.01559 -0.0036,0.03219 -4.48e-4,0.048041 0.0063,0.031702 0.02211,0.060918 0.02813,0.09267 0.009,0.047244 -0.0046,0.096053 -0.02455,0.1398128 -0.01993,0.04376 -0.04622,0.084463 -0.06497,0.128743 -0.04589,0.1083961 -0.04355,0.2324413 -0.01521,0.3466863 0.02834,0.1142451 0.08114,0.220725 0.134671,0.3255563 0.05353,0.1048313 0.108528,0.2098977 0.141784,0.3228102 0.03326,0.1129126 0.04366,0.2357714 0.0073,0.3477269 -0.03929,0.1210283 -0.129982,0.2212531 -0.163008,0.3441395 -0.01651,0.061443 -0.0172,0.1293339 0.01085,0.186442 0.01402,0.028554 0.03512,0.053848 0.06171,0.071319 0.02658,0.017471 0.05871,0.026861 0.09045,0.02473 0.01513,-0.00102 0.02998,-0.00457 0.04507,-0.00608 0.01509,-0.00152 0.03095,-8.373e-4 0.04445,0.00608 0.01457,0.00748 0.02498,0.021761 0.02984,0.037401 0.0049,0.01564 0.0046,0.032532 0.0015,0.048618 -0.0062,0.03217 -0.023,0.061337 -0.03132,0.093018 -0.0086,0.032715 -0.0078,0.067572 1.56e-4,0.1004389 0.008,0.032867 0.02307,0.063789 0.04234,0.091589 0.03854,0.055599 0.09289,0.098117 0.148194,0.1370839 0.0553,0.038967 0.112817,0.075614 0.161137,0.1229613 0.04832,0.047347 0.08753,0.1074095 0.09576,0.1745574 0.0055,0.044827 -0.003,0.090005 -0.0086,0.134818 -0.0056,0.044813 -0.0081,0.091766 0.0086,0.1337378 0.0119,0.029946 0.03296,0.05555 0.05706,0.076929 0.02411,0.021379 0.05134,0.038885 0.07838,0.056408 0.02704,0.017522 0.05415,0.035256 0.07792,0.057012 0.02377,0.021756 0.04425,0.047901 0.05519,0.078207 0.01023,0.028337 0.01175,0.059134 0.0099,0.089203 -0.0019,0.030069 -0.0071,0.059833 -0.0099,0.089834 -0.0112,0.121243 0.01727,0.242856 0.05663,0.35808 0.03936,0.115223 0.08975,0.226616 0.12475,0.343236 0.035,0.116619 0.0543,0.241063 0.02953,0.360278 -0.01238,0.05961 -0.03587,0.117237 -0.07149,0.166606 -0.03562,0.04937 -0.08361,0.09027 -0.139428,0.114579 -0.03101,0.01351 -0.06401,0.02182 -0.09556,0.03401 -0.03155,0.01219 -0.06248,0.02899 -0.08348,0.05551 -0.01905,0.02405 -0.02859,0.05465 -0.03105,0.08523 -0.0025,0.03058 0.0018,0.06133 0.0079,0.09139 0.01233,0.06011 0.03253,0.120821 0.02311,0.181456 -0.0078,0.05005 -0.03613,0.09607 -0.07555,0.127889 -0.03941,0.03181 -0.08931,0.04968 -0.139848,0.05315 -0.05053,0.0035 -0.101592,-0.0071 -0.147948,-0.0275 -0.04636,-0.02041 -0.08812,-0.0505 -0.124442,-0.0858 -0.07264,-0.07061 -0.122929,-0.160693 -0.168638,-0.251101 -0.04571,-0.09041 -0.08834,-0.183276 -0.149244,-0.264232 -0.09156,-0.121715 -0.221253,-0.21127 -0.361242,-0.271281 -0.13999,-0.06001 -0.290487,-0.09191 -0.441339,-0.112932 -0.301705,-0.04205 -0.614097,-0.04319 -0.898274,-0.152899 -0.183588,-0.07088 -0.347153,-0.184171 -0.510044,-0.294601 -0.162891,-0.11043 -0.32947,-0.22024 -0.516065,-0.282772 -0.0933,-0.03127 -0.191169,-0.05032 -0.289567,-0.0503 -0.0984,2.4e-5 -0.197385,0.01949 -0.286039,0.06218 -0.08865,0.04269 -0.166616,0.109128 -0.217926,0.193088 -0.05131,0.08396 -0.07494,0.185586 -0.06025,0.282881 0.0023,0.01498 0.0054,0.02986 0.0064,0.04498 0.001,0.01512 -2.42e-4,0.0307 -0.0064,0.04454 -0.007,0.01569 -0.01995,0.02819 -0.03471,0.03698 -0.01476,0.0088 -0.03131,0.01413 -0.04796,0.01836 -0.01665,0.0042 -0.03357,0.0074 -0.05004,0.01227 -0.01648,0.0049 -0.03266,0.0115 -0.04632,0.02191 -0.01344,0.01024 -0.02405,0.02387 -0.03229,0.03862 -0.0082,0.01475 -0.01423,0.03065 -0.01952,0.0467 -0.01059,0.0321 -0.01884,0.06568 -0.0377,0.09372 -0.0137,0.02037 -0.03259,0.03698 -0.05373,0.04946 -0.02114,0.01248 -0.0445,0.02092 -0.0684,0.02651 -0.0478,0.01119 -0.09739,0.01113 -0.146425,0.01354 -0.369597,0.0182 -0.715466,0.177853 -1.074222,0.268556 -0.436694,0.110408 -0.893264,0.118262 -1.342781,0.08952 -0.358464,-0.02292 -0.721602,-0.06842 -1.074222,0 -0.241759,0.04691 -0.47205,0.146436 -0.71615,0.179038 -0.35558,0.04749 -0.71895,-0.04973 -1.074224,0 -0.308978,0.04325 -0.592052,0.194746 -0.895186,0.268556 -0.466153,0.113503 -0.954107,0.03893 -1.432298,0 -1.049613,-0.08545 -2.11339,0.0057 -3.133151,0.268556 L 34.017076,12.08502 c -0.02553,0.01936 -0.05748,0.03011 -0.08952,0.03011 -0.03204,0 -0.06399,-0.01075 -0.08952,-0.03011 -0.03369,-0.02556 -0.05535,-0.06461 -0.08952,-0.08952 -0.02473,-0.01803 -0.05492,-0.02766 -0.08535,-0.03094 -0.03043,-0.0033 -0.06123,-4.98e-4 -0.09143,0.0045 -0.06039,0.01003 -0.120125,0.029 -0.181291,0.02643 -0.05834,-0.0025 -0.114394,-0.02457 -0.164737,-0.05415 -0.05034,-0.02958 -0.09584,-0.06658 -0.142318,-0.101914 -0.04648,-0.03534 -0.09464,-0.06942 -0.14845,-0.09208 -0.05381,-0.02266 -0.114187,-0.03334 -0.171127,-0.02042 -0.04845,0.011 -0.09203,0.03832 -0.140572,0.0489 -0.02427,0.0053 -0.05,0.0062 -0.07364,-0.0014 -0.01182,-0.0038 -0.02302,-0.0097 -0.03248,-0.01776 -0.0095,-0.008 -0.01717,-0.01823 -0.02186,-0.02973 -0.0057,-0.014 -0.0068,-0.02949 -0.0059,-0.04457 9.39e-4,-0.01508 0.0038,-0.02997 0.0059,-0.04495 0.01025,-0.07574 -0.0022,-0.154045 -0.03291,-0.224031 -0.03072,-0.06998 -0.07941,-0.131645 -0.138638,-0.179954 -0.11846,-0.09662 -0.276071,-0.137592 -0.428837,-0.132097 -0.152766,0.0055 -0.301335,0.05453 -0.438642,0.121716 -0.137307,0.06719 -0.264835,0.152425 -0.393266,0.235329 -0.550588,0.355413 -1.136384,0.676626 -1.776624,0.816474 -0.32012,0.06992 -0.651861,0.09324 -0.976824,0.05123 -0.324963,-0.04202 -0.64308,-0.150497 -0.916818,-0.33059 -0.0847,-0.05572 -0.165057,-0.118131 -0.252429,-0.169564 -0.08737,-0.05143 -0.18353,-0.09211 -0.284683,-0.09899 -0.05979,-0.0041 -0.119662,0.0037 -0.179394,0.0087 -0.05973,0.0049 -0.12078,0.0068 -0.17868,-0.0087 -0.06469,-0.0173 -0.121551,-0.05518 -0.179037,-0.08952 -0.277381,-0.165721 -0.593395,-0.259057 -0.912893,-0.307266 -0.319499,-0.04821 -0.643888,-0.05271 -0.966998,-0.05081 -0.179042,0.0011 -0.358113,0.0041 -0.537112,0 -0.508055,-0.0115 -1.019892,-0.07952 -1.521817,0 -0.209594,0.03321 -0.414558,0.09182 -0.624284,0.124178 -0.209727,0.03236 -0.429346,0.03731 -0.628977,-0.03466 -0.06291,-0.02268 -0.123144,-0.0528 -0.179037,-0.08952 -0.118287,-0.03393 -0.237738,-0.06379 -0.358074,-0.08952 -0.501102,-0.107146 -1.029166,-0.140989 -1.521817,0 -0.30018,0.08591 -0.584698,0.235629 -0.895187,0.268556 -0.237601,0.0252 -0.478032,-0.01973 -0.716149,0 -0.424031,0.03514 -0.800994,0.269099 -1.193521,0.433294 -0.196263,0.0821 -0.402023,0.148061 -0.614328,0.161702 -0.212305,0.01364 -0.432817,-0.02839 -0.609154,-0.147403 -0.08947,-0.06039 -0.167845,-0.140199 -0.268556,-0.179037 -0.08544,-0.03295 -0.183117,-0.03295 -0.268556,0 -0.114992,-0.06793 -0.234739,-0.1278 -0.358074,-0.179038 -0.75749,-0.31469 -1.621506,-0.289535 -2.417003,-0.08952 -0.340361,0.08558 -0.672975,0.20183 -1.016696,0.272718 -0.343721,0.07089 -0.705543,0.09488 -1.042233,-0.0042 -0.090584,-0.02665 -0.1794291,-0.06216 -0.2732183,-0.07307 -0.046895,-0.0055 -0.094874,-0.0046 -0.1407226,0.0067 -0.045849,0.01126 -0.089556,0.03325 -0.1231707,0.0664 -0.015095,0.01489 -0.028002,0.03181 -0.04193,0.04779 -0.013927,0.01598 -0.029157,0.03125 -0.047589,0.04173 -0.019783,0.01124 -0.042565,0.0165 -0.065284,0.01776 -0.02272,0.0013 -0.045485,-0.0013 -0.067942,-0.005 -0.044914,-0.0073 -0.090248,-0.01897 -0.1353297,-0.01275 -0.03332,0.0046 -0.064613,0.01879 -0.09368,0.03572 -0.029068,0.01693 -0.056396,0.03669 -0.085357,0.0538 -0.098092,0.05794 -0.2127311,0.08375 -0.3265623,0.08837 -0.1138311,0.0046 -0.2275243,-0.0111 -0.3396029,-0.03152 -0.2241571,-0.04085 -0.4530619,-0.100885 -0.6766143,-0.05684 -0.092732,0.01827 -0.1809795,0.05398 -0.268556,0.08952 -0.4706689,0.191021 -0.9493866,0.385169 -1.4551055,0.432776 -0.2528595,0.0238 -0.5108407,0.0099 -0.7553504,-0.05878 -0.2445098,-0.0687 -0.4753101,-0.193648 -0.6541402,-0.373993 -0.02972,-0.02997 -0.058008,-0.06144 -0.089519,-0.08952 -0.08727,-0.07778 -0.1974734,-0.127443 -0.3118269,-0.151718 -0.1143534,-0.02428 -0.2329225,-0.02399 -0.3489632,-0.0098 -0.2320814,0.02833 -0.4537326,0.110921 -0.6819893,0.161547 -0.5372305,0.119155 -1.113364,0.05514 -1.6113353,-0.179037 z"
       id="path2" />
    <path
       d="m 28.905553,18.574157 q 0.485332,-0.104 1.247997,-0.104 1.126665,0 2.253329,0.190666 1.143998,0.190667 1.438664,0.467999 0.06933,0.052 0.06933,0.121333 0,0.121334 -0.727998,0.849332 -0.710666,0.710665 -0.710666,0.849332 0,0.052 0.01733,0.06933 0.03467,0.03467 0.03467,0.06933 0,0.03467 -0.104,0.03467 -0.08667,0 -0.901331,-0.138667 -0.814665,-0.138666 -1.334664,-0.138666 -0.398666,0 -0.658666,0.06933 -0.589332,0.138667 -0.589332,0.329333 0,0.138666 0.06933,0.294666 0.104,0.277333 0.294666,0.363999 0.208,0.08667 0.745332,0.104 0.398666,0.01733 1.143998,0.208 0.745332,0.190666 1.022665,0.363999 1.178664,0.693332 1.47333,1.161331 0.294666,0.467999 0.312,1.663997 v 0.329333 q 0,0.502665 -0.277333,0.987998 -0.467999,0.779998 -0.849332,1.091998 -0.381332,0.311999 -0.935998,0.398665 -0.467999,0.06933 -0.831998,0.242667 -0.467999,0.190666 -1.247998,0.190666 -0.953331,0 -1.871996,-0.26 l -0.519999,-0.155999 0.03467,-0.658666 q 0.06933,-0.658665 0.104,-0.693332 0.052,-0.052 0.052,-0.450665 0,-0.398666 0.121333,-0.450666 h 0.06933 q 0.329333,0 1.005332,0.104 0.658665,0.08667 0.918665,0.08667 0.103999,0 0.103999,-0.01733 0.08667,-0.26 0.225333,-0.26 0.08667,0 0.208,0.052 0.207999,0.06933 0.294666,0.06933 0.052,0 0.363999,-0.06933 0.398666,-0.121333 0.502666,-0.207999 0.121333,-0.104 0.121333,-0.364 0,-0.294666 -0.277333,-0.519999 -0.363999,-0.294666 -1.958663,-0.502665 -0.762665,-0.104 -1.091998,-0.208 -0.311999,-0.121333 -0.623998,-0.398666 -1.057332,-0.953331 -1.057332,-2.547995 0,-1.247998 0.641333,-1.802663 0.693331,-0.589332 1.68133,-0.814665 z m 9.203979,0.831998 q 0.052,-0.052 0.104,-0.052 0.242666,0 0.242666,0.693332 0,0.225333 -0.052,0.433333 -0.121333,0.398666 -0.121333,1.230664 0,0.779999 0.242666,1.490664 0.208,0.606665 0.208,1.005331 0,0.346666 -0.01733,0.589332 -0.03467,0.623999 -0.03467,0.658666 0,0.329332 0.138666,0.415999 0.121333,0.121333 0.658666,0.208 0.537332,0.08667 1.005331,0.08667 0.208,0 0.381333,-0.03467 0.329332,-0.08667 0.433332,-0.190666 0.121333,-0.121333 0.121333,-0.415999 0,-0.26 -0.01733,-0.433333 -0.03467,-0.346666 -0.173333,-1.230664 -0.138667,-0.883998 -0.138667,-1.403997 0,-0.589332 0.121334,-1.715997 0.121333,-1.126664 0.207999,-1.265331 0.01733,-0.052 0.104,-0.052 0.104,0 1.039998,0.312 l 1.074665,0.363999 -0.01733,0.346666 q 0,0.052 -0.03467,0.554666 -0.01733,0.485332 -0.052,0.814665 -0.052,0.519999 -0.052,0.831998 0,0.364 0.06933,0.589332 0.26,0.987998 0.26,3.41466 0,0.987999 -0.08667,0.987999 -0.03467,0 -0.052,-0.06933 l -0.08667,-0.207999 -0.294666,0.225333 q -0.346666,0.242666 -0.381333,0.242666 -0.052,0 -0.381333,0.225333 -0.693332,0.467999 -2.062662,0.467999 -0.433333,0 -0.675999,-0.01733 -1.265331,-0.06933 -1.57733,-0.156 -0.693332,-0.190666 -1.213331,-0.883998 -0.779999,-1.074665 -0.779999,-1.99333 0,-0.277333 0.052,-0.589332 0.03467,-0.415999 0.03467,-0.519999 0,-0.312 -0.121333,-0.693332 -0.346666,-1.057331 -0.346666,-2.027996 0,-0.363999 0.01733,-0.571999 0.06933,-0.970665 0.121333,-1.126665 0.06933,-0.155999 0.381333,-0.155999 0.329332,0 0.519999,-0.190667 0.155999,-0.155999 0.485332,-0.155999 h 0.190666 0.208 q 0.311999,0 0.346666,-0.03467 z m 12.462638,2.391996 q -0.173333,-0.08667 -0.814665,-0.156 -0.121333,-0.01733 -0.329333,-0.01733 -0.329333,0 -0.745332,0.173333 l -0.502666,0.207999 v 2.287996 q 0.01733,2.287995 0.138667,2.374662 0.121333,0.08667 0.935998,0.08667 0.831998,0 1.126665,-0.173333 0.311999,-0.173333 0.641332,-0.814665 0.329332,-0.658665 0.329332,-1.074664 0,-0.052 -0.01733,-0.208 0,-0.156 0,-0.242666 -0.03467,-0.849332 -0.259999,-1.57733 -0.225333,-0.727999 -0.502666,-0.866665 z m -4.99199,-4.905324 q 0.06933,-0.415999 0.173333,-0.415999 0.121333,0 1.091997,0.329332 0.987998,0.312 1.057332,0.381333 0.03467,0.03467 0.138666,0.987998 0.121333,0.953331 0.138666,0.987998 0.06933,0.08667 0.485333,0.03467 0.08667,-0.01733 0.363999,-0.01733 0.502666,0 0.987998,0.052 2.409329,0.26 3.033328,1.975996 0.242666,0.658666 0.346666,0.814665 0.329332,0.537333 0.329332,2.513329 0,0.641332 -0.06933,0.970665 -0.121333,0.693332 -0.693332,1.698663 -0.571999,1.022665 -0.970665,1.317331 -0.415999,0.294666 -1.143997,0.415999 -0.710666,0.121333 -2.235996,0.156 -0.571999,0.01733 -1.265331,0.01733 -0.693332,0 -0.935998,-0.156 -0.277333,-0.190666 -0.450666,-0.554665 -0.121333,-0.242666 -0.156,-0.918665 -0.01733,-0.658666 -0.052,-3.899993 -0.01733,-4.870657 -0.173333,-5.875988 -0.03467,-0.208 -0.03467,-0.415999 0,-0.190667 0.03467,-0.398666 z m 13.103986,2.547995 q 1.039998,0 1.091998,-0.052 0.052,-0.052 0.294666,-0.052 0.467999,0 0.883999,0.138666 1.52533,0.537333 1.819996,1.594664 0.121333,0.433332 0.311999,0.987998 0.294667,0.849332 0.485333,3.449327 0.06933,1.039998 0.06933,1.178664 0,0.311999 -0.06933,0.589332 -0.104,0.415999 -0.104,0.849332 0,0.606665 -0.346666,0.953331 -0.329333,0.346666 -0.918665,0.346666 -0.693332,0 -1.005331,-0.502665 -0.104,-0.138667 -0.104,-0.918665 0,-0.866665 0.121333,-1.161331 0.03467,-0.104 0.03467,-0.346666 0,-0.710666 -0.173333,-2.027996 -0.156,-1.334664 -0.329333,-1.871997 l -0.225333,-0.727998 q -0.381333,0 -1.161331,-0.01733 -0.762665,-0.01733 -1.143998,-0.01733 l -0.190666,0.242666 q -0.173333,0.225333 -0.173333,0.519999 0,0.208 0.01733,0.364 0.06933,0.658665 0.156,1.074664 0.294666,1.542664 0.294666,2.027996 0,0.294666 -0.08667,0.849332 -0.138667,0.970665 -0.26,1.091998 -0.121333,0.121333 -1.161331,0.259999 -0.641332,0.104 -0.883998,0.156 l -0.26,0.052 0.052,-0.658665 q 0.01733,-0.242667 0.06933,-0.571999 0.052,-0.312 0.06933,-0.537333 0.03467,-0.242666 0.03467,-0.467999 0,-0.363999 -0.06933,-0.762665 -0.294666,-1.819996 -0.294666,-3.275994 v -0.450665 l 0.03467,-1.195998 0.364,-0.104 q 0.415999,-0.104 0.675998,-0.363999 0.398666,-0.398666 0.762666,-0.519999 0.363999,-0.121333 1.091997,-0.121333 z m 6.794651,1.161331 -0.052,-1.802663 h 0.519999 q 0.935998,0 0.935998,0.277333 0,0.173332 0.121334,0.173332 0.103999,0 0.363999,0.190667 0.173333,0.155999 0.415999,0.155999 0.138666,0 0.953332,-0.08667 1.039997,-0.08667 1.438663,-0.08667 0.675999,0.03467 1.213331,0.537333 l 0.277333,0.259999 0.433333,-0.311999 q 0.727998,-0.467999 1.386664,-0.467999 0.190666,0 0.294666,0.01733 0.138666,0.01733 0.658665,0.06933 0.519999,0.052 0.710665,0.06933 0.987998,0.08667 1.542664,0.381333 0.554666,0.277333 0.953332,0.918665 0.398665,0.623999 0.502665,0.953331 0.121333,0.329333 0.121333,0.953332 0,0.173333 -0.03467,1.039998 v 0.173333 q 0,0.502666 0.08667,0.849332 0.06933,0.277332 0.06933,0.554665 0,0.312 -0.06933,0.814665 -0.121333,0.901332 -0.155999,1.542664 -0.06933,0.623999 -0.104,0.693332 h -0.052 q -0.26,0 -1.178665,-0.190666 -0.918664,-0.173333 -1.039998,-0.242667 -0.06933,-0.01733 -0.06933,-0.277332 0,-0.312 0.173333,-1.317331 0.121333,-0.589332 0.121333,-0.866665 0,-0.104 -0.03467,-0.242666 -0.08667,-0.208 -0.121333,-1.455997 -0.01733,-1.265331 -0.173333,-1.542664 -0.156,-0.346666 -0.502666,-0.346666 -0.01733,0 -0.08667,0.01733 -0.052,0 -0.08667,0 -0.190666,0 -0.797332,-0.08667 -0.156,-0.01733 -0.398666,-0.01733 -0.641332,0 -0.814665,0.294666 -0.01733,0.01733 -0.01733,0.121334 0,0.363999 0.104,1.022664 0.138666,1.005332 0.138666,2.859995 0,2.183995 -0.156,2.235995 -0.121333,0.03467 -0.121333,0.381333 v 0.346666 h -0.866665 q -0.918665,0 -1.091998,-0.08667 -0.173333,-0.06933 -0.259999,-0.502665 -0.06933,-0.225333 -0.06933,-0.467999 0,-0.104 0.01733,-0.121333 0.138666,-0.190667 0.138666,-2.894662 0,-2.131995 -0.571998,-2.825327 l -0.312,-0.398666 -0.831998,0.03467 q -0.935998,0.03467 -1.074665,0.242667 -0.138666,0.190666 -0.190666,1.57733 -0.03467,0.762665 -0.03467,1.195997 0,0.675999 0.06933,1.854664 0.06933,0.710665 0.06933,1.31733 0,0.225333 -0.01733,0.242667 -0.03467,0.01733 -0.06933,0.01733 -0.294666,0 -1.213331,-0.138667 -0.901331,-0.138666 -1.005331,-0.207999 -0.242666,-0.156 -0.242666,-2.998661 0,-0.502666 0.03467,-1.195998 0.06933,-1.109331 0.06933,-2.287995 0,-0.641332 -0.01733,-0.918665 z m 14.854622,-2.998661 -0.06933,-0.866665 h 2.426662 v 0.658665 q 0,0.658666 -0.155999,0.901332 l -0.173333,0.277333 -0.970665,-0.03467 -0.987998,-0.03467 z m 0.104,2.270662 q 0.08667,0 1.039998,0.138667 0.970665,0.121333 1.057332,0.121333 0.06933,0 0.06933,0.710665 v 0.26 0.519999 q 0,0.710665 0.03467,1.819996 0.03467,0.831998 0.03467,1.109331 0,0.571999 -0.052,0.901332 -0.06933,0.519999 -0.06933,0.849331 0,0.381333 0.052,0.918665 0.06933,0.901332 0.06933,1.074665 0,0.121333 -0.01733,0.138666 h -0.03467 q -0.190666,0 -1.143998,-0.190666 -0.641332,-0.138666 -1.005331,-0.138666 -0.104,0 -0.104,0.01733 0,0.08667 -0.052,0.03467 -0.156,-0.156 -0.156,-1.94133 0,-0.710665 0.052,-1.109331 0.06933,-0.433333 0.06933,-1.039998 0,-0.485333 -0.01733,-0.727999 -0.08667,-1.36933 -0.08667,-1.941329 v -0.658666 l 0.01733,-0.866665 z m 4.471996,-3.20666 q 0.156,-0.277333 0.277333,-0.277333 0.06933,0 0.121333,0.08667 0.052,0.08667 0.987998,0.08667 h 0.935998 v 0.727999 q 0,1.36933 0.363999,1.698663 0.173333,0.156 0.346666,0.156 0.156,0 0.433333,-0.138667 0.207999,-0.103999 0.519999,-0.103999 0.554665,0 0.901331,0.242666 0.554666,0.381332 0.554666,1.386664 0,0.467999 -0.08667,0.571999 -0.06933,0.103999 -0.433333,0.103999 -0.242666,0 -0.589332,0.190667 -0.312,0.155999 -0.814665,0.155999 h -0.329333 -0.329333 q -0.450665,0 -0.606665,0.190667 -0.104,0.121333 -0.104,0.346666 0,0.01733 0.06933,0.710665 0.052,0.311999 0.138667,2.027996 0.03467,1.161331 0.104,1.369331 0.08667,0.190666 0.571998,0.190666 h 0.329333 0.831998 v 2.409329 h -0.918664 q -0.883999,0 -1.334664,-0.06933 -0.623999,-0.103999 -1.091998,-0.623998 -0.467999,-0.502666 -0.727999,-1.334664 -0.08667,-0.329333 -0.208,-1.78533 -0.103999,-1.473331 -0.121333,-2.877328 -0.03467,-0.762665 -0.121333,-0.831998 -0.121333,-0.06933 -0.121333,-1.230665 v -1.161331 h 0.26 q 0.190666,0 0.225333,-0.03467 0.03467,-0.052 0,-0.26 -0.104,-0.485332 -0.138667,-0.589332 -0.06933,-0.26 -0.06933,-0.589332 0,-0.467999 0.173333,-0.745332 z m 13.883968,2.738661 q 0.052,-0.052 0.104,-0.052 0.242666,0 0.242666,0.693332 0,0.225333 -0.052,0.433333 -0.121333,0.398666 -0.121333,1.230664 0,0.779999 0.242666,1.490664 0.208,0.606665 0.208,1.005331 0,0.346666 -0.01733,0.589332 -0.03467,0.623999 -0.03467,0.658666 0,0.329332 0.138667,0.415999 0.121333,0.121333 0.658661,0.208 0.53734,0.08667 1.00534,0.08667 0.20799,0 0.38133,-0.03467 0.32933,-0.08667 0.43333,-0.190666 0.12133,-0.121333 0.12133,-0.415999 0,-0.26 -0.0173,-0.433333 -0.0347,-0.346666 -0.17333,-1.230664 -0.13867,-0.883998 -0.13867,-1.403997 0,-0.589332 0.12133,-1.715997 0.12134,-1.126664 0.208,-1.265331 0.0173,-0.052 0.104,-0.052 0.104,0 1.04,0.312 l 1.07467,0.363999 -0.0173,0.346666 q 0,0.052 -0.0347,0.554666 -0.0173,0.485332 -0.052,0.814665 -0.052,0.519999 -0.052,0.831998 0,0.364 0.0693,0.589332 0.26,0.987998 0.26,3.41466 0,0.987999 -0.0867,0.987999 -0.0347,0 -0.052,-0.06933 l -0.0867,-0.207999 -0.29467,0.225333 q -0.34667,0.242666 -0.38133,0.242666 -0.052,0 -0.38134,0.225333 -0.69333,0.467999 -2.06266,0.467999 -0.43333,0 -0.676,-0.01733 -1.265328,-0.06933 -1.577327,-0.156 -0.693332,-0.190666 -1.213331,-0.883998 -0.779998,-1.074665 -0.779998,-1.99333 0,-0.277333 0.052,-0.589332 0.03467,-0.415999 0.03467,-0.519999 0,-0.312 -0.121333,-0.693332 -0.346666,-1.057331 -0.346666,-2.027996 0,-0.363999 0.01733,-0.571999 0.06933,-0.970665 0.121333,-1.126665 0.06933,-0.155999 0.381333,-0.155999 0.329333,0 0.519999,-0.190667 0.156,-0.155999 0.485332,-0.155999 h 0.190667 0.207999 q 0.312,0 0.346666,-0.03467 z m 11.387977,-0.346666 q 0.52,-0.138666 0.69333,-0.138666 0.17333,0 0.22533,0.138666 0.0693,0.138667 0.156,0.554666 0,0.052 0,0.08667 0.0173,0.03467 0.0173,0.08667 0.0173,0.052 0.0347,0.104 0.19067,1.005331 0.24267,1.143997 0.0173,0.06933 -0.0693,0.121333 -0.0867,0.052 -0.34666,0.121334 -0.52,0.138666 -1.144,0.571998 -0.832,0.537333 -1.05733,0.623999 -0.34667,0.156 -0.34667,0.294666 0,0.06933 0.0173,0.121333 0.0867,0.450666 0.17333,3.310661 l 0.0693,2.253329 h -2.44399 l -0.0173,-1.542664 q -0.0347,-2.391995 -0.10399,-3.46666 -0.0173,-0.242666 -0.0173,-0.779998 0,-0.554666 0.052,-0.953332 0.052,-0.363999 0.052,-0.623999 0,-0.311999 -0.0693,-0.571999 -0.052,-0.225333 -0.052,-0.346666 0,-0.190666 0.19066,-0.311999 0.208,-0.121333 0.90134,-0.363999 0.91866,-0.329333 1.03999,-0.329333 0.13867,0 0.208,0.277333 0.0693,0.259999 0.19067,0.259999 0.104,0 0.468,-0.259999 0.29467,-0.225333 0.936,-0.381333 z m 12.53196,2.738662 q -0.17333,-0.08667 -0.81466,-0.156 -0.12134,-0.01733 -0.32934,-0.01733 -0.32933,0 -0.74533,0.173333 l -0.50267,0.207999 v 2.287996 q 0.0173,2.287995 0.13867,2.374662 0.12133,0.08667 0.936,0.08667 0.832,0 1.12666,-0.173333 0.312,-0.173333 0.64134,-0.814665 0.32933,-0.658665 0.32933,-1.074664 0,-0.052 -0.0173,-0.208 0,-0.156 0,-0.242666 -0.0347,-0.849332 -0.26,-1.57733 -0.22534,-0.727999 -0.50267,-0.866665 z m -4.99199,-4.905324 q 0.0693,-0.415999 0.17333,-0.415999 0.12134,0 1.092,0.329332 0.988,0.312 1.05733,0.381333 0.0347,0.03467 0.13867,0.987998 0.12133,0.953331 0.13866,0.987998 0.0693,0.08667 0.48534,0.03467 0.0867,-0.01733 0.364,-0.01733 0.50266,0 0.98799,0.052 2.40933,0.26 3.03333,1.975996 0.24267,0.658666 0.34667,0.814665 0.32933,0.537333 0.32933,2.513329 0,0.641332 -0.0693,0.970665 -0.12134,0.693332 -0.69333,1.698663 -0.572,1.022665 -0.97067,1.317331 -0.416,0.294666 -1.144,0.415999 -0.71066,0.121333 -2.23599,0.156 -0.572,0.01733 -1.26533,0.01733 -0.69334,0 -0.936,-0.156 -0.27733,-0.190666 -0.45067,-0.554665 -0.12133,-0.242666 -0.156,-0.918665 -0.0173,-0.658666 -0.052,-3.899993 -0.0173,-4.870657 -0.17333,-5.875988 -0.0347,-0.208 -0.0347,-0.415999 0,-0.190667 0.0347,-0.398666 z m 12.25466,2.513328 q 0.052,-0.052 0.10399,-0.052 0.24267,0 0.24267,0.693332 0,0.225333 -0.052,0.433333 -0.12133,0.398666 -0.12133,1.230664 0,0.779999 0.24266,1.490664 0.208,0.606665 0.208,1.005331 0,0.346666 -0.0173,0.589332 -0.0347,0.623999 -0.0347,0.658666 0,0.329332 0.13867,0.415999 0.12133,0.121333 0.65867,0.208 0.53733,0.08667 1.00533,0.08667 0.208,0 0.38133,-0.03467 0.32933,-0.08667 0.43333,-0.190666 0.12134,-0.121333 0.12134,-0.415999 0,-0.26 -0.0173,-0.433333 -0.0347,-0.346666 -0.17333,-1.230664 -0.13867,-0.883998 -0.13867,-1.403997 0,-0.589332 0.12134,-1.715997 0.12133,-1.126664 0.208,-1.265331 0.0173,-0.052 0.104,-0.052 0.10399,0 1.03999,0.312 l 1.07467,0.363999 -0.0173,0.346666 q 0,0.052 -0.0347,0.554666 -0.0173,0.485332 -0.052,0.814665 -0.052,0.519999 -0.052,0.831998 0,0.364 0.0693,0.589332 0.26,0.987998 0.26,3.41466 0,0.987999 -0.0867,0.987999 -0.0347,0 -0.052,-0.06933 l -0.0867,-0.207999 -0.29467,0.225333 q -0.34666,0.242666 -0.38133,0.242666 -0.052,0 -0.38133,0.225333 -0.69334,0.467999 -2.06267,0.467999 -0.43333,0 -0.67599,-0.01733 -1.26534,-0.06933 -1.57734,-0.156 -0.69333,-0.190666 -1.21333,-0.883998 -0.77999,-1.074665 -0.77999,-1.99333 0,-0.277333 0.052,-0.589332 0.0347,-0.415999 0.0347,-0.519999 0,-0.312 -0.12133,-0.693332 -0.34667,-1.057331 -0.34667,-2.027996 0,-0.363999 0.0173,-0.571999 0.0693,-0.970665 0.12133,-1.126665 0.0693,-0.155999 0.38133,-0.155999 0.32933,0 0.52,-0.190667 0.156,-0.155999 0.48533,-0.155999 h 0.19067 0.208 q 0.312,0 0.34667,-0.03467 z m 9.82797,-0.831998 q 0.48533,-0.104 1.248,-0.104 1.12666,0 2.25333,0.190666 1.144,0.190667 1.43866,0.467999 0.0693,0.052 0.0693,0.121333 0,0.121334 -0.728,0.849332 -0.71067,0.710665 -0.71067,0.849332 0,0.052 0.0173,0.06933 0.0347,0.03467 0.0347,0.06933 0,0.03467 -0.104,0.03467 -0.0867,0 -0.90133,-0.138667 -0.81466,-0.138666 -1.33466,-0.138666 -0.39867,0 -0.65867,0.06933 -0.58933,0.138667 -0.58933,0.329333 0,0.138666 0.0693,0.294666 0.104,0.277333 0.29467,0.363999 0.208,0.08667 0.74533,0.104 0.39867,0.01733 1.144,0.208 0.74533,0.190666 1.02266,0.363999 1.17867,0.693332 1.47333,1.161331 0.29467,0.467999 0.312,1.663997 v 0.329333 q 0,0.502665 -0.27733,0.987998 -0.468,0.779998 -0.84933,1.091998 -0.38133,0.311999 -0.936,0.398665 -0.468,0.06933 -0.832,0.242667 -0.468,0.190666 -1.248,0.190666 -0.95333,0 -1.87199,-0.26 l -0.52,-0.155999 0.0347,-0.658666 q 0.0693,-0.658665 0.10399,-0.693332 0.052,-0.052 0.052,-0.450665 0,-0.398666 0.12134,-0.450666 h 0.0693 q 0.32933,0 1.00533,0.104 0.65867,0.08667 0.91867,0.08667 0.104,0 0.104,-0.01733 0.0867,-0.26 0.22533,-0.26 0.0867,0 0.208,0.052 0.208,0.06933 0.29467,0.06933 0.052,0 0.364,-0.06933 0.39866,-0.121333 0.50266,-0.207999 0.12133,-0.104 0.12133,-0.364 0,-0.294666 -0.27733,-0.519999 -0.364,-0.294666 -1.95866,-0.502665 -0.76267,-0.104 -1.092,-0.208 -0.312,-0.121333 -0.624,-0.398666 -1.05733,-0.953331 -1.05733,-2.547995 0,-1.247998 0.64133,-1.802663 0.69333,-0.589332 1.68133,-0.814665 z m 10.05332,0.866665 q 1.03999,0 1.09199,-0.052 0.052,-0.052 0.29467,-0.052 0.468,0 0.884,0.138666 1.52533,0.537333 1.82,1.594664 0.12133,0.433332 0.31199,0.987998 0.29467,0.849332 0.48534,3.449327 0.0693,1.039998 0.0693,1.178664 0,0.311999 -0.0693,0.589332 -0.104,0.415999 -0.104,0.849332 0,0.606665 -0.34667,0.953331 -0.32933,0.346666 -0.91866,0.346666 -0.69334,0 -1.00534,-0.502665 -0.10399,-0.138667 -0.10399,-0.918665 0,-0.866665 0.12133,-1.161331 0.0347,-0.104 0.0347,-0.346666 0,-0.710666 -0.17333,-2.027996 -0.156,-1.334664 -0.32933,-1.871997 l -0.22533,-0.727998 q -0.38134,0 -1.16133,-0.01733 -0.76267,-0.01733 -1.144,-0.01733 l -0.19067,0.242666 q -0.17333,0.225333 -0.17333,0.519999 0,0.208 0.0173,0.364 0.0693,0.658665 0.156,1.074664 0.29467,1.542664 0.29467,2.027996 0,0.294666 -0.0867,0.849332 -0.13867,0.970665 -0.26,1.091998 -0.12133,0.121333 -1.16133,0.259999 -0.64133,0.104 -0.884,0.156 l -0.26,0.052 0.052,-0.658665 q 0.0173,-0.242667 0.0693,-0.571999 0.052,-0.312 0.0693,-0.537333 0.0347,-0.242666 0.0347,-0.467999 0,-0.363999 -0.0693,-0.762665 -0.29466,-1.819996 -0.29466,-3.275994 v -0.450665 l 0.0347,-1.195998 0.364,-0.104 q 0.416,-0.104 0.676,-0.363999 0.39867,-0.398666 0.76267,-0.519999 0.36399,-0.121333 1.09199,-0.121333 z m 6.8813,-1.83733 -0.0693,-0.866665 h 2.42666 v 0.658665 q 0,0.658666 -0.156,0.901332 l -0.17333,0.277333 -0.97067,-0.03467 -0.98799,-0.03467 z m 0.104,2.270662 q 0.0867,0 1.04,0.138667 0.97066,0.121333 1.05733,0.121333 0.0693,0 0.0693,0.710665 v 0.26 0.519999 q 0,0.710665 0.0347,1.819996 0.0347,0.831998 0.0347,1.109331 0,0.571999 -0.052,0.901332 -0.0693,0.519999 -0.0693,0.849331 0,0.381333 0.052,0.918665 0.0693,0.901332 0.0693,1.074665 0,0.121333 -0.0173,0.138666 h -0.0347 q -0.19067,0 -1.144,-0.190666 -0.64133,-0.138666 -1.00533,-0.138666 -0.104,0 -0.104,0.01733 0,0.08667 -0.052,0.03467 -0.156,-0.156 -0.156,-1.94133 0,-0.710665 0.052,-1.109331 0.0693,-0.433333 0.0693,-1.039998 0,-0.485333 -0.0173,-0.727999 -0.0867,-1.36933 -0.0867,-1.941329 v -0.658666 l 0.0173,-0.866665 z m 6.37867,-1.299997 q 0.48533,-0.104 1.248,-0.104 1.12666,0 2.25333,0.190666 1.144,0.190667 1.43866,0.467999 0.0693,0.052 0.0693,0.121333 0,0.121334 -0.728,0.849332 -0.71067,0.710665 -0.71067,0.849332 0,0.052 0.0173,0.06933 0.0347,0.03467 0.0347,0.06933 0,0.03467 -0.104,0.03467 -0.0867,0 -0.90133,-0.138667 -0.81466,-0.138666 -1.33466,-0.138666 -0.39867,0 -0.65867,0.06933 -0.58933,0.138667 -0.58933,0.329333 0,0.138666 0.0693,0.294666 0.104,0.277333 0.29467,0.363999 0.208,0.08667 0.74533,0.104 0.39867,0.01733 1.144,0.208 0.74533,0.190666 1.02266,0.363999 1.17867,0.693332 1.47333,1.161331 0.29467,0.467999 0.312,1.663997 v 0.329333 q 0,0.502665 -0.27733,0.987998 -0.468,0.779998 -0.84933,1.091998 -0.38133,0.311999 -0.936,0.398665 -0.468,0.06933 -0.832,0.242667 -0.468,0.190666 -1.248,0.190666 -0.95333,0 -1.87199,-0.26 l -0.52,-0.155999 0.0347,-0.658666 q 0.0693,-0.658665 0.104,-0.693332 0.052,-0.052 0.052,-0.450665 0,-0.398666 0.12134,-0.450666 h 0.0693 q 0.32933,0 1.00533,0.104 0.65867,0.08667 0.91867,0.08667 0.104,0 0.104,-0.01733 0.0867,-0.26 0.22533,-0.26 0.0867,0 0.208,0.052 0.208,0.06933 0.29467,0.06933 0.052,0 0.36399,-0.06933 0.39867,-0.121333 0.50267,-0.207999 0.12133,-0.104 0.12133,-0.364 0,-0.294666 -0.27733,-0.519999 -0.364,-0.294666 -1.95866,-0.502665 -0.76267,-0.104 -1.092,-0.208 -0.312,-0.121333 -0.624,-0.398666 -1.05733,-0.953331 -1.05733,-2.547995 0,-1.247998 0.64133,-1.802663 0.69333,-0.589332 1.68133,-0.814665 z"
       id="text3"
       style="font-size:17.3333px;line-height:1.25;font-family:Titilliumweb_semibold;-inkscape-font-specification:Titilliumweb_semibold;text-align:center;text-anchor:middle;white-space:pre;fill:#ffffff;stroke-width:1.3"
       transform="scale(0.26458333)"
       aria-label="subnmit ur busnis" />
  </g>
</svg>
