<?xml version="1.0" encoding="UTF-8" standalone="no"?>
<!-- Created with Inkscape (http://www.inkscape.org/) -->

<svg
   width="199"
   height="61"
   viewBox="0 0 52.652082 16.139583"
   version="1.1"
   id="svg1"
   inkscape:version="1.3.2 (091e20e, 2023-11-25, custom)"
   sodipodi:docname="sbumit.svg"
   xmlns:inkscape="http://www.inkscape.org/namespaces/inkscape"
   xmlns:sodipodi="http://sodipodi.sourceforge.net/DTD/sodipodi-0.dtd"
   xmlns="http://www.w3.org/2000/svg"
   xmlns:svg="http://www.w3.org/2000/svg">
  <sodipodi:namedview
     id="namedview1"
     pagecolor="#ffffff"
     bordercolor="#000000"
     borderopacity="0.25"
     inkscape:showpageshadow="2"
     inkscape:pageopacity="0.0"
     inkscape:pagecheckerboard="0"
     inkscape:deskcolor="#d1d1d1"
     inkscape:document-units="mm"
     inkscape:zoom="2.955623"
     inkscape:cx="100.82477"
     inkscape:cy="64.791755"
     inkscape:window-width="2560"
     inkscape:window-height="1369"
     inkscape:window-x="-8"
     inkscape:window-y="-8"
     inkscape:window-maximized="1"
     inkscape:current-layer="layer1" />
  <defs
     id="defs1"><filter id="lf" x="0" y="0" width="100%" height="100%"><feComponentTransfer><feFuncR type="linear" slope="1.4"/><feFuncG type="linear" slope="1.4"/><feFuncB type="linear" slope="1.4"/></feComponentTransfer></filter>
    <rect
       x="27.40539"
       y="32.480462"
       width="158.00391"
       height="26.052037"
       id="rect2" />
    <rect
       x="10.488482"
       y="13.871864"
       width="179.31922"
       height="35.863843"
       id="rect1" />
    <inkscape:path-effect
       effect="spiro"
       id="path-effect1"
       is_visible="true"
       lpeversion="1" />
  </defs>
  <g
     inkscape:label="Layer 1"
     inkscape:groupmode="layer"
     id="layer1" filter="url(#lf)">
    <path
       style="fill:#ff9500;stroke:#ff9500;stroke-width:0.20611;fill-opacity:1;stroke-opacity:1"
       d="M 4.0283383,15.03913 C 3.1471489,14.70156 2.1958979,14.548132 1.2532609,14.591537 c -0.029836,0.0014 -0.059796,0.0029 -0.089519,0 -0.055794,-0.0055 -0.1095961,-0.02709 -0.1552193,-0.05968 -0.0456233,-0.03259 -0.0831537,-0.07597 -0.11101998,-0.124622 -0.0557326,-0.0973 -0.0720813,-0.213321 -0.0645926,-0.325203 0.0149775,-0.223762 0.11923371,-0.432354 0.15179464,-0.654241 0.0257988,-0.175807 0.005831,-0.355446 -0.0300666,-0.529471 C 0.9187402,12.724298 0.86705977,12.553897 0.82848061,12.380446 0.78990145,12.206995 0.7644191,12.028512 0.78205371,11.8517 c 0.0176346,-0.176812 0.0813526,-0.352987 0.20265096,-0.482834 0.057672,-0.06174 0.12732263,-0.112231 0.17903723,-0.179037 0.047473,-0.06133 0.078172,-0.134724 0.094046,-0.210636 0.015873,-0.07591 0.017266,-0.154373 0.00977,-0.231563 C 1.2525547,10.593249 1.2027037,10.444778 1.1637419,10.294643 1.0725042,9.9430695 1.0404742,9.5793314 0.98470467,9.2204192 0.91733726,8.786867 0.81499502,8.3585688 0.76935897,7.9221937 0.72372291,7.4858187 0.73727422,7.0337316 0.89518632,6.6243789 0.93466566,6.5220373 0.98286146,6.4231398 1.0197687,6.3198428 c 0.036907,-0.103297 0.062531,-0.2126996 0.054455,-0.3220943 -0.00447,-0.06057 -0.019175,-0.1199565 -0.02538,-0.180374 -0.00621,-0.060417 -0.00322,-0.1241186 0.02538,-0.1777007 0.019979,-0.037435 0.051185,-0.067574 0.083595,-0.094962 0.03241,-0.027388 0.066704,-0.052855 0.095442,-0.084075 0.046491,-0.050505 0.076569,-0.114159 0.09754,-0.1795227 0.020971,-0.065364 0.033449,-0.1330846 0.049116,-0.1999184 0.015667,-0.066834 0.03483,-0.1335789 0.067946,-0.1937079 0.033116,-0.060129 0.08139,-0.1137092 0.1434728,-0.1430001 0.030581,-0.014428 0.063664,-0.022657 0.095314,-0.034559 0.03165,-0.011902 0.062903,-0.028316 0.083723,-0.05496 0.014249,-0.018235 0.022875,-0.040476 0.026805,-0.063282 0.00393,-0.022806 0.00332,-0.046212 3.838e-4,-0.069168 C 1.8116986,4.4766065 1.7967084,4.4322617 1.7903726,4.3864128 1.779875,4.3104476 1.7934987,4.233095 1.814006,4.1592007 1.8345133,4.0853064 1.8619156,4.0133701 1.8798916,3.9388196 1.9409172,3.6857328 1.8899252,3.4192425 1.815993,3.1696206 1.7420608,2.9199987 1.6448578,2.6751761 1.6113354,2.4170031 1.5895729,2.2493985 1.5951587,2.0794337 1.5805523,1.9110545 1.5659459,1.7426753 1.5289274,1.570962 1.4322981,1.4322981 1.3933722,1.3764391 1.3449631,1.3261388 1.318025,1.2636105 c -0.013469,-0.031264 -0.021218,-0.065518 -0.018208,-0.099427 0.00301,-0.033909 0.017459,-0.067411 0.042963,-0.08996 0.016253,-0.01437 0.036537,-0.023953 0.057797,-0.028272 0.02126,-0.00432 0.043454,-0.00345 0.064546,0.00162 0.042184,0.010152 0.079085,0.036752 0.1077666,0.069308 0.057364,0.065112 0.083307,0.1514936 0.1279644,0.2258977 0.056491,0.09412 0.142539,0.1677928 0.2368781,0.223917 0.094339,0.056124 0.1973428,0.095905 0.3002337,0.1341575 0.2653948,0.098668 0.5339252,0.1890213 0.8056677,0.2685559 0.9254953,0.2708775 1.892212,0.4177697 2.7750775,0.8056676 0.3040367,0.1335823 0.5983719,0.2958109 0.9199347,0.3787563 0.1607813,0.041473 0.3279673,0.062534 0.493393,0.048217 0.1654256,-0.014317 0.3292515,-0.065058 0.4665636,-0.1584174 0.09668,-0.065734 0.1782698,-0.1508169 0.2617669,-0.2326472 0.083497,-0.08183 0.1710876,-0.1620465 0.275345,-0.214946 0.1216806,-0.06174 0.260043,-0.08306 0.3963766,-0.088641 0.1363336,-0.00558 0.2729203,0.00371 0.409291,-8.779e-4 0.4936021,-0.016593 0.9603892,-0.2124044 1.4322982,-0.3580745 0.31991,-0.098751 0.649917,-0.1757046 0.984705,-0.1790373 0.209052,-0.00208 0.419011,0.024529 0.62663,0 0.244612,-0.0289 0.475294,-0.1274729 0.716149,-0.1790373 0.177528,-0.038007 0.359847,-0.050303 0.537112,-0.089519 0.471511,-0.1043118 0.882099,-0.3922791 1.34278,-0.5371118 0.588157,-0.18490978 1.251313,-0.1201882 1.790372,0.1790373 0.234566,0.1302048 0.45314,0.3051535 0.716149,0.3580745 0.176124,0.035438 0.357912,0.012762 0.537112,0 0.955376,-0.068036 1.907236,0.1502 2.864597,0.1790373 0.630753,0.018999 1.263324,-0.044668 1.879891,-0.1790373 0.715874,-0.1560116 1.416852,-0.4077952 2.148447,-0.4475931 0.748108,-0.040696 1.489639,0.1425697 2.237965,0.1790372 0.566421,0.027603 1.134507,-0.02906 1.700855,0 0.29955,0.01537 0.597275,0.054658 0.895186,0.089519 2.295783,0.2686482 4.645655,0.2722957 6.892936,-0.2685558 0.370518,-0.089172 0.739207,-0.1932515 1.118087,-0.2342999 0.37888,-0.0410483 0.774178,-0.015615 1.119878,0.1447809 0.181796,0.084349 0.347193,0.2045613 0.537112,0.2685559 0.228657,0.077047 0.475885,0.067293 0.716148,0.089519 0.332359,0.030746 0.655552,0.123665 0.984705,0.1790373 0.678861,0.1142026 1.373843,0.067467 2.058929,0 1.370645,-0.1349799 2.743108,-0.3519567 4.117856,-0.2685559 0.687976,0.041737 1.387968,0.1576862 2.058929,0 0.268444,-0.063088 0.530069,-0.1697024 0.805669,-0.1790372 0.15293,-0.00518 0.305314,0.019958 0.458315,0.022218 0.153,0.00226 0.313441,-0.021297 0.436871,-0.1117373 0.03771,-0.027628 0.07095,-0.06078 0.105703,-0.092041 0.03475,-0.031262 0.07166,-0.06106 0.114244,-0.0803454 0.04258,-0.0192852 0.09174,-0.0273375 0.136538,-0.0139917 0.0224,0.006673 0.04334,0.018666 0.05963,0.0354283 0.01629,0.016762 0.02778,0.038353 0.03148,0.061431 0.0024,0.01475 0.0017,0.029799 0.001,0.044723 -6.42e-4,0.014924 -0.001,0.029859 -0.001,0.044796 v 1.2532609 c 0,0.2250109 0.01258,0.449784 0.03294,0.6738716 0.02036,0.2240875 0.04132,0.4565029 -0.03294,0.6689079 -0.04409,0.1261017 -0.120636,0.2379316 -0.179038,0.3580746 -0.160119,0.3293923 -0.178529,0.7079759 -0.179038,1.0742234 -0.0014,1.0153639 0.111928,2.0344567 0,3.0436336 -0.08789,0.7924373 -0.313022,1.5623276 -0.53711,2.327485 -0.05339,0.182312 -0.107229,0.367545 -0.108335,0.557512 -5.53e-4,0.09498 0.01237,0.190572 0.04431,0.280025 0.03194,0.08945 0.08337,0.172675 0.153545,0.236686 0.04751,0.04333 0.102722,0.07728 0.152712,0.11773 0.04999,0.04045 0.09607,0.08964 0.115845,0.150826 0.01385,0.04287 0.01392,0.08896 0.01038,0.133866 -0.0035,0.04491 -0.01055,0.08964 -0.01038,0.13469 4.32e-4,0.114827 0.04734,0.224422 0.10316,0.324772 0.05582,0.10035 0.121574,0.19572 0.165395,0.301858 0.08255,0.19995 0.08168,0.422704 0.0938,0.638686 0.0061,0.107991 0.01575,0.216279 0.04132,0.321376 0.02556,0.105097 0.06758,0.207398 0.133439,0.293199 0.104512,0.136166 0.26027,0.221302 0.40977,0.305644 0.1495,0.08434 0.302746,0.176811 0.395897,0.320987 0.04348,0.06729 0.07236,0.145181 0.07506,0.22525 0.0027,0.08007 -0.02217,0.162168 -0.07506,0.222343 -0.05388,0.06131 -0.131962,0.096 -0.210427,0.118477 -0.07846,0.02248 -0.159782,0.03461 -0.237166,0.06056 -0.114367,0.03836 -0.216518,0.105616 -0.316049,0.173766 -0.09953,0.06815 -0.198985,0.138514 -0.310582,0.184309 -0.149248,0.06124 -0.315207,0.07574 -0.475413,0.05677 -0.160207,-0.01897 -0.315222,-0.07038 -0.462329,-0.136603 -0.294216,-0.132444 -0.558923,-0.323715 -0.85263,-0.457281 -0.391289,-0.177942 -0.823878,-0.248524 -1.25326,-0.268556 -0.627096,-0.02926 -1.253664,0.04542 -1.879891,0.08952 -1.132865,0.07978 -2.272326,0.05969 -3.401708,0.179037 -0.390466,0.04126 -0.779309,0.09918 -1.163743,0.179037 -0.163957,0.03406 -0.327909,0.07221 -0.495038,0.08269 -0.167129,0.01048 -0.339698,-0.0082 -0.489667,-0.08269 -0.06007,-0.02984 -0.115505,-0.06809 -0.173228,-0.10225 -0.05772,-0.03416 -0.118878,-0.06465 -0.184846,-0.07679 -0.07376,-0.01357 -0.149542,-0.0036 -0.22407,0.0048 -0.07453,0.0084 -0.151213,0.01506 -0.223523,-0.0048 -0.06454,-0.01777 -0.121363,-0.05553 -0.179038,-0.08952 -0.49858,-0.293796 -1.110725,-0.324398 -1.685782,-0.259529 -0.575056,0.06487 -1.138808,0.216727 -1.715927,0.259529 -0.983647,0.07295 -1.971312,-0.17308 -2.954115,-0.08952 -0.758629,0.0645 -1.486853,0.323057 -2.237965,0.447593 -1.444944,0.239575 -2.921914,-0.02243 -4.386413,0 -1.16642,0.01787 -2.344789,0.215721 -3.491226,0 -0.362818,-0.06827 -0.716528,-0.177171 -1.074224,-0.268556 -0.732899,-0.187243 -1.483678,-0.301064 -2.237966,-0.358075 -1.458602,-0.110246 -2.925886,-0.0087 -4.386413,-0.08952 -0.567324,-0.0314 -1.139847,-0.09007 -1.700854,0 -0.300544,0.04826 -0.593476,0.138704 -0.895186,0.179037 -0.592216,0.07917 -1.194053,-0.03728 -1.790373,0 -0.543818,0.034 -1.0714502,0.194945 -1.6113352,0.268556 -0.7107962,0.09691 -1.432269,0.04138 -2.1484473,0 -1.0432185,-0.06027 -2.0881941,-0.09013 -3.1331522,-0.08952 z"
       id="path1"
       inkscape:path-effect="#path-effect1"
       inkscape:original-d="m 4.0283383,15.03913 c -0.926203,-0.218049 -1.9296886,-0.0249 -2.7750774,-0.447593 -0.026689,-0.01335 -0.068419,0.0211 -0.089519,0 -0.24059808,-0.240598 -0.17903723,-0.802642 -0.17903723,-1.163742 0,-0.392756 -0.10360658,-1.748109 0,-2.058929 0.0266893,-0.08007 0.15234793,-0.09897 0.17903723,-0.179037 0.070483,-0.211448 0,-0.699782 0,-0.895186 0,-0.3882428 -0.1261115,-0.7037441 -0.17903723,-1.0742238 C 0.89648159,8.6028555 0.77843191,7.266528 0.89518632,6.6243789 0.93404652,6.4106477 1.0353634,6.2114794 1.0742236,5.9977485 c 0.021351,-0.1174329 -0.037744,-0.2448415 0,-0.3580747 0.026689,-0.080068 0.1356143,-0.1066657 0.1790373,-0.1790371 0.1262718,-0.2104533 0.1751268,-0.5332016 0.3580745,-0.7161491 0.04718,-0.047181 0.1491977,-0.02984 0.1790372,-0.089519 0.040034,-0.080068 0,-0.1790372 0,-0.2685558 0,-0.8567182 -0.040034,0.2001697 0.089519,-0.4475932 C 1.9845491,3.4155308 1.8111321,2.8831955 1.6113354,2.4170031 1.5845746,2.3545613 1.4322981,1.522046 1.4322981,1.4322981 1.4322981,1.3263807 1.3318118,1.0687397 1.3427795,1.0742236 1.476226,1.1409468 1.5814958,1.2532609 1.700854,1.3427795 1.8798913,1.4621377 2.0429769,1.6098592 2.2379658,1.700854 2.4944907,1.8205656 2.7762628,1.8764114 3.0436335,1.9694099 4.4067724,2.4435452 4.3125458,2.4901274 5.818711,2.7750775 6.4406705,2.8927456 7.1324369,3.3267163 7.6986023,3.0436335 7.9172016,2.9343339 8.0342189,2.6967881 8.2357142,2.5960403 8.541908,2.4429434 8.7091985,2.5397401 9.0413818,2.5065217 9.5334427,2.4573156 9.9948226,2.2548599 10.47368,2.1484472 c 0.174099,-0.038689 0.836089,-0.1676053 0.984705,-0.1790373 0.208262,-0.01602 0.419586,0.027606 0.62663,0 0.243905,-0.032521 0.475548,-0.1274799 0.716149,-0.1790373 0.177478,-0.038031 0.363868,-0.03538 0.537112,-0.089519 0.460129,-0.1437902 0.870069,-0.4425696 1.34278,-0.5371118 0.528322,-0.1056645 1.314895,-0.032286 1.790372,0.1790373 0.24389,0.1083955 0.454439,0.3057325 0.716149,0.3580745 0.175561,0.035112 0.35853,-0.012756 0.537112,0 0.96921,0.069229 1.883374,0.2182862 2.864597,0.1790373 0.08118,-0.00325 1.666381,-0.1315905 1.879891,-0.1790373 2.078356,-0.4618569 -0.821712,-0.1505773 2.148447,-0.4475931 0.773146,-0.077315 1.477439,0.1283354 2.237965,0.1790372 0.565695,0.037713 1.134544,-0.026967 1.700855,0 0.299543,0.014264 0.595718,0.073757 0.895186,0.089519 2.294687,0.120773 4.611778,-0.1056161 6.892936,-0.2685558 0.397436,-0.028388 1.823344,-0.2277253 2.237965,-0.089519 0.189896,0.063299 0.344643,0.2135651 0.537112,0.2685559 0.231317,0.066091 0.478517,0.051998 0.716148,0.089519 0.329535,0.052032 0.652343,0.1501363 0.984705,0.1790373 0.683731,0.059455 1.372618,0 2.058929,0 1.390817,0 2.764486,-0.042994 4.117856,-0.2685559 0.650303,-0.1083836 1.410142,0.043253 2.058929,0 0.388924,-0.025928 0.444979,-0.1235464 0.805669,-0.1790372 0.296395,-0.045599 0.610691,0.00531 0.895186,-0.089519 0.19893,-0.06631 0.193046,-0.17436731 0.447593,-0.089519 0.02831,0.00944 0,0.059679 0,0.089519 0,0.4177536 0,0.8355073 0,1.2532609 0,0.4043995 0.08747,0.9491782 0,1.3427795 -0.02895,0.1302686 -0.140692,0.230256 -0.179038,0.3580746 -0.104312,0.347704 -0.142915,0.7130113 -0.179038,1.0742234 -0.100404,1.0040564 0.111413,2.0409201 0,3.0436336 -0.0889,0.8001399 -0.405313,1.5367023 -0.53711,2.327485 -0.0547,0.328202 -0.01042,0.774408 0.08952,1.074223 0.04003,0.120102 0.211939,0.155323 0.268557,0.268556 0.179036,0.358075 -0.08952,0.04476 0,0.268556 0.116462,0.291155 0.210923,0.338474 0.268555,0.62663 0.07609,0.380472 0.07619,0.868533 0.268557,1.253261 0.04902,0.09804 0.769718,0.518786 0.805667,0.626631 0.04718,0.141541 0,0.298395 0,0.447593 0,0.30901 -0.178609,0.12524 -0.447593,0.179037 -0.243615,0.04872 -0.394864,0.311721 -0.626631,0.358075 -0.603943,0.120789 -1.246926,-0.343024 -1.790372,-0.537112 -0.424733,-0.15169 -0.804733,-0.231179 -1.25326,-0.268556 -0.637381,-0.05312 -1.251913,0.03719 -1.879891,0.08952 -1.130951,0.09425 -2.267585,0.122331 -3.401708,0.179037 -1.374857,0.06874 -0.159131,0.06741 -1.163743,0.179037 -0.25218,0.02802 -0.737516,0.07062 -0.984705,0 -0.128313,-0.03666 -0.227807,-0.150089 -0.358074,-0.179037 -0.145645,-0.03237 -0.299895,0.0211 -0.447593,0 -0.06605,-0.0094 -0.112588,-0.08348 -0.179038,-0.08952 -1.124609,-0.102237 -2.2771,0.102237 -3.401709,0 -0.970655,-0.08824 -1.971577,-0.155021 -2.954115,-0.08952 -0.776935,0.0518 -1.46803,0.392597 -2.237965,0.447593 -1.445995,0.103285 -2.936401,0 -4.386413,0 -1.149393,0 -2.345745,0.09546 -3.491226,0 -0.410498,-0.03421 -0.692748,-0.173187 -1.074224,-0.268556 -0.726193,-0.181548 -1.492235,-0.308359 -2.237966,-0.358075 -1.459062,-0.09727 -2.921722,-0.08952 -4.386413,-0.08952 -0.551702,0 -1.153724,-0.06839 -1.700854,0 -1.243982,0.155497 0.810471,0.0369 -0.895186,0.179037 -0.592742,0.04939 -1.197294,-0.04562 -1.790373,0 -0.543907,0.04184 -1.0648841,0.232126 -1.6113352,0.268556 -0.7085494,0.04724 -1.4369304,0 -2.1484473,0 -1.0432899,0 -2.1037349,0.08205 -3.1331522,-0.08952 z" />
    <path
       style="font-size:17.3333px;line-height:1.25;font-family:Titilliumweb_semibold;-inkscape-font-specification:Titilliumweb_semibold;text-align:center;text-anchor:middle;white-space:pre;fill:#ffffff;stroke-width:0.22123"
       d="M 8.2690555,5.153414 Q 8.4030813,5.12304 8.6136935,5.12304 q 0.3111319,0 0.6222634,0.055685 0.3159185,0.055685 0.3972913,0.1366811 0.019146,0.015187 0.019146,0.035436 0,0.035436 -0.2010388,0.248051 -0.1962522,0.2075528 -0.1962522,0.2480511 0,0.015187 0.00479,0.020248 0.00957,0.010126 0.00957,0.020248 0,0.010126 -0.02872,0.010126 -0.023934,0 -0.2489055,-0.040498 -0.2249721,-0.040498 -0.3685713,-0.040498 -0.1100928,0 -0.1818923,0.020248 -0.1627461,0.040498 -0.1627461,0.096183 0,0.040498 0.019146,0.086059 0.02872,0.080996 0.081373,0.1063075 0.05744,0.025312 0.2058256,0.030374 0.1100925,0.00506 0.3159182,0.060747 0.2058256,0.055685 0.2824119,0.1063075 0.3254915,0.2024906 0.4068647,0.3391718 0.081373,0.1366811 0.086159,0.4859775 v 0.096183 q 0,0.1468058 -0.076586,0.2885494 Q 9.4705008,7.7604787 9.3651946,7.8515993 9.2598886,7.9427203 9.106716,7.9680315 8.9774767,7.9882796 8.8769573,8.0389031 8.747718,8.0945881 8.532319,8.0945881 q -0.2632652,0 -0.5169572,-0.075934 l -0.1435993,-0.04556 0.00957,-0.1923662 q 0.019146,-0.192366 0.02872,-0.2024906 0.01436,-0.015187 0.01436,-0.131619 0,-0.1164318 0.033507,-0.1316186 h 0.019146 q 0.090946,0 0.2776251,0.030373 0.1818923,0.025312 0.253692,0.025312 0.02872,0 0.02872,-0.00506 0.023934,-0.075934 0.062226,-0.075934 0.023934,0 0.05744,0.015187 0.05744,0.020248 0.081373,0.020248 0.01436,0 0.1005194,-0.020248 0.1100928,-0.035436 0.1388127,-0.060747 0.033506,-0.030373 0.033506,-0.1063075 0,-0.086059 -0.076586,-0.151868 Q 8.8338772,6.8998953 8.3935063,6.839148 8.1828938,6.8087747 8.0919478,6.778401 8.0057881,6.7429652 7.9196287,6.6619689 7.6276436,6.3835442 7.6276436,5.917816 q 0,-0.3644832 0.1771057,-0.5264756 Q 7.996215,5.2192235 8.2690535,5.153414 Z m 3.2884215,0.9415811 q -0.04787,-0.025312 -0.224972,-0.04556 -0.03351,-0.00506 -0.09095,-0.00506 -0.09095,0 -0.205826,0.050623 l -0.138812,0.060747 v 0.6682191 q 0.0048,0.6682188 0.03829,0.6935303 0.03351,0.025312 0.258478,0.025312 0.229759,0 0.311132,-0.050623 0.08616,-0.050623 0.177106,-0.2379265 0.09095,-0.1923659 0.09095,-0.3138605 0,-0.015187 -0.0048,-0.060747 0,-0.04556 0,-0.070872 -0.0096,-0.2480511 -0.0718,-0.4606663 -0.06223,-0.212615 -0.138813,-0.2531133 z M 10.178925,4.6623743 q 0.01915,-0.1214946 0.04787,-0.1214946 0.03351,0 0.301558,0.096183 0.272839,0.091121 0.291985,0.1113699 0.0096,0.010126 0.03829,0.2885491 0.03351,0.2784244 0.03829,0.2885491 0.01914,0.025312 0.134026,0.010126 0.02393,-0.00506 0.100519,-0.00506 0.138813,0 0.272839,0.015187 0.665343,0.075934 0.837662,0.5770982 0.06701,0.1923662 0.09573,0.2379264 0.09095,0.1569304 0.09095,0.7340286 0,0.1873038 -0.01915,0.2834869 -0.03351,0.2024906 -0.191466,0.4961019 -0.157959,0.2986737 -0.268051,0.3847322 -0.11488,0.086059 -0.315919,0.1214943 -0.196252,0.035436 -0.617477,0.045561 -0.157959,0.00506 -0.349424,0.00506 -0.191466,0 -0.258479,-0.04556 -0.07659,-0.055685 -0.124453,-0.1619923 -0.03351,-0.070872 -0.04308,-0.2683001 -0.0048,-0.1923662 -0.01436,-1.1390098 -0.0048,-1.4224964 -0.04787,-1.7161077 -0.0096,-0.060747 -0.0096,-0.1214943 0,-0.055685 0.0096,-0.1164321 z m 3.384159,0.7340283 q 0.01436,-0.015187 0.02872,-0.015187 0.06701,0 0.06701,0.2024906 0,0.06581 -0.01436,0.1265568 -0.03351,0.1164321 -0.03351,0.3594207 0,0.2278018 0.06701,0.4353549 0.05744,0.1771791 0.05744,0.2936112 0,0.1012453 -0.0048,0.172117 -0.0096,0.1822416 -0.0096,0.1923662 0,0.096183 0.03829,0.1214944 0.03351,0.035436 0.181892,0.060747 0.148386,0.025312 0.277625,0.025312 0.05744,0 0.105306,-0.010126 0.09095,-0.025312 0.119667,-0.055685 0.03351,-0.035436 0.03351,-0.1214943 0,-0.075934 -0.0048,-0.1265568 -0.0096,-0.1012453 -0.04787,-0.3594208 -0.03829,-0.2581754 -0.03829,-0.4100433 0,-0.172117 0.03351,-0.5011644 0.03351,-0.3290471 0.05744,-0.3695454 0.0048,-0.015187 0.02872,-0.015187 0.02872,0 0.287198,0.091121 l 0.296772,0.1063074 -0.0048,0.1012453 q 0,0.015187 -0.0096,0.1619926 -0.0048,0.1417433 -0.01436,0.2379265 -0.01436,0.1518679 -0.01436,0.2429886 0,0.1063075 0.01915,0.1721169 0.0718,0.2885491 0.0718,0.9972662 0,0.2885491 -0.02393,0.2885491 -0.0096,0 -0.01436,-0.020248 l -0.02393,-0.060747 -0.08137,0.065809 q -0.09573,0.070872 -0.105306,0.070872 -0.01436,0 -0.105306,0.06581 -0.191466,0.1366811 -0.569611,0.1366811 -0.119666,0 -0.186678,-0.00506 -0.349425,-0.020248 -0.435585,-0.04556 -0.191382,-0.055686 -0.334982,-0.2581763 -0.215399,-0.3138602 -0.215399,-0.5821603 0,-0.080996 0.01436,-0.172117 0.0096,-0.1214943 0.0096,-0.1518679 0,-0.091121 -0.03351,-0.2024906 -0.09573,-0.3087981 -0.09573,-0.592285 0,-0.1063078 0.0048,-0.1670548 0.01914,-0.2834869 0.03351,-0.3290474 0.01915,-0.04556 0.105306,-0.04556 0.09095,0 0.143599,-0.055685 0.04308,-0.04556 0.134026,-0.04556 h 0.05265 0.05744 q 0.08616,0 0.09573,-0.010126 z m 2.077401,0.3492964 -0.01436,-0.5264755 h 0.143599 q 0.258479,0 0.258479,0.080996 0,0.050623 0.03351,0.050623 0.02872,0 0.10052,0.055685 0.04787,0.04556 0.114879,0.04556 0.03829,0 0.263265,-0.025312 0.287199,-0.025312 0.397291,-0.025312 0.18668,0.010126 0.335065,0.1569304 l 0.07659,0.075934 0.119666,-0.091121 q 0.201039,-0.1366812 0.382931,-0.1366812 0.05265,0 0.08137,0.00506 0.03829,0.00506 0.181892,0.020248 0.1436,0.015187 0.196253,0.020248 0.272838,0.025312 0.426011,0.1113699 0.153172,0.080996 0.263265,0.2683001 0.110093,0.1822416 0.138813,0.2784245 0.03351,0.096183 0.03351,0.2784247 0,0.050623 -0.0096,0.3037359 v 0.050623 q 0,0.1468055 0.02393,0.2480508 0.01915,0.080996 0.01915,0.1619926 0,0.091121 -0.01915,0.2379265 -0.03351,0.2632379 -0.04308,0.4505416 -0.01914,0.1822417 -0.02872,0.2024907 h -0.01436 q -0.0718,0 -0.325492,-0.055685 -0.253692,-0.050623 -0.287198,-0.070872 -0.01915,-0.00506 -0.01915,-0.080996 0,-0.091121 0.04787,-0.3847319 0.03351,-0.172117 0.03351,-0.2531133 0,-0.030374 -0.0096,-0.070872 -0.02393,-0.060747 -0.03351,-0.4252305 -0.0048,-0.369545 -0.04787,-0.4505413 -0.04308,-0.1012454 -0.138813,-0.1012454 -0.0048,0 -0.02393,0.00506 -0.01436,0 -0.02393,0 -0.05265,0 -0.220186,-0.025312 -0.04308,-0.00506 -0.110093,-0.00506 -0.177105,0 -0.224972,0.086059 -0.0048,0.00506 -0.0048,0.035436 0,0.1063078 0.02872,0.2986737 0.03829,0.2936113 0.03829,0.8352739 0,0.6378452 -0.04308,0.653032 -0.03351,0.010126 -0.03351,0.11137 v 0.1012453 h -0.239332 q -0.253692,0 -0.301558,-0.025312 -0.04787,-0.020248 -0.0718,-0.1468054 -0.01915,-0.06581 -0.01915,-0.1366815 0,-0.030373 0.0048,-0.035436 0.03829,-0.055685 0.03829,-0.8453982 0,-0.6226587 -0.157959,-0.825149 l -0.08616,-0.1164321 -0.229758,0.010126 q -0.258479,0.010126 -0.296772,0.070872 -0.03829,0.055685 -0.05265,0.4606664 -0.0096,0.2227396 -0.0096,0.3492961 0,0.1974284 0.01915,0.5416623 0.01915,0.2075531 0.01915,0.3847322 0,0.06581 -0.0048,0.070872 -0.0096,0.00506 -0.01915,0.00506 -0.08137,0 -0.335065,-0.040498 -0.248906,-0.040498 -0.277625,-0.060747 -0.06701,-0.045561 -0.06701,-0.8757719 0,-0.1468058 0.0096,-0.3492964 0.01914,-0.3239849 0.01914,-0.6682188 0,-0.1873038 -0.0048,-0.2683001 z m 5.370608,0.3341096 q -0.05265,-0.050623 -0.153172,-0.050623 -0.162746,0 -0.311132,0.1316187 -0.0718,0.06581 -0.100519,0.1974284 L 20.42233,6.499976 20.5037,6.515163 q 0.02393,0.00506 0.153173,0.00506 0.507384,0 0.536104,-0.030374 0.0048,-0.00506 0.0048,-0.010126 0,-0.04556 -0.07659,-0.2075528 -0.0718,-0.1619926 -0.110093,-0.192366 z M 20.518069,5.386278 q 0.167533,-0.055685 0.354212,-0.055685 0.205825,0 0.354211,0.065809 0.306345,0.151868 0.449944,0.4505417 0.09095,0.1974281 0.105307,0.2834869 0.01914,0.1063075 0.04787,0.1569302 0.02872,0.065809 0.05265,0.2176774 0.02872,0.1518679 0.02872,0.2581754 0,0.050623 -0.0048,0.06581 -0.01436,0.075934 -0.09095,0.1771791 -0.0718,0.096183 -0.138813,0.1214946 -0.110093,0.04556 -0.430797,0.060747 -0.315919,0.015187 -0.574397,0.020248 -0.258479,0 -0.258479,0.015187 0,0.1265568 0.129239,0.2126152 0.08137,0.055685 0.378145,0.080996 0.157959,0.020248 0.244119,0.020248 0.07659,0 0.191465,-0.045561 0.124453,-0.050623 0.210612,-0.050623 0.0718,0 0.17232,0.04556 l 0.100519,0.050623 -0.0096,0.1518679 q -0.03351,0.4302924 -0.0718,0.4606661 -0.05744,0.070872 -0.65577,0.070872 -0.301558,0 -0.502597,-0.030374 Q 20.407977,8.1654587 20.211724,8.0490278 20.020259,7.9325956 19.934099,7.7959145 19.713914,7.4314316 19.713914,7.0011389 q 0,-0.1164321 0.0048,-0.1771791 0.02872,-0.3847322 0.105306,-0.6530323 0.138813,-0.4910397 0.406865,-0.6580945 0.100519,-0.055685 0.287198,-0.1265568 z m 2.019963,-0.7897131 q 0.04308,-0.080996 0.07659,-0.080996 0.01915,0 0.03351,0.025312 0.01436,0.025312 0.272839,0.025312 h 0.258479 v 0.2126153 q 0,0.3999187 0.100519,0.4961019 0.04787,0.04556 0.09573,0.04556 0.04308,0 0.119666,-0.040498 0.05744,-0.030374 0.143599,-0.030374 0.153173,0 0.248905,0.070872 0.153173,0.1113697 0.153173,0.4049813 0,0.1366811 -0.02393,0.1670544 -0.01915,0.030374 -0.119666,0.030374 -0.06701,0 -0.162746,0.055685 -0.08616,0.04556 -0.224972,0.04556 h -0.09095 -0.09095 q -0.124453,0 -0.167533,0.055685 -0.02872,0.035436 -0.02872,0.1012453 0,0.00506 0.01915,0.2075528 0.01436,0.091121 0.03829,0.592285 0.0096,0.3391717 0.02872,0.399919 0.02393,0.055685 0.157959,0.055685 h 0.09095 0.229759 v 0.7036546 h -0.253692 q -0.244119,0 -0.368571,-0.020248 Q 22.901815,8.0895304 22.772575,7.9376625 22.643336,7.790857 22.571536,7.5478681 22.547602,7.4516853 22.514097,7.026455 22.485377,6.5961624 22.48059,6.186119 22.471016,5.9633794 22.447084,5.9431301 22.413577,5.9228819 22.413577,5.5837093 V 5.2445376 h 0.0718 q 0.05265,0 0.06223,-0.010126 0.0096,-0.015187 0,-0.075934 -0.02872,-0.1417433 -0.03829,-0.1721169 -0.01915,-0.075934 -0.01915,-0.172117 0,-0.1366811 0.04787,-0.2176774 z m 4.509017,1.4832437 q -0.05265,-0.050623 -0.153174,-0.050623 -0.162746,0 -0.311131,0.1316187 -0.0718,0.06581 -0.10052,0.1974284 l -0.02393,0.1417433 0.08137,0.015187 q 0.02393,0.00506 0.153173,0.00506 0.507383,0 0.536103,-0.030374 0.0048,-0.00506 0.0048,-0.010126 0,-0.04556 -0.07659,-0.2075528 -0.0718,-0.1619926 -0.110091,-0.192366 z M 26.554024,5.386278 q 0.167532,-0.055685 0.354211,-0.055685 0.205825,0 0.354211,0.065809 0.306344,0.151868 0.449944,0.4505417 0.09095,0.1974281 0.105308,0.2834869 0.01914,0.1063075 0.04787,0.1569302 0.02872,0.065809 0.05265,0.2176774 0.02872,0.1518679 0.02872,0.2581754 0,0.050623 -0.0048,0.06581 -0.01436,0.075934 -0.09095,0.1771791 -0.0718,0.096183 -0.138814,0.1214946 -0.110091,0.04556 -0.430796,0.060747 -0.315919,0.015187 -0.574398,0.020248 -0.258478,0 -0.258478,0.015187 0,0.1265568 0.129239,0.2126152 0.08137,0.055685 0.378144,0.080996 0.157959,0.020248 0.244119,0.020248 0.07659,0 0.191465,-0.045561 0.124454,-0.050623 0.210614,-0.050623 0.0718,0 0.172319,0.04556 l 0.10052,0.050623 -0.0096,0.1518679 q -0.03351,0.4302924 -0.0718,0.4606661 -0.05744,0.070872 -0.65577,0.070872 -0.301559,0 -0.502598,-0.030374 -0.19142,-0.025311 -0.387673,-0.1417417 -0.191465,-0.1164322 -0.277625,-0.2531133 -0.220185,-0.3644829 -0.220185,-0.7947756 0,-0.1164321 0.0048,-0.1771791 0.02872,-0.3847322 0.105307,-0.6530323 0.138812,-0.4910397 0.406864,-0.6580945 0.10052,-0.055685 0.287199,-0.1265568 z m 2.761892,0.020248 q 0.287199,0 0.301559,-0.015187 0.01436,-0.015187 0.08137,-0.015187 0.12924,0 0.24412,0.040498 0.421224,0.1569304 0.502598,0.4657285 0.03351,0.1265565 0.08616,0.2885491 0.08137,0.248051 0.134025,1.0073908 0.01914,0.3037359 0.01914,0.3442339 0,0.091121 -0.01914,0.172117 -0.02872,0.1214943 -0.02872,0.2480511 0,0.1771791 -0.09573,0.2784244 -0.09095,0.1012453 -0.253691,0.1012453 -0.191465,0 -0.277624,-0.1468055 -0.02872,-0.040498 -0.02872,-0.2683001 0,-0.2531132 0.0335,-0.3391717 0.0096,-0.030374 0.0096,-0.1012453 0,-0.2075531 -0.04787,-0.592285 -0.04308,-0.3897947 -0.09095,-0.5467248 l -0.06222,-0.212615 q -0.105309,0 -0.320705,-0.00506 -0.210614,-0.00506 -0.315919,-0.00506 l -0.05265,0.070872 q -0.04787,0.06581 -0.04787,0.1518679 0,0.060747 0.0048,0.1063075 0.01914,0.1923663 0.04308,0.3138606 0.08137,0.4505417 0.08137,0.592285 0,0.086058 -0.02394,0.248051 -0.03829,0.2834869 -0.0718,0.3189228 -0.0335,0.035436 -0.320704,0.075934 -0.177106,0.030374 -0.24412,0.04556 l -0.0718,0.015187 0.01436,-0.1923662 q 0.0048,-0.070872 0.01914,-0.1670545 0.01436,-0.091121 0.01914,-0.1569305 0.0096,-0.070872 0.0096,-0.1366811 0,-0.1063075 -0.01914,-0.2227396 -0.08137,-0.531538 -0.08137,-0.9567682 v -0.131621 l 0.0096,-0.3492963 0.100519,-0.030374 q 0.11488,-0.030374 0.18668,-0.1063075 0.110094,-0.1164321 0.210613,-0.1518679 0.10052,-0.035436 0.301557,-0.035436 z m 4.365415,0.6732813 q -0.05265,-0.050623 -0.153174,-0.050623 -0.162745,0 -0.31113,0.1316187 -0.0718,0.06581 -0.10052,0.1974284 l -0.02394,0.1417433 0.08137,0.015187 q 0.02394,0.00506 0.153171,0.00506 0.507385,0 0.536104,-0.030374 0.0048,-0.00506 0.0048,-0.010126 0,-0.045561 -0.07659,-0.2075528 -0.0718,-0.1619926 -0.110091,-0.1923659 z M 33.188307,5.3862768 q 0.167531,-0.055685 0.35421,-0.055685 0.205825,0 0.35421,0.065809 0.306348,0.1518679 0.449945,0.4505416 0.09095,0.1974282 0.105308,0.283487 0.01914,0.1063074 0.04787,0.1569301 0.02872,0.06581 0.05265,0.2176774 0.02872,0.151868 0.02872,0.2581754 0,0.050623 -0.0048,0.065809 -0.01436,0.075934 -0.09095,0.1771792 -0.0718,0.096183 -0.138813,0.1214946 -0.110091,0.04556 -0.430796,0.060747 -0.315919,0.015187 -0.574398,0.020248 -0.258479,0 -0.258479,0.015187 0,0.1265568 0.129239,0.2126153 0.08137,0.055685 0.378145,0.080996 0.157959,0.020248 0.244119,0.020248 0.07659,0 0.191465,-0.04556 0.124454,-0.050623 0.210614,-0.050623 0.0718,0 0.172319,0.04556 l 0.10052,0.050623 -0.0096,0.1518679 q -0.03351,0.4302924 -0.0718,0.4606661 -0.05744,0.070872 -0.655769,0.070872 -0.301559,0 -0.502598,-0.030374 Q 33.078216,8.1654575 32.881965,8.0490266 32.690497,7.9325945 32.604337,7.7959133 32.384152,7.4314304 32.384152,7.0011377 q 0,-0.1164321 0.0048,-0.1771791 0.02872,-0.3847322 0.105305,-0.6530323 0.138811,-0.4910397 0.406864,-0.6580945 0.10052,-0.055685 0.287199,-0.1265567 z m 1.933802,-0.5163509 -0.01914,-0.2531132 h 0.670132 v 0.1923659 q 0,0.1923663 -0.04308,0.2632379 l -0.04787,0.080996 -0.268051,-0.010126 -0.272839,-0.010126 z m 0.02872,0.6631567 q 0.02394,0 0.287199,0.040498 0.268051,0.035436 0.291985,0.035436 0.01914,0 0.01914,0.2075528 v 0.075934 0.151868 q 0,0.2075531 0.0096,0.531538 0.0096,0.2429886 0.0096,0.3239849 0,0.1670548 -0.01436,0.2632379 -0.01914,0.1518679 -0.01914,0.2480508 0,0.1113699 0.01436,0.2683001 0.01914,0.2632379 0.01914,0.3138605 0,0.035436 -0.0048,0.040498 h -0.0096 q -0.05265,0 -0.315916,-0.055685 -0.177108,-0.040498 -0.277628,-0.040498 -0.02872,0 -0.02872,0.00506 0,0.025312 -0.01436,0.010126 -0.04308,-0.04556 -0.04308,-0.5669735 0,-0.2075528 0.01436,-0.3239849 0.01914,-0.1265568 0.01914,-0.3037359 0,-0.1417436 -0.0048,-0.2126153 -0.02394,-0.399919 -0.02394,-0.5669735 V 5.7861958 l 0.0048,-0.2531132 z m 1.412061,-0.020248 q 0.244119,-0.2126153 0.253691,-0.2126153 0.02872,0 0.08616,0.2024906 0.05744,0.1974284 0.11488,0.4302927 0.05744,0.2328643 0.08137,0.2784244 0.03351,0.060747 0.08616,0.3543586 0.09573,0.511289 0.172319,0.6175965 0.02394,0.035436 0.03351,0.035436 0.01436,0 0.02872,-0.131619 0.01436,-0.1518679 0.105305,-0.4353548 0.09095,-0.2834866 0.105308,-0.3644829 0.07659,-0.3594208 0.148386,-0.4809154 0.03351,-0.055685 0.06701,-0.1822413 0.01914,-0.091121 0.06701,-0.1113699 0.04787,-0.025312 0.330279,-0.086059 0.210611,-0.040498 0.239331,-0.040498 0.0048,0 0.0096,0 l 0.0048,0.00506 q 0.02394,0.015187 0.02394,0.1113696 0,0.3138606 -0.124454,0.5669739 -0.07658,0.1619926 -0.07658,0.2024906 0,0.04556 -0.06701,0.2683 -0.167531,0.5315377 -0.186677,0.7542773 -0.02872,0.3796701 -0.09095,0.5619117 -0.06223,0.1822413 -0.181891,0.2379264 -0.08137,0.035436 -0.181894,0.035436 -0.02394,0 -0.205825,-0.010126 -0.296811,-0.030372 -0.335106,-0.050621 -0.06701,-0.035436 -0.124453,-0.1214943 -0.05265,-0.086059 -0.06701,-0.172117 Q 36.85968,7.6693574 36.792658,7.5579875 36.620338,7.2947496 36.558113,6.8340835 36.519819,6.5759081 36.471953,6.4442891 36.352285,6.0848684 36.280485,5.715323 l -0.0048,-0.04556 0.01436,0.015187 q 0.0096,0.010126 0.01914,0.010126 0.04787,0 0.253693,-0.1822416 z m 3.767085,0.5669738 q -0.05265,-0.050623 -0.153171,-0.050623 -0.162745,0 -0.311133,0.1316187 -0.0718,0.06581 -0.100517,0.1974284 l -0.02394,0.1417433 0.08137,0.015187 q 0.02394,0.00506 0.153174,0.00506 0.507384,0 0.536104,-0.030374 0.0048,-0.00506 0.0048,-0.010126 0,-0.04556 -0.07659,-0.2075528 -0.0718,-0.1619926 -0.110094,-0.192366 z M 39.836951,5.3862777 q 0.167534,-0.055685 0.354213,-0.055685 0.205825,0 0.35421,0.065809 0.306345,0.151868 0.449945,0.4505417 0.09095,0.1974282 0.105308,0.2834869 0.01914,0.1063075 0.04787,0.1569302 0.02872,0.065809 0.05265,0.2176774 0.02872,0.1518679 0.02872,0.2581754 0,0.050623 -0.0048,0.065809 -0.01436,0.075934 -0.09094,0.1771791 -0.0718,0.096183 -0.138814,0.1214946 -0.110091,0.04556 -0.430796,0.060747 -0.315919,0.015187 -0.574398,0.020248 -0.258479,0 -0.258479,0.015187 0,0.1265568 0.12924,0.2126152 0.08137,0.055685 0.378144,0.080996 0.15796,0.020248 0.244119,0.020248 0.07659,0 0.191465,-0.04556 0.124454,-0.050623 0.210614,-0.050623 0.0718,0 0.172319,0.04556 l 0.10052,0.050623 -0.0096,0.1518679 q -0.03351,0.4302924 -0.0718,0.4606661 -0.05744,0.070872 -0.65577,0.070872 -0.301559,0 -0.502598,-0.030374 Q 39.72686,8.1654584 39.530606,8.0490275 39.339141,7.9325953 39.252981,7.7959142 39.032796,7.4314313 39.032796,7.0011386 q 0,-0.1164321 0.0048,-0.1771791 0.02872,-0.3847322 0.105308,-0.6530323 0.138811,-0.4910397 0.406864,-0.6580945 0.10052,-0.055685 0.287197,-0.1265568 z m 2.761894,0.020248 q 0.287196,0 0.301556,-0.015187 0.01436,-0.015187 0.08137,-0.015187 0.12924,0 0.244119,0.040498 0.421225,0.1569304 0.502599,0.4657285 0.0335,0.1265565 0.08616,0.2885491 0.08137,0.248051 0.134028,1.0073908 0.01914,0.3037359 0.01914,0.3442339 0,0.091121 -0.01914,0.172117 -0.02872,0.1214943 -0.02872,0.2480511 0,0.1771791 -0.09573,0.2784244 -0.09094,0.1012453 -0.253691,0.1012453 -0.191468,0 -0.277625,-0.1468055 -0.02872,-0.040498 -0.02872,-0.2683001 0,-0.2531132 0.0335,-0.3391717 0.0096,-0.030374 0.0096,-0.1012453 0,-0.2075531 -0.04787,-0.592285 -0.04308,-0.3897947 -0.09094,-0.5467248 l -0.06224,-0.2126145 q -0.105308,0 -0.320704,-0.00506 -0.210614,-0.00506 -0.315919,-0.00506 l -0.05265,0.070872 q -0.04787,0.06581 -0.04787,0.1518679 0,0.060747 0.0048,0.1063075 0.01914,0.1923663 0.04308,0.3138606 0.08137,0.4505417 0.08137,0.592285 0,0.086058 -0.02394,0.248051 -0.03829,0.283487 -0.0718,0.3189228 -0.03351,0.035436 -0.320705,0.075934 -0.177105,0.030374 -0.244119,0.04556 l -0.0718,0.015187 0.01436,-0.1923662 q 0.0048,-0.070872 0.01914,-0.1670545 0.01436,-0.091121 0.01914,-0.1569305 0.0096,-0.070872 0.0096,-0.1366811 0,-0.1063075 -0.01914,-0.2227396 -0.08137,-0.531538 -0.08137,-0.9567682 V 6.0798092 l 0.0096,-0.3492964 0.100519,-0.030374 q 0.11488,-0.030374 0.18668,-0.1063075 0.110094,-0.1164321 0.210613,-0.1518679 0.10052,-0.035436 0.301556,-0.035436 z m 1.986454,-0.8099624 q 0.04308,-0.080996 0.07659,-0.080996 0.01914,0 0.03351,0.025312 0.01436,0.025312 0.272836,0.025312 h 0.258479 v 0.2126152 q 0,0.3999188 0.10052,0.4961019 0.04787,0.045561 0.09573,0.045561 0.04308,0 0.119665,-0.040498 0.05744,-0.030374 0.1436,-0.030374 0.153171,0 0.248904,0.070872 0.153174,0.1113696 0.153174,0.4049812 0,0.1366811 -0.02394,0.1670545 -0.01914,0.030374 -0.119666,0.030374 -0.06701,0 -0.162748,0.055685 -0.08616,0.04556 -0.22497,0.04556 h -0.09095 -0.09095 q -0.124451,0 -0.167531,0.055685 -0.02872,0.035436 -0.02872,0.1012453 0,0.00506 0.01914,0.2075527 0.01436,0.091121 0.03829,0.592285 0.0096,0.3391718 0.02872,0.3999191 0.02394,0.055685 0.157959,0.055685 h 0.09095 0.229759 v 0.7036546 h -0.253694 q -0.244116,0 -0.36857,-0.020248 Q 44.949067,8.089529 44.819827,7.937661 44.690588,7.7908555 44.618788,7.5478666 q -0.02394,-0.096183 -0.05744,-0.521413 -0.02872,-0.4302927 -0.03351,-0.8403361 -0.0096,-0.2227396 -0.0335,-0.2429889 -0.03351,-0.020248 -0.03351,-0.3594207 V 5.2445361 h 0.0718 q 0.05265,0 0.06223,-0.010126 0.0096,-0.015187 0,-0.075934 -0.02872,-0.1417433 -0.03829,-0.172117 -0.01914,-0.075934 -0.01914,-0.1721169 0,-0.1366812 0.04787,-0.2176775 z"
       id="text1"
       aria-label="sbumet en eivent" />
    <path
       style="font-size:17.3333px;line-height:1.25;font-family:Titilliumweb_semibold;-inkscape-font-specification:Titilliumweb_semibold;text-align:center;text-anchor:middle;white-space:pre;fill:#ffffff;stroke-width:0.779"
       d="m 58.360298,34.959131 q 0.173333,-0.208 0.294666,-0.26 0.138666,-0.052 0.450666,-0.052 0.433332,0 0.814665,0.294666 0.935998,0.762665 0.935998,0.935998 0,0.08667 -0.381333,0.398666 -0.381332,0.294666 -0.554665,0.883999 -0.104,0.381332 -0.208,0.693332 -0.08667,0.311999 -0.121333,0.433332 -0.03467,0.104 -0.121333,0.485333 -0.08667,0.363999 -0.208,0.935998 -0.121333,0.571999 -0.363999,1.73333 -0.277333,1.351997 -0.329333,1.611997 -0.103999,0.485332 -0.103999,0.710665 0,0.242666 0.103999,0.727998 0.156,0.779999 0.364,1.091998 0.259999,0.415999 0.554665,1.039998 0.294666,0.606666 0.294666,0.693332 0,0.121333 0.329333,0.779999 0.346666,0.641332 0.485333,0.797332 0.346665,0.381332 0.346665,0.641332 0,0.08667 -0.485332,0.606665 -0.502666,0.537332 -0.641332,0.953332 -0.156,0.433332 -0.259999,0.433332 -0.156,0 -0.519999,-0.467999 -0.364,-0.467999 -0.745332,-1.161331 -0.398666,-0.762665 -0.589333,-1.230664 -0.242666,-0.658666 -0.519999,-1.161331 -0.675998,-1.299998 -0.883998,-2.183996 -0.173333,-0.675999 -0.173333,-1.646664 0,-0.554665 0.08667,-0.901331 0.06933,-0.242666 0.173333,-0.883999 0.052,-0.294666 0.346666,-1.68133 0.294666,-1.403997 0.381332,-1.923996 0.104,-0.519999 0.537333,-1.854663 0.173333,-0.623999 0.311999,-0.901332 0.138666,-0.277332 0.398666,-0.571998 z m 9.862656,8.389317 q -0.208,-0.104 -1.195998,-0.104 -0.537332,0 -0.641332,0.052 -0.537332,0.242666 -0.883998,1.230664 -0.225333,0.606665 -0.225333,1.819996 0,0.849332 0.01733,1.057332 0.03467,0.207999 0.208,0.467999 l 0.242666,0.381332 0.710665,-0.052 q 0.849332,-0.06933 1.369331,-0.242667 l 0.623999,-0.225333 -0.01733,-0.883998 q -0.01733,-0.277333 -0.03467,-1.143998 -0.01733,-0.866665 -0.01733,-1.022664 -0.01733,-1.265331 -0.156,-1.334664 z m 1.334664,-5.113324 q 0.866665,-0.259999 1.109331,-0.259999 0.138667,0 0.190667,0.121333 0.121333,0.311999 0.121333,3.033327 0,1.507997 -0.06933,1.923997 -0.242666,1.213331 -0.242666,1.715996 0,0.329333 0.08667,0.727999 0.155999,0.658665 0.155999,2.253329 0,1.143998 -0.103999,1.57733 l -0.104,0.502666 h -0.537332 q -0.502666,0 -0.849332,0.155999 -0.658665,0.277333 -1.698663,0.450666 -1.022665,0.190666 -1.83733,0.190666 -0.589332,0 -0.831999,-0.08667 -0.433332,-0.138666 -0.935998,-0.693332 -0.502665,-0.537332 -0.814665,-1.178664 -0.138666,-0.294666 -0.173333,-0.364 -0.03467,-0.06933 -0.104,-0.259999 -0.052,-0.190666 -0.06933,-0.329333 0,-0.156 0,-0.398666 0,-0.450666 0.052,-1.507997 0.08667,-1.819996 0.779999,-3.085327 0.242666,-0.415999 0.745331,-0.901332 0.519999,-0.485332 0.901332,-0.658665 0.762665,-0.329333 1.750663,-0.329333 0.485333,0 1.282664,0.121333 l 0.277333,0.052 -0.06933,-0.485332 q -0.03467,-0.312 -0.03467,-0.710666 0,-0.363999 0.01733,-0.519998 l 0.052,-0.779999 z m 3.241326,4.021326 -0.052,-1.802663 h 0.519999 q 0.935998,0 0.935998,0.277332 0,0.173333 0.121333,0.173333 0.104,0 0.364,0.190667 0.173333,0.155999 0.415999,0.155999 0.138666,0 0.953331,-0.08667 1.039998,-0.08667 1.438664,-0.08667 0.675999,0.03467 1.213331,0.537333 l 0.277333,0.259999 0.433333,-0.311999 q 0.727998,-0.467999 1.386664,-0.467999 0.190666,0 0.294666,0.01733 0.138666,0.01733 0.658665,0.06933 0.519999,0.052 0.710665,0.06933 0.987998,0.08667 1.542664,0.381333 0.554666,0.277333 0.953331,0.918665 0.398666,0.623999 0.502666,0.953331 0.121333,0.329333 0.121333,0.953332 0,0.173333 -0.03467,1.039998 v 0.173333 q 0,0.502665 0.08667,0.849331 0.06933,0.277333 0.06933,0.554666 0,0.311999 -0.06933,0.814665 -0.121333,0.901332 -0.156,1.542664 -0.06933,0.623999 -0.103999,0.693332 h -0.052 q -0.26,0 -1.178665,-0.190667 -0.918665,-0.173333 -1.039998,-0.242666 -0.06933,-0.01733 -0.06933,-0.277333 0,-0.311999 0.173333,-1.31733 0.121333,-0.589332 0.121333,-0.866665 0,-0.104 -0.03467,-0.242666 -0.08667,-0.208 -0.121333,-1.455998 -0.01733,-1.26533 -0.173333,-1.542663 -0.156,-0.346666 -0.502666,-0.346666 -0.01733,0 -0.08667,0.01733 -0.052,0 -0.08667,0 -0.190666,0 -0.797332,-0.08667 -0.156,-0.01733 -0.398666,-0.01733 -0.641332,0 -0.814665,0.294666 -0.01733,0.01733 -0.01733,0.121333 0,0.364 0.104,1.022665 0.138666,1.005331 0.138666,2.859995 0,2.183995 -0.156,2.235995 -0.121333,0.03467 -0.121333,0.381333 V 50.8191 h -0.866665 q -0.918665,0 -1.091998,-0.08667 -0.173333,-0.06933 -0.259999,-0.502665 -0.06933,-0.225333 -0.06933,-0.468 0,-0.103999 0.01733,-0.121333 0.138666,-0.190666 0.138666,-2.894661 0,-2.131996 -0.571999,-2.825327 l -0.311999,-0.398666 -0.831998,0.03467 q -0.935998,0.03467 -1.074665,0.242666 -0.138666,0.190667 -0.190666,1.577331 -0.03467,0.762665 -0.03467,1.195997 0,0.675999 0.06933,1.854663 0.06933,0.710666 0.06933,1.317331 0,0.225333 -0.01733,0.242666 -0.03467,0.01733 -0.06933,0.01733 -0.294666,0 -1.213331,-0.138667 -0.901331,-0.138666 -1.005331,-0.207999 -0.242666,-0.156 -0.242666,-2.998661 0,-0.502666 0.03467,-1.195998 0.06933,-1.109331 0.06933,-2.287995 0,-0.641332 -0.01733,-0.918665 z m 24.041273,1.195997 q -0.173333,-0.08667 -0.814665,-0.155999 -0.121334,-0.01733 -0.329333,-0.01733 -0.329333,0 -0.745332,0.173333 l -0.502666,0.208 v 2.287996 q 0.01733,2.287995 0.138667,2.374662 0.121333,0.08667 0.935998,0.08667 0.831998,0 1.126664,-0.173333 0.312,-0.173333 0.641332,-0.814665 0.329333,-0.658665 0.329333,-1.074665 0,-0.052 -0.01733,-0.207999 0,-0.156 0,-0.242666 -0.03467,-0.849332 -0.26,-1.577331 -0.225333,-0.727998 -0.502665,-0.866665 z m -4.991991,-4.905323 q 0.06933,-0.416 0.173333,-0.416 0.121333,0 1.091998,0.329333 0.987998,0.312 1.057331,0.381333 0.03467,0.03467 0.138667,0.987998 0.121333,0.953331 0.138666,0.987998 0.06933,0.08667 0.485333,0.03467 0.08667,-0.01733 0.363999,-0.01733 0.502666,0 0.987998,0.052 2.409329,0.26 3.033327,1.975996 0.242667,0.658666 0.346666,0.814665 0.329333,0.537333 0.329333,2.513329 0,0.641332 -0.06933,0.970665 -0.121333,0.693332 -0.693332,1.698663 -0.571999,1.022665 -0.970665,1.317331 -0.415999,0.294666 -1.143998,0.415999 -0.710665,0.121333 -2.235995,0.156 -0.571999,0.01733 -1.265331,0.01733 -0.693332,0 -0.935998,-0.156 -0.277333,-0.190666 -0.450666,-0.554665 -0.121333,-0.242667 -0.156,-0.918665 -0.01733,-0.658666 -0.052,-3.899993 -0.01733,-4.870657 -0.173333,-5.875988 -0.03467,-0.208 -0.03467,-0.415999 0,-0.190667 0.03467,-0.398666 z m 14.698654,4.853324 q -0.19067,-0.173333 -0.55467,-0.173333 -0.58933,0 -1.12666,0.450665 -0.26,0.225333 -0.364,0.675999 l -0.0867,0.485332 0.29467,0.052 q 0.0867,0.01733 0.55467,0.01733 1.83733,0 1.94133,-0.104 0.0173,-0.01733 0.0173,-0.03467 0,-0.156 -0.27733,-0.710665 -0.26,-0.554666 -0.39867,-0.658665 z m -1.78533,-2.374663 q 0.60667,-0.190666 1.28266,-0.190666 0.74534,0 1.28267,0.225333 1.10933,0.519999 1.62933,1.542664 0.32933,0.675998 0.38133,0.970665 0.0693,0.363999 0.17333,0.537332 0.104,0.225333 0.19067,0.745332 0.104,0.519999 0.104,0.883998 0,0.173333 -0.0173,0.225333 -0.052,0.259999 -0.32934,0.606665 -0.25999,0.329333 -0.50266,0.416 -0.39867,0.155999 -1.56,0.207999 -1.144,0.052 -2.07999,0.06933 -0.936,0 -0.936,0.052 0,0.433333 0.468,0.727999 0.29466,0.190666 1.36933,0.277333 0.572,0.06933 0.884,0.06933 0.27733,0 0.69333,-0.156 0.45066,-0.173333 0.76266,-0.173333 0.26,0 0.624,0.156 l 0.364,0.173333 -0.0347,0.519999 q -0.12133,1.47333 -0.25999,1.57733 -0.208,0.242666 -2.37467,0.242666 -1.09199,0 -1.81999,-0.104 -0.69334,-0.08667 -1.404,-0.485332 -0.69333,-0.398666 -1.00533,-0.866665 -0.79733,-1.247997 -0.79733,-2.721328 0,-0.398666 0.0173,-0.606665 0.104,-1.317331 0.38133,-2.235996 0.50267,-1.68133 1.47333,-2.253329 0.364,-0.190666 1.04,-0.433333 z m 7.31465,-2.703994 q 0.156,-0.277333 0.27733,-0.277333 0.0693,0 0.12134,0.08667 0.052,0.08667 0.988,0.08667 h 0.93599 v 0.727999 q 0,1.36933 0.364,1.698663 0.17334,0.156 0.34667,0.156 0.156,0 0.43333,-0.138667 0.208,-0.104 0.52,-0.104 0.55467,0 0.90133,0.242667 0.55467,0.381332 0.55467,1.386664 0,0.467999 -0.0867,0.571998 -0.0693,0.104 -0.43333,0.104 -0.24267,0 -0.58933,0.190667 -0.312,0.155999 -0.81467,0.155999 h -0.32933 -0.32933 q -0.45067,0 -0.60667,0.190667 -0.104,0.121333 -0.104,0.346666 0,0.01733 0.0693,0.710665 0.052,0.311999 0.13867,2.027996 0.0347,1.161331 0.104,1.369331 0.0867,0.190666 0.572,0.190666 h 0.32933 0.832 V 50.4551 h -0.91866 q -0.884,0 -1.33467,-0.06933 -0.624,-0.104 -1.092,-0.623999 -0.468,-0.502665 -0.728,-1.334664 -0.0867,-0.329332 -0.20799,-1.785329 -0.104,-1.473331 -0.12134,-2.877328 -0.0347,-0.762665 -0.12133,-0.831999 -0.12133,-0.06933 -0.12133,-1.230664 v -1.161331 h 0.26 q 0.19066,0 0.22533,-0.03467 0.0347,-0.052 0,-0.259999 -0.104,-0.485332 -0.13867,-0.589332 -0.0693,-0.26 -0.0693,-0.589332 0,-0.467999 0.17333,-0.745332 z m 10.29598,2.617328 q 0.60666,-0.208 1.19599,-0.208 0.364,0 1.26534,0.08667 1.14399,0.104 1.14399,0.277333 0,0.121333 -0.312,1.126664 l -0.32933,1.022665 -1.05733,-0.06933 q -0.69333,-0.03467 -0.76267,-0.03467 -0.34666,0 -0.60666,0.156 -0.74533,0.467999 -1.00533,1.819996 l -0.156,0.779999 0.208,0.433332 q 0.26,0.537332 0.416,1.005332 0.17333,0.502665 0.32933,0.641332 0.17333,0.138666 0.74533,0.138666 0.45067,0 0.76267,-0.01733 l 1.23066,-0.03467 0.0867,0.485333 q 0.0867,0.433332 0.19066,0.987998 0.0173,0.121333 0.052,0.277332 0.0347,0.156 0.052,0.26 0.0347,0.104 0.0347,0.156 0,0.121333 -0.38133,0.173333 -0.38133,0.06933 -1.508,0.103999 -0.32933,0.01733 -0.78,0.01733 -0.55466,0 -1.23066,-0.208 -0.74533,-0.242666 -1.07467,-0.554666 -0.312,-0.311999 -0.55466,-1.039997 -0.0867,-0.277333 -0.364,-0.883999 -0.26,-0.623999 -0.43333,-1.109331 -0.156,-0.502666 -0.156,-0.849332 0,-0.363999 0.22533,-1.36933 0.24267,-1.005332 0.39867,-1.282664 0.13866,-0.277333 0.20799,-0.658666 0.0173,-0.08667 0.0347,-0.156 0.0347,-0.08667 0.052,-0.121333 0.0347,-0.03467 0.052,-0.01733 0.052,0.052 0.416,-0.311999 0.71067,-0.710666 1.612,-1.022665 z m 7.73066,0.121333 q 0.052,-0.052 0.104,-0.052 0.24266,0 0.24266,0.693332 0,0.225333 -0.052,0.433333 -0.12133,0.398666 -0.12133,1.230664 0,0.779998 0.24266,1.490664 0.208,0.606665 0.208,1.005331 0,0.346666 -0.0173,0.589332 -0.0347,0.623999 -0.0347,0.658666 0,0.329332 0.13867,0.415999 0.12133,0.121333 0.65867,0.207999 0.53733,0.08667 1.00533,0.08667 0.208,0 0.38133,-0.03467 0.32933,-0.08667 0.43333,-0.190666 0.12134,-0.121333 0.12134,-0.415999 0,-0.26 -0.0173,-0.433333 -0.0347,-0.346666 -0.17333,-1.230664 -0.13867,-0.883998 -0.13867,-1.403997 0,-0.589332 0.12134,-1.715997 0.12133,-1.126664 0.208,-1.265331 0.0173,-0.052 0.104,-0.052 0.104,0 1.03999,0.312 l 1.07467,0.363999 -0.0173,0.346666 q 0,0.052 -0.0347,0.554666 -0.0173,0.485332 -0.052,0.814665 -0.052,0.519999 -0.052,0.831998 0,0.363999 0.0693,0.589332 0.26,0.987998 0.26,3.41466 0,0.987998 -0.0867,0.987998 -0.0347,0 -0.052,-0.06933 l -0.0867,-0.207999 -0.29467,0.225332 q -0.34666,0.242667 -0.38133,0.242667 -0.052,0 -0.38133,0.225333 -0.69333,0.467999 -2.06267,0.467999 -0.43333,0 -0.67599,-0.01733 -1.26534,-0.06933 -1.57733,-0.155999 -0.69334,-0.190667 -1.21334,-0.883999 -0.77999,-1.074664 -0.77999,-1.993329 0,-0.277333 0.052,-0.589332 0.0347,-0.415999 0.0347,-0.519999 0,-0.312 -0.12133,-0.693332 -0.34667,-1.057331 -0.34667,-2.027996 0,-0.364 0.0173,-0.571999 0.0693,-0.970665 0.12133,-1.126665 0.0693,-0.155999 0.38133,-0.155999 0.32934,0 0.52,-0.190667 0.156,-0.155999 0.48533,-0.155999 h 0.19067 0.208 q 0.312,0 0.34667,-0.03467 z m 7.60931,-1.802663 -0.0693,-0.866665 h 2.42666 v 0.658665 q 0,0.658666 -0.156,0.901332 l -0.17333,0.277333 -0.97067,-0.03467 -0.988,-0.03467 z m 0.104,2.270662 q 0.0867,0 1.04,0.138667 0.97066,0.121333 1.05733,0.121333 0.0693,0 0.0693,0.710665 v 0.259999 0.519999 q 0,0.710666 0.0347,1.819997 0.0347,0.831998 0.0347,1.109331 0,0.571999 -0.052,0.901332 -0.0693,0.519999 -0.0693,0.849331 0,0.381333 0.052,0.918665 0.0693,0.901332 0.0693,1.074665 0,0.121333 -0.0173,0.138666 h -0.0347 q -0.19067,0 -1.144,-0.190666 -0.64133,-0.138667 -1.00533,-0.138667 -0.104,0 -0.104,0.01733 0,0.08667 -0.052,0.03467 -0.156,-0.155999 -0.156,-1.941329 0,-0.710665 0.052,-1.109331 0.0693,-0.433333 0.0693,-1.039998 0,-0.485333 -0.0173,-0.727999 -0.0867,-1.369331 -0.0867,-1.941329 v -0.658666 l 0.0173,-0.866665 z m 7.15865,-0.433332 q 1.04,0 1.092,-0.052 0.052,-0.052 0.29467,-0.052 0.468,0 0.884,0.138666 1.52533,0.537333 1.81999,1.594664 0.12134,0.433332 0.312,0.987998 0.29467,0.849332 0.48533,3.449327 0.0693,1.039998 0.0693,1.178664 0,0.311999 -0.0693,0.589332 -0.104,0.415999 -0.104,0.849332 0,0.606665 -0.34666,0.953331 -0.32933,0.346666 -0.91867,0.346666 -0.69333,0 -1.00533,-0.502665 -0.104,-0.138667 -0.104,-0.918665 0,-0.866665 0.12134,-1.161331 0.0347,-0.104 0.0347,-0.346666 0,-0.710666 -0.17333,-2.027996 -0.156,-1.334665 -0.32933,-1.871997 l -0.22534,-0.727998 q -0.38133,0 -1.16133,-0.01733 -0.76266,-0.01733 -1.144,-0.01733 l -0.19066,0.242666 q -0.17333,0.225333 -0.17333,0.519999 0,0.208 0.0173,0.363999 0.0693,0.658666 0.156,1.074665 0.29466,1.542664 0.29466,2.027996 0,0.294666 -0.0867,0.849332 -0.13867,0.970665 -0.26,1.091998 -0.12133,0.121333 -1.16133,0.259999 -0.64133,0.104 -0.884,0.156 l -0.26,0.052 0.052,-0.658666 q 0.0173,-0.242666 0.0693,-0.571998 0.052,-0.312 0.0693,-0.537333 0.0347,-0.242666 0.0347,-0.467999 0,-0.363999 -0.0693,-0.762665 -0.29467,-1.819997 -0.29467,-3.275994 v -0.450665 l 0.0347,-1.195998 0.364,-0.104 q 0.416,-0.104 0.676,-0.363999 0.39866,-0.398666 0.76266,-0.519999 0.364,-0.121333 1.092,-0.121333 z m 7.95598,-6.031989 q 0.32933,-0.277332 0.48533,-0.346666 0.17334,-0.06933 0.52,-0.06933 0.364,0 0.48534,0.052 0.12133,0.052 0.29466,0.277333 0.24267,0.294666 0.50267,1.126664 0.468,1.594664 0.76266,2.253329 0.17334,0.381333 0.208,0.641332 0.0347,0.26 0.052,1.074665 0.0173,1.178664 0.208,1.611997 0.24267,0.571999 0.24267,1.386664 0,0.485332 -0.104,0.831998 -0.17333,0.606666 -0.208,0.831999 -0.0867,0.519999 -0.24267,0.849331 -0.12133,0.242666 -0.208,0.537333 -0.0867,0.277332 -0.19066,0.710665 -0.0867,0.433332 -0.12134,0.571999 -0.0867,0.346666 -0.0867,0.727998 0,0.398666 -0.156,1.022665 -0.156,0.623999 -0.34667,0.987998 -0.24267,0.398666 -0.676,0.797332 -0.39866,0.346666 -0.84933,0.623999 -0.45067,0.294666 -0.60666,0.294666 l -0.0173,-0.01733 h -0.0173 q -0.12133,-0.08667 -0.58933,-1.039998 l -0.48534,-0.953331 0.468,-0.311999 q 0.48534,-0.346666 0.60667,-0.467999 0.27733,-0.312 0.27733,-1.195998 v -0.208 q 0,-0.173333 0.12133,-0.641332 0.13867,-0.467999 0.13867,-0.623999 0,-0.277332 0.27733,-1.022664 0.22534,-0.571999 0.38134,-1.317331 0.13866,-0.641332 0.22533,-0.831998 0.0693,-0.173333 0.0693,-0.242667 0,-0.121333 -0.208,-0.623998 -0.24266,-0.589333 -0.29466,-1.854664 -0.0347,-0.901331 -0.104,-1.178664 -0.052,-0.277333 -0.29467,-0.814665 -0.32933,-0.762665 -0.32933,-0.935998 0,-0.312 -0.19067,-0.762665 -0.17333,-0.467999 -0.416,-0.745332 -0.22533,-0.277333 -0.22533,-0.346666 0,-0.104 0.64133,-0.658666 z"
       id="text2"
       transform="matrix(0.14649235,0,0,0.14875892,22.729609,4.6467184)"
       aria-label="(dm betcuin)" />
  </g>
</svg>
